%TF.GenerationSoftware,KiCad,Pcbnew,10.0.5*%
%TF.CreationDate,2026-09-11T05:14:40-04:00*%
%TF.ProjectId,alu3,616c7533-2e6b-4696-9361-645f70636258,rev?*%
%TF.SameCoordinates,Original*%
%TF.FileFunction,Legend,Top*%
%TF.FilePolarity,Positive*%
%FSLAX46Y46*%
G04 Gerber Fmt 4.6, Leading zero omitted, Abs format (unit mm)*
G04 Created by KiCad (PCBNEW 10.0.5) date 2026-09-11 05:14:40*
%MOMM*%
%LPD*%
G01*
G04 APERTURE LIST*
%ADD10C,0.150000*%
%ADD11C,0.250000*%
%ADD12C,0.120000*%
G04 APERTURE END LIST*
D10*
X9289160Y-87762295D02*
X9289160Y-86962295D01*
X9670112Y-87762295D02*
X9670112Y-86962295D01*
X9670112Y-86962295D02*
X10127255Y-87762295D01*
X10127255Y-87762295D02*
X10127255Y-86962295D01*
X68446303Y-48732295D02*
X68179636Y-48351342D01*
X67989160Y-48732295D02*
X67989160Y-47932295D01*
X67989160Y-47932295D02*
X68293922Y-47932295D01*
X68293922Y-47932295D02*
X68370112Y-47970390D01*
X68370112Y-47970390D02*
X68408207Y-48008485D01*
X68408207Y-48008485D02*
X68446303Y-48084676D01*
X68446303Y-48084676D02*
X68446303Y-48198961D01*
X68446303Y-48198961D02*
X68408207Y-48275152D01*
X68408207Y-48275152D02*
X68370112Y-48313247D01*
X68370112Y-48313247D02*
X68293922Y-48351342D01*
X68293922Y-48351342D02*
X67989160Y-48351342D01*
X68712969Y-47932295D02*
X69208207Y-47932295D01*
X69208207Y-47932295D02*
X68941541Y-48237057D01*
X68941541Y-48237057D02*
X69055826Y-48237057D01*
X69055826Y-48237057D02*
X69132017Y-48275152D01*
X69132017Y-48275152D02*
X69170112Y-48313247D01*
X69170112Y-48313247D02*
X69208207Y-48389438D01*
X69208207Y-48389438D02*
X69208207Y-48579914D01*
X69208207Y-48579914D02*
X69170112Y-48656104D01*
X69170112Y-48656104D02*
X69132017Y-48694200D01*
X69132017Y-48694200D02*
X69055826Y-48732295D01*
X69055826Y-48732295D02*
X68827255Y-48732295D01*
X68827255Y-48732295D02*
X68751064Y-48694200D01*
X68751064Y-48694200D02*
X68712969Y-48656104D01*
X68446303Y-63896104D02*
X68408207Y-63934200D01*
X68408207Y-63934200D02*
X68293922Y-63972295D01*
X68293922Y-63972295D02*
X68217731Y-63972295D01*
X68217731Y-63972295D02*
X68103445Y-63934200D01*
X68103445Y-63934200D02*
X68027255Y-63858009D01*
X68027255Y-63858009D02*
X67989160Y-63781819D01*
X67989160Y-63781819D02*
X67951064Y-63629438D01*
X67951064Y-63629438D02*
X67951064Y-63515152D01*
X67951064Y-63515152D02*
X67989160Y-63362771D01*
X67989160Y-63362771D02*
X68027255Y-63286580D01*
X68027255Y-63286580D02*
X68103445Y-63210390D01*
X68103445Y-63210390D02*
X68217731Y-63172295D01*
X68217731Y-63172295D02*
X68293922Y-63172295D01*
X68293922Y-63172295D02*
X68408207Y-63210390D01*
X68408207Y-63210390D02*
X68446303Y-63248485D01*
X69055826Y-63553247D02*
X68789160Y-63553247D01*
X68789160Y-63972295D02*
X68789160Y-63172295D01*
X68789160Y-63172295D02*
X69170112Y-63172295D01*
X75592969Y-21262295D02*
X76126303Y-21262295D01*
X76126303Y-21262295D02*
X75592969Y-22062295D01*
X75592969Y-22062295D02*
X76126303Y-22062295D01*
X76697731Y-21643247D02*
X76431065Y-21643247D01*
X76431065Y-22062295D02*
X76431065Y-21262295D01*
X76431065Y-21262295D02*
X76812017Y-21262295D01*
X4490588Y-8854819D02*
X3919160Y-8854819D01*
X4204874Y-8854819D02*
X4204874Y-7854819D01*
X4204874Y-7854819D02*
X4109636Y-7997676D01*
X4109636Y-7997676D02*
X4014398Y-8092914D01*
X4014398Y-8092914D02*
X3919160Y-8140533D01*
D11*
X29521615Y-98880928D02*
X29521615Y-97380928D01*
X29521615Y-97380928D02*
X30378758Y-98880928D01*
X30378758Y-98880928D02*
X30378758Y-97380928D01*
X31093044Y-98880928D02*
X31093044Y-97380928D01*
X32307330Y-98095214D02*
X32521616Y-98166642D01*
X32521616Y-98166642D02*
X32593045Y-98238071D01*
X32593045Y-98238071D02*
X32664473Y-98380928D01*
X32664473Y-98380928D02*
X32664473Y-98595214D01*
X32664473Y-98595214D02*
X32593045Y-98738071D01*
X32593045Y-98738071D02*
X32521616Y-98809500D01*
X32521616Y-98809500D02*
X32378759Y-98880928D01*
X32378759Y-98880928D02*
X31807330Y-98880928D01*
X31807330Y-98880928D02*
X31807330Y-97380928D01*
X31807330Y-97380928D02*
X32307330Y-97380928D01*
X32307330Y-97380928D02*
X32450188Y-97452357D01*
X32450188Y-97452357D02*
X32521616Y-97523785D01*
X32521616Y-97523785D02*
X32593045Y-97666642D01*
X32593045Y-97666642D02*
X32593045Y-97809500D01*
X32593045Y-97809500D02*
X32521616Y-97952357D01*
X32521616Y-97952357D02*
X32450188Y-98023785D01*
X32450188Y-98023785D02*
X32307330Y-98095214D01*
X32307330Y-98095214D02*
X31807330Y-98095214D01*
X33807330Y-98095214D02*
X34021616Y-98166642D01*
X34021616Y-98166642D02*
X34093045Y-98238071D01*
X34093045Y-98238071D02*
X34164473Y-98380928D01*
X34164473Y-98380928D02*
X34164473Y-98595214D01*
X34164473Y-98595214D02*
X34093045Y-98738071D01*
X34093045Y-98738071D02*
X34021616Y-98809500D01*
X34021616Y-98809500D02*
X33878759Y-98880928D01*
X33878759Y-98880928D02*
X33307330Y-98880928D01*
X33307330Y-98880928D02*
X33307330Y-97380928D01*
X33307330Y-97380928D02*
X33807330Y-97380928D01*
X33807330Y-97380928D02*
X33950188Y-97452357D01*
X33950188Y-97452357D02*
X34021616Y-97523785D01*
X34021616Y-97523785D02*
X34093045Y-97666642D01*
X34093045Y-97666642D02*
X34093045Y-97809500D01*
X34093045Y-97809500D02*
X34021616Y-97952357D01*
X34021616Y-97952357D02*
X33950188Y-98023785D01*
X33950188Y-98023785D02*
X33807330Y-98095214D01*
X33807330Y-98095214D02*
X33307330Y-98095214D01*
X35521616Y-98880928D02*
X34807330Y-98880928D01*
X34807330Y-98880928D02*
X34807330Y-97380928D01*
X36021616Y-98095214D02*
X36521616Y-98095214D01*
X36735902Y-98880928D02*
X36021616Y-98880928D01*
X36021616Y-98880928D02*
X36021616Y-97380928D01*
X36021616Y-97380928D02*
X36735902Y-97380928D01*
X39593045Y-98452357D02*
X40307331Y-98452357D01*
X39450188Y-98880928D02*
X39950188Y-97380928D01*
X39950188Y-97380928D02*
X40450188Y-98880928D01*
X41664473Y-98880928D02*
X40950187Y-98880928D01*
X40950187Y-98880928D02*
X40950187Y-97380928D01*
X42164473Y-97380928D02*
X42164473Y-98595214D01*
X42164473Y-98595214D02*
X42235902Y-98738071D01*
X42235902Y-98738071D02*
X42307331Y-98809500D01*
X42307331Y-98809500D02*
X42450188Y-98880928D01*
X42450188Y-98880928D02*
X42735902Y-98880928D01*
X42735902Y-98880928D02*
X42878759Y-98809500D01*
X42878759Y-98809500D02*
X42950188Y-98738071D01*
X42950188Y-98738071D02*
X43021616Y-98595214D01*
X43021616Y-98595214D02*
X43021616Y-97380928D01*
X45378759Y-98095214D02*
X45593045Y-98166642D01*
X45593045Y-98166642D02*
X45664474Y-98238071D01*
X45664474Y-98238071D02*
X45735902Y-98380928D01*
X45735902Y-98380928D02*
X45735902Y-98595214D01*
X45735902Y-98595214D02*
X45664474Y-98738071D01*
X45664474Y-98738071D02*
X45593045Y-98809500D01*
X45593045Y-98809500D02*
X45450188Y-98880928D01*
X45450188Y-98880928D02*
X44878759Y-98880928D01*
X44878759Y-98880928D02*
X44878759Y-97380928D01*
X44878759Y-97380928D02*
X45378759Y-97380928D01*
X45378759Y-97380928D02*
X45521617Y-97452357D01*
X45521617Y-97452357D02*
X45593045Y-97523785D01*
X45593045Y-97523785D02*
X45664474Y-97666642D01*
X45664474Y-97666642D02*
X45664474Y-97809500D01*
X45664474Y-97809500D02*
X45593045Y-97952357D01*
X45593045Y-97952357D02*
X45521617Y-98023785D01*
X45521617Y-98023785D02*
X45378759Y-98095214D01*
X45378759Y-98095214D02*
X44878759Y-98095214D01*
X46378759Y-98880928D02*
X46378759Y-97380928D01*
X46878760Y-97380928D02*
X47735903Y-97380928D01*
X47307331Y-98880928D02*
X47307331Y-97380928D01*
X49235902Y-97380928D02*
X50164474Y-97380928D01*
X50164474Y-97380928D02*
X49664474Y-97952357D01*
X49664474Y-97952357D02*
X49878759Y-97952357D01*
X49878759Y-97952357D02*
X50021617Y-98023785D01*
X50021617Y-98023785D02*
X50093045Y-98095214D01*
X50093045Y-98095214D02*
X50164474Y-98238071D01*
X50164474Y-98238071D02*
X50164474Y-98595214D01*
X50164474Y-98595214D02*
X50093045Y-98738071D01*
X50093045Y-98738071D02*
X50021617Y-98809500D01*
X50021617Y-98809500D02*
X49878759Y-98880928D01*
X49878759Y-98880928D02*
X49450188Y-98880928D01*
X49450188Y-98880928D02*
X49307331Y-98809500D01*
X49307331Y-98809500D02*
X49235902Y-98738071D01*
D10*
X3238095Y-46304819D02*
X3238095Y-45304819D01*
X3238095Y-45781009D02*
X3809523Y-45781009D01*
X3809523Y-46304819D02*
X3809523Y-45304819D01*
X4809523Y-46304819D02*
X4238095Y-46304819D01*
X4523809Y-46304819D02*
X4523809Y-45304819D01*
X4523809Y-45304819D02*
X4428571Y-45447676D01*
X4428571Y-45447676D02*
X4333333Y-45542914D01*
X4333333Y-45542914D02*
X4238095Y-45590533D01*
X97859580Y-17916666D02*
X97907200Y-17964285D01*
X97907200Y-17964285D02*
X97954819Y-18107142D01*
X97954819Y-18107142D02*
X97954819Y-18202380D01*
X97954819Y-18202380D02*
X97907200Y-18345237D01*
X97907200Y-18345237D02*
X97811961Y-18440475D01*
X97811961Y-18440475D02*
X97716723Y-18488094D01*
X97716723Y-18488094D02*
X97526247Y-18535713D01*
X97526247Y-18535713D02*
X97383390Y-18535713D01*
X97383390Y-18535713D02*
X97192914Y-18488094D01*
X97192914Y-18488094D02*
X97097676Y-18440475D01*
X97097676Y-18440475D02*
X97002438Y-18345237D01*
X97002438Y-18345237D02*
X96954819Y-18202380D01*
X96954819Y-18202380D02*
X96954819Y-18107142D01*
X96954819Y-18107142D02*
X97002438Y-17964285D01*
X97002438Y-17964285D02*
X97050057Y-17916666D01*
X97954819Y-16964285D02*
X97954819Y-17535713D01*
X97954819Y-17249999D02*
X96954819Y-17249999D01*
X96954819Y-17249999D02*
X97097676Y-17345237D01*
X97097676Y-17345237D02*
X97192914Y-17440475D01*
X97192914Y-17440475D02*
X97240533Y-17535713D01*
X95238095Y-46304819D02*
X95238095Y-45304819D01*
X95238095Y-45781009D02*
X95809523Y-45781009D01*
X95809523Y-46304819D02*
X95809523Y-45304819D01*
X96238095Y-45400057D02*
X96285714Y-45352438D01*
X96285714Y-45352438D02*
X96380952Y-45304819D01*
X96380952Y-45304819D02*
X96619047Y-45304819D01*
X96619047Y-45304819D02*
X96714285Y-45352438D01*
X96714285Y-45352438D02*
X96761904Y-45400057D01*
X96761904Y-45400057D02*
X96809523Y-45495295D01*
X96809523Y-45495295D02*
X96809523Y-45590533D01*
X96809523Y-45590533D02*
X96761904Y-45733390D01*
X96761904Y-45733390D02*
X96190476Y-46304819D01*
X96190476Y-46304819D02*
X96809523Y-46304819D01*
X99109580Y-27166666D02*
X99157200Y-27214285D01*
X99157200Y-27214285D02*
X99204819Y-27357142D01*
X99204819Y-27357142D02*
X99204819Y-27452380D01*
X99204819Y-27452380D02*
X99157200Y-27595237D01*
X99157200Y-27595237D02*
X99061961Y-27690475D01*
X99061961Y-27690475D02*
X98966723Y-27738094D01*
X98966723Y-27738094D02*
X98776247Y-27785713D01*
X98776247Y-27785713D02*
X98633390Y-27785713D01*
X98633390Y-27785713D02*
X98442914Y-27738094D01*
X98442914Y-27738094D02*
X98347676Y-27690475D01*
X98347676Y-27690475D02*
X98252438Y-27595237D01*
X98252438Y-27595237D02*
X98204819Y-27452380D01*
X98204819Y-27452380D02*
X98204819Y-27357142D01*
X98204819Y-27357142D02*
X98252438Y-27214285D01*
X98252438Y-27214285D02*
X98300057Y-27166666D01*
X98300057Y-26785713D02*
X98252438Y-26738094D01*
X98252438Y-26738094D02*
X98204819Y-26642856D01*
X98204819Y-26642856D02*
X98204819Y-26404761D01*
X98204819Y-26404761D02*
X98252438Y-26309523D01*
X98252438Y-26309523D02*
X98300057Y-26261904D01*
X98300057Y-26261904D02*
X98395295Y-26214285D01*
X98395295Y-26214285D02*
X98490533Y-26214285D01*
X98490533Y-26214285D02*
X98633390Y-26261904D01*
X98633390Y-26261904D02*
X99204819Y-26833332D01*
X99204819Y-26833332D02*
X99204819Y-26214285D01*
%TO.C,Q7*%
D12*
X9740000Y-65475000D02*
X13340000Y-65475000D01*
X9183600Y-62526193D02*
G75*
G02*
X11540000Y-61025000I2356400J-1098807D01*
G01*
X9740000Y-65475000D02*
G75*
G02*
X9215816Y-64747795I1800000J1850000D01*
G01*
X11540000Y-61025000D02*
G75*
G02*
X13896400Y-62526193I0J-2600000D01*
G01*
X13864184Y-64747795D02*
G75*
G02*
X13340000Y-65475000I-2324184J1122795D01*
G01*
%TO.C,R3*%
X10370000Y-32510000D02*
X12980000Y-32510000D01*
X10370000Y-32510000D02*
G75*
G02*
X7630000Y-32510000I-1370000J0D01*
G01*
X7630000Y-32510000D02*
G75*
G02*
X10370000Y-32510000I1370000J0D01*
G01*
%TO.C,Q37*%
X36380000Y-79555000D02*
X32780000Y-79555000D01*
X32255816Y-80282205D02*
G75*
G02*
X32780000Y-79555000I2324184J-1122795D01*
G01*
X34580000Y-84005000D02*
G75*
G02*
X32223600Y-82503807I0J2600000D01*
G01*
X36380000Y-79555000D02*
G75*
G02*
X36904184Y-80282205I-1800000J-1850000D01*
G01*
X36936400Y-82503807D02*
G75*
G02*
X34580000Y-84005000I-2356400J1098807D01*
G01*
%TO.C,Q34*%
X36380000Y-61140000D02*
X32780000Y-61140000D01*
X32255816Y-61867205D02*
G75*
G02*
X32780000Y-61140000I2324184J-1122795D01*
G01*
X34580000Y-65590000D02*
G75*
G02*
X32223600Y-64088807I0J2600000D01*
G01*
X36380000Y-61140000D02*
G75*
G02*
X36904184Y-61867205I-1800000J-1850000D01*
G01*
X36936400Y-64088807D02*
G75*
G02*
X34580000Y-65590000I-2356400J1098807D01*
G01*
%TO.C,R33*%
X48770000Y-69340000D02*
X51380000Y-69340000D01*
X48770000Y-69340000D02*
G75*
G02*
X46030000Y-69340000I-1370000J0D01*
G01*
X46030000Y-69340000D02*
G75*
G02*
X48770000Y-69340000I1370000J0D01*
G01*
%TO.C,R12*%
X25730000Y-16000000D02*
X28340000Y-16000000D01*
X25730000Y-16000000D02*
G75*
G02*
X22990000Y-16000000I-1370000J0D01*
G01*
X22990000Y-16000000D02*
G75*
G02*
X25730000Y-16000000I1370000J0D01*
G01*
%TO.C,R25*%
X41090000Y-42670000D02*
X43700000Y-42670000D01*
X41090000Y-42670000D02*
G75*
G02*
X38350000Y-42670000I-1370000J0D01*
G01*
X38350000Y-42670000D02*
G75*
G02*
X41090000Y-42670000I1370000J0D01*
G01*
%TO.C,Q63*%
X55820000Y-57220000D02*
X59420000Y-57220000D01*
X55263600Y-54271193D02*
G75*
G02*
X57620000Y-52770000I2356400J-1098807D01*
G01*
X55820000Y-57220000D02*
G75*
G02*
X55295816Y-56492795I1800000J1850000D01*
G01*
X57620000Y-52770000D02*
G75*
G02*
X59976400Y-54271193I0J-2600000D01*
G01*
X59944184Y-56492795D02*
G75*
G02*
X59420000Y-57220000I-2324184J1122795D01*
G01*
%TO.C,R26*%
X41090000Y-50925000D02*
X43700000Y-50925000D01*
X41090000Y-50925000D02*
G75*
G02*
X38350000Y-50925000I-1370000J0D01*
G01*
X38350000Y-50925000D02*
G75*
G02*
X41090000Y-50925000I1370000J0D01*
G01*
%TO.C,R28*%
X41090000Y-67435000D02*
X43700000Y-67435000D01*
X41090000Y-67435000D02*
G75*
G02*
X38350000Y-67435000I-1370000J0D01*
G01*
X38350000Y-67435000D02*
G75*
G02*
X41090000Y-67435000I1370000J0D01*
G01*
%TO.C,R5*%
X10370000Y-54100000D02*
X12980000Y-54100000D01*
X10370000Y-54100000D02*
G75*
G02*
X7630000Y-54100000I-1370000J0D01*
G01*
X7630000Y-54100000D02*
G75*
G02*
X10370000Y-54100000I1370000J0D01*
G01*
%TO.C,Q60*%
X55820000Y-35630000D02*
X59420000Y-35630000D01*
X55263600Y-32681193D02*
G75*
G02*
X57620000Y-31180000I2356400J-1098807D01*
G01*
X55820000Y-35630000D02*
G75*
G02*
X55295816Y-34902795I1800000J1850000D01*
G01*
X57620000Y-31180000D02*
G75*
G02*
X59976400Y-32681193I0J-2600000D01*
G01*
X59944184Y-34902795D02*
G75*
G02*
X59420000Y-35630000I-2324184J1122795D01*
G01*
%TO.C,Q26*%
X25100000Y-70555000D02*
X28700000Y-70555000D01*
X24543600Y-67606193D02*
G75*
G02*
X26900000Y-66105000I2356400J-1098807D01*
G01*
X25100000Y-70555000D02*
G75*
G02*
X24575816Y-69827795I1800000J1850000D01*
G01*
X26900000Y-66105000D02*
G75*
G02*
X29256400Y-67606193I0J-2600000D01*
G01*
X29224184Y-69827795D02*
G75*
G02*
X28700000Y-70555000I-2324184J1122795D01*
G01*
%TO.C,Q35*%
X36380000Y-66220000D02*
X32780000Y-66220000D01*
X32255816Y-66947205D02*
G75*
G02*
X32780000Y-66220000I2324184J-1122795D01*
G01*
X34580000Y-70670000D02*
G75*
G02*
X32223600Y-69168807I0J2600000D01*
G01*
X36380000Y-66220000D02*
G75*
G02*
X36904184Y-66947205I-1800000J-1850000D01*
G01*
X36936400Y-69168807D02*
G75*
G02*
X34580000Y-70670000I-2356400J1098807D01*
G01*
%TO.C,Q40*%
X40460000Y-35630000D02*
X44060000Y-35630000D01*
X39903600Y-32681193D02*
G75*
G02*
X42260000Y-31180000I2356400J-1098807D01*
G01*
X40460000Y-35630000D02*
G75*
G02*
X39935816Y-34902795I1800000J1850000D01*
G01*
X42260000Y-31180000D02*
G75*
G02*
X44616400Y-32681193I0J-2600000D01*
G01*
X44584184Y-34902795D02*
G75*
G02*
X44060000Y-35630000I-2324184J1122795D01*
G01*
%TO.C,R44*%
X71810000Y-16000000D02*
X74420000Y-16000000D01*
X71810000Y-16000000D02*
G75*
G02*
X69070000Y-16000000I-1370000J0D01*
G01*
X69070000Y-16000000D02*
G75*
G02*
X71810000Y-16000000I1370000J0D01*
G01*
%TO.C,Q28*%
X36380000Y-17960000D02*
X32780000Y-17960000D01*
X32255816Y-18687205D02*
G75*
G02*
X32780000Y-17960000I2324184J-1122795D01*
G01*
X34580000Y-22410000D02*
G75*
G02*
X32223600Y-20908807I0J2600000D01*
G01*
X36380000Y-17960000D02*
G75*
G02*
X36904184Y-18687205I-1800000J-1850000D01*
G01*
X36936400Y-20908807D02*
G75*
G02*
X34580000Y-22410000I-2356400J1098807D01*
G01*
%TO.C,Q46*%
X40460000Y-78810000D02*
X44060000Y-78810000D01*
X39903600Y-75861193D02*
G75*
G02*
X42260000Y-74360000I2356400J-1098807D01*
G01*
X40460000Y-78810000D02*
G75*
G02*
X39935816Y-78082795I1800000J1850000D01*
G01*
X42260000Y-74360000D02*
G75*
G02*
X44616400Y-75861193I0J-2600000D01*
G01*
X44584184Y-78082795D02*
G75*
G02*
X44060000Y-78810000I-2324184J1122795D01*
G01*
%TO.C,Q9*%
X9740000Y-78810000D02*
X13340000Y-78810000D01*
X9183600Y-75861193D02*
G75*
G02*
X11540000Y-74360000I2356400J-1098807D01*
G01*
X9740000Y-78810000D02*
G75*
G02*
X9215816Y-78082795I1800000J1850000D01*
G01*
X11540000Y-74360000D02*
G75*
G02*
X13896400Y-75861193I0J-2600000D01*
G01*
X13864184Y-78082795D02*
G75*
G02*
X13340000Y-78810000I-2324184J1122795D01*
G01*
%TO.C,J1*%
X5420000Y-1670000D02*
X94580000Y-1670000D01*
X5420000Y-10790000D02*
X5420000Y-1670000D01*
X6720000Y-2980000D02*
X93280000Y-2980000D01*
X6720000Y-9480000D02*
X6720000Y-2980000D01*
X10130000Y-12180000D02*
X11130000Y-12180000D01*
X10630000Y-11180000D02*
X10130000Y-12180000D01*
X11130000Y-12180000D02*
X10630000Y-11180000D01*
X47950000Y-9480000D02*
X6720000Y-9480000D01*
X47950000Y-10790000D02*
X47950000Y-9480000D01*
X52050000Y-9480000D02*
X52050000Y-10790000D01*
X93280000Y-2980000D02*
X93280000Y-9480000D01*
X93280000Y-9480000D02*
X52050000Y-9480000D01*
X94580000Y-1670000D02*
X94580000Y-10790000D01*
X94580000Y-10790000D02*
X5420000Y-10790000D01*
%TO.C,Q55*%
X51740000Y-71300000D02*
X48140000Y-71300000D01*
X47615816Y-72027205D02*
G75*
G02*
X48140000Y-71300000I2324184J-1122795D01*
G01*
X49940000Y-75750000D02*
G75*
G02*
X47583600Y-74248807I0J2600000D01*
G01*
X51740000Y-71300000D02*
G75*
G02*
X52264184Y-72027205I-1800000J-1850000D01*
G01*
X52296400Y-74248807D02*
G75*
G02*
X49940000Y-75750000I-2356400J1098807D01*
G01*
%TO.C,Q29*%
X36380000Y-23040000D02*
X32780000Y-23040000D01*
X32255816Y-23767205D02*
G75*
G02*
X32780000Y-23040000I2324184J-1122795D01*
G01*
X34580000Y-27490000D02*
G75*
G02*
X32223600Y-25988807I0J2600000D01*
G01*
X36380000Y-23040000D02*
G75*
G02*
X36904184Y-23767205I-1800000J-1850000D01*
G01*
X36936400Y-25988807D02*
G75*
G02*
X34580000Y-27490000I-2356400J1098807D01*
G01*
%TO.C,R40*%
X64130000Y-16000000D02*
X66740000Y-16000000D01*
X64130000Y-16000000D02*
G75*
G02*
X61390000Y-16000000I-1370000J0D01*
G01*
X61390000Y-16000000D02*
G75*
G02*
X64130000Y-16000000I1370000J0D01*
G01*
%TO.C,Q3*%
X9740000Y-38805000D02*
X13340000Y-38805000D01*
X9183600Y-35856193D02*
G75*
G02*
X11540000Y-34355000I2356400J-1098807D01*
G01*
X9740000Y-38805000D02*
G75*
G02*
X9215816Y-38077795I1800000J1850000D01*
G01*
X11540000Y-34355000D02*
G75*
G02*
X13896400Y-35856193I0J-2600000D01*
G01*
X13864184Y-38077795D02*
G75*
G02*
X13340000Y-38805000I-2324184J1122795D01*
G01*
%TO.C,Q2*%
X9740000Y-30550000D02*
X13340000Y-30550000D01*
X9183600Y-27601193D02*
G75*
G02*
X11540000Y-26100000I2356400J-1098807D01*
G01*
X9740000Y-30550000D02*
G75*
G02*
X9215816Y-29822795I1800000J1850000D01*
G01*
X11540000Y-26100000D02*
G75*
G02*
X13896400Y-27601193I0J-2600000D01*
G01*
X13864184Y-29822795D02*
G75*
G02*
X13340000Y-30550000I-2324184J1122795D01*
G01*
%TO.C,Q70*%
X67100000Y-36375000D02*
X63500000Y-36375000D01*
X62975816Y-37102205D02*
G75*
G02*
X63500000Y-36375000I2324184J-1122795D01*
G01*
X65300000Y-40825000D02*
G75*
G02*
X62943600Y-39323807I0J2600000D01*
G01*
X67100000Y-36375000D02*
G75*
G02*
X67624184Y-37102205I-1800000J-1850000D01*
G01*
X67656400Y-39323807D02*
G75*
G02*
X65300000Y-40825000I-2356400J1098807D01*
G01*
%TO.C,Q17*%
X21020000Y-66220000D02*
X17420000Y-66220000D01*
X16895816Y-66947205D02*
G75*
G02*
X17420000Y-66220000I2324184J-1122795D01*
G01*
X19220000Y-70670000D02*
G75*
G02*
X16863600Y-69168807I0J2600000D01*
G01*
X21020000Y-66220000D02*
G75*
G02*
X21544184Y-66947205I-1800000J-1850000D01*
G01*
X21576400Y-69168807D02*
G75*
G02*
X19220000Y-70670000I-2356400J1098807D01*
G01*
%TO.C,R19*%
X33410000Y-42670000D02*
X36020000Y-42670000D01*
X33410000Y-42670000D02*
G75*
G02*
X30670000Y-42670000I-1370000J0D01*
G01*
X30670000Y-42670000D02*
G75*
G02*
X33410000Y-42670000I1370000J0D01*
G01*
%TO.C,R8*%
X18050000Y-29335000D02*
X20660000Y-29335000D01*
X18050000Y-29335000D02*
G75*
G02*
X15310000Y-29335000I-1370000J0D01*
G01*
X15310000Y-29335000D02*
G75*
G02*
X18050000Y-29335000I1370000J0D01*
G01*
%TO.C,R39*%
X56450000Y-72515000D02*
X59060000Y-72515000D01*
X56450000Y-72515000D02*
G75*
G02*
X53710000Y-72515000I-1370000J0D01*
G01*
X53710000Y-72515000D02*
G75*
G02*
X56450000Y-72515000I1370000J0D01*
G01*
%TO.C,Q14*%
X21020000Y-44630000D02*
X17420000Y-44630000D01*
X16895816Y-45357205D02*
G75*
G02*
X17420000Y-44630000I2324184J-1122795D01*
G01*
X19220000Y-49080000D02*
G75*
G02*
X16863600Y-47578807I0J2600000D01*
G01*
X21020000Y-44630000D02*
G75*
G02*
X21544184Y-45357205I-1800000J-1850000D01*
G01*
X21576400Y-47578807D02*
G75*
G02*
X19220000Y-49080000I-2356400J1098807D01*
G01*
%TO.C,J2*%
X8790000Y-89170000D02*
X24290000Y-89170000D01*
X8790000Y-98290000D02*
X8790000Y-89170000D01*
X10090000Y-90480000D02*
X22990000Y-90480000D01*
X10090000Y-96980000D02*
X10090000Y-90480000D01*
X13500000Y-99680000D02*
X14500000Y-99680000D01*
X14000000Y-98680000D02*
X13500000Y-99680000D01*
X14490000Y-96980000D02*
X10090000Y-96980000D01*
X14490000Y-98290000D02*
X14490000Y-96980000D01*
X14500000Y-99680000D02*
X14000000Y-98680000D01*
X18590000Y-96980000D02*
X18590000Y-98290000D01*
X22990000Y-90480000D02*
X22990000Y-96980000D01*
X22990000Y-96980000D02*
X18590000Y-96980000D01*
X24290000Y-89170000D02*
X24290000Y-98290000D01*
X24290000Y-98290000D02*
X8790000Y-98290000D01*
%TO.C,Q54*%
X51740000Y-63045000D02*
X48140000Y-63045000D01*
X47615816Y-63772205D02*
G75*
G02*
X48140000Y-63045000I2324184J-1122795D01*
G01*
X49940000Y-67495000D02*
G75*
G02*
X47583600Y-65993807I0J2600000D01*
G01*
X51740000Y-63045000D02*
G75*
G02*
X52264184Y-63772205I-1800000J-1850000D01*
G01*
X52296400Y-65993807D02*
G75*
G02*
X49940000Y-67495000I-2356400J1098807D01*
G01*
%TO.C,Q13*%
X21020000Y-36375000D02*
X17420000Y-36375000D01*
X16895816Y-37102205D02*
G75*
G02*
X17420000Y-36375000I2324184J-1122795D01*
G01*
X19220000Y-40825000D02*
G75*
G02*
X16863600Y-39323807I0J2600000D01*
G01*
X21020000Y-36375000D02*
G75*
G02*
X21544184Y-37102205I-1800000J-1850000D01*
G01*
X21576400Y-39323807D02*
G75*
G02*
X19220000Y-40825000I-2356400J1098807D01*
G01*
%TO.C,D1*%
X64064000Y-49310000D02*
X64220000Y-49310000D01*
X66380000Y-49310000D02*
X66536000Y-49310000D01*
X64064484Y-49310000D02*
G75*
G02*
X64220000Y-46078563I1235516J1560000D01*
G01*
X64220000Y-48790961D02*
G75*
G02*
X64220000Y-46709039I1080000J1040961D01*
G01*
X66380000Y-46078563D02*
G75*
G02*
X66535516Y-49310000I-1080000J-1671437D01*
G01*
X66380000Y-46709039D02*
G75*
G02*
X66380000Y-48790961I-1080000J-1040961D01*
G01*
%TO.C,Q65*%
X55820000Y-70555000D02*
X59420000Y-70555000D01*
X55263600Y-67606193D02*
G75*
G02*
X57620000Y-66105000I2356400J-1098807D01*
G01*
X55820000Y-70555000D02*
G75*
G02*
X55295816Y-69827795I1800000J1850000D01*
G01*
X57620000Y-66105000D02*
G75*
G02*
X59976400Y-67606193I0J-2600000D01*
G01*
X59944184Y-69827795D02*
G75*
G02*
X59420000Y-70555000I-2324184J1122795D01*
G01*
%TO.C,Q19*%
X25100000Y-22295000D02*
X28700000Y-22295000D01*
X24543600Y-19346193D02*
G75*
G02*
X26900000Y-17845000I2356400J-1098807D01*
G01*
X25100000Y-22295000D02*
G75*
G02*
X24575816Y-21567795I1800000J1850000D01*
G01*
X26900000Y-17845000D02*
G75*
G02*
X29256400Y-19346193I0J-2600000D01*
G01*
X29224184Y-21567795D02*
G75*
G02*
X28700000Y-22295000I-2324184J1122795D01*
G01*
%TO.C,Q62*%
X55820000Y-52140000D02*
X59420000Y-52140000D01*
X55263600Y-49191193D02*
G75*
G02*
X57620000Y-47690000I2356400J-1098807D01*
G01*
X55820000Y-52140000D02*
G75*
G02*
X55295816Y-51412795I1800000J1850000D01*
G01*
X57620000Y-47690000D02*
G75*
G02*
X59976400Y-49191193I0J-2600000D01*
G01*
X59944184Y-51412795D02*
G75*
G02*
X59420000Y-52140000I-2324184J1122795D01*
G01*
%TO.C,Q73*%
X71180000Y-28645000D02*
X74780000Y-28645000D01*
X70623600Y-25696193D02*
G75*
G02*
X72980000Y-24195000I2356400J-1098807D01*
G01*
X71180000Y-28645000D02*
G75*
G02*
X70655816Y-27917795I1800000J1850000D01*
G01*
X72980000Y-24195000D02*
G75*
G02*
X75336400Y-25696193I0J-2600000D01*
G01*
X75304184Y-27917795D02*
G75*
G02*
X74780000Y-28645000I-2324184J1122795D01*
G01*
%TO.C,R11*%
X18050000Y-64260000D02*
X20660000Y-64260000D01*
X18050000Y-64260000D02*
G75*
G02*
X15310000Y-64260000I-1370000J0D01*
G01*
X15310000Y-64260000D02*
G75*
G02*
X18050000Y-64260000I1370000J0D01*
G01*
%TO.C,R30*%
X48770000Y-29335000D02*
X51380000Y-29335000D01*
X48770000Y-29335000D02*
G75*
G02*
X46030000Y-29335000I-1370000J0D01*
G01*
X46030000Y-29335000D02*
G75*
G02*
X48770000Y-29335000I1370000J0D01*
G01*
%TO.C,R31*%
X48770000Y-42670000D02*
X51380000Y-42670000D01*
X48770000Y-42670000D02*
G75*
G02*
X46030000Y-42670000I-1370000J0D01*
G01*
X46030000Y-42670000D02*
G75*
G02*
X48770000Y-42670000I1370000J0D01*
G01*
%TO.C,R9*%
X18050000Y-42670000D02*
X20660000Y-42670000D01*
X18050000Y-42670000D02*
G75*
G02*
X15310000Y-42670000I-1370000J0D01*
G01*
X15310000Y-42670000D02*
G75*
G02*
X18050000Y-42670000I1370000J0D01*
G01*
%TO.C,Q6*%
X9740000Y-60395000D02*
X13340000Y-60395000D01*
X9183600Y-57446193D02*
G75*
G02*
X11540000Y-55945000I2356400J-1098807D01*
G01*
X9740000Y-60395000D02*
G75*
G02*
X9215816Y-59667795I1800000J1850000D01*
G01*
X11540000Y-55945000D02*
G75*
G02*
X13896400Y-57446193I0J-2600000D01*
G01*
X13864184Y-59667795D02*
G75*
G02*
X13340000Y-60395000I-2324184J1122795D01*
G01*
%TO.C,Q47*%
X51740000Y-17960000D02*
X48140000Y-17960000D01*
X47615816Y-18687205D02*
G75*
G02*
X48140000Y-17960000I2324184J-1122795D01*
G01*
X49940000Y-22410000D02*
G75*
G02*
X47583600Y-20908807I0J2600000D01*
G01*
X51740000Y-17960000D02*
G75*
G02*
X52264184Y-18687205I-1800000J-1850000D01*
G01*
X52296400Y-20908807D02*
G75*
G02*
X49940000Y-22410000I-2356400J1098807D01*
G01*
%TO.C,Q25*%
X25100000Y-62300000D02*
X28700000Y-62300000D01*
X24543600Y-59351193D02*
G75*
G02*
X26900000Y-57850000I2356400J-1098807D01*
G01*
X25100000Y-62300000D02*
G75*
G02*
X24575816Y-61572795I1800000J1850000D01*
G01*
X26900000Y-57850000D02*
G75*
G02*
X29256400Y-59351193I0J-2600000D01*
G01*
X29224184Y-61572795D02*
G75*
G02*
X28700000Y-62300000I-2324184J1122795D01*
G01*
%TO.C,Q45*%
X40460000Y-73730000D02*
X44060000Y-73730000D01*
X39903600Y-70781193D02*
G75*
G02*
X42260000Y-69280000I2356400J-1098807D01*
G01*
X40460000Y-73730000D02*
G75*
G02*
X39935816Y-73002795I1800000J1850000D01*
G01*
X42260000Y-69280000D02*
G75*
G02*
X44616400Y-70781193I0J-2600000D01*
G01*
X44584184Y-73002795D02*
G75*
G02*
X44060000Y-73730000I-2324184J1122795D01*
G01*
%TO.C,Q48*%
X51740000Y-23040000D02*
X48140000Y-23040000D01*
X47615816Y-23767205D02*
G75*
G02*
X48140000Y-23040000I2324184J-1122795D01*
G01*
X49940000Y-27490000D02*
G75*
G02*
X47583600Y-25988807I0J2600000D01*
G01*
X51740000Y-23040000D02*
G75*
G02*
X52264184Y-23767205I-1800000J-1850000D01*
G01*
X52296400Y-25988807D02*
G75*
G02*
X49940000Y-27490000I-2356400J1098807D01*
G01*
%TO.C,R37*%
X56450000Y-45845000D02*
X59060000Y-45845000D01*
X56450000Y-45845000D02*
G75*
G02*
X53710000Y-45845000I-1370000J0D01*
G01*
X53710000Y-45845000D02*
G75*
G02*
X56450000Y-45845000I1370000J0D01*
G01*
%TO.C,Q52*%
X51740000Y-49710000D02*
X48140000Y-49710000D01*
X47615816Y-50437205D02*
G75*
G02*
X48140000Y-49710000I2324184J-1122795D01*
G01*
X49940000Y-54160000D02*
G75*
G02*
X47583600Y-52658807I0J2600000D01*
G01*
X51740000Y-49710000D02*
G75*
G02*
X52264184Y-50437205I-1800000J-1850000D01*
G01*
X52296400Y-52658807D02*
G75*
G02*
X49940000Y-54160000I-2356400J1098807D01*
G01*
%TO.C,R2*%
X10370000Y-24255000D02*
X12980000Y-24255000D01*
X10370000Y-24255000D02*
G75*
G02*
X7630000Y-24255000I-1370000J0D01*
G01*
X7630000Y-24255000D02*
G75*
G02*
X10370000Y-24255000I1370000J0D01*
G01*
%TO.C,D2*%
X64064000Y-64550000D02*
X64220000Y-64550000D01*
X66380000Y-64550000D02*
X66536000Y-64550000D01*
X64064484Y-64550000D02*
G75*
G02*
X64220000Y-61318563I1235516J1560000D01*
G01*
X64220000Y-64030961D02*
G75*
G02*
X64220000Y-61949039I1080000J1040961D01*
G01*
X66380000Y-61318563D02*
G75*
G02*
X66535516Y-64550000I-1080000J-1671437D01*
G01*
X66380000Y-61949039D02*
G75*
G02*
X66380000Y-64030961I-1080000J-1040961D01*
G01*
%TO.C,R21*%
X33410000Y-59180000D02*
X36020000Y-59180000D01*
X33410000Y-59180000D02*
G75*
G02*
X30670000Y-59180000I-1370000J0D01*
G01*
X30670000Y-59180000D02*
G75*
G02*
X33410000Y-59180000I1370000J0D01*
G01*
%TO.C,Q23*%
X25100000Y-48965000D02*
X28700000Y-48965000D01*
X24543600Y-46016193D02*
G75*
G02*
X26900000Y-44515000I2356400J-1098807D01*
G01*
X25100000Y-48965000D02*
G75*
G02*
X24575816Y-48237795I1800000J1850000D01*
G01*
X26900000Y-44515000D02*
G75*
G02*
X29256400Y-46016193I0J-2600000D01*
G01*
X29224184Y-48237795D02*
G75*
G02*
X28700000Y-48965000I-2324184J1122795D01*
G01*
%TO.C,R15*%
X25730000Y-50925000D02*
X28340000Y-50925000D01*
X25730000Y-50925000D02*
G75*
G02*
X22990000Y-50925000I-1370000J0D01*
G01*
X22990000Y-50925000D02*
G75*
G02*
X25730000Y-50925000I1370000J0D01*
G01*
%TO.C,Q72*%
X67100000Y-66855000D02*
X63500000Y-66855000D01*
X62975816Y-67582205D02*
G75*
G02*
X63500000Y-66855000I2324184J-1122795D01*
G01*
X65300000Y-71305000D02*
G75*
G02*
X62943600Y-69803807I0J2600000D01*
G01*
X67100000Y-66855000D02*
G75*
G02*
X67624184Y-67582205I-1800000J-1850000D01*
G01*
X67656400Y-69803807D02*
G75*
G02*
X65300000Y-71305000I-2356400J1098807D01*
G01*
%TO.C,Q49*%
X51740000Y-31295000D02*
X48140000Y-31295000D01*
X47615816Y-32022205D02*
G75*
G02*
X48140000Y-31295000I2324184J-1122795D01*
G01*
X49940000Y-35745000D02*
G75*
G02*
X47583600Y-34243807I0J2600000D01*
G01*
X51740000Y-31295000D02*
G75*
G02*
X52264184Y-32022205I-1800000J-1850000D01*
G01*
X52296400Y-34243807D02*
G75*
G02*
X49940000Y-35745000I-2356400J1098807D01*
G01*
%TO.C,R6*%
X10370000Y-67435000D02*
X12980000Y-67435000D01*
X10370000Y-67435000D02*
G75*
G02*
X7630000Y-67435000I-1370000J0D01*
G01*
X7630000Y-67435000D02*
G75*
G02*
X10370000Y-67435000I1370000J0D01*
G01*
%TO.C,Q61*%
X55820000Y-43885000D02*
X59420000Y-43885000D01*
X55263600Y-40936193D02*
G75*
G02*
X57620000Y-39435000I2356400J-1098807D01*
G01*
X55820000Y-43885000D02*
G75*
G02*
X55295816Y-43157795I1800000J1850000D01*
G01*
X57620000Y-39435000D02*
G75*
G02*
X59976400Y-40936193I0J-2600000D01*
G01*
X59944184Y-43157795D02*
G75*
G02*
X59420000Y-43885000I-2324184J1122795D01*
G01*
%TO.C,Q69*%
X67100000Y-31295000D02*
X63500000Y-31295000D01*
X62975816Y-32022205D02*
G75*
G02*
X63500000Y-31295000I2324184J-1122795D01*
G01*
X65300000Y-35745000D02*
G75*
G02*
X62943600Y-34243807I0J2600000D01*
G01*
X67100000Y-31295000D02*
G75*
G02*
X67624184Y-32022205I-1800000J-1850000D01*
G01*
X67656400Y-34243807D02*
G75*
G02*
X65300000Y-35745000I-2356400J1098807D01*
G01*
%TO.C,Q16*%
X21020000Y-57965000D02*
X17420000Y-57965000D01*
X16895816Y-58692205D02*
G75*
G02*
X17420000Y-57965000I2324184J-1122795D01*
G01*
X19220000Y-62415000D02*
G75*
G02*
X16863600Y-60913807I0J2600000D01*
G01*
X21020000Y-57965000D02*
G75*
G02*
X21544184Y-58692205I-1800000J-1850000D01*
G01*
X21576400Y-60913807D02*
G75*
G02*
X19220000Y-62415000I-2356400J1098807D01*
G01*
%TO.C,Q33*%
X36380000Y-52885000D02*
X32780000Y-52885000D01*
X32255816Y-53612205D02*
G75*
G02*
X32780000Y-52885000I2324184J-1122795D01*
G01*
X34580000Y-57335000D02*
G75*
G02*
X32223600Y-55833807I0J2600000D01*
G01*
X36380000Y-52885000D02*
G75*
G02*
X36904184Y-53612205I-1800000J-1850000D01*
G01*
X36936400Y-55833807D02*
G75*
G02*
X34580000Y-57335000I-2356400J1098807D01*
G01*
%TO.C,R14*%
X25730000Y-42670000D02*
X28340000Y-42670000D01*
X25730000Y-42670000D02*
G75*
G02*
X22990000Y-42670000I-1370000J0D01*
G01*
X22990000Y-42670000D02*
G75*
G02*
X25730000Y-42670000I1370000J0D01*
G01*
%TO.C,R17*%
X33410000Y-16000000D02*
X36020000Y-16000000D01*
X33410000Y-16000000D02*
G75*
G02*
X30670000Y-16000000I-1370000J0D01*
G01*
X30670000Y-16000000D02*
G75*
G02*
X33410000Y-16000000I1370000J0D01*
G01*
%TO.C,R27*%
X41090000Y-59180000D02*
X43700000Y-59180000D01*
X41090000Y-59180000D02*
G75*
G02*
X38350000Y-59180000I-1370000J0D01*
G01*
X38350000Y-59180000D02*
G75*
G02*
X41090000Y-59180000I1370000J0D01*
G01*
%TO.C,Q43*%
X40460000Y-57220000D02*
X44060000Y-57220000D01*
X39903600Y-54271193D02*
G75*
G02*
X42260000Y-52770000I2356400J-1098807D01*
G01*
X40460000Y-57220000D02*
G75*
G02*
X39935816Y-56492795I1800000J1850000D01*
G01*
X42260000Y-52770000D02*
G75*
G02*
X44616400Y-54271193I0J-2600000D01*
G01*
X44584184Y-56492795D02*
G75*
G02*
X44060000Y-57220000I-2324184J1122795D01*
G01*
%TO.C,C1*%
X93630000Y-15130000D02*
X96370000Y-15130000D01*
X93630000Y-20370000D02*
X93630000Y-15130000D01*
X96370000Y-15130000D02*
X96370000Y-20370000D01*
X96370000Y-20370000D02*
X93630000Y-20370000D01*
%TO.C,Q10*%
X21020000Y-17960000D02*
X17420000Y-17960000D01*
X16895816Y-18687205D02*
G75*
G02*
X17420000Y-17960000I2324184J-1122795D01*
G01*
X19220000Y-22410000D02*
G75*
G02*
X16863600Y-20908807I0J2600000D01*
G01*
X21020000Y-17960000D02*
G75*
G02*
X21544184Y-18687205I-1800000J-1850000D01*
G01*
X21576400Y-20908807D02*
G75*
G02*
X19220000Y-22410000I-2356400J1098807D01*
G01*
%TO.C,R41*%
X64130000Y-29335000D02*
X66740000Y-29335000D01*
X64130000Y-29335000D02*
G75*
G02*
X61390000Y-29335000I-1370000J0D01*
G01*
X61390000Y-29335000D02*
G75*
G02*
X64130000Y-29335000I1370000J0D01*
G01*
%TO.C,Q59*%
X55820000Y-30550000D02*
X59420000Y-30550000D01*
X55263600Y-27601193D02*
G75*
G02*
X57620000Y-26100000I2356400J-1098807D01*
G01*
X55820000Y-30550000D02*
G75*
G02*
X55295816Y-29822795I1800000J1850000D01*
G01*
X57620000Y-26100000D02*
G75*
G02*
X59976400Y-27601193I0J-2600000D01*
G01*
X59944184Y-29822795D02*
G75*
G02*
X59420000Y-30550000I-2324184J1122795D01*
G01*
%TO.C,Q4*%
X9740000Y-43885000D02*
X13340000Y-43885000D01*
X9183600Y-40936193D02*
G75*
G02*
X11540000Y-39435000I2356400J-1098807D01*
G01*
X9740000Y-43885000D02*
G75*
G02*
X9215816Y-43157795I1800000J1850000D01*
G01*
X11540000Y-39435000D02*
G75*
G02*
X13896400Y-40936193I0J-2600000D01*
G01*
X13864184Y-43157795D02*
G75*
G02*
X13340000Y-43885000I-2324184J1122795D01*
G01*
%TO.C,D3*%
X71744000Y-22640000D02*
X71900000Y-22640000D01*
X74060000Y-22640000D02*
X74216000Y-22640000D01*
X71744484Y-22640000D02*
G75*
G02*
X71900000Y-19408563I1235516J1560000D01*
G01*
X71900000Y-22120961D02*
G75*
G02*
X71900000Y-20039039I1080000J1040961D01*
G01*
X74060000Y-19408563D02*
G75*
G02*
X74215516Y-22640000I-1080000J-1671437D01*
G01*
X74060000Y-20039039D02*
G75*
G02*
X74060000Y-22120961I-1080000J-1040961D01*
G01*
%TO.C,R29*%
X48770000Y-16000000D02*
X51380000Y-16000000D01*
X48770000Y-16000000D02*
G75*
G02*
X46030000Y-16000000I-1370000J0D01*
G01*
X46030000Y-16000000D02*
G75*
G02*
X48770000Y-16000000I1370000J0D01*
G01*
%TO.C,R4*%
X10370000Y-45845000D02*
X12980000Y-45845000D01*
X10370000Y-45845000D02*
G75*
G02*
X7630000Y-45845000I-1370000J0D01*
G01*
X7630000Y-45845000D02*
G75*
G02*
X10370000Y-45845000I1370000J0D01*
G01*
%TO.C,Q20*%
X25100000Y-27375000D02*
X28700000Y-27375000D01*
X24543600Y-24426193D02*
G75*
G02*
X26900000Y-22925000I2356400J-1098807D01*
G01*
X25100000Y-27375000D02*
G75*
G02*
X24575816Y-26647795I1800000J1850000D01*
G01*
X26900000Y-22925000D02*
G75*
G02*
X29256400Y-24426193I0J-2600000D01*
G01*
X29224184Y-26647795D02*
G75*
G02*
X28700000Y-27375000I-2324184J1122795D01*
G01*
%TO.C,Q41*%
X40460000Y-40710000D02*
X44060000Y-40710000D01*
X39903600Y-37761193D02*
G75*
G02*
X42260000Y-36260000I2356400J-1098807D01*
G01*
X40460000Y-40710000D02*
G75*
G02*
X39935816Y-39982795I1800000J1850000D01*
G01*
X42260000Y-36260000D02*
G75*
G02*
X44616400Y-37761193I0J-2600000D01*
G01*
X44584184Y-39982795D02*
G75*
G02*
X44060000Y-40710000I-2324184J1122795D01*
G01*
%TO.C,R13*%
X25730000Y-29335000D02*
X28340000Y-29335000D01*
X25730000Y-29335000D02*
G75*
G02*
X22990000Y-29335000I-1370000J0D01*
G01*
X22990000Y-29335000D02*
G75*
G02*
X25730000Y-29335000I1370000J0D01*
G01*
%TO.C,Q30*%
X36380000Y-31295000D02*
X32780000Y-31295000D01*
X32255816Y-32022205D02*
G75*
G02*
X32780000Y-31295000I2324184J-1122795D01*
G01*
X34580000Y-35745000D02*
G75*
G02*
X32223600Y-34243807I0J2600000D01*
G01*
X36380000Y-31295000D02*
G75*
G02*
X36904184Y-32022205I-1800000J-1850000D01*
G01*
X36936400Y-34243807D02*
G75*
G02*
X34580000Y-35745000I-2356400J1098807D01*
G01*
%TO.C,Q71*%
X67100000Y-51615000D02*
X63500000Y-51615000D01*
X62975816Y-52342205D02*
G75*
G02*
X63500000Y-51615000I2324184J-1122795D01*
G01*
X65300000Y-56065000D02*
G75*
G02*
X62943600Y-54563807I0J2600000D01*
G01*
X67100000Y-51615000D02*
G75*
G02*
X67624184Y-52342205I-1800000J-1850000D01*
G01*
X67656400Y-54563807D02*
G75*
G02*
X65300000Y-56065000I-2356400J1098807D01*
G01*
%TO.C,R32*%
X48770000Y-56005000D02*
X51380000Y-56005000D01*
X48770000Y-56005000D02*
G75*
G02*
X46030000Y-56005000I-1370000J0D01*
G01*
X46030000Y-56005000D02*
G75*
G02*
X48770000Y-56005000I1370000J0D01*
G01*
%TO.C,Q12*%
X21020000Y-31295000D02*
X17420000Y-31295000D01*
X16895816Y-32022205D02*
G75*
G02*
X17420000Y-31295000I2324184J-1122795D01*
G01*
X19220000Y-35745000D02*
G75*
G02*
X16863600Y-34243807I0J2600000D01*
G01*
X21020000Y-31295000D02*
G75*
G02*
X21544184Y-32022205I-1800000J-1850000D01*
G01*
X21576400Y-34243807D02*
G75*
G02*
X19220000Y-35745000I-2356400J1098807D01*
G01*
%TO.C,Q67*%
X67100000Y-17960000D02*
X63500000Y-17960000D01*
X62975816Y-18687205D02*
G75*
G02*
X63500000Y-17960000I2324184J-1122795D01*
G01*
X65300000Y-22410000D02*
G75*
G02*
X62943600Y-20908807I0J2600000D01*
G01*
X67100000Y-17960000D02*
G75*
G02*
X67624184Y-18687205I-1800000J-1850000D01*
G01*
X67656400Y-20908807D02*
G75*
G02*
X65300000Y-22410000I-2356400J1098807D01*
G01*
%TO.C,Q56*%
X51740000Y-76380000D02*
X48140000Y-76380000D01*
X47615816Y-77107205D02*
G75*
G02*
X48140000Y-76380000I2324184J-1122795D01*
G01*
X49940000Y-80830000D02*
G75*
G02*
X47583600Y-79328807I0J2600000D01*
G01*
X51740000Y-76380000D02*
G75*
G02*
X52264184Y-77107205I-1800000J-1850000D01*
G01*
X52296400Y-79328807D02*
G75*
G02*
X49940000Y-80830000I-2356400J1098807D01*
G01*
%TO.C,Q50*%
X51740000Y-36375000D02*
X48140000Y-36375000D01*
X47615816Y-37102205D02*
G75*
G02*
X48140000Y-36375000I2324184J-1122795D01*
G01*
X49940000Y-40825000D02*
G75*
G02*
X47583600Y-39323807I0J2600000D01*
G01*
X51740000Y-36375000D02*
G75*
G02*
X52264184Y-37102205I-1800000J-1850000D01*
G01*
X52296400Y-39323807D02*
G75*
G02*
X49940000Y-40825000I-2356400J1098807D01*
G01*
%TO.C,Q8*%
X9740000Y-73730000D02*
X13340000Y-73730000D01*
X9183600Y-70781193D02*
G75*
G02*
X11540000Y-69280000I2356400J-1098807D01*
G01*
X9740000Y-73730000D02*
G75*
G02*
X9215816Y-73002795I1800000J1850000D01*
G01*
X11540000Y-69280000D02*
G75*
G02*
X13896400Y-70781193I0J-2600000D01*
G01*
X13864184Y-73002795D02*
G75*
G02*
X13340000Y-73730000I-2324184J1122795D01*
G01*
%TO.C,R18*%
X33410000Y-29335000D02*
X36020000Y-29335000D01*
X33410000Y-29335000D02*
G75*
G02*
X30670000Y-29335000I-1370000J0D01*
G01*
X30670000Y-29335000D02*
G75*
G02*
X33410000Y-29335000I1370000J0D01*
G01*
%TO.C,Q42*%
X40460000Y-48965000D02*
X44060000Y-48965000D01*
X39903600Y-46016193D02*
G75*
G02*
X42260000Y-44515000I2356400J-1098807D01*
G01*
X40460000Y-48965000D02*
G75*
G02*
X39935816Y-48237795I1800000J1850000D01*
G01*
X42260000Y-44515000D02*
G75*
G02*
X44616400Y-46016193I0J-2600000D01*
G01*
X44584184Y-48237795D02*
G75*
G02*
X44060000Y-48965000I-2324184J1122795D01*
G01*
%TO.C,Q1*%
X9740000Y-22295000D02*
X13340000Y-22295000D01*
X9183600Y-19346193D02*
G75*
G02*
X11540000Y-17845000I2356400J-1098807D01*
G01*
X9740000Y-22295000D02*
G75*
G02*
X9215816Y-21567795I1800000J1850000D01*
G01*
X11540000Y-17845000D02*
G75*
G02*
X13896400Y-19346193I0J-2600000D01*
G01*
X13864184Y-21567795D02*
G75*
G02*
X13340000Y-22295000I-2324184J1122795D01*
G01*
%TO.C,Q15*%
X21020000Y-49710000D02*
X17420000Y-49710000D01*
X16895816Y-50437205D02*
G75*
G02*
X17420000Y-49710000I2324184J-1122795D01*
G01*
X19220000Y-54160000D02*
G75*
G02*
X16863600Y-52658807I0J2600000D01*
G01*
X21020000Y-49710000D02*
G75*
G02*
X21544184Y-50437205I-1800000J-1850000D01*
G01*
X21576400Y-52658807D02*
G75*
G02*
X19220000Y-54160000I-2356400J1098807D01*
G01*
%TO.C,Q27*%
X25100000Y-75635000D02*
X28700000Y-75635000D01*
X24543600Y-72686193D02*
G75*
G02*
X26900000Y-71185000I2356400J-1098807D01*
G01*
X25100000Y-75635000D02*
G75*
G02*
X24575816Y-74907795I1800000J1850000D01*
G01*
X26900000Y-71185000D02*
G75*
G02*
X29256400Y-72686193I0J-2600000D01*
G01*
X29224184Y-74907795D02*
G75*
G02*
X28700000Y-75635000I-2324184J1122795D01*
G01*
%TO.C,Q21*%
X25100000Y-35630000D02*
X28700000Y-35630000D01*
X24543600Y-32681193D02*
G75*
G02*
X26900000Y-31180000I2356400J-1098807D01*
G01*
X25100000Y-35630000D02*
G75*
G02*
X24575816Y-34902795I1800000J1850000D01*
G01*
X26900000Y-31180000D02*
G75*
G02*
X29256400Y-32681193I0J-2600000D01*
G01*
X29224184Y-34902795D02*
G75*
G02*
X28700000Y-35630000I-2324184J1122795D01*
G01*
%TO.C,R24*%
X41090000Y-29335000D02*
X43700000Y-29335000D01*
X41090000Y-29335000D02*
G75*
G02*
X38350000Y-29335000I-1370000J0D01*
G01*
X38350000Y-29335000D02*
G75*
G02*
X41090000Y-29335000I1370000J0D01*
G01*
%TO.C,Q68*%
X67100000Y-23040000D02*
X63500000Y-23040000D01*
X62975816Y-23767205D02*
G75*
G02*
X63500000Y-23040000I2324184J-1122795D01*
G01*
X65300000Y-27490000D02*
G75*
G02*
X62943600Y-25988807I0J2600000D01*
G01*
X67100000Y-23040000D02*
G75*
G02*
X67624184Y-23767205I-1800000J-1850000D01*
G01*
X67656400Y-25988807D02*
G75*
G02*
X65300000Y-27490000I-2356400J1098807D01*
G01*
%TO.C,R42*%
X64130000Y-42670000D02*
X66740000Y-42670000D01*
X64130000Y-42670000D02*
G75*
G02*
X61390000Y-42670000I-1370000J0D01*
G01*
X61390000Y-42670000D02*
G75*
G02*
X64130000Y-42670000I1370000J0D01*
G01*
%TO.C,Q58*%
X55820000Y-22295000D02*
X59420000Y-22295000D01*
X55263600Y-19346193D02*
G75*
G02*
X57620000Y-17845000I2356400J-1098807D01*
G01*
X55820000Y-22295000D02*
G75*
G02*
X55295816Y-21567795I1800000J1850000D01*
G01*
X57620000Y-17845000D02*
G75*
G02*
X59976400Y-19346193I0J-2600000D01*
G01*
X59944184Y-21567795D02*
G75*
G02*
X59420000Y-22295000I-2324184J1122795D01*
G01*
%TO.C,R10*%
X18050000Y-56005000D02*
X20660000Y-56005000D01*
X18050000Y-56005000D02*
G75*
G02*
X15310000Y-56005000I-1370000J0D01*
G01*
X15310000Y-56005000D02*
G75*
G02*
X18050000Y-56005000I1370000J0D01*
G01*
%TO.C,R43*%
X64130000Y-57910000D02*
X66740000Y-57910000D01*
X64130000Y-57910000D02*
G75*
G02*
X61390000Y-57910000I-1370000J0D01*
G01*
X61390000Y-57910000D02*
G75*
G02*
X64130000Y-57910000I1370000J0D01*
G01*
%TO.C,Q38*%
X40460000Y-22295000D02*
X44060000Y-22295000D01*
X39903600Y-19346193D02*
G75*
G02*
X42260000Y-17845000I2356400J-1098807D01*
G01*
X40460000Y-22295000D02*
G75*
G02*
X39935816Y-21567795I1800000J1850000D01*
G01*
X42260000Y-17845000D02*
G75*
G02*
X44616400Y-19346193I0J-2600000D01*
G01*
X44584184Y-21567795D02*
G75*
G02*
X44060000Y-22295000I-2324184J1122795D01*
G01*
%TO.C,C2*%
X93960000Y-27000000D02*
X92420000Y-27000000D01*
X93960000Y-27040000D02*
X92420000Y-27040000D01*
X93960000Y-27080000D02*
X92421000Y-27080000D01*
X93960000Y-27120000D02*
X92423000Y-27120000D01*
X93960000Y-27160000D02*
X92425000Y-27160000D01*
X93960000Y-27200000D02*
X92428000Y-27200000D01*
X93960000Y-27240000D02*
X92431000Y-27240000D01*
X93960000Y-27280000D02*
X92435000Y-27280000D01*
X93960000Y-27320000D02*
X92440000Y-27320000D01*
X93960000Y-27360000D02*
X92445000Y-27360000D01*
X93960000Y-27400000D02*
X92451000Y-27400000D01*
X93960000Y-27440000D02*
X92457000Y-27440000D01*
X93960000Y-27480000D02*
X92464000Y-27480000D01*
X93960000Y-27520000D02*
X92472000Y-27520000D01*
X93960000Y-27560000D02*
X92481000Y-27560000D01*
X93960000Y-27600000D02*
X92490000Y-27600000D01*
X93960000Y-27640000D02*
X92499000Y-27640000D01*
X93960000Y-27680000D02*
X92510000Y-27680000D01*
X93960000Y-27720000D02*
X92521000Y-27720000D01*
X93960000Y-27760000D02*
X92533000Y-27760000D01*
X93960000Y-27800000D02*
X92545000Y-27800000D01*
X93960000Y-27840000D02*
X92558000Y-27840000D01*
X93960000Y-27880000D02*
X92572000Y-27880000D01*
X93960000Y-27920000D02*
X92587000Y-27920000D01*
X93960000Y-27960000D02*
X92602000Y-27960000D01*
X93960000Y-28000000D02*
X92618000Y-28000000D01*
X93960000Y-28040000D02*
X92635000Y-28040000D01*
X93960000Y-28080000D02*
X92653000Y-28080000D01*
X93960000Y-28120000D02*
X92671000Y-28120000D01*
X93960000Y-28160000D02*
X92691000Y-28160000D01*
X93960000Y-28200000D02*
X92711000Y-28200000D01*
X93960000Y-28240000D02*
X92732000Y-28240000D01*
X93960000Y-28280000D02*
X92754000Y-28280000D01*
X93960000Y-28320000D02*
X92777000Y-28320000D01*
X93960000Y-28360000D02*
X92801000Y-28360000D01*
X93960000Y-28400000D02*
X92825000Y-28400000D01*
X93960000Y-28440000D02*
X92851000Y-28440000D01*
X93960000Y-28480000D02*
X92878000Y-28480000D01*
X93960000Y-28520000D02*
X92906000Y-28520000D01*
X93960000Y-28560000D02*
X92935000Y-28560000D01*
X93960000Y-28600000D02*
X92965000Y-28600000D01*
X93960000Y-28640000D02*
X92997000Y-28640000D01*
X93960000Y-28680000D02*
X93030000Y-28680000D01*
X93960000Y-28720000D02*
X93064000Y-28720000D01*
X93960000Y-28760000D02*
X93099000Y-28760000D01*
X93960000Y-28800000D02*
X93136000Y-28800000D01*
X93960000Y-28840000D02*
X93175000Y-28840000D01*
X93960000Y-28880000D02*
X93215000Y-28880000D01*
X93960000Y-28920000D02*
X93257000Y-28920000D01*
X93960000Y-28960000D02*
X93301000Y-28960000D01*
X93960000Y-29000000D02*
X93348000Y-29000000D01*
X95283000Y-29600000D02*
X94717000Y-29600000D01*
X95517000Y-29560000D02*
X94483000Y-29560000D01*
X95677000Y-29520000D02*
X94323000Y-29520000D01*
X95805000Y-29480000D02*
X94195000Y-29480000D01*
X95914000Y-29440000D02*
X94086000Y-29440000D01*
X96011000Y-29400000D02*
X93989000Y-29400000D01*
X96098000Y-29360000D02*
X93902000Y-29360000D01*
X96177000Y-29320000D02*
X93823000Y-29320000D01*
X96251000Y-29280000D02*
X93749000Y-29280000D01*
X96319000Y-29240000D02*
X93681000Y-29240000D01*
X96383000Y-29200000D02*
X93617000Y-29200000D01*
X96443000Y-29160000D02*
X93557000Y-29160000D01*
X96475000Y-24195225D02*
X96475000Y-24695225D01*
X96499000Y-29120000D02*
X93501000Y-29120000D01*
X96553000Y-29080000D02*
X93447000Y-29080000D01*
X96604000Y-29040000D02*
X93396000Y-29040000D01*
X96652000Y-29000000D02*
X96040000Y-29000000D01*
X96699000Y-28960000D02*
X96040000Y-28960000D01*
X96725000Y-24445225D02*
X96225000Y-24445225D01*
X96743000Y-28920000D02*
X96040000Y-28920000D01*
X96785000Y-28880000D02*
X96040000Y-28880000D01*
X96825000Y-28840000D02*
X96040000Y-28840000D01*
X96864000Y-28800000D02*
X96040000Y-28800000D01*
X96901000Y-28760000D02*
X96040000Y-28760000D01*
X96936000Y-28720000D02*
X96040000Y-28720000D01*
X96970000Y-28680000D02*
X96040000Y-28680000D01*
X97003000Y-28640000D02*
X96040000Y-28640000D01*
X97035000Y-28600000D02*
X96040000Y-28600000D01*
X97065000Y-28560000D02*
X96040000Y-28560000D01*
X97094000Y-28520000D02*
X96040000Y-28520000D01*
X97122000Y-28480000D02*
X96040000Y-28480000D01*
X97149000Y-28440000D02*
X96040000Y-28440000D01*
X97175000Y-28400000D02*
X96040000Y-28400000D01*
X97199000Y-28360000D02*
X96040000Y-28360000D01*
X97223000Y-28320000D02*
X96040000Y-28320000D01*
X97246000Y-28280000D02*
X96040000Y-28280000D01*
X97268000Y-28240000D02*
X96040000Y-28240000D01*
X97289000Y-28200000D02*
X96040000Y-28200000D01*
X97309000Y-28160000D02*
X96040000Y-28160000D01*
X97329000Y-28120000D02*
X96040000Y-28120000D01*
X97347000Y-28080000D02*
X96040000Y-28080000D01*
X97365000Y-28040000D02*
X96040000Y-28040000D01*
X97382000Y-28000000D02*
X96040000Y-28000000D01*
X97398000Y-27960000D02*
X96040000Y-27960000D01*
X97413000Y-27920000D02*
X96040000Y-27920000D01*
X97428000Y-27880000D02*
X96040000Y-27880000D01*
X97442000Y-27840000D02*
X96040000Y-27840000D01*
X97455000Y-27800000D02*
X96040000Y-27800000D01*
X97467000Y-27760000D02*
X96040000Y-27760000D01*
X97479000Y-27720000D02*
X96040000Y-27720000D01*
X97490000Y-27680000D02*
X96040000Y-27680000D01*
X97501000Y-27640000D02*
X96040000Y-27640000D01*
X97510000Y-27600000D02*
X96040000Y-27600000D01*
X97519000Y-27560000D02*
X96040000Y-27560000D01*
X97528000Y-27520000D02*
X96040000Y-27520000D01*
X97536000Y-27480000D02*
X96040000Y-27480000D01*
X97543000Y-27440000D02*
X96040000Y-27440000D01*
X97549000Y-27400000D02*
X96040000Y-27400000D01*
X97555000Y-27360000D02*
X96040000Y-27360000D01*
X97560000Y-27320000D02*
X96040000Y-27320000D01*
X97565000Y-27280000D02*
X96040000Y-27280000D01*
X97569000Y-27240000D02*
X96040000Y-27240000D01*
X97572000Y-27200000D02*
X96040000Y-27200000D01*
X97575000Y-27160000D02*
X96040000Y-27160000D01*
X97577000Y-27120000D02*
X96040000Y-27120000D01*
X97579000Y-27080000D02*
X96040000Y-27080000D01*
X97580000Y-27000000D02*
X96040000Y-27000000D01*
X97580000Y-27040000D02*
X96040000Y-27040000D01*
X97620000Y-27000000D02*
G75*
G02*
X92380000Y-27000000I-2620000J0D01*
G01*
X92380000Y-27000000D02*
G75*
G02*
X97620000Y-27000000I2620000J0D01*
G01*
%TO.C,R7*%
X18050000Y-16000000D02*
X20660000Y-16000000D01*
X18050000Y-16000000D02*
G75*
G02*
X15310000Y-16000000I-1370000J0D01*
G01*
X15310000Y-16000000D02*
G75*
G02*
X18050000Y-16000000I1370000J0D01*
G01*
%TO.C,Q24*%
X25100000Y-57220000D02*
X28700000Y-57220000D01*
X24543600Y-54271193D02*
G75*
G02*
X26900000Y-52770000I2356400J-1098807D01*
G01*
X25100000Y-57220000D02*
G75*
G02*
X24575816Y-56492795I1800000J1850000D01*
G01*
X26900000Y-52770000D02*
G75*
G02*
X29256400Y-54271193I0J-2600000D01*
G01*
X29224184Y-56492795D02*
G75*
G02*
X28700000Y-57220000I-2324184J1122795D01*
G01*
%TO.C,Q66*%
X55820000Y-78810000D02*
X59420000Y-78810000D01*
X55263600Y-75861193D02*
G75*
G02*
X57620000Y-74360000I2356400J-1098807D01*
G01*
X55820000Y-78810000D02*
G75*
G02*
X55295816Y-78082795I1800000J1850000D01*
G01*
X57620000Y-74360000D02*
G75*
G02*
X59976400Y-75861193I0J-2600000D01*
G01*
X59944184Y-78082795D02*
G75*
G02*
X59420000Y-78810000I-2324184J1122795D01*
G01*
%TO.C,R23*%
X41090000Y-16000000D02*
X43700000Y-16000000D01*
X41090000Y-16000000D02*
G75*
G02*
X38350000Y-16000000I-1370000J0D01*
G01*
X38350000Y-16000000D02*
G75*
G02*
X41090000Y-16000000I1370000J0D01*
G01*
%TO.C,Q11*%
X21020000Y-23040000D02*
X17420000Y-23040000D01*
X16895816Y-23767205D02*
G75*
G02*
X17420000Y-23040000I2324184J-1122795D01*
G01*
X19220000Y-27490000D02*
G75*
G02*
X16863600Y-25988807I0J2600000D01*
G01*
X21020000Y-23040000D02*
G75*
G02*
X21544184Y-23767205I-1800000J-1850000D01*
G01*
X21576400Y-25988807D02*
G75*
G02*
X19220000Y-27490000I-2356400J1098807D01*
G01*
%TO.C,R22*%
X33410000Y-72515000D02*
X36020000Y-72515000D01*
X33410000Y-72515000D02*
G75*
G02*
X30670000Y-72515000I-1370000J0D01*
G01*
X30670000Y-72515000D02*
G75*
G02*
X33410000Y-72515000I1370000J0D01*
G01*
%TO.C,Q39*%
X40460000Y-27375000D02*
X44060000Y-27375000D01*
X39903600Y-24426193D02*
G75*
G02*
X42260000Y-22925000I2356400J-1098807D01*
G01*
X40460000Y-27375000D02*
G75*
G02*
X39935816Y-26647795I1800000J1850000D01*
G01*
X42260000Y-22925000D02*
G75*
G02*
X44616400Y-24426193I0J-2600000D01*
G01*
X44584184Y-26647795D02*
G75*
G02*
X44060000Y-27375000I-2324184J1122795D01*
G01*
%TO.C,Q53*%
X51740000Y-57965000D02*
X48140000Y-57965000D01*
X47615816Y-58692205D02*
G75*
G02*
X48140000Y-57965000I2324184J-1122795D01*
G01*
X49940000Y-62415000D02*
G75*
G02*
X47583600Y-60913807I0J2600000D01*
G01*
X51740000Y-57965000D02*
G75*
G02*
X52264184Y-58692205I-1800000J-1850000D01*
G01*
X52296400Y-60913807D02*
G75*
G02*
X49940000Y-62415000I-2356400J1098807D01*
G01*
%TO.C,Q31*%
X36380000Y-36375000D02*
X32780000Y-36375000D01*
X32255816Y-37102205D02*
G75*
G02*
X32780000Y-36375000I2324184J-1122795D01*
G01*
X34580000Y-40825000D02*
G75*
G02*
X32223600Y-39323807I0J2600000D01*
G01*
X36380000Y-36375000D02*
G75*
G02*
X36904184Y-37102205I-1800000J-1850000D01*
G01*
X36936400Y-39323807D02*
G75*
G02*
X34580000Y-40825000I-2356400J1098807D01*
G01*
%TO.C,R1*%
X10370000Y-16000000D02*
X12980000Y-16000000D01*
X10370000Y-16000000D02*
G75*
G02*
X7630000Y-16000000I-1370000J0D01*
G01*
X7630000Y-16000000D02*
G75*
G02*
X10370000Y-16000000I1370000J0D01*
G01*
%TO.C,R35*%
X56450000Y-24255000D02*
X59060000Y-24255000D01*
X56450000Y-24255000D02*
G75*
G02*
X53710000Y-24255000I-1370000J0D01*
G01*
X53710000Y-24255000D02*
G75*
G02*
X56450000Y-24255000I1370000J0D01*
G01*
%TO.C,Q44*%
X40460000Y-65475000D02*
X44060000Y-65475000D01*
X39903600Y-62526193D02*
G75*
G02*
X42260000Y-61025000I2356400J-1098807D01*
G01*
X40460000Y-65475000D02*
G75*
G02*
X39935816Y-64747795I1800000J1850000D01*
G01*
X42260000Y-61025000D02*
G75*
G02*
X44616400Y-62526193I0J-2600000D01*
G01*
X44584184Y-64747795D02*
G75*
G02*
X44060000Y-65475000I-2324184J1122795D01*
G01*
%TO.C,Q51*%
X51740000Y-44630000D02*
X48140000Y-44630000D01*
X47615816Y-45357205D02*
G75*
G02*
X48140000Y-44630000I2324184J-1122795D01*
G01*
X49940000Y-49080000D02*
G75*
G02*
X47583600Y-47578807I0J2600000D01*
G01*
X51740000Y-44630000D02*
G75*
G02*
X52264184Y-45357205I-1800000J-1850000D01*
G01*
X52296400Y-47578807D02*
G75*
G02*
X49940000Y-49080000I-2356400J1098807D01*
G01*
%TO.C,Q32*%
X36380000Y-44630000D02*
X32780000Y-44630000D01*
X32255816Y-45357205D02*
G75*
G02*
X32780000Y-44630000I2324184J-1122795D01*
G01*
X34580000Y-49080000D02*
G75*
G02*
X32223600Y-47578807I0J2600000D01*
G01*
X36380000Y-44630000D02*
G75*
G02*
X36904184Y-45357205I-1800000J-1850000D01*
G01*
X36936400Y-47578807D02*
G75*
G02*
X34580000Y-49080000I-2356400J1098807D01*
G01*
%TO.C,Q18*%
X21020000Y-71300000D02*
X17420000Y-71300000D01*
X16895816Y-72027205D02*
G75*
G02*
X17420000Y-71300000I2324184J-1122795D01*
G01*
X19220000Y-75750000D02*
G75*
G02*
X16863600Y-74248807I0J2600000D01*
G01*
X21020000Y-71300000D02*
G75*
G02*
X21544184Y-72027205I-1800000J-1850000D01*
G01*
X21576400Y-74248807D02*
G75*
G02*
X19220000Y-75750000I-2356400J1098807D01*
G01*
%TO.C,R16*%
X25730000Y-64260000D02*
X28340000Y-64260000D01*
X25730000Y-64260000D02*
G75*
G02*
X22990000Y-64260000I-1370000J0D01*
G01*
X22990000Y-64260000D02*
G75*
G02*
X25730000Y-64260000I1370000J0D01*
G01*
%TO.C,R36*%
X56450000Y-37590000D02*
X59060000Y-37590000D01*
X56450000Y-37590000D02*
G75*
G02*
X53710000Y-37590000I-1370000J0D01*
G01*
X53710000Y-37590000D02*
G75*
G02*
X56450000Y-37590000I1370000J0D01*
G01*
%TO.C,Q22*%
X25100000Y-40710000D02*
X28700000Y-40710000D01*
X24543600Y-37761193D02*
G75*
G02*
X26900000Y-36260000I2356400J-1098807D01*
G01*
X25100000Y-40710000D02*
G75*
G02*
X24575816Y-39982795I1800000J1850000D01*
G01*
X26900000Y-36260000D02*
G75*
G02*
X29256400Y-37761193I0J-2600000D01*
G01*
X29224184Y-39982795D02*
G75*
G02*
X28700000Y-40710000I-2324184J1122795D01*
G01*
%TO.C,R20*%
X33410000Y-50925000D02*
X36020000Y-50925000D01*
X33410000Y-50925000D02*
G75*
G02*
X30670000Y-50925000I-1370000J0D01*
G01*
X30670000Y-50925000D02*
G75*
G02*
X33410000Y-50925000I1370000J0D01*
G01*
%TO.C,Q36*%
X36380000Y-74475000D02*
X32780000Y-74475000D01*
X32255816Y-75202205D02*
G75*
G02*
X32780000Y-74475000I2324184J-1122795D01*
G01*
X34580000Y-78925000D02*
G75*
G02*
X32223600Y-77423807I0J2600000D01*
G01*
X36380000Y-74475000D02*
G75*
G02*
X36904184Y-75202205I-1800000J-1850000D01*
G01*
X36936400Y-77423807D02*
G75*
G02*
X34580000Y-78925000I-2356400J1098807D01*
G01*
%TO.C,R38*%
X56450000Y-59180000D02*
X59060000Y-59180000D01*
X56450000Y-59180000D02*
G75*
G02*
X53710000Y-59180000I-1370000J0D01*
G01*
X53710000Y-59180000D02*
G75*
G02*
X56450000Y-59180000I1370000J0D01*
G01*
%TO.C,Q64*%
X55820000Y-65475000D02*
X59420000Y-65475000D01*
X55263600Y-62526193D02*
G75*
G02*
X57620000Y-61025000I2356400J-1098807D01*
G01*
X55820000Y-65475000D02*
G75*
G02*
X55295816Y-64747795I1800000J1850000D01*
G01*
X57620000Y-61025000D02*
G75*
G02*
X59976400Y-62526193I0J-2600000D01*
G01*
X59944184Y-64747795D02*
G75*
G02*
X59420000Y-65475000I-2324184J1122795D01*
G01*
%TO.C,Q57*%
X51740000Y-81460000D02*
X48140000Y-81460000D01*
X47615816Y-82187205D02*
G75*
G02*
X48140000Y-81460000I2324184J-1122795D01*
G01*
X49940000Y-85910000D02*
G75*
G02*
X47583600Y-84408807I0J2600000D01*
G01*
X51740000Y-81460000D02*
G75*
G02*
X52264184Y-82187205I-1800000J-1850000D01*
G01*
X52296400Y-84408807D02*
G75*
G02*
X49940000Y-85910000I-2356400J1098807D01*
G01*
%TO.C,Q5*%
X9740000Y-52140000D02*
X13340000Y-52140000D01*
X9183600Y-49191193D02*
G75*
G02*
X11540000Y-47690000I2356400J-1098807D01*
G01*
X9740000Y-52140000D02*
G75*
G02*
X9215816Y-51412795I1800000J1850000D01*
G01*
X11540000Y-47690000D02*
G75*
G02*
X13896400Y-49191193I0J-2600000D01*
G01*
X13864184Y-51412795D02*
G75*
G02*
X13340000Y-52140000I-2324184J1122795D01*
G01*
%TO.C,R34*%
X56450000Y-16000000D02*
X59060000Y-16000000D01*
X56450000Y-16000000D02*
G75*
G02*
X53710000Y-16000000I-1370000J0D01*
G01*
X53710000Y-16000000D02*
G75*
G02*
X56450000Y-16000000I1370000J0D01*
G01*
%TD*%
M02*
