%TF.GenerationSoftware,KiCad,Pcbnew,10.0.5*%
%TF.CreationDate,2026-09-10T18:04:26-04:00*%
%TF.ProjectId,clock,636c6f63-6b2e-46b6-9963-61645f706362,rev?*%
%TF.SameCoordinates,Original*%
%TF.FileFunction,Copper,L1,Top*%
%TF.FilePolarity,Positive*%
%FSLAX46Y46*%
G04 Gerber Fmt 4.6, Leading zero omitted, Abs format (unit mm)*
G04 Created by KiCad (PCBNEW 10.0.5) date 2026-09-10 18:04:26*
%MOMM*%
%LPD*%
G01*
G04 APERTURE LIST*
G04 Aperture macros list*
%AMRoundRect*
0 Rectangle with rounded corners*
0 $1 Rounding radius*
0 $2 $3 $4 $5 $6 $7 $8 $9 X,Y pos of 4 corners*
0 Add a 4 corners polygon primitive as box body*
4,1,4,$2,$3,$4,$5,$6,$7,$8,$9,$2,$3,0*
0 Add four circle primitives for the rounded corners*
1,1,$1+$1,$2,$3*
1,1,$1+$1,$4,$5*
1,1,$1+$1,$6,$7*
1,1,$1+$1,$8,$9*
0 Add four rect primitives between the rounded corners*
20,1,$1+$1,$2,$3,$4,$5,0*
20,1,$1+$1,$4,$5,$6,$7,0*
20,1,$1+$1,$6,$7,$8,$9,0*
20,1,$1+$1,$8,$9,$2,$3,0*%
G04 Aperture macros list end*
%TA.AperFunction,ComponentPad*%
%ADD10C,6.400000*%
%TD*%
%TA.AperFunction,ComponentPad*%
%ADD11RoundRect,0.250000X-0.550000X0.550000X-0.550000X-0.550000X0.550000X-0.550000X0.550000X0.550000X0*%
%TD*%
%TA.AperFunction,ComponentPad*%
%ADD12C,1.600000*%
%TD*%
%TA.AperFunction,ComponentPad*%
%ADD13R,1.800000X1.800000*%
%TD*%
%TA.AperFunction,ComponentPad*%
%ADD14C,1.800000*%
%TD*%
%TA.AperFunction,ComponentPad*%
%ADD15O,3.240000X2.720000*%
%TD*%
%TA.AperFunction,ComponentPad*%
%ADD16R,1.500000X1.500000*%
%TD*%
%TA.AperFunction,ComponentPad*%
%ADD17C,1.500000*%
%TD*%
%TA.AperFunction,ComponentPad*%
%ADD18RoundRect,0.250000X-0.550000X-0.550000X0.550000X-0.550000X0.550000X0.550000X-0.550000X0.550000X0*%
%TD*%
%TA.AperFunction,ComponentPad*%
%ADD19R,1.700000X1.700000*%
%TD*%
%TA.AperFunction,ComponentPad*%
%ADD20C,1.700000*%
%TD*%
%TA.AperFunction,ComponentPad*%
%ADD21RoundRect,0.250000X0.600000X-0.600000X0.600000X0.600000X-0.600000X0.600000X-0.600000X-0.600000X0*%
%TD*%
%TA.AperFunction,ViaPad*%
%ADD22C,0.800000*%
%TD*%
%TA.AperFunction,Conductor*%
%ADD23C,0.250000*%
%TD*%
%TA.AperFunction,Conductor*%
%ADD24C,0.800000*%
%TD*%
%TA.AperFunction,Conductor*%
%ADD25C,0.500000*%
%TD*%
G04 APERTURE END LIST*
D10*
%TO.P,H2,1*%
%TO.N,N/C*%
X132000000Y-4000000D03*
%TD*%
D11*
%TO.P,C2,1*%
%TO.N,+5V*%
X124000000Y-6000000D03*
D12*
%TO.P,C2,2*%
%TO.N,GND*%
X124000000Y-8000000D03*
%TD*%
D13*
%TO.P,D1,1*%
%TO.N,Net-(D1-K)*%
X72770000Y-52480000D03*
D14*
%TO.P,D1,2*%
%TO.N,Net-(D1-A)*%
X75310000Y-52480000D03*
%TD*%
D12*
%TO.P,R2,1*%
%TO.N,+5V*%
X23240000Y-22000000D03*
%TO.P,R2,2*%
%TO.N,SB*%
X23240000Y-27080000D03*
%TD*%
D15*
%TO.P,RV1,*%
%TO.N,*%
X119500000Y-97700000D03*
X119500000Y-107300000D03*
D13*
%TO.P,RV1,1*%
%TO.N,RT*%
X112000000Y-100000000D03*
D14*
%TO.P,RV1,2*%
%TO.N,X*%
X112000000Y-102500000D03*
%TO.P,RV1,3*%
X112000000Y-105000000D03*
%TD*%
D16*
%TO.P,Q11,1*%
%TO.N,GND*%
X33400000Y-52480000D03*
D17*
%TO.P,Q11,2*%
%TO.N,PN*%
X35940000Y-52480000D03*
%TO.P,Q11,3*%
%TO.N,PA*%
X38480000Y-52480000D03*
%TD*%
D18*
%TO.P,D3,1*%
%TO.N,Net-(D3-K)*%
X108000000Y-124000000D03*
D12*
%TO.P,D3,2*%
%TO.N,RUNSW*%
X115620000Y-124000000D03*
%TD*%
D16*
%TO.P,Q14,1*%
%TO.N,GND*%
X46100000Y-62640000D03*
D17*
%TO.P,Q14,2*%
%TO.N,SB*%
X48640000Y-62640000D03*
%TO.P,Q14,3*%
%TO.N,Net-(D2-K)*%
X51180000Y-62640000D03*
%TD*%
D16*
%TO.P,Q1,1*%
%TO.N,GND*%
X8000000Y-32160000D03*
D17*
%TO.P,Q1,2*%
%TO.N,VD2*%
X10540000Y-32160000D03*
%TO.P,Q1,3*%
%TO.N,SA*%
X13080000Y-32160000D03*
%TD*%
D16*
%TO.P,Q7,1*%
%TO.N,GND*%
X71500000Y-32160000D03*
D17*
%TO.P,Q7,2*%
%TO.N,RUNSW*%
X74040000Y-32160000D03*
%TO.P,Q7,3*%
%TO.N,RUNN*%
X76580000Y-32160000D03*
%TD*%
D12*
%TO.P,R4,1*%
%TO.N,+5V*%
X48640000Y-22000000D03*
%TO.P,R4,2*%
%TO.N,OSCGN*%
X48640000Y-27080000D03*
%TD*%
%TO.P,R7,1*%
%TO.N,+5V*%
X10540000Y-42320000D03*
%TO.P,R7,2*%
%TO.N,PULL*%
X10540000Y-47400000D03*
%TD*%
%TO.P,R6,1*%
%TO.N,+5V*%
X74040000Y-22000000D03*
%TO.P,R6,2*%
%TO.N,RUNN*%
X74040000Y-27080000D03*
%TD*%
D16*
%TO.P,Q16,1*%
%TO.N,VS*%
X102000000Y-80000000D03*
D17*
%TO.P,Q16,2*%
%TO.N,Net-(Q15-D)*%
X104540000Y-80000000D03*
%TO.P,Q16,3*%
%TO.N,VD2*%
X107080000Y-80000000D03*
%TD*%
D12*
%TO.P,R18,1*%
%TO.N,+5V*%
X102000000Y-132000000D03*
%TO.P,R18,2*%
%TO.N,POR*%
X102000000Y-137080000D03*
%TD*%
D16*
%TO.P,Q5,1*%
%TO.N,GND*%
X46100000Y-37240000D03*
D17*
%TO.P,Q5,2*%
%TO.N,HLTN*%
X48640000Y-37240000D03*
%TO.P,Q5,3*%
%TO.N,Net-(Q4-S)*%
X51180000Y-37240000D03*
%TD*%
D16*
%TO.P,Q3,1*%
%TO.N,GND*%
X33400000Y-32160000D03*
D17*
%TO.P,Q3,2*%
%TO.N,HLT*%
X35940000Y-32160000D03*
%TO.P,Q3,3*%
%TO.N,HLTN*%
X38480000Y-32160000D03*
%TD*%
D16*
%TO.P,Q12,1*%
%TO.N,GND*%
X58800000Y-52480000D03*
D17*
%TO.P,Q12,2*%
%TO.N,PA*%
X61340000Y-52480000D03*
%TO.P,Q12,3*%
%TO.N,PB*%
X63880000Y-52480000D03*
%TD*%
D16*
%TO.P,Q13,1*%
%TO.N,GND*%
X71500000Y-57560000D03*
D17*
%TO.P,Q13,2*%
%TO.N,RUNSW*%
X74040000Y-57560000D03*
%TO.P,Q13,3*%
%TO.N,Net-(D1-K)*%
X76580000Y-57560000D03*
%TD*%
D12*
%TO.P,R8,1*%
%TO.N,+5V*%
X35940000Y-42320000D03*
%TO.P,R8,2*%
%TO.N,PA*%
X35940000Y-47400000D03*
%TD*%
D16*
%TO.P,Q10,1*%
%TO.N,GND*%
X20700000Y-44860000D03*
D17*
%TO.P,Q10,2*%
%TO.N,PULL*%
X23240000Y-44860000D03*
%TO.P,Q10,3*%
%TO.N,CLK*%
X25780000Y-44860000D03*
%TD*%
D12*
%TO.P,R12,1*%
%TO.N,+5V*%
X96000000Y-68000000D03*
%TO.P,R12,2*%
%TO.N,Net-(Q15-D)*%
X96000000Y-73080000D03*
%TD*%
D16*
%TO.P,Q8,1*%
%TO.N,GND*%
X8000000Y-52480000D03*
D17*
%TO.P,Q8,2*%
%TO.N,RUNN*%
X10540000Y-52480000D03*
%TO.P,Q8,3*%
%TO.N,PULL*%
X13080000Y-52480000D03*
%TD*%
D16*
%TO.P,Q2,1*%
%TO.N,GND*%
X20700000Y-32160000D03*
D17*
%TO.P,Q2,2*%
%TO.N,SA*%
X23240000Y-32160000D03*
%TO.P,Q2,3*%
%TO.N,SB*%
X25780000Y-32160000D03*
%TD*%
D12*
%TO.P,R13,1*%
%TO.N,+5V*%
X108000000Y-68000000D03*
%TO.P,R13,2*%
%TO.N,VD2*%
X108000000Y-73080000D03*
%TD*%
D19*
%TO.P,J2,1*%
%TO.N,X*%
X102000000Y-110000000D03*
D20*
%TO.P,J2,2*%
%TO.N,Net-(J2-Pin_2)*%
X102000000Y-112540000D03*
%TD*%
D12*
%TO.P,R15,1*%
%TO.N,SA*%
X90000000Y-110000000D03*
%TO.P,R15,2*%
%TO.N,RT*%
X90000000Y-115080000D03*
%TD*%
D10*
%TO.P,H3,1*%
%TO.N,N/C*%
X4000000Y-156000000D03*
%TD*%
D12*
%TO.P,R1,1*%
%TO.N,+5V*%
X10540000Y-22000000D03*
%TO.P,R1,2*%
%TO.N,SA*%
X10540000Y-27080000D03*
%TD*%
%TO.P,R5,1*%
%TO.N,+5V*%
X61340000Y-22000000D03*
%TO.P,R5,2*%
%TO.N,OSCG*%
X61340000Y-27080000D03*
%TD*%
%TO.P,R10,1*%
%TO.N,+5V*%
X74040000Y-42320000D03*
%TO.P,R10,2*%
%TO.N,Net-(D1-A)*%
X74040000Y-47400000D03*
%TD*%
D18*
%TO.P,D4,1*%
%TO.N,RST*%
X102000000Y-116000000D03*
D12*
%TO.P,D4,2*%
%TO.N,Net-(D4-A)*%
X109620000Y-116000000D03*
%TD*%
%TO.P,R16,1*%
%TO.N,RUNSW*%
X90000000Y-132000000D03*
%TO.P,R16,2*%
%TO.N,GND*%
X90000000Y-137080000D03*
%TD*%
%TO.P,R19,1*%
%TO.N,POR*%
X120000000Y-132000000D03*
%TO.P,R19,2*%
%TO.N,PN*%
X120000000Y-137080000D03*
%TD*%
D21*
%TO.P,J1,1*%
%TO.N,+5V*%
X26000000Y-8000000D03*
D20*
%TO.P,J1,2*%
X26000000Y-5460000D03*
%TO.P,J1,3*%
%TO.N,GND*%
X28540000Y-8000000D03*
%TO.P,J1,4*%
X28540000Y-5460000D03*
%TO.P,J1,5*%
%TO.N,CLK*%
X31080000Y-8000000D03*
%TO.P,J1,6*%
%TO.N,GND*%
X31080000Y-5460000D03*
%TO.P,J1,7*%
%TO.N,RST*%
X33620000Y-8000000D03*
%TO.P,J1,8*%
%TO.N,GND*%
X33620000Y-5460000D03*
%TO.P,J1,9*%
%TO.N,unconnected-(J1-Pin_9-Pad9)*%
X36160000Y-8000000D03*
%TO.P,J1,10*%
%TO.N,unconnected-(J1-Pin_10-Pad10)*%
X36160000Y-5460000D03*
%TO.P,J1,11*%
%TO.N,unconnected-(J1-Pin_11-Pad11)*%
X38700000Y-8000000D03*
%TO.P,J1,12*%
%TO.N,unconnected-(J1-Pin_12-Pad12)*%
X38700000Y-5460000D03*
%TO.P,J1,13*%
%TO.N,unconnected-(J1-Pin_13-Pad13)*%
X41240000Y-8000000D03*
%TO.P,J1,14*%
%TO.N,unconnected-(J1-Pin_14-Pad14)*%
X41240000Y-5460000D03*
%TO.P,J1,15*%
%TO.N,unconnected-(J1-Pin_15-Pad15)*%
X43780000Y-8000000D03*
%TO.P,J1,16*%
%TO.N,unconnected-(J1-Pin_16-Pad16)*%
X43780000Y-5460000D03*
%TO.P,J1,17*%
%TO.N,unconnected-(J1-Pin_17-Pad17)*%
X46320000Y-8000000D03*
%TO.P,J1,18*%
%TO.N,unconnected-(J1-Pin_18-Pad18)*%
X46320000Y-5460000D03*
%TO.P,J1,19*%
%TO.N,unconnected-(J1-Pin_19-Pad19)*%
X48860000Y-8000000D03*
%TO.P,J1,20*%
%TO.N,unconnected-(J1-Pin_20-Pad20)*%
X48860000Y-5460000D03*
%TO.P,J1,21*%
%TO.N,unconnected-(J1-Pin_21-Pad21)*%
X51400000Y-8000000D03*
%TO.P,J1,22*%
%TO.N,unconnected-(J1-Pin_22-Pad22)*%
X51400000Y-5460000D03*
%TO.P,J1,23*%
%TO.N,unconnected-(J1-Pin_23-Pad23)*%
X53940000Y-8000000D03*
%TO.P,J1,24*%
%TO.N,unconnected-(J1-Pin_24-Pad24)*%
X53940000Y-5460000D03*
%TO.P,J1,25*%
%TO.N,unconnected-(J1-Pin_25-Pad25)*%
X56480000Y-8000000D03*
%TO.P,J1,26*%
%TO.N,unconnected-(J1-Pin_26-Pad26)*%
X56480000Y-5460000D03*
%TO.P,J1,27*%
%TO.N,unconnected-(J1-Pin_27-Pad27)*%
X59020000Y-8000000D03*
%TO.P,J1,28*%
%TO.N,unconnected-(J1-Pin_28-Pad28)*%
X59020000Y-5460000D03*
%TO.P,J1,29*%
%TO.N,unconnected-(J1-Pin_29-Pad29)*%
X61560000Y-8000000D03*
%TO.P,J1,30*%
%TO.N,unconnected-(J1-Pin_30-Pad30)*%
X61560000Y-5460000D03*
%TO.P,J1,31*%
%TO.N,unconnected-(J1-Pin_31-Pad31)*%
X64100000Y-8000000D03*
%TO.P,J1,32*%
%TO.N,unconnected-(J1-Pin_32-Pad32)*%
X64100000Y-5460000D03*
%TO.P,J1,33*%
%TO.N,unconnected-(J1-Pin_33-Pad33)*%
X66640000Y-8000000D03*
%TO.P,J1,34*%
%TO.N,unconnected-(J1-Pin_34-Pad34)*%
X66640000Y-5460000D03*
%TO.P,J1,35*%
%TO.N,unconnected-(J1-Pin_35-Pad35)*%
X69180000Y-8000000D03*
%TO.P,J1,36*%
%TO.N,unconnected-(J1-Pin_36-Pad36)*%
X69180000Y-5460000D03*
%TO.P,J1,37*%
%TO.N,unconnected-(J1-Pin_37-Pad37)*%
X71720000Y-8000000D03*
%TO.P,J1,38*%
%TO.N,unconnected-(J1-Pin_38-Pad38)*%
X71720000Y-5460000D03*
%TO.P,J1,39*%
%TO.N,unconnected-(J1-Pin_39-Pad39)*%
X74260000Y-8000000D03*
%TO.P,J1,40*%
%TO.N,unconnected-(J1-Pin_40-Pad40)*%
X74260000Y-5460000D03*
%TO.P,J1,41*%
%TO.N,unconnected-(J1-Pin_41-Pad41)*%
X76800000Y-8000000D03*
%TO.P,J1,42*%
%TO.N,unconnected-(J1-Pin_42-Pad42)*%
X76800000Y-5460000D03*
%TO.P,J1,43*%
%TO.N,unconnected-(J1-Pin_43-Pad43)*%
X79340000Y-8000000D03*
%TO.P,J1,44*%
%TO.N,unconnected-(J1-Pin_44-Pad44)*%
X79340000Y-5460000D03*
%TO.P,J1,45*%
%TO.N,unconnected-(J1-Pin_45-Pad45)*%
X81880000Y-8000000D03*
%TO.P,J1,46*%
%TO.N,unconnected-(J1-Pin_46-Pad46)*%
X81880000Y-5460000D03*
%TO.P,J1,47*%
%TO.N,unconnected-(J1-Pin_47-Pad47)*%
X84420000Y-8000000D03*
%TO.P,J1,48*%
%TO.N,unconnected-(J1-Pin_48-Pad48)*%
X84420000Y-5460000D03*
%TO.P,J1,49*%
%TO.N,unconnected-(J1-Pin_49-Pad49)*%
X86960000Y-8000000D03*
%TO.P,J1,50*%
%TO.N,unconnected-(J1-Pin_50-Pad50)*%
X86960000Y-5460000D03*
%TO.P,J1,51*%
%TO.N,unconnected-(J1-Pin_51-Pad51)*%
X89500000Y-8000000D03*
%TO.P,J1,52*%
%TO.N,unconnected-(J1-Pin_52-Pad52)*%
X89500000Y-5460000D03*
%TO.P,J1,53*%
%TO.N,HLT*%
X92040000Y-8000000D03*
%TO.P,J1,54*%
%TO.N,unconnected-(J1-Pin_54-Pad54)*%
X92040000Y-5460000D03*
%TO.P,J1,55*%
%TO.N,unconnected-(J1-Pin_55-Pad55)*%
X94580000Y-8000000D03*
%TO.P,J1,56*%
%TO.N,unconnected-(J1-Pin_56-Pad56)*%
X94580000Y-5460000D03*
%TO.P,J1,57*%
%TO.N,unconnected-(J1-Pin_57-Pad57)*%
X97120000Y-8000000D03*
%TO.P,J1,58*%
%TO.N,unconnected-(J1-Pin_58-Pad58)*%
X97120000Y-5460000D03*
%TO.P,J1,59*%
%TO.N,unconnected-(J1-Pin_59-Pad59)*%
X99660000Y-8000000D03*
%TO.P,J1,60*%
%TO.N,unconnected-(J1-Pin_60-Pad60)*%
X99660000Y-5460000D03*
%TO.P,J1,61*%
%TO.N,unconnected-(J1-Pin_61-Pad61)*%
X102200000Y-8000000D03*
%TO.P,J1,62*%
%TO.N,unconnected-(J1-Pin_62-Pad62)*%
X102200000Y-5460000D03*
%TO.P,J1,63*%
%TO.N,+5V*%
X104740000Y-8000000D03*
%TO.P,J1,64*%
%TO.N,GND*%
X104740000Y-5460000D03*
%TD*%
D16*
%TO.P,Q4,1*%
%TO.N,Net-(Q4-S)*%
X46100000Y-32160000D03*
D17*
%TO.P,Q4,2*%
%TO.N,SB*%
X48640000Y-32160000D03*
%TO.P,Q4,3*%
%TO.N,OSCGN*%
X51180000Y-32160000D03*
%TD*%
D12*
%TO.P,R14,1*%
%TO.N,VS*%
X90000000Y-98000000D03*
%TO.P,R14,2*%
%TO.N,GND*%
X90000000Y-103080000D03*
%TD*%
D13*
%TO.P,D2,1*%
%TO.N,Net-(D2-K)*%
X47370000Y-57560000D03*
D14*
%TO.P,D2,2*%
%TO.N,Net-(D2-A)*%
X49910000Y-57560000D03*
%TD*%
D10*
%TO.P,H1,1*%
%TO.N,N/C*%
X4000000Y-4000000D03*
%TD*%
D12*
%TO.P,R9,1*%
%TO.N,+5V*%
X61340000Y-42320000D03*
%TO.P,R9,2*%
%TO.N,PB*%
X61340000Y-47400000D03*
%TD*%
%TO.P,C3,1*%
%TO.N,X*%
X96000000Y-110000000D03*
%TO.P,C3,2*%
%TO.N,GND*%
X96000000Y-112500000D03*
%TD*%
D16*
%TO.P,Q15,1*%
%TO.N,VS*%
X90000000Y-80000000D03*
D17*
%TO.P,Q15,2*%
%TO.N,X*%
X92540000Y-80000000D03*
%TO.P,Q15,3*%
%TO.N,Net-(Q15-D)*%
X95080000Y-80000000D03*
%TD*%
D16*
%TO.P,Q6,1*%
%TO.N,GND*%
X58800000Y-32160000D03*
D17*
%TO.P,Q6,2*%
%TO.N,OSCGN*%
X61340000Y-32160000D03*
%TO.P,Q6,3*%
%TO.N,OSCG*%
X63880000Y-32160000D03*
%TD*%
D10*
%TO.P,H4,1*%
%TO.N,N/C*%
X132000000Y-156000000D03*
%TD*%
D12*
%TO.P,R21,1*%
%TO.N,PA*%
X114000000Y-132000000D03*
%TO.P,R21,2*%
%TO.N,Net-(D4-A)*%
X114000000Y-137080000D03*
%TD*%
%TO.P,R11,1*%
%TO.N,+5V*%
X48640000Y-47400000D03*
%TO.P,R11,2*%
%TO.N,Net-(D2-A)*%
X48640000Y-52480000D03*
%TD*%
%TO.P,R20,1*%
%TO.N,PB*%
X126000000Y-132000000D03*
%TO.P,R20,2*%
%TO.N,PN*%
X126000000Y-137080000D03*
%TD*%
D11*
%TO.P,C4,1*%
%TO.N,Net-(J2-Pin_2)*%
X108000000Y-110000000D03*
D12*
%TO.P,C4,2*%
%TO.N,GND*%
X108000000Y-112000000D03*
%TD*%
%TO.P,R3,1*%
%TO.N,+5V*%
X35940000Y-22000000D03*
%TO.P,R3,2*%
%TO.N,HLTN*%
X35940000Y-27080000D03*
%TD*%
%TO.P,C1,1*%
%TO.N,+5V*%
X118000000Y-6000000D03*
%TO.P,C1,2*%
%TO.N,GND*%
X118000000Y-8500000D03*
%TD*%
D16*
%TO.P,Q9,1*%
%TO.N,GND*%
X8000000Y-57560000D03*
D17*
%TO.P,Q9,2*%
%TO.N,OSCG*%
X10540000Y-57560000D03*
%TO.P,Q9,3*%
%TO.N,PULL*%
X13080000Y-57560000D03*
%TD*%
D12*
%TO.P,R17,1*%
%TO.N,Net-(D3-K)*%
X96000000Y-132000000D03*
%TO.P,R17,2*%
%TO.N,CLK*%
X96000000Y-137080000D03*
%TD*%
D11*
%TO.P,C5,1*%
%TO.N,POR*%
X108000000Y-132000000D03*
D12*
%TO.P,C5,2*%
%TO.N,GND*%
X108000000Y-134000000D03*
%TD*%
D18*
%TO.P,SW1,1*%
%TO.N,+5V*%
X96000000Y-124000000D03*
D12*
%TO.P,SW1,2*%
%TO.N,RUNSW*%
X103620000Y-124000000D03*
%TD*%
D22*
%TO.N,+5V*%
X52450000Y-19000000D03*
X77850000Y-19000000D03*
X27050000Y-19000000D03*
X14350000Y-19000000D03*
X39750000Y-19000000D03*
X65150000Y-19000000D03*
%TO.N,GND*%
X19430000Y-16000000D03*
X6730000Y-16000000D03*
X104740000Y-2960000D03*
X118000000Y-11000000D03*
X44830000Y-16000000D03*
X33620000Y-2960000D03*
X57530000Y-16000000D03*
X70230000Y-16000000D03*
X32130000Y-16000000D03*
X124000000Y-10500000D03*
%TD*%
%TO.N,+5V*%
D23*
X102000000Y-132000000D02*
X102000000Y-130000000D01*
X96000000Y-68000000D02*
X97132000Y-69132000D01*
X102000000Y-130000000D02*
X96000000Y-124000000D01*
D24*
X14350000Y-19000000D02*
X77850000Y-19000000D01*
D23*
X97132000Y-122868000D02*
X96000000Y-124000000D01*
X97132000Y-69132000D02*
X97132000Y-122868000D01*
X26000000Y-5460000D02*
X26000000Y-8000000D01*
%TO.N,CLK*%
X25780000Y-44860000D02*
X25780000Y-65905200D01*
X25780000Y-65905200D02*
X96000000Y-136125200D01*
X96000000Y-136125200D02*
X96000000Y-137080000D01*
%TO.N,GND*%
D25*
X28540000Y-8000000D02*
X28540000Y-16000000D01*
X118000000Y-8500000D02*
X118000000Y-11000000D01*
X33620000Y-5460000D02*
X33620000Y-2960000D01*
D24*
X6730000Y-16000000D02*
X70230000Y-16000000D01*
D25*
X28540000Y-8000000D02*
X28540000Y-5460000D01*
X28540000Y-5460000D02*
X33620000Y-5460000D01*
X104740000Y-5460000D02*
X104740000Y-2960000D01*
X124000000Y-8000000D02*
X124000000Y-10500000D01*
%TO.N,HLTN*%
D23*
X35940000Y-27466600D02*
X35940000Y-27080000D01*
X39556700Y-31083300D02*
X35940000Y-27466600D01*
X48640000Y-37240000D02*
X49754300Y-36125700D01*
X39556700Y-31083300D02*
X38480000Y-32160000D01*
X49086200Y-31083300D02*
X39556700Y-31083300D01*
X49754300Y-31751400D02*
X49086200Y-31083300D01*
X49754300Y-36125700D02*
X49754300Y-31751400D01*
%TO.N,Net-(D1-A)*%
X75310000Y-48670000D02*
X74040000Y-47400000D01*
X75310000Y-52480000D02*
X75310000Y-48670000D01*
%TO.N,Net-(D2-A)*%
X49910000Y-57560000D02*
X49910000Y-53750000D01*
X49910000Y-53750000D02*
X48640000Y-52480000D01*
%TO.N,Net-(D2-K)*%
X47370000Y-58830000D02*
X51180000Y-62640000D01*
X47370000Y-57560000D02*
X47370000Y-58830000D01*
%TO.N,Net-(D4-A)*%
X109620000Y-116000000D02*
X109620000Y-132700000D01*
X109620000Y-132700000D02*
X114000000Y-137080000D01*
%TO.N,Net-(Q15-D)*%
X95080000Y-80000000D02*
X96000000Y-79080000D01*
X96000000Y-79080000D02*
X96000000Y-73080000D01*
%TO.N,OSCG*%
X61340000Y-27080000D02*
X63880000Y-29620000D01*
X63880000Y-29620000D02*
X63880000Y-32160000D01*
%TO.N,OSCGN*%
X51180000Y-31047700D02*
X51180000Y-29620000D01*
X60227700Y-31047700D02*
X61340000Y-32160000D01*
X51180000Y-29620000D02*
X48640000Y-27080000D01*
X51180000Y-31047700D02*
X60227700Y-31047700D01*
X51180000Y-32160000D02*
X51180000Y-31047700D01*
%TO.N,PA*%
X106600100Y-138246100D02*
X94359100Y-126005100D01*
X51645500Y-63764900D02*
X61340000Y-54070400D01*
X114000000Y-132000000D02*
X115146200Y-133146200D01*
X115146200Y-133146200D02*
X115146200Y-137611700D01*
X48189500Y-63764900D02*
X51645500Y-63764900D01*
X115146200Y-137611700D02*
X114511800Y-138246100D01*
X61340000Y-54070400D02*
X61340000Y-52480000D01*
X47210800Y-61210800D02*
X47210800Y-62786200D01*
X47210800Y-62786200D02*
X48189500Y-63764900D01*
X114511800Y-138246100D02*
X106600100Y-138246100D01*
X51645500Y-66609400D02*
X51645500Y-63764900D01*
X94359100Y-109323000D02*
X51645500Y-66609400D01*
X35940000Y-47400000D02*
X35940000Y-49940000D01*
X35940000Y-49940000D02*
X38480000Y-52480000D01*
X38480000Y-52480000D02*
X47210800Y-61210800D01*
X94359100Y-126005100D02*
X94359100Y-109323000D01*
%TO.N,PN*%
X89689500Y-108247900D02*
X89869000Y-108247900D01*
X92159900Y-124479100D02*
X106419700Y-138738900D01*
X106419700Y-138738900D02*
X118341100Y-138738900D01*
X35940000Y-52480000D02*
X35940000Y-54498400D01*
X35940000Y-54498400D02*
X89689500Y-108247900D01*
X120000000Y-137080000D02*
X126000000Y-137080000D01*
X92159900Y-110538800D02*
X92159900Y-124479100D01*
X118341100Y-138738900D02*
X120000000Y-137080000D01*
X89869000Y-108247900D02*
X92159900Y-110538800D01*
%TO.N,PULL*%
X13080000Y-49095000D02*
X13080000Y-52480000D01*
X12235000Y-49095000D02*
X13080000Y-49095000D01*
X13080000Y-52480000D02*
X13080000Y-57560000D01*
X19005000Y-49095000D02*
X23240000Y-44860000D01*
X13080000Y-49095000D02*
X19005000Y-49095000D01*
X10540000Y-47400000D02*
X12235000Y-49095000D01*
%TO.N,RST*%
X35902600Y-10282600D02*
X33620000Y-8000000D01*
X70239600Y-10282600D02*
X35902600Y-10282600D01*
X102000000Y-116000000D02*
X100443600Y-114443600D01*
X100443600Y-114443600D02*
X100443600Y-40486600D01*
X100443600Y-40486600D02*
X70239600Y-10282600D01*
%TO.N,RUNN*%
X74040000Y-27080000D02*
X72887700Y-25927700D01*
X9353800Y-51293800D02*
X10540000Y-52480000D01*
X9353800Y-26656700D02*
X9353800Y-51293800D01*
X76580000Y-29620000D02*
X74040000Y-27080000D01*
X76580000Y-32160000D02*
X76580000Y-29620000D01*
X10082800Y-25927700D02*
X9353800Y-26656700D01*
X72887700Y-25927700D02*
X10082800Y-25927700D01*
%TO.N,RUNSW*%
X72847400Y-33352600D02*
X72847400Y-50295300D01*
X103620000Y-124000000D02*
X98870900Y-119250900D01*
X75838800Y-59358800D02*
X74040000Y-57560000D01*
X98870900Y-119250900D02*
X98870900Y-69271500D01*
X98870900Y-69271500D02*
X88958200Y-59358800D01*
X72847400Y-50295300D02*
X74040000Y-51487900D01*
X88958200Y-59358800D02*
X75838800Y-59358800D01*
X74040000Y-51487900D02*
X74040000Y-57560000D01*
X74040000Y-32160000D02*
X72847400Y-33352600D01*
%TO.N,SA*%
X34653300Y-54653300D02*
X90000000Y-110000000D01*
X13080000Y-29620000D02*
X10540000Y-27080000D01*
X34653300Y-43573300D02*
X34653300Y-54653300D01*
X23240000Y-32160000D02*
X34653300Y-43573300D01*
X13080000Y-31047700D02*
X13080000Y-29620000D01*
X13080000Y-31047700D02*
X22127700Y-31047700D01*
X13080000Y-32160000D02*
X13080000Y-31047700D01*
X22127700Y-31047700D02*
X23240000Y-32160000D01*
%TO.N,SB*%
X48640000Y-61144800D02*
X48640000Y-62640000D01*
X25780000Y-32160000D02*
X25780000Y-29620000D01*
X25780000Y-29620000D02*
X23240000Y-27080000D01*
X47563300Y-33236700D02*
X48640000Y-32160000D01*
X45017100Y-57521900D02*
X48640000Y-61144800D01*
X45017100Y-33236700D02*
X45017100Y-57521900D01*
X26856700Y-33236700D02*
X45017100Y-33236700D01*
X45017100Y-33236700D02*
X47563300Y-33236700D01*
X25780000Y-32160000D02*
X26856700Y-33236700D01*
%TO.N,VD2*%
X107080000Y-80000000D02*
X108000000Y-79080000D01*
X108000000Y-79080000D02*
X108000000Y-73080000D01*
%TO.N,VS*%
X90000000Y-80000000D02*
X90000000Y-98000000D01*
%TO.N,X*%
X96000000Y-83460000D02*
X92540000Y-80000000D01*
X112000000Y-105000000D02*
X112000000Y-102500000D01*
X96000000Y-110000000D02*
X96000000Y-83460000D01*
%TD*%
M02*
