%TF.GenerationSoftware,KiCad,Pcbnew,10.0.5*%
%TF.CreationDate,2026-09-10T18:04:26-04:00*%
%TF.ProjectId,clock,636c6f63-6b2e-46b6-9963-61645f706362,rev?*%
%TF.SameCoordinates,Original*%
%TF.FileFunction,Legend,Top*%
%TF.FilePolarity,Positive*%
%FSLAX46Y46*%
G04 Gerber Fmt 4.6, Leading zero omitted, Abs format (unit mm)*
G04 Created by KiCad (PCBNEW 10.0.5) date 2026-09-10 18:04:26*
%MOMM*%
%LPD*%
G01*
G04 APERTURE LIST*
%ADD10C,0.150000*%
%ADD11C,0.250000*%
%ADD12C,0.120000*%
G04 APERTURE END LIST*
D10*
X50427255Y-59754819D02*
X50617731Y-59754819D01*
X50617731Y-59754819D02*
X50712969Y-59802438D01*
X50712969Y-59802438D02*
X50808207Y-59897676D01*
X50808207Y-59897676D02*
X50855826Y-60088152D01*
X50855826Y-60088152D02*
X50855826Y-60421485D01*
X50855826Y-60421485D02*
X50808207Y-60611961D01*
X50808207Y-60611961D02*
X50712969Y-60707200D01*
X50712969Y-60707200D02*
X50617731Y-60754819D01*
X50617731Y-60754819D02*
X50427255Y-60754819D01*
X50427255Y-60754819D02*
X50332017Y-60707200D01*
X50332017Y-60707200D02*
X50236779Y-60611961D01*
X50236779Y-60611961D02*
X50189160Y-60421485D01*
X50189160Y-60421485D02*
X50189160Y-60088152D01*
X50189160Y-60088152D02*
X50236779Y-59897676D01*
X50236779Y-59897676D02*
X50332017Y-59802438D01*
X50332017Y-59802438D02*
X50427255Y-59754819D01*
X51236779Y-60707200D02*
X51379636Y-60754819D01*
X51379636Y-60754819D02*
X51617731Y-60754819D01*
X51617731Y-60754819D02*
X51712969Y-60707200D01*
X51712969Y-60707200D02*
X51760588Y-60659580D01*
X51760588Y-60659580D02*
X51808207Y-60564342D01*
X51808207Y-60564342D02*
X51808207Y-60469104D01*
X51808207Y-60469104D02*
X51760588Y-60373866D01*
X51760588Y-60373866D02*
X51712969Y-60326247D01*
X51712969Y-60326247D02*
X51617731Y-60278628D01*
X51617731Y-60278628D02*
X51427255Y-60231009D01*
X51427255Y-60231009D02*
X51332017Y-60183390D01*
X51332017Y-60183390D02*
X51284398Y-60135771D01*
X51284398Y-60135771D02*
X51236779Y-60040533D01*
X51236779Y-60040533D02*
X51236779Y-59945295D01*
X51236779Y-59945295D02*
X51284398Y-59850057D01*
X51284398Y-59850057D02*
X51332017Y-59802438D01*
X51332017Y-59802438D02*
X51427255Y-59754819D01*
X51427255Y-59754819D02*
X51665350Y-59754819D01*
X51665350Y-59754819D02*
X51808207Y-59802438D01*
X52808207Y-60659580D02*
X52760588Y-60707200D01*
X52760588Y-60707200D02*
X52617731Y-60754819D01*
X52617731Y-60754819D02*
X52522493Y-60754819D01*
X52522493Y-60754819D02*
X52379636Y-60707200D01*
X52379636Y-60707200D02*
X52284398Y-60611961D01*
X52284398Y-60611961D02*
X52236779Y-60516723D01*
X52236779Y-60516723D02*
X52189160Y-60326247D01*
X52189160Y-60326247D02*
X52189160Y-60183390D01*
X52189160Y-60183390D02*
X52236779Y-59992914D01*
X52236779Y-59992914D02*
X52284398Y-59897676D01*
X52284398Y-59897676D02*
X52379636Y-59802438D01*
X52379636Y-59802438D02*
X52522493Y-59754819D01*
X52522493Y-59754819D02*
X52617731Y-59754819D01*
X52617731Y-59754819D02*
X52760588Y-59802438D01*
X52760588Y-59802438D02*
X52808207Y-59850057D01*
X76208207Y-55674819D02*
X75874874Y-55198628D01*
X75636779Y-55674819D02*
X75636779Y-54674819D01*
X75636779Y-54674819D02*
X76017731Y-54674819D01*
X76017731Y-54674819D02*
X76112969Y-54722438D01*
X76112969Y-54722438D02*
X76160588Y-54770057D01*
X76160588Y-54770057D02*
X76208207Y-54865295D01*
X76208207Y-54865295D02*
X76208207Y-55008152D01*
X76208207Y-55008152D02*
X76160588Y-55103390D01*
X76160588Y-55103390D02*
X76112969Y-55151009D01*
X76112969Y-55151009D02*
X76017731Y-55198628D01*
X76017731Y-55198628D02*
X75636779Y-55198628D01*
X76636779Y-54674819D02*
X76636779Y-55484342D01*
X76636779Y-55484342D02*
X76684398Y-55579580D01*
X76684398Y-55579580D02*
X76732017Y-55627200D01*
X76732017Y-55627200D02*
X76827255Y-55674819D01*
X76827255Y-55674819D02*
X77017731Y-55674819D01*
X77017731Y-55674819D02*
X77112969Y-55627200D01*
X77112969Y-55627200D02*
X77160588Y-55579580D01*
X77160588Y-55579580D02*
X77208207Y-55484342D01*
X77208207Y-55484342D02*
X77208207Y-54674819D01*
X77684398Y-55674819D02*
X77684398Y-54674819D01*
X77684398Y-54674819D02*
X78255826Y-55674819D01*
X78255826Y-55674819D02*
X78255826Y-54674819D01*
X93908207Y-120454819D02*
X93574874Y-119978628D01*
X93336779Y-120454819D02*
X93336779Y-119454819D01*
X93336779Y-119454819D02*
X93717731Y-119454819D01*
X93717731Y-119454819D02*
X93812969Y-119502438D01*
X93812969Y-119502438D02*
X93860588Y-119550057D01*
X93860588Y-119550057D02*
X93908207Y-119645295D01*
X93908207Y-119645295D02*
X93908207Y-119788152D01*
X93908207Y-119788152D02*
X93860588Y-119883390D01*
X93860588Y-119883390D02*
X93812969Y-119931009D01*
X93812969Y-119931009D02*
X93717731Y-119978628D01*
X93717731Y-119978628D02*
X93336779Y-119978628D01*
X94336779Y-119454819D02*
X94336779Y-120264342D01*
X94336779Y-120264342D02*
X94384398Y-120359580D01*
X94384398Y-120359580D02*
X94432017Y-120407200D01*
X94432017Y-120407200D02*
X94527255Y-120454819D01*
X94527255Y-120454819D02*
X94717731Y-120454819D01*
X94717731Y-120454819D02*
X94812969Y-120407200D01*
X94812969Y-120407200D02*
X94860588Y-120359580D01*
X94860588Y-120359580D02*
X94908207Y-120264342D01*
X94908207Y-120264342D02*
X94908207Y-119454819D01*
X95384398Y-120454819D02*
X95384398Y-119454819D01*
X95384398Y-119454819D02*
X95955826Y-120454819D01*
X95955826Y-120454819D02*
X95955826Y-119454819D01*
X99289160Y-106407200D02*
X99432017Y-106454819D01*
X99432017Y-106454819D02*
X99670112Y-106454819D01*
X99670112Y-106454819D02*
X99765350Y-106407200D01*
X99765350Y-106407200D02*
X99812969Y-106359580D01*
X99812969Y-106359580D02*
X99860588Y-106264342D01*
X99860588Y-106264342D02*
X99860588Y-106169104D01*
X99860588Y-106169104D02*
X99812969Y-106073866D01*
X99812969Y-106073866D02*
X99765350Y-106026247D01*
X99765350Y-106026247D02*
X99670112Y-105978628D01*
X99670112Y-105978628D02*
X99479636Y-105931009D01*
X99479636Y-105931009D02*
X99384398Y-105883390D01*
X99384398Y-105883390D02*
X99336779Y-105835771D01*
X99336779Y-105835771D02*
X99289160Y-105740533D01*
X99289160Y-105740533D02*
X99289160Y-105645295D01*
X99289160Y-105645295D02*
X99336779Y-105550057D01*
X99336779Y-105550057D02*
X99384398Y-105502438D01*
X99384398Y-105502438D02*
X99479636Y-105454819D01*
X99479636Y-105454819D02*
X99717731Y-105454819D01*
X99717731Y-105454819D02*
X99860588Y-105502438D01*
X100765350Y-106454819D02*
X100289160Y-106454819D01*
X100289160Y-106454819D02*
X100289160Y-105454819D01*
X101289160Y-105454819D02*
X101479636Y-105454819D01*
X101479636Y-105454819D02*
X101574874Y-105502438D01*
X101574874Y-105502438D02*
X101670112Y-105597676D01*
X101670112Y-105597676D02*
X101717731Y-105788152D01*
X101717731Y-105788152D02*
X101717731Y-106121485D01*
X101717731Y-106121485D02*
X101670112Y-106311961D01*
X101670112Y-106311961D02*
X101574874Y-106407200D01*
X101574874Y-106407200D02*
X101479636Y-106454819D01*
X101479636Y-106454819D02*
X101289160Y-106454819D01*
X101289160Y-106454819D02*
X101193922Y-106407200D01*
X101193922Y-106407200D02*
X101098684Y-106311961D01*
X101098684Y-106311961D02*
X101051065Y-106121485D01*
X101051065Y-106121485D02*
X101051065Y-105788152D01*
X101051065Y-105788152D02*
X101098684Y-105597676D01*
X101098684Y-105597676D02*
X101193922Y-105502438D01*
X101193922Y-105502438D02*
X101289160Y-105454819D01*
X102051065Y-105454819D02*
X102289160Y-106454819D01*
X102289160Y-106454819D02*
X102479636Y-105740533D01*
X102479636Y-105740533D02*
X102670112Y-106454819D01*
X102670112Y-106454819D02*
X102908208Y-105454819D01*
X28784398Y-2918771D02*
X28955826Y-2975914D01*
X28955826Y-2975914D02*
X29012969Y-3033057D01*
X29012969Y-3033057D02*
X29070112Y-3147342D01*
X29070112Y-3147342D02*
X29070112Y-3318771D01*
X29070112Y-3318771D02*
X29012969Y-3433057D01*
X29012969Y-3433057D02*
X28955826Y-3490200D01*
X28955826Y-3490200D02*
X28841541Y-3547342D01*
X28841541Y-3547342D02*
X28384398Y-3547342D01*
X28384398Y-3547342D02*
X28384398Y-2347342D01*
X28384398Y-2347342D02*
X28784398Y-2347342D01*
X28784398Y-2347342D02*
X28898684Y-2404485D01*
X28898684Y-2404485D02*
X28955826Y-2461628D01*
X28955826Y-2461628D02*
X29012969Y-2575914D01*
X29012969Y-2575914D02*
X29012969Y-2690200D01*
X29012969Y-2690200D02*
X28955826Y-2804485D01*
X28955826Y-2804485D02*
X28898684Y-2861628D01*
X28898684Y-2861628D02*
X28784398Y-2918771D01*
X28784398Y-2918771D02*
X28384398Y-2918771D01*
X29584398Y-2347342D02*
X29584398Y-3318771D01*
X29584398Y-3318771D02*
X29641541Y-3433057D01*
X29641541Y-3433057D02*
X29698684Y-3490200D01*
X29698684Y-3490200D02*
X29812969Y-3547342D01*
X29812969Y-3547342D02*
X30041541Y-3547342D01*
X30041541Y-3547342D02*
X30155826Y-3490200D01*
X30155826Y-3490200D02*
X30212969Y-3433057D01*
X30212969Y-3433057D02*
X30270112Y-3318771D01*
X30270112Y-3318771D02*
X30270112Y-2347342D01*
X30784398Y-3490200D02*
X30955827Y-3547342D01*
X30955827Y-3547342D02*
X31241541Y-3547342D01*
X31241541Y-3547342D02*
X31355827Y-3490200D01*
X31355827Y-3490200D02*
X31412969Y-3433057D01*
X31412969Y-3433057D02*
X31470112Y-3318771D01*
X31470112Y-3318771D02*
X31470112Y-3204485D01*
X31470112Y-3204485D02*
X31412969Y-3090200D01*
X31412969Y-3090200D02*
X31355827Y-3033057D01*
X31355827Y-3033057D02*
X31241541Y-2975914D01*
X31241541Y-2975914D02*
X31012969Y-2918771D01*
X31012969Y-2918771D02*
X30898684Y-2861628D01*
X30898684Y-2861628D02*
X30841541Y-2804485D01*
X30841541Y-2804485D02*
X30784398Y-2690200D01*
X30784398Y-2690200D02*
X30784398Y-2575914D01*
X30784398Y-2575914D02*
X30841541Y-2461628D01*
X30841541Y-2461628D02*
X30898684Y-2404485D01*
X30898684Y-2404485D02*
X31012969Y-2347342D01*
X31012969Y-2347342D02*
X31298684Y-2347342D01*
X31298684Y-2347342D02*
X31470112Y-2404485D01*
X34155827Y-4004485D02*
X34098684Y-3947342D01*
X34098684Y-3947342D02*
X33984398Y-3775914D01*
X33984398Y-3775914D02*
X33927256Y-3661628D01*
X33927256Y-3661628D02*
X33870113Y-3490200D01*
X33870113Y-3490200D02*
X33812970Y-3204485D01*
X33812970Y-3204485D02*
X33812970Y-2975914D01*
X33812970Y-2975914D02*
X33870113Y-2690200D01*
X33870113Y-2690200D02*
X33927256Y-2518771D01*
X33927256Y-2518771D02*
X33984398Y-2404485D01*
X33984398Y-2404485D02*
X34098684Y-2233057D01*
X34098684Y-2233057D02*
X34155827Y-2175914D01*
X34612970Y-2747342D02*
X34612970Y-3947342D01*
X34612970Y-2804485D02*
X34727256Y-2747342D01*
X34727256Y-2747342D02*
X34955827Y-2747342D01*
X34955827Y-2747342D02*
X35070113Y-2804485D01*
X35070113Y-2804485D02*
X35127256Y-2861628D01*
X35127256Y-2861628D02*
X35184398Y-2975914D01*
X35184398Y-2975914D02*
X35184398Y-3318771D01*
X35184398Y-3318771D02*
X35127256Y-3433057D01*
X35127256Y-3433057D02*
X35070113Y-3490200D01*
X35070113Y-3490200D02*
X34955827Y-3547342D01*
X34955827Y-3547342D02*
X34727256Y-3547342D01*
X34727256Y-3547342D02*
X34612970Y-3490200D01*
X35698684Y-3547342D02*
X35698684Y-2747342D01*
X35698684Y-2347342D02*
X35641541Y-2404485D01*
X35641541Y-2404485D02*
X35698684Y-2461628D01*
X35698684Y-2461628D02*
X35755827Y-2404485D01*
X35755827Y-2404485D02*
X35698684Y-2347342D01*
X35698684Y-2347342D02*
X35698684Y-2461628D01*
X36270113Y-2747342D02*
X36270113Y-3547342D01*
X36270113Y-2861628D02*
X36327256Y-2804485D01*
X36327256Y-2804485D02*
X36441541Y-2747342D01*
X36441541Y-2747342D02*
X36612970Y-2747342D01*
X36612970Y-2747342D02*
X36727256Y-2804485D01*
X36727256Y-2804485D02*
X36784399Y-2918771D01*
X36784399Y-2918771D02*
X36784399Y-3547342D01*
X38898684Y-3547342D02*
X38212970Y-3547342D01*
X38555827Y-3547342D02*
X38555827Y-2347342D01*
X38555827Y-2347342D02*
X38441541Y-2518771D01*
X38441541Y-2518771D02*
X38327256Y-2633057D01*
X38327256Y-2633057D02*
X38212970Y-2690200D01*
X40498684Y-3547342D02*
X40384399Y-3490200D01*
X40384399Y-3490200D02*
X40327256Y-3375914D01*
X40327256Y-3375914D02*
X40327256Y-2347342D01*
X41412970Y-3490200D02*
X41298684Y-3547342D01*
X41298684Y-3547342D02*
X41070113Y-3547342D01*
X41070113Y-3547342D02*
X40955827Y-3490200D01*
X40955827Y-3490200D02*
X40898684Y-3375914D01*
X40898684Y-3375914D02*
X40898684Y-2918771D01*
X40898684Y-2918771D02*
X40955827Y-2804485D01*
X40955827Y-2804485D02*
X41070113Y-2747342D01*
X41070113Y-2747342D02*
X41298684Y-2747342D01*
X41298684Y-2747342D02*
X41412970Y-2804485D01*
X41412970Y-2804485D02*
X41470113Y-2918771D01*
X41470113Y-2918771D02*
X41470113Y-3033057D01*
X41470113Y-3033057D02*
X40898684Y-3147342D01*
X41812969Y-2747342D02*
X42270112Y-2747342D01*
X41984398Y-3547342D02*
X41984398Y-2518771D01*
X41984398Y-2518771D02*
X42041541Y-2404485D01*
X42041541Y-2404485D02*
X42155826Y-2347342D01*
X42155826Y-2347342D02*
X42270112Y-2347342D01*
X42498683Y-2747342D02*
X42955826Y-2747342D01*
X42670112Y-2347342D02*
X42670112Y-3375914D01*
X42670112Y-3375914D02*
X42727255Y-3490200D01*
X42727255Y-3490200D02*
X42841540Y-3547342D01*
X42841540Y-3547342D02*
X42955826Y-3547342D01*
X43241540Y-4004485D02*
X43298683Y-3947342D01*
X43298683Y-3947342D02*
X43412969Y-3775914D01*
X43412969Y-3775914D02*
X43470112Y-3661628D01*
X43470112Y-3661628D02*
X43527254Y-3490200D01*
X43527254Y-3490200D02*
X43584397Y-3204485D01*
X43584397Y-3204485D02*
X43584397Y-2975914D01*
X43584397Y-2975914D02*
X43527254Y-2690200D01*
X43527254Y-2690200D02*
X43470112Y-2518771D01*
X43470112Y-2518771D02*
X43412969Y-2404485D01*
X43412969Y-2404485D02*
X43298683Y-2233057D01*
X43298683Y-2233057D02*
X43241540Y-2175914D01*
X108384398Y-95614700D02*
X108598684Y-95686128D01*
X108598684Y-95686128D02*
X108955826Y-95686128D01*
X108955826Y-95686128D02*
X109098684Y-95614700D01*
X109098684Y-95614700D02*
X109170112Y-95543271D01*
X109170112Y-95543271D02*
X109241541Y-95400414D01*
X109241541Y-95400414D02*
X109241541Y-95257557D01*
X109241541Y-95257557D02*
X109170112Y-95114700D01*
X109170112Y-95114700D02*
X109098684Y-95043271D01*
X109098684Y-95043271D02*
X108955826Y-94971842D01*
X108955826Y-94971842D02*
X108670112Y-94900414D01*
X108670112Y-94900414D02*
X108527255Y-94828985D01*
X108527255Y-94828985D02*
X108455826Y-94757557D01*
X108455826Y-94757557D02*
X108384398Y-94614700D01*
X108384398Y-94614700D02*
X108384398Y-94471842D01*
X108384398Y-94471842D02*
X108455826Y-94328985D01*
X108455826Y-94328985D02*
X108527255Y-94257557D01*
X108527255Y-94257557D02*
X108670112Y-94186128D01*
X108670112Y-94186128D02*
X109027255Y-94186128D01*
X109027255Y-94186128D02*
X109241541Y-94257557D01*
X109884397Y-95686128D02*
X109884397Y-94186128D01*
X109884397Y-94186128D02*
X110455826Y-94186128D01*
X110455826Y-94186128D02*
X110598683Y-94257557D01*
X110598683Y-94257557D02*
X110670112Y-94328985D01*
X110670112Y-94328985D02*
X110741540Y-94471842D01*
X110741540Y-94471842D02*
X110741540Y-94686128D01*
X110741540Y-94686128D02*
X110670112Y-94828985D01*
X110670112Y-94828985D02*
X110598683Y-94900414D01*
X110598683Y-94900414D02*
X110455826Y-94971842D01*
X110455826Y-94971842D02*
X109884397Y-94971842D01*
X111384397Y-94900414D02*
X111884397Y-94900414D01*
X112098683Y-95686128D02*
X111384397Y-95686128D01*
X111384397Y-95686128D02*
X111384397Y-94186128D01*
X111384397Y-94186128D02*
X112098683Y-94186128D01*
X112741540Y-94900414D02*
X113241540Y-94900414D01*
X113455826Y-95686128D02*
X112741540Y-95686128D01*
X112741540Y-95686128D02*
X112741540Y-94186128D01*
X112741540Y-94186128D02*
X113455826Y-94186128D01*
X114098683Y-95686128D02*
X114098683Y-94186128D01*
X114098683Y-94186128D02*
X114455826Y-94186128D01*
X114455826Y-94186128D02*
X114670112Y-94257557D01*
X114670112Y-94257557D02*
X114812969Y-94400414D01*
X114812969Y-94400414D02*
X114884398Y-94543271D01*
X114884398Y-94543271D02*
X114955826Y-94828985D01*
X114955826Y-94828985D02*
X114955826Y-95043271D01*
X114955826Y-95043271D02*
X114884398Y-95328985D01*
X114884398Y-95328985D02*
X114812969Y-95471842D01*
X114812969Y-95471842D02*
X114670112Y-95614700D01*
X114670112Y-95614700D02*
X114455826Y-95686128D01*
X114455826Y-95686128D02*
X114098683Y-95686128D01*
D11*
X102593044Y-3819714D02*
X102593044Y-2019714D01*
X102593044Y-2019714D02*
X103621615Y-3819714D01*
X103621615Y-3819714D02*
X103621615Y-2019714D01*
X104478758Y-3819714D02*
X104478758Y-2019714D01*
X105935901Y-2876857D02*
X106193044Y-2962571D01*
X106193044Y-2962571D02*
X106278758Y-3048285D01*
X106278758Y-3048285D02*
X106364472Y-3219714D01*
X106364472Y-3219714D02*
X106364472Y-3476857D01*
X106364472Y-3476857D02*
X106278758Y-3648285D01*
X106278758Y-3648285D02*
X106193044Y-3734000D01*
X106193044Y-3734000D02*
X106021615Y-3819714D01*
X106021615Y-3819714D02*
X105335901Y-3819714D01*
X105335901Y-3819714D02*
X105335901Y-2019714D01*
X105335901Y-2019714D02*
X105935901Y-2019714D01*
X105935901Y-2019714D02*
X106107330Y-2105428D01*
X106107330Y-2105428D02*
X106193044Y-2191142D01*
X106193044Y-2191142D02*
X106278758Y-2362571D01*
X106278758Y-2362571D02*
X106278758Y-2534000D01*
X106278758Y-2534000D02*
X106193044Y-2705428D01*
X106193044Y-2705428D02*
X106107330Y-2791142D01*
X106107330Y-2791142D02*
X105935901Y-2876857D01*
X105935901Y-2876857D02*
X105335901Y-2876857D01*
X107735901Y-2876857D02*
X107993044Y-2962571D01*
X107993044Y-2962571D02*
X108078758Y-3048285D01*
X108078758Y-3048285D02*
X108164472Y-3219714D01*
X108164472Y-3219714D02*
X108164472Y-3476857D01*
X108164472Y-3476857D02*
X108078758Y-3648285D01*
X108078758Y-3648285D02*
X107993044Y-3734000D01*
X107993044Y-3734000D02*
X107821615Y-3819714D01*
X107821615Y-3819714D02*
X107135901Y-3819714D01*
X107135901Y-3819714D02*
X107135901Y-2019714D01*
X107135901Y-2019714D02*
X107735901Y-2019714D01*
X107735901Y-2019714D02*
X107907330Y-2105428D01*
X107907330Y-2105428D02*
X107993044Y-2191142D01*
X107993044Y-2191142D02*
X108078758Y-2362571D01*
X108078758Y-2362571D02*
X108078758Y-2534000D01*
X108078758Y-2534000D02*
X107993044Y-2705428D01*
X107993044Y-2705428D02*
X107907330Y-2791142D01*
X107907330Y-2791142D02*
X107735901Y-2876857D01*
X107735901Y-2876857D02*
X107135901Y-2876857D01*
X109793044Y-3819714D02*
X108935901Y-3819714D01*
X108935901Y-3819714D02*
X108935901Y-2019714D01*
X110393044Y-2876857D02*
X110993044Y-2876857D01*
X111250187Y-3819714D02*
X110393044Y-3819714D01*
X110393044Y-3819714D02*
X110393044Y-2019714D01*
X110393044Y-2019714D02*
X111250187Y-2019714D01*
X114421615Y-3648285D02*
X114335901Y-3734000D01*
X114335901Y-3734000D02*
X114078758Y-3819714D01*
X114078758Y-3819714D02*
X113907330Y-3819714D01*
X113907330Y-3819714D02*
X113650187Y-3734000D01*
X113650187Y-3734000D02*
X113478758Y-3562571D01*
X113478758Y-3562571D02*
X113393044Y-3391142D01*
X113393044Y-3391142D02*
X113307330Y-3048285D01*
X113307330Y-3048285D02*
X113307330Y-2791142D01*
X113307330Y-2791142D02*
X113393044Y-2448285D01*
X113393044Y-2448285D02*
X113478758Y-2276857D01*
X113478758Y-2276857D02*
X113650187Y-2105428D01*
X113650187Y-2105428D02*
X113907330Y-2019714D01*
X113907330Y-2019714D02*
X114078758Y-2019714D01*
X114078758Y-2019714D02*
X114335901Y-2105428D01*
X114335901Y-2105428D02*
X114421615Y-2191142D01*
X116050187Y-3819714D02*
X115193044Y-3819714D01*
X115193044Y-3819714D02*
X115193044Y-2019714D01*
X116993044Y-2019714D02*
X117335901Y-2019714D01*
X117335901Y-2019714D02*
X117507330Y-2105428D01*
X117507330Y-2105428D02*
X117678758Y-2276857D01*
X117678758Y-2276857D02*
X117764473Y-2619714D01*
X117764473Y-2619714D02*
X117764473Y-3219714D01*
X117764473Y-3219714D02*
X117678758Y-3562571D01*
X117678758Y-3562571D02*
X117507330Y-3734000D01*
X117507330Y-3734000D02*
X117335901Y-3819714D01*
X117335901Y-3819714D02*
X116993044Y-3819714D01*
X116993044Y-3819714D02*
X116821616Y-3734000D01*
X116821616Y-3734000D02*
X116650187Y-3562571D01*
X116650187Y-3562571D02*
X116564473Y-3219714D01*
X116564473Y-3219714D02*
X116564473Y-2619714D01*
X116564473Y-2619714D02*
X116650187Y-2276857D01*
X116650187Y-2276857D02*
X116821616Y-2105428D01*
X116821616Y-2105428D02*
X116993044Y-2019714D01*
X119564472Y-3648285D02*
X119478758Y-3734000D01*
X119478758Y-3734000D02*
X119221615Y-3819714D01*
X119221615Y-3819714D02*
X119050187Y-3819714D01*
X119050187Y-3819714D02*
X118793044Y-3734000D01*
X118793044Y-3734000D02*
X118621615Y-3562571D01*
X118621615Y-3562571D02*
X118535901Y-3391142D01*
X118535901Y-3391142D02*
X118450187Y-3048285D01*
X118450187Y-3048285D02*
X118450187Y-2791142D01*
X118450187Y-2791142D02*
X118535901Y-2448285D01*
X118535901Y-2448285D02*
X118621615Y-2276857D01*
X118621615Y-2276857D02*
X118793044Y-2105428D01*
X118793044Y-2105428D02*
X119050187Y-2019714D01*
X119050187Y-2019714D02*
X119221615Y-2019714D01*
X119221615Y-2019714D02*
X119478758Y-2105428D01*
X119478758Y-2105428D02*
X119564472Y-2191142D01*
X120335901Y-3819714D02*
X120335901Y-2019714D01*
X121364472Y-3819714D02*
X120593044Y-2791142D01*
X121364472Y-2019714D02*
X120335901Y-3048285D01*
D10*
X131238095Y-304819D02*
X131238095Y695180D01*
X131238095Y218990D02*
X131809523Y218990D01*
X131809523Y-304819D02*
X131809523Y695180D01*
X132238095Y599942D02*
X132285714Y647561D01*
X132285714Y647561D02*
X132380952Y695180D01*
X132380952Y695180D02*
X132619047Y695180D01*
X132619047Y695180D02*
X132714285Y647561D01*
X132714285Y647561D02*
X132761904Y599942D01*
X132761904Y599942D02*
X132809523Y504704D01*
X132809523Y504704D02*
X132809523Y409466D01*
X132809523Y409466D02*
X132761904Y266609D01*
X132761904Y266609D02*
X132190476Y-304819D01*
X132190476Y-304819D02*
X132809523Y-304819D01*
X128109580Y-7166666D02*
X128157200Y-7214285D01*
X128157200Y-7214285D02*
X128204819Y-7357142D01*
X128204819Y-7357142D02*
X128204819Y-7452380D01*
X128204819Y-7452380D02*
X128157200Y-7595237D01*
X128157200Y-7595237D02*
X128061961Y-7690475D01*
X128061961Y-7690475D02*
X127966723Y-7738094D01*
X127966723Y-7738094D02*
X127776247Y-7785713D01*
X127776247Y-7785713D02*
X127633390Y-7785713D01*
X127633390Y-7785713D02*
X127442914Y-7738094D01*
X127442914Y-7738094D02*
X127347676Y-7690475D01*
X127347676Y-7690475D02*
X127252438Y-7595237D01*
X127252438Y-7595237D02*
X127204819Y-7452380D01*
X127204819Y-7452380D02*
X127204819Y-7357142D01*
X127204819Y-7357142D02*
X127252438Y-7214285D01*
X127252438Y-7214285D02*
X127300057Y-7166666D01*
X127300057Y-6785713D02*
X127252438Y-6738094D01*
X127252438Y-6738094D02*
X127204819Y-6642856D01*
X127204819Y-6642856D02*
X127204819Y-6404761D01*
X127204819Y-6404761D02*
X127252438Y-6309523D01*
X127252438Y-6309523D02*
X127300057Y-6261904D01*
X127300057Y-6261904D02*
X127395295Y-6214285D01*
X127395295Y-6214285D02*
X127490533Y-6214285D01*
X127490533Y-6214285D02*
X127633390Y-6261904D01*
X127633390Y-6261904D02*
X128204819Y-6833332D01*
X128204819Y-6833332D02*
X128204819Y-6214285D01*
X73301905Y-49974819D02*
X73301905Y-48974819D01*
X73301905Y-48974819D02*
X73540000Y-48974819D01*
X73540000Y-48974819D02*
X73682857Y-49022438D01*
X73682857Y-49022438D02*
X73778095Y-49117676D01*
X73778095Y-49117676D02*
X73825714Y-49212914D01*
X73825714Y-49212914D02*
X73873333Y-49403390D01*
X73873333Y-49403390D02*
X73873333Y-49546247D01*
X73873333Y-49546247D02*
X73825714Y-49736723D01*
X73825714Y-49736723D02*
X73778095Y-49831961D01*
X73778095Y-49831961D02*
X73682857Y-49927200D01*
X73682857Y-49927200D02*
X73540000Y-49974819D01*
X73540000Y-49974819D02*
X73301905Y-49974819D01*
X74825714Y-49974819D02*
X74254286Y-49974819D01*
X74540000Y-49974819D02*
X74540000Y-48974819D01*
X74540000Y-48974819D02*
X74444762Y-49117676D01*
X74444762Y-49117676D02*
X74349524Y-49212914D01*
X74349524Y-49212914D02*
X74254286Y-49260533D01*
X111071905Y-122334819D02*
X111071905Y-121334819D01*
X111071905Y-121334819D02*
X111310000Y-121334819D01*
X111310000Y-121334819D02*
X111452857Y-121382438D01*
X111452857Y-121382438D02*
X111548095Y-121477676D01*
X111548095Y-121477676D02*
X111595714Y-121572914D01*
X111595714Y-121572914D02*
X111643333Y-121763390D01*
X111643333Y-121763390D02*
X111643333Y-121906247D01*
X111643333Y-121906247D02*
X111595714Y-122096723D01*
X111595714Y-122096723D02*
X111548095Y-122191961D01*
X111548095Y-122191961D02*
X111452857Y-122287200D01*
X111452857Y-122287200D02*
X111310000Y-122334819D01*
X111310000Y-122334819D02*
X111071905Y-122334819D01*
X111976667Y-121334819D02*
X112595714Y-121334819D01*
X112595714Y-121334819D02*
X112262381Y-121715771D01*
X112262381Y-121715771D02*
X112405238Y-121715771D01*
X112405238Y-121715771D02*
X112500476Y-121763390D01*
X112500476Y-121763390D02*
X112548095Y-121811009D01*
X112548095Y-121811009D02*
X112595714Y-121906247D01*
X112595714Y-121906247D02*
X112595714Y-122144342D01*
X112595714Y-122144342D02*
X112548095Y-122239580D01*
X112548095Y-122239580D02*
X112500476Y-122287200D01*
X112500476Y-122287200D02*
X112405238Y-122334819D01*
X112405238Y-122334819D02*
X112119524Y-122334819D01*
X112119524Y-122334819D02*
X112024286Y-122287200D01*
X112024286Y-122287200D02*
X111976667Y-122239580D01*
X107738095Y-122654819D02*
X107738095Y-121654819D01*
X108309523Y-122654819D02*
X107880952Y-122083390D01*
X108309523Y-121654819D02*
X107738095Y-122226247D01*
X101666666Y-107074819D02*
X101666666Y-107789104D01*
X101666666Y-107789104D02*
X101619047Y-107931961D01*
X101619047Y-107931961D02*
X101523809Y-108027200D01*
X101523809Y-108027200D02*
X101380952Y-108074819D01*
X101380952Y-108074819D02*
X101285714Y-108074819D01*
X102095238Y-107170057D02*
X102142857Y-107122438D01*
X102142857Y-107122438D02*
X102238095Y-107074819D01*
X102238095Y-107074819D02*
X102476190Y-107074819D01*
X102476190Y-107074819D02*
X102571428Y-107122438D01*
X102571428Y-107122438D02*
X102619047Y-107170057D01*
X102619047Y-107170057D02*
X102666666Y-107265295D01*
X102666666Y-107265295D02*
X102666666Y-107360533D01*
X102666666Y-107360533D02*
X102619047Y-107503390D01*
X102619047Y-107503390D02*
X102047619Y-108074819D01*
X102047619Y-108074819D02*
X102666666Y-108074819D01*
X3238095Y-152304819D02*
X3238095Y-151304819D01*
X3238095Y-151781009D02*
X3809523Y-151781009D01*
X3809523Y-152304819D02*
X3809523Y-151304819D01*
X4190476Y-151304819D02*
X4809523Y-151304819D01*
X4809523Y-151304819D02*
X4476190Y-151685771D01*
X4476190Y-151685771D02*
X4619047Y-151685771D01*
X4619047Y-151685771D02*
X4714285Y-151733390D01*
X4714285Y-151733390D02*
X4761904Y-151781009D01*
X4761904Y-151781009D02*
X4809523Y-151876247D01*
X4809523Y-151876247D02*
X4809523Y-152114342D01*
X4809523Y-152114342D02*
X4761904Y-152209580D01*
X4761904Y-152209580D02*
X4714285Y-152257200D01*
X4714285Y-152257200D02*
X4619047Y-152304819D01*
X4619047Y-152304819D02*
X4333333Y-152304819D01*
X4333333Y-152304819D02*
X4238095Y-152257200D01*
X4238095Y-152257200D02*
X4190476Y-152209580D01*
X105071905Y-114334819D02*
X105071905Y-113334819D01*
X105071905Y-113334819D02*
X105310000Y-113334819D01*
X105310000Y-113334819D02*
X105452857Y-113382438D01*
X105452857Y-113382438D02*
X105548095Y-113477676D01*
X105548095Y-113477676D02*
X105595714Y-113572914D01*
X105595714Y-113572914D02*
X105643333Y-113763390D01*
X105643333Y-113763390D02*
X105643333Y-113906247D01*
X105643333Y-113906247D02*
X105595714Y-114096723D01*
X105595714Y-114096723D02*
X105548095Y-114191961D01*
X105548095Y-114191961D02*
X105452857Y-114287200D01*
X105452857Y-114287200D02*
X105310000Y-114334819D01*
X105310000Y-114334819D02*
X105071905Y-114334819D01*
X106500476Y-113668152D02*
X106500476Y-114334819D01*
X106262381Y-113287200D02*
X106024286Y-114001485D01*
X106024286Y-114001485D02*
X106643333Y-114001485D01*
X101738095Y-114654819D02*
X101738095Y-113654819D01*
X102309523Y-114654819D02*
X101880952Y-114083390D01*
X102309523Y-113654819D02*
X101738095Y-114226247D01*
X19354819Y-7063333D02*
X20069104Y-7063333D01*
X20069104Y-7063333D02*
X20211961Y-7110952D01*
X20211961Y-7110952D02*
X20307200Y-7206190D01*
X20307200Y-7206190D02*
X20354819Y-7349047D01*
X20354819Y-7349047D02*
X20354819Y-7444285D01*
X20354819Y-6063333D02*
X20354819Y-6634761D01*
X20354819Y-6349047D02*
X19354819Y-6349047D01*
X19354819Y-6349047D02*
X19497676Y-6444285D01*
X19497676Y-6444285D02*
X19592914Y-6539523D01*
X19592914Y-6539523D02*
X19640533Y-6634761D01*
X47901905Y-55054819D02*
X47901905Y-54054819D01*
X47901905Y-54054819D02*
X48140000Y-54054819D01*
X48140000Y-54054819D02*
X48282857Y-54102438D01*
X48282857Y-54102438D02*
X48378095Y-54197676D01*
X48378095Y-54197676D02*
X48425714Y-54292914D01*
X48425714Y-54292914D02*
X48473333Y-54483390D01*
X48473333Y-54483390D02*
X48473333Y-54626247D01*
X48473333Y-54626247D02*
X48425714Y-54816723D01*
X48425714Y-54816723D02*
X48378095Y-54911961D01*
X48378095Y-54911961D02*
X48282857Y-55007200D01*
X48282857Y-55007200D02*
X48140000Y-55054819D01*
X48140000Y-55054819D02*
X47901905Y-55054819D01*
X48854286Y-54150057D02*
X48901905Y-54102438D01*
X48901905Y-54102438D02*
X48997143Y-54054819D01*
X48997143Y-54054819D02*
X49235238Y-54054819D01*
X49235238Y-54054819D02*
X49330476Y-54102438D01*
X49330476Y-54102438D02*
X49378095Y-54150057D01*
X49378095Y-54150057D02*
X49425714Y-54245295D01*
X49425714Y-54245295D02*
X49425714Y-54340533D01*
X49425714Y-54340533D02*
X49378095Y-54483390D01*
X49378095Y-54483390D02*
X48806667Y-55054819D01*
X48806667Y-55054819D02*
X49425714Y-55054819D01*
X3238095Y-304819D02*
X3238095Y695180D01*
X3238095Y218990D02*
X3809523Y218990D01*
X3809523Y-304819D02*
X3809523Y695180D01*
X4809523Y-304819D02*
X4238095Y-304819D01*
X4523809Y-304819D02*
X4523809Y695180D01*
X4523809Y695180D02*
X4428571Y552323D01*
X4428571Y552323D02*
X4333333Y457085D01*
X4333333Y457085D02*
X4238095Y409466D01*
X98859580Y-111416666D02*
X98907200Y-111464285D01*
X98907200Y-111464285D02*
X98954819Y-111607142D01*
X98954819Y-111607142D02*
X98954819Y-111702380D01*
X98954819Y-111702380D02*
X98907200Y-111845237D01*
X98907200Y-111845237D02*
X98811961Y-111940475D01*
X98811961Y-111940475D02*
X98716723Y-111988094D01*
X98716723Y-111988094D02*
X98526247Y-112035713D01*
X98526247Y-112035713D02*
X98383390Y-112035713D01*
X98383390Y-112035713D02*
X98192914Y-111988094D01*
X98192914Y-111988094D02*
X98097676Y-111940475D01*
X98097676Y-111940475D02*
X98002438Y-111845237D01*
X98002438Y-111845237D02*
X97954819Y-111702380D01*
X97954819Y-111702380D02*
X97954819Y-111607142D01*
X97954819Y-111607142D02*
X98002438Y-111464285D01*
X98002438Y-111464285D02*
X98050057Y-111416666D01*
X97954819Y-111083332D02*
X97954819Y-110464285D01*
X97954819Y-110464285D02*
X98335771Y-110797618D01*
X98335771Y-110797618D02*
X98335771Y-110654761D01*
X98335771Y-110654761D02*
X98383390Y-110559523D01*
X98383390Y-110559523D02*
X98431009Y-110511904D01*
X98431009Y-110511904D02*
X98526247Y-110464285D01*
X98526247Y-110464285D02*
X98764342Y-110464285D01*
X98764342Y-110464285D02*
X98859580Y-110511904D01*
X98859580Y-110511904D02*
X98907200Y-110559523D01*
X98907200Y-110559523D02*
X98954819Y-110654761D01*
X98954819Y-110654761D02*
X98954819Y-110940475D01*
X98954819Y-110940475D02*
X98907200Y-111035713D01*
X98907200Y-111035713D02*
X98859580Y-111083332D01*
X131238095Y-152304819D02*
X131238095Y-151304819D01*
X131238095Y-151781009D02*
X131809523Y-151781009D01*
X131809523Y-152304819D02*
X131809523Y-151304819D01*
X132714285Y-151638152D02*
X132714285Y-152304819D01*
X132476190Y-151257200D02*
X132238095Y-151971485D01*
X132238095Y-151971485D02*
X132857142Y-151971485D01*
X112109580Y-111166666D02*
X112157200Y-111214285D01*
X112157200Y-111214285D02*
X112204819Y-111357142D01*
X112204819Y-111357142D02*
X112204819Y-111452380D01*
X112204819Y-111452380D02*
X112157200Y-111595237D01*
X112157200Y-111595237D02*
X112061961Y-111690475D01*
X112061961Y-111690475D02*
X111966723Y-111738094D01*
X111966723Y-111738094D02*
X111776247Y-111785713D01*
X111776247Y-111785713D02*
X111633390Y-111785713D01*
X111633390Y-111785713D02*
X111442914Y-111738094D01*
X111442914Y-111738094D02*
X111347676Y-111690475D01*
X111347676Y-111690475D02*
X111252438Y-111595237D01*
X111252438Y-111595237D02*
X111204819Y-111452380D01*
X111204819Y-111452380D02*
X111204819Y-111357142D01*
X111204819Y-111357142D02*
X111252438Y-111214285D01*
X111252438Y-111214285D02*
X111300057Y-111166666D01*
X111538152Y-110309523D02*
X112204819Y-110309523D01*
X111157200Y-110547618D02*
X111871485Y-110785713D01*
X111871485Y-110785713D02*
X111871485Y-110166666D01*
X120859580Y-7416666D02*
X120907200Y-7464285D01*
X120907200Y-7464285D02*
X120954819Y-7607142D01*
X120954819Y-7607142D02*
X120954819Y-7702380D01*
X120954819Y-7702380D02*
X120907200Y-7845237D01*
X120907200Y-7845237D02*
X120811961Y-7940475D01*
X120811961Y-7940475D02*
X120716723Y-7988094D01*
X120716723Y-7988094D02*
X120526247Y-8035713D01*
X120526247Y-8035713D02*
X120383390Y-8035713D01*
X120383390Y-8035713D02*
X120192914Y-7988094D01*
X120192914Y-7988094D02*
X120097676Y-7940475D01*
X120097676Y-7940475D02*
X120002438Y-7845237D01*
X120002438Y-7845237D02*
X119954819Y-7702380D01*
X119954819Y-7702380D02*
X119954819Y-7607142D01*
X119954819Y-7607142D02*
X120002438Y-7464285D01*
X120002438Y-7464285D02*
X120050057Y-7416666D01*
X120954819Y-6464285D02*
X120954819Y-7035713D01*
X120954819Y-6749999D02*
X119954819Y-6749999D01*
X119954819Y-6749999D02*
X120097676Y-6845237D01*
X120097676Y-6845237D02*
X120192914Y-6940475D01*
X120192914Y-6940475D02*
X120240533Y-7035713D01*
X112109580Y-133166666D02*
X112157200Y-133214285D01*
X112157200Y-133214285D02*
X112204819Y-133357142D01*
X112204819Y-133357142D02*
X112204819Y-133452380D01*
X112204819Y-133452380D02*
X112157200Y-133595237D01*
X112157200Y-133595237D02*
X112061961Y-133690475D01*
X112061961Y-133690475D02*
X111966723Y-133738094D01*
X111966723Y-133738094D02*
X111776247Y-133785713D01*
X111776247Y-133785713D02*
X111633390Y-133785713D01*
X111633390Y-133785713D02*
X111442914Y-133738094D01*
X111442914Y-133738094D02*
X111347676Y-133690475D01*
X111347676Y-133690475D02*
X111252438Y-133595237D01*
X111252438Y-133595237D02*
X111204819Y-133452380D01*
X111204819Y-133452380D02*
X111204819Y-133357142D01*
X111204819Y-133357142D02*
X111252438Y-133214285D01*
X111252438Y-133214285D02*
X111300057Y-133166666D01*
X111204819Y-132261904D02*
X111204819Y-132738094D01*
X111204819Y-132738094D02*
X111681009Y-132785713D01*
X111681009Y-132785713D02*
X111633390Y-132738094D01*
X111633390Y-132738094D02*
X111585771Y-132642856D01*
X111585771Y-132642856D02*
X111585771Y-132404761D01*
X111585771Y-132404761D02*
X111633390Y-132309523D01*
X111633390Y-132309523D02*
X111681009Y-132261904D01*
X111681009Y-132261904D02*
X111776247Y-132214285D01*
X111776247Y-132214285D02*
X112014342Y-132214285D01*
X112014342Y-132214285D02*
X112109580Y-132261904D01*
X112109580Y-132261904D02*
X112157200Y-132309523D01*
X112157200Y-132309523D02*
X112204819Y-132404761D01*
X112204819Y-132404761D02*
X112204819Y-132642856D01*
X112204819Y-132642856D02*
X112157200Y-132738094D01*
X112157200Y-132738094D02*
X112109580Y-132785713D01*
X98476667Y-120987200D02*
X98619524Y-121034819D01*
X98619524Y-121034819D02*
X98857619Y-121034819D01*
X98857619Y-121034819D02*
X98952857Y-120987200D01*
X98952857Y-120987200D02*
X99000476Y-120939580D01*
X99000476Y-120939580D02*
X99048095Y-120844342D01*
X99048095Y-120844342D02*
X99048095Y-120749104D01*
X99048095Y-120749104D02*
X99000476Y-120653866D01*
X99000476Y-120653866D02*
X98952857Y-120606247D01*
X98952857Y-120606247D02*
X98857619Y-120558628D01*
X98857619Y-120558628D02*
X98667143Y-120511009D01*
X98667143Y-120511009D02*
X98571905Y-120463390D01*
X98571905Y-120463390D02*
X98524286Y-120415771D01*
X98524286Y-120415771D02*
X98476667Y-120320533D01*
X98476667Y-120320533D02*
X98476667Y-120225295D01*
X98476667Y-120225295D02*
X98524286Y-120130057D01*
X98524286Y-120130057D02*
X98571905Y-120082438D01*
X98571905Y-120082438D02*
X98667143Y-120034819D01*
X98667143Y-120034819D02*
X98905238Y-120034819D01*
X98905238Y-120034819D02*
X99048095Y-120082438D01*
X99381429Y-120034819D02*
X99619524Y-121034819D01*
X99619524Y-121034819D02*
X99810000Y-120320533D01*
X99810000Y-120320533D02*
X100000476Y-121034819D01*
X100000476Y-121034819D02*
X100238572Y-120034819D01*
X101143333Y-121034819D02*
X100571905Y-121034819D01*
X100857619Y-121034819D02*
X100857619Y-120034819D01*
X100857619Y-120034819D02*
X100762381Y-120177676D01*
X100762381Y-120177676D02*
X100667143Y-120272914D01*
X100667143Y-120272914D02*
X100571905Y-120320533D01*
%TO.C,C2*%
D12*
X122960000Y-7000000D02*
X121420000Y-7000000D01*
X122960000Y-7040000D02*
X121420000Y-7040000D01*
X122960000Y-7080000D02*
X121421000Y-7080000D01*
X122960000Y-7120000D02*
X121423000Y-7120000D01*
X122960000Y-7160000D02*
X121425000Y-7160000D01*
X122960000Y-7200000D02*
X121428000Y-7200000D01*
X122960000Y-7240000D02*
X121431000Y-7240000D01*
X122960000Y-7280000D02*
X121435000Y-7280000D01*
X122960000Y-7320000D02*
X121440000Y-7320000D01*
X122960000Y-7360000D02*
X121445000Y-7360000D01*
X122960000Y-7400000D02*
X121451000Y-7400000D01*
X122960000Y-7440000D02*
X121457000Y-7440000D01*
X122960000Y-7480000D02*
X121464000Y-7480000D01*
X122960000Y-7520000D02*
X121472000Y-7520000D01*
X122960000Y-7560000D02*
X121481000Y-7560000D01*
X122960000Y-7600000D02*
X121490000Y-7600000D01*
X122960000Y-7640000D02*
X121499000Y-7640000D01*
X122960000Y-7680000D02*
X121510000Y-7680000D01*
X122960000Y-7720000D02*
X121521000Y-7720000D01*
X122960000Y-7760000D02*
X121533000Y-7760000D01*
X122960000Y-7800000D02*
X121545000Y-7800000D01*
X122960000Y-7840000D02*
X121558000Y-7840000D01*
X122960000Y-7880000D02*
X121572000Y-7880000D01*
X122960000Y-7920000D02*
X121587000Y-7920000D01*
X122960000Y-7960000D02*
X121602000Y-7960000D01*
X122960000Y-8000000D02*
X121618000Y-8000000D01*
X122960000Y-8040000D02*
X121635000Y-8040000D01*
X122960000Y-8080000D02*
X121653000Y-8080000D01*
X122960000Y-8120000D02*
X121671000Y-8120000D01*
X122960000Y-8160000D02*
X121691000Y-8160000D01*
X122960000Y-8200000D02*
X121711000Y-8200000D01*
X122960000Y-8240000D02*
X121732000Y-8240000D01*
X122960000Y-8280000D02*
X121754000Y-8280000D01*
X122960000Y-8320000D02*
X121777000Y-8320000D01*
X122960000Y-8360000D02*
X121801000Y-8360000D01*
X122960000Y-8400000D02*
X121825000Y-8400000D01*
X122960000Y-8440000D02*
X121851000Y-8440000D01*
X122960000Y-8480000D02*
X121878000Y-8480000D01*
X122960000Y-8520000D02*
X121906000Y-8520000D01*
X122960000Y-8560000D02*
X121935000Y-8560000D01*
X122960000Y-8600000D02*
X121965000Y-8600000D01*
X122960000Y-8640000D02*
X121997000Y-8640000D01*
X122960000Y-8680000D02*
X122030000Y-8680000D01*
X122960000Y-8720000D02*
X122064000Y-8720000D01*
X122960000Y-8760000D02*
X122099000Y-8760000D01*
X122960000Y-8800000D02*
X122136000Y-8800000D01*
X122960000Y-8840000D02*
X122175000Y-8840000D01*
X122960000Y-8880000D02*
X122215000Y-8880000D01*
X122960000Y-8920000D02*
X122257000Y-8920000D01*
X122960000Y-8960000D02*
X122301000Y-8960000D01*
X122960000Y-9000000D02*
X122348000Y-9000000D01*
X124283000Y-9600000D02*
X123717000Y-9600000D01*
X124517000Y-9560000D02*
X123483000Y-9560000D01*
X124677000Y-9520000D02*
X123323000Y-9520000D01*
X124805000Y-9480000D02*
X123195000Y-9480000D01*
X124914000Y-9440000D02*
X123086000Y-9440000D01*
X125011000Y-9400000D02*
X122989000Y-9400000D01*
X125098000Y-9360000D02*
X122902000Y-9360000D01*
X125177000Y-9320000D02*
X122823000Y-9320000D01*
X125251000Y-9280000D02*
X122749000Y-9280000D01*
X125319000Y-9240000D02*
X122681000Y-9240000D01*
X125383000Y-9200000D02*
X122617000Y-9200000D01*
X125443000Y-9160000D02*
X122557000Y-9160000D01*
X125475000Y-4195225D02*
X125475000Y-4695225D01*
X125499000Y-9120000D02*
X122501000Y-9120000D01*
X125553000Y-9080000D02*
X122447000Y-9080000D01*
X125604000Y-9040000D02*
X122396000Y-9040000D01*
X125652000Y-9000000D02*
X125040000Y-9000000D01*
X125699000Y-8960000D02*
X125040000Y-8960000D01*
X125725000Y-4445225D02*
X125225000Y-4445225D01*
X125743000Y-8920000D02*
X125040000Y-8920000D01*
X125785000Y-8880000D02*
X125040000Y-8880000D01*
X125825000Y-8840000D02*
X125040000Y-8840000D01*
X125864000Y-8800000D02*
X125040000Y-8800000D01*
X125901000Y-8760000D02*
X125040000Y-8760000D01*
X125936000Y-8720000D02*
X125040000Y-8720000D01*
X125970000Y-8680000D02*
X125040000Y-8680000D01*
X126003000Y-8640000D02*
X125040000Y-8640000D01*
X126035000Y-8600000D02*
X125040000Y-8600000D01*
X126065000Y-8560000D02*
X125040000Y-8560000D01*
X126094000Y-8520000D02*
X125040000Y-8520000D01*
X126122000Y-8480000D02*
X125040000Y-8480000D01*
X126149000Y-8440000D02*
X125040000Y-8440000D01*
X126175000Y-8400000D02*
X125040000Y-8400000D01*
X126199000Y-8360000D02*
X125040000Y-8360000D01*
X126223000Y-8320000D02*
X125040000Y-8320000D01*
X126246000Y-8280000D02*
X125040000Y-8280000D01*
X126268000Y-8240000D02*
X125040000Y-8240000D01*
X126289000Y-8200000D02*
X125040000Y-8200000D01*
X126309000Y-8160000D02*
X125040000Y-8160000D01*
X126329000Y-8120000D02*
X125040000Y-8120000D01*
X126347000Y-8080000D02*
X125040000Y-8080000D01*
X126365000Y-8040000D02*
X125040000Y-8040000D01*
X126382000Y-8000000D02*
X125040000Y-8000000D01*
X126398000Y-7960000D02*
X125040000Y-7960000D01*
X126413000Y-7920000D02*
X125040000Y-7920000D01*
X126428000Y-7880000D02*
X125040000Y-7880000D01*
X126442000Y-7840000D02*
X125040000Y-7840000D01*
X126455000Y-7800000D02*
X125040000Y-7800000D01*
X126467000Y-7760000D02*
X125040000Y-7760000D01*
X126479000Y-7720000D02*
X125040000Y-7720000D01*
X126490000Y-7680000D02*
X125040000Y-7680000D01*
X126501000Y-7640000D02*
X125040000Y-7640000D01*
X126510000Y-7600000D02*
X125040000Y-7600000D01*
X126519000Y-7560000D02*
X125040000Y-7560000D01*
X126528000Y-7520000D02*
X125040000Y-7520000D01*
X126536000Y-7480000D02*
X125040000Y-7480000D01*
X126543000Y-7440000D02*
X125040000Y-7440000D01*
X126549000Y-7400000D02*
X125040000Y-7400000D01*
X126555000Y-7360000D02*
X125040000Y-7360000D01*
X126560000Y-7320000D02*
X125040000Y-7320000D01*
X126565000Y-7280000D02*
X125040000Y-7280000D01*
X126569000Y-7240000D02*
X125040000Y-7240000D01*
X126572000Y-7200000D02*
X125040000Y-7200000D01*
X126575000Y-7160000D02*
X125040000Y-7160000D01*
X126577000Y-7120000D02*
X125040000Y-7120000D01*
X126579000Y-7080000D02*
X125040000Y-7080000D01*
X126580000Y-7000000D02*
X125040000Y-7000000D01*
X126580000Y-7040000D02*
X125040000Y-7040000D01*
X126620000Y-7000000D02*
G75*
G02*
X121380000Y-7000000I-2620000J0D01*
G01*
X121380000Y-7000000D02*
G75*
G02*
X126620000Y-7000000I2620000J0D01*
G01*
%TO.C,D1*%
X72480000Y-51244000D02*
X72480000Y-51400000D01*
X72480000Y-53560000D02*
X72480000Y-53716000D01*
X72480000Y-51244484D02*
G75*
G02*
X75711437Y-51400000I1560000J-1235516D01*
G01*
X72999039Y-51400000D02*
G75*
G02*
X75080961Y-51400000I1040961J-1080000D01*
G01*
X75080961Y-53560000D02*
G75*
G02*
X72999039Y-53560000I-1040961J1080000D01*
G01*
X75711437Y-53560000D02*
G75*
G02*
X72480000Y-53715516I-1671437J1080000D01*
G01*
%TO.C,R2*%
X23240000Y-23370000D02*
X23240000Y-25980000D01*
X24610000Y-22000000D02*
G75*
G02*
X21870000Y-22000000I-1370000J0D01*
G01*
X21870000Y-22000000D02*
G75*
G02*
X24610000Y-22000000I1370000J0D01*
G01*
%TO.C,RV1*%
X112880000Y-97620000D02*
X117600000Y-97620000D01*
X112880000Y-98810000D02*
X112880000Y-97630000D01*
X112880000Y-101710000D02*
X112880000Y-101180000D01*
X112880000Y-104160000D02*
X112880000Y-103330000D01*
X112880000Y-107370000D02*
X112880000Y-105880000D01*
X112880000Y-107370000D02*
X117600000Y-107370000D01*
X121410000Y-97630000D02*
X124470000Y-97630000D01*
X121410000Y-107370000D02*
X124470000Y-107370000D01*
X124470000Y-107370000D02*
X124470000Y-97630000D01*
%TO.C,Q11*%
X34140000Y-54330000D02*
X37740000Y-54330000D01*
X33583600Y-51381193D02*
G75*
G02*
X35940000Y-49880000I2356400J-1098807D01*
G01*
X34140000Y-54330000D02*
G75*
G02*
X33615816Y-53602795I1800000J1850000D01*
G01*
X35940000Y-49880000D02*
G75*
G02*
X38296400Y-51381193I0J-2600000D01*
G01*
X38264184Y-53602795D02*
G75*
G02*
X37740000Y-54330000I-2324184J1122795D01*
G01*
%TO.C,D3*%
X109040000Y-124000000D02*
X109690000Y-124000000D01*
X110290000Y-122880000D02*
X110290000Y-125120000D01*
X110410000Y-122880000D02*
X110410000Y-125120000D01*
X110530000Y-122880000D02*
X110530000Y-125120000D01*
X114580000Y-124000000D02*
X113930000Y-124000000D01*
X109690000Y-122880000D02*
X113930000Y-122880000D01*
X113930000Y-125120000D01*
X109690000Y-125120000D01*
X109690000Y-122880000D01*
%TO.C,Q14*%
X46840000Y-64490000D02*
X50440000Y-64490000D01*
X46283600Y-61541193D02*
G75*
G02*
X48640000Y-60040000I2356400J-1098807D01*
G01*
X46840000Y-64490000D02*
G75*
G02*
X46315816Y-63762795I1800000J1850000D01*
G01*
X48640000Y-60040000D02*
G75*
G02*
X50996400Y-61541193I0J-2600000D01*
G01*
X50964184Y-63762795D02*
G75*
G02*
X50440000Y-64490000I-2324184J1122795D01*
G01*
%TO.C,Q1*%
X8740000Y-34010000D02*
X12340000Y-34010000D01*
X8183600Y-31061193D02*
G75*
G02*
X10540000Y-29560000I2356400J-1098807D01*
G01*
X8740000Y-34010000D02*
G75*
G02*
X8215816Y-33282795I1800000J1850000D01*
G01*
X10540000Y-29560000D02*
G75*
G02*
X12896400Y-31061193I0J-2600000D01*
G01*
X12864184Y-33282795D02*
G75*
G02*
X12340000Y-34010000I-2324184J1122795D01*
G01*
%TO.C,Q7*%
X72240000Y-34010000D02*
X75840000Y-34010000D01*
X71683600Y-31061193D02*
G75*
G02*
X74040000Y-29560000I2356400J-1098807D01*
G01*
X72240000Y-34010000D02*
G75*
G02*
X71715816Y-33282795I1800000J1850000D01*
G01*
X74040000Y-29560000D02*
G75*
G02*
X76396400Y-31061193I0J-2600000D01*
G01*
X76364184Y-33282795D02*
G75*
G02*
X75840000Y-34010000I-2324184J1122795D01*
G01*
%TO.C,R4*%
X48640000Y-23370000D02*
X48640000Y-25980000D01*
X50010000Y-22000000D02*
G75*
G02*
X47270000Y-22000000I-1370000J0D01*
G01*
X47270000Y-22000000D02*
G75*
G02*
X50010000Y-22000000I1370000J0D01*
G01*
%TO.C,R7*%
X10540000Y-43690000D02*
X10540000Y-46300000D01*
X11910000Y-42320000D02*
G75*
G02*
X9170000Y-42320000I-1370000J0D01*
G01*
X9170000Y-42320000D02*
G75*
G02*
X11910000Y-42320000I1370000J0D01*
G01*
%TO.C,R6*%
X74040000Y-23370000D02*
X74040000Y-25980000D01*
X75410000Y-22000000D02*
G75*
G02*
X72670000Y-22000000I-1370000J0D01*
G01*
X72670000Y-22000000D02*
G75*
G02*
X75410000Y-22000000I1370000J0D01*
G01*
%TO.C,Q16*%
X102740000Y-81850000D02*
X106340000Y-81850000D01*
X102183600Y-78901193D02*
G75*
G02*
X104540000Y-77400000I2356400J-1098807D01*
G01*
X102740000Y-81850000D02*
G75*
G02*
X102215816Y-81122795I1800000J1850000D01*
G01*
X104540000Y-77400000D02*
G75*
G02*
X106896400Y-78901193I0J-2600000D01*
G01*
X106864184Y-81122795D02*
G75*
G02*
X106340000Y-81850000I-2324184J1122795D01*
G01*
%TO.C,R18*%
X102000000Y-133370000D02*
X102000000Y-135980000D01*
X103370000Y-132000000D02*
G75*
G02*
X100630000Y-132000000I-1370000J0D01*
G01*
X100630000Y-132000000D02*
G75*
G02*
X103370000Y-132000000I1370000J0D01*
G01*
%TO.C,Q5*%
X46840000Y-39090000D02*
X50440000Y-39090000D01*
X46283600Y-36141193D02*
G75*
G02*
X48640000Y-34640000I2356400J-1098807D01*
G01*
X46840000Y-39090000D02*
G75*
G02*
X46315816Y-38362795I1800000J1850000D01*
G01*
X48640000Y-34640000D02*
G75*
G02*
X50996400Y-36141193I0J-2600000D01*
G01*
X50964184Y-38362795D02*
G75*
G02*
X50440000Y-39090000I-2324184J1122795D01*
G01*
%TO.C,Q3*%
X34140000Y-34010000D02*
X37740000Y-34010000D01*
X33583600Y-31061193D02*
G75*
G02*
X35940000Y-29560000I2356400J-1098807D01*
G01*
X34140000Y-34010000D02*
G75*
G02*
X33615816Y-33282795I1800000J1850000D01*
G01*
X35940000Y-29560000D02*
G75*
G02*
X38296400Y-31061193I0J-2600000D01*
G01*
X38264184Y-33282795D02*
G75*
G02*
X37740000Y-34010000I-2324184J1122795D01*
G01*
%TO.C,Q12*%
X59540000Y-54330000D02*
X63140000Y-54330000D01*
X58983600Y-51381193D02*
G75*
G02*
X61340000Y-49880000I2356400J-1098807D01*
G01*
X59540000Y-54330000D02*
G75*
G02*
X59015816Y-53602795I1800000J1850000D01*
G01*
X61340000Y-49880000D02*
G75*
G02*
X63696400Y-51381193I0J-2600000D01*
G01*
X63664184Y-53602795D02*
G75*
G02*
X63140000Y-54330000I-2324184J1122795D01*
G01*
%TO.C,Q13*%
X72240000Y-59410000D02*
X75840000Y-59410000D01*
X71683600Y-56461193D02*
G75*
G02*
X74040000Y-54960000I2356400J-1098807D01*
G01*
X72240000Y-59410000D02*
G75*
G02*
X71715816Y-58682795I1800000J1850000D01*
G01*
X74040000Y-54960000D02*
G75*
G02*
X76396400Y-56461193I0J-2600000D01*
G01*
X76364184Y-58682795D02*
G75*
G02*
X75840000Y-59410000I-2324184J1122795D01*
G01*
%TO.C,R8*%
X35940000Y-43690000D02*
X35940000Y-46300000D01*
X37310000Y-42320000D02*
G75*
G02*
X34570000Y-42320000I-1370000J0D01*
G01*
X34570000Y-42320000D02*
G75*
G02*
X37310000Y-42320000I1370000J0D01*
G01*
%TO.C,Q10*%
X21440000Y-46710000D02*
X25040000Y-46710000D01*
X20883600Y-43761193D02*
G75*
G02*
X23240000Y-42260000I2356400J-1098807D01*
G01*
X21440000Y-46710000D02*
G75*
G02*
X20915816Y-45982795I1800000J1850000D01*
G01*
X23240000Y-42260000D02*
G75*
G02*
X25596400Y-43761193I0J-2600000D01*
G01*
X25564184Y-45982795D02*
G75*
G02*
X25040000Y-46710000I-2324184J1122795D01*
G01*
%TO.C,R12*%
X96000000Y-69370000D02*
X96000000Y-71980000D01*
X97370000Y-68000000D02*
G75*
G02*
X94630000Y-68000000I-1370000J0D01*
G01*
X94630000Y-68000000D02*
G75*
G02*
X97370000Y-68000000I1370000J0D01*
G01*
%TO.C,Q8*%
X8740000Y-54330000D02*
X12340000Y-54330000D01*
X8183600Y-51381193D02*
G75*
G02*
X10540000Y-49880000I2356400J-1098807D01*
G01*
X8740000Y-54330000D02*
G75*
G02*
X8215816Y-53602795I1800000J1850000D01*
G01*
X10540000Y-49880000D02*
G75*
G02*
X12896400Y-51381193I0J-2600000D01*
G01*
X12864184Y-53602795D02*
G75*
G02*
X12340000Y-54330000I-2324184J1122795D01*
G01*
%TO.C,Q2*%
X21440000Y-34010000D02*
X25040000Y-34010000D01*
X20883600Y-31061193D02*
G75*
G02*
X23240000Y-29560000I2356400J-1098807D01*
G01*
X21440000Y-34010000D02*
G75*
G02*
X20915816Y-33282795I1800000J1850000D01*
G01*
X23240000Y-29560000D02*
G75*
G02*
X25596400Y-31061193I0J-2600000D01*
G01*
X25564184Y-33282795D02*
G75*
G02*
X25040000Y-34010000I-2324184J1122795D01*
G01*
%TO.C,R13*%
X108000000Y-69370000D02*
X108000000Y-71980000D01*
X109370000Y-68000000D02*
G75*
G02*
X106630000Y-68000000I-1370000J0D01*
G01*
X106630000Y-68000000D02*
G75*
G02*
X109370000Y-68000000I1370000J0D01*
G01*
%TO.C,J2*%
X100620000Y-108620000D02*
X102000000Y-108620000D01*
X100620000Y-110000000D02*
X100620000Y-108620000D01*
X100620000Y-111270000D02*
X100620000Y-113920000D01*
X100620000Y-111270000D02*
X103380000Y-111270000D01*
X100620000Y-113920000D02*
X103380000Y-113920000D01*
X103380000Y-111270000D02*
X103380000Y-113920000D01*
%TO.C,R15*%
X90000000Y-111370000D02*
X90000000Y-113980000D01*
X91370000Y-110000000D02*
G75*
G02*
X88630000Y-110000000I-1370000J0D01*
G01*
X88630000Y-110000000D02*
G75*
G02*
X91370000Y-110000000I1370000J0D01*
G01*
%TO.C,R1*%
X10540000Y-23370000D02*
X10540000Y-25980000D01*
X11910000Y-22000000D02*
G75*
G02*
X9170000Y-22000000I-1370000J0D01*
G01*
X9170000Y-22000000D02*
G75*
G02*
X11910000Y-22000000I1370000J0D01*
G01*
%TO.C,R5*%
X61340000Y-23370000D02*
X61340000Y-25980000D01*
X62710000Y-22000000D02*
G75*
G02*
X59970000Y-22000000I-1370000J0D01*
G01*
X59970000Y-22000000D02*
G75*
G02*
X62710000Y-22000000I1370000J0D01*
G01*
%TO.C,R10*%
X74040000Y-43690000D02*
X74040000Y-46300000D01*
X75410000Y-42320000D02*
G75*
G02*
X72670000Y-42320000I-1370000J0D01*
G01*
X72670000Y-42320000D02*
G75*
G02*
X75410000Y-42320000I1370000J0D01*
G01*
%TO.C,D4*%
X103040000Y-116000000D02*
X103690000Y-116000000D01*
X104290000Y-114880000D02*
X104290000Y-117120000D01*
X104410000Y-114880000D02*
X104410000Y-117120000D01*
X104530000Y-114880000D02*
X104530000Y-117120000D01*
X108580000Y-116000000D02*
X107930000Y-116000000D01*
X103690000Y-114880000D02*
X107930000Y-114880000D01*
X107930000Y-117120000D01*
X103690000Y-117120000D01*
X103690000Y-114880000D01*
%TO.C,R16*%
X90000000Y-133370000D02*
X90000000Y-135980000D01*
X91370000Y-132000000D02*
G75*
G02*
X88630000Y-132000000I-1370000J0D01*
G01*
X88630000Y-132000000D02*
G75*
G02*
X91370000Y-132000000I1370000J0D01*
G01*
%TO.C,R19*%
X120000000Y-133370000D02*
X120000000Y-135980000D01*
X121370000Y-132000000D02*
G75*
G02*
X118630000Y-132000000I-1370000J0D01*
G01*
X118630000Y-132000000D02*
G75*
G02*
X121370000Y-132000000I1370000J0D01*
G01*
%TO.C,J1*%
X20790000Y-2170000D02*
X109950000Y-2170000D01*
X20790000Y-11290000D02*
X20790000Y-2170000D01*
X22090000Y-3480000D02*
X108650000Y-3480000D01*
X22090000Y-9980000D02*
X22090000Y-3480000D01*
X25500000Y-12680000D02*
X26500000Y-12680000D01*
X26000000Y-11680000D02*
X25500000Y-12680000D01*
X26500000Y-12680000D02*
X26000000Y-11680000D01*
X63320000Y-9980000D02*
X22090000Y-9980000D01*
X63320000Y-11290000D02*
X63320000Y-9980000D01*
X67420000Y-9980000D02*
X67420000Y-11290000D01*
X108650000Y-3480000D02*
X108650000Y-9980000D01*
X108650000Y-9980000D02*
X67420000Y-9980000D01*
X109950000Y-2170000D02*
X109950000Y-11290000D01*
X109950000Y-11290000D02*
X20790000Y-11290000D01*
%TO.C,Q4*%
X46840000Y-34010000D02*
X50440000Y-34010000D01*
X46283600Y-31061193D02*
G75*
G02*
X48640000Y-29560000I2356400J-1098807D01*
G01*
X46840000Y-34010000D02*
G75*
G02*
X46315816Y-33282795I1800000J1850000D01*
G01*
X48640000Y-29560000D02*
G75*
G02*
X50996400Y-31061193I0J-2600000D01*
G01*
X50964184Y-33282795D02*
G75*
G02*
X50440000Y-34010000I-2324184J1122795D01*
G01*
%TO.C,R14*%
X90000000Y-99370000D02*
X90000000Y-101980000D01*
X91370000Y-98000000D02*
G75*
G02*
X88630000Y-98000000I-1370000J0D01*
G01*
X88630000Y-98000000D02*
G75*
G02*
X91370000Y-98000000I1370000J0D01*
G01*
%TO.C,D2*%
X47080000Y-56324000D02*
X47080000Y-56480000D01*
X47080000Y-58640000D02*
X47080000Y-58796000D01*
X47080000Y-56324484D02*
G75*
G02*
X50311437Y-56480000I1560000J-1235516D01*
G01*
X47599039Y-56480000D02*
G75*
G02*
X49680961Y-56480000I1040961J-1080000D01*
G01*
X49680961Y-58640000D02*
G75*
G02*
X47599039Y-58640000I-1040961J1080000D01*
G01*
X50311437Y-58640000D02*
G75*
G02*
X47080000Y-58795516I-1671437J1080000D01*
G01*
%TO.C,R9*%
X61340000Y-43690000D02*
X61340000Y-46300000D01*
X62710000Y-42320000D02*
G75*
G02*
X59970000Y-42320000I-1370000J0D01*
G01*
X59970000Y-42320000D02*
G75*
G02*
X62710000Y-42320000I1370000J0D01*
G01*
%TO.C,C3*%
X94630000Y-108630000D02*
X97370000Y-108630000D01*
X94630000Y-113870000D02*
X94630000Y-108630000D01*
X97370000Y-108630000D02*
X97370000Y-113870000D01*
X97370000Y-113870000D02*
X94630000Y-113870000D01*
%TO.C,Q15*%
X90740000Y-81850000D02*
X94340000Y-81850000D01*
X90183600Y-78901193D02*
G75*
G02*
X92540000Y-77400000I2356400J-1098807D01*
G01*
X90740000Y-81850000D02*
G75*
G02*
X90215816Y-81122795I1800000J1850000D01*
G01*
X92540000Y-77400000D02*
G75*
G02*
X94896400Y-78901193I0J-2600000D01*
G01*
X94864184Y-81122795D02*
G75*
G02*
X94340000Y-81850000I-2324184J1122795D01*
G01*
%TO.C,Q6*%
X59540000Y-34010000D02*
X63140000Y-34010000D01*
X58983600Y-31061193D02*
G75*
G02*
X61340000Y-29560000I2356400J-1098807D01*
G01*
X59540000Y-34010000D02*
G75*
G02*
X59015816Y-33282795I1800000J1850000D01*
G01*
X61340000Y-29560000D02*
G75*
G02*
X63696400Y-31061193I0J-2600000D01*
G01*
X63664184Y-33282795D02*
G75*
G02*
X63140000Y-34010000I-2324184J1122795D01*
G01*
%TO.C,R21*%
X114000000Y-133370000D02*
X114000000Y-135980000D01*
X115370000Y-132000000D02*
G75*
G02*
X112630000Y-132000000I-1370000J0D01*
G01*
X112630000Y-132000000D02*
G75*
G02*
X115370000Y-132000000I1370000J0D01*
G01*
%TO.C,R11*%
X48640000Y-48770000D02*
X48640000Y-51380000D01*
X50010000Y-47400000D02*
G75*
G02*
X47270000Y-47400000I-1370000J0D01*
G01*
X47270000Y-47400000D02*
G75*
G02*
X50010000Y-47400000I1370000J0D01*
G01*
%TO.C,R20*%
X126000000Y-133370000D02*
X126000000Y-135980000D01*
X127370000Y-132000000D02*
G75*
G02*
X124630000Y-132000000I-1370000J0D01*
G01*
X124630000Y-132000000D02*
G75*
G02*
X127370000Y-132000000I1370000J0D01*
G01*
%TO.C,C4*%
X106960000Y-111000000D02*
X105420000Y-111000000D01*
X106960000Y-111040000D02*
X105420000Y-111040000D01*
X106960000Y-111080000D02*
X105421000Y-111080000D01*
X106960000Y-111120000D02*
X105423000Y-111120000D01*
X106960000Y-111160000D02*
X105425000Y-111160000D01*
X106960000Y-111200000D02*
X105428000Y-111200000D01*
X106960000Y-111240000D02*
X105431000Y-111240000D01*
X106960000Y-111280000D02*
X105435000Y-111280000D01*
X106960000Y-111320000D02*
X105440000Y-111320000D01*
X106960000Y-111360000D02*
X105445000Y-111360000D01*
X106960000Y-111400000D02*
X105451000Y-111400000D01*
X106960000Y-111440000D02*
X105457000Y-111440000D01*
X106960000Y-111480000D02*
X105464000Y-111480000D01*
X106960000Y-111520000D02*
X105472000Y-111520000D01*
X106960000Y-111560000D02*
X105481000Y-111560000D01*
X106960000Y-111600000D02*
X105490000Y-111600000D01*
X106960000Y-111640000D02*
X105499000Y-111640000D01*
X106960000Y-111680000D02*
X105510000Y-111680000D01*
X106960000Y-111720000D02*
X105521000Y-111720000D01*
X106960000Y-111760000D02*
X105533000Y-111760000D01*
X106960000Y-111800000D02*
X105545000Y-111800000D01*
X106960000Y-111840000D02*
X105558000Y-111840000D01*
X106960000Y-111880000D02*
X105572000Y-111880000D01*
X106960000Y-111920000D02*
X105587000Y-111920000D01*
X106960000Y-111960000D02*
X105602000Y-111960000D01*
X106960000Y-112000000D02*
X105618000Y-112000000D01*
X106960000Y-112040000D02*
X105635000Y-112040000D01*
X106960000Y-112080000D02*
X105653000Y-112080000D01*
X106960000Y-112120000D02*
X105671000Y-112120000D01*
X106960000Y-112160000D02*
X105691000Y-112160000D01*
X106960000Y-112200000D02*
X105711000Y-112200000D01*
X106960000Y-112240000D02*
X105732000Y-112240000D01*
X106960000Y-112280000D02*
X105754000Y-112280000D01*
X106960000Y-112320000D02*
X105777000Y-112320000D01*
X106960000Y-112360000D02*
X105801000Y-112360000D01*
X106960000Y-112400000D02*
X105825000Y-112400000D01*
X106960000Y-112440000D02*
X105851000Y-112440000D01*
X106960000Y-112480000D02*
X105878000Y-112480000D01*
X106960000Y-112520000D02*
X105906000Y-112520000D01*
X106960000Y-112560000D02*
X105935000Y-112560000D01*
X106960000Y-112600000D02*
X105965000Y-112600000D01*
X106960000Y-112640000D02*
X105997000Y-112640000D01*
X106960000Y-112680000D02*
X106030000Y-112680000D01*
X106960000Y-112720000D02*
X106064000Y-112720000D01*
X106960000Y-112760000D02*
X106099000Y-112760000D01*
X106960000Y-112800000D02*
X106136000Y-112800000D01*
X106960000Y-112840000D02*
X106175000Y-112840000D01*
X106960000Y-112880000D02*
X106215000Y-112880000D01*
X106960000Y-112920000D02*
X106257000Y-112920000D01*
X106960000Y-112960000D02*
X106301000Y-112960000D01*
X106960000Y-113000000D02*
X106348000Y-113000000D01*
X108283000Y-113600000D02*
X107717000Y-113600000D01*
X108517000Y-113560000D02*
X107483000Y-113560000D01*
X108677000Y-113520000D02*
X107323000Y-113520000D01*
X108805000Y-113480000D02*
X107195000Y-113480000D01*
X108914000Y-113440000D02*
X107086000Y-113440000D01*
X109011000Y-113400000D02*
X106989000Y-113400000D01*
X109098000Y-113360000D02*
X106902000Y-113360000D01*
X109177000Y-113320000D02*
X106823000Y-113320000D01*
X109251000Y-113280000D02*
X106749000Y-113280000D01*
X109319000Y-113240000D02*
X106681000Y-113240000D01*
X109383000Y-113200000D02*
X106617000Y-113200000D01*
X109443000Y-113160000D02*
X106557000Y-113160000D01*
X109475000Y-108195225D02*
X109475000Y-108695225D01*
X109499000Y-113120000D02*
X106501000Y-113120000D01*
X109553000Y-113080000D02*
X106447000Y-113080000D01*
X109604000Y-113040000D02*
X106396000Y-113040000D01*
X109652000Y-113000000D02*
X109040000Y-113000000D01*
X109699000Y-112960000D02*
X109040000Y-112960000D01*
X109725000Y-108445225D02*
X109225000Y-108445225D01*
X109743000Y-112920000D02*
X109040000Y-112920000D01*
X109785000Y-112880000D02*
X109040000Y-112880000D01*
X109825000Y-112840000D02*
X109040000Y-112840000D01*
X109864000Y-112800000D02*
X109040000Y-112800000D01*
X109901000Y-112760000D02*
X109040000Y-112760000D01*
X109936000Y-112720000D02*
X109040000Y-112720000D01*
X109970000Y-112680000D02*
X109040000Y-112680000D01*
X110003000Y-112640000D02*
X109040000Y-112640000D01*
X110035000Y-112600000D02*
X109040000Y-112600000D01*
X110065000Y-112560000D02*
X109040000Y-112560000D01*
X110094000Y-112520000D02*
X109040000Y-112520000D01*
X110122000Y-112480000D02*
X109040000Y-112480000D01*
X110149000Y-112440000D02*
X109040000Y-112440000D01*
X110175000Y-112400000D02*
X109040000Y-112400000D01*
X110199000Y-112360000D02*
X109040000Y-112360000D01*
X110223000Y-112320000D02*
X109040000Y-112320000D01*
X110246000Y-112280000D02*
X109040000Y-112280000D01*
X110268000Y-112240000D02*
X109040000Y-112240000D01*
X110289000Y-112200000D02*
X109040000Y-112200000D01*
X110309000Y-112160000D02*
X109040000Y-112160000D01*
X110329000Y-112120000D02*
X109040000Y-112120000D01*
X110347000Y-112080000D02*
X109040000Y-112080000D01*
X110365000Y-112040000D02*
X109040000Y-112040000D01*
X110382000Y-112000000D02*
X109040000Y-112000000D01*
X110398000Y-111960000D02*
X109040000Y-111960000D01*
X110413000Y-111920000D02*
X109040000Y-111920000D01*
X110428000Y-111880000D02*
X109040000Y-111880000D01*
X110442000Y-111840000D02*
X109040000Y-111840000D01*
X110455000Y-111800000D02*
X109040000Y-111800000D01*
X110467000Y-111760000D02*
X109040000Y-111760000D01*
X110479000Y-111720000D02*
X109040000Y-111720000D01*
X110490000Y-111680000D02*
X109040000Y-111680000D01*
X110501000Y-111640000D02*
X109040000Y-111640000D01*
X110510000Y-111600000D02*
X109040000Y-111600000D01*
X110519000Y-111560000D02*
X109040000Y-111560000D01*
X110528000Y-111520000D02*
X109040000Y-111520000D01*
X110536000Y-111480000D02*
X109040000Y-111480000D01*
X110543000Y-111440000D02*
X109040000Y-111440000D01*
X110549000Y-111400000D02*
X109040000Y-111400000D01*
X110555000Y-111360000D02*
X109040000Y-111360000D01*
X110560000Y-111320000D02*
X109040000Y-111320000D01*
X110565000Y-111280000D02*
X109040000Y-111280000D01*
X110569000Y-111240000D02*
X109040000Y-111240000D01*
X110572000Y-111200000D02*
X109040000Y-111200000D01*
X110575000Y-111160000D02*
X109040000Y-111160000D01*
X110577000Y-111120000D02*
X109040000Y-111120000D01*
X110579000Y-111080000D02*
X109040000Y-111080000D01*
X110580000Y-111000000D02*
X109040000Y-111000000D01*
X110580000Y-111040000D02*
X109040000Y-111040000D01*
X110620000Y-111000000D02*
G75*
G02*
X105380000Y-111000000I-2620000J0D01*
G01*
X105380000Y-111000000D02*
G75*
G02*
X110620000Y-111000000I2620000J0D01*
G01*
%TO.C,R3*%
X35940000Y-23370000D02*
X35940000Y-25980000D01*
X37310000Y-22000000D02*
G75*
G02*
X34570000Y-22000000I-1370000J0D01*
G01*
X34570000Y-22000000D02*
G75*
G02*
X37310000Y-22000000I1370000J0D01*
G01*
%TO.C,C1*%
X116630000Y-4630000D02*
X119370000Y-4630000D01*
X116630000Y-9870000D02*
X116630000Y-4630000D01*
X119370000Y-4630000D02*
X119370000Y-9870000D01*
X119370000Y-9870000D02*
X116630000Y-9870000D01*
%TO.C,Q9*%
X8740000Y-59410000D02*
X12340000Y-59410000D01*
X8183600Y-56461193D02*
G75*
G02*
X10540000Y-54960000I2356400J-1098807D01*
G01*
X8740000Y-59410000D02*
G75*
G02*
X8215816Y-58682795I1800000J1850000D01*
G01*
X10540000Y-54960000D02*
G75*
G02*
X12896400Y-56461193I0J-2600000D01*
G01*
X12864184Y-58682795D02*
G75*
G02*
X12340000Y-59410000I-2324184J1122795D01*
G01*
%TO.C,R17*%
X96000000Y-133370000D02*
X96000000Y-135980000D01*
X97370000Y-132000000D02*
G75*
G02*
X94630000Y-132000000I-1370000J0D01*
G01*
X94630000Y-132000000D02*
G75*
G02*
X97370000Y-132000000I1370000J0D01*
G01*
%TO.C,C5*%
X106960000Y-133000000D02*
X105420000Y-133000000D01*
X106960000Y-133040000D02*
X105420000Y-133040000D01*
X106960000Y-133080000D02*
X105421000Y-133080000D01*
X106960000Y-133120000D02*
X105423000Y-133120000D01*
X106960000Y-133160000D02*
X105425000Y-133160000D01*
X106960000Y-133200000D02*
X105428000Y-133200000D01*
X106960000Y-133240000D02*
X105431000Y-133240000D01*
X106960000Y-133280000D02*
X105435000Y-133280000D01*
X106960000Y-133320000D02*
X105440000Y-133320000D01*
X106960000Y-133360000D02*
X105445000Y-133360000D01*
X106960000Y-133400000D02*
X105451000Y-133400000D01*
X106960000Y-133440000D02*
X105457000Y-133440000D01*
X106960000Y-133480000D02*
X105464000Y-133480000D01*
X106960000Y-133520000D02*
X105472000Y-133520000D01*
X106960000Y-133560000D02*
X105481000Y-133560000D01*
X106960000Y-133600000D02*
X105490000Y-133600000D01*
X106960000Y-133640000D02*
X105499000Y-133640000D01*
X106960000Y-133680000D02*
X105510000Y-133680000D01*
X106960000Y-133720000D02*
X105521000Y-133720000D01*
X106960000Y-133760000D02*
X105533000Y-133760000D01*
X106960000Y-133800000D02*
X105545000Y-133800000D01*
X106960000Y-133840000D02*
X105558000Y-133840000D01*
X106960000Y-133880000D02*
X105572000Y-133880000D01*
X106960000Y-133920000D02*
X105587000Y-133920000D01*
X106960000Y-133960000D02*
X105602000Y-133960000D01*
X106960000Y-134000000D02*
X105618000Y-134000000D01*
X106960000Y-134040000D02*
X105635000Y-134040000D01*
X106960000Y-134080000D02*
X105653000Y-134080000D01*
X106960000Y-134120000D02*
X105671000Y-134120000D01*
X106960000Y-134160000D02*
X105691000Y-134160000D01*
X106960000Y-134200000D02*
X105711000Y-134200000D01*
X106960000Y-134240000D02*
X105732000Y-134240000D01*
X106960000Y-134280000D02*
X105754000Y-134280000D01*
X106960000Y-134320000D02*
X105777000Y-134320000D01*
X106960000Y-134360000D02*
X105801000Y-134360000D01*
X106960000Y-134400000D02*
X105825000Y-134400000D01*
X106960000Y-134440000D02*
X105851000Y-134440000D01*
X106960000Y-134480000D02*
X105878000Y-134480000D01*
X106960000Y-134520000D02*
X105906000Y-134520000D01*
X106960000Y-134560000D02*
X105935000Y-134560000D01*
X106960000Y-134600000D02*
X105965000Y-134600000D01*
X106960000Y-134640000D02*
X105997000Y-134640000D01*
X106960000Y-134680000D02*
X106030000Y-134680000D01*
X106960000Y-134720000D02*
X106064000Y-134720000D01*
X106960000Y-134760000D02*
X106099000Y-134760000D01*
X106960000Y-134800000D02*
X106136000Y-134800000D01*
X106960000Y-134840000D02*
X106175000Y-134840000D01*
X106960000Y-134880000D02*
X106215000Y-134880000D01*
X106960000Y-134920000D02*
X106257000Y-134920000D01*
X106960000Y-134960000D02*
X106301000Y-134960000D01*
X106960000Y-135000000D02*
X106348000Y-135000000D01*
X108283000Y-135600000D02*
X107717000Y-135600000D01*
X108517000Y-135560000D02*
X107483000Y-135560000D01*
X108677000Y-135520000D02*
X107323000Y-135520000D01*
X108805000Y-135480000D02*
X107195000Y-135480000D01*
X108914000Y-135440000D02*
X107086000Y-135440000D01*
X109011000Y-135400000D02*
X106989000Y-135400000D01*
X109098000Y-135360000D02*
X106902000Y-135360000D01*
X109177000Y-135320000D02*
X106823000Y-135320000D01*
X109251000Y-135280000D02*
X106749000Y-135280000D01*
X109319000Y-135240000D02*
X106681000Y-135240000D01*
X109383000Y-135200000D02*
X106617000Y-135200000D01*
X109443000Y-135160000D02*
X106557000Y-135160000D01*
X109475000Y-130195225D02*
X109475000Y-130695225D01*
X109499000Y-135120000D02*
X106501000Y-135120000D01*
X109553000Y-135080000D02*
X106447000Y-135080000D01*
X109604000Y-135040000D02*
X106396000Y-135040000D01*
X109652000Y-135000000D02*
X109040000Y-135000000D01*
X109699000Y-134960000D02*
X109040000Y-134960000D01*
X109725000Y-130445225D02*
X109225000Y-130445225D01*
X109743000Y-134920000D02*
X109040000Y-134920000D01*
X109785000Y-134880000D02*
X109040000Y-134880000D01*
X109825000Y-134840000D02*
X109040000Y-134840000D01*
X109864000Y-134800000D02*
X109040000Y-134800000D01*
X109901000Y-134760000D02*
X109040000Y-134760000D01*
X109936000Y-134720000D02*
X109040000Y-134720000D01*
X109970000Y-134680000D02*
X109040000Y-134680000D01*
X110003000Y-134640000D02*
X109040000Y-134640000D01*
X110035000Y-134600000D02*
X109040000Y-134600000D01*
X110065000Y-134560000D02*
X109040000Y-134560000D01*
X110094000Y-134520000D02*
X109040000Y-134520000D01*
X110122000Y-134480000D02*
X109040000Y-134480000D01*
X110149000Y-134440000D02*
X109040000Y-134440000D01*
X110175000Y-134400000D02*
X109040000Y-134400000D01*
X110199000Y-134360000D02*
X109040000Y-134360000D01*
X110223000Y-134320000D02*
X109040000Y-134320000D01*
X110246000Y-134280000D02*
X109040000Y-134280000D01*
X110268000Y-134240000D02*
X109040000Y-134240000D01*
X110289000Y-134200000D02*
X109040000Y-134200000D01*
X110309000Y-134160000D02*
X109040000Y-134160000D01*
X110329000Y-134120000D02*
X109040000Y-134120000D01*
X110347000Y-134080000D02*
X109040000Y-134080000D01*
X110365000Y-134040000D02*
X109040000Y-134040000D01*
X110382000Y-134000000D02*
X109040000Y-134000000D01*
X110398000Y-133960000D02*
X109040000Y-133960000D01*
X110413000Y-133920000D02*
X109040000Y-133920000D01*
X110428000Y-133880000D02*
X109040000Y-133880000D01*
X110442000Y-133840000D02*
X109040000Y-133840000D01*
X110455000Y-133800000D02*
X109040000Y-133800000D01*
X110467000Y-133760000D02*
X109040000Y-133760000D01*
X110479000Y-133720000D02*
X109040000Y-133720000D01*
X110490000Y-133680000D02*
X109040000Y-133680000D01*
X110501000Y-133640000D02*
X109040000Y-133640000D01*
X110510000Y-133600000D02*
X109040000Y-133600000D01*
X110519000Y-133560000D02*
X109040000Y-133560000D01*
X110528000Y-133520000D02*
X109040000Y-133520000D01*
X110536000Y-133480000D02*
X109040000Y-133480000D01*
X110543000Y-133440000D02*
X109040000Y-133440000D01*
X110549000Y-133400000D02*
X109040000Y-133400000D01*
X110555000Y-133360000D02*
X109040000Y-133360000D01*
X110560000Y-133320000D02*
X109040000Y-133320000D01*
X110565000Y-133280000D02*
X109040000Y-133280000D01*
X110569000Y-133240000D02*
X109040000Y-133240000D01*
X110572000Y-133200000D02*
X109040000Y-133200000D01*
X110575000Y-133160000D02*
X109040000Y-133160000D01*
X110577000Y-133120000D02*
X109040000Y-133120000D01*
X110579000Y-133080000D02*
X109040000Y-133080000D01*
X110580000Y-133000000D02*
X109040000Y-133000000D01*
X110580000Y-133040000D02*
X109040000Y-133040000D01*
X110620000Y-133000000D02*
G75*
G02*
X105380000Y-133000000I-2620000J0D01*
G01*
X105380000Y-133000000D02*
G75*
G02*
X110620000Y-133000000I2620000J0D01*
G01*
%TO.C,SW1*%
X94620000Y-121340000D02*
X94620000Y-122723000D01*
X94620000Y-121340000D02*
X96003000Y-121340000D01*
X94860000Y-121580000D02*
X94860000Y-126420000D01*
X94860000Y-121580000D02*
X104760000Y-121580000D01*
X94860000Y-126420000D02*
X104760000Y-126420000D01*
X99133333Y-123365000D02*
X99133333Y-124635000D01*
X104760000Y-121580000D02*
X104760000Y-126420000D01*
X97780000Y-123365000D02*
X99133333Y-123365000D01*
X99133333Y-124635000D01*
X97780000Y-124635000D01*
X97780000Y-123365000D01*
G36*
X97780000Y-123365000D02*
G01*
X99133333Y-123365000D01*
X99133333Y-124635000D01*
X97780000Y-124635000D01*
X97780000Y-123365000D01*
G37*
X97780000Y-123365000D02*
X101840000Y-123365000D01*
X101840000Y-124635000D01*
X97780000Y-124635000D01*
X97780000Y-123365000D01*
%TD*%
M02*
