M48
; DRILL file KiCad 10.0.5 date 2026-09-10T18:27:49
; FORMAT={-:-/ absolute / metric / decimal}
; #@! TF.CreationDate,2026-09-10T18:27:49-04:00
; #@! TF.GenerationSoftware,Kicad,Pcbnew,10.0.5
; #@! TF.FileFunction,MixedPlating,1,2
FMAT,2
METRIC
; #@! TA.AperFunction,Plated,PTH,ViaDrill
T1C0.400
; #@! TA.AperFunction,Plated,PTH,ComponentDrill
T2C0.800
; #@! TA.AperFunction,Plated,PTH,ComponentDrill
T3C0.900
; #@! TA.AperFunction,Plated,PTH,ComponentDrill
T4C1.000
; #@! TA.AperFunction,Plated,PTH,ComponentDrill
T5C1.100
; #@! TA.AperFunction,Plated,PTH,ComponentDrill
T6C3.200
%
G90
G05
T1
X6.73Y-16.0
X14.35Y-19.0
X19.43Y-16.0
X27.05Y-19.0
X32.13Y-16.0
X33.62Y-2.96
X39.75Y-19.0
X44.83Y-16.0
X52.45Y-19.0
X57.53Y-16.0
X65.15Y-19.0
X70.23Y-16.0
X77.85Y-19.0
X104.74Y-2.96
X118.0Y-11.0
X124.0Y-10.5
T2
X8.0Y-32.16
X8.0Y-52.48
X8.0Y-57.56
X10.54Y-22.0
X10.54Y-27.08
X10.54Y-32.16
X10.54Y-42.32
X10.54Y-47.4
X10.54Y-52.48
X10.54Y-57.56
X13.08Y-32.16
X13.08Y-52.48
X13.08Y-57.56
X20.7Y-32.16
X20.7Y-44.86
X23.24Y-22.0
X23.24Y-27.08
X23.24Y-32.16
X23.24Y-44.86
X25.78Y-32.16
X25.78Y-44.86
X33.4Y-32.16
X33.4Y-52.48
X35.94Y-22.0
X35.94Y-27.08
X35.94Y-32.16
X35.94Y-42.32
X35.94Y-47.4
X35.94Y-52.48
X38.48Y-32.16
X38.48Y-52.48
X46.1Y-32.16
X46.1Y-37.24
X46.1Y-62.64
X48.64Y-22.0
X48.64Y-27.08
X48.64Y-32.16
X48.64Y-37.24
X48.64Y-47.4
X48.64Y-52.48
X48.64Y-62.64
X51.18Y-32.16
X51.18Y-37.24
X51.18Y-62.64
X58.8Y-32.16
X58.8Y-52.48
X61.34Y-22.0
X61.34Y-27.08
X61.34Y-32.16
X61.34Y-42.32
X61.34Y-47.4
X61.34Y-52.48
X63.88Y-32.16
X63.88Y-52.48
X71.5Y-32.16
X71.5Y-57.56
X74.04Y-22.0
X74.04Y-27.08
X74.04Y-32.16
X74.04Y-42.32
X74.04Y-47.4
X74.04Y-57.56
X76.58Y-32.16
X76.58Y-57.56
X90.0Y-80.0
X90.0Y-98.0
X90.0Y-103.08
X90.0Y-110.0
X90.0Y-115.08
X90.0Y-132.0
X90.0Y-137.08
X92.54Y-80.0
X95.08Y-80.0
X96.0Y-68.0
X96.0Y-73.08
X96.0Y-110.0
X96.0Y-112.5
X96.0Y-124.0
X96.0Y-132.0
X96.0Y-137.08
X102.0Y-80.0
X102.0Y-116.0
X102.0Y-132.0
X102.0Y-137.08
X103.62Y-124.0
X104.54Y-80.0
X107.08Y-80.0
X108.0Y-68.0
X108.0Y-73.08
X108.0Y-110.0
X108.0Y-112.0
X108.0Y-124.0
X108.0Y-132.0
X108.0Y-134.0
X109.62Y-116.0
X114.0Y-132.0
X114.0Y-137.08
X115.62Y-124.0
X118.0Y-6.0
X118.0Y-8.5
X120.0Y-132.0
X120.0Y-137.08
X124.0Y-6.0
X124.0Y-8.0
X126.0Y-132.0
X126.0Y-137.08
T3
X47.37Y-57.56
X49.91Y-57.56
X72.77Y-52.48
X75.31Y-52.48
T4
X26.0Y-5.46
X26.0Y-8.0
X28.54Y-5.46
X28.54Y-8.0
X31.08Y-5.46
X31.08Y-8.0
X33.62Y-5.46
X33.62Y-8.0
X36.16Y-5.46
X36.16Y-8.0
X38.7Y-5.46
X38.7Y-8.0
X41.24Y-5.46
X41.24Y-8.0
X43.78Y-5.46
X43.78Y-8.0
X46.32Y-5.46
X46.32Y-8.0
X48.86Y-5.46
X48.86Y-8.0
X51.4Y-5.46
X51.4Y-8.0
X53.94Y-5.46
X53.94Y-8.0
X56.48Y-5.46
X56.48Y-8.0
X59.02Y-5.46
X59.02Y-8.0
X61.56Y-5.46
X61.56Y-8.0
X64.1Y-5.46
X64.1Y-8.0
X66.64Y-5.46
X66.64Y-8.0
X69.18Y-5.46
X69.18Y-8.0
X71.72Y-5.46
X71.72Y-8.0
X74.26Y-5.46
X74.26Y-8.0
X76.8Y-5.46
X76.8Y-8.0
X79.34Y-5.46
X79.34Y-8.0
X81.88Y-5.46
X81.88Y-8.0
X84.42Y-5.46
X84.42Y-8.0
X86.96Y-5.46
X86.96Y-8.0
X89.5Y-5.46
X89.5Y-8.0
X92.04Y-5.46
X92.04Y-8.0
X94.58Y-5.46
X94.58Y-8.0
X97.12Y-5.46
X97.12Y-8.0
X99.66Y-5.46
X99.66Y-8.0
X102.0Y-110.0
X102.0Y-112.54
X102.2Y-5.46
X102.2Y-8.0
X104.74Y-5.46
X104.74Y-8.0
X112.0Y-100.0
X112.0Y-102.5
X112.0Y-105.0
T6
X4.0Y-4.0
X4.0Y-156.0
X132.0Y-4.0
X132.0Y-156.0
T5
X119.15Y-97.7G85X119.85Y-97.7
G05
X119.15Y-107.3G85X119.85Y-107.3
G05
M30
