%TF.GenerationSoftware,KiCad,Pcbnew,10.0.5*%
%TF.CreationDate,2026-10-01T12:31:53-04:00*%
%TF.ProjectId,clock,636c6f63-6b2e-46b6-9963-61645f706362,rev?*%
%TF.SameCoordinates,Original*%
%TF.FileFunction,Legend,Top*%
%TF.FilePolarity,Positive*%
%FSLAX46Y46*%
G04 Gerber Fmt 4.6, Leading zero omitted, Abs format (unit mm)*
G04 Created by KiCad (PCBNEW 10.0.5) date 2026-10-01 12:31:53*
%MOMM*%
%LPD*%
G01*
G04 APERTURE LIST*
%ADD10C,0.150000*%
%ADD11C,0.250000*%
%ADD12C,0.120000*%
%ADD13C,0.000000*%
G04 APERTURE END LIST*
D10*
X8590588Y-5414819D02*
X8019160Y-5414819D01*
X8304874Y-5414819D02*
X8304874Y-4414819D01*
X8304874Y-4414819D02*
X8209636Y-4557676D01*
X8209636Y-4557676D02*
X8114398Y-4652914D01*
X8114398Y-4652914D02*
X8019160Y-4700533D01*
X8019160Y-7050057D02*
X8066779Y-7002438D01*
X8066779Y-7002438D02*
X8162017Y-6954819D01*
X8162017Y-6954819D02*
X8400112Y-6954819D01*
X8400112Y-6954819D02*
X8495350Y-7002438D01*
X8495350Y-7002438D02*
X8542969Y-7050057D01*
X8542969Y-7050057D02*
X8590588Y-7145295D01*
X8590588Y-7145295D02*
X8590588Y-7240533D01*
X8590588Y-7240533D02*
X8542969Y-7383390D01*
X8542969Y-7383390D02*
X7971541Y-7954819D01*
X7971541Y-7954819D02*
X8590588Y-7954819D01*
X29827255Y-50999819D02*
X30017731Y-50999819D01*
X30017731Y-50999819D02*
X30112969Y-51047438D01*
X30112969Y-51047438D02*
X30208207Y-51142676D01*
X30208207Y-51142676D02*
X30255826Y-51333152D01*
X30255826Y-51333152D02*
X30255826Y-51666485D01*
X30255826Y-51666485D02*
X30208207Y-51856961D01*
X30208207Y-51856961D02*
X30112969Y-51952200D01*
X30112969Y-51952200D02*
X30017731Y-51999819D01*
X30017731Y-51999819D02*
X29827255Y-51999819D01*
X29827255Y-51999819D02*
X29732017Y-51952200D01*
X29732017Y-51952200D02*
X29636779Y-51856961D01*
X29636779Y-51856961D02*
X29589160Y-51666485D01*
X29589160Y-51666485D02*
X29589160Y-51333152D01*
X29589160Y-51333152D02*
X29636779Y-51142676D01*
X29636779Y-51142676D02*
X29732017Y-51047438D01*
X29732017Y-51047438D02*
X29827255Y-50999819D01*
X30636779Y-51952200D02*
X30779636Y-51999819D01*
X30779636Y-51999819D02*
X31017731Y-51999819D01*
X31017731Y-51999819D02*
X31112969Y-51952200D01*
X31112969Y-51952200D02*
X31160588Y-51904580D01*
X31160588Y-51904580D02*
X31208207Y-51809342D01*
X31208207Y-51809342D02*
X31208207Y-51714104D01*
X31208207Y-51714104D02*
X31160588Y-51618866D01*
X31160588Y-51618866D02*
X31112969Y-51571247D01*
X31112969Y-51571247D02*
X31017731Y-51523628D01*
X31017731Y-51523628D02*
X30827255Y-51476009D01*
X30827255Y-51476009D02*
X30732017Y-51428390D01*
X30732017Y-51428390D02*
X30684398Y-51380771D01*
X30684398Y-51380771D02*
X30636779Y-51285533D01*
X30636779Y-51285533D02*
X30636779Y-51190295D01*
X30636779Y-51190295D02*
X30684398Y-51095057D01*
X30684398Y-51095057D02*
X30732017Y-51047438D01*
X30732017Y-51047438D02*
X30827255Y-50999819D01*
X30827255Y-50999819D02*
X31065350Y-50999819D01*
X31065350Y-50999819D02*
X31208207Y-51047438D01*
X32208207Y-51904580D02*
X32160588Y-51952200D01*
X32160588Y-51952200D02*
X32017731Y-51999819D01*
X32017731Y-51999819D02*
X31922493Y-51999819D01*
X31922493Y-51999819D02*
X31779636Y-51952200D01*
X31779636Y-51952200D02*
X31684398Y-51856961D01*
X31684398Y-51856961D02*
X31636779Y-51761723D01*
X31636779Y-51761723D02*
X31589160Y-51571247D01*
X31589160Y-51571247D02*
X31589160Y-51428390D01*
X31589160Y-51428390D02*
X31636779Y-51237914D01*
X31636779Y-51237914D02*
X31684398Y-51142676D01*
X31684398Y-51142676D02*
X31779636Y-51047438D01*
X31779636Y-51047438D02*
X31922493Y-50999819D01*
X31922493Y-50999819D02*
X32017731Y-50999819D01*
X32017731Y-50999819D02*
X32160588Y-51047438D01*
X32160588Y-51047438D02*
X32208207Y-51095057D01*
X43908207Y-74454819D02*
X43574874Y-73978628D01*
X43336779Y-74454819D02*
X43336779Y-73454819D01*
X43336779Y-73454819D02*
X43717731Y-73454819D01*
X43717731Y-73454819D02*
X43812969Y-73502438D01*
X43812969Y-73502438D02*
X43860588Y-73550057D01*
X43860588Y-73550057D02*
X43908207Y-73645295D01*
X43908207Y-73645295D02*
X43908207Y-73788152D01*
X43908207Y-73788152D02*
X43860588Y-73883390D01*
X43860588Y-73883390D02*
X43812969Y-73931009D01*
X43812969Y-73931009D02*
X43717731Y-73978628D01*
X43717731Y-73978628D02*
X43336779Y-73978628D01*
X44336779Y-73454819D02*
X44336779Y-74264342D01*
X44336779Y-74264342D02*
X44384398Y-74359580D01*
X44384398Y-74359580D02*
X44432017Y-74407200D01*
X44432017Y-74407200D02*
X44527255Y-74454819D01*
X44527255Y-74454819D02*
X44717731Y-74454819D01*
X44717731Y-74454819D02*
X44812969Y-74407200D01*
X44812969Y-74407200D02*
X44860588Y-74359580D01*
X44860588Y-74359580D02*
X44908207Y-74264342D01*
X44908207Y-74264342D02*
X44908207Y-73454819D01*
X45384398Y-74454819D02*
X45384398Y-73454819D01*
X45384398Y-73454819D02*
X45955826Y-74454819D01*
X45955826Y-74454819D02*
X45955826Y-73454819D01*
X48027255Y-81054819D02*
X48217731Y-81054819D01*
X48217731Y-81054819D02*
X48312969Y-81102438D01*
X48312969Y-81102438D02*
X48408207Y-81197676D01*
X48408207Y-81197676D02*
X48455826Y-81388152D01*
X48455826Y-81388152D02*
X48455826Y-81721485D01*
X48455826Y-81721485D02*
X48408207Y-81911961D01*
X48408207Y-81911961D02*
X48312969Y-82007200D01*
X48312969Y-82007200D02*
X48217731Y-82054819D01*
X48217731Y-82054819D02*
X48027255Y-82054819D01*
X48027255Y-82054819D02*
X47932017Y-82007200D01*
X47932017Y-82007200D02*
X47836779Y-81911961D01*
X47836779Y-81911961D02*
X47789160Y-81721485D01*
X47789160Y-81721485D02*
X47789160Y-81388152D01*
X47789160Y-81388152D02*
X47836779Y-81197676D01*
X47836779Y-81197676D02*
X47932017Y-81102438D01*
X47932017Y-81102438D02*
X48027255Y-81054819D01*
X48884398Y-82054819D02*
X48884398Y-81054819D01*
X48884398Y-81054819D02*
X49455826Y-82054819D01*
X49455826Y-82054819D02*
X49455826Y-81054819D01*
X50693922Y-81388152D02*
X51455827Y-81673866D01*
X51455827Y-81673866D02*
X50693922Y-81959580D01*
X49289160Y-60407200D02*
X49432017Y-60454819D01*
X49432017Y-60454819D02*
X49670112Y-60454819D01*
X49670112Y-60454819D02*
X49765350Y-60407200D01*
X49765350Y-60407200D02*
X49812969Y-60359580D01*
X49812969Y-60359580D02*
X49860588Y-60264342D01*
X49860588Y-60264342D02*
X49860588Y-60169104D01*
X49860588Y-60169104D02*
X49812969Y-60073866D01*
X49812969Y-60073866D02*
X49765350Y-60026247D01*
X49765350Y-60026247D02*
X49670112Y-59978628D01*
X49670112Y-59978628D02*
X49479636Y-59931009D01*
X49479636Y-59931009D02*
X49384398Y-59883390D01*
X49384398Y-59883390D02*
X49336779Y-59835771D01*
X49336779Y-59835771D02*
X49289160Y-59740533D01*
X49289160Y-59740533D02*
X49289160Y-59645295D01*
X49289160Y-59645295D02*
X49336779Y-59550057D01*
X49336779Y-59550057D02*
X49384398Y-59502438D01*
X49384398Y-59502438D02*
X49479636Y-59454819D01*
X49479636Y-59454819D02*
X49717731Y-59454819D01*
X49717731Y-59454819D02*
X49860588Y-59502438D01*
X50765350Y-60454819D02*
X50289160Y-60454819D01*
X50289160Y-60454819D02*
X50289160Y-59454819D01*
X51289160Y-59454819D02*
X51479636Y-59454819D01*
X51479636Y-59454819D02*
X51574874Y-59502438D01*
X51574874Y-59502438D02*
X51670112Y-59597676D01*
X51670112Y-59597676D02*
X51717731Y-59788152D01*
X51717731Y-59788152D02*
X51717731Y-60121485D01*
X51717731Y-60121485D02*
X51670112Y-60311961D01*
X51670112Y-60311961D02*
X51574874Y-60407200D01*
X51574874Y-60407200D02*
X51479636Y-60454819D01*
X51479636Y-60454819D02*
X51289160Y-60454819D01*
X51289160Y-60454819D02*
X51193922Y-60407200D01*
X51193922Y-60407200D02*
X51098684Y-60311961D01*
X51098684Y-60311961D02*
X51051065Y-60121485D01*
X51051065Y-60121485D02*
X51051065Y-59788152D01*
X51051065Y-59788152D02*
X51098684Y-59597676D01*
X51098684Y-59597676D02*
X51193922Y-59502438D01*
X51193922Y-59502438D02*
X51289160Y-59454819D01*
X52051065Y-59454819D02*
X52289160Y-60454819D01*
X52289160Y-60454819D02*
X52479636Y-59740533D01*
X52479636Y-59740533D02*
X52670112Y-60454819D01*
X52670112Y-60454819D02*
X52908208Y-59454819D01*
X91635350Y-4414819D02*
X91444874Y-4414819D01*
X91444874Y-4414819D02*
X91349636Y-4462438D01*
X91349636Y-4462438D02*
X91302017Y-4510057D01*
X91302017Y-4510057D02*
X91206779Y-4652914D01*
X91206779Y-4652914D02*
X91159160Y-4843390D01*
X91159160Y-4843390D02*
X91159160Y-5224342D01*
X91159160Y-5224342D02*
X91206779Y-5319580D01*
X91206779Y-5319580D02*
X91254398Y-5367200D01*
X91254398Y-5367200D02*
X91349636Y-5414819D01*
X91349636Y-5414819D02*
X91540112Y-5414819D01*
X91540112Y-5414819D02*
X91635350Y-5367200D01*
X91635350Y-5367200D02*
X91682969Y-5319580D01*
X91682969Y-5319580D02*
X91730588Y-5224342D01*
X91730588Y-5224342D02*
X91730588Y-4986247D01*
X91730588Y-4986247D02*
X91682969Y-4891009D01*
X91682969Y-4891009D02*
X91635350Y-4843390D01*
X91635350Y-4843390D02*
X91540112Y-4795771D01*
X91540112Y-4795771D02*
X91349636Y-4795771D01*
X91349636Y-4795771D02*
X91254398Y-4843390D01*
X91254398Y-4843390D02*
X91206779Y-4891009D01*
X91206779Y-4891009D02*
X91159160Y-4986247D01*
X92063922Y-4414819D02*
X92682969Y-4414819D01*
X92682969Y-4414819D02*
X92349636Y-4795771D01*
X92349636Y-4795771D02*
X92492493Y-4795771D01*
X92492493Y-4795771D02*
X92587731Y-4843390D01*
X92587731Y-4843390D02*
X92635350Y-4891009D01*
X92635350Y-4891009D02*
X92682969Y-4986247D01*
X92682969Y-4986247D02*
X92682969Y-5224342D01*
X92682969Y-5224342D02*
X92635350Y-5319580D01*
X92635350Y-5319580D02*
X92587731Y-5367200D01*
X92587731Y-5367200D02*
X92492493Y-5414819D01*
X92492493Y-5414819D02*
X92206779Y-5414819D01*
X92206779Y-5414819D02*
X92111541Y-5367200D01*
X92111541Y-5367200D02*
X92063922Y-5319580D01*
X91635350Y-6954819D02*
X91444874Y-6954819D01*
X91444874Y-6954819D02*
X91349636Y-7002438D01*
X91349636Y-7002438D02*
X91302017Y-7050057D01*
X91302017Y-7050057D02*
X91206779Y-7192914D01*
X91206779Y-7192914D02*
X91159160Y-7383390D01*
X91159160Y-7383390D02*
X91159160Y-7764342D01*
X91159160Y-7764342D02*
X91206779Y-7859580D01*
X91206779Y-7859580D02*
X91254398Y-7907200D01*
X91254398Y-7907200D02*
X91349636Y-7954819D01*
X91349636Y-7954819D02*
X91540112Y-7954819D01*
X91540112Y-7954819D02*
X91635350Y-7907200D01*
X91635350Y-7907200D02*
X91682969Y-7859580D01*
X91682969Y-7859580D02*
X91730588Y-7764342D01*
X91730588Y-7764342D02*
X91730588Y-7526247D01*
X91730588Y-7526247D02*
X91682969Y-7431009D01*
X91682969Y-7431009D02*
X91635350Y-7383390D01*
X91635350Y-7383390D02*
X91540112Y-7335771D01*
X91540112Y-7335771D02*
X91349636Y-7335771D01*
X91349636Y-7335771D02*
X91254398Y-7383390D01*
X91254398Y-7383390D02*
X91206779Y-7431009D01*
X91206779Y-7431009D02*
X91159160Y-7526247D01*
X92587731Y-7288152D02*
X92587731Y-7954819D01*
X92349636Y-6907200D02*
X92111541Y-7621485D01*
X92111541Y-7621485D02*
X92730588Y-7621485D01*
X22474819Y-52283095D02*
X21998628Y-52616428D01*
X22474819Y-52854523D02*
X21474819Y-52854523D01*
X21474819Y-52854523D02*
X21474819Y-52473571D01*
X21474819Y-52473571D02*
X21522438Y-52378333D01*
X21522438Y-52378333D02*
X21570057Y-52330714D01*
X21570057Y-52330714D02*
X21665295Y-52283095D01*
X21665295Y-52283095D02*
X21808152Y-52283095D01*
X21808152Y-52283095D02*
X21903390Y-52330714D01*
X21903390Y-52330714D02*
X21951009Y-52378333D01*
X21951009Y-52378333D02*
X21998628Y-52473571D01*
X21998628Y-52473571D02*
X21998628Y-52854523D01*
X21474819Y-51854523D02*
X22284342Y-51854523D01*
X22284342Y-51854523D02*
X22379580Y-51806904D01*
X22379580Y-51806904D02*
X22427200Y-51759285D01*
X22427200Y-51759285D02*
X22474819Y-51664047D01*
X22474819Y-51664047D02*
X22474819Y-51473571D01*
X22474819Y-51473571D02*
X22427200Y-51378333D01*
X22427200Y-51378333D02*
X22379580Y-51330714D01*
X22379580Y-51330714D02*
X22284342Y-51283095D01*
X22284342Y-51283095D02*
X21474819Y-51283095D01*
X22474819Y-50806904D02*
X21474819Y-50806904D01*
X21474819Y-50806904D02*
X22474819Y-50235476D01*
X22474819Y-50235476D02*
X21474819Y-50235476D01*
X58384398Y-49614700D02*
X58598684Y-49686128D01*
X58598684Y-49686128D02*
X58955826Y-49686128D01*
X58955826Y-49686128D02*
X59098684Y-49614700D01*
X59098684Y-49614700D02*
X59170112Y-49543271D01*
X59170112Y-49543271D02*
X59241541Y-49400414D01*
X59241541Y-49400414D02*
X59241541Y-49257557D01*
X59241541Y-49257557D02*
X59170112Y-49114700D01*
X59170112Y-49114700D02*
X59098684Y-49043271D01*
X59098684Y-49043271D02*
X58955826Y-48971842D01*
X58955826Y-48971842D02*
X58670112Y-48900414D01*
X58670112Y-48900414D02*
X58527255Y-48828985D01*
X58527255Y-48828985D02*
X58455826Y-48757557D01*
X58455826Y-48757557D02*
X58384398Y-48614700D01*
X58384398Y-48614700D02*
X58384398Y-48471842D01*
X58384398Y-48471842D02*
X58455826Y-48328985D01*
X58455826Y-48328985D02*
X58527255Y-48257557D01*
X58527255Y-48257557D02*
X58670112Y-48186128D01*
X58670112Y-48186128D02*
X59027255Y-48186128D01*
X59027255Y-48186128D02*
X59241541Y-48257557D01*
X59884397Y-49686128D02*
X59884397Y-48186128D01*
X59884397Y-48186128D02*
X60455826Y-48186128D01*
X60455826Y-48186128D02*
X60598683Y-48257557D01*
X60598683Y-48257557D02*
X60670112Y-48328985D01*
X60670112Y-48328985D02*
X60741540Y-48471842D01*
X60741540Y-48471842D02*
X60741540Y-48686128D01*
X60741540Y-48686128D02*
X60670112Y-48828985D01*
X60670112Y-48828985D02*
X60598683Y-48900414D01*
X60598683Y-48900414D02*
X60455826Y-48971842D01*
X60455826Y-48971842D02*
X59884397Y-48971842D01*
X61384397Y-48900414D02*
X61884397Y-48900414D01*
X62098683Y-49686128D02*
X61384397Y-49686128D01*
X61384397Y-49686128D02*
X61384397Y-48186128D01*
X61384397Y-48186128D02*
X62098683Y-48186128D01*
X62741540Y-48900414D02*
X63241540Y-48900414D01*
X63455826Y-49686128D02*
X62741540Y-49686128D01*
X62741540Y-49686128D02*
X62741540Y-48186128D01*
X62741540Y-48186128D02*
X63455826Y-48186128D01*
X64098683Y-49686128D02*
X64098683Y-48186128D01*
X64098683Y-48186128D02*
X64455826Y-48186128D01*
X64455826Y-48186128D02*
X64670112Y-48257557D01*
X64670112Y-48257557D02*
X64812969Y-48400414D01*
X64812969Y-48400414D02*
X64884398Y-48543271D01*
X64884398Y-48543271D02*
X64955826Y-48828985D01*
X64955826Y-48828985D02*
X64955826Y-49043271D01*
X64955826Y-49043271D02*
X64884398Y-49328985D01*
X64884398Y-49328985D02*
X64812969Y-49471842D01*
X64812969Y-49471842D02*
X64670112Y-49614700D01*
X64670112Y-49614700D02*
X64455826Y-49686128D01*
X64455826Y-49686128D02*
X64098683Y-49686128D01*
D11*
X29521615Y-98880928D02*
X29521615Y-97380928D01*
X29521615Y-97380928D02*
X30378758Y-98880928D01*
X30378758Y-98880928D02*
X30378758Y-97380928D01*
X31093044Y-98880928D02*
X31093044Y-97380928D01*
X32307330Y-98095214D02*
X32521616Y-98166642D01*
X32521616Y-98166642D02*
X32593045Y-98238071D01*
X32593045Y-98238071D02*
X32664473Y-98380928D01*
X32664473Y-98380928D02*
X32664473Y-98595214D01*
X32664473Y-98595214D02*
X32593045Y-98738071D01*
X32593045Y-98738071D02*
X32521616Y-98809500D01*
X32521616Y-98809500D02*
X32378759Y-98880928D01*
X32378759Y-98880928D02*
X31807330Y-98880928D01*
X31807330Y-98880928D02*
X31807330Y-97380928D01*
X31807330Y-97380928D02*
X32307330Y-97380928D01*
X32307330Y-97380928D02*
X32450188Y-97452357D01*
X32450188Y-97452357D02*
X32521616Y-97523785D01*
X32521616Y-97523785D02*
X32593045Y-97666642D01*
X32593045Y-97666642D02*
X32593045Y-97809500D01*
X32593045Y-97809500D02*
X32521616Y-97952357D01*
X32521616Y-97952357D02*
X32450188Y-98023785D01*
X32450188Y-98023785D02*
X32307330Y-98095214D01*
X32307330Y-98095214D02*
X31807330Y-98095214D01*
X33807330Y-98095214D02*
X34021616Y-98166642D01*
X34021616Y-98166642D02*
X34093045Y-98238071D01*
X34093045Y-98238071D02*
X34164473Y-98380928D01*
X34164473Y-98380928D02*
X34164473Y-98595214D01*
X34164473Y-98595214D02*
X34093045Y-98738071D01*
X34093045Y-98738071D02*
X34021616Y-98809500D01*
X34021616Y-98809500D02*
X33878759Y-98880928D01*
X33878759Y-98880928D02*
X33307330Y-98880928D01*
X33307330Y-98880928D02*
X33307330Y-97380928D01*
X33307330Y-97380928D02*
X33807330Y-97380928D01*
X33807330Y-97380928D02*
X33950188Y-97452357D01*
X33950188Y-97452357D02*
X34021616Y-97523785D01*
X34021616Y-97523785D02*
X34093045Y-97666642D01*
X34093045Y-97666642D02*
X34093045Y-97809500D01*
X34093045Y-97809500D02*
X34021616Y-97952357D01*
X34021616Y-97952357D02*
X33950188Y-98023785D01*
X33950188Y-98023785D02*
X33807330Y-98095214D01*
X33807330Y-98095214D02*
X33307330Y-98095214D01*
X35521616Y-98880928D02*
X34807330Y-98880928D01*
X34807330Y-98880928D02*
X34807330Y-97380928D01*
X36021616Y-98095214D02*
X36521616Y-98095214D01*
X36735902Y-98880928D02*
X36021616Y-98880928D01*
X36021616Y-98880928D02*
X36021616Y-97380928D01*
X36021616Y-97380928D02*
X36735902Y-97380928D01*
X40521616Y-98738071D02*
X40450188Y-98809500D01*
X40450188Y-98809500D02*
X40235902Y-98880928D01*
X40235902Y-98880928D02*
X40093045Y-98880928D01*
X40093045Y-98880928D02*
X39878759Y-98809500D01*
X39878759Y-98809500D02*
X39735902Y-98666642D01*
X39735902Y-98666642D02*
X39664473Y-98523785D01*
X39664473Y-98523785D02*
X39593045Y-98238071D01*
X39593045Y-98238071D02*
X39593045Y-98023785D01*
X39593045Y-98023785D02*
X39664473Y-97738071D01*
X39664473Y-97738071D02*
X39735902Y-97595214D01*
X39735902Y-97595214D02*
X39878759Y-97452357D01*
X39878759Y-97452357D02*
X40093045Y-97380928D01*
X40093045Y-97380928D02*
X40235902Y-97380928D01*
X40235902Y-97380928D02*
X40450188Y-97452357D01*
X40450188Y-97452357D02*
X40521616Y-97523785D01*
X41878759Y-98880928D02*
X41164473Y-98880928D01*
X41164473Y-98880928D02*
X41164473Y-97380928D01*
X42664474Y-97380928D02*
X42950188Y-97380928D01*
X42950188Y-97380928D02*
X43093045Y-97452357D01*
X43093045Y-97452357D02*
X43235902Y-97595214D01*
X43235902Y-97595214D02*
X43307331Y-97880928D01*
X43307331Y-97880928D02*
X43307331Y-98380928D01*
X43307331Y-98380928D02*
X43235902Y-98666642D01*
X43235902Y-98666642D02*
X43093045Y-98809500D01*
X43093045Y-98809500D02*
X42950188Y-98880928D01*
X42950188Y-98880928D02*
X42664474Y-98880928D01*
X42664474Y-98880928D02*
X42521617Y-98809500D01*
X42521617Y-98809500D02*
X42378759Y-98666642D01*
X42378759Y-98666642D02*
X42307331Y-98380928D01*
X42307331Y-98380928D02*
X42307331Y-97880928D01*
X42307331Y-97880928D02*
X42378759Y-97595214D01*
X42378759Y-97595214D02*
X42521617Y-97452357D01*
X42521617Y-97452357D02*
X42664474Y-97380928D01*
X44807331Y-98738071D02*
X44735903Y-98809500D01*
X44735903Y-98809500D02*
X44521617Y-98880928D01*
X44521617Y-98880928D02*
X44378760Y-98880928D01*
X44378760Y-98880928D02*
X44164474Y-98809500D01*
X44164474Y-98809500D02*
X44021617Y-98666642D01*
X44021617Y-98666642D02*
X43950188Y-98523785D01*
X43950188Y-98523785D02*
X43878760Y-98238071D01*
X43878760Y-98238071D02*
X43878760Y-98023785D01*
X43878760Y-98023785D02*
X43950188Y-97738071D01*
X43950188Y-97738071D02*
X44021617Y-97595214D01*
X44021617Y-97595214D02*
X44164474Y-97452357D01*
X44164474Y-97452357D02*
X44378760Y-97380928D01*
X44378760Y-97380928D02*
X44521617Y-97380928D01*
X44521617Y-97380928D02*
X44735903Y-97452357D01*
X44735903Y-97452357D02*
X44807331Y-97523785D01*
X45450188Y-98880928D02*
X45450188Y-97380928D01*
X46307331Y-98880928D02*
X45664474Y-98023785D01*
X46307331Y-97380928D02*
X45450188Y-98238071D01*
D10*
X90859580Y-65416666D02*
X90907200Y-65464285D01*
X90907200Y-65464285D02*
X90954819Y-65607142D01*
X90954819Y-65607142D02*
X90954819Y-65702380D01*
X90954819Y-65702380D02*
X90907200Y-65845237D01*
X90907200Y-65845237D02*
X90811961Y-65940475D01*
X90811961Y-65940475D02*
X90716723Y-65988094D01*
X90716723Y-65988094D02*
X90526247Y-66035713D01*
X90526247Y-66035713D02*
X90383390Y-66035713D01*
X90383390Y-66035713D02*
X90192914Y-65988094D01*
X90192914Y-65988094D02*
X90097676Y-65940475D01*
X90097676Y-65940475D02*
X90002438Y-65845237D01*
X90002438Y-65845237D02*
X89954819Y-65702380D01*
X89954819Y-65702380D02*
X89954819Y-65607142D01*
X89954819Y-65607142D02*
X90002438Y-65464285D01*
X90002438Y-65464285D02*
X90050057Y-65416666D01*
X89954819Y-64511904D02*
X89954819Y-64988094D01*
X89954819Y-64988094D02*
X90431009Y-65035713D01*
X90431009Y-65035713D02*
X90383390Y-64988094D01*
X90383390Y-64988094D02*
X90335771Y-64892856D01*
X90335771Y-64892856D02*
X90335771Y-64654761D01*
X90335771Y-64654761D02*
X90383390Y-64559523D01*
X90383390Y-64559523D02*
X90431009Y-64511904D01*
X90431009Y-64511904D02*
X90526247Y-64464285D01*
X90526247Y-64464285D02*
X90764342Y-64464285D01*
X90764342Y-64464285D02*
X90859580Y-64511904D01*
X90859580Y-64511904D02*
X90907200Y-64559523D01*
X90907200Y-64559523D02*
X90954819Y-64654761D01*
X90954819Y-64654761D02*
X90954819Y-64892856D01*
X90954819Y-64892856D02*
X90907200Y-64988094D01*
X90907200Y-64988094D02*
X90859580Y-65035713D01*
X3238095Y-46304819D02*
X3238095Y-45304819D01*
X3238095Y-45781009D02*
X3809523Y-45781009D01*
X3809523Y-46304819D02*
X3809523Y-45304819D01*
X4809523Y-46304819D02*
X4238095Y-46304819D01*
X4523809Y-46304819D02*
X4523809Y-45304819D01*
X4523809Y-45304819D02*
X4428571Y-45447676D01*
X4428571Y-45447676D02*
X4333333Y-45542914D01*
X4333333Y-45542914D02*
X4238095Y-45590533D01*
X97859580Y-17916666D02*
X97907200Y-17964285D01*
X97907200Y-17964285D02*
X97954819Y-18107142D01*
X97954819Y-18107142D02*
X97954819Y-18202380D01*
X97954819Y-18202380D02*
X97907200Y-18345237D01*
X97907200Y-18345237D02*
X97811961Y-18440475D01*
X97811961Y-18440475D02*
X97716723Y-18488094D01*
X97716723Y-18488094D02*
X97526247Y-18535713D01*
X97526247Y-18535713D02*
X97383390Y-18535713D01*
X97383390Y-18535713D02*
X97192914Y-18488094D01*
X97192914Y-18488094D02*
X97097676Y-18440475D01*
X97097676Y-18440475D02*
X97002438Y-18345237D01*
X97002438Y-18345237D02*
X96954819Y-18202380D01*
X96954819Y-18202380D02*
X96954819Y-18107142D01*
X96954819Y-18107142D02*
X97002438Y-17964285D01*
X97002438Y-17964285D02*
X97050057Y-17916666D01*
X97954819Y-16964285D02*
X97954819Y-17535713D01*
X97954819Y-17249999D02*
X96954819Y-17249999D01*
X96954819Y-17249999D02*
X97097676Y-17345237D01*
X97097676Y-17345237D02*
X97192914Y-17440475D01*
X97192914Y-17440475D02*
X97240533Y-17535713D01*
X48859580Y-65416666D02*
X48907200Y-65464285D01*
X48907200Y-65464285D02*
X48954819Y-65607142D01*
X48954819Y-65607142D02*
X48954819Y-65702380D01*
X48954819Y-65702380D02*
X48907200Y-65845237D01*
X48907200Y-65845237D02*
X48811961Y-65940475D01*
X48811961Y-65940475D02*
X48716723Y-65988094D01*
X48716723Y-65988094D02*
X48526247Y-66035713D01*
X48526247Y-66035713D02*
X48383390Y-66035713D01*
X48383390Y-66035713D02*
X48192914Y-65988094D01*
X48192914Y-65988094D02*
X48097676Y-65940475D01*
X48097676Y-65940475D02*
X48002438Y-65845237D01*
X48002438Y-65845237D02*
X47954819Y-65702380D01*
X47954819Y-65702380D02*
X47954819Y-65607142D01*
X47954819Y-65607142D02*
X48002438Y-65464285D01*
X48002438Y-65464285D02*
X48050057Y-65416666D01*
X47954819Y-65083332D02*
X47954819Y-64464285D01*
X47954819Y-64464285D02*
X48335771Y-64797618D01*
X48335771Y-64797618D02*
X48335771Y-64654761D01*
X48335771Y-64654761D02*
X48383390Y-64559523D01*
X48383390Y-64559523D02*
X48431009Y-64511904D01*
X48431009Y-64511904D02*
X48526247Y-64464285D01*
X48526247Y-64464285D02*
X48764342Y-64464285D01*
X48764342Y-64464285D02*
X48859580Y-64511904D01*
X48859580Y-64511904D02*
X48907200Y-64559523D01*
X48907200Y-64559523D02*
X48954819Y-64654761D01*
X48954819Y-64654761D02*
X48954819Y-64940475D01*
X48954819Y-64940475D02*
X48907200Y-65035713D01*
X48907200Y-65035713D02*
X48859580Y-65083332D01*
X62109580Y-65166666D02*
X62157200Y-65214285D01*
X62157200Y-65214285D02*
X62204819Y-65357142D01*
X62204819Y-65357142D02*
X62204819Y-65452380D01*
X62204819Y-65452380D02*
X62157200Y-65595237D01*
X62157200Y-65595237D02*
X62061961Y-65690475D01*
X62061961Y-65690475D02*
X61966723Y-65738094D01*
X61966723Y-65738094D02*
X61776247Y-65785713D01*
X61776247Y-65785713D02*
X61633390Y-65785713D01*
X61633390Y-65785713D02*
X61442914Y-65738094D01*
X61442914Y-65738094D02*
X61347676Y-65690475D01*
X61347676Y-65690475D02*
X61252438Y-65595237D01*
X61252438Y-65595237D02*
X61204819Y-65452380D01*
X61204819Y-65452380D02*
X61204819Y-65357142D01*
X61204819Y-65357142D02*
X61252438Y-65214285D01*
X61252438Y-65214285D02*
X61300057Y-65166666D01*
X61538152Y-64309523D02*
X62204819Y-64309523D01*
X61157200Y-64547618D02*
X61871485Y-64785713D01*
X61871485Y-64785713D02*
X61871485Y-64166666D01*
X62109580Y-87166666D02*
X62157200Y-87214285D01*
X62157200Y-87214285D02*
X62204819Y-87357142D01*
X62204819Y-87357142D02*
X62204819Y-87452380D01*
X62204819Y-87452380D02*
X62157200Y-87595237D01*
X62157200Y-87595237D02*
X62061961Y-87690475D01*
X62061961Y-87690475D02*
X61966723Y-87738094D01*
X61966723Y-87738094D02*
X61776247Y-87785713D01*
X61776247Y-87785713D02*
X61633390Y-87785713D01*
X61633390Y-87785713D02*
X61442914Y-87738094D01*
X61442914Y-87738094D02*
X61347676Y-87690475D01*
X61347676Y-87690475D02*
X61252438Y-87595237D01*
X61252438Y-87595237D02*
X61204819Y-87452380D01*
X61204819Y-87452380D02*
X61204819Y-87357142D01*
X61204819Y-87357142D02*
X61252438Y-87214285D01*
X61252438Y-87214285D02*
X61300057Y-87166666D01*
X61204819Y-86309523D02*
X61204819Y-86499999D01*
X61204819Y-86499999D02*
X61252438Y-86595237D01*
X61252438Y-86595237D02*
X61300057Y-86642856D01*
X61300057Y-86642856D02*
X61442914Y-86738094D01*
X61442914Y-86738094D02*
X61633390Y-86785713D01*
X61633390Y-86785713D02*
X62014342Y-86785713D01*
X62014342Y-86785713D02*
X62109580Y-86738094D01*
X62109580Y-86738094D02*
X62157200Y-86690475D01*
X62157200Y-86690475D02*
X62204819Y-86595237D01*
X62204819Y-86595237D02*
X62204819Y-86404761D01*
X62204819Y-86404761D02*
X62157200Y-86309523D01*
X62157200Y-86309523D02*
X62109580Y-86261904D01*
X62109580Y-86261904D02*
X62014342Y-86214285D01*
X62014342Y-86214285D02*
X61776247Y-86214285D01*
X61776247Y-86214285D02*
X61681009Y-86261904D01*
X61681009Y-86261904D02*
X61633390Y-86309523D01*
X61633390Y-86309523D02*
X61585771Y-86404761D01*
X61585771Y-86404761D02*
X61585771Y-86595237D01*
X61585771Y-86595237D02*
X61633390Y-86690475D01*
X61633390Y-86690475D02*
X61681009Y-86738094D01*
X61681009Y-86738094D02*
X61776247Y-86785713D01*
X95238095Y-46304819D02*
X95238095Y-45304819D01*
X95238095Y-45781009D02*
X95809523Y-45781009D01*
X95809523Y-46304819D02*
X95809523Y-45304819D01*
X96238095Y-45400057D02*
X96285714Y-45352438D01*
X96285714Y-45352438D02*
X96380952Y-45304819D01*
X96380952Y-45304819D02*
X96619047Y-45304819D01*
X96619047Y-45304819D02*
X96714285Y-45352438D01*
X96714285Y-45352438D02*
X96761904Y-45400057D01*
X96761904Y-45400057D02*
X96809523Y-45495295D01*
X96809523Y-45495295D02*
X96809523Y-45590533D01*
X96809523Y-45590533D02*
X96761904Y-45733390D01*
X96761904Y-45733390D02*
X96190476Y-46304819D01*
X96190476Y-46304819D02*
X96809523Y-46304819D01*
X99109580Y-27166666D02*
X99157200Y-27214285D01*
X99157200Y-27214285D02*
X99204819Y-27357142D01*
X99204819Y-27357142D02*
X99204819Y-27452380D01*
X99204819Y-27452380D02*
X99157200Y-27595237D01*
X99157200Y-27595237D02*
X99061961Y-27690475D01*
X99061961Y-27690475D02*
X98966723Y-27738094D01*
X98966723Y-27738094D02*
X98776247Y-27785713D01*
X98776247Y-27785713D02*
X98633390Y-27785713D01*
X98633390Y-27785713D02*
X98442914Y-27738094D01*
X98442914Y-27738094D02*
X98347676Y-27690475D01*
X98347676Y-27690475D02*
X98252438Y-27595237D01*
X98252438Y-27595237D02*
X98204819Y-27452380D01*
X98204819Y-27452380D02*
X98204819Y-27357142D01*
X98204819Y-27357142D02*
X98252438Y-27214285D01*
X98252438Y-27214285D02*
X98300057Y-27166666D01*
X98300057Y-26785713D02*
X98252438Y-26738094D01*
X98252438Y-26738094D02*
X98204819Y-26642856D01*
X98204819Y-26642856D02*
X98204819Y-26404761D01*
X98204819Y-26404761D02*
X98252438Y-26309523D01*
X98252438Y-26309523D02*
X98300057Y-26261904D01*
X98300057Y-26261904D02*
X98395295Y-26214285D01*
X98395295Y-26214285D02*
X98490533Y-26214285D01*
X98490533Y-26214285D02*
X98633390Y-26261904D01*
X98633390Y-26261904D02*
X99204819Y-26833332D01*
X99204819Y-26833332D02*
X99204819Y-26214285D01*
%TO.C,R13*%
D12*
X46000000Y-23370000D02*
X46000000Y-25980000D01*
X47370000Y-22000000D02*
G75*
G02*
X44630000Y-22000000I-1370000J0D01*
G01*
X44630000Y-22000000D02*
G75*
G02*
X47370000Y-22000000I1370000J0D01*
G01*
%TO.C,Q13*%
X9740000Y-52140000D02*
X13340000Y-52140000D01*
X9183600Y-49191193D02*
G75*
G02*
X11540000Y-47690000I2356400J-1098807D01*
G01*
X9740000Y-52140000D02*
G75*
G02*
X9215816Y-51412795I1800000J1850000D01*
G01*
X11540000Y-47690000D02*
G75*
G02*
X13896400Y-49191193I0J-2600000D01*
G01*
X13864184Y-51412795D02*
G75*
G02*
X13340000Y-52140000I-2324184J1122795D01*
G01*
%TO.C,R9*%
X25730000Y-37590000D02*
X28340000Y-37590000D01*
X25730000Y-37590000D02*
G75*
G02*
X22990000Y-37590000I-1370000J0D01*
G01*
X22990000Y-37590000D02*
G75*
G02*
X25730000Y-37590000I1370000J0D01*
G01*
%TO.C,R8*%
X10370000Y-37590000D02*
X12980000Y-37590000D01*
X10370000Y-37590000D02*
G75*
G02*
X7630000Y-37590000I-1370000J0D01*
G01*
X7630000Y-37590000D02*
G75*
G02*
X10370000Y-37590000I1370000J0D01*
G01*
%TO.C,D1*%
X17984000Y-52485000D02*
X18140000Y-52485000D01*
X20300000Y-52485000D02*
X20456000Y-52485000D01*
X17984484Y-52485000D02*
G75*
G02*
X18140000Y-49253563I1235516J1560000D01*
G01*
X18140000Y-51965961D02*
G75*
G02*
X18140000Y-49884039I1080000J1040961D01*
G01*
X20300000Y-49253563D02*
G75*
G02*
X20455516Y-52485000I-1080000J-1671437D01*
G01*
X20300000Y-49884039D02*
G75*
G02*
X20300000Y-51965961I-1080000J-1040961D01*
G01*
%TO.C,R16*%
X40000000Y-65370000D02*
X40000000Y-67980000D01*
X41370000Y-64000000D02*
G75*
G02*
X38630000Y-64000000I-1370000J0D01*
G01*
X38630000Y-64000000D02*
G75*
G02*
X41370000Y-64000000I1370000J0D01*
G01*
%TO.C,Q1*%
X9740000Y-22295000D02*
X13340000Y-22295000D01*
X9183600Y-19346193D02*
G75*
G02*
X11540000Y-17845000I2356400J-1098807D01*
G01*
X9740000Y-22295000D02*
G75*
G02*
X9215816Y-21567795I1800000J1850000D01*
G01*
X11540000Y-17845000D02*
G75*
G02*
X13896400Y-19346193I0J-2600000D01*
G01*
X13864184Y-21567795D02*
G75*
G02*
X13340000Y-22295000I-2324184J1122795D01*
G01*
%TO.C,Q3*%
X25100000Y-22295000D02*
X28700000Y-22295000D01*
X24543600Y-19346193D02*
G75*
G02*
X26900000Y-17845000I2356400J-1098807D01*
G01*
X25100000Y-22295000D02*
G75*
G02*
X24575816Y-21567795I1800000J1850000D01*
G01*
X26900000Y-17845000D02*
G75*
G02*
X29256400Y-19346193I0J-2600000D01*
G01*
X29224184Y-21567795D02*
G75*
G02*
X28700000Y-22295000I-2324184J1122795D01*
G01*
%TO.C,Q8*%
X21020000Y-34470000D02*
X17420000Y-34470000D01*
X16895816Y-35197205D02*
G75*
G02*
X17420000Y-34470000I2324184J-1122795D01*
G01*
X19220000Y-38920000D02*
G75*
G02*
X16863600Y-37418807I0J2600000D01*
G01*
X21020000Y-34470000D02*
G75*
G02*
X21544184Y-35197205I-1800000J-1850000D01*
G01*
X21576400Y-37418807D02*
G75*
G02*
X19220000Y-38920000I-2356400J1098807D01*
G01*
%TO.C,D4*%
X53040000Y-70000000D02*
X53690000Y-70000000D01*
X54290000Y-68880000D02*
X54290000Y-71120000D01*
X54410000Y-68880000D02*
X54410000Y-71120000D01*
X54530000Y-68880000D02*
X54530000Y-71120000D01*
X58580000Y-70000000D02*
X57930000Y-70000000D01*
X53690000Y-68880000D02*
X57930000Y-68880000D01*
X57930000Y-71120000D01*
X53690000Y-71120000D01*
X53690000Y-68880000D01*
%TO.C,C5*%
X86630000Y-62630000D02*
X89370000Y-62630000D01*
X86630000Y-67870000D02*
X86630000Y-62630000D01*
X89370000Y-62630000D02*
X89370000Y-67870000D01*
X89370000Y-67870000D02*
X86630000Y-67870000D01*
%TO.C,Q11*%
X9740000Y-43885000D02*
X13340000Y-43885000D01*
X9183600Y-40936193D02*
G75*
G02*
X11540000Y-39435000I2356400J-1098807D01*
G01*
X9740000Y-43885000D02*
G75*
G02*
X9215816Y-43157795I1800000J1850000D01*
G01*
X11540000Y-39435000D02*
G75*
G02*
X13896400Y-40936193I0J-2600000D01*
G01*
X13864184Y-43157795D02*
G75*
G02*
X13340000Y-43885000I-2324184J1122795D01*
G01*
%TO.C,J2*%
X50620000Y-62620000D02*
X52000000Y-62620000D01*
X50620000Y-64000000D02*
X50620000Y-62620000D01*
X50620000Y-65270000D02*
X50620000Y-67920000D01*
X50620000Y-65270000D02*
X53380000Y-65270000D01*
X50620000Y-67920000D02*
X53380000Y-67920000D01*
X53380000Y-65270000D02*
X53380000Y-67920000D01*
%TO.C,Q14*%
X21020000Y-54790000D02*
X17420000Y-54790000D01*
X16895816Y-55517205D02*
G75*
G02*
X17420000Y-54790000I2324184J-1122795D01*
G01*
X19220000Y-59240000D02*
G75*
G02*
X16863600Y-57738807I0J2600000D01*
G01*
X21020000Y-54790000D02*
G75*
G02*
X21544184Y-55517205I-1800000J-1850000D01*
G01*
X21576400Y-57738807D02*
G75*
G02*
X19220000Y-59240000I-2356400J1098807D01*
G01*
%TO.C,Q12*%
X25100000Y-43885000D02*
X28700000Y-43885000D01*
X24543600Y-40936193D02*
G75*
G02*
X26900000Y-39435000I2356400J-1098807D01*
G01*
X25100000Y-43885000D02*
G75*
G02*
X24575816Y-43157795I1800000J1850000D01*
G01*
X26900000Y-39435000D02*
G75*
G02*
X29256400Y-40936193I0J-2600000D01*
G01*
X29224184Y-43157795D02*
G75*
G02*
X28700000Y-43885000I-2324184J1122795D01*
G01*
%TO.C,R1*%
X10370000Y-16000000D02*
X12980000Y-16000000D01*
X10370000Y-16000000D02*
G75*
G02*
X7630000Y-16000000I-1370000J0D01*
G01*
X7630000Y-16000000D02*
G75*
G02*
X10370000Y-16000000I1370000J0D01*
G01*
%TO.C,R7*%
X18050000Y-32510000D02*
X20660000Y-32510000D01*
X18050000Y-32510000D02*
G75*
G02*
X15310000Y-32510000I-1370000J0D01*
G01*
X15310000Y-32510000D02*
G75*
G02*
X18050000Y-32510000I1370000J0D01*
G01*
%TO.C,SW1*%
X44620000Y-75340000D02*
X44620000Y-76723000D01*
X44620000Y-75340000D02*
X46003000Y-75340000D01*
X44860000Y-75580000D02*
X44860000Y-80420000D01*
X44860000Y-75580000D02*
X54760000Y-75580000D01*
X44860000Y-80420000D02*
X54760000Y-80420000D01*
X49133333Y-77365000D02*
X49133333Y-78635000D01*
X54760000Y-75580000D02*
X54760000Y-80420000D01*
X47780000Y-77365000D02*
X49133333Y-77365000D01*
X49133333Y-78635000D01*
X47780000Y-78635000D01*
X47780000Y-77365000D01*
G36*
X47780000Y-77365000D02*
G01*
X49133333Y-77365000D01*
X49133333Y-78635000D01*
X47780000Y-78635000D01*
X47780000Y-77365000D01*
G37*
X47780000Y-77365000D02*
X51840000Y-77365000D01*
X51840000Y-78635000D01*
X47780000Y-78635000D01*
X47780000Y-77365000D01*
%TO.C,R5*%
X18050000Y-24255000D02*
X20660000Y-24255000D01*
X18050000Y-24255000D02*
G75*
G02*
X15310000Y-24255000I-1370000J0D01*
G01*
X15310000Y-24255000D02*
G75*
G02*
X18050000Y-24255000I1370000J0D01*
G01*
%TO.C,D3*%
X59040000Y-78000000D02*
X59690000Y-78000000D01*
X60290000Y-76880000D02*
X60290000Y-79120000D01*
X60410000Y-76880000D02*
X60410000Y-79120000D01*
X60530000Y-76880000D02*
X60530000Y-79120000D01*
X64580000Y-78000000D02*
X63930000Y-78000000D01*
X59690000Y-76880000D02*
X63930000Y-76880000D01*
X63930000Y-79120000D01*
X59690000Y-79120000D01*
X59690000Y-76880000D01*
%TO.C,Q4*%
X9740000Y-30550000D02*
X13340000Y-30550000D01*
X9183600Y-27601193D02*
G75*
G02*
X11540000Y-26100000I2356400J-1098807D01*
G01*
X9740000Y-30550000D02*
G75*
G02*
X9215816Y-29822795I1800000J1850000D01*
G01*
X11540000Y-26100000D02*
G75*
G02*
X13896400Y-27601193I0J-2600000D01*
G01*
X13864184Y-29822795D02*
G75*
G02*
X13340000Y-30550000I-2324184J1122795D01*
G01*
%TO.C,Q9*%
X21020000Y-39550000D02*
X17420000Y-39550000D01*
X16895816Y-40277205D02*
G75*
G02*
X17420000Y-39550000I2324184J-1122795D01*
G01*
X19220000Y-44000000D02*
G75*
G02*
X16863600Y-42498807I0J2600000D01*
G01*
X21020000Y-39550000D02*
G75*
G02*
X21544184Y-40277205I-1800000J-1850000D01*
G01*
X21576400Y-42498807D02*
G75*
G02*
X19220000Y-44000000I-2356400J1098807D01*
G01*
%TO.C,Q10*%
X25100000Y-35630000D02*
X28700000Y-35630000D01*
X24543600Y-32681193D02*
G75*
G02*
X26900000Y-31180000I2356400J-1098807D01*
G01*
X25100000Y-35630000D02*
G75*
G02*
X24575816Y-34902795I1800000J1850000D01*
G01*
X26900000Y-31180000D02*
G75*
G02*
X29256400Y-32681193I0J-2600000D01*
G01*
X29224184Y-34902795D02*
G75*
G02*
X28700000Y-35630000I-2324184J1122795D01*
G01*
%TO.C,C1*%
X93630000Y-15130000D02*
X96370000Y-15130000D01*
X93630000Y-20370000D02*
X93630000Y-15130000D01*
X96370000Y-15130000D02*
X96370000Y-20370000D01*
X96370000Y-20370000D02*
X93630000Y-20370000D01*
%TO.C,R4*%
X10370000Y-24255000D02*
X12980000Y-24255000D01*
X10370000Y-24255000D02*
G75*
G02*
X7630000Y-24255000I-1370000J0D01*
G01*
X7630000Y-24255000D02*
G75*
G02*
X10370000Y-24255000I1370000J0D01*
G01*
%TO.C,R23*%
X64000000Y-87370000D02*
X64000000Y-89980000D01*
X65370000Y-86000000D02*
G75*
G02*
X62630000Y-86000000I-1370000J0D01*
G01*
X62630000Y-86000000D02*
G75*
G02*
X65370000Y-86000000I1370000J0D01*
G01*
%TO.C,R17*%
X40000000Y-87370000D02*
X40000000Y-89980000D01*
X41370000Y-86000000D02*
G75*
G02*
X38630000Y-86000000I-1370000J0D01*
G01*
X38630000Y-86000000D02*
G75*
G02*
X41370000Y-86000000I1370000J0D01*
G01*
%TO.C,R15*%
X40000000Y-53370000D02*
X40000000Y-55980000D01*
X41370000Y-52000000D02*
G75*
G02*
X38630000Y-52000000I-1370000J0D01*
G01*
X38630000Y-52000000D02*
G75*
G02*
X41370000Y-52000000I1370000J0D01*
G01*
%TO.C,C3*%
X44630000Y-62630000D02*
X47370000Y-62630000D01*
X44630000Y-67870000D02*
X44630000Y-62630000D01*
X47370000Y-62630000D02*
X47370000Y-67870000D01*
X47370000Y-67870000D02*
X44630000Y-67870000D01*
%TO.C,Q2*%
X21020000Y-17960000D02*
X17420000Y-17960000D01*
X16895816Y-18687205D02*
G75*
G02*
X17420000Y-17960000I2324184J-1122795D01*
G01*
X19220000Y-22410000D02*
G75*
G02*
X16863600Y-20908807I0J2600000D01*
G01*
X21020000Y-17960000D02*
G75*
G02*
X21544184Y-18687205I-1800000J-1850000D01*
G01*
X21576400Y-20908807D02*
G75*
G02*
X19220000Y-22410000I-2356400J1098807D01*
G01*
%TO.C,R22*%
X76000000Y-87370000D02*
X76000000Y-89980000D01*
X77370000Y-86000000D02*
G75*
G02*
X74630000Y-86000000I-1370000J0D01*
G01*
X74630000Y-86000000D02*
G75*
G02*
X77370000Y-86000000I1370000J0D01*
G01*
%TO.C,R10*%
X10370000Y-45845000D02*
X12980000Y-45845000D01*
X10370000Y-45845000D02*
G75*
G02*
X7630000Y-45845000I-1370000J0D01*
G01*
X7630000Y-45845000D02*
G75*
G02*
X10370000Y-45845000I1370000J0D01*
G01*
%TO.C,R11*%
X18050000Y-45845000D02*
X20660000Y-45845000D01*
X18050000Y-45845000D02*
G75*
G02*
X15310000Y-45845000I-1370000J0D01*
G01*
X15310000Y-45845000D02*
G75*
G02*
X18050000Y-45845000I1370000J0D01*
G01*
%TO.C,Q6*%
X21020000Y-26215000D02*
X17420000Y-26215000D01*
X16895816Y-26942205D02*
G75*
G02*
X17420000Y-26215000I2324184J-1122795D01*
G01*
X19220000Y-30665000D02*
G75*
G02*
X16863600Y-29163807I0J2600000D01*
G01*
X21020000Y-26215000D02*
G75*
G02*
X21544184Y-26942205I-1800000J-1850000D01*
G01*
X21576400Y-29163807D02*
G75*
G02*
X19220000Y-30665000I-2356400J1098807D01*
G01*
%TO.C,C4*%
X56960000Y-65000000D02*
X55420000Y-65000000D01*
X56960000Y-65040000D02*
X55420000Y-65040000D01*
X56960000Y-65080000D02*
X55421000Y-65080000D01*
X56960000Y-65120000D02*
X55423000Y-65120000D01*
X56960000Y-65160000D02*
X55425000Y-65160000D01*
X56960000Y-65200000D02*
X55428000Y-65200000D01*
X56960000Y-65240000D02*
X55431000Y-65240000D01*
X56960000Y-65280000D02*
X55435000Y-65280000D01*
X56960000Y-65320000D02*
X55440000Y-65320000D01*
X56960000Y-65360000D02*
X55445000Y-65360000D01*
X56960000Y-65400000D02*
X55451000Y-65400000D01*
X56960000Y-65440000D02*
X55457000Y-65440000D01*
X56960000Y-65480000D02*
X55464000Y-65480000D01*
X56960000Y-65520000D02*
X55472000Y-65520000D01*
X56960000Y-65560000D02*
X55481000Y-65560000D01*
X56960000Y-65600000D02*
X55490000Y-65600000D01*
X56960000Y-65640000D02*
X55499000Y-65640000D01*
X56960000Y-65680000D02*
X55510000Y-65680000D01*
X56960000Y-65720000D02*
X55521000Y-65720000D01*
X56960000Y-65760000D02*
X55533000Y-65760000D01*
X56960000Y-65800000D02*
X55545000Y-65800000D01*
X56960000Y-65840000D02*
X55558000Y-65840000D01*
X56960000Y-65880000D02*
X55572000Y-65880000D01*
X56960000Y-65920000D02*
X55587000Y-65920000D01*
X56960000Y-65960000D02*
X55602000Y-65960000D01*
X56960000Y-66000000D02*
X55618000Y-66000000D01*
X56960000Y-66040000D02*
X55635000Y-66040000D01*
X56960000Y-66080000D02*
X55653000Y-66080000D01*
X56960000Y-66120000D02*
X55671000Y-66120000D01*
X56960000Y-66160000D02*
X55691000Y-66160000D01*
X56960000Y-66200000D02*
X55711000Y-66200000D01*
X56960000Y-66240000D02*
X55732000Y-66240000D01*
X56960000Y-66280000D02*
X55754000Y-66280000D01*
X56960000Y-66320000D02*
X55777000Y-66320000D01*
X56960000Y-66360000D02*
X55801000Y-66360000D01*
X56960000Y-66400000D02*
X55825000Y-66400000D01*
X56960000Y-66440000D02*
X55851000Y-66440000D01*
X56960000Y-66480000D02*
X55878000Y-66480000D01*
X56960000Y-66520000D02*
X55906000Y-66520000D01*
X56960000Y-66560000D02*
X55935000Y-66560000D01*
X56960000Y-66600000D02*
X55965000Y-66600000D01*
X56960000Y-66640000D02*
X55997000Y-66640000D01*
X56960000Y-66680000D02*
X56030000Y-66680000D01*
X56960000Y-66720000D02*
X56064000Y-66720000D01*
X56960000Y-66760000D02*
X56099000Y-66760000D01*
X56960000Y-66800000D02*
X56136000Y-66800000D01*
X56960000Y-66840000D02*
X56175000Y-66840000D01*
X56960000Y-66880000D02*
X56215000Y-66880000D01*
X56960000Y-66920000D02*
X56257000Y-66920000D01*
X56960000Y-66960000D02*
X56301000Y-66960000D01*
X56960000Y-67000000D02*
X56348000Y-67000000D01*
X58283000Y-67600000D02*
X57717000Y-67600000D01*
X58517000Y-67560000D02*
X57483000Y-67560000D01*
X58677000Y-67520000D02*
X57323000Y-67520000D01*
X58805000Y-67480000D02*
X57195000Y-67480000D01*
X58914000Y-67440000D02*
X57086000Y-67440000D01*
X59011000Y-67400000D02*
X56989000Y-67400000D01*
X59098000Y-67360000D02*
X56902000Y-67360000D01*
X59177000Y-67320000D02*
X56823000Y-67320000D01*
X59251000Y-67280000D02*
X56749000Y-67280000D01*
X59319000Y-67240000D02*
X56681000Y-67240000D01*
X59383000Y-67200000D02*
X56617000Y-67200000D01*
X59443000Y-67160000D02*
X56557000Y-67160000D01*
X59475000Y-62195225D02*
X59475000Y-62695225D01*
X59499000Y-67120000D02*
X56501000Y-67120000D01*
X59553000Y-67080000D02*
X56447000Y-67080000D01*
X59604000Y-67040000D02*
X56396000Y-67040000D01*
X59652000Y-67000000D02*
X59040000Y-67000000D01*
X59699000Y-66960000D02*
X59040000Y-66960000D01*
X59725000Y-62445225D02*
X59225000Y-62445225D01*
X59743000Y-66920000D02*
X59040000Y-66920000D01*
X59785000Y-66880000D02*
X59040000Y-66880000D01*
X59825000Y-66840000D02*
X59040000Y-66840000D01*
X59864000Y-66800000D02*
X59040000Y-66800000D01*
X59901000Y-66760000D02*
X59040000Y-66760000D01*
X59936000Y-66720000D02*
X59040000Y-66720000D01*
X59970000Y-66680000D02*
X59040000Y-66680000D01*
X60003000Y-66640000D02*
X59040000Y-66640000D01*
X60035000Y-66600000D02*
X59040000Y-66600000D01*
X60065000Y-66560000D02*
X59040000Y-66560000D01*
X60094000Y-66520000D02*
X59040000Y-66520000D01*
X60122000Y-66480000D02*
X59040000Y-66480000D01*
X60149000Y-66440000D02*
X59040000Y-66440000D01*
X60175000Y-66400000D02*
X59040000Y-66400000D01*
X60199000Y-66360000D02*
X59040000Y-66360000D01*
X60223000Y-66320000D02*
X59040000Y-66320000D01*
X60246000Y-66280000D02*
X59040000Y-66280000D01*
X60268000Y-66240000D02*
X59040000Y-66240000D01*
X60289000Y-66200000D02*
X59040000Y-66200000D01*
X60309000Y-66160000D02*
X59040000Y-66160000D01*
X60329000Y-66120000D02*
X59040000Y-66120000D01*
X60347000Y-66080000D02*
X59040000Y-66080000D01*
X60365000Y-66040000D02*
X59040000Y-66040000D01*
X60382000Y-66000000D02*
X59040000Y-66000000D01*
X60398000Y-65960000D02*
X59040000Y-65960000D01*
X60413000Y-65920000D02*
X59040000Y-65920000D01*
X60428000Y-65880000D02*
X59040000Y-65880000D01*
X60442000Y-65840000D02*
X59040000Y-65840000D01*
X60455000Y-65800000D02*
X59040000Y-65800000D01*
X60467000Y-65760000D02*
X59040000Y-65760000D01*
X60479000Y-65720000D02*
X59040000Y-65720000D01*
X60490000Y-65680000D02*
X59040000Y-65680000D01*
X60501000Y-65640000D02*
X59040000Y-65640000D01*
X60510000Y-65600000D02*
X59040000Y-65600000D01*
X60519000Y-65560000D02*
X59040000Y-65560000D01*
X60528000Y-65520000D02*
X59040000Y-65520000D01*
X60536000Y-65480000D02*
X59040000Y-65480000D01*
X60543000Y-65440000D02*
X59040000Y-65440000D01*
X60549000Y-65400000D02*
X59040000Y-65400000D01*
X60555000Y-65360000D02*
X59040000Y-65360000D01*
X60560000Y-65320000D02*
X59040000Y-65320000D01*
X60565000Y-65280000D02*
X59040000Y-65280000D01*
X60569000Y-65240000D02*
X59040000Y-65240000D01*
X60572000Y-65200000D02*
X59040000Y-65200000D01*
X60575000Y-65160000D02*
X59040000Y-65160000D01*
X60577000Y-65120000D02*
X59040000Y-65120000D01*
X60579000Y-65080000D02*
X59040000Y-65080000D01*
X60580000Y-65000000D02*
X59040000Y-65000000D01*
X60580000Y-65040000D02*
X59040000Y-65040000D01*
X60620000Y-65000000D02*
G75*
G02*
X55380000Y-65000000I-2620000J0D01*
G01*
X55380000Y-65000000D02*
G75*
G02*
X60620000Y-65000000I2620000J0D01*
G01*
%TO.C,RV1*%
X62880000Y-51620000D02*
X67600000Y-51620000D01*
X62880000Y-52810000D02*
X62880000Y-51630000D01*
X62880000Y-55710000D02*
X62880000Y-55180000D01*
X62880000Y-58160000D02*
X62880000Y-57330000D01*
X62880000Y-61370000D02*
X62880000Y-59880000D01*
X62880000Y-61370000D02*
X67600000Y-61370000D01*
X71410000Y-51630000D02*
X74470000Y-51630000D01*
X71410000Y-61370000D02*
X74470000Y-61370000D01*
X74470000Y-61370000D02*
X74470000Y-51630000D01*
%TO.C,C6*%
X56960000Y-87000000D02*
X55420000Y-87000000D01*
X56960000Y-87040000D02*
X55420000Y-87040000D01*
X56960000Y-87080000D02*
X55421000Y-87080000D01*
X56960000Y-87120000D02*
X55423000Y-87120000D01*
X56960000Y-87160000D02*
X55425000Y-87160000D01*
X56960000Y-87200000D02*
X55428000Y-87200000D01*
X56960000Y-87240000D02*
X55431000Y-87240000D01*
X56960000Y-87280000D02*
X55435000Y-87280000D01*
X56960000Y-87320000D02*
X55440000Y-87320000D01*
X56960000Y-87360000D02*
X55445000Y-87360000D01*
X56960000Y-87400000D02*
X55451000Y-87400000D01*
X56960000Y-87440000D02*
X55457000Y-87440000D01*
X56960000Y-87480000D02*
X55464000Y-87480000D01*
X56960000Y-87520000D02*
X55472000Y-87520000D01*
X56960000Y-87560000D02*
X55481000Y-87560000D01*
X56960000Y-87600000D02*
X55490000Y-87600000D01*
X56960000Y-87640000D02*
X55499000Y-87640000D01*
X56960000Y-87680000D02*
X55510000Y-87680000D01*
X56960000Y-87720000D02*
X55521000Y-87720000D01*
X56960000Y-87760000D02*
X55533000Y-87760000D01*
X56960000Y-87800000D02*
X55545000Y-87800000D01*
X56960000Y-87840000D02*
X55558000Y-87840000D01*
X56960000Y-87880000D02*
X55572000Y-87880000D01*
X56960000Y-87920000D02*
X55587000Y-87920000D01*
X56960000Y-87960000D02*
X55602000Y-87960000D01*
X56960000Y-88000000D02*
X55618000Y-88000000D01*
X56960000Y-88040000D02*
X55635000Y-88040000D01*
X56960000Y-88080000D02*
X55653000Y-88080000D01*
X56960000Y-88120000D02*
X55671000Y-88120000D01*
X56960000Y-88160000D02*
X55691000Y-88160000D01*
X56960000Y-88200000D02*
X55711000Y-88200000D01*
X56960000Y-88240000D02*
X55732000Y-88240000D01*
X56960000Y-88280000D02*
X55754000Y-88280000D01*
X56960000Y-88320000D02*
X55777000Y-88320000D01*
X56960000Y-88360000D02*
X55801000Y-88360000D01*
X56960000Y-88400000D02*
X55825000Y-88400000D01*
X56960000Y-88440000D02*
X55851000Y-88440000D01*
X56960000Y-88480000D02*
X55878000Y-88480000D01*
X56960000Y-88520000D02*
X55906000Y-88520000D01*
X56960000Y-88560000D02*
X55935000Y-88560000D01*
X56960000Y-88600000D02*
X55965000Y-88600000D01*
X56960000Y-88640000D02*
X55997000Y-88640000D01*
X56960000Y-88680000D02*
X56030000Y-88680000D01*
X56960000Y-88720000D02*
X56064000Y-88720000D01*
X56960000Y-88760000D02*
X56099000Y-88760000D01*
X56960000Y-88800000D02*
X56136000Y-88800000D01*
X56960000Y-88840000D02*
X56175000Y-88840000D01*
X56960000Y-88880000D02*
X56215000Y-88880000D01*
X56960000Y-88920000D02*
X56257000Y-88920000D01*
X56960000Y-88960000D02*
X56301000Y-88960000D01*
X56960000Y-89000000D02*
X56348000Y-89000000D01*
X58283000Y-89600000D02*
X57717000Y-89600000D01*
X58517000Y-89560000D02*
X57483000Y-89560000D01*
X58677000Y-89520000D02*
X57323000Y-89520000D01*
X58805000Y-89480000D02*
X57195000Y-89480000D01*
X58914000Y-89440000D02*
X57086000Y-89440000D01*
X59011000Y-89400000D02*
X56989000Y-89400000D01*
X59098000Y-89360000D02*
X56902000Y-89360000D01*
X59177000Y-89320000D02*
X56823000Y-89320000D01*
X59251000Y-89280000D02*
X56749000Y-89280000D01*
X59319000Y-89240000D02*
X56681000Y-89240000D01*
X59383000Y-89200000D02*
X56617000Y-89200000D01*
X59443000Y-89160000D02*
X56557000Y-89160000D01*
X59475000Y-84195225D02*
X59475000Y-84695225D01*
X59499000Y-89120000D02*
X56501000Y-89120000D01*
X59553000Y-89080000D02*
X56447000Y-89080000D01*
X59604000Y-89040000D02*
X56396000Y-89040000D01*
X59652000Y-89000000D02*
X59040000Y-89000000D01*
X59699000Y-88960000D02*
X59040000Y-88960000D01*
X59725000Y-84445225D02*
X59225000Y-84445225D01*
X59743000Y-88920000D02*
X59040000Y-88920000D01*
X59785000Y-88880000D02*
X59040000Y-88880000D01*
X59825000Y-88840000D02*
X59040000Y-88840000D01*
X59864000Y-88800000D02*
X59040000Y-88800000D01*
X59901000Y-88760000D02*
X59040000Y-88760000D01*
X59936000Y-88720000D02*
X59040000Y-88720000D01*
X59970000Y-88680000D02*
X59040000Y-88680000D01*
X60003000Y-88640000D02*
X59040000Y-88640000D01*
X60035000Y-88600000D02*
X59040000Y-88600000D01*
X60065000Y-88560000D02*
X59040000Y-88560000D01*
X60094000Y-88520000D02*
X59040000Y-88520000D01*
X60122000Y-88480000D02*
X59040000Y-88480000D01*
X60149000Y-88440000D02*
X59040000Y-88440000D01*
X60175000Y-88400000D02*
X59040000Y-88400000D01*
X60199000Y-88360000D02*
X59040000Y-88360000D01*
X60223000Y-88320000D02*
X59040000Y-88320000D01*
X60246000Y-88280000D02*
X59040000Y-88280000D01*
X60268000Y-88240000D02*
X59040000Y-88240000D01*
X60289000Y-88200000D02*
X59040000Y-88200000D01*
X60309000Y-88160000D02*
X59040000Y-88160000D01*
X60329000Y-88120000D02*
X59040000Y-88120000D01*
X60347000Y-88080000D02*
X59040000Y-88080000D01*
X60365000Y-88040000D02*
X59040000Y-88040000D01*
X60382000Y-88000000D02*
X59040000Y-88000000D01*
X60398000Y-87960000D02*
X59040000Y-87960000D01*
X60413000Y-87920000D02*
X59040000Y-87920000D01*
X60428000Y-87880000D02*
X59040000Y-87880000D01*
X60442000Y-87840000D02*
X59040000Y-87840000D01*
X60455000Y-87800000D02*
X59040000Y-87800000D01*
X60467000Y-87760000D02*
X59040000Y-87760000D01*
X60479000Y-87720000D02*
X59040000Y-87720000D01*
X60490000Y-87680000D02*
X59040000Y-87680000D01*
X60501000Y-87640000D02*
X59040000Y-87640000D01*
X60510000Y-87600000D02*
X59040000Y-87600000D01*
X60519000Y-87560000D02*
X59040000Y-87560000D01*
X60528000Y-87520000D02*
X59040000Y-87520000D01*
X60536000Y-87480000D02*
X59040000Y-87480000D01*
X60543000Y-87440000D02*
X59040000Y-87440000D01*
X60549000Y-87400000D02*
X59040000Y-87400000D01*
X60555000Y-87360000D02*
X59040000Y-87360000D01*
X60560000Y-87320000D02*
X59040000Y-87320000D01*
X60565000Y-87280000D02*
X59040000Y-87280000D01*
X60569000Y-87240000D02*
X59040000Y-87240000D01*
X60572000Y-87200000D02*
X59040000Y-87200000D01*
X60575000Y-87160000D02*
X59040000Y-87160000D01*
X60577000Y-87120000D02*
X59040000Y-87120000D01*
X60579000Y-87080000D02*
X59040000Y-87080000D01*
X60580000Y-87000000D02*
X59040000Y-87000000D01*
X60580000Y-87040000D02*
X59040000Y-87040000D01*
X60620000Y-87000000D02*
G75*
G02*
X55380000Y-87000000I-2620000J0D01*
G01*
X55380000Y-87000000D02*
G75*
G02*
X60620000Y-87000000I2620000J0D01*
G01*
%TO.C,R18*%
X46000000Y-87370000D02*
X46000000Y-89980000D01*
X47370000Y-86000000D02*
G75*
G02*
X44630000Y-86000000I-1370000J0D01*
G01*
X44630000Y-86000000D02*
G75*
G02*
X47370000Y-86000000I1370000J0D01*
G01*
%TO.C,R6*%
X25730000Y-24255000D02*
X28340000Y-24255000D01*
X25730000Y-24255000D02*
G75*
G02*
X22990000Y-24255000I-1370000J0D01*
G01*
X22990000Y-24255000D02*
G75*
G02*
X25730000Y-24255000I1370000J0D01*
G01*
%TO.C,Q18*%
X23830000Y-67850000D02*
X27430000Y-67850000D01*
X23273600Y-64901193D02*
G75*
G02*
X25630000Y-63400000I2356400J-1098807D01*
G01*
X23830000Y-67850000D02*
G75*
G02*
X23305816Y-67122795I1800000J1850000D01*
G01*
X25630000Y-63400000D02*
G75*
G02*
X27986400Y-64901193I0J-2600000D01*
G01*
X27954184Y-67122795D02*
G75*
G02*
X27430000Y-67850000I-2324184J1122795D01*
G01*
%TO.C,Q16*%
X40740000Y-35850000D02*
X44340000Y-35850000D01*
X40183600Y-32901193D02*
G75*
G02*
X42540000Y-31400000I2356400J-1098807D01*
G01*
X40740000Y-35850000D02*
G75*
G02*
X40215816Y-35122795I1800000J1850000D01*
G01*
X42540000Y-31400000D02*
G75*
G02*
X44896400Y-32901193I0J-2600000D01*
G01*
X44864184Y-35122795D02*
G75*
G02*
X44340000Y-35850000I-2324184J1122795D01*
G01*
%TO.C,R19*%
X82000000Y-65370000D02*
X82000000Y-67980000D01*
X83370000Y-64000000D02*
G75*
G02*
X80630000Y-64000000I-1370000J0D01*
G01*
X80630000Y-64000000D02*
G75*
G02*
X83370000Y-64000000I1370000J0D01*
G01*
%TO.C,R21*%
X70000000Y-87370000D02*
X70000000Y-89980000D01*
X71370000Y-86000000D02*
G75*
G02*
X68630000Y-86000000I-1370000J0D01*
G01*
X68630000Y-86000000D02*
G75*
G02*
X71370000Y-86000000I1370000J0D01*
G01*
D13*
%TO.C,LOGO*%
G36*
X54790000Y-44354000D02*
G01*
X54828000Y-44359000D01*
X54866000Y-44369000D01*
X54903000Y-44384000D01*
X54939000Y-44403000D01*
X54975000Y-44427000D01*
X55016000Y-44464000D01*
X55050000Y-44504000D01*
X55077000Y-44548000D01*
X55097000Y-44593000D01*
X55109000Y-44641000D01*
X55113000Y-44689000D01*
X55111000Y-44738000D01*
X55101000Y-44786000D01*
X55083000Y-44833000D01*
X55058000Y-44879000D01*
X55026000Y-44921000D01*
X54986000Y-44960000D01*
X54965000Y-44977000D01*
X54942000Y-44992000D01*
X54918000Y-45005000D01*
X54894000Y-45017000D01*
X54868000Y-45026000D01*
X54843000Y-45033000D01*
X54817000Y-45038000D01*
X54791000Y-45041000D01*
X54765000Y-45042000D01*
X54739000Y-45041000D01*
X54714000Y-45037000D01*
X54690000Y-45031000D01*
X54629000Y-45006000D01*
X54575000Y-44973000D01*
X54529000Y-44932000D01*
X54492000Y-44885000D01*
X54463000Y-44833000D01*
X54443000Y-44778000D01*
X54433000Y-44721000D01*
X54433000Y-44663000D01*
X54443000Y-44605000D01*
X54463000Y-44550000D01*
X54495000Y-44498000D01*
X54537000Y-44450000D01*
X54571000Y-44422000D01*
X54605000Y-44399000D01*
X54641000Y-44381000D01*
X54678000Y-44367000D01*
X54715000Y-44358000D01*
X54752000Y-44353000D01*
X54790000Y-44354000D01*
G37*
G36*
X49316000Y-38901000D02*
G01*
X49381000Y-38928000D01*
X49441000Y-38971000D01*
X49494000Y-39030000D01*
X49508000Y-39050000D01*
X49520000Y-39072000D01*
X49530000Y-39094000D01*
X49539000Y-39118000D01*
X49546000Y-39142000D01*
X49552000Y-39166000D01*
X49556000Y-39191000D01*
X49558000Y-39216000D01*
X49558000Y-39241000D01*
X49557000Y-39266000D01*
X49554000Y-39291000D01*
X49549000Y-39315000D01*
X49541000Y-39341000D01*
X49529000Y-39368000D01*
X49515000Y-39394000D01*
X49498000Y-39419000D01*
X49479000Y-39444000D01*
X49458000Y-39467000D01*
X49435000Y-39489000D01*
X49411000Y-39509000D01*
X49386000Y-39526000D01*
X49361000Y-39541000D01*
X49335000Y-39552000D01*
X49310000Y-39561000D01*
X49290000Y-39566000D01*
X49272000Y-39570000D01*
X49256000Y-39573000D01*
X49241000Y-39575000D01*
X49228000Y-39576000D01*
X49215000Y-39576000D01*
X49201000Y-39575000D01*
X49188000Y-39573000D01*
X49173000Y-39570000D01*
X49157000Y-39566000D01*
X49140000Y-39561000D01*
X49120000Y-39555000D01*
X49084000Y-39542000D01*
X49051000Y-39526000D01*
X49019000Y-39506000D01*
X48991000Y-39484000D01*
X48965000Y-39459000D01*
X48943000Y-39432000D01*
X48923000Y-39403000D01*
X48907000Y-39371000D01*
X48894000Y-39338000D01*
X48885000Y-39304000D01*
X48879000Y-39267000D01*
X48877000Y-39230000D01*
X48886000Y-39151000D01*
X48911000Y-39081000D01*
X48948000Y-39020000D01*
X48995000Y-38970000D01*
X49052000Y-38931000D01*
X49114000Y-38904000D01*
X49180000Y-38889000D01*
X49249000Y-38888000D01*
X49316000Y-38901000D01*
G37*
G36*
X54838000Y-38893000D02*
G01*
X54902000Y-38913000D01*
X54963000Y-38946000D01*
X55018000Y-38995000D01*
X55055000Y-39041000D01*
X55082000Y-39089000D01*
X55101000Y-39139000D01*
X55112000Y-39190000D01*
X55115000Y-39242000D01*
X55109000Y-39293000D01*
X55096000Y-39342000D01*
X55075000Y-39390000D01*
X55046000Y-39434000D01*
X55010000Y-39474000D01*
X54966000Y-39510000D01*
X54916000Y-39540000D01*
X54899000Y-39548000D01*
X54881000Y-39554000D01*
X54861000Y-39560000D01*
X54841000Y-39564000D01*
X54819000Y-39568000D01*
X54797000Y-39570000D01*
X54775000Y-39571000D01*
X54753000Y-39572000D01*
X54732000Y-39571000D01*
X54711000Y-39569000D01*
X54692000Y-39566000D01*
X54673000Y-39561000D01*
X54665000Y-39559000D01*
X54657000Y-39556000D01*
X54647000Y-39551000D01*
X54638000Y-39547000D01*
X54627000Y-39541000D01*
X54617000Y-39535000D01*
X54606000Y-39529000D01*
X54596000Y-39522000D01*
X54586000Y-39515000D01*
X54576000Y-39508000D01*
X54567000Y-39501000D01*
X54558000Y-39494000D01*
X54538000Y-39476000D01*
X54519000Y-39457000D01*
X54503000Y-39438000D01*
X54488000Y-39418000D01*
X54475000Y-39397000D01*
X54464000Y-39376000D01*
X54455000Y-39354000D01*
X54448000Y-39331000D01*
X54442000Y-39308000D01*
X54438000Y-39283000D01*
X54435000Y-39257000D01*
X54434000Y-39230000D01*
X54441000Y-39156000D01*
X54462000Y-39090000D01*
X54494000Y-39031000D01*
X54537000Y-38981000D01*
X54589000Y-38941000D01*
X54646000Y-38912000D01*
X54708000Y-38893000D01*
X54773000Y-38887000D01*
X54838000Y-38893000D01*
G37*
G36*
X52795000Y-44246000D02*
G01*
X52841000Y-44251000D01*
X52876000Y-44261000D01*
X52901000Y-44278000D01*
X52919000Y-44303000D01*
X52929000Y-44337000D01*
X52935000Y-44383000D01*
X52938000Y-44442000D01*
X52938000Y-44515000D01*
X52939000Y-44605000D01*
X52944000Y-44908000D01*
X52907000Y-44950000D01*
X52871000Y-44993000D01*
X52584000Y-44997000D01*
X52532000Y-44997000D01*
X52486000Y-44997000D01*
X52445000Y-44997000D01*
X52409000Y-44997000D01*
X52378000Y-44996000D01*
X52351000Y-44995000D01*
X52328000Y-44994000D01*
X52309000Y-44992000D01*
X52293000Y-44990000D01*
X52280000Y-44987000D01*
X52270000Y-44984000D01*
X52262000Y-44980000D01*
X52247000Y-44971000D01*
X52233000Y-44960000D01*
X52222000Y-44948000D01*
X52213000Y-44934000D01*
X52206000Y-44916000D01*
X52200000Y-44893000D01*
X52195000Y-44866000D01*
X52192000Y-44832000D01*
X52190000Y-44791000D01*
X52188000Y-44743000D01*
X52188000Y-44685000D01*
X52187000Y-44618000D01*
X52187000Y-44552000D01*
X52188000Y-44495000D01*
X52190000Y-44445000D01*
X52192000Y-44403000D01*
X52195000Y-44368000D01*
X52199000Y-44338000D01*
X52205000Y-44314000D01*
X52212000Y-44295000D01*
X52220000Y-44280000D01*
X52230000Y-44269000D01*
X52241000Y-44260000D01*
X52254000Y-44254000D01*
X52271000Y-44252000D01*
X52287000Y-44250000D01*
X52306000Y-44249000D01*
X52330000Y-44248000D01*
X52357000Y-44248000D01*
X52387000Y-44247000D01*
X52420000Y-44246000D01*
X52456000Y-44246000D01*
X52493000Y-44245000D01*
X52532000Y-44245000D01*
X52571000Y-44245000D01*
X52662000Y-44244000D01*
X52735000Y-44244000D01*
X52795000Y-44246000D01*
G37*
G36*
X53634000Y-44245000D02*
G01*
X53698000Y-44245000D01*
X53753000Y-44245000D01*
X53799000Y-44246000D01*
X53836000Y-44246000D01*
X53867000Y-44248000D01*
X53892000Y-44249000D01*
X53912000Y-44252000D01*
X53928000Y-44255000D01*
X53941000Y-44259000D01*
X53952000Y-44263000D01*
X53961000Y-44269000D01*
X53970000Y-44276000D01*
X54009000Y-44306000D01*
X54009000Y-44615000D01*
X54009000Y-44924000D01*
X53963000Y-44962000D01*
X53953000Y-44971000D01*
X53943000Y-44978000D01*
X53933000Y-44984000D01*
X53921000Y-44989000D01*
X53907000Y-44993000D01*
X53890000Y-44995000D01*
X53867000Y-44997000D01*
X53840000Y-44999000D01*
X53805000Y-44999000D01*
X53762000Y-45000000D01*
X53710000Y-44999000D01*
X53649000Y-44999000D01*
X53612000Y-44999000D01*
X53576000Y-44999000D01*
X53542000Y-44998000D01*
X53510000Y-44998000D01*
X53480000Y-44997000D01*
X53452000Y-44996000D01*
X53427000Y-44995000D01*
X53405000Y-44994000D01*
X53387000Y-44993000D01*
X53373000Y-44992000D01*
X53357000Y-44990000D01*
X53350000Y-44987000D01*
X53341000Y-44982000D01*
X53332000Y-44975000D01*
X53321000Y-44968000D01*
X53311000Y-44960000D01*
X53302000Y-44951000D01*
X53294000Y-44944000D01*
X53288000Y-44937000D01*
X53283000Y-44928000D01*
X53278000Y-44917000D01*
X53275000Y-44903000D01*
X53273000Y-44884000D01*
X53271000Y-44860000D01*
X53270000Y-44828000D01*
X53269000Y-44789000D01*
X53268000Y-44742000D01*
X53268000Y-44684000D01*
X53268000Y-44615000D01*
X53268000Y-44523000D01*
X53268000Y-44448000D01*
X53269000Y-44387000D01*
X53275000Y-44340000D01*
X53285000Y-44305000D01*
X53302000Y-44279000D01*
X53327000Y-44262000D01*
X53362000Y-44251000D01*
X53409000Y-44246000D01*
X53469000Y-44244000D01*
X53543000Y-44244000D01*
X53634000Y-44245000D01*
G37*
G36*
X49238000Y-44357000D02*
G01*
X49274000Y-44362000D01*
X49310000Y-44370000D01*
X49344000Y-44381000D01*
X49377000Y-44395000D01*
X49408000Y-44412000D01*
X49436000Y-44433000D01*
X49462000Y-44456000D01*
X49484000Y-44483000D01*
X49504000Y-44512000D01*
X49520000Y-44543000D01*
X49534000Y-44576000D01*
X49544000Y-44610000D01*
X49551000Y-44645000D01*
X49555000Y-44680000D01*
X49556000Y-44715000D01*
X49553000Y-44750000D01*
X49547000Y-44784000D01*
X49537000Y-44816000D01*
X49523000Y-44847000D01*
X49511000Y-44867000D01*
X49498000Y-44887000D01*
X49483000Y-44907000D01*
X49466000Y-44926000D01*
X49448000Y-44944000D01*
X49428000Y-44961000D01*
X49408000Y-44976000D01*
X49388000Y-44991000D01*
X49367000Y-45003000D01*
X49346000Y-45014000D01*
X49326000Y-45022000D01*
X49305000Y-45028000D01*
X49287000Y-45033000D01*
X49270000Y-45036000D01*
X49255000Y-45039000D01*
X49240000Y-45041000D01*
X49225000Y-45042000D01*
X49211000Y-45042000D01*
X49197000Y-45042000D01*
X49183000Y-45041000D01*
X49168000Y-45039000D01*
X49152000Y-45036000D01*
X49136000Y-45032000D01*
X49118000Y-45027000D01*
X49100000Y-45021000D01*
X49081000Y-45013000D01*
X49062000Y-45002000D01*
X49042000Y-44990000D01*
X49023000Y-44976000D01*
X49003000Y-44960000D01*
X48985000Y-44944000D01*
X48967000Y-44926000D01*
X48951000Y-44908000D01*
X48937000Y-44890000D01*
X48924000Y-44872000D01*
X48914000Y-44854000D01*
X48896000Y-44811000D01*
X48884000Y-44767000D01*
X48878000Y-44722000D01*
X48878000Y-44678000D01*
X48883000Y-44634000D01*
X48894000Y-44591000D01*
X48911000Y-44550000D01*
X48932000Y-44512000D01*
X48959000Y-44476000D01*
X48990000Y-44443000D01*
X49026000Y-44414000D01*
X49067000Y-44389000D01*
X49098000Y-44375000D01*
X49131000Y-44365000D01*
X49166000Y-44359000D01*
X49202000Y-44356000D01*
X49238000Y-44357000D01*
G37*
G36*
X51486000Y-44245000D02*
G01*
X51550000Y-44245000D01*
X51605000Y-44245000D01*
X51650000Y-44246000D01*
X51688000Y-44246000D01*
X51719000Y-44248000D01*
X51744000Y-44249000D01*
X51764000Y-44252000D01*
X51780000Y-44255000D01*
X51793000Y-44259000D01*
X51803000Y-44263000D01*
X51813000Y-44269000D01*
X51822000Y-44276000D01*
X51861000Y-44306000D01*
X51861000Y-44608000D01*
X51861000Y-44649000D01*
X51860000Y-44688000D01*
X51860000Y-44727000D01*
X51860000Y-44763000D01*
X51859000Y-44797000D01*
X51858000Y-44828000D01*
X51857000Y-44855000D01*
X51856000Y-44880000D01*
X51855000Y-44900000D01*
X51854000Y-44916000D01*
X51853000Y-44927000D01*
X51845000Y-44946000D01*
X51837000Y-44958000D01*
X51825000Y-44967000D01*
X51810000Y-44975000D01*
X51791000Y-44982000D01*
X51767000Y-44988000D01*
X51738000Y-44992000D01*
X51702000Y-44995000D01*
X51660000Y-44998000D01*
X51611000Y-44999000D01*
X51553000Y-45000000D01*
X51487000Y-45000000D01*
X51447000Y-45000000D01*
X51408000Y-44999000D01*
X51372000Y-44999000D01*
X51339000Y-44998000D01*
X51309000Y-44997000D01*
X51281000Y-44995000D01*
X51257000Y-44994000D01*
X51236000Y-44992000D01*
X51218000Y-44990000D01*
X51204000Y-44988000D01*
X51187000Y-44983000D01*
X51172000Y-44975000D01*
X51160000Y-44966000D01*
X51149000Y-44956000D01*
X51141000Y-44943000D01*
X51134000Y-44927000D01*
X51129000Y-44905000D01*
X51126000Y-44878000D01*
X51123000Y-44844000D01*
X51121000Y-44802000D01*
X51121000Y-44750000D01*
X51120000Y-44688000D01*
X51120000Y-44615000D01*
X51120000Y-44523000D01*
X51120000Y-44448000D01*
X51121000Y-44387000D01*
X51127000Y-44340000D01*
X51137000Y-44305000D01*
X51154000Y-44279000D01*
X51179000Y-44262000D01*
X51214000Y-44251000D01*
X51261000Y-44246000D01*
X51321000Y-44244000D01*
X51395000Y-44244000D01*
X51486000Y-44245000D01*
G37*
G36*
X61167000Y-39130000D02*
G01*
X61231000Y-39140000D01*
X61295000Y-39156000D01*
X61359000Y-39178000D01*
X61409000Y-39199000D01*
X61455000Y-39224000D01*
X61499000Y-39253000D01*
X61538000Y-39285000D01*
X61575000Y-39321000D01*
X61607000Y-39360000D01*
X61637000Y-39402000D01*
X61662000Y-39448000D01*
X61684000Y-39496000D01*
X61702000Y-39548000D01*
X61716000Y-39603000D01*
X61726000Y-39660000D01*
X61733000Y-39725000D01*
X61734000Y-39788000D01*
X61729000Y-39850000D01*
X61719000Y-39910000D01*
X61703000Y-39968000D01*
X61682000Y-40023000D01*
X61657000Y-40076000D01*
X61626000Y-40126000D01*
X61591000Y-40173000D01*
X61551000Y-40216000D01*
X61506000Y-40255000D01*
X61457000Y-40291000D01*
X61420000Y-40313000D01*
X61382000Y-40333000D01*
X61343000Y-40350000D01*
X61304000Y-40365000D01*
X61264000Y-40378000D01*
X61223000Y-40387000D01*
X61182000Y-40395000D01*
X61140000Y-40399000D01*
X61099000Y-40401000D01*
X61057000Y-40401000D01*
X61015000Y-40397000D01*
X60973000Y-40391000D01*
X60943000Y-40385000D01*
X60913000Y-40378000D01*
X60884000Y-40369000D01*
X60856000Y-40359000D01*
X60828000Y-40347000D01*
X60801000Y-40334000D01*
X60774000Y-40319000D01*
X60748000Y-40303000D01*
X60722000Y-40285000D01*
X60697000Y-40266000D01*
X60672000Y-40245000D01*
X60647000Y-40223000D01*
X60588000Y-40157000D01*
X60540000Y-40085000D01*
X60502000Y-40008000D01*
X60476000Y-39926000D01*
X60460000Y-39843000D01*
X60456000Y-39757000D01*
X60462000Y-39673000D01*
X60479000Y-39589000D01*
X60507000Y-39508000D01*
X60546000Y-39432000D01*
X60595000Y-39361000D01*
X60656000Y-39297000D01*
X60705000Y-39256000D01*
X60756000Y-39221000D01*
X60810000Y-39191000D01*
X60866000Y-39167000D01*
X60923000Y-39148000D01*
X60982000Y-39135000D01*
X61043000Y-39128000D01*
X61105000Y-39126000D01*
X61167000Y-39130000D01*
G37*
G36*
X50591000Y-44245000D02*
G01*
X50651000Y-44247000D01*
X50698000Y-44252000D01*
X50733000Y-44263000D01*
X50759000Y-44280000D01*
X50776000Y-44306000D01*
X50787000Y-44341000D01*
X50792000Y-44388000D01*
X50794000Y-44448000D01*
X50794000Y-44523000D01*
X50794000Y-44614000D01*
X50794000Y-44681000D01*
X50794000Y-44737000D01*
X50793000Y-44784000D01*
X50793000Y-44822000D01*
X50791000Y-44852000D01*
X50789000Y-44877000D01*
X50787000Y-44896000D01*
X50783000Y-44910000D01*
X50779000Y-44922000D01*
X50773000Y-44932000D01*
X50766000Y-44942000D01*
X50758000Y-44951000D01*
X50723000Y-44993000D01*
X50436000Y-44997000D01*
X50384000Y-44997000D01*
X50338000Y-44997000D01*
X50297000Y-44997000D01*
X50261000Y-44997000D01*
X50230000Y-44996000D01*
X50203000Y-44995000D01*
X50180000Y-44994000D01*
X50161000Y-44992000D01*
X50145000Y-44990000D01*
X50132000Y-44987000D01*
X50122000Y-44984000D01*
X50114000Y-44980000D01*
X50099000Y-44971000D01*
X50085000Y-44960000D01*
X50074000Y-44948000D01*
X50065000Y-44934000D01*
X50057000Y-44916000D01*
X50052000Y-44893000D01*
X50047000Y-44866000D01*
X50044000Y-44832000D01*
X50042000Y-44791000D01*
X50040000Y-44743000D01*
X50039000Y-44685000D01*
X50039000Y-44618000D01*
X50039000Y-44552000D01*
X50040000Y-44495000D01*
X50041000Y-44445000D01*
X50044000Y-44403000D01*
X50047000Y-44368000D01*
X50051000Y-44338000D01*
X50057000Y-44314000D01*
X50063000Y-44295000D01*
X50072000Y-44280000D01*
X50081000Y-44269000D01*
X50093000Y-44260000D01*
X50106000Y-44254000D01*
X50123000Y-44252000D01*
X50139000Y-44250000D01*
X50159000Y-44249000D01*
X50182000Y-44248000D01*
X50210000Y-44248000D01*
X50240000Y-44247000D01*
X50273000Y-44246000D01*
X50309000Y-44246000D01*
X50346000Y-44245000D01*
X50385000Y-44245000D01*
X50426000Y-44245000D01*
X50516000Y-44244000D01*
X50591000Y-44245000D01*
G37*
G36*
X61216000Y-40716000D02*
G01*
X61296000Y-40737000D01*
X61372000Y-40767000D01*
X61442000Y-40806000D01*
X61505000Y-40854000D01*
X61561000Y-40909000D01*
X61606000Y-40973000D01*
X61641000Y-41044000D01*
X61673000Y-41126000D01*
X61671000Y-42528000D01*
X61671000Y-42863000D01*
X61671000Y-43143000D01*
X61670000Y-43374000D01*
X61668000Y-43560000D01*
X61666000Y-43707000D01*
X61662000Y-43822000D01*
X61658000Y-43908000D01*
X61652000Y-43972000D01*
X61644000Y-44020000D01*
X61634000Y-44055000D01*
X61622000Y-44085000D01*
X61608000Y-44114000D01*
X61589000Y-44146000D01*
X61566000Y-44177000D01*
X61540000Y-44206000D01*
X61511000Y-44235000D01*
X61478000Y-44261000D01*
X61443000Y-44285000D01*
X61406000Y-44307000D01*
X61367000Y-44327000D01*
X61326000Y-44344000D01*
X61284000Y-44359000D01*
X61242000Y-44370000D01*
X61198000Y-44378000D01*
X61172000Y-44382000D01*
X61148000Y-44385000D01*
X61128000Y-44387000D01*
X61110000Y-44389000D01*
X61093000Y-44390000D01*
X61077000Y-44390000D01*
X61061000Y-44390000D01*
X61045000Y-44389000D01*
X61028000Y-44387000D01*
X61009000Y-44384000D01*
X60987000Y-44381000D01*
X60963000Y-44377000D01*
X60920000Y-44368000D01*
X60877000Y-44355000D01*
X60835000Y-44339000D01*
X60794000Y-44319000D01*
X60756000Y-44297000D01*
X60719000Y-44272000D01*
X60684000Y-44244000D01*
X60652000Y-44214000D01*
X60622000Y-44183000D01*
X60596000Y-44149000D01*
X60574000Y-44114000D01*
X60555000Y-44077000D01*
X60520000Y-44000000D01*
X60520000Y-42541000D01*
X60520000Y-41082000D01*
X60553000Y-41014000D01*
X60568000Y-40987000D01*
X60583000Y-40961000D01*
X60599000Y-40936000D01*
X60616000Y-40913000D01*
X60634000Y-40892000D01*
X60654000Y-40871000D01*
X60675000Y-40852000D01*
X60697000Y-40834000D01*
X60720000Y-40816000D01*
X60745000Y-40800000D01*
X60772000Y-40785000D01*
X60801000Y-40770000D01*
X60882000Y-40737000D01*
X60965000Y-40715000D01*
X61049000Y-40705000D01*
X61134000Y-40705000D01*
X61216000Y-40716000D01*
G37*
G36*
X70684000Y-39142000D02*
G01*
X70750000Y-39153000D01*
X70813000Y-39171000D01*
X70872000Y-39195000D01*
X70928000Y-39224000D01*
X70978000Y-39258000D01*
X71024000Y-39297000D01*
X71065000Y-39342000D01*
X71099000Y-39390000D01*
X71128000Y-39443000D01*
X71149000Y-39499000D01*
X71156000Y-39523000D01*
X71162000Y-39552000D01*
X71166000Y-39593000D01*
X71170000Y-39654000D01*
X71173000Y-39742000D01*
X71175000Y-39865000D01*
X71177000Y-40030000D01*
X71178000Y-40245000D01*
X71179000Y-40517000D01*
X71179000Y-40853000D01*
X71179000Y-41262000D01*
X71179000Y-41749000D01*
X71179000Y-42261000D01*
X71179000Y-42689000D01*
X71178000Y-43041000D01*
X71177000Y-43325000D01*
X71175000Y-43549000D01*
X71172000Y-43722000D01*
X71167000Y-43850000D01*
X71161000Y-43942000D01*
X71154000Y-44007000D01*
X71144000Y-44051000D01*
X71133000Y-44084000D01*
X71119000Y-44113000D01*
X71107000Y-44134000D01*
X71091000Y-44156000D01*
X71073000Y-44178000D01*
X71051000Y-44201000D01*
X71028000Y-44224000D01*
X71003000Y-44247000D01*
X70976000Y-44268000D01*
X70950000Y-44289000D01*
X70923000Y-44307000D01*
X70896000Y-44323000D01*
X70871000Y-44337000D01*
X70846000Y-44347000D01*
X70821000Y-44355000D01*
X70793000Y-44363000D01*
X70762000Y-44369000D01*
X70729000Y-44375000D01*
X70694000Y-44379000D01*
X70659000Y-44383000D01*
X70623000Y-44385000D01*
X70588000Y-44386000D01*
X70553000Y-44386000D01*
X70521000Y-44385000D01*
X70490000Y-44382000D01*
X70462000Y-44378000D01*
X70435000Y-44372000D01*
X70406000Y-44364000D01*
X70376000Y-44354000D01*
X70347000Y-44342000D01*
X70317000Y-44329000D01*
X70288000Y-44314000D01*
X70260000Y-44298000D01*
X70233000Y-44282000D01*
X70209000Y-44264000D01*
X70186000Y-44247000D01*
X70166000Y-44229000D01*
X70148000Y-44211000D01*
X70141000Y-44202000D01*
X70133000Y-44191000D01*
X70124000Y-44180000D01*
X70116000Y-44168000D01*
X70107000Y-44156000D01*
X70099000Y-44143000D01*
X70090000Y-44130000D01*
X70082000Y-44117000D01*
X70075000Y-44104000D01*
X70068000Y-44091000D01*
X70061000Y-44079000D01*
X70055000Y-44067000D01*
X70016000Y-43986000D01*
X70016000Y-41763000D01*
X70016000Y-39541000D01*
X70059000Y-39448000D01*
X70083000Y-39403000D01*
X70109000Y-39362000D01*
X70139000Y-39324000D01*
X70173000Y-39289000D01*
X70210000Y-39257000D01*
X70249000Y-39229000D01*
X70292000Y-39204000D01*
X70338000Y-39183000D01*
X70386000Y-39166000D01*
X70436000Y-39153000D01*
X70489000Y-39143000D01*
X70545000Y-39137000D01*
X70615000Y-39136000D01*
X70684000Y-39142000D01*
G37*
G36*
X58534000Y-40584000D02*
G01*
X58624000Y-40589000D01*
X58714000Y-40599000D01*
X58803000Y-40612000D01*
X58890000Y-40629000D01*
X58982000Y-40653000D01*
X59073000Y-40682000D01*
X59163000Y-40716000D01*
X59251000Y-40756000D01*
X59337000Y-40801000D01*
X59420000Y-40850000D01*
X59501000Y-40904000D01*
X59578000Y-40961000D01*
X59651000Y-41023000D01*
X59719000Y-41087000D01*
X59783000Y-41155000D01*
X59841000Y-41226000D01*
X59878000Y-41276000D01*
X59913000Y-41330000D01*
X59946000Y-41387000D01*
X59978000Y-41446000D01*
X60008000Y-41508000D01*
X60036000Y-41571000D01*
X60061000Y-41636000D01*
X60084000Y-41703000D01*
X60105000Y-41770000D01*
X60123000Y-41837000D01*
X60138000Y-41905000D01*
X60150000Y-41972000D01*
X60155000Y-42004000D01*
X60158000Y-42041000D01*
X60162000Y-42083000D01*
X60164000Y-42133000D01*
X60166000Y-42193000D01*
X60168000Y-42264000D01*
X60169000Y-42350000D01*
X60170000Y-42452000D01*
X60170000Y-42572000D01*
X60170000Y-42712000D01*
X60170000Y-42874000D01*
X60169000Y-43060000D01*
X60165000Y-44000000D01*
X60121000Y-44086000D01*
X60099000Y-44125000D01*
X60074000Y-44162000D01*
X60046000Y-44196000D01*
X60015000Y-44228000D01*
X59982000Y-44257000D01*
X59946000Y-44284000D01*
X59907000Y-44307000D01*
X59867000Y-44328000D01*
X59824000Y-44345000D01*
X59780000Y-44360000D01*
X59733000Y-44371000D01*
X59686000Y-44379000D01*
X59617000Y-44384000D01*
X59549000Y-44384000D01*
X59485000Y-44378000D01*
X59422000Y-44366000D01*
X59363000Y-44348000D01*
X59307000Y-44325000D01*
X59255000Y-44297000D01*
X59207000Y-44264000D01*
X59164000Y-44226000D01*
X59125000Y-44183000D01*
X59091000Y-44136000D01*
X59063000Y-44084000D01*
X59024000Y-44000000D01*
X59016000Y-43104000D01*
X59014000Y-42901000D01*
X59013000Y-42730000D01*
X59011000Y-42589000D01*
X59010000Y-42475000D01*
X59008000Y-42384000D01*
X59005000Y-42314000D01*
X59002000Y-42260000D01*
X58999000Y-42219000D01*
X58995000Y-42189000D01*
X58989000Y-42165000D01*
X58983000Y-42146000D01*
X58976000Y-42126000D01*
X58949000Y-42068000D01*
X58917000Y-42015000D01*
X58882000Y-41966000D01*
X58842000Y-41923000D01*
X58799000Y-41885000D01*
X58752000Y-41852000D01*
X58701000Y-41825000D01*
X58647000Y-41804000D01*
X58590000Y-41788000D01*
X58530000Y-41777000D01*
X58467000Y-41773000D01*
X58402000Y-41775000D01*
X58342000Y-41781000D01*
X58285000Y-41793000D01*
X58231000Y-41809000D01*
X58181000Y-41830000D01*
X58134000Y-41855000D01*
X58090000Y-41885000D01*
X58050000Y-41920000D01*
X58013000Y-41959000D01*
X57980000Y-42002000D01*
X57950000Y-42051000D01*
X57924000Y-42103000D01*
X57901000Y-42160000D01*
X57898000Y-42174000D01*
X57895000Y-42199000D01*
X57893000Y-42235000D01*
X57891000Y-42283000D01*
X57888000Y-42342000D01*
X57886000Y-42413000D01*
X57884000Y-42496000D01*
X57882000Y-42592000D01*
X57881000Y-42699000D01*
X57879000Y-42819000D01*
X57878000Y-42951000D01*
X57876000Y-43097000D01*
X57868000Y-43986000D01*
X57829000Y-44069000D01*
X57815000Y-44097000D01*
X57800000Y-44123000D01*
X57784000Y-44148000D01*
X57767000Y-44172000D01*
X57749000Y-44195000D01*
X57730000Y-44216000D01*
X57710000Y-44236000D01*
X57688000Y-44255000D01*
X57666000Y-44273000D01*
X57642000Y-44289000D01*
X57618000Y-44304000D01*
X57592000Y-44318000D01*
X57573000Y-44327000D01*
X57555000Y-44335000D01*
X57538000Y-44342000D01*
X57521000Y-44348000D01*
X57504000Y-44354000D01*
X57485000Y-44359000D01*
X57466000Y-44363000D01*
X57444000Y-44368000D01*
X57420000Y-44372000D01*
X57393000Y-44376000D01*
X57362000Y-44379000D01*
X57327000Y-44384000D01*
X57314000Y-44384000D01*
X57305000Y-44384000D01*
X57295000Y-44384000D01*
X57284000Y-44384000D01*
X57272000Y-44383000D01*
X57259000Y-44383000D01*
X57246000Y-44382000D01*
X57232000Y-44381000D01*
X57219000Y-44380000D01*
X57205000Y-44378000D01*
X57191000Y-44377000D01*
X57159000Y-44373000D01*
X57128000Y-44367000D01*
X57098000Y-44359000D01*
X57069000Y-44350000D01*
X57040000Y-44340000D01*
X57013000Y-44328000D01*
X56986000Y-44314000D01*
X56960000Y-44299000D01*
X56935000Y-44283000D01*
X56911000Y-44265000D01*
X56888000Y-44245000D01*
X56866000Y-44224000D01*
X56846000Y-44204000D01*
X56827000Y-44183000D01*
X56810000Y-44161000D01*
X56795000Y-44139000D01*
X56781000Y-44117000D01*
X56769000Y-44094000D01*
X56757000Y-44071000D01*
X56748000Y-44047000D01*
X56739000Y-44021000D01*
X56731000Y-43995000D01*
X56725000Y-43968000D01*
X56720000Y-43939000D01*
X56715000Y-43884000D01*
X56712000Y-43781000D01*
X56709000Y-43638000D01*
X56707000Y-43465000D01*
X56706000Y-43272000D01*
X56706000Y-43068000D01*
X56706000Y-42861000D01*
X56707000Y-42661000D01*
X56709000Y-42477000D01*
X56712000Y-42318000D01*
X56715000Y-42194000D01*
X56720000Y-42114000D01*
X56730000Y-42014000D01*
X56745000Y-41918000D01*
X56765000Y-41825000D01*
X56789000Y-41734000D01*
X56818000Y-41647000D01*
X56851000Y-41563000D01*
X56890000Y-41481000D01*
X56932000Y-41402000D01*
X56980000Y-41326000D01*
X57033000Y-41252000D01*
X57090000Y-41180000D01*
X57152000Y-41110000D01*
X57201000Y-41061000D01*
X57251000Y-41014000D01*
X57302000Y-40970000D01*
X57354000Y-40928000D01*
X57408000Y-40889000D01*
X57463000Y-40853000D01*
X57520000Y-40818000D01*
X57579000Y-40786000D01*
X57640000Y-40756000D01*
X57704000Y-40728000D01*
X57770000Y-40701000D01*
X57839000Y-40677000D01*
X57918000Y-40652000D01*
X58001000Y-40631000D01*
X58086000Y-40614000D01*
X58173000Y-40600000D01*
X58262000Y-40590000D01*
X58352000Y-40584000D01*
X58443000Y-40582000D01*
X58534000Y-40584000D01*
G37*
G36*
X65816000Y-42524000D02*
G01*
X65810000Y-42678000D01*
X65793000Y-42830000D01*
X65763000Y-42979000D01*
X65723000Y-43125000D01*
X65672000Y-43268000D01*
X65610000Y-43406000D01*
X65539000Y-43539000D01*
X65457000Y-43665000D01*
X65367000Y-43785000D01*
X65267000Y-43898000D01*
X65158000Y-44002000D01*
X65042000Y-44098000D01*
X64986000Y-44138000D01*
X64926000Y-44177000D01*
X64864000Y-44214000D01*
X64798000Y-44249000D01*
X64730000Y-44283000D01*
X64660000Y-44314000D01*
X64589000Y-44343000D01*
X64518000Y-44370000D01*
X64446000Y-44394000D01*
X64374000Y-44414000D01*
X64303000Y-44432000D01*
X64234000Y-44446000D01*
X64184000Y-44453000D01*
X64130000Y-44460000D01*
X64073000Y-44465000D01*
X64012000Y-44470000D01*
X63949000Y-44473000D01*
X63886000Y-44475000D01*
X63822000Y-44475000D01*
X63760000Y-44475000D01*
X63700000Y-44473000D01*
X63643000Y-44470000D01*
X63591000Y-44466000D01*
X63544000Y-44460000D01*
X63377000Y-44429000D01*
X63217000Y-44384000D01*
X63065000Y-44328000D01*
X62920000Y-44258000D01*
X62785000Y-44178000D01*
X62659000Y-44086000D01*
X62543000Y-43984000D01*
X62438000Y-43872000D01*
X62344000Y-43750000D01*
X62262000Y-43619000D01*
X62193000Y-43480000D01*
X62138000Y-43334000D01*
X62118000Y-43270000D01*
X62101000Y-43212000D01*
X62087000Y-43152000D01*
X62076000Y-43085000D01*
X62067000Y-43003000D01*
X62061000Y-42901000D01*
X62056000Y-42771000D01*
X62052000Y-42609000D01*
X62050360Y-42498000D01*
X63176000Y-42498000D01*
X63176000Y-42525000D01*
X63176000Y-42556000D01*
X63178000Y-42629000D01*
X63186000Y-42698000D01*
X63198000Y-42763000D01*
X63214000Y-42825000D01*
X63236000Y-42882000D01*
X63262000Y-42936000D01*
X63293000Y-42986000D01*
X63328000Y-43032000D01*
X63368000Y-43074000D01*
X63413000Y-43112000D01*
X63462000Y-43146000D01*
X63517000Y-43177000D01*
X63554000Y-43194000D01*
X63594000Y-43209000D01*
X63636000Y-43221000D01*
X63681000Y-43232000D01*
X63726000Y-43240000D01*
X63773000Y-43246000D01*
X63820000Y-43249000D01*
X63868000Y-43250000D01*
X63915000Y-43249000D01*
X63962000Y-43245000D01*
X64008000Y-43238000D01*
X64052000Y-43229000D01*
X64114000Y-43212000D01*
X64173000Y-43188000D01*
X64229000Y-43160000D01*
X64282000Y-43126000D01*
X64332000Y-43088000D01*
X64378000Y-43046000D01*
X64420000Y-43000000D01*
X64457000Y-42950000D01*
X64490000Y-42897000D01*
X64517000Y-42841000D01*
X64539000Y-42783000D01*
X64555000Y-42722000D01*
X64560000Y-42693000D01*
X64565000Y-42662000D01*
X64568000Y-42628000D01*
X64570000Y-42592000D01*
X64571000Y-42555000D01*
X64571000Y-42518000D01*
X64570000Y-42481000D01*
X64568000Y-42445000D01*
X64565000Y-42410000D01*
X64562000Y-42378000D01*
X64557000Y-42349000D01*
X64551000Y-42324000D01*
X64527000Y-42250000D01*
X64496000Y-42182000D01*
X64458000Y-42118000D01*
X64414000Y-42061000D01*
X64363000Y-42009000D01*
X64307000Y-41963000D01*
X64245000Y-41923000D01*
X64178000Y-41890000D01*
X64107000Y-41864000D01*
X64031000Y-41845000D01*
X63951000Y-41834000D01*
X63868000Y-41830000D01*
X63790000Y-41833000D01*
X63715000Y-41843000D01*
X63645000Y-41860000D01*
X63579000Y-41883000D01*
X63517000Y-41912000D01*
X63460000Y-41948000D01*
X63407000Y-41990000D01*
X63359000Y-42038000D01*
X63315000Y-42092000D01*
X63276000Y-42152000D01*
X63243000Y-42218000D01*
X63214000Y-42290000D01*
X63206000Y-42312000D01*
X63200000Y-42333000D01*
X63194000Y-42352000D01*
X63190000Y-42371000D01*
X63186000Y-42390000D01*
X63183000Y-42409000D01*
X63180000Y-42429000D01*
X63178000Y-42450000D01*
X63177000Y-42473000D01*
X63176000Y-42498000D01*
X62050360Y-42498000D01*
X62049000Y-42406000D01*
X62047000Y-42158000D01*
X62046000Y-41857000D01*
X62044000Y-41497000D01*
X62044000Y-41300000D01*
X62043000Y-41106000D01*
X62043000Y-40917000D01*
X62043000Y-40735000D01*
X62043000Y-40563000D01*
X62044000Y-40401000D01*
X62045000Y-40253000D01*
X62046000Y-40121000D01*
X62047000Y-40005000D01*
X62048000Y-39910000D01*
X62049000Y-39836000D01*
X62051000Y-39786000D01*
X62054000Y-39729000D01*
X62056000Y-39680000D01*
X62059000Y-39638000D01*
X62061000Y-39602000D01*
X62064000Y-39571000D01*
X62067000Y-39545000D01*
X62071000Y-39522000D01*
X62075000Y-39503000D01*
X62080000Y-39485000D01*
X62085000Y-39469000D01*
X62091000Y-39453000D01*
X62099000Y-39437000D01*
X62132000Y-39380000D01*
X62172000Y-39328000D01*
X62219000Y-39281000D01*
X62272000Y-39240000D01*
X62330000Y-39206000D01*
X62393000Y-39178000D01*
X62460000Y-39157000D01*
X62530000Y-39143000D01*
X62602000Y-39136000D01*
X62675000Y-39137000D01*
X62750000Y-39146000D01*
X62824000Y-39163000D01*
X62847000Y-39170000D01*
X62871000Y-39180000D01*
X62896000Y-39192000D01*
X62921000Y-39205000D01*
X62946000Y-39220000D01*
X62970000Y-39236000D01*
X62994000Y-39253000D01*
X63017000Y-39271000D01*
X63038000Y-39289000D01*
X63058000Y-39308000D01*
X63076000Y-39326000D01*
X63091000Y-39345000D01*
X63114000Y-39377000D01*
X63134000Y-39406000D01*
X63150000Y-39435000D01*
X63163000Y-39467000D01*
X63173000Y-39503000D01*
X63181000Y-39548000D01*
X63187000Y-39603000D01*
X63191000Y-39671000D01*
X63193000Y-39755000D01*
X63195000Y-39857000D01*
X63195000Y-39980000D01*
X63196000Y-40127000D01*
X63196000Y-40204000D01*
X63196000Y-40280000D01*
X63197000Y-40353000D01*
X63197000Y-40422000D01*
X63198000Y-40487000D01*
X63199000Y-40547000D01*
X63199000Y-40601000D01*
X63200000Y-40649000D01*
X63201000Y-40689000D01*
X63202000Y-40721000D01*
X63203000Y-40744000D01*
X63204000Y-40758000D01*
X63212000Y-40819000D01*
X63333000Y-40764000D01*
X63396000Y-40736000D01*
X63458000Y-40710000D01*
X63518000Y-40688000D01*
X63576000Y-40668000D01*
X63634000Y-40652000D01*
X63692000Y-40637000D01*
X63750000Y-40626000D01*
X63809000Y-40616000D01*
X63869000Y-40609000D01*
X63930000Y-40604000D01*
X63994000Y-40601000D01*
X64060000Y-40600000D01*
X64176000Y-40604000D01*
X64288000Y-40614000D01*
X64398000Y-40631000D01*
X64504000Y-40655000D01*
X64608000Y-40685000D01*
X64708000Y-40723000D01*
X64806000Y-40768000D01*
X64901000Y-40819000D01*
X64994000Y-40877000D01*
X65084000Y-40943000D01*
X65172000Y-41015000D01*
X65257000Y-41095000D01*
X65344000Y-41187000D01*
X65424000Y-41286000D01*
X65497000Y-41389000D01*
X65563000Y-41498000D01*
X65621000Y-41612000D01*
X65672000Y-41731000D01*
X65716000Y-41854000D01*
X65751000Y-41981000D01*
X65780000Y-42111000D01*
X65800000Y-42246000D01*
X65812000Y-42384000D01*
X65816000Y-42518000D01*
X65816000Y-42524000D01*
G37*
G36*
X75210000Y-42245000D02*
G01*
X75216000Y-42299000D01*
X75218000Y-42350000D01*
X75218000Y-42397000D01*
X75215000Y-42441000D01*
X75208000Y-42482000D01*
X75199000Y-42522000D01*
X75186000Y-42560000D01*
X75171000Y-42598000D01*
X75153000Y-42635000D01*
X75141000Y-42656000D01*
X75128000Y-42675000D01*
X75115000Y-42693000D01*
X75102000Y-42710000D01*
X75087000Y-42726000D01*
X75071000Y-42741000D01*
X75053000Y-42756000D01*
X75035000Y-42769000D01*
X75014000Y-42783000D01*
X74992000Y-42796000D01*
X74968000Y-42808000D01*
X74942000Y-42821000D01*
X74861000Y-42860000D01*
X73727000Y-42867000D01*
X72594000Y-42874000D01*
X72598000Y-42911000D01*
X72601000Y-42925000D01*
X72603000Y-42933000D01*
X72606000Y-42943000D01*
X72610000Y-42953000D01*
X72614000Y-42965000D01*
X72618000Y-42976000D01*
X72623000Y-42989000D01*
X72629000Y-43002000D01*
X72635000Y-43014000D01*
X72640000Y-43027000D01*
X72647000Y-43040000D01*
X72669000Y-43081000D01*
X72697000Y-43121000D01*
X72729000Y-43160000D01*
X72765000Y-43197000D01*
X72805000Y-43232000D01*
X72847000Y-43265000D01*
X72893000Y-43295000D01*
X72941000Y-43323000D01*
X72990000Y-43347000D01*
X73041000Y-43368000D01*
X73094000Y-43385000D01*
X73147000Y-43399000D01*
X73179000Y-43405000D01*
X73214000Y-43409000D01*
X73252000Y-43412000D01*
X73291000Y-43414000D01*
X73331000Y-43415000D01*
X73372000Y-43414000D01*
X73413000Y-43413000D01*
X73453000Y-43410000D01*
X73493000Y-43405000D01*
X73531000Y-43400000D01*
X73567000Y-43393000D01*
X73601000Y-43386000D01*
X73618000Y-43381000D01*
X73637000Y-43375000D01*
X73656000Y-43369000D01*
X73677000Y-43361000D01*
X73699000Y-43353000D01*
X73720000Y-43344000D01*
X73743000Y-43335000D01*
X73764000Y-43326000D01*
X73786000Y-43316000D01*
X73807000Y-43306000D01*
X73826000Y-43296000D01*
X73844000Y-43287000D01*
X73907000Y-43253000D01*
X73959000Y-43225000D01*
X74003000Y-43201000D01*
X74039000Y-43183000D01*
X74069000Y-43169000D01*
X74095000Y-43158000D01*
X74118000Y-43151000D01*
X74140000Y-43146000D01*
X74161000Y-43143000D01*
X74184000Y-43142000D01*
X74209000Y-43141000D01*
X74239000Y-43142000D01*
X74273000Y-43143000D01*
X74307000Y-43145000D01*
X74339000Y-43150000D01*
X74370000Y-43156000D01*
X74400000Y-43165000D01*
X74429000Y-43175000D01*
X74457000Y-43188000D01*
X74485000Y-43202000D01*
X74512000Y-43219000D01*
X74539000Y-43237000D01*
X74566000Y-43258000D01*
X74592000Y-43282000D01*
X74628000Y-43319000D01*
X74659000Y-43359000D01*
X74685000Y-43403000D01*
X74706000Y-43449000D01*
X74722000Y-43497000D01*
X74733000Y-43547000D01*
X74739000Y-43598000D01*
X74740000Y-43650000D01*
X74736000Y-43702000D01*
X74726000Y-43753000D01*
X74710000Y-43804000D01*
X74690000Y-43854000D01*
X74654000Y-43914000D01*
X74605000Y-43975000D01*
X74544000Y-44035000D01*
X74472000Y-44094000D01*
X74391000Y-44151000D01*
X74301000Y-44206000D01*
X74204000Y-44257000D01*
X74101000Y-44305000D01*
X73994000Y-44348000D01*
X73882000Y-44386000D01*
X73769000Y-44419000D01*
X73653000Y-44444000D01*
X73612000Y-44451000D01*
X73563000Y-44457000D01*
X73508000Y-44463000D01*
X73448000Y-44467000D01*
X73386000Y-44471000D01*
X73322000Y-44473000D01*
X73258000Y-44475000D01*
X73196000Y-44476000D01*
X73137000Y-44475000D01*
X73082000Y-44474000D01*
X73033000Y-44471000D01*
X72991000Y-44467000D01*
X72905000Y-44454000D01*
X72820000Y-44437000D01*
X72736000Y-44416000D01*
X72654000Y-44391000D01*
X72573000Y-44363000D01*
X72493000Y-44330000D01*
X72415000Y-44294000D01*
X72339000Y-44254000D01*
X72265000Y-44211000D01*
X72193000Y-44164000D01*
X72122000Y-44114000D01*
X72055000Y-44060000D01*
X71975000Y-43989000D01*
X71901000Y-43915000D01*
X71831000Y-43836000D01*
X71766000Y-43753000D01*
X71705000Y-43665000D01*
X71650000Y-43574000D01*
X71599000Y-43479000D01*
X71554000Y-43380000D01*
X71513000Y-43277000D01*
X71477000Y-43170000D01*
X71447000Y-43059000D01*
X71421000Y-42945000D01*
X71412000Y-42891000D01*
X71405000Y-42830000D01*
X71400000Y-42762000D01*
X71396000Y-42690000D01*
X71395000Y-42615000D01*
X71395000Y-42538000D01*
X71396000Y-42462000D01*
X71400000Y-42386000D01*
X71405000Y-42314000D01*
X71411000Y-42245000D01*
X71418403Y-42194000D01*
X72594000Y-42194000D01*
X72596000Y-42204000D01*
X72604000Y-42206000D01*
X72624000Y-42207000D01*
X72656000Y-42208000D01*
X72699000Y-42210000D01*
X72751000Y-42211000D01*
X72813000Y-42212000D01*
X72882000Y-42213000D01*
X72959000Y-42214000D01*
X73043000Y-42214000D01*
X73132000Y-42215000D01*
X73225000Y-42215000D01*
X73323000Y-42215000D01*
X74042000Y-42215000D01*
X74034000Y-42172000D01*
X74029000Y-42152000D01*
X74022000Y-42131000D01*
X74014000Y-42109000D01*
X74005000Y-42087000D01*
X73994000Y-42065000D01*
X73982000Y-42042000D01*
X73969000Y-42020000D01*
X73955000Y-41997000D01*
X73939000Y-41975000D01*
X73923000Y-41953000D01*
X73906000Y-41932000D01*
X73888000Y-41912000D01*
X73850000Y-41873000D01*
X73812000Y-41838000D01*
X73772000Y-41807000D01*
X73731000Y-41779000D01*
X73688000Y-41755000D01*
X73644000Y-41735000D01*
X73597000Y-41718000D01*
X73548000Y-41705000D01*
X73496000Y-41695000D01*
X73441000Y-41688000D01*
X73382000Y-41683000D01*
X73320000Y-41682000D01*
X73260000Y-41684000D01*
X73202000Y-41688000D01*
X73147000Y-41695000D01*
X73096000Y-41706000D01*
X73046000Y-41719000D01*
X72999000Y-41736000D01*
X72954000Y-41757000D01*
X72911000Y-41780000D01*
X72869000Y-41808000D01*
X72829000Y-41839000D01*
X72790000Y-41873000D01*
X72752000Y-41912000D01*
X72731000Y-41935000D01*
X72711000Y-41961000D01*
X72691000Y-41990000D01*
X72671000Y-42019000D01*
X72653000Y-42049000D01*
X72637000Y-42079000D01*
X72622000Y-42107000D01*
X72610000Y-42134000D01*
X72601000Y-42158000D01*
X72596000Y-42178000D01*
X72594000Y-42194000D01*
X71418403Y-42194000D01*
X71420000Y-42183000D01*
X71430000Y-42128000D01*
X71453000Y-42027000D01*
X71480000Y-41930000D01*
X71511000Y-41836000D01*
X71545000Y-41746000D01*
X71583000Y-41659000D01*
X71624000Y-41574000D01*
X71670000Y-41493000D01*
X71719000Y-41415000D01*
X71773000Y-41339000D01*
X71831000Y-41265000D01*
X71893000Y-41194000D01*
X71959000Y-41125000D01*
X72077000Y-41017000D01*
X72203000Y-40921000D01*
X72337000Y-40836000D01*
X72478000Y-40763000D01*
X72625000Y-40701000D01*
X72777000Y-40652000D01*
X72933000Y-40615000D01*
X73093000Y-40591000D01*
X73257000Y-40580000D01*
X73422000Y-40581000D01*
X73589000Y-40596000D01*
X73757000Y-40624000D01*
X73934000Y-40669000D01*
X74102000Y-40730000D01*
X74262000Y-40807000D01*
X74411000Y-40897000D01*
X74551000Y-41001000D01*
X74679000Y-41118000D01*
X74795000Y-41248000D01*
X74899000Y-41388000D01*
X74990000Y-41540000D01*
X75067000Y-41702000D01*
X75129000Y-41873000D01*
X75177000Y-42053000D01*
X75191000Y-42122000D01*
X75202000Y-42186000D01*
X75206000Y-42215000D01*
X75210000Y-42245000D01*
G37*
G36*
X69795000Y-42623000D02*
G01*
X69787000Y-42728000D01*
X69773000Y-42834000D01*
X69755000Y-42938000D01*
X69731000Y-43042000D01*
X69702000Y-43144000D01*
X69668000Y-43244000D01*
X69629000Y-43341000D01*
X69586000Y-43434000D01*
X69539000Y-43523000D01*
X69488000Y-43608000D01*
X69451000Y-43662000D01*
X69412000Y-43716000D01*
X69370000Y-43769000D01*
X69327000Y-43820000D01*
X69283000Y-43871000D01*
X69237000Y-43919000D01*
X69190000Y-43966000D01*
X69142000Y-44011000D01*
X69093000Y-44054000D01*
X69044000Y-44094000D01*
X68995000Y-44131000D01*
X68945000Y-44166000D01*
X68896000Y-44197000D01*
X68841000Y-44228000D01*
X68783000Y-44258000D01*
X68722000Y-44287000D01*
X68659000Y-44315000D01*
X68594000Y-44342000D01*
X68528000Y-44366000D01*
X68462000Y-44389000D01*
X68396000Y-44409000D01*
X68332000Y-44427000D01*
X68270000Y-44441000D01*
X68211000Y-44452000D01*
X68174000Y-44457000D01*
X68129000Y-44462000D01*
X68078000Y-44466000D01*
X68022000Y-44469000D01*
X67963000Y-44472000D01*
X67903000Y-44474000D01*
X67844000Y-44475000D01*
X67786000Y-44475000D01*
X67732000Y-44474000D01*
X67684000Y-44473000D01*
X67642000Y-44470000D01*
X67609000Y-44467000D01*
X67505000Y-44450000D01*
X67406000Y-44430000D01*
X67310000Y-44406000D01*
X67218000Y-44379000D01*
X67129000Y-44347000D01*
X67043000Y-44312000D01*
X66961000Y-44273000D01*
X66881000Y-44229000D01*
X66804000Y-44182000D01*
X66730000Y-44130000D01*
X66658000Y-44074000D01*
X66588000Y-44013000D01*
X66537000Y-43964000D01*
X66487000Y-43910000D01*
X66440000Y-43852000D01*
X66394000Y-43791000D01*
X66350000Y-43727000D01*
X66309000Y-43662000D01*
X66272000Y-43594000D01*
X66237000Y-43526000D01*
X66207000Y-43458000D01*
X66181000Y-43390000D01*
X66159000Y-43323000D01*
X66143000Y-43258000D01*
X66130000Y-43195000D01*
X66119000Y-43132000D01*
X66110000Y-43062000D01*
X66103000Y-42980000D01*
X66097000Y-42881000D01*
X66092000Y-42758000D01*
X66089039Y-42608000D01*
X67185000Y-42608000D01*
X67194000Y-42699000D01*
X67213000Y-42785000D01*
X67242000Y-42865000D01*
X67279000Y-42940000D01*
X67326000Y-43008000D01*
X67381000Y-43069000D01*
X67444000Y-43122000D01*
X67515000Y-43167000D01*
X67594000Y-43203000D01*
X67680000Y-43229000D01*
X67705000Y-43235000D01*
X67732000Y-43240000D01*
X67759000Y-43244000D01*
X67787000Y-43247000D01*
X67814000Y-43249000D01*
X67842000Y-43250000D01*
X67870000Y-43250000D01*
X67898000Y-43250000D01*
X67925000Y-43248000D01*
X67952000Y-43246000D01*
X67978000Y-43243000D01*
X68004000Y-43238000D01*
X68038000Y-43231000D01*
X68071000Y-43223000D01*
X68102000Y-43214000D01*
X68132000Y-43204000D01*
X68160000Y-43193000D01*
X68188000Y-43180000D01*
X68214000Y-43167000D01*
X68240000Y-43152000D01*
X68265000Y-43136000D01*
X68289000Y-43118000D01*
X68313000Y-43099000D01*
X68336000Y-43078000D01*
X68374000Y-43041000D01*
X68408000Y-43004000D01*
X68438000Y-42966000D01*
X68464000Y-42927000D01*
X68487000Y-42887000D01*
X68506000Y-42845000D01*
X68522000Y-42801000D01*
X68535000Y-42755000D01*
X68545000Y-42706000D01*
X68552000Y-42655000D01*
X68556000Y-42601000D01*
X68557000Y-42543000D01*
X68556000Y-42487000D01*
X68552000Y-42433000D01*
X68546000Y-42383000D01*
X68538000Y-42335000D01*
X68527000Y-42290000D01*
X68513000Y-42248000D01*
X68496000Y-42207000D01*
X68477000Y-42168000D01*
X68454000Y-42130000D01*
X68428000Y-42094000D01*
X68399000Y-42058000D01*
X68366000Y-42023000D01*
X68333000Y-41991000D01*
X68299000Y-41962000D01*
X68263000Y-41936000D01*
X68227000Y-41913000D01*
X68189000Y-41893000D01*
X68150000Y-41876000D01*
X68109000Y-41861000D01*
X68066000Y-41849000D01*
X68022000Y-41840000D01*
X67975000Y-41834000D01*
X67927000Y-41830000D01*
X67876000Y-41828000D01*
X67824000Y-41829000D01*
X67775000Y-41834000D01*
X67726000Y-41841000D01*
X67680000Y-41851000D01*
X67635000Y-41863000D01*
X67592000Y-41879000D01*
X67551000Y-41898000D01*
X67512000Y-41919000D01*
X67474000Y-41943000D01*
X67438000Y-41970000D01*
X67404000Y-42000000D01*
X67372000Y-42033000D01*
X67349000Y-42059000D01*
X67328000Y-42085000D01*
X67309000Y-42113000D01*
X67291000Y-42141000D01*
X67274000Y-42171000D01*
X67260000Y-42201000D01*
X67246000Y-42233000D01*
X67234000Y-42266000D01*
X67223000Y-42300000D01*
X67213000Y-42337000D01*
X67205000Y-42375000D01*
X67197000Y-42414000D01*
X67186000Y-42513000D01*
X67185000Y-42608000D01*
X66089039Y-42608000D01*
X66089000Y-42606000D01*
X66086000Y-42420000D01*
X66085000Y-42193000D01*
X66084000Y-41921000D01*
X66083000Y-41598000D01*
X66083000Y-41217000D01*
X66083000Y-40820000D01*
X66083000Y-40491000D01*
X66084000Y-40221000D01*
X66086000Y-40006000D01*
X66088000Y-39837000D01*
X66092000Y-39709000D01*
X66098000Y-39613000D01*
X66106000Y-39544000D01*
X66116000Y-39495000D01*
X66129000Y-39458000D01*
X66144000Y-39427000D01*
X66163000Y-39395000D01*
X66197000Y-39344000D01*
X66239000Y-39299000D01*
X66286000Y-39259000D01*
X66339000Y-39223000D01*
X66397000Y-39194000D01*
X66458000Y-39170000D01*
X66523000Y-39152000D01*
X66590000Y-39141000D01*
X66659000Y-39136000D01*
X66729000Y-39138000D01*
X66799000Y-39147000D01*
X66868000Y-39163000D01*
X66892000Y-39170000D01*
X66916000Y-39180000D01*
X66941000Y-39192000D01*
X66966000Y-39205000D01*
X66991000Y-39220000D01*
X67016000Y-39237000D01*
X67040000Y-39254000D01*
X67063000Y-39272000D01*
X67084000Y-39291000D01*
X67104000Y-39310000D01*
X67122000Y-39329000D01*
X67138000Y-39349000D01*
X67161000Y-39379000D01*
X67180000Y-39408000D01*
X67196000Y-39436000D01*
X67208000Y-39468000D01*
X67218000Y-39506000D01*
X67225000Y-39552000D01*
X67231000Y-39610000D01*
X67235000Y-39683000D01*
X67237000Y-39772000D01*
X67238000Y-39882000D01*
X67239000Y-40014000D01*
X67239000Y-40173000D01*
X67239000Y-40256000D01*
X67239000Y-40336000D01*
X67240000Y-40413000D01*
X67240000Y-40484000D01*
X67241000Y-40550000D01*
X67241000Y-40610000D01*
X67242000Y-40663000D01*
X67243000Y-40708000D01*
X67244000Y-40744000D01*
X67244000Y-40772000D01*
X67245000Y-40789000D01*
X67248000Y-40796000D01*
X67258000Y-40794000D01*
X67265000Y-40791000D01*
X67274000Y-40788000D01*
X67285000Y-40784000D01*
X67296000Y-40779000D01*
X67309000Y-40774000D01*
X67323000Y-40767000D01*
X67337000Y-40761000D01*
X67352000Y-40754000D01*
X67368000Y-40746000D01*
X67414000Y-40725000D01*
X67460000Y-40706000D01*
X67508000Y-40688000D01*
X67556000Y-40672000D01*
X67605000Y-40658000D01*
X67655000Y-40645000D01*
X67706000Y-40635000D01*
X67758000Y-40625000D01*
X67812000Y-40618000D01*
X67867000Y-40612000D01*
X67923000Y-40607000D01*
X67982000Y-40604000D01*
X68062000Y-40602000D01*
X68138000Y-40603000D01*
X68211000Y-40607000D01*
X68281000Y-40613000D01*
X68350000Y-40623000D01*
X68417000Y-40635000D01*
X68483000Y-40651000D01*
X68548000Y-40670000D01*
X68614000Y-40693000D01*
X68681000Y-40719000D01*
X68749000Y-40750000D01*
X68819000Y-40783000D01*
X68861000Y-40805000D01*
X68901000Y-40827000D01*
X68940000Y-40850000D01*
X68977000Y-40873000D01*
X69014000Y-40898000D01*
X69050000Y-40924000D01*
X69085000Y-40951000D01*
X69120000Y-40979000D01*
X69155000Y-41009000D01*
X69190000Y-41042000D01*
X69226000Y-41076000D01*
X69263000Y-41112000D01*
X69342000Y-41198000D01*
X69414000Y-41287000D01*
X69480000Y-41380000D01*
X69540000Y-41477000D01*
X69593000Y-41578000D01*
X69640000Y-41683000D01*
X69681000Y-41793000D01*
X69716000Y-41907000D01*
X69744000Y-42026000D01*
X69767000Y-42151000D01*
X69784000Y-42280000D01*
X69795000Y-42415000D01*
X69798000Y-42519000D01*
X69797000Y-42543000D01*
X69795000Y-42623000D01*
G37*
G36*
X56031000Y-41926000D02*
G01*
X56031000Y-42421000D01*
X56031000Y-42855000D01*
X56030000Y-43231000D01*
X56030000Y-43554000D01*
X56029000Y-43827000D01*
X56027000Y-44054000D01*
X56026000Y-44239000D01*
X56024000Y-44385000D01*
X56021000Y-44496000D01*
X56019000Y-44577000D01*
X56015000Y-44630000D01*
X56012000Y-44660000D01*
X55979000Y-44795000D01*
X55935000Y-44925000D01*
X55881000Y-45050000D01*
X55817000Y-45169000D01*
X55744000Y-45281000D01*
X55662000Y-45387000D01*
X55571000Y-45484000D01*
X55472000Y-45574000D01*
X55366000Y-45654000D01*
X55253000Y-45726000D01*
X55133000Y-45788000D01*
X55007000Y-45839000D01*
X54945000Y-45862000D01*
X54889000Y-45881000D01*
X54829000Y-45896000D01*
X54754000Y-45908000D01*
X54652000Y-45918000D01*
X54512000Y-45924000D01*
X54324000Y-45929000D01*
X54075000Y-45933000D01*
X53755000Y-45935000D01*
X53352000Y-45936000D01*
X52855000Y-45937000D01*
X52253000Y-45938000D01*
X51928000Y-45938000D01*
X51611000Y-45938000D01*
X51304000Y-45938000D01*
X51011000Y-45938000D01*
X50736000Y-45938000D01*
X50482000Y-45938000D01*
X50251000Y-45937000D01*
X50048000Y-45936000D01*
X49875000Y-45936000D01*
X49736000Y-45935000D01*
X49634000Y-45934000D01*
X49572000Y-45932000D01*
X49497000Y-45930000D01*
X49429000Y-45927000D01*
X49370000Y-45923000D01*
X49316000Y-45919000D01*
X49267000Y-45913000D01*
X49221000Y-45907000D01*
X49178000Y-45898000D01*
X49137000Y-45889000D01*
X49095000Y-45877000D01*
X49053000Y-45863000D01*
X49008000Y-45847000D01*
X48960000Y-45828000D01*
X48873000Y-45791000D01*
X48788000Y-45748000D01*
X48705000Y-45699000D01*
X48624000Y-45645000D01*
X48547000Y-45587000D01*
X48472000Y-45525000D01*
X48402000Y-45459000D01*
X48336000Y-45390000D01*
X48276000Y-45318000D01*
X48220000Y-45245000D01*
X48171000Y-45169000D01*
X48129000Y-45092000D01*
X48112000Y-45056000D01*
X48094000Y-45017000D01*
X48077000Y-44974000D01*
X48060000Y-44930000D01*
X48044000Y-44884000D01*
X48029000Y-44837000D01*
X48014000Y-44790000D01*
X48001000Y-44744000D01*
X47989000Y-44699000D01*
X47979000Y-44656000D01*
X47971000Y-44617000D01*
X47965000Y-44581000D01*
X47963000Y-44545000D01*
X47961000Y-44476000D01*
X47959000Y-44374000D01*
X47957000Y-44239000D01*
X47955000Y-44071000D01*
X47954000Y-43868000D01*
X47952000Y-43632000D01*
X47951000Y-43361000D01*
X47951000Y-43055000D01*
X47950000Y-42715000D01*
X47950000Y-42340000D01*
X47950000Y-41929000D01*
X47950000Y-41285000D01*
X47950000Y-40752000D01*
X47950406Y-40576000D01*
X48558000Y-40576000D01*
X48559000Y-40969000D01*
X48559000Y-41437000D01*
X48560000Y-41986000D01*
X48565000Y-44593000D01*
X48599000Y-44697000D01*
X48630000Y-44777000D01*
X48668000Y-44854000D01*
X48713000Y-44926000D01*
X48763000Y-44993000D01*
X48819000Y-45056000D01*
X48881000Y-45113000D01*
X48947000Y-45164000D01*
X49018000Y-45210000D01*
X49093000Y-45249000D01*
X49172000Y-45282000D01*
X49254000Y-45307000D01*
X49339000Y-45326000D01*
X49372000Y-45328000D01*
X49452000Y-45329000D01*
X49573000Y-45330000D01*
X49734000Y-45332000D01*
X49931000Y-45333000D01*
X50161000Y-45334000D01*
X50420000Y-45335000D01*
X50704000Y-45335000D01*
X51012000Y-45336000D01*
X51339000Y-45336000D01*
X51682000Y-45336000D01*
X52039000Y-45336000D01*
X54668000Y-45334000D01*
X54790000Y-45292000D01*
X54827000Y-45279000D01*
X54865000Y-45263000D01*
X54903000Y-45245000D01*
X54941000Y-45225000D01*
X54979000Y-45203000D01*
X55016000Y-45180000D01*
X55052000Y-45156000D01*
X55086000Y-45131000D01*
X55119000Y-45105000D01*
X55149000Y-45079000D01*
X55177000Y-45052000D01*
X55202000Y-45026000D01*
X55223000Y-44999000D01*
X55246000Y-44969000D01*
X55268000Y-44935000D01*
X55290000Y-44898000D01*
X55312000Y-44858000D01*
X55332000Y-44818000D01*
X55352000Y-44777000D01*
X55369000Y-44737000D01*
X55385000Y-44698000D01*
X55398000Y-44660000D01*
X55408000Y-44625000D01*
X55415000Y-44594000D01*
X55418000Y-44563000D01*
X55420000Y-44498000D01*
X55422000Y-44400000D01*
X55424000Y-44267000D01*
X55426000Y-44100000D01*
X55427000Y-43899000D01*
X55428000Y-43662000D01*
X55429000Y-43389000D01*
X55430000Y-43081000D01*
X55431000Y-42736000D01*
X55431000Y-42354000D01*
X55431000Y-41935000D01*
X55431000Y-41283000D01*
X55431000Y-40747000D01*
X55430000Y-40314000D01*
X55429000Y-39971000D01*
X55426000Y-39707000D01*
X55421000Y-39511000D01*
X55414000Y-39369000D01*
X55405000Y-39269000D01*
X55392000Y-39201000D01*
X55376000Y-39151000D01*
X55356000Y-39109000D01*
X55332000Y-39060000D01*
X55322000Y-39040000D01*
X55312000Y-39020000D01*
X55301000Y-39002000D01*
X55290000Y-38984000D01*
X55277000Y-38966000D01*
X55265000Y-38948000D01*
X55251000Y-38930000D01*
X55235000Y-38912000D01*
X55219000Y-38893000D01*
X55201000Y-38873000D01*
X55181000Y-38852000D01*
X55159000Y-38830000D01*
X55125000Y-38798000D01*
X55092000Y-38768000D01*
X55060000Y-38741000D01*
X55027000Y-38717000D01*
X54994000Y-38695000D01*
X54961000Y-38674000D01*
X54927000Y-38656000D01*
X54891000Y-38639000D01*
X54854000Y-38624000D01*
X54815000Y-38610000D01*
X54773000Y-38598000D01*
X54729000Y-38586000D01*
X54700000Y-38579000D01*
X54665000Y-38573000D01*
X54614000Y-38569000D01*
X54539000Y-38565000D01*
X54431000Y-38562000D01*
X54281000Y-38560000D01*
X54079000Y-38558000D01*
X53818000Y-38557000D01*
X53487000Y-38556000D01*
X53077000Y-38556000D01*
X52581000Y-38556000D01*
X51988000Y-38556000D01*
X51388000Y-38556000D01*
X50888000Y-38556000D01*
X50476000Y-38556000D01*
X50144000Y-38557000D01*
X49884000Y-38558000D01*
X49684000Y-38560000D01*
X49537000Y-38562000D01*
X49432000Y-38565000D01*
X49360000Y-38569000D01*
X49313000Y-38574000D01*
X49280000Y-38580000D01*
X49253000Y-38587000D01*
X49169000Y-38614000D01*
X49090000Y-38647000D01*
X49014000Y-38687000D01*
X48943000Y-38733000D01*
X48878000Y-38784000D01*
X48817000Y-38840000D01*
X48762000Y-38902000D01*
X48713000Y-38968000D01*
X48670000Y-39039000D01*
X48633000Y-39114000D01*
X48603000Y-39192000D01*
X48580000Y-39274000D01*
X48575000Y-39302000D01*
X48571000Y-39344000D01*
X48567000Y-39405000D01*
X48564000Y-39493000D01*
X48562000Y-39615000D01*
X48560000Y-39777000D01*
X48559000Y-39987000D01*
X48559000Y-40251000D01*
X48558000Y-40576000D01*
X47950406Y-40576000D01*
X47951000Y-40318000D01*
X47952000Y-39973000D01*
X47956000Y-39704000D01*
X47960000Y-39499000D01*
X47967000Y-39347000D01*
X47977000Y-39236000D01*
X47989000Y-39155000D01*
X48005000Y-39092000D01*
X48025000Y-39035000D01*
X48048000Y-38973000D01*
X48097000Y-38855000D01*
X48155000Y-38743000D01*
X48221000Y-38637000D01*
X48295000Y-38536000D01*
X48376000Y-38443000D01*
X48465000Y-38356000D01*
X48560000Y-38277000D01*
X48662000Y-38205000D01*
X48770000Y-38140000D01*
X48884000Y-38084000D01*
X49003000Y-38036000D01*
X49128000Y-37997000D01*
X49276000Y-37956000D01*
X51898000Y-37951000D01*
X52525000Y-37950000D01*
X53051000Y-37950000D01*
X53486000Y-37950000D01*
X53838000Y-37951000D01*
X54119000Y-37952000D01*
X54337000Y-37955000D01*
X54504000Y-37960000D01*
X54628000Y-37966000D01*
X54719000Y-37973000D01*
X54788000Y-37983000D01*
X54844000Y-37995000D01*
X54897000Y-38009000D01*
X54957000Y-38027000D01*
X55017000Y-38049000D01*
X55079000Y-38074000D01*
X55140000Y-38102000D01*
X55201000Y-38134000D01*
X55261000Y-38168000D01*
X55321000Y-38204000D01*
X55378000Y-38243000D01*
X55434000Y-38284000D01*
X55488000Y-38326000D01*
X55539000Y-38370000D01*
X55587000Y-38415000D01*
X55636000Y-38465000D01*
X55681000Y-38517000D01*
X55724000Y-38571000D01*
X55765000Y-38628000D01*
X55803000Y-38686000D01*
X55838000Y-38747000D01*
X55871000Y-38810000D01*
X55901000Y-38875000D01*
X55929000Y-38943000D01*
X55955000Y-39013000D01*
X55978000Y-39085000D01*
X55998000Y-39160000D01*
X56031000Y-39289000D01*
X56031000Y-41283000D01*
X56031000Y-41926000D01*
G37*
G36*
X54796000Y-43035000D02*
G01*
X54862000Y-43097000D01*
X54927000Y-43158000D01*
X54927000Y-43462000D01*
X54927000Y-43530000D01*
X54927000Y-43587000D01*
X54927000Y-43634000D01*
X54926000Y-43673000D01*
X54925000Y-43705000D01*
X54923000Y-43731000D01*
X54920000Y-43751000D01*
X54917000Y-43768000D01*
X54913000Y-43782000D01*
X54907000Y-43794000D01*
X54901000Y-43805000D01*
X54894000Y-43816000D01*
X54889000Y-43823000D01*
X54883000Y-43830000D01*
X54878000Y-43837000D01*
X54872000Y-43844000D01*
X54865000Y-43851000D01*
X54859000Y-43857000D01*
X54853000Y-43863000D01*
X54846000Y-43869000D01*
X54840000Y-43874000D01*
X54834000Y-43878000D01*
X54823000Y-43885000D01*
X54778000Y-43892000D01*
X54678000Y-43897000D01*
X54535000Y-43901000D01*
X54359000Y-43904000D01*
X54160000Y-43905000D01*
X53951000Y-43906000D01*
X53741000Y-43905000D01*
X53542000Y-43903000D01*
X53364000Y-43900000D01*
X53219000Y-43895000D01*
X53117000Y-43890000D01*
X53069000Y-43883000D01*
X53047000Y-43873000D01*
X53028000Y-43863000D01*
X53012000Y-43850000D01*
X52999000Y-43835000D01*
X52989000Y-43817000D01*
X52981000Y-43793000D01*
X52974000Y-43764000D01*
X52969000Y-43728000D01*
X52966000Y-43684000D01*
X52963000Y-43631000D01*
X52961000Y-43568000D01*
X52960000Y-43495000D01*
X52959000Y-43421000D01*
X52959000Y-43358000D01*
X52960000Y-43303000D01*
X52962000Y-43257000D01*
X52966000Y-43217000D01*
X52971000Y-43185000D01*
X52978000Y-43158000D01*
X52986000Y-43137000D01*
X52997000Y-43119000D01*
X53010000Y-43105000D01*
X53025000Y-43094000D01*
X53043000Y-43085000D01*
X53080000Y-43068000D01*
X53071000Y-42890000D01*
X53064000Y-42798000D01*
X53052000Y-42707000D01*
X53037000Y-42617000D01*
X53018000Y-42528000D01*
X52994000Y-42440000D01*
X52967000Y-42353000D01*
X52936000Y-42268000D01*
X52900000Y-42185000D01*
X52862000Y-42104000D01*
X52819000Y-42025000D01*
X52773000Y-41948000D01*
X52723000Y-41874000D01*
X52694000Y-41835000D01*
X52659000Y-41792000D01*
X52619000Y-41746000D01*
X52574000Y-41697000D01*
X52525000Y-41646000D01*
X52473000Y-41593000D01*
X52418000Y-41539000D01*
X52360000Y-41484000D01*
X52300000Y-41429000D01*
X52238000Y-41375000D01*
X52176000Y-41321000D01*
X52113000Y-41268000D01*
X52015000Y-41188000D01*
X51919000Y-41111000D01*
X51828000Y-41037000D01*
X51742000Y-40967000D01*
X51661000Y-40902000D01*
X51586000Y-40842000D01*
X51520000Y-40790000D01*
X51461000Y-40744000D01*
X51413000Y-40706000D01*
X51374000Y-40677000D01*
X51347000Y-40657000D01*
X51332000Y-40647000D01*
X51312000Y-40640000D01*
X51290000Y-40637000D01*
X51266000Y-40639000D01*
X51241000Y-40646000D01*
X51216000Y-40656000D01*
X51190000Y-40670000D01*
X51165000Y-40687000D01*
X51141000Y-40707000D01*
X51119000Y-40730000D01*
X51099000Y-40755000D01*
X51081000Y-40782000D01*
X51066000Y-40811000D01*
X51060000Y-40827000D01*
X51055000Y-40846000D01*
X51051000Y-40872000D01*
X51047000Y-40908000D01*
X51044000Y-40958000D01*
X51042000Y-41025000D01*
X51040000Y-41112000D01*
X51039000Y-41222000D01*
X51038000Y-41359000D01*
X51037000Y-41526000D01*
X51036000Y-41726000D01*
X51035000Y-41963000D01*
X51032000Y-43052000D01*
X51079000Y-43082000D01*
X51098000Y-43094000D01*
X51114000Y-43107000D01*
X51127000Y-43120000D01*
X51138000Y-43136000D01*
X51146000Y-43155000D01*
X51152000Y-43180000D01*
X51157000Y-43210000D01*
X51160000Y-43247000D01*
X51162000Y-43293000D01*
X51162000Y-43348000D01*
X51162000Y-43415000D01*
X51161000Y-43493000D01*
X51157000Y-43800000D01*
X51109000Y-43848000D01*
X51060000Y-43897000D01*
X50205000Y-43900000D01*
X50026000Y-43901000D01*
X49873000Y-43901000D01*
X49745000Y-43901000D01*
X49638000Y-43901000D01*
X49551000Y-43900000D01*
X49482000Y-43899000D01*
X49428000Y-43897000D01*
X49387000Y-43895000D01*
X49357000Y-43892000D01*
X49336000Y-43889000D01*
X49321000Y-43884000D01*
X49311000Y-43879000D01*
X49292000Y-43867000D01*
X49276000Y-43854000D01*
X49263000Y-43840000D01*
X49252000Y-43824000D01*
X49244000Y-43804000D01*
X49237000Y-43780000D01*
X49232000Y-43749000D01*
X49228000Y-43712000D01*
X49226000Y-43666000D01*
X49225000Y-43611000D01*
X49224000Y-43546000D01*
X49224000Y-43470000D01*
X49224000Y-43166000D01*
X49261000Y-43121000D01*
X49267000Y-43115000D01*
X49272000Y-43109000D01*
X49278000Y-43103000D01*
X49284000Y-43097000D01*
X49290000Y-43092000D01*
X49296000Y-43087000D01*
X49302000Y-43082000D01*
X49314000Y-43074000D01*
X49323000Y-43069000D01*
X49334000Y-43064000D01*
X49336222Y-43060000D01*
X49742000Y-43060000D01*
X49867000Y-43060000D01*
X49993000Y-43060000D01*
X49998000Y-41834000D01*
X49999000Y-41584000D01*
X50000000Y-41369000D01*
X50001000Y-41186000D01*
X50003000Y-41033000D01*
X50004000Y-40907000D01*
X50006000Y-40804000D01*
X50007444Y-40765000D01*
X50394000Y-40765000D01*
X50394000Y-41912000D01*
X50394000Y-43060000D01*
X50520000Y-43060000D01*
X50646000Y-43060000D01*
X50646000Y-41951000D01*
X50646000Y-41724000D01*
X50646000Y-41529000D01*
X50647000Y-41363000D01*
X50647000Y-41225000D01*
X50649000Y-41110000D01*
X50650000Y-41017000D01*
X50652000Y-40943000D01*
X50654000Y-40885000D01*
X50657000Y-40841000D01*
X50661000Y-40807000D01*
X50665000Y-40782000D01*
X50670000Y-40762000D01*
X50681000Y-40728000D01*
X50692000Y-40696000D01*
X50705000Y-40664000D01*
X50718000Y-40635000D01*
X50733000Y-40606000D01*
X50748000Y-40579000D01*
X50764000Y-40553000D01*
X50782000Y-40528000D01*
X50800000Y-40505000D01*
X50820000Y-40482000D01*
X50840000Y-40461000D01*
X50862000Y-40440000D01*
X50945000Y-40366000D01*
X50900000Y-40342000D01*
X50893000Y-40339000D01*
X50886000Y-40336000D01*
X50877000Y-40333000D01*
X50868000Y-40331000D01*
X50858000Y-40328000D01*
X50848000Y-40326000D01*
X50837000Y-40324000D01*
X50826000Y-40322000D01*
X50816000Y-40321000D01*
X50805000Y-40320000D01*
X50795000Y-40319000D01*
X50785000Y-40319000D01*
X50746000Y-40321000D01*
X50708000Y-40329000D01*
X50672000Y-40341000D01*
X50637000Y-40358000D01*
X50604000Y-40379000D01*
X50573000Y-40405000D01*
X50544000Y-40435000D01*
X50517000Y-40469000D01*
X50492000Y-40508000D01*
X50470000Y-40550000D01*
X50449000Y-40596000D01*
X50432000Y-40646000D01*
X50394000Y-40765000D01*
X50007444Y-40765000D01*
X50009000Y-40723000D01*
X50011000Y-40659000D01*
X50014000Y-40611000D01*
X50018000Y-40575000D01*
X50022000Y-40549000D01*
X50027000Y-40530000D01*
X50064000Y-40428000D01*
X50109000Y-40335000D01*
X50162000Y-40250000D01*
X50222000Y-40175000D01*
X50289000Y-40109000D01*
X50362000Y-40053000D01*
X50441000Y-40008000D01*
X50524000Y-39974000D01*
X50611000Y-39951000D01*
X50702000Y-39940000D01*
X50795000Y-39940000D01*
X50891000Y-39954000D01*
X50940000Y-39964000D01*
X50985000Y-39977000D01*
X51030000Y-39992000D01*
X51075000Y-40012000D01*
X51124000Y-40038000D01*
X51178000Y-40071000D01*
X51239000Y-40112000D01*
X51310000Y-40163000D01*
X51392000Y-40225000D01*
X51488000Y-40299000D01*
X51572000Y-40366000D01*
X51599000Y-40387000D01*
X51727000Y-40490000D01*
X51958000Y-40675000D01*
X52158000Y-40838000D01*
X52330000Y-40980000D01*
X52477000Y-41104000D01*
X52602000Y-41213000D01*
X52707000Y-41309000D01*
X52796000Y-41396000D01*
X52872000Y-41476000D01*
X52936000Y-41552000D01*
X52993000Y-41626000D01*
X53045000Y-41700000D01*
X53094000Y-41779000D01*
X53101000Y-41790000D01*
X53107000Y-41800000D01*
X53114000Y-41810000D01*
X53120000Y-41819000D01*
X53126000Y-41828000D01*
X53131000Y-41836000D01*
X53136000Y-41842000D01*
X53145000Y-41853000D01*
X53151000Y-41858000D01*
X53156000Y-41851000D01*
X53157000Y-41839000D01*
X53158000Y-41830000D01*
X53158000Y-41821000D01*
X53158000Y-41810000D01*
X53157000Y-41798000D01*
X53156000Y-41786000D01*
X53156000Y-41773000D01*
X53154000Y-41760000D01*
X53150000Y-41727000D01*
X53144000Y-41691000D01*
X53136000Y-41654000D01*
X53126000Y-41616000D01*
X53114000Y-41577000D01*
X53101000Y-41538000D01*
X53086000Y-41499000D01*
X53070000Y-41461000D01*
X53053000Y-41423000D01*
X53036000Y-41388000D01*
X53017000Y-41354000D01*
X52998000Y-41323000D01*
X52977000Y-41292000D01*
X52952000Y-41259000D01*
X52923000Y-41223000D01*
X52891000Y-41186000D01*
X52855000Y-41147000D01*
X52818000Y-41107000D01*
X52777000Y-41066000D01*
X52736000Y-41025000D01*
X52692000Y-40984000D01*
X52648000Y-40944000D01*
X52603000Y-40905000D01*
X52557000Y-40867000D01*
X52537000Y-40850000D01*
X52515000Y-40832000D01*
X52491000Y-40813000D01*
X52467000Y-40793000D01*
X52442000Y-40772000D01*
X52416000Y-40751000D01*
X52391000Y-40730000D01*
X52366000Y-40710000D01*
X52341000Y-40690000D01*
X52318000Y-40670000D01*
X52296000Y-40652000D01*
X52276000Y-40636000D01*
X52202000Y-40575000D01*
X52117000Y-40507000D01*
X52025000Y-40433000D01*
X51928000Y-40355000D01*
X51830000Y-40276000D01*
X51732000Y-40198000D01*
X51639000Y-40125000D01*
X51553000Y-40057000D01*
X51477000Y-39997000D01*
X51414000Y-39948000D01*
X51367000Y-39912000D01*
X51339000Y-39892000D01*
X51289000Y-39860000D01*
X51240000Y-39831000D01*
X51190000Y-39805000D01*
X51140000Y-39783000D01*
X51089000Y-39764000D01*
X51038000Y-39748000D01*
X50985000Y-39735000D01*
X50930000Y-39726000D01*
X50874000Y-39719000D01*
X50816000Y-39715000D01*
X50755000Y-39714000D01*
X50692000Y-39715000D01*
X50626000Y-39720000D01*
X50564000Y-39727000D01*
X50505000Y-39736000D01*
X50451000Y-39750000D01*
X50398000Y-39766000D01*
X50348000Y-39786000D01*
X50299000Y-39810000D01*
X50252000Y-39839000D01*
X50205000Y-39872000D01*
X50157000Y-39909000D01*
X50109000Y-39951000D01*
X50060000Y-39999000D01*
X50027000Y-40034000D01*
X49996000Y-40069000D01*
X49967000Y-40105000D01*
X49940000Y-40141000D01*
X49914000Y-40179000D01*
X49891000Y-40218000D01*
X49869000Y-40258000D01*
X49848000Y-40299000D01*
X49830000Y-40341000D01*
X49813000Y-40385000D01*
X49797000Y-40431000D01*
X49783000Y-40478000D01*
X49776000Y-40505000D01*
X49770000Y-40533000D01*
X49764000Y-40565000D01*
X49760000Y-40608000D01*
X49757000Y-40664000D01*
X49754000Y-40739000D01*
X49752000Y-40836000D01*
X49751000Y-40962000D01*
X49749000Y-41119000D01*
X49748000Y-41312000D01*
X49747000Y-41547000D01*
X49746000Y-41826000D01*
X49742000Y-43060000D01*
X49336222Y-43060000D01*
X49339000Y-43055000D01*
X49344000Y-43038000D01*
X49347000Y-43007000D01*
X49350000Y-42959000D01*
X49353000Y-42890000D01*
X49355000Y-42795000D01*
X49356000Y-42672000D01*
X49357000Y-42515000D01*
X49358000Y-42320000D01*
X49359000Y-42084000D01*
X49361000Y-41803000D01*
X49365000Y-40549000D01*
X49407000Y-40393000D01*
X49452000Y-40252000D01*
X49508000Y-40119000D01*
X49575000Y-39995000D01*
X49652000Y-39880000D01*
X49738000Y-39775000D01*
X49818000Y-39695000D01*
X51690000Y-39695000D01*
X51742000Y-39740000D01*
X51752000Y-39748000D01*
X51766000Y-39760000D01*
X51783000Y-39775000D01*
X51805000Y-39793000D01*
X51830000Y-39813000D01*
X51857000Y-39836000D01*
X51887000Y-39861000D01*
X51919000Y-39887000D01*
X51953000Y-39914000D01*
X51988000Y-39943000D01*
X52024000Y-39972000D01*
X52061000Y-40002000D01*
X52098000Y-40033000D01*
X52137000Y-40064000D01*
X52177000Y-40097000D01*
X52217000Y-40130000D01*
X52258000Y-40163000D01*
X52297000Y-40195000D01*
X52335000Y-40226000D01*
X52372000Y-40256000D01*
X52406000Y-40284000D01*
X52437000Y-40310000D01*
X52466000Y-40334000D01*
X52490000Y-40354000D01*
X52513000Y-40373000D01*
X52537000Y-40393000D01*
X52561000Y-40412000D01*
X52585000Y-40432000D01*
X52609000Y-40452000D01*
X52632000Y-40471000D01*
X52655000Y-40490000D01*
X52676000Y-40507000D01*
X52696000Y-40524000D01*
X52714000Y-40539000D01*
X52731000Y-40552000D01*
X52745000Y-40563000D01*
X52840000Y-40642000D01*
X52926000Y-40713000D01*
X53001000Y-40779000D01*
X53068000Y-40840000D01*
X53127000Y-40898000D01*
X53179000Y-40954000D01*
X53226000Y-41009000D01*
X53269000Y-41064000D01*
X53308000Y-41120000D01*
X53344000Y-41179000D01*
X53380000Y-41241000D01*
X53415000Y-41308000D01*
X53441000Y-41362000D01*
X53464000Y-41411000D01*
X53482000Y-41459000D01*
X53497000Y-41509000D01*
X53509000Y-41564000D01*
X53518000Y-41627000D01*
X53525000Y-41701000D01*
X53529000Y-41791000D01*
X53530000Y-41821000D01*
X53532000Y-41897000D01*
X53534000Y-42025000D01*
X53535000Y-42178000D01*
X53535000Y-42357000D01*
X53535000Y-42450000D01*
X53535000Y-42538000D01*
X53536000Y-42623000D01*
X53536000Y-42702000D01*
X53537000Y-42776000D01*
X53538000Y-42842000D01*
X53539000Y-42901000D01*
X53540000Y-42951000D01*
X53541000Y-42992000D01*
X53542000Y-43023000D01*
X53543000Y-43042000D01*
X53545000Y-43050000D01*
X53558000Y-43054000D01*
X53566000Y-43055000D01*
X53575000Y-43056000D01*
X53586000Y-43057000D01*
X53598000Y-43058000D01*
X53611000Y-43058000D01*
X53625000Y-43059000D01*
X53640000Y-43059000D01*
X53655000Y-43060000D01*
X53671000Y-43060000D01*
X53787000Y-43060000D01*
X53787000Y-42380000D01*
X53787000Y-42203000D01*
X53786000Y-42051000D01*
X53784000Y-41922000D01*
X53781000Y-41813000D01*
X53777000Y-41721000D01*
X53772000Y-41643000D01*
X53764000Y-41577000D01*
X53755000Y-41519000D01*
X53743000Y-41467000D01*
X53728000Y-41418000D01*
X53711000Y-41369000D01*
X53690000Y-41318000D01*
X53664000Y-41259000D01*
X53635000Y-41200000D01*
X53603000Y-41142000D01*
X53567000Y-41085000D01*
X53529000Y-41028000D01*
X53487000Y-40972000D01*
X53442000Y-40916000D01*
X53394000Y-40861000D01*
X53343000Y-40806000D01*
X53288000Y-40751000D01*
X53230000Y-40697000D01*
X53169000Y-40643000D01*
X53116000Y-40598000D01*
X53050000Y-40543000D01*
X52973000Y-40479000D01*
X52889000Y-40410000D01*
X52800000Y-40336000D01*
X52709000Y-40262000D01*
X52620000Y-40190000D01*
X52535000Y-40121000D01*
X52457000Y-40058000D01*
X52390000Y-40004000D01*
X52336000Y-39962000D01*
X52298000Y-39932000D01*
X52249000Y-39897000D01*
X52203000Y-39865000D01*
X52159000Y-39836000D01*
X52116000Y-39810000D01*
X52074000Y-39788000D01*
X52655000Y-39788000D01*
X52676000Y-39811000D01*
X52710000Y-39835000D01*
X52762000Y-39876000D01*
X52830000Y-39930000D01*
X52910000Y-39995000D01*
X52998000Y-40067000D01*
X53092000Y-40145000D01*
X53189000Y-40225000D01*
X53284000Y-40304000D01*
X53374000Y-40380000D01*
X53457000Y-40450000D01*
X53528000Y-40512000D01*
X53585000Y-40562000D01*
X53642000Y-40615000D01*
X53696000Y-40670000D01*
X53749000Y-40727000D01*
X53798000Y-40785000D01*
X53846000Y-40846000D01*
X53890000Y-40907000D01*
X53931000Y-40969000D01*
X53969000Y-41031000D01*
X54003000Y-41094000D01*
X54034000Y-41156000D01*
X54060000Y-41218000D01*
X54082000Y-41279000D01*
X54100000Y-41333000D01*
X54115000Y-41381000D01*
X54127000Y-41427000D01*
X54137000Y-41475000D01*
X54145000Y-41527000D01*
X54151000Y-41588000D01*
X54156000Y-41660000D01*
X54160000Y-41747000D01*
X54162000Y-41852000D01*
X54164000Y-41980000D01*
X54166000Y-42133000D01*
X54168000Y-42315000D01*
X54168000Y-42380000D01*
X54174000Y-43060000D01*
X54299000Y-43060000D01*
X54424000Y-43060000D01*
X54424000Y-42392000D01*
X54424000Y-42299000D01*
X54423000Y-42208000D01*
X54423000Y-42119000D01*
X54422000Y-42034000D01*
X54421000Y-41953000D01*
X54419000Y-41877000D01*
X54418000Y-41808000D01*
X54416000Y-41745000D01*
X54414000Y-41690000D01*
X54412000Y-41645000D01*
X54410000Y-41609000D01*
X54408000Y-41583000D01*
X54399000Y-41517000D01*
X54388000Y-41453000D01*
X54374000Y-41388000D01*
X54358000Y-41325000D01*
X54339000Y-41263000D01*
X54318000Y-41201000D01*
X54294000Y-41141000D01*
X54268000Y-41082000D01*
X54240000Y-41023000D01*
X54209000Y-40966000D01*
X54175000Y-40911000D01*
X54140000Y-40856000D01*
X54090000Y-40790000D01*
X54031000Y-40719000D01*
X53964000Y-40645000D01*
X53888000Y-40569000D01*
X53807000Y-40492000D01*
X53720000Y-40415000D01*
X53628000Y-40338000D01*
X53533000Y-40263000D01*
X53436000Y-40191000D01*
X53338000Y-40121000D01*
X53240000Y-40056000D01*
X53142000Y-39996000D01*
X53092000Y-39968000D01*
X53035000Y-39939000D01*
X52975000Y-39910000D01*
X52912000Y-39881000D01*
X52851000Y-39855000D01*
X52794000Y-39831000D01*
X52743000Y-39812000D01*
X52701000Y-39797000D01*
X52671000Y-39789000D01*
X52655000Y-39788000D01*
X52074000Y-39788000D01*
X52033000Y-39769000D01*
X51993000Y-39752000D01*
X51953000Y-39738000D01*
X51912000Y-39726000D01*
X51872000Y-39717000D01*
X51830000Y-39710000D01*
X51787000Y-39704000D01*
X51690000Y-39695000D01*
X49818000Y-39695000D01*
X49833000Y-39680000D01*
X49938000Y-39596000D01*
X50051000Y-39522000D01*
X50172000Y-39459000D01*
X50301000Y-39408000D01*
X50437000Y-39369000D01*
X50579000Y-39342000D01*
X50639000Y-39337000D01*
X50743000Y-39333000D01*
X50882000Y-39330000D01*
X51048000Y-39328000D01*
X51232000Y-39327000D01*
X51425000Y-39327000D01*
X51619000Y-39327000D01*
X51806000Y-39329000D01*
X51975000Y-39331000D01*
X52120000Y-39334000D01*
X52232000Y-39338000D01*
X52301000Y-39342000D01*
X52414000Y-39358000D01*
X52526000Y-39379000D01*
X52637000Y-39405000D01*
X52749000Y-39438000D01*
X52861000Y-39477000D01*
X52973000Y-39521000D01*
X53085000Y-39571000D01*
X53198000Y-39627000D01*
X53311000Y-39689000D01*
X53425000Y-39758000D01*
X53540000Y-39832000D01*
X53655000Y-39913000D01*
X53815000Y-40031000D01*
X53960000Y-40147000D01*
X54091000Y-40261000D01*
X54209000Y-40374000D01*
X54314000Y-40486000D01*
X54407000Y-40599000D01*
X54489000Y-40713000D01*
X54561000Y-40829000D01*
X54622000Y-40948000D01*
X54674000Y-41072000D01*
X54718000Y-41200000D01*
X54754000Y-41334000D01*
X54760000Y-41364000D01*
X54766000Y-41394000D01*
X54771000Y-41427000D01*
X54775000Y-41464000D01*
X54778000Y-41509000D01*
X54781000Y-41564000D01*
X54783000Y-41632000D01*
X54785000Y-41715000D01*
X54786000Y-41816000D01*
X54788000Y-41938000D01*
X54789000Y-42082000D01*
X54790000Y-42251000D01*
X54791000Y-42392000D01*
X54796000Y-43035000D01*
G37*
%TO.C,Q15*%
D12*
X25100000Y-58490000D02*
X28700000Y-58490000D01*
X24543600Y-55541193D02*
G75*
G02*
X26900000Y-54040000I2356400J-1098807D01*
G01*
X25100000Y-58490000D02*
G75*
G02*
X24575816Y-57762795I1800000J1850000D01*
G01*
X26900000Y-54040000D02*
G75*
G02*
X29256400Y-55541193I0J-2600000D01*
G01*
X29224184Y-57762795D02*
G75*
G02*
X28700000Y-58490000I-2324184J1122795D01*
G01*
%TO.C,R20*%
X52000000Y-87370000D02*
X52000000Y-89980000D01*
X53370000Y-86000000D02*
G75*
G02*
X50630000Y-86000000I-1370000J0D01*
G01*
X50630000Y-86000000D02*
G75*
G02*
X53370000Y-86000000I1370000J0D01*
G01*
%TO.C,C2*%
X93960000Y-27000000D02*
X92420000Y-27000000D01*
X93960000Y-27040000D02*
X92420000Y-27040000D01*
X93960000Y-27080000D02*
X92421000Y-27080000D01*
X93960000Y-27120000D02*
X92423000Y-27120000D01*
X93960000Y-27160000D02*
X92425000Y-27160000D01*
X93960000Y-27200000D02*
X92428000Y-27200000D01*
X93960000Y-27240000D02*
X92431000Y-27240000D01*
X93960000Y-27280000D02*
X92435000Y-27280000D01*
X93960000Y-27320000D02*
X92440000Y-27320000D01*
X93960000Y-27360000D02*
X92445000Y-27360000D01*
X93960000Y-27400000D02*
X92451000Y-27400000D01*
X93960000Y-27440000D02*
X92457000Y-27440000D01*
X93960000Y-27480000D02*
X92464000Y-27480000D01*
X93960000Y-27520000D02*
X92472000Y-27520000D01*
X93960000Y-27560000D02*
X92481000Y-27560000D01*
X93960000Y-27600000D02*
X92490000Y-27600000D01*
X93960000Y-27640000D02*
X92499000Y-27640000D01*
X93960000Y-27680000D02*
X92510000Y-27680000D01*
X93960000Y-27720000D02*
X92521000Y-27720000D01*
X93960000Y-27760000D02*
X92533000Y-27760000D01*
X93960000Y-27800000D02*
X92545000Y-27800000D01*
X93960000Y-27840000D02*
X92558000Y-27840000D01*
X93960000Y-27880000D02*
X92572000Y-27880000D01*
X93960000Y-27920000D02*
X92587000Y-27920000D01*
X93960000Y-27960000D02*
X92602000Y-27960000D01*
X93960000Y-28000000D02*
X92618000Y-28000000D01*
X93960000Y-28040000D02*
X92635000Y-28040000D01*
X93960000Y-28080000D02*
X92653000Y-28080000D01*
X93960000Y-28120000D02*
X92671000Y-28120000D01*
X93960000Y-28160000D02*
X92691000Y-28160000D01*
X93960000Y-28200000D02*
X92711000Y-28200000D01*
X93960000Y-28240000D02*
X92732000Y-28240000D01*
X93960000Y-28280000D02*
X92754000Y-28280000D01*
X93960000Y-28320000D02*
X92777000Y-28320000D01*
X93960000Y-28360000D02*
X92801000Y-28360000D01*
X93960000Y-28400000D02*
X92825000Y-28400000D01*
X93960000Y-28440000D02*
X92851000Y-28440000D01*
X93960000Y-28480000D02*
X92878000Y-28480000D01*
X93960000Y-28520000D02*
X92906000Y-28520000D01*
X93960000Y-28560000D02*
X92935000Y-28560000D01*
X93960000Y-28600000D02*
X92965000Y-28600000D01*
X93960000Y-28640000D02*
X92997000Y-28640000D01*
X93960000Y-28680000D02*
X93030000Y-28680000D01*
X93960000Y-28720000D02*
X93064000Y-28720000D01*
X93960000Y-28760000D02*
X93099000Y-28760000D01*
X93960000Y-28800000D02*
X93136000Y-28800000D01*
X93960000Y-28840000D02*
X93175000Y-28840000D01*
X93960000Y-28880000D02*
X93215000Y-28880000D01*
X93960000Y-28920000D02*
X93257000Y-28920000D01*
X93960000Y-28960000D02*
X93301000Y-28960000D01*
X93960000Y-29000000D02*
X93348000Y-29000000D01*
X95283000Y-29600000D02*
X94717000Y-29600000D01*
X95517000Y-29560000D02*
X94483000Y-29560000D01*
X95677000Y-29520000D02*
X94323000Y-29520000D01*
X95805000Y-29480000D02*
X94195000Y-29480000D01*
X95914000Y-29440000D02*
X94086000Y-29440000D01*
X96011000Y-29400000D02*
X93989000Y-29400000D01*
X96098000Y-29360000D02*
X93902000Y-29360000D01*
X96177000Y-29320000D02*
X93823000Y-29320000D01*
X96251000Y-29280000D02*
X93749000Y-29280000D01*
X96319000Y-29240000D02*
X93681000Y-29240000D01*
X96383000Y-29200000D02*
X93617000Y-29200000D01*
X96443000Y-29160000D02*
X93557000Y-29160000D01*
X96475000Y-24195225D02*
X96475000Y-24695225D01*
X96499000Y-29120000D02*
X93501000Y-29120000D01*
X96553000Y-29080000D02*
X93447000Y-29080000D01*
X96604000Y-29040000D02*
X93396000Y-29040000D01*
X96652000Y-29000000D02*
X96040000Y-29000000D01*
X96699000Y-28960000D02*
X96040000Y-28960000D01*
X96725000Y-24445225D02*
X96225000Y-24445225D01*
X96743000Y-28920000D02*
X96040000Y-28920000D01*
X96785000Y-28880000D02*
X96040000Y-28880000D01*
X96825000Y-28840000D02*
X96040000Y-28840000D01*
X96864000Y-28800000D02*
X96040000Y-28800000D01*
X96901000Y-28760000D02*
X96040000Y-28760000D01*
X96936000Y-28720000D02*
X96040000Y-28720000D01*
X96970000Y-28680000D02*
X96040000Y-28680000D01*
X97003000Y-28640000D02*
X96040000Y-28640000D01*
X97035000Y-28600000D02*
X96040000Y-28600000D01*
X97065000Y-28560000D02*
X96040000Y-28560000D01*
X97094000Y-28520000D02*
X96040000Y-28520000D01*
X97122000Y-28480000D02*
X96040000Y-28480000D01*
X97149000Y-28440000D02*
X96040000Y-28440000D01*
X97175000Y-28400000D02*
X96040000Y-28400000D01*
X97199000Y-28360000D02*
X96040000Y-28360000D01*
X97223000Y-28320000D02*
X96040000Y-28320000D01*
X97246000Y-28280000D02*
X96040000Y-28280000D01*
X97268000Y-28240000D02*
X96040000Y-28240000D01*
X97289000Y-28200000D02*
X96040000Y-28200000D01*
X97309000Y-28160000D02*
X96040000Y-28160000D01*
X97329000Y-28120000D02*
X96040000Y-28120000D01*
X97347000Y-28080000D02*
X96040000Y-28080000D01*
X97365000Y-28040000D02*
X96040000Y-28040000D01*
X97382000Y-28000000D02*
X96040000Y-28000000D01*
X97398000Y-27960000D02*
X96040000Y-27960000D01*
X97413000Y-27920000D02*
X96040000Y-27920000D01*
X97428000Y-27880000D02*
X96040000Y-27880000D01*
X97442000Y-27840000D02*
X96040000Y-27840000D01*
X97455000Y-27800000D02*
X96040000Y-27800000D01*
X97467000Y-27760000D02*
X96040000Y-27760000D01*
X97479000Y-27720000D02*
X96040000Y-27720000D01*
X97490000Y-27680000D02*
X96040000Y-27680000D01*
X97501000Y-27640000D02*
X96040000Y-27640000D01*
X97510000Y-27600000D02*
X96040000Y-27600000D01*
X97519000Y-27560000D02*
X96040000Y-27560000D01*
X97528000Y-27520000D02*
X96040000Y-27520000D01*
X97536000Y-27480000D02*
X96040000Y-27480000D01*
X97543000Y-27440000D02*
X96040000Y-27440000D01*
X97549000Y-27400000D02*
X96040000Y-27400000D01*
X97555000Y-27360000D02*
X96040000Y-27360000D01*
X97560000Y-27320000D02*
X96040000Y-27320000D01*
X97565000Y-27280000D02*
X96040000Y-27280000D01*
X97569000Y-27240000D02*
X96040000Y-27240000D01*
X97572000Y-27200000D02*
X96040000Y-27200000D01*
X97575000Y-27160000D02*
X96040000Y-27160000D01*
X97577000Y-27120000D02*
X96040000Y-27120000D01*
X97579000Y-27080000D02*
X96040000Y-27080000D01*
X97580000Y-27000000D02*
X96040000Y-27000000D01*
X97580000Y-27040000D02*
X96040000Y-27040000D01*
X97620000Y-27000000D02*
G75*
G02*
X92380000Y-27000000I-2620000J0D01*
G01*
X92380000Y-27000000D02*
G75*
G02*
X97620000Y-27000000I2620000J0D01*
G01*
%TO.C,R12*%
X25730000Y-45845000D02*
X28340000Y-45845000D01*
X25730000Y-45845000D02*
G75*
G02*
X22990000Y-45845000I-1370000J0D01*
G01*
X22990000Y-45845000D02*
G75*
G02*
X25730000Y-45845000I1370000J0D01*
G01*
%TO.C,Q17*%
X52740000Y-35850000D02*
X56340000Y-35850000D01*
X52183600Y-32901193D02*
G75*
G02*
X54540000Y-31400000I2356400J-1098807D01*
G01*
X52740000Y-35850000D02*
G75*
G02*
X52215816Y-35122795I1800000J1850000D01*
G01*
X54540000Y-31400000D02*
G75*
G02*
X56896400Y-32901193I0J-2600000D01*
G01*
X56864184Y-35122795D02*
G75*
G02*
X56340000Y-35850000I-2324184J1122795D01*
G01*
%TO.C,R3*%
X25730000Y-16000000D02*
X28340000Y-16000000D01*
X25730000Y-16000000D02*
G75*
G02*
X22990000Y-16000000I-1370000J0D01*
G01*
X22990000Y-16000000D02*
G75*
G02*
X25730000Y-16000000I1370000J0D01*
G01*
%TO.C,R24*%
X33000000Y-65370000D02*
X33000000Y-67980000D01*
X34370000Y-64000000D02*
G75*
G02*
X31630000Y-64000000I-1370000J0D01*
G01*
X31630000Y-64000000D02*
G75*
G02*
X34370000Y-64000000I1370000J0D01*
G01*
%TO.C,Q7*%
X25100000Y-30550000D02*
X28700000Y-30550000D01*
X24543600Y-27601193D02*
G75*
G02*
X26900000Y-26100000I2356400J-1098807D01*
G01*
X25100000Y-30550000D02*
G75*
G02*
X24575816Y-29822795I1800000J1850000D01*
G01*
X26900000Y-26100000D02*
G75*
G02*
X29256400Y-27601193I0J-2600000D01*
G01*
X29224184Y-29822795D02*
G75*
G02*
X28700000Y-30550000I-2324184J1122795D01*
G01*
%TO.C,R14*%
X58000000Y-23370000D02*
X58000000Y-25980000D01*
X59370000Y-22000000D02*
G75*
G02*
X56630000Y-22000000I-1370000J0D01*
G01*
X56630000Y-22000000D02*
G75*
G02*
X59370000Y-22000000I1370000J0D01*
G01*
%TO.C,Q5*%
X9740000Y-35630000D02*
X13340000Y-35630000D01*
X9183600Y-32681193D02*
G75*
G02*
X11540000Y-31180000I2356400J-1098807D01*
G01*
X9740000Y-35630000D02*
G75*
G02*
X9215816Y-34902795I1800000J1850000D01*
G01*
X11540000Y-31180000D02*
G75*
G02*
X13896400Y-32681193I0J-2600000D01*
G01*
X13864184Y-34902795D02*
G75*
G02*
X13340000Y-35630000I-2324184J1122795D01*
G01*
%TO.C,D2*%
X25664000Y-52485000D02*
X25820000Y-52485000D01*
X27980000Y-52485000D02*
X28136000Y-52485000D01*
X25664484Y-52485000D02*
G75*
G02*
X25820000Y-49253563I1235516J1560000D01*
G01*
X25820000Y-51965961D02*
G75*
G02*
X25820000Y-49884039I1080000J1040961D01*
G01*
X27980000Y-49253563D02*
G75*
G02*
X28135516Y-52485000I-1080000J-1671437D01*
G01*
X27980000Y-49884039D02*
G75*
G02*
X27980000Y-51965961I-1080000J-1040961D01*
G01*
%TO.C,R2*%
X18050000Y-16000000D02*
X20660000Y-16000000D01*
X18050000Y-16000000D02*
G75*
G02*
X15310000Y-16000000I-1370000J0D01*
G01*
X15310000Y-16000000D02*
G75*
G02*
X18050000Y-16000000I1370000J0D01*
G01*
%TD*%
M02*
