M48
; DRILL file KiCad 10.0.5 date 2026-09-23T11:24:28
; FORMAT={-:-/ absolute / metric / decimal}
; #@! TF.CreationDate,2026-09-23T11:24:28-04:00
; #@! TF.GenerationSoftware,Kicad,Pcbnew,10.0.5
; #@! TF.FileFunction,MixedPlating,1,2
FMAT,2
METRIC
; #@! TA.AperFunction,Plated,PTH,ViaDrill
T1C0.400
; #@! TA.AperFunction,Plated,PTH,ComponentDrill
T2C0.800
; #@! TA.AperFunction,Plated,PTH,ComponentDrill
T3C0.900
; #@! TA.AperFunction,Plated,PTH,ComponentDrill
T4C1.000
; #@! TA.AperFunction,Plated,PTH,ComponentDrill
T5C1.100
; #@! TA.AperFunction,Plated,PTH,ComponentDrill
T6C3.200
%
G90
G05
T1
X7.73Y-12.5
X10.63Y-14.0
X15.41Y-14.0
X18.25Y-2.46
X23.09Y-12.5
X30.77Y-14.0
X89.37Y-2.46
X89.37Y-14.0
X95.0Y-21.5
X95.0Y-30.5
T2
X9.0Y-16.0
X9.0Y-20.445
X9.0Y-24.255
X9.0Y-28.7
X9.0Y-33.78
X9.0Y-37.59
X9.0Y-42.035
X9.0Y-45.845
X9.0Y-50.29
X11.54Y-20.445
X11.54Y-28.7
X11.54Y-33.78
X11.54Y-42.035
X11.54Y-50.29
X14.08Y-16.0
X14.08Y-20.445
X14.08Y-24.255
X14.08Y-28.7
X14.08Y-33.78
X14.08Y-37.59
X14.08Y-42.035
X14.08Y-45.845
X14.08Y-50.29
X16.68Y-16.0
X16.68Y-19.81
X16.68Y-24.255
X16.68Y-28.065
X16.68Y-32.51
X16.68Y-36.32
X16.68Y-41.4
X16.68Y-45.845
X16.68Y-56.64
X19.22Y-19.81
X19.22Y-28.065
X19.22Y-36.32
X19.22Y-41.4
X19.22Y-56.64
X21.76Y-16.0
X21.76Y-19.81
X21.76Y-24.255
X21.76Y-28.065
X21.76Y-32.51
X21.76Y-36.32
X21.76Y-41.4
X21.76Y-45.845
X21.76Y-56.64
X24.36Y-16.0
X24.36Y-20.445
X24.36Y-24.255
X24.36Y-28.7
X24.36Y-33.78
X24.36Y-37.59
X24.36Y-42.035
X24.36Y-45.845
X24.36Y-56.64
X26.9Y-20.445
X26.9Y-28.7
X26.9Y-33.78
X26.9Y-42.035
X26.9Y-56.64
X29.44Y-16.0
X29.44Y-20.445
X29.44Y-24.255
X29.44Y-28.7
X29.44Y-33.78
X29.44Y-37.59
X29.44Y-42.035
X29.44Y-45.845
X29.44Y-56.64
X40.0Y-34.0
X40.0Y-52.0
X40.0Y-57.08
X40.0Y-64.0
X40.0Y-69.08
X40.0Y-86.0
X40.0Y-91.08
X42.54Y-34.0
X45.08Y-34.0
X46.0Y-22.0
X46.0Y-27.08
X46.0Y-64.0
X46.0Y-66.5
X46.0Y-78.0
X46.0Y-86.0
X46.0Y-91.08
X52.0Y-34.0
X52.0Y-70.0
X52.0Y-86.0
X52.0Y-91.08
X53.62Y-78.0
X54.54Y-34.0
X57.08Y-34.0
X58.0Y-22.0
X58.0Y-27.08
X58.0Y-64.0
X58.0Y-66.0
X58.0Y-78.0
X58.0Y-86.0
X58.0Y-88.0
X59.62Y-70.0
X64.0Y-86.0
X64.0Y-91.08
X65.62Y-78.0
X70.0Y-86.0
X70.0Y-91.08
X76.0Y-86.0
X76.0Y-91.08
X82.0Y-64.0
X82.0Y-69.08
X88.0Y-64.0
X88.0Y-66.5
X95.0Y-16.5
X95.0Y-19.0
X95.0Y-26.0
X95.0Y-28.0
T3
X19.22Y-49.655
X19.22Y-52.195
X26.9Y-49.655
X26.9Y-52.195
T4
X10.63Y-4.96
X10.63Y-7.5
X13.17Y-4.96
X13.17Y-7.5
X15.71Y-4.96
X15.71Y-7.5
X18.25Y-4.96
X18.25Y-7.5
X20.79Y-4.96
X20.79Y-7.5
X23.33Y-4.96
X23.33Y-7.5
X25.87Y-4.96
X25.87Y-7.5
X28.41Y-4.96
X28.41Y-7.5
X30.95Y-4.96
X30.95Y-7.5
X33.49Y-4.96
X33.49Y-7.5
X36.03Y-4.96
X36.03Y-7.5
X38.57Y-4.96
X38.57Y-7.5
X41.11Y-4.96
X41.11Y-7.5
X43.65Y-4.96
X43.65Y-7.5
X46.19Y-4.96
X46.19Y-7.5
X48.73Y-4.96
X48.73Y-7.5
X51.27Y-4.96
X51.27Y-7.5
X52.0Y-64.0
X52.0Y-66.54
X53.81Y-4.96
X53.81Y-7.5
X56.35Y-4.96
X56.35Y-7.5
X58.89Y-4.96
X58.89Y-7.5
X61.43Y-4.96
X61.43Y-7.5
X62.0Y-54.0
X62.0Y-56.5
X62.0Y-59.0
X63.97Y-4.96
X63.97Y-7.5
X66.51Y-4.96
X66.51Y-7.5
X69.05Y-4.96
X69.05Y-7.5
X71.59Y-4.96
X71.59Y-7.5
X74.13Y-4.96
X74.13Y-7.5
X76.67Y-4.96
X76.67Y-7.5
X79.21Y-4.96
X79.21Y-7.5
X81.75Y-4.96
X81.75Y-7.5
X84.29Y-4.96
X84.29Y-7.5
X86.83Y-4.96
X86.83Y-7.5
X89.37Y-4.96
X89.37Y-7.5
T6
X4.0Y-50.0
X96.0Y-50.0
T5
X69.15Y-51.7G85X69.85Y-51.7
G05
X69.15Y-61.3G85X69.85Y-61.3
G05
M30
