%TF.GenerationSoftware,KiCad,Pcbnew,10.0.5*%
%TF.CreationDate,2026-09-23T11:24:27-04:00*%
%TF.ProjectId,clock,636c6f63-6b2e-46b6-9963-61645f706362,rev?*%
%TF.SameCoordinates,Original*%
%TF.FileFunction,Soldermask,Bot*%
%TF.FilePolarity,Negative*%
%FSLAX46Y46*%
G04 Gerber Fmt 4.6, Leading zero omitted, Abs format (unit mm)*
G04 Created by KiCad (PCBNEW 10.0.5) date 2026-09-23 11:24:27*
%MOMM*%
%LPD*%
G01*
G04 APERTURE LIST*
G04 Aperture macros list*
%AMRoundRect*
0 Rectangle with rounded corners*
0 $1 Rounding radius*
0 $2 $3 $4 $5 $6 $7 $8 $9 X,Y pos of 4 corners*
0 Add a 4 corners polygon primitive as box body*
4,1,4,$2,$3,$4,$5,$6,$7,$8,$9,$2,$3,0*
0 Add four circle primitives for the rounded corners*
1,1,$1+$1,$2,$3*
1,1,$1+$1,$4,$5*
1,1,$1+$1,$6,$7*
1,1,$1+$1,$8,$9*
0 Add four rect primitives between the rounded corners*
20,1,$1+$1,$2,$3,$4,$5,0*
20,1,$1+$1,$4,$5,$6,$7,0*
20,1,$1+$1,$6,$7,$8,$9,0*
20,1,$1+$1,$8,$9,$2,$3,0*%
G04 Aperture macros list end*
%ADD10C,1.600000*%
%ADD11RoundRect,0.250000X-0.550000X-0.550000X0.550000X-0.550000X0.550000X0.550000X-0.550000X0.550000X0*%
%ADD12R,1.500000X1.500000*%
%ADD13C,1.500000*%
%ADD14RoundRect,0.250000X-0.550000X0.550000X-0.550000X-0.550000X0.550000X-0.550000X0.550000X0.550000X0*%
%ADD15R,1.800000X1.800000*%
%ADD16C,1.800000*%
%ADD17R,1.700000X1.700000*%
%ADD18C,1.700000*%
%ADD19C,6.400000*%
%ADD20O,3.240000X2.720000*%
%ADD21RoundRect,0.250000X0.600000X-0.600000X0.600000X0.600000X-0.600000X0.600000X-0.600000X-0.600000X0*%
G04 APERTURE END LIST*
D10*
%TO.C,R16*%
X40000000Y-64000000D03*
X40000000Y-69080000D03*
%TD*%
D11*
%TO.C,D4*%
X52000000Y-70000000D03*
D10*
X59620000Y-70000000D03*
%TD*%
%TO.C,R14*%
X58000000Y-22000000D03*
X58000000Y-27080000D03*
%TD*%
%TO.C,R19*%
X82000000Y-64000000D03*
X82000000Y-69080000D03*
%TD*%
%TO.C,R10*%
X9000000Y-45845000D03*
X14080000Y-45845000D03*
%TD*%
%TO.C,R6*%
X24360000Y-24255000D03*
X29440000Y-24255000D03*
%TD*%
D12*
%TO.C,Q5*%
X9000000Y-33780000D03*
D13*
X11540000Y-33780000D03*
X14080000Y-33780000D03*
%TD*%
D10*
%TO.C,R21*%
X70000000Y-86000000D03*
X70000000Y-91080000D03*
%TD*%
%TO.C,R2*%
X16680000Y-16000000D03*
X21760000Y-16000000D03*
%TD*%
%TO.C,R7*%
X16680000Y-32510000D03*
X21760000Y-32510000D03*
%TD*%
D12*
%TO.C,Q1*%
X9000000Y-20445000D03*
D13*
X11540000Y-20445000D03*
X14080000Y-20445000D03*
%TD*%
D12*
%TO.C,Q9*%
X21760000Y-41400000D03*
D13*
X19220000Y-41400000D03*
X16680000Y-41400000D03*
%TD*%
D12*
%TO.C,Q11*%
X9000000Y-42035000D03*
D13*
X11540000Y-42035000D03*
X14080000Y-42035000D03*
%TD*%
D12*
%TO.C,Q2*%
X21760000Y-19810000D03*
D13*
X19220000Y-19810000D03*
X16680000Y-19810000D03*
%TD*%
D14*
%TO.C,C4*%
X58000000Y-64000000D03*
D10*
X58000000Y-66000000D03*
%TD*%
D15*
%TO.C,D1*%
X19220000Y-52195000D03*
D16*
X19220000Y-49655000D03*
%TD*%
D15*
%TO.C,D2*%
X26900000Y-52195000D03*
D16*
X26900000Y-49655000D03*
%TD*%
D10*
%TO.C,C3*%
X46000000Y-64000000D03*
X46000000Y-66500000D03*
%TD*%
D12*
%TO.C,Q12*%
X24360000Y-42035000D03*
D13*
X26900000Y-42035000D03*
X29440000Y-42035000D03*
%TD*%
D12*
%TO.C,Q10*%
X24360000Y-33780000D03*
D13*
X26900000Y-33780000D03*
X29440000Y-33780000D03*
%TD*%
D12*
%TO.C,Q14*%
X21760000Y-56640000D03*
D13*
X19220000Y-56640000D03*
X16680000Y-56640000D03*
%TD*%
D10*
%TO.C,R22*%
X76000000Y-86000000D03*
X76000000Y-91080000D03*
%TD*%
%TO.C,C1*%
X95000000Y-16500000D03*
X95000000Y-19000000D03*
%TD*%
%TO.C,R18*%
X46000000Y-86000000D03*
X46000000Y-91080000D03*
%TD*%
D17*
%TO.C,J2*%
X52000000Y-64000000D03*
D18*
X52000000Y-66540000D03*
%TD*%
D11*
%TO.C,D3*%
X58000000Y-78000000D03*
D10*
X65620000Y-78000000D03*
%TD*%
%TO.C,R5*%
X16680000Y-24255000D03*
X21760000Y-24255000D03*
%TD*%
D12*
%TO.C,Q4*%
X9000000Y-28700000D03*
D13*
X11540000Y-28700000D03*
X14080000Y-28700000D03*
%TD*%
D10*
%TO.C,R4*%
X9000000Y-24255000D03*
X14080000Y-24255000D03*
%TD*%
D12*
%TO.C,Q17*%
X52000000Y-34000000D03*
D13*
X54540000Y-34000000D03*
X57080000Y-34000000D03*
%TD*%
D19*
%TO.C,H2*%
X96000000Y-50000000D03*
%TD*%
D10*
%TO.C,R13*%
X46000000Y-22000000D03*
X46000000Y-27080000D03*
%TD*%
D11*
%TO.C,SW1*%
X46000000Y-78000000D03*
D10*
X53620000Y-78000000D03*
%TD*%
%TO.C,R20*%
X52000000Y-86000000D03*
X52000000Y-91080000D03*
%TD*%
D12*
%TO.C,Q7*%
X24360000Y-28700000D03*
D13*
X26900000Y-28700000D03*
X29440000Y-28700000D03*
%TD*%
D10*
%TO.C,R12*%
X24360000Y-45845000D03*
X29440000Y-45845000D03*
%TD*%
D12*
%TO.C,Q3*%
X24360000Y-20445000D03*
D13*
X26900000Y-20445000D03*
X29440000Y-20445000D03*
%TD*%
D10*
%TO.C,R1*%
X9000000Y-16000000D03*
X14080000Y-16000000D03*
%TD*%
D20*
%TO.C,RV1*%
X69500000Y-51700000D03*
X69500000Y-61300000D03*
D15*
X62000000Y-54000000D03*
D16*
X62000000Y-56500000D03*
X62000000Y-59000000D03*
%TD*%
D14*
%TO.C,C6*%
X58000000Y-86000000D03*
D10*
X58000000Y-88000000D03*
%TD*%
%TO.C,R11*%
X16680000Y-45845000D03*
X21760000Y-45845000D03*
%TD*%
D19*
%TO.C,H1*%
X4000000Y-50000000D03*
%TD*%
D12*
%TO.C,Q13*%
X9000000Y-50290000D03*
D13*
X11540000Y-50290000D03*
X14080000Y-50290000D03*
%TD*%
D10*
%TO.C,R23*%
X64000000Y-86000000D03*
X64000000Y-91080000D03*
%TD*%
D12*
%TO.C,Q6*%
X21760000Y-28065000D03*
D13*
X19220000Y-28065000D03*
X16680000Y-28065000D03*
%TD*%
D14*
%TO.C,C2*%
X95000000Y-26000000D03*
D10*
X95000000Y-28000000D03*
%TD*%
%TO.C,R9*%
X24360000Y-37590000D03*
X29440000Y-37590000D03*
%TD*%
D21*
%TO.C,J1*%
X10630000Y-7500000D03*
D18*
X10630000Y-4960000D03*
X13170000Y-7500000D03*
X13170000Y-4960000D03*
X15710000Y-7500000D03*
X15710000Y-4960000D03*
X18250000Y-7500000D03*
X18250000Y-4960000D03*
X20790000Y-7500000D03*
X20790000Y-4960000D03*
X23330000Y-7500000D03*
X23330000Y-4960000D03*
X25870000Y-7500000D03*
X25870000Y-4960000D03*
X28410000Y-7500000D03*
X28410000Y-4960000D03*
X30950000Y-7500000D03*
X30950000Y-4960000D03*
X33490000Y-7500000D03*
X33490000Y-4960000D03*
X36030000Y-7500000D03*
X36030000Y-4960000D03*
X38570000Y-7500000D03*
X38570000Y-4960000D03*
X41110000Y-7500000D03*
X41110000Y-4960000D03*
X43650000Y-7500000D03*
X43650000Y-4960000D03*
X46190000Y-7500000D03*
X46190000Y-4960000D03*
X48730000Y-7500000D03*
X48730000Y-4960000D03*
X51270000Y-7500000D03*
X51270000Y-4960000D03*
X53810000Y-7500000D03*
X53810000Y-4960000D03*
X56350000Y-7500000D03*
X56350000Y-4960000D03*
X58890000Y-7500000D03*
X58890000Y-4960000D03*
X61430000Y-7500000D03*
X61430000Y-4960000D03*
X63970000Y-7500000D03*
X63970000Y-4960000D03*
X66510000Y-7500000D03*
X66510000Y-4960000D03*
X69050000Y-7500000D03*
X69050000Y-4960000D03*
X71590000Y-7500000D03*
X71590000Y-4960000D03*
X74130000Y-7500000D03*
X74130000Y-4960000D03*
X76670000Y-7500000D03*
X76670000Y-4960000D03*
X79210000Y-7500000D03*
X79210000Y-4960000D03*
X81750000Y-7500000D03*
X81750000Y-4960000D03*
X84290000Y-7500000D03*
X84290000Y-4960000D03*
X86830000Y-7500000D03*
X86830000Y-4960000D03*
X89370000Y-7500000D03*
X89370000Y-4960000D03*
%TD*%
D10*
%TO.C,R8*%
X9000000Y-37590000D03*
X14080000Y-37590000D03*
%TD*%
%TO.C,R17*%
X40000000Y-86000000D03*
X40000000Y-91080000D03*
%TD*%
D12*
%TO.C,Q8*%
X21760000Y-36320000D03*
D13*
X19220000Y-36320000D03*
X16680000Y-36320000D03*
%TD*%
D12*
%TO.C,Q16*%
X40000000Y-34000000D03*
D13*
X42540000Y-34000000D03*
X45080000Y-34000000D03*
%TD*%
D10*
%TO.C,R3*%
X24360000Y-16000000D03*
X29440000Y-16000000D03*
%TD*%
%TO.C,C5*%
X88000000Y-64000000D03*
X88000000Y-66500000D03*
%TD*%
%TO.C,R15*%
X40000000Y-52000000D03*
X40000000Y-57080000D03*
%TD*%
D12*
%TO.C,Q15*%
X24360000Y-56640000D03*
D13*
X26900000Y-56640000D03*
X29440000Y-56640000D03*
%TD*%
M02*
