%TF.GenerationSoftware,KiCad,Pcbnew,10.0.5*%
%TF.CreationDate,2026-09-23T11:24:27-04:00*%
%TF.ProjectId,clock,636c6f63-6b2e-46b6-9963-61645f706362,rev?*%
%TF.SameCoordinates,Original*%
%TF.FileFunction,Other,User*%
%FSLAX46Y46*%
G04 Gerber Fmt 4.6, Leading zero omitted, Abs format (unit mm)*
G04 Created by KiCad (PCBNEW 10.0.5) date 2026-09-23 11:24:27*
%MOMM*%
%LPD*%
G01*
G04 APERTURE LIST*
%ADD10C,0.050000*%
G04 APERTURE END LIST*
%TO.C,R16*%
D10*
X38500000Y-62500000D02*
X41500000Y-62500000D01*
X41500000Y-70130000D01*
X38500000Y-70130000D01*
X38500000Y-62500000D01*
%TO.C,D4*%
X50950000Y-68750000D02*
X60670000Y-68750000D01*
X60670000Y-71250000D01*
X50950000Y-71250000D01*
X50950000Y-68750000D01*
%TO.C,R14*%
X56500000Y-20500000D02*
X59500000Y-20500000D01*
X59500000Y-28130000D01*
X56500000Y-28130000D01*
X56500000Y-20500000D01*
%TO.C,R19*%
X80500000Y-62500000D02*
X83500000Y-62500000D01*
X83500000Y-70130000D01*
X80500000Y-70130000D01*
X80500000Y-62500000D01*
%TO.C,R10*%
X7500000Y-44345000D02*
X15130000Y-44345000D01*
X15130000Y-47345000D01*
X7500000Y-47345000D01*
X7500000Y-44345000D01*
%TO.C,R6*%
X22860000Y-22755000D02*
X30490000Y-22755000D01*
X30490000Y-25755000D01*
X22860000Y-25755000D01*
X22860000Y-22755000D01*
%TO.C,Q5*%
X7990000Y-31050000D02*
X7990000Y-35790000D01*
X7990000Y-31050000D02*
X15090000Y-31050000D01*
X15090000Y-35790000D02*
X7990000Y-35790000D01*
X15090000Y-35790000D02*
X15090000Y-31050000D01*
%TO.C,R21*%
X68500000Y-84500000D02*
X71500000Y-84500000D01*
X71500000Y-92130000D01*
X68500000Y-92130000D01*
X68500000Y-84500000D01*
%TO.C,R2*%
X15180000Y-14500000D02*
X22810000Y-14500000D01*
X22810000Y-17500000D01*
X15180000Y-17500000D01*
X15180000Y-14500000D01*
%TO.C,R7*%
X15180000Y-31010000D02*
X22810000Y-31010000D01*
X22810000Y-34010000D01*
X15180000Y-34010000D01*
X15180000Y-31010000D01*
%TO.C,Q1*%
X7990000Y-17715000D02*
X7990000Y-22455000D01*
X7990000Y-17715000D02*
X15090000Y-17715000D01*
X15090000Y-22455000D02*
X7990000Y-22455000D01*
X15090000Y-22455000D02*
X15090000Y-17715000D01*
%TO.C,Q9*%
X15670000Y-39390000D02*
X15670000Y-44130000D01*
X15670000Y-39390000D02*
X22770000Y-39390000D01*
X22770000Y-44130000D02*
X15670000Y-44130000D01*
X22770000Y-44130000D02*
X22770000Y-39390000D01*
%TO.C,Q11*%
X7990000Y-39305000D02*
X7990000Y-44045000D01*
X7990000Y-39305000D02*
X15090000Y-39305000D01*
X15090000Y-44045000D02*
X7990000Y-44045000D01*
X15090000Y-44045000D02*
X15090000Y-39305000D01*
%TO.C,Q2*%
X15670000Y-17800000D02*
X15670000Y-22540000D01*
X15670000Y-17800000D02*
X22770000Y-17800000D01*
X22770000Y-22540000D02*
X15670000Y-22540000D01*
X22770000Y-22540000D02*
X22770000Y-17800000D01*
%TO.C,C4*%
X60750000Y-65000000D02*
G75*
G02*
X55250000Y-65000000I-2750000J0D01*
G01*
X55250000Y-65000000D02*
G75*
G02*
X60750000Y-65000000I2750000J0D01*
G01*
%TO.C,D1*%
X17010000Y-48505000D02*
X21430000Y-48505000D01*
X21430000Y-53345000D01*
X17010000Y-53345000D01*
X17010000Y-48505000D01*
%TO.C,D2*%
X24690000Y-48505000D02*
X29110000Y-48505000D01*
X29110000Y-53345000D01*
X24690000Y-53345000D01*
X24690000Y-48505000D01*
%TO.C,C3*%
X44500000Y-62500000D02*
X47500000Y-62500000D01*
X47500000Y-68000000D01*
X44500000Y-68000000D01*
X44500000Y-62500000D01*
%TO.C,Q12*%
X23350000Y-39305000D02*
X23350000Y-44045000D01*
X23350000Y-39305000D02*
X30450000Y-39305000D01*
X30450000Y-44045000D02*
X23350000Y-44045000D01*
X30450000Y-44045000D02*
X30450000Y-39305000D01*
%TO.C,Q10*%
X23350000Y-31050000D02*
X23350000Y-35790000D01*
X23350000Y-31050000D02*
X30450000Y-31050000D01*
X30450000Y-35790000D02*
X23350000Y-35790000D01*
X30450000Y-35790000D02*
X30450000Y-31050000D01*
%TO.C,Q14*%
X15670000Y-54630000D02*
X15670000Y-59370000D01*
X15670000Y-54630000D02*
X22770000Y-54630000D01*
X22770000Y-59370000D02*
X15670000Y-59370000D01*
X22770000Y-59370000D02*
X22770000Y-54630000D01*
%TO.C,R22*%
X74500000Y-84500000D02*
X77500000Y-84500000D01*
X77500000Y-92130000D01*
X74500000Y-92130000D01*
X74500000Y-84500000D01*
%TO.C,C1*%
X93500000Y-15000000D02*
X96500000Y-15000000D01*
X96500000Y-20500000D01*
X93500000Y-20500000D01*
X93500000Y-15000000D01*
%TO.C,R18*%
X44500000Y-84500000D02*
X47500000Y-84500000D01*
X47500000Y-92130000D01*
X44500000Y-92130000D01*
X44500000Y-84500000D01*
%TO.C,J2*%
X50230000Y-62230000D02*
X53770000Y-62230000D01*
X53770000Y-68320000D01*
X50230000Y-68320000D01*
X50230000Y-62230000D01*
%TO.C,D3*%
X56950000Y-76750000D02*
X66670000Y-76750000D01*
X66670000Y-79250000D01*
X56950000Y-79250000D01*
X56950000Y-76750000D01*
%TO.C,R5*%
X15180000Y-22755000D02*
X22810000Y-22755000D01*
X22810000Y-25755000D01*
X15180000Y-25755000D01*
X15180000Y-22755000D01*
%TO.C,Q4*%
X7990000Y-25970000D02*
X7990000Y-30710000D01*
X7990000Y-25970000D02*
X15090000Y-25970000D01*
X15090000Y-30710000D02*
X7990000Y-30710000D01*
X15090000Y-30710000D02*
X15090000Y-25970000D01*
%TO.C,R4*%
X7500000Y-22755000D02*
X15130000Y-22755000D01*
X15130000Y-25755000D01*
X7500000Y-25755000D01*
X7500000Y-22755000D01*
%TO.C,Q17*%
X50990000Y-31270000D02*
X50990000Y-36010000D01*
X50990000Y-31270000D02*
X58090000Y-31270000D01*
X58090000Y-36010000D02*
X50990000Y-36010000D01*
X58090000Y-36010000D02*
X58090000Y-31270000D01*
%TO.C,H2*%
X99450000Y-50000000D02*
G75*
G02*
X92550000Y-50000000I-3450000J0D01*
G01*
X92550000Y-50000000D02*
G75*
G02*
X99450000Y-50000000I3450000J0D01*
G01*
%TO.C,R13*%
X44500000Y-20500000D02*
X47500000Y-20500000D01*
X47500000Y-28130000D01*
X44500000Y-28130000D01*
X44500000Y-20500000D01*
%TO.C,SW1*%
X44670000Y-75330000D02*
X54950000Y-75330000D01*
X54950000Y-80670000D01*
X44670000Y-80670000D01*
X44670000Y-75330000D01*
%TO.C,R20*%
X50500000Y-84500000D02*
X53500000Y-84500000D01*
X53500000Y-92130000D01*
X50500000Y-92130000D01*
X50500000Y-84500000D01*
%TO.C,Q7*%
X23350000Y-25970000D02*
X23350000Y-30710000D01*
X23350000Y-25970000D02*
X30450000Y-25970000D01*
X30450000Y-30710000D02*
X23350000Y-30710000D01*
X30450000Y-30710000D02*
X30450000Y-25970000D01*
%TO.C,R12*%
X22860000Y-44345000D02*
X30490000Y-44345000D01*
X30490000Y-47345000D01*
X22860000Y-47345000D01*
X22860000Y-44345000D01*
%TO.C,Q3*%
X23350000Y-17715000D02*
X23350000Y-22455000D01*
X23350000Y-17715000D02*
X30450000Y-17715000D01*
X30450000Y-22455000D02*
X23350000Y-22455000D01*
X30450000Y-22455000D02*
X30450000Y-17715000D01*
%TO.C,R1*%
X7500000Y-14500000D02*
X15130000Y-14500000D01*
X15130000Y-17500000D01*
X7500000Y-17500000D01*
X7500000Y-14500000D01*
%TO.C,RV1*%
X60850000Y-50090000D02*
X60850000Y-62910000D01*
X60850000Y-62910000D02*
X74600000Y-62910000D01*
X74600000Y-50090000D02*
X60850000Y-50090000D01*
X74600000Y-62910000D02*
X74600000Y-50090000D01*
%TO.C,C6*%
X60750000Y-87000000D02*
G75*
G02*
X55250000Y-87000000I-2750000J0D01*
G01*
X55250000Y-87000000D02*
G75*
G02*
X60750000Y-87000000I2750000J0D01*
G01*
%TO.C,R11*%
X15180000Y-44345000D02*
X22810000Y-44345000D01*
X22810000Y-47345000D01*
X15180000Y-47345000D01*
X15180000Y-44345000D01*
%TO.C,H1*%
X7450000Y-50000000D02*
G75*
G02*
X550000Y-50000000I-3450000J0D01*
G01*
X550000Y-50000000D02*
G75*
G02*
X7450000Y-50000000I3450000J0D01*
G01*
%TO.C,Q13*%
X7990000Y-47560000D02*
X7990000Y-52300000D01*
X7990000Y-47560000D02*
X15090000Y-47560000D01*
X15090000Y-52300000D02*
X7990000Y-52300000D01*
X15090000Y-52300000D02*
X15090000Y-47560000D01*
%TO.C,R23*%
X62500000Y-84500000D02*
X65500000Y-84500000D01*
X65500000Y-92130000D01*
X62500000Y-92130000D01*
X62500000Y-84500000D01*
%TO.C,Q6*%
X15670000Y-26055000D02*
X15670000Y-30795000D01*
X15670000Y-26055000D02*
X22770000Y-26055000D01*
X22770000Y-30795000D02*
X15670000Y-30795000D01*
X22770000Y-30795000D02*
X22770000Y-26055000D01*
%TO.C,C2*%
X97750000Y-27000000D02*
G75*
G02*
X92250000Y-27000000I-2750000J0D01*
G01*
X92250000Y-27000000D02*
G75*
G02*
X97750000Y-27000000I2750000J0D01*
G01*
%TO.C,R9*%
X22860000Y-36090000D02*
X30490000Y-36090000D01*
X30490000Y-39090000D01*
X22860000Y-39090000D01*
X22860000Y-36090000D01*
%TO.C,J1*%
X5030000Y-1280000D02*
X94970000Y-1280000D01*
X94970000Y-11180000D01*
X5030000Y-11180000D01*
X5030000Y-1280000D01*
%TO.C,R8*%
X7500000Y-36090000D02*
X15130000Y-36090000D01*
X15130000Y-39090000D01*
X7500000Y-39090000D01*
X7500000Y-36090000D01*
%TO.C,R17*%
X38500000Y-84500000D02*
X41500000Y-84500000D01*
X41500000Y-92130000D01*
X38500000Y-92130000D01*
X38500000Y-84500000D01*
%TO.C,Q8*%
X15670000Y-34310000D02*
X15670000Y-39050000D01*
X15670000Y-34310000D02*
X22770000Y-34310000D01*
X22770000Y-39050000D02*
X15670000Y-39050000D01*
X22770000Y-39050000D02*
X22770000Y-34310000D01*
%TO.C,Q16*%
X38990000Y-31270000D02*
X38990000Y-36010000D01*
X38990000Y-31270000D02*
X46090000Y-31270000D01*
X46090000Y-36010000D02*
X38990000Y-36010000D01*
X46090000Y-36010000D02*
X46090000Y-31270000D01*
%TO.C,R3*%
X22860000Y-14500000D02*
X30490000Y-14500000D01*
X30490000Y-17500000D01*
X22860000Y-17500000D01*
X22860000Y-14500000D01*
%TO.C,C5*%
X86500000Y-62500000D02*
X89500000Y-62500000D01*
X89500000Y-68000000D01*
X86500000Y-68000000D01*
X86500000Y-62500000D01*
%TO.C,R15*%
X38500000Y-50500000D02*
X41500000Y-50500000D01*
X41500000Y-58130000D01*
X38500000Y-58130000D01*
X38500000Y-50500000D01*
%TO.C,Q15*%
X23350000Y-53910000D02*
X23350000Y-58650000D01*
X23350000Y-53910000D02*
X30450000Y-53910000D01*
X30450000Y-58650000D02*
X23350000Y-58650000D01*
X30450000Y-58650000D02*
X30450000Y-53910000D01*
%TD*%
M02*
