%TF.GenerationSoftware,KiCad,Pcbnew,10.0.5*%
%TF.CreationDate,2026-09-23T11:24:27-04:00*%
%TF.ProjectId,clock,636c6f63-6b2e-46b6-9963-61645f706362,rev?*%
%TF.SameCoordinates,Original*%
%TF.FileFunction,Legend,Top*%
%TF.FilePolarity,Positive*%
%FSLAX46Y46*%
G04 Gerber Fmt 4.6, Leading zero omitted, Abs format (unit mm)*
G04 Created by KiCad (PCBNEW 10.0.5) date 2026-09-23 11:24:27*
%MOMM*%
%LPD*%
G01*
G04 APERTURE LIST*
%ADD10C,0.150000*%
%ADD11C,0.250000*%
%ADD12C,0.120000*%
G04 APERTURE END LIST*
D10*
X22366303Y-51907295D02*
X22099636Y-51526342D01*
X21909160Y-51907295D02*
X21909160Y-51107295D01*
X21909160Y-51107295D02*
X22213922Y-51107295D01*
X22213922Y-51107295D02*
X22290112Y-51145390D01*
X22290112Y-51145390D02*
X22328207Y-51183485D01*
X22328207Y-51183485D02*
X22366303Y-51259676D01*
X22366303Y-51259676D02*
X22366303Y-51373961D01*
X22366303Y-51373961D02*
X22328207Y-51450152D01*
X22328207Y-51450152D02*
X22290112Y-51488247D01*
X22290112Y-51488247D02*
X22213922Y-51526342D01*
X22213922Y-51526342D02*
X21909160Y-51526342D01*
X22709160Y-51107295D02*
X22709160Y-51754914D01*
X22709160Y-51754914D02*
X22747255Y-51831104D01*
X22747255Y-51831104D02*
X22785350Y-51869200D01*
X22785350Y-51869200D02*
X22861541Y-51907295D01*
X22861541Y-51907295D02*
X23013922Y-51907295D01*
X23013922Y-51907295D02*
X23090112Y-51869200D01*
X23090112Y-51869200D02*
X23128207Y-51831104D01*
X23128207Y-51831104D02*
X23166303Y-51754914D01*
X23166303Y-51754914D02*
X23166303Y-51107295D01*
X23547255Y-51907295D02*
X23547255Y-51107295D01*
X23547255Y-51107295D02*
X24004398Y-51907295D01*
X24004398Y-51907295D02*
X24004398Y-51107295D01*
X29741541Y-51107295D02*
X29893922Y-51107295D01*
X29893922Y-51107295D02*
X29970112Y-51145390D01*
X29970112Y-51145390D02*
X30046303Y-51221580D01*
X30046303Y-51221580D02*
X30084398Y-51373961D01*
X30084398Y-51373961D02*
X30084398Y-51640628D01*
X30084398Y-51640628D02*
X30046303Y-51793009D01*
X30046303Y-51793009D02*
X29970112Y-51869200D01*
X29970112Y-51869200D02*
X29893922Y-51907295D01*
X29893922Y-51907295D02*
X29741541Y-51907295D01*
X29741541Y-51907295D02*
X29665350Y-51869200D01*
X29665350Y-51869200D02*
X29589160Y-51793009D01*
X29589160Y-51793009D02*
X29551064Y-51640628D01*
X29551064Y-51640628D02*
X29551064Y-51373961D01*
X29551064Y-51373961D02*
X29589160Y-51221580D01*
X29589160Y-51221580D02*
X29665350Y-51145390D01*
X29665350Y-51145390D02*
X29741541Y-51107295D01*
X30389159Y-51869200D02*
X30503445Y-51907295D01*
X30503445Y-51907295D02*
X30693921Y-51907295D01*
X30693921Y-51907295D02*
X30770112Y-51869200D01*
X30770112Y-51869200D02*
X30808207Y-51831104D01*
X30808207Y-51831104D02*
X30846302Y-51754914D01*
X30846302Y-51754914D02*
X30846302Y-51678723D01*
X30846302Y-51678723D02*
X30808207Y-51602533D01*
X30808207Y-51602533D02*
X30770112Y-51564438D01*
X30770112Y-51564438D02*
X30693921Y-51526342D01*
X30693921Y-51526342D02*
X30541540Y-51488247D01*
X30541540Y-51488247D02*
X30465350Y-51450152D01*
X30465350Y-51450152D02*
X30427255Y-51412057D01*
X30427255Y-51412057D02*
X30389159Y-51335866D01*
X30389159Y-51335866D02*
X30389159Y-51259676D01*
X30389159Y-51259676D02*
X30427255Y-51183485D01*
X30427255Y-51183485D02*
X30465350Y-51145390D01*
X30465350Y-51145390D02*
X30541540Y-51107295D01*
X30541540Y-51107295D02*
X30732017Y-51107295D01*
X30732017Y-51107295D02*
X30846302Y-51145390D01*
X31646303Y-51831104D02*
X31608207Y-51869200D01*
X31608207Y-51869200D02*
X31493922Y-51907295D01*
X31493922Y-51907295D02*
X31417731Y-51907295D01*
X31417731Y-51907295D02*
X31303445Y-51869200D01*
X31303445Y-51869200D02*
X31227255Y-51793009D01*
X31227255Y-51793009D02*
X31189160Y-51716819D01*
X31189160Y-51716819D02*
X31151064Y-51564438D01*
X31151064Y-51564438D02*
X31151064Y-51450152D01*
X31151064Y-51450152D02*
X31189160Y-51297771D01*
X31189160Y-51297771D02*
X31227255Y-51221580D01*
X31227255Y-51221580D02*
X31303445Y-51145390D01*
X31303445Y-51145390D02*
X31417731Y-51107295D01*
X31417731Y-51107295D02*
X31493922Y-51107295D01*
X31493922Y-51107295D02*
X31608207Y-51145390D01*
X31608207Y-51145390D02*
X31646303Y-51183485D01*
X4490588Y-8854819D02*
X3919160Y-8854819D01*
X4204874Y-8854819D02*
X4204874Y-7854819D01*
X4204874Y-7854819D02*
X4109636Y-7997676D01*
X4109636Y-7997676D02*
X4014398Y-8092914D01*
X4014398Y-8092914D02*
X3919160Y-8140533D01*
X43908207Y-74454819D02*
X43574874Y-73978628D01*
X43336779Y-74454819D02*
X43336779Y-73454819D01*
X43336779Y-73454819D02*
X43717731Y-73454819D01*
X43717731Y-73454819D02*
X43812969Y-73502438D01*
X43812969Y-73502438D02*
X43860588Y-73550057D01*
X43860588Y-73550057D02*
X43908207Y-73645295D01*
X43908207Y-73645295D02*
X43908207Y-73788152D01*
X43908207Y-73788152D02*
X43860588Y-73883390D01*
X43860588Y-73883390D02*
X43812969Y-73931009D01*
X43812969Y-73931009D02*
X43717731Y-73978628D01*
X43717731Y-73978628D02*
X43336779Y-73978628D01*
X44336779Y-73454819D02*
X44336779Y-74264342D01*
X44336779Y-74264342D02*
X44384398Y-74359580D01*
X44384398Y-74359580D02*
X44432017Y-74407200D01*
X44432017Y-74407200D02*
X44527255Y-74454819D01*
X44527255Y-74454819D02*
X44717731Y-74454819D01*
X44717731Y-74454819D02*
X44812969Y-74407200D01*
X44812969Y-74407200D02*
X44860588Y-74359580D01*
X44860588Y-74359580D02*
X44908207Y-74264342D01*
X44908207Y-74264342D02*
X44908207Y-73454819D01*
X45384398Y-74454819D02*
X45384398Y-73454819D01*
X45384398Y-73454819D02*
X45955826Y-74454819D01*
X45955826Y-74454819D02*
X45955826Y-73454819D01*
X49289160Y-60407200D02*
X49432017Y-60454819D01*
X49432017Y-60454819D02*
X49670112Y-60454819D01*
X49670112Y-60454819D02*
X49765350Y-60407200D01*
X49765350Y-60407200D02*
X49812969Y-60359580D01*
X49812969Y-60359580D02*
X49860588Y-60264342D01*
X49860588Y-60264342D02*
X49860588Y-60169104D01*
X49860588Y-60169104D02*
X49812969Y-60073866D01*
X49812969Y-60073866D02*
X49765350Y-60026247D01*
X49765350Y-60026247D02*
X49670112Y-59978628D01*
X49670112Y-59978628D02*
X49479636Y-59931009D01*
X49479636Y-59931009D02*
X49384398Y-59883390D01*
X49384398Y-59883390D02*
X49336779Y-59835771D01*
X49336779Y-59835771D02*
X49289160Y-59740533D01*
X49289160Y-59740533D02*
X49289160Y-59645295D01*
X49289160Y-59645295D02*
X49336779Y-59550057D01*
X49336779Y-59550057D02*
X49384398Y-59502438D01*
X49384398Y-59502438D02*
X49479636Y-59454819D01*
X49479636Y-59454819D02*
X49717731Y-59454819D01*
X49717731Y-59454819D02*
X49860588Y-59502438D01*
X50765350Y-60454819D02*
X50289160Y-60454819D01*
X50289160Y-60454819D02*
X50289160Y-59454819D01*
X51289160Y-59454819D02*
X51479636Y-59454819D01*
X51479636Y-59454819D02*
X51574874Y-59502438D01*
X51574874Y-59502438D02*
X51670112Y-59597676D01*
X51670112Y-59597676D02*
X51717731Y-59788152D01*
X51717731Y-59788152D02*
X51717731Y-60121485D01*
X51717731Y-60121485D02*
X51670112Y-60311961D01*
X51670112Y-60311961D02*
X51574874Y-60407200D01*
X51574874Y-60407200D02*
X51479636Y-60454819D01*
X51479636Y-60454819D02*
X51289160Y-60454819D01*
X51289160Y-60454819D02*
X51193922Y-60407200D01*
X51193922Y-60407200D02*
X51098684Y-60311961D01*
X51098684Y-60311961D02*
X51051065Y-60121485D01*
X51051065Y-60121485D02*
X51051065Y-59788152D01*
X51051065Y-59788152D02*
X51098684Y-59597676D01*
X51098684Y-59597676D02*
X51193922Y-59502438D01*
X51193922Y-59502438D02*
X51289160Y-59454819D01*
X52051065Y-59454819D02*
X52289160Y-60454819D01*
X52289160Y-60454819D02*
X52479636Y-59740533D01*
X52479636Y-59740533D02*
X52670112Y-60454819D01*
X52670112Y-60454819D02*
X52908208Y-59454819D01*
X58384398Y-49614700D02*
X58598684Y-49686128D01*
X58598684Y-49686128D02*
X58955826Y-49686128D01*
X58955826Y-49686128D02*
X59098684Y-49614700D01*
X59098684Y-49614700D02*
X59170112Y-49543271D01*
X59170112Y-49543271D02*
X59241541Y-49400414D01*
X59241541Y-49400414D02*
X59241541Y-49257557D01*
X59241541Y-49257557D02*
X59170112Y-49114700D01*
X59170112Y-49114700D02*
X59098684Y-49043271D01*
X59098684Y-49043271D02*
X58955826Y-48971842D01*
X58955826Y-48971842D02*
X58670112Y-48900414D01*
X58670112Y-48900414D02*
X58527255Y-48828985D01*
X58527255Y-48828985D02*
X58455826Y-48757557D01*
X58455826Y-48757557D02*
X58384398Y-48614700D01*
X58384398Y-48614700D02*
X58384398Y-48471842D01*
X58384398Y-48471842D02*
X58455826Y-48328985D01*
X58455826Y-48328985D02*
X58527255Y-48257557D01*
X58527255Y-48257557D02*
X58670112Y-48186128D01*
X58670112Y-48186128D02*
X59027255Y-48186128D01*
X59027255Y-48186128D02*
X59241541Y-48257557D01*
X59884397Y-49686128D02*
X59884397Y-48186128D01*
X59884397Y-48186128D02*
X60455826Y-48186128D01*
X60455826Y-48186128D02*
X60598683Y-48257557D01*
X60598683Y-48257557D02*
X60670112Y-48328985D01*
X60670112Y-48328985D02*
X60741540Y-48471842D01*
X60741540Y-48471842D02*
X60741540Y-48686128D01*
X60741540Y-48686128D02*
X60670112Y-48828985D01*
X60670112Y-48828985D02*
X60598683Y-48900414D01*
X60598683Y-48900414D02*
X60455826Y-48971842D01*
X60455826Y-48971842D02*
X59884397Y-48971842D01*
X61384397Y-48900414D02*
X61884397Y-48900414D01*
X62098683Y-49686128D02*
X61384397Y-49686128D01*
X61384397Y-49686128D02*
X61384397Y-48186128D01*
X61384397Y-48186128D02*
X62098683Y-48186128D01*
X62741540Y-48900414D02*
X63241540Y-48900414D01*
X63455826Y-49686128D02*
X62741540Y-49686128D01*
X62741540Y-49686128D02*
X62741540Y-48186128D01*
X62741540Y-48186128D02*
X63455826Y-48186128D01*
X64098683Y-49686128D02*
X64098683Y-48186128D01*
X64098683Y-48186128D02*
X64455826Y-48186128D01*
X64455826Y-48186128D02*
X64670112Y-48257557D01*
X64670112Y-48257557D02*
X64812969Y-48400414D01*
X64812969Y-48400414D02*
X64884398Y-48543271D01*
X64884398Y-48543271D02*
X64955826Y-48828985D01*
X64955826Y-48828985D02*
X64955826Y-49043271D01*
X64955826Y-49043271D02*
X64884398Y-49328985D01*
X64884398Y-49328985D02*
X64812969Y-49471842D01*
X64812969Y-49471842D02*
X64670112Y-49614700D01*
X64670112Y-49614700D02*
X64455826Y-49686128D01*
X64455826Y-49686128D02*
X64098683Y-49686128D01*
D11*
X29521615Y-98880928D02*
X29521615Y-97380928D01*
X29521615Y-97380928D02*
X30378758Y-98880928D01*
X30378758Y-98880928D02*
X30378758Y-97380928D01*
X31093044Y-98880928D02*
X31093044Y-97380928D01*
X32307330Y-98095214D02*
X32521616Y-98166642D01*
X32521616Y-98166642D02*
X32593045Y-98238071D01*
X32593045Y-98238071D02*
X32664473Y-98380928D01*
X32664473Y-98380928D02*
X32664473Y-98595214D01*
X32664473Y-98595214D02*
X32593045Y-98738071D01*
X32593045Y-98738071D02*
X32521616Y-98809500D01*
X32521616Y-98809500D02*
X32378759Y-98880928D01*
X32378759Y-98880928D02*
X31807330Y-98880928D01*
X31807330Y-98880928D02*
X31807330Y-97380928D01*
X31807330Y-97380928D02*
X32307330Y-97380928D01*
X32307330Y-97380928D02*
X32450188Y-97452357D01*
X32450188Y-97452357D02*
X32521616Y-97523785D01*
X32521616Y-97523785D02*
X32593045Y-97666642D01*
X32593045Y-97666642D02*
X32593045Y-97809500D01*
X32593045Y-97809500D02*
X32521616Y-97952357D01*
X32521616Y-97952357D02*
X32450188Y-98023785D01*
X32450188Y-98023785D02*
X32307330Y-98095214D01*
X32307330Y-98095214D02*
X31807330Y-98095214D01*
X33807330Y-98095214D02*
X34021616Y-98166642D01*
X34021616Y-98166642D02*
X34093045Y-98238071D01*
X34093045Y-98238071D02*
X34164473Y-98380928D01*
X34164473Y-98380928D02*
X34164473Y-98595214D01*
X34164473Y-98595214D02*
X34093045Y-98738071D01*
X34093045Y-98738071D02*
X34021616Y-98809500D01*
X34021616Y-98809500D02*
X33878759Y-98880928D01*
X33878759Y-98880928D02*
X33307330Y-98880928D01*
X33307330Y-98880928D02*
X33307330Y-97380928D01*
X33307330Y-97380928D02*
X33807330Y-97380928D01*
X33807330Y-97380928D02*
X33950188Y-97452357D01*
X33950188Y-97452357D02*
X34021616Y-97523785D01*
X34021616Y-97523785D02*
X34093045Y-97666642D01*
X34093045Y-97666642D02*
X34093045Y-97809500D01*
X34093045Y-97809500D02*
X34021616Y-97952357D01*
X34021616Y-97952357D02*
X33950188Y-98023785D01*
X33950188Y-98023785D02*
X33807330Y-98095214D01*
X33807330Y-98095214D02*
X33307330Y-98095214D01*
X35521616Y-98880928D02*
X34807330Y-98880928D01*
X34807330Y-98880928D02*
X34807330Y-97380928D01*
X36021616Y-98095214D02*
X36521616Y-98095214D01*
X36735902Y-98880928D02*
X36021616Y-98880928D01*
X36021616Y-98880928D02*
X36021616Y-97380928D01*
X36021616Y-97380928D02*
X36735902Y-97380928D01*
X40521616Y-98738071D02*
X40450188Y-98809500D01*
X40450188Y-98809500D02*
X40235902Y-98880928D01*
X40235902Y-98880928D02*
X40093045Y-98880928D01*
X40093045Y-98880928D02*
X39878759Y-98809500D01*
X39878759Y-98809500D02*
X39735902Y-98666642D01*
X39735902Y-98666642D02*
X39664473Y-98523785D01*
X39664473Y-98523785D02*
X39593045Y-98238071D01*
X39593045Y-98238071D02*
X39593045Y-98023785D01*
X39593045Y-98023785D02*
X39664473Y-97738071D01*
X39664473Y-97738071D02*
X39735902Y-97595214D01*
X39735902Y-97595214D02*
X39878759Y-97452357D01*
X39878759Y-97452357D02*
X40093045Y-97380928D01*
X40093045Y-97380928D02*
X40235902Y-97380928D01*
X40235902Y-97380928D02*
X40450188Y-97452357D01*
X40450188Y-97452357D02*
X40521616Y-97523785D01*
X41878759Y-98880928D02*
X41164473Y-98880928D01*
X41164473Y-98880928D02*
X41164473Y-97380928D01*
X42664474Y-97380928D02*
X42950188Y-97380928D01*
X42950188Y-97380928D02*
X43093045Y-97452357D01*
X43093045Y-97452357D02*
X43235902Y-97595214D01*
X43235902Y-97595214D02*
X43307331Y-97880928D01*
X43307331Y-97880928D02*
X43307331Y-98380928D01*
X43307331Y-98380928D02*
X43235902Y-98666642D01*
X43235902Y-98666642D02*
X43093045Y-98809500D01*
X43093045Y-98809500D02*
X42950188Y-98880928D01*
X42950188Y-98880928D02*
X42664474Y-98880928D01*
X42664474Y-98880928D02*
X42521617Y-98809500D01*
X42521617Y-98809500D02*
X42378759Y-98666642D01*
X42378759Y-98666642D02*
X42307331Y-98380928D01*
X42307331Y-98380928D02*
X42307331Y-97880928D01*
X42307331Y-97880928D02*
X42378759Y-97595214D01*
X42378759Y-97595214D02*
X42521617Y-97452357D01*
X42521617Y-97452357D02*
X42664474Y-97380928D01*
X44807331Y-98738071D02*
X44735903Y-98809500D01*
X44735903Y-98809500D02*
X44521617Y-98880928D01*
X44521617Y-98880928D02*
X44378760Y-98880928D01*
X44378760Y-98880928D02*
X44164474Y-98809500D01*
X44164474Y-98809500D02*
X44021617Y-98666642D01*
X44021617Y-98666642D02*
X43950188Y-98523785D01*
X43950188Y-98523785D02*
X43878760Y-98238071D01*
X43878760Y-98238071D02*
X43878760Y-98023785D01*
X43878760Y-98023785D02*
X43950188Y-97738071D01*
X43950188Y-97738071D02*
X44021617Y-97595214D01*
X44021617Y-97595214D02*
X44164474Y-97452357D01*
X44164474Y-97452357D02*
X44378760Y-97380928D01*
X44378760Y-97380928D02*
X44521617Y-97380928D01*
X44521617Y-97380928D02*
X44735903Y-97452357D01*
X44735903Y-97452357D02*
X44807331Y-97523785D01*
X45450188Y-98880928D02*
X45450188Y-97380928D01*
X46307331Y-98880928D02*
X45664474Y-98023785D01*
X46307331Y-97380928D02*
X45450188Y-98238071D01*
D10*
X62109580Y-65166666D02*
X62157200Y-65214285D01*
X62157200Y-65214285D02*
X62204819Y-65357142D01*
X62204819Y-65357142D02*
X62204819Y-65452380D01*
X62204819Y-65452380D02*
X62157200Y-65595237D01*
X62157200Y-65595237D02*
X62061961Y-65690475D01*
X62061961Y-65690475D02*
X61966723Y-65738094D01*
X61966723Y-65738094D02*
X61776247Y-65785713D01*
X61776247Y-65785713D02*
X61633390Y-65785713D01*
X61633390Y-65785713D02*
X61442914Y-65738094D01*
X61442914Y-65738094D02*
X61347676Y-65690475D01*
X61347676Y-65690475D02*
X61252438Y-65595237D01*
X61252438Y-65595237D02*
X61204819Y-65452380D01*
X61204819Y-65452380D02*
X61204819Y-65357142D01*
X61204819Y-65357142D02*
X61252438Y-65214285D01*
X61252438Y-65214285D02*
X61300057Y-65166666D01*
X61538152Y-64309523D02*
X62204819Y-64309523D01*
X61157200Y-64547618D02*
X61871485Y-64785713D01*
X61871485Y-64785713D02*
X61871485Y-64166666D01*
X48859580Y-65416666D02*
X48907200Y-65464285D01*
X48907200Y-65464285D02*
X48954819Y-65607142D01*
X48954819Y-65607142D02*
X48954819Y-65702380D01*
X48954819Y-65702380D02*
X48907200Y-65845237D01*
X48907200Y-65845237D02*
X48811961Y-65940475D01*
X48811961Y-65940475D02*
X48716723Y-65988094D01*
X48716723Y-65988094D02*
X48526247Y-66035713D01*
X48526247Y-66035713D02*
X48383390Y-66035713D01*
X48383390Y-66035713D02*
X48192914Y-65988094D01*
X48192914Y-65988094D02*
X48097676Y-65940475D01*
X48097676Y-65940475D02*
X48002438Y-65845237D01*
X48002438Y-65845237D02*
X47954819Y-65702380D01*
X47954819Y-65702380D02*
X47954819Y-65607142D01*
X47954819Y-65607142D02*
X48002438Y-65464285D01*
X48002438Y-65464285D02*
X48050057Y-65416666D01*
X47954819Y-65083332D02*
X47954819Y-64464285D01*
X47954819Y-64464285D02*
X48335771Y-64797618D01*
X48335771Y-64797618D02*
X48335771Y-64654761D01*
X48335771Y-64654761D02*
X48383390Y-64559523D01*
X48383390Y-64559523D02*
X48431009Y-64511904D01*
X48431009Y-64511904D02*
X48526247Y-64464285D01*
X48526247Y-64464285D02*
X48764342Y-64464285D01*
X48764342Y-64464285D02*
X48859580Y-64511904D01*
X48859580Y-64511904D02*
X48907200Y-64559523D01*
X48907200Y-64559523D02*
X48954819Y-64654761D01*
X48954819Y-64654761D02*
X48954819Y-64940475D01*
X48954819Y-64940475D02*
X48907200Y-65035713D01*
X48907200Y-65035713D02*
X48859580Y-65083332D01*
X97859580Y-17916666D02*
X97907200Y-17964285D01*
X97907200Y-17964285D02*
X97954819Y-18107142D01*
X97954819Y-18107142D02*
X97954819Y-18202380D01*
X97954819Y-18202380D02*
X97907200Y-18345237D01*
X97907200Y-18345237D02*
X97811961Y-18440475D01*
X97811961Y-18440475D02*
X97716723Y-18488094D01*
X97716723Y-18488094D02*
X97526247Y-18535713D01*
X97526247Y-18535713D02*
X97383390Y-18535713D01*
X97383390Y-18535713D02*
X97192914Y-18488094D01*
X97192914Y-18488094D02*
X97097676Y-18440475D01*
X97097676Y-18440475D02*
X97002438Y-18345237D01*
X97002438Y-18345237D02*
X96954819Y-18202380D01*
X96954819Y-18202380D02*
X96954819Y-18107142D01*
X96954819Y-18107142D02*
X97002438Y-17964285D01*
X97002438Y-17964285D02*
X97050057Y-17916666D01*
X97954819Y-16964285D02*
X97954819Y-17535713D01*
X97954819Y-17249999D02*
X96954819Y-17249999D01*
X96954819Y-17249999D02*
X97097676Y-17345237D01*
X97097676Y-17345237D02*
X97192914Y-17440475D01*
X97192914Y-17440475D02*
X97240533Y-17535713D01*
X95238095Y-46304819D02*
X95238095Y-45304819D01*
X95238095Y-45781009D02*
X95809523Y-45781009D01*
X95809523Y-46304819D02*
X95809523Y-45304819D01*
X96238095Y-45400057D02*
X96285714Y-45352438D01*
X96285714Y-45352438D02*
X96380952Y-45304819D01*
X96380952Y-45304819D02*
X96619047Y-45304819D01*
X96619047Y-45304819D02*
X96714285Y-45352438D01*
X96714285Y-45352438D02*
X96761904Y-45400057D01*
X96761904Y-45400057D02*
X96809523Y-45495295D01*
X96809523Y-45495295D02*
X96809523Y-45590533D01*
X96809523Y-45590533D02*
X96761904Y-45733390D01*
X96761904Y-45733390D02*
X96190476Y-46304819D01*
X96190476Y-46304819D02*
X96809523Y-46304819D01*
X62109580Y-87166666D02*
X62157200Y-87214285D01*
X62157200Y-87214285D02*
X62204819Y-87357142D01*
X62204819Y-87357142D02*
X62204819Y-87452380D01*
X62204819Y-87452380D02*
X62157200Y-87595237D01*
X62157200Y-87595237D02*
X62061961Y-87690475D01*
X62061961Y-87690475D02*
X61966723Y-87738094D01*
X61966723Y-87738094D02*
X61776247Y-87785713D01*
X61776247Y-87785713D02*
X61633390Y-87785713D01*
X61633390Y-87785713D02*
X61442914Y-87738094D01*
X61442914Y-87738094D02*
X61347676Y-87690475D01*
X61347676Y-87690475D02*
X61252438Y-87595237D01*
X61252438Y-87595237D02*
X61204819Y-87452380D01*
X61204819Y-87452380D02*
X61204819Y-87357142D01*
X61204819Y-87357142D02*
X61252438Y-87214285D01*
X61252438Y-87214285D02*
X61300057Y-87166666D01*
X61204819Y-86309523D02*
X61204819Y-86499999D01*
X61204819Y-86499999D02*
X61252438Y-86595237D01*
X61252438Y-86595237D02*
X61300057Y-86642856D01*
X61300057Y-86642856D02*
X61442914Y-86738094D01*
X61442914Y-86738094D02*
X61633390Y-86785713D01*
X61633390Y-86785713D02*
X62014342Y-86785713D01*
X62014342Y-86785713D02*
X62109580Y-86738094D01*
X62109580Y-86738094D02*
X62157200Y-86690475D01*
X62157200Y-86690475D02*
X62204819Y-86595237D01*
X62204819Y-86595237D02*
X62204819Y-86404761D01*
X62204819Y-86404761D02*
X62157200Y-86309523D01*
X62157200Y-86309523D02*
X62109580Y-86261904D01*
X62109580Y-86261904D02*
X62014342Y-86214285D01*
X62014342Y-86214285D02*
X61776247Y-86214285D01*
X61776247Y-86214285D02*
X61681009Y-86261904D01*
X61681009Y-86261904D02*
X61633390Y-86309523D01*
X61633390Y-86309523D02*
X61585771Y-86404761D01*
X61585771Y-86404761D02*
X61585771Y-86595237D01*
X61585771Y-86595237D02*
X61633390Y-86690475D01*
X61633390Y-86690475D02*
X61681009Y-86738094D01*
X61681009Y-86738094D02*
X61776247Y-86785713D01*
X3238095Y-46304819D02*
X3238095Y-45304819D01*
X3238095Y-45781009D02*
X3809523Y-45781009D01*
X3809523Y-46304819D02*
X3809523Y-45304819D01*
X4809523Y-46304819D02*
X4238095Y-46304819D01*
X4523809Y-46304819D02*
X4523809Y-45304819D01*
X4523809Y-45304819D02*
X4428571Y-45447676D01*
X4428571Y-45447676D02*
X4333333Y-45542914D01*
X4333333Y-45542914D02*
X4238095Y-45590533D01*
X99109580Y-27166666D02*
X99157200Y-27214285D01*
X99157200Y-27214285D02*
X99204819Y-27357142D01*
X99204819Y-27357142D02*
X99204819Y-27452380D01*
X99204819Y-27452380D02*
X99157200Y-27595237D01*
X99157200Y-27595237D02*
X99061961Y-27690475D01*
X99061961Y-27690475D02*
X98966723Y-27738094D01*
X98966723Y-27738094D02*
X98776247Y-27785713D01*
X98776247Y-27785713D02*
X98633390Y-27785713D01*
X98633390Y-27785713D02*
X98442914Y-27738094D01*
X98442914Y-27738094D02*
X98347676Y-27690475D01*
X98347676Y-27690475D02*
X98252438Y-27595237D01*
X98252438Y-27595237D02*
X98204819Y-27452380D01*
X98204819Y-27452380D02*
X98204819Y-27357142D01*
X98204819Y-27357142D02*
X98252438Y-27214285D01*
X98252438Y-27214285D02*
X98300057Y-27166666D01*
X98300057Y-26785713D02*
X98252438Y-26738094D01*
X98252438Y-26738094D02*
X98204819Y-26642856D01*
X98204819Y-26642856D02*
X98204819Y-26404761D01*
X98204819Y-26404761D02*
X98252438Y-26309523D01*
X98252438Y-26309523D02*
X98300057Y-26261904D01*
X98300057Y-26261904D02*
X98395295Y-26214285D01*
X98395295Y-26214285D02*
X98490533Y-26214285D01*
X98490533Y-26214285D02*
X98633390Y-26261904D01*
X98633390Y-26261904D02*
X99204819Y-26833332D01*
X99204819Y-26833332D02*
X99204819Y-26214285D01*
X90859580Y-65416666D02*
X90907200Y-65464285D01*
X90907200Y-65464285D02*
X90954819Y-65607142D01*
X90954819Y-65607142D02*
X90954819Y-65702380D01*
X90954819Y-65702380D02*
X90907200Y-65845237D01*
X90907200Y-65845237D02*
X90811961Y-65940475D01*
X90811961Y-65940475D02*
X90716723Y-65988094D01*
X90716723Y-65988094D02*
X90526247Y-66035713D01*
X90526247Y-66035713D02*
X90383390Y-66035713D01*
X90383390Y-66035713D02*
X90192914Y-65988094D01*
X90192914Y-65988094D02*
X90097676Y-65940475D01*
X90097676Y-65940475D02*
X90002438Y-65845237D01*
X90002438Y-65845237D02*
X89954819Y-65702380D01*
X89954819Y-65702380D02*
X89954819Y-65607142D01*
X89954819Y-65607142D02*
X90002438Y-65464285D01*
X90002438Y-65464285D02*
X90050057Y-65416666D01*
X89954819Y-64511904D02*
X89954819Y-64988094D01*
X89954819Y-64988094D02*
X90431009Y-65035713D01*
X90431009Y-65035713D02*
X90383390Y-64988094D01*
X90383390Y-64988094D02*
X90335771Y-64892856D01*
X90335771Y-64892856D02*
X90335771Y-64654761D01*
X90335771Y-64654761D02*
X90383390Y-64559523D01*
X90383390Y-64559523D02*
X90431009Y-64511904D01*
X90431009Y-64511904D02*
X90526247Y-64464285D01*
X90526247Y-64464285D02*
X90764342Y-64464285D01*
X90764342Y-64464285D02*
X90859580Y-64511904D01*
X90859580Y-64511904D02*
X90907200Y-64559523D01*
X90907200Y-64559523D02*
X90954819Y-64654761D01*
X90954819Y-64654761D02*
X90954819Y-64892856D01*
X90954819Y-64892856D02*
X90907200Y-64988094D01*
X90907200Y-64988094D02*
X90859580Y-65035713D01*
%TO.C,R16*%
D12*
X40000000Y-65370000D02*
X40000000Y-67980000D01*
X41370000Y-64000000D02*
G75*
G02*
X38630000Y-64000000I-1370000J0D01*
G01*
X38630000Y-64000000D02*
G75*
G02*
X41370000Y-64000000I1370000J0D01*
G01*
%TO.C,D4*%
X53040000Y-70000000D02*
X53690000Y-70000000D01*
X54290000Y-68880000D02*
X54290000Y-71120000D01*
X54410000Y-68880000D02*
X54410000Y-71120000D01*
X54530000Y-68880000D02*
X54530000Y-71120000D01*
X58580000Y-70000000D02*
X57930000Y-70000000D01*
X53690000Y-68880000D02*
X57930000Y-68880000D01*
X57930000Y-71120000D01*
X53690000Y-71120000D01*
X53690000Y-68880000D01*
%TO.C,R14*%
X58000000Y-23370000D02*
X58000000Y-25980000D01*
X59370000Y-22000000D02*
G75*
G02*
X56630000Y-22000000I-1370000J0D01*
G01*
X56630000Y-22000000D02*
G75*
G02*
X59370000Y-22000000I1370000J0D01*
G01*
%TO.C,R19*%
X82000000Y-65370000D02*
X82000000Y-67980000D01*
X83370000Y-64000000D02*
G75*
G02*
X80630000Y-64000000I-1370000J0D01*
G01*
X80630000Y-64000000D02*
G75*
G02*
X83370000Y-64000000I1370000J0D01*
G01*
%TO.C,R10*%
X10370000Y-45845000D02*
X12980000Y-45845000D01*
X10370000Y-45845000D02*
G75*
G02*
X7630000Y-45845000I-1370000J0D01*
G01*
X7630000Y-45845000D02*
G75*
G02*
X10370000Y-45845000I1370000J0D01*
G01*
%TO.C,R6*%
X25730000Y-24255000D02*
X28340000Y-24255000D01*
X25730000Y-24255000D02*
G75*
G02*
X22990000Y-24255000I-1370000J0D01*
G01*
X22990000Y-24255000D02*
G75*
G02*
X25730000Y-24255000I1370000J0D01*
G01*
%TO.C,Q5*%
X9740000Y-35630000D02*
X13340000Y-35630000D01*
X9183600Y-32681193D02*
G75*
G02*
X11540000Y-31180000I2356400J-1098807D01*
G01*
X9740000Y-35630000D02*
G75*
G02*
X9215816Y-34902795I1800000J1850000D01*
G01*
X11540000Y-31180000D02*
G75*
G02*
X13896400Y-32681193I0J-2600000D01*
G01*
X13864184Y-34902795D02*
G75*
G02*
X13340000Y-35630000I-2324184J1122795D01*
G01*
%TO.C,R21*%
X70000000Y-87370000D02*
X70000000Y-89980000D01*
X71370000Y-86000000D02*
G75*
G02*
X68630000Y-86000000I-1370000J0D01*
G01*
X68630000Y-86000000D02*
G75*
G02*
X71370000Y-86000000I1370000J0D01*
G01*
%TO.C,R2*%
X18050000Y-16000000D02*
X20660000Y-16000000D01*
X18050000Y-16000000D02*
G75*
G02*
X15310000Y-16000000I-1370000J0D01*
G01*
X15310000Y-16000000D02*
G75*
G02*
X18050000Y-16000000I1370000J0D01*
G01*
%TO.C,R7*%
X18050000Y-32510000D02*
X20660000Y-32510000D01*
X18050000Y-32510000D02*
G75*
G02*
X15310000Y-32510000I-1370000J0D01*
G01*
X15310000Y-32510000D02*
G75*
G02*
X18050000Y-32510000I1370000J0D01*
G01*
%TO.C,Q1*%
X9740000Y-22295000D02*
X13340000Y-22295000D01*
X9183600Y-19346193D02*
G75*
G02*
X11540000Y-17845000I2356400J-1098807D01*
G01*
X9740000Y-22295000D02*
G75*
G02*
X9215816Y-21567795I1800000J1850000D01*
G01*
X11540000Y-17845000D02*
G75*
G02*
X13896400Y-19346193I0J-2600000D01*
G01*
X13864184Y-21567795D02*
G75*
G02*
X13340000Y-22295000I-2324184J1122795D01*
G01*
%TO.C,Q9*%
X21020000Y-39550000D02*
X17420000Y-39550000D01*
X16895816Y-40277205D02*
G75*
G02*
X17420000Y-39550000I2324184J-1122795D01*
G01*
X19220000Y-44000000D02*
G75*
G02*
X16863600Y-42498807I0J2600000D01*
G01*
X21020000Y-39550000D02*
G75*
G02*
X21544184Y-40277205I-1800000J-1850000D01*
G01*
X21576400Y-42498807D02*
G75*
G02*
X19220000Y-44000000I-2356400J1098807D01*
G01*
%TO.C,Q11*%
X9740000Y-43885000D02*
X13340000Y-43885000D01*
X9183600Y-40936193D02*
G75*
G02*
X11540000Y-39435000I2356400J-1098807D01*
G01*
X9740000Y-43885000D02*
G75*
G02*
X9215816Y-43157795I1800000J1850000D01*
G01*
X11540000Y-39435000D02*
G75*
G02*
X13896400Y-40936193I0J-2600000D01*
G01*
X13864184Y-43157795D02*
G75*
G02*
X13340000Y-43885000I-2324184J1122795D01*
G01*
%TO.C,Q2*%
X21020000Y-17960000D02*
X17420000Y-17960000D01*
X16895816Y-18687205D02*
G75*
G02*
X17420000Y-17960000I2324184J-1122795D01*
G01*
X19220000Y-22410000D02*
G75*
G02*
X16863600Y-20908807I0J2600000D01*
G01*
X21020000Y-17960000D02*
G75*
G02*
X21544184Y-18687205I-1800000J-1850000D01*
G01*
X21576400Y-20908807D02*
G75*
G02*
X19220000Y-22410000I-2356400J1098807D01*
G01*
%TO.C,C4*%
X56960000Y-65000000D02*
X55420000Y-65000000D01*
X56960000Y-65040000D02*
X55420000Y-65040000D01*
X56960000Y-65080000D02*
X55421000Y-65080000D01*
X56960000Y-65120000D02*
X55423000Y-65120000D01*
X56960000Y-65160000D02*
X55425000Y-65160000D01*
X56960000Y-65200000D02*
X55428000Y-65200000D01*
X56960000Y-65240000D02*
X55431000Y-65240000D01*
X56960000Y-65280000D02*
X55435000Y-65280000D01*
X56960000Y-65320000D02*
X55440000Y-65320000D01*
X56960000Y-65360000D02*
X55445000Y-65360000D01*
X56960000Y-65400000D02*
X55451000Y-65400000D01*
X56960000Y-65440000D02*
X55457000Y-65440000D01*
X56960000Y-65480000D02*
X55464000Y-65480000D01*
X56960000Y-65520000D02*
X55472000Y-65520000D01*
X56960000Y-65560000D02*
X55481000Y-65560000D01*
X56960000Y-65600000D02*
X55490000Y-65600000D01*
X56960000Y-65640000D02*
X55499000Y-65640000D01*
X56960000Y-65680000D02*
X55510000Y-65680000D01*
X56960000Y-65720000D02*
X55521000Y-65720000D01*
X56960000Y-65760000D02*
X55533000Y-65760000D01*
X56960000Y-65800000D02*
X55545000Y-65800000D01*
X56960000Y-65840000D02*
X55558000Y-65840000D01*
X56960000Y-65880000D02*
X55572000Y-65880000D01*
X56960000Y-65920000D02*
X55587000Y-65920000D01*
X56960000Y-65960000D02*
X55602000Y-65960000D01*
X56960000Y-66000000D02*
X55618000Y-66000000D01*
X56960000Y-66040000D02*
X55635000Y-66040000D01*
X56960000Y-66080000D02*
X55653000Y-66080000D01*
X56960000Y-66120000D02*
X55671000Y-66120000D01*
X56960000Y-66160000D02*
X55691000Y-66160000D01*
X56960000Y-66200000D02*
X55711000Y-66200000D01*
X56960000Y-66240000D02*
X55732000Y-66240000D01*
X56960000Y-66280000D02*
X55754000Y-66280000D01*
X56960000Y-66320000D02*
X55777000Y-66320000D01*
X56960000Y-66360000D02*
X55801000Y-66360000D01*
X56960000Y-66400000D02*
X55825000Y-66400000D01*
X56960000Y-66440000D02*
X55851000Y-66440000D01*
X56960000Y-66480000D02*
X55878000Y-66480000D01*
X56960000Y-66520000D02*
X55906000Y-66520000D01*
X56960000Y-66560000D02*
X55935000Y-66560000D01*
X56960000Y-66600000D02*
X55965000Y-66600000D01*
X56960000Y-66640000D02*
X55997000Y-66640000D01*
X56960000Y-66680000D02*
X56030000Y-66680000D01*
X56960000Y-66720000D02*
X56064000Y-66720000D01*
X56960000Y-66760000D02*
X56099000Y-66760000D01*
X56960000Y-66800000D02*
X56136000Y-66800000D01*
X56960000Y-66840000D02*
X56175000Y-66840000D01*
X56960000Y-66880000D02*
X56215000Y-66880000D01*
X56960000Y-66920000D02*
X56257000Y-66920000D01*
X56960000Y-66960000D02*
X56301000Y-66960000D01*
X56960000Y-67000000D02*
X56348000Y-67000000D01*
X58283000Y-67600000D02*
X57717000Y-67600000D01*
X58517000Y-67560000D02*
X57483000Y-67560000D01*
X58677000Y-67520000D02*
X57323000Y-67520000D01*
X58805000Y-67480000D02*
X57195000Y-67480000D01*
X58914000Y-67440000D02*
X57086000Y-67440000D01*
X59011000Y-67400000D02*
X56989000Y-67400000D01*
X59098000Y-67360000D02*
X56902000Y-67360000D01*
X59177000Y-67320000D02*
X56823000Y-67320000D01*
X59251000Y-67280000D02*
X56749000Y-67280000D01*
X59319000Y-67240000D02*
X56681000Y-67240000D01*
X59383000Y-67200000D02*
X56617000Y-67200000D01*
X59443000Y-67160000D02*
X56557000Y-67160000D01*
X59475000Y-62195225D02*
X59475000Y-62695225D01*
X59499000Y-67120000D02*
X56501000Y-67120000D01*
X59553000Y-67080000D02*
X56447000Y-67080000D01*
X59604000Y-67040000D02*
X56396000Y-67040000D01*
X59652000Y-67000000D02*
X59040000Y-67000000D01*
X59699000Y-66960000D02*
X59040000Y-66960000D01*
X59725000Y-62445225D02*
X59225000Y-62445225D01*
X59743000Y-66920000D02*
X59040000Y-66920000D01*
X59785000Y-66880000D02*
X59040000Y-66880000D01*
X59825000Y-66840000D02*
X59040000Y-66840000D01*
X59864000Y-66800000D02*
X59040000Y-66800000D01*
X59901000Y-66760000D02*
X59040000Y-66760000D01*
X59936000Y-66720000D02*
X59040000Y-66720000D01*
X59970000Y-66680000D02*
X59040000Y-66680000D01*
X60003000Y-66640000D02*
X59040000Y-66640000D01*
X60035000Y-66600000D02*
X59040000Y-66600000D01*
X60065000Y-66560000D02*
X59040000Y-66560000D01*
X60094000Y-66520000D02*
X59040000Y-66520000D01*
X60122000Y-66480000D02*
X59040000Y-66480000D01*
X60149000Y-66440000D02*
X59040000Y-66440000D01*
X60175000Y-66400000D02*
X59040000Y-66400000D01*
X60199000Y-66360000D02*
X59040000Y-66360000D01*
X60223000Y-66320000D02*
X59040000Y-66320000D01*
X60246000Y-66280000D02*
X59040000Y-66280000D01*
X60268000Y-66240000D02*
X59040000Y-66240000D01*
X60289000Y-66200000D02*
X59040000Y-66200000D01*
X60309000Y-66160000D02*
X59040000Y-66160000D01*
X60329000Y-66120000D02*
X59040000Y-66120000D01*
X60347000Y-66080000D02*
X59040000Y-66080000D01*
X60365000Y-66040000D02*
X59040000Y-66040000D01*
X60382000Y-66000000D02*
X59040000Y-66000000D01*
X60398000Y-65960000D02*
X59040000Y-65960000D01*
X60413000Y-65920000D02*
X59040000Y-65920000D01*
X60428000Y-65880000D02*
X59040000Y-65880000D01*
X60442000Y-65840000D02*
X59040000Y-65840000D01*
X60455000Y-65800000D02*
X59040000Y-65800000D01*
X60467000Y-65760000D02*
X59040000Y-65760000D01*
X60479000Y-65720000D02*
X59040000Y-65720000D01*
X60490000Y-65680000D02*
X59040000Y-65680000D01*
X60501000Y-65640000D02*
X59040000Y-65640000D01*
X60510000Y-65600000D02*
X59040000Y-65600000D01*
X60519000Y-65560000D02*
X59040000Y-65560000D01*
X60528000Y-65520000D02*
X59040000Y-65520000D01*
X60536000Y-65480000D02*
X59040000Y-65480000D01*
X60543000Y-65440000D02*
X59040000Y-65440000D01*
X60549000Y-65400000D02*
X59040000Y-65400000D01*
X60555000Y-65360000D02*
X59040000Y-65360000D01*
X60560000Y-65320000D02*
X59040000Y-65320000D01*
X60565000Y-65280000D02*
X59040000Y-65280000D01*
X60569000Y-65240000D02*
X59040000Y-65240000D01*
X60572000Y-65200000D02*
X59040000Y-65200000D01*
X60575000Y-65160000D02*
X59040000Y-65160000D01*
X60577000Y-65120000D02*
X59040000Y-65120000D01*
X60579000Y-65080000D02*
X59040000Y-65080000D01*
X60580000Y-65000000D02*
X59040000Y-65000000D01*
X60580000Y-65040000D02*
X59040000Y-65040000D01*
X60620000Y-65000000D02*
G75*
G02*
X55380000Y-65000000I-2620000J0D01*
G01*
X55380000Y-65000000D02*
G75*
G02*
X60620000Y-65000000I2620000J0D01*
G01*
%TO.C,D1*%
X17984000Y-52485000D02*
X18140000Y-52485000D01*
X20300000Y-52485000D02*
X20456000Y-52485000D01*
X17984484Y-52485000D02*
G75*
G02*
X18140000Y-49253563I1235516J1560000D01*
G01*
X18140000Y-51965961D02*
G75*
G02*
X18140000Y-49884039I1080000J1040961D01*
G01*
X20300000Y-49253563D02*
G75*
G02*
X20455516Y-52485000I-1080000J-1671437D01*
G01*
X20300000Y-49884039D02*
G75*
G02*
X20300000Y-51965961I-1080000J-1040961D01*
G01*
%TO.C,D2*%
X25664000Y-52485000D02*
X25820000Y-52485000D01*
X27980000Y-52485000D02*
X28136000Y-52485000D01*
X25664484Y-52485000D02*
G75*
G02*
X25820000Y-49253563I1235516J1560000D01*
G01*
X25820000Y-51965961D02*
G75*
G02*
X25820000Y-49884039I1080000J1040961D01*
G01*
X27980000Y-49253563D02*
G75*
G02*
X28135516Y-52485000I-1080000J-1671437D01*
G01*
X27980000Y-49884039D02*
G75*
G02*
X27980000Y-51965961I-1080000J-1040961D01*
G01*
%TO.C,C3*%
X44630000Y-62630000D02*
X47370000Y-62630000D01*
X44630000Y-67870000D02*
X44630000Y-62630000D01*
X47370000Y-62630000D02*
X47370000Y-67870000D01*
X47370000Y-67870000D02*
X44630000Y-67870000D01*
%TO.C,Q12*%
X25100000Y-43885000D02*
X28700000Y-43885000D01*
X24543600Y-40936193D02*
G75*
G02*
X26900000Y-39435000I2356400J-1098807D01*
G01*
X25100000Y-43885000D02*
G75*
G02*
X24575816Y-43157795I1800000J1850000D01*
G01*
X26900000Y-39435000D02*
G75*
G02*
X29256400Y-40936193I0J-2600000D01*
G01*
X29224184Y-43157795D02*
G75*
G02*
X28700000Y-43885000I-2324184J1122795D01*
G01*
%TO.C,Q10*%
X25100000Y-35630000D02*
X28700000Y-35630000D01*
X24543600Y-32681193D02*
G75*
G02*
X26900000Y-31180000I2356400J-1098807D01*
G01*
X25100000Y-35630000D02*
G75*
G02*
X24575816Y-34902795I1800000J1850000D01*
G01*
X26900000Y-31180000D02*
G75*
G02*
X29256400Y-32681193I0J-2600000D01*
G01*
X29224184Y-34902795D02*
G75*
G02*
X28700000Y-35630000I-2324184J1122795D01*
G01*
%TO.C,Q14*%
X21020000Y-54790000D02*
X17420000Y-54790000D01*
X16895816Y-55517205D02*
G75*
G02*
X17420000Y-54790000I2324184J-1122795D01*
G01*
X19220000Y-59240000D02*
G75*
G02*
X16863600Y-57738807I0J2600000D01*
G01*
X21020000Y-54790000D02*
G75*
G02*
X21544184Y-55517205I-1800000J-1850000D01*
G01*
X21576400Y-57738807D02*
G75*
G02*
X19220000Y-59240000I-2356400J1098807D01*
G01*
%TO.C,R22*%
X76000000Y-87370000D02*
X76000000Y-89980000D01*
X77370000Y-86000000D02*
G75*
G02*
X74630000Y-86000000I-1370000J0D01*
G01*
X74630000Y-86000000D02*
G75*
G02*
X77370000Y-86000000I1370000J0D01*
G01*
%TO.C,C1*%
X93630000Y-15130000D02*
X96370000Y-15130000D01*
X93630000Y-20370000D02*
X93630000Y-15130000D01*
X96370000Y-15130000D02*
X96370000Y-20370000D01*
X96370000Y-20370000D02*
X93630000Y-20370000D01*
%TO.C,R18*%
X46000000Y-87370000D02*
X46000000Y-89980000D01*
X47370000Y-86000000D02*
G75*
G02*
X44630000Y-86000000I-1370000J0D01*
G01*
X44630000Y-86000000D02*
G75*
G02*
X47370000Y-86000000I1370000J0D01*
G01*
%TO.C,J2*%
X50620000Y-62620000D02*
X52000000Y-62620000D01*
X50620000Y-64000000D02*
X50620000Y-62620000D01*
X50620000Y-65270000D02*
X50620000Y-67920000D01*
X50620000Y-65270000D02*
X53380000Y-65270000D01*
X50620000Y-67920000D02*
X53380000Y-67920000D01*
X53380000Y-65270000D02*
X53380000Y-67920000D01*
%TO.C,D3*%
X59040000Y-78000000D02*
X59690000Y-78000000D01*
X60290000Y-76880000D02*
X60290000Y-79120000D01*
X60410000Y-76880000D02*
X60410000Y-79120000D01*
X60530000Y-76880000D02*
X60530000Y-79120000D01*
X64580000Y-78000000D02*
X63930000Y-78000000D01*
X59690000Y-76880000D02*
X63930000Y-76880000D01*
X63930000Y-79120000D01*
X59690000Y-79120000D01*
X59690000Y-76880000D01*
%TO.C,R5*%
X18050000Y-24255000D02*
X20660000Y-24255000D01*
X18050000Y-24255000D02*
G75*
G02*
X15310000Y-24255000I-1370000J0D01*
G01*
X15310000Y-24255000D02*
G75*
G02*
X18050000Y-24255000I1370000J0D01*
G01*
%TO.C,Q4*%
X9740000Y-30550000D02*
X13340000Y-30550000D01*
X9183600Y-27601193D02*
G75*
G02*
X11540000Y-26100000I2356400J-1098807D01*
G01*
X9740000Y-30550000D02*
G75*
G02*
X9215816Y-29822795I1800000J1850000D01*
G01*
X11540000Y-26100000D02*
G75*
G02*
X13896400Y-27601193I0J-2600000D01*
G01*
X13864184Y-29822795D02*
G75*
G02*
X13340000Y-30550000I-2324184J1122795D01*
G01*
%TO.C,R4*%
X10370000Y-24255000D02*
X12980000Y-24255000D01*
X10370000Y-24255000D02*
G75*
G02*
X7630000Y-24255000I-1370000J0D01*
G01*
X7630000Y-24255000D02*
G75*
G02*
X10370000Y-24255000I1370000J0D01*
G01*
%TO.C,Q17*%
X52740000Y-35850000D02*
X56340000Y-35850000D01*
X52183600Y-32901193D02*
G75*
G02*
X54540000Y-31400000I2356400J-1098807D01*
G01*
X52740000Y-35850000D02*
G75*
G02*
X52215816Y-35122795I1800000J1850000D01*
G01*
X54540000Y-31400000D02*
G75*
G02*
X56896400Y-32901193I0J-2600000D01*
G01*
X56864184Y-35122795D02*
G75*
G02*
X56340000Y-35850000I-2324184J1122795D01*
G01*
%TO.C,R13*%
X46000000Y-23370000D02*
X46000000Y-25980000D01*
X47370000Y-22000000D02*
G75*
G02*
X44630000Y-22000000I-1370000J0D01*
G01*
X44630000Y-22000000D02*
G75*
G02*
X47370000Y-22000000I1370000J0D01*
G01*
%TO.C,SW1*%
X44620000Y-75340000D02*
X44620000Y-76723000D01*
X44620000Y-75340000D02*
X46003000Y-75340000D01*
X44860000Y-75580000D02*
X44860000Y-80420000D01*
X44860000Y-75580000D02*
X54760000Y-75580000D01*
X44860000Y-80420000D02*
X54760000Y-80420000D01*
X49133333Y-77365000D02*
X49133333Y-78635000D01*
X54760000Y-75580000D02*
X54760000Y-80420000D01*
X47780000Y-77365000D02*
X49133333Y-77365000D01*
X49133333Y-78635000D01*
X47780000Y-78635000D01*
X47780000Y-77365000D01*
G36*
X47780000Y-77365000D02*
G01*
X49133333Y-77365000D01*
X49133333Y-78635000D01*
X47780000Y-78635000D01*
X47780000Y-77365000D01*
G37*
X47780000Y-77365000D02*
X51840000Y-77365000D01*
X51840000Y-78635000D01*
X47780000Y-78635000D01*
X47780000Y-77365000D01*
%TO.C,R20*%
X52000000Y-87370000D02*
X52000000Y-89980000D01*
X53370000Y-86000000D02*
G75*
G02*
X50630000Y-86000000I-1370000J0D01*
G01*
X50630000Y-86000000D02*
G75*
G02*
X53370000Y-86000000I1370000J0D01*
G01*
%TO.C,Q7*%
X25100000Y-30550000D02*
X28700000Y-30550000D01*
X24543600Y-27601193D02*
G75*
G02*
X26900000Y-26100000I2356400J-1098807D01*
G01*
X25100000Y-30550000D02*
G75*
G02*
X24575816Y-29822795I1800000J1850000D01*
G01*
X26900000Y-26100000D02*
G75*
G02*
X29256400Y-27601193I0J-2600000D01*
G01*
X29224184Y-29822795D02*
G75*
G02*
X28700000Y-30550000I-2324184J1122795D01*
G01*
%TO.C,R12*%
X25730000Y-45845000D02*
X28340000Y-45845000D01*
X25730000Y-45845000D02*
G75*
G02*
X22990000Y-45845000I-1370000J0D01*
G01*
X22990000Y-45845000D02*
G75*
G02*
X25730000Y-45845000I1370000J0D01*
G01*
%TO.C,Q3*%
X25100000Y-22295000D02*
X28700000Y-22295000D01*
X24543600Y-19346193D02*
G75*
G02*
X26900000Y-17845000I2356400J-1098807D01*
G01*
X25100000Y-22295000D02*
G75*
G02*
X24575816Y-21567795I1800000J1850000D01*
G01*
X26900000Y-17845000D02*
G75*
G02*
X29256400Y-19346193I0J-2600000D01*
G01*
X29224184Y-21567795D02*
G75*
G02*
X28700000Y-22295000I-2324184J1122795D01*
G01*
%TO.C,R1*%
X10370000Y-16000000D02*
X12980000Y-16000000D01*
X10370000Y-16000000D02*
G75*
G02*
X7630000Y-16000000I-1370000J0D01*
G01*
X7630000Y-16000000D02*
G75*
G02*
X10370000Y-16000000I1370000J0D01*
G01*
%TO.C,RV1*%
X62880000Y-51620000D02*
X67600000Y-51620000D01*
X62880000Y-52810000D02*
X62880000Y-51630000D01*
X62880000Y-55710000D02*
X62880000Y-55180000D01*
X62880000Y-58160000D02*
X62880000Y-57330000D01*
X62880000Y-61370000D02*
X62880000Y-59880000D01*
X62880000Y-61370000D02*
X67600000Y-61370000D01*
X71410000Y-51630000D02*
X74470000Y-51630000D01*
X71410000Y-61370000D02*
X74470000Y-61370000D01*
X74470000Y-61370000D02*
X74470000Y-51630000D01*
%TO.C,C6*%
X56960000Y-87000000D02*
X55420000Y-87000000D01*
X56960000Y-87040000D02*
X55420000Y-87040000D01*
X56960000Y-87080000D02*
X55421000Y-87080000D01*
X56960000Y-87120000D02*
X55423000Y-87120000D01*
X56960000Y-87160000D02*
X55425000Y-87160000D01*
X56960000Y-87200000D02*
X55428000Y-87200000D01*
X56960000Y-87240000D02*
X55431000Y-87240000D01*
X56960000Y-87280000D02*
X55435000Y-87280000D01*
X56960000Y-87320000D02*
X55440000Y-87320000D01*
X56960000Y-87360000D02*
X55445000Y-87360000D01*
X56960000Y-87400000D02*
X55451000Y-87400000D01*
X56960000Y-87440000D02*
X55457000Y-87440000D01*
X56960000Y-87480000D02*
X55464000Y-87480000D01*
X56960000Y-87520000D02*
X55472000Y-87520000D01*
X56960000Y-87560000D02*
X55481000Y-87560000D01*
X56960000Y-87600000D02*
X55490000Y-87600000D01*
X56960000Y-87640000D02*
X55499000Y-87640000D01*
X56960000Y-87680000D02*
X55510000Y-87680000D01*
X56960000Y-87720000D02*
X55521000Y-87720000D01*
X56960000Y-87760000D02*
X55533000Y-87760000D01*
X56960000Y-87800000D02*
X55545000Y-87800000D01*
X56960000Y-87840000D02*
X55558000Y-87840000D01*
X56960000Y-87880000D02*
X55572000Y-87880000D01*
X56960000Y-87920000D02*
X55587000Y-87920000D01*
X56960000Y-87960000D02*
X55602000Y-87960000D01*
X56960000Y-88000000D02*
X55618000Y-88000000D01*
X56960000Y-88040000D02*
X55635000Y-88040000D01*
X56960000Y-88080000D02*
X55653000Y-88080000D01*
X56960000Y-88120000D02*
X55671000Y-88120000D01*
X56960000Y-88160000D02*
X55691000Y-88160000D01*
X56960000Y-88200000D02*
X55711000Y-88200000D01*
X56960000Y-88240000D02*
X55732000Y-88240000D01*
X56960000Y-88280000D02*
X55754000Y-88280000D01*
X56960000Y-88320000D02*
X55777000Y-88320000D01*
X56960000Y-88360000D02*
X55801000Y-88360000D01*
X56960000Y-88400000D02*
X55825000Y-88400000D01*
X56960000Y-88440000D02*
X55851000Y-88440000D01*
X56960000Y-88480000D02*
X55878000Y-88480000D01*
X56960000Y-88520000D02*
X55906000Y-88520000D01*
X56960000Y-88560000D02*
X55935000Y-88560000D01*
X56960000Y-88600000D02*
X55965000Y-88600000D01*
X56960000Y-88640000D02*
X55997000Y-88640000D01*
X56960000Y-88680000D02*
X56030000Y-88680000D01*
X56960000Y-88720000D02*
X56064000Y-88720000D01*
X56960000Y-88760000D02*
X56099000Y-88760000D01*
X56960000Y-88800000D02*
X56136000Y-88800000D01*
X56960000Y-88840000D02*
X56175000Y-88840000D01*
X56960000Y-88880000D02*
X56215000Y-88880000D01*
X56960000Y-88920000D02*
X56257000Y-88920000D01*
X56960000Y-88960000D02*
X56301000Y-88960000D01*
X56960000Y-89000000D02*
X56348000Y-89000000D01*
X58283000Y-89600000D02*
X57717000Y-89600000D01*
X58517000Y-89560000D02*
X57483000Y-89560000D01*
X58677000Y-89520000D02*
X57323000Y-89520000D01*
X58805000Y-89480000D02*
X57195000Y-89480000D01*
X58914000Y-89440000D02*
X57086000Y-89440000D01*
X59011000Y-89400000D02*
X56989000Y-89400000D01*
X59098000Y-89360000D02*
X56902000Y-89360000D01*
X59177000Y-89320000D02*
X56823000Y-89320000D01*
X59251000Y-89280000D02*
X56749000Y-89280000D01*
X59319000Y-89240000D02*
X56681000Y-89240000D01*
X59383000Y-89200000D02*
X56617000Y-89200000D01*
X59443000Y-89160000D02*
X56557000Y-89160000D01*
X59475000Y-84195225D02*
X59475000Y-84695225D01*
X59499000Y-89120000D02*
X56501000Y-89120000D01*
X59553000Y-89080000D02*
X56447000Y-89080000D01*
X59604000Y-89040000D02*
X56396000Y-89040000D01*
X59652000Y-89000000D02*
X59040000Y-89000000D01*
X59699000Y-88960000D02*
X59040000Y-88960000D01*
X59725000Y-84445225D02*
X59225000Y-84445225D01*
X59743000Y-88920000D02*
X59040000Y-88920000D01*
X59785000Y-88880000D02*
X59040000Y-88880000D01*
X59825000Y-88840000D02*
X59040000Y-88840000D01*
X59864000Y-88800000D02*
X59040000Y-88800000D01*
X59901000Y-88760000D02*
X59040000Y-88760000D01*
X59936000Y-88720000D02*
X59040000Y-88720000D01*
X59970000Y-88680000D02*
X59040000Y-88680000D01*
X60003000Y-88640000D02*
X59040000Y-88640000D01*
X60035000Y-88600000D02*
X59040000Y-88600000D01*
X60065000Y-88560000D02*
X59040000Y-88560000D01*
X60094000Y-88520000D02*
X59040000Y-88520000D01*
X60122000Y-88480000D02*
X59040000Y-88480000D01*
X60149000Y-88440000D02*
X59040000Y-88440000D01*
X60175000Y-88400000D02*
X59040000Y-88400000D01*
X60199000Y-88360000D02*
X59040000Y-88360000D01*
X60223000Y-88320000D02*
X59040000Y-88320000D01*
X60246000Y-88280000D02*
X59040000Y-88280000D01*
X60268000Y-88240000D02*
X59040000Y-88240000D01*
X60289000Y-88200000D02*
X59040000Y-88200000D01*
X60309000Y-88160000D02*
X59040000Y-88160000D01*
X60329000Y-88120000D02*
X59040000Y-88120000D01*
X60347000Y-88080000D02*
X59040000Y-88080000D01*
X60365000Y-88040000D02*
X59040000Y-88040000D01*
X60382000Y-88000000D02*
X59040000Y-88000000D01*
X60398000Y-87960000D02*
X59040000Y-87960000D01*
X60413000Y-87920000D02*
X59040000Y-87920000D01*
X60428000Y-87880000D02*
X59040000Y-87880000D01*
X60442000Y-87840000D02*
X59040000Y-87840000D01*
X60455000Y-87800000D02*
X59040000Y-87800000D01*
X60467000Y-87760000D02*
X59040000Y-87760000D01*
X60479000Y-87720000D02*
X59040000Y-87720000D01*
X60490000Y-87680000D02*
X59040000Y-87680000D01*
X60501000Y-87640000D02*
X59040000Y-87640000D01*
X60510000Y-87600000D02*
X59040000Y-87600000D01*
X60519000Y-87560000D02*
X59040000Y-87560000D01*
X60528000Y-87520000D02*
X59040000Y-87520000D01*
X60536000Y-87480000D02*
X59040000Y-87480000D01*
X60543000Y-87440000D02*
X59040000Y-87440000D01*
X60549000Y-87400000D02*
X59040000Y-87400000D01*
X60555000Y-87360000D02*
X59040000Y-87360000D01*
X60560000Y-87320000D02*
X59040000Y-87320000D01*
X60565000Y-87280000D02*
X59040000Y-87280000D01*
X60569000Y-87240000D02*
X59040000Y-87240000D01*
X60572000Y-87200000D02*
X59040000Y-87200000D01*
X60575000Y-87160000D02*
X59040000Y-87160000D01*
X60577000Y-87120000D02*
X59040000Y-87120000D01*
X60579000Y-87080000D02*
X59040000Y-87080000D01*
X60580000Y-87000000D02*
X59040000Y-87000000D01*
X60580000Y-87040000D02*
X59040000Y-87040000D01*
X60620000Y-87000000D02*
G75*
G02*
X55380000Y-87000000I-2620000J0D01*
G01*
X55380000Y-87000000D02*
G75*
G02*
X60620000Y-87000000I2620000J0D01*
G01*
%TO.C,R11*%
X18050000Y-45845000D02*
X20660000Y-45845000D01*
X18050000Y-45845000D02*
G75*
G02*
X15310000Y-45845000I-1370000J0D01*
G01*
X15310000Y-45845000D02*
G75*
G02*
X18050000Y-45845000I1370000J0D01*
G01*
%TO.C,Q13*%
X9740000Y-52140000D02*
X13340000Y-52140000D01*
X9183600Y-49191193D02*
G75*
G02*
X11540000Y-47690000I2356400J-1098807D01*
G01*
X9740000Y-52140000D02*
G75*
G02*
X9215816Y-51412795I1800000J1850000D01*
G01*
X11540000Y-47690000D02*
G75*
G02*
X13896400Y-49191193I0J-2600000D01*
G01*
X13864184Y-51412795D02*
G75*
G02*
X13340000Y-52140000I-2324184J1122795D01*
G01*
%TO.C,R23*%
X64000000Y-87370000D02*
X64000000Y-89980000D01*
X65370000Y-86000000D02*
G75*
G02*
X62630000Y-86000000I-1370000J0D01*
G01*
X62630000Y-86000000D02*
G75*
G02*
X65370000Y-86000000I1370000J0D01*
G01*
%TO.C,Q6*%
X21020000Y-26215000D02*
X17420000Y-26215000D01*
X16895816Y-26942205D02*
G75*
G02*
X17420000Y-26215000I2324184J-1122795D01*
G01*
X19220000Y-30665000D02*
G75*
G02*
X16863600Y-29163807I0J2600000D01*
G01*
X21020000Y-26215000D02*
G75*
G02*
X21544184Y-26942205I-1800000J-1850000D01*
G01*
X21576400Y-29163807D02*
G75*
G02*
X19220000Y-30665000I-2356400J1098807D01*
G01*
%TO.C,C2*%
X93960000Y-27000000D02*
X92420000Y-27000000D01*
X93960000Y-27040000D02*
X92420000Y-27040000D01*
X93960000Y-27080000D02*
X92421000Y-27080000D01*
X93960000Y-27120000D02*
X92423000Y-27120000D01*
X93960000Y-27160000D02*
X92425000Y-27160000D01*
X93960000Y-27200000D02*
X92428000Y-27200000D01*
X93960000Y-27240000D02*
X92431000Y-27240000D01*
X93960000Y-27280000D02*
X92435000Y-27280000D01*
X93960000Y-27320000D02*
X92440000Y-27320000D01*
X93960000Y-27360000D02*
X92445000Y-27360000D01*
X93960000Y-27400000D02*
X92451000Y-27400000D01*
X93960000Y-27440000D02*
X92457000Y-27440000D01*
X93960000Y-27480000D02*
X92464000Y-27480000D01*
X93960000Y-27520000D02*
X92472000Y-27520000D01*
X93960000Y-27560000D02*
X92481000Y-27560000D01*
X93960000Y-27600000D02*
X92490000Y-27600000D01*
X93960000Y-27640000D02*
X92499000Y-27640000D01*
X93960000Y-27680000D02*
X92510000Y-27680000D01*
X93960000Y-27720000D02*
X92521000Y-27720000D01*
X93960000Y-27760000D02*
X92533000Y-27760000D01*
X93960000Y-27800000D02*
X92545000Y-27800000D01*
X93960000Y-27840000D02*
X92558000Y-27840000D01*
X93960000Y-27880000D02*
X92572000Y-27880000D01*
X93960000Y-27920000D02*
X92587000Y-27920000D01*
X93960000Y-27960000D02*
X92602000Y-27960000D01*
X93960000Y-28000000D02*
X92618000Y-28000000D01*
X93960000Y-28040000D02*
X92635000Y-28040000D01*
X93960000Y-28080000D02*
X92653000Y-28080000D01*
X93960000Y-28120000D02*
X92671000Y-28120000D01*
X93960000Y-28160000D02*
X92691000Y-28160000D01*
X93960000Y-28200000D02*
X92711000Y-28200000D01*
X93960000Y-28240000D02*
X92732000Y-28240000D01*
X93960000Y-28280000D02*
X92754000Y-28280000D01*
X93960000Y-28320000D02*
X92777000Y-28320000D01*
X93960000Y-28360000D02*
X92801000Y-28360000D01*
X93960000Y-28400000D02*
X92825000Y-28400000D01*
X93960000Y-28440000D02*
X92851000Y-28440000D01*
X93960000Y-28480000D02*
X92878000Y-28480000D01*
X93960000Y-28520000D02*
X92906000Y-28520000D01*
X93960000Y-28560000D02*
X92935000Y-28560000D01*
X93960000Y-28600000D02*
X92965000Y-28600000D01*
X93960000Y-28640000D02*
X92997000Y-28640000D01*
X93960000Y-28680000D02*
X93030000Y-28680000D01*
X93960000Y-28720000D02*
X93064000Y-28720000D01*
X93960000Y-28760000D02*
X93099000Y-28760000D01*
X93960000Y-28800000D02*
X93136000Y-28800000D01*
X93960000Y-28840000D02*
X93175000Y-28840000D01*
X93960000Y-28880000D02*
X93215000Y-28880000D01*
X93960000Y-28920000D02*
X93257000Y-28920000D01*
X93960000Y-28960000D02*
X93301000Y-28960000D01*
X93960000Y-29000000D02*
X93348000Y-29000000D01*
X95283000Y-29600000D02*
X94717000Y-29600000D01*
X95517000Y-29560000D02*
X94483000Y-29560000D01*
X95677000Y-29520000D02*
X94323000Y-29520000D01*
X95805000Y-29480000D02*
X94195000Y-29480000D01*
X95914000Y-29440000D02*
X94086000Y-29440000D01*
X96011000Y-29400000D02*
X93989000Y-29400000D01*
X96098000Y-29360000D02*
X93902000Y-29360000D01*
X96177000Y-29320000D02*
X93823000Y-29320000D01*
X96251000Y-29280000D02*
X93749000Y-29280000D01*
X96319000Y-29240000D02*
X93681000Y-29240000D01*
X96383000Y-29200000D02*
X93617000Y-29200000D01*
X96443000Y-29160000D02*
X93557000Y-29160000D01*
X96475000Y-24195225D02*
X96475000Y-24695225D01*
X96499000Y-29120000D02*
X93501000Y-29120000D01*
X96553000Y-29080000D02*
X93447000Y-29080000D01*
X96604000Y-29040000D02*
X93396000Y-29040000D01*
X96652000Y-29000000D02*
X96040000Y-29000000D01*
X96699000Y-28960000D02*
X96040000Y-28960000D01*
X96725000Y-24445225D02*
X96225000Y-24445225D01*
X96743000Y-28920000D02*
X96040000Y-28920000D01*
X96785000Y-28880000D02*
X96040000Y-28880000D01*
X96825000Y-28840000D02*
X96040000Y-28840000D01*
X96864000Y-28800000D02*
X96040000Y-28800000D01*
X96901000Y-28760000D02*
X96040000Y-28760000D01*
X96936000Y-28720000D02*
X96040000Y-28720000D01*
X96970000Y-28680000D02*
X96040000Y-28680000D01*
X97003000Y-28640000D02*
X96040000Y-28640000D01*
X97035000Y-28600000D02*
X96040000Y-28600000D01*
X97065000Y-28560000D02*
X96040000Y-28560000D01*
X97094000Y-28520000D02*
X96040000Y-28520000D01*
X97122000Y-28480000D02*
X96040000Y-28480000D01*
X97149000Y-28440000D02*
X96040000Y-28440000D01*
X97175000Y-28400000D02*
X96040000Y-28400000D01*
X97199000Y-28360000D02*
X96040000Y-28360000D01*
X97223000Y-28320000D02*
X96040000Y-28320000D01*
X97246000Y-28280000D02*
X96040000Y-28280000D01*
X97268000Y-28240000D02*
X96040000Y-28240000D01*
X97289000Y-28200000D02*
X96040000Y-28200000D01*
X97309000Y-28160000D02*
X96040000Y-28160000D01*
X97329000Y-28120000D02*
X96040000Y-28120000D01*
X97347000Y-28080000D02*
X96040000Y-28080000D01*
X97365000Y-28040000D02*
X96040000Y-28040000D01*
X97382000Y-28000000D02*
X96040000Y-28000000D01*
X97398000Y-27960000D02*
X96040000Y-27960000D01*
X97413000Y-27920000D02*
X96040000Y-27920000D01*
X97428000Y-27880000D02*
X96040000Y-27880000D01*
X97442000Y-27840000D02*
X96040000Y-27840000D01*
X97455000Y-27800000D02*
X96040000Y-27800000D01*
X97467000Y-27760000D02*
X96040000Y-27760000D01*
X97479000Y-27720000D02*
X96040000Y-27720000D01*
X97490000Y-27680000D02*
X96040000Y-27680000D01*
X97501000Y-27640000D02*
X96040000Y-27640000D01*
X97510000Y-27600000D02*
X96040000Y-27600000D01*
X97519000Y-27560000D02*
X96040000Y-27560000D01*
X97528000Y-27520000D02*
X96040000Y-27520000D01*
X97536000Y-27480000D02*
X96040000Y-27480000D01*
X97543000Y-27440000D02*
X96040000Y-27440000D01*
X97549000Y-27400000D02*
X96040000Y-27400000D01*
X97555000Y-27360000D02*
X96040000Y-27360000D01*
X97560000Y-27320000D02*
X96040000Y-27320000D01*
X97565000Y-27280000D02*
X96040000Y-27280000D01*
X97569000Y-27240000D02*
X96040000Y-27240000D01*
X97572000Y-27200000D02*
X96040000Y-27200000D01*
X97575000Y-27160000D02*
X96040000Y-27160000D01*
X97577000Y-27120000D02*
X96040000Y-27120000D01*
X97579000Y-27080000D02*
X96040000Y-27080000D01*
X97580000Y-27000000D02*
X96040000Y-27000000D01*
X97580000Y-27040000D02*
X96040000Y-27040000D01*
X97620000Y-27000000D02*
G75*
G02*
X92380000Y-27000000I-2620000J0D01*
G01*
X92380000Y-27000000D02*
G75*
G02*
X97620000Y-27000000I2620000J0D01*
G01*
%TO.C,R9*%
X25730000Y-37590000D02*
X28340000Y-37590000D01*
X25730000Y-37590000D02*
G75*
G02*
X22990000Y-37590000I-1370000J0D01*
G01*
X22990000Y-37590000D02*
G75*
G02*
X25730000Y-37590000I1370000J0D01*
G01*
%TO.C,J1*%
X5420000Y-1670000D02*
X94580000Y-1670000D01*
X5420000Y-10790000D02*
X5420000Y-1670000D01*
X6720000Y-2980000D02*
X93280000Y-2980000D01*
X6720000Y-9480000D02*
X6720000Y-2980000D01*
X10130000Y-12180000D02*
X11130000Y-12180000D01*
X10630000Y-11180000D02*
X10130000Y-12180000D01*
X11130000Y-12180000D02*
X10630000Y-11180000D01*
X47950000Y-9480000D02*
X6720000Y-9480000D01*
X47950000Y-10790000D02*
X47950000Y-9480000D01*
X52050000Y-9480000D02*
X52050000Y-10790000D01*
X93280000Y-2980000D02*
X93280000Y-9480000D01*
X93280000Y-9480000D02*
X52050000Y-9480000D01*
X94580000Y-1670000D02*
X94580000Y-10790000D01*
X94580000Y-10790000D02*
X5420000Y-10790000D01*
%TO.C,R8*%
X10370000Y-37590000D02*
X12980000Y-37590000D01*
X10370000Y-37590000D02*
G75*
G02*
X7630000Y-37590000I-1370000J0D01*
G01*
X7630000Y-37590000D02*
G75*
G02*
X10370000Y-37590000I1370000J0D01*
G01*
%TO.C,R17*%
X40000000Y-87370000D02*
X40000000Y-89980000D01*
X41370000Y-86000000D02*
G75*
G02*
X38630000Y-86000000I-1370000J0D01*
G01*
X38630000Y-86000000D02*
G75*
G02*
X41370000Y-86000000I1370000J0D01*
G01*
%TO.C,Q8*%
X21020000Y-34470000D02*
X17420000Y-34470000D01*
X16895816Y-35197205D02*
G75*
G02*
X17420000Y-34470000I2324184J-1122795D01*
G01*
X19220000Y-38920000D02*
G75*
G02*
X16863600Y-37418807I0J2600000D01*
G01*
X21020000Y-34470000D02*
G75*
G02*
X21544184Y-35197205I-1800000J-1850000D01*
G01*
X21576400Y-37418807D02*
G75*
G02*
X19220000Y-38920000I-2356400J1098807D01*
G01*
%TO.C,Q16*%
X40740000Y-35850000D02*
X44340000Y-35850000D01*
X40183600Y-32901193D02*
G75*
G02*
X42540000Y-31400000I2356400J-1098807D01*
G01*
X40740000Y-35850000D02*
G75*
G02*
X40215816Y-35122795I1800000J1850000D01*
G01*
X42540000Y-31400000D02*
G75*
G02*
X44896400Y-32901193I0J-2600000D01*
G01*
X44864184Y-35122795D02*
G75*
G02*
X44340000Y-35850000I-2324184J1122795D01*
G01*
%TO.C,R3*%
X25730000Y-16000000D02*
X28340000Y-16000000D01*
X25730000Y-16000000D02*
G75*
G02*
X22990000Y-16000000I-1370000J0D01*
G01*
X22990000Y-16000000D02*
G75*
G02*
X25730000Y-16000000I1370000J0D01*
G01*
%TO.C,C5*%
X86630000Y-62630000D02*
X89370000Y-62630000D01*
X86630000Y-67870000D02*
X86630000Y-62630000D01*
X89370000Y-62630000D02*
X89370000Y-67870000D01*
X89370000Y-67870000D02*
X86630000Y-67870000D01*
%TO.C,R15*%
X40000000Y-53370000D02*
X40000000Y-55980000D01*
X41370000Y-52000000D02*
G75*
G02*
X38630000Y-52000000I-1370000J0D01*
G01*
X38630000Y-52000000D02*
G75*
G02*
X41370000Y-52000000I1370000J0D01*
G01*
%TO.C,Q15*%
X25100000Y-58490000D02*
X28700000Y-58490000D01*
X24543600Y-55541193D02*
G75*
G02*
X26900000Y-54040000I2356400J-1098807D01*
G01*
X25100000Y-58490000D02*
G75*
G02*
X24575816Y-57762795I1800000J1850000D01*
G01*
X26900000Y-54040000D02*
G75*
G02*
X29256400Y-55541193I0J-2600000D01*
G01*
X29224184Y-57762795D02*
G75*
G02*
X28700000Y-58490000I-2324184J1122795D01*
G01*
%TD*%
M02*
