%TF.GenerationSoftware,KiCad,Pcbnew,10.0.5*%
%TF.CreationDate,2026-09-11T12:43:41-04:00*%
%TF.ProjectId,clock,636c6f63-6b2e-46b6-9963-61645f706362,rev?*%
%TF.SameCoordinates,Original*%
%TF.FileFunction,Copper,L1,Top*%
%TF.FilePolarity,Positive*%
%FSLAX46Y46*%
G04 Gerber Fmt 4.6, Leading zero omitted, Abs format (unit mm)*
G04 Created by KiCad (PCBNEW 10.0.5) date 2026-09-11 12:43:41*
%MOMM*%
%LPD*%
G01*
G04 APERTURE LIST*
G04 Aperture macros list*
%AMRoundRect*
0 Rectangle with rounded corners*
0 $1 Rounding radius*
0 $2 $3 $4 $5 $6 $7 $8 $9 X,Y pos of 4 corners*
0 Add a 4 corners polygon primitive as box body*
4,1,4,$2,$3,$4,$5,$6,$7,$8,$9,$2,$3,0*
0 Add four circle primitives for the rounded corners*
1,1,$1+$1,$2,$3*
1,1,$1+$1,$4,$5*
1,1,$1+$1,$6,$7*
1,1,$1+$1,$8,$9*
0 Add four rect primitives between the rounded corners*
20,1,$1+$1,$2,$3,$4,$5,0*
20,1,$1+$1,$4,$5,$6,$7,0*
20,1,$1+$1,$6,$7,$8,$9,0*
20,1,$1+$1,$8,$9,$2,$3,0*%
G04 Aperture macros list end*
%TA.AperFunction,ComponentPad*%
%ADD10R,1.500000X1.500000*%
%TD*%
%TA.AperFunction,ComponentPad*%
%ADD11C,1.500000*%
%TD*%
%TA.AperFunction,ComponentPad*%
%ADD12R,1.700000X1.700000*%
%TD*%
%TA.AperFunction,ComponentPad*%
%ADD13C,1.700000*%
%TD*%
%TA.AperFunction,ComponentPad*%
%ADD14C,1.600000*%
%TD*%
%TA.AperFunction,ComponentPad*%
%ADD15RoundRect,0.250000X-0.550000X0.550000X-0.550000X-0.550000X0.550000X-0.550000X0.550000X0.550000X0*%
%TD*%
%TA.AperFunction,ComponentPad*%
%ADD16RoundRect,0.250000X-0.550000X-0.550000X0.550000X-0.550000X0.550000X0.550000X-0.550000X0.550000X0*%
%TD*%
%TA.AperFunction,ComponentPad*%
%ADD17O,3.240000X2.720000*%
%TD*%
%TA.AperFunction,ComponentPad*%
%ADD18R,1.800000X1.800000*%
%TD*%
%TA.AperFunction,ComponentPad*%
%ADD19C,1.800000*%
%TD*%
%TA.AperFunction,ComponentPad*%
%ADD20C,6.400000*%
%TD*%
%TA.AperFunction,ComponentPad*%
%ADD21RoundRect,0.250000X0.600000X-0.600000X0.600000X0.600000X-0.600000X0.600000X-0.600000X-0.600000X0*%
%TD*%
%TA.AperFunction,ViaPad*%
%ADD22C,0.800000*%
%TD*%
%TA.AperFunction,ViaPad*%
%ADD23C,0.600000*%
%TD*%
%TA.AperFunction,Conductor*%
%ADD24C,0.200000*%
%TD*%
%TA.AperFunction,Conductor*%
%ADD25C,0.800000*%
%TD*%
%TA.AperFunction,Conductor*%
%ADD26C,0.500000*%
%TD*%
G04 APERTURE END LIST*
D10*
%TO.P,Q2,1*%
%TO.N,GND*%
X21760000Y-19810000D03*
D11*
%TO.P,Q2,2*%
%TO.N,SA*%
X19220000Y-19810000D03*
%TO.P,Q2,3*%
%TO.N,SB*%
X16680000Y-19810000D03*
%TD*%
D10*
%TO.P,Q3,1*%
%TO.N,GND*%
X24360000Y-20445000D03*
D11*
%TO.P,Q3,2*%
%TO.N,HLTD*%
X26900000Y-20445000D03*
%TO.P,Q3,3*%
%TO.N,HLTN*%
X29440000Y-20445000D03*
%TD*%
D12*
%TO.P,J2,1*%
%TO.N,X*%
X52000000Y-64000000D03*
D13*
%TO.P,J2,2*%
%TO.N,Net-(J2-Pin_2)*%
X52000000Y-66540000D03*
%TD*%
D10*
%TO.P,Q10,1*%
%TO.N,GND*%
X24360000Y-33780000D03*
D11*
%TO.P,Q10,2*%
%TO.N,PULL*%
X26900000Y-33780000D03*
%TO.P,Q10,3*%
%TO.N,CLK*%
X29440000Y-33780000D03*
%TD*%
D14*
%TO.P,R14,1*%
%TO.N,VS*%
X40000000Y-52000000D03*
%TO.P,R14,2*%
%TO.N,GND*%
X40000000Y-57080000D03*
%TD*%
%TO.P,R9,1*%
%TO.N,PB*%
X24360000Y-37590000D03*
%TO.P,R9,2*%
%TO.N,+5V*%
X29440000Y-37590000D03*
%TD*%
D15*
%TO.P,C2,1*%
%TO.N,+5V*%
X95000000Y-26000000D03*
D14*
%TO.P,C2,2*%
%TO.N,GND*%
X95000000Y-28000000D03*
%TD*%
%TO.P,R10,1*%
%TO.N,Net-(D1-A)*%
X9000000Y-45845000D03*
%TO.P,R10,2*%
%TO.N,+5V*%
X14080000Y-45845000D03*
%TD*%
%TO.P,R15,1*%
%TO.N,SA*%
X40000000Y-64000000D03*
%TO.P,R15,2*%
%TO.N,RT*%
X40000000Y-69080000D03*
%TD*%
%TO.P,R22,1*%
%TO.N,PA*%
X64000000Y-86000000D03*
%TO.P,R22,2*%
%TO.N,Net-(D4-A)*%
X64000000Y-91080000D03*
%TD*%
%TO.P,R11,1*%
%TO.N,+5V*%
X16680000Y-45845000D03*
%TO.P,R11,2*%
%TO.N,Net-(D2-A)*%
X21760000Y-45845000D03*
%TD*%
D10*
%TO.P,Q4,1*%
%TO.N,Net-(Q4-S)*%
X9000000Y-28700000D03*
D11*
%TO.P,Q4,2*%
%TO.N,SB*%
X11540000Y-28700000D03*
%TO.P,Q4,3*%
%TO.N,OSCGN*%
X14080000Y-28700000D03*
%TD*%
D14*
%TO.P,R20,1*%
%TO.N,POR*%
X70000000Y-86000000D03*
%TO.P,R20,2*%
%TO.N,PN*%
X70000000Y-91080000D03*
%TD*%
D10*
%TO.P,Q16,1*%
%TO.N,VS*%
X52000000Y-34000000D03*
D11*
%TO.P,Q16,2*%
%TO.N,Net-(Q15-D)*%
X54540000Y-34000000D03*
%TO.P,Q16,3*%
%TO.N,VD2*%
X57080000Y-34000000D03*
%TD*%
D16*
%TO.P,D3,1*%
%TO.N,Net-(D3-K)*%
X58000000Y-78000000D03*
D14*
%TO.P,D3,2*%
%TO.N,RUNSW*%
X65620000Y-78000000D03*
%TD*%
%TO.P,C5,1*%
%TO.N,HLTD*%
X88000000Y-64000000D03*
%TO.P,C5,2*%
%TO.N,GND*%
X88000000Y-66500000D03*
%TD*%
D10*
%TO.P,Q1,1*%
%TO.N,GND*%
X9000000Y-20445000D03*
D11*
%TO.P,Q1,2*%
%TO.N,VD2*%
X11540000Y-20445000D03*
%TO.P,Q1,3*%
%TO.N,SA*%
X14080000Y-20445000D03*
%TD*%
D10*
%TO.P,Q5,1*%
%TO.N,GND*%
X9000000Y-33780000D03*
D11*
%TO.P,Q5,2*%
%TO.N,HLTN*%
X11540000Y-33780000D03*
%TO.P,Q5,3*%
%TO.N,Net-(Q4-S)*%
X14080000Y-33780000D03*
%TD*%
D10*
%TO.P,Q12,1*%
%TO.N,GND*%
X24360000Y-42035000D03*
D11*
%TO.P,Q12,2*%
%TO.N,PA*%
X26900000Y-42035000D03*
%TO.P,Q12,3*%
%TO.N,PB*%
X29440000Y-42035000D03*
%TD*%
D14*
%TO.P,R5,1*%
%TO.N,+5V*%
X16680000Y-24255000D03*
%TO.P,R5,2*%
%TO.N,OSCG*%
X21760000Y-24255000D03*
%TD*%
%TO.P,R8,1*%
%TO.N,PA*%
X9000000Y-37590000D03*
%TO.P,R8,2*%
%TO.N,+5V*%
X14080000Y-37590000D03*
%TD*%
%TO.P,R18,1*%
%TO.N,HLT*%
X82000000Y-64000000D03*
%TO.P,R18,2*%
%TO.N,HLTD*%
X82000000Y-69080000D03*
%TD*%
D17*
%TO.P,RV1,*%
%TO.N,*%
X69500000Y-51700000D03*
X69500000Y-61300000D03*
D18*
%TO.P,RV1,1*%
%TO.N,RT*%
X62000000Y-54000000D03*
D19*
%TO.P,RV1,2*%
%TO.N,X*%
X62000000Y-56500000D03*
%TO.P,RV1,3*%
X62000000Y-59000000D03*
%TD*%
D14*
%TO.P,R17,1*%
%TO.N,Net-(D3-K)*%
X46000000Y-86000000D03*
%TO.P,R17,2*%
%TO.N,CLK*%
X46000000Y-91080000D03*
%TD*%
D10*
%TO.P,Q7,1*%
%TO.N,GND*%
X24360000Y-28700000D03*
D11*
%TO.P,Q7,2*%
%TO.N,RUNSW*%
X26900000Y-28700000D03*
%TO.P,Q7,3*%
%TO.N,RUNN*%
X29440000Y-28700000D03*
%TD*%
D18*
%TO.P,D1,1*%
%TO.N,Net-(D1-K)*%
X11540000Y-52195000D03*
D19*
%TO.P,D1,2*%
%TO.N,Net-(D1-A)*%
X11540000Y-49655000D03*
%TD*%
D14*
%TO.P,R7,1*%
%TO.N,+5V*%
X16680000Y-32510000D03*
%TO.P,R7,2*%
%TO.N,PULL*%
X21760000Y-32510000D03*
%TD*%
%TO.P,C1,1*%
%TO.N,+5V*%
X95000000Y-16500000D03*
%TO.P,C1,2*%
%TO.N,GND*%
X95000000Y-19000000D03*
%TD*%
D16*
%TO.P,SW1,1*%
%TO.N,+5V*%
X46000000Y-78000000D03*
D14*
%TO.P,SW1,2*%
%TO.N,RUNSW*%
X53620000Y-78000000D03*
%TD*%
D10*
%TO.P,Q8,1*%
%TO.N,GND*%
X21760000Y-36320000D03*
D11*
%TO.P,Q8,2*%
%TO.N,RUNN*%
X19220000Y-36320000D03*
%TO.P,Q8,3*%
%TO.N,PULL*%
X16680000Y-36320000D03*
%TD*%
D14*
%TO.P,C3,1*%
%TO.N,X*%
X46000000Y-64000000D03*
%TO.P,C3,2*%
%TO.N,GND*%
X46000000Y-66500000D03*
%TD*%
%TO.P,R13,1*%
%TO.N,+5V*%
X58000000Y-22000000D03*
%TO.P,R13,2*%
%TO.N,VD2*%
X58000000Y-27080000D03*
%TD*%
D20*
%TO.P,H1,1*%
%TO.N,N/C*%
X4000000Y-50000000D03*
%TD*%
D16*
%TO.P,D4,1*%
%TO.N,RST*%
X52000000Y-70000000D03*
D14*
%TO.P,D4,2*%
%TO.N,Net-(D4-A)*%
X59620000Y-70000000D03*
%TD*%
D10*
%TO.P,Q6,1*%
%TO.N,GND*%
X21760000Y-28065000D03*
D11*
%TO.P,Q6,2*%
%TO.N,OSCGN*%
X19220000Y-28065000D03*
%TO.P,Q6,3*%
%TO.N,OSCG*%
X16680000Y-28065000D03*
%TD*%
D10*
%TO.P,Q14,1*%
%TO.N,GND*%
X21760000Y-56640000D03*
D11*
%TO.P,Q14,2*%
%TO.N,SB*%
X19220000Y-56640000D03*
%TO.P,Q14,3*%
%TO.N,Net-(D2-K)*%
X16680000Y-56640000D03*
%TD*%
D20*
%TO.P,H2,1*%
%TO.N,N/C*%
X96000000Y-50000000D03*
%TD*%
D15*
%TO.P,C6,1*%
%TO.N,POR*%
X58000000Y-86000000D03*
D14*
%TO.P,C6,2*%
%TO.N,GND*%
X58000000Y-88000000D03*
%TD*%
D10*
%TO.P,Q11,1*%
%TO.N,GND*%
X9000000Y-42035000D03*
D11*
%TO.P,Q11,2*%
%TO.N,PN*%
X11540000Y-42035000D03*
%TO.P,Q11,3*%
%TO.N,PA*%
X14080000Y-42035000D03*
%TD*%
D14*
%TO.P,R4,1*%
%TO.N,OSCGN*%
X9000000Y-24255000D03*
%TO.P,R4,2*%
%TO.N,+5V*%
X14080000Y-24255000D03*
%TD*%
%TO.P,R6,1*%
%TO.N,RUNN*%
X24360000Y-24255000D03*
%TO.P,R6,2*%
%TO.N,+5V*%
X29440000Y-24255000D03*
%TD*%
%TO.P,R1,1*%
%TO.N,SA*%
X9000000Y-16000000D03*
%TO.P,R1,2*%
%TO.N,+5V*%
X14080000Y-16000000D03*
%TD*%
%TO.P,R2,1*%
%TO.N,+5V*%
X16680000Y-16000000D03*
%TO.P,R2,2*%
%TO.N,SB*%
X21760000Y-16000000D03*
%TD*%
D10*
%TO.P,Q9,1*%
%TO.N,GND*%
X21760000Y-41400000D03*
D11*
%TO.P,Q9,2*%
%TO.N,OSCG*%
X19220000Y-41400000D03*
%TO.P,Q9,3*%
%TO.N,PULL*%
X16680000Y-41400000D03*
%TD*%
D15*
%TO.P,C4,1*%
%TO.N,Net-(J2-Pin_2)*%
X58000000Y-64000000D03*
D14*
%TO.P,C4,2*%
%TO.N,GND*%
X58000000Y-66000000D03*
%TD*%
%TO.P,R19,1*%
%TO.N,+5V*%
X52000000Y-86000000D03*
%TO.P,R19,2*%
%TO.N,POR*%
X52000000Y-91080000D03*
%TD*%
%TO.P,R12,1*%
%TO.N,+5V*%
X46000000Y-22000000D03*
%TO.P,R12,2*%
%TO.N,Net-(Q15-D)*%
X46000000Y-27080000D03*
%TD*%
D18*
%TO.P,D2,1*%
%TO.N,Net-(D2-K)*%
X19220000Y-52195000D03*
D19*
%TO.P,D2,2*%
%TO.N,Net-(D2-A)*%
X19220000Y-49655000D03*
%TD*%
D14*
%TO.P,R16,1*%
%TO.N,RUNSW*%
X40000000Y-86000000D03*
%TO.P,R16,2*%
%TO.N,GND*%
X40000000Y-91080000D03*
%TD*%
D21*
%TO.P,J1,1*%
%TO.N,+5V*%
X10630000Y-7500000D03*
D13*
%TO.P,J1,2*%
X10630000Y-4960000D03*
%TO.P,J1,3*%
%TO.N,GND*%
X13170000Y-7500000D03*
%TO.P,J1,4*%
X13170000Y-4960000D03*
%TO.P,J1,5*%
%TO.N,CLK*%
X15710000Y-7500000D03*
%TO.P,J1,6*%
%TO.N,GND*%
X15710000Y-4960000D03*
%TO.P,J1,7*%
%TO.N,RST*%
X18250000Y-7500000D03*
%TO.P,J1,8*%
%TO.N,GND*%
X18250000Y-4960000D03*
%TO.P,J1,9*%
%TO.N,unconnected-(J1-Pin_9-Pad9)*%
X20790000Y-7500000D03*
%TO.P,J1,10*%
%TO.N,unconnected-(J1-Pin_10-Pad10)*%
X20790000Y-4960000D03*
%TO.P,J1,11*%
%TO.N,unconnected-(J1-Pin_11-Pad11)*%
X23330000Y-7500000D03*
%TO.P,J1,12*%
%TO.N,unconnected-(J1-Pin_12-Pad12)*%
X23330000Y-4960000D03*
%TO.P,J1,13*%
%TO.N,unconnected-(J1-Pin_13-Pad13)*%
X25870000Y-7500000D03*
%TO.P,J1,14*%
%TO.N,unconnected-(J1-Pin_14-Pad14)*%
X25870000Y-4960000D03*
%TO.P,J1,15*%
%TO.N,unconnected-(J1-Pin_15-Pad15)*%
X28410000Y-7500000D03*
%TO.P,J1,16*%
%TO.N,unconnected-(J1-Pin_16-Pad16)*%
X28410000Y-4960000D03*
%TO.P,J1,17*%
%TO.N,unconnected-(J1-Pin_17-Pad17)*%
X30950000Y-7500000D03*
%TO.P,J1,18*%
%TO.N,unconnected-(J1-Pin_18-Pad18)*%
X30950000Y-4960000D03*
%TO.P,J1,19*%
%TO.N,unconnected-(J1-Pin_19-Pad19)*%
X33490000Y-7500000D03*
%TO.P,J1,20*%
%TO.N,unconnected-(J1-Pin_20-Pad20)*%
X33490000Y-4960000D03*
%TO.P,J1,21*%
%TO.N,unconnected-(J1-Pin_21-Pad21)*%
X36030000Y-7500000D03*
%TO.P,J1,22*%
%TO.N,unconnected-(J1-Pin_22-Pad22)*%
X36030000Y-4960000D03*
%TO.P,J1,23*%
%TO.N,unconnected-(J1-Pin_23-Pad23)*%
X38570000Y-7500000D03*
%TO.P,J1,24*%
%TO.N,unconnected-(J1-Pin_24-Pad24)*%
X38570000Y-4960000D03*
%TO.P,J1,25*%
%TO.N,unconnected-(J1-Pin_25-Pad25)*%
X41110000Y-7500000D03*
%TO.P,J1,26*%
%TO.N,unconnected-(J1-Pin_26-Pad26)*%
X41110000Y-4960000D03*
%TO.P,J1,27*%
%TO.N,unconnected-(J1-Pin_27-Pad27)*%
X43650000Y-7500000D03*
%TO.P,J1,28*%
%TO.N,unconnected-(J1-Pin_28-Pad28)*%
X43650000Y-4960000D03*
%TO.P,J1,29*%
%TO.N,unconnected-(J1-Pin_29-Pad29)*%
X46190000Y-7500000D03*
%TO.P,J1,30*%
%TO.N,unconnected-(J1-Pin_30-Pad30)*%
X46190000Y-4960000D03*
%TO.P,J1,31*%
%TO.N,unconnected-(J1-Pin_31-Pad31)*%
X48730000Y-7500000D03*
%TO.P,J1,32*%
%TO.N,unconnected-(J1-Pin_32-Pad32)*%
X48730000Y-4960000D03*
%TO.P,J1,33*%
%TO.N,unconnected-(J1-Pin_33-Pad33)*%
X51270000Y-7500000D03*
%TO.P,J1,34*%
%TO.N,unconnected-(J1-Pin_34-Pad34)*%
X51270000Y-4960000D03*
%TO.P,J1,35*%
%TO.N,unconnected-(J1-Pin_35-Pad35)*%
X53810000Y-7500000D03*
%TO.P,J1,36*%
%TO.N,unconnected-(J1-Pin_36-Pad36)*%
X53810000Y-4960000D03*
%TO.P,J1,37*%
%TO.N,unconnected-(J1-Pin_37-Pad37)*%
X56350000Y-7500000D03*
%TO.P,J1,38*%
%TO.N,unconnected-(J1-Pin_38-Pad38)*%
X56350000Y-4960000D03*
%TO.P,J1,39*%
%TO.N,unconnected-(J1-Pin_39-Pad39)*%
X58890000Y-7500000D03*
%TO.P,J1,40*%
%TO.N,unconnected-(J1-Pin_40-Pad40)*%
X58890000Y-4960000D03*
%TO.P,J1,41*%
%TO.N,unconnected-(J1-Pin_41-Pad41)*%
X61430000Y-7500000D03*
%TO.P,J1,42*%
%TO.N,unconnected-(J1-Pin_42-Pad42)*%
X61430000Y-4960000D03*
%TO.P,J1,43*%
%TO.N,unconnected-(J1-Pin_43-Pad43)*%
X63970000Y-7500000D03*
%TO.P,J1,44*%
%TO.N,unconnected-(J1-Pin_44-Pad44)*%
X63970000Y-4960000D03*
%TO.P,J1,45*%
%TO.N,unconnected-(J1-Pin_45-Pad45)*%
X66510000Y-7500000D03*
%TO.P,J1,46*%
%TO.N,unconnected-(J1-Pin_46-Pad46)*%
X66510000Y-4960000D03*
%TO.P,J1,47*%
%TO.N,unconnected-(J1-Pin_47-Pad47)*%
X69050000Y-7500000D03*
%TO.P,J1,48*%
%TO.N,unconnected-(J1-Pin_48-Pad48)*%
X69050000Y-4960000D03*
%TO.P,J1,49*%
%TO.N,unconnected-(J1-Pin_49-Pad49)*%
X71590000Y-7500000D03*
%TO.P,J1,50*%
%TO.N,unconnected-(J1-Pin_50-Pad50)*%
X71590000Y-4960000D03*
%TO.P,J1,51*%
%TO.N,unconnected-(J1-Pin_51-Pad51)*%
X74130000Y-7500000D03*
%TO.P,J1,52*%
%TO.N,unconnected-(J1-Pin_52-Pad52)*%
X74130000Y-4960000D03*
%TO.P,J1,53*%
%TO.N,HLT*%
X76670000Y-7500000D03*
%TO.P,J1,54*%
%TO.N,unconnected-(J1-Pin_54-Pad54)*%
X76670000Y-4960000D03*
%TO.P,J1,55*%
%TO.N,unconnected-(J1-Pin_55-Pad55)*%
X79210000Y-7500000D03*
%TO.P,J1,56*%
%TO.N,unconnected-(J1-Pin_56-Pad56)*%
X79210000Y-4960000D03*
%TO.P,J1,57*%
%TO.N,unconnected-(J1-Pin_57-Pad57)*%
X81750000Y-7500000D03*
%TO.P,J1,58*%
%TO.N,unconnected-(J1-Pin_58-Pad58)*%
X81750000Y-4960000D03*
%TO.P,J1,59*%
%TO.N,unconnected-(J1-Pin_59-Pad59)*%
X84290000Y-7500000D03*
%TO.P,J1,60*%
%TO.N,unconnected-(J1-Pin_60-Pad60)*%
X84290000Y-4960000D03*
%TO.P,J1,61*%
%TO.N,unconnected-(J1-Pin_61-Pad61)*%
X86830000Y-7500000D03*
%TO.P,J1,62*%
%TO.N,unconnected-(J1-Pin_62-Pad62)*%
X86830000Y-4960000D03*
%TO.P,J1,63*%
%TO.N,+5V*%
X89370000Y-7500000D03*
%TO.P,J1,64*%
%TO.N,GND*%
X89370000Y-4960000D03*
%TD*%
D10*
%TO.P,Q13,1*%
%TO.N,GND*%
X9000000Y-56640000D03*
D11*
%TO.P,Q13,2*%
%TO.N,RUNSW*%
X11540000Y-56640000D03*
%TO.P,Q13,3*%
%TO.N,Net-(D1-K)*%
X14080000Y-56640000D03*
%TD*%
D14*
%TO.P,R21,1*%
%TO.N,PB*%
X76000000Y-86000000D03*
%TO.P,R21,2*%
%TO.N,PN*%
X76000000Y-91080000D03*
%TD*%
%TO.P,R3,1*%
%TO.N,HLTN*%
X24360000Y-16000000D03*
%TO.P,R3,2*%
%TO.N,+5V*%
X29440000Y-16000000D03*
%TD*%
D10*
%TO.P,Q15,1*%
%TO.N,VS*%
X40000000Y-34000000D03*
D11*
%TO.P,Q15,2*%
%TO.N,X*%
X42540000Y-34000000D03*
%TO.P,Q15,3*%
%TO.N,Net-(Q15-D)*%
X45080000Y-34000000D03*
%TD*%
D22*
%TO.N,+5V*%
X10630000Y-14000000D03*
X89370000Y-14000000D03*
X30770000Y-14000000D03*
X15410000Y-14000000D03*
%TO.N,GND*%
X23090000Y-12500000D03*
X89370000Y-2460000D03*
X95000000Y-21500000D03*
X95000000Y-30500000D03*
X7730000Y-12500000D03*
X18250000Y-2460000D03*
D23*
%TO.N,PA*%
X60015000Y-75894800D03*
%TD*%
%TO.N,+5V*%
D24*
X38130200Y-66936400D02*
X38130200Y-70130200D01*
D25*
X10630000Y-14000000D02*
X15410000Y-14000000D01*
D24*
X48804600Y-14000000D02*
X46000000Y-16804600D01*
X62326400Y-14000000D02*
X58000000Y-18326400D01*
X16680000Y-45845000D02*
X17038800Y-45845000D01*
D26*
X98000000Y-26000000D02*
X95000000Y-26000000D01*
D24*
X46000000Y-16804600D02*
X46000000Y-22000000D01*
D25*
X30770000Y-14000000D02*
X98000000Y-14000000D01*
D24*
X17038800Y-45845000D02*
X38130200Y-66936400D01*
D26*
X10630000Y-7500000D02*
X10630000Y-4960000D01*
D25*
X15410000Y-14000000D02*
X30770000Y-14000000D01*
D24*
X58000000Y-18326400D02*
X58000000Y-22000000D01*
X38130200Y-70130200D02*
X46000000Y-78000000D01*
D26*
X95000000Y-14000000D02*
X95000000Y-16500000D01*
X98000000Y-14000000D02*
X98000000Y-26000000D01*
%TO.N,GND*%
X89370000Y-4960000D02*
X89370000Y-2460000D01*
D25*
X7730000Y-12500000D02*
X23090000Y-12500000D01*
D26*
X95000000Y-19000000D02*
X95000000Y-21500000D01*
X13170000Y-7500000D02*
X13170000Y-4960000D01*
X13170000Y-4960000D02*
X18250000Y-4960000D01*
X95000000Y-28000000D02*
X95000000Y-30500000D01*
X13170000Y-7500000D02*
X13170000Y-12500000D01*
X18250000Y-4960000D02*
X18250000Y-2460000D01*
%TO.N,HLTD*%
D24*
X29895100Y-22314600D02*
X28769600Y-22314600D01*
X82920000Y-69080000D02*
X82000000Y-69080000D01*
X53078800Y-40158800D02*
X53078800Y-33169100D01*
X35945900Y-28365400D02*
X29895100Y-22314600D01*
X88000000Y-64000000D02*
X82920000Y-69080000D01*
X53078800Y-33169100D02*
X48275100Y-28365400D01*
X48275100Y-28365400D02*
X35945900Y-28365400D01*
X82000000Y-69080000D02*
X53078800Y-40158800D01*
X28769600Y-22314600D02*
X26900000Y-20445000D01*
%TO.N,HLTN*%
X25506100Y-21154900D02*
X25506100Y-20288800D01*
X23060100Y-24844000D02*
X23060100Y-23600900D01*
X23060100Y-23600900D02*
X25506100Y-21154900D01*
X27077500Y-18717400D02*
X27712400Y-18717400D01*
X11540000Y-33780000D02*
X12560700Y-34800700D01*
X12560700Y-34800700D02*
X15880200Y-34800700D01*
X15880200Y-34800700D02*
X20747200Y-29933700D01*
X20747200Y-29933700D02*
X20747200Y-27156900D01*
X27712400Y-18717400D02*
X29440000Y-20445000D01*
X27077500Y-18717400D02*
X24360000Y-16000000D01*
X25506100Y-20288800D02*
X27077500Y-18717400D01*
X20747200Y-27156900D02*
X23060100Y-24844000D01*
%TO.N,Net-(J2-Pin_2)*%
X55460000Y-66540000D02*
X52000000Y-66540000D01*
X58000000Y-64000000D02*
X55460000Y-66540000D01*
%TO.N,Net-(Q4-S)*%
X10001700Y-28700000D02*
X10001700Y-29701700D01*
X9000000Y-28700000D02*
X10001700Y-28700000D01*
X10001700Y-29701700D02*
X14080000Y-33780000D01*
%TO.N,OSCGN*%
X14453300Y-29073300D02*
X14080000Y-28700000D01*
X18211700Y-29073300D02*
X14453300Y-29073300D01*
X19220000Y-28065000D02*
X18211700Y-29073300D01*
%TO.N,PA*%
X9635000Y-37590000D02*
X9000000Y-37590000D01*
X26075000Y-51691000D02*
X26075000Y-43041600D01*
X26075000Y-43041600D02*
X26075000Y-42860000D01*
X26075000Y-42860000D02*
X26900000Y-42035000D01*
X14080000Y-42035000D02*
X9635000Y-37590000D01*
X26075000Y-43041600D02*
X15086600Y-43041600D01*
X60015000Y-75894800D02*
X50278800Y-75894800D01*
X50278800Y-75894800D02*
X26075000Y-51691000D01*
X15086600Y-43041600D02*
X14080000Y-42035000D01*
%TO.N,PB*%
X76000000Y-86000000D02*
X76000000Y-84889200D01*
X24995000Y-37590000D02*
X29440000Y-42035000D01*
X49058700Y-65250000D02*
X45745300Y-65250000D01*
X76000000Y-84889200D02*
X59254400Y-68143600D01*
X29440000Y-48944700D02*
X29440000Y-42035000D01*
X24360000Y-37590000D02*
X24995000Y-37590000D01*
X45745300Y-65250000D02*
X29440000Y-48944700D01*
X51952300Y-68143600D02*
X49058700Y-65250000D01*
X59254400Y-68143600D02*
X51952300Y-68143600D01*
%TO.N,PN*%
X13409600Y-43904600D02*
X17660400Y-43904600D01*
X71054700Y-81925100D02*
X71054700Y-91080000D01*
X71054700Y-91080000D02*
X76000000Y-91080000D01*
X70000000Y-91080000D02*
X71054700Y-91080000D01*
X17660400Y-43904600D02*
X50257700Y-76501900D01*
X65631500Y-76501900D02*
X71054700Y-81925100D01*
X50257700Y-76501900D02*
X65631500Y-76501900D01*
X11540000Y-42035000D02*
X13409600Y-43904600D01*
%TO.N,POR*%
X52920000Y-91080000D02*
X58000000Y-86000000D01*
X58000000Y-86000000D02*
X59055700Y-84944300D01*
X59055700Y-84944300D02*
X68944300Y-84944300D01*
X68944300Y-84944300D02*
X70000000Y-86000000D01*
X52000000Y-91080000D02*
X52920000Y-91080000D01*
%TO.N,PULL*%
X20490000Y-32510000D02*
X21760000Y-32510000D01*
X16680000Y-36320000D02*
X20490000Y-32510000D01*
X21760000Y-32510000D02*
X25630000Y-32510000D01*
X25630000Y-32510000D02*
X26900000Y-33780000D01*
%TO.N,RUNN*%
X20278500Y-35261500D02*
X26890800Y-35261500D01*
X28170000Y-29335000D02*
X28805000Y-28700000D01*
X28805000Y-28700000D02*
X24360000Y-24255000D01*
X26890800Y-35261500D02*
X28170000Y-33982300D01*
X28170000Y-33982300D02*
X28170000Y-29335000D01*
X19220000Y-36320000D02*
X20278500Y-35261500D01*
X29440000Y-28700000D02*
X28805000Y-28700000D01*
%TO.N,RUNSW*%
X48000000Y-78000000D02*
X53620000Y-78000000D01*
X54678900Y-76941100D02*
X53620000Y-78000000D01*
X40000000Y-86000000D02*
X48000000Y-78000000D01*
X65620000Y-78000000D02*
X64561100Y-76941100D01*
X64561100Y-76941100D02*
X54678900Y-76941100D01*
%TO.N,SA*%
X25808700Y-39520000D02*
X28046100Y-41757400D01*
X7898700Y-17101300D02*
X7898700Y-29454600D01*
X14037500Y-35721400D02*
X17836100Y-39520000D01*
X10146100Y-33817500D02*
X12050000Y-35721400D01*
X18207200Y-20822800D02*
X14457800Y-20822800D01*
X10146100Y-31702000D02*
X10146100Y-33817500D01*
X19220000Y-19810000D02*
X18207200Y-20822800D01*
X12050000Y-35721400D02*
X14037500Y-35721400D01*
X14457800Y-20822800D02*
X14080000Y-20445000D01*
X17836100Y-39520000D02*
X25808700Y-39520000D01*
X28046100Y-41757400D02*
X28046100Y-52046100D01*
X28046100Y-52046100D02*
X40000000Y-64000000D01*
X7898700Y-29454600D02*
X10146100Y-31702000D01*
X9000000Y-16000000D02*
X7898700Y-17101300D01*
%TO.N,SB*%
X16680000Y-19810000D02*
X20490000Y-16000000D01*
X10515900Y-20045900D02*
X11148300Y-19413500D01*
X11540000Y-28700000D02*
X10515900Y-27675900D01*
X20490000Y-16000000D02*
X21760000Y-16000000D01*
X10515900Y-27675900D02*
X10515900Y-20045900D01*
X16283500Y-19413500D02*
X16680000Y-19810000D01*
X11148300Y-19413500D02*
X16283500Y-19413500D01*
%TO.N,VD2*%
X20613900Y-19052800D02*
X23060100Y-16606600D01*
X23060100Y-16606600D02*
X23060100Y-15766300D01*
X48115300Y-27080000D02*
X58000000Y-27080000D01*
X19060300Y-21453100D02*
X20613900Y-19899500D01*
X12548100Y-21453100D02*
X19060300Y-21453100D01*
X11540000Y-20445000D02*
X12548100Y-21453100D01*
X23890500Y-14935900D02*
X35971200Y-14935900D01*
X35971200Y-14935900D02*
X48115300Y-27080000D01*
X20613900Y-19899500D02*
X20613900Y-19052800D01*
X23060100Y-15766300D02*
X23890500Y-14935900D01*
%TO.N,VS*%
X50998300Y-34000000D02*
X49996600Y-32998300D01*
X40000000Y-34000000D02*
X41001700Y-34000000D01*
X42003400Y-32998300D02*
X41001700Y-34000000D01*
X52000000Y-34000000D02*
X50998300Y-34000000D01*
X49996600Y-32998300D02*
X42003400Y-32998300D01*
%TO.N,X*%
X53101700Y-64000000D02*
X58101700Y-59000000D01*
X42540000Y-34000000D02*
X42540000Y-37040000D01*
X42540000Y-37040000D02*
X62000000Y-56500000D01*
X52000000Y-64000000D02*
X53101700Y-64000000D01*
X58101700Y-59000000D02*
X62000000Y-59000000D01*
X46000000Y-64000000D02*
X52000000Y-64000000D01*
%TD*%
M02*
