M48
; DRILL file KiCad 10.0.5 date 2026-09-11T05:29:06
; FORMAT={-:-/ absolute / metric / decimal}
; #@! TF.CreationDate,2026-09-11T05:29:06-04:00
; #@! TF.GenerationSoftware,Kicad,Pcbnew,10.0.5
; #@! TF.FileFunction,MixedPlating,1,2
FMAT,2
METRIC
; #@! TA.AperFunction,Plated,PTH,ViaDrill
T1C0.400
; #@! TA.AperFunction,Plated,PTH,ComponentDrill
T2C0.800
; #@! TA.AperFunction,Plated,PTH,ComponentDrill
T3C0.900
; #@! TA.AperFunction,Plated,PTH,ComponentDrill
T4C1.000
; #@! TA.AperFunction,Plated,PTH,ComponentDrill
T5C3.200
%
G90
G05
T1
X7.73Y-12.5
X10.63Y-14.0
X15.41Y-14.0
X18.25Y-2.46
X23.09Y-12.5
X30.77Y-14.0
X32.935Y-56.284
X33.038Y-58.116
X38.45Y-12.5
X44.871Y-37.251
X46.13Y-14.0
X48.962Y-49.73
X49.162Y-67.251
X52.7Y-89.96
X52.7Y-97.5
X53.81Y-12.5
X61.49Y-14.0
X69.17Y-12.5
X70.402Y-19.076
X89.37Y-2.46
X89.37Y-14.0
X95.0Y-21.5
X95.0Y-30.5
T2
X9.0Y-16.0
X9.0Y-20.445
X9.0Y-24.255
X9.0Y-28.7
X9.0Y-33.78
X9.0Y-37.59
X9.0Y-42.035
X9.0Y-47.115
X9.0Y-50.925
X9.0Y-55.37
X9.0Y-59.18
X9.0Y-63.625
X9.0Y-67.435
X9.0Y-71.88
X9.0Y-75.69
X9.0Y-80.135
X11.54Y-20.445
X11.54Y-28.7
X11.54Y-33.78
X11.54Y-42.035
X11.54Y-47.115
X11.54Y-55.37
X11.54Y-63.625
X11.54Y-71.88
X11.54Y-80.135
X14.08Y-16.0
X14.08Y-20.445
X14.08Y-24.255
X14.08Y-28.7
X14.08Y-33.78
X14.08Y-37.59
X14.08Y-42.035
X14.08Y-47.115
X14.08Y-50.925
X14.08Y-55.37
X14.08Y-59.18
X14.08Y-63.625
X14.08Y-67.435
X14.08Y-71.88
X14.08Y-75.69
X14.08Y-80.135
X16.68Y-16.0
X16.68Y-19.81
X16.68Y-24.89
X16.68Y-29.335
X16.68Y-33.145
X16.68Y-37.59
X16.68Y-41.4
X16.68Y-45.845
X16.68Y-49.655
X16.68Y-54.735
X16.68Y-59.18
X16.68Y-62.99
X16.68Y-68.07
X19.22Y-19.81
X19.22Y-24.89
X19.22Y-33.145
X19.22Y-41.4
X19.22Y-49.655
X19.22Y-54.735
X19.22Y-62.99
X19.22Y-68.07
X21.76Y-16.0
X21.76Y-19.81
X21.76Y-24.89
X21.76Y-29.335
X21.76Y-33.145
X21.76Y-37.59
X21.76Y-41.4
X21.76Y-45.845
X21.76Y-49.655
X21.76Y-54.735
X21.76Y-59.18
X21.76Y-62.99
X21.76Y-68.07
X24.36Y-16.0
X24.36Y-20.445
X24.36Y-25.525
X24.36Y-29.335
X24.36Y-33.78
X24.36Y-38.86
X24.36Y-42.67
X24.36Y-47.115
X24.36Y-50.925
X24.36Y-55.37
X24.36Y-60.45
X24.36Y-64.26
X24.36Y-68.705
X24.36Y-73.785
X26.9Y-20.445
X26.9Y-25.525
X26.9Y-33.78
X26.9Y-38.86
X26.9Y-47.115
X26.9Y-55.37
X26.9Y-60.45
X26.9Y-68.705
X26.9Y-73.785
X29.44Y-16.0
X29.44Y-20.445
X29.44Y-25.525
X29.44Y-29.335
X29.44Y-33.78
X29.44Y-38.86
X29.44Y-42.67
X29.44Y-47.115
X29.44Y-50.925
X29.44Y-55.37
X29.44Y-60.45
X29.44Y-64.26
X29.44Y-68.705
X29.44Y-73.785
X32.04Y-16.0
X32.04Y-19.81
X32.04Y-24.89
X32.04Y-29.335
X32.04Y-33.145
X32.04Y-38.225
X32.04Y-42.67
X32.04Y-46.48
X32.04Y-50.925
X32.04Y-54.735
X32.04Y-59.815
X32.04Y-64.26
X32.04Y-68.07
X32.04Y-73.15
X34.58Y-19.81
X34.58Y-24.89
X34.58Y-33.145
X34.58Y-38.225
X34.58Y-46.48
X34.58Y-54.735
X34.58Y-59.815
X34.58Y-68.07
X34.58Y-73.15
X37.12Y-16.0
X37.12Y-19.81
X37.12Y-24.89
X37.12Y-29.335
X37.12Y-33.145
X37.12Y-38.225
X37.12Y-42.67
X37.12Y-46.48
X37.12Y-50.925
X37.12Y-54.735
X37.12Y-59.815
X37.12Y-64.26
X37.12Y-68.07
X37.12Y-73.15
X39.72Y-16.0
X39.72Y-20.445
X39.72Y-25.525
X39.72Y-29.335
X39.72Y-33.78
X39.72Y-38.86
X39.72Y-42.67
X39.72Y-47.115
X39.72Y-50.925
X39.72Y-55.37
X39.72Y-60.45
X39.72Y-64.26
X39.72Y-68.705
X39.72Y-73.785
X42.26Y-20.445
X42.26Y-25.525
X42.26Y-33.78
X42.26Y-38.86
X42.26Y-47.115
X42.26Y-55.37
X42.26Y-60.45
X42.26Y-68.705
X42.26Y-73.785
X44.8Y-16.0
X44.8Y-20.445
X44.8Y-25.525
X44.8Y-29.335
X44.8Y-33.78
X44.8Y-38.86
X44.8Y-42.67
X44.8Y-47.115
X44.8Y-50.925
X44.8Y-55.37
X44.8Y-60.45
X44.8Y-64.26
X44.8Y-68.705
X44.8Y-73.785
X47.4Y-16.0
X47.4Y-19.81
X47.4Y-24.89
X47.4Y-29.335
X47.4Y-33.145
X47.4Y-38.225
X47.4Y-42.67
X47.4Y-46.48
X47.4Y-50.925
X47.4Y-54.735
X47.4Y-59.18
X47.4Y-62.99
X47.4Y-67.435
X47.4Y-71.245
X49.94Y-19.81
X49.94Y-24.89
X49.94Y-33.145
X49.94Y-38.225
X49.94Y-46.48
X49.94Y-54.735
X49.94Y-62.99
X49.94Y-71.245
X52.48Y-16.0
X52.48Y-19.81
X52.48Y-24.89
X52.48Y-29.335
X52.48Y-33.145
X52.48Y-38.225
X52.48Y-42.67
X52.48Y-46.48
X52.48Y-50.925
X52.48Y-54.735
X52.48Y-59.18
X52.48Y-62.99
X52.48Y-67.435
X52.48Y-71.245
X55.08Y-16.0
X55.08Y-20.445
X55.08Y-25.525
X55.08Y-29.335
X55.08Y-33.78
X55.08Y-37.59
X55.08Y-48.385
X55.08Y-52.83
X55.08Y-63.625
X55.08Y-68.07
X55.08Y-78.865
X57.62Y-20.445
X57.62Y-25.525
X57.62Y-33.78
X57.62Y-48.385
X57.62Y-63.625
X57.62Y-78.865
X60.16Y-16.0
X60.16Y-20.445
X60.16Y-25.525
X60.16Y-29.335
X60.16Y-33.78
X60.16Y-37.59
X60.16Y-48.385
X60.16Y-52.83
X60.16Y-63.625
X60.16Y-68.07
X60.16Y-78.865
X62.76Y-16.0
X62.76Y-26.795
X65.3Y-26.795
X67.84Y-16.0
X67.84Y-26.795
X95.0Y-16.5
X95.0Y-19.0
X95.0Y-26.0
X95.0Y-28.0
T3
X57.62Y-41.4
X57.62Y-43.94
X57.62Y-56.64
X57.62Y-59.18
X57.62Y-71.88
X57.62Y-74.42
X65.3Y-19.81
X65.3Y-22.35
T4
X10.63Y-4.96
X10.63Y-7.5
X13.17Y-4.96
X13.17Y-7.5
X15.71Y-4.96
X15.71Y-7.5
X18.25Y-4.96
X18.25Y-7.5
X20.79Y-4.96
X20.79Y-7.5
X23.33Y-4.96
X23.33Y-7.5
X25.87Y-4.96
X25.87Y-7.5
X28.41Y-4.96
X28.41Y-7.5
X30.95Y-4.96
X30.95Y-7.5
X33.49Y-4.96
X33.49Y-7.5
X36.03Y-4.96
X36.03Y-7.5
X38.57Y-4.96
X38.57Y-7.5
X40.0Y-92.46
X40.0Y-95.0
X41.11Y-4.96
X41.11Y-7.5
X42.54Y-92.46
X42.54Y-95.0
X43.65Y-4.96
X43.65Y-7.5
X45.08Y-92.46
X45.08Y-95.0
X46.19Y-4.96
X46.19Y-7.5
X47.62Y-92.46
X47.62Y-95.0
X48.73Y-4.96
X48.73Y-7.5
X50.16Y-92.46
X50.16Y-95.0
X51.27Y-4.96
X51.27Y-7.5
X52.7Y-92.46
X52.7Y-95.0
X53.81Y-4.96
X53.81Y-7.5
X56.35Y-4.96
X56.35Y-7.5
X58.89Y-4.96
X58.89Y-7.5
X61.43Y-4.96
X61.43Y-7.5
X63.97Y-4.96
X63.97Y-7.5
X66.51Y-4.96
X66.51Y-7.5
X69.05Y-4.96
X69.05Y-7.5
X71.59Y-4.96
X71.59Y-7.5
X74.13Y-4.96
X74.13Y-7.5
X76.67Y-4.96
X76.67Y-7.5
X79.21Y-4.96
X79.21Y-7.5
X81.75Y-4.96
X81.75Y-7.5
X84.29Y-4.96
X84.29Y-7.5
X86.83Y-4.96
X86.83Y-7.5
X89.37Y-4.96
X89.37Y-7.5
T5
X4.0Y-50.0
X96.0Y-50.0
M30
