%TF.GenerationSoftware,KiCad,Pcbnew,10.0.5*%
%TF.CreationDate,2026-09-23T11:26:45-04:00*%
%TF.ProjectId,memctl,6d656d63-746c-42e6-9b69-6361645f7063,rev?*%
%TF.SameCoordinates,Original*%
%TF.FileFunction,Copper,L1,Top*%
%TF.FilePolarity,Positive*%
%FSLAX46Y46*%
G04 Gerber Fmt 4.6, Leading zero omitted, Abs format (unit mm)*
G04 Created by KiCad (PCBNEW 10.0.5) date 2026-09-23 11:26:45*
%MOMM*%
%LPD*%
G01*
G04 APERTURE LIST*
G04 Aperture macros list*
%AMRoundRect*
0 Rectangle with rounded corners*
0 $1 Rounding radius*
0 $2 $3 $4 $5 $6 $7 $8 $9 X,Y pos of 4 corners*
0 Add a 4 corners polygon primitive as box body*
4,1,4,$2,$3,$4,$5,$6,$7,$8,$9,$2,$3,0*
0 Add four circle primitives for the rounded corners*
1,1,$1+$1,$2,$3*
1,1,$1+$1,$4,$5*
1,1,$1+$1,$6,$7*
1,1,$1+$1,$8,$9*
0 Add four rect primitives between the rounded corners*
20,1,$1+$1,$2,$3,$4,$5,0*
20,1,$1+$1,$4,$5,$6,$7,0*
20,1,$1+$1,$6,$7,$8,$9,0*
20,1,$1+$1,$8,$9,$2,$3,0*%
G04 Aperture macros list end*
%TA.AperFunction,ComponentPad*%
%ADD10R,1.500000X1.500000*%
%TD*%
%TA.AperFunction,ComponentPad*%
%ADD11C,1.500000*%
%TD*%
%TA.AperFunction,ComponentPad*%
%ADD12RoundRect,0.250000X0.600000X-0.600000X0.600000X0.600000X-0.600000X0.600000X-0.600000X-0.600000X0*%
%TD*%
%TA.AperFunction,ComponentPad*%
%ADD13C,1.700000*%
%TD*%
%TA.AperFunction,ComponentPad*%
%ADD14C,1.600000*%
%TD*%
%TA.AperFunction,ComponentPad*%
%ADD15R,1.800000X1.800000*%
%TD*%
%TA.AperFunction,ComponentPad*%
%ADD16C,1.800000*%
%TD*%
%TA.AperFunction,ComponentPad*%
%ADD17C,6.400000*%
%TD*%
%TA.AperFunction,ComponentPad*%
%ADD18RoundRect,0.250000X-0.550000X0.550000X-0.550000X-0.550000X0.550000X-0.550000X0.550000X0.550000X0*%
%TD*%
%TA.AperFunction,ViaPad*%
%ADD19C,0.800000*%
%TD*%
%TA.AperFunction,Conductor*%
%ADD20C,0.500000*%
%TD*%
%TA.AperFunction,Conductor*%
%ADD21C,0.800000*%
%TD*%
%TA.AperFunction,Conductor*%
%ADD22C,0.200000*%
%TD*%
G04 APERTURE END LIST*
D10*
%TO.P,Q38,1*%
%TO.N,GND*%
X39720000Y-33780000D03*
D11*
%TO.P,Q38,2*%
%TO.N,D3*%
X42260000Y-33780000D03*
%TO.P,Q38,3*%
%TO.N,MAR3_dn*%
X44800000Y-33780000D03*
%TD*%
D10*
%TO.P,Q15,1*%
%TO.N,GND*%
X21760000Y-54735000D03*
D11*
%TO.P,Q15,2*%
%TO.N,MAR0_dn*%
X19220000Y-54735000D03*
%TO.P,Q15,3*%
%TO.N,Net-(Q14-S)*%
X16680000Y-54735000D03*
%TD*%
D12*
%TO.P,J1,1*%
%TO.N,+5V*%
X10630000Y-7500000D03*
D13*
%TO.P,J1,2*%
X10630000Y-4960000D03*
%TO.P,J1,3*%
%TO.N,GND*%
X13170000Y-7500000D03*
%TO.P,J1,4*%
X13170000Y-4960000D03*
%TO.P,J1,5*%
%TO.N,CLK*%
X15710000Y-7500000D03*
%TO.P,J1,6*%
%TO.N,GND*%
X15710000Y-4960000D03*
%TO.P,J1,7*%
%TO.N,unconnected-(J1-Pin_7-Pad7)*%
X18250000Y-7500000D03*
%TO.P,J1,8*%
%TO.N,GND*%
X18250000Y-4960000D03*
%TO.P,J1,9*%
%TO.N,BUS0#*%
X20790000Y-7500000D03*
%TO.P,J1,10*%
%TO.N,BUS1#*%
X20790000Y-4960000D03*
%TO.P,J1,11*%
%TO.N,BUS2#*%
X23330000Y-7500000D03*
%TO.P,J1,12*%
%TO.N,BUS3#*%
X23330000Y-4960000D03*
%TO.P,J1,13*%
%TO.N,unconnected-(J1-Pin_13-Pad13)*%
X25870000Y-7500000D03*
%TO.P,J1,14*%
%TO.N,unconnected-(J1-Pin_14-Pad14)*%
X25870000Y-4960000D03*
%TO.P,J1,15*%
%TO.N,unconnected-(J1-Pin_15-Pad15)*%
X28410000Y-7500000D03*
%TO.P,J1,16*%
%TO.N,unconnected-(J1-Pin_16-Pad16)*%
X28410000Y-4960000D03*
%TO.P,J1,17*%
%TO.N,unconnected-(J1-Pin_17-Pad17)*%
X30950000Y-7500000D03*
%TO.P,J1,18*%
%TO.N,unconnected-(J1-Pin_18-Pad18)*%
X30950000Y-4960000D03*
%TO.P,J1,19*%
%TO.N,unconnected-(J1-Pin_19-Pad19)*%
X33490000Y-7500000D03*
%TO.P,J1,20*%
%TO.N,unconnected-(J1-Pin_20-Pad20)*%
X33490000Y-4960000D03*
%TO.P,J1,21*%
%TO.N,unconnected-(J1-Pin_21-Pad21)*%
X36030000Y-7500000D03*
%TO.P,J1,22*%
%TO.N,unconnected-(J1-Pin_22-Pad22)*%
X36030000Y-4960000D03*
%TO.P,J1,23*%
%TO.N,unconnected-(J1-Pin_23-Pad23)*%
X38570000Y-7500000D03*
%TO.P,J1,24*%
%TO.N,unconnected-(J1-Pin_24-Pad24)*%
X38570000Y-4960000D03*
%TO.P,J1,25*%
%TO.N,unconnected-(J1-Pin_25-Pad25)*%
X41110000Y-7500000D03*
%TO.P,J1,26*%
%TO.N,unconnected-(J1-Pin_26-Pad26)*%
X41110000Y-4960000D03*
%TO.P,J1,27*%
%TO.N,unconnected-(J1-Pin_27-Pad27)*%
X43650000Y-7500000D03*
%TO.P,J1,28*%
%TO.N,unconnected-(J1-Pin_28-Pad28)*%
X43650000Y-4960000D03*
%TO.P,J1,29*%
%TO.N,unconnected-(J1-Pin_29-Pad29)*%
X46190000Y-7500000D03*
%TO.P,J1,30*%
%TO.N,unconnected-(J1-Pin_30-Pad30)*%
X46190000Y-4960000D03*
%TO.P,J1,31*%
%TO.N,unconnected-(J1-Pin_31-Pad31)*%
X48730000Y-7500000D03*
%TO.P,J1,32*%
%TO.N,unconnected-(J1-Pin_32-Pad32)*%
X48730000Y-4960000D03*
%TO.P,J1,33*%
%TO.N,unconnected-(J1-Pin_33-Pad33)*%
X51270000Y-7500000D03*
%TO.P,J1,34*%
%TO.N,unconnected-(J1-Pin_34-Pad34)*%
X51270000Y-4960000D03*
%TO.P,J1,35*%
%TO.N,unconnected-(J1-Pin_35-Pad35)*%
X53810000Y-7500000D03*
%TO.P,J1,36*%
%TO.N,unconnected-(J1-Pin_36-Pad36)*%
X53810000Y-4960000D03*
%TO.P,J1,37*%
%TO.N,unconnected-(J1-Pin_37-Pad37)*%
X56350000Y-7500000D03*
%TO.P,J1,38*%
%TO.N,unconnected-(J1-Pin_38-Pad38)*%
X56350000Y-4960000D03*
%TO.P,J1,39*%
%TO.N,unconnected-(J1-Pin_39-Pad39)*%
X58890000Y-7500000D03*
%TO.P,J1,40*%
%TO.N,unconnected-(J1-Pin_40-Pad40)*%
X58890000Y-4960000D03*
%TO.P,J1,41*%
%TO.N,unconnected-(J1-Pin_41-Pad41)*%
X61430000Y-7500000D03*
%TO.P,J1,42*%
%TO.N,unconnected-(J1-Pin_42-Pad42)*%
X61430000Y-4960000D03*
%TO.P,J1,43*%
%TO.N,unconnected-(J1-Pin_43-Pad43)*%
X63970000Y-7500000D03*
%TO.P,J1,44*%
%TO.N,unconnected-(J1-Pin_44-Pad44)*%
X63970000Y-4960000D03*
%TO.P,J1,45*%
%TO.N,unconnected-(J1-Pin_45-Pad45)*%
X66510000Y-7500000D03*
%TO.P,J1,46*%
%TO.N,unconnected-(J1-Pin_46-Pad46)*%
X66510000Y-4960000D03*
%TO.P,J1,47*%
%TO.N,unconnected-(J1-Pin_47-Pad47)*%
X69050000Y-7500000D03*
%TO.P,J1,48*%
%TO.N,unconnected-(J1-Pin_48-Pad48)*%
X69050000Y-4960000D03*
%TO.P,J1,49*%
%TO.N,unconnected-(J1-Pin_49-Pad49)*%
X71590000Y-7500000D03*
%TO.P,J1,50*%
%TO.N,unconnected-(J1-Pin_50-Pad50)*%
X71590000Y-4960000D03*
%TO.P,J1,51*%
%TO.N,unconnected-(J1-Pin_51-Pad51)*%
X74130000Y-7500000D03*
%TO.P,J1,52*%
%TO.N,unconnected-(J1-Pin_52-Pad52)*%
X74130000Y-4960000D03*
%TO.P,J1,53*%
%TO.N,unconnected-(J1-Pin_53-Pad53)*%
X76670000Y-7500000D03*
%TO.P,J1,54*%
%TO.N,MAI*%
X76670000Y-4960000D03*
%TO.P,J1,55*%
%TO.N,MI*%
X79210000Y-7500000D03*
%TO.P,J1,56*%
%TO.N,MO*%
X79210000Y-4960000D03*
%TO.P,J1,57*%
%TO.N,unconnected-(J1-Pin_57-Pad57)*%
X81750000Y-7500000D03*
%TO.P,J1,58*%
%TO.N,unconnected-(J1-Pin_58-Pad58)*%
X81750000Y-4960000D03*
%TO.P,J1,59*%
%TO.N,unconnected-(J1-Pin_59-Pad59)*%
X84290000Y-7500000D03*
%TO.P,J1,60*%
%TO.N,unconnected-(J1-Pin_60-Pad60)*%
X84290000Y-4960000D03*
%TO.P,J1,61*%
%TO.N,unconnected-(J1-Pin_61-Pad61)*%
X86830000Y-7500000D03*
%TO.P,J1,62*%
%TO.N,unconnected-(J1-Pin_62-Pad62)*%
X86830000Y-4960000D03*
%TO.P,J1,63*%
%TO.N,+5V*%
X89370000Y-7500000D03*
%TO.P,J1,64*%
%TO.N,GND*%
X89370000Y-4960000D03*
%TD*%
D10*
%TO.P,Q55,1*%
%TO.N,GND*%
X55080000Y-42035000D03*
D11*
%TO.P,Q55,2*%
%TO.N,MAR2*%
X57620000Y-42035000D03*
%TO.P,Q55,3*%
%TO.N,Net-(D2-K)*%
X60160000Y-42035000D03*
%TD*%
D10*
%TO.P,Q31,1*%
%TO.N,GND*%
X37120000Y-46480000D03*
D11*
%TO.P,Q31,2*%
%TO.N,ENM*%
X34580000Y-46480000D03*
%TO.P,Q31,3*%
%TO.N,Net-(Q30-S)*%
X32040000Y-46480000D03*
%TD*%
D10*
%TO.P,Q44,1*%
%TO.N,GND*%
X39720000Y-73785000D03*
D11*
%TO.P,Q44,2*%
%TO.N,MAR3_qn*%
X42260000Y-73785000D03*
%TO.P,Q44,3*%
%TO.N,Net-(Q43-S)*%
X44800000Y-73785000D03*
%TD*%
D14*
%TO.P,C1,1*%
%TO.N,+5V*%
X95000000Y-16500000D03*
%TO.P,C1,2*%
%TO.N,GND*%
X95000000Y-19000000D03*
%TD*%
D10*
%TO.P,Q49,1*%
%TO.N,GND*%
X52480000Y-49655000D03*
D11*
%TO.P,Q49,2*%
%TO.N,MAR2*%
X49940000Y-49655000D03*
%TO.P,Q49,3*%
%TO.N,MAR2N*%
X47400000Y-49655000D03*
%TD*%
D10*
%TO.P,Q46,1*%
%TO.N,GND*%
X52480000Y-24890000D03*
D11*
%TO.P,Q46,2*%
%TO.N,MAR3_m2*%
X49940000Y-24890000D03*
%TO.P,Q46,3*%
%TO.N,Net-(Q45-S)*%
X47400000Y-24890000D03*
%TD*%
D10*
%TO.P,Q23,1*%
%TO.N,Net-(Q23-S)*%
X24360000Y-55370000D03*
D11*
%TO.P,Q23,2*%
%TO.N,ENM*%
X26900000Y-55370000D03*
%TO.P,Q23,3*%
%TO.N,MAR1_m2*%
X29440000Y-55370000D03*
%TD*%
D14*
%TO.P,R33,1*%
%TO.N,+5V*%
X47400000Y-62355000D03*
%TO.P,R33,2*%
%TO.N,MIN*%
X52480000Y-62355000D03*
%TD*%
D10*
%TO.P,Q14,1*%
%TO.N,Net-(Q14-S)*%
X21760000Y-49655000D03*
D11*
%TO.P,Q14,2*%
%TO.N,ENM*%
X19220000Y-49655000D03*
%TO.P,Q14,3*%
%TO.N,MAR0_m2*%
X16680000Y-49655000D03*
%TD*%
D14*
%TO.P,R29,1*%
%TO.N,+5V*%
X47400000Y-29335000D03*
%TO.P,R29,2*%
%TO.N,MAR0N*%
X52480000Y-29335000D03*
%TD*%
%TO.P,R12,1*%
%TO.N,+5V*%
X16680000Y-59180000D03*
%TO.P,R12,2*%
%TO.N,MAR0*%
X21760000Y-59180000D03*
%TD*%
D15*
%TO.P,D3,1*%
%TO.N,Net-(D3-K)*%
X57620000Y-52830000D03*
D16*
%TO.P,D3,2*%
%TO.N,Net-(D3-A)*%
X57620000Y-50290000D03*
%TD*%
D10*
%TO.P,Q13,1*%
%TO.N,GND*%
X21760000Y-41400000D03*
D11*
%TO.P,Q13,2*%
%TO.N,ENM*%
X19220000Y-41400000D03*
%TO.P,Q13,3*%
%TO.N,Net-(Q12-S)*%
X16680000Y-41400000D03*
%TD*%
D14*
%TO.P,R1,1*%
%TO.N,CLKDN*%
X9000000Y-16000000D03*
%TO.P,R1,2*%
%TO.N,+5V*%
X14080000Y-16000000D03*
%TD*%
D10*
%TO.P,Q50,1*%
%TO.N,GND*%
X52480000Y-57910000D03*
D11*
%TO.P,Q50,2*%
%TO.N,MAR3*%
X49940000Y-57910000D03*
%TO.P,Q50,3*%
%TO.N,MAR3N*%
X47400000Y-57910000D03*
%TD*%
D14*
%TO.P,R37,1*%
%TO.N,Net-(D3-A)*%
X55080000Y-46480000D03*
%TO.P,R37,2*%
%TO.N,+5V*%
X60160000Y-46480000D03*
%TD*%
%TO.P,R26,1*%
%TO.N,MAR3_m2*%
X39720000Y-50925000D03*
%TO.P,R26,2*%
%TO.N,+5V*%
X44800000Y-50925000D03*
%TD*%
D10*
%TO.P,Q47,1*%
%TO.N,GND*%
X52480000Y-33145000D03*
D11*
%TO.P,Q47,2*%
%TO.N,MAR0*%
X49940000Y-33145000D03*
%TO.P,Q47,3*%
%TO.N,MAR0N*%
X47400000Y-33145000D03*
%TD*%
D10*
%TO.P,Q36,1*%
%TO.N,Net-(Q36-S)*%
X39720000Y-20445000D03*
D11*
%TO.P,Q36,2*%
%TO.N,MAR2*%
X42260000Y-20445000D03*
%TO.P,Q36,3*%
%TO.N,MAR2_qn*%
X44800000Y-20445000D03*
%TD*%
D14*
%TO.P,R28,1*%
%TO.N,+5V*%
X47400000Y-16000000D03*
%TO.P,R28,2*%
%TO.N,MAR3_qn*%
X52480000Y-16000000D03*
%TD*%
D10*
%TO.P,Q4,1*%
%TO.N,GND*%
X9000000Y-42035000D03*
D11*
%TO.P,Q4,2*%
%TO.N,BUS0#*%
X11540000Y-42035000D03*
%TO.P,Q4,3*%
%TO.N,D0*%
X14080000Y-42035000D03*
%TD*%
D14*
%TO.P,R8,1*%
%TO.N,+5V*%
X16680000Y-16000000D03*
%TO.P,R8,2*%
%TO.N,ENM*%
X21760000Y-16000000D03*
%TD*%
D10*
%TO.P,Q22,1*%
%TO.N,GND*%
X24360000Y-47115000D03*
D11*
%TO.P,Q22,2*%
%TO.N,ENM*%
X26900000Y-47115000D03*
%TO.P,Q22,3*%
%TO.N,Net-(Q21-S)*%
X29440000Y-47115000D03*
%TD*%
D14*
%TO.P,C3,1*%
%TO.N,CLKD*%
X86000000Y-64000000D03*
%TO.P,C3,2*%
%TO.N,GND*%
X86000000Y-66500000D03*
%TD*%
D10*
%TO.P,Q21,1*%
%TO.N,Net-(Q21-S)*%
X24360000Y-42035000D03*
D11*
%TO.P,Q21,2*%
%TO.N,D1*%
X26900000Y-42035000D03*
%TO.P,Q21,3*%
%TO.N,MAR1_m1*%
X29440000Y-42035000D03*
%TD*%
D17*
%TO.P,H2,1*%
%TO.N,N/C*%
X96000000Y-50000000D03*
%TD*%
D10*
%TO.P,Q26,1*%
%TO.N,GND*%
X24360000Y-73785000D03*
D11*
%TO.P,Q26,2*%
%TO.N,MAR1_qn*%
X26900000Y-73785000D03*
%TO.P,Q26,3*%
%TO.N,Net-(Q25-S)*%
X29440000Y-73785000D03*
%TD*%
D10*
%TO.P,Q30,1*%
%TO.N,Net-(Q30-S)*%
X37120000Y-41400000D03*
D11*
%TO.P,Q30,2*%
%TO.N,D2*%
X34580000Y-41400000D03*
%TO.P,Q30,3*%
%TO.N,MAR2_m1*%
X32040000Y-41400000D03*
%TD*%
D18*
%TO.P,C2,1*%
%TO.N,+5V*%
X95000000Y-26000000D03*
D14*
%TO.P,C2,2*%
%TO.N,GND*%
X95000000Y-28000000D03*
%TD*%
%TO.P,R14,1*%
%TO.N,MAR1_dn*%
X24360000Y-29335000D03*
%TO.P,R14,2*%
%TO.N,+5V*%
X29440000Y-29335000D03*
%TD*%
%TO.P,R18,1*%
%TO.N,+5V*%
X32040000Y-16000000D03*
%TO.P,R18,2*%
%TO.N,MAR1_qn*%
X37120000Y-16000000D03*
%TD*%
%TO.P,R17,1*%
%TO.N,MAR1*%
X24360000Y-64260000D03*
%TO.P,R17,2*%
%TO.N,+5V*%
X29440000Y-64260000D03*
%TD*%
%TO.P,R39,1*%
%TO.N,CLK*%
X80000000Y-64000000D03*
%TO.P,R39,2*%
%TO.N,CLKD*%
X80000000Y-69080000D03*
%TD*%
D10*
%TO.P,Q45,1*%
%TO.N,Net-(Q45-S)*%
X52480000Y-19810000D03*
D11*
%TO.P,Q45,2*%
%TO.N,MAR3*%
X49940000Y-19810000D03*
%TO.P,Q45,3*%
%TO.N,MAR3_qn*%
X47400000Y-19810000D03*
%TD*%
D14*
%TO.P,R19,1*%
%TO.N,+5V*%
X32040000Y-29335000D03*
%TO.P,R19,2*%
%TO.N,MAR2_dn*%
X37120000Y-29335000D03*
%TD*%
D17*
%TO.P,H1,1*%
%TO.N,N/C*%
X4000000Y-50000000D03*
%TD*%
D14*
%TO.P,R38,1*%
%TO.N,Net-(D4-A)*%
X55080000Y-61720000D03*
%TO.P,R38,2*%
%TO.N,+5V*%
X60160000Y-61720000D03*
%TD*%
D10*
%TO.P,Q42,1*%
%TO.N,GND*%
X39720000Y-60450000D03*
D11*
%TO.P,Q42,2*%
%TO.N,MAR3_dn*%
X42260000Y-60450000D03*
%TO.P,Q42,3*%
%TO.N,Net-(Q41-S)*%
X44800000Y-60450000D03*
%TD*%
D10*
%TO.P,Q7,1*%
%TO.N,GND*%
X9000000Y-66800000D03*
D11*
%TO.P,Q7,2*%
%TO.N,BUS3#*%
X11540000Y-66800000D03*
%TO.P,Q7,3*%
%TO.N,D3*%
X14080000Y-66800000D03*
%TD*%
D14*
%TO.P,R24,1*%
%TO.N,MAR3_dn*%
X39720000Y-29335000D03*
%TO.P,R24,2*%
%TO.N,+5V*%
X44800000Y-29335000D03*
%TD*%
D10*
%TO.P,Q24,1*%
%TO.N,GND*%
X24360000Y-60450000D03*
D11*
%TO.P,Q24,2*%
%TO.N,MAR1_dn*%
X26900000Y-60450000D03*
%TO.P,Q24,3*%
%TO.N,Net-(Q23-S)*%
X29440000Y-60450000D03*
%TD*%
D10*
%TO.P,Q12,1*%
%TO.N,Net-(Q12-S)*%
X21760000Y-36320000D03*
D11*
%TO.P,Q12,2*%
%TO.N,D0*%
X19220000Y-36320000D03*
%TO.P,Q12,3*%
%TO.N,MAR0_m1*%
X16680000Y-36320000D03*
%TD*%
D14*
%TO.P,R20,1*%
%TO.N,+5V*%
X32040000Y-37590000D03*
%TO.P,R20,2*%
%TO.N,MAR2_m1*%
X37120000Y-37590000D03*
%TD*%
%TO.P,R22,1*%
%TO.N,+5V*%
X32040000Y-64260000D03*
%TO.P,R22,2*%
%TO.N,MAR2*%
X37120000Y-64260000D03*
%TD*%
%TO.P,R36,1*%
%TO.N,Net-(D2-A)*%
X55080000Y-31240000D03*
%TO.P,R36,2*%
%TO.N,+5V*%
X60160000Y-31240000D03*
%TD*%
%TO.P,R4,1*%
%TO.N,D1*%
X9000000Y-45845000D03*
%TO.P,R4,2*%
%TO.N,+5V*%
X14080000Y-45845000D03*
%TD*%
D10*
%TO.P,Q53,1*%
%TO.N,GND*%
X52480000Y-79500000D03*
D11*
%TO.P,Q53,2*%
%TO.N,MO*%
X49940000Y-79500000D03*
%TO.P,Q53,3*%
%TO.N,MON*%
X47400000Y-79500000D03*
%TD*%
D14*
%TO.P,R35,1*%
%TO.N,Net-(D1-A)*%
X55080000Y-16000000D03*
%TO.P,R35,2*%
%TO.N,+5V*%
X60160000Y-16000000D03*
%TD*%
%TO.P,R3,1*%
%TO.N,D0*%
X9000000Y-37590000D03*
%TO.P,R3,2*%
%TO.N,+5V*%
X14080000Y-37590000D03*
%TD*%
%TO.P,R16,1*%
%TO.N,MAR1_m2*%
X24360000Y-50925000D03*
%TO.P,R16,2*%
%TO.N,+5V*%
X29440000Y-50925000D03*
%TD*%
%TO.P,R31,1*%
%TO.N,+5V*%
X47400000Y-45845000D03*
%TO.P,R31,2*%
%TO.N,MAR2N*%
X52480000Y-45845000D03*
%TD*%
D10*
%TO.P,Q28,1*%
%TO.N,GND*%
X37120000Y-24890000D03*
D11*
%TO.P,Q28,2*%
%TO.N,MAR1_m2*%
X34580000Y-24890000D03*
%TO.P,Q28,3*%
%TO.N,Net-(Q27-S)*%
X32040000Y-24890000D03*
%TD*%
D10*
%TO.P,Q39,1*%
%TO.N,Net-(Q39-S)*%
X39720000Y-42035000D03*
D11*
%TO.P,Q39,2*%
%TO.N,D3*%
X42260000Y-42035000D03*
%TO.P,Q39,3*%
%TO.N,MAR3_m1*%
X44800000Y-42035000D03*
%TD*%
D14*
%TO.P,R32,1*%
%TO.N,+5V*%
X47400000Y-54100000D03*
%TO.P,R32,2*%
%TO.N,MAR3N*%
X52480000Y-54100000D03*
%TD*%
%TO.P,R27,1*%
%TO.N,MAR3*%
X39720000Y-64260000D03*
%TO.P,R27,2*%
%TO.N,+5V*%
X44800000Y-64260000D03*
%TD*%
%TO.P,R6,1*%
%TO.N,D3*%
X9000000Y-62355000D03*
%TO.P,R6,2*%
%TO.N,+5V*%
X14080000Y-62355000D03*
%TD*%
D10*
%TO.P,Q16,1*%
%TO.N,Net-(Q16-S)*%
X21760000Y-62990000D03*
D11*
%TO.P,Q16,2*%
%TO.N,MAR0_m1*%
X19220000Y-62990000D03*
%TO.P,Q16,3*%
%TO.N,MAR0*%
X16680000Y-62990000D03*
%TD*%
D10*
%TO.P,Q10,1*%
%TO.N,GND*%
X21760000Y-19810000D03*
D11*
%TO.P,Q10,2*%
%TO.N,ENMN*%
X19220000Y-19810000D03*
%TO.P,Q10,3*%
%TO.N,ENM*%
X16680000Y-19810000D03*
%TD*%
D10*
%TO.P,Q35,1*%
%TO.N,GND*%
X37120000Y-73150000D03*
D11*
%TO.P,Q35,2*%
%TO.N,MAR2_qn*%
X34580000Y-73150000D03*
%TO.P,Q35,3*%
%TO.N,Net-(Q34-S)*%
X32040000Y-73150000D03*
%TD*%
D14*
%TO.P,R11,1*%
%TO.N,+5V*%
X16680000Y-45845000D03*
%TO.P,R11,2*%
%TO.N,MAR0_m2*%
X21760000Y-45845000D03*
%TD*%
%TO.P,R15,1*%
%TO.N,MAR1_m1*%
X24360000Y-37590000D03*
%TO.P,R15,2*%
%TO.N,+5V*%
X29440000Y-37590000D03*
%TD*%
D10*
%TO.P,Q57,1*%
%TO.N,GND*%
X55080000Y-72515000D03*
D11*
%TO.P,Q57,2*%
%TO.N,MAR0*%
X57620000Y-72515000D03*
%TO.P,Q57,3*%
%TO.N,Net-(D4-K)*%
X60160000Y-72515000D03*
%TD*%
D14*
%TO.P,R2,1*%
%TO.N,MPH*%
X9000000Y-24255000D03*
%TO.P,R2,2*%
%TO.N,+5V*%
X14080000Y-24255000D03*
%TD*%
D10*
%TO.P,Q11,1*%
%TO.N,GND*%
X21760000Y-28065000D03*
D11*
%TO.P,Q11,2*%
%TO.N,D0*%
X19220000Y-28065000D03*
%TO.P,Q11,3*%
%TO.N,MAR0_dn*%
X16680000Y-28065000D03*
%TD*%
D10*
%TO.P,Q32,1*%
%TO.N,Net-(Q32-S)*%
X37120000Y-54735000D03*
D11*
%TO.P,Q32,2*%
%TO.N,ENM*%
X34580000Y-54735000D03*
%TO.P,Q32,3*%
%TO.N,MAR2_m2*%
X32040000Y-54735000D03*
%TD*%
D10*
%TO.P,Q37,1*%
%TO.N,GND*%
X39720000Y-25525000D03*
D11*
%TO.P,Q37,2*%
%TO.N,MAR2_m2*%
X42260000Y-25525000D03*
%TO.P,Q37,3*%
%TO.N,Net-(Q36-S)*%
X44800000Y-25525000D03*
%TD*%
D10*
%TO.P,Q52,1*%
%TO.N,GND*%
X52480000Y-71245000D03*
D11*
%TO.P,Q52,2*%
%TO.N,MPH*%
X49940000Y-71245000D03*
%TO.P,Q52,3*%
%TO.N,Net-(Q51-S)*%
X47400000Y-71245000D03*
%TD*%
D15*
%TO.P,D4,1*%
%TO.N,Net-(D4-K)*%
X57620000Y-68070000D03*
D16*
%TO.P,D4,2*%
%TO.N,Net-(D4-A)*%
X57620000Y-65530000D03*
%TD*%
D10*
%TO.P,Q20,1*%
%TO.N,GND*%
X24360000Y-33780000D03*
D11*
%TO.P,Q20,2*%
%TO.N,D1*%
X26900000Y-33780000D03*
%TO.P,Q20,3*%
%TO.N,MAR1_dn*%
X29440000Y-33780000D03*
%TD*%
D10*
%TO.P,Q1,1*%
%TO.N,GND*%
X9000000Y-20445000D03*
D11*
%TO.P,Q1,2*%
%TO.N,CLKD*%
X11540000Y-20445000D03*
%TO.P,Q1,3*%
%TO.N,CLKDN*%
X14080000Y-20445000D03*
%TD*%
D10*
%TO.P,Q5,1*%
%TO.N,GND*%
X9000000Y-50290000D03*
D11*
%TO.P,Q5,2*%
%TO.N,BUS1#*%
X11540000Y-50290000D03*
%TO.P,Q5,3*%
%TO.N,D1*%
X14080000Y-50290000D03*
%TD*%
D14*
%TO.P,R9,1*%
%TO.N,+5V*%
X16680000Y-24255000D03*
%TO.P,R9,2*%
%TO.N,MAR0_dn*%
X21760000Y-24255000D03*
%TD*%
%TO.P,R21,1*%
%TO.N,+5V*%
X32040000Y-50925000D03*
%TO.P,R21,2*%
%TO.N,MAR2_m2*%
X37120000Y-50925000D03*
%TD*%
D10*
%TO.P,Q17,1*%
%TO.N,GND*%
X21760000Y-68070000D03*
D11*
%TO.P,Q17,2*%
%TO.N,MAR0_qn*%
X19220000Y-68070000D03*
%TO.P,Q17,3*%
%TO.N,Net-(Q16-S)*%
X16680000Y-68070000D03*
%TD*%
D10*
%TO.P,Q18,1*%
%TO.N,Net-(Q18-S)*%
X24360000Y-20445000D03*
D11*
%TO.P,Q18,2*%
%TO.N,MAR0*%
X26900000Y-20445000D03*
%TO.P,Q18,3*%
%TO.N,MAR0_qn*%
X29440000Y-20445000D03*
%TD*%
D14*
%TO.P,R25,1*%
%TO.N,MAR3_m1*%
X39720000Y-37590000D03*
%TO.P,R25,2*%
%TO.N,+5V*%
X44800000Y-37590000D03*
%TD*%
D10*
%TO.P,Q19,1*%
%TO.N,GND*%
X24360000Y-25525000D03*
D11*
%TO.P,Q19,2*%
%TO.N,MAR0_m2*%
X26900000Y-25525000D03*
%TO.P,Q19,3*%
%TO.N,Net-(Q18-S)*%
X29440000Y-25525000D03*
%TD*%
D14*
%TO.P,R7,1*%
%TO.N,ENMN*%
X9000000Y-70610000D03*
%TO.P,R7,2*%
%TO.N,+5V*%
X14080000Y-70610000D03*
%TD*%
D10*
%TO.P,Q40,1*%
%TO.N,GND*%
X39720000Y-47115000D03*
D11*
%TO.P,Q40,2*%
%TO.N,ENM*%
X42260000Y-47115000D03*
%TO.P,Q40,3*%
%TO.N,Net-(Q39-S)*%
X44800000Y-47115000D03*
%TD*%
D10*
%TO.P,Q9,1*%
%TO.N,GND*%
X9000000Y-80135000D03*
D11*
%TO.P,Q9,2*%
%TO.N,MPH*%
X11540000Y-80135000D03*
%TO.P,Q9,3*%
%TO.N,Net-(Q8-S)*%
X14080000Y-80135000D03*
%TD*%
D10*
%TO.P,Q56,1*%
%TO.N,GND*%
X55080000Y-57275000D03*
D11*
%TO.P,Q56,2*%
%TO.N,MAR1*%
X57620000Y-57275000D03*
%TO.P,Q56,3*%
%TO.N,Net-(D3-K)*%
X60160000Y-57275000D03*
%TD*%
D10*
%TO.P,Q2,1*%
%TO.N,GND*%
X9000000Y-28700000D03*
D11*
%TO.P,Q2,2*%
%TO.N,CLK*%
X11540000Y-28700000D03*
%TO.P,Q2,3*%
%TO.N,MPH*%
X14080000Y-28700000D03*
%TD*%
D14*
%TO.P,R5,1*%
%TO.N,D2*%
X9000000Y-54100000D03*
%TO.P,R5,2*%
%TO.N,+5V*%
X14080000Y-54100000D03*
%TD*%
%TO.P,R23,1*%
%TO.N,MAR2_qn*%
X39720000Y-16000000D03*
%TO.P,R23,2*%
%TO.N,+5V*%
X44800000Y-16000000D03*
%TD*%
D10*
%TO.P,Q25,1*%
%TO.N,Net-(Q25-S)*%
X24360000Y-68705000D03*
D11*
%TO.P,Q25,2*%
%TO.N,MAR1_m1*%
X26900000Y-68705000D03*
%TO.P,Q25,3*%
%TO.N,MAR1*%
X29440000Y-68705000D03*
%TD*%
D10*
%TO.P,Q34,1*%
%TO.N,Net-(Q34-S)*%
X37120000Y-68070000D03*
D11*
%TO.P,Q34,2*%
%TO.N,MAR2_m1*%
X34580000Y-68070000D03*
%TO.P,Q34,3*%
%TO.N,MAR2*%
X32040000Y-68070000D03*
%TD*%
D14*
%TO.P,R34,1*%
%TO.N,+5V*%
X47400000Y-75690000D03*
%TO.P,R34,2*%
%TO.N,MON*%
X52480000Y-75690000D03*
%TD*%
D10*
%TO.P,Q8,1*%
%TO.N,Net-(Q8-S)*%
X9000000Y-75055000D03*
D11*
%TO.P,Q8,2*%
%TO.N,MAI*%
X11540000Y-75055000D03*
%TO.P,Q8,3*%
%TO.N,ENMN*%
X14080000Y-75055000D03*
%TD*%
D14*
%TO.P,R10,1*%
%TO.N,+5V*%
X16680000Y-32510000D03*
%TO.P,R10,2*%
%TO.N,MAR0_m1*%
X21760000Y-32510000D03*
%TD*%
D10*
%TO.P,Q43,1*%
%TO.N,Net-(Q43-S)*%
X39720000Y-68705000D03*
D11*
%TO.P,Q43,2*%
%TO.N,MAR3_m1*%
X42260000Y-68705000D03*
%TO.P,Q43,3*%
%TO.N,MAR3*%
X44800000Y-68705000D03*
%TD*%
D12*
%TO.P,J2,1*%
%TO.N,MAR0*%
X40000000Y-95000000D03*
D13*
%TO.P,J2,2*%
%TO.N,MAR0N*%
X40000000Y-92460000D03*
%TO.P,J2,3*%
%TO.N,MAR1*%
X42540000Y-95000000D03*
%TO.P,J2,4*%
%TO.N,MAR1N*%
X42540000Y-92460000D03*
%TO.P,J2,5*%
%TO.N,MAR2*%
X45080000Y-95000000D03*
%TO.P,J2,6*%
%TO.N,MAR2N*%
X45080000Y-92460000D03*
%TO.P,J2,7*%
%TO.N,MAR3*%
X47620000Y-95000000D03*
%TO.P,J2,8*%
%TO.N,MAR3N*%
X47620000Y-92460000D03*
%TO.P,J2,9*%
%TO.N,MIN*%
X50160000Y-95000000D03*
%TO.P,J2,10*%
%TO.N,MON*%
X50160000Y-92460000D03*
%TO.P,J2,11*%
%TO.N,GND*%
X52700000Y-95000000D03*
%TO.P,J2,12*%
X52700000Y-92460000D03*
%TD*%
D10*
%TO.P,Q27,1*%
%TO.N,Net-(Q27-S)*%
X37120000Y-19810000D03*
D11*
%TO.P,Q27,2*%
%TO.N,MAR1*%
X34580000Y-19810000D03*
%TO.P,Q27,3*%
%TO.N,MAR1_qn*%
X32040000Y-19810000D03*
%TD*%
D15*
%TO.P,D2,1*%
%TO.N,Net-(D2-K)*%
X57620000Y-37590000D03*
D16*
%TO.P,D2,2*%
%TO.N,Net-(D2-A)*%
X57620000Y-35050000D03*
%TD*%
D10*
%TO.P,Q51,1*%
%TO.N,Net-(Q51-S)*%
X52480000Y-66165000D03*
D11*
%TO.P,Q51,2*%
%TO.N,MI*%
X49940000Y-66165000D03*
%TO.P,Q51,3*%
%TO.N,MIN*%
X47400000Y-66165000D03*
%TD*%
D10*
%TO.P,Q3,1*%
%TO.N,GND*%
X9000000Y-33780000D03*
D11*
%TO.P,Q3,2*%
%TO.N,CLKDN*%
X11540000Y-33780000D03*
%TO.P,Q3,3*%
%TO.N,MPH*%
X14080000Y-33780000D03*
%TD*%
D10*
%TO.P,Q54,1*%
%TO.N,GND*%
X55080000Y-26795000D03*
D11*
%TO.P,Q54,2*%
%TO.N,MAR3*%
X57620000Y-26795000D03*
%TO.P,Q54,3*%
%TO.N,Net-(D1-K)*%
X60160000Y-26795000D03*
%TD*%
D10*
%TO.P,Q29,1*%
%TO.N,GND*%
X37120000Y-33145000D03*
D11*
%TO.P,Q29,2*%
%TO.N,D2*%
X34580000Y-33145000D03*
%TO.P,Q29,3*%
%TO.N,MAR2_dn*%
X32040000Y-33145000D03*
%TD*%
D14*
%TO.P,R13,1*%
%TO.N,MAR0_qn*%
X24360000Y-16000000D03*
%TO.P,R13,2*%
%TO.N,+5V*%
X29440000Y-16000000D03*
%TD*%
D10*
%TO.P,Q41,1*%
%TO.N,Net-(Q41-S)*%
X39720000Y-55370000D03*
D11*
%TO.P,Q41,2*%
%TO.N,ENM*%
X42260000Y-55370000D03*
%TO.P,Q41,3*%
%TO.N,MAR3_m2*%
X44800000Y-55370000D03*
%TD*%
D14*
%TO.P,R30,1*%
%TO.N,+5V*%
X47400000Y-37590000D03*
%TO.P,R30,2*%
%TO.N,MAR1N*%
X52480000Y-37590000D03*
%TD*%
D15*
%TO.P,D1,1*%
%TO.N,Net-(D1-K)*%
X57620000Y-22350000D03*
D16*
%TO.P,D1,2*%
%TO.N,Net-(D1-A)*%
X57620000Y-19810000D03*
%TD*%
D10*
%TO.P,Q6,1*%
%TO.N,GND*%
X9000000Y-58545000D03*
D11*
%TO.P,Q6,2*%
%TO.N,BUS2#*%
X11540000Y-58545000D03*
%TO.P,Q6,3*%
%TO.N,D2*%
X14080000Y-58545000D03*
%TD*%
D10*
%TO.P,Q33,1*%
%TO.N,GND*%
X37120000Y-59815000D03*
D11*
%TO.P,Q33,2*%
%TO.N,MAR2_dn*%
X34580000Y-59815000D03*
%TO.P,Q33,3*%
%TO.N,Net-(Q32-S)*%
X32040000Y-59815000D03*
%TD*%
D10*
%TO.P,Q48,1*%
%TO.N,GND*%
X52480000Y-41400000D03*
D11*
%TO.P,Q48,2*%
%TO.N,MAR1*%
X49940000Y-41400000D03*
%TO.P,Q48,3*%
%TO.N,MAR1N*%
X47400000Y-41400000D03*
%TD*%
D19*
%TO.N,+5V*%
X30770000Y-14000000D03*
X46130000Y-14000000D03*
X10630000Y-14000000D03*
X61490000Y-14000000D03*
X15410000Y-14000000D03*
X89370000Y-14000000D03*
%TO.N,BUS0#*%
X19985400Y-21940800D03*
%TO.N,BUS1#*%
X6901600Y-43293400D03*
%TO.N,BUS2#*%
X28038400Y-18517000D03*
%TO.N,CLK*%
X77183800Y-12513000D03*
%TO.N,GND*%
X89370000Y-2460000D03*
X95000000Y-30500000D03*
X95000000Y-21500000D03*
X53810000Y-12500000D03*
X52700000Y-89960000D03*
X7730000Y-12500000D03*
X23090000Y-12500000D03*
X52700000Y-97500000D03*
X38450000Y-12500000D03*
X18250000Y-2460000D03*
%TO.N,MAI*%
X65552000Y-42224000D03*
%TO.N,MAR0*%
X21849000Y-56095600D03*
%TO.N,MAR0N*%
X36776700Y-52788600D03*
%TO.N,MAR1_m2*%
X28014200Y-48647500D03*
%TO.N,MAR1_qn*%
X34392200Y-22397500D03*
X34396400Y-64970400D03*
%TO.N,MAR2*%
X49793800Y-56592700D03*
%TO.N,MAR2N*%
X43173500Y-57858100D03*
%TO.N,MAR2_m2*%
X41992400Y-43349800D03*
%TO.N,MAR3_qn*%
X48830400Y-59393400D03*
%TO.N,MI*%
X78031000Y-41234700D03*
%TO.N,Net-(Q21-S)*%
X28675900Y-44143600D03*
%TO.N,Net-(Q23-S)*%
X24443400Y-57477800D03*
%TD*%
%TO.N,+5V*%
D20*
X10630000Y-7500000D02*
X10630000Y-4960000D01*
D21*
X61490000Y-14000000D02*
X98000000Y-14000000D01*
D20*
X98000000Y-26000000D02*
X95000000Y-26000000D01*
X95000000Y-14000000D02*
X95000000Y-16500000D01*
D21*
X15410000Y-14000000D02*
X61490000Y-14000000D01*
X10630000Y-14000000D02*
X15410000Y-14000000D01*
D20*
X98000000Y-14000000D02*
X98000000Y-26000000D01*
%TO.N,BUS0#*%
D22*
X7917200Y-38412200D02*
X7917200Y-37161700D01*
X10992100Y-35744600D02*
X12788000Y-33948700D01*
X15495300Y-27717400D02*
X19985400Y-23227300D01*
X12788000Y-33948700D02*
X12788000Y-32554600D01*
X7917200Y-37161700D02*
X9334300Y-35744600D01*
X9334300Y-35744600D02*
X10992100Y-35744600D01*
X12788000Y-32554600D02*
X15495300Y-29847300D01*
X19985400Y-23227300D02*
X19985400Y-21940800D01*
X11540000Y-42035000D02*
X7917200Y-38412200D01*
X15495300Y-29847300D02*
X15495300Y-27717400D01*
%TO.N,BUS1#*%
X6901600Y-45651600D02*
X6901600Y-43293400D01*
X11540000Y-50290000D02*
X6901600Y-45651600D01*
%TO.N,BUS2#*%
X16504000Y-43054200D02*
X17950100Y-41608100D01*
X22761700Y-37053000D02*
X25033000Y-34781700D01*
X25214300Y-34781700D02*
X25361700Y-34634300D01*
X27405600Y-18517000D02*
X28038400Y-18517000D01*
X25361700Y-34634300D02*
X25361700Y-30922300D01*
X22761700Y-37174300D02*
X22761700Y-37053000D01*
X17950100Y-41608100D02*
X17950100Y-41251600D01*
X6224700Y-46375600D02*
X6224700Y-43011000D01*
X25583100Y-20339500D02*
X27405600Y-18517000D01*
X7449000Y-42628800D02*
X7874400Y-43054200D01*
X20669500Y-39266500D02*
X22761700Y-37174300D01*
X11540000Y-58545000D02*
X7899600Y-54904600D01*
X6606900Y-42628800D02*
X7449000Y-42628800D01*
X25033000Y-34781700D02*
X25214300Y-34781700D01*
X7874400Y-43054200D02*
X16504000Y-43054200D01*
X25361700Y-30922300D02*
X25583100Y-30700900D01*
X6224700Y-43011000D02*
X6606900Y-42628800D01*
X25583100Y-30700900D02*
X25583100Y-20339500D01*
X19935200Y-39266500D02*
X20669500Y-39266500D01*
X7899600Y-48050500D02*
X6224700Y-46375600D01*
X7899600Y-54904600D02*
X7899600Y-48050500D01*
X17950100Y-41251600D02*
X19935200Y-39266500D01*
%TO.N,CLK*%
X74989000Y-10318200D02*
X77183800Y-12513000D01*
X15710000Y-7500000D02*
X18528200Y-10318200D01*
X18528200Y-10318200D02*
X74989000Y-10318200D01*
%TO.N,CLKD*%
X17950000Y-19575700D02*
X17950000Y-20041800D01*
X53780000Y-15745400D02*
X52942100Y-14907500D01*
X84727500Y-47009600D02*
X58737600Y-21019700D01*
X16481800Y-21510000D02*
X12605000Y-21510000D01*
X12605000Y-21510000D02*
X11540000Y-20445000D01*
X17950000Y-20041800D02*
X16481800Y-21510000D01*
X52942100Y-14907500D02*
X36325700Y-14907500D01*
X33393800Y-17839400D02*
X19686300Y-17839400D01*
X58737600Y-21019700D02*
X57197800Y-21019700D01*
X84727500Y-64000000D02*
X84727500Y-64352500D01*
X36325700Y-14907500D02*
X33393800Y-17839400D01*
X84727500Y-64352500D02*
X80000000Y-69080000D01*
X53780000Y-17601900D02*
X53780000Y-15745400D01*
X84727500Y-64000000D02*
X86000000Y-64000000D01*
X84727500Y-64000000D02*
X84727500Y-47009600D01*
X19686300Y-17839400D02*
X17950000Y-19575700D01*
X57197800Y-21019700D02*
X53780000Y-17601900D01*
%TO.N,CLKDN*%
X14080000Y-20445000D02*
X9635000Y-16000000D01*
X9635000Y-16000000D02*
X9000000Y-16000000D01*
%TO.N,D0*%
X12211800Y-40801800D02*
X9000000Y-37590000D01*
X14080000Y-40801800D02*
X12211800Y-40801800D01*
X14080000Y-40801800D02*
X14080000Y-42035000D01*
X14738200Y-40801800D02*
X14080000Y-40801800D01*
X19220000Y-36320000D02*
X14738200Y-40801800D01*
%TO.N,D1*%
X17047900Y-50703800D02*
X18218300Y-49533400D01*
X26900000Y-42206000D02*
X26900000Y-42035000D01*
X9000000Y-45845000D02*
X9635000Y-45845000D01*
X21651300Y-47454700D02*
X26900000Y-42206000D01*
X19906300Y-47454700D02*
X21651300Y-47454700D01*
X18218300Y-49142700D02*
X19906300Y-47454700D01*
X14493800Y-50703800D02*
X17047900Y-50703800D01*
X14080000Y-50290000D02*
X14493800Y-50703800D01*
X9635000Y-45845000D02*
X14080000Y-50290000D01*
X18218300Y-49533400D02*
X18218300Y-49142700D01*
%TO.N,D2*%
X23260100Y-55616100D02*
X23260100Y-54613900D01*
X15877700Y-56747300D02*
X22128900Y-56747300D01*
X30764600Y-47316000D02*
X30764600Y-45215400D01*
X22128900Y-56747300D02*
X23260100Y-55616100D01*
X28429700Y-49650900D02*
X30764600Y-47316000D01*
X30764600Y-45215400D02*
X34580000Y-41400000D01*
X28223100Y-49650900D02*
X28429700Y-49650900D01*
X23260100Y-54613900D02*
X28223100Y-49650900D01*
X9635000Y-54100000D02*
X9000000Y-54100000D01*
X14080000Y-58545000D02*
X9635000Y-54100000D01*
X14080000Y-58545000D02*
X15877700Y-56747300D01*
%TO.N,D3*%
X33275500Y-52203300D02*
X28579400Y-52203300D01*
X38304700Y-47174100D02*
X33275500Y-52203300D01*
X20311900Y-57864700D02*
X13278100Y-64898500D01*
X24028200Y-56474000D02*
X22637500Y-57864700D01*
X25115500Y-56474000D02*
X24028200Y-56474000D01*
X13278100Y-65998100D02*
X13278100Y-64898500D01*
X25435800Y-56153700D02*
X25115500Y-56474000D01*
X28579400Y-52203300D02*
X25435800Y-55346900D01*
X13278100Y-64898500D02*
X11543500Y-64898500D01*
X42260000Y-42035000D02*
X38304700Y-45990300D01*
X38304700Y-45990300D02*
X38304700Y-47174100D01*
X11543500Y-64898500D02*
X9000000Y-62355000D01*
X25435800Y-55346900D02*
X25435800Y-56153700D01*
X14080000Y-66800000D02*
X13278100Y-65998100D01*
X22637500Y-57864700D02*
X20311900Y-57864700D01*
%TO.N,ENM*%
X20490000Y-16000000D02*
X21760000Y-16000000D01*
X25898300Y-48116700D02*
X26900000Y-47115000D01*
X19220000Y-49655000D02*
X20758300Y-48116700D01*
X27914100Y-56384100D02*
X32930900Y-56384100D01*
X26900000Y-55370000D02*
X27914100Y-56384100D01*
X16680000Y-19810000D02*
X20490000Y-16000000D01*
X35581700Y-53733300D02*
X40623300Y-53733300D01*
X34580000Y-54735000D02*
X35581700Y-53733300D01*
X40623300Y-53733300D02*
X42260000Y-55370000D01*
X20758300Y-48116700D02*
X25898300Y-48116700D01*
X32930900Y-56384100D02*
X34580000Y-54735000D01*
%TO.N,ENMN*%
X19220000Y-19810000D02*
X19220000Y-23274400D01*
X9854300Y-34781700D02*
X9777900Y-34781700D01*
X19220000Y-23274400D02*
X15112800Y-27381600D01*
X5873000Y-38686600D02*
X5873000Y-46611500D01*
X11315300Y-32504600D02*
X10001700Y-33818200D01*
X11753300Y-32504600D02*
X11315300Y-32504600D01*
X15112800Y-29145100D02*
X11753300Y-32504600D01*
X10001700Y-34634300D02*
X9854300Y-34781700D01*
X7493000Y-48231500D02*
X7493000Y-69103000D01*
X9000000Y-70610000D02*
X9635000Y-70610000D01*
X9635000Y-70610000D02*
X14080000Y-75055000D01*
X10001700Y-33818200D02*
X10001700Y-34634300D01*
X9777900Y-34781700D02*
X5873000Y-38686600D01*
X7493000Y-69103000D02*
X9000000Y-70610000D01*
X15112800Y-27381600D02*
X15112800Y-29145100D01*
X5873000Y-46611500D02*
X7493000Y-48231500D01*
%TO.N,GND*%
D20*
X13170000Y-7500000D02*
X13170000Y-12500000D01*
X52700000Y-92460000D02*
X52700000Y-89960000D01*
X95000000Y-19000000D02*
X95000000Y-21500000D01*
D21*
X7730000Y-12500000D02*
X53810000Y-12500000D01*
D20*
X89370000Y-4960000D02*
X89370000Y-2460000D01*
X52700000Y-95000000D02*
X52700000Y-97500000D01*
X18250000Y-4960000D02*
X18250000Y-2460000D01*
X13170000Y-4960000D02*
X18250000Y-4960000D01*
X13170000Y-7500000D02*
X13170000Y-4960000D01*
X95000000Y-28000000D02*
X95000000Y-30500000D01*
%TO.N,MAI*%
D22*
X65552000Y-50293800D02*
X58890100Y-56955700D01*
X12575000Y-76090000D02*
X11540000Y-75055000D01*
X46288000Y-65801000D02*
X46288000Y-74235400D01*
X57318300Y-59092500D02*
X52996500Y-59092500D01*
X58890100Y-57520700D02*
X57318300Y-59092500D01*
X46288000Y-74235400D02*
X44433400Y-76090000D01*
X65552000Y-42224000D02*
X65552000Y-50293800D01*
X52996500Y-59092500D02*
X46288000Y-65801000D01*
X44433400Y-76090000D02*
X12575000Y-76090000D01*
X58890100Y-56955700D02*
X58890100Y-57520700D01*
%TO.N,MAR0*%
X52811700Y-80614400D02*
X53260800Y-80614400D01*
X28438300Y-46323800D02*
X30978600Y-43783500D01*
X53260800Y-80614400D02*
X57620000Y-76255200D01*
X34306800Y-23173500D02*
X35973900Y-24840600D01*
X35973900Y-24840600D02*
X35973900Y-25792600D01*
X26900000Y-20445000D02*
X29628500Y-23173500D01*
X36107100Y-32237000D02*
X38420000Y-29924100D01*
X22835000Y-54515900D02*
X28051700Y-49299200D01*
X22835000Y-55543900D02*
X22835000Y-54515900D01*
X40000000Y-95000000D02*
X41270100Y-93729900D01*
X16680000Y-62990000D02*
X20490000Y-59180000D01*
X28438300Y-47698200D02*
X28438300Y-46323800D01*
X40811100Y-28238700D02*
X43847700Y-31275300D01*
X30978600Y-43783500D02*
X30978600Y-41028100D01*
X22283300Y-56095600D02*
X22835000Y-55543900D01*
X35973900Y-25792600D02*
X38420000Y-28238700D01*
X36107100Y-35899600D02*
X36107100Y-32237000D01*
X30978600Y-41028100D02*
X36107100Y-35899600D01*
X38420000Y-28238700D02*
X40811100Y-28238700D01*
X28699500Y-48883800D02*
X28699500Y-47959400D01*
X43847700Y-31275300D02*
X48070300Y-31275300D01*
X41270100Y-92156000D02*
X52811700Y-80614400D01*
X38420000Y-29924100D02*
X38420000Y-28238700D01*
X21849000Y-56095600D02*
X22283300Y-56095600D01*
X57620000Y-76255200D02*
X57620000Y-72515000D01*
X41270100Y-93729900D02*
X41270100Y-92156000D01*
X28284100Y-49299200D02*
X28699500Y-48883800D01*
X28699500Y-47959400D02*
X28438300Y-47698200D01*
X48070300Y-31275300D02*
X49940000Y-33145000D01*
X28051700Y-49299200D02*
X28284100Y-49299200D01*
X29628500Y-23173500D02*
X34306800Y-23173500D01*
X20490000Y-59180000D02*
X21760000Y-59180000D01*
%TO.N,MAR0N*%
X48403200Y-34148200D02*
X50419500Y-34148200D01*
X45855200Y-36696200D02*
X45855200Y-47477900D01*
X48403200Y-34148200D02*
X45855200Y-36696200D01*
X50419500Y-34148200D02*
X51008600Y-33559100D01*
X51008600Y-30806400D02*
X52480000Y-29335000D01*
X47400000Y-33145000D02*
X48403200Y-34148200D01*
X38420100Y-51145200D02*
X36776700Y-52788600D01*
X45855200Y-47477900D02*
X43812600Y-49520500D01*
X39588800Y-49520500D02*
X38420100Y-50689200D01*
X43812600Y-49520500D02*
X39588800Y-49520500D01*
X38420100Y-50689200D02*
X38420100Y-51145200D01*
X51008600Y-33559100D02*
X51008600Y-30806400D01*
%TO.N,MAR0_dn*%
X20490000Y-24255000D02*
X21760000Y-24255000D01*
X16680000Y-28065000D02*
X20490000Y-24255000D01*
%TO.N,MAR0_m1*%
X20490000Y-32510000D02*
X21760000Y-32510000D01*
X16680000Y-36320000D02*
X20490000Y-32510000D01*
%TO.N,MAR0_m2*%
X25359900Y-35133400D02*
X25713400Y-34779900D01*
X25713400Y-34779900D02*
X25713400Y-31539500D01*
X26900000Y-30352900D02*
X26900000Y-25525000D01*
X21760000Y-45845000D02*
X23113400Y-44491600D01*
X25713400Y-31539500D02*
X26900000Y-30352900D01*
X23113400Y-37307900D02*
X25287900Y-35133400D01*
X25287900Y-35133400D02*
X25359900Y-35133400D01*
X23113400Y-44491600D02*
X23113400Y-37307900D01*
X16680000Y-49655000D02*
X20490000Y-45845000D01*
X20490000Y-45845000D02*
X21760000Y-45845000D01*
%TO.N,MAR1*%
X42506600Y-57591100D02*
X43479300Y-56618400D01*
X43479300Y-56618400D02*
X45021300Y-56618400D01*
X45965800Y-55673900D02*
X45965800Y-49235200D01*
X49940000Y-45261000D02*
X49940000Y-41400000D01*
X24995000Y-64260000D02*
X24360000Y-64260000D01*
X36609900Y-61535100D02*
X29440000Y-68705000D01*
X53383500Y-53038500D02*
X50778500Y-53038500D01*
X57620000Y-57275000D02*
X53383500Y-53038500D01*
X42887700Y-58509800D02*
X42506600Y-58128700D01*
X45145600Y-61535100D02*
X36609900Y-61535100D01*
X50778500Y-53038500D02*
X45815900Y-58001100D01*
X45965800Y-49235200D02*
X49940000Y-45261000D01*
X45815900Y-58001100D02*
X45815900Y-58509800D01*
X45021300Y-56618400D02*
X45965800Y-55673900D01*
X42506600Y-58128700D02*
X42506600Y-57591100D01*
X29440000Y-68705000D02*
X24995000Y-64260000D01*
X45815900Y-58509800D02*
X45815900Y-60864800D01*
X45815900Y-58509800D02*
X42887700Y-58509800D01*
X45815900Y-60864800D02*
X45145600Y-61535100D01*
%TO.N,MAR1N*%
X51210000Y-37590000D02*
X52480000Y-37590000D01*
X47400000Y-41400000D02*
X51210000Y-37590000D01*
%TO.N,MAR1_m1*%
X24360000Y-37590000D02*
X24995000Y-37590000D01*
X24995000Y-37590000D02*
X29440000Y-42035000D01*
%TO.N,MAR1_m2*%
X30626900Y-43611800D02*
X30626900Y-28843100D01*
X28014200Y-46224500D02*
X30626900Y-43611800D01*
X30626900Y-28843100D02*
X34580000Y-24890000D01*
X25736700Y-50925000D02*
X28014200Y-48647500D01*
X28014200Y-48647500D02*
X28014200Y-46224500D01*
X24360000Y-50925000D02*
X25736700Y-50925000D01*
%TO.N,MAR1_qn*%
X30981600Y-69703400D02*
X26900000Y-73785000D01*
X32897500Y-19810000D02*
X32897500Y-20902800D01*
X33718100Y-64970400D02*
X30981600Y-67706900D01*
X32897500Y-20902800D02*
X34392200Y-22397500D01*
X32040000Y-19810000D02*
X32897500Y-19810000D01*
X36707500Y-16000000D02*
X32897500Y-19810000D01*
X34396400Y-64970400D02*
X33718100Y-64970400D01*
X37120000Y-16000000D02*
X36707500Y-16000000D01*
X30981600Y-67706900D02*
X30981600Y-69703400D01*
%TO.N,MAR2*%
X48670100Y-24743300D02*
X48670100Y-25113800D01*
X32218400Y-68070000D02*
X36028400Y-64260000D01*
X42260000Y-21204200D02*
X42260000Y-20445000D01*
X53884000Y-28265300D02*
X51450100Y-25831400D01*
X48670100Y-25113800D02*
X47882000Y-25901900D01*
X49551400Y-23862000D02*
X48670100Y-24743300D01*
X37120000Y-64260000D02*
X39409600Y-61970400D01*
X45221600Y-61970400D02*
X45757300Y-61434700D01*
X48932200Y-57872600D02*
X48932200Y-57454300D01*
X57620000Y-42035000D02*
X53884000Y-38299000D01*
X53884000Y-38299000D02*
X53884000Y-28265300D01*
X57620000Y-42194000D02*
X57620000Y-42035000D01*
X46750200Y-60441800D02*
X46750200Y-60054600D01*
X32040000Y-68070000D02*
X32218400Y-68070000D01*
X39409600Y-61970400D02*
X45221600Y-61970400D01*
X45757300Y-61434700D02*
X45757400Y-61434700D01*
X49940000Y-49655000D02*
X50159000Y-49655000D01*
X46750200Y-60054600D02*
X48932200Y-57872600D01*
X46957700Y-25901900D02*
X42260000Y-21204200D01*
X45757400Y-61434700D02*
X45757400Y-61434600D01*
X48932200Y-57454300D02*
X49793800Y-56592700D01*
X50159000Y-49655000D02*
X57620000Y-42194000D01*
X51450100Y-24976200D02*
X50335900Y-23862000D01*
X50335900Y-23862000D02*
X49551400Y-23862000D01*
X45757400Y-61434600D02*
X46750200Y-60441800D01*
X47882000Y-25901900D02*
X46957700Y-25901900D01*
X36028400Y-64260000D02*
X37120000Y-64260000D01*
X51450100Y-25831400D02*
X51450100Y-24976200D01*
%TO.N,MAR2N*%
X43173500Y-57858100D02*
X44343400Y-57858100D01*
X44343400Y-57858100D02*
X46317500Y-55884000D01*
X51210000Y-45845000D02*
X52480000Y-45845000D01*
X46317500Y-50737500D02*
X47400000Y-49655000D01*
X46317500Y-55884000D02*
X46317500Y-50737500D01*
X47400000Y-49655000D02*
X51210000Y-45845000D01*
%TO.N,MAR2_dn*%
X35850000Y-29335000D02*
X37120000Y-29335000D01*
X32040000Y-33145000D02*
X35850000Y-29335000D01*
%TO.N,MAR2_m1*%
X32040000Y-41400000D02*
X35850000Y-37590000D01*
X35850000Y-37590000D02*
X37120000Y-37590000D01*
%TO.N,MAR2_m2*%
X38675500Y-49369500D02*
X38675500Y-46303500D01*
X41629200Y-43349800D02*
X41992400Y-43349800D01*
X37120000Y-50925000D02*
X38675500Y-49369500D01*
X35850000Y-50925000D02*
X37120000Y-50925000D01*
X32040000Y-54735000D02*
X35850000Y-50925000D01*
X38675500Y-46303500D02*
X41629200Y-43349800D01*
%TO.N,MAR3*%
X42406700Y-64260000D02*
X42852500Y-64705800D01*
X45236200Y-62322100D02*
X45369200Y-62322100D01*
X48177600Y-59513700D02*
X48177600Y-59124500D01*
X42852500Y-64705800D02*
X45236200Y-62322100D01*
X45369200Y-62322100D02*
X48177600Y-59513700D01*
X42852500Y-64705800D02*
X44800000Y-66653300D01*
X44800000Y-66653300D02*
X44800000Y-68705000D01*
X39720000Y-64260000D02*
X42406700Y-64260000D01*
X49392100Y-57910000D02*
X49940000Y-57910000D01*
X55170000Y-25040000D02*
X55865000Y-25040000D01*
X48177600Y-59124500D02*
X49392100Y-57910000D01*
X55865000Y-25040000D02*
X57620000Y-26795000D01*
X49940000Y-19810000D02*
X55170000Y-25040000D01*
%TO.N,MAR3N*%
X47400000Y-57910000D02*
X51210000Y-54100000D01*
X51210000Y-54100000D02*
X52480000Y-54100000D01*
%TO.N,MAR3_dn*%
X44800000Y-33780000D02*
X40355000Y-29335000D01*
X40355000Y-29335000D02*
X39720000Y-29335000D01*
%TO.N,MAR3_m1*%
X40355000Y-37590000D02*
X39720000Y-37590000D01*
X44800000Y-42035000D02*
X40355000Y-37590000D01*
%TO.N,MAR3_m2*%
X51419300Y-31971500D02*
X51419300Y-35137200D01*
X44800000Y-55370000D02*
X42905400Y-53475400D01*
X42905400Y-53475400D02*
X42905400Y-50925000D01*
X46277500Y-40279000D02*
X46277500Y-47552900D01*
X53532300Y-28482300D02*
X53532300Y-29858500D01*
X42905400Y-50925000D02*
X39720000Y-50925000D01*
X51419300Y-35137200D02*
X46277500Y-40279000D01*
X53532300Y-29858500D02*
X51419300Y-31971500D01*
X46277500Y-47552900D02*
X42905400Y-50925000D01*
X49940000Y-24890000D02*
X53532300Y-28482300D01*
%TO.N,MAR3_qn*%
X43298200Y-74823200D02*
X45202700Y-74823200D01*
X51210000Y-16000000D02*
X52480000Y-16000000D01*
X42260000Y-73785000D02*
X43298200Y-74823200D01*
X45826600Y-74199300D02*
X45826600Y-65455900D01*
X45202700Y-74823200D02*
X45826600Y-74199300D01*
X48830400Y-62452100D02*
X48830400Y-59393400D01*
X47400000Y-19810000D02*
X51210000Y-16000000D01*
X45826600Y-65455900D02*
X48830400Y-62452100D01*
%TO.N,MI*%
X78031000Y-41234700D02*
X55469800Y-63795900D01*
X55469800Y-63795900D02*
X52309100Y-63795900D01*
X52309100Y-63795900D02*
X49940000Y-66165000D01*
%TO.N,MIN*%
X50941700Y-65785200D02*
X51563600Y-65163300D01*
X51277100Y-84577300D02*
X51277100Y-93882900D01*
X51277100Y-93882900D02*
X50160000Y-95000000D01*
X48456400Y-66165400D02*
X49495700Y-67204700D01*
X48456000Y-66165000D02*
X47400000Y-66165000D01*
X51563600Y-65163300D02*
X53338300Y-65163300D01*
X48456400Y-66165400D02*
X48456000Y-66165000D01*
X58649000Y-77205400D02*
X51277100Y-84577300D01*
X52266800Y-62355000D02*
X48456400Y-66165400D01*
X53338300Y-65163300D02*
X54975000Y-66800000D01*
X54975000Y-68081900D02*
X58649000Y-71755900D01*
X49495700Y-67204700D02*
X50317000Y-67204700D01*
X52480000Y-62355000D02*
X52266800Y-62355000D01*
X58649000Y-71755900D02*
X58649000Y-77205400D01*
X50941700Y-66580000D02*
X50941700Y-65785200D01*
X50317000Y-67204700D02*
X50941700Y-66580000D01*
X54975000Y-66800000D02*
X54975000Y-68081900D01*
%TO.N,MON*%
X47400000Y-79500000D02*
X51210000Y-75690000D01*
X51210000Y-75690000D02*
X52480000Y-75690000D01*
%TO.N,MPH*%
X13116200Y-78558800D02*
X11540000Y-80135000D01*
X14080000Y-28700000D02*
X9635000Y-24255000D01*
X9635000Y-24255000D02*
X9000000Y-24255000D01*
X42626200Y-78558800D02*
X13116200Y-78558800D01*
X49940000Y-71245000D02*
X42626200Y-78558800D01*
%TO.N,Net-(D1-K)*%
X60160000Y-26041700D02*
X60160000Y-26795000D01*
X57620000Y-23501700D02*
X60160000Y-26041700D01*
X57620000Y-22350000D02*
X57620000Y-23501700D01*
%TO.N,Net-(D2-A)*%
X57620000Y-35050000D02*
X55080000Y-32510000D01*
X55080000Y-32510000D02*
X55080000Y-31240000D01*
%TO.N,Net-(Q12-S)*%
X20758300Y-37321700D02*
X16680000Y-41400000D01*
X20758300Y-36320000D02*
X20758300Y-37321700D01*
X21760000Y-36320000D02*
X20758300Y-36320000D01*
%TO.N,Net-(Q14-S)*%
X21760000Y-49655000D02*
X20758300Y-49655000D01*
X20758300Y-50656700D02*
X16680000Y-54735000D01*
X20758300Y-49655000D02*
X20758300Y-50656700D01*
%TO.N,Net-(Q16-S)*%
X20758300Y-63991700D02*
X16680000Y-68070000D01*
X21760000Y-62990000D02*
X20758300Y-62990000D01*
X20758300Y-62990000D02*
X20758300Y-63991700D01*
%TO.N,Net-(Q21-S)*%
X28170100Y-41851500D02*
X27351900Y-41033300D01*
X24360000Y-42035000D02*
X25361700Y-42035000D01*
X26363400Y-41033300D02*
X25361700Y-42035000D01*
X28675900Y-44143600D02*
X28170100Y-43637800D01*
X28170100Y-43637800D02*
X28170100Y-41851500D01*
X27351900Y-41033300D02*
X26363400Y-41033300D01*
%TO.N,Net-(Q23-S)*%
X29440000Y-60450000D02*
X26467800Y-57477800D01*
X26467800Y-57477800D02*
X24443400Y-57477800D01*
%TO.N,Net-(Q30-S)*%
X36118300Y-41400000D02*
X36118300Y-42401700D01*
X36118300Y-42401700D02*
X32040000Y-46480000D01*
X37120000Y-41400000D02*
X36118300Y-41400000D01*
%TO.N,Net-(Q32-S)*%
X37120000Y-54735000D02*
X36118300Y-54735000D01*
X36118300Y-54735000D02*
X36118300Y-55736700D01*
X36118300Y-55736700D02*
X32040000Y-59815000D01*
%TO.N,Net-(Q34-S)*%
X36118300Y-68070000D02*
X36118300Y-69071700D01*
X36118300Y-69071700D02*
X32040000Y-73150000D01*
X37120000Y-68070000D02*
X36118300Y-68070000D01*
%TO.N,Net-(Q36-S)*%
X40721700Y-21446700D02*
X44800000Y-25525000D01*
X39720000Y-20445000D02*
X40721700Y-20445000D01*
X40721700Y-20445000D02*
X40721700Y-21446700D01*
%TO.N,Net-(Q39-S)*%
X41754400Y-41002300D02*
X42764500Y-41002300D01*
X39720000Y-42035000D02*
X40721700Y-42035000D01*
X42764500Y-41002300D02*
X43530000Y-41767800D01*
X43530000Y-41767800D02*
X43530000Y-45845000D01*
X43530000Y-45845000D02*
X44800000Y-47115000D01*
X40721700Y-42035000D02*
X41754400Y-41002300D01*
%TO.N,Net-(Q41-S)*%
X39720000Y-56371700D02*
X43798300Y-60450000D01*
X39720000Y-55370000D02*
X39720000Y-56371700D01*
X43798300Y-60450000D02*
X44800000Y-60450000D01*
%TO.N,Net-(Q43-S)*%
X39720000Y-68705000D02*
X40721700Y-68705000D01*
X40721700Y-69706700D02*
X44800000Y-73785000D01*
X40721700Y-68705000D02*
X40721700Y-69706700D01*
%TO.N,Net-(Q45-S)*%
X49531100Y-18802300D02*
X48794000Y-19539400D01*
X48794000Y-23496000D02*
X47400000Y-24890000D01*
X52480000Y-19810000D02*
X51478300Y-19810000D01*
X48794000Y-19539400D02*
X48794000Y-23496000D01*
X50470600Y-18802300D02*
X49531100Y-18802300D01*
X51478300Y-19810000D02*
X50470600Y-18802300D01*
%TO.N,Net-(Q51-S)*%
X51478300Y-67166700D02*
X51478300Y-66165000D01*
X52480000Y-66165000D02*
X51478300Y-66165000D01*
X47400000Y-71245000D02*
X51478300Y-67166700D01*
%TD*%
M02*
