%TF.GenerationSoftware,KiCad,Pcbnew,10.0.5*%
%TF.CreationDate,2026-09-11T05:29:06-04:00*%
%TF.ProjectId,memctl,6d656d63-746c-42e6-9b69-6361645f7063,rev?*%
%TF.SameCoordinates,Original*%
%TF.FileFunction,Copper,L1,Top*%
%TF.FilePolarity,Positive*%
%FSLAX46Y46*%
G04 Gerber Fmt 4.6, Leading zero omitted, Abs format (unit mm)*
G04 Created by KiCad (PCBNEW 10.0.5) date 2026-09-11 05:29:06*
%MOMM*%
%LPD*%
G01*
G04 APERTURE LIST*
G04 Aperture macros list*
%AMRoundRect*
0 Rectangle with rounded corners*
0 $1 Rounding radius*
0 $2 $3 $4 $5 $6 $7 $8 $9 X,Y pos of 4 corners*
0 Add a 4 corners polygon primitive as box body*
4,1,4,$2,$3,$4,$5,$6,$7,$8,$9,$2,$3,0*
0 Add four circle primitives for the rounded corners*
1,1,$1+$1,$2,$3*
1,1,$1+$1,$4,$5*
1,1,$1+$1,$6,$7*
1,1,$1+$1,$8,$9*
0 Add four rect primitives between the rounded corners*
20,1,$1+$1,$2,$3,$4,$5,0*
20,1,$1+$1,$4,$5,$6,$7,0*
20,1,$1+$1,$6,$7,$8,$9,0*
20,1,$1+$1,$8,$9,$2,$3,0*%
G04 Aperture macros list end*
%TA.AperFunction,ComponentPad*%
%ADD10R,1.500000X1.500000*%
%TD*%
%TA.AperFunction,ComponentPad*%
%ADD11C,1.500000*%
%TD*%
%TA.AperFunction,ComponentPad*%
%ADD12C,1.600000*%
%TD*%
%TA.AperFunction,ComponentPad*%
%ADD13RoundRect,0.250000X0.600000X-0.600000X0.600000X0.600000X-0.600000X0.600000X-0.600000X-0.600000X0*%
%TD*%
%TA.AperFunction,ComponentPad*%
%ADD14C,1.700000*%
%TD*%
%TA.AperFunction,ComponentPad*%
%ADD15C,6.400000*%
%TD*%
%TA.AperFunction,ComponentPad*%
%ADD16R,1.800000X1.800000*%
%TD*%
%TA.AperFunction,ComponentPad*%
%ADD17C,1.800000*%
%TD*%
%TA.AperFunction,ComponentPad*%
%ADD18RoundRect,0.250000X-0.550000X0.550000X-0.550000X-0.550000X0.550000X-0.550000X0.550000X0.550000X0*%
%TD*%
%TA.AperFunction,ViaPad*%
%ADD19C,0.800000*%
%TD*%
%TA.AperFunction,Conductor*%
%ADD20C,0.500000*%
%TD*%
%TA.AperFunction,Conductor*%
%ADD21C,0.800000*%
%TD*%
%TA.AperFunction,Conductor*%
%ADD22C,0.200000*%
%TD*%
G04 APERTURE END LIST*
D10*
%TO.P,Q5,1*%
%TO.N,GND*%
X9000000Y-47115000D03*
D11*
%TO.P,Q5,2*%
%TO.N,PH1*%
X11540000Y-47115000D03*
%TO.P,Q5,3*%
%TO.N,PH2*%
X14080000Y-47115000D03*
%TD*%
D12*
%TO.P,R2,1*%
%TO.N,PH1*%
X9000000Y-24255000D03*
%TO.P,R2,2*%
%TO.N,+5V*%
X14080000Y-24255000D03*
%TD*%
D10*
%TO.P,Q40,1*%
%TO.N,GND*%
X39720000Y-47115000D03*
D11*
%TO.P,Q40,2*%
%TO.N,D3*%
X42260000Y-47115000D03*
%TO.P,Q40,3*%
%TO.N,MAR3_dn*%
X44800000Y-47115000D03*
%TD*%
D12*
%TO.P,R37,1*%
%TO.N,Net-(D2-A)*%
X55080000Y-52830000D03*
%TO.P,R37,2*%
%TO.N,+5V*%
X60160000Y-52830000D03*
%TD*%
D10*
%TO.P,Q48,1*%
%TO.N,GND*%
X52480000Y-38225000D03*
D11*
%TO.P,Q48,2*%
%TO.N,MAR3_m2*%
X49940000Y-38225000D03*
%TO.P,Q48,3*%
%TO.N,Net-(Q47-S)*%
X47400000Y-38225000D03*
%TD*%
D10*
%TO.P,Q53,1*%
%TO.N,Net-(Q53-S)*%
X55080000Y-20445000D03*
D11*
%TO.P,Q53,2*%
%TO.N,MI*%
X57620000Y-20445000D03*
%TO.P,Q53,3*%
%TO.N,MIN*%
X60160000Y-20445000D03*
%TD*%
D12*
%TO.P,R30,1*%
%TO.N,+5V*%
X47400000Y-42670000D03*
%TO.P,R30,2*%
%TO.N,MAR0N*%
X52480000Y-42670000D03*
%TD*%
D10*
%TO.P,Q50,1*%
%TO.N,GND*%
X52480000Y-54735000D03*
D11*
%TO.P,Q50,2*%
%TO.N,MAR1*%
X49940000Y-54735000D03*
%TO.P,Q50,3*%
%TO.N,MAR1N*%
X47400000Y-54735000D03*
%TD*%
D12*
%TO.P,R9,1*%
%TO.N,+5V*%
X16680000Y-29335000D03*
%TO.P,R9,2*%
%TO.N,ENM*%
X21760000Y-29335000D03*
%TD*%
%TO.P,R29,1*%
%TO.N,+5V*%
X47400000Y-29335000D03*
%TO.P,R29,2*%
%TO.N,MAR3_qn*%
X52480000Y-29335000D03*
%TD*%
%TO.P,R17,1*%
%TO.N,MAR1_m2*%
X24360000Y-64260000D03*
%TO.P,R17,2*%
%TO.N,+5V*%
X29440000Y-64260000D03*
%TD*%
%TO.P,R15,1*%
%TO.N,MAR1_dn*%
X24360000Y-42670000D03*
%TO.P,R15,2*%
%TO.N,+5V*%
X29440000Y-42670000D03*
%TD*%
%TO.P,R4,1*%
%TO.N,D0*%
X9000000Y-50925000D03*
%TO.P,R4,2*%
%TO.N,+5V*%
X14080000Y-50925000D03*
%TD*%
D10*
%TO.P,Q56,1*%
%TO.N,GND*%
X55080000Y-48385000D03*
D11*
%TO.P,Q56,2*%
%TO.N,MAR3*%
X57620000Y-48385000D03*
%TO.P,Q56,3*%
%TO.N,Net-(D1-K)*%
X60160000Y-48385000D03*
%TD*%
D12*
%TO.P,R13,1*%
%TO.N,MAR0*%
X24360000Y-16000000D03*
%TO.P,R13,2*%
%TO.N,+5V*%
X29440000Y-16000000D03*
%TD*%
D10*
%TO.P,Q13,1*%
%TO.N,GND*%
X21760000Y-41400000D03*
D11*
%TO.P,Q13,2*%
%TO.N,D0*%
X19220000Y-41400000D03*
%TO.P,Q13,3*%
%TO.N,MAR0_dn*%
X16680000Y-41400000D03*
%TD*%
D12*
%TO.P,R16,1*%
%TO.N,MAR1_m1*%
X24360000Y-50925000D03*
%TO.P,R16,2*%
%TO.N,+5V*%
X29440000Y-50925000D03*
%TD*%
%TO.P,R21,1*%
%TO.N,+5V*%
X32040000Y-50925000D03*
%TO.P,R21,2*%
%TO.N,MAR2_m1*%
X37120000Y-50925000D03*
%TD*%
D10*
%TO.P,Q35,1*%
%TO.N,GND*%
X37120000Y-73150000D03*
D11*
%TO.P,Q35,2*%
%TO.N,MAR2_dn*%
X34580000Y-73150000D03*
%TO.P,Q35,3*%
%TO.N,Net-(Q34-S)*%
X32040000Y-73150000D03*
%TD*%
D10*
%TO.P,Q47,1*%
%TO.N,Net-(Q47-S)*%
X52480000Y-33145000D03*
D11*
%TO.P,Q47,2*%
%TO.N,MAR3*%
X49940000Y-33145000D03*
%TO.P,Q47,3*%
%TO.N,MAR3_qn*%
X47400000Y-33145000D03*
%TD*%
D10*
%TO.P,Q36,1*%
%TO.N,Net-(Q36-S)*%
X39720000Y-20445000D03*
D11*
%TO.P,Q36,2*%
%TO.N,MAR2_m1*%
X42260000Y-20445000D03*
%TO.P,Q36,3*%
%TO.N,MAR2*%
X44800000Y-20445000D03*
%TD*%
D10*
%TO.P,Q54,1*%
%TO.N,GND*%
X55080000Y-25525000D03*
D11*
%TO.P,Q54,2*%
%TO.N,PH1*%
X57620000Y-25525000D03*
%TO.P,Q54,3*%
%TO.N,Net-(Q53-S)*%
X60160000Y-25525000D03*
%TD*%
D10*
%TO.P,Q20,1*%
%TO.N,Net-(Q20-S)*%
X24360000Y-33780000D03*
D11*
%TO.P,Q20,2*%
%TO.N,MAR0*%
X26900000Y-33780000D03*
%TO.P,Q20,3*%
%TO.N,MAR0_qn*%
X29440000Y-33780000D03*
%TD*%
D13*
%TO.P,J1,1*%
%TO.N,+5V*%
X10630000Y-7500000D03*
D14*
%TO.P,J1,2*%
X10630000Y-4960000D03*
%TO.P,J1,3*%
%TO.N,GND*%
X13170000Y-7500000D03*
%TO.P,J1,4*%
X13170000Y-4960000D03*
%TO.P,J1,5*%
%TO.N,CLK*%
X15710000Y-7500000D03*
%TO.P,J1,6*%
%TO.N,GND*%
X15710000Y-4960000D03*
%TO.P,J1,7*%
%TO.N,unconnected-(J1-Pin_7-Pad7)*%
X18250000Y-7500000D03*
%TO.P,J1,8*%
%TO.N,GND*%
X18250000Y-4960000D03*
%TO.P,J1,9*%
%TO.N,BUS0#*%
X20790000Y-7500000D03*
%TO.P,J1,10*%
%TO.N,BUS1#*%
X20790000Y-4960000D03*
%TO.P,J1,11*%
%TO.N,BUS2#*%
X23330000Y-7500000D03*
%TO.P,J1,12*%
%TO.N,BUS3#*%
X23330000Y-4960000D03*
%TO.P,J1,13*%
%TO.N,unconnected-(J1-Pin_13-Pad13)*%
X25870000Y-7500000D03*
%TO.P,J1,14*%
%TO.N,unconnected-(J1-Pin_14-Pad14)*%
X25870000Y-4960000D03*
%TO.P,J1,15*%
%TO.N,unconnected-(J1-Pin_15-Pad15)*%
X28410000Y-7500000D03*
%TO.P,J1,16*%
%TO.N,unconnected-(J1-Pin_16-Pad16)*%
X28410000Y-4960000D03*
%TO.P,J1,17*%
%TO.N,unconnected-(J1-Pin_17-Pad17)*%
X30950000Y-7500000D03*
%TO.P,J1,18*%
%TO.N,unconnected-(J1-Pin_18-Pad18)*%
X30950000Y-4960000D03*
%TO.P,J1,19*%
%TO.N,unconnected-(J1-Pin_19-Pad19)*%
X33490000Y-7500000D03*
%TO.P,J1,20*%
%TO.N,unconnected-(J1-Pin_20-Pad20)*%
X33490000Y-4960000D03*
%TO.P,J1,21*%
%TO.N,unconnected-(J1-Pin_21-Pad21)*%
X36030000Y-7500000D03*
%TO.P,J1,22*%
%TO.N,unconnected-(J1-Pin_22-Pad22)*%
X36030000Y-4960000D03*
%TO.P,J1,23*%
%TO.N,unconnected-(J1-Pin_23-Pad23)*%
X38570000Y-7500000D03*
%TO.P,J1,24*%
%TO.N,unconnected-(J1-Pin_24-Pad24)*%
X38570000Y-4960000D03*
%TO.P,J1,25*%
%TO.N,unconnected-(J1-Pin_25-Pad25)*%
X41110000Y-7500000D03*
%TO.P,J1,26*%
%TO.N,unconnected-(J1-Pin_26-Pad26)*%
X41110000Y-4960000D03*
%TO.P,J1,27*%
%TO.N,unconnected-(J1-Pin_27-Pad27)*%
X43650000Y-7500000D03*
%TO.P,J1,28*%
%TO.N,unconnected-(J1-Pin_28-Pad28)*%
X43650000Y-4960000D03*
%TO.P,J1,29*%
%TO.N,unconnected-(J1-Pin_29-Pad29)*%
X46190000Y-7500000D03*
%TO.P,J1,30*%
%TO.N,unconnected-(J1-Pin_30-Pad30)*%
X46190000Y-4960000D03*
%TO.P,J1,31*%
%TO.N,unconnected-(J1-Pin_31-Pad31)*%
X48730000Y-7500000D03*
%TO.P,J1,32*%
%TO.N,unconnected-(J1-Pin_32-Pad32)*%
X48730000Y-4960000D03*
%TO.P,J1,33*%
%TO.N,unconnected-(J1-Pin_33-Pad33)*%
X51270000Y-7500000D03*
%TO.P,J1,34*%
%TO.N,unconnected-(J1-Pin_34-Pad34)*%
X51270000Y-4960000D03*
%TO.P,J1,35*%
%TO.N,unconnected-(J1-Pin_35-Pad35)*%
X53810000Y-7500000D03*
%TO.P,J1,36*%
%TO.N,unconnected-(J1-Pin_36-Pad36)*%
X53810000Y-4960000D03*
%TO.P,J1,37*%
%TO.N,unconnected-(J1-Pin_37-Pad37)*%
X56350000Y-7500000D03*
%TO.P,J1,38*%
%TO.N,unconnected-(J1-Pin_38-Pad38)*%
X56350000Y-4960000D03*
%TO.P,J1,39*%
%TO.N,unconnected-(J1-Pin_39-Pad39)*%
X58890000Y-7500000D03*
%TO.P,J1,40*%
%TO.N,unconnected-(J1-Pin_40-Pad40)*%
X58890000Y-4960000D03*
%TO.P,J1,41*%
%TO.N,unconnected-(J1-Pin_41-Pad41)*%
X61430000Y-7500000D03*
%TO.P,J1,42*%
%TO.N,unconnected-(J1-Pin_42-Pad42)*%
X61430000Y-4960000D03*
%TO.P,J1,43*%
%TO.N,unconnected-(J1-Pin_43-Pad43)*%
X63970000Y-7500000D03*
%TO.P,J1,44*%
%TO.N,unconnected-(J1-Pin_44-Pad44)*%
X63970000Y-4960000D03*
%TO.P,J1,45*%
%TO.N,unconnected-(J1-Pin_45-Pad45)*%
X66510000Y-7500000D03*
%TO.P,J1,46*%
%TO.N,unconnected-(J1-Pin_46-Pad46)*%
X66510000Y-4960000D03*
%TO.P,J1,47*%
%TO.N,unconnected-(J1-Pin_47-Pad47)*%
X69050000Y-7500000D03*
%TO.P,J1,48*%
%TO.N,unconnected-(J1-Pin_48-Pad48)*%
X69050000Y-4960000D03*
%TO.P,J1,49*%
%TO.N,unconnected-(J1-Pin_49-Pad49)*%
X71590000Y-7500000D03*
%TO.P,J1,50*%
%TO.N,unconnected-(J1-Pin_50-Pad50)*%
X71590000Y-4960000D03*
%TO.P,J1,51*%
%TO.N,unconnected-(J1-Pin_51-Pad51)*%
X74130000Y-7500000D03*
%TO.P,J1,52*%
%TO.N,unconnected-(J1-Pin_52-Pad52)*%
X74130000Y-4960000D03*
%TO.P,J1,53*%
%TO.N,unconnected-(J1-Pin_53-Pad53)*%
X76670000Y-7500000D03*
%TO.P,J1,54*%
%TO.N,MAI*%
X76670000Y-4960000D03*
%TO.P,J1,55*%
%TO.N,MI*%
X79210000Y-7500000D03*
%TO.P,J1,56*%
%TO.N,MO*%
X79210000Y-4960000D03*
%TO.P,J1,57*%
%TO.N,unconnected-(J1-Pin_57-Pad57)*%
X81750000Y-7500000D03*
%TO.P,J1,58*%
%TO.N,unconnected-(J1-Pin_58-Pad58)*%
X81750000Y-4960000D03*
%TO.P,J1,59*%
%TO.N,unconnected-(J1-Pin_59-Pad59)*%
X84290000Y-7500000D03*
%TO.P,J1,60*%
%TO.N,unconnected-(J1-Pin_60-Pad60)*%
X84290000Y-4960000D03*
%TO.P,J1,61*%
%TO.N,unconnected-(J1-Pin_61-Pad61)*%
X86830000Y-7500000D03*
%TO.P,J1,62*%
%TO.N,unconnected-(J1-Pin_62-Pad62)*%
X86830000Y-4960000D03*
%TO.P,J1,63*%
%TO.N,+5V*%
X89370000Y-7500000D03*
%TO.P,J1,64*%
%TO.N,GND*%
X89370000Y-4960000D03*
%TD*%
D10*
%TO.P,Q59,1*%
%TO.N,GND*%
X67840000Y-26795000D03*
D11*
%TO.P,Q59,2*%
%TO.N,MAR0*%
X65300000Y-26795000D03*
%TO.P,Q59,3*%
%TO.N,Net-(D4-K)*%
X62760000Y-26795000D03*
%TD*%
D10*
%TO.P,Q41,1*%
%TO.N,Net-(Q41-S)*%
X39720000Y-55370000D03*
D11*
%TO.P,Q41,2*%
%TO.N,D3*%
X42260000Y-55370000D03*
%TO.P,Q41,3*%
%TO.N,MAR3_m1*%
X44800000Y-55370000D03*
%TD*%
D12*
%TO.P,R24,1*%
%TO.N,MAR2_qn*%
X39720000Y-29335000D03*
%TO.P,R24,2*%
%TO.N,+5V*%
X44800000Y-29335000D03*
%TD*%
%TO.P,R20,1*%
%TO.N,+5V*%
X32040000Y-42670000D03*
%TO.P,R20,2*%
%TO.N,MAR2_dn*%
X37120000Y-42670000D03*
%TD*%
%TO.P,C1,1*%
%TO.N,+5V*%
X95000000Y-16500000D03*
%TO.P,C1,2*%
%TO.N,GND*%
X95000000Y-19000000D03*
%TD*%
%TO.P,R34,1*%
%TO.N,MIN*%
X55080000Y-16000000D03*
%TO.P,R34,2*%
%TO.N,+5V*%
X60160000Y-16000000D03*
%TD*%
D10*
%TO.P,Q2,1*%
%TO.N,GND*%
X9000000Y-28700000D03*
D11*
%TO.P,Q2,2*%
%TO.N,CLK*%
X11540000Y-28700000D03*
%TO.P,Q2,3*%
%TO.N,PH1*%
X14080000Y-28700000D03*
%TD*%
D12*
%TO.P,R10,1*%
%TO.N,+5V*%
X16680000Y-37590000D03*
%TO.P,R10,2*%
%TO.N,MAR0_dn*%
X21760000Y-37590000D03*
%TD*%
D13*
%TO.P,J2,1*%
%TO.N,MAR0*%
X40000000Y-95000000D03*
D14*
%TO.P,J2,2*%
%TO.N,MAR0N*%
X40000000Y-92460000D03*
%TO.P,J2,3*%
%TO.N,MAR1*%
X42540000Y-95000000D03*
%TO.P,J2,4*%
%TO.N,MAR1N*%
X42540000Y-92460000D03*
%TO.P,J2,5*%
%TO.N,MAR2*%
X45080000Y-95000000D03*
%TO.P,J2,6*%
%TO.N,MAR2N*%
X45080000Y-92460000D03*
%TO.P,J2,7*%
%TO.N,MAR3*%
X47620000Y-95000000D03*
%TO.P,J2,8*%
%TO.N,MAR3N*%
X47620000Y-92460000D03*
%TO.P,J2,9*%
%TO.N,MIN*%
X50160000Y-95000000D03*
%TO.P,J2,10*%
%TO.N,MON*%
X50160000Y-92460000D03*
%TO.P,J2,11*%
%TO.N,GND*%
X52700000Y-95000000D03*
%TO.P,J2,12*%
X52700000Y-92460000D03*
%TD*%
D12*
%TO.P,R11,1*%
%TO.N,+5V*%
X16680000Y-45845000D03*
%TO.P,R11,2*%
%TO.N,MAR0_m1*%
X21760000Y-45845000D03*
%TD*%
D10*
%TO.P,Q3,1*%
%TO.N,GND*%
X9000000Y-33780000D03*
D11*
%TO.P,Q3,2*%
%TO.N,PH2*%
X11540000Y-33780000D03*
%TO.P,Q3,3*%
%TO.N,PH1*%
X14080000Y-33780000D03*
%TD*%
D10*
%TO.P,Q38,1*%
%TO.N,Net-(Q38-S)*%
X39720000Y-33780000D03*
D11*
%TO.P,Q38,2*%
%TO.N,MAR2*%
X42260000Y-33780000D03*
%TO.P,Q38,3*%
%TO.N,MAR2_qn*%
X44800000Y-33780000D03*
%TD*%
D10*
%TO.P,Q17,1*%
%TO.N,GND*%
X21760000Y-68070000D03*
D11*
%TO.P,Q17,2*%
%TO.N,MAR0_dn*%
X19220000Y-68070000D03*
%TO.P,Q17,3*%
%TO.N,Net-(Q16-S)*%
X16680000Y-68070000D03*
%TD*%
D10*
%TO.P,Q25,1*%
%TO.N,Net-(Q25-S)*%
X24360000Y-68705000D03*
D11*
%TO.P,Q25,2*%
%TO.N,ENM*%
X26900000Y-68705000D03*
%TO.P,Q25,3*%
%TO.N,MAR1_m2*%
X29440000Y-68705000D03*
%TD*%
D15*
%TO.P,H1,1*%
%TO.N,N/C*%
X4000000Y-50000000D03*
%TD*%
D16*
%TO.P,D2,1*%
%TO.N,Net-(D2-K)*%
X57620000Y-59180000D03*
D17*
%TO.P,D2,2*%
%TO.N,Net-(D2-A)*%
X57620000Y-56640000D03*
%TD*%
D10*
%TO.P,Q43,1*%
%TO.N,Net-(Q43-S)*%
X39720000Y-68705000D03*
D11*
%TO.P,Q43,2*%
%TO.N,ENM*%
X42260000Y-68705000D03*
%TO.P,Q43,3*%
%TO.N,MAR3_m2*%
X44800000Y-68705000D03*
%TD*%
D10*
%TO.P,Q26,1*%
%TO.N,GND*%
X24360000Y-73785000D03*
D11*
%TO.P,Q26,2*%
%TO.N,MAR1_dn*%
X26900000Y-73785000D03*
%TO.P,Q26,3*%
%TO.N,Net-(Q25-S)*%
X29440000Y-73785000D03*
%TD*%
D12*
%TO.P,R36,1*%
%TO.N,Net-(D1-A)*%
X55080000Y-37590000D03*
%TO.P,R36,2*%
%TO.N,+5V*%
X60160000Y-37590000D03*
%TD*%
%TO.P,R39,1*%
%TO.N,+5V*%
X62760000Y-16000000D03*
%TO.P,R39,2*%
%TO.N,Net-(D4-A)*%
X67840000Y-16000000D03*
%TD*%
D10*
%TO.P,Q30,1*%
%TO.N,GND*%
X37120000Y-38225000D03*
D11*
%TO.P,Q30,2*%
%TO.N,MAR1_m2*%
X34580000Y-38225000D03*
%TO.P,Q30,3*%
%TO.N,Net-(Q29-S)*%
X32040000Y-38225000D03*
%TD*%
D10*
%TO.P,Q37,1*%
%TO.N,GND*%
X39720000Y-25525000D03*
D11*
%TO.P,Q37,2*%
%TO.N,MAR2_qn*%
X42260000Y-25525000D03*
%TO.P,Q37,3*%
%TO.N,Net-(Q36-S)*%
X44800000Y-25525000D03*
%TD*%
D12*
%TO.P,R5,1*%
%TO.N,D1*%
X9000000Y-59180000D03*
%TO.P,R5,2*%
%TO.N,+5V*%
X14080000Y-59180000D03*
%TD*%
%TO.P,R3,1*%
%TO.N,PH2*%
X9000000Y-37590000D03*
%TO.P,R3,2*%
%TO.N,+5V*%
X14080000Y-37590000D03*
%TD*%
%TO.P,R14,1*%
%TO.N,MAR0_qn*%
X24360000Y-29335000D03*
%TO.P,R14,2*%
%TO.N,+5V*%
X29440000Y-29335000D03*
%TD*%
%TO.P,R18,1*%
%TO.N,+5V*%
X32040000Y-16000000D03*
%TO.P,R18,2*%
%TO.N,MAR1*%
X37120000Y-16000000D03*
%TD*%
D10*
%TO.P,Q57,1*%
%TO.N,GND*%
X55080000Y-63625000D03*
D11*
%TO.P,Q57,2*%
%TO.N,MAR2*%
X57620000Y-63625000D03*
%TO.P,Q57,3*%
%TO.N,Net-(D2-K)*%
X60160000Y-63625000D03*
%TD*%
D10*
%TO.P,Q44,1*%
%TO.N,GND*%
X39720000Y-73785000D03*
D11*
%TO.P,Q44,2*%
%TO.N,MAR3_dn*%
X42260000Y-73785000D03*
%TO.P,Q44,3*%
%TO.N,Net-(Q43-S)*%
X44800000Y-73785000D03*
%TD*%
D10*
%TO.P,Q7,1*%
%TO.N,GND*%
X9000000Y-63625000D03*
D11*
%TO.P,Q7,2*%
%TO.N,BUS1#*%
X11540000Y-63625000D03*
%TO.P,Q7,3*%
%TO.N,D1*%
X14080000Y-63625000D03*
%TD*%
D12*
%TO.P,R19,1*%
%TO.N,+5V*%
X32040000Y-29335000D03*
%TO.P,R19,2*%
%TO.N,MAR1_qn*%
X37120000Y-29335000D03*
%TD*%
%TO.P,R6,1*%
%TO.N,D2*%
X9000000Y-67435000D03*
%TO.P,R6,2*%
%TO.N,+5V*%
X14080000Y-67435000D03*
%TD*%
%TO.P,R7,1*%
%TO.N,D3*%
X9000000Y-75690000D03*
%TO.P,R7,2*%
%TO.N,+5V*%
X14080000Y-75690000D03*
%TD*%
%TO.P,R8,1*%
%TO.N,+5V*%
X16680000Y-16000000D03*
%TO.P,R8,2*%
%TO.N,ENMN*%
X21760000Y-16000000D03*
%TD*%
D10*
%TO.P,Q29,1*%
%TO.N,Net-(Q29-S)*%
X37120000Y-33145000D03*
D11*
%TO.P,Q29,2*%
%TO.N,MAR1*%
X34580000Y-33145000D03*
%TO.P,Q29,3*%
%TO.N,MAR1_qn*%
X32040000Y-33145000D03*
%TD*%
D10*
%TO.P,Q23,1*%
%TO.N,Net-(Q23-S)*%
X24360000Y-55370000D03*
D11*
%TO.P,Q23,2*%
%TO.N,D1*%
X26900000Y-55370000D03*
%TO.P,Q23,3*%
%TO.N,MAR1_m1*%
X29440000Y-55370000D03*
%TD*%
D12*
%TO.P,R28,1*%
%TO.N,+5V*%
X47400000Y-16000000D03*
%TO.P,R28,2*%
%TO.N,MAR3*%
X52480000Y-16000000D03*
%TD*%
D10*
%TO.P,Q33,1*%
%TO.N,GND*%
X37120000Y-59815000D03*
D11*
%TO.P,Q33,2*%
%TO.N,ENM*%
X34580000Y-59815000D03*
%TO.P,Q33,3*%
%TO.N,Net-(Q32-S)*%
X32040000Y-59815000D03*
%TD*%
D12*
%TO.P,R23,1*%
%TO.N,MAR2*%
X39720000Y-16000000D03*
%TO.P,R23,2*%
%TO.N,+5V*%
X44800000Y-16000000D03*
%TD*%
%TO.P,R33,1*%
%TO.N,+5V*%
X47400000Y-67435000D03*
%TO.P,R33,2*%
%TO.N,MAR3N*%
X52480000Y-67435000D03*
%TD*%
D10*
%TO.P,Q42,1*%
%TO.N,GND*%
X39720000Y-60450000D03*
D11*
%TO.P,Q42,2*%
%TO.N,ENM*%
X42260000Y-60450000D03*
%TO.P,Q42,3*%
%TO.N,Net-(Q41-S)*%
X44800000Y-60450000D03*
%TD*%
D12*
%TO.P,R26,1*%
%TO.N,MAR3_m1*%
X39720000Y-50925000D03*
%TO.P,R26,2*%
%TO.N,+5V*%
X44800000Y-50925000D03*
%TD*%
D10*
%TO.P,Q32,1*%
%TO.N,Net-(Q32-S)*%
X37120000Y-54735000D03*
D11*
%TO.P,Q32,2*%
%TO.N,D2*%
X34580000Y-54735000D03*
%TO.P,Q32,3*%
%TO.N,MAR2_m1*%
X32040000Y-54735000D03*
%TD*%
D16*
%TO.P,D4,1*%
%TO.N,Net-(D4-K)*%
X65300000Y-22350000D03*
D17*
%TO.P,D4,2*%
%TO.N,Net-(D4-A)*%
X65300000Y-19810000D03*
%TD*%
D10*
%TO.P,Q18,1*%
%TO.N,Net-(Q18-S)*%
X24360000Y-20445000D03*
D11*
%TO.P,Q18,2*%
%TO.N,MAR0_m1*%
X26900000Y-20445000D03*
%TO.P,Q18,3*%
%TO.N,MAR0*%
X29440000Y-20445000D03*
%TD*%
D10*
%TO.P,Q21,1*%
%TO.N,GND*%
X24360000Y-38860000D03*
D11*
%TO.P,Q21,2*%
%TO.N,MAR0_m2*%
X26900000Y-38860000D03*
%TO.P,Q21,3*%
%TO.N,Net-(Q20-S)*%
X29440000Y-38860000D03*
%TD*%
D10*
%TO.P,Q15,1*%
%TO.N,GND*%
X21760000Y-54735000D03*
D11*
%TO.P,Q15,2*%
%TO.N,ENM*%
X19220000Y-54735000D03*
%TO.P,Q15,3*%
%TO.N,Net-(Q14-S)*%
X16680000Y-54735000D03*
%TD*%
D10*
%TO.P,Q6,1*%
%TO.N,GND*%
X9000000Y-55370000D03*
D11*
%TO.P,Q6,2*%
%TO.N,BUS0#*%
X11540000Y-55370000D03*
%TO.P,Q6,3*%
%TO.N,D0*%
X14080000Y-55370000D03*
%TD*%
D16*
%TO.P,D1,1*%
%TO.N,Net-(D1-K)*%
X57620000Y-43940000D03*
D17*
%TO.P,D1,2*%
%TO.N,Net-(D1-A)*%
X57620000Y-41400000D03*
%TD*%
D10*
%TO.P,Q46,1*%
%TO.N,GND*%
X52480000Y-24890000D03*
D11*
%TO.P,Q46,2*%
%TO.N,MAR3_qn*%
X49940000Y-24890000D03*
%TO.P,Q46,3*%
%TO.N,Net-(Q45-S)*%
X47400000Y-24890000D03*
%TD*%
D10*
%TO.P,Q31,1*%
%TO.N,GND*%
X37120000Y-46480000D03*
D11*
%TO.P,Q31,2*%
%TO.N,D2*%
X34580000Y-46480000D03*
%TO.P,Q31,3*%
%TO.N,MAR2_dn*%
X32040000Y-46480000D03*
%TD*%
D10*
%TO.P,Q10,1*%
%TO.N,Net-(Q10-S)*%
X21760000Y-19810000D03*
D11*
%TO.P,Q10,2*%
%TO.N,MAI*%
X19220000Y-19810000D03*
%TO.P,Q10,3*%
%TO.N,ENMN*%
X16680000Y-19810000D03*
%TD*%
D10*
%TO.P,Q28,1*%
%TO.N,GND*%
X37120000Y-24890000D03*
D11*
%TO.P,Q28,2*%
%TO.N,MAR1_qn*%
X34580000Y-24890000D03*
%TO.P,Q28,3*%
%TO.N,Net-(Q27-S)*%
X32040000Y-24890000D03*
%TD*%
D12*
%TO.P,R32,1*%
%TO.N,+5V*%
X47400000Y-59180000D03*
%TO.P,R32,2*%
%TO.N,MAR2N*%
X52480000Y-59180000D03*
%TD*%
D18*
%TO.P,C2,1*%
%TO.N,+5V*%
X95000000Y-26000000D03*
D12*
%TO.P,C2,2*%
%TO.N,GND*%
X95000000Y-28000000D03*
%TD*%
D10*
%TO.P,Q11,1*%
%TO.N,GND*%
X21760000Y-24890000D03*
D11*
%TO.P,Q11,2*%
%TO.N,PH1*%
X19220000Y-24890000D03*
%TO.P,Q11,3*%
%TO.N,Net-(Q10-S)*%
X16680000Y-24890000D03*
%TD*%
D10*
%TO.P,Q8,1*%
%TO.N,GND*%
X9000000Y-71880000D03*
D11*
%TO.P,Q8,2*%
%TO.N,BUS2#*%
X11540000Y-71880000D03*
%TO.P,Q8,3*%
%TO.N,D2*%
X14080000Y-71880000D03*
%TD*%
D12*
%TO.P,R38,1*%
%TO.N,Net-(D3-A)*%
X55080000Y-68070000D03*
%TO.P,R38,2*%
%TO.N,+5V*%
X60160000Y-68070000D03*
%TD*%
D16*
%TO.P,D3,1*%
%TO.N,Net-(D3-K)*%
X57620000Y-74420000D03*
D17*
%TO.P,D3,2*%
%TO.N,Net-(D3-A)*%
X57620000Y-71880000D03*
%TD*%
D10*
%TO.P,Q9,1*%
%TO.N,GND*%
X9000000Y-80135000D03*
D11*
%TO.P,Q9,2*%
%TO.N,BUS3#*%
X11540000Y-80135000D03*
%TO.P,Q9,3*%
%TO.N,D3*%
X14080000Y-80135000D03*
%TD*%
D10*
%TO.P,Q24,1*%
%TO.N,GND*%
X24360000Y-60450000D03*
D11*
%TO.P,Q24,2*%
%TO.N,ENM*%
X26900000Y-60450000D03*
%TO.P,Q24,3*%
%TO.N,Net-(Q23-S)*%
X29440000Y-60450000D03*
%TD*%
D10*
%TO.P,Q55,1*%
%TO.N,GND*%
X55080000Y-33780000D03*
D11*
%TO.P,Q55,2*%
%TO.N,MO*%
X57620000Y-33780000D03*
%TO.P,Q55,3*%
%TO.N,MON*%
X60160000Y-33780000D03*
%TD*%
D10*
%TO.P,Q52,1*%
%TO.N,GND*%
X52480000Y-71245000D03*
D11*
%TO.P,Q52,2*%
%TO.N,MAR3*%
X49940000Y-71245000D03*
%TO.P,Q52,3*%
%TO.N,MAR3N*%
X47400000Y-71245000D03*
%TD*%
D10*
%TO.P,Q19,1*%
%TO.N,GND*%
X24360000Y-25525000D03*
D11*
%TO.P,Q19,2*%
%TO.N,MAR0_qn*%
X26900000Y-25525000D03*
%TO.P,Q19,3*%
%TO.N,Net-(Q18-S)*%
X29440000Y-25525000D03*
%TD*%
D10*
%TO.P,Q12,1*%
%TO.N,GND*%
X21760000Y-33145000D03*
D11*
%TO.P,Q12,2*%
%TO.N,ENMN*%
X19220000Y-33145000D03*
%TO.P,Q12,3*%
%TO.N,ENM*%
X16680000Y-33145000D03*
%TD*%
D12*
%TO.P,R1,1*%
%TO.N,CLKN*%
X9000000Y-16000000D03*
%TO.P,R1,2*%
%TO.N,+5V*%
X14080000Y-16000000D03*
%TD*%
D10*
%TO.P,Q27,1*%
%TO.N,Net-(Q27-S)*%
X37120000Y-19810000D03*
D11*
%TO.P,Q27,2*%
%TO.N,MAR1_m1*%
X34580000Y-19810000D03*
%TO.P,Q27,3*%
%TO.N,MAR1*%
X32040000Y-19810000D03*
%TD*%
D10*
%TO.P,Q14,1*%
%TO.N,Net-(Q14-S)*%
X21760000Y-49655000D03*
D11*
%TO.P,Q14,2*%
%TO.N,D0*%
X19220000Y-49655000D03*
%TO.P,Q14,3*%
%TO.N,MAR0_m1*%
X16680000Y-49655000D03*
%TD*%
D12*
%TO.P,R12,1*%
%TO.N,+5V*%
X16680000Y-59180000D03*
%TO.P,R12,2*%
%TO.N,MAR0_m2*%
X21760000Y-59180000D03*
%TD*%
D10*
%TO.P,Q16,1*%
%TO.N,Net-(Q16-S)*%
X21760000Y-62990000D03*
D11*
%TO.P,Q16,2*%
%TO.N,ENM*%
X19220000Y-62990000D03*
%TO.P,Q16,3*%
%TO.N,MAR0_m2*%
X16680000Y-62990000D03*
%TD*%
D10*
%TO.P,Q22,1*%
%TO.N,GND*%
X24360000Y-47115000D03*
D11*
%TO.P,Q22,2*%
%TO.N,D1*%
X26900000Y-47115000D03*
%TO.P,Q22,3*%
%TO.N,MAR1_dn*%
X29440000Y-47115000D03*
%TD*%
D10*
%TO.P,Q39,1*%
%TO.N,GND*%
X39720000Y-38860000D03*
D11*
%TO.P,Q39,2*%
%TO.N,MAR2_m2*%
X42260000Y-38860000D03*
%TO.P,Q39,3*%
%TO.N,Net-(Q38-S)*%
X44800000Y-38860000D03*
%TD*%
D12*
%TO.P,R22,1*%
%TO.N,+5V*%
X32040000Y-64260000D03*
%TO.P,R22,2*%
%TO.N,MAR2_m2*%
X37120000Y-64260000D03*
%TD*%
D10*
%TO.P,Q51,1*%
%TO.N,GND*%
X52480000Y-62990000D03*
D11*
%TO.P,Q51,2*%
%TO.N,MAR2*%
X49940000Y-62990000D03*
%TO.P,Q51,3*%
%TO.N,MAR2N*%
X47400000Y-62990000D03*
%TD*%
D10*
%TO.P,Q49,1*%
%TO.N,GND*%
X52480000Y-46480000D03*
D11*
%TO.P,Q49,2*%
%TO.N,MAR0*%
X49940000Y-46480000D03*
%TO.P,Q49,3*%
%TO.N,MAR0N*%
X47400000Y-46480000D03*
%TD*%
D10*
%TO.P,Q58,1*%
%TO.N,GND*%
X55080000Y-78865000D03*
D11*
%TO.P,Q58,2*%
%TO.N,MAR1*%
X57620000Y-78865000D03*
%TO.P,Q58,3*%
%TO.N,Net-(D3-K)*%
X60160000Y-78865000D03*
%TD*%
D15*
%TO.P,H2,1*%
%TO.N,N/C*%
X96000000Y-50000000D03*
%TD*%
D10*
%TO.P,Q34,1*%
%TO.N,Net-(Q34-S)*%
X37120000Y-68070000D03*
D11*
%TO.P,Q34,2*%
%TO.N,ENM*%
X34580000Y-68070000D03*
%TO.P,Q34,3*%
%TO.N,MAR2_m2*%
X32040000Y-68070000D03*
%TD*%
D10*
%TO.P,Q1,1*%
%TO.N,GND*%
X9000000Y-20445000D03*
D11*
%TO.P,Q1,2*%
%TO.N,CLK*%
X11540000Y-20445000D03*
%TO.P,Q1,3*%
%TO.N,CLKN*%
X14080000Y-20445000D03*
%TD*%
D12*
%TO.P,R35,1*%
%TO.N,MON*%
X55080000Y-29335000D03*
%TO.P,R35,2*%
%TO.N,+5V*%
X60160000Y-29335000D03*
%TD*%
D10*
%TO.P,Q45,1*%
%TO.N,Net-(Q45-S)*%
X52480000Y-19810000D03*
D11*
%TO.P,Q45,2*%
%TO.N,MAR3_m1*%
X49940000Y-19810000D03*
%TO.P,Q45,3*%
%TO.N,MAR3*%
X47400000Y-19810000D03*
%TD*%
D12*
%TO.P,R25,1*%
%TO.N,MAR3_dn*%
X39720000Y-42670000D03*
%TO.P,R25,2*%
%TO.N,+5V*%
X44800000Y-42670000D03*
%TD*%
D10*
%TO.P,Q4,1*%
%TO.N,GND*%
X9000000Y-42035000D03*
D11*
%TO.P,Q4,2*%
%TO.N,CLKN*%
X11540000Y-42035000D03*
%TO.P,Q4,3*%
%TO.N,PH2*%
X14080000Y-42035000D03*
%TD*%
D12*
%TO.P,R31,1*%
%TO.N,+5V*%
X47400000Y-50925000D03*
%TO.P,R31,2*%
%TO.N,MAR1N*%
X52480000Y-50925000D03*
%TD*%
%TO.P,R27,1*%
%TO.N,MAR3_m2*%
X39720000Y-64260000D03*
%TO.P,R27,2*%
%TO.N,+5V*%
X44800000Y-64260000D03*
%TD*%
D19*
%TO.N,+5V*%
X15410000Y-14000000D03*
X30770000Y-14000000D03*
X61490000Y-14000000D03*
X89370000Y-14000000D03*
X10630000Y-14000000D03*
X46130000Y-14000000D03*
%TO.N,GND*%
X89370000Y-2460000D03*
X52700000Y-97500000D03*
X53810000Y-12500000D03*
X38450000Y-12500000D03*
X18250000Y-2460000D03*
X52700000Y-89960000D03*
X95000000Y-30500000D03*
X23090000Y-12500000D03*
X69170000Y-12500000D03*
X95000000Y-21500000D03*
X7730000Y-12500000D03*
%TO.N,MAR0N*%
X49162300Y-67250700D03*
%TO.N,MAR1_dn*%
X33038500Y-58115900D03*
%TO.N,MAR2*%
X44870700Y-37251000D03*
%TO.N,MAR3_m2*%
X48962000Y-49729900D03*
%TO.N,MO*%
X70402000Y-19075700D03*
%TO.N,Net-(Q32-S)*%
X32934900Y-56283900D03*
%TD*%
%TO.N,+5V*%
D20*
X95000000Y-14000000D02*
X95000000Y-16500000D01*
D21*
X15410000Y-14000000D02*
X61490000Y-14000000D01*
D20*
X98000000Y-26000000D02*
X95000000Y-26000000D01*
X10630000Y-7500000D02*
X10630000Y-4960000D01*
X98000000Y-14000000D02*
X98000000Y-26000000D01*
D21*
X10630000Y-14000000D02*
X15410000Y-14000000D01*
X61490000Y-14000000D02*
X98000000Y-14000000D01*
%TO.N,CLKN*%
D22*
X7927600Y-23834400D02*
X7927600Y-38422600D01*
X9635000Y-16000000D02*
X9000000Y-16000000D01*
X14080000Y-20445000D02*
X9635000Y-16000000D01*
X7927600Y-38422600D02*
X11540000Y-42035000D01*
X11968700Y-22556300D02*
X9205700Y-22556300D01*
X9205700Y-22556300D02*
X7927600Y-23834400D01*
X14080000Y-20445000D02*
X11968700Y-22556300D01*
%TO.N,D0*%
X13792500Y-55082500D02*
X9635000Y-50925000D01*
X19220000Y-49655000D02*
X13792500Y-55082500D01*
X14080000Y-55370000D02*
X13792500Y-55082500D01*
X9635000Y-50925000D02*
X9000000Y-50925000D01*
%TO.N,D1*%
X21512900Y-60919700D02*
X26900000Y-55532600D01*
X26900000Y-55532600D02*
X26900000Y-55370000D01*
X9635000Y-59180000D02*
X14080000Y-63625000D01*
X14080000Y-63625000D02*
X14493800Y-64038800D01*
X19776300Y-60919700D02*
X21512900Y-60919700D01*
X9000000Y-59180000D02*
X9635000Y-59180000D01*
X18218300Y-62868400D02*
X18218300Y-62477700D01*
X18218300Y-62477700D02*
X19776300Y-60919700D01*
X17047900Y-64038800D02*
X18218300Y-62868400D01*
X14493800Y-64038800D02*
X17047900Y-64038800D01*
%TO.N,D2*%
X30796800Y-68775400D02*
X30796800Y-67497700D01*
X9000000Y-67435000D02*
X9635000Y-67435000D01*
X29865500Y-69706700D02*
X30796800Y-68775400D01*
X16253300Y-69706700D02*
X29865500Y-69706700D01*
X14080000Y-71880000D02*
X16253300Y-69706700D01*
X36039100Y-62255400D02*
X36039100Y-56194100D01*
X36039100Y-56194100D02*
X34580000Y-54735000D01*
X9635000Y-67435000D02*
X14080000Y-71880000D01*
X30796800Y-67497700D02*
X36039100Y-62255400D01*
%TO.N,D3*%
X40727800Y-56902200D02*
X42260000Y-55370000D01*
X14080000Y-80135000D02*
X9635000Y-75690000D01*
X14080000Y-80135000D02*
X23605000Y-70610000D01*
X9635000Y-75690000D02*
X9000000Y-75690000D01*
X33310000Y-67885400D02*
X35757700Y-65437700D01*
X35757700Y-65437700D02*
X37433200Y-65437700D01*
X40727800Y-61306800D02*
X40727800Y-56902200D01*
X38340400Y-63694200D02*
X40727800Y-61306800D01*
X30999700Y-70610000D02*
X33310000Y-68299700D01*
X38340400Y-64530500D02*
X38340400Y-63694200D01*
X37433200Y-65437700D02*
X38340400Y-64530500D01*
X33310000Y-68299700D02*
X33310000Y-67885400D01*
X23605000Y-70610000D02*
X30999700Y-70610000D01*
%TO.N,ENM*%
X33577600Y-58812600D02*
X28537400Y-58812600D01*
X16680000Y-33145000D02*
X20490000Y-29335000D01*
X40623300Y-67068300D02*
X35581700Y-67068300D01*
X19220000Y-62990000D02*
X20338800Y-61871200D01*
X34580000Y-59815000D02*
X33577600Y-58812600D01*
X20338800Y-61871200D02*
X25478800Y-61871200D01*
X40623300Y-67068300D02*
X42260000Y-65431600D01*
X42260000Y-68705000D02*
X40623300Y-67068300D01*
X20490000Y-29335000D02*
X21760000Y-29335000D01*
X42260000Y-65431600D02*
X42260000Y-60450000D01*
X28537400Y-58812600D02*
X26900000Y-60450000D01*
X25478800Y-61871200D02*
X26900000Y-60450000D01*
X35581700Y-67068300D02*
X34580000Y-68070000D01*
%TO.N,ENMN*%
X16680000Y-19810000D02*
X17708000Y-20838000D01*
X20758300Y-17001700D02*
X21760000Y-16000000D01*
X19615700Y-20838000D02*
X20758300Y-19695400D01*
X20758300Y-19695400D02*
X20758300Y-17001700D01*
X17708000Y-20838000D02*
X19615700Y-20838000D01*
%TO.N,GND*%
D20*
X18250000Y-4960000D02*
X18250000Y-2460000D01*
X13170000Y-4960000D02*
X18250000Y-4960000D01*
X52700000Y-92460000D02*
X52700000Y-89960000D01*
D21*
X7730000Y-12500000D02*
X69170000Y-12500000D01*
D20*
X89370000Y-4960000D02*
X89370000Y-2460000D01*
X52700000Y-95000000D02*
X52700000Y-97500000D01*
X13170000Y-7500000D02*
X13170000Y-4960000D01*
X95000000Y-19000000D02*
X95000000Y-21500000D01*
X13170000Y-7500000D02*
X13170000Y-12500000D01*
X95000000Y-28000000D02*
X95000000Y-30500000D01*
%TO.N,MAI*%
D22*
X9970200Y-13727600D02*
X9970200Y-14270200D01*
X17350300Y-17940300D02*
X19220000Y-19810000D01*
X75400000Y-6230000D02*
X75400000Y-7863000D01*
X76670000Y-4960000D02*
X75400000Y-6230000D01*
X70111300Y-13151700D02*
X10546100Y-13151700D01*
X75400000Y-7863000D02*
X70111300Y-13151700D01*
X10546100Y-13151700D02*
X9970200Y-13727600D01*
X13640300Y-17940300D02*
X17350300Y-17940300D01*
X9970200Y-14270200D02*
X13640300Y-17940300D01*
%TO.N,MAR0*%
X28170100Y-32509900D02*
X26900000Y-33780000D01*
X51478300Y-25002400D02*
X50336200Y-23860300D01*
X49940000Y-46479900D02*
X49940000Y-46480000D01*
X57676300Y-35142800D02*
X57538600Y-35142800D01*
X48177700Y-23004300D02*
X50979800Y-20202200D01*
X50336200Y-23860300D02*
X49553100Y-23860300D01*
X50474300Y-93730000D02*
X51267800Y-92936500D01*
X60586200Y-32758500D02*
X59763800Y-32758500D01*
X29829700Y-20834700D02*
X28170100Y-22494300D01*
X46349800Y-25344000D02*
X46349800Y-24482700D01*
X58890100Y-33632200D02*
X58890100Y-33929000D01*
X56081700Y-33685900D02*
X56081700Y-31824000D01*
X47819200Y-20816000D02*
X46950800Y-20816000D01*
X51478300Y-25744300D02*
X51478300Y-25002400D01*
X49542700Y-18790700D02*
X48892600Y-19440800D01*
X48892600Y-19742600D02*
X47819200Y-20816000D01*
X47828200Y-23004300D02*
X48177700Y-23004300D01*
X40000000Y-95000000D02*
X41138300Y-96138300D01*
X61232900Y-80108600D02*
X61232900Y-33405200D01*
X58890100Y-33929000D02*
X57676300Y-35142800D01*
X48648000Y-24765400D02*
X48648000Y-25081700D01*
X50979800Y-20202200D02*
X50979800Y-19382400D01*
X51267800Y-92936500D02*
X51267800Y-90073700D01*
X59763800Y-32758500D02*
X58890100Y-33632200D01*
X49553100Y-23860300D02*
X48648000Y-24765400D01*
X50388100Y-18790700D02*
X49542700Y-18790700D01*
X34232700Y-18740700D02*
X33041700Y-19931700D01*
X50160300Y-46479900D02*
X49940000Y-46479900D01*
X61232900Y-33405200D02*
X60586200Y-32758500D01*
X49845700Y-93730000D02*
X50474300Y-93730000D01*
X48648000Y-25081700D02*
X47766100Y-25963600D01*
X57538600Y-39101600D02*
X50160300Y-46479900D01*
X46969400Y-25963600D02*
X46349800Y-25344000D01*
X41138300Y-96138300D02*
X48082800Y-96138300D01*
X56081700Y-31824000D02*
X53542500Y-29284800D01*
X48890100Y-94685600D02*
X49845700Y-93730000D01*
X46349800Y-24482700D02*
X47828200Y-23004300D01*
X65300000Y-28044700D02*
X60586200Y-32758500D01*
X48892600Y-19440800D02*
X48892600Y-19742600D01*
X32432000Y-20834700D02*
X29829700Y-20834700D01*
X57538600Y-35142800D02*
X56081700Y-33685900D01*
X53542500Y-27808500D02*
X51478300Y-25744300D01*
X57538600Y-35142800D02*
X57538600Y-39101600D01*
X28170100Y-22494300D02*
X28170100Y-32509900D01*
X47766100Y-25963600D02*
X46969400Y-25963600D01*
X46950800Y-20816000D02*
X44875500Y-18740700D01*
X33041700Y-19931700D02*
X33041700Y-20225000D01*
X33041700Y-20225000D02*
X32432000Y-20834700D01*
X51267800Y-90073700D02*
X61232900Y-80108600D01*
X44875500Y-18740700D02*
X34232700Y-18740700D01*
X48082800Y-96138300D02*
X48890100Y-95331000D01*
X53542500Y-29284800D02*
X53542500Y-27808500D01*
X29829700Y-20834700D02*
X29440000Y-20445000D01*
X65300000Y-26795000D02*
X65300000Y-28044700D01*
X48890100Y-95331000D02*
X48890100Y-94685600D01*
X50979800Y-19382400D02*
X50388100Y-18790700D01*
%TO.N,MAR0N*%
X47400000Y-46480000D02*
X51210000Y-42670000D01*
X46075500Y-86384500D02*
X46075500Y-70337500D01*
X51210000Y-42670000D02*
X52480000Y-42670000D01*
X46075500Y-70337500D02*
X49162300Y-67250700D01*
X40000000Y-92460000D02*
X46075500Y-86384500D01*
%TO.N,MAR0_dn*%
X20490000Y-37590000D02*
X21760000Y-37590000D01*
X16680000Y-41400000D02*
X20490000Y-37590000D01*
%TO.N,MAR0_m1*%
X25735100Y-39807600D02*
X25735100Y-21609900D01*
X21760000Y-45845000D02*
X21760000Y-43782700D01*
X25735100Y-21609900D02*
X26900000Y-20445000D01*
X20490000Y-45845000D02*
X16680000Y-49655000D01*
X21760000Y-43782700D02*
X25735100Y-39807600D01*
X21760000Y-45845000D02*
X20490000Y-45845000D01*
%TO.N,MAR0_m2*%
X26900000Y-42129700D02*
X23014900Y-46014800D01*
X20490000Y-59180000D02*
X16680000Y-62990000D01*
X23014900Y-46014800D02*
X23014900Y-57925100D01*
X26900000Y-38860000D02*
X26900000Y-42129700D01*
X23014900Y-57925100D02*
X21760000Y-59180000D01*
X21760000Y-59180000D02*
X20490000Y-59180000D01*
%TO.N,MAR1*%
X53779900Y-75547500D02*
X53779900Y-67203400D01*
X43810100Y-92152300D02*
X43810100Y-93729900D01*
X57097400Y-78865000D02*
X57620000Y-78865000D01*
X52300200Y-65723700D02*
X48673500Y-65723700D01*
X43810100Y-93729900D02*
X42540000Y-95000000D01*
X46320800Y-63371000D02*
X46320800Y-58354200D01*
X53779900Y-67203400D02*
X52300200Y-65723700D01*
X48673500Y-65723700D02*
X46320800Y-63371000D01*
X57097400Y-78865000D02*
X43810100Y-92152300D01*
X46320800Y-58354200D02*
X49940000Y-54735000D01*
X57097400Y-78865000D02*
X53779900Y-75547500D01*
%TO.N,MAR1N*%
X51210000Y-50925000D02*
X52480000Y-50925000D01*
X47400000Y-54735000D02*
X51210000Y-50925000D01*
%TO.N,MAR1_dn*%
X30564200Y-48239200D02*
X30564200Y-55641600D01*
X30564200Y-55641600D02*
X33038500Y-58115900D01*
X29440000Y-47115000D02*
X30564200Y-48239200D01*
%TO.N,MAR1_m1*%
X25801500Y-50118500D02*
X24995000Y-50925000D01*
X24995000Y-50925000D02*
X24360000Y-50925000D01*
X34580000Y-19810000D02*
X30740100Y-23649900D01*
X30740100Y-23649900D02*
X30740100Y-39651100D01*
X25801500Y-44589700D02*
X25801500Y-50118500D01*
X30740100Y-39651100D02*
X25801500Y-44589700D01*
X29440000Y-55370000D02*
X24995000Y-50925000D01*
%TO.N,MAR1_m2*%
X30988300Y-55316900D02*
X30988300Y-41816700D01*
X30988300Y-41816700D02*
X34580000Y-38225000D01*
X29440000Y-68357100D02*
X35633800Y-62163300D01*
X33348400Y-57153300D02*
X32824700Y-57153300D01*
X29440000Y-68357100D02*
X28457100Y-68357100D01*
X28457100Y-68357100D02*
X24360000Y-64260000D01*
X29440000Y-68705000D02*
X29440000Y-68357100D01*
X35633800Y-59438700D02*
X33348400Y-57153300D01*
X35633800Y-62163300D02*
X35633800Y-59438700D01*
X32824700Y-57153300D02*
X30988300Y-55316900D01*
%TO.N,MAR1_qn*%
X37047800Y-29262800D02*
X35922200Y-29262800D01*
X35922200Y-26232200D02*
X34580000Y-24890000D01*
X37120000Y-29335000D02*
X37047800Y-29262800D01*
X35922200Y-29262800D02*
X35922200Y-26232200D01*
X35922200Y-29262800D02*
X32040000Y-33145000D01*
%TO.N,MAR2*%
X55683700Y-61688700D02*
X53596600Y-61688700D01*
X44870700Y-37251000D02*
X45989800Y-38370100D01*
X57620000Y-63625000D02*
X55683700Y-61688700D01*
X53596600Y-50525300D02*
X53596600Y-61688700D01*
X45989800Y-38370100D02*
X45989800Y-46998300D01*
X51320700Y-48249400D02*
X53596600Y-50525300D01*
X45989800Y-46998300D02*
X47240900Y-48249400D01*
X51241300Y-61688700D02*
X49940000Y-62990000D01*
X47240900Y-48249400D02*
X51320700Y-48249400D01*
X53596600Y-61688700D02*
X51241300Y-61688700D01*
%TO.N,MAR2N*%
X49723100Y-64195200D02*
X48484600Y-62956600D01*
X52938400Y-64440200D02*
X50101400Y-64440200D01*
X58622800Y-79284000D02*
X58622800Y-77578700D01*
X56468300Y-67970100D02*
X52938400Y-64440200D01*
X49856400Y-64195200D02*
X49723100Y-64195200D01*
X48484600Y-62956600D02*
X52261200Y-59180000D01*
X52261200Y-59180000D02*
X52480000Y-59180000D01*
X47400000Y-62990000D02*
X48451200Y-62990000D01*
X56468300Y-75424200D02*
X56468300Y-67970100D01*
X48451200Y-62990000D02*
X48484600Y-62956600D01*
X58622800Y-77578700D02*
X56468300Y-75424200D01*
X45446800Y-92460000D02*
X58622800Y-79284000D01*
X50101400Y-64440200D02*
X49856400Y-64195200D01*
X45080000Y-92460000D02*
X45446800Y-92460000D01*
%TO.N,MAR2_dn*%
X32040000Y-46480000D02*
X35850000Y-42670000D01*
X35850000Y-42670000D02*
X37120000Y-42670000D01*
%TO.N,MAR2_m1*%
X41258300Y-19443300D02*
X42260000Y-20445000D01*
X37120000Y-50925000D02*
X38404800Y-49640200D01*
X38839900Y-19443300D02*
X41258300Y-19443300D01*
X38404800Y-19878400D02*
X38839900Y-19443300D01*
X32040000Y-54735000D02*
X35850000Y-50925000D01*
X38404800Y-49640200D02*
X38404800Y-19878400D01*
X35850000Y-50925000D02*
X37120000Y-50925000D01*
%TO.N,MAR2_m2*%
X40721700Y-48113700D02*
X38420100Y-50415300D01*
X38420100Y-50415300D02*
X38420100Y-62959900D01*
X32040000Y-68070000D02*
X35850000Y-64260000D01*
X38420100Y-62959900D02*
X37120000Y-64260000D01*
X42260000Y-41702600D02*
X40721700Y-43240900D01*
X42260000Y-38860000D02*
X42260000Y-41702600D01*
X40721700Y-43240900D02*
X40721700Y-48113700D01*
X35850000Y-64260000D02*
X37120000Y-64260000D01*
%TO.N,MAR2_qn*%
X40355000Y-29335000D02*
X44800000Y-33780000D01*
X42260000Y-27430000D02*
X40355000Y-29335000D01*
X39720000Y-29335000D02*
X40355000Y-29335000D01*
X42260000Y-25525000D02*
X42260000Y-27430000D01*
%TO.N,MAR3*%
X53781500Y-47351400D02*
X56586400Y-47351400D01*
X47400000Y-19810000D02*
X51210000Y-16000000D01*
X46348200Y-46851100D02*
X47009300Y-47512200D01*
X56586400Y-47351400D02*
X57620000Y-48385000D01*
X47009300Y-47512200D02*
X53620700Y-47512200D01*
X53620700Y-47512200D02*
X53781500Y-47351400D01*
X49940000Y-33145000D02*
X46348200Y-36736800D01*
X46348200Y-36736800D02*
X46348200Y-46851100D01*
X51210000Y-16000000D02*
X52480000Y-16000000D01*
%TO.N,MAR3N*%
X47400000Y-71245000D02*
X51210000Y-67435000D01*
X51210000Y-67435000D02*
X52480000Y-67435000D01*
%TO.N,MAR3_dn*%
X45854400Y-57215400D02*
X43431500Y-59638300D01*
X45854400Y-48169400D02*
X45854400Y-57215400D01*
X43431500Y-72613500D02*
X42260000Y-73785000D01*
X43431500Y-59638300D02*
X43431500Y-72613500D01*
X44800000Y-47115000D02*
X45854400Y-48169400D01*
%TO.N,MAR3_m1*%
X40355000Y-50925000D02*
X39720000Y-50925000D01*
X43530100Y-47749900D02*
X43530100Y-37264100D01*
X44800000Y-55370000D02*
X40355000Y-50925000D01*
X45989700Y-23760300D02*
X49940000Y-19810000D01*
X45989700Y-34804500D02*
X45989700Y-23760300D01*
X43530100Y-37264100D02*
X45989700Y-34804500D01*
X40355000Y-50925000D02*
X43530100Y-47749900D01*
%TO.N,MAR3_m2*%
X44800000Y-68705000D02*
X45859900Y-67645100D01*
X46210200Y-57568800D02*
X46210200Y-53753400D01*
X45859900Y-67645100D02*
X45859900Y-57919100D01*
X48962000Y-51001600D02*
X48962000Y-49729900D01*
X46210200Y-53753400D02*
X48962000Y-51001600D01*
X45859900Y-57919100D02*
X46210200Y-57568800D01*
%TO.N,MAR3_qn*%
X52480000Y-29335000D02*
X51845000Y-28700000D01*
X49940000Y-26795000D02*
X49940000Y-24890000D01*
X51845000Y-28700000D02*
X47400000Y-33145000D01*
X51845000Y-28700000D02*
X49940000Y-26795000D01*
%TO.N,MIN*%
X55715000Y-16000000D02*
X55080000Y-16000000D01*
X60160000Y-20445000D02*
X55715000Y-16000000D01*
%TO.N,MO*%
X64035400Y-26643000D02*
X64035400Y-27364600D01*
X70402000Y-19075700D02*
X70402000Y-20276400D01*
X64035400Y-27364600D02*
X57620000Y-33780000D01*
X70402000Y-20276400D02*
X64035400Y-26643000D01*
%TO.N,MON*%
X50160000Y-89974600D02*
X50160000Y-92460000D01*
X59068500Y-81066100D02*
X50160000Y-89974600D01*
X60160000Y-33780000D02*
X59068500Y-34871500D01*
X59068500Y-34871500D02*
X59068500Y-81066100D01*
%TO.N,Net-(Q10-S)*%
X21760000Y-19810000D02*
X16680000Y-24890000D01*
%TO.N,Net-(Q14-S)*%
X21760000Y-49655000D02*
X20758300Y-49655000D01*
X20758300Y-50656700D02*
X16680000Y-54735000D01*
X20758300Y-49655000D02*
X20758300Y-50656700D01*
%TO.N,Net-(Q16-S)*%
X20758300Y-62990000D02*
X20758300Y-63991700D01*
X20758300Y-63991700D02*
X16680000Y-68070000D01*
X21760000Y-62990000D02*
X20758300Y-62990000D01*
%TO.N,Net-(Q27-S)*%
X36118300Y-20811700D02*
X32040000Y-24890000D01*
X37120000Y-19810000D02*
X36118300Y-19810000D01*
X36118300Y-19810000D02*
X36118300Y-20811700D01*
%TO.N,Net-(Q29-S)*%
X37120000Y-33145000D02*
X36118300Y-33145000D01*
X32040000Y-38225000D02*
X36118300Y-34146700D01*
X36118300Y-34146700D02*
X36118300Y-33145000D01*
%TO.N,Net-(Q32-S)*%
X33057700Y-54839600D02*
X33057700Y-56161100D01*
X37120000Y-54735000D02*
X36118300Y-54735000D01*
X33057700Y-56161100D02*
X32934900Y-56283900D01*
X34170500Y-53726800D02*
X33057700Y-54839600D01*
X36118300Y-54735000D02*
X35110100Y-53726800D01*
X35110100Y-53726800D02*
X34170500Y-53726800D01*
%TO.N,Net-(Q34-S)*%
X36118300Y-69071700D02*
X32040000Y-73150000D01*
X37120000Y-68070000D02*
X36118300Y-68070000D01*
X36118300Y-68070000D02*
X36118300Y-69071700D01*
%TO.N,Net-(Q36-S)*%
X39720000Y-20445000D02*
X40721700Y-20445000D01*
X40721700Y-21446700D02*
X44800000Y-25525000D01*
X40721700Y-20445000D02*
X40721700Y-21446700D01*
%TO.N,Net-(Q45-S)*%
X51478300Y-20811700D02*
X47400000Y-24890000D01*
X51478300Y-19810000D02*
X51478300Y-20811700D01*
X52480000Y-19810000D02*
X51478300Y-19810000D01*
%TO.N,Net-(Q47-S)*%
X52480000Y-33145000D02*
X51478300Y-33145000D01*
X51478300Y-33145000D02*
X51478300Y-34146700D01*
X51478300Y-34146700D02*
X47400000Y-38225000D01*
%TO.N,Net-(Q53-S)*%
X56081700Y-21446700D02*
X60160000Y-25525000D01*
X56081700Y-20445000D02*
X56081700Y-21446700D01*
X55080000Y-20445000D02*
X56081700Y-20445000D01*
%TO.N,PH1*%
X53780000Y-15791600D02*
X53780000Y-21685000D01*
X22620500Y-21489500D02*
X25192300Y-21489500D01*
X25192300Y-21489500D02*
X25506100Y-21175700D01*
X25506100Y-20418400D02*
X28460400Y-17464100D01*
X14080000Y-28700000D02*
X9635000Y-24255000D01*
X44124100Y-14925900D02*
X52914300Y-14925900D01*
X14080000Y-28700000D02*
X15410000Y-28700000D01*
X25506100Y-21175700D02*
X25506100Y-20418400D01*
X9635000Y-24255000D02*
X9000000Y-24255000D01*
X14080000Y-33780000D02*
X15132600Y-34832600D01*
X41585900Y-17464100D02*
X44124100Y-14925900D01*
X15410000Y-28700000D02*
X19220000Y-24890000D01*
X52914300Y-14925900D02*
X53780000Y-15791600D01*
X15132600Y-34832600D02*
X15132600Y-43522400D01*
X28460400Y-17464100D02*
X41585900Y-17464100D01*
X53780000Y-21685000D02*
X57620000Y-25525000D01*
X19220000Y-24890000D02*
X22620500Y-21489500D01*
X15132600Y-43522400D02*
X11540000Y-47115000D01*
%TO.N,PH2*%
X9635000Y-37590000D02*
X9000000Y-37590000D01*
X11540000Y-33780000D02*
X9635000Y-35685000D01*
X14080000Y-42035000D02*
X9635000Y-37590000D01*
X9635000Y-35685000D02*
X9635000Y-37590000D01*
%TD*%
M02*
