%TF.GenerationSoftware,KiCad,Pcbnew,10.0.5*%
%TF.CreationDate,2026-09-23T11:26:45-04:00*%
%TF.ProjectId,memctl,6d656d63-746c-42e6-9b69-6361645f7063,rev?*%
%TF.SameCoordinates,Original*%
%TF.FileFunction,Legend,Top*%
%TF.FilePolarity,Positive*%
%FSLAX46Y46*%
G04 Gerber Fmt 4.6, Leading zero omitted, Abs format (unit mm)*
G04 Created by KiCad (PCBNEW 10.0.5) date 2026-09-23 11:26:45*
%MOMM*%
%LPD*%
G01*
G04 APERTURE LIST*
%ADD10C,0.150000*%
%ADD11C,0.250000*%
%ADD12C,0.120000*%
G04 APERTURE END LIST*
D10*
X35670112Y-87762295D02*
X35289160Y-87762295D01*
X35289160Y-87762295D02*
X35289160Y-86962295D01*
X35936779Y-87762295D02*
X35936779Y-86962295D01*
X36317731Y-87762295D02*
X36317731Y-86962295D01*
X36317731Y-86962295D02*
X36774874Y-87762295D01*
X36774874Y-87762295D02*
X36774874Y-86962295D01*
X37155826Y-87762295D02*
X37155826Y-86962295D01*
X37612969Y-87762295D02*
X37270111Y-87305152D01*
X37612969Y-86962295D02*
X37155826Y-87419438D01*
X60309160Y-22062295D02*
X60309160Y-21262295D01*
X60309160Y-21262295D02*
X60575826Y-21833723D01*
X60575826Y-21833723D02*
X60842493Y-21262295D01*
X60842493Y-21262295D02*
X60842493Y-22062295D01*
X61185350Y-21833723D02*
X61566303Y-21833723D01*
X61109160Y-22062295D02*
X61375827Y-21262295D01*
X61375827Y-21262295D02*
X61642493Y-22062295D01*
X62366303Y-22062295D02*
X62099636Y-21681342D01*
X61909160Y-22062295D02*
X61909160Y-21262295D01*
X61909160Y-21262295D02*
X62213922Y-21262295D01*
X62213922Y-21262295D02*
X62290112Y-21300390D01*
X62290112Y-21300390D02*
X62328207Y-21338485D01*
X62328207Y-21338485D02*
X62366303Y-21414676D01*
X62366303Y-21414676D02*
X62366303Y-21528961D01*
X62366303Y-21528961D02*
X62328207Y-21605152D01*
X62328207Y-21605152D02*
X62290112Y-21643247D01*
X62290112Y-21643247D02*
X62213922Y-21681342D01*
X62213922Y-21681342D02*
X61909160Y-21681342D01*
X62632969Y-21262295D02*
X63128207Y-21262295D01*
X63128207Y-21262295D02*
X62861541Y-21567057D01*
X62861541Y-21567057D02*
X62975826Y-21567057D01*
X62975826Y-21567057D02*
X63052017Y-21605152D01*
X63052017Y-21605152D02*
X63090112Y-21643247D01*
X63090112Y-21643247D02*
X63128207Y-21719438D01*
X63128207Y-21719438D02*
X63128207Y-21909914D01*
X63128207Y-21909914D02*
X63090112Y-21986104D01*
X63090112Y-21986104D02*
X63052017Y-22024200D01*
X63052017Y-22024200D02*
X62975826Y-22062295D01*
X62975826Y-22062295D02*
X62747255Y-22062295D01*
X62747255Y-22062295D02*
X62671064Y-22024200D01*
X62671064Y-22024200D02*
X62632969Y-21986104D01*
X60309160Y-37302295D02*
X60309160Y-36502295D01*
X60309160Y-36502295D02*
X60575826Y-37073723D01*
X60575826Y-37073723D02*
X60842493Y-36502295D01*
X60842493Y-36502295D02*
X60842493Y-37302295D01*
X61185350Y-37073723D02*
X61566303Y-37073723D01*
X61109160Y-37302295D02*
X61375827Y-36502295D01*
X61375827Y-36502295D02*
X61642493Y-37302295D01*
X62366303Y-37302295D02*
X62099636Y-36921342D01*
X61909160Y-37302295D02*
X61909160Y-36502295D01*
X61909160Y-36502295D02*
X62213922Y-36502295D01*
X62213922Y-36502295D02*
X62290112Y-36540390D01*
X62290112Y-36540390D02*
X62328207Y-36578485D01*
X62328207Y-36578485D02*
X62366303Y-36654676D01*
X62366303Y-36654676D02*
X62366303Y-36768961D01*
X62366303Y-36768961D02*
X62328207Y-36845152D01*
X62328207Y-36845152D02*
X62290112Y-36883247D01*
X62290112Y-36883247D02*
X62213922Y-36921342D01*
X62213922Y-36921342D02*
X61909160Y-36921342D01*
X62671064Y-36578485D02*
X62709160Y-36540390D01*
X62709160Y-36540390D02*
X62785350Y-36502295D01*
X62785350Y-36502295D02*
X62975826Y-36502295D01*
X62975826Y-36502295D02*
X63052017Y-36540390D01*
X63052017Y-36540390D02*
X63090112Y-36578485D01*
X63090112Y-36578485D02*
X63128207Y-36654676D01*
X63128207Y-36654676D02*
X63128207Y-36730866D01*
X63128207Y-36730866D02*
X63090112Y-36845152D01*
X63090112Y-36845152D02*
X62632969Y-37302295D01*
X62632969Y-37302295D02*
X63128207Y-37302295D01*
X60309160Y-52542295D02*
X60309160Y-51742295D01*
X60309160Y-51742295D02*
X60575826Y-52313723D01*
X60575826Y-52313723D02*
X60842493Y-51742295D01*
X60842493Y-51742295D02*
X60842493Y-52542295D01*
X61185350Y-52313723D02*
X61566303Y-52313723D01*
X61109160Y-52542295D02*
X61375827Y-51742295D01*
X61375827Y-51742295D02*
X61642493Y-52542295D01*
X62366303Y-52542295D02*
X62099636Y-52161342D01*
X61909160Y-52542295D02*
X61909160Y-51742295D01*
X61909160Y-51742295D02*
X62213922Y-51742295D01*
X62213922Y-51742295D02*
X62290112Y-51780390D01*
X62290112Y-51780390D02*
X62328207Y-51818485D01*
X62328207Y-51818485D02*
X62366303Y-51894676D01*
X62366303Y-51894676D02*
X62366303Y-52008961D01*
X62366303Y-52008961D02*
X62328207Y-52085152D01*
X62328207Y-52085152D02*
X62290112Y-52123247D01*
X62290112Y-52123247D02*
X62213922Y-52161342D01*
X62213922Y-52161342D02*
X61909160Y-52161342D01*
X63128207Y-52542295D02*
X62671064Y-52542295D01*
X62899636Y-52542295D02*
X62899636Y-51742295D01*
X62899636Y-51742295D02*
X62823445Y-51856580D01*
X62823445Y-51856580D02*
X62747255Y-51932771D01*
X62747255Y-51932771D02*
X62671064Y-51970866D01*
X60309160Y-67782295D02*
X60309160Y-66982295D01*
X60309160Y-66982295D02*
X60575826Y-67553723D01*
X60575826Y-67553723D02*
X60842493Y-66982295D01*
X60842493Y-66982295D02*
X60842493Y-67782295D01*
X61185350Y-67553723D02*
X61566303Y-67553723D01*
X61109160Y-67782295D02*
X61375827Y-66982295D01*
X61375827Y-66982295D02*
X61642493Y-67782295D01*
X62366303Y-67782295D02*
X62099636Y-67401342D01*
X61909160Y-67782295D02*
X61909160Y-66982295D01*
X61909160Y-66982295D02*
X62213922Y-66982295D01*
X62213922Y-66982295D02*
X62290112Y-67020390D01*
X62290112Y-67020390D02*
X62328207Y-67058485D01*
X62328207Y-67058485D02*
X62366303Y-67134676D01*
X62366303Y-67134676D02*
X62366303Y-67248961D01*
X62366303Y-67248961D02*
X62328207Y-67325152D01*
X62328207Y-67325152D02*
X62290112Y-67363247D01*
X62290112Y-67363247D02*
X62213922Y-67401342D01*
X62213922Y-67401342D02*
X61909160Y-67401342D01*
X62861541Y-66982295D02*
X62937731Y-66982295D01*
X62937731Y-66982295D02*
X63013922Y-67020390D01*
X63013922Y-67020390D02*
X63052017Y-67058485D01*
X63052017Y-67058485D02*
X63090112Y-67134676D01*
X63090112Y-67134676D02*
X63128207Y-67287057D01*
X63128207Y-67287057D02*
X63128207Y-67477533D01*
X63128207Y-67477533D02*
X63090112Y-67629914D01*
X63090112Y-67629914D02*
X63052017Y-67706104D01*
X63052017Y-67706104D02*
X63013922Y-67744200D01*
X63013922Y-67744200D02*
X62937731Y-67782295D01*
X62937731Y-67782295D02*
X62861541Y-67782295D01*
X62861541Y-67782295D02*
X62785350Y-67744200D01*
X62785350Y-67744200D02*
X62747255Y-67706104D01*
X62747255Y-67706104D02*
X62709160Y-67629914D01*
X62709160Y-67629914D02*
X62671064Y-67477533D01*
X62671064Y-67477533D02*
X62671064Y-67287057D01*
X62671064Y-67287057D02*
X62709160Y-67134676D01*
X62709160Y-67134676D02*
X62747255Y-67058485D01*
X62747255Y-67058485D02*
X62785350Y-67020390D01*
X62785350Y-67020390D02*
X62861541Y-66982295D01*
X4490588Y-8854819D02*
X3919160Y-8854819D01*
X4204874Y-8854819D02*
X4204874Y-7854819D01*
X4204874Y-7854819D02*
X4109636Y-7997676D01*
X4109636Y-7997676D02*
X4014398Y-8092914D01*
X4014398Y-8092914D02*
X3919160Y-8140533D01*
D11*
X44521615Y-88180928D02*
X44521615Y-86680928D01*
X44521615Y-86680928D02*
X45378758Y-88180928D01*
X45378758Y-88180928D02*
X45378758Y-86680928D01*
X46093044Y-88180928D02*
X46093044Y-86680928D01*
X47307330Y-87395214D02*
X47521616Y-87466642D01*
X47521616Y-87466642D02*
X47593045Y-87538071D01*
X47593045Y-87538071D02*
X47664473Y-87680928D01*
X47664473Y-87680928D02*
X47664473Y-87895214D01*
X47664473Y-87895214D02*
X47593045Y-88038071D01*
X47593045Y-88038071D02*
X47521616Y-88109500D01*
X47521616Y-88109500D02*
X47378759Y-88180928D01*
X47378759Y-88180928D02*
X46807330Y-88180928D01*
X46807330Y-88180928D02*
X46807330Y-86680928D01*
X46807330Y-86680928D02*
X47307330Y-86680928D01*
X47307330Y-86680928D02*
X47450188Y-86752357D01*
X47450188Y-86752357D02*
X47521616Y-86823785D01*
X47521616Y-86823785D02*
X47593045Y-86966642D01*
X47593045Y-86966642D02*
X47593045Y-87109500D01*
X47593045Y-87109500D02*
X47521616Y-87252357D01*
X47521616Y-87252357D02*
X47450188Y-87323785D01*
X47450188Y-87323785D02*
X47307330Y-87395214D01*
X47307330Y-87395214D02*
X46807330Y-87395214D01*
X48807330Y-87395214D02*
X49021616Y-87466642D01*
X49021616Y-87466642D02*
X49093045Y-87538071D01*
X49093045Y-87538071D02*
X49164473Y-87680928D01*
X49164473Y-87680928D02*
X49164473Y-87895214D01*
X49164473Y-87895214D02*
X49093045Y-88038071D01*
X49093045Y-88038071D02*
X49021616Y-88109500D01*
X49021616Y-88109500D02*
X48878759Y-88180928D01*
X48878759Y-88180928D02*
X48307330Y-88180928D01*
X48307330Y-88180928D02*
X48307330Y-86680928D01*
X48307330Y-86680928D02*
X48807330Y-86680928D01*
X48807330Y-86680928D02*
X48950188Y-86752357D01*
X48950188Y-86752357D02*
X49021616Y-86823785D01*
X49021616Y-86823785D02*
X49093045Y-86966642D01*
X49093045Y-86966642D02*
X49093045Y-87109500D01*
X49093045Y-87109500D02*
X49021616Y-87252357D01*
X49021616Y-87252357D02*
X48950188Y-87323785D01*
X48950188Y-87323785D02*
X48807330Y-87395214D01*
X48807330Y-87395214D02*
X48307330Y-87395214D01*
X50521616Y-88180928D02*
X49807330Y-88180928D01*
X49807330Y-88180928D02*
X49807330Y-86680928D01*
X51021616Y-87395214D02*
X51521616Y-87395214D01*
X51735902Y-88180928D02*
X51021616Y-88180928D01*
X51021616Y-88180928D02*
X51021616Y-86680928D01*
X51021616Y-86680928D02*
X51735902Y-86680928D01*
X54664473Y-88180928D02*
X54664473Y-86680928D01*
X54664473Y-86680928D02*
X55164473Y-87752357D01*
X55164473Y-87752357D02*
X55664473Y-86680928D01*
X55664473Y-86680928D02*
X55664473Y-88180928D01*
X56378759Y-87395214D02*
X56878759Y-87395214D01*
X57093045Y-88180928D02*
X56378759Y-88180928D01*
X56378759Y-88180928D02*
X56378759Y-86680928D01*
X56378759Y-86680928D02*
X57093045Y-86680928D01*
X57735902Y-88180928D02*
X57735902Y-86680928D01*
X57735902Y-86680928D02*
X58235902Y-87752357D01*
X58235902Y-87752357D02*
X58735902Y-86680928D01*
X58735902Y-86680928D02*
X58735902Y-88180928D01*
X59735903Y-86680928D02*
X60021617Y-86680928D01*
X60021617Y-86680928D02*
X60164474Y-86752357D01*
X60164474Y-86752357D02*
X60307331Y-86895214D01*
X60307331Y-86895214D02*
X60378760Y-87180928D01*
X60378760Y-87180928D02*
X60378760Y-87680928D01*
X60378760Y-87680928D02*
X60307331Y-87966642D01*
X60307331Y-87966642D02*
X60164474Y-88109500D01*
X60164474Y-88109500D02*
X60021617Y-88180928D01*
X60021617Y-88180928D02*
X59735903Y-88180928D01*
X59735903Y-88180928D02*
X59593046Y-88109500D01*
X59593046Y-88109500D02*
X59450188Y-87966642D01*
X59450188Y-87966642D02*
X59378760Y-87680928D01*
X59378760Y-87680928D02*
X59378760Y-87180928D01*
X59378760Y-87180928D02*
X59450188Y-86895214D01*
X59450188Y-86895214D02*
X59593046Y-86752357D01*
X59593046Y-86752357D02*
X59735903Y-86680928D01*
X61878760Y-88180928D02*
X61378760Y-87466642D01*
X61021617Y-88180928D02*
X61021617Y-86680928D01*
X61021617Y-86680928D02*
X61593046Y-86680928D01*
X61593046Y-86680928D02*
X61735903Y-86752357D01*
X61735903Y-86752357D02*
X61807332Y-86823785D01*
X61807332Y-86823785D02*
X61878760Y-86966642D01*
X61878760Y-86966642D02*
X61878760Y-87180928D01*
X61878760Y-87180928D02*
X61807332Y-87323785D01*
X61807332Y-87323785D02*
X61735903Y-87395214D01*
X61735903Y-87395214D02*
X61593046Y-87466642D01*
X61593046Y-87466642D02*
X61021617Y-87466642D01*
X62807332Y-87466642D02*
X62807332Y-88180928D01*
X62307332Y-86680928D02*
X62807332Y-87466642D01*
X62807332Y-87466642D02*
X63307332Y-86680928D01*
X65807331Y-88038071D02*
X65735903Y-88109500D01*
X65735903Y-88109500D02*
X65521617Y-88180928D01*
X65521617Y-88180928D02*
X65378760Y-88180928D01*
X65378760Y-88180928D02*
X65164474Y-88109500D01*
X65164474Y-88109500D02*
X65021617Y-87966642D01*
X65021617Y-87966642D02*
X64950188Y-87823785D01*
X64950188Y-87823785D02*
X64878760Y-87538071D01*
X64878760Y-87538071D02*
X64878760Y-87323785D01*
X64878760Y-87323785D02*
X64950188Y-87038071D01*
X64950188Y-87038071D02*
X65021617Y-86895214D01*
X65021617Y-86895214D02*
X65164474Y-86752357D01*
X65164474Y-86752357D02*
X65378760Y-86680928D01*
X65378760Y-86680928D02*
X65521617Y-86680928D01*
X65521617Y-86680928D02*
X65735903Y-86752357D01*
X65735903Y-86752357D02*
X65807331Y-86823785D01*
X66735903Y-86680928D02*
X67021617Y-86680928D01*
X67021617Y-86680928D02*
X67164474Y-86752357D01*
X67164474Y-86752357D02*
X67307331Y-86895214D01*
X67307331Y-86895214D02*
X67378760Y-87180928D01*
X67378760Y-87180928D02*
X67378760Y-87680928D01*
X67378760Y-87680928D02*
X67307331Y-87966642D01*
X67307331Y-87966642D02*
X67164474Y-88109500D01*
X67164474Y-88109500D02*
X67021617Y-88180928D01*
X67021617Y-88180928D02*
X66735903Y-88180928D01*
X66735903Y-88180928D02*
X66593046Y-88109500D01*
X66593046Y-88109500D02*
X66450188Y-87966642D01*
X66450188Y-87966642D02*
X66378760Y-87680928D01*
X66378760Y-87680928D02*
X66378760Y-87180928D01*
X66378760Y-87180928D02*
X66450188Y-86895214D01*
X66450188Y-86895214D02*
X66593046Y-86752357D01*
X66593046Y-86752357D02*
X66735903Y-86680928D01*
X68021617Y-88180928D02*
X68021617Y-86680928D01*
X68021617Y-86680928D02*
X68878760Y-88180928D01*
X68878760Y-88180928D02*
X68878760Y-86680928D01*
X69378761Y-86680928D02*
X70235904Y-86680928D01*
X69807332Y-88180928D02*
X69807332Y-86680928D01*
X71593046Y-88180928D02*
X71093046Y-87466642D01*
X70735903Y-88180928D02*
X70735903Y-86680928D01*
X70735903Y-86680928D02*
X71307332Y-86680928D01*
X71307332Y-86680928D02*
X71450189Y-86752357D01*
X71450189Y-86752357D02*
X71521618Y-86823785D01*
X71521618Y-86823785D02*
X71593046Y-86966642D01*
X71593046Y-86966642D02*
X71593046Y-87180928D01*
X71593046Y-87180928D02*
X71521618Y-87323785D01*
X71521618Y-87323785D02*
X71450189Y-87395214D01*
X71450189Y-87395214D02*
X71307332Y-87466642D01*
X71307332Y-87466642D02*
X70735903Y-87466642D01*
X72521618Y-86680928D02*
X72807332Y-86680928D01*
X72807332Y-86680928D02*
X72950189Y-86752357D01*
X72950189Y-86752357D02*
X73093046Y-86895214D01*
X73093046Y-86895214D02*
X73164475Y-87180928D01*
X73164475Y-87180928D02*
X73164475Y-87680928D01*
X73164475Y-87680928D02*
X73093046Y-87966642D01*
X73093046Y-87966642D02*
X72950189Y-88109500D01*
X72950189Y-88109500D02*
X72807332Y-88180928D01*
X72807332Y-88180928D02*
X72521618Y-88180928D01*
X72521618Y-88180928D02*
X72378761Y-88109500D01*
X72378761Y-88109500D02*
X72235903Y-87966642D01*
X72235903Y-87966642D02*
X72164475Y-87680928D01*
X72164475Y-87680928D02*
X72164475Y-87180928D01*
X72164475Y-87180928D02*
X72235903Y-86895214D01*
X72235903Y-86895214D02*
X72378761Y-86752357D01*
X72378761Y-86752357D02*
X72521618Y-86680928D01*
X74521618Y-88180928D02*
X73807332Y-88180928D01*
X73807332Y-88180928D02*
X73807332Y-86680928D01*
D10*
X97859580Y-17916666D02*
X97907200Y-17964285D01*
X97907200Y-17964285D02*
X97954819Y-18107142D01*
X97954819Y-18107142D02*
X97954819Y-18202380D01*
X97954819Y-18202380D02*
X97907200Y-18345237D01*
X97907200Y-18345237D02*
X97811961Y-18440475D01*
X97811961Y-18440475D02*
X97716723Y-18488094D01*
X97716723Y-18488094D02*
X97526247Y-18535713D01*
X97526247Y-18535713D02*
X97383390Y-18535713D01*
X97383390Y-18535713D02*
X97192914Y-18488094D01*
X97192914Y-18488094D02*
X97097676Y-18440475D01*
X97097676Y-18440475D02*
X97002438Y-18345237D01*
X97002438Y-18345237D02*
X96954819Y-18202380D01*
X96954819Y-18202380D02*
X96954819Y-18107142D01*
X96954819Y-18107142D02*
X97002438Y-17964285D01*
X97002438Y-17964285D02*
X97050057Y-17916666D01*
X97954819Y-16964285D02*
X97954819Y-17535713D01*
X97954819Y-17249999D02*
X96954819Y-17249999D01*
X96954819Y-17249999D02*
X97097676Y-17345237D01*
X97097676Y-17345237D02*
X97192914Y-17440475D01*
X97192914Y-17440475D02*
X97240533Y-17535713D01*
X88859580Y-65416666D02*
X88907200Y-65464285D01*
X88907200Y-65464285D02*
X88954819Y-65607142D01*
X88954819Y-65607142D02*
X88954819Y-65702380D01*
X88954819Y-65702380D02*
X88907200Y-65845237D01*
X88907200Y-65845237D02*
X88811961Y-65940475D01*
X88811961Y-65940475D02*
X88716723Y-65988094D01*
X88716723Y-65988094D02*
X88526247Y-66035713D01*
X88526247Y-66035713D02*
X88383390Y-66035713D01*
X88383390Y-66035713D02*
X88192914Y-65988094D01*
X88192914Y-65988094D02*
X88097676Y-65940475D01*
X88097676Y-65940475D02*
X88002438Y-65845237D01*
X88002438Y-65845237D02*
X87954819Y-65702380D01*
X87954819Y-65702380D02*
X87954819Y-65607142D01*
X87954819Y-65607142D02*
X88002438Y-65464285D01*
X88002438Y-65464285D02*
X88050057Y-65416666D01*
X87954819Y-65083332D02*
X87954819Y-64464285D01*
X87954819Y-64464285D02*
X88335771Y-64797618D01*
X88335771Y-64797618D02*
X88335771Y-64654761D01*
X88335771Y-64654761D02*
X88383390Y-64559523D01*
X88383390Y-64559523D02*
X88431009Y-64511904D01*
X88431009Y-64511904D02*
X88526247Y-64464285D01*
X88526247Y-64464285D02*
X88764342Y-64464285D01*
X88764342Y-64464285D02*
X88859580Y-64511904D01*
X88859580Y-64511904D02*
X88907200Y-64559523D01*
X88907200Y-64559523D02*
X88954819Y-64654761D01*
X88954819Y-64654761D02*
X88954819Y-64940475D01*
X88954819Y-64940475D02*
X88907200Y-65035713D01*
X88907200Y-65035713D02*
X88859580Y-65083332D01*
X95238095Y-46304819D02*
X95238095Y-45304819D01*
X95238095Y-45781009D02*
X95809523Y-45781009D01*
X95809523Y-46304819D02*
X95809523Y-45304819D01*
X96238095Y-45400057D02*
X96285714Y-45352438D01*
X96285714Y-45352438D02*
X96380952Y-45304819D01*
X96380952Y-45304819D02*
X96619047Y-45304819D01*
X96619047Y-45304819D02*
X96714285Y-45352438D01*
X96714285Y-45352438D02*
X96761904Y-45400057D01*
X96761904Y-45400057D02*
X96809523Y-45495295D01*
X96809523Y-45495295D02*
X96809523Y-45590533D01*
X96809523Y-45590533D02*
X96761904Y-45733390D01*
X96761904Y-45733390D02*
X96190476Y-46304819D01*
X96190476Y-46304819D02*
X96809523Y-46304819D01*
X99109580Y-27166666D02*
X99157200Y-27214285D01*
X99157200Y-27214285D02*
X99204819Y-27357142D01*
X99204819Y-27357142D02*
X99204819Y-27452380D01*
X99204819Y-27452380D02*
X99157200Y-27595237D01*
X99157200Y-27595237D02*
X99061961Y-27690475D01*
X99061961Y-27690475D02*
X98966723Y-27738094D01*
X98966723Y-27738094D02*
X98776247Y-27785713D01*
X98776247Y-27785713D02*
X98633390Y-27785713D01*
X98633390Y-27785713D02*
X98442914Y-27738094D01*
X98442914Y-27738094D02*
X98347676Y-27690475D01*
X98347676Y-27690475D02*
X98252438Y-27595237D01*
X98252438Y-27595237D02*
X98204819Y-27452380D01*
X98204819Y-27452380D02*
X98204819Y-27357142D01*
X98204819Y-27357142D02*
X98252438Y-27214285D01*
X98252438Y-27214285D02*
X98300057Y-27166666D01*
X98300057Y-26785713D02*
X98252438Y-26738094D01*
X98252438Y-26738094D02*
X98204819Y-26642856D01*
X98204819Y-26642856D02*
X98204819Y-26404761D01*
X98204819Y-26404761D02*
X98252438Y-26309523D01*
X98252438Y-26309523D02*
X98300057Y-26261904D01*
X98300057Y-26261904D02*
X98395295Y-26214285D01*
X98395295Y-26214285D02*
X98490533Y-26214285D01*
X98490533Y-26214285D02*
X98633390Y-26261904D01*
X98633390Y-26261904D02*
X99204819Y-26833332D01*
X99204819Y-26833332D02*
X99204819Y-26214285D01*
X3238095Y-46304819D02*
X3238095Y-45304819D01*
X3238095Y-45781009D02*
X3809523Y-45781009D01*
X3809523Y-46304819D02*
X3809523Y-45304819D01*
X4809523Y-46304819D02*
X4238095Y-46304819D01*
X4523809Y-46304819D02*
X4523809Y-45304819D01*
X4523809Y-45304819D02*
X4428571Y-45447676D01*
X4428571Y-45447676D02*
X4333333Y-45542914D01*
X4333333Y-45542914D02*
X4238095Y-45590533D01*
%TO.C,Q38*%
D12*
X40460000Y-35630000D02*
X44060000Y-35630000D01*
X39903600Y-32681193D02*
G75*
G02*
X42260000Y-31180000I2356400J-1098807D01*
G01*
X40460000Y-35630000D02*
G75*
G02*
X39935816Y-34902795I1800000J1850000D01*
G01*
X42260000Y-31180000D02*
G75*
G02*
X44616400Y-32681193I0J-2600000D01*
G01*
X44584184Y-34902795D02*
G75*
G02*
X44060000Y-35630000I-2324184J1122795D01*
G01*
%TO.C,Q15*%
X21020000Y-52885000D02*
X17420000Y-52885000D01*
X16895816Y-53612205D02*
G75*
G02*
X17420000Y-52885000I2324184J-1122795D01*
G01*
X19220000Y-57335000D02*
G75*
G02*
X16863600Y-55833807I0J2600000D01*
G01*
X21020000Y-52885000D02*
G75*
G02*
X21544184Y-53612205I-1800000J-1850000D01*
G01*
X21576400Y-55833807D02*
G75*
G02*
X19220000Y-57335000I-2356400J1098807D01*
G01*
%TO.C,J1*%
X5420000Y-1670000D02*
X94580000Y-1670000D01*
X5420000Y-10790000D02*
X5420000Y-1670000D01*
X6720000Y-2980000D02*
X93280000Y-2980000D01*
X6720000Y-9480000D02*
X6720000Y-2980000D01*
X10130000Y-12180000D02*
X11130000Y-12180000D01*
X10630000Y-11180000D02*
X10130000Y-12180000D01*
X11130000Y-12180000D02*
X10630000Y-11180000D01*
X47950000Y-9480000D02*
X6720000Y-9480000D01*
X47950000Y-10790000D02*
X47950000Y-9480000D01*
X52050000Y-9480000D02*
X52050000Y-10790000D01*
X93280000Y-2980000D02*
X93280000Y-9480000D01*
X93280000Y-9480000D02*
X52050000Y-9480000D01*
X94580000Y-1670000D02*
X94580000Y-10790000D01*
X94580000Y-10790000D02*
X5420000Y-10790000D01*
%TO.C,Q55*%
X55820000Y-43885000D02*
X59420000Y-43885000D01*
X55263600Y-40936193D02*
G75*
G02*
X57620000Y-39435000I2356400J-1098807D01*
G01*
X55820000Y-43885000D02*
G75*
G02*
X55295816Y-43157795I1800000J1850000D01*
G01*
X57620000Y-39435000D02*
G75*
G02*
X59976400Y-40936193I0J-2600000D01*
G01*
X59944184Y-43157795D02*
G75*
G02*
X59420000Y-43885000I-2324184J1122795D01*
G01*
%TO.C,Q31*%
X36380000Y-44630000D02*
X32780000Y-44630000D01*
X32255816Y-45357205D02*
G75*
G02*
X32780000Y-44630000I2324184J-1122795D01*
G01*
X34580000Y-49080000D02*
G75*
G02*
X32223600Y-47578807I0J2600000D01*
G01*
X36380000Y-44630000D02*
G75*
G02*
X36904184Y-45357205I-1800000J-1850000D01*
G01*
X36936400Y-47578807D02*
G75*
G02*
X34580000Y-49080000I-2356400J1098807D01*
G01*
%TO.C,Q44*%
X40460000Y-75635000D02*
X44060000Y-75635000D01*
X39903600Y-72686193D02*
G75*
G02*
X42260000Y-71185000I2356400J-1098807D01*
G01*
X40460000Y-75635000D02*
G75*
G02*
X39935816Y-74907795I1800000J1850000D01*
G01*
X42260000Y-71185000D02*
G75*
G02*
X44616400Y-72686193I0J-2600000D01*
G01*
X44584184Y-74907795D02*
G75*
G02*
X44060000Y-75635000I-2324184J1122795D01*
G01*
%TO.C,C1*%
X93630000Y-15130000D02*
X96370000Y-15130000D01*
X93630000Y-20370000D02*
X93630000Y-15130000D01*
X96370000Y-15130000D02*
X96370000Y-20370000D01*
X96370000Y-20370000D02*
X93630000Y-20370000D01*
%TO.C,Q49*%
X51740000Y-47805000D02*
X48140000Y-47805000D01*
X47615816Y-48532205D02*
G75*
G02*
X48140000Y-47805000I2324184J-1122795D01*
G01*
X49940000Y-52255000D02*
G75*
G02*
X47583600Y-50753807I0J2600000D01*
G01*
X51740000Y-47805000D02*
G75*
G02*
X52264184Y-48532205I-1800000J-1850000D01*
G01*
X52296400Y-50753807D02*
G75*
G02*
X49940000Y-52255000I-2356400J1098807D01*
G01*
%TO.C,Q46*%
X51740000Y-23040000D02*
X48140000Y-23040000D01*
X47615816Y-23767205D02*
G75*
G02*
X48140000Y-23040000I2324184J-1122795D01*
G01*
X49940000Y-27490000D02*
G75*
G02*
X47583600Y-25988807I0J2600000D01*
G01*
X51740000Y-23040000D02*
G75*
G02*
X52264184Y-23767205I-1800000J-1850000D01*
G01*
X52296400Y-25988807D02*
G75*
G02*
X49940000Y-27490000I-2356400J1098807D01*
G01*
%TO.C,Q23*%
X25100000Y-57220000D02*
X28700000Y-57220000D01*
X24543600Y-54271193D02*
G75*
G02*
X26900000Y-52770000I2356400J-1098807D01*
G01*
X25100000Y-57220000D02*
G75*
G02*
X24575816Y-56492795I1800000J1850000D01*
G01*
X26900000Y-52770000D02*
G75*
G02*
X29256400Y-54271193I0J-2600000D01*
G01*
X29224184Y-56492795D02*
G75*
G02*
X28700000Y-57220000I-2324184J1122795D01*
G01*
%TO.C,R33*%
X48770000Y-62355000D02*
X51380000Y-62355000D01*
X48770000Y-62355000D02*
G75*
G02*
X46030000Y-62355000I-1370000J0D01*
G01*
X46030000Y-62355000D02*
G75*
G02*
X48770000Y-62355000I1370000J0D01*
G01*
%TO.C,Q14*%
X21020000Y-47805000D02*
X17420000Y-47805000D01*
X16895816Y-48532205D02*
G75*
G02*
X17420000Y-47805000I2324184J-1122795D01*
G01*
X19220000Y-52255000D02*
G75*
G02*
X16863600Y-50753807I0J2600000D01*
G01*
X21020000Y-47805000D02*
G75*
G02*
X21544184Y-48532205I-1800000J-1850000D01*
G01*
X21576400Y-50753807D02*
G75*
G02*
X19220000Y-52255000I-2356400J1098807D01*
G01*
%TO.C,R29*%
X48770000Y-29335000D02*
X51380000Y-29335000D01*
X48770000Y-29335000D02*
G75*
G02*
X46030000Y-29335000I-1370000J0D01*
G01*
X46030000Y-29335000D02*
G75*
G02*
X48770000Y-29335000I1370000J0D01*
G01*
%TO.C,R12*%
X18050000Y-59180000D02*
X20660000Y-59180000D01*
X18050000Y-59180000D02*
G75*
G02*
X15310000Y-59180000I-1370000J0D01*
G01*
X15310000Y-59180000D02*
G75*
G02*
X18050000Y-59180000I1370000J0D01*
G01*
%TO.C,D3*%
X56384000Y-53120000D02*
X56540000Y-53120000D01*
X58700000Y-53120000D02*
X58856000Y-53120000D01*
X56384484Y-53120000D02*
G75*
G02*
X56540000Y-49888563I1235516J1560000D01*
G01*
X56540000Y-52600961D02*
G75*
G02*
X56540000Y-50519039I1080000J1040961D01*
G01*
X58700000Y-49888563D02*
G75*
G02*
X58855516Y-53120000I-1080000J-1671437D01*
G01*
X58700000Y-50519039D02*
G75*
G02*
X58700000Y-52600961I-1080000J-1040961D01*
G01*
%TO.C,Q13*%
X21020000Y-39550000D02*
X17420000Y-39550000D01*
X16895816Y-40277205D02*
G75*
G02*
X17420000Y-39550000I2324184J-1122795D01*
G01*
X19220000Y-44000000D02*
G75*
G02*
X16863600Y-42498807I0J2600000D01*
G01*
X21020000Y-39550000D02*
G75*
G02*
X21544184Y-40277205I-1800000J-1850000D01*
G01*
X21576400Y-42498807D02*
G75*
G02*
X19220000Y-44000000I-2356400J1098807D01*
G01*
%TO.C,R1*%
X10370000Y-16000000D02*
X12980000Y-16000000D01*
X10370000Y-16000000D02*
G75*
G02*
X7630000Y-16000000I-1370000J0D01*
G01*
X7630000Y-16000000D02*
G75*
G02*
X10370000Y-16000000I1370000J0D01*
G01*
%TO.C,Q50*%
X51740000Y-56060000D02*
X48140000Y-56060000D01*
X47615816Y-56787205D02*
G75*
G02*
X48140000Y-56060000I2324184J-1122795D01*
G01*
X49940000Y-60510000D02*
G75*
G02*
X47583600Y-59008807I0J2600000D01*
G01*
X51740000Y-56060000D02*
G75*
G02*
X52264184Y-56787205I-1800000J-1850000D01*
G01*
X52296400Y-59008807D02*
G75*
G02*
X49940000Y-60510000I-2356400J1098807D01*
G01*
%TO.C,R37*%
X56450000Y-46480000D02*
X59060000Y-46480000D01*
X56450000Y-46480000D02*
G75*
G02*
X53710000Y-46480000I-1370000J0D01*
G01*
X53710000Y-46480000D02*
G75*
G02*
X56450000Y-46480000I1370000J0D01*
G01*
%TO.C,R26*%
X41090000Y-50925000D02*
X43700000Y-50925000D01*
X41090000Y-50925000D02*
G75*
G02*
X38350000Y-50925000I-1370000J0D01*
G01*
X38350000Y-50925000D02*
G75*
G02*
X41090000Y-50925000I1370000J0D01*
G01*
%TO.C,Q47*%
X51740000Y-31295000D02*
X48140000Y-31295000D01*
X47615816Y-32022205D02*
G75*
G02*
X48140000Y-31295000I2324184J-1122795D01*
G01*
X49940000Y-35745000D02*
G75*
G02*
X47583600Y-34243807I0J2600000D01*
G01*
X51740000Y-31295000D02*
G75*
G02*
X52264184Y-32022205I-1800000J-1850000D01*
G01*
X52296400Y-34243807D02*
G75*
G02*
X49940000Y-35745000I-2356400J1098807D01*
G01*
%TO.C,Q36*%
X40460000Y-22295000D02*
X44060000Y-22295000D01*
X39903600Y-19346193D02*
G75*
G02*
X42260000Y-17845000I2356400J-1098807D01*
G01*
X40460000Y-22295000D02*
G75*
G02*
X39935816Y-21567795I1800000J1850000D01*
G01*
X42260000Y-17845000D02*
G75*
G02*
X44616400Y-19346193I0J-2600000D01*
G01*
X44584184Y-21567795D02*
G75*
G02*
X44060000Y-22295000I-2324184J1122795D01*
G01*
%TO.C,R28*%
X48770000Y-16000000D02*
X51380000Y-16000000D01*
X48770000Y-16000000D02*
G75*
G02*
X46030000Y-16000000I-1370000J0D01*
G01*
X46030000Y-16000000D02*
G75*
G02*
X48770000Y-16000000I1370000J0D01*
G01*
%TO.C,Q4*%
X9740000Y-43885000D02*
X13340000Y-43885000D01*
X9183600Y-40936193D02*
G75*
G02*
X11540000Y-39435000I2356400J-1098807D01*
G01*
X9740000Y-43885000D02*
G75*
G02*
X9215816Y-43157795I1800000J1850000D01*
G01*
X11540000Y-39435000D02*
G75*
G02*
X13896400Y-40936193I0J-2600000D01*
G01*
X13864184Y-43157795D02*
G75*
G02*
X13340000Y-43885000I-2324184J1122795D01*
G01*
%TO.C,R8*%
X18050000Y-16000000D02*
X20660000Y-16000000D01*
X18050000Y-16000000D02*
G75*
G02*
X15310000Y-16000000I-1370000J0D01*
G01*
X15310000Y-16000000D02*
G75*
G02*
X18050000Y-16000000I1370000J0D01*
G01*
%TO.C,Q22*%
X25100000Y-48965000D02*
X28700000Y-48965000D01*
X24543600Y-46016193D02*
G75*
G02*
X26900000Y-44515000I2356400J-1098807D01*
G01*
X25100000Y-48965000D02*
G75*
G02*
X24575816Y-48237795I1800000J1850000D01*
G01*
X26900000Y-44515000D02*
G75*
G02*
X29256400Y-46016193I0J-2600000D01*
G01*
X29224184Y-48237795D02*
G75*
G02*
X28700000Y-48965000I-2324184J1122795D01*
G01*
%TO.C,C3*%
X84630000Y-62630000D02*
X87370000Y-62630000D01*
X84630000Y-67870000D02*
X84630000Y-62630000D01*
X87370000Y-62630000D02*
X87370000Y-67870000D01*
X87370000Y-67870000D02*
X84630000Y-67870000D01*
%TO.C,Q21*%
X25100000Y-43885000D02*
X28700000Y-43885000D01*
X24543600Y-40936193D02*
G75*
G02*
X26900000Y-39435000I2356400J-1098807D01*
G01*
X25100000Y-43885000D02*
G75*
G02*
X24575816Y-43157795I1800000J1850000D01*
G01*
X26900000Y-39435000D02*
G75*
G02*
X29256400Y-40936193I0J-2600000D01*
G01*
X29224184Y-43157795D02*
G75*
G02*
X28700000Y-43885000I-2324184J1122795D01*
G01*
%TO.C,Q26*%
X25100000Y-75635000D02*
X28700000Y-75635000D01*
X24543600Y-72686193D02*
G75*
G02*
X26900000Y-71185000I2356400J-1098807D01*
G01*
X25100000Y-75635000D02*
G75*
G02*
X24575816Y-74907795I1800000J1850000D01*
G01*
X26900000Y-71185000D02*
G75*
G02*
X29256400Y-72686193I0J-2600000D01*
G01*
X29224184Y-74907795D02*
G75*
G02*
X28700000Y-75635000I-2324184J1122795D01*
G01*
%TO.C,Q30*%
X36380000Y-39550000D02*
X32780000Y-39550000D01*
X32255816Y-40277205D02*
G75*
G02*
X32780000Y-39550000I2324184J-1122795D01*
G01*
X34580000Y-44000000D02*
G75*
G02*
X32223600Y-42498807I0J2600000D01*
G01*
X36380000Y-39550000D02*
G75*
G02*
X36904184Y-40277205I-1800000J-1850000D01*
G01*
X36936400Y-42498807D02*
G75*
G02*
X34580000Y-44000000I-2356400J1098807D01*
G01*
%TO.C,C2*%
X93960000Y-27000000D02*
X92420000Y-27000000D01*
X93960000Y-27040000D02*
X92420000Y-27040000D01*
X93960000Y-27080000D02*
X92421000Y-27080000D01*
X93960000Y-27120000D02*
X92423000Y-27120000D01*
X93960000Y-27160000D02*
X92425000Y-27160000D01*
X93960000Y-27200000D02*
X92428000Y-27200000D01*
X93960000Y-27240000D02*
X92431000Y-27240000D01*
X93960000Y-27280000D02*
X92435000Y-27280000D01*
X93960000Y-27320000D02*
X92440000Y-27320000D01*
X93960000Y-27360000D02*
X92445000Y-27360000D01*
X93960000Y-27400000D02*
X92451000Y-27400000D01*
X93960000Y-27440000D02*
X92457000Y-27440000D01*
X93960000Y-27480000D02*
X92464000Y-27480000D01*
X93960000Y-27520000D02*
X92472000Y-27520000D01*
X93960000Y-27560000D02*
X92481000Y-27560000D01*
X93960000Y-27600000D02*
X92490000Y-27600000D01*
X93960000Y-27640000D02*
X92499000Y-27640000D01*
X93960000Y-27680000D02*
X92510000Y-27680000D01*
X93960000Y-27720000D02*
X92521000Y-27720000D01*
X93960000Y-27760000D02*
X92533000Y-27760000D01*
X93960000Y-27800000D02*
X92545000Y-27800000D01*
X93960000Y-27840000D02*
X92558000Y-27840000D01*
X93960000Y-27880000D02*
X92572000Y-27880000D01*
X93960000Y-27920000D02*
X92587000Y-27920000D01*
X93960000Y-27960000D02*
X92602000Y-27960000D01*
X93960000Y-28000000D02*
X92618000Y-28000000D01*
X93960000Y-28040000D02*
X92635000Y-28040000D01*
X93960000Y-28080000D02*
X92653000Y-28080000D01*
X93960000Y-28120000D02*
X92671000Y-28120000D01*
X93960000Y-28160000D02*
X92691000Y-28160000D01*
X93960000Y-28200000D02*
X92711000Y-28200000D01*
X93960000Y-28240000D02*
X92732000Y-28240000D01*
X93960000Y-28280000D02*
X92754000Y-28280000D01*
X93960000Y-28320000D02*
X92777000Y-28320000D01*
X93960000Y-28360000D02*
X92801000Y-28360000D01*
X93960000Y-28400000D02*
X92825000Y-28400000D01*
X93960000Y-28440000D02*
X92851000Y-28440000D01*
X93960000Y-28480000D02*
X92878000Y-28480000D01*
X93960000Y-28520000D02*
X92906000Y-28520000D01*
X93960000Y-28560000D02*
X92935000Y-28560000D01*
X93960000Y-28600000D02*
X92965000Y-28600000D01*
X93960000Y-28640000D02*
X92997000Y-28640000D01*
X93960000Y-28680000D02*
X93030000Y-28680000D01*
X93960000Y-28720000D02*
X93064000Y-28720000D01*
X93960000Y-28760000D02*
X93099000Y-28760000D01*
X93960000Y-28800000D02*
X93136000Y-28800000D01*
X93960000Y-28840000D02*
X93175000Y-28840000D01*
X93960000Y-28880000D02*
X93215000Y-28880000D01*
X93960000Y-28920000D02*
X93257000Y-28920000D01*
X93960000Y-28960000D02*
X93301000Y-28960000D01*
X93960000Y-29000000D02*
X93348000Y-29000000D01*
X95283000Y-29600000D02*
X94717000Y-29600000D01*
X95517000Y-29560000D02*
X94483000Y-29560000D01*
X95677000Y-29520000D02*
X94323000Y-29520000D01*
X95805000Y-29480000D02*
X94195000Y-29480000D01*
X95914000Y-29440000D02*
X94086000Y-29440000D01*
X96011000Y-29400000D02*
X93989000Y-29400000D01*
X96098000Y-29360000D02*
X93902000Y-29360000D01*
X96177000Y-29320000D02*
X93823000Y-29320000D01*
X96251000Y-29280000D02*
X93749000Y-29280000D01*
X96319000Y-29240000D02*
X93681000Y-29240000D01*
X96383000Y-29200000D02*
X93617000Y-29200000D01*
X96443000Y-29160000D02*
X93557000Y-29160000D01*
X96475000Y-24195225D02*
X96475000Y-24695225D01*
X96499000Y-29120000D02*
X93501000Y-29120000D01*
X96553000Y-29080000D02*
X93447000Y-29080000D01*
X96604000Y-29040000D02*
X93396000Y-29040000D01*
X96652000Y-29000000D02*
X96040000Y-29000000D01*
X96699000Y-28960000D02*
X96040000Y-28960000D01*
X96725000Y-24445225D02*
X96225000Y-24445225D01*
X96743000Y-28920000D02*
X96040000Y-28920000D01*
X96785000Y-28880000D02*
X96040000Y-28880000D01*
X96825000Y-28840000D02*
X96040000Y-28840000D01*
X96864000Y-28800000D02*
X96040000Y-28800000D01*
X96901000Y-28760000D02*
X96040000Y-28760000D01*
X96936000Y-28720000D02*
X96040000Y-28720000D01*
X96970000Y-28680000D02*
X96040000Y-28680000D01*
X97003000Y-28640000D02*
X96040000Y-28640000D01*
X97035000Y-28600000D02*
X96040000Y-28600000D01*
X97065000Y-28560000D02*
X96040000Y-28560000D01*
X97094000Y-28520000D02*
X96040000Y-28520000D01*
X97122000Y-28480000D02*
X96040000Y-28480000D01*
X97149000Y-28440000D02*
X96040000Y-28440000D01*
X97175000Y-28400000D02*
X96040000Y-28400000D01*
X97199000Y-28360000D02*
X96040000Y-28360000D01*
X97223000Y-28320000D02*
X96040000Y-28320000D01*
X97246000Y-28280000D02*
X96040000Y-28280000D01*
X97268000Y-28240000D02*
X96040000Y-28240000D01*
X97289000Y-28200000D02*
X96040000Y-28200000D01*
X97309000Y-28160000D02*
X96040000Y-28160000D01*
X97329000Y-28120000D02*
X96040000Y-28120000D01*
X97347000Y-28080000D02*
X96040000Y-28080000D01*
X97365000Y-28040000D02*
X96040000Y-28040000D01*
X97382000Y-28000000D02*
X96040000Y-28000000D01*
X97398000Y-27960000D02*
X96040000Y-27960000D01*
X97413000Y-27920000D02*
X96040000Y-27920000D01*
X97428000Y-27880000D02*
X96040000Y-27880000D01*
X97442000Y-27840000D02*
X96040000Y-27840000D01*
X97455000Y-27800000D02*
X96040000Y-27800000D01*
X97467000Y-27760000D02*
X96040000Y-27760000D01*
X97479000Y-27720000D02*
X96040000Y-27720000D01*
X97490000Y-27680000D02*
X96040000Y-27680000D01*
X97501000Y-27640000D02*
X96040000Y-27640000D01*
X97510000Y-27600000D02*
X96040000Y-27600000D01*
X97519000Y-27560000D02*
X96040000Y-27560000D01*
X97528000Y-27520000D02*
X96040000Y-27520000D01*
X97536000Y-27480000D02*
X96040000Y-27480000D01*
X97543000Y-27440000D02*
X96040000Y-27440000D01*
X97549000Y-27400000D02*
X96040000Y-27400000D01*
X97555000Y-27360000D02*
X96040000Y-27360000D01*
X97560000Y-27320000D02*
X96040000Y-27320000D01*
X97565000Y-27280000D02*
X96040000Y-27280000D01*
X97569000Y-27240000D02*
X96040000Y-27240000D01*
X97572000Y-27200000D02*
X96040000Y-27200000D01*
X97575000Y-27160000D02*
X96040000Y-27160000D01*
X97577000Y-27120000D02*
X96040000Y-27120000D01*
X97579000Y-27080000D02*
X96040000Y-27080000D01*
X97580000Y-27000000D02*
X96040000Y-27000000D01*
X97580000Y-27040000D02*
X96040000Y-27040000D01*
X97620000Y-27000000D02*
G75*
G02*
X92380000Y-27000000I-2620000J0D01*
G01*
X92380000Y-27000000D02*
G75*
G02*
X97620000Y-27000000I2620000J0D01*
G01*
%TO.C,R14*%
X25730000Y-29335000D02*
X28340000Y-29335000D01*
X25730000Y-29335000D02*
G75*
G02*
X22990000Y-29335000I-1370000J0D01*
G01*
X22990000Y-29335000D02*
G75*
G02*
X25730000Y-29335000I1370000J0D01*
G01*
%TO.C,R18*%
X33410000Y-16000000D02*
X36020000Y-16000000D01*
X33410000Y-16000000D02*
G75*
G02*
X30670000Y-16000000I-1370000J0D01*
G01*
X30670000Y-16000000D02*
G75*
G02*
X33410000Y-16000000I1370000J0D01*
G01*
%TO.C,R17*%
X25730000Y-64260000D02*
X28340000Y-64260000D01*
X25730000Y-64260000D02*
G75*
G02*
X22990000Y-64260000I-1370000J0D01*
G01*
X22990000Y-64260000D02*
G75*
G02*
X25730000Y-64260000I1370000J0D01*
G01*
%TO.C,R39*%
X80000000Y-65370000D02*
X80000000Y-67980000D01*
X81370000Y-64000000D02*
G75*
G02*
X78630000Y-64000000I-1370000J0D01*
G01*
X78630000Y-64000000D02*
G75*
G02*
X81370000Y-64000000I1370000J0D01*
G01*
%TO.C,Q45*%
X51740000Y-17960000D02*
X48140000Y-17960000D01*
X47615816Y-18687205D02*
G75*
G02*
X48140000Y-17960000I2324184J-1122795D01*
G01*
X49940000Y-22410000D02*
G75*
G02*
X47583600Y-20908807I0J2600000D01*
G01*
X51740000Y-17960000D02*
G75*
G02*
X52264184Y-18687205I-1800000J-1850000D01*
G01*
X52296400Y-20908807D02*
G75*
G02*
X49940000Y-22410000I-2356400J1098807D01*
G01*
%TO.C,R19*%
X33410000Y-29335000D02*
X36020000Y-29335000D01*
X33410000Y-29335000D02*
G75*
G02*
X30670000Y-29335000I-1370000J0D01*
G01*
X30670000Y-29335000D02*
G75*
G02*
X33410000Y-29335000I1370000J0D01*
G01*
%TO.C,R38*%
X56450000Y-61720000D02*
X59060000Y-61720000D01*
X56450000Y-61720000D02*
G75*
G02*
X53710000Y-61720000I-1370000J0D01*
G01*
X53710000Y-61720000D02*
G75*
G02*
X56450000Y-61720000I1370000J0D01*
G01*
%TO.C,Q42*%
X40460000Y-62300000D02*
X44060000Y-62300000D01*
X39903600Y-59351193D02*
G75*
G02*
X42260000Y-57850000I2356400J-1098807D01*
G01*
X40460000Y-62300000D02*
G75*
G02*
X39935816Y-61572795I1800000J1850000D01*
G01*
X42260000Y-57850000D02*
G75*
G02*
X44616400Y-59351193I0J-2600000D01*
G01*
X44584184Y-61572795D02*
G75*
G02*
X44060000Y-62300000I-2324184J1122795D01*
G01*
%TO.C,Q7*%
X9740000Y-68650000D02*
X13340000Y-68650000D01*
X9183600Y-65701193D02*
G75*
G02*
X11540000Y-64200000I2356400J-1098807D01*
G01*
X9740000Y-68650000D02*
G75*
G02*
X9215816Y-67922795I1800000J1850000D01*
G01*
X11540000Y-64200000D02*
G75*
G02*
X13896400Y-65701193I0J-2600000D01*
G01*
X13864184Y-67922795D02*
G75*
G02*
X13340000Y-68650000I-2324184J1122795D01*
G01*
%TO.C,R24*%
X41090000Y-29335000D02*
X43700000Y-29335000D01*
X41090000Y-29335000D02*
G75*
G02*
X38350000Y-29335000I-1370000J0D01*
G01*
X38350000Y-29335000D02*
G75*
G02*
X41090000Y-29335000I1370000J0D01*
G01*
%TO.C,Q24*%
X25100000Y-62300000D02*
X28700000Y-62300000D01*
X24543600Y-59351193D02*
G75*
G02*
X26900000Y-57850000I2356400J-1098807D01*
G01*
X25100000Y-62300000D02*
G75*
G02*
X24575816Y-61572795I1800000J1850000D01*
G01*
X26900000Y-57850000D02*
G75*
G02*
X29256400Y-59351193I0J-2600000D01*
G01*
X29224184Y-61572795D02*
G75*
G02*
X28700000Y-62300000I-2324184J1122795D01*
G01*
%TO.C,Q12*%
X21020000Y-34470000D02*
X17420000Y-34470000D01*
X16895816Y-35197205D02*
G75*
G02*
X17420000Y-34470000I2324184J-1122795D01*
G01*
X19220000Y-38920000D02*
G75*
G02*
X16863600Y-37418807I0J2600000D01*
G01*
X21020000Y-34470000D02*
G75*
G02*
X21544184Y-35197205I-1800000J-1850000D01*
G01*
X21576400Y-37418807D02*
G75*
G02*
X19220000Y-38920000I-2356400J1098807D01*
G01*
%TO.C,R20*%
X33410000Y-37590000D02*
X36020000Y-37590000D01*
X33410000Y-37590000D02*
G75*
G02*
X30670000Y-37590000I-1370000J0D01*
G01*
X30670000Y-37590000D02*
G75*
G02*
X33410000Y-37590000I1370000J0D01*
G01*
%TO.C,R22*%
X33410000Y-64260000D02*
X36020000Y-64260000D01*
X33410000Y-64260000D02*
G75*
G02*
X30670000Y-64260000I-1370000J0D01*
G01*
X30670000Y-64260000D02*
G75*
G02*
X33410000Y-64260000I1370000J0D01*
G01*
%TO.C,R36*%
X56450000Y-31240000D02*
X59060000Y-31240000D01*
X56450000Y-31240000D02*
G75*
G02*
X53710000Y-31240000I-1370000J0D01*
G01*
X53710000Y-31240000D02*
G75*
G02*
X56450000Y-31240000I1370000J0D01*
G01*
%TO.C,R4*%
X10370000Y-45845000D02*
X12980000Y-45845000D01*
X10370000Y-45845000D02*
G75*
G02*
X7630000Y-45845000I-1370000J0D01*
G01*
X7630000Y-45845000D02*
G75*
G02*
X10370000Y-45845000I1370000J0D01*
G01*
%TO.C,Q53*%
X51740000Y-77650000D02*
X48140000Y-77650000D01*
X47615816Y-78377205D02*
G75*
G02*
X48140000Y-77650000I2324184J-1122795D01*
G01*
X49940000Y-82100000D02*
G75*
G02*
X47583600Y-80598807I0J2600000D01*
G01*
X51740000Y-77650000D02*
G75*
G02*
X52264184Y-78377205I-1800000J-1850000D01*
G01*
X52296400Y-80598807D02*
G75*
G02*
X49940000Y-82100000I-2356400J1098807D01*
G01*
%TO.C,R35*%
X56450000Y-16000000D02*
X59060000Y-16000000D01*
X56450000Y-16000000D02*
G75*
G02*
X53710000Y-16000000I-1370000J0D01*
G01*
X53710000Y-16000000D02*
G75*
G02*
X56450000Y-16000000I1370000J0D01*
G01*
%TO.C,R3*%
X10370000Y-37590000D02*
X12980000Y-37590000D01*
X10370000Y-37590000D02*
G75*
G02*
X7630000Y-37590000I-1370000J0D01*
G01*
X7630000Y-37590000D02*
G75*
G02*
X10370000Y-37590000I1370000J0D01*
G01*
%TO.C,R16*%
X25730000Y-50925000D02*
X28340000Y-50925000D01*
X25730000Y-50925000D02*
G75*
G02*
X22990000Y-50925000I-1370000J0D01*
G01*
X22990000Y-50925000D02*
G75*
G02*
X25730000Y-50925000I1370000J0D01*
G01*
%TO.C,R31*%
X48770000Y-45845000D02*
X51380000Y-45845000D01*
X48770000Y-45845000D02*
G75*
G02*
X46030000Y-45845000I-1370000J0D01*
G01*
X46030000Y-45845000D02*
G75*
G02*
X48770000Y-45845000I1370000J0D01*
G01*
%TO.C,Q28*%
X36380000Y-23040000D02*
X32780000Y-23040000D01*
X32255816Y-23767205D02*
G75*
G02*
X32780000Y-23040000I2324184J-1122795D01*
G01*
X34580000Y-27490000D02*
G75*
G02*
X32223600Y-25988807I0J2600000D01*
G01*
X36380000Y-23040000D02*
G75*
G02*
X36904184Y-23767205I-1800000J-1850000D01*
G01*
X36936400Y-25988807D02*
G75*
G02*
X34580000Y-27490000I-2356400J1098807D01*
G01*
%TO.C,Q39*%
X40460000Y-43885000D02*
X44060000Y-43885000D01*
X39903600Y-40936193D02*
G75*
G02*
X42260000Y-39435000I2356400J-1098807D01*
G01*
X40460000Y-43885000D02*
G75*
G02*
X39935816Y-43157795I1800000J1850000D01*
G01*
X42260000Y-39435000D02*
G75*
G02*
X44616400Y-40936193I0J-2600000D01*
G01*
X44584184Y-43157795D02*
G75*
G02*
X44060000Y-43885000I-2324184J1122795D01*
G01*
%TO.C,R32*%
X48770000Y-54100000D02*
X51380000Y-54100000D01*
X48770000Y-54100000D02*
G75*
G02*
X46030000Y-54100000I-1370000J0D01*
G01*
X46030000Y-54100000D02*
G75*
G02*
X48770000Y-54100000I1370000J0D01*
G01*
%TO.C,R27*%
X41090000Y-64260000D02*
X43700000Y-64260000D01*
X41090000Y-64260000D02*
G75*
G02*
X38350000Y-64260000I-1370000J0D01*
G01*
X38350000Y-64260000D02*
G75*
G02*
X41090000Y-64260000I1370000J0D01*
G01*
%TO.C,R6*%
X10370000Y-62355000D02*
X12980000Y-62355000D01*
X10370000Y-62355000D02*
G75*
G02*
X7630000Y-62355000I-1370000J0D01*
G01*
X7630000Y-62355000D02*
G75*
G02*
X10370000Y-62355000I1370000J0D01*
G01*
%TO.C,Q16*%
X21020000Y-61140000D02*
X17420000Y-61140000D01*
X16895816Y-61867205D02*
G75*
G02*
X17420000Y-61140000I2324184J-1122795D01*
G01*
X19220000Y-65590000D02*
G75*
G02*
X16863600Y-64088807I0J2600000D01*
G01*
X21020000Y-61140000D02*
G75*
G02*
X21544184Y-61867205I-1800000J-1850000D01*
G01*
X21576400Y-64088807D02*
G75*
G02*
X19220000Y-65590000I-2356400J1098807D01*
G01*
%TO.C,Q10*%
X21020000Y-17960000D02*
X17420000Y-17960000D01*
X16895816Y-18687205D02*
G75*
G02*
X17420000Y-17960000I2324184J-1122795D01*
G01*
X19220000Y-22410000D02*
G75*
G02*
X16863600Y-20908807I0J2600000D01*
G01*
X21020000Y-17960000D02*
G75*
G02*
X21544184Y-18687205I-1800000J-1850000D01*
G01*
X21576400Y-20908807D02*
G75*
G02*
X19220000Y-22410000I-2356400J1098807D01*
G01*
%TO.C,Q35*%
X36380000Y-71300000D02*
X32780000Y-71300000D01*
X32255816Y-72027205D02*
G75*
G02*
X32780000Y-71300000I2324184J-1122795D01*
G01*
X34580000Y-75750000D02*
G75*
G02*
X32223600Y-74248807I0J2600000D01*
G01*
X36380000Y-71300000D02*
G75*
G02*
X36904184Y-72027205I-1800000J-1850000D01*
G01*
X36936400Y-74248807D02*
G75*
G02*
X34580000Y-75750000I-2356400J1098807D01*
G01*
%TO.C,R11*%
X18050000Y-45845000D02*
X20660000Y-45845000D01*
X18050000Y-45845000D02*
G75*
G02*
X15310000Y-45845000I-1370000J0D01*
G01*
X15310000Y-45845000D02*
G75*
G02*
X18050000Y-45845000I1370000J0D01*
G01*
%TO.C,R15*%
X25730000Y-37590000D02*
X28340000Y-37590000D01*
X25730000Y-37590000D02*
G75*
G02*
X22990000Y-37590000I-1370000J0D01*
G01*
X22990000Y-37590000D02*
G75*
G02*
X25730000Y-37590000I1370000J0D01*
G01*
%TO.C,Q57*%
X55820000Y-74365000D02*
X59420000Y-74365000D01*
X55263600Y-71416193D02*
G75*
G02*
X57620000Y-69915000I2356400J-1098807D01*
G01*
X55820000Y-74365000D02*
G75*
G02*
X55295816Y-73637795I1800000J1850000D01*
G01*
X57620000Y-69915000D02*
G75*
G02*
X59976400Y-71416193I0J-2600000D01*
G01*
X59944184Y-73637795D02*
G75*
G02*
X59420000Y-74365000I-2324184J1122795D01*
G01*
%TO.C,R2*%
X10370000Y-24255000D02*
X12980000Y-24255000D01*
X10370000Y-24255000D02*
G75*
G02*
X7630000Y-24255000I-1370000J0D01*
G01*
X7630000Y-24255000D02*
G75*
G02*
X10370000Y-24255000I1370000J0D01*
G01*
%TO.C,Q11*%
X21020000Y-26215000D02*
X17420000Y-26215000D01*
X16895816Y-26942205D02*
G75*
G02*
X17420000Y-26215000I2324184J-1122795D01*
G01*
X19220000Y-30665000D02*
G75*
G02*
X16863600Y-29163807I0J2600000D01*
G01*
X21020000Y-26215000D02*
G75*
G02*
X21544184Y-26942205I-1800000J-1850000D01*
G01*
X21576400Y-29163807D02*
G75*
G02*
X19220000Y-30665000I-2356400J1098807D01*
G01*
%TO.C,Q32*%
X36380000Y-52885000D02*
X32780000Y-52885000D01*
X32255816Y-53612205D02*
G75*
G02*
X32780000Y-52885000I2324184J-1122795D01*
G01*
X34580000Y-57335000D02*
G75*
G02*
X32223600Y-55833807I0J2600000D01*
G01*
X36380000Y-52885000D02*
G75*
G02*
X36904184Y-53612205I-1800000J-1850000D01*
G01*
X36936400Y-55833807D02*
G75*
G02*
X34580000Y-57335000I-2356400J1098807D01*
G01*
%TO.C,Q37*%
X40460000Y-27375000D02*
X44060000Y-27375000D01*
X39903600Y-24426193D02*
G75*
G02*
X42260000Y-22925000I2356400J-1098807D01*
G01*
X40460000Y-27375000D02*
G75*
G02*
X39935816Y-26647795I1800000J1850000D01*
G01*
X42260000Y-22925000D02*
G75*
G02*
X44616400Y-24426193I0J-2600000D01*
G01*
X44584184Y-26647795D02*
G75*
G02*
X44060000Y-27375000I-2324184J1122795D01*
G01*
%TO.C,Q52*%
X51740000Y-69395000D02*
X48140000Y-69395000D01*
X47615816Y-70122205D02*
G75*
G02*
X48140000Y-69395000I2324184J-1122795D01*
G01*
X49940000Y-73845000D02*
G75*
G02*
X47583600Y-72343807I0J2600000D01*
G01*
X51740000Y-69395000D02*
G75*
G02*
X52264184Y-70122205I-1800000J-1850000D01*
G01*
X52296400Y-72343807D02*
G75*
G02*
X49940000Y-73845000I-2356400J1098807D01*
G01*
%TO.C,D4*%
X56384000Y-68360000D02*
X56540000Y-68360000D01*
X58700000Y-68360000D02*
X58856000Y-68360000D01*
X56384484Y-68360000D02*
G75*
G02*
X56540000Y-65128563I1235516J1560000D01*
G01*
X56540000Y-67840961D02*
G75*
G02*
X56540000Y-65759039I1080000J1040961D01*
G01*
X58700000Y-65128563D02*
G75*
G02*
X58855516Y-68360000I-1080000J-1671437D01*
G01*
X58700000Y-65759039D02*
G75*
G02*
X58700000Y-67840961I-1080000J-1040961D01*
G01*
%TO.C,Q20*%
X25100000Y-35630000D02*
X28700000Y-35630000D01*
X24543600Y-32681193D02*
G75*
G02*
X26900000Y-31180000I2356400J-1098807D01*
G01*
X25100000Y-35630000D02*
G75*
G02*
X24575816Y-34902795I1800000J1850000D01*
G01*
X26900000Y-31180000D02*
G75*
G02*
X29256400Y-32681193I0J-2600000D01*
G01*
X29224184Y-34902795D02*
G75*
G02*
X28700000Y-35630000I-2324184J1122795D01*
G01*
%TO.C,Q1*%
X9740000Y-22295000D02*
X13340000Y-22295000D01*
X9183600Y-19346193D02*
G75*
G02*
X11540000Y-17845000I2356400J-1098807D01*
G01*
X9740000Y-22295000D02*
G75*
G02*
X9215816Y-21567795I1800000J1850000D01*
G01*
X11540000Y-17845000D02*
G75*
G02*
X13896400Y-19346193I0J-2600000D01*
G01*
X13864184Y-21567795D02*
G75*
G02*
X13340000Y-22295000I-2324184J1122795D01*
G01*
%TO.C,Q5*%
X9740000Y-52140000D02*
X13340000Y-52140000D01*
X9183600Y-49191193D02*
G75*
G02*
X11540000Y-47690000I2356400J-1098807D01*
G01*
X9740000Y-52140000D02*
G75*
G02*
X9215816Y-51412795I1800000J1850000D01*
G01*
X11540000Y-47690000D02*
G75*
G02*
X13896400Y-49191193I0J-2600000D01*
G01*
X13864184Y-51412795D02*
G75*
G02*
X13340000Y-52140000I-2324184J1122795D01*
G01*
%TO.C,R9*%
X18050000Y-24255000D02*
X20660000Y-24255000D01*
X18050000Y-24255000D02*
G75*
G02*
X15310000Y-24255000I-1370000J0D01*
G01*
X15310000Y-24255000D02*
G75*
G02*
X18050000Y-24255000I1370000J0D01*
G01*
%TO.C,R21*%
X33410000Y-50925000D02*
X36020000Y-50925000D01*
X33410000Y-50925000D02*
G75*
G02*
X30670000Y-50925000I-1370000J0D01*
G01*
X30670000Y-50925000D02*
G75*
G02*
X33410000Y-50925000I1370000J0D01*
G01*
%TO.C,Q17*%
X21020000Y-66220000D02*
X17420000Y-66220000D01*
X16895816Y-66947205D02*
G75*
G02*
X17420000Y-66220000I2324184J-1122795D01*
G01*
X19220000Y-70670000D02*
G75*
G02*
X16863600Y-69168807I0J2600000D01*
G01*
X21020000Y-66220000D02*
G75*
G02*
X21544184Y-66947205I-1800000J-1850000D01*
G01*
X21576400Y-69168807D02*
G75*
G02*
X19220000Y-70670000I-2356400J1098807D01*
G01*
%TO.C,Q18*%
X25100000Y-22295000D02*
X28700000Y-22295000D01*
X24543600Y-19346193D02*
G75*
G02*
X26900000Y-17845000I2356400J-1098807D01*
G01*
X25100000Y-22295000D02*
G75*
G02*
X24575816Y-21567795I1800000J1850000D01*
G01*
X26900000Y-17845000D02*
G75*
G02*
X29256400Y-19346193I0J-2600000D01*
G01*
X29224184Y-21567795D02*
G75*
G02*
X28700000Y-22295000I-2324184J1122795D01*
G01*
%TO.C,R25*%
X41090000Y-37590000D02*
X43700000Y-37590000D01*
X41090000Y-37590000D02*
G75*
G02*
X38350000Y-37590000I-1370000J0D01*
G01*
X38350000Y-37590000D02*
G75*
G02*
X41090000Y-37590000I1370000J0D01*
G01*
%TO.C,Q19*%
X25100000Y-27375000D02*
X28700000Y-27375000D01*
X24543600Y-24426193D02*
G75*
G02*
X26900000Y-22925000I2356400J-1098807D01*
G01*
X25100000Y-27375000D02*
G75*
G02*
X24575816Y-26647795I1800000J1850000D01*
G01*
X26900000Y-22925000D02*
G75*
G02*
X29256400Y-24426193I0J-2600000D01*
G01*
X29224184Y-26647795D02*
G75*
G02*
X28700000Y-27375000I-2324184J1122795D01*
G01*
%TO.C,R7*%
X10370000Y-70610000D02*
X12980000Y-70610000D01*
X10370000Y-70610000D02*
G75*
G02*
X7630000Y-70610000I-1370000J0D01*
G01*
X7630000Y-70610000D02*
G75*
G02*
X10370000Y-70610000I1370000J0D01*
G01*
%TO.C,Q40*%
X40460000Y-48965000D02*
X44060000Y-48965000D01*
X39903600Y-46016193D02*
G75*
G02*
X42260000Y-44515000I2356400J-1098807D01*
G01*
X40460000Y-48965000D02*
G75*
G02*
X39935816Y-48237795I1800000J1850000D01*
G01*
X42260000Y-44515000D02*
G75*
G02*
X44616400Y-46016193I0J-2600000D01*
G01*
X44584184Y-48237795D02*
G75*
G02*
X44060000Y-48965000I-2324184J1122795D01*
G01*
%TO.C,Q9*%
X9740000Y-81985000D02*
X13340000Y-81985000D01*
X9183600Y-79036193D02*
G75*
G02*
X11540000Y-77535000I2356400J-1098807D01*
G01*
X9740000Y-81985000D02*
G75*
G02*
X9215816Y-81257795I1800000J1850000D01*
G01*
X11540000Y-77535000D02*
G75*
G02*
X13896400Y-79036193I0J-2600000D01*
G01*
X13864184Y-81257795D02*
G75*
G02*
X13340000Y-81985000I-2324184J1122795D01*
G01*
%TO.C,Q56*%
X55820000Y-59125000D02*
X59420000Y-59125000D01*
X55263600Y-56176193D02*
G75*
G02*
X57620000Y-54675000I2356400J-1098807D01*
G01*
X55820000Y-59125000D02*
G75*
G02*
X55295816Y-58397795I1800000J1850000D01*
G01*
X57620000Y-54675000D02*
G75*
G02*
X59976400Y-56176193I0J-2600000D01*
G01*
X59944184Y-58397795D02*
G75*
G02*
X59420000Y-59125000I-2324184J1122795D01*
G01*
%TO.C,Q2*%
X9740000Y-30550000D02*
X13340000Y-30550000D01*
X9183600Y-27601193D02*
G75*
G02*
X11540000Y-26100000I2356400J-1098807D01*
G01*
X9740000Y-30550000D02*
G75*
G02*
X9215816Y-29822795I1800000J1850000D01*
G01*
X11540000Y-26100000D02*
G75*
G02*
X13896400Y-27601193I0J-2600000D01*
G01*
X13864184Y-29822795D02*
G75*
G02*
X13340000Y-30550000I-2324184J1122795D01*
G01*
%TO.C,R5*%
X10370000Y-54100000D02*
X12980000Y-54100000D01*
X10370000Y-54100000D02*
G75*
G02*
X7630000Y-54100000I-1370000J0D01*
G01*
X7630000Y-54100000D02*
G75*
G02*
X10370000Y-54100000I1370000J0D01*
G01*
%TO.C,R23*%
X41090000Y-16000000D02*
X43700000Y-16000000D01*
X41090000Y-16000000D02*
G75*
G02*
X38350000Y-16000000I-1370000J0D01*
G01*
X38350000Y-16000000D02*
G75*
G02*
X41090000Y-16000000I1370000J0D01*
G01*
%TO.C,Q25*%
X25100000Y-70555000D02*
X28700000Y-70555000D01*
X24543600Y-67606193D02*
G75*
G02*
X26900000Y-66105000I2356400J-1098807D01*
G01*
X25100000Y-70555000D02*
G75*
G02*
X24575816Y-69827795I1800000J1850000D01*
G01*
X26900000Y-66105000D02*
G75*
G02*
X29256400Y-67606193I0J-2600000D01*
G01*
X29224184Y-69827795D02*
G75*
G02*
X28700000Y-70555000I-2324184J1122795D01*
G01*
%TO.C,Q34*%
X36380000Y-66220000D02*
X32780000Y-66220000D01*
X32255816Y-66947205D02*
G75*
G02*
X32780000Y-66220000I2324184J-1122795D01*
G01*
X34580000Y-70670000D02*
G75*
G02*
X32223600Y-69168807I0J2600000D01*
G01*
X36380000Y-66220000D02*
G75*
G02*
X36904184Y-66947205I-1800000J-1850000D01*
G01*
X36936400Y-69168807D02*
G75*
G02*
X34580000Y-70670000I-2356400J1098807D01*
G01*
%TO.C,R34*%
X48770000Y-75690000D02*
X51380000Y-75690000D01*
X48770000Y-75690000D02*
G75*
G02*
X46030000Y-75690000I-1370000J0D01*
G01*
X46030000Y-75690000D02*
G75*
G02*
X48770000Y-75690000I1370000J0D01*
G01*
%TO.C,Q8*%
X9740000Y-76905000D02*
X13340000Y-76905000D01*
X9183600Y-73956193D02*
G75*
G02*
X11540000Y-72455000I2356400J-1098807D01*
G01*
X9740000Y-76905000D02*
G75*
G02*
X9215816Y-76177795I1800000J1850000D01*
G01*
X11540000Y-72455000D02*
G75*
G02*
X13896400Y-73956193I0J-2600000D01*
G01*
X13864184Y-76177795D02*
G75*
G02*
X13340000Y-76905000I-2324184J1122795D01*
G01*
%TO.C,R10*%
X18050000Y-32510000D02*
X20660000Y-32510000D01*
X18050000Y-32510000D02*
G75*
G02*
X15310000Y-32510000I-1370000J0D01*
G01*
X15310000Y-32510000D02*
G75*
G02*
X18050000Y-32510000I1370000J0D01*
G01*
%TO.C,Q43*%
X40460000Y-70555000D02*
X44060000Y-70555000D01*
X39903600Y-67606193D02*
G75*
G02*
X42260000Y-66105000I2356400J-1098807D01*
G01*
X40460000Y-70555000D02*
G75*
G02*
X39935816Y-69827795I1800000J1850000D01*
G01*
X42260000Y-66105000D02*
G75*
G02*
X44616400Y-67606193I0J-2600000D01*
G01*
X44584184Y-69827795D02*
G75*
G02*
X44060000Y-70555000I-2324184J1122795D01*
G01*
%TO.C,J2*%
X34790000Y-89170000D02*
X57910000Y-89170000D01*
X34790000Y-98290000D02*
X34790000Y-89170000D01*
X36090000Y-90480000D02*
X56610000Y-90480000D01*
X36090000Y-96980000D02*
X36090000Y-90480000D01*
X39500000Y-99680000D02*
X40500000Y-99680000D01*
X40000000Y-98680000D02*
X39500000Y-99680000D01*
X40500000Y-99680000D02*
X40000000Y-98680000D01*
X44300000Y-96980000D02*
X36090000Y-96980000D01*
X44300000Y-98290000D02*
X44300000Y-96980000D01*
X48400000Y-96980000D02*
X48400000Y-98290000D01*
X56610000Y-90480000D02*
X56610000Y-96980000D01*
X56610000Y-96980000D02*
X48400000Y-96980000D01*
X57910000Y-89170000D02*
X57910000Y-98290000D01*
X57910000Y-98290000D02*
X34790000Y-98290000D01*
%TO.C,Q27*%
X36380000Y-17960000D02*
X32780000Y-17960000D01*
X32255816Y-18687205D02*
G75*
G02*
X32780000Y-17960000I2324184J-1122795D01*
G01*
X34580000Y-22410000D02*
G75*
G02*
X32223600Y-20908807I0J2600000D01*
G01*
X36380000Y-17960000D02*
G75*
G02*
X36904184Y-18687205I-1800000J-1850000D01*
G01*
X36936400Y-20908807D02*
G75*
G02*
X34580000Y-22410000I-2356400J1098807D01*
G01*
%TO.C,D2*%
X56384000Y-37880000D02*
X56540000Y-37880000D01*
X58700000Y-37880000D02*
X58856000Y-37880000D01*
X56384484Y-37880000D02*
G75*
G02*
X56540000Y-34648563I1235516J1560000D01*
G01*
X56540000Y-37360961D02*
G75*
G02*
X56540000Y-35279039I1080000J1040961D01*
G01*
X58700000Y-34648563D02*
G75*
G02*
X58855516Y-37880000I-1080000J-1671437D01*
G01*
X58700000Y-35279039D02*
G75*
G02*
X58700000Y-37360961I-1080000J-1040961D01*
G01*
%TO.C,Q51*%
X51740000Y-64315000D02*
X48140000Y-64315000D01*
X47615816Y-65042205D02*
G75*
G02*
X48140000Y-64315000I2324184J-1122795D01*
G01*
X49940000Y-68765000D02*
G75*
G02*
X47583600Y-67263807I0J2600000D01*
G01*
X51740000Y-64315000D02*
G75*
G02*
X52264184Y-65042205I-1800000J-1850000D01*
G01*
X52296400Y-67263807D02*
G75*
G02*
X49940000Y-68765000I-2356400J1098807D01*
G01*
%TO.C,Q3*%
X9740000Y-35630000D02*
X13340000Y-35630000D01*
X9183600Y-32681193D02*
G75*
G02*
X11540000Y-31180000I2356400J-1098807D01*
G01*
X9740000Y-35630000D02*
G75*
G02*
X9215816Y-34902795I1800000J1850000D01*
G01*
X11540000Y-31180000D02*
G75*
G02*
X13896400Y-32681193I0J-2600000D01*
G01*
X13864184Y-34902795D02*
G75*
G02*
X13340000Y-35630000I-2324184J1122795D01*
G01*
%TO.C,Q54*%
X55820000Y-28645000D02*
X59420000Y-28645000D01*
X55263600Y-25696193D02*
G75*
G02*
X57620000Y-24195000I2356400J-1098807D01*
G01*
X55820000Y-28645000D02*
G75*
G02*
X55295816Y-27917795I1800000J1850000D01*
G01*
X57620000Y-24195000D02*
G75*
G02*
X59976400Y-25696193I0J-2600000D01*
G01*
X59944184Y-27917795D02*
G75*
G02*
X59420000Y-28645000I-2324184J1122795D01*
G01*
%TO.C,Q29*%
X36380000Y-31295000D02*
X32780000Y-31295000D01*
X32255816Y-32022205D02*
G75*
G02*
X32780000Y-31295000I2324184J-1122795D01*
G01*
X34580000Y-35745000D02*
G75*
G02*
X32223600Y-34243807I0J2600000D01*
G01*
X36380000Y-31295000D02*
G75*
G02*
X36904184Y-32022205I-1800000J-1850000D01*
G01*
X36936400Y-34243807D02*
G75*
G02*
X34580000Y-35745000I-2356400J1098807D01*
G01*
%TO.C,R13*%
X25730000Y-16000000D02*
X28340000Y-16000000D01*
X25730000Y-16000000D02*
G75*
G02*
X22990000Y-16000000I-1370000J0D01*
G01*
X22990000Y-16000000D02*
G75*
G02*
X25730000Y-16000000I1370000J0D01*
G01*
%TO.C,Q41*%
X40460000Y-57220000D02*
X44060000Y-57220000D01*
X39903600Y-54271193D02*
G75*
G02*
X42260000Y-52770000I2356400J-1098807D01*
G01*
X40460000Y-57220000D02*
G75*
G02*
X39935816Y-56492795I1800000J1850000D01*
G01*
X42260000Y-52770000D02*
G75*
G02*
X44616400Y-54271193I0J-2600000D01*
G01*
X44584184Y-56492795D02*
G75*
G02*
X44060000Y-57220000I-2324184J1122795D01*
G01*
%TO.C,R30*%
X48770000Y-37590000D02*
X51380000Y-37590000D01*
X48770000Y-37590000D02*
G75*
G02*
X46030000Y-37590000I-1370000J0D01*
G01*
X46030000Y-37590000D02*
G75*
G02*
X48770000Y-37590000I1370000J0D01*
G01*
%TO.C,D1*%
X56384000Y-22640000D02*
X56540000Y-22640000D01*
X58700000Y-22640000D02*
X58856000Y-22640000D01*
X56384484Y-22640000D02*
G75*
G02*
X56540000Y-19408563I1235516J1560000D01*
G01*
X56540000Y-22120961D02*
G75*
G02*
X56540000Y-20039039I1080000J1040961D01*
G01*
X58700000Y-19408563D02*
G75*
G02*
X58855516Y-22640000I-1080000J-1671437D01*
G01*
X58700000Y-20039039D02*
G75*
G02*
X58700000Y-22120961I-1080000J-1040961D01*
G01*
%TO.C,Q6*%
X9740000Y-60395000D02*
X13340000Y-60395000D01*
X9183600Y-57446193D02*
G75*
G02*
X11540000Y-55945000I2356400J-1098807D01*
G01*
X9740000Y-60395000D02*
G75*
G02*
X9215816Y-59667795I1800000J1850000D01*
G01*
X11540000Y-55945000D02*
G75*
G02*
X13896400Y-57446193I0J-2600000D01*
G01*
X13864184Y-59667795D02*
G75*
G02*
X13340000Y-60395000I-2324184J1122795D01*
G01*
%TO.C,Q33*%
X36380000Y-57965000D02*
X32780000Y-57965000D01*
X32255816Y-58692205D02*
G75*
G02*
X32780000Y-57965000I2324184J-1122795D01*
G01*
X34580000Y-62415000D02*
G75*
G02*
X32223600Y-60913807I0J2600000D01*
G01*
X36380000Y-57965000D02*
G75*
G02*
X36904184Y-58692205I-1800000J-1850000D01*
G01*
X36936400Y-60913807D02*
G75*
G02*
X34580000Y-62415000I-2356400J1098807D01*
G01*
%TO.C,Q48*%
X51740000Y-39550000D02*
X48140000Y-39550000D01*
X47615816Y-40277205D02*
G75*
G02*
X48140000Y-39550000I2324184J-1122795D01*
G01*
X49940000Y-44000000D02*
G75*
G02*
X47583600Y-42498807I0J2600000D01*
G01*
X51740000Y-39550000D02*
G75*
G02*
X52264184Y-40277205I-1800000J-1850000D01*
G01*
X52296400Y-42498807D02*
G75*
G02*
X49940000Y-44000000I-2356400J1098807D01*
G01*
%TD*%
M02*
