%TF.GenerationSoftware,KiCad,Pcbnew,10.0.5*%
%TF.CreationDate,2026-10-01T12:36:11-04:00*%
%TF.ProjectId,memctl,6d656d63-746c-42e6-9b69-6361645f7063,rev?*%
%TF.SameCoordinates,Original*%
%TF.FileFunction,Legend,Top*%
%TF.FilePolarity,Positive*%
%FSLAX46Y46*%
G04 Gerber Fmt 4.6, Leading zero omitted, Abs format (unit mm)*
G04 Created by KiCad (PCBNEW 10.0.5) date 2026-10-01 12:36:11*
%MOMM*%
%LPD*%
G01*
G04 APERTURE LIST*
%ADD10C,0.150000*%
%ADD11C,0.250000*%
%ADD12C,0.120000*%
%ADD13C,0.000000*%
G04 APERTURE END LIST*
D10*
X8590588Y-5414819D02*
X8019160Y-5414819D01*
X8304874Y-5414819D02*
X8304874Y-4414819D01*
X8304874Y-4414819D02*
X8209636Y-4557676D01*
X8209636Y-4557676D02*
X8114398Y-4652914D01*
X8114398Y-4652914D02*
X8019160Y-4700533D01*
X8019160Y-7050057D02*
X8066779Y-7002438D01*
X8066779Y-7002438D02*
X8162017Y-6954819D01*
X8162017Y-6954819D02*
X8400112Y-6954819D01*
X8400112Y-6954819D02*
X8495350Y-7002438D01*
X8495350Y-7002438D02*
X8542969Y-7050057D01*
X8542969Y-7050057D02*
X8590588Y-7145295D01*
X8590588Y-7145295D02*
X8590588Y-7240533D01*
X8590588Y-7240533D02*
X8542969Y-7383390D01*
X8542969Y-7383390D02*
X7971541Y-7954819D01*
X7971541Y-7954819D02*
X8590588Y-7954819D01*
X35812969Y-87854819D02*
X35336779Y-87854819D01*
X35336779Y-87854819D02*
X35336779Y-86854819D01*
X36146303Y-87854819D02*
X36146303Y-86854819D01*
X36622493Y-87854819D02*
X36622493Y-86854819D01*
X36622493Y-86854819D02*
X37193921Y-87854819D01*
X37193921Y-87854819D02*
X37193921Y-86854819D01*
X37670112Y-87854819D02*
X37670112Y-86854819D01*
X38241540Y-87854819D02*
X37812969Y-87283390D01*
X38241540Y-86854819D02*
X37670112Y-87426247D01*
X60356779Y-22154819D02*
X60356779Y-21154819D01*
X60356779Y-21154819D02*
X60690112Y-21869104D01*
X60690112Y-21869104D02*
X61023445Y-21154819D01*
X61023445Y-21154819D02*
X61023445Y-22154819D01*
X61452017Y-21869104D02*
X61928207Y-21869104D01*
X61356779Y-22154819D02*
X61690112Y-21154819D01*
X61690112Y-21154819D02*
X62023445Y-22154819D01*
X62928207Y-22154819D02*
X62594874Y-21678628D01*
X62356779Y-22154819D02*
X62356779Y-21154819D01*
X62356779Y-21154819D02*
X62737731Y-21154819D01*
X62737731Y-21154819D02*
X62832969Y-21202438D01*
X62832969Y-21202438D02*
X62880588Y-21250057D01*
X62880588Y-21250057D02*
X62928207Y-21345295D01*
X62928207Y-21345295D02*
X62928207Y-21488152D01*
X62928207Y-21488152D02*
X62880588Y-21583390D01*
X62880588Y-21583390D02*
X62832969Y-21631009D01*
X62832969Y-21631009D02*
X62737731Y-21678628D01*
X62737731Y-21678628D02*
X62356779Y-21678628D01*
X63261541Y-21154819D02*
X63880588Y-21154819D01*
X63880588Y-21154819D02*
X63547255Y-21535771D01*
X63547255Y-21535771D02*
X63690112Y-21535771D01*
X63690112Y-21535771D02*
X63785350Y-21583390D01*
X63785350Y-21583390D02*
X63832969Y-21631009D01*
X63832969Y-21631009D02*
X63880588Y-21726247D01*
X63880588Y-21726247D02*
X63880588Y-21964342D01*
X63880588Y-21964342D02*
X63832969Y-22059580D01*
X63832969Y-22059580D02*
X63785350Y-22107200D01*
X63785350Y-22107200D02*
X63690112Y-22154819D01*
X63690112Y-22154819D02*
X63404398Y-22154819D01*
X63404398Y-22154819D02*
X63309160Y-22107200D01*
X63309160Y-22107200D02*
X63261541Y-22059580D01*
X60356779Y-37394819D02*
X60356779Y-36394819D01*
X60356779Y-36394819D02*
X60690112Y-37109104D01*
X60690112Y-37109104D02*
X61023445Y-36394819D01*
X61023445Y-36394819D02*
X61023445Y-37394819D01*
X61452017Y-37109104D02*
X61928207Y-37109104D01*
X61356779Y-37394819D02*
X61690112Y-36394819D01*
X61690112Y-36394819D02*
X62023445Y-37394819D01*
X62928207Y-37394819D02*
X62594874Y-36918628D01*
X62356779Y-37394819D02*
X62356779Y-36394819D01*
X62356779Y-36394819D02*
X62737731Y-36394819D01*
X62737731Y-36394819D02*
X62832969Y-36442438D01*
X62832969Y-36442438D02*
X62880588Y-36490057D01*
X62880588Y-36490057D02*
X62928207Y-36585295D01*
X62928207Y-36585295D02*
X62928207Y-36728152D01*
X62928207Y-36728152D02*
X62880588Y-36823390D01*
X62880588Y-36823390D02*
X62832969Y-36871009D01*
X62832969Y-36871009D02*
X62737731Y-36918628D01*
X62737731Y-36918628D02*
X62356779Y-36918628D01*
X63309160Y-36490057D02*
X63356779Y-36442438D01*
X63356779Y-36442438D02*
X63452017Y-36394819D01*
X63452017Y-36394819D02*
X63690112Y-36394819D01*
X63690112Y-36394819D02*
X63785350Y-36442438D01*
X63785350Y-36442438D02*
X63832969Y-36490057D01*
X63832969Y-36490057D02*
X63880588Y-36585295D01*
X63880588Y-36585295D02*
X63880588Y-36680533D01*
X63880588Y-36680533D02*
X63832969Y-36823390D01*
X63832969Y-36823390D02*
X63261541Y-37394819D01*
X63261541Y-37394819D02*
X63880588Y-37394819D01*
X60356779Y-52634819D02*
X60356779Y-51634819D01*
X60356779Y-51634819D02*
X60690112Y-52349104D01*
X60690112Y-52349104D02*
X61023445Y-51634819D01*
X61023445Y-51634819D02*
X61023445Y-52634819D01*
X61452017Y-52349104D02*
X61928207Y-52349104D01*
X61356779Y-52634819D02*
X61690112Y-51634819D01*
X61690112Y-51634819D02*
X62023445Y-52634819D01*
X62928207Y-52634819D02*
X62594874Y-52158628D01*
X62356779Y-52634819D02*
X62356779Y-51634819D01*
X62356779Y-51634819D02*
X62737731Y-51634819D01*
X62737731Y-51634819D02*
X62832969Y-51682438D01*
X62832969Y-51682438D02*
X62880588Y-51730057D01*
X62880588Y-51730057D02*
X62928207Y-51825295D01*
X62928207Y-51825295D02*
X62928207Y-51968152D01*
X62928207Y-51968152D02*
X62880588Y-52063390D01*
X62880588Y-52063390D02*
X62832969Y-52111009D01*
X62832969Y-52111009D02*
X62737731Y-52158628D01*
X62737731Y-52158628D02*
X62356779Y-52158628D01*
X63880588Y-52634819D02*
X63309160Y-52634819D01*
X63594874Y-52634819D02*
X63594874Y-51634819D01*
X63594874Y-51634819D02*
X63499636Y-51777676D01*
X63499636Y-51777676D02*
X63404398Y-51872914D01*
X63404398Y-51872914D02*
X63309160Y-51920533D01*
X60356779Y-67874819D02*
X60356779Y-66874819D01*
X60356779Y-66874819D02*
X60690112Y-67589104D01*
X60690112Y-67589104D02*
X61023445Y-66874819D01*
X61023445Y-66874819D02*
X61023445Y-67874819D01*
X61452017Y-67589104D02*
X61928207Y-67589104D01*
X61356779Y-67874819D02*
X61690112Y-66874819D01*
X61690112Y-66874819D02*
X62023445Y-67874819D01*
X62928207Y-67874819D02*
X62594874Y-67398628D01*
X62356779Y-67874819D02*
X62356779Y-66874819D01*
X62356779Y-66874819D02*
X62737731Y-66874819D01*
X62737731Y-66874819D02*
X62832969Y-66922438D01*
X62832969Y-66922438D02*
X62880588Y-66970057D01*
X62880588Y-66970057D02*
X62928207Y-67065295D01*
X62928207Y-67065295D02*
X62928207Y-67208152D01*
X62928207Y-67208152D02*
X62880588Y-67303390D01*
X62880588Y-67303390D02*
X62832969Y-67351009D01*
X62832969Y-67351009D02*
X62737731Y-67398628D01*
X62737731Y-67398628D02*
X62356779Y-67398628D01*
X63547255Y-66874819D02*
X63642493Y-66874819D01*
X63642493Y-66874819D02*
X63737731Y-66922438D01*
X63737731Y-66922438D02*
X63785350Y-66970057D01*
X63785350Y-66970057D02*
X63832969Y-67065295D01*
X63832969Y-67065295D02*
X63880588Y-67255771D01*
X63880588Y-67255771D02*
X63880588Y-67493866D01*
X63880588Y-67493866D02*
X63832969Y-67684342D01*
X63832969Y-67684342D02*
X63785350Y-67779580D01*
X63785350Y-67779580D02*
X63737731Y-67827200D01*
X63737731Y-67827200D02*
X63642493Y-67874819D01*
X63642493Y-67874819D02*
X63547255Y-67874819D01*
X63547255Y-67874819D02*
X63452017Y-67827200D01*
X63452017Y-67827200D02*
X63404398Y-67779580D01*
X63404398Y-67779580D02*
X63356779Y-67684342D01*
X63356779Y-67684342D02*
X63309160Y-67493866D01*
X63309160Y-67493866D02*
X63309160Y-67255771D01*
X63309160Y-67255771D02*
X63356779Y-67065295D01*
X63356779Y-67065295D02*
X63404398Y-66970057D01*
X63404398Y-66970057D02*
X63452017Y-66922438D01*
X63452017Y-66922438D02*
X63547255Y-66874819D01*
X91635350Y-4414819D02*
X91444874Y-4414819D01*
X91444874Y-4414819D02*
X91349636Y-4462438D01*
X91349636Y-4462438D02*
X91302017Y-4510057D01*
X91302017Y-4510057D02*
X91206779Y-4652914D01*
X91206779Y-4652914D02*
X91159160Y-4843390D01*
X91159160Y-4843390D02*
X91159160Y-5224342D01*
X91159160Y-5224342D02*
X91206779Y-5319580D01*
X91206779Y-5319580D02*
X91254398Y-5367200D01*
X91254398Y-5367200D02*
X91349636Y-5414819D01*
X91349636Y-5414819D02*
X91540112Y-5414819D01*
X91540112Y-5414819D02*
X91635350Y-5367200D01*
X91635350Y-5367200D02*
X91682969Y-5319580D01*
X91682969Y-5319580D02*
X91730588Y-5224342D01*
X91730588Y-5224342D02*
X91730588Y-4986247D01*
X91730588Y-4986247D02*
X91682969Y-4891009D01*
X91682969Y-4891009D02*
X91635350Y-4843390D01*
X91635350Y-4843390D02*
X91540112Y-4795771D01*
X91540112Y-4795771D02*
X91349636Y-4795771D01*
X91349636Y-4795771D02*
X91254398Y-4843390D01*
X91254398Y-4843390D02*
X91206779Y-4891009D01*
X91206779Y-4891009D02*
X91159160Y-4986247D01*
X92063922Y-4414819D02*
X92682969Y-4414819D01*
X92682969Y-4414819D02*
X92349636Y-4795771D01*
X92349636Y-4795771D02*
X92492493Y-4795771D01*
X92492493Y-4795771D02*
X92587731Y-4843390D01*
X92587731Y-4843390D02*
X92635350Y-4891009D01*
X92635350Y-4891009D02*
X92682969Y-4986247D01*
X92682969Y-4986247D02*
X92682969Y-5224342D01*
X92682969Y-5224342D02*
X92635350Y-5319580D01*
X92635350Y-5319580D02*
X92587731Y-5367200D01*
X92587731Y-5367200D02*
X92492493Y-5414819D01*
X92492493Y-5414819D02*
X92206779Y-5414819D01*
X92206779Y-5414819D02*
X92111541Y-5367200D01*
X92111541Y-5367200D02*
X92063922Y-5319580D01*
X91635350Y-6954819D02*
X91444874Y-6954819D01*
X91444874Y-6954819D02*
X91349636Y-7002438D01*
X91349636Y-7002438D02*
X91302017Y-7050057D01*
X91302017Y-7050057D02*
X91206779Y-7192914D01*
X91206779Y-7192914D02*
X91159160Y-7383390D01*
X91159160Y-7383390D02*
X91159160Y-7764342D01*
X91159160Y-7764342D02*
X91206779Y-7859580D01*
X91206779Y-7859580D02*
X91254398Y-7907200D01*
X91254398Y-7907200D02*
X91349636Y-7954819D01*
X91349636Y-7954819D02*
X91540112Y-7954819D01*
X91540112Y-7954819D02*
X91635350Y-7907200D01*
X91635350Y-7907200D02*
X91682969Y-7859580D01*
X91682969Y-7859580D02*
X91730588Y-7764342D01*
X91730588Y-7764342D02*
X91730588Y-7526247D01*
X91730588Y-7526247D02*
X91682969Y-7431009D01*
X91682969Y-7431009D02*
X91635350Y-7383390D01*
X91635350Y-7383390D02*
X91540112Y-7335771D01*
X91540112Y-7335771D02*
X91349636Y-7335771D01*
X91349636Y-7335771D02*
X91254398Y-7383390D01*
X91254398Y-7383390D02*
X91206779Y-7431009D01*
X91206779Y-7431009D02*
X91159160Y-7526247D01*
X92587731Y-7288152D02*
X92587731Y-7954819D01*
X92349636Y-6907200D02*
X92111541Y-7621485D01*
X92111541Y-7621485D02*
X92730588Y-7621485D01*
D11*
X44521615Y-88180928D02*
X44521615Y-86680928D01*
X44521615Y-86680928D02*
X45378758Y-88180928D01*
X45378758Y-88180928D02*
X45378758Y-86680928D01*
X46093044Y-88180928D02*
X46093044Y-86680928D01*
X47307330Y-87395214D02*
X47521616Y-87466642D01*
X47521616Y-87466642D02*
X47593045Y-87538071D01*
X47593045Y-87538071D02*
X47664473Y-87680928D01*
X47664473Y-87680928D02*
X47664473Y-87895214D01*
X47664473Y-87895214D02*
X47593045Y-88038071D01*
X47593045Y-88038071D02*
X47521616Y-88109500D01*
X47521616Y-88109500D02*
X47378759Y-88180928D01*
X47378759Y-88180928D02*
X46807330Y-88180928D01*
X46807330Y-88180928D02*
X46807330Y-86680928D01*
X46807330Y-86680928D02*
X47307330Y-86680928D01*
X47307330Y-86680928D02*
X47450188Y-86752357D01*
X47450188Y-86752357D02*
X47521616Y-86823785D01*
X47521616Y-86823785D02*
X47593045Y-86966642D01*
X47593045Y-86966642D02*
X47593045Y-87109500D01*
X47593045Y-87109500D02*
X47521616Y-87252357D01*
X47521616Y-87252357D02*
X47450188Y-87323785D01*
X47450188Y-87323785D02*
X47307330Y-87395214D01*
X47307330Y-87395214D02*
X46807330Y-87395214D01*
X48807330Y-87395214D02*
X49021616Y-87466642D01*
X49021616Y-87466642D02*
X49093045Y-87538071D01*
X49093045Y-87538071D02*
X49164473Y-87680928D01*
X49164473Y-87680928D02*
X49164473Y-87895214D01*
X49164473Y-87895214D02*
X49093045Y-88038071D01*
X49093045Y-88038071D02*
X49021616Y-88109500D01*
X49021616Y-88109500D02*
X48878759Y-88180928D01*
X48878759Y-88180928D02*
X48307330Y-88180928D01*
X48307330Y-88180928D02*
X48307330Y-86680928D01*
X48307330Y-86680928D02*
X48807330Y-86680928D01*
X48807330Y-86680928D02*
X48950188Y-86752357D01*
X48950188Y-86752357D02*
X49021616Y-86823785D01*
X49021616Y-86823785D02*
X49093045Y-86966642D01*
X49093045Y-86966642D02*
X49093045Y-87109500D01*
X49093045Y-87109500D02*
X49021616Y-87252357D01*
X49021616Y-87252357D02*
X48950188Y-87323785D01*
X48950188Y-87323785D02*
X48807330Y-87395214D01*
X48807330Y-87395214D02*
X48307330Y-87395214D01*
X50521616Y-88180928D02*
X49807330Y-88180928D01*
X49807330Y-88180928D02*
X49807330Y-86680928D01*
X51021616Y-87395214D02*
X51521616Y-87395214D01*
X51735902Y-88180928D02*
X51021616Y-88180928D01*
X51021616Y-88180928D02*
X51021616Y-86680928D01*
X51021616Y-86680928D02*
X51735902Y-86680928D01*
X54664473Y-88180928D02*
X54664473Y-86680928D01*
X54664473Y-86680928D02*
X55164473Y-87752357D01*
X55164473Y-87752357D02*
X55664473Y-86680928D01*
X55664473Y-86680928D02*
X55664473Y-88180928D01*
X56378759Y-87395214D02*
X56878759Y-87395214D01*
X57093045Y-88180928D02*
X56378759Y-88180928D01*
X56378759Y-88180928D02*
X56378759Y-86680928D01*
X56378759Y-86680928D02*
X57093045Y-86680928D01*
X57735902Y-88180928D02*
X57735902Y-86680928D01*
X57735902Y-86680928D02*
X58235902Y-87752357D01*
X58235902Y-87752357D02*
X58735902Y-86680928D01*
X58735902Y-86680928D02*
X58735902Y-88180928D01*
X59735903Y-86680928D02*
X60021617Y-86680928D01*
X60021617Y-86680928D02*
X60164474Y-86752357D01*
X60164474Y-86752357D02*
X60307331Y-86895214D01*
X60307331Y-86895214D02*
X60378760Y-87180928D01*
X60378760Y-87180928D02*
X60378760Y-87680928D01*
X60378760Y-87680928D02*
X60307331Y-87966642D01*
X60307331Y-87966642D02*
X60164474Y-88109500D01*
X60164474Y-88109500D02*
X60021617Y-88180928D01*
X60021617Y-88180928D02*
X59735903Y-88180928D01*
X59735903Y-88180928D02*
X59593046Y-88109500D01*
X59593046Y-88109500D02*
X59450188Y-87966642D01*
X59450188Y-87966642D02*
X59378760Y-87680928D01*
X59378760Y-87680928D02*
X59378760Y-87180928D01*
X59378760Y-87180928D02*
X59450188Y-86895214D01*
X59450188Y-86895214D02*
X59593046Y-86752357D01*
X59593046Y-86752357D02*
X59735903Y-86680928D01*
X61878760Y-88180928D02*
X61378760Y-87466642D01*
X61021617Y-88180928D02*
X61021617Y-86680928D01*
X61021617Y-86680928D02*
X61593046Y-86680928D01*
X61593046Y-86680928D02*
X61735903Y-86752357D01*
X61735903Y-86752357D02*
X61807332Y-86823785D01*
X61807332Y-86823785D02*
X61878760Y-86966642D01*
X61878760Y-86966642D02*
X61878760Y-87180928D01*
X61878760Y-87180928D02*
X61807332Y-87323785D01*
X61807332Y-87323785D02*
X61735903Y-87395214D01*
X61735903Y-87395214D02*
X61593046Y-87466642D01*
X61593046Y-87466642D02*
X61021617Y-87466642D01*
X62807332Y-87466642D02*
X62807332Y-88180928D01*
X62307332Y-86680928D02*
X62807332Y-87466642D01*
X62807332Y-87466642D02*
X63307332Y-86680928D01*
X65807331Y-88038071D02*
X65735903Y-88109500D01*
X65735903Y-88109500D02*
X65521617Y-88180928D01*
X65521617Y-88180928D02*
X65378760Y-88180928D01*
X65378760Y-88180928D02*
X65164474Y-88109500D01*
X65164474Y-88109500D02*
X65021617Y-87966642D01*
X65021617Y-87966642D02*
X64950188Y-87823785D01*
X64950188Y-87823785D02*
X64878760Y-87538071D01*
X64878760Y-87538071D02*
X64878760Y-87323785D01*
X64878760Y-87323785D02*
X64950188Y-87038071D01*
X64950188Y-87038071D02*
X65021617Y-86895214D01*
X65021617Y-86895214D02*
X65164474Y-86752357D01*
X65164474Y-86752357D02*
X65378760Y-86680928D01*
X65378760Y-86680928D02*
X65521617Y-86680928D01*
X65521617Y-86680928D02*
X65735903Y-86752357D01*
X65735903Y-86752357D02*
X65807331Y-86823785D01*
X66735903Y-86680928D02*
X67021617Y-86680928D01*
X67021617Y-86680928D02*
X67164474Y-86752357D01*
X67164474Y-86752357D02*
X67307331Y-86895214D01*
X67307331Y-86895214D02*
X67378760Y-87180928D01*
X67378760Y-87180928D02*
X67378760Y-87680928D01*
X67378760Y-87680928D02*
X67307331Y-87966642D01*
X67307331Y-87966642D02*
X67164474Y-88109500D01*
X67164474Y-88109500D02*
X67021617Y-88180928D01*
X67021617Y-88180928D02*
X66735903Y-88180928D01*
X66735903Y-88180928D02*
X66593046Y-88109500D01*
X66593046Y-88109500D02*
X66450188Y-87966642D01*
X66450188Y-87966642D02*
X66378760Y-87680928D01*
X66378760Y-87680928D02*
X66378760Y-87180928D01*
X66378760Y-87180928D02*
X66450188Y-86895214D01*
X66450188Y-86895214D02*
X66593046Y-86752357D01*
X66593046Y-86752357D02*
X66735903Y-86680928D01*
X68021617Y-88180928D02*
X68021617Y-86680928D01*
X68021617Y-86680928D02*
X68878760Y-88180928D01*
X68878760Y-88180928D02*
X68878760Y-86680928D01*
X69378761Y-86680928D02*
X70235904Y-86680928D01*
X69807332Y-88180928D02*
X69807332Y-86680928D01*
X71593046Y-88180928D02*
X71093046Y-87466642D01*
X70735903Y-88180928D02*
X70735903Y-86680928D01*
X70735903Y-86680928D02*
X71307332Y-86680928D01*
X71307332Y-86680928D02*
X71450189Y-86752357D01*
X71450189Y-86752357D02*
X71521618Y-86823785D01*
X71521618Y-86823785D02*
X71593046Y-86966642D01*
X71593046Y-86966642D02*
X71593046Y-87180928D01*
X71593046Y-87180928D02*
X71521618Y-87323785D01*
X71521618Y-87323785D02*
X71450189Y-87395214D01*
X71450189Y-87395214D02*
X71307332Y-87466642D01*
X71307332Y-87466642D02*
X70735903Y-87466642D01*
X72521618Y-86680928D02*
X72807332Y-86680928D01*
X72807332Y-86680928D02*
X72950189Y-86752357D01*
X72950189Y-86752357D02*
X73093046Y-86895214D01*
X73093046Y-86895214D02*
X73164475Y-87180928D01*
X73164475Y-87180928D02*
X73164475Y-87680928D01*
X73164475Y-87680928D02*
X73093046Y-87966642D01*
X73093046Y-87966642D02*
X72950189Y-88109500D01*
X72950189Y-88109500D02*
X72807332Y-88180928D01*
X72807332Y-88180928D02*
X72521618Y-88180928D01*
X72521618Y-88180928D02*
X72378761Y-88109500D01*
X72378761Y-88109500D02*
X72235903Y-87966642D01*
X72235903Y-87966642D02*
X72164475Y-87680928D01*
X72164475Y-87680928D02*
X72164475Y-87180928D01*
X72164475Y-87180928D02*
X72235903Y-86895214D01*
X72235903Y-86895214D02*
X72378761Y-86752357D01*
X72378761Y-86752357D02*
X72521618Y-86680928D01*
X74521618Y-88180928D02*
X73807332Y-88180928D01*
X73807332Y-88180928D02*
X73807332Y-86680928D01*
D10*
X97859580Y-17916666D02*
X97907200Y-17964285D01*
X97907200Y-17964285D02*
X97954819Y-18107142D01*
X97954819Y-18107142D02*
X97954819Y-18202380D01*
X97954819Y-18202380D02*
X97907200Y-18345237D01*
X97907200Y-18345237D02*
X97811961Y-18440475D01*
X97811961Y-18440475D02*
X97716723Y-18488094D01*
X97716723Y-18488094D02*
X97526247Y-18535713D01*
X97526247Y-18535713D02*
X97383390Y-18535713D01*
X97383390Y-18535713D02*
X97192914Y-18488094D01*
X97192914Y-18488094D02*
X97097676Y-18440475D01*
X97097676Y-18440475D02*
X97002438Y-18345237D01*
X97002438Y-18345237D02*
X96954819Y-18202380D01*
X96954819Y-18202380D02*
X96954819Y-18107142D01*
X96954819Y-18107142D02*
X97002438Y-17964285D01*
X97002438Y-17964285D02*
X97050057Y-17916666D01*
X97954819Y-16964285D02*
X97954819Y-17535713D01*
X97954819Y-17249999D02*
X96954819Y-17249999D01*
X96954819Y-17249999D02*
X97097676Y-17345237D01*
X97097676Y-17345237D02*
X97192914Y-17440475D01*
X97192914Y-17440475D02*
X97240533Y-17535713D01*
X88859580Y-65416666D02*
X88907200Y-65464285D01*
X88907200Y-65464285D02*
X88954819Y-65607142D01*
X88954819Y-65607142D02*
X88954819Y-65702380D01*
X88954819Y-65702380D02*
X88907200Y-65845237D01*
X88907200Y-65845237D02*
X88811961Y-65940475D01*
X88811961Y-65940475D02*
X88716723Y-65988094D01*
X88716723Y-65988094D02*
X88526247Y-66035713D01*
X88526247Y-66035713D02*
X88383390Y-66035713D01*
X88383390Y-66035713D02*
X88192914Y-65988094D01*
X88192914Y-65988094D02*
X88097676Y-65940475D01*
X88097676Y-65940475D02*
X88002438Y-65845237D01*
X88002438Y-65845237D02*
X87954819Y-65702380D01*
X87954819Y-65702380D02*
X87954819Y-65607142D01*
X87954819Y-65607142D02*
X88002438Y-65464285D01*
X88002438Y-65464285D02*
X88050057Y-65416666D01*
X87954819Y-65083332D02*
X87954819Y-64464285D01*
X87954819Y-64464285D02*
X88335771Y-64797618D01*
X88335771Y-64797618D02*
X88335771Y-64654761D01*
X88335771Y-64654761D02*
X88383390Y-64559523D01*
X88383390Y-64559523D02*
X88431009Y-64511904D01*
X88431009Y-64511904D02*
X88526247Y-64464285D01*
X88526247Y-64464285D02*
X88764342Y-64464285D01*
X88764342Y-64464285D02*
X88859580Y-64511904D01*
X88859580Y-64511904D02*
X88907200Y-64559523D01*
X88907200Y-64559523D02*
X88954819Y-64654761D01*
X88954819Y-64654761D02*
X88954819Y-64940475D01*
X88954819Y-64940475D02*
X88907200Y-65035713D01*
X88907200Y-65035713D02*
X88859580Y-65083332D01*
X95238095Y-46304819D02*
X95238095Y-45304819D01*
X95238095Y-45781009D02*
X95809523Y-45781009D01*
X95809523Y-46304819D02*
X95809523Y-45304819D01*
X96238095Y-45400057D02*
X96285714Y-45352438D01*
X96285714Y-45352438D02*
X96380952Y-45304819D01*
X96380952Y-45304819D02*
X96619047Y-45304819D01*
X96619047Y-45304819D02*
X96714285Y-45352438D01*
X96714285Y-45352438D02*
X96761904Y-45400057D01*
X96761904Y-45400057D02*
X96809523Y-45495295D01*
X96809523Y-45495295D02*
X96809523Y-45590533D01*
X96809523Y-45590533D02*
X96761904Y-45733390D01*
X96761904Y-45733390D02*
X96190476Y-46304819D01*
X96190476Y-46304819D02*
X96809523Y-46304819D01*
X99109580Y-27166666D02*
X99157200Y-27214285D01*
X99157200Y-27214285D02*
X99204819Y-27357142D01*
X99204819Y-27357142D02*
X99204819Y-27452380D01*
X99204819Y-27452380D02*
X99157200Y-27595237D01*
X99157200Y-27595237D02*
X99061961Y-27690475D01*
X99061961Y-27690475D02*
X98966723Y-27738094D01*
X98966723Y-27738094D02*
X98776247Y-27785713D01*
X98776247Y-27785713D02*
X98633390Y-27785713D01*
X98633390Y-27785713D02*
X98442914Y-27738094D01*
X98442914Y-27738094D02*
X98347676Y-27690475D01*
X98347676Y-27690475D02*
X98252438Y-27595237D01*
X98252438Y-27595237D02*
X98204819Y-27452380D01*
X98204819Y-27452380D02*
X98204819Y-27357142D01*
X98204819Y-27357142D02*
X98252438Y-27214285D01*
X98252438Y-27214285D02*
X98300057Y-27166666D01*
X98300057Y-26785713D02*
X98252438Y-26738094D01*
X98252438Y-26738094D02*
X98204819Y-26642856D01*
X98204819Y-26642856D02*
X98204819Y-26404761D01*
X98204819Y-26404761D02*
X98252438Y-26309523D01*
X98252438Y-26309523D02*
X98300057Y-26261904D01*
X98300057Y-26261904D02*
X98395295Y-26214285D01*
X98395295Y-26214285D02*
X98490533Y-26214285D01*
X98490533Y-26214285D02*
X98633390Y-26261904D01*
X98633390Y-26261904D02*
X99204819Y-26833332D01*
X99204819Y-26833332D02*
X99204819Y-26214285D01*
X3238095Y-46304819D02*
X3238095Y-45304819D01*
X3238095Y-45781009D02*
X3809523Y-45781009D01*
X3809523Y-46304819D02*
X3809523Y-45304819D01*
X4809523Y-46304819D02*
X4238095Y-46304819D01*
X4523809Y-46304819D02*
X4523809Y-45304819D01*
X4523809Y-45304819D02*
X4428571Y-45447676D01*
X4428571Y-45447676D02*
X4333333Y-45542914D01*
X4333333Y-45542914D02*
X4238095Y-45590533D01*
%TO.C,Q38*%
D12*
X40460000Y-35630000D02*
X44060000Y-35630000D01*
X39903600Y-32681193D02*
G75*
G02*
X42260000Y-31180000I2356400J-1098807D01*
G01*
X40460000Y-35630000D02*
G75*
G02*
X39935816Y-34902795I1800000J1850000D01*
G01*
X42260000Y-31180000D02*
G75*
G02*
X44616400Y-32681193I0J-2600000D01*
G01*
X44584184Y-34902795D02*
G75*
G02*
X44060000Y-35630000I-2324184J1122795D01*
G01*
%TO.C,Q15*%
X21020000Y-52885000D02*
X17420000Y-52885000D01*
X16895816Y-53612205D02*
G75*
G02*
X17420000Y-52885000I2324184J-1122795D01*
G01*
X19220000Y-57335000D02*
G75*
G02*
X16863600Y-55833807I0J2600000D01*
G01*
X21020000Y-52885000D02*
G75*
G02*
X21544184Y-53612205I-1800000J-1850000D01*
G01*
X21576400Y-55833807D02*
G75*
G02*
X19220000Y-57335000I-2356400J1098807D01*
G01*
%TO.C,Q55*%
X55820000Y-43885000D02*
X59420000Y-43885000D01*
X55263600Y-40936193D02*
G75*
G02*
X57620000Y-39435000I2356400J-1098807D01*
G01*
X55820000Y-43885000D02*
G75*
G02*
X55295816Y-43157795I1800000J1850000D01*
G01*
X57620000Y-39435000D02*
G75*
G02*
X59976400Y-40936193I0J-2600000D01*
G01*
X59944184Y-43157795D02*
G75*
G02*
X59420000Y-43885000I-2324184J1122795D01*
G01*
%TO.C,Q31*%
X36380000Y-44630000D02*
X32780000Y-44630000D01*
X32255816Y-45357205D02*
G75*
G02*
X32780000Y-44630000I2324184J-1122795D01*
G01*
X34580000Y-49080000D02*
G75*
G02*
X32223600Y-47578807I0J2600000D01*
G01*
X36380000Y-44630000D02*
G75*
G02*
X36904184Y-45357205I-1800000J-1850000D01*
G01*
X36936400Y-47578807D02*
G75*
G02*
X34580000Y-49080000I-2356400J1098807D01*
G01*
%TO.C,Q44*%
X40460000Y-75635000D02*
X44060000Y-75635000D01*
X39903600Y-72686193D02*
G75*
G02*
X42260000Y-71185000I2356400J-1098807D01*
G01*
X40460000Y-75635000D02*
G75*
G02*
X39935816Y-74907795I1800000J1850000D01*
G01*
X42260000Y-71185000D02*
G75*
G02*
X44616400Y-72686193I0J-2600000D01*
G01*
X44584184Y-74907795D02*
G75*
G02*
X44060000Y-75635000I-2324184J1122795D01*
G01*
%TO.C,C1*%
X93630000Y-15130000D02*
X96370000Y-15130000D01*
X93630000Y-20370000D02*
X93630000Y-15130000D01*
X96370000Y-15130000D02*
X96370000Y-20370000D01*
X96370000Y-20370000D02*
X93630000Y-20370000D01*
%TO.C,Q49*%
X51740000Y-47805000D02*
X48140000Y-47805000D01*
X47615816Y-48532205D02*
G75*
G02*
X48140000Y-47805000I2324184J-1122795D01*
G01*
X49940000Y-52255000D02*
G75*
G02*
X47583600Y-50753807I0J2600000D01*
G01*
X51740000Y-47805000D02*
G75*
G02*
X52264184Y-48532205I-1800000J-1850000D01*
G01*
X52296400Y-50753807D02*
G75*
G02*
X49940000Y-52255000I-2356400J1098807D01*
G01*
%TO.C,Q46*%
X51740000Y-23040000D02*
X48140000Y-23040000D01*
X47615816Y-23767205D02*
G75*
G02*
X48140000Y-23040000I2324184J-1122795D01*
G01*
X49940000Y-27490000D02*
G75*
G02*
X47583600Y-25988807I0J2600000D01*
G01*
X51740000Y-23040000D02*
G75*
G02*
X52264184Y-23767205I-1800000J-1850000D01*
G01*
X52296400Y-25988807D02*
G75*
G02*
X49940000Y-27490000I-2356400J1098807D01*
G01*
%TO.C,Q23*%
X25100000Y-57220000D02*
X28700000Y-57220000D01*
X24543600Y-54271193D02*
G75*
G02*
X26900000Y-52770000I2356400J-1098807D01*
G01*
X25100000Y-57220000D02*
G75*
G02*
X24575816Y-56492795I1800000J1850000D01*
G01*
X26900000Y-52770000D02*
G75*
G02*
X29256400Y-54271193I0J-2600000D01*
G01*
X29224184Y-56492795D02*
G75*
G02*
X28700000Y-57220000I-2324184J1122795D01*
G01*
%TO.C,R33*%
X48770000Y-62355000D02*
X51380000Y-62355000D01*
X48770000Y-62355000D02*
G75*
G02*
X46030000Y-62355000I-1370000J0D01*
G01*
X46030000Y-62355000D02*
G75*
G02*
X48770000Y-62355000I1370000J0D01*
G01*
%TO.C,Q14*%
X21020000Y-47805000D02*
X17420000Y-47805000D01*
X16895816Y-48532205D02*
G75*
G02*
X17420000Y-47805000I2324184J-1122795D01*
G01*
X19220000Y-52255000D02*
G75*
G02*
X16863600Y-50753807I0J2600000D01*
G01*
X21020000Y-47805000D02*
G75*
G02*
X21544184Y-48532205I-1800000J-1850000D01*
G01*
X21576400Y-50753807D02*
G75*
G02*
X19220000Y-52255000I-2356400J1098807D01*
G01*
%TO.C,R29*%
X48770000Y-29335000D02*
X51380000Y-29335000D01*
X48770000Y-29335000D02*
G75*
G02*
X46030000Y-29335000I-1370000J0D01*
G01*
X46030000Y-29335000D02*
G75*
G02*
X48770000Y-29335000I1370000J0D01*
G01*
%TO.C,R12*%
X18050000Y-59180000D02*
X20660000Y-59180000D01*
X18050000Y-59180000D02*
G75*
G02*
X15310000Y-59180000I-1370000J0D01*
G01*
X15310000Y-59180000D02*
G75*
G02*
X18050000Y-59180000I1370000J0D01*
G01*
%TO.C,D3*%
X56384000Y-53120000D02*
X56540000Y-53120000D01*
X58700000Y-53120000D02*
X58856000Y-53120000D01*
X56384484Y-53120000D02*
G75*
G02*
X56540000Y-49888563I1235516J1560000D01*
G01*
X56540000Y-52600961D02*
G75*
G02*
X56540000Y-50519039I1080000J1040961D01*
G01*
X58700000Y-49888563D02*
G75*
G02*
X58855516Y-53120000I-1080000J-1671437D01*
G01*
X58700000Y-50519039D02*
G75*
G02*
X58700000Y-52600961I-1080000J-1040961D01*
G01*
%TO.C,Q13*%
X21020000Y-39550000D02*
X17420000Y-39550000D01*
X16895816Y-40277205D02*
G75*
G02*
X17420000Y-39550000I2324184J-1122795D01*
G01*
X19220000Y-44000000D02*
G75*
G02*
X16863600Y-42498807I0J2600000D01*
G01*
X21020000Y-39550000D02*
G75*
G02*
X21544184Y-40277205I-1800000J-1850000D01*
G01*
X21576400Y-42498807D02*
G75*
G02*
X19220000Y-44000000I-2356400J1098807D01*
G01*
%TO.C,R1*%
X10370000Y-16000000D02*
X12980000Y-16000000D01*
X10370000Y-16000000D02*
G75*
G02*
X7630000Y-16000000I-1370000J0D01*
G01*
X7630000Y-16000000D02*
G75*
G02*
X10370000Y-16000000I1370000J0D01*
G01*
%TO.C,Q50*%
X51740000Y-56060000D02*
X48140000Y-56060000D01*
X47615816Y-56787205D02*
G75*
G02*
X48140000Y-56060000I2324184J-1122795D01*
G01*
X49940000Y-60510000D02*
G75*
G02*
X47583600Y-59008807I0J2600000D01*
G01*
X51740000Y-56060000D02*
G75*
G02*
X52264184Y-56787205I-1800000J-1850000D01*
G01*
X52296400Y-59008807D02*
G75*
G02*
X49940000Y-60510000I-2356400J1098807D01*
G01*
%TO.C,R37*%
X56450000Y-46480000D02*
X59060000Y-46480000D01*
X56450000Y-46480000D02*
G75*
G02*
X53710000Y-46480000I-1370000J0D01*
G01*
X53710000Y-46480000D02*
G75*
G02*
X56450000Y-46480000I1370000J0D01*
G01*
%TO.C,R26*%
X41090000Y-50925000D02*
X43700000Y-50925000D01*
X41090000Y-50925000D02*
G75*
G02*
X38350000Y-50925000I-1370000J0D01*
G01*
X38350000Y-50925000D02*
G75*
G02*
X41090000Y-50925000I1370000J0D01*
G01*
%TO.C,Q47*%
X51740000Y-31295000D02*
X48140000Y-31295000D01*
X47615816Y-32022205D02*
G75*
G02*
X48140000Y-31295000I2324184J-1122795D01*
G01*
X49940000Y-35745000D02*
G75*
G02*
X47583600Y-34243807I0J2600000D01*
G01*
X51740000Y-31295000D02*
G75*
G02*
X52264184Y-32022205I-1800000J-1850000D01*
G01*
X52296400Y-34243807D02*
G75*
G02*
X49940000Y-35745000I-2356400J1098807D01*
G01*
%TO.C,Q36*%
X40460000Y-22295000D02*
X44060000Y-22295000D01*
X39903600Y-19346193D02*
G75*
G02*
X42260000Y-17845000I2356400J-1098807D01*
G01*
X40460000Y-22295000D02*
G75*
G02*
X39935816Y-21567795I1800000J1850000D01*
G01*
X42260000Y-17845000D02*
G75*
G02*
X44616400Y-19346193I0J-2600000D01*
G01*
X44584184Y-21567795D02*
G75*
G02*
X44060000Y-22295000I-2324184J1122795D01*
G01*
%TO.C,R28*%
X48770000Y-16000000D02*
X51380000Y-16000000D01*
X48770000Y-16000000D02*
G75*
G02*
X46030000Y-16000000I-1370000J0D01*
G01*
X46030000Y-16000000D02*
G75*
G02*
X48770000Y-16000000I1370000J0D01*
G01*
%TO.C,Q4*%
X9740000Y-43885000D02*
X13340000Y-43885000D01*
X9183600Y-40936193D02*
G75*
G02*
X11540000Y-39435000I2356400J-1098807D01*
G01*
X9740000Y-43885000D02*
G75*
G02*
X9215816Y-43157795I1800000J1850000D01*
G01*
X11540000Y-39435000D02*
G75*
G02*
X13896400Y-40936193I0J-2600000D01*
G01*
X13864184Y-43157795D02*
G75*
G02*
X13340000Y-43885000I-2324184J1122795D01*
G01*
%TO.C,R8*%
X18050000Y-16000000D02*
X20660000Y-16000000D01*
X18050000Y-16000000D02*
G75*
G02*
X15310000Y-16000000I-1370000J0D01*
G01*
X15310000Y-16000000D02*
G75*
G02*
X18050000Y-16000000I1370000J0D01*
G01*
%TO.C,Q22*%
X25100000Y-48965000D02*
X28700000Y-48965000D01*
X24543600Y-46016193D02*
G75*
G02*
X26900000Y-44515000I2356400J-1098807D01*
G01*
X25100000Y-48965000D02*
G75*
G02*
X24575816Y-48237795I1800000J1850000D01*
G01*
X26900000Y-44515000D02*
G75*
G02*
X29256400Y-46016193I0J-2600000D01*
G01*
X29224184Y-48237795D02*
G75*
G02*
X28700000Y-48965000I-2324184J1122795D01*
G01*
%TO.C,C3*%
X84630000Y-62630000D02*
X87370000Y-62630000D01*
X84630000Y-67870000D02*
X84630000Y-62630000D01*
X87370000Y-62630000D02*
X87370000Y-67870000D01*
X87370000Y-67870000D02*
X84630000Y-67870000D01*
%TO.C,Q21*%
X25100000Y-43885000D02*
X28700000Y-43885000D01*
X24543600Y-40936193D02*
G75*
G02*
X26900000Y-39435000I2356400J-1098807D01*
G01*
X25100000Y-43885000D02*
G75*
G02*
X24575816Y-43157795I1800000J1850000D01*
G01*
X26900000Y-39435000D02*
G75*
G02*
X29256400Y-40936193I0J-2600000D01*
G01*
X29224184Y-43157795D02*
G75*
G02*
X28700000Y-43885000I-2324184J1122795D01*
G01*
%TO.C,Q26*%
X25100000Y-75635000D02*
X28700000Y-75635000D01*
X24543600Y-72686193D02*
G75*
G02*
X26900000Y-71185000I2356400J-1098807D01*
G01*
X25100000Y-75635000D02*
G75*
G02*
X24575816Y-74907795I1800000J1850000D01*
G01*
X26900000Y-71185000D02*
G75*
G02*
X29256400Y-72686193I0J-2600000D01*
G01*
X29224184Y-74907795D02*
G75*
G02*
X28700000Y-75635000I-2324184J1122795D01*
G01*
%TO.C,Q30*%
X36380000Y-39550000D02*
X32780000Y-39550000D01*
X32255816Y-40277205D02*
G75*
G02*
X32780000Y-39550000I2324184J-1122795D01*
G01*
X34580000Y-44000000D02*
G75*
G02*
X32223600Y-42498807I0J2600000D01*
G01*
X36380000Y-39550000D02*
G75*
G02*
X36904184Y-40277205I-1800000J-1850000D01*
G01*
X36936400Y-42498807D02*
G75*
G02*
X34580000Y-44000000I-2356400J1098807D01*
G01*
%TO.C,C2*%
X93960000Y-27000000D02*
X92420000Y-27000000D01*
X93960000Y-27040000D02*
X92420000Y-27040000D01*
X93960000Y-27080000D02*
X92421000Y-27080000D01*
X93960000Y-27120000D02*
X92423000Y-27120000D01*
X93960000Y-27160000D02*
X92425000Y-27160000D01*
X93960000Y-27200000D02*
X92428000Y-27200000D01*
X93960000Y-27240000D02*
X92431000Y-27240000D01*
X93960000Y-27280000D02*
X92435000Y-27280000D01*
X93960000Y-27320000D02*
X92440000Y-27320000D01*
X93960000Y-27360000D02*
X92445000Y-27360000D01*
X93960000Y-27400000D02*
X92451000Y-27400000D01*
X93960000Y-27440000D02*
X92457000Y-27440000D01*
X93960000Y-27480000D02*
X92464000Y-27480000D01*
X93960000Y-27520000D02*
X92472000Y-27520000D01*
X93960000Y-27560000D02*
X92481000Y-27560000D01*
X93960000Y-27600000D02*
X92490000Y-27600000D01*
X93960000Y-27640000D02*
X92499000Y-27640000D01*
X93960000Y-27680000D02*
X92510000Y-27680000D01*
X93960000Y-27720000D02*
X92521000Y-27720000D01*
X93960000Y-27760000D02*
X92533000Y-27760000D01*
X93960000Y-27800000D02*
X92545000Y-27800000D01*
X93960000Y-27840000D02*
X92558000Y-27840000D01*
X93960000Y-27880000D02*
X92572000Y-27880000D01*
X93960000Y-27920000D02*
X92587000Y-27920000D01*
X93960000Y-27960000D02*
X92602000Y-27960000D01*
X93960000Y-28000000D02*
X92618000Y-28000000D01*
X93960000Y-28040000D02*
X92635000Y-28040000D01*
X93960000Y-28080000D02*
X92653000Y-28080000D01*
X93960000Y-28120000D02*
X92671000Y-28120000D01*
X93960000Y-28160000D02*
X92691000Y-28160000D01*
X93960000Y-28200000D02*
X92711000Y-28200000D01*
X93960000Y-28240000D02*
X92732000Y-28240000D01*
X93960000Y-28280000D02*
X92754000Y-28280000D01*
X93960000Y-28320000D02*
X92777000Y-28320000D01*
X93960000Y-28360000D02*
X92801000Y-28360000D01*
X93960000Y-28400000D02*
X92825000Y-28400000D01*
X93960000Y-28440000D02*
X92851000Y-28440000D01*
X93960000Y-28480000D02*
X92878000Y-28480000D01*
X93960000Y-28520000D02*
X92906000Y-28520000D01*
X93960000Y-28560000D02*
X92935000Y-28560000D01*
X93960000Y-28600000D02*
X92965000Y-28600000D01*
X93960000Y-28640000D02*
X92997000Y-28640000D01*
X93960000Y-28680000D02*
X93030000Y-28680000D01*
X93960000Y-28720000D02*
X93064000Y-28720000D01*
X93960000Y-28760000D02*
X93099000Y-28760000D01*
X93960000Y-28800000D02*
X93136000Y-28800000D01*
X93960000Y-28840000D02*
X93175000Y-28840000D01*
X93960000Y-28880000D02*
X93215000Y-28880000D01*
X93960000Y-28920000D02*
X93257000Y-28920000D01*
X93960000Y-28960000D02*
X93301000Y-28960000D01*
X93960000Y-29000000D02*
X93348000Y-29000000D01*
X95283000Y-29600000D02*
X94717000Y-29600000D01*
X95517000Y-29560000D02*
X94483000Y-29560000D01*
X95677000Y-29520000D02*
X94323000Y-29520000D01*
X95805000Y-29480000D02*
X94195000Y-29480000D01*
X95914000Y-29440000D02*
X94086000Y-29440000D01*
X96011000Y-29400000D02*
X93989000Y-29400000D01*
X96098000Y-29360000D02*
X93902000Y-29360000D01*
X96177000Y-29320000D02*
X93823000Y-29320000D01*
X96251000Y-29280000D02*
X93749000Y-29280000D01*
X96319000Y-29240000D02*
X93681000Y-29240000D01*
X96383000Y-29200000D02*
X93617000Y-29200000D01*
X96443000Y-29160000D02*
X93557000Y-29160000D01*
X96475000Y-24195225D02*
X96475000Y-24695225D01*
X96499000Y-29120000D02*
X93501000Y-29120000D01*
X96553000Y-29080000D02*
X93447000Y-29080000D01*
X96604000Y-29040000D02*
X93396000Y-29040000D01*
X96652000Y-29000000D02*
X96040000Y-29000000D01*
X96699000Y-28960000D02*
X96040000Y-28960000D01*
X96725000Y-24445225D02*
X96225000Y-24445225D01*
X96743000Y-28920000D02*
X96040000Y-28920000D01*
X96785000Y-28880000D02*
X96040000Y-28880000D01*
X96825000Y-28840000D02*
X96040000Y-28840000D01*
X96864000Y-28800000D02*
X96040000Y-28800000D01*
X96901000Y-28760000D02*
X96040000Y-28760000D01*
X96936000Y-28720000D02*
X96040000Y-28720000D01*
X96970000Y-28680000D02*
X96040000Y-28680000D01*
X97003000Y-28640000D02*
X96040000Y-28640000D01*
X97035000Y-28600000D02*
X96040000Y-28600000D01*
X97065000Y-28560000D02*
X96040000Y-28560000D01*
X97094000Y-28520000D02*
X96040000Y-28520000D01*
X97122000Y-28480000D02*
X96040000Y-28480000D01*
X97149000Y-28440000D02*
X96040000Y-28440000D01*
X97175000Y-28400000D02*
X96040000Y-28400000D01*
X97199000Y-28360000D02*
X96040000Y-28360000D01*
X97223000Y-28320000D02*
X96040000Y-28320000D01*
X97246000Y-28280000D02*
X96040000Y-28280000D01*
X97268000Y-28240000D02*
X96040000Y-28240000D01*
X97289000Y-28200000D02*
X96040000Y-28200000D01*
X97309000Y-28160000D02*
X96040000Y-28160000D01*
X97329000Y-28120000D02*
X96040000Y-28120000D01*
X97347000Y-28080000D02*
X96040000Y-28080000D01*
X97365000Y-28040000D02*
X96040000Y-28040000D01*
X97382000Y-28000000D02*
X96040000Y-28000000D01*
X97398000Y-27960000D02*
X96040000Y-27960000D01*
X97413000Y-27920000D02*
X96040000Y-27920000D01*
X97428000Y-27880000D02*
X96040000Y-27880000D01*
X97442000Y-27840000D02*
X96040000Y-27840000D01*
X97455000Y-27800000D02*
X96040000Y-27800000D01*
X97467000Y-27760000D02*
X96040000Y-27760000D01*
X97479000Y-27720000D02*
X96040000Y-27720000D01*
X97490000Y-27680000D02*
X96040000Y-27680000D01*
X97501000Y-27640000D02*
X96040000Y-27640000D01*
X97510000Y-27600000D02*
X96040000Y-27600000D01*
X97519000Y-27560000D02*
X96040000Y-27560000D01*
X97528000Y-27520000D02*
X96040000Y-27520000D01*
X97536000Y-27480000D02*
X96040000Y-27480000D01*
X97543000Y-27440000D02*
X96040000Y-27440000D01*
X97549000Y-27400000D02*
X96040000Y-27400000D01*
X97555000Y-27360000D02*
X96040000Y-27360000D01*
X97560000Y-27320000D02*
X96040000Y-27320000D01*
X97565000Y-27280000D02*
X96040000Y-27280000D01*
X97569000Y-27240000D02*
X96040000Y-27240000D01*
X97572000Y-27200000D02*
X96040000Y-27200000D01*
X97575000Y-27160000D02*
X96040000Y-27160000D01*
X97577000Y-27120000D02*
X96040000Y-27120000D01*
X97579000Y-27080000D02*
X96040000Y-27080000D01*
X97580000Y-27000000D02*
X96040000Y-27000000D01*
X97580000Y-27040000D02*
X96040000Y-27040000D01*
X97620000Y-27000000D02*
G75*
G02*
X92380000Y-27000000I-2620000J0D01*
G01*
X92380000Y-27000000D02*
G75*
G02*
X97620000Y-27000000I2620000J0D01*
G01*
%TO.C,R14*%
X25730000Y-29335000D02*
X28340000Y-29335000D01*
X25730000Y-29335000D02*
G75*
G02*
X22990000Y-29335000I-1370000J0D01*
G01*
X22990000Y-29335000D02*
G75*
G02*
X25730000Y-29335000I1370000J0D01*
G01*
%TO.C,R18*%
X33410000Y-16000000D02*
X36020000Y-16000000D01*
X33410000Y-16000000D02*
G75*
G02*
X30670000Y-16000000I-1370000J0D01*
G01*
X30670000Y-16000000D02*
G75*
G02*
X33410000Y-16000000I1370000J0D01*
G01*
%TO.C,R17*%
X25730000Y-64260000D02*
X28340000Y-64260000D01*
X25730000Y-64260000D02*
G75*
G02*
X22990000Y-64260000I-1370000J0D01*
G01*
X22990000Y-64260000D02*
G75*
G02*
X25730000Y-64260000I1370000J0D01*
G01*
%TO.C,R39*%
X80000000Y-65370000D02*
X80000000Y-67980000D01*
X81370000Y-64000000D02*
G75*
G02*
X78630000Y-64000000I-1370000J0D01*
G01*
X78630000Y-64000000D02*
G75*
G02*
X81370000Y-64000000I1370000J0D01*
G01*
%TO.C,Q45*%
X51740000Y-17960000D02*
X48140000Y-17960000D01*
X47615816Y-18687205D02*
G75*
G02*
X48140000Y-17960000I2324184J-1122795D01*
G01*
X49940000Y-22410000D02*
G75*
G02*
X47583600Y-20908807I0J2600000D01*
G01*
X51740000Y-17960000D02*
G75*
G02*
X52264184Y-18687205I-1800000J-1850000D01*
G01*
X52296400Y-20908807D02*
G75*
G02*
X49940000Y-22410000I-2356400J1098807D01*
G01*
%TO.C,R19*%
X33410000Y-29335000D02*
X36020000Y-29335000D01*
X33410000Y-29335000D02*
G75*
G02*
X30670000Y-29335000I-1370000J0D01*
G01*
X30670000Y-29335000D02*
G75*
G02*
X33410000Y-29335000I1370000J0D01*
G01*
%TO.C,R38*%
X56450000Y-61720000D02*
X59060000Y-61720000D01*
X56450000Y-61720000D02*
G75*
G02*
X53710000Y-61720000I-1370000J0D01*
G01*
X53710000Y-61720000D02*
G75*
G02*
X56450000Y-61720000I1370000J0D01*
G01*
%TO.C,Q42*%
X40460000Y-62300000D02*
X44060000Y-62300000D01*
X39903600Y-59351193D02*
G75*
G02*
X42260000Y-57850000I2356400J-1098807D01*
G01*
X40460000Y-62300000D02*
G75*
G02*
X39935816Y-61572795I1800000J1850000D01*
G01*
X42260000Y-57850000D02*
G75*
G02*
X44616400Y-59351193I0J-2600000D01*
G01*
X44584184Y-61572795D02*
G75*
G02*
X44060000Y-62300000I-2324184J1122795D01*
G01*
%TO.C,Q7*%
X9740000Y-68650000D02*
X13340000Y-68650000D01*
X9183600Y-65701193D02*
G75*
G02*
X11540000Y-64200000I2356400J-1098807D01*
G01*
X9740000Y-68650000D02*
G75*
G02*
X9215816Y-67922795I1800000J1850000D01*
G01*
X11540000Y-64200000D02*
G75*
G02*
X13896400Y-65701193I0J-2600000D01*
G01*
X13864184Y-67922795D02*
G75*
G02*
X13340000Y-68650000I-2324184J1122795D01*
G01*
%TO.C,R24*%
X41090000Y-29335000D02*
X43700000Y-29335000D01*
X41090000Y-29335000D02*
G75*
G02*
X38350000Y-29335000I-1370000J0D01*
G01*
X38350000Y-29335000D02*
G75*
G02*
X41090000Y-29335000I1370000J0D01*
G01*
%TO.C,Q24*%
X25100000Y-62300000D02*
X28700000Y-62300000D01*
X24543600Y-59351193D02*
G75*
G02*
X26900000Y-57850000I2356400J-1098807D01*
G01*
X25100000Y-62300000D02*
G75*
G02*
X24575816Y-61572795I1800000J1850000D01*
G01*
X26900000Y-57850000D02*
G75*
G02*
X29256400Y-59351193I0J-2600000D01*
G01*
X29224184Y-61572795D02*
G75*
G02*
X28700000Y-62300000I-2324184J1122795D01*
G01*
%TO.C,Q12*%
X21020000Y-34470000D02*
X17420000Y-34470000D01*
X16895816Y-35197205D02*
G75*
G02*
X17420000Y-34470000I2324184J-1122795D01*
G01*
X19220000Y-38920000D02*
G75*
G02*
X16863600Y-37418807I0J2600000D01*
G01*
X21020000Y-34470000D02*
G75*
G02*
X21544184Y-35197205I-1800000J-1850000D01*
G01*
X21576400Y-37418807D02*
G75*
G02*
X19220000Y-38920000I-2356400J1098807D01*
G01*
%TO.C,R20*%
X33410000Y-37590000D02*
X36020000Y-37590000D01*
X33410000Y-37590000D02*
G75*
G02*
X30670000Y-37590000I-1370000J0D01*
G01*
X30670000Y-37590000D02*
G75*
G02*
X33410000Y-37590000I1370000J0D01*
G01*
%TO.C,R22*%
X33410000Y-64260000D02*
X36020000Y-64260000D01*
X33410000Y-64260000D02*
G75*
G02*
X30670000Y-64260000I-1370000J0D01*
G01*
X30670000Y-64260000D02*
G75*
G02*
X33410000Y-64260000I1370000J0D01*
G01*
%TO.C,R36*%
X56450000Y-31240000D02*
X59060000Y-31240000D01*
X56450000Y-31240000D02*
G75*
G02*
X53710000Y-31240000I-1370000J0D01*
G01*
X53710000Y-31240000D02*
G75*
G02*
X56450000Y-31240000I1370000J0D01*
G01*
%TO.C,R4*%
X10370000Y-45845000D02*
X12980000Y-45845000D01*
X10370000Y-45845000D02*
G75*
G02*
X7630000Y-45845000I-1370000J0D01*
G01*
X7630000Y-45845000D02*
G75*
G02*
X10370000Y-45845000I1370000J0D01*
G01*
%TO.C,Q53*%
X51740000Y-77650000D02*
X48140000Y-77650000D01*
X47615816Y-78377205D02*
G75*
G02*
X48140000Y-77650000I2324184J-1122795D01*
G01*
X49940000Y-82100000D02*
G75*
G02*
X47583600Y-80598807I0J2600000D01*
G01*
X51740000Y-77650000D02*
G75*
G02*
X52264184Y-78377205I-1800000J-1850000D01*
G01*
X52296400Y-80598807D02*
G75*
G02*
X49940000Y-82100000I-2356400J1098807D01*
G01*
%TO.C,R35*%
X56450000Y-16000000D02*
X59060000Y-16000000D01*
X56450000Y-16000000D02*
G75*
G02*
X53710000Y-16000000I-1370000J0D01*
G01*
X53710000Y-16000000D02*
G75*
G02*
X56450000Y-16000000I1370000J0D01*
G01*
%TO.C,R3*%
X10370000Y-37590000D02*
X12980000Y-37590000D01*
X10370000Y-37590000D02*
G75*
G02*
X7630000Y-37590000I-1370000J0D01*
G01*
X7630000Y-37590000D02*
G75*
G02*
X10370000Y-37590000I1370000J0D01*
G01*
%TO.C,R16*%
X25730000Y-50925000D02*
X28340000Y-50925000D01*
X25730000Y-50925000D02*
G75*
G02*
X22990000Y-50925000I-1370000J0D01*
G01*
X22990000Y-50925000D02*
G75*
G02*
X25730000Y-50925000I1370000J0D01*
G01*
%TO.C,R31*%
X48770000Y-45845000D02*
X51380000Y-45845000D01*
X48770000Y-45845000D02*
G75*
G02*
X46030000Y-45845000I-1370000J0D01*
G01*
X46030000Y-45845000D02*
G75*
G02*
X48770000Y-45845000I1370000J0D01*
G01*
%TO.C,Q28*%
X36380000Y-23040000D02*
X32780000Y-23040000D01*
X32255816Y-23767205D02*
G75*
G02*
X32780000Y-23040000I2324184J-1122795D01*
G01*
X34580000Y-27490000D02*
G75*
G02*
X32223600Y-25988807I0J2600000D01*
G01*
X36380000Y-23040000D02*
G75*
G02*
X36904184Y-23767205I-1800000J-1850000D01*
G01*
X36936400Y-25988807D02*
G75*
G02*
X34580000Y-27490000I-2356400J1098807D01*
G01*
%TO.C,Q39*%
X40460000Y-43885000D02*
X44060000Y-43885000D01*
X39903600Y-40936193D02*
G75*
G02*
X42260000Y-39435000I2356400J-1098807D01*
G01*
X40460000Y-43885000D02*
G75*
G02*
X39935816Y-43157795I1800000J1850000D01*
G01*
X42260000Y-39435000D02*
G75*
G02*
X44616400Y-40936193I0J-2600000D01*
G01*
X44584184Y-43157795D02*
G75*
G02*
X44060000Y-43885000I-2324184J1122795D01*
G01*
%TO.C,R32*%
X48770000Y-54100000D02*
X51380000Y-54100000D01*
X48770000Y-54100000D02*
G75*
G02*
X46030000Y-54100000I-1370000J0D01*
G01*
X46030000Y-54100000D02*
G75*
G02*
X48770000Y-54100000I1370000J0D01*
G01*
%TO.C,R27*%
X41090000Y-64260000D02*
X43700000Y-64260000D01*
X41090000Y-64260000D02*
G75*
G02*
X38350000Y-64260000I-1370000J0D01*
G01*
X38350000Y-64260000D02*
G75*
G02*
X41090000Y-64260000I1370000J0D01*
G01*
%TO.C,R6*%
X10370000Y-62355000D02*
X12980000Y-62355000D01*
X10370000Y-62355000D02*
G75*
G02*
X7630000Y-62355000I-1370000J0D01*
G01*
X7630000Y-62355000D02*
G75*
G02*
X10370000Y-62355000I1370000J0D01*
G01*
%TO.C,Q16*%
X21020000Y-61140000D02*
X17420000Y-61140000D01*
X16895816Y-61867205D02*
G75*
G02*
X17420000Y-61140000I2324184J-1122795D01*
G01*
X19220000Y-65590000D02*
G75*
G02*
X16863600Y-64088807I0J2600000D01*
G01*
X21020000Y-61140000D02*
G75*
G02*
X21544184Y-61867205I-1800000J-1850000D01*
G01*
X21576400Y-64088807D02*
G75*
G02*
X19220000Y-65590000I-2356400J1098807D01*
G01*
%TO.C,Q10*%
X21020000Y-17960000D02*
X17420000Y-17960000D01*
X16895816Y-18687205D02*
G75*
G02*
X17420000Y-17960000I2324184J-1122795D01*
G01*
X19220000Y-22410000D02*
G75*
G02*
X16863600Y-20908807I0J2600000D01*
G01*
X21020000Y-17960000D02*
G75*
G02*
X21544184Y-18687205I-1800000J-1850000D01*
G01*
X21576400Y-20908807D02*
G75*
G02*
X19220000Y-22410000I-2356400J1098807D01*
G01*
%TO.C,Q35*%
X36380000Y-71300000D02*
X32780000Y-71300000D01*
X32255816Y-72027205D02*
G75*
G02*
X32780000Y-71300000I2324184J-1122795D01*
G01*
X34580000Y-75750000D02*
G75*
G02*
X32223600Y-74248807I0J2600000D01*
G01*
X36380000Y-71300000D02*
G75*
G02*
X36904184Y-72027205I-1800000J-1850000D01*
G01*
X36936400Y-74248807D02*
G75*
G02*
X34580000Y-75750000I-2356400J1098807D01*
G01*
%TO.C,R11*%
X18050000Y-45845000D02*
X20660000Y-45845000D01*
X18050000Y-45845000D02*
G75*
G02*
X15310000Y-45845000I-1370000J0D01*
G01*
X15310000Y-45845000D02*
G75*
G02*
X18050000Y-45845000I1370000J0D01*
G01*
%TO.C,R15*%
X25730000Y-37590000D02*
X28340000Y-37590000D01*
X25730000Y-37590000D02*
G75*
G02*
X22990000Y-37590000I-1370000J0D01*
G01*
X22990000Y-37590000D02*
G75*
G02*
X25730000Y-37590000I1370000J0D01*
G01*
%TO.C,Q57*%
X55820000Y-74365000D02*
X59420000Y-74365000D01*
X55263600Y-71416193D02*
G75*
G02*
X57620000Y-69915000I2356400J-1098807D01*
G01*
X55820000Y-74365000D02*
G75*
G02*
X55295816Y-73637795I1800000J1850000D01*
G01*
X57620000Y-69915000D02*
G75*
G02*
X59976400Y-71416193I0J-2600000D01*
G01*
X59944184Y-73637795D02*
G75*
G02*
X59420000Y-74365000I-2324184J1122795D01*
G01*
%TO.C,R2*%
X10370000Y-24255000D02*
X12980000Y-24255000D01*
X10370000Y-24255000D02*
G75*
G02*
X7630000Y-24255000I-1370000J0D01*
G01*
X7630000Y-24255000D02*
G75*
G02*
X10370000Y-24255000I1370000J0D01*
G01*
%TO.C,Q11*%
X21020000Y-26215000D02*
X17420000Y-26215000D01*
X16895816Y-26942205D02*
G75*
G02*
X17420000Y-26215000I2324184J-1122795D01*
G01*
X19220000Y-30665000D02*
G75*
G02*
X16863600Y-29163807I0J2600000D01*
G01*
X21020000Y-26215000D02*
G75*
G02*
X21544184Y-26942205I-1800000J-1850000D01*
G01*
X21576400Y-29163807D02*
G75*
G02*
X19220000Y-30665000I-2356400J1098807D01*
G01*
%TO.C,Q32*%
X36380000Y-52885000D02*
X32780000Y-52885000D01*
X32255816Y-53612205D02*
G75*
G02*
X32780000Y-52885000I2324184J-1122795D01*
G01*
X34580000Y-57335000D02*
G75*
G02*
X32223600Y-55833807I0J2600000D01*
G01*
X36380000Y-52885000D02*
G75*
G02*
X36904184Y-53612205I-1800000J-1850000D01*
G01*
X36936400Y-55833807D02*
G75*
G02*
X34580000Y-57335000I-2356400J1098807D01*
G01*
%TO.C,Q37*%
X40460000Y-27375000D02*
X44060000Y-27375000D01*
X39903600Y-24426193D02*
G75*
G02*
X42260000Y-22925000I2356400J-1098807D01*
G01*
X40460000Y-27375000D02*
G75*
G02*
X39935816Y-26647795I1800000J1850000D01*
G01*
X42260000Y-22925000D02*
G75*
G02*
X44616400Y-24426193I0J-2600000D01*
G01*
X44584184Y-26647795D02*
G75*
G02*
X44060000Y-27375000I-2324184J1122795D01*
G01*
%TO.C,Q52*%
X51740000Y-69395000D02*
X48140000Y-69395000D01*
X47615816Y-70122205D02*
G75*
G02*
X48140000Y-69395000I2324184J-1122795D01*
G01*
X49940000Y-73845000D02*
G75*
G02*
X47583600Y-72343807I0J2600000D01*
G01*
X51740000Y-69395000D02*
G75*
G02*
X52264184Y-70122205I-1800000J-1850000D01*
G01*
X52296400Y-72343807D02*
G75*
G02*
X49940000Y-73845000I-2356400J1098807D01*
G01*
%TO.C,D4*%
X56384000Y-68360000D02*
X56540000Y-68360000D01*
X58700000Y-68360000D02*
X58856000Y-68360000D01*
X56384484Y-68360000D02*
G75*
G02*
X56540000Y-65128563I1235516J1560000D01*
G01*
X56540000Y-67840961D02*
G75*
G02*
X56540000Y-65759039I1080000J1040961D01*
G01*
X58700000Y-65128563D02*
G75*
G02*
X58855516Y-68360000I-1080000J-1671437D01*
G01*
X58700000Y-65759039D02*
G75*
G02*
X58700000Y-67840961I-1080000J-1040961D01*
G01*
%TO.C,Q20*%
X25100000Y-35630000D02*
X28700000Y-35630000D01*
X24543600Y-32681193D02*
G75*
G02*
X26900000Y-31180000I2356400J-1098807D01*
G01*
X25100000Y-35630000D02*
G75*
G02*
X24575816Y-34902795I1800000J1850000D01*
G01*
X26900000Y-31180000D02*
G75*
G02*
X29256400Y-32681193I0J-2600000D01*
G01*
X29224184Y-34902795D02*
G75*
G02*
X28700000Y-35630000I-2324184J1122795D01*
G01*
%TO.C,Q1*%
X9740000Y-22295000D02*
X13340000Y-22295000D01*
X9183600Y-19346193D02*
G75*
G02*
X11540000Y-17845000I2356400J-1098807D01*
G01*
X9740000Y-22295000D02*
G75*
G02*
X9215816Y-21567795I1800000J1850000D01*
G01*
X11540000Y-17845000D02*
G75*
G02*
X13896400Y-19346193I0J-2600000D01*
G01*
X13864184Y-21567795D02*
G75*
G02*
X13340000Y-22295000I-2324184J1122795D01*
G01*
%TO.C,Q5*%
X9740000Y-52140000D02*
X13340000Y-52140000D01*
X9183600Y-49191193D02*
G75*
G02*
X11540000Y-47690000I2356400J-1098807D01*
G01*
X9740000Y-52140000D02*
G75*
G02*
X9215816Y-51412795I1800000J1850000D01*
G01*
X11540000Y-47690000D02*
G75*
G02*
X13896400Y-49191193I0J-2600000D01*
G01*
X13864184Y-51412795D02*
G75*
G02*
X13340000Y-52140000I-2324184J1122795D01*
G01*
%TO.C,R9*%
X18050000Y-24255000D02*
X20660000Y-24255000D01*
X18050000Y-24255000D02*
G75*
G02*
X15310000Y-24255000I-1370000J0D01*
G01*
X15310000Y-24255000D02*
G75*
G02*
X18050000Y-24255000I1370000J0D01*
G01*
D13*
%TO.C,LOGO*%
G36*
X61290000Y-82854000D02*
G01*
X61328000Y-82859000D01*
X61366000Y-82869000D01*
X61403000Y-82884000D01*
X61439000Y-82903000D01*
X61475000Y-82927000D01*
X61516000Y-82964000D01*
X61550000Y-83004000D01*
X61577000Y-83048000D01*
X61597000Y-83093000D01*
X61609000Y-83141000D01*
X61613000Y-83189000D01*
X61611000Y-83238000D01*
X61601000Y-83286000D01*
X61583000Y-83333000D01*
X61558000Y-83379000D01*
X61526000Y-83421000D01*
X61486000Y-83460000D01*
X61465000Y-83477000D01*
X61442000Y-83492000D01*
X61418000Y-83505000D01*
X61394000Y-83517000D01*
X61368000Y-83526000D01*
X61343000Y-83533000D01*
X61317000Y-83538000D01*
X61291000Y-83541000D01*
X61265000Y-83542000D01*
X61239000Y-83541000D01*
X61214000Y-83537000D01*
X61190000Y-83531000D01*
X61129000Y-83506000D01*
X61075000Y-83473000D01*
X61029000Y-83432000D01*
X60992000Y-83385000D01*
X60963000Y-83333000D01*
X60943000Y-83278000D01*
X60933000Y-83221000D01*
X60933000Y-83163000D01*
X60943000Y-83105000D01*
X60963000Y-83050000D01*
X60995000Y-82998000D01*
X61037000Y-82950000D01*
X61071000Y-82922000D01*
X61105000Y-82899000D01*
X61141000Y-82881000D01*
X61178000Y-82867000D01*
X61215000Y-82858000D01*
X61252000Y-82853000D01*
X61290000Y-82854000D01*
G37*
G36*
X55816000Y-77401000D02*
G01*
X55881000Y-77428000D01*
X55941000Y-77471000D01*
X55994000Y-77530000D01*
X56008000Y-77550000D01*
X56020000Y-77572000D01*
X56030000Y-77594000D01*
X56039000Y-77618000D01*
X56046000Y-77642000D01*
X56052000Y-77666000D01*
X56056000Y-77691000D01*
X56058000Y-77716000D01*
X56058000Y-77741000D01*
X56057000Y-77766000D01*
X56054000Y-77791000D01*
X56049000Y-77815000D01*
X56041000Y-77841000D01*
X56029000Y-77868000D01*
X56015000Y-77894000D01*
X55998000Y-77919000D01*
X55979000Y-77944000D01*
X55958000Y-77967000D01*
X55935000Y-77989000D01*
X55911000Y-78009000D01*
X55886000Y-78026000D01*
X55861000Y-78041000D01*
X55835000Y-78052000D01*
X55810000Y-78061000D01*
X55790000Y-78066000D01*
X55772000Y-78070000D01*
X55756000Y-78073000D01*
X55741000Y-78075000D01*
X55728000Y-78076000D01*
X55715000Y-78076000D01*
X55701000Y-78075000D01*
X55688000Y-78073000D01*
X55673000Y-78070000D01*
X55657000Y-78066000D01*
X55640000Y-78061000D01*
X55620000Y-78055000D01*
X55584000Y-78042000D01*
X55551000Y-78026000D01*
X55519000Y-78006000D01*
X55491000Y-77984000D01*
X55465000Y-77959000D01*
X55443000Y-77932000D01*
X55423000Y-77903000D01*
X55407000Y-77871000D01*
X55394000Y-77838000D01*
X55385000Y-77804000D01*
X55379000Y-77767000D01*
X55377000Y-77730000D01*
X55386000Y-77651000D01*
X55411000Y-77581000D01*
X55448000Y-77520000D01*
X55495000Y-77470000D01*
X55552000Y-77431000D01*
X55614000Y-77404000D01*
X55680000Y-77389000D01*
X55749000Y-77388000D01*
X55816000Y-77401000D01*
G37*
G36*
X61338000Y-77393000D02*
G01*
X61402000Y-77413000D01*
X61463000Y-77446000D01*
X61518000Y-77495000D01*
X61555000Y-77541000D01*
X61582000Y-77589000D01*
X61601000Y-77639000D01*
X61612000Y-77690000D01*
X61615000Y-77742000D01*
X61609000Y-77793000D01*
X61596000Y-77842000D01*
X61575000Y-77890000D01*
X61546000Y-77934000D01*
X61510000Y-77974000D01*
X61466000Y-78010000D01*
X61416000Y-78040000D01*
X61399000Y-78048000D01*
X61381000Y-78054000D01*
X61361000Y-78060000D01*
X61341000Y-78064000D01*
X61319000Y-78068000D01*
X61297000Y-78070000D01*
X61275000Y-78071000D01*
X61253000Y-78072000D01*
X61232000Y-78071000D01*
X61211000Y-78069000D01*
X61192000Y-78066000D01*
X61173000Y-78061000D01*
X61165000Y-78059000D01*
X61157000Y-78056000D01*
X61147000Y-78051000D01*
X61138000Y-78047000D01*
X61127000Y-78041000D01*
X61117000Y-78035000D01*
X61106000Y-78029000D01*
X61096000Y-78022000D01*
X61086000Y-78015000D01*
X61076000Y-78008000D01*
X61067000Y-78001000D01*
X61058000Y-77994000D01*
X61038000Y-77976000D01*
X61019000Y-77957000D01*
X61003000Y-77938000D01*
X60988000Y-77918000D01*
X60975000Y-77897000D01*
X60964000Y-77876000D01*
X60955000Y-77854000D01*
X60948000Y-77831000D01*
X60942000Y-77808000D01*
X60938000Y-77783000D01*
X60935000Y-77757000D01*
X60934000Y-77730000D01*
X60941000Y-77656000D01*
X60962000Y-77590000D01*
X60994000Y-77531000D01*
X61037000Y-77481000D01*
X61089000Y-77441000D01*
X61146000Y-77412000D01*
X61208000Y-77393000D01*
X61273000Y-77387000D01*
X61338000Y-77393000D01*
G37*
G36*
X59295000Y-82746000D02*
G01*
X59341000Y-82751000D01*
X59376000Y-82761000D01*
X59401000Y-82778000D01*
X59419000Y-82803000D01*
X59429000Y-82837000D01*
X59435000Y-82883000D01*
X59438000Y-82942000D01*
X59438000Y-83015000D01*
X59439000Y-83105000D01*
X59444000Y-83408000D01*
X59407000Y-83450000D01*
X59371000Y-83493000D01*
X59084000Y-83497000D01*
X59032000Y-83497000D01*
X58986000Y-83497000D01*
X58945000Y-83497000D01*
X58909000Y-83497000D01*
X58878000Y-83496000D01*
X58851000Y-83495000D01*
X58828000Y-83494000D01*
X58809000Y-83492000D01*
X58793000Y-83490000D01*
X58780000Y-83487000D01*
X58770000Y-83484000D01*
X58762000Y-83480000D01*
X58747000Y-83471000D01*
X58733000Y-83460000D01*
X58722000Y-83448000D01*
X58713000Y-83434000D01*
X58706000Y-83416000D01*
X58700000Y-83393000D01*
X58695000Y-83366000D01*
X58692000Y-83332000D01*
X58690000Y-83291000D01*
X58688000Y-83243000D01*
X58688000Y-83185000D01*
X58687000Y-83118000D01*
X58687000Y-83052000D01*
X58688000Y-82995000D01*
X58690000Y-82945000D01*
X58692000Y-82903000D01*
X58695000Y-82868000D01*
X58699000Y-82838000D01*
X58705000Y-82814000D01*
X58712000Y-82795000D01*
X58720000Y-82780000D01*
X58730000Y-82769000D01*
X58741000Y-82760000D01*
X58754000Y-82754000D01*
X58771000Y-82752000D01*
X58787000Y-82750000D01*
X58806000Y-82749000D01*
X58830000Y-82748000D01*
X58857000Y-82748000D01*
X58887000Y-82747000D01*
X58920000Y-82746000D01*
X58956000Y-82746000D01*
X58993000Y-82745000D01*
X59032000Y-82745000D01*
X59071000Y-82745000D01*
X59162000Y-82744000D01*
X59235000Y-82744000D01*
X59295000Y-82746000D01*
G37*
G36*
X60134000Y-82745000D02*
G01*
X60198000Y-82745000D01*
X60253000Y-82745000D01*
X60299000Y-82746000D01*
X60336000Y-82746000D01*
X60367000Y-82748000D01*
X60392000Y-82749000D01*
X60412000Y-82752000D01*
X60428000Y-82755000D01*
X60441000Y-82759000D01*
X60452000Y-82763000D01*
X60461000Y-82769000D01*
X60470000Y-82776000D01*
X60509000Y-82806000D01*
X60509000Y-83115000D01*
X60509000Y-83424000D01*
X60463000Y-83462000D01*
X60453000Y-83471000D01*
X60443000Y-83478000D01*
X60433000Y-83484000D01*
X60421000Y-83489000D01*
X60407000Y-83493000D01*
X60390000Y-83495000D01*
X60367000Y-83497000D01*
X60340000Y-83499000D01*
X60305000Y-83499000D01*
X60262000Y-83500000D01*
X60210000Y-83499000D01*
X60149000Y-83499000D01*
X60112000Y-83499000D01*
X60076000Y-83499000D01*
X60042000Y-83498000D01*
X60010000Y-83498000D01*
X59980000Y-83497000D01*
X59952000Y-83496000D01*
X59927000Y-83495000D01*
X59905000Y-83494000D01*
X59887000Y-83493000D01*
X59873000Y-83492000D01*
X59857000Y-83490000D01*
X59850000Y-83487000D01*
X59841000Y-83482000D01*
X59832000Y-83475000D01*
X59821000Y-83468000D01*
X59811000Y-83460000D01*
X59802000Y-83451000D01*
X59794000Y-83444000D01*
X59788000Y-83437000D01*
X59783000Y-83428000D01*
X59778000Y-83417000D01*
X59775000Y-83403000D01*
X59773000Y-83384000D01*
X59771000Y-83360000D01*
X59770000Y-83328000D01*
X59769000Y-83289000D01*
X59768000Y-83242000D01*
X59768000Y-83184000D01*
X59768000Y-83115000D01*
X59768000Y-83023000D01*
X59768000Y-82948000D01*
X59769000Y-82887000D01*
X59775000Y-82840000D01*
X59785000Y-82805000D01*
X59802000Y-82779000D01*
X59827000Y-82762000D01*
X59862000Y-82751000D01*
X59909000Y-82746000D01*
X59969000Y-82744000D01*
X60043000Y-82744000D01*
X60134000Y-82745000D01*
G37*
G36*
X55738000Y-82857000D02*
G01*
X55774000Y-82862000D01*
X55810000Y-82870000D01*
X55844000Y-82881000D01*
X55877000Y-82895000D01*
X55908000Y-82912000D01*
X55936000Y-82933000D01*
X55962000Y-82956000D01*
X55984000Y-82983000D01*
X56004000Y-83012000D01*
X56020000Y-83043000D01*
X56034000Y-83076000D01*
X56044000Y-83110000D01*
X56051000Y-83145000D01*
X56055000Y-83180000D01*
X56056000Y-83215000D01*
X56053000Y-83250000D01*
X56047000Y-83284000D01*
X56037000Y-83316000D01*
X56023000Y-83347000D01*
X56011000Y-83367000D01*
X55998000Y-83387000D01*
X55983000Y-83407000D01*
X55966000Y-83426000D01*
X55948000Y-83444000D01*
X55928000Y-83461000D01*
X55908000Y-83476000D01*
X55888000Y-83491000D01*
X55867000Y-83503000D01*
X55846000Y-83514000D01*
X55826000Y-83522000D01*
X55805000Y-83528000D01*
X55787000Y-83533000D01*
X55770000Y-83536000D01*
X55755000Y-83539000D01*
X55740000Y-83541000D01*
X55725000Y-83542000D01*
X55711000Y-83542000D01*
X55697000Y-83542000D01*
X55683000Y-83541000D01*
X55668000Y-83539000D01*
X55652000Y-83536000D01*
X55636000Y-83532000D01*
X55618000Y-83527000D01*
X55600000Y-83521000D01*
X55581000Y-83513000D01*
X55562000Y-83502000D01*
X55542000Y-83490000D01*
X55523000Y-83476000D01*
X55503000Y-83460000D01*
X55485000Y-83444000D01*
X55467000Y-83426000D01*
X55451000Y-83408000D01*
X55437000Y-83390000D01*
X55424000Y-83372000D01*
X55414000Y-83354000D01*
X55396000Y-83311000D01*
X55384000Y-83267000D01*
X55378000Y-83222000D01*
X55378000Y-83178000D01*
X55383000Y-83134000D01*
X55394000Y-83091000D01*
X55411000Y-83050000D01*
X55432000Y-83012000D01*
X55459000Y-82976000D01*
X55490000Y-82943000D01*
X55526000Y-82914000D01*
X55567000Y-82889000D01*
X55598000Y-82875000D01*
X55631000Y-82865000D01*
X55666000Y-82859000D01*
X55702000Y-82856000D01*
X55738000Y-82857000D01*
G37*
G36*
X57986000Y-82745000D02*
G01*
X58050000Y-82745000D01*
X58105000Y-82745000D01*
X58150000Y-82746000D01*
X58188000Y-82746000D01*
X58219000Y-82748000D01*
X58244000Y-82749000D01*
X58264000Y-82752000D01*
X58280000Y-82755000D01*
X58293000Y-82759000D01*
X58303000Y-82763000D01*
X58313000Y-82769000D01*
X58322000Y-82776000D01*
X58361000Y-82806000D01*
X58361000Y-83108000D01*
X58361000Y-83149000D01*
X58360000Y-83188000D01*
X58360000Y-83227000D01*
X58360000Y-83263000D01*
X58359000Y-83297000D01*
X58358000Y-83328000D01*
X58357000Y-83355000D01*
X58356000Y-83380000D01*
X58355000Y-83400000D01*
X58354000Y-83416000D01*
X58353000Y-83427000D01*
X58345000Y-83446000D01*
X58337000Y-83458000D01*
X58325000Y-83467000D01*
X58310000Y-83475000D01*
X58291000Y-83482000D01*
X58267000Y-83488000D01*
X58238000Y-83492000D01*
X58202000Y-83495000D01*
X58160000Y-83498000D01*
X58111000Y-83499000D01*
X58053000Y-83500000D01*
X57987000Y-83500000D01*
X57947000Y-83500000D01*
X57908000Y-83499000D01*
X57872000Y-83499000D01*
X57839000Y-83498000D01*
X57809000Y-83497000D01*
X57781000Y-83495000D01*
X57757000Y-83494000D01*
X57736000Y-83492000D01*
X57718000Y-83490000D01*
X57704000Y-83488000D01*
X57687000Y-83483000D01*
X57672000Y-83475000D01*
X57660000Y-83466000D01*
X57649000Y-83456000D01*
X57641000Y-83443000D01*
X57634000Y-83427000D01*
X57629000Y-83405000D01*
X57626000Y-83378000D01*
X57623000Y-83344000D01*
X57621000Y-83302000D01*
X57621000Y-83250000D01*
X57620000Y-83188000D01*
X57620000Y-83115000D01*
X57620000Y-83023000D01*
X57620000Y-82948000D01*
X57621000Y-82887000D01*
X57627000Y-82840000D01*
X57637000Y-82805000D01*
X57654000Y-82779000D01*
X57679000Y-82762000D01*
X57714000Y-82751000D01*
X57761000Y-82746000D01*
X57821000Y-82744000D01*
X57895000Y-82744000D01*
X57986000Y-82745000D01*
G37*
G36*
X67667000Y-77630000D02*
G01*
X67731000Y-77640000D01*
X67795000Y-77656000D01*
X67859000Y-77678000D01*
X67909000Y-77699000D01*
X67955000Y-77724000D01*
X67999000Y-77753000D01*
X68038000Y-77785000D01*
X68075000Y-77821000D01*
X68107000Y-77860000D01*
X68137000Y-77902000D01*
X68162000Y-77948000D01*
X68184000Y-77996000D01*
X68202000Y-78048000D01*
X68216000Y-78103000D01*
X68226000Y-78160000D01*
X68233000Y-78225000D01*
X68234000Y-78288000D01*
X68229000Y-78350000D01*
X68219000Y-78410000D01*
X68203000Y-78468000D01*
X68182000Y-78523000D01*
X68157000Y-78576000D01*
X68126000Y-78626000D01*
X68091000Y-78673000D01*
X68051000Y-78716000D01*
X68006000Y-78755000D01*
X67957000Y-78791000D01*
X67920000Y-78813000D01*
X67882000Y-78833000D01*
X67843000Y-78850000D01*
X67804000Y-78865000D01*
X67764000Y-78878000D01*
X67723000Y-78887000D01*
X67682000Y-78895000D01*
X67640000Y-78899000D01*
X67599000Y-78901000D01*
X67557000Y-78901000D01*
X67515000Y-78897000D01*
X67473000Y-78891000D01*
X67443000Y-78885000D01*
X67413000Y-78878000D01*
X67384000Y-78869000D01*
X67356000Y-78859000D01*
X67328000Y-78847000D01*
X67301000Y-78834000D01*
X67274000Y-78819000D01*
X67248000Y-78803000D01*
X67222000Y-78785000D01*
X67197000Y-78766000D01*
X67172000Y-78745000D01*
X67147000Y-78723000D01*
X67088000Y-78657000D01*
X67040000Y-78585000D01*
X67002000Y-78508000D01*
X66976000Y-78426000D01*
X66960000Y-78343000D01*
X66956000Y-78257000D01*
X66962000Y-78173000D01*
X66979000Y-78089000D01*
X67007000Y-78008000D01*
X67046000Y-77932000D01*
X67095000Y-77861000D01*
X67156000Y-77797000D01*
X67205000Y-77756000D01*
X67256000Y-77721000D01*
X67310000Y-77691000D01*
X67366000Y-77667000D01*
X67423000Y-77648000D01*
X67482000Y-77635000D01*
X67543000Y-77628000D01*
X67605000Y-77626000D01*
X67667000Y-77630000D01*
G37*
G36*
X57091000Y-82745000D02*
G01*
X57151000Y-82747000D01*
X57198000Y-82752000D01*
X57233000Y-82763000D01*
X57259000Y-82780000D01*
X57276000Y-82806000D01*
X57287000Y-82841000D01*
X57292000Y-82888000D01*
X57294000Y-82948000D01*
X57294000Y-83023000D01*
X57294000Y-83114000D01*
X57294000Y-83181000D01*
X57294000Y-83237000D01*
X57293000Y-83284000D01*
X57293000Y-83322000D01*
X57291000Y-83352000D01*
X57289000Y-83377000D01*
X57287000Y-83396000D01*
X57283000Y-83410000D01*
X57279000Y-83422000D01*
X57273000Y-83432000D01*
X57266000Y-83442000D01*
X57258000Y-83451000D01*
X57223000Y-83493000D01*
X56936000Y-83497000D01*
X56884000Y-83497000D01*
X56838000Y-83497000D01*
X56797000Y-83497000D01*
X56761000Y-83497000D01*
X56730000Y-83496000D01*
X56703000Y-83495000D01*
X56680000Y-83494000D01*
X56661000Y-83492000D01*
X56645000Y-83490000D01*
X56632000Y-83487000D01*
X56622000Y-83484000D01*
X56614000Y-83480000D01*
X56599000Y-83471000D01*
X56585000Y-83460000D01*
X56574000Y-83448000D01*
X56565000Y-83434000D01*
X56557000Y-83416000D01*
X56552000Y-83393000D01*
X56547000Y-83366000D01*
X56544000Y-83332000D01*
X56542000Y-83291000D01*
X56540000Y-83243000D01*
X56539000Y-83185000D01*
X56539000Y-83118000D01*
X56539000Y-83052000D01*
X56540000Y-82995000D01*
X56541000Y-82945000D01*
X56544000Y-82903000D01*
X56547000Y-82868000D01*
X56551000Y-82838000D01*
X56557000Y-82814000D01*
X56563000Y-82795000D01*
X56572000Y-82780000D01*
X56581000Y-82769000D01*
X56593000Y-82760000D01*
X56606000Y-82754000D01*
X56623000Y-82752000D01*
X56639000Y-82750000D01*
X56659000Y-82749000D01*
X56682000Y-82748000D01*
X56710000Y-82748000D01*
X56740000Y-82747000D01*
X56773000Y-82746000D01*
X56809000Y-82746000D01*
X56846000Y-82745000D01*
X56885000Y-82745000D01*
X56926000Y-82745000D01*
X57016000Y-82744000D01*
X57091000Y-82745000D01*
G37*
G36*
X67716000Y-79216000D02*
G01*
X67796000Y-79237000D01*
X67872000Y-79267000D01*
X67942000Y-79306000D01*
X68005000Y-79354000D01*
X68061000Y-79409000D01*
X68106000Y-79473000D01*
X68141000Y-79544000D01*
X68173000Y-79626000D01*
X68171000Y-81028000D01*
X68171000Y-81363000D01*
X68171000Y-81643000D01*
X68170000Y-81874000D01*
X68168000Y-82060000D01*
X68166000Y-82207000D01*
X68162000Y-82322000D01*
X68158000Y-82408000D01*
X68152000Y-82472000D01*
X68144000Y-82520000D01*
X68134000Y-82555000D01*
X68122000Y-82585000D01*
X68108000Y-82614000D01*
X68089000Y-82646000D01*
X68066000Y-82677000D01*
X68040000Y-82706000D01*
X68011000Y-82735000D01*
X67978000Y-82761000D01*
X67943000Y-82785000D01*
X67906000Y-82807000D01*
X67867000Y-82827000D01*
X67826000Y-82844000D01*
X67784000Y-82859000D01*
X67742000Y-82870000D01*
X67698000Y-82878000D01*
X67672000Y-82882000D01*
X67648000Y-82885000D01*
X67628000Y-82887000D01*
X67610000Y-82889000D01*
X67593000Y-82890000D01*
X67577000Y-82890000D01*
X67561000Y-82890000D01*
X67545000Y-82889000D01*
X67528000Y-82887000D01*
X67509000Y-82884000D01*
X67487000Y-82881000D01*
X67463000Y-82877000D01*
X67420000Y-82868000D01*
X67377000Y-82855000D01*
X67335000Y-82839000D01*
X67294000Y-82819000D01*
X67256000Y-82797000D01*
X67219000Y-82772000D01*
X67184000Y-82744000D01*
X67152000Y-82714000D01*
X67122000Y-82683000D01*
X67096000Y-82649000D01*
X67074000Y-82614000D01*
X67055000Y-82577000D01*
X67020000Y-82500000D01*
X67020000Y-81041000D01*
X67020000Y-79582000D01*
X67053000Y-79514000D01*
X67068000Y-79487000D01*
X67083000Y-79461000D01*
X67099000Y-79436000D01*
X67116000Y-79413000D01*
X67134000Y-79392000D01*
X67154000Y-79371000D01*
X67175000Y-79352000D01*
X67197000Y-79334000D01*
X67220000Y-79316000D01*
X67245000Y-79300000D01*
X67272000Y-79285000D01*
X67301000Y-79270000D01*
X67382000Y-79237000D01*
X67465000Y-79215000D01*
X67549000Y-79205000D01*
X67634000Y-79205000D01*
X67716000Y-79216000D01*
G37*
G36*
X77184000Y-77642000D02*
G01*
X77250000Y-77653000D01*
X77313000Y-77671000D01*
X77372000Y-77695000D01*
X77428000Y-77724000D01*
X77478000Y-77758000D01*
X77524000Y-77797000D01*
X77565000Y-77842000D01*
X77599000Y-77890000D01*
X77628000Y-77943000D01*
X77649000Y-77999000D01*
X77656000Y-78023000D01*
X77662000Y-78052000D01*
X77666000Y-78093000D01*
X77670000Y-78154000D01*
X77673000Y-78242000D01*
X77675000Y-78365000D01*
X77677000Y-78530000D01*
X77678000Y-78745000D01*
X77679000Y-79017000D01*
X77679000Y-79353000D01*
X77679000Y-79762000D01*
X77679000Y-80249000D01*
X77679000Y-80761000D01*
X77679000Y-81189000D01*
X77678000Y-81541000D01*
X77677000Y-81825000D01*
X77675000Y-82049000D01*
X77672000Y-82222000D01*
X77667000Y-82350000D01*
X77661000Y-82442000D01*
X77654000Y-82507000D01*
X77644000Y-82551000D01*
X77633000Y-82584000D01*
X77619000Y-82613000D01*
X77607000Y-82634000D01*
X77591000Y-82656000D01*
X77573000Y-82678000D01*
X77551000Y-82701000D01*
X77528000Y-82724000D01*
X77503000Y-82747000D01*
X77476000Y-82768000D01*
X77450000Y-82789000D01*
X77423000Y-82807000D01*
X77396000Y-82823000D01*
X77371000Y-82837000D01*
X77346000Y-82847000D01*
X77321000Y-82855000D01*
X77293000Y-82863000D01*
X77262000Y-82869000D01*
X77229000Y-82875000D01*
X77194000Y-82879000D01*
X77159000Y-82883000D01*
X77123000Y-82885000D01*
X77088000Y-82886000D01*
X77053000Y-82886000D01*
X77021000Y-82885000D01*
X76990000Y-82882000D01*
X76962000Y-82878000D01*
X76935000Y-82872000D01*
X76906000Y-82864000D01*
X76876000Y-82854000D01*
X76847000Y-82842000D01*
X76817000Y-82829000D01*
X76788000Y-82814000D01*
X76760000Y-82798000D01*
X76733000Y-82782000D01*
X76709000Y-82764000D01*
X76686000Y-82747000D01*
X76666000Y-82729000D01*
X76648000Y-82711000D01*
X76641000Y-82702000D01*
X76633000Y-82691000D01*
X76624000Y-82680000D01*
X76616000Y-82668000D01*
X76607000Y-82656000D01*
X76599000Y-82643000D01*
X76590000Y-82630000D01*
X76582000Y-82617000D01*
X76575000Y-82604000D01*
X76568000Y-82591000D01*
X76561000Y-82579000D01*
X76555000Y-82567000D01*
X76516000Y-82486000D01*
X76516000Y-80263000D01*
X76516000Y-78041000D01*
X76559000Y-77948000D01*
X76583000Y-77903000D01*
X76609000Y-77862000D01*
X76639000Y-77824000D01*
X76673000Y-77789000D01*
X76710000Y-77757000D01*
X76749000Y-77729000D01*
X76792000Y-77704000D01*
X76838000Y-77683000D01*
X76886000Y-77666000D01*
X76936000Y-77653000D01*
X76989000Y-77643000D01*
X77045000Y-77637000D01*
X77115000Y-77636000D01*
X77184000Y-77642000D01*
G37*
G36*
X65034000Y-79084000D02*
G01*
X65124000Y-79089000D01*
X65214000Y-79099000D01*
X65303000Y-79112000D01*
X65390000Y-79129000D01*
X65482000Y-79153000D01*
X65573000Y-79182000D01*
X65663000Y-79216000D01*
X65751000Y-79256000D01*
X65837000Y-79301000D01*
X65920000Y-79350000D01*
X66001000Y-79404000D01*
X66078000Y-79461000D01*
X66151000Y-79523000D01*
X66219000Y-79587000D01*
X66283000Y-79655000D01*
X66341000Y-79726000D01*
X66378000Y-79776000D01*
X66413000Y-79830000D01*
X66446000Y-79887000D01*
X66478000Y-79946000D01*
X66508000Y-80008000D01*
X66536000Y-80071000D01*
X66561000Y-80136000D01*
X66584000Y-80203000D01*
X66605000Y-80270000D01*
X66623000Y-80337000D01*
X66638000Y-80405000D01*
X66650000Y-80472000D01*
X66655000Y-80504000D01*
X66658000Y-80541000D01*
X66662000Y-80583000D01*
X66664000Y-80633000D01*
X66666000Y-80693000D01*
X66668000Y-80764000D01*
X66669000Y-80850000D01*
X66670000Y-80952000D01*
X66670000Y-81072000D01*
X66670000Y-81212000D01*
X66670000Y-81374000D01*
X66669000Y-81560000D01*
X66665000Y-82500000D01*
X66621000Y-82586000D01*
X66599000Y-82625000D01*
X66574000Y-82662000D01*
X66546000Y-82696000D01*
X66515000Y-82728000D01*
X66482000Y-82757000D01*
X66446000Y-82784000D01*
X66407000Y-82807000D01*
X66367000Y-82828000D01*
X66324000Y-82845000D01*
X66280000Y-82860000D01*
X66233000Y-82871000D01*
X66186000Y-82879000D01*
X66117000Y-82884000D01*
X66049000Y-82884000D01*
X65985000Y-82878000D01*
X65922000Y-82866000D01*
X65863000Y-82848000D01*
X65807000Y-82825000D01*
X65755000Y-82797000D01*
X65707000Y-82764000D01*
X65664000Y-82726000D01*
X65625000Y-82683000D01*
X65591000Y-82636000D01*
X65563000Y-82584000D01*
X65524000Y-82500000D01*
X65516000Y-81604000D01*
X65514000Y-81401000D01*
X65513000Y-81230000D01*
X65511000Y-81089000D01*
X65510000Y-80975000D01*
X65508000Y-80884000D01*
X65505000Y-80814000D01*
X65502000Y-80760000D01*
X65499000Y-80719000D01*
X65495000Y-80689000D01*
X65489000Y-80665000D01*
X65483000Y-80646000D01*
X65476000Y-80626000D01*
X65449000Y-80568000D01*
X65417000Y-80515000D01*
X65382000Y-80466000D01*
X65342000Y-80423000D01*
X65299000Y-80385000D01*
X65252000Y-80352000D01*
X65201000Y-80325000D01*
X65147000Y-80304000D01*
X65090000Y-80288000D01*
X65030000Y-80277000D01*
X64967000Y-80273000D01*
X64902000Y-80275000D01*
X64842000Y-80281000D01*
X64785000Y-80293000D01*
X64731000Y-80309000D01*
X64681000Y-80330000D01*
X64634000Y-80355000D01*
X64590000Y-80385000D01*
X64550000Y-80420000D01*
X64513000Y-80459000D01*
X64480000Y-80502000D01*
X64450000Y-80551000D01*
X64424000Y-80603000D01*
X64401000Y-80660000D01*
X64398000Y-80674000D01*
X64395000Y-80699000D01*
X64393000Y-80735000D01*
X64391000Y-80783000D01*
X64388000Y-80842000D01*
X64386000Y-80913000D01*
X64384000Y-80996000D01*
X64382000Y-81092000D01*
X64381000Y-81199000D01*
X64379000Y-81319000D01*
X64378000Y-81451000D01*
X64376000Y-81597000D01*
X64368000Y-82486000D01*
X64329000Y-82569000D01*
X64315000Y-82597000D01*
X64300000Y-82623000D01*
X64284000Y-82648000D01*
X64267000Y-82672000D01*
X64249000Y-82695000D01*
X64230000Y-82716000D01*
X64210000Y-82736000D01*
X64188000Y-82755000D01*
X64166000Y-82773000D01*
X64142000Y-82789000D01*
X64118000Y-82804000D01*
X64092000Y-82818000D01*
X64073000Y-82827000D01*
X64055000Y-82835000D01*
X64038000Y-82842000D01*
X64021000Y-82848000D01*
X64004000Y-82854000D01*
X63985000Y-82859000D01*
X63966000Y-82863000D01*
X63944000Y-82868000D01*
X63920000Y-82872000D01*
X63893000Y-82876000D01*
X63862000Y-82879000D01*
X63827000Y-82884000D01*
X63814000Y-82884000D01*
X63805000Y-82884000D01*
X63795000Y-82884000D01*
X63784000Y-82884000D01*
X63772000Y-82883000D01*
X63759000Y-82883000D01*
X63746000Y-82882000D01*
X63732000Y-82881000D01*
X63719000Y-82880000D01*
X63705000Y-82878000D01*
X63691000Y-82877000D01*
X63659000Y-82873000D01*
X63628000Y-82867000D01*
X63598000Y-82859000D01*
X63569000Y-82850000D01*
X63540000Y-82840000D01*
X63513000Y-82828000D01*
X63486000Y-82814000D01*
X63460000Y-82799000D01*
X63435000Y-82783000D01*
X63411000Y-82765000D01*
X63388000Y-82745000D01*
X63366000Y-82724000D01*
X63346000Y-82704000D01*
X63327000Y-82683000D01*
X63310000Y-82661000D01*
X63295000Y-82639000D01*
X63281000Y-82617000D01*
X63269000Y-82594000D01*
X63257000Y-82571000D01*
X63248000Y-82547000D01*
X63239000Y-82521000D01*
X63231000Y-82495000D01*
X63225000Y-82468000D01*
X63220000Y-82439000D01*
X63215000Y-82384000D01*
X63212000Y-82281000D01*
X63209000Y-82138000D01*
X63207000Y-81965000D01*
X63206000Y-81772000D01*
X63206000Y-81568000D01*
X63206000Y-81361000D01*
X63207000Y-81161000D01*
X63209000Y-80977000D01*
X63212000Y-80818000D01*
X63215000Y-80694000D01*
X63220000Y-80614000D01*
X63230000Y-80514000D01*
X63245000Y-80418000D01*
X63265000Y-80325000D01*
X63289000Y-80234000D01*
X63318000Y-80147000D01*
X63351000Y-80063000D01*
X63390000Y-79981000D01*
X63432000Y-79902000D01*
X63480000Y-79826000D01*
X63533000Y-79752000D01*
X63590000Y-79680000D01*
X63652000Y-79610000D01*
X63701000Y-79561000D01*
X63751000Y-79514000D01*
X63802000Y-79470000D01*
X63854000Y-79428000D01*
X63908000Y-79389000D01*
X63963000Y-79353000D01*
X64020000Y-79318000D01*
X64079000Y-79286000D01*
X64140000Y-79256000D01*
X64204000Y-79228000D01*
X64270000Y-79201000D01*
X64339000Y-79177000D01*
X64418000Y-79152000D01*
X64501000Y-79131000D01*
X64586000Y-79114000D01*
X64673000Y-79100000D01*
X64762000Y-79090000D01*
X64852000Y-79084000D01*
X64943000Y-79082000D01*
X65034000Y-79084000D01*
G37*
G36*
X72316000Y-81024000D02*
G01*
X72310000Y-81178000D01*
X72293000Y-81330000D01*
X72263000Y-81479000D01*
X72223000Y-81625000D01*
X72172000Y-81768000D01*
X72110000Y-81906000D01*
X72039000Y-82039000D01*
X71957000Y-82165000D01*
X71867000Y-82285000D01*
X71767000Y-82398000D01*
X71658000Y-82502000D01*
X71542000Y-82598000D01*
X71486000Y-82638000D01*
X71426000Y-82677000D01*
X71364000Y-82714000D01*
X71298000Y-82749000D01*
X71230000Y-82783000D01*
X71160000Y-82814000D01*
X71089000Y-82843000D01*
X71018000Y-82870000D01*
X70946000Y-82894000D01*
X70874000Y-82914000D01*
X70803000Y-82932000D01*
X70734000Y-82946000D01*
X70684000Y-82953000D01*
X70630000Y-82960000D01*
X70573000Y-82965000D01*
X70512000Y-82970000D01*
X70449000Y-82973000D01*
X70386000Y-82975000D01*
X70322000Y-82975000D01*
X70260000Y-82975000D01*
X70200000Y-82973000D01*
X70143000Y-82970000D01*
X70091000Y-82966000D01*
X70044000Y-82960000D01*
X69877000Y-82929000D01*
X69717000Y-82884000D01*
X69565000Y-82828000D01*
X69420000Y-82758000D01*
X69285000Y-82678000D01*
X69159000Y-82586000D01*
X69043000Y-82484000D01*
X68938000Y-82372000D01*
X68844000Y-82250000D01*
X68762000Y-82119000D01*
X68693000Y-81980000D01*
X68638000Y-81834000D01*
X68618000Y-81770000D01*
X68601000Y-81712000D01*
X68587000Y-81652000D01*
X68576000Y-81585000D01*
X68567000Y-81503000D01*
X68561000Y-81401000D01*
X68556000Y-81271000D01*
X68552000Y-81109000D01*
X68550360Y-80998000D01*
X69676000Y-80998000D01*
X69676000Y-81025000D01*
X69676000Y-81056000D01*
X69678000Y-81129000D01*
X69686000Y-81198000D01*
X69698000Y-81263000D01*
X69714000Y-81325000D01*
X69736000Y-81382000D01*
X69762000Y-81436000D01*
X69793000Y-81486000D01*
X69828000Y-81532000D01*
X69868000Y-81574000D01*
X69913000Y-81612000D01*
X69962000Y-81646000D01*
X70017000Y-81677000D01*
X70054000Y-81694000D01*
X70094000Y-81709000D01*
X70136000Y-81721000D01*
X70181000Y-81732000D01*
X70226000Y-81740000D01*
X70273000Y-81746000D01*
X70320000Y-81749000D01*
X70368000Y-81750000D01*
X70415000Y-81749000D01*
X70462000Y-81745000D01*
X70508000Y-81738000D01*
X70552000Y-81729000D01*
X70614000Y-81712000D01*
X70673000Y-81688000D01*
X70729000Y-81660000D01*
X70782000Y-81626000D01*
X70832000Y-81588000D01*
X70878000Y-81546000D01*
X70920000Y-81500000D01*
X70957000Y-81450000D01*
X70990000Y-81397000D01*
X71017000Y-81341000D01*
X71039000Y-81283000D01*
X71055000Y-81222000D01*
X71060000Y-81193000D01*
X71065000Y-81162000D01*
X71068000Y-81128000D01*
X71070000Y-81092000D01*
X71071000Y-81055000D01*
X71071000Y-81018000D01*
X71070000Y-80981000D01*
X71068000Y-80945000D01*
X71065000Y-80910000D01*
X71062000Y-80878000D01*
X71057000Y-80849000D01*
X71051000Y-80824000D01*
X71027000Y-80750000D01*
X70996000Y-80682000D01*
X70958000Y-80618000D01*
X70914000Y-80561000D01*
X70863000Y-80509000D01*
X70807000Y-80463000D01*
X70745000Y-80423000D01*
X70678000Y-80390000D01*
X70607000Y-80364000D01*
X70531000Y-80345000D01*
X70451000Y-80334000D01*
X70368000Y-80330000D01*
X70290000Y-80333000D01*
X70215000Y-80343000D01*
X70145000Y-80360000D01*
X70079000Y-80383000D01*
X70017000Y-80412000D01*
X69960000Y-80448000D01*
X69907000Y-80490000D01*
X69859000Y-80538000D01*
X69815000Y-80592000D01*
X69776000Y-80652000D01*
X69743000Y-80718000D01*
X69714000Y-80790000D01*
X69706000Y-80812000D01*
X69700000Y-80833000D01*
X69694000Y-80852000D01*
X69690000Y-80871000D01*
X69686000Y-80890000D01*
X69683000Y-80909000D01*
X69680000Y-80929000D01*
X69678000Y-80950000D01*
X69677000Y-80973000D01*
X69676000Y-80998000D01*
X68550360Y-80998000D01*
X68549000Y-80906000D01*
X68547000Y-80658000D01*
X68546000Y-80357000D01*
X68544000Y-79997000D01*
X68544000Y-79800000D01*
X68543000Y-79606000D01*
X68543000Y-79417000D01*
X68543000Y-79235000D01*
X68543000Y-79063000D01*
X68544000Y-78901000D01*
X68545000Y-78753000D01*
X68546000Y-78621000D01*
X68547000Y-78505000D01*
X68548000Y-78410000D01*
X68549000Y-78336000D01*
X68551000Y-78286000D01*
X68554000Y-78229000D01*
X68556000Y-78180000D01*
X68559000Y-78138000D01*
X68561000Y-78102000D01*
X68564000Y-78071000D01*
X68567000Y-78045000D01*
X68571000Y-78022000D01*
X68575000Y-78003000D01*
X68580000Y-77985000D01*
X68585000Y-77969000D01*
X68591000Y-77953000D01*
X68599000Y-77937000D01*
X68632000Y-77880000D01*
X68672000Y-77828000D01*
X68719000Y-77781000D01*
X68772000Y-77740000D01*
X68830000Y-77706000D01*
X68893000Y-77678000D01*
X68960000Y-77657000D01*
X69030000Y-77643000D01*
X69102000Y-77636000D01*
X69175000Y-77637000D01*
X69250000Y-77646000D01*
X69324000Y-77663000D01*
X69347000Y-77670000D01*
X69371000Y-77680000D01*
X69396000Y-77692000D01*
X69421000Y-77705000D01*
X69446000Y-77720000D01*
X69470000Y-77736000D01*
X69494000Y-77753000D01*
X69517000Y-77771000D01*
X69538000Y-77789000D01*
X69558000Y-77808000D01*
X69576000Y-77826000D01*
X69591000Y-77845000D01*
X69614000Y-77877000D01*
X69634000Y-77906000D01*
X69650000Y-77935000D01*
X69663000Y-77967000D01*
X69673000Y-78003000D01*
X69681000Y-78048000D01*
X69687000Y-78103000D01*
X69691000Y-78171000D01*
X69693000Y-78255000D01*
X69695000Y-78357000D01*
X69695000Y-78480000D01*
X69696000Y-78627000D01*
X69696000Y-78704000D01*
X69696000Y-78780000D01*
X69697000Y-78853000D01*
X69697000Y-78922000D01*
X69698000Y-78987000D01*
X69699000Y-79047000D01*
X69699000Y-79101000D01*
X69700000Y-79149000D01*
X69701000Y-79189000D01*
X69702000Y-79221000D01*
X69703000Y-79244000D01*
X69704000Y-79258000D01*
X69712000Y-79319000D01*
X69833000Y-79264000D01*
X69896000Y-79236000D01*
X69958000Y-79210000D01*
X70018000Y-79188000D01*
X70076000Y-79168000D01*
X70134000Y-79152000D01*
X70192000Y-79137000D01*
X70250000Y-79126000D01*
X70309000Y-79116000D01*
X70369000Y-79109000D01*
X70430000Y-79104000D01*
X70494000Y-79101000D01*
X70560000Y-79100000D01*
X70676000Y-79104000D01*
X70788000Y-79114000D01*
X70898000Y-79131000D01*
X71004000Y-79155000D01*
X71108000Y-79185000D01*
X71208000Y-79223000D01*
X71306000Y-79268000D01*
X71401000Y-79319000D01*
X71494000Y-79377000D01*
X71584000Y-79443000D01*
X71672000Y-79515000D01*
X71757000Y-79595000D01*
X71844000Y-79687000D01*
X71924000Y-79786000D01*
X71997000Y-79889000D01*
X72063000Y-79998000D01*
X72121000Y-80112000D01*
X72172000Y-80231000D01*
X72216000Y-80354000D01*
X72251000Y-80481000D01*
X72280000Y-80611000D01*
X72300000Y-80746000D01*
X72312000Y-80884000D01*
X72316000Y-81018000D01*
X72316000Y-81024000D01*
G37*
G36*
X81710000Y-80745000D02*
G01*
X81716000Y-80799000D01*
X81718000Y-80850000D01*
X81718000Y-80897000D01*
X81715000Y-80941000D01*
X81708000Y-80982000D01*
X81699000Y-81022000D01*
X81686000Y-81060000D01*
X81671000Y-81098000D01*
X81653000Y-81135000D01*
X81641000Y-81156000D01*
X81628000Y-81175000D01*
X81615000Y-81193000D01*
X81602000Y-81210000D01*
X81587000Y-81226000D01*
X81571000Y-81241000D01*
X81553000Y-81256000D01*
X81535000Y-81269000D01*
X81514000Y-81283000D01*
X81492000Y-81296000D01*
X81468000Y-81308000D01*
X81442000Y-81321000D01*
X81361000Y-81360000D01*
X80227000Y-81367000D01*
X79094000Y-81374000D01*
X79098000Y-81411000D01*
X79101000Y-81425000D01*
X79103000Y-81433000D01*
X79106000Y-81443000D01*
X79110000Y-81453000D01*
X79114000Y-81465000D01*
X79118000Y-81476000D01*
X79123000Y-81489000D01*
X79129000Y-81502000D01*
X79135000Y-81514000D01*
X79140000Y-81527000D01*
X79147000Y-81540000D01*
X79169000Y-81581000D01*
X79197000Y-81621000D01*
X79229000Y-81660000D01*
X79265000Y-81697000D01*
X79305000Y-81732000D01*
X79347000Y-81765000D01*
X79393000Y-81795000D01*
X79441000Y-81823000D01*
X79490000Y-81847000D01*
X79541000Y-81868000D01*
X79594000Y-81885000D01*
X79647000Y-81899000D01*
X79679000Y-81905000D01*
X79714000Y-81909000D01*
X79752000Y-81912000D01*
X79791000Y-81914000D01*
X79831000Y-81915000D01*
X79872000Y-81914000D01*
X79913000Y-81913000D01*
X79953000Y-81910000D01*
X79993000Y-81905000D01*
X80031000Y-81900000D01*
X80067000Y-81893000D01*
X80101000Y-81886000D01*
X80118000Y-81881000D01*
X80137000Y-81875000D01*
X80156000Y-81869000D01*
X80177000Y-81861000D01*
X80199000Y-81853000D01*
X80220000Y-81844000D01*
X80243000Y-81835000D01*
X80264000Y-81826000D01*
X80286000Y-81816000D01*
X80307000Y-81806000D01*
X80326000Y-81796000D01*
X80344000Y-81787000D01*
X80407000Y-81753000D01*
X80459000Y-81725000D01*
X80503000Y-81701000D01*
X80539000Y-81683000D01*
X80569000Y-81669000D01*
X80595000Y-81658000D01*
X80618000Y-81651000D01*
X80640000Y-81646000D01*
X80661000Y-81643000D01*
X80684000Y-81642000D01*
X80709000Y-81641000D01*
X80739000Y-81642000D01*
X80773000Y-81643000D01*
X80807000Y-81645000D01*
X80839000Y-81650000D01*
X80870000Y-81656000D01*
X80900000Y-81665000D01*
X80929000Y-81675000D01*
X80957000Y-81688000D01*
X80985000Y-81702000D01*
X81012000Y-81719000D01*
X81039000Y-81737000D01*
X81066000Y-81758000D01*
X81092000Y-81782000D01*
X81128000Y-81819000D01*
X81159000Y-81859000D01*
X81185000Y-81903000D01*
X81206000Y-81949000D01*
X81222000Y-81997000D01*
X81233000Y-82047000D01*
X81239000Y-82098000D01*
X81240000Y-82150000D01*
X81236000Y-82202000D01*
X81226000Y-82253000D01*
X81210000Y-82304000D01*
X81190000Y-82354000D01*
X81154000Y-82414000D01*
X81105000Y-82475000D01*
X81044000Y-82535000D01*
X80972000Y-82594000D01*
X80891000Y-82651000D01*
X80801000Y-82706000D01*
X80704000Y-82757000D01*
X80601000Y-82805000D01*
X80494000Y-82848000D01*
X80382000Y-82886000D01*
X80269000Y-82919000D01*
X80153000Y-82944000D01*
X80112000Y-82951000D01*
X80063000Y-82957000D01*
X80008000Y-82963000D01*
X79948000Y-82967000D01*
X79886000Y-82971000D01*
X79822000Y-82973000D01*
X79758000Y-82975000D01*
X79696000Y-82976000D01*
X79637000Y-82975000D01*
X79582000Y-82974000D01*
X79533000Y-82971000D01*
X79491000Y-82967000D01*
X79405000Y-82954000D01*
X79320000Y-82937000D01*
X79236000Y-82916000D01*
X79154000Y-82891000D01*
X79073000Y-82863000D01*
X78993000Y-82830000D01*
X78915000Y-82794000D01*
X78839000Y-82754000D01*
X78765000Y-82711000D01*
X78693000Y-82664000D01*
X78622000Y-82614000D01*
X78555000Y-82560000D01*
X78475000Y-82489000D01*
X78401000Y-82415000D01*
X78331000Y-82336000D01*
X78266000Y-82253000D01*
X78205000Y-82165000D01*
X78150000Y-82074000D01*
X78099000Y-81979000D01*
X78054000Y-81880000D01*
X78013000Y-81777000D01*
X77977000Y-81670000D01*
X77947000Y-81559000D01*
X77921000Y-81445000D01*
X77912000Y-81391000D01*
X77905000Y-81330000D01*
X77900000Y-81262000D01*
X77896000Y-81190000D01*
X77895000Y-81115000D01*
X77895000Y-81038000D01*
X77896000Y-80962000D01*
X77900000Y-80886000D01*
X77905000Y-80814000D01*
X77911000Y-80745000D01*
X77918403Y-80694000D01*
X79094000Y-80694000D01*
X79096000Y-80704000D01*
X79104000Y-80706000D01*
X79124000Y-80707000D01*
X79156000Y-80708000D01*
X79199000Y-80710000D01*
X79251000Y-80711000D01*
X79313000Y-80712000D01*
X79382000Y-80713000D01*
X79459000Y-80714000D01*
X79543000Y-80714000D01*
X79632000Y-80715000D01*
X79725000Y-80715000D01*
X79823000Y-80715000D01*
X80542000Y-80715000D01*
X80534000Y-80672000D01*
X80529000Y-80652000D01*
X80522000Y-80631000D01*
X80514000Y-80609000D01*
X80505000Y-80587000D01*
X80494000Y-80565000D01*
X80482000Y-80542000D01*
X80469000Y-80520000D01*
X80455000Y-80497000D01*
X80439000Y-80475000D01*
X80423000Y-80453000D01*
X80406000Y-80432000D01*
X80388000Y-80412000D01*
X80350000Y-80373000D01*
X80312000Y-80338000D01*
X80272000Y-80307000D01*
X80231000Y-80279000D01*
X80188000Y-80255000D01*
X80144000Y-80235000D01*
X80097000Y-80218000D01*
X80048000Y-80205000D01*
X79996000Y-80195000D01*
X79941000Y-80188000D01*
X79882000Y-80183000D01*
X79820000Y-80182000D01*
X79760000Y-80184000D01*
X79702000Y-80188000D01*
X79647000Y-80195000D01*
X79596000Y-80206000D01*
X79546000Y-80219000D01*
X79499000Y-80236000D01*
X79454000Y-80257000D01*
X79411000Y-80280000D01*
X79369000Y-80308000D01*
X79329000Y-80339000D01*
X79290000Y-80373000D01*
X79252000Y-80412000D01*
X79231000Y-80435000D01*
X79211000Y-80461000D01*
X79191000Y-80490000D01*
X79171000Y-80519000D01*
X79153000Y-80549000D01*
X79137000Y-80579000D01*
X79122000Y-80607000D01*
X79110000Y-80634000D01*
X79101000Y-80658000D01*
X79096000Y-80678000D01*
X79094000Y-80694000D01*
X77918403Y-80694000D01*
X77920000Y-80683000D01*
X77930000Y-80628000D01*
X77953000Y-80527000D01*
X77980000Y-80430000D01*
X78011000Y-80336000D01*
X78045000Y-80246000D01*
X78083000Y-80159000D01*
X78124000Y-80074000D01*
X78170000Y-79993000D01*
X78219000Y-79915000D01*
X78273000Y-79839000D01*
X78331000Y-79765000D01*
X78393000Y-79694000D01*
X78459000Y-79625000D01*
X78577000Y-79517000D01*
X78703000Y-79421000D01*
X78837000Y-79336000D01*
X78978000Y-79263000D01*
X79125000Y-79201000D01*
X79277000Y-79152000D01*
X79433000Y-79115000D01*
X79593000Y-79091000D01*
X79757000Y-79080000D01*
X79922000Y-79081000D01*
X80089000Y-79096000D01*
X80257000Y-79124000D01*
X80434000Y-79169000D01*
X80602000Y-79230000D01*
X80762000Y-79307000D01*
X80911000Y-79397000D01*
X81051000Y-79501000D01*
X81179000Y-79618000D01*
X81295000Y-79748000D01*
X81399000Y-79888000D01*
X81490000Y-80040000D01*
X81567000Y-80202000D01*
X81629000Y-80373000D01*
X81677000Y-80553000D01*
X81691000Y-80622000D01*
X81702000Y-80686000D01*
X81706000Y-80715000D01*
X81710000Y-80745000D01*
G37*
G36*
X76295000Y-81123000D02*
G01*
X76287000Y-81228000D01*
X76273000Y-81334000D01*
X76255000Y-81438000D01*
X76231000Y-81542000D01*
X76202000Y-81644000D01*
X76168000Y-81744000D01*
X76129000Y-81841000D01*
X76086000Y-81934000D01*
X76039000Y-82023000D01*
X75988000Y-82108000D01*
X75951000Y-82162000D01*
X75912000Y-82216000D01*
X75870000Y-82269000D01*
X75827000Y-82320000D01*
X75783000Y-82371000D01*
X75737000Y-82419000D01*
X75690000Y-82466000D01*
X75642000Y-82511000D01*
X75593000Y-82554000D01*
X75544000Y-82594000D01*
X75495000Y-82631000D01*
X75445000Y-82666000D01*
X75396000Y-82697000D01*
X75341000Y-82728000D01*
X75283000Y-82758000D01*
X75222000Y-82787000D01*
X75159000Y-82815000D01*
X75094000Y-82842000D01*
X75028000Y-82866000D01*
X74962000Y-82889000D01*
X74896000Y-82909000D01*
X74832000Y-82927000D01*
X74770000Y-82941000D01*
X74711000Y-82952000D01*
X74674000Y-82957000D01*
X74629000Y-82962000D01*
X74578000Y-82966000D01*
X74522000Y-82969000D01*
X74463000Y-82972000D01*
X74403000Y-82974000D01*
X74344000Y-82975000D01*
X74286000Y-82975000D01*
X74232000Y-82974000D01*
X74184000Y-82973000D01*
X74142000Y-82970000D01*
X74109000Y-82967000D01*
X74005000Y-82950000D01*
X73906000Y-82930000D01*
X73810000Y-82906000D01*
X73718000Y-82879000D01*
X73629000Y-82847000D01*
X73543000Y-82812000D01*
X73461000Y-82773000D01*
X73381000Y-82729000D01*
X73304000Y-82682000D01*
X73230000Y-82630000D01*
X73158000Y-82574000D01*
X73088000Y-82513000D01*
X73037000Y-82464000D01*
X72987000Y-82410000D01*
X72940000Y-82352000D01*
X72894000Y-82291000D01*
X72850000Y-82227000D01*
X72809000Y-82162000D01*
X72772000Y-82094000D01*
X72737000Y-82026000D01*
X72707000Y-81958000D01*
X72681000Y-81890000D01*
X72659000Y-81823000D01*
X72643000Y-81758000D01*
X72630000Y-81695000D01*
X72619000Y-81632000D01*
X72610000Y-81562000D01*
X72603000Y-81480000D01*
X72597000Y-81381000D01*
X72592000Y-81258000D01*
X72589039Y-81108000D01*
X73685000Y-81108000D01*
X73694000Y-81199000D01*
X73713000Y-81285000D01*
X73742000Y-81365000D01*
X73779000Y-81440000D01*
X73826000Y-81508000D01*
X73881000Y-81569000D01*
X73944000Y-81622000D01*
X74015000Y-81667000D01*
X74094000Y-81703000D01*
X74180000Y-81729000D01*
X74205000Y-81735000D01*
X74232000Y-81740000D01*
X74259000Y-81744000D01*
X74287000Y-81747000D01*
X74314000Y-81749000D01*
X74342000Y-81750000D01*
X74370000Y-81750000D01*
X74398000Y-81750000D01*
X74425000Y-81748000D01*
X74452000Y-81746000D01*
X74478000Y-81743000D01*
X74504000Y-81738000D01*
X74538000Y-81731000D01*
X74571000Y-81723000D01*
X74602000Y-81714000D01*
X74632000Y-81704000D01*
X74660000Y-81693000D01*
X74688000Y-81680000D01*
X74714000Y-81667000D01*
X74740000Y-81652000D01*
X74765000Y-81636000D01*
X74789000Y-81618000D01*
X74813000Y-81599000D01*
X74836000Y-81578000D01*
X74874000Y-81541000D01*
X74908000Y-81504000D01*
X74938000Y-81466000D01*
X74964000Y-81427000D01*
X74987000Y-81387000D01*
X75006000Y-81345000D01*
X75022000Y-81301000D01*
X75035000Y-81255000D01*
X75045000Y-81206000D01*
X75052000Y-81155000D01*
X75056000Y-81101000D01*
X75057000Y-81043000D01*
X75056000Y-80987000D01*
X75052000Y-80933000D01*
X75046000Y-80883000D01*
X75038000Y-80835000D01*
X75027000Y-80790000D01*
X75013000Y-80748000D01*
X74996000Y-80707000D01*
X74977000Y-80668000D01*
X74954000Y-80630000D01*
X74928000Y-80594000D01*
X74899000Y-80558000D01*
X74866000Y-80523000D01*
X74833000Y-80491000D01*
X74799000Y-80462000D01*
X74763000Y-80436000D01*
X74727000Y-80413000D01*
X74689000Y-80393000D01*
X74650000Y-80376000D01*
X74609000Y-80361000D01*
X74566000Y-80349000D01*
X74522000Y-80340000D01*
X74475000Y-80334000D01*
X74427000Y-80330000D01*
X74376000Y-80328000D01*
X74324000Y-80329000D01*
X74275000Y-80334000D01*
X74226000Y-80341000D01*
X74180000Y-80351000D01*
X74135000Y-80363000D01*
X74092000Y-80379000D01*
X74051000Y-80398000D01*
X74012000Y-80419000D01*
X73974000Y-80443000D01*
X73938000Y-80470000D01*
X73904000Y-80500000D01*
X73872000Y-80533000D01*
X73849000Y-80559000D01*
X73828000Y-80585000D01*
X73809000Y-80613000D01*
X73791000Y-80641000D01*
X73774000Y-80671000D01*
X73760000Y-80701000D01*
X73746000Y-80733000D01*
X73734000Y-80766000D01*
X73723000Y-80800000D01*
X73713000Y-80837000D01*
X73705000Y-80875000D01*
X73697000Y-80914000D01*
X73686000Y-81013000D01*
X73685000Y-81108000D01*
X72589039Y-81108000D01*
X72589000Y-81106000D01*
X72586000Y-80920000D01*
X72585000Y-80693000D01*
X72584000Y-80421000D01*
X72583000Y-80098000D01*
X72583000Y-79717000D01*
X72583000Y-79320000D01*
X72583000Y-78991000D01*
X72584000Y-78721000D01*
X72586000Y-78506000D01*
X72588000Y-78337000D01*
X72592000Y-78209000D01*
X72598000Y-78113000D01*
X72606000Y-78044000D01*
X72616000Y-77995000D01*
X72629000Y-77958000D01*
X72644000Y-77927000D01*
X72663000Y-77895000D01*
X72697000Y-77844000D01*
X72739000Y-77799000D01*
X72786000Y-77759000D01*
X72839000Y-77723000D01*
X72897000Y-77694000D01*
X72958000Y-77670000D01*
X73023000Y-77652000D01*
X73090000Y-77641000D01*
X73159000Y-77636000D01*
X73229000Y-77638000D01*
X73299000Y-77647000D01*
X73368000Y-77663000D01*
X73392000Y-77670000D01*
X73416000Y-77680000D01*
X73441000Y-77692000D01*
X73466000Y-77705000D01*
X73491000Y-77720000D01*
X73516000Y-77737000D01*
X73540000Y-77754000D01*
X73563000Y-77772000D01*
X73584000Y-77791000D01*
X73604000Y-77810000D01*
X73622000Y-77829000D01*
X73638000Y-77849000D01*
X73661000Y-77879000D01*
X73680000Y-77908000D01*
X73696000Y-77936000D01*
X73708000Y-77968000D01*
X73718000Y-78006000D01*
X73725000Y-78052000D01*
X73731000Y-78110000D01*
X73735000Y-78183000D01*
X73737000Y-78272000D01*
X73738000Y-78382000D01*
X73739000Y-78514000D01*
X73739000Y-78673000D01*
X73739000Y-78756000D01*
X73739000Y-78836000D01*
X73740000Y-78913000D01*
X73740000Y-78984000D01*
X73741000Y-79050000D01*
X73741000Y-79110000D01*
X73742000Y-79163000D01*
X73743000Y-79208000D01*
X73744000Y-79244000D01*
X73744000Y-79272000D01*
X73745000Y-79289000D01*
X73748000Y-79296000D01*
X73758000Y-79294000D01*
X73765000Y-79291000D01*
X73774000Y-79288000D01*
X73785000Y-79284000D01*
X73796000Y-79279000D01*
X73809000Y-79274000D01*
X73823000Y-79267000D01*
X73837000Y-79261000D01*
X73852000Y-79254000D01*
X73868000Y-79246000D01*
X73914000Y-79225000D01*
X73960000Y-79206000D01*
X74008000Y-79188000D01*
X74056000Y-79172000D01*
X74105000Y-79158000D01*
X74155000Y-79145000D01*
X74206000Y-79135000D01*
X74258000Y-79125000D01*
X74312000Y-79118000D01*
X74367000Y-79112000D01*
X74423000Y-79107000D01*
X74482000Y-79104000D01*
X74562000Y-79102000D01*
X74638000Y-79103000D01*
X74711000Y-79107000D01*
X74781000Y-79113000D01*
X74850000Y-79123000D01*
X74917000Y-79135000D01*
X74983000Y-79151000D01*
X75048000Y-79170000D01*
X75114000Y-79193000D01*
X75181000Y-79219000D01*
X75249000Y-79250000D01*
X75319000Y-79283000D01*
X75361000Y-79305000D01*
X75401000Y-79327000D01*
X75440000Y-79350000D01*
X75477000Y-79373000D01*
X75514000Y-79398000D01*
X75550000Y-79424000D01*
X75585000Y-79451000D01*
X75620000Y-79479000D01*
X75655000Y-79509000D01*
X75690000Y-79542000D01*
X75726000Y-79576000D01*
X75763000Y-79612000D01*
X75842000Y-79698000D01*
X75914000Y-79787000D01*
X75980000Y-79880000D01*
X76040000Y-79977000D01*
X76093000Y-80078000D01*
X76140000Y-80183000D01*
X76181000Y-80293000D01*
X76216000Y-80407000D01*
X76244000Y-80526000D01*
X76267000Y-80651000D01*
X76284000Y-80780000D01*
X76295000Y-80915000D01*
X76298000Y-81019000D01*
X76297000Y-81043000D01*
X76295000Y-81123000D01*
G37*
G36*
X62531000Y-80426000D02*
G01*
X62531000Y-80921000D01*
X62531000Y-81355000D01*
X62530000Y-81731000D01*
X62530000Y-82054000D01*
X62529000Y-82327000D01*
X62527000Y-82554000D01*
X62526000Y-82739000D01*
X62524000Y-82885000D01*
X62521000Y-82996000D01*
X62519000Y-83077000D01*
X62515000Y-83130000D01*
X62512000Y-83160000D01*
X62479000Y-83295000D01*
X62435000Y-83425000D01*
X62381000Y-83550000D01*
X62317000Y-83669000D01*
X62244000Y-83781000D01*
X62162000Y-83887000D01*
X62071000Y-83984000D01*
X61972000Y-84074000D01*
X61866000Y-84154000D01*
X61753000Y-84226000D01*
X61633000Y-84288000D01*
X61507000Y-84339000D01*
X61445000Y-84362000D01*
X61389000Y-84381000D01*
X61329000Y-84396000D01*
X61254000Y-84408000D01*
X61152000Y-84418000D01*
X61012000Y-84424000D01*
X60824000Y-84429000D01*
X60575000Y-84433000D01*
X60255000Y-84435000D01*
X59852000Y-84436000D01*
X59355000Y-84437000D01*
X58753000Y-84438000D01*
X58428000Y-84438000D01*
X58111000Y-84438000D01*
X57804000Y-84438000D01*
X57511000Y-84438000D01*
X57236000Y-84438000D01*
X56982000Y-84438000D01*
X56751000Y-84437000D01*
X56548000Y-84436000D01*
X56375000Y-84436000D01*
X56236000Y-84435000D01*
X56134000Y-84434000D01*
X56072000Y-84432000D01*
X55997000Y-84430000D01*
X55929000Y-84427000D01*
X55870000Y-84423000D01*
X55816000Y-84419000D01*
X55767000Y-84413000D01*
X55721000Y-84407000D01*
X55678000Y-84398000D01*
X55637000Y-84389000D01*
X55595000Y-84377000D01*
X55553000Y-84363000D01*
X55508000Y-84347000D01*
X55460000Y-84328000D01*
X55373000Y-84291000D01*
X55288000Y-84248000D01*
X55205000Y-84199000D01*
X55124000Y-84145000D01*
X55047000Y-84087000D01*
X54972000Y-84025000D01*
X54902000Y-83959000D01*
X54836000Y-83890000D01*
X54776000Y-83818000D01*
X54720000Y-83745000D01*
X54671000Y-83669000D01*
X54629000Y-83592000D01*
X54612000Y-83556000D01*
X54594000Y-83517000D01*
X54577000Y-83474000D01*
X54560000Y-83430000D01*
X54544000Y-83384000D01*
X54529000Y-83337000D01*
X54514000Y-83290000D01*
X54501000Y-83244000D01*
X54489000Y-83199000D01*
X54479000Y-83156000D01*
X54471000Y-83117000D01*
X54465000Y-83081000D01*
X54463000Y-83045000D01*
X54461000Y-82976000D01*
X54459000Y-82874000D01*
X54457000Y-82739000D01*
X54455000Y-82571000D01*
X54454000Y-82368000D01*
X54452000Y-82132000D01*
X54451000Y-81861000D01*
X54451000Y-81555000D01*
X54450000Y-81215000D01*
X54450000Y-80840000D01*
X54450000Y-80429000D01*
X54450000Y-79785000D01*
X54450000Y-79252000D01*
X54450406Y-79076000D01*
X55058000Y-79076000D01*
X55059000Y-79469000D01*
X55059000Y-79937000D01*
X55060000Y-80486000D01*
X55065000Y-83093000D01*
X55099000Y-83197000D01*
X55130000Y-83277000D01*
X55168000Y-83354000D01*
X55213000Y-83426000D01*
X55263000Y-83493000D01*
X55319000Y-83556000D01*
X55381000Y-83613000D01*
X55447000Y-83664000D01*
X55518000Y-83710000D01*
X55593000Y-83749000D01*
X55672000Y-83782000D01*
X55754000Y-83807000D01*
X55839000Y-83826000D01*
X55872000Y-83828000D01*
X55952000Y-83829000D01*
X56073000Y-83830000D01*
X56234000Y-83832000D01*
X56431000Y-83833000D01*
X56661000Y-83834000D01*
X56920000Y-83835000D01*
X57204000Y-83835000D01*
X57512000Y-83836000D01*
X57839000Y-83836000D01*
X58182000Y-83836000D01*
X58539000Y-83836000D01*
X61168000Y-83834000D01*
X61290000Y-83792000D01*
X61327000Y-83779000D01*
X61365000Y-83763000D01*
X61403000Y-83745000D01*
X61441000Y-83725000D01*
X61479000Y-83703000D01*
X61516000Y-83680000D01*
X61552000Y-83656000D01*
X61586000Y-83631000D01*
X61619000Y-83605000D01*
X61649000Y-83579000D01*
X61677000Y-83552000D01*
X61702000Y-83526000D01*
X61723000Y-83499000D01*
X61746000Y-83469000D01*
X61768000Y-83435000D01*
X61790000Y-83398000D01*
X61812000Y-83358000D01*
X61832000Y-83318000D01*
X61852000Y-83277000D01*
X61869000Y-83237000D01*
X61885000Y-83198000D01*
X61898000Y-83160000D01*
X61908000Y-83125000D01*
X61915000Y-83094000D01*
X61918000Y-83063000D01*
X61920000Y-82998000D01*
X61922000Y-82900000D01*
X61924000Y-82767000D01*
X61926000Y-82600000D01*
X61927000Y-82399000D01*
X61928000Y-82162000D01*
X61929000Y-81889000D01*
X61930000Y-81581000D01*
X61931000Y-81236000D01*
X61931000Y-80854000D01*
X61931000Y-80435000D01*
X61931000Y-79783000D01*
X61931000Y-79247000D01*
X61930000Y-78814000D01*
X61929000Y-78471000D01*
X61926000Y-78207000D01*
X61921000Y-78011000D01*
X61914000Y-77869000D01*
X61905000Y-77769000D01*
X61892000Y-77701000D01*
X61876000Y-77651000D01*
X61856000Y-77609000D01*
X61832000Y-77560000D01*
X61822000Y-77540000D01*
X61812000Y-77520000D01*
X61801000Y-77502000D01*
X61790000Y-77484000D01*
X61777000Y-77466000D01*
X61765000Y-77448000D01*
X61751000Y-77430000D01*
X61735000Y-77412000D01*
X61719000Y-77393000D01*
X61701000Y-77373000D01*
X61681000Y-77352000D01*
X61659000Y-77330000D01*
X61625000Y-77298000D01*
X61592000Y-77268000D01*
X61560000Y-77241000D01*
X61527000Y-77217000D01*
X61494000Y-77195000D01*
X61461000Y-77174000D01*
X61427000Y-77156000D01*
X61391000Y-77139000D01*
X61354000Y-77124000D01*
X61315000Y-77110000D01*
X61273000Y-77098000D01*
X61229000Y-77086000D01*
X61200000Y-77079000D01*
X61165000Y-77073000D01*
X61114000Y-77069000D01*
X61039000Y-77065000D01*
X60931000Y-77062000D01*
X60781000Y-77060000D01*
X60579000Y-77058000D01*
X60318000Y-77057000D01*
X59987000Y-77056000D01*
X59577000Y-77056000D01*
X59081000Y-77056000D01*
X58488000Y-77056000D01*
X57888000Y-77056000D01*
X57388000Y-77056000D01*
X56976000Y-77056000D01*
X56644000Y-77057000D01*
X56384000Y-77058000D01*
X56184000Y-77060000D01*
X56037000Y-77062000D01*
X55932000Y-77065000D01*
X55860000Y-77069000D01*
X55813000Y-77074000D01*
X55780000Y-77080000D01*
X55753000Y-77087000D01*
X55669000Y-77114000D01*
X55590000Y-77147000D01*
X55514000Y-77187000D01*
X55443000Y-77233000D01*
X55378000Y-77284000D01*
X55317000Y-77340000D01*
X55262000Y-77402000D01*
X55213000Y-77468000D01*
X55170000Y-77539000D01*
X55133000Y-77614000D01*
X55103000Y-77692000D01*
X55080000Y-77774000D01*
X55075000Y-77802000D01*
X55071000Y-77844000D01*
X55067000Y-77905000D01*
X55064000Y-77993000D01*
X55062000Y-78115000D01*
X55060000Y-78277000D01*
X55059000Y-78487000D01*
X55059000Y-78751000D01*
X55058000Y-79076000D01*
X54450406Y-79076000D01*
X54451000Y-78818000D01*
X54452000Y-78473000D01*
X54456000Y-78204000D01*
X54460000Y-77999000D01*
X54467000Y-77847000D01*
X54477000Y-77736000D01*
X54489000Y-77655000D01*
X54505000Y-77592000D01*
X54525000Y-77535000D01*
X54548000Y-77473000D01*
X54597000Y-77355000D01*
X54655000Y-77243000D01*
X54721000Y-77137000D01*
X54795000Y-77036000D01*
X54876000Y-76943000D01*
X54965000Y-76856000D01*
X55060000Y-76777000D01*
X55162000Y-76705000D01*
X55270000Y-76640000D01*
X55384000Y-76584000D01*
X55503000Y-76536000D01*
X55628000Y-76497000D01*
X55776000Y-76456000D01*
X58398000Y-76451000D01*
X59025000Y-76450000D01*
X59551000Y-76450000D01*
X59986000Y-76450000D01*
X60338000Y-76451000D01*
X60619000Y-76452000D01*
X60837000Y-76455000D01*
X61004000Y-76460000D01*
X61128000Y-76466000D01*
X61219000Y-76473000D01*
X61288000Y-76483000D01*
X61344000Y-76495000D01*
X61397000Y-76509000D01*
X61457000Y-76527000D01*
X61517000Y-76549000D01*
X61579000Y-76574000D01*
X61640000Y-76602000D01*
X61701000Y-76634000D01*
X61761000Y-76668000D01*
X61821000Y-76704000D01*
X61878000Y-76743000D01*
X61934000Y-76784000D01*
X61988000Y-76826000D01*
X62039000Y-76870000D01*
X62087000Y-76915000D01*
X62136000Y-76965000D01*
X62181000Y-77017000D01*
X62224000Y-77071000D01*
X62265000Y-77128000D01*
X62303000Y-77186000D01*
X62338000Y-77247000D01*
X62371000Y-77310000D01*
X62401000Y-77375000D01*
X62429000Y-77443000D01*
X62455000Y-77513000D01*
X62478000Y-77585000D01*
X62498000Y-77660000D01*
X62531000Y-77789000D01*
X62531000Y-79783000D01*
X62531000Y-80426000D01*
G37*
G36*
X61296000Y-81535000D02*
G01*
X61362000Y-81597000D01*
X61427000Y-81658000D01*
X61427000Y-81962000D01*
X61427000Y-82030000D01*
X61427000Y-82087000D01*
X61427000Y-82134000D01*
X61426000Y-82173000D01*
X61425000Y-82205000D01*
X61423000Y-82231000D01*
X61420000Y-82251000D01*
X61417000Y-82268000D01*
X61413000Y-82282000D01*
X61407000Y-82294000D01*
X61401000Y-82305000D01*
X61394000Y-82316000D01*
X61389000Y-82323000D01*
X61383000Y-82330000D01*
X61378000Y-82337000D01*
X61372000Y-82344000D01*
X61365000Y-82351000D01*
X61359000Y-82357000D01*
X61353000Y-82363000D01*
X61346000Y-82369000D01*
X61340000Y-82374000D01*
X61334000Y-82378000D01*
X61323000Y-82385000D01*
X61278000Y-82392000D01*
X61178000Y-82397000D01*
X61035000Y-82401000D01*
X60859000Y-82404000D01*
X60660000Y-82405000D01*
X60451000Y-82406000D01*
X60241000Y-82405000D01*
X60042000Y-82403000D01*
X59864000Y-82400000D01*
X59719000Y-82395000D01*
X59617000Y-82390000D01*
X59569000Y-82383000D01*
X59547000Y-82373000D01*
X59528000Y-82363000D01*
X59512000Y-82350000D01*
X59499000Y-82335000D01*
X59489000Y-82317000D01*
X59481000Y-82293000D01*
X59474000Y-82264000D01*
X59469000Y-82228000D01*
X59466000Y-82184000D01*
X59463000Y-82131000D01*
X59461000Y-82068000D01*
X59460000Y-81995000D01*
X59459000Y-81921000D01*
X59459000Y-81858000D01*
X59460000Y-81803000D01*
X59462000Y-81757000D01*
X59466000Y-81717000D01*
X59471000Y-81685000D01*
X59478000Y-81658000D01*
X59486000Y-81637000D01*
X59497000Y-81619000D01*
X59510000Y-81605000D01*
X59525000Y-81594000D01*
X59543000Y-81585000D01*
X59580000Y-81568000D01*
X59571000Y-81390000D01*
X59564000Y-81298000D01*
X59552000Y-81207000D01*
X59537000Y-81117000D01*
X59518000Y-81028000D01*
X59494000Y-80940000D01*
X59467000Y-80853000D01*
X59436000Y-80768000D01*
X59400000Y-80685000D01*
X59362000Y-80604000D01*
X59319000Y-80525000D01*
X59273000Y-80448000D01*
X59223000Y-80374000D01*
X59194000Y-80335000D01*
X59159000Y-80292000D01*
X59119000Y-80246000D01*
X59074000Y-80197000D01*
X59025000Y-80146000D01*
X58973000Y-80093000D01*
X58918000Y-80039000D01*
X58860000Y-79984000D01*
X58800000Y-79929000D01*
X58738000Y-79875000D01*
X58676000Y-79821000D01*
X58613000Y-79768000D01*
X58515000Y-79688000D01*
X58419000Y-79611000D01*
X58328000Y-79537000D01*
X58242000Y-79467000D01*
X58161000Y-79402000D01*
X58086000Y-79342000D01*
X58020000Y-79290000D01*
X57961000Y-79244000D01*
X57913000Y-79206000D01*
X57874000Y-79177000D01*
X57847000Y-79157000D01*
X57832000Y-79147000D01*
X57812000Y-79140000D01*
X57790000Y-79137000D01*
X57766000Y-79139000D01*
X57741000Y-79146000D01*
X57716000Y-79156000D01*
X57690000Y-79170000D01*
X57665000Y-79187000D01*
X57641000Y-79207000D01*
X57619000Y-79230000D01*
X57599000Y-79255000D01*
X57581000Y-79282000D01*
X57566000Y-79311000D01*
X57560000Y-79327000D01*
X57555000Y-79346000D01*
X57551000Y-79372000D01*
X57547000Y-79408000D01*
X57544000Y-79458000D01*
X57542000Y-79525000D01*
X57540000Y-79612000D01*
X57539000Y-79722000D01*
X57538000Y-79859000D01*
X57537000Y-80026000D01*
X57536000Y-80226000D01*
X57535000Y-80463000D01*
X57532000Y-81552000D01*
X57579000Y-81582000D01*
X57598000Y-81594000D01*
X57614000Y-81607000D01*
X57627000Y-81620000D01*
X57638000Y-81636000D01*
X57646000Y-81655000D01*
X57652000Y-81680000D01*
X57657000Y-81710000D01*
X57660000Y-81747000D01*
X57662000Y-81793000D01*
X57662000Y-81848000D01*
X57662000Y-81915000D01*
X57661000Y-81993000D01*
X57657000Y-82300000D01*
X57609000Y-82348000D01*
X57560000Y-82397000D01*
X56705000Y-82400000D01*
X56526000Y-82401000D01*
X56373000Y-82401000D01*
X56245000Y-82401000D01*
X56138000Y-82401000D01*
X56051000Y-82400000D01*
X55982000Y-82399000D01*
X55928000Y-82397000D01*
X55887000Y-82395000D01*
X55857000Y-82392000D01*
X55836000Y-82389000D01*
X55821000Y-82384000D01*
X55811000Y-82379000D01*
X55792000Y-82367000D01*
X55776000Y-82354000D01*
X55763000Y-82340000D01*
X55752000Y-82324000D01*
X55744000Y-82304000D01*
X55737000Y-82280000D01*
X55732000Y-82249000D01*
X55728000Y-82212000D01*
X55726000Y-82166000D01*
X55725000Y-82111000D01*
X55724000Y-82046000D01*
X55724000Y-81970000D01*
X55724000Y-81666000D01*
X55761000Y-81621000D01*
X55767000Y-81615000D01*
X55772000Y-81609000D01*
X55778000Y-81603000D01*
X55784000Y-81597000D01*
X55790000Y-81592000D01*
X55796000Y-81587000D01*
X55802000Y-81582000D01*
X55814000Y-81574000D01*
X55823000Y-81569000D01*
X55834000Y-81564000D01*
X55836222Y-81560000D01*
X56242000Y-81560000D01*
X56367000Y-81560000D01*
X56493000Y-81560000D01*
X56498000Y-80334000D01*
X56499000Y-80084000D01*
X56500000Y-79869000D01*
X56501000Y-79686000D01*
X56503000Y-79533000D01*
X56504000Y-79407000D01*
X56506000Y-79304000D01*
X56507444Y-79265000D01*
X56894000Y-79265000D01*
X56894000Y-80412000D01*
X56894000Y-81560000D01*
X57020000Y-81560000D01*
X57146000Y-81560000D01*
X57146000Y-80451000D01*
X57146000Y-80224000D01*
X57146000Y-80029000D01*
X57147000Y-79863000D01*
X57147000Y-79725000D01*
X57149000Y-79610000D01*
X57150000Y-79517000D01*
X57152000Y-79443000D01*
X57154000Y-79385000D01*
X57157000Y-79341000D01*
X57161000Y-79307000D01*
X57165000Y-79282000D01*
X57170000Y-79262000D01*
X57181000Y-79228000D01*
X57192000Y-79196000D01*
X57205000Y-79164000D01*
X57218000Y-79135000D01*
X57233000Y-79106000D01*
X57248000Y-79079000D01*
X57264000Y-79053000D01*
X57282000Y-79028000D01*
X57300000Y-79005000D01*
X57320000Y-78982000D01*
X57340000Y-78961000D01*
X57362000Y-78940000D01*
X57445000Y-78866000D01*
X57400000Y-78842000D01*
X57393000Y-78839000D01*
X57386000Y-78836000D01*
X57377000Y-78833000D01*
X57368000Y-78831000D01*
X57358000Y-78828000D01*
X57348000Y-78826000D01*
X57337000Y-78824000D01*
X57326000Y-78822000D01*
X57316000Y-78821000D01*
X57305000Y-78820000D01*
X57295000Y-78819000D01*
X57285000Y-78819000D01*
X57246000Y-78821000D01*
X57208000Y-78829000D01*
X57172000Y-78841000D01*
X57137000Y-78858000D01*
X57104000Y-78879000D01*
X57073000Y-78905000D01*
X57044000Y-78935000D01*
X57017000Y-78969000D01*
X56992000Y-79008000D01*
X56970000Y-79050000D01*
X56949000Y-79096000D01*
X56932000Y-79146000D01*
X56894000Y-79265000D01*
X56507444Y-79265000D01*
X56509000Y-79223000D01*
X56511000Y-79159000D01*
X56514000Y-79111000D01*
X56518000Y-79075000D01*
X56522000Y-79049000D01*
X56527000Y-79030000D01*
X56564000Y-78928000D01*
X56609000Y-78835000D01*
X56662000Y-78750000D01*
X56722000Y-78675000D01*
X56789000Y-78609000D01*
X56862000Y-78553000D01*
X56941000Y-78508000D01*
X57024000Y-78474000D01*
X57111000Y-78451000D01*
X57202000Y-78440000D01*
X57295000Y-78440000D01*
X57391000Y-78454000D01*
X57440000Y-78464000D01*
X57485000Y-78477000D01*
X57530000Y-78492000D01*
X57575000Y-78512000D01*
X57624000Y-78538000D01*
X57678000Y-78571000D01*
X57739000Y-78612000D01*
X57810000Y-78663000D01*
X57892000Y-78725000D01*
X57988000Y-78799000D01*
X58072000Y-78866000D01*
X58099000Y-78887000D01*
X58227000Y-78990000D01*
X58458000Y-79175000D01*
X58658000Y-79338000D01*
X58830000Y-79480000D01*
X58977000Y-79604000D01*
X59102000Y-79713000D01*
X59207000Y-79809000D01*
X59296000Y-79896000D01*
X59372000Y-79976000D01*
X59436000Y-80052000D01*
X59493000Y-80126000D01*
X59545000Y-80200000D01*
X59594000Y-80279000D01*
X59601000Y-80290000D01*
X59607000Y-80300000D01*
X59614000Y-80310000D01*
X59620000Y-80319000D01*
X59626000Y-80328000D01*
X59631000Y-80336000D01*
X59636000Y-80342000D01*
X59645000Y-80353000D01*
X59651000Y-80358000D01*
X59656000Y-80351000D01*
X59657000Y-80339000D01*
X59658000Y-80330000D01*
X59658000Y-80321000D01*
X59658000Y-80310000D01*
X59657000Y-80298000D01*
X59656000Y-80286000D01*
X59656000Y-80273000D01*
X59654000Y-80260000D01*
X59650000Y-80227000D01*
X59644000Y-80191000D01*
X59636000Y-80154000D01*
X59626000Y-80116000D01*
X59614000Y-80077000D01*
X59601000Y-80038000D01*
X59586000Y-79999000D01*
X59570000Y-79961000D01*
X59553000Y-79923000D01*
X59536000Y-79888000D01*
X59517000Y-79854000D01*
X59498000Y-79823000D01*
X59477000Y-79792000D01*
X59452000Y-79759000D01*
X59423000Y-79723000D01*
X59391000Y-79686000D01*
X59355000Y-79647000D01*
X59318000Y-79607000D01*
X59277000Y-79566000D01*
X59236000Y-79525000D01*
X59192000Y-79484000D01*
X59148000Y-79444000D01*
X59103000Y-79405000D01*
X59057000Y-79367000D01*
X59037000Y-79350000D01*
X59015000Y-79332000D01*
X58991000Y-79313000D01*
X58967000Y-79293000D01*
X58942000Y-79272000D01*
X58916000Y-79251000D01*
X58891000Y-79230000D01*
X58866000Y-79210000D01*
X58841000Y-79190000D01*
X58818000Y-79170000D01*
X58796000Y-79152000D01*
X58776000Y-79136000D01*
X58702000Y-79075000D01*
X58617000Y-79007000D01*
X58525000Y-78933000D01*
X58428000Y-78855000D01*
X58330000Y-78776000D01*
X58232000Y-78698000D01*
X58139000Y-78625000D01*
X58053000Y-78557000D01*
X57977000Y-78497000D01*
X57914000Y-78448000D01*
X57867000Y-78412000D01*
X57839000Y-78392000D01*
X57789000Y-78360000D01*
X57740000Y-78331000D01*
X57690000Y-78305000D01*
X57640000Y-78283000D01*
X57589000Y-78264000D01*
X57538000Y-78248000D01*
X57485000Y-78235000D01*
X57430000Y-78226000D01*
X57374000Y-78219000D01*
X57316000Y-78215000D01*
X57255000Y-78214000D01*
X57192000Y-78215000D01*
X57126000Y-78220000D01*
X57064000Y-78227000D01*
X57005000Y-78236000D01*
X56951000Y-78250000D01*
X56898000Y-78266000D01*
X56848000Y-78286000D01*
X56799000Y-78310000D01*
X56752000Y-78339000D01*
X56705000Y-78372000D01*
X56657000Y-78409000D01*
X56609000Y-78451000D01*
X56560000Y-78499000D01*
X56527000Y-78534000D01*
X56496000Y-78569000D01*
X56467000Y-78605000D01*
X56440000Y-78641000D01*
X56414000Y-78679000D01*
X56391000Y-78718000D01*
X56369000Y-78758000D01*
X56348000Y-78799000D01*
X56330000Y-78841000D01*
X56313000Y-78885000D01*
X56297000Y-78931000D01*
X56283000Y-78978000D01*
X56276000Y-79005000D01*
X56270000Y-79033000D01*
X56264000Y-79065000D01*
X56260000Y-79108000D01*
X56257000Y-79164000D01*
X56254000Y-79239000D01*
X56252000Y-79336000D01*
X56251000Y-79462000D01*
X56249000Y-79619000D01*
X56248000Y-79812000D01*
X56247000Y-80047000D01*
X56246000Y-80326000D01*
X56242000Y-81560000D01*
X55836222Y-81560000D01*
X55839000Y-81555000D01*
X55844000Y-81538000D01*
X55847000Y-81507000D01*
X55850000Y-81459000D01*
X55853000Y-81390000D01*
X55855000Y-81295000D01*
X55856000Y-81172000D01*
X55857000Y-81015000D01*
X55858000Y-80820000D01*
X55859000Y-80584000D01*
X55861000Y-80303000D01*
X55865000Y-79049000D01*
X55907000Y-78893000D01*
X55952000Y-78752000D01*
X56008000Y-78619000D01*
X56075000Y-78495000D01*
X56152000Y-78380000D01*
X56238000Y-78275000D01*
X56318000Y-78195000D01*
X58190000Y-78195000D01*
X58242000Y-78240000D01*
X58252000Y-78248000D01*
X58266000Y-78260000D01*
X58283000Y-78275000D01*
X58305000Y-78293000D01*
X58330000Y-78313000D01*
X58357000Y-78336000D01*
X58387000Y-78361000D01*
X58419000Y-78387000D01*
X58453000Y-78414000D01*
X58488000Y-78443000D01*
X58524000Y-78472000D01*
X58561000Y-78502000D01*
X58598000Y-78533000D01*
X58637000Y-78564000D01*
X58677000Y-78597000D01*
X58717000Y-78630000D01*
X58758000Y-78663000D01*
X58797000Y-78695000D01*
X58835000Y-78726000D01*
X58872000Y-78756000D01*
X58906000Y-78784000D01*
X58937000Y-78810000D01*
X58966000Y-78834000D01*
X58990000Y-78854000D01*
X59013000Y-78873000D01*
X59037000Y-78893000D01*
X59061000Y-78912000D01*
X59085000Y-78932000D01*
X59109000Y-78952000D01*
X59132000Y-78971000D01*
X59155000Y-78990000D01*
X59176000Y-79007000D01*
X59196000Y-79024000D01*
X59214000Y-79039000D01*
X59231000Y-79052000D01*
X59245000Y-79063000D01*
X59340000Y-79142000D01*
X59426000Y-79213000D01*
X59501000Y-79279000D01*
X59568000Y-79340000D01*
X59627000Y-79398000D01*
X59679000Y-79454000D01*
X59726000Y-79509000D01*
X59769000Y-79564000D01*
X59808000Y-79620000D01*
X59844000Y-79679000D01*
X59880000Y-79741000D01*
X59915000Y-79808000D01*
X59941000Y-79862000D01*
X59964000Y-79911000D01*
X59982000Y-79959000D01*
X59997000Y-80009000D01*
X60009000Y-80064000D01*
X60018000Y-80127000D01*
X60025000Y-80201000D01*
X60029000Y-80291000D01*
X60030000Y-80321000D01*
X60032000Y-80397000D01*
X60034000Y-80525000D01*
X60035000Y-80678000D01*
X60035000Y-80857000D01*
X60035000Y-80950000D01*
X60035000Y-81038000D01*
X60036000Y-81123000D01*
X60036000Y-81202000D01*
X60037000Y-81276000D01*
X60038000Y-81342000D01*
X60039000Y-81401000D01*
X60040000Y-81451000D01*
X60041000Y-81492000D01*
X60042000Y-81523000D01*
X60043000Y-81542000D01*
X60045000Y-81550000D01*
X60058000Y-81554000D01*
X60066000Y-81555000D01*
X60075000Y-81556000D01*
X60086000Y-81557000D01*
X60098000Y-81558000D01*
X60111000Y-81558000D01*
X60125000Y-81559000D01*
X60140000Y-81559000D01*
X60155000Y-81560000D01*
X60171000Y-81560000D01*
X60287000Y-81560000D01*
X60287000Y-80880000D01*
X60287000Y-80703000D01*
X60286000Y-80551000D01*
X60284000Y-80422000D01*
X60281000Y-80313000D01*
X60277000Y-80221000D01*
X60272000Y-80143000D01*
X60264000Y-80077000D01*
X60255000Y-80019000D01*
X60243000Y-79967000D01*
X60228000Y-79918000D01*
X60211000Y-79869000D01*
X60190000Y-79818000D01*
X60164000Y-79759000D01*
X60135000Y-79700000D01*
X60103000Y-79642000D01*
X60067000Y-79585000D01*
X60029000Y-79528000D01*
X59987000Y-79472000D01*
X59942000Y-79416000D01*
X59894000Y-79361000D01*
X59843000Y-79306000D01*
X59788000Y-79251000D01*
X59730000Y-79197000D01*
X59669000Y-79143000D01*
X59616000Y-79098000D01*
X59550000Y-79043000D01*
X59473000Y-78979000D01*
X59389000Y-78910000D01*
X59300000Y-78836000D01*
X59209000Y-78762000D01*
X59120000Y-78690000D01*
X59035000Y-78621000D01*
X58957000Y-78558000D01*
X58890000Y-78504000D01*
X58836000Y-78462000D01*
X58798000Y-78432000D01*
X58749000Y-78397000D01*
X58703000Y-78365000D01*
X58659000Y-78336000D01*
X58616000Y-78310000D01*
X58574000Y-78288000D01*
X59155000Y-78288000D01*
X59176000Y-78311000D01*
X59210000Y-78335000D01*
X59262000Y-78376000D01*
X59330000Y-78430000D01*
X59410000Y-78495000D01*
X59498000Y-78567000D01*
X59592000Y-78645000D01*
X59689000Y-78725000D01*
X59784000Y-78804000D01*
X59874000Y-78880000D01*
X59957000Y-78950000D01*
X60028000Y-79012000D01*
X60085000Y-79062000D01*
X60142000Y-79115000D01*
X60196000Y-79170000D01*
X60249000Y-79227000D01*
X60298000Y-79285000D01*
X60346000Y-79346000D01*
X60390000Y-79407000D01*
X60431000Y-79469000D01*
X60469000Y-79531000D01*
X60503000Y-79594000D01*
X60534000Y-79656000D01*
X60560000Y-79718000D01*
X60582000Y-79779000D01*
X60600000Y-79833000D01*
X60615000Y-79881000D01*
X60627000Y-79927000D01*
X60637000Y-79975000D01*
X60645000Y-80027000D01*
X60651000Y-80088000D01*
X60656000Y-80160000D01*
X60660000Y-80247000D01*
X60662000Y-80352000D01*
X60664000Y-80480000D01*
X60666000Y-80633000D01*
X60668000Y-80815000D01*
X60668000Y-80880000D01*
X60674000Y-81560000D01*
X60799000Y-81560000D01*
X60924000Y-81560000D01*
X60924000Y-80892000D01*
X60924000Y-80799000D01*
X60923000Y-80708000D01*
X60923000Y-80619000D01*
X60922000Y-80534000D01*
X60921000Y-80453000D01*
X60919000Y-80377000D01*
X60918000Y-80308000D01*
X60916000Y-80245000D01*
X60914000Y-80190000D01*
X60912000Y-80145000D01*
X60910000Y-80109000D01*
X60908000Y-80083000D01*
X60899000Y-80017000D01*
X60888000Y-79953000D01*
X60874000Y-79888000D01*
X60858000Y-79825000D01*
X60839000Y-79763000D01*
X60818000Y-79701000D01*
X60794000Y-79641000D01*
X60768000Y-79582000D01*
X60740000Y-79523000D01*
X60709000Y-79466000D01*
X60675000Y-79411000D01*
X60640000Y-79356000D01*
X60590000Y-79290000D01*
X60531000Y-79219000D01*
X60464000Y-79145000D01*
X60388000Y-79069000D01*
X60307000Y-78992000D01*
X60220000Y-78915000D01*
X60128000Y-78838000D01*
X60033000Y-78763000D01*
X59936000Y-78691000D01*
X59838000Y-78621000D01*
X59740000Y-78556000D01*
X59642000Y-78496000D01*
X59592000Y-78468000D01*
X59535000Y-78439000D01*
X59475000Y-78410000D01*
X59412000Y-78381000D01*
X59351000Y-78355000D01*
X59294000Y-78331000D01*
X59243000Y-78312000D01*
X59201000Y-78297000D01*
X59171000Y-78289000D01*
X59155000Y-78288000D01*
X58574000Y-78288000D01*
X58533000Y-78269000D01*
X58493000Y-78252000D01*
X58453000Y-78238000D01*
X58412000Y-78226000D01*
X58372000Y-78217000D01*
X58330000Y-78210000D01*
X58287000Y-78204000D01*
X58190000Y-78195000D01*
X56318000Y-78195000D01*
X56333000Y-78180000D01*
X56438000Y-78096000D01*
X56551000Y-78022000D01*
X56672000Y-77959000D01*
X56801000Y-77908000D01*
X56937000Y-77869000D01*
X57079000Y-77842000D01*
X57139000Y-77837000D01*
X57243000Y-77833000D01*
X57382000Y-77830000D01*
X57548000Y-77828000D01*
X57732000Y-77827000D01*
X57925000Y-77827000D01*
X58119000Y-77827000D01*
X58306000Y-77829000D01*
X58475000Y-77831000D01*
X58620000Y-77834000D01*
X58732000Y-77838000D01*
X58801000Y-77842000D01*
X58914000Y-77858000D01*
X59026000Y-77879000D01*
X59137000Y-77905000D01*
X59249000Y-77938000D01*
X59361000Y-77977000D01*
X59473000Y-78021000D01*
X59585000Y-78071000D01*
X59698000Y-78127000D01*
X59811000Y-78189000D01*
X59925000Y-78258000D01*
X60040000Y-78332000D01*
X60155000Y-78413000D01*
X60315000Y-78531000D01*
X60460000Y-78647000D01*
X60591000Y-78761000D01*
X60709000Y-78874000D01*
X60814000Y-78986000D01*
X60907000Y-79099000D01*
X60989000Y-79213000D01*
X61061000Y-79329000D01*
X61122000Y-79448000D01*
X61174000Y-79572000D01*
X61218000Y-79700000D01*
X61254000Y-79834000D01*
X61260000Y-79864000D01*
X61266000Y-79894000D01*
X61271000Y-79927000D01*
X61275000Y-79964000D01*
X61278000Y-80009000D01*
X61281000Y-80064000D01*
X61283000Y-80132000D01*
X61285000Y-80215000D01*
X61286000Y-80316000D01*
X61288000Y-80438000D01*
X61289000Y-80582000D01*
X61290000Y-80751000D01*
X61291000Y-80892000D01*
X61296000Y-81535000D01*
G37*
%TO.C,R21*%
D12*
X33410000Y-50925000D02*
X36020000Y-50925000D01*
X33410000Y-50925000D02*
G75*
G02*
X30670000Y-50925000I-1370000J0D01*
G01*
X30670000Y-50925000D02*
G75*
G02*
X33410000Y-50925000I1370000J0D01*
G01*
%TO.C,Q17*%
X21020000Y-66220000D02*
X17420000Y-66220000D01*
X16895816Y-66947205D02*
G75*
G02*
X17420000Y-66220000I2324184J-1122795D01*
G01*
X19220000Y-70670000D02*
G75*
G02*
X16863600Y-69168807I0J2600000D01*
G01*
X21020000Y-66220000D02*
G75*
G02*
X21544184Y-66947205I-1800000J-1850000D01*
G01*
X21576400Y-69168807D02*
G75*
G02*
X19220000Y-70670000I-2356400J1098807D01*
G01*
%TO.C,Q18*%
X25100000Y-22295000D02*
X28700000Y-22295000D01*
X24543600Y-19346193D02*
G75*
G02*
X26900000Y-17845000I2356400J-1098807D01*
G01*
X25100000Y-22295000D02*
G75*
G02*
X24575816Y-21567795I1800000J1850000D01*
G01*
X26900000Y-17845000D02*
G75*
G02*
X29256400Y-19346193I0J-2600000D01*
G01*
X29224184Y-21567795D02*
G75*
G02*
X28700000Y-22295000I-2324184J1122795D01*
G01*
%TO.C,R25*%
X41090000Y-37590000D02*
X43700000Y-37590000D01*
X41090000Y-37590000D02*
G75*
G02*
X38350000Y-37590000I-1370000J0D01*
G01*
X38350000Y-37590000D02*
G75*
G02*
X41090000Y-37590000I1370000J0D01*
G01*
%TO.C,Q19*%
X25100000Y-27375000D02*
X28700000Y-27375000D01*
X24543600Y-24426193D02*
G75*
G02*
X26900000Y-22925000I2356400J-1098807D01*
G01*
X25100000Y-27375000D02*
G75*
G02*
X24575816Y-26647795I1800000J1850000D01*
G01*
X26900000Y-22925000D02*
G75*
G02*
X29256400Y-24426193I0J-2600000D01*
G01*
X29224184Y-26647795D02*
G75*
G02*
X28700000Y-27375000I-2324184J1122795D01*
G01*
%TO.C,R7*%
X10370000Y-70610000D02*
X12980000Y-70610000D01*
X10370000Y-70610000D02*
G75*
G02*
X7630000Y-70610000I-1370000J0D01*
G01*
X7630000Y-70610000D02*
G75*
G02*
X10370000Y-70610000I1370000J0D01*
G01*
%TO.C,Q40*%
X40460000Y-48965000D02*
X44060000Y-48965000D01*
X39903600Y-46016193D02*
G75*
G02*
X42260000Y-44515000I2356400J-1098807D01*
G01*
X40460000Y-48965000D02*
G75*
G02*
X39935816Y-48237795I1800000J1850000D01*
G01*
X42260000Y-44515000D02*
G75*
G02*
X44616400Y-46016193I0J-2600000D01*
G01*
X44584184Y-48237795D02*
G75*
G02*
X44060000Y-48965000I-2324184J1122795D01*
G01*
%TO.C,Q9*%
X9740000Y-81985000D02*
X13340000Y-81985000D01*
X9183600Y-79036193D02*
G75*
G02*
X11540000Y-77535000I2356400J-1098807D01*
G01*
X9740000Y-81985000D02*
G75*
G02*
X9215816Y-81257795I1800000J1850000D01*
G01*
X11540000Y-77535000D02*
G75*
G02*
X13896400Y-79036193I0J-2600000D01*
G01*
X13864184Y-81257795D02*
G75*
G02*
X13340000Y-81985000I-2324184J1122795D01*
G01*
%TO.C,Q56*%
X55820000Y-59125000D02*
X59420000Y-59125000D01*
X55263600Y-56176193D02*
G75*
G02*
X57620000Y-54675000I2356400J-1098807D01*
G01*
X55820000Y-59125000D02*
G75*
G02*
X55295816Y-58397795I1800000J1850000D01*
G01*
X57620000Y-54675000D02*
G75*
G02*
X59976400Y-56176193I0J-2600000D01*
G01*
X59944184Y-58397795D02*
G75*
G02*
X59420000Y-59125000I-2324184J1122795D01*
G01*
%TO.C,Q2*%
X9740000Y-30550000D02*
X13340000Y-30550000D01*
X9183600Y-27601193D02*
G75*
G02*
X11540000Y-26100000I2356400J-1098807D01*
G01*
X9740000Y-30550000D02*
G75*
G02*
X9215816Y-29822795I1800000J1850000D01*
G01*
X11540000Y-26100000D02*
G75*
G02*
X13896400Y-27601193I0J-2600000D01*
G01*
X13864184Y-29822795D02*
G75*
G02*
X13340000Y-30550000I-2324184J1122795D01*
G01*
%TO.C,R5*%
X10370000Y-54100000D02*
X12980000Y-54100000D01*
X10370000Y-54100000D02*
G75*
G02*
X7630000Y-54100000I-1370000J0D01*
G01*
X7630000Y-54100000D02*
G75*
G02*
X10370000Y-54100000I1370000J0D01*
G01*
%TO.C,R23*%
X41090000Y-16000000D02*
X43700000Y-16000000D01*
X41090000Y-16000000D02*
G75*
G02*
X38350000Y-16000000I-1370000J0D01*
G01*
X38350000Y-16000000D02*
G75*
G02*
X41090000Y-16000000I1370000J0D01*
G01*
%TO.C,Q25*%
X25100000Y-70555000D02*
X28700000Y-70555000D01*
X24543600Y-67606193D02*
G75*
G02*
X26900000Y-66105000I2356400J-1098807D01*
G01*
X25100000Y-70555000D02*
G75*
G02*
X24575816Y-69827795I1800000J1850000D01*
G01*
X26900000Y-66105000D02*
G75*
G02*
X29256400Y-67606193I0J-2600000D01*
G01*
X29224184Y-69827795D02*
G75*
G02*
X28700000Y-70555000I-2324184J1122795D01*
G01*
%TO.C,Q34*%
X36380000Y-66220000D02*
X32780000Y-66220000D01*
X32255816Y-66947205D02*
G75*
G02*
X32780000Y-66220000I2324184J-1122795D01*
G01*
X34580000Y-70670000D02*
G75*
G02*
X32223600Y-69168807I0J2600000D01*
G01*
X36380000Y-66220000D02*
G75*
G02*
X36904184Y-66947205I-1800000J-1850000D01*
G01*
X36936400Y-69168807D02*
G75*
G02*
X34580000Y-70670000I-2356400J1098807D01*
G01*
%TO.C,R34*%
X48770000Y-75690000D02*
X51380000Y-75690000D01*
X48770000Y-75690000D02*
G75*
G02*
X46030000Y-75690000I-1370000J0D01*
G01*
X46030000Y-75690000D02*
G75*
G02*
X48770000Y-75690000I1370000J0D01*
G01*
%TO.C,Q8*%
X9740000Y-76905000D02*
X13340000Y-76905000D01*
X9183600Y-73956193D02*
G75*
G02*
X11540000Y-72455000I2356400J-1098807D01*
G01*
X9740000Y-76905000D02*
G75*
G02*
X9215816Y-76177795I1800000J1850000D01*
G01*
X11540000Y-72455000D02*
G75*
G02*
X13896400Y-73956193I0J-2600000D01*
G01*
X13864184Y-76177795D02*
G75*
G02*
X13340000Y-76905000I-2324184J1122795D01*
G01*
%TO.C,R10*%
X18050000Y-32510000D02*
X20660000Y-32510000D01*
X18050000Y-32510000D02*
G75*
G02*
X15310000Y-32510000I-1370000J0D01*
G01*
X15310000Y-32510000D02*
G75*
G02*
X18050000Y-32510000I1370000J0D01*
G01*
%TO.C,Q43*%
X40460000Y-70555000D02*
X44060000Y-70555000D01*
X39903600Y-67606193D02*
G75*
G02*
X42260000Y-66105000I2356400J-1098807D01*
G01*
X40460000Y-70555000D02*
G75*
G02*
X39935816Y-69827795I1800000J1850000D01*
G01*
X42260000Y-66105000D02*
G75*
G02*
X44616400Y-67606193I0J-2600000D01*
G01*
X44584184Y-69827795D02*
G75*
G02*
X44060000Y-70555000I-2324184J1122795D01*
G01*
%TO.C,J2*%
X34790000Y-89170000D02*
X57910000Y-89170000D01*
X34790000Y-98290000D02*
X34790000Y-89170000D01*
X36090000Y-90480000D02*
X56610000Y-90480000D01*
X36090000Y-96980000D02*
X36090000Y-90480000D01*
X39500000Y-99680000D02*
X40500000Y-99680000D01*
X40000000Y-98680000D02*
X39500000Y-99680000D01*
X40500000Y-99680000D02*
X40000000Y-98680000D01*
X44300000Y-96980000D02*
X36090000Y-96980000D01*
X44300000Y-98290000D02*
X44300000Y-96980000D01*
X48400000Y-96980000D02*
X48400000Y-98290000D01*
X56610000Y-90480000D02*
X56610000Y-96980000D01*
X56610000Y-96980000D02*
X48400000Y-96980000D01*
X57910000Y-89170000D02*
X57910000Y-98290000D01*
X57910000Y-98290000D02*
X34790000Y-98290000D01*
%TO.C,Q27*%
X36380000Y-17960000D02*
X32780000Y-17960000D01*
X32255816Y-18687205D02*
G75*
G02*
X32780000Y-17960000I2324184J-1122795D01*
G01*
X34580000Y-22410000D02*
G75*
G02*
X32223600Y-20908807I0J2600000D01*
G01*
X36380000Y-17960000D02*
G75*
G02*
X36904184Y-18687205I-1800000J-1850000D01*
G01*
X36936400Y-20908807D02*
G75*
G02*
X34580000Y-22410000I-2356400J1098807D01*
G01*
%TO.C,D2*%
X56384000Y-37880000D02*
X56540000Y-37880000D01*
X58700000Y-37880000D02*
X58856000Y-37880000D01*
X56384484Y-37880000D02*
G75*
G02*
X56540000Y-34648563I1235516J1560000D01*
G01*
X56540000Y-37360961D02*
G75*
G02*
X56540000Y-35279039I1080000J1040961D01*
G01*
X58700000Y-34648563D02*
G75*
G02*
X58855516Y-37880000I-1080000J-1671437D01*
G01*
X58700000Y-35279039D02*
G75*
G02*
X58700000Y-37360961I-1080000J-1040961D01*
G01*
%TO.C,Q51*%
X51740000Y-64315000D02*
X48140000Y-64315000D01*
X47615816Y-65042205D02*
G75*
G02*
X48140000Y-64315000I2324184J-1122795D01*
G01*
X49940000Y-68765000D02*
G75*
G02*
X47583600Y-67263807I0J2600000D01*
G01*
X51740000Y-64315000D02*
G75*
G02*
X52264184Y-65042205I-1800000J-1850000D01*
G01*
X52296400Y-67263807D02*
G75*
G02*
X49940000Y-68765000I-2356400J1098807D01*
G01*
%TO.C,Q3*%
X9740000Y-35630000D02*
X13340000Y-35630000D01*
X9183600Y-32681193D02*
G75*
G02*
X11540000Y-31180000I2356400J-1098807D01*
G01*
X9740000Y-35630000D02*
G75*
G02*
X9215816Y-34902795I1800000J1850000D01*
G01*
X11540000Y-31180000D02*
G75*
G02*
X13896400Y-32681193I0J-2600000D01*
G01*
X13864184Y-34902795D02*
G75*
G02*
X13340000Y-35630000I-2324184J1122795D01*
G01*
%TO.C,Q54*%
X55820000Y-28645000D02*
X59420000Y-28645000D01*
X55263600Y-25696193D02*
G75*
G02*
X57620000Y-24195000I2356400J-1098807D01*
G01*
X55820000Y-28645000D02*
G75*
G02*
X55295816Y-27917795I1800000J1850000D01*
G01*
X57620000Y-24195000D02*
G75*
G02*
X59976400Y-25696193I0J-2600000D01*
G01*
X59944184Y-27917795D02*
G75*
G02*
X59420000Y-28645000I-2324184J1122795D01*
G01*
%TO.C,Q29*%
X36380000Y-31295000D02*
X32780000Y-31295000D01*
X32255816Y-32022205D02*
G75*
G02*
X32780000Y-31295000I2324184J-1122795D01*
G01*
X34580000Y-35745000D02*
G75*
G02*
X32223600Y-34243807I0J2600000D01*
G01*
X36380000Y-31295000D02*
G75*
G02*
X36904184Y-32022205I-1800000J-1850000D01*
G01*
X36936400Y-34243807D02*
G75*
G02*
X34580000Y-35745000I-2356400J1098807D01*
G01*
%TO.C,R13*%
X25730000Y-16000000D02*
X28340000Y-16000000D01*
X25730000Y-16000000D02*
G75*
G02*
X22990000Y-16000000I-1370000J0D01*
G01*
X22990000Y-16000000D02*
G75*
G02*
X25730000Y-16000000I1370000J0D01*
G01*
%TO.C,Q41*%
X40460000Y-57220000D02*
X44060000Y-57220000D01*
X39903600Y-54271193D02*
G75*
G02*
X42260000Y-52770000I2356400J-1098807D01*
G01*
X40460000Y-57220000D02*
G75*
G02*
X39935816Y-56492795I1800000J1850000D01*
G01*
X42260000Y-52770000D02*
G75*
G02*
X44616400Y-54271193I0J-2600000D01*
G01*
X44584184Y-56492795D02*
G75*
G02*
X44060000Y-57220000I-2324184J1122795D01*
G01*
%TO.C,R30*%
X48770000Y-37590000D02*
X51380000Y-37590000D01*
X48770000Y-37590000D02*
G75*
G02*
X46030000Y-37590000I-1370000J0D01*
G01*
X46030000Y-37590000D02*
G75*
G02*
X48770000Y-37590000I1370000J0D01*
G01*
%TO.C,D1*%
X56384000Y-22640000D02*
X56540000Y-22640000D01*
X58700000Y-22640000D02*
X58856000Y-22640000D01*
X56384484Y-22640000D02*
G75*
G02*
X56540000Y-19408563I1235516J1560000D01*
G01*
X56540000Y-22120961D02*
G75*
G02*
X56540000Y-20039039I1080000J1040961D01*
G01*
X58700000Y-19408563D02*
G75*
G02*
X58855516Y-22640000I-1080000J-1671437D01*
G01*
X58700000Y-20039039D02*
G75*
G02*
X58700000Y-22120961I-1080000J-1040961D01*
G01*
%TO.C,Q6*%
X9740000Y-60395000D02*
X13340000Y-60395000D01*
X9183600Y-57446193D02*
G75*
G02*
X11540000Y-55945000I2356400J-1098807D01*
G01*
X9740000Y-60395000D02*
G75*
G02*
X9215816Y-59667795I1800000J1850000D01*
G01*
X11540000Y-55945000D02*
G75*
G02*
X13896400Y-57446193I0J-2600000D01*
G01*
X13864184Y-59667795D02*
G75*
G02*
X13340000Y-60395000I-2324184J1122795D01*
G01*
%TO.C,Q33*%
X36380000Y-57965000D02*
X32780000Y-57965000D01*
X32255816Y-58692205D02*
G75*
G02*
X32780000Y-57965000I2324184J-1122795D01*
G01*
X34580000Y-62415000D02*
G75*
G02*
X32223600Y-60913807I0J2600000D01*
G01*
X36380000Y-57965000D02*
G75*
G02*
X36904184Y-58692205I-1800000J-1850000D01*
G01*
X36936400Y-60913807D02*
G75*
G02*
X34580000Y-62415000I-2356400J1098807D01*
G01*
%TO.C,Q48*%
X51740000Y-39550000D02*
X48140000Y-39550000D01*
X47615816Y-40277205D02*
G75*
G02*
X48140000Y-39550000I2324184J-1122795D01*
G01*
X49940000Y-44000000D02*
G75*
G02*
X47583600Y-42498807I0J2600000D01*
G01*
X51740000Y-39550000D02*
G75*
G02*
X52264184Y-40277205I-1800000J-1850000D01*
G01*
X52296400Y-42498807D02*
G75*
G02*
X49940000Y-44000000I-2356400J1098807D01*
G01*
%TD*%
M02*
