%TF.GenerationSoftware,KiCad,Pcbnew,10.0.5*%
%TF.CreationDate,2026-09-11T05:06:30-04:00*%
%TF.ProjectId,reg0,72656730-2e6b-4696-9361-645f70636258,rev?*%
%TF.SameCoordinates,Original*%
%TF.FileFunction,Copper,L1,Top*%
%TF.FilePolarity,Positive*%
%FSLAX46Y46*%
G04 Gerber Fmt 4.6, Leading zero omitted, Abs format (unit mm)*
G04 Created by KiCad (PCBNEW 10.0.5) date 2026-09-11 05:06:30*
%MOMM*%
%LPD*%
G01*
G04 APERTURE LIST*
G04 Aperture macros list*
%AMRoundRect*
0 Rectangle with rounded corners*
0 $1 Rounding radius*
0 $2 $3 $4 $5 $6 $7 $8 $9 X,Y pos of 4 corners*
0 Add a 4 corners polygon primitive as box body*
4,1,4,$2,$3,$4,$5,$6,$7,$8,$9,$2,$3,0*
0 Add four circle primitives for the rounded corners*
1,1,$1+$1,$2,$3*
1,1,$1+$1,$4,$5*
1,1,$1+$1,$6,$7*
1,1,$1+$1,$8,$9*
0 Add four rect primitives between the rounded corners*
20,1,$1+$1,$2,$3,$4,$5,0*
20,1,$1+$1,$4,$5,$6,$7,0*
20,1,$1+$1,$6,$7,$8,$9,0*
20,1,$1+$1,$8,$9,$2,$3,0*%
G04 Aperture macros list end*
%TA.AperFunction,ComponentPad*%
%ADD10R,1.500000X1.500000*%
%TD*%
%TA.AperFunction,ComponentPad*%
%ADD11C,1.500000*%
%TD*%
%TA.AperFunction,ComponentPad*%
%ADD12C,1.600000*%
%TD*%
%TA.AperFunction,ComponentPad*%
%ADD13R,1.800000X1.800000*%
%TD*%
%TA.AperFunction,ComponentPad*%
%ADD14C,1.800000*%
%TD*%
%TA.AperFunction,ComponentPad*%
%ADD15RoundRect,0.250000X0.600000X-0.600000X0.600000X0.600000X-0.600000X0.600000X-0.600000X-0.600000X0*%
%TD*%
%TA.AperFunction,ComponentPad*%
%ADD16C,1.700000*%
%TD*%
%TA.AperFunction,ComponentPad*%
%ADD17C,6.400000*%
%TD*%
%TA.AperFunction,ComponentPad*%
%ADD18RoundRect,0.250000X-0.550000X0.550000X-0.550000X-0.550000X0.550000X-0.550000X0.550000X0.550000X0*%
%TD*%
%TA.AperFunction,ViaPad*%
%ADD19C,0.800000*%
%TD*%
%TA.AperFunction,Conductor*%
%ADD20C,0.500000*%
%TD*%
%TA.AperFunction,Conductor*%
%ADD21C,0.800000*%
%TD*%
%TA.AperFunction,Conductor*%
%ADD22C,0.200000*%
%TD*%
G04 APERTURE END LIST*
D10*
%TO.P,Q49,1*%
%TO.N,GND*%
X39720000Y-52195000D03*
D11*
%TO.P,Q49,2*%
%TO.N,PH1*%
X42260000Y-52195000D03*
%TO.P,Q49,3*%
%TO.N,Net-(Q48-S)*%
X44800000Y-52195000D03*
%TD*%
D12*
%TO.P,R12,1*%
%TO.N,+5V*%
X16680000Y-82675000D03*
%TO.P,R12,2*%
%TO.N,A0_m2*%
X21760000Y-82675000D03*
%TD*%
D10*
%TO.P,Q11,1*%
%TO.N,Net-(Q11-S)*%
X21760000Y-19810000D03*
D11*
%TO.P,Q11,2*%
%TO.N,AB*%
X19220000Y-19810000D03*
%TO.P,Q11,3*%
%TO.N,DA0_2*%
X16680000Y-19810000D03*
%TD*%
D10*
%TO.P,Q26,1*%
%TO.N,GND*%
X24360000Y-38860000D03*
D11*
%TO.P,Q26,2*%
%TO.N,A0_m2*%
X26900000Y-38860000D03*
%TO.P,Q26,3*%
%TO.N,Net-(Q25-S)*%
X29440000Y-38860000D03*
%TD*%
D10*
%TO.P,Q77,1*%
%TO.N,Net-(Q77-S)*%
X67840000Y-19810000D03*
D11*
%TO.P,Q77,2*%
%TO.N,OUT0_m1*%
X65300000Y-19810000D03*
%TO.P,Q77,3*%
%TO.N,OUT0_mq*%
X62760000Y-19810000D03*
%TD*%
D10*
%TO.P,Q79,1*%
%TO.N,Net-(Q79-S)*%
X67840000Y-33145000D03*
D11*
%TO.P,Q79,2*%
%TO.N,OUT0_mq*%
X65300000Y-33145000D03*
%TO.P,Q79,3*%
%TO.N,OUT0_mqn*%
X62760000Y-33145000D03*
%TD*%
D12*
%TO.P,R5,1*%
%TO.N,HOLDA*%
X9000000Y-59180000D03*
%TO.P,R5,2*%
%TO.N,+5V*%
X14080000Y-59180000D03*
%TD*%
D10*
%TO.P,Q62,1*%
%TO.N,GND*%
X52480000Y-59815000D03*
D11*
%TO.P,Q62,2*%
%TO.N,B0_qn*%
X49940000Y-59815000D03*
%TO.P,Q62,3*%
%TO.N,Net-(Q61-S)*%
X47400000Y-59815000D03*
%TD*%
D12*
%TO.P,R17,1*%
%TO.N,A0_sb*%
X24360000Y-64260000D03*
%TO.P,R17,2*%
%TO.N,+5V*%
X29440000Y-64260000D03*
%TD*%
D10*
%TO.P,Q57,1*%
%TO.N,Net-(Q57-S)*%
X52480000Y-28065000D03*
D11*
%TO.P,Q57,2*%
%TO.N,B0_mq*%
X49940000Y-28065000D03*
%TO.P,Q57,3*%
%TO.N,B0_sa*%
X47400000Y-28065000D03*
%TD*%
D12*
%TO.P,R9,1*%
%TO.N,+5V*%
X16680000Y-42670000D03*
%TO.P,R9,2*%
%TO.N,DA0*%
X21760000Y-42670000D03*
%TD*%
D10*
%TO.P,Q53,1*%
%TO.N,GND*%
X39720000Y-78865000D03*
D11*
%TO.P,Q53,2*%
%TO.N,B0_mqn*%
X42260000Y-78865000D03*
%TO.P,Q53,3*%
%TO.N,Net-(Q52-S)*%
X44800000Y-78865000D03*
%TD*%
D12*
%TO.P,R19,1*%
%TO.N,+5V*%
X32040000Y-16000000D03*
%TO.P,R19,2*%
%TO.N,A0_qn*%
X37120000Y-16000000D03*
%TD*%
D13*
%TO.P,D1,1*%
%TO.N,Net-(D1-K)*%
X72980000Y-80770000D03*
D14*
%TO.P,D1,2*%
%TO.N,Net-(D1-A)*%
X72980000Y-78230000D03*
%TD*%
D10*
%TO.P,Q88,1*%
%TO.N,Net-(Q88-S)*%
X70440000Y-20445000D03*
D11*
%TO.P,Q88,2*%
%TO.N,OUT0*%
X72980000Y-20445000D03*
%TO.P,Q88,3*%
%TO.N,OUT0_qn*%
X75520000Y-20445000D03*
%TD*%
D10*
%TO.P,Q32,1*%
%TO.N,Net-(Q32-S)*%
X24360000Y-82040000D03*
D11*
%TO.P,Q32,2*%
%TO.N,A0_sa*%
X26900000Y-82040000D03*
%TO.P,Q32,3*%
%TO.N,A0*%
X29440000Y-82040000D03*
%TD*%
D10*
%TO.P,Q42,1*%
%TO.N,Net-(Q42-S)*%
X37120000Y-73150000D03*
D11*
%TO.P,Q42,2*%
%TO.N,HOLDB*%
X34580000Y-73150000D03*
%TO.P,Q42,3*%
%TO.N,DB0_3*%
X32040000Y-73150000D03*
%TD*%
D10*
%TO.P,Q22,1*%
%TO.N,GND*%
X21760000Y-91565000D03*
D11*
%TO.P,Q22,2*%
%TO.N,A0_dn*%
X19220000Y-91565000D03*
%TO.P,Q22,3*%
%TO.N,Net-(Q21-S)*%
X16680000Y-91565000D03*
%TD*%
D10*
%TO.P,Q3,1*%
%TO.N,GND*%
X9000000Y-33780000D03*
D11*
%TO.P,Q3,2*%
%TO.N,PH2*%
X11540000Y-33780000D03*
%TO.P,Q3,3*%
%TO.N,PH1*%
X14080000Y-33780000D03*
%TD*%
D10*
%TO.P,Q80,1*%
%TO.N,GND*%
X67840000Y-38225000D03*
D11*
%TO.P,Q80,2*%
%TO.N,OUT0_m2*%
X65300000Y-38225000D03*
%TO.P,Q80,3*%
%TO.N,Net-(Q79-S)*%
X62760000Y-38225000D03*
%TD*%
D12*
%TO.P,R51,1*%
%TO.N,BD0*%
X70440000Y-56005000D03*
%TO.P,R51,2*%
%TO.N,+5V*%
X75520000Y-56005000D03*
%TD*%
%TO.P,R20,1*%
%TO.N,+5V*%
X32040000Y-29335000D03*
%TO.P,R20,2*%
%TO.N,HOLDB*%
X37120000Y-29335000D03*
%TD*%
%TO.P,R46,1*%
%TO.N,+5V*%
X62760000Y-64260000D03*
%TO.P,R46,2*%
%TO.N,OUT0_sb*%
X67840000Y-64260000D03*
%TD*%
D10*
%TO.P,Q89,1*%
%TO.N,GND*%
X70440000Y-25525000D03*
D11*
%TO.P,Q89,2*%
%TO.N,OUT0_sb*%
X72980000Y-25525000D03*
%TO.P,Q89,3*%
%TO.N,Net-(Q88-S)*%
X75520000Y-25525000D03*
%TD*%
D10*
%TO.P,Q59,1*%
%TO.N,Net-(Q59-S)*%
X52480000Y-41400000D03*
D11*
%TO.P,Q59,2*%
%TO.N,PH2*%
X49940000Y-41400000D03*
%TO.P,Q59,3*%
%TO.N,B0_sb*%
X47400000Y-41400000D03*
%TD*%
D10*
%TO.P,Q4,1*%
%TO.N,GND*%
X9000000Y-42035000D03*
D11*
%TO.P,Q4,2*%
%TO.N,CLKN*%
X11540000Y-42035000D03*
%TO.P,Q4,3*%
%TO.N,PH2*%
X14080000Y-42035000D03*
%TD*%
D10*
%TO.P,Q72,1*%
%TO.N,GND*%
X55080000Y-60450000D03*
D11*
%TO.P,Q72,2*%
%TO.N,DO0*%
X57620000Y-60450000D03*
%TO.P,Q72,3*%
%TO.N,OUT0_dn*%
X60160000Y-60450000D03*
%TD*%
D15*
%TO.P,J1,1*%
%TO.N,+5V*%
X10630000Y-7500000D03*
D16*
%TO.P,J1,2*%
X10630000Y-4960000D03*
%TO.P,J1,3*%
%TO.N,GND*%
X13170000Y-7500000D03*
%TO.P,J1,4*%
X13170000Y-4960000D03*
%TO.P,J1,5*%
%TO.N,CLK*%
X15710000Y-7500000D03*
%TO.P,J1,6*%
%TO.N,GND*%
X15710000Y-4960000D03*
%TO.P,J1,7*%
%TO.N,unconnected-(J1-Pin_7-Pad7)*%
X18250000Y-7500000D03*
%TO.P,J1,8*%
%TO.N,GND*%
X18250000Y-4960000D03*
%TO.P,J1,9*%
%TO.N,BUS0#*%
X20790000Y-7500000D03*
%TO.P,J1,10*%
%TO.N,unconnected-(J1-Pin_10-Pad10)*%
X20790000Y-4960000D03*
%TO.P,J1,11*%
%TO.N,unconnected-(J1-Pin_11-Pad11)*%
X23330000Y-7500000D03*
%TO.P,J1,12*%
%TO.N,unconnected-(J1-Pin_12-Pad12)*%
X23330000Y-4960000D03*
%TO.P,J1,13*%
%TO.N,A0*%
X25870000Y-7500000D03*
%TO.P,J1,14*%
%TO.N,unconnected-(J1-Pin_14-Pad14)*%
X25870000Y-4960000D03*
%TO.P,J1,15*%
%TO.N,unconnected-(J1-Pin_15-Pad15)*%
X28410000Y-7500000D03*
%TO.P,J1,16*%
%TO.N,unconnected-(J1-Pin_16-Pad16)*%
X28410000Y-4960000D03*
%TO.P,J1,17*%
%TO.N,B0*%
X30950000Y-7500000D03*
%TO.P,J1,18*%
%TO.N,unconnected-(J1-Pin_18-Pad18)*%
X30950000Y-4960000D03*
%TO.P,J1,19*%
%TO.N,unconnected-(J1-Pin_19-Pad19)*%
X33490000Y-7500000D03*
%TO.P,J1,20*%
%TO.N,unconnected-(J1-Pin_20-Pad20)*%
X33490000Y-4960000D03*
%TO.P,J1,21*%
%TO.N,unconnected-(J1-Pin_21-Pad21)*%
X36030000Y-7500000D03*
%TO.P,J1,22*%
%TO.N,unconnected-(J1-Pin_22-Pad22)*%
X36030000Y-4960000D03*
%TO.P,J1,23*%
%TO.N,unconnected-(J1-Pin_23-Pad23)*%
X38570000Y-7500000D03*
%TO.P,J1,24*%
%TO.N,unconnected-(J1-Pin_24-Pad24)*%
X38570000Y-4960000D03*
%TO.P,J1,25*%
%TO.N,unconnected-(J1-Pin_25-Pad25)*%
X41110000Y-7500000D03*
%TO.P,J1,26*%
%TO.N,unconnected-(J1-Pin_26-Pad26)*%
X41110000Y-4960000D03*
%TO.P,J1,27*%
%TO.N,unconnected-(J1-Pin_27-Pad27)*%
X43650000Y-7500000D03*
%TO.P,J1,28*%
%TO.N,unconnected-(J1-Pin_28-Pad28)*%
X43650000Y-4960000D03*
%TO.P,J1,29*%
%TO.N,unconnected-(J1-Pin_29-Pad29)*%
X46190000Y-7500000D03*
%TO.P,J1,30*%
%TO.N,unconnected-(J1-Pin_30-Pad30)*%
X46190000Y-4960000D03*
%TO.P,J1,31*%
%TO.N,unconnected-(J1-Pin_31-Pad31)*%
X48730000Y-7500000D03*
%TO.P,J1,32*%
%TO.N,unconnected-(J1-Pin_32-Pad32)*%
X48730000Y-4960000D03*
%TO.P,J1,33*%
%TO.N,unconnected-(J1-Pin_33-Pad33)*%
X51270000Y-7500000D03*
%TO.P,J1,34*%
%TO.N,unconnected-(J1-Pin_34-Pad34)*%
X51270000Y-4960000D03*
%TO.P,J1,35*%
%TO.N,unconnected-(J1-Pin_35-Pad35)*%
X53810000Y-7500000D03*
%TO.P,J1,36*%
%TO.N,unconnected-(J1-Pin_36-Pad36)*%
X53810000Y-4960000D03*
%TO.P,J1,37*%
%TO.N,unconnected-(J1-Pin_37-Pad37)*%
X56350000Y-7500000D03*
%TO.P,J1,38*%
%TO.N,unconnected-(J1-Pin_38-Pad38)*%
X56350000Y-4960000D03*
%TO.P,J1,39*%
%TO.N,unconnected-(J1-Pin_39-Pad39)*%
X58890000Y-7500000D03*
%TO.P,J1,40*%
%TO.N,unconnected-(J1-Pin_40-Pad40)*%
X58890000Y-4960000D03*
%TO.P,J1,41*%
%TO.N,AI*%
X61430000Y-7500000D03*
%TO.P,J1,42*%
%TO.N,AO*%
X61430000Y-4960000D03*
%TO.P,J1,43*%
%TO.N,BI*%
X63970000Y-7500000D03*
%TO.P,J1,44*%
%TO.N,BO*%
X63970000Y-4960000D03*
%TO.P,J1,45*%
%TO.N,BA*%
X66510000Y-7500000D03*
%TO.P,J1,46*%
%TO.N,AB*%
X66510000Y-4960000D03*
%TO.P,J1,47*%
%TO.N,OI*%
X69050000Y-7500000D03*
%TO.P,J1,48*%
%TO.N,unconnected-(J1-Pin_48-Pad48)*%
X69050000Y-4960000D03*
%TO.P,J1,49*%
%TO.N,unconnected-(J1-Pin_49-Pad49)*%
X71590000Y-7500000D03*
%TO.P,J1,50*%
%TO.N,unconnected-(J1-Pin_50-Pad50)*%
X71590000Y-4960000D03*
%TO.P,J1,51*%
%TO.N,unconnected-(J1-Pin_51-Pad51)*%
X74130000Y-7500000D03*
%TO.P,J1,52*%
%TO.N,unconnected-(J1-Pin_52-Pad52)*%
X74130000Y-4960000D03*
%TO.P,J1,53*%
%TO.N,unconnected-(J1-Pin_53-Pad53)*%
X76670000Y-7500000D03*
%TO.P,J1,54*%
%TO.N,unconnected-(J1-Pin_54-Pad54)*%
X76670000Y-4960000D03*
%TO.P,J1,55*%
%TO.N,unconnected-(J1-Pin_55-Pad55)*%
X79210000Y-7500000D03*
%TO.P,J1,56*%
%TO.N,unconnected-(J1-Pin_56-Pad56)*%
X79210000Y-4960000D03*
%TO.P,J1,57*%
%TO.N,unconnected-(J1-Pin_57-Pad57)*%
X81750000Y-7500000D03*
%TO.P,J1,58*%
%TO.N,unconnected-(J1-Pin_58-Pad58)*%
X81750000Y-4960000D03*
%TO.P,J1,59*%
%TO.N,unconnected-(J1-Pin_59-Pad59)*%
X84290000Y-7500000D03*
%TO.P,J1,60*%
%TO.N,unconnected-(J1-Pin_60-Pad60)*%
X84290000Y-4960000D03*
%TO.P,J1,61*%
%TO.N,unconnected-(J1-Pin_61-Pad61)*%
X86830000Y-7500000D03*
%TO.P,J1,62*%
%TO.N,unconnected-(J1-Pin_62-Pad62)*%
X86830000Y-4960000D03*
%TO.P,J1,63*%
%TO.N,+5V*%
X89370000Y-7500000D03*
%TO.P,J1,64*%
%TO.N,GND*%
X89370000Y-4960000D03*
%TD*%
D12*
%TO.P,R53,1*%
%TO.N,+5V*%
X78120000Y-16000000D03*
%TO.P,R53,2*%
%TO.N,Net-(D2-A)*%
X83200000Y-16000000D03*
%TD*%
D17*
%TO.P,H2,1*%
%TO.N,N/C*%
X96000000Y-50000000D03*
%TD*%
D10*
%TO.P,Q56,1*%
%TO.N,GND*%
X52480000Y-19810000D03*
D11*
%TO.P,Q56,2*%
%TO.N,B0_mq*%
X49940000Y-19810000D03*
%TO.P,Q56,3*%
%TO.N,B0_mqi*%
X47400000Y-19810000D03*
%TD*%
D10*
%TO.P,Q95,1*%
%TO.N,GND*%
X70440000Y-65530000D03*
D11*
%TO.P,Q95,2*%
%TO.N,BON0*%
X72980000Y-65530000D03*
%TO.P,Q95,3*%
%TO.N,Net-(Q94-S)*%
X75520000Y-65530000D03*
%TD*%
D10*
%TO.P,Q39,1*%
%TO.N,GND*%
X37120000Y-51560000D03*
D11*
%TO.P,Q39,2*%
%TO.N,D0*%
X34580000Y-51560000D03*
%TO.P,Q39,3*%
%TO.N,Net-(Q38-S)*%
X32040000Y-51560000D03*
%TD*%
D10*
%TO.P,Q36,1*%
%TO.N,GND*%
X37120000Y-33145000D03*
D11*
%TO.P,Q36,2*%
%TO.N,BI*%
X34580000Y-33145000D03*
%TO.P,Q36,3*%
%TO.N,HOLDB*%
X32040000Y-33145000D03*
%TD*%
D10*
%TO.P,Q14,1*%
%TO.N,GND*%
X21760000Y-38225000D03*
D11*
%TO.P,Q14,2*%
%TO.N,A0*%
X19220000Y-38225000D03*
%TO.P,Q14,3*%
%TO.N,Net-(Q13-S)*%
X16680000Y-38225000D03*
%TD*%
D10*
%TO.P,Q12,1*%
%TO.N,GND*%
X21760000Y-24890000D03*
D11*
%TO.P,Q12,2*%
%TO.N,B0*%
X19220000Y-24890000D03*
%TO.P,Q12,3*%
%TO.N,Net-(Q11-S)*%
X16680000Y-24890000D03*
%TD*%
D10*
%TO.P,Q93,1*%
%TO.N,GND*%
X70440000Y-52195000D03*
D11*
%TO.P,Q93,2*%
%TO.N,B0*%
X72980000Y-52195000D03*
%TO.P,Q93,3*%
%TO.N,Net-(Q92-S)*%
X75520000Y-52195000D03*
%TD*%
D10*
%TO.P,Q19,1*%
%TO.N,Net-(Q19-S)*%
X21760000Y-73150000D03*
D11*
%TO.P,Q19,2*%
%TO.N,DA0*%
X19220000Y-73150000D03*
%TO.P,Q19,3*%
%TO.N,A0_m1*%
X16680000Y-73150000D03*
%TD*%
D12*
%TO.P,R33,1*%
%TO.N,+5V*%
X47400000Y-50925000D03*
%TO.P,R33,2*%
%TO.N,B0*%
X52480000Y-50925000D03*
%TD*%
D10*
%TO.P,Q54,1*%
%TO.N,Net-(Q54-S)*%
X39720000Y-87120000D03*
D11*
%TO.P,Q54,2*%
%TO.N,B0_mq*%
X42260000Y-87120000D03*
%TO.P,Q54,3*%
%TO.N,B0_mqn*%
X44800000Y-87120000D03*
%TD*%
D10*
%TO.P,Q18,1*%
%TO.N,GND*%
X21760000Y-64895000D03*
D11*
%TO.P,Q18,2*%
%TO.N,DA0*%
X19220000Y-64895000D03*
%TO.P,Q18,3*%
%TO.N,A0_dn*%
X16680000Y-64895000D03*
%TD*%
D10*
%TO.P,Q63,1*%
%TO.N,Net-(Q63-S)*%
X52480000Y-68070000D03*
D11*
%TO.P,Q63,2*%
%TO.N,B0*%
X49940000Y-68070000D03*
%TO.P,Q63,3*%
%TO.N,B0_qn*%
X47400000Y-68070000D03*
%TD*%
D10*
%TO.P,Q27,1*%
%TO.N,GND*%
X24360000Y-47115000D03*
D11*
%TO.P,Q27,2*%
%TO.N,A0_mq*%
X26900000Y-47115000D03*
%TO.P,Q27,3*%
%TO.N,A0_mqi*%
X29440000Y-47115000D03*
%TD*%
D12*
%TO.P,R37,1*%
%TO.N,DO0_2*%
X55080000Y-29335000D03*
%TO.P,R37,2*%
%TO.N,+5V*%
X60160000Y-29335000D03*
%TD*%
%TO.P,R13,1*%
%TO.N,A0_mq*%
X24360000Y-16000000D03*
%TO.P,R13,2*%
%TO.N,+5V*%
X29440000Y-16000000D03*
%TD*%
%TO.P,R8,1*%
%TO.N,+5V*%
X16680000Y-29335000D03*
%TO.P,R8,2*%
%TO.N,DA0_3*%
X21760000Y-29335000D03*
%TD*%
%TO.P,R24,1*%
%TO.N,DB0*%
X39720000Y-16000000D03*
%TO.P,R24,2*%
%TO.N,+5V*%
X44800000Y-16000000D03*
%TD*%
D10*
%TO.P,Q30,1*%
%TO.N,Net-(Q30-S)*%
X24360000Y-68705000D03*
D11*
%TO.P,Q30,2*%
%TO.N,PH2*%
X26900000Y-68705000D03*
%TO.P,Q30,3*%
%TO.N,A0_sb*%
X29440000Y-68705000D03*
%TD*%
D10*
%TO.P,Q29,1*%
%TO.N,GND*%
X24360000Y-60450000D03*
D11*
%TO.P,Q29,2*%
%TO.N,PH2*%
X26900000Y-60450000D03*
%TO.P,Q29,3*%
%TO.N,Net-(Q28-S)*%
X29440000Y-60450000D03*
%TD*%
D12*
%TO.P,R4,1*%
%TO.N,D0*%
X9000000Y-50925000D03*
%TO.P,R4,2*%
%TO.N,+5V*%
X14080000Y-50925000D03*
%TD*%
D10*
%TO.P,Q15,1*%
%TO.N,Net-(Q15-S)*%
X21760000Y-46480000D03*
D11*
%TO.P,Q15,2*%
%TO.N,DA0_1*%
X19220000Y-46480000D03*
%TO.P,Q15,3*%
%TO.N,DA0*%
X16680000Y-46480000D03*
%TD*%
D12*
%TO.P,R45,1*%
%TO.N,+5V*%
X62760000Y-50925000D03*
%TO.P,R45,2*%
%TO.N,OUT0_sa*%
X67840000Y-50925000D03*
%TD*%
%TO.P,R16,1*%
%TO.N,A0_sa*%
X24360000Y-50925000D03*
%TO.P,R16,2*%
%TO.N,+5V*%
X29440000Y-50925000D03*
%TD*%
D10*
%TO.P,Q96,1*%
%TO.N,GND*%
X70440000Y-70610000D03*
D11*
%TO.P,Q96,2*%
%TO.N,BD0*%
X72980000Y-70610000D03*
%TO.P,Q96,3*%
%TO.N,BUS0#*%
X75520000Y-70610000D03*
%TD*%
D10*
%TO.P,Q94,1*%
%TO.N,Net-(Q94-S)*%
X70440000Y-60450000D03*
D11*
%TO.P,Q94,2*%
%TO.N,AON0*%
X72980000Y-60450000D03*
%TO.P,Q94,3*%
%TO.N,BD0*%
X75520000Y-60450000D03*
%TD*%
D12*
%TO.P,R47,1*%
%TO.N,+5V*%
X62760000Y-77595000D03*
%TO.P,R47,2*%
%TO.N,OUT0*%
X67840000Y-77595000D03*
%TD*%
D10*
%TO.P,Q47,1*%
%TO.N,GND*%
X39720000Y-38860000D03*
D11*
%TO.P,Q47,2*%
%TO.N,DB0*%
X42260000Y-38860000D03*
%TO.P,Q47,3*%
%TO.N,B0_dn*%
X44800000Y-38860000D03*
%TD*%
D12*
%TO.P,R41,1*%
%TO.N,OUT0_m2*%
X55080000Y-77595000D03*
%TO.P,R41,2*%
%TO.N,+5V*%
X60160000Y-77595000D03*
%TD*%
D10*
%TO.P,Q6,1*%
%TO.N,GND*%
X9000000Y-55370000D03*
D11*
%TO.P,Q6,2*%
%TO.N,BUS0#*%
X11540000Y-55370000D03*
%TO.P,Q6,3*%
%TO.N,D0*%
X14080000Y-55370000D03*
%TD*%
D10*
%TO.P,Q97,1*%
%TO.N,GND*%
X70440000Y-85215000D03*
D11*
%TO.P,Q97,2*%
%TO.N,OUT0*%
X72980000Y-85215000D03*
%TO.P,Q97,3*%
%TO.N,Net-(D1-K)*%
X75520000Y-85215000D03*
%TD*%
D10*
%TO.P,Q82,1*%
%TO.N,Net-(Q82-S)*%
X67840000Y-54735000D03*
D11*
%TO.P,Q82,2*%
%TO.N,OUT0_mq*%
X65300000Y-54735000D03*
%TO.P,Q82,3*%
%TO.N,OUT0_sa*%
X62760000Y-54735000D03*
%TD*%
D10*
%TO.P,Q48,1*%
%TO.N,Net-(Q48-S)*%
X39720000Y-47115000D03*
D11*
%TO.P,Q48,2*%
%TO.N,DB0*%
X42260000Y-47115000D03*
%TO.P,Q48,3*%
%TO.N,B0_m1*%
X44800000Y-47115000D03*
%TD*%
D10*
%TO.P,Q33,1*%
%TO.N,GND*%
X24360000Y-87120000D03*
D11*
%TO.P,Q33,2*%
%TO.N,A0_qn*%
X26900000Y-87120000D03*
%TO.P,Q33,3*%
%TO.N,Net-(Q32-S)*%
X29440000Y-87120000D03*
%TD*%
D10*
%TO.P,Q66,1*%
%TO.N,Net-(Q66-S)*%
X55080000Y-20445000D03*
D11*
%TO.P,Q66,2*%
%TO.N,OI*%
X57620000Y-20445000D03*
%TO.P,Q66,3*%
%TO.N,DO0_1*%
X60160000Y-20445000D03*
%TD*%
D10*
%TO.P,Q24,1*%
%TO.N,GND*%
X24360000Y-25525000D03*
D11*
%TO.P,Q24,2*%
%TO.N,A0_mqn*%
X26900000Y-25525000D03*
%TO.P,Q24,3*%
%TO.N,Net-(Q23-S)*%
X29440000Y-25525000D03*
%TD*%
D10*
%TO.P,Q60,1*%
%TO.N,GND*%
X52480000Y-46480000D03*
D11*
%TO.P,Q60,2*%
%TO.N,B0_mqi*%
X49940000Y-46480000D03*
%TO.P,Q60,3*%
%TO.N,Net-(Q59-S)*%
X47400000Y-46480000D03*
%TD*%
D12*
%TO.P,R49,1*%
%TO.N,AON0*%
X70440000Y-29335000D03*
%TO.P,R49,2*%
%TO.N,+5V*%
X75520000Y-29335000D03*
%TD*%
%TO.P,R14,1*%
%TO.N,A0_mqn*%
X24360000Y-29335000D03*
%TO.P,R14,2*%
%TO.N,+5V*%
X29440000Y-29335000D03*
%TD*%
%TO.P,R21,1*%
%TO.N,+5V*%
X32040000Y-42670000D03*
%TO.P,R21,2*%
%TO.N,DB0_1*%
X37120000Y-42670000D03*
%TD*%
D10*
%TO.P,Q65,1*%
%TO.N,GND*%
X52480000Y-81405000D03*
D11*
%TO.P,Q65,2*%
%TO.N,OI*%
X49940000Y-81405000D03*
%TO.P,Q65,3*%
%TO.N,OIN*%
X47400000Y-81405000D03*
%TD*%
D12*
%TO.P,R15,1*%
%TO.N,A0_mqi*%
X24360000Y-42670000D03*
%TO.P,R15,2*%
%TO.N,+5V*%
X29440000Y-42670000D03*
%TD*%
D18*
%TO.P,C2,1*%
%TO.N,+5V*%
X95000000Y-26000000D03*
D12*
%TO.P,C2,2*%
%TO.N,GND*%
X95000000Y-28000000D03*
%TD*%
%TO.P,R1,1*%
%TO.N,CLKN*%
X9000000Y-16000000D03*
%TO.P,R1,2*%
%TO.N,+5V*%
X14080000Y-16000000D03*
%TD*%
D10*
%TO.P,Q92,1*%
%TO.N,Net-(Q92-S)*%
X70440000Y-47115000D03*
D11*
%TO.P,Q92,2*%
%TO.N,BO*%
X72980000Y-47115000D03*
%TO.P,Q92,3*%
%TO.N,BON0*%
X75520000Y-47115000D03*
%TD*%
D12*
%TO.P,R28,1*%
%TO.N,B0_mq*%
X39720000Y-69340000D03*
%TO.P,R28,2*%
%TO.N,+5V*%
X44800000Y-69340000D03*
%TD*%
D10*
%TO.P,Q75,1*%
%TO.N,Net-(Q75-S)*%
X55080000Y-82040000D03*
D11*
%TO.P,Q75,2*%
%TO.N,PH1*%
X57620000Y-82040000D03*
%TO.P,Q75,3*%
%TO.N,OUT0_m2*%
X60160000Y-82040000D03*
%TD*%
D10*
%TO.P,Q35,1*%
%TO.N,GND*%
X37120000Y-24890000D03*
D11*
%TO.P,Q35,2*%
%TO.N,A0_sb*%
X34580000Y-24890000D03*
%TO.P,Q35,3*%
%TO.N,Net-(Q34-S)*%
X32040000Y-24890000D03*
%TD*%
D10*
%TO.P,Q2,1*%
%TO.N,GND*%
X9000000Y-28700000D03*
D11*
%TO.P,Q2,2*%
%TO.N,CLK*%
X11540000Y-28700000D03*
%TO.P,Q2,3*%
%TO.N,PH1*%
X14080000Y-28700000D03*
%TD*%
D12*
%TO.P,R10,1*%
%TO.N,+5V*%
X16680000Y-61085000D03*
%TO.P,R10,2*%
%TO.N,A0_dn*%
X21760000Y-61085000D03*
%TD*%
D10*
%TO.P,Q8,1*%
%TO.N,GND*%
X9000000Y-68705000D03*
D11*
%TO.P,Q8,2*%
%TO.N,AB*%
X11540000Y-68705000D03*
%TO.P,Q8,3*%
%TO.N,HOLDA*%
X14080000Y-68705000D03*
%TD*%
D12*
%TO.P,R3,1*%
%TO.N,PH2*%
X9000000Y-37590000D03*
%TO.P,R3,2*%
%TO.N,+5V*%
X14080000Y-37590000D03*
%TD*%
%TO.P,R7,1*%
%TO.N,+5V*%
X16680000Y-16000000D03*
%TO.P,R7,2*%
%TO.N,DA0_2*%
X21760000Y-16000000D03*
%TD*%
%TO.P,R31,1*%
%TO.N,+5V*%
X47400000Y-24255000D03*
%TO.P,R31,2*%
%TO.N,B0_sa*%
X52480000Y-24255000D03*
%TD*%
D10*
%TO.P,Q41,1*%
%TO.N,GND*%
X37120000Y-64895000D03*
D11*
%TO.P,Q41,2*%
%TO.N,A0*%
X34580000Y-64895000D03*
%TO.P,Q41,3*%
%TO.N,Net-(Q40-S)*%
X32040000Y-64895000D03*
%TD*%
D10*
%TO.P,Q83,1*%
%TO.N,GND*%
X67840000Y-59815000D03*
D11*
%TO.P,Q83,2*%
%TO.N,PH2*%
X65300000Y-59815000D03*
%TO.P,Q83,3*%
%TO.N,Net-(Q82-S)*%
X62760000Y-59815000D03*
%TD*%
D10*
%TO.P,Q99,1*%
%TO.N,GND*%
X83200000Y-42035000D03*
D11*
%TO.P,Q99,2*%
%TO.N,B0*%
X80660000Y-42035000D03*
%TO.P,Q99,3*%
%TO.N,Net-(D3-K)*%
X78120000Y-42035000D03*
%TD*%
D10*
%TO.P,Q28,1*%
%TO.N,Net-(Q28-S)*%
X24360000Y-55370000D03*
D11*
%TO.P,Q28,2*%
%TO.N,A0_mq*%
X26900000Y-55370000D03*
%TO.P,Q28,3*%
%TO.N,A0_sa*%
X29440000Y-55370000D03*
%TD*%
D10*
%TO.P,Q25,1*%
%TO.N,Net-(Q25-S)*%
X24360000Y-33780000D03*
D11*
%TO.P,Q25,2*%
%TO.N,A0_mq*%
X26900000Y-33780000D03*
%TO.P,Q25,3*%
%TO.N,A0_mqn*%
X29440000Y-33780000D03*
%TD*%
D10*
%TO.P,Q52,1*%
%TO.N,Net-(Q52-S)*%
X39720000Y-73785000D03*
D11*
%TO.P,Q52,2*%
%TO.N,B0_m1*%
X42260000Y-73785000D03*
%TO.P,Q52,3*%
%TO.N,B0_mq*%
X44800000Y-73785000D03*
%TD*%
D10*
%TO.P,Q98,1*%
%TO.N,GND*%
X83200000Y-26795000D03*
D11*
%TO.P,Q98,2*%
%TO.N,A0*%
X80660000Y-26795000D03*
%TO.P,Q98,3*%
%TO.N,Net-(D2-K)*%
X78120000Y-26795000D03*
%TD*%
D12*
%TO.P,R29,1*%
%TO.N,B0_mqn*%
X39720000Y-82675000D03*
%TO.P,R29,2*%
%TO.N,+5V*%
X44800000Y-82675000D03*
%TD*%
%TO.P,R11,1*%
%TO.N,+5V*%
X16680000Y-69340000D03*
%TO.P,R11,2*%
%TO.N,A0_m1*%
X21760000Y-69340000D03*
%TD*%
D10*
%TO.P,Q46,1*%
%TO.N,GND*%
X39720000Y-30605000D03*
D11*
%TO.P,Q46,2*%
%TO.N,DB0_3*%
X42260000Y-30605000D03*
%TO.P,Q46,3*%
%TO.N,Net-(Q45-S)*%
X44800000Y-30605000D03*
%TD*%
D10*
%TO.P,Q34,1*%
%TO.N,Net-(Q34-S)*%
X37120000Y-19810000D03*
D11*
%TO.P,Q34,2*%
%TO.N,A0*%
X34580000Y-19810000D03*
%TO.P,Q34,3*%
%TO.N,A0_qn*%
X32040000Y-19810000D03*
%TD*%
D12*
%TO.P,R23,1*%
%TO.N,+5V*%
X32040000Y-69340000D03*
%TO.P,R23,2*%
%TO.N,DB0_3*%
X37120000Y-69340000D03*
%TD*%
%TO.P,R22,1*%
%TO.N,+5V*%
X32040000Y-56005000D03*
%TO.P,R22,2*%
%TO.N,DB0_2*%
X37120000Y-56005000D03*
%TD*%
D17*
%TO.P,H1,1*%
%TO.N,N/C*%
X4000000Y-50000000D03*
%TD*%
D10*
%TO.P,Q51,1*%
%TO.N,GND*%
X39720000Y-65530000D03*
D11*
%TO.P,Q51,2*%
%TO.N,B0_dn*%
X42260000Y-65530000D03*
%TO.P,Q51,3*%
%TO.N,Net-(Q50-S)*%
X44800000Y-65530000D03*
%TD*%
D12*
%TO.P,R52,1*%
%TO.N,Net-(D1-A)*%
X70440000Y-74420000D03*
%TO.P,R52,2*%
%TO.N,+5V*%
X75520000Y-74420000D03*
%TD*%
%TO.P,R44,1*%
%TO.N,+5V*%
X62760000Y-42670000D03*
%TO.P,R44,2*%
%TO.N,OUT0_mqi*%
X67840000Y-42670000D03*
%TD*%
D10*
%TO.P,Q90,1*%
%TO.N,Net-(Q90-S)*%
X70440000Y-33780000D03*
D11*
%TO.P,Q90,2*%
%TO.N,AO*%
X72980000Y-33780000D03*
%TO.P,Q90,3*%
%TO.N,AON0*%
X75520000Y-33780000D03*
%TD*%
D10*
%TO.P,Q76,1*%
%TO.N,GND*%
X55080000Y-87120000D03*
D11*
%TO.P,Q76,2*%
%TO.N,OUT0_dn*%
X57620000Y-87120000D03*
%TO.P,Q76,3*%
%TO.N,Net-(Q75-S)*%
X60160000Y-87120000D03*
%TD*%
D10*
%TO.P,Q16,1*%
%TO.N,Net-(Q16-S)*%
X21760000Y-51560000D03*
D11*
%TO.P,Q16,2*%
%TO.N,DA0_2*%
X19220000Y-51560000D03*
%TO.P,Q16,3*%
%TO.N,Net-(Q15-S)*%
X16680000Y-51560000D03*
%TD*%
D10*
%TO.P,Q20,1*%
%TO.N,GND*%
X21760000Y-78230000D03*
D11*
%TO.P,Q20,2*%
%TO.N,PH1*%
X19220000Y-78230000D03*
%TO.P,Q20,3*%
%TO.N,Net-(Q19-S)*%
X16680000Y-78230000D03*
%TD*%
D10*
%TO.P,Q86,1*%
%TO.N,Net-(Q86-S)*%
X67840000Y-81405000D03*
D11*
%TO.P,Q86,2*%
%TO.N,OUT0_sa*%
X65300000Y-81405000D03*
%TO.P,Q86,3*%
%TO.N,OUT0*%
X62760000Y-81405000D03*
%TD*%
D12*
%TO.P,C1,1*%
%TO.N,+5V*%
X95000000Y-16500000D03*
%TO.P,C1,2*%
%TO.N,GND*%
X95000000Y-19000000D03*
%TD*%
D13*
%TO.P,D3,1*%
%TO.N,Net-(D3-K)*%
X80660000Y-37590000D03*
D14*
%TO.P,D3,2*%
%TO.N,Net-(D3-A)*%
X80660000Y-35050000D03*
%TD*%
D12*
%TO.P,R54,1*%
%TO.N,+5V*%
X78120000Y-31240000D03*
%TO.P,R54,2*%
%TO.N,Net-(D3-A)*%
X83200000Y-31240000D03*
%TD*%
D10*
%TO.P,Q17,1*%
%TO.N,GND*%
X21760000Y-56640000D03*
D11*
%TO.P,Q17,2*%
%TO.N,DA0_3*%
X19220000Y-56640000D03*
%TO.P,Q17,3*%
%TO.N,Net-(Q16-S)*%
X16680000Y-56640000D03*
%TD*%
D10*
%TO.P,Q55,1*%
%TO.N,GND*%
X39720000Y-92200000D03*
D11*
%TO.P,Q55,2*%
%TO.N,B0_m2*%
X42260000Y-92200000D03*
%TO.P,Q55,3*%
%TO.N,Net-(Q54-S)*%
X44800000Y-92200000D03*
%TD*%
D12*
%TO.P,R32,1*%
%TO.N,+5V*%
X47400000Y-37590000D03*
%TO.P,R32,2*%
%TO.N,B0_sb*%
X52480000Y-37590000D03*
%TD*%
D10*
%TO.P,Q38,1*%
%TO.N,Net-(Q38-S)*%
X37120000Y-46480000D03*
D11*
%TO.P,Q38,2*%
%TO.N,BI*%
X34580000Y-46480000D03*
%TO.P,Q38,3*%
%TO.N,DB0_1*%
X32040000Y-46480000D03*
%TD*%
D12*
%TO.P,R18,1*%
%TO.N,A0*%
X24360000Y-77595000D03*
%TO.P,R18,2*%
%TO.N,+5V*%
X29440000Y-77595000D03*
%TD*%
D10*
%TO.P,Q1,1*%
%TO.N,GND*%
X9000000Y-20445000D03*
D11*
%TO.P,Q1,2*%
%TO.N,CLK*%
X11540000Y-20445000D03*
%TO.P,Q1,3*%
%TO.N,CLKN*%
X14080000Y-20445000D03*
%TD*%
D12*
%TO.P,R6,1*%
%TO.N,DA0_1*%
X9000000Y-72515000D03*
%TO.P,R6,2*%
%TO.N,+5V*%
X14080000Y-72515000D03*
%TD*%
D10*
%TO.P,Q9,1*%
%TO.N,Net-(Q10-D)*%
X9000000Y-76960000D03*
D11*
%TO.P,Q9,2*%
%TO.N,AI*%
X11540000Y-76960000D03*
%TO.P,Q9,3*%
%TO.N,DA0_1*%
X14080000Y-76960000D03*
%TD*%
D10*
%TO.P,Q78,1*%
%TO.N,GND*%
X67840000Y-24890000D03*
D11*
%TO.P,Q78,2*%
%TO.N,OUT0_mqn*%
X65300000Y-24890000D03*
%TO.P,Q78,3*%
%TO.N,Net-(Q77-S)*%
X62760000Y-24890000D03*
%TD*%
D10*
%TO.P,Q69,1*%
%TO.N,GND*%
X55080000Y-38860000D03*
D11*
%TO.P,Q69,2*%
%TO.N,OUT0*%
X57620000Y-38860000D03*
%TO.P,Q69,3*%
%TO.N,Net-(Q68-S)*%
X60160000Y-38860000D03*
%TD*%
D10*
%TO.P,Q61,1*%
%TO.N,Net-(Q61-S)*%
X52480000Y-54735000D03*
D11*
%TO.P,Q61,2*%
%TO.N,B0_sa*%
X49940000Y-54735000D03*
%TO.P,Q61,3*%
%TO.N,B0*%
X47400000Y-54735000D03*
%TD*%
D12*
%TO.P,R34,1*%
%TO.N,+5V*%
X47400000Y-64260000D03*
%TO.P,R34,2*%
%TO.N,B0_qn*%
X52480000Y-64260000D03*
%TD*%
D10*
%TO.P,Q58,1*%
%TO.N,GND*%
X52480000Y-33145000D03*
D11*
%TO.P,Q58,2*%
%TO.N,PH2*%
X49940000Y-33145000D03*
%TO.P,Q58,3*%
%TO.N,Net-(Q57-S)*%
X47400000Y-33145000D03*
%TD*%
D12*
%TO.P,R43,1*%
%TO.N,+5V*%
X62760000Y-29335000D03*
%TO.P,R43,2*%
%TO.N,OUT0_mqn*%
X67840000Y-29335000D03*
%TD*%
%TO.P,R2,1*%
%TO.N,PH1*%
X9000000Y-24255000D03*
%TO.P,R2,2*%
%TO.N,+5V*%
X14080000Y-24255000D03*
%TD*%
D10*
%TO.P,Q67,1*%
%TO.N,GND*%
X55080000Y-25525000D03*
D11*
%TO.P,Q67,2*%
%TO.N,D0*%
X57620000Y-25525000D03*
%TO.P,Q67,3*%
%TO.N,Net-(Q66-S)*%
X60160000Y-25525000D03*
%TD*%
D12*
%TO.P,R48,1*%
%TO.N,OUT0_qn*%
X70440000Y-16000000D03*
%TO.P,R48,2*%
%TO.N,+5V*%
X75520000Y-16000000D03*
%TD*%
D10*
%TO.P,Q81,1*%
%TO.N,GND*%
X67840000Y-46480000D03*
D11*
%TO.P,Q81,2*%
%TO.N,OUT0_mq*%
X65300000Y-46480000D03*
%TO.P,Q81,3*%
%TO.N,OUT0_mqi*%
X62760000Y-46480000D03*
%TD*%
D10*
%TO.P,Q37,1*%
%TO.N,GND*%
X37120000Y-38225000D03*
D11*
%TO.P,Q37,2*%
%TO.N,BA*%
X34580000Y-38225000D03*
%TO.P,Q37,3*%
%TO.N,HOLDB*%
X32040000Y-38225000D03*
%TD*%
D12*
%TO.P,R50,1*%
%TO.N,BON0*%
X70440000Y-42670000D03*
%TO.P,R50,2*%
%TO.N,+5V*%
X75520000Y-42670000D03*
%TD*%
D10*
%TO.P,Q85,1*%
%TO.N,GND*%
X67840000Y-73150000D03*
D11*
%TO.P,Q85,2*%
%TO.N,OUT0_mqi*%
X65300000Y-73150000D03*
%TO.P,Q85,3*%
%TO.N,Net-(Q84-S)*%
X62760000Y-73150000D03*
%TD*%
D10*
%TO.P,Q13,1*%
%TO.N,Net-(Q13-S)*%
X21760000Y-33145000D03*
D11*
%TO.P,Q13,2*%
%TO.N,HOLDA*%
X19220000Y-33145000D03*
%TO.P,Q13,3*%
%TO.N,DA0_3*%
X16680000Y-33145000D03*
%TD*%
D10*
%TO.P,Q91,1*%
%TO.N,GND*%
X70440000Y-38860000D03*
D11*
%TO.P,Q91,2*%
%TO.N,A0*%
X72980000Y-38860000D03*
%TO.P,Q91,3*%
%TO.N,Net-(Q90-S)*%
X75520000Y-38860000D03*
%TD*%
D12*
%TO.P,R42,1*%
%TO.N,+5V*%
X62760000Y-16000000D03*
%TO.P,R42,2*%
%TO.N,OUT0_mq*%
X67840000Y-16000000D03*
%TD*%
%TO.P,R36,1*%
%TO.N,DO0_1*%
X55080000Y-16000000D03*
%TO.P,R36,2*%
%TO.N,+5V*%
X60160000Y-16000000D03*
%TD*%
D10*
%TO.P,Q45,1*%
%TO.N,Net-(Q45-S)*%
X39720000Y-25525000D03*
D11*
%TO.P,Q45,2*%
%TO.N,DB0_2*%
X42260000Y-25525000D03*
%TO.P,Q45,3*%
%TO.N,Net-(Q44-S)*%
X44800000Y-25525000D03*
%TD*%
D10*
%TO.P,Q84,1*%
%TO.N,Net-(Q84-S)*%
X67840000Y-68070000D03*
D11*
%TO.P,Q84,2*%
%TO.N,PH2*%
X65300000Y-68070000D03*
%TO.P,Q84,3*%
%TO.N,OUT0_sb*%
X62760000Y-68070000D03*
%TD*%
D12*
%TO.P,R35,1*%
%TO.N,+5V*%
X47400000Y-77595000D03*
%TO.P,R35,2*%
%TO.N,OIN*%
X52480000Y-77595000D03*
%TD*%
D10*
%TO.P,Q70,1*%
%TO.N,Net-(Q70-S)*%
X55080000Y-47115000D03*
D11*
%TO.P,Q70,2*%
%TO.N,DO0_1*%
X57620000Y-47115000D03*
%TO.P,Q70,3*%
%TO.N,DO0*%
X60160000Y-47115000D03*
%TD*%
D12*
%TO.P,R26,1*%
%TO.N,B0_m1*%
X39720000Y-42670000D03*
%TO.P,R26,2*%
%TO.N,+5V*%
X44800000Y-42670000D03*
%TD*%
%TO.P,R25,1*%
%TO.N,B0_dn*%
X39720000Y-34415000D03*
%TO.P,R25,2*%
%TO.N,+5V*%
X44800000Y-34415000D03*
%TD*%
D10*
%TO.P,Q21,1*%
%TO.N,Net-(Q21-S)*%
X21760000Y-86485000D03*
D11*
%TO.P,Q21,2*%
%TO.N,PH1*%
X19220000Y-86485000D03*
%TO.P,Q21,3*%
%TO.N,A0_m2*%
X16680000Y-86485000D03*
%TD*%
D10*
%TO.P,Q40,1*%
%TO.N,Net-(Q40-S)*%
X37120000Y-59815000D03*
D11*
%TO.P,Q40,2*%
%TO.N,BA*%
X34580000Y-59815000D03*
%TO.P,Q40,3*%
%TO.N,DB0_2*%
X32040000Y-59815000D03*
%TD*%
D10*
%TO.P,Q5,1*%
%TO.N,GND*%
X9000000Y-47115000D03*
D11*
%TO.P,Q5,2*%
%TO.N,PH1*%
X11540000Y-47115000D03*
%TO.P,Q5,3*%
%TO.N,PH2*%
X14080000Y-47115000D03*
%TD*%
D10*
%TO.P,Q73,1*%
%TO.N,Net-(Q73-S)*%
X55080000Y-68705000D03*
D11*
%TO.P,Q73,2*%
%TO.N,DO0*%
X57620000Y-68705000D03*
%TO.P,Q73,3*%
%TO.N,OUT0_m1*%
X60160000Y-68705000D03*
%TD*%
D10*
%TO.P,Q23,1*%
%TO.N,Net-(Q23-S)*%
X24360000Y-20445000D03*
D11*
%TO.P,Q23,2*%
%TO.N,A0_m1*%
X26900000Y-20445000D03*
%TO.P,Q23,3*%
%TO.N,A0_mq*%
X29440000Y-20445000D03*
%TD*%
D13*
%TO.P,D2,1*%
%TO.N,Net-(D2-K)*%
X80660000Y-22350000D03*
D14*
%TO.P,D2,2*%
%TO.N,Net-(D2-A)*%
X80660000Y-19810000D03*
%TD*%
D10*
%TO.P,Q74,1*%
%TO.N,GND*%
X55080000Y-73785000D03*
D11*
%TO.P,Q74,2*%
%TO.N,PH1*%
X57620000Y-73785000D03*
%TO.P,Q74,3*%
%TO.N,Net-(Q73-S)*%
X60160000Y-73785000D03*
%TD*%
D10*
%TO.P,Q44,1*%
%TO.N,Net-(Q44-S)*%
X39720000Y-20445000D03*
D11*
%TO.P,Q44,2*%
%TO.N,DB0_1*%
X42260000Y-20445000D03*
%TO.P,Q44,3*%
%TO.N,DB0*%
X44800000Y-20445000D03*
%TD*%
D12*
%TO.P,R38,1*%
%TO.N,DO0*%
X55080000Y-42670000D03*
%TO.P,R38,2*%
%TO.N,+5V*%
X60160000Y-42670000D03*
%TD*%
%TO.P,R39,1*%
%TO.N,OUT0_dn*%
X55080000Y-56005000D03*
%TO.P,R39,2*%
%TO.N,+5V*%
X60160000Y-56005000D03*
%TD*%
%TO.P,R40,1*%
%TO.N,OUT0_m1*%
X55080000Y-64260000D03*
%TO.P,R40,2*%
%TO.N,+5V*%
X60160000Y-64260000D03*
%TD*%
D10*
%TO.P,Q43,1*%
%TO.N,GND*%
X37120000Y-78230000D03*
D11*
%TO.P,Q43,2*%
%TO.N,B0*%
X34580000Y-78230000D03*
%TO.P,Q43,3*%
%TO.N,Net-(Q42-S)*%
X32040000Y-78230000D03*
%TD*%
D10*
%TO.P,Q68,1*%
%TO.N,Net-(Q68-S)*%
X55080000Y-33780000D03*
D11*
%TO.P,Q68,2*%
%TO.N,OIN*%
X57620000Y-33780000D03*
%TO.P,Q68,3*%
%TO.N,DO0_2*%
X60160000Y-33780000D03*
%TD*%
D10*
%TO.P,Q10,1*%
%TO.N,GND*%
X9000000Y-82040000D03*
D11*
%TO.P,Q10,2*%
%TO.N,D0*%
X11540000Y-82040000D03*
%TO.P,Q10,3*%
%TO.N,Net-(Q10-D)*%
X14080000Y-82040000D03*
%TD*%
D10*
%TO.P,Q87,1*%
%TO.N,GND*%
X67840000Y-86485000D03*
D11*
%TO.P,Q87,2*%
%TO.N,OUT0_qn*%
X65300000Y-86485000D03*
%TO.P,Q87,3*%
%TO.N,Net-(Q86-S)*%
X62760000Y-86485000D03*
%TD*%
D10*
%TO.P,Q31,1*%
%TO.N,GND*%
X24360000Y-73785000D03*
D11*
%TO.P,Q31,2*%
%TO.N,A0_mqi*%
X26900000Y-73785000D03*
%TO.P,Q31,3*%
%TO.N,Net-(Q30-S)*%
X29440000Y-73785000D03*
%TD*%
D12*
%TO.P,R30,1*%
%TO.N,+5V*%
X47400000Y-16000000D03*
%TO.P,R30,2*%
%TO.N,B0_mqi*%
X52480000Y-16000000D03*
%TD*%
D10*
%TO.P,Q64,1*%
%TO.N,GND*%
X52480000Y-73150000D03*
D11*
%TO.P,Q64,2*%
%TO.N,B0_sb*%
X49940000Y-73150000D03*
%TO.P,Q64,3*%
%TO.N,Net-(Q63-S)*%
X47400000Y-73150000D03*
%TD*%
D10*
%TO.P,Q50,1*%
%TO.N,Net-(Q50-S)*%
X39720000Y-60450000D03*
D11*
%TO.P,Q50,2*%
%TO.N,PH1*%
X42260000Y-60450000D03*
%TO.P,Q50,3*%
%TO.N,B0_m2*%
X44800000Y-60450000D03*
%TD*%
D10*
%TO.P,Q71,1*%
%TO.N,GND*%
X55080000Y-52195000D03*
D11*
%TO.P,Q71,2*%
%TO.N,DO0_2*%
X57620000Y-52195000D03*
%TO.P,Q71,3*%
%TO.N,Net-(Q70-S)*%
X60160000Y-52195000D03*
%TD*%
D10*
%TO.P,Q7,1*%
%TO.N,GND*%
X9000000Y-63625000D03*
D11*
%TO.P,Q7,2*%
%TO.N,AI*%
X11540000Y-63625000D03*
%TO.P,Q7,3*%
%TO.N,HOLDA*%
X14080000Y-63625000D03*
%TD*%
D12*
%TO.P,R27,1*%
%TO.N,B0_m2*%
X39720000Y-56005000D03*
%TO.P,R27,2*%
%TO.N,+5V*%
X44800000Y-56005000D03*
%TD*%
D19*
%TO.N,GND*%
X7730000Y-12500000D03*
X95000000Y-21500000D03*
X89370000Y-2460000D03*
X38450000Y-12500000D03*
X23090000Y-12500000D03*
X69170000Y-12500000D03*
X53810000Y-12500000D03*
X95000000Y-30500000D03*
X84530000Y-12500000D03*
X18250000Y-2460000D03*
%TO.N,PH1*%
X50134100Y-70333400D03*
X47218000Y-66190000D03*
%TO.N,+5V*%
X76850000Y-14000000D03*
X61490000Y-14000000D03*
X15410000Y-14000000D03*
X46130000Y-14000000D03*
X30770000Y-14000000D03*
X89370000Y-14000000D03*
X10630000Y-14000000D03*
%TO.N,AB*%
X22080800Y-10272500D03*
X14098300Y-35508100D03*
%TO.N,OUT0_m1*%
X64471500Y-64985400D03*
%TO.N,A0_sb*%
X26812900Y-35294900D03*
%TO.N,B0_mq*%
X40597300Y-44196200D03*
%TO.N,A0*%
X31762000Y-49365500D03*
%TO.N,PH2*%
X10890500Y-52626900D03*
%TO.N,OUT0_sb*%
X72449200Y-58783500D03*
%TO.N,B0*%
X73430800Y-11249300D03*
X24523300Y-18323500D03*
X73430800Y-15997100D03*
%TO.N,BI*%
X30653800Y-11521900D03*
%TO.N,BA*%
X29785700Y-45085600D03*
X27187600Y-53871300D03*
%TO.N,OI*%
X56165100Y-54712900D03*
%TO.N,Net-(Q92-S)*%
X74748800Y-50075500D03*
%TO.N,A0_m1*%
X18719200Y-39627500D03*
%TO.N,DA0_1*%
X12451500Y-52589700D03*
%TO.N,OIN*%
X52232700Y-49090500D03*
%TO.N,DB0_2*%
X35146300Y-53784800D03*
X35367000Y-49845500D03*
%TD*%
%TO.N,GND*%
D20*
X95000000Y-19000000D02*
X95000000Y-21500000D01*
D21*
X7730000Y-12500000D02*
X84530000Y-12500000D01*
D20*
X95000000Y-28000000D02*
X95000000Y-30500000D01*
X13170000Y-7500000D02*
X13170000Y-12500000D01*
X13170000Y-7500000D02*
X13170000Y-4960000D01*
X18250000Y-4960000D02*
X18250000Y-2460000D01*
X89370000Y-4960000D02*
X89370000Y-2460000D01*
X13170000Y-4960000D02*
X18250000Y-4960000D01*
%TO.N,PH1*%
D22*
X29021200Y-88121700D02*
X28170100Y-87270600D01*
X54168400Y-70333400D02*
X57620000Y-73785000D01*
X17950000Y-46634300D02*
X16428000Y-48156300D01*
X42260000Y-52195000D02*
X40613700Y-50548700D01*
X34164200Y-50548700D02*
X33186100Y-51526800D01*
X24577000Y-45457100D02*
X18789000Y-45457100D01*
X29855000Y-88121700D02*
X29021200Y-88121700D01*
X57620000Y-82040000D02*
X51508800Y-88151200D01*
X41114600Y-86613200D02*
X40619700Y-86118300D01*
X26756700Y-85464500D02*
X20240500Y-85464500D01*
X17950000Y-46296100D02*
X17950000Y-46634300D01*
X28170100Y-87270600D02*
X28170100Y-86877900D01*
X25898300Y-46778400D02*
X24577000Y-45457100D01*
X16428000Y-48156300D02*
X12581300Y-48156300D01*
X40613700Y-50548700D02*
X34164200Y-50548700D01*
X33186100Y-51883600D02*
X32465200Y-52604500D01*
X40619700Y-86118300D02*
X31858400Y-86118300D01*
X9635000Y-24255000D02*
X9000000Y-24255000D01*
X33186100Y-51526800D02*
X33186100Y-51883600D01*
X41830400Y-88151200D02*
X41114600Y-87435400D01*
X42260000Y-60450000D02*
X42260000Y-61232000D01*
X29582400Y-52604500D02*
X25898300Y-48920400D01*
X32465200Y-52604500D02*
X29582400Y-52604500D01*
X50134100Y-70333400D02*
X54168400Y-70333400D01*
X12581300Y-48156300D02*
X11540000Y-47115000D01*
X51508800Y-88151200D02*
X41830400Y-88151200D01*
X41114600Y-87435400D02*
X41114600Y-86613200D01*
X25898300Y-48920400D02*
X25898300Y-46778400D01*
X42260000Y-61232000D02*
X47218000Y-66190000D01*
X20240500Y-85464500D02*
X19220000Y-86485000D01*
X18789000Y-45457100D02*
X17950000Y-46296100D01*
X28170100Y-86877900D02*
X26756700Y-85464500D01*
X31858400Y-86118300D02*
X29855000Y-88121700D01*
X14080000Y-28700000D02*
X9635000Y-24255000D01*
%TO.N,Net-(Q48-S)*%
X40721700Y-48116700D02*
X44800000Y-52195000D01*
X40721700Y-47115000D02*
X40721700Y-48116700D01*
X39720000Y-47115000D02*
X40721700Y-47115000D01*
%TO.N,+5V*%
D20*
X98000000Y-14000000D02*
X98000000Y-26000000D01*
X95000000Y-14000000D02*
X95000000Y-16500000D01*
D21*
X76850000Y-14000000D02*
X98000000Y-14000000D01*
X10630000Y-14000000D02*
X15410000Y-14000000D01*
X15410000Y-14000000D02*
X76850000Y-14000000D01*
D20*
X98000000Y-26000000D02*
X95000000Y-26000000D01*
X10630000Y-7500000D02*
X10630000Y-4960000D01*
%TO.N,A0_m2*%
D22*
X16680000Y-86485000D02*
X20490000Y-82675000D01*
X20490000Y-82675000D02*
X21760000Y-82675000D01*
%TO.N,Net-(Q11-S)*%
X20758300Y-19810000D02*
X16680000Y-23888300D01*
X16680000Y-23888300D02*
X16680000Y-24890000D01*
X21760000Y-19810000D02*
X20758300Y-19810000D01*
%TO.N,AB*%
X65240000Y-6230000D02*
X61115700Y-6230000D01*
X57692000Y-10272500D02*
X22080800Y-10272500D01*
X61115700Y-6230000D02*
X60160000Y-7185700D01*
X15614800Y-23415200D02*
X15614800Y-33991600D01*
X66510000Y-4960000D02*
X65240000Y-6230000D01*
X60160000Y-7804500D02*
X57692000Y-10272500D01*
X15614800Y-33991600D02*
X14098300Y-35508100D01*
X19220000Y-19810000D02*
X15614800Y-23415200D01*
X60160000Y-7185700D02*
X60160000Y-7804500D01*
%TO.N,DA0_2*%
X20490000Y-16000000D02*
X21760000Y-16000000D01*
X16680000Y-19810000D02*
X20490000Y-16000000D01*
%TO.N,Net-(Q25-S)*%
X25361700Y-34781700D02*
X29440000Y-38860000D01*
X24360000Y-33780000D02*
X25361700Y-33780000D01*
X25361700Y-33780000D02*
X25361700Y-34781700D01*
%TO.N,Net-(Q77-S)*%
X66838300Y-20811700D02*
X62760000Y-24890000D01*
X66838300Y-19810000D02*
X66838300Y-20811700D01*
X67840000Y-19810000D02*
X66838300Y-19810000D01*
%TO.N,OUT0_m1*%
X64471500Y-64985400D02*
X63879600Y-64985400D01*
X60160000Y-68705000D02*
X55715000Y-64260000D01*
X55715000Y-64260000D02*
X55080000Y-64260000D01*
X63879600Y-64985400D02*
X60160000Y-68705000D01*
%TO.N,Net-(Q79-S)*%
X66838300Y-33145000D02*
X66838300Y-34146700D01*
X66838300Y-34146700D02*
X62760000Y-38225000D01*
X67840000Y-33145000D02*
X66838300Y-33145000D01*
%TO.N,OUT0_mqn*%
X67840000Y-29335000D02*
X66570000Y-29335000D01*
X66570000Y-29335000D02*
X62760000Y-33145000D01*
%TO.N,HOLDA*%
X7936200Y-58116200D02*
X7936200Y-50482200D01*
X10058000Y-47150200D02*
X12318300Y-44889900D01*
X15593900Y-41939900D02*
X15593900Y-36771100D01*
X12318300Y-44889900D02*
X12643900Y-44889900D01*
X10058000Y-48360400D02*
X10058000Y-47150200D01*
X15593900Y-36771100D02*
X19220000Y-33145000D01*
X12643900Y-44889900D02*
X15593900Y-41939900D01*
X9000000Y-59180000D02*
X7936200Y-58116200D01*
X7936200Y-50482200D02*
X10058000Y-48360400D01*
X14080000Y-63625000D02*
X9635000Y-59180000D01*
X9635000Y-59180000D02*
X9000000Y-59180000D01*
%TO.N,B0_qn*%
X51845000Y-63625000D02*
X47400000Y-68070000D01*
X49940000Y-59815000D02*
X49940000Y-61720000D01*
X49940000Y-61720000D02*
X51845000Y-63625000D01*
X51845000Y-63625000D02*
X52480000Y-64260000D01*
%TO.N,Net-(Q61-S)*%
X51478300Y-55736700D02*
X47400000Y-59815000D01*
X52480000Y-54735000D02*
X51478300Y-54735000D01*
X51478300Y-54735000D02*
X51478300Y-55736700D01*
%TO.N,A0_sb*%
X34580000Y-24890000D02*
X30988300Y-28481700D01*
X30988300Y-30688400D02*
X28025500Y-33651200D01*
X30988300Y-28481700D02*
X30988300Y-30688400D01*
X28025500Y-33651200D02*
X28025500Y-34082300D01*
X28025500Y-34082300D02*
X26812900Y-35294900D01*
X29440000Y-68705000D02*
X24995000Y-64260000D01*
X24995000Y-64260000D02*
X24360000Y-64260000D01*
%TO.N,Net-(Q57-S)*%
X51478300Y-29066700D02*
X47400000Y-33145000D01*
X51478300Y-28065000D02*
X51478300Y-29066700D01*
X52480000Y-28065000D02*
X51478300Y-28065000D01*
%TO.N,B0_mq*%
X43271600Y-41521900D02*
X40597300Y-44196200D01*
X49940000Y-28065000D02*
X45911200Y-32093800D01*
X44800000Y-73785000D02*
X45875100Y-74860100D01*
X45875100Y-83504900D02*
X42260000Y-87120000D01*
X45911200Y-35602300D02*
X43271600Y-38241900D01*
X44165000Y-73785000D02*
X39720000Y-69340000D01*
X45911200Y-32093800D02*
X45911200Y-35602300D01*
X44800000Y-73785000D02*
X44165000Y-73785000D01*
X43271600Y-38241900D02*
X43271600Y-41521900D01*
X45875100Y-74860100D02*
X45875100Y-83504900D01*
%TO.N,B0_sa*%
X51210000Y-24255000D02*
X52480000Y-24255000D01*
X47400000Y-28065000D02*
X51210000Y-24255000D01*
%TO.N,DA0*%
X20604500Y-42670000D02*
X21760000Y-42670000D01*
X16794500Y-46480000D02*
X20604500Y-42670000D01*
X16680000Y-46480000D02*
X16794500Y-46480000D01*
%TO.N,Net-(Q52-S)*%
X40721700Y-73785000D02*
X40721700Y-74786700D01*
X39720000Y-73785000D02*
X40721700Y-73785000D01*
X40721700Y-74786700D02*
X44800000Y-78865000D01*
%TO.N,A0_qn*%
X35850000Y-16000000D02*
X37120000Y-16000000D01*
X32040000Y-19810000D02*
X35850000Y-16000000D01*
%TO.N,Net-(Q88-S)*%
X72499600Y-19387100D02*
X73339300Y-19387100D01*
X70440000Y-20445000D02*
X71441700Y-20445000D01*
X71441700Y-20445000D02*
X72499600Y-19387100D01*
X74250000Y-20297800D02*
X74250000Y-24255000D01*
X74250000Y-24255000D02*
X75520000Y-25525000D01*
X73339300Y-19387100D02*
X74250000Y-20297800D01*
%TO.N,OUT0*%
X66399800Y-77765200D02*
X67695500Y-77765200D01*
X61413100Y-33069200D02*
X65612100Y-28870200D01*
X65732600Y-28870200D02*
X69185200Y-25417600D01*
X67695500Y-77765200D02*
X67695500Y-77739500D01*
X57620000Y-38860000D02*
X61413100Y-35066900D01*
X62760000Y-81405000D02*
X66399800Y-77765200D01*
X61413100Y-35066900D02*
X61413100Y-33069200D01*
X67695500Y-77739500D02*
X67840000Y-77595000D01*
X72980000Y-85215000D02*
X72980000Y-83049700D01*
X69185200Y-24239800D02*
X72980000Y-20445000D01*
X65612100Y-28870200D02*
X65732600Y-28870200D01*
X69185200Y-25417600D02*
X69185200Y-24239800D01*
X72980000Y-83049700D02*
X67695500Y-77765200D01*
%TO.N,OUT0_qn*%
X71075000Y-16000000D02*
X70440000Y-16000000D01*
X75520000Y-20445000D02*
X71075000Y-16000000D01*
%TO.N,Net-(Q32-S)*%
X24360000Y-82040000D02*
X25361700Y-82040000D01*
X25361700Y-82040000D02*
X25361700Y-83041700D01*
X25361700Y-83041700D02*
X29440000Y-87120000D01*
%TO.N,A0_sa*%
X27289600Y-53219600D02*
X24995000Y-50925000D01*
X27457500Y-53219600D02*
X27289600Y-53219600D01*
X27839300Y-53769300D02*
X27839300Y-53601400D01*
X24995000Y-50925000D02*
X24360000Y-50925000D01*
X29440000Y-55370000D02*
X27839300Y-53769300D01*
X27839300Y-53601400D02*
X27457500Y-53219600D01*
%TO.N,A0*%
X78816900Y-24952000D02*
X78817000Y-24952000D01*
X29440000Y-82040000D02*
X24995000Y-77595000D01*
X34826800Y-19810000D02*
X38420100Y-16216700D01*
X31762000Y-47984300D02*
X31762000Y-49365500D01*
X19220000Y-38225000D02*
X21966200Y-40971200D01*
X78816900Y-22304700D02*
X78816900Y-24952000D01*
X80660000Y-31180000D02*
X72980000Y-38860000D01*
X21966200Y-40971200D02*
X24748900Y-40971200D01*
X39270900Y-14942200D02*
X71454400Y-14942200D01*
X24748900Y-40971200D02*
X31762000Y-47984300D01*
X80660000Y-26795000D02*
X80660000Y-31180000D01*
X34580000Y-19810000D02*
X34826800Y-19810000D01*
X38420100Y-16216700D02*
X38420100Y-15793000D01*
X78817000Y-24952000D02*
X80660000Y-26795000D01*
X24995000Y-77595000D02*
X24360000Y-77595000D01*
X38420100Y-15793000D02*
X39270900Y-14942200D01*
X71454400Y-14942200D02*
X78816900Y-22304700D01*
%TO.N,Net-(Q42-S)*%
X36118300Y-74151700D02*
X32040000Y-78230000D01*
X36118300Y-73150000D02*
X36118300Y-74151700D01*
X37120000Y-73150000D02*
X36118300Y-73150000D01*
%TO.N,HOLDB*%
X37120000Y-29335000D02*
X35850000Y-29335000D01*
X35850000Y-29335000D02*
X32040000Y-33145000D01*
%TO.N,DB0_3*%
X34421700Y-23587400D02*
X33578300Y-24430800D01*
X10211000Y-61888600D02*
X11340800Y-61888600D01*
X31578800Y-25891700D02*
X30498400Y-24811300D01*
X12810100Y-63875100D02*
X16990200Y-68055200D01*
X12810100Y-63357900D02*
X12810100Y-63875100D01*
X38121700Y-75348600D02*
X38121700Y-72253300D01*
X33578300Y-24874800D02*
X32561400Y-25891700D01*
X33578300Y-24430800D02*
X33578300Y-24874800D01*
X16990200Y-68055200D02*
X21979200Y-68055200D01*
X33061900Y-72128100D02*
X32040000Y-73150000D01*
X23085200Y-69161200D02*
X23085200Y-69297200D01*
X31547500Y-79670200D02*
X34639400Y-79670200D01*
X38718300Y-19577800D02*
X38718300Y-20112600D01*
X11340800Y-61888600D02*
X12810100Y-63357900D01*
X36072400Y-78237200D02*
X36072400Y-77397900D01*
X30498400Y-24811300D02*
X30498400Y-20077600D01*
X43265300Y-29599700D02*
X43265300Y-19968500D01*
X36072400Y-77397900D02*
X38121700Y-75348600D01*
X38718300Y-20112600D02*
X35243500Y-23587400D01*
X26067100Y-72279100D02*
X26891300Y-72279100D01*
X35243500Y-23587400D02*
X34421700Y-23587400D01*
X27999200Y-73761300D02*
X30491700Y-76253800D01*
X30491700Y-78614400D02*
X31547500Y-79670200D01*
X32561400Y-25891700D02*
X31578800Y-25891700D01*
X42719600Y-19422800D02*
X38873300Y-19422800D01*
X43265300Y-19968500D02*
X42719600Y-19422800D01*
X7518200Y-15907600D02*
X7518200Y-59195800D01*
X42260000Y-30605000D02*
X43265300Y-29599700D01*
X30498400Y-20077600D02*
X25314600Y-14893800D01*
X37120000Y-72128100D02*
X37120000Y-69340000D01*
X7518200Y-59195800D02*
X10211000Y-61888600D01*
X34639400Y-79670200D02*
X36072400Y-78237200D01*
X38873300Y-19422800D02*
X38718300Y-19577800D01*
X27999200Y-73387000D02*
X27999200Y-73761300D01*
X25314600Y-14893800D02*
X8532000Y-14893800D01*
X37120000Y-72128100D02*
X33061900Y-72128100D01*
X21979200Y-68055200D02*
X23085200Y-69161200D01*
X8532000Y-14893800D02*
X7518200Y-15907600D01*
X38121700Y-72253300D02*
X37996500Y-72128100D01*
X23085200Y-69297200D02*
X26067100Y-72279100D01*
X37996500Y-72128100D02*
X37120000Y-72128100D01*
X30491700Y-76253800D02*
X30491700Y-78614400D01*
X26891300Y-72279100D02*
X27999200Y-73387000D01*
%TO.N,A0_dn*%
X21760000Y-61085000D02*
X20490000Y-61085000D01*
X20490000Y-61085000D02*
X16680000Y-64895000D01*
%TO.N,Net-(Q21-S)*%
X20758300Y-87486700D02*
X16680000Y-91565000D01*
X20758300Y-86485000D02*
X20758300Y-87486700D01*
X21760000Y-86485000D02*
X20758300Y-86485000D01*
%TO.N,PH2*%
X49940000Y-44560100D02*
X49940000Y-41400000D01*
X46751500Y-49332900D02*
X48938300Y-47146100D01*
X35725400Y-60086300D02*
X35725400Y-59335500D01*
X35725400Y-59335500D02*
X38420100Y-56640800D01*
X45411500Y-54207200D02*
X46940900Y-55736700D01*
X48670000Y-54492800D02*
X49449100Y-53713700D01*
X46281100Y-49805300D02*
X46751500Y-49334900D01*
X46940900Y-55736700D02*
X47818800Y-55736700D01*
X59448700Y-53713700D02*
X65300000Y-59565000D01*
X49449100Y-53713700D02*
X59448700Y-53713700D01*
X45148100Y-54470600D02*
X45411500Y-54207200D01*
X34327900Y-61483800D02*
X35725400Y-60086300D01*
X26900000Y-60450000D02*
X27933800Y-61483800D01*
X46751500Y-49334900D02*
X46751500Y-49332900D01*
X47818800Y-55736700D02*
X48670000Y-54885500D01*
X9635000Y-35685000D02*
X11540000Y-33780000D01*
X26900000Y-60450000D02*
X24091700Y-57641700D01*
X65300000Y-59565000D02*
X65300000Y-59815000D01*
X9635000Y-37590000D02*
X9000000Y-37590000D01*
X38420100Y-55797800D02*
X39747300Y-54470600D01*
X48938300Y-47146100D02*
X48938300Y-45561800D01*
X14080000Y-42035000D02*
X9635000Y-37590000D01*
X14833000Y-57641700D02*
X12810000Y-55618700D01*
X24091700Y-57641700D02*
X14833000Y-57641700D01*
X12810000Y-54546400D02*
X10890500Y-52626900D01*
X38420100Y-56640800D02*
X38420100Y-55797800D01*
X27933800Y-61483800D02*
X34327900Y-61483800D01*
X12810000Y-55618700D02*
X12810000Y-54546400D01*
X46279600Y-53339100D02*
X46279600Y-52175500D01*
X46279600Y-52175500D02*
X46281100Y-52174000D01*
X48670000Y-54885500D02*
X48670000Y-54492800D01*
X46281100Y-52174000D02*
X46281100Y-49805300D01*
X45411500Y-54207200D02*
X46279600Y-53339100D01*
X48938300Y-45561800D02*
X49940000Y-44560100D01*
X9635000Y-37590000D02*
X9635000Y-35685000D01*
X39747300Y-54470600D02*
X45148100Y-54470600D01*
%TO.N,OUT0_m2*%
X55715000Y-77595000D02*
X55080000Y-77595000D01*
X60160000Y-82040000D02*
X55715000Y-77595000D01*
%TO.N,BD0*%
X74250000Y-60450000D02*
X74250000Y-69340000D01*
X74250000Y-69340000D02*
X72980000Y-70610000D01*
X74250000Y-60450000D02*
X74250000Y-59662700D01*
X75520000Y-60450000D02*
X74250000Y-60450000D01*
X70592300Y-56005000D02*
X70440000Y-56005000D01*
X74250000Y-59662700D02*
X70592300Y-56005000D01*
%TO.N,OUT0_sb*%
X68520100Y-64260000D02*
X67840000Y-64260000D01*
X66570000Y-64260000D02*
X67840000Y-64260000D01*
X62760000Y-68070000D02*
X66570000Y-64260000D01*
X72449200Y-58783500D02*
X71663100Y-59569600D01*
X71663100Y-59569600D02*
X71663100Y-61117000D01*
X71663100Y-61117000D02*
X68520100Y-64260000D01*
%TO.N,Net-(Q59-S)*%
X48670100Y-45209900D02*
X47400000Y-46480000D01*
X52480000Y-41400000D02*
X51478300Y-41400000D01*
X50472000Y-40393700D02*
X49527700Y-40393700D01*
X48670100Y-41251300D02*
X48670100Y-45209900D01*
X49527700Y-40393700D02*
X48670100Y-41251300D01*
X51478300Y-41400000D02*
X50472000Y-40393700D01*
%TO.N,B0_sb*%
X51210000Y-37590000D02*
X52480000Y-37590000D01*
X47400000Y-41400000D02*
X51210000Y-37590000D01*
%TO.N,CLKN*%
X10044500Y-34591500D02*
X7910200Y-36725800D01*
X9635000Y-16000000D02*
X14080000Y-20445000D01*
X7910200Y-36725800D02*
X7910200Y-38405200D01*
X11246200Y-32651400D02*
X10044500Y-33853100D01*
X14080000Y-20445000D02*
X15167700Y-21532700D01*
X10044500Y-33853100D02*
X10044500Y-34591500D01*
X15167700Y-29035400D02*
X11551700Y-32651400D01*
X7910200Y-38405200D02*
X11540000Y-42035000D01*
X9000000Y-16000000D02*
X9635000Y-16000000D01*
X15167700Y-21532700D02*
X15167700Y-29035400D01*
X11551700Y-32651400D02*
X11246200Y-32651400D01*
%TO.N,DO0*%
X55715000Y-42670000D02*
X55080000Y-42670000D01*
X60160000Y-47115000D02*
X55715000Y-42670000D01*
%TO.N,OUT0_dn*%
X60160000Y-60450000D02*
X55715000Y-56005000D01*
X55715000Y-56005000D02*
X55080000Y-56005000D01*
%TO.N,BUS0#*%
X72537600Y-71613500D02*
X71586100Y-70662000D01*
X71586100Y-70662000D02*
X71586100Y-69857100D01*
X48670000Y-68217700D02*
X47792700Y-69095000D01*
X59158300Y-69119900D02*
X59158300Y-68812700D01*
X48670000Y-67826500D02*
X48670000Y-68217700D01*
X23085000Y-61054400D02*
X23085000Y-60882700D01*
X62607400Y-69706700D02*
X59745100Y-69706700D01*
X63761700Y-68191700D02*
X63761700Y-68552400D01*
X71586100Y-69857100D02*
X68785900Y-67056900D01*
X49461400Y-67035100D02*
X48670000Y-67826500D01*
X14203700Y-58033700D02*
X11540000Y-55370000D01*
X68785900Y-67056900D02*
X64896500Y-67056900D01*
X28600800Y-66570200D02*
X23085000Y-61054400D01*
X20236000Y-58033700D02*
X14203700Y-58033700D01*
X63761700Y-68552400D02*
X62607400Y-69706700D01*
X74516500Y-71613500D02*
X72537600Y-71613500D01*
X44103000Y-66570200D02*
X28600800Y-66570200D01*
X57380700Y-67035100D02*
X49461400Y-67035100D01*
X59158300Y-68812700D02*
X57380700Y-67035100D01*
X64896500Y-67056900D02*
X63761700Y-68191700D01*
X23085000Y-60882700D02*
X20236000Y-58033700D01*
X75520000Y-70610000D02*
X74516500Y-71613500D01*
X47792700Y-69095000D02*
X46627800Y-69095000D01*
X59745100Y-69706700D02*
X59158300Y-69119900D01*
X46627800Y-69095000D02*
X44103000Y-66570200D01*
%TO.N,B0*%
X50623400Y-51511600D02*
X52480000Y-51511600D01*
X66907600Y-3798900D02*
X67780100Y-4671400D01*
X71232700Y-11249300D02*
X73430800Y-11249300D01*
X38173100Y-3798900D02*
X66907600Y-3798900D01*
X32388300Y-6061700D02*
X36509300Y-6061700D01*
X37468300Y-4503700D02*
X38173100Y-3798900D01*
X35500200Y-68265100D02*
X31030600Y-72734700D01*
X45212500Y-68265100D02*
X35500200Y-68265100D01*
X30950000Y-7500000D02*
X32388300Y-6061700D01*
X24523300Y-18323500D02*
X23358300Y-19488500D01*
X81856100Y-25723900D02*
X81856100Y-40838900D01*
X23358300Y-19488500D02*
X23358300Y-20751700D01*
X73430800Y-15997100D02*
X79168700Y-21735000D01*
X67780100Y-7796700D02*
X71232700Y-11249300D01*
X81856100Y-40838900D02*
X80660000Y-42035000D01*
X47400000Y-54735000D02*
X50623400Y-51511600D01*
X36509300Y-6061700D02*
X37468300Y-5102700D01*
X79168700Y-23036500D02*
X81856100Y-25723900D01*
X46423600Y-69476200D02*
X45212500Y-68265100D01*
X31658200Y-79275800D02*
X33534200Y-79275800D01*
X79168700Y-21735000D02*
X79168700Y-23036500D01*
X63063500Y-53196700D02*
X54165100Y-53196700D01*
X70642500Y-49857500D02*
X66402700Y-49857500D01*
X37468300Y-5102700D02*
X37468300Y-4503700D01*
X66402700Y-49857500D02*
X63063500Y-53196700D01*
X48533800Y-69476200D02*
X46423600Y-69476200D01*
X31030600Y-72734700D02*
X31030600Y-78648200D01*
X54165100Y-53196700D02*
X52480000Y-51511600D01*
X31030600Y-78648200D02*
X31658200Y-79275800D01*
X67780100Y-4671400D02*
X67780100Y-7796700D01*
X52480000Y-51511600D02*
X52480000Y-50925000D01*
X49940000Y-68070000D02*
X48533800Y-69476200D01*
X80660000Y-42035000D02*
X80660000Y-45085900D01*
X23358300Y-20751700D02*
X19220000Y-24890000D01*
X33534200Y-79275800D02*
X34580000Y-78230000D01*
X80660000Y-45085900D02*
X73550900Y-52195000D01*
X72980000Y-52195000D02*
X70642500Y-49857500D01*
X73550900Y-52195000D02*
X72980000Y-52195000D01*
%TO.N,BI*%
X63970000Y-7500000D02*
X59948200Y-11521800D01*
X59948200Y-11521800D02*
X30653800Y-11521800D01*
X30653800Y-11521800D02*
X30653800Y-11521900D01*
%TO.N,BA*%
X33528300Y-60866700D02*
X31575800Y-60866700D01*
X34580000Y-59815000D02*
X33528300Y-60866700D01*
X30988300Y-43883000D02*
X29785700Y-45085600D01*
X31575800Y-60866700D02*
X28170100Y-57461000D01*
X30988300Y-41816700D02*
X30988300Y-43883000D01*
X28170100Y-54853800D02*
X27187600Y-53871300D01*
X28170100Y-57461000D02*
X28170100Y-54853800D01*
X34580000Y-38225000D02*
X30988300Y-41816700D01*
%TO.N,OI*%
X68841700Y-60741300D02*
X68841700Y-56098200D01*
X49940000Y-78559200D02*
X49940000Y-81405000D01*
X71442600Y-54933200D02*
X76568200Y-60058800D01*
X76568200Y-60058800D02*
X76568200Y-71019000D01*
X56165100Y-54712900D02*
X62697600Y-61245400D01*
X68337600Y-61245400D02*
X68841700Y-60741300D01*
X76568200Y-71019000D02*
X72008400Y-75578800D01*
X70006700Y-54933200D02*
X71442600Y-54933200D01*
X68841700Y-56098200D02*
X70006700Y-54933200D01*
X52920400Y-75578800D02*
X49940000Y-78559200D01*
X62697600Y-61245400D02*
X68337600Y-61245400D01*
X72008400Y-75578800D02*
X52920400Y-75578800D01*
%TO.N,BON0*%
X71075000Y-42670000D02*
X70440000Y-42670000D01*
X75520000Y-47115000D02*
X71075000Y-42670000D01*
%TO.N,D0*%
X45859300Y-52552300D02*
X45859300Y-41488800D01*
X9000000Y-50925000D02*
X10158700Y-50925000D01*
X25499200Y-49825800D02*
X19536500Y-49825800D01*
X28651300Y-52977900D02*
X25499200Y-49825800D01*
X11799800Y-52859500D02*
X13786600Y-54846300D01*
X13786600Y-54846300D02*
X14080000Y-54846300D01*
X11799800Y-52566100D02*
X11799800Y-52859500D01*
X34580000Y-51560000D02*
X33162100Y-52977900D01*
X36222400Y-53202400D02*
X45209200Y-53202400D01*
X19536500Y-49825800D02*
X17950100Y-51412200D01*
X14874700Y-54846300D02*
X14080000Y-54846300D01*
X10158700Y-50925000D02*
X11799800Y-52566100D01*
X33162100Y-52977900D02*
X28651300Y-52977900D01*
X50941700Y-31960600D02*
X57377300Y-25525000D01*
X17950100Y-51770900D02*
X14874700Y-54846300D01*
X45859300Y-41488800D02*
X50941700Y-36406400D01*
X57377300Y-25525000D02*
X57620000Y-25525000D01*
X14080000Y-55370000D02*
X14080000Y-54846300D01*
X50941700Y-36406400D02*
X50941700Y-31960600D01*
X34580000Y-51560000D02*
X36222400Y-53202400D01*
X45209200Y-53202400D02*
X45859300Y-52552300D01*
X17950100Y-51412200D02*
X17950100Y-51770900D01*
%TO.N,Net-(Q38-S)*%
X36118300Y-47481700D02*
X32040000Y-51560000D01*
X37120000Y-46480000D02*
X36118300Y-46480000D01*
X36118300Y-46480000D02*
X36118300Y-47481700D01*
%TO.N,Net-(Q13-S)*%
X20758300Y-33145000D02*
X20758300Y-34146700D01*
X20758300Y-34146700D02*
X16680000Y-38225000D01*
X21760000Y-33145000D02*
X20758300Y-33145000D01*
%TO.N,Net-(Q92-S)*%
X70440000Y-47115000D02*
X71441700Y-47115000D01*
X71441700Y-47115000D02*
X74402200Y-50075500D01*
X74402200Y-50075500D02*
X74748800Y-50075500D01*
%TO.N,Net-(Q19-S)*%
X20758300Y-74151700D02*
X16680000Y-78230000D01*
X20758300Y-73150000D02*
X20758300Y-74151700D01*
X21760000Y-73150000D02*
X20758300Y-73150000D01*
%TO.N,A0_m1*%
X16680000Y-73150000D02*
X20490000Y-69340000D01*
X23060100Y-33712300D02*
X23060100Y-24958900D01*
X26900000Y-21119000D02*
X26900000Y-20445000D01*
X18218300Y-39126600D02*
X18218300Y-37810100D01*
X18847900Y-37180500D02*
X19591900Y-37180500D01*
X23060100Y-24958900D02*
X26900000Y-21119000D01*
X18218300Y-37810100D02*
X18847900Y-37180500D01*
X18719200Y-39627500D02*
X18218300Y-39126600D01*
X20490000Y-69340000D02*
X21760000Y-69340000D01*
X19591900Y-37180500D02*
X23060100Y-33712300D01*
%TO.N,Net-(Q54-S)*%
X40721700Y-87120000D02*
X40721700Y-88121700D01*
X39720000Y-87120000D02*
X40721700Y-87120000D01*
X40721700Y-88121700D02*
X44800000Y-92200000D01*
%TO.N,Net-(Q63-S)*%
X52480000Y-68070000D02*
X51478300Y-68070000D01*
X47400000Y-72146000D02*
X47400000Y-73150000D01*
X51476000Y-68070000D02*
X47400000Y-72146000D01*
X51478300Y-68070000D02*
X51476000Y-68070000D01*
%TO.N,A0_mq*%
X28170000Y-32510000D02*
X26900000Y-33780000D01*
X29440000Y-20445000D02*
X28170000Y-20445000D01*
X24360000Y-16000000D02*
X28170000Y-19810000D01*
X28170000Y-19810000D02*
X28170000Y-20445000D01*
X28170000Y-20445000D02*
X28170000Y-32510000D01*
%TO.N,A0_mqi*%
X24995000Y-42670000D02*
X24360000Y-42670000D01*
X29440000Y-47115000D02*
X24995000Y-42670000D01*
%TO.N,DO0_2*%
X60160000Y-33780000D02*
X55715000Y-29335000D01*
X55715000Y-29335000D02*
X55080000Y-29335000D01*
%TO.N,DA0_3*%
X21760000Y-29335000D02*
X20490000Y-29335000D01*
X20490000Y-29335000D02*
X16680000Y-33145000D01*
%TO.N,DB0*%
X42260000Y-38860000D02*
X42260000Y-32266600D01*
X44800000Y-20445000D02*
X44071800Y-20445000D01*
X43721500Y-30805100D02*
X43721500Y-20795300D01*
X44071800Y-20277700D02*
X39794100Y-16000000D01*
X42260000Y-32266600D02*
X43721500Y-30805100D01*
X39794100Y-16000000D02*
X39720000Y-16000000D01*
X44071800Y-20445000D02*
X44071800Y-20277700D01*
X43721500Y-20795300D02*
X44071800Y-20445000D01*
%TO.N,Net-(Q30-S)*%
X25361700Y-68705000D02*
X25361700Y-69706700D01*
X25361700Y-69706700D02*
X29440000Y-73785000D01*
X24360000Y-68705000D02*
X25361700Y-68705000D01*
%TO.N,Net-(Q28-S)*%
X25361700Y-55370000D02*
X25361700Y-56371700D01*
X25361700Y-56371700D02*
X29440000Y-60450000D01*
X24360000Y-55370000D02*
X25361700Y-55370000D01*
%TO.N,Net-(Q15-S)*%
X21760000Y-46480000D02*
X20758300Y-46480000D01*
X20758300Y-46480000D02*
X20758300Y-47481700D01*
X20758300Y-47481700D02*
X16680000Y-51560000D01*
%TO.N,DA0_1*%
X13997600Y-52589700D02*
X19220000Y-47367300D01*
X9635000Y-72515000D02*
X9000000Y-72515000D01*
X19220000Y-47367300D02*
X19220000Y-46480000D01*
X14080000Y-76960000D02*
X9635000Y-72515000D01*
X12451500Y-52589700D02*
X13997600Y-52589700D01*
%TO.N,OUT0_sa*%
X67840000Y-50925000D02*
X66570000Y-50925000D01*
X66570000Y-50925000D02*
X62760000Y-54735000D01*
%TO.N,AON0*%
X71075000Y-29335000D02*
X70440000Y-29335000D01*
X75520000Y-33780000D02*
X71075000Y-29335000D01*
%TO.N,Net-(Q82-S)*%
X66838300Y-56738400D02*
X66838300Y-59739500D01*
X67840000Y-55736700D02*
X66838300Y-56738400D01*
X67840000Y-54735000D02*
X67840000Y-55736700D01*
X66838300Y-59739500D02*
X65724600Y-60853200D01*
X65724600Y-60853200D02*
X63798200Y-60853200D01*
X63798200Y-60853200D02*
X62760000Y-59815000D01*
%TO.N,B0_m1*%
X40790600Y-45341400D02*
X39720000Y-44270800D01*
X43026400Y-45341400D02*
X40790600Y-45341400D01*
X44800000Y-47115000D02*
X43026400Y-45341400D01*
X39720000Y-44270800D02*
X39720000Y-42670000D01*
%TO.N,Net-(Q66-S)*%
X56081700Y-20445000D02*
X56081700Y-21446700D01*
X56081700Y-21446700D02*
X60160000Y-25525000D01*
X55080000Y-20445000D02*
X56081700Y-20445000D01*
%TO.N,DO0_1*%
X60160000Y-20445000D02*
X55715000Y-16000000D01*
X55715000Y-16000000D02*
X55080000Y-16000000D01*
%TO.N,DB0_1*%
X38647100Y-41142900D02*
X37120000Y-42670000D01*
X38647100Y-24057900D02*
X38647100Y-41142900D01*
X42260000Y-20445000D02*
X38647100Y-24057900D01*
X32040000Y-46480000D02*
X35850000Y-42670000D01*
X35850000Y-42670000D02*
X37120000Y-42670000D01*
%TO.N,OIN*%
X53842600Y-47480600D02*
X52232700Y-49090500D01*
X53842600Y-37557400D02*
X53842600Y-47480600D01*
X57620000Y-33780000D02*
X53842600Y-37557400D01*
%TO.N,Net-(Q75-S)*%
X57982200Y-80985500D02*
X58621700Y-81625000D01*
X55080000Y-82040000D02*
X55936100Y-82040000D01*
X58621700Y-85581700D02*
X60160000Y-87120000D01*
X58621700Y-81625000D02*
X58621700Y-85581700D01*
X56990600Y-80985500D02*
X57982200Y-80985500D01*
X55936100Y-82040000D02*
X56990600Y-80985500D01*
%TO.N,Net-(Q34-S)*%
X36118300Y-19810000D02*
X36118300Y-20811700D01*
X37120000Y-19810000D02*
X36118300Y-19810000D01*
X36118300Y-20811700D02*
X32040000Y-24890000D01*
%TO.N,Net-(Q40-S)*%
X32040000Y-64895000D02*
X36118300Y-60816700D01*
X37120000Y-59815000D02*
X36118300Y-59815000D01*
X36118300Y-60816700D02*
X36118300Y-59815000D01*
%TO.N,DB0_2*%
X41161400Y-39309700D02*
X38420100Y-42051000D01*
X41161400Y-26623600D02*
X41161400Y-39309700D01*
X38420100Y-42051000D02*
X38420100Y-47055400D01*
X42260000Y-25525000D02*
X41161400Y-26623600D01*
X36460000Y-55098500D02*
X35146300Y-53784800D01*
X32040000Y-59815000D02*
X36460000Y-55395000D01*
X38420100Y-47055400D02*
X35630100Y-49845400D01*
X36510000Y-55395000D02*
X37120000Y-56005000D01*
X35367000Y-49845400D02*
X35367000Y-49845500D01*
X36460000Y-55395000D02*
X36510000Y-55395000D01*
X35630100Y-49845400D02*
X35367000Y-49845400D01*
X36460000Y-55395000D02*
X36460000Y-55098500D01*
%TO.N,Net-(Q50-S)*%
X40576100Y-61306100D02*
X44800000Y-65530000D01*
X40576100Y-60450000D02*
X40576100Y-61306100D01*
X39720000Y-60450000D02*
X40576100Y-60450000D01*
%TO.N,OUT0_mqi*%
X66570000Y-42670000D02*
X67840000Y-42670000D01*
X62760000Y-46480000D02*
X66570000Y-42670000D01*
%TO.N,Net-(Q90-S)*%
X71441700Y-35783400D02*
X71441700Y-38784600D01*
X71441700Y-38784600D02*
X72555300Y-39898200D01*
X70440000Y-34781700D02*
X71441700Y-35783400D01*
X74481800Y-39898200D02*
X75520000Y-38860000D01*
X70440000Y-33780000D02*
X70440000Y-34781700D01*
X72555300Y-39898200D02*
X74481800Y-39898200D01*
%TO.N,Net-(Q16-S)*%
X20758300Y-52561700D02*
X16680000Y-56640000D01*
X20758300Y-51560000D02*
X20758300Y-52561700D01*
X21760000Y-51560000D02*
X20758300Y-51560000D01*
%TO.N,B0_m2*%
X44800000Y-60450000D02*
X40355000Y-56005000D01*
X40355000Y-56005000D02*
X39720000Y-56005000D01*
%TO.N,Net-(Q10-D)*%
X9000000Y-76960000D02*
X10001700Y-76960000D01*
X10001700Y-77961700D02*
X14080000Y-82040000D01*
X10001700Y-76960000D02*
X10001700Y-77961700D01*
%TO.N,Net-(Q68-S)*%
X58151500Y-32774300D02*
X58643000Y-33265800D01*
X59121800Y-39898200D02*
X60160000Y-38860000D01*
X56605600Y-37252200D02*
X56605600Y-39308400D01*
X55080000Y-33780000D02*
X56081700Y-33780000D01*
X57195400Y-39898200D02*
X59121800Y-39898200D01*
X58643000Y-35214800D02*
X56605600Y-37252200D01*
X56081700Y-33780000D02*
X57087400Y-32774300D01*
X58643000Y-33265800D02*
X58643000Y-35214800D01*
X56605600Y-39308400D02*
X57195400Y-39898200D01*
X57087400Y-32774300D02*
X58151500Y-32774300D01*
%TO.N,Net-(Q84-S)*%
X66838300Y-68070000D02*
X66838300Y-69071700D01*
X66838300Y-69071700D02*
X62760000Y-73150000D01*
X67840000Y-68070000D02*
X66838300Y-68070000D01*
%TO.N,Net-(Q70-S)*%
X55080000Y-47115000D02*
X56081700Y-47115000D01*
X56081700Y-47115000D02*
X56081700Y-48116700D01*
X56081700Y-48116700D02*
X60160000Y-52195000D01*
%TO.N,Net-(Q73-S)*%
X56081700Y-69706700D02*
X60160000Y-73785000D01*
X55080000Y-68705000D02*
X56081700Y-68705000D01*
X56081700Y-68705000D02*
X56081700Y-69706700D01*
%TD*%
M02*
