M48
; DRILL file KiCad 10.0.5 date 2026-10-01T13:27:39
; FORMAT={-:-/ absolute / metric / decimal}
; #@! TF.CreationDate,2026-10-01T13:27:39-04:00
; #@! TF.GenerationSoftware,Kicad,Pcbnew,10.0.5
; #@! TF.FileFunction,MixedPlating,1,2
FMAT,2
METRIC
; #@! TA.AperFunction,Plated,PTH,ViaDrill
T1C0.400
; #@! TA.AperFunction,Plated,PTH,ComponentDrill
T2C0.800
; #@! TA.AperFunction,Plated,PTH,ComponentDrill
T3C0.900
; #@! TA.AperFunction,Plated,PTH,ComponentDrill
T4C1.000
; #@! TA.AperFunction,Plated,PTH,ComponentDrill
T5C3.200
%
G90
G05
T1
X7.73Y-12.5
X10.63Y-14.0
X11.386Y-46.948
X15.41Y-14.0
X18.25Y-2.46
X19.935Y-61.327
X22.051Y-52.318
X23.09Y-12.5
X26.24Y-68.714
X30.77Y-14.0
X34.313Y-59.37
X38.45Y-12.5
X46.13Y-14.0
X53.81Y-12.5
X55.5Y-31.7
X62.468Y-38.12
X65.5Y-21.54
X66.0Y-47.0
X79.5Y-47.08
X79.5Y-59.08
X79.5Y-69.08
X89.37Y-2.46
X89.37Y-14.0
X95.0Y-21.5
X95.0Y-30.5
T2
X9.0Y-16.0
X9.0Y-20.445
X9.0Y-24.255
X9.0Y-28.7
X9.0Y-32.51
X9.0Y-36.955
X9.0Y-40.765
X9.0Y-45.21
X9.0Y-50.29
X9.0Y-55.37
X9.0Y-59.18
X9.0Y-63.625
X9.0Y-67.435
X9.0Y-71.88
X9.0Y-76.96
X9.0Y-83.31
X9.0Y-88.39
X11.54Y-20.445
X11.54Y-28.7
X11.54Y-36.955
X11.54Y-45.21
X11.54Y-50.29
X11.54Y-55.37
X11.54Y-63.625
X11.54Y-71.88
X11.54Y-76.96
X14.08Y-16.0
X14.08Y-20.445
X14.08Y-24.255
X14.08Y-28.7
X14.08Y-32.51
X14.08Y-36.955
X14.08Y-40.765
X14.08Y-45.21
X14.08Y-50.29
X14.08Y-55.37
X14.08Y-59.18
X14.08Y-63.625
X14.08Y-67.435
X14.08Y-71.88
X14.08Y-76.96
X14.08Y-83.31
X14.08Y-88.39
X16.68Y-16.0
X16.68Y-19.81
X16.68Y-24.255
X16.68Y-28.065
X16.68Y-32.51
X16.68Y-36.32
X16.68Y-40.765
X16.68Y-44.575
X16.68Y-49.655
X16.68Y-54.735
X16.68Y-59.18
X16.68Y-62.99
X16.68Y-68.07
X16.68Y-72.515
X16.68Y-76.325
X16.68Y-83.31
X19.22Y-19.81
X19.22Y-28.065
X19.22Y-36.32
X19.22Y-44.575
X19.22Y-49.655
X19.22Y-54.735
X19.22Y-62.99
X19.22Y-68.07
X19.22Y-76.325
X21.76Y-16.0
X21.76Y-19.81
X21.76Y-24.255
X21.76Y-28.065
X21.76Y-32.51
X21.76Y-36.32
X21.76Y-40.765
X21.76Y-44.575
X21.76Y-49.655
X21.76Y-54.735
X21.76Y-59.18
X21.76Y-62.99
X21.76Y-68.07
X21.76Y-72.515
X21.76Y-76.325
X21.76Y-83.31
X24.36Y-16.0
X24.36Y-20.445
X24.36Y-24.255
X24.36Y-28.7
X24.36Y-32.51
X24.36Y-36.955
X24.36Y-42.035
X24.36Y-45.845
X24.36Y-50.29
X24.36Y-54.1
X24.36Y-58.545
X24.36Y-63.625
X24.36Y-67.435
X24.36Y-71.88
X24.36Y-76.96
X24.36Y-82.04
X26.9Y-20.445
X26.9Y-28.7
X26.9Y-36.955
X26.9Y-42.035
X26.9Y-50.29
X26.9Y-58.545
X26.9Y-63.625
X26.9Y-71.88
X26.9Y-76.96
X26.9Y-82.04
X29.44Y-16.0
X29.44Y-20.445
X29.44Y-24.255
X29.44Y-28.7
X29.44Y-32.51
X29.44Y-36.955
X29.44Y-42.035
X29.44Y-45.845
X29.44Y-50.29
X29.44Y-54.1
X29.44Y-58.545
X29.44Y-63.625
X29.44Y-67.435
X29.44Y-71.88
X29.44Y-76.96
X29.44Y-82.04
X32.04Y-16.0
X32.04Y-19.81
X32.04Y-24.255
X32.04Y-28.065
X32.04Y-32.51
X32.04Y-36.32
X32.04Y-40.765
X32.04Y-44.575
X32.04Y-49.02
X32.04Y-52.83
X32.04Y-57.275
X32.04Y-61.085
X32.04Y-66.165
X32.04Y-70.61
X32.04Y-74.42
X32.04Y-78.865
X32.04Y-89.66
X34.58Y-19.81
X34.58Y-28.065
X34.58Y-36.32
X34.58Y-44.575
X34.58Y-52.83
X34.58Y-61.085
X34.58Y-66.165
X34.58Y-74.42
X34.58Y-89.66
X37.12Y-16.0
X37.12Y-19.81
X37.12Y-24.255
X37.12Y-28.065
X37.12Y-32.51
X37.12Y-36.32
X37.12Y-40.765
X37.12Y-44.575
X37.12Y-49.02
X37.12Y-52.83
X37.12Y-57.275
X37.12Y-61.085
X37.12Y-66.165
X37.12Y-70.61
X37.12Y-74.42
X37.12Y-78.865
X37.12Y-89.66
X39.72Y-16.0
X39.72Y-20.445
X39.72Y-24.255
X39.72Y-28.7
X39.72Y-32.51
X39.72Y-36.955
X39.72Y-40.765
X39.72Y-45.21
X39.72Y-49.02
X39.72Y-53.465
X39.72Y-57.275
X39.72Y-61.72
X39.72Y-66.8
X39.72Y-71.88
X39.72Y-75.69
X39.72Y-80.135
X39.72Y-86.485
X42.26Y-20.445
X42.26Y-28.7
X42.26Y-36.955
X42.26Y-45.21
X42.26Y-53.465
X42.26Y-61.72
X42.26Y-66.8
X42.26Y-71.88
X42.26Y-80.135
X44.8Y-16.0
X44.8Y-20.445
X44.8Y-24.255
X44.8Y-28.7
X44.8Y-32.51
X44.8Y-36.955
X44.8Y-40.765
X44.8Y-45.21
X44.8Y-49.02
X44.8Y-53.465
X44.8Y-57.275
X44.8Y-61.72
X44.8Y-66.8
X44.8Y-71.88
X44.8Y-75.69
X44.8Y-80.135
X44.8Y-86.485
X47.4Y-16.0
X47.4Y-19.81
X47.4Y-24.255
X47.4Y-28.065
X47.4Y-32.51
X47.4Y-36.32
X47.4Y-40.765
X47.4Y-44.575
X47.4Y-49.02
X47.4Y-52.83
X47.4Y-57.91
X47.4Y-62.355
X47.4Y-66.165
X47.4Y-71.245
X47.4Y-75.69
X47.4Y-79.5
X47.4Y-86.485
X49.94Y-19.81
X49.94Y-28.065
X49.94Y-36.32
X49.94Y-44.575
X49.94Y-52.83
X49.94Y-57.91
X49.94Y-66.165
X49.94Y-71.245
X49.94Y-79.5
X52.48Y-16.0
X52.48Y-19.81
X52.48Y-24.255
X52.48Y-28.065
X52.48Y-32.51
X52.48Y-36.32
X52.48Y-40.765
X52.48Y-44.575
X52.48Y-49.02
X52.48Y-52.83
X52.48Y-57.91
X52.48Y-62.355
X52.48Y-66.165
X52.48Y-71.245
X52.48Y-75.69
X52.48Y-79.5
X52.48Y-86.485
X58.0Y-42.0
X58.0Y-54.0
X63.08Y-42.0
X63.08Y-54.0
X65.38Y-54.0
X65.38Y-64.0
X66.0Y-42.0
X66.0Y-44.5
X72.0Y-36.0
X73.0Y-54.0
X73.0Y-64.0
X74.54Y-36.0
X76.0Y-24.0
X76.0Y-29.08
X77.0Y-42.0
X77.0Y-47.08
X77.0Y-54.0
X77.0Y-59.08
X77.0Y-64.0
X77.0Y-69.08
X77.08Y-36.0
X82.0Y-36.0
X84.0Y-24.0
X84.0Y-29.08
X84.54Y-36.0
X87.08Y-36.0
X88.0Y-14.0
X88.0Y-19.08
X95.0Y-16.5
X95.0Y-19.0
X95.0Y-26.0
X95.0Y-28.0
T3
X34.58Y-82.675
X34.58Y-85.215
T4
X10.63Y-4.96
X10.63Y-7.5
X13.17Y-4.96
X13.17Y-7.5
X15.71Y-4.96
X15.71Y-7.5
X18.25Y-4.96
X18.25Y-7.5
X20.79Y-4.96
X20.79Y-7.5
X23.33Y-4.96
X23.33Y-7.5
X25.87Y-4.96
X25.87Y-7.5
X28.41Y-4.96
X28.41Y-7.5
X30.95Y-4.96
X30.95Y-7.5
X33.49Y-4.96
X33.49Y-7.5
X36.03Y-4.96
X36.03Y-7.5
X38.57Y-4.96
X38.57Y-7.5
X41.11Y-4.96
X41.11Y-7.5
X43.65Y-4.96
X43.65Y-7.5
X46.19Y-4.96
X46.19Y-7.5
X48.73Y-4.96
X48.73Y-7.5
X51.27Y-4.96
X51.27Y-7.5
X53.81Y-4.96
X53.81Y-7.5
X56.35Y-4.96
X56.35Y-7.5
X58.0Y-19.0
X58.0Y-21.54
X58.0Y-24.08
X58.0Y-26.62
X58.0Y-29.16
X58.0Y-31.7
X58.0Y-78.0
X58.0Y-88.0
X58.89Y-4.96
X58.89Y-7.5
X61.43Y-4.96
X61.43Y-7.5
X63.0Y-78.0
X63.0Y-88.0
X63.97Y-4.96
X63.97Y-7.5
X66.51Y-4.96
X66.51Y-7.5
X68.0Y-19.0
X68.0Y-21.54
X68.0Y-78.0
X68.0Y-88.0
X69.05Y-4.96
X69.05Y-7.5
X71.59Y-4.96
X71.59Y-7.5
X73.0Y-78.0
X73.0Y-88.0
X74.13Y-4.96
X74.13Y-7.5
X76.67Y-4.96
X76.67Y-7.5
X78.0Y-78.0
X78.0Y-88.0
X79.21Y-4.96
X79.21Y-7.5
X81.75Y-4.96
X81.75Y-7.5
X83.0Y-78.0
X83.0Y-88.0
X84.29Y-4.96
X84.29Y-7.5
X86.83Y-4.96
X86.83Y-7.5
X88.0Y-78.0
X88.0Y-88.0
X89.37Y-4.96
X89.37Y-7.5
X93.0Y-78.0
T5
X4.0Y-50.0
X96.0Y-50.0
M30
