%TF.GenerationSoftware,KiCad,Pcbnew,10.0.5*%
%TF.CreationDate,2026-09-11T06:26:47-04:00*%
%TF.ProjectId,coupon,636f7570-6f6e-42e6-9b69-6361645f7063,rev?*%
%TF.SameCoordinates,Original*%
%TF.FileFunction,Legend,Top*%
%TF.FilePolarity,Positive*%
%FSLAX46Y46*%
G04 Gerber Fmt 4.6, Leading zero omitted, Abs format (unit mm)*
G04 Created by KiCad (PCBNEW 10.0.5) date 2026-09-11 06:26:47*
%MOMM*%
%LPD*%
G01*
G04 APERTURE LIST*
%ADD10C,0.150000*%
%ADD11C,0.250000*%
%ADD12C,0.120000*%
G04 APERTURE END LIST*
D10*
X29589160Y-76672295D02*
X29589160Y-75872295D01*
X29970112Y-76672295D02*
X29970112Y-75872295D01*
X29970112Y-75872295D02*
X30427255Y-76672295D01*
X30427255Y-76672295D02*
X30427255Y-75872295D01*
X35289160Y-21862295D02*
X35289160Y-21062295D01*
X35670112Y-21862295D02*
X35670112Y-21062295D01*
X35670112Y-21062295D02*
X36127255Y-21862295D01*
X36127255Y-21862295D02*
X36127255Y-21062295D01*
X35289160Y-24362295D02*
X35289160Y-23562295D01*
X35289160Y-23562295D02*
X35746303Y-24362295D01*
X35746303Y-24362295D02*
X35746303Y-23562295D01*
X36546302Y-24362295D02*
X36089159Y-24362295D01*
X36317731Y-24362295D02*
X36317731Y-23562295D01*
X36317731Y-23562295D02*
X36241540Y-23676580D01*
X36241540Y-23676580D02*
X36165350Y-23752771D01*
X36165350Y-23752771D02*
X36089159Y-23790866D01*
X35289160Y-26962295D02*
X35289160Y-26162295D01*
X35289160Y-26162295D02*
X35746303Y-26962295D01*
X35746303Y-26962295D02*
X35746303Y-26162295D01*
X36089159Y-26238485D02*
X36127255Y-26200390D01*
X36127255Y-26200390D02*
X36203445Y-26162295D01*
X36203445Y-26162295D02*
X36393921Y-26162295D01*
X36393921Y-26162295D02*
X36470112Y-26200390D01*
X36470112Y-26200390D02*
X36508207Y-26238485D01*
X36508207Y-26238485D02*
X36546302Y-26314676D01*
X36546302Y-26314676D02*
X36546302Y-26390866D01*
X36546302Y-26390866D02*
X36508207Y-26505152D01*
X36508207Y-26505152D02*
X36051064Y-26962295D01*
X36051064Y-26962295D02*
X36546302Y-26962295D01*
X35289160Y-29462295D02*
X35289160Y-28662295D01*
X35289160Y-28662295D02*
X35746303Y-29462295D01*
X35746303Y-29462295D02*
X35746303Y-28662295D01*
X36051064Y-28662295D02*
X36546302Y-28662295D01*
X36546302Y-28662295D02*
X36279636Y-28967057D01*
X36279636Y-28967057D02*
X36393921Y-28967057D01*
X36393921Y-28967057D02*
X36470112Y-29005152D01*
X36470112Y-29005152D02*
X36508207Y-29043247D01*
X36508207Y-29043247D02*
X36546302Y-29119438D01*
X36546302Y-29119438D02*
X36546302Y-29309914D01*
X36546302Y-29309914D02*
X36508207Y-29386104D01*
X36508207Y-29386104D02*
X36470112Y-29424200D01*
X36470112Y-29424200D02*
X36393921Y-29462295D01*
X36393921Y-29462295D02*
X36165350Y-29462295D01*
X36165350Y-29462295D02*
X36089159Y-29424200D01*
X36089159Y-29424200D02*
X36051064Y-29386104D01*
X38246303Y-60362295D02*
X37979636Y-59981342D01*
X37789160Y-60362295D02*
X37789160Y-59562295D01*
X37789160Y-59562295D02*
X38093922Y-59562295D01*
X38093922Y-59562295D02*
X38170112Y-59600390D01*
X38170112Y-59600390D02*
X38208207Y-59638485D01*
X38208207Y-59638485D02*
X38246303Y-59714676D01*
X38246303Y-59714676D02*
X38246303Y-59828961D01*
X38246303Y-59828961D02*
X38208207Y-59905152D01*
X38208207Y-59905152D02*
X38170112Y-59943247D01*
X38170112Y-59943247D02*
X38093922Y-59981342D01*
X38093922Y-59981342D02*
X37789160Y-59981342D01*
X38589160Y-60362295D02*
X38589160Y-59562295D01*
X38970112Y-60362295D02*
X38970112Y-59562295D01*
X38970112Y-59562295D02*
X39427255Y-60362295D01*
X39427255Y-60362295D02*
X39427255Y-59562295D01*
X40227254Y-59600390D02*
X40151064Y-59562295D01*
X40151064Y-59562295D02*
X40036778Y-59562295D01*
X40036778Y-59562295D02*
X39922492Y-59600390D01*
X39922492Y-59600390D02*
X39846302Y-59676580D01*
X39846302Y-59676580D02*
X39808207Y-59752771D01*
X39808207Y-59752771D02*
X39770111Y-59905152D01*
X39770111Y-59905152D02*
X39770111Y-60019438D01*
X39770111Y-60019438D02*
X39808207Y-60171819D01*
X39808207Y-60171819D02*
X39846302Y-60248009D01*
X39846302Y-60248009D02*
X39922492Y-60324200D01*
X39922492Y-60324200D02*
X40036778Y-60362295D01*
X40036778Y-60362295D02*
X40112969Y-60362295D01*
X40112969Y-60362295D02*
X40227254Y-60324200D01*
X40227254Y-60324200D02*
X40265350Y-60286104D01*
X40265350Y-60286104D02*
X40265350Y-60019438D01*
X40265350Y-60019438D02*
X40112969Y-60019438D01*
X40174874Y-51562295D02*
X40632017Y-51562295D01*
X40403445Y-52362295D02*
X40403445Y-51562295D01*
X40898684Y-51943247D02*
X41165350Y-51943247D01*
X41279636Y-52362295D02*
X40898684Y-52362295D01*
X40898684Y-52362295D02*
X40898684Y-51562295D01*
X40898684Y-51562295D02*
X41279636Y-51562295D01*
X41584398Y-52324200D02*
X41698684Y-52362295D01*
X41698684Y-52362295D02*
X41889160Y-52362295D01*
X41889160Y-52362295D02*
X41965351Y-52324200D01*
X41965351Y-52324200D02*
X42003446Y-52286104D01*
X42003446Y-52286104D02*
X42041541Y-52209914D01*
X42041541Y-52209914D02*
X42041541Y-52133723D01*
X42041541Y-52133723D02*
X42003446Y-52057533D01*
X42003446Y-52057533D02*
X41965351Y-52019438D01*
X41965351Y-52019438D02*
X41889160Y-51981342D01*
X41889160Y-51981342D02*
X41736779Y-51943247D01*
X41736779Y-51943247D02*
X41660589Y-51905152D01*
X41660589Y-51905152D02*
X41622494Y-51867057D01*
X41622494Y-51867057D02*
X41584398Y-51790866D01*
X41584398Y-51790866D02*
X41584398Y-51714676D01*
X41584398Y-51714676D02*
X41622494Y-51638485D01*
X41622494Y-51638485D02*
X41660589Y-51600390D01*
X41660589Y-51600390D02*
X41736779Y-51562295D01*
X41736779Y-51562295D02*
X41927256Y-51562295D01*
X41927256Y-51562295D02*
X42041541Y-51600390D01*
X42270113Y-51562295D02*
X42727256Y-51562295D01*
X42498684Y-52362295D02*
X42498684Y-51562295D01*
X43984399Y-52362295D02*
X43603447Y-52362295D01*
X43603447Y-52362295D02*
X43603447Y-51562295D01*
X44403447Y-51562295D02*
X44555828Y-51562295D01*
X44555828Y-51562295D02*
X44632018Y-51600390D01*
X44632018Y-51600390D02*
X44708209Y-51676580D01*
X44708209Y-51676580D02*
X44746304Y-51828961D01*
X44746304Y-51828961D02*
X44746304Y-52095628D01*
X44746304Y-52095628D02*
X44708209Y-52248009D01*
X44708209Y-52248009D02*
X44632018Y-52324200D01*
X44632018Y-52324200D02*
X44555828Y-52362295D01*
X44555828Y-52362295D02*
X44403447Y-52362295D01*
X44403447Y-52362295D02*
X44327256Y-52324200D01*
X44327256Y-52324200D02*
X44251066Y-52248009D01*
X44251066Y-52248009D02*
X44212970Y-52095628D01*
X44212970Y-52095628D02*
X44212970Y-51828961D01*
X44212970Y-51828961D02*
X44251066Y-51676580D01*
X44251066Y-51676580D02*
X44327256Y-51600390D01*
X44327256Y-51600390D02*
X44403447Y-51562295D01*
X45241542Y-51562295D02*
X45393923Y-51562295D01*
X45393923Y-51562295D02*
X45470113Y-51600390D01*
X45470113Y-51600390D02*
X45546304Y-51676580D01*
X45546304Y-51676580D02*
X45584399Y-51828961D01*
X45584399Y-51828961D02*
X45584399Y-52095628D01*
X45584399Y-52095628D02*
X45546304Y-52248009D01*
X45546304Y-52248009D02*
X45470113Y-52324200D01*
X45470113Y-52324200D02*
X45393923Y-52362295D01*
X45393923Y-52362295D02*
X45241542Y-52362295D01*
X45241542Y-52362295D02*
X45165351Y-52324200D01*
X45165351Y-52324200D02*
X45089161Y-52248009D01*
X45089161Y-52248009D02*
X45051065Y-52095628D01*
X45051065Y-52095628D02*
X45051065Y-51828961D01*
X45051065Y-51828961D02*
X45089161Y-51676580D01*
X45089161Y-51676580D02*
X45165351Y-51600390D01*
X45165351Y-51600390D02*
X45241542Y-51562295D01*
X45927256Y-52362295D02*
X45927256Y-51562295D01*
X45927256Y-51562295D02*
X46232018Y-51562295D01*
X46232018Y-51562295D02*
X46308208Y-51600390D01*
X46308208Y-51600390D02*
X46346303Y-51638485D01*
X46346303Y-51638485D02*
X46384399Y-51714676D01*
X46384399Y-51714676D02*
X46384399Y-51828961D01*
X46384399Y-51828961D02*
X46346303Y-51905152D01*
X46346303Y-51905152D02*
X46308208Y-51943247D01*
X46308208Y-51943247D02*
X46232018Y-51981342D01*
X46232018Y-51981342D02*
X45927256Y-51981342D01*
X46689160Y-52324200D02*
X46803446Y-52362295D01*
X46803446Y-52362295D02*
X46993922Y-52362295D01*
X46993922Y-52362295D02*
X47070113Y-52324200D01*
X47070113Y-52324200D02*
X47108208Y-52286104D01*
X47108208Y-52286104D02*
X47146303Y-52209914D01*
X47146303Y-52209914D02*
X47146303Y-52133723D01*
X47146303Y-52133723D02*
X47108208Y-52057533D01*
X47108208Y-52057533D02*
X47070113Y-52019438D01*
X47070113Y-52019438D02*
X46993922Y-51981342D01*
X46993922Y-51981342D02*
X46841541Y-51943247D01*
X46841541Y-51943247D02*
X46765351Y-51905152D01*
X46765351Y-51905152D02*
X46727256Y-51867057D01*
X46727256Y-51867057D02*
X46689160Y-51790866D01*
X46689160Y-51790866D02*
X46689160Y-51714676D01*
X46689160Y-51714676D02*
X46727256Y-51638485D01*
X46727256Y-51638485D02*
X46765351Y-51600390D01*
X46765351Y-51600390D02*
X46841541Y-51562295D01*
X46841541Y-51562295D02*
X47032018Y-51562295D01*
X47032018Y-51562295D02*
X47146303Y-51600390D01*
X44708207Y-33362295D02*
X44251064Y-33362295D01*
X44479636Y-33362295D02*
X44479636Y-32562295D01*
X44479636Y-32562295D02*
X44403445Y-32676580D01*
X44403445Y-32676580D02*
X44327255Y-32752771D01*
X44327255Y-32752771D02*
X44251064Y-32790866D01*
X45051065Y-33362295D02*
X45051065Y-32562295D01*
X45051065Y-32562295D02*
X45317731Y-33133723D01*
X45317731Y-33133723D02*
X45584398Y-32562295D01*
X45584398Y-32562295D02*
X45584398Y-33362295D01*
X46270113Y-33324200D02*
X46193922Y-33362295D01*
X46193922Y-33362295D02*
X46041541Y-33362295D01*
X46041541Y-33362295D02*
X45965351Y-33324200D01*
X45965351Y-33324200D02*
X45927255Y-33248009D01*
X45927255Y-33248009D02*
X45927255Y-32943247D01*
X45927255Y-32943247D02*
X45965351Y-32867057D01*
X45965351Y-32867057D02*
X46041541Y-32828961D01*
X46041541Y-32828961D02*
X46193922Y-32828961D01*
X46193922Y-32828961D02*
X46270113Y-32867057D01*
X46270113Y-32867057D02*
X46308208Y-32943247D01*
X46308208Y-32943247D02*
X46308208Y-33019438D01*
X46308208Y-33019438D02*
X45927255Y-33095628D01*
X46993922Y-32828961D02*
X46993922Y-33476580D01*
X46993922Y-33476580D02*
X46955827Y-33552771D01*
X46955827Y-33552771D02*
X46917731Y-33590866D01*
X46917731Y-33590866D02*
X46841541Y-33628961D01*
X46841541Y-33628961D02*
X46727255Y-33628961D01*
X46727255Y-33628961D02*
X46651065Y-33590866D01*
X46993922Y-33324200D02*
X46917731Y-33362295D01*
X46917731Y-33362295D02*
X46765350Y-33362295D01*
X46765350Y-33362295D02*
X46689160Y-33324200D01*
X46689160Y-33324200D02*
X46651065Y-33286104D01*
X46651065Y-33286104D02*
X46612969Y-33209914D01*
X46612969Y-33209914D02*
X46612969Y-32981342D01*
X46612969Y-32981342D02*
X46651065Y-32905152D01*
X46651065Y-32905152D02*
X46689160Y-32867057D01*
X46689160Y-32867057D02*
X46765350Y-32828961D01*
X46765350Y-32828961D02*
X46917731Y-32828961D01*
X46917731Y-32828961D02*
X46993922Y-32867057D01*
X47984399Y-33362295D02*
X47984399Y-32562295D01*
X47984399Y-32562295D02*
X48289161Y-32562295D01*
X48289161Y-32562295D02*
X48365351Y-32600390D01*
X48365351Y-32600390D02*
X48403446Y-32638485D01*
X48403446Y-32638485D02*
X48441542Y-32714676D01*
X48441542Y-32714676D02*
X48441542Y-32828961D01*
X48441542Y-32828961D02*
X48403446Y-32905152D01*
X48403446Y-32905152D02*
X48365351Y-32943247D01*
X48365351Y-32943247D02*
X48289161Y-32981342D01*
X48289161Y-32981342D02*
X47984399Y-32981342D01*
X48784399Y-32562295D02*
X48784399Y-33209914D01*
X48784399Y-33209914D02*
X48822494Y-33286104D01*
X48822494Y-33286104D02*
X48860589Y-33324200D01*
X48860589Y-33324200D02*
X48936780Y-33362295D01*
X48936780Y-33362295D02*
X49089161Y-33362295D01*
X49089161Y-33362295D02*
X49165351Y-33324200D01*
X49165351Y-33324200D02*
X49203446Y-33286104D01*
X49203446Y-33286104D02*
X49241542Y-33209914D01*
X49241542Y-33209914D02*
X49241542Y-32562295D01*
X50003446Y-33362295D02*
X49622494Y-33362295D01*
X49622494Y-33362295D02*
X49622494Y-32562295D01*
X50651065Y-33362295D02*
X50270113Y-33362295D01*
X50270113Y-33362295D02*
X50270113Y-32562295D01*
X50917732Y-33057533D02*
X51527256Y-33057533D01*
X51908208Y-33362295D02*
X51908208Y-32562295D01*
X51908208Y-32562295D02*
X52098684Y-32562295D01*
X52098684Y-32562295D02*
X52212970Y-32600390D01*
X52212970Y-32600390D02*
X52289160Y-32676580D01*
X52289160Y-32676580D02*
X52327255Y-32752771D01*
X52327255Y-32752771D02*
X52365351Y-32905152D01*
X52365351Y-32905152D02*
X52365351Y-33019438D01*
X52365351Y-33019438D02*
X52327255Y-33171819D01*
X52327255Y-33171819D02*
X52289160Y-33248009D01*
X52289160Y-33248009D02*
X52212970Y-33324200D01*
X52212970Y-33324200D02*
X52098684Y-33362295D01*
X52098684Y-33362295D02*
X51908208Y-33362295D01*
X52860589Y-32562295D02*
X53012970Y-32562295D01*
X53012970Y-32562295D02*
X53089160Y-32600390D01*
X53089160Y-32600390D02*
X53165351Y-32676580D01*
X53165351Y-32676580D02*
X53203446Y-32828961D01*
X53203446Y-32828961D02*
X53203446Y-33095628D01*
X53203446Y-33095628D02*
X53165351Y-33248009D01*
X53165351Y-33248009D02*
X53089160Y-33324200D01*
X53089160Y-33324200D02*
X53012970Y-33362295D01*
X53012970Y-33362295D02*
X52860589Y-33362295D01*
X52860589Y-33362295D02*
X52784398Y-33324200D01*
X52784398Y-33324200D02*
X52708208Y-33248009D01*
X52708208Y-33248009D02*
X52670112Y-33095628D01*
X52670112Y-33095628D02*
X52670112Y-32828961D01*
X52670112Y-32828961D02*
X52708208Y-32676580D01*
X52708208Y-32676580D02*
X52784398Y-32600390D01*
X52784398Y-32600390D02*
X52860589Y-32562295D01*
X53470112Y-32562295D02*
X53660588Y-33362295D01*
X53660588Y-33362295D02*
X53812969Y-32790866D01*
X53812969Y-32790866D02*
X53965350Y-33362295D01*
X53965350Y-33362295D02*
X54155827Y-32562295D01*
X54460589Y-33362295D02*
X54460589Y-32562295D01*
X54460589Y-32562295D02*
X54917732Y-33362295D01*
X54917732Y-33362295D02*
X54917732Y-32562295D01*
X55260588Y-33324200D02*
X55374874Y-33362295D01*
X55374874Y-33362295D02*
X55565350Y-33362295D01*
X55565350Y-33362295D02*
X55641541Y-33324200D01*
X55641541Y-33324200D02*
X55679636Y-33286104D01*
X55679636Y-33286104D02*
X55717731Y-33209914D01*
X55717731Y-33209914D02*
X55717731Y-33133723D01*
X55717731Y-33133723D02*
X55679636Y-33057533D01*
X55679636Y-33057533D02*
X55641541Y-33019438D01*
X55641541Y-33019438D02*
X55565350Y-32981342D01*
X55565350Y-32981342D02*
X55412969Y-32943247D01*
X55412969Y-32943247D02*
X55336779Y-32905152D01*
X55336779Y-32905152D02*
X55298684Y-32867057D01*
X55298684Y-32867057D02*
X55260588Y-32790866D01*
X55260588Y-32790866D02*
X55260588Y-32714676D01*
X55260588Y-32714676D02*
X55298684Y-32638485D01*
X55298684Y-32638485D02*
X55336779Y-32600390D01*
X55336779Y-32600390D02*
X55412969Y-32562295D01*
X55412969Y-32562295D02*
X55603446Y-32562295D01*
X55603446Y-32562295D02*
X55717731Y-32600390D01*
X46055826Y-59943247D02*
X45789160Y-59943247D01*
X45789160Y-60362295D02*
X45789160Y-59562295D01*
X45789160Y-59562295D02*
X46170112Y-59562295D01*
X46627255Y-59562295D02*
X46779636Y-59562295D01*
X46779636Y-59562295D02*
X46855826Y-59600390D01*
X46855826Y-59600390D02*
X46932017Y-59676580D01*
X46932017Y-59676580D02*
X46970112Y-59828961D01*
X46970112Y-59828961D02*
X46970112Y-60095628D01*
X46970112Y-60095628D02*
X46932017Y-60248009D01*
X46932017Y-60248009D02*
X46855826Y-60324200D01*
X46855826Y-60324200D02*
X46779636Y-60362295D01*
X46779636Y-60362295D02*
X46627255Y-60362295D01*
X46627255Y-60362295D02*
X46551064Y-60324200D01*
X46551064Y-60324200D02*
X46474874Y-60248009D01*
X46474874Y-60248009D02*
X46436778Y-60095628D01*
X46436778Y-60095628D02*
X46436778Y-59828961D01*
X46436778Y-59828961D02*
X46474874Y-59676580D01*
X46474874Y-59676580D02*
X46551064Y-59600390D01*
X46551064Y-59600390D02*
X46627255Y-59562295D01*
X47732016Y-60362295D02*
X47274873Y-60362295D01*
X47503445Y-60362295D02*
X47503445Y-59562295D01*
X47503445Y-59562295D02*
X47427254Y-59676580D01*
X47427254Y-59676580D02*
X47351064Y-59752771D01*
X47351064Y-59752771D02*
X47274873Y-59790866D01*
X54055826Y-59943247D02*
X53789160Y-59943247D01*
X53789160Y-60362295D02*
X53789160Y-59562295D01*
X53789160Y-59562295D02*
X54170112Y-59562295D01*
X54627255Y-59562295D02*
X54779636Y-59562295D01*
X54779636Y-59562295D02*
X54855826Y-59600390D01*
X54855826Y-59600390D02*
X54932017Y-59676580D01*
X54932017Y-59676580D02*
X54970112Y-59828961D01*
X54970112Y-59828961D02*
X54970112Y-60095628D01*
X54970112Y-60095628D02*
X54932017Y-60248009D01*
X54932017Y-60248009D02*
X54855826Y-60324200D01*
X54855826Y-60324200D02*
X54779636Y-60362295D01*
X54779636Y-60362295D02*
X54627255Y-60362295D01*
X54627255Y-60362295D02*
X54551064Y-60324200D01*
X54551064Y-60324200D02*
X54474874Y-60248009D01*
X54474874Y-60248009D02*
X54436778Y-60095628D01*
X54436778Y-60095628D02*
X54436778Y-59828961D01*
X54436778Y-59828961D02*
X54474874Y-59676580D01*
X54474874Y-59676580D02*
X54551064Y-59600390D01*
X54551064Y-59600390D02*
X54627255Y-59562295D01*
X55732016Y-60362295D02*
X55274873Y-60362295D01*
X55503445Y-60362295D02*
X55503445Y-59562295D01*
X55503445Y-59562295D02*
X55427254Y-59676580D01*
X55427254Y-59676580D02*
X55351064Y-59752771D01*
X55351064Y-59752771D02*
X55274873Y-59790866D01*
X56227255Y-59562295D02*
X56303445Y-59562295D01*
X56303445Y-59562295D02*
X56379636Y-59600390D01*
X56379636Y-59600390D02*
X56417731Y-59638485D01*
X56417731Y-59638485D02*
X56455826Y-59714676D01*
X56455826Y-59714676D02*
X56493921Y-59867057D01*
X56493921Y-59867057D02*
X56493921Y-60057533D01*
X56493921Y-60057533D02*
X56455826Y-60209914D01*
X56455826Y-60209914D02*
X56417731Y-60286104D01*
X56417731Y-60286104D02*
X56379636Y-60324200D01*
X56379636Y-60324200D02*
X56303445Y-60362295D01*
X56303445Y-60362295D02*
X56227255Y-60362295D01*
X56227255Y-60362295D02*
X56151064Y-60324200D01*
X56151064Y-60324200D02*
X56112969Y-60286104D01*
X56112969Y-60286104D02*
X56074874Y-60209914D01*
X56074874Y-60209914D02*
X56036778Y-60057533D01*
X56036778Y-60057533D02*
X56036778Y-59867057D01*
X56036778Y-59867057D02*
X56074874Y-59714676D01*
X56074874Y-59714676D02*
X56112969Y-59638485D01*
X56112969Y-59638485D02*
X56151064Y-59600390D01*
X56151064Y-59600390D02*
X56227255Y-59562295D01*
X61789160Y-60362295D02*
X61789160Y-59562295D01*
X61789160Y-59562295D02*
X62246303Y-60362295D01*
X62246303Y-60362295D02*
X62246303Y-59562295D01*
X62589159Y-60133723D02*
X62970112Y-60133723D01*
X62512969Y-60362295D02*
X62779636Y-59562295D01*
X62779636Y-59562295D02*
X63046302Y-60362295D01*
X63312969Y-60362295D02*
X63312969Y-59562295D01*
X63312969Y-59562295D02*
X63770112Y-60362295D01*
X63770112Y-60362295D02*
X63770112Y-59562295D01*
X64151064Y-60362295D02*
X64151064Y-59562295D01*
X64151064Y-59562295D02*
X64341540Y-59562295D01*
X64341540Y-59562295D02*
X64455826Y-59600390D01*
X64455826Y-59600390D02*
X64532016Y-59676580D01*
X64532016Y-59676580D02*
X64570111Y-59752771D01*
X64570111Y-59752771D02*
X64608207Y-59905152D01*
X64608207Y-59905152D02*
X64608207Y-60019438D01*
X64608207Y-60019438D02*
X64570111Y-60171819D01*
X64570111Y-60171819D02*
X64532016Y-60248009D01*
X64532016Y-60248009D02*
X64455826Y-60324200D01*
X64455826Y-60324200D02*
X64341540Y-60362295D01*
X64341540Y-60362295D02*
X64151064Y-60362295D01*
X69789160Y-60362295D02*
X69789160Y-59562295D01*
X69789160Y-59562295D02*
X70246303Y-60362295D01*
X70246303Y-60362295D02*
X70246303Y-59562295D01*
X70779636Y-59562295D02*
X70932017Y-59562295D01*
X70932017Y-59562295D02*
X71008207Y-59600390D01*
X71008207Y-59600390D02*
X71084398Y-59676580D01*
X71084398Y-59676580D02*
X71122493Y-59828961D01*
X71122493Y-59828961D02*
X71122493Y-60095628D01*
X71122493Y-60095628D02*
X71084398Y-60248009D01*
X71084398Y-60248009D02*
X71008207Y-60324200D01*
X71008207Y-60324200D02*
X70932017Y-60362295D01*
X70932017Y-60362295D02*
X70779636Y-60362295D01*
X70779636Y-60362295D02*
X70703445Y-60324200D01*
X70703445Y-60324200D02*
X70627255Y-60248009D01*
X70627255Y-60248009D02*
X70589159Y-60095628D01*
X70589159Y-60095628D02*
X70589159Y-59828961D01*
X70589159Y-59828961D02*
X70627255Y-59676580D01*
X70627255Y-59676580D02*
X70703445Y-59600390D01*
X70703445Y-59600390D02*
X70779636Y-59562295D01*
X71922493Y-60362295D02*
X71655826Y-59981342D01*
X71465350Y-60362295D02*
X71465350Y-59562295D01*
X71465350Y-59562295D02*
X71770112Y-59562295D01*
X71770112Y-59562295D02*
X71846302Y-59600390D01*
X71846302Y-59600390D02*
X71884397Y-59638485D01*
X71884397Y-59638485D02*
X71922493Y-59714676D01*
X71922493Y-59714676D02*
X71922493Y-59828961D01*
X71922493Y-59828961D02*
X71884397Y-59905152D01*
X71884397Y-59905152D02*
X71846302Y-59943247D01*
X71846302Y-59943247D02*
X71770112Y-59981342D01*
X71770112Y-59981342D02*
X71465350Y-59981342D01*
X78055826Y-59943247D02*
X78170112Y-59981342D01*
X78170112Y-59981342D02*
X78208207Y-60019438D01*
X78208207Y-60019438D02*
X78246303Y-60095628D01*
X78246303Y-60095628D02*
X78246303Y-60209914D01*
X78246303Y-60209914D02*
X78208207Y-60286104D01*
X78208207Y-60286104D02*
X78170112Y-60324200D01*
X78170112Y-60324200D02*
X78093922Y-60362295D01*
X78093922Y-60362295D02*
X77789160Y-60362295D01*
X77789160Y-60362295D02*
X77789160Y-59562295D01*
X77789160Y-59562295D02*
X78055826Y-59562295D01*
X78055826Y-59562295D02*
X78132017Y-59600390D01*
X78132017Y-59600390D02*
X78170112Y-59638485D01*
X78170112Y-59638485D02*
X78208207Y-59714676D01*
X78208207Y-59714676D02*
X78208207Y-59790866D01*
X78208207Y-59790866D02*
X78170112Y-59867057D01*
X78170112Y-59867057D02*
X78132017Y-59905152D01*
X78132017Y-59905152D02*
X78055826Y-59943247D01*
X78055826Y-59943247D02*
X77789160Y-59943247D01*
X78589160Y-59562295D02*
X78589160Y-60209914D01*
X78589160Y-60209914D02*
X78627255Y-60286104D01*
X78627255Y-60286104D02*
X78665350Y-60324200D01*
X78665350Y-60324200D02*
X78741541Y-60362295D01*
X78741541Y-60362295D02*
X78893922Y-60362295D01*
X78893922Y-60362295D02*
X78970112Y-60324200D01*
X78970112Y-60324200D02*
X79008207Y-60286104D01*
X79008207Y-60286104D02*
X79046303Y-60209914D01*
X79046303Y-60209914D02*
X79046303Y-59562295D01*
X79389159Y-60324200D02*
X79503445Y-60362295D01*
X79503445Y-60362295D02*
X79693921Y-60362295D01*
X79693921Y-60362295D02*
X79770112Y-60324200D01*
X79770112Y-60324200D02*
X79808207Y-60286104D01*
X79808207Y-60286104D02*
X79846302Y-60209914D01*
X79846302Y-60209914D02*
X79846302Y-60133723D01*
X79846302Y-60133723D02*
X79808207Y-60057533D01*
X79808207Y-60057533D02*
X79770112Y-60019438D01*
X79770112Y-60019438D02*
X79693921Y-59981342D01*
X79693921Y-59981342D02*
X79541540Y-59943247D01*
X79541540Y-59943247D02*
X79465350Y-59905152D01*
X79465350Y-59905152D02*
X79427255Y-59867057D01*
X79427255Y-59867057D02*
X79389159Y-59790866D01*
X79389159Y-59790866D02*
X79389159Y-59714676D01*
X79389159Y-59714676D02*
X79427255Y-59638485D01*
X79427255Y-59638485D02*
X79465350Y-59600390D01*
X79465350Y-59600390D02*
X79541540Y-59562295D01*
X79541540Y-59562295D02*
X79732017Y-59562295D01*
X79732017Y-59562295D02*
X79846302Y-59600390D01*
X87208207Y-16862295D02*
X86751064Y-16862295D01*
X86979636Y-16862295D02*
X86979636Y-16062295D01*
X86979636Y-16062295D02*
X86903445Y-16176580D01*
X86903445Y-16176580D02*
X86827255Y-16252771D01*
X86827255Y-16252771D02*
X86751064Y-16290866D01*
X87703446Y-16062295D02*
X87779636Y-16062295D01*
X87779636Y-16062295D02*
X87855827Y-16100390D01*
X87855827Y-16100390D02*
X87893922Y-16138485D01*
X87893922Y-16138485D02*
X87932017Y-16214676D01*
X87932017Y-16214676D02*
X87970112Y-16367057D01*
X87970112Y-16367057D02*
X87970112Y-16557533D01*
X87970112Y-16557533D02*
X87932017Y-16709914D01*
X87932017Y-16709914D02*
X87893922Y-16786104D01*
X87893922Y-16786104D02*
X87855827Y-16824200D01*
X87855827Y-16824200D02*
X87779636Y-16862295D01*
X87779636Y-16862295D02*
X87703446Y-16862295D01*
X87703446Y-16862295D02*
X87627255Y-16824200D01*
X87627255Y-16824200D02*
X87589160Y-16786104D01*
X87589160Y-16786104D02*
X87551065Y-16709914D01*
X87551065Y-16709914D02*
X87512969Y-16557533D01*
X87512969Y-16557533D02*
X87512969Y-16367057D01*
X87512969Y-16367057D02*
X87551065Y-16214676D01*
X87551065Y-16214676D02*
X87589160Y-16138485D01*
X87589160Y-16138485D02*
X87627255Y-16100390D01*
X87627255Y-16100390D02*
X87703446Y-16062295D01*
X88312970Y-16862295D02*
X88312970Y-16062295D01*
X88389160Y-16557533D02*
X88617732Y-16862295D01*
X88617732Y-16328961D02*
X88312970Y-16633723D01*
X4490588Y-8854819D02*
X3919160Y-8854819D01*
X4204874Y-8854819D02*
X4204874Y-7854819D01*
X4204874Y-7854819D02*
X4109636Y-7997676D01*
X4109636Y-7997676D02*
X4014398Y-8092914D01*
X4014398Y-8092914D02*
X3919160Y-8140533D01*
D11*
X29521615Y-98880928D02*
X29521615Y-97380928D01*
X29521615Y-97380928D02*
X30378758Y-98880928D01*
X30378758Y-98880928D02*
X30378758Y-97380928D01*
X31093044Y-98880928D02*
X31093044Y-97380928D01*
X32307330Y-98095214D02*
X32521616Y-98166642D01*
X32521616Y-98166642D02*
X32593045Y-98238071D01*
X32593045Y-98238071D02*
X32664473Y-98380928D01*
X32664473Y-98380928D02*
X32664473Y-98595214D01*
X32664473Y-98595214D02*
X32593045Y-98738071D01*
X32593045Y-98738071D02*
X32521616Y-98809500D01*
X32521616Y-98809500D02*
X32378759Y-98880928D01*
X32378759Y-98880928D02*
X31807330Y-98880928D01*
X31807330Y-98880928D02*
X31807330Y-97380928D01*
X31807330Y-97380928D02*
X32307330Y-97380928D01*
X32307330Y-97380928D02*
X32450188Y-97452357D01*
X32450188Y-97452357D02*
X32521616Y-97523785D01*
X32521616Y-97523785D02*
X32593045Y-97666642D01*
X32593045Y-97666642D02*
X32593045Y-97809500D01*
X32593045Y-97809500D02*
X32521616Y-97952357D01*
X32521616Y-97952357D02*
X32450188Y-98023785D01*
X32450188Y-98023785D02*
X32307330Y-98095214D01*
X32307330Y-98095214D02*
X31807330Y-98095214D01*
X33807330Y-98095214D02*
X34021616Y-98166642D01*
X34021616Y-98166642D02*
X34093045Y-98238071D01*
X34093045Y-98238071D02*
X34164473Y-98380928D01*
X34164473Y-98380928D02*
X34164473Y-98595214D01*
X34164473Y-98595214D02*
X34093045Y-98738071D01*
X34093045Y-98738071D02*
X34021616Y-98809500D01*
X34021616Y-98809500D02*
X33878759Y-98880928D01*
X33878759Y-98880928D02*
X33307330Y-98880928D01*
X33307330Y-98880928D02*
X33307330Y-97380928D01*
X33307330Y-97380928D02*
X33807330Y-97380928D01*
X33807330Y-97380928D02*
X33950188Y-97452357D01*
X33950188Y-97452357D02*
X34021616Y-97523785D01*
X34021616Y-97523785D02*
X34093045Y-97666642D01*
X34093045Y-97666642D02*
X34093045Y-97809500D01*
X34093045Y-97809500D02*
X34021616Y-97952357D01*
X34021616Y-97952357D02*
X33950188Y-98023785D01*
X33950188Y-98023785D02*
X33807330Y-98095214D01*
X33807330Y-98095214D02*
X33307330Y-98095214D01*
X35521616Y-98880928D02*
X34807330Y-98880928D01*
X34807330Y-98880928D02*
X34807330Y-97380928D01*
X36021616Y-98095214D02*
X36521616Y-98095214D01*
X36735902Y-98880928D02*
X36021616Y-98880928D01*
X36021616Y-98880928D02*
X36021616Y-97380928D01*
X36021616Y-97380928D02*
X36735902Y-97380928D01*
X40450188Y-97452357D02*
X40307331Y-97380928D01*
X40307331Y-97380928D02*
X40093045Y-97380928D01*
X40093045Y-97380928D02*
X39878759Y-97452357D01*
X39878759Y-97452357D02*
X39735902Y-97595214D01*
X39735902Y-97595214D02*
X39664473Y-97738071D01*
X39664473Y-97738071D02*
X39593045Y-98023785D01*
X39593045Y-98023785D02*
X39593045Y-98238071D01*
X39593045Y-98238071D02*
X39664473Y-98523785D01*
X39664473Y-98523785D02*
X39735902Y-98666642D01*
X39735902Y-98666642D02*
X39878759Y-98809500D01*
X39878759Y-98809500D02*
X40093045Y-98880928D01*
X40093045Y-98880928D02*
X40235902Y-98880928D01*
X40235902Y-98880928D02*
X40450188Y-98809500D01*
X40450188Y-98809500D02*
X40521616Y-98738071D01*
X40521616Y-98738071D02*
X40521616Y-98238071D01*
X40521616Y-98238071D02*
X40235902Y-98238071D01*
X41093045Y-98452357D02*
X41807331Y-98452357D01*
X40950188Y-98880928D02*
X41450188Y-97380928D01*
X41450188Y-97380928D02*
X41950188Y-98880928D01*
X42235902Y-97380928D02*
X43093045Y-97380928D01*
X42664473Y-98880928D02*
X42664473Y-97380928D01*
X43593044Y-98095214D02*
X44093044Y-98095214D01*
X44307330Y-98880928D02*
X43593044Y-98880928D01*
X43593044Y-98880928D02*
X43593044Y-97380928D01*
X43593044Y-97380928D02*
X44307330Y-97380928D01*
X46950187Y-98738071D02*
X46878759Y-98809500D01*
X46878759Y-98809500D02*
X46664473Y-98880928D01*
X46664473Y-98880928D02*
X46521616Y-98880928D01*
X46521616Y-98880928D02*
X46307330Y-98809500D01*
X46307330Y-98809500D02*
X46164473Y-98666642D01*
X46164473Y-98666642D02*
X46093044Y-98523785D01*
X46093044Y-98523785D02*
X46021616Y-98238071D01*
X46021616Y-98238071D02*
X46021616Y-98023785D01*
X46021616Y-98023785D02*
X46093044Y-97738071D01*
X46093044Y-97738071D02*
X46164473Y-97595214D01*
X46164473Y-97595214D02*
X46307330Y-97452357D01*
X46307330Y-97452357D02*
X46521616Y-97380928D01*
X46521616Y-97380928D02*
X46664473Y-97380928D01*
X46664473Y-97380928D02*
X46878759Y-97452357D01*
X46878759Y-97452357D02*
X46950187Y-97523785D01*
X47878759Y-97380928D02*
X48164473Y-97380928D01*
X48164473Y-97380928D02*
X48307330Y-97452357D01*
X48307330Y-97452357D02*
X48450187Y-97595214D01*
X48450187Y-97595214D02*
X48521616Y-97880928D01*
X48521616Y-97880928D02*
X48521616Y-98380928D01*
X48521616Y-98380928D02*
X48450187Y-98666642D01*
X48450187Y-98666642D02*
X48307330Y-98809500D01*
X48307330Y-98809500D02*
X48164473Y-98880928D01*
X48164473Y-98880928D02*
X47878759Y-98880928D01*
X47878759Y-98880928D02*
X47735902Y-98809500D01*
X47735902Y-98809500D02*
X47593044Y-98666642D01*
X47593044Y-98666642D02*
X47521616Y-98380928D01*
X47521616Y-98380928D02*
X47521616Y-97880928D01*
X47521616Y-97880928D02*
X47593044Y-97595214D01*
X47593044Y-97595214D02*
X47735902Y-97452357D01*
X47735902Y-97452357D02*
X47878759Y-97380928D01*
X49164473Y-97380928D02*
X49164473Y-98595214D01*
X49164473Y-98595214D02*
X49235902Y-98738071D01*
X49235902Y-98738071D02*
X49307331Y-98809500D01*
X49307331Y-98809500D02*
X49450188Y-98880928D01*
X49450188Y-98880928D02*
X49735902Y-98880928D01*
X49735902Y-98880928D02*
X49878759Y-98809500D01*
X49878759Y-98809500D02*
X49950188Y-98738071D01*
X49950188Y-98738071D02*
X50021616Y-98595214D01*
X50021616Y-98595214D02*
X50021616Y-97380928D01*
X50735902Y-98880928D02*
X50735902Y-97380928D01*
X50735902Y-97380928D02*
X51307331Y-97380928D01*
X51307331Y-97380928D02*
X51450188Y-97452357D01*
X51450188Y-97452357D02*
X51521617Y-97523785D01*
X51521617Y-97523785D02*
X51593045Y-97666642D01*
X51593045Y-97666642D02*
X51593045Y-97880928D01*
X51593045Y-97880928D02*
X51521617Y-98023785D01*
X51521617Y-98023785D02*
X51450188Y-98095214D01*
X51450188Y-98095214D02*
X51307331Y-98166642D01*
X51307331Y-98166642D02*
X50735902Y-98166642D01*
X52521617Y-97380928D02*
X52807331Y-97380928D01*
X52807331Y-97380928D02*
X52950188Y-97452357D01*
X52950188Y-97452357D02*
X53093045Y-97595214D01*
X53093045Y-97595214D02*
X53164474Y-97880928D01*
X53164474Y-97880928D02*
X53164474Y-98380928D01*
X53164474Y-98380928D02*
X53093045Y-98666642D01*
X53093045Y-98666642D02*
X52950188Y-98809500D01*
X52950188Y-98809500D02*
X52807331Y-98880928D01*
X52807331Y-98880928D02*
X52521617Y-98880928D01*
X52521617Y-98880928D02*
X52378760Y-98809500D01*
X52378760Y-98809500D02*
X52235902Y-98666642D01*
X52235902Y-98666642D02*
X52164474Y-98380928D01*
X52164474Y-98380928D02*
X52164474Y-97880928D01*
X52164474Y-97880928D02*
X52235902Y-97595214D01*
X52235902Y-97595214D02*
X52378760Y-97452357D01*
X52378760Y-97452357D02*
X52521617Y-97380928D01*
X53807331Y-98880928D02*
X53807331Y-97380928D01*
X53807331Y-97380928D02*
X54664474Y-98880928D01*
X54664474Y-98880928D02*
X54664474Y-97380928D01*
D10*
X3238095Y-46304819D02*
X3238095Y-45304819D01*
X3238095Y-45781009D02*
X3809523Y-45781009D01*
X3809523Y-46304819D02*
X3809523Y-45304819D01*
X4809523Y-46304819D02*
X4238095Y-46304819D01*
X4523809Y-46304819D02*
X4523809Y-45304819D01*
X4523809Y-45304819D02*
X4428571Y-45447676D01*
X4428571Y-45447676D02*
X4333333Y-45542914D01*
X4333333Y-45542914D02*
X4238095Y-45590533D01*
X63438095Y-57954819D02*
X64009523Y-57954819D01*
X63723809Y-58954819D02*
X63723809Y-57954819D01*
X64342857Y-58954819D02*
X64342857Y-57954819D01*
X64342857Y-57954819D02*
X64723809Y-57954819D01*
X64723809Y-57954819D02*
X64819047Y-58002438D01*
X64819047Y-58002438D02*
X64866666Y-58050057D01*
X64866666Y-58050057D02*
X64914285Y-58145295D01*
X64914285Y-58145295D02*
X64914285Y-58288152D01*
X64914285Y-58288152D02*
X64866666Y-58383390D01*
X64866666Y-58383390D02*
X64819047Y-58431009D01*
X64819047Y-58431009D02*
X64723809Y-58478628D01*
X64723809Y-58478628D02*
X64342857Y-58478628D01*
X65771428Y-58288152D02*
X65771428Y-58954819D01*
X65533333Y-57907200D02*
X65295238Y-58621485D01*
X65295238Y-58621485D02*
X65914285Y-58621485D01*
X97859580Y-17916666D02*
X97907200Y-17964285D01*
X97907200Y-17964285D02*
X97954819Y-18107142D01*
X97954819Y-18107142D02*
X97954819Y-18202380D01*
X97954819Y-18202380D02*
X97907200Y-18345237D01*
X97907200Y-18345237D02*
X97811961Y-18440475D01*
X97811961Y-18440475D02*
X97716723Y-18488094D01*
X97716723Y-18488094D02*
X97526247Y-18535713D01*
X97526247Y-18535713D02*
X97383390Y-18535713D01*
X97383390Y-18535713D02*
X97192914Y-18488094D01*
X97192914Y-18488094D02*
X97097676Y-18440475D01*
X97097676Y-18440475D02*
X97002438Y-18345237D01*
X97002438Y-18345237D02*
X96954819Y-18202380D01*
X96954819Y-18202380D02*
X96954819Y-18107142D01*
X96954819Y-18107142D02*
X97002438Y-17964285D01*
X97002438Y-17964285D02*
X97050057Y-17916666D01*
X97954819Y-16964285D02*
X97954819Y-17535713D01*
X97954819Y-17249999D02*
X96954819Y-17249999D01*
X96954819Y-17249999D02*
X97097676Y-17345237D01*
X97097676Y-17345237D02*
X97192914Y-17440475D01*
X97192914Y-17440475D02*
X97240533Y-17535713D01*
X55438095Y-57954819D02*
X56009523Y-57954819D01*
X55723809Y-58954819D02*
X55723809Y-57954819D01*
X56342857Y-58954819D02*
X56342857Y-57954819D01*
X56342857Y-57954819D02*
X56723809Y-57954819D01*
X56723809Y-57954819D02*
X56819047Y-58002438D01*
X56819047Y-58002438D02*
X56866666Y-58050057D01*
X56866666Y-58050057D02*
X56914285Y-58145295D01*
X56914285Y-58145295D02*
X56914285Y-58288152D01*
X56914285Y-58288152D02*
X56866666Y-58383390D01*
X56866666Y-58383390D02*
X56819047Y-58431009D01*
X56819047Y-58431009D02*
X56723809Y-58478628D01*
X56723809Y-58478628D02*
X56342857Y-58478628D01*
X57247619Y-57954819D02*
X57866666Y-57954819D01*
X57866666Y-57954819D02*
X57533333Y-58335771D01*
X57533333Y-58335771D02*
X57676190Y-58335771D01*
X57676190Y-58335771D02*
X57771428Y-58383390D01*
X57771428Y-58383390D02*
X57819047Y-58431009D01*
X57819047Y-58431009D02*
X57866666Y-58526247D01*
X57866666Y-58526247D02*
X57866666Y-58764342D01*
X57866666Y-58764342D02*
X57819047Y-58859580D01*
X57819047Y-58859580D02*
X57771428Y-58907200D01*
X57771428Y-58907200D02*
X57676190Y-58954819D01*
X57676190Y-58954819D02*
X57390476Y-58954819D01*
X57390476Y-58954819D02*
X57295238Y-58907200D01*
X57295238Y-58907200D02*
X57247619Y-58859580D01*
X79438095Y-57954819D02*
X80009523Y-57954819D01*
X79723809Y-58954819D02*
X79723809Y-57954819D01*
X80342857Y-58954819D02*
X80342857Y-57954819D01*
X80342857Y-57954819D02*
X80723809Y-57954819D01*
X80723809Y-57954819D02*
X80819047Y-58002438D01*
X80819047Y-58002438D02*
X80866666Y-58050057D01*
X80866666Y-58050057D02*
X80914285Y-58145295D01*
X80914285Y-58145295D02*
X80914285Y-58288152D01*
X80914285Y-58288152D02*
X80866666Y-58383390D01*
X80866666Y-58383390D02*
X80819047Y-58431009D01*
X80819047Y-58431009D02*
X80723809Y-58478628D01*
X80723809Y-58478628D02*
X80342857Y-58478628D01*
X81771428Y-57954819D02*
X81580952Y-57954819D01*
X81580952Y-57954819D02*
X81485714Y-58002438D01*
X81485714Y-58002438D02*
X81438095Y-58050057D01*
X81438095Y-58050057D02*
X81342857Y-58192914D01*
X81342857Y-58192914D02*
X81295238Y-58383390D01*
X81295238Y-58383390D02*
X81295238Y-58764342D01*
X81295238Y-58764342D02*
X81342857Y-58859580D01*
X81342857Y-58859580D02*
X81390476Y-58907200D01*
X81390476Y-58907200D02*
X81485714Y-58954819D01*
X81485714Y-58954819D02*
X81676190Y-58954819D01*
X81676190Y-58954819D02*
X81771428Y-58907200D01*
X81771428Y-58907200D02*
X81819047Y-58859580D01*
X81819047Y-58859580D02*
X81866666Y-58764342D01*
X81866666Y-58764342D02*
X81866666Y-58526247D01*
X81866666Y-58526247D02*
X81819047Y-58431009D01*
X81819047Y-58431009D02*
X81771428Y-58383390D01*
X81771428Y-58383390D02*
X81676190Y-58335771D01*
X81676190Y-58335771D02*
X81485714Y-58335771D01*
X81485714Y-58335771D02*
X81390476Y-58383390D01*
X81390476Y-58383390D02*
X81342857Y-58431009D01*
X81342857Y-58431009D02*
X81295238Y-58526247D01*
X95238095Y-46304819D02*
X95238095Y-45304819D01*
X95238095Y-45781009D02*
X95809523Y-45781009D01*
X95809523Y-46304819D02*
X95809523Y-45304819D01*
X96238095Y-45400057D02*
X96285714Y-45352438D01*
X96285714Y-45352438D02*
X96380952Y-45304819D01*
X96380952Y-45304819D02*
X96619047Y-45304819D01*
X96619047Y-45304819D02*
X96714285Y-45352438D01*
X96714285Y-45352438D02*
X96761904Y-45400057D01*
X96761904Y-45400057D02*
X96809523Y-45495295D01*
X96809523Y-45495295D02*
X96809523Y-45590533D01*
X96809523Y-45590533D02*
X96761904Y-45733390D01*
X96761904Y-45733390D02*
X96190476Y-46304819D01*
X96190476Y-46304819D02*
X96809523Y-46304819D01*
X47438095Y-57954819D02*
X48009523Y-57954819D01*
X47723809Y-58954819D02*
X47723809Y-57954819D01*
X48342857Y-58954819D02*
X48342857Y-57954819D01*
X48342857Y-57954819D02*
X48723809Y-57954819D01*
X48723809Y-57954819D02*
X48819047Y-58002438D01*
X48819047Y-58002438D02*
X48866666Y-58050057D01*
X48866666Y-58050057D02*
X48914285Y-58145295D01*
X48914285Y-58145295D02*
X48914285Y-58288152D01*
X48914285Y-58288152D02*
X48866666Y-58383390D01*
X48866666Y-58383390D02*
X48819047Y-58431009D01*
X48819047Y-58431009D02*
X48723809Y-58478628D01*
X48723809Y-58478628D02*
X48342857Y-58478628D01*
X49295238Y-58050057D02*
X49342857Y-58002438D01*
X49342857Y-58002438D02*
X49438095Y-57954819D01*
X49438095Y-57954819D02*
X49676190Y-57954819D01*
X49676190Y-57954819D02*
X49771428Y-58002438D01*
X49771428Y-58002438D02*
X49819047Y-58050057D01*
X49819047Y-58050057D02*
X49866666Y-58145295D01*
X49866666Y-58145295D02*
X49866666Y-58240533D01*
X49866666Y-58240533D02*
X49819047Y-58383390D01*
X49819047Y-58383390D02*
X49247619Y-58954819D01*
X49247619Y-58954819D02*
X49866666Y-58954819D01*
X39438095Y-57954819D02*
X40009523Y-57954819D01*
X39723809Y-58954819D02*
X39723809Y-57954819D01*
X40342857Y-58954819D02*
X40342857Y-57954819D01*
X40342857Y-57954819D02*
X40723809Y-57954819D01*
X40723809Y-57954819D02*
X40819047Y-58002438D01*
X40819047Y-58002438D02*
X40866666Y-58050057D01*
X40866666Y-58050057D02*
X40914285Y-58145295D01*
X40914285Y-58145295D02*
X40914285Y-58288152D01*
X40914285Y-58288152D02*
X40866666Y-58383390D01*
X40866666Y-58383390D02*
X40819047Y-58431009D01*
X40819047Y-58431009D02*
X40723809Y-58478628D01*
X40723809Y-58478628D02*
X40342857Y-58478628D01*
X41866666Y-58954819D02*
X41295238Y-58954819D01*
X41580952Y-58954819D02*
X41580952Y-57954819D01*
X41580952Y-57954819D02*
X41485714Y-58097676D01*
X41485714Y-58097676D02*
X41390476Y-58192914D01*
X41390476Y-58192914D02*
X41295238Y-58240533D01*
X99109580Y-27166666D02*
X99157200Y-27214285D01*
X99157200Y-27214285D02*
X99204819Y-27357142D01*
X99204819Y-27357142D02*
X99204819Y-27452380D01*
X99204819Y-27452380D02*
X99157200Y-27595237D01*
X99157200Y-27595237D02*
X99061961Y-27690475D01*
X99061961Y-27690475D02*
X98966723Y-27738094D01*
X98966723Y-27738094D02*
X98776247Y-27785713D01*
X98776247Y-27785713D02*
X98633390Y-27785713D01*
X98633390Y-27785713D02*
X98442914Y-27738094D01*
X98442914Y-27738094D02*
X98347676Y-27690475D01*
X98347676Y-27690475D02*
X98252438Y-27595237D01*
X98252438Y-27595237D02*
X98204819Y-27452380D01*
X98204819Y-27452380D02*
X98204819Y-27357142D01*
X98204819Y-27357142D02*
X98252438Y-27214285D01*
X98252438Y-27214285D02*
X98300057Y-27166666D01*
X98300057Y-26785713D02*
X98252438Y-26738094D01*
X98252438Y-26738094D02*
X98204819Y-26642856D01*
X98204819Y-26642856D02*
X98204819Y-26404761D01*
X98204819Y-26404761D02*
X98252438Y-26309523D01*
X98252438Y-26309523D02*
X98300057Y-26261904D01*
X98300057Y-26261904D02*
X98395295Y-26214285D01*
X98395295Y-26214285D02*
X98490533Y-26214285D01*
X98490533Y-26214285D02*
X98633390Y-26261904D01*
X98633390Y-26261904D02*
X99204819Y-26833332D01*
X99204819Y-26833332D02*
X99204819Y-26214285D01*
X71438095Y-57954819D02*
X72009523Y-57954819D01*
X71723809Y-58954819D02*
X71723809Y-57954819D01*
X72342857Y-58954819D02*
X72342857Y-57954819D01*
X72342857Y-57954819D02*
X72723809Y-57954819D01*
X72723809Y-57954819D02*
X72819047Y-58002438D01*
X72819047Y-58002438D02*
X72866666Y-58050057D01*
X72866666Y-58050057D02*
X72914285Y-58145295D01*
X72914285Y-58145295D02*
X72914285Y-58288152D01*
X72914285Y-58288152D02*
X72866666Y-58383390D01*
X72866666Y-58383390D02*
X72819047Y-58431009D01*
X72819047Y-58431009D02*
X72723809Y-58478628D01*
X72723809Y-58478628D02*
X72342857Y-58478628D01*
X73819047Y-57954819D02*
X73342857Y-57954819D01*
X73342857Y-57954819D02*
X73295238Y-58431009D01*
X73295238Y-58431009D02*
X73342857Y-58383390D01*
X73342857Y-58383390D02*
X73438095Y-58335771D01*
X73438095Y-58335771D02*
X73676190Y-58335771D01*
X73676190Y-58335771D02*
X73771428Y-58383390D01*
X73771428Y-58383390D02*
X73819047Y-58431009D01*
X73819047Y-58431009D02*
X73866666Y-58526247D01*
X73866666Y-58526247D02*
X73866666Y-58764342D01*
X73866666Y-58764342D02*
X73819047Y-58859580D01*
X73819047Y-58859580D02*
X73771428Y-58907200D01*
X73771428Y-58907200D02*
X73676190Y-58954819D01*
X73676190Y-58954819D02*
X73438095Y-58954819D01*
X73438095Y-58954819D02*
X73342857Y-58907200D01*
X73342857Y-58907200D02*
X73295238Y-58859580D01*
%TO.C,R25*%
D12*
X18050000Y-65530000D02*
X20660000Y-65530000D01*
X18050000Y-65530000D02*
G75*
G02*
X15310000Y-65530000I-1370000J0D01*
G01*
X15310000Y-65530000D02*
G75*
G02*
X18050000Y-65530000I1370000J0D01*
G01*
%TO.C,Q5*%
X21020000Y-26215000D02*
X17420000Y-26215000D01*
X16895816Y-26942205D02*
G75*
G02*
X17420000Y-26215000I2324184J-1122795D01*
G01*
X19220000Y-30665000D02*
G75*
G02*
X16863600Y-29163807I0J2600000D01*
G01*
X21020000Y-26215000D02*
G75*
G02*
X21544184Y-26942205I-1800000J-1850000D01*
G01*
X21576400Y-29163807D02*
G75*
G02*
X19220000Y-30665000I-2356400J1098807D01*
G01*
%TO.C,R12*%
X10370000Y-32510000D02*
X12980000Y-32510000D01*
X10370000Y-32510000D02*
G75*
G02*
X7630000Y-32510000I-1370000J0D01*
G01*
X7630000Y-32510000D02*
G75*
G02*
X10370000Y-32510000I1370000J0D01*
G01*
%TO.C,R16*%
X18050000Y-40765000D02*
X20660000Y-40765000D01*
X18050000Y-40765000D02*
G75*
G02*
X15310000Y-40765000I-1370000J0D01*
G01*
X15310000Y-40765000D02*
G75*
G02*
X18050000Y-40765000I1370000J0D01*
G01*
%TO.C,J1*%
X38620000Y-20620000D02*
X40000000Y-20620000D01*
X38620000Y-22000000D02*
X38620000Y-20620000D01*
X38620000Y-23270000D02*
X38620000Y-31000000D01*
X38620000Y-23270000D02*
X41380000Y-23270000D01*
X38620000Y-31000000D02*
X41380000Y-31000000D01*
X41380000Y-23270000D02*
X41380000Y-31000000D01*
%TO.C,R1*%
X46000000Y-37370000D02*
X46000000Y-39980000D01*
X47370000Y-36000000D02*
G75*
G02*
X44630000Y-36000000I-1370000J0D01*
G01*
X44630000Y-36000000D02*
G75*
G02*
X47370000Y-36000000I1370000J0D01*
G01*
%TO.C,R17*%
X25730000Y-40765000D02*
X28340000Y-40765000D01*
X25730000Y-40765000D02*
G75*
G02*
X22990000Y-40765000I-1370000J0D01*
G01*
X22990000Y-40765000D02*
G75*
G02*
X25730000Y-40765000I1370000J0D01*
G01*
%TO.C,R20*%
X25730000Y-49020000D02*
X28340000Y-49020000D01*
X25730000Y-49020000D02*
G75*
G02*
X22990000Y-49020000I-1370000J0D01*
G01*
X22990000Y-49020000D02*
G75*
G02*
X25730000Y-49020000I1370000J0D01*
G01*
%TO.C,Q26*%
X25100000Y-83255000D02*
X28700000Y-83255000D01*
X24543600Y-80306193D02*
G75*
G02*
X26900000Y-78805000I2356400J-1098807D01*
G01*
X25100000Y-83255000D02*
G75*
G02*
X24575816Y-82527795I1800000J1850000D01*
G01*
X26900000Y-78805000D02*
G75*
G02*
X29256400Y-80306193I0J-2600000D01*
G01*
X29224184Y-82527795D02*
G75*
G02*
X28700000Y-83255000I-2324184J1122795D01*
G01*
%TO.C,R15*%
X10370000Y-40765000D02*
X12980000Y-40765000D01*
X10370000Y-40765000D02*
G75*
G02*
X7630000Y-40765000I-1370000J0D01*
G01*
X7630000Y-40765000D02*
G75*
G02*
X10370000Y-40765000I1370000J0D01*
G01*
%TO.C,Q7*%
X9740000Y-38805000D02*
X13340000Y-38805000D01*
X9183600Y-35856193D02*
G75*
G02*
X11540000Y-34355000I2356400J-1098807D01*
G01*
X9740000Y-38805000D02*
G75*
G02*
X9215816Y-38077795I1800000J1850000D01*
G01*
X11540000Y-34355000D02*
G75*
G02*
X13896400Y-35856193I0J-2600000D01*
G01*
X13864184Y-38077795D02*
G75*
G02*
X13340000Y-38805000I-2324184J1122795D01*
G01*
%TO.C,R22*%
X18050000Y-57275000D02*
X20660000Y-57275000D01*
X18050000Y-57275000D02*
G75*
G02*
X15310000Y-57275000I-1370000J0D01*
G01*
X15310000Y-57275000D02*
G75*
G02*
X18050000Y-57275000I1370000J0D01*
G01*
%TO.C,Q1*%
X9740000Y-22295000D02*
X13340000Y-22295000D01*
X9183600Y-19346193D02*
G75*
G02*
X11540000Y-17845000I2356400J-1098807D01*
G01*
X9740000Y-22295000D02*
G75*
G02*
X9215816Y-21567795I1800000J1850000D01*
G01*
X11540000Y-17845000D02*
G75*
G02*
X13896400Y-19346193I0J-2600000D01*
G01*
X13864184Y-21567795D02*
G75*
G02*
X13340000Y-22295000I-2324184J1122795D01*
G01*
%TO.C,R11*%
X25730000Y-24255000D02*
X28340000Y-24255000D01*
X25730000Y-24255000D02*
G75*
G02*
X22990000Y-24255000I-1370000J0D01*
G01*
X22990000Y-24255000D02*
G75*
G02*
X25730000Y-24255000I1370000J0D01*
G01*
%TO.C,TP4*%
X65500000Y-56000000D02*
G75*
G02*
X62500000Y-56000000I-1500000J0D01*
G01*
X62500000Y-56000000D02*
G75*
G02*
X65500000Y-56000000I1500000J0D01*
G01*
%TO.C,Q9*%
X25100000Y-38805000D02*
X28700000Y-38805000D01*
X24543600Y-35856193D02*
G75*
G02*
X26900000Y-34355000I2356400J-1098807D01*
G01*
X25100000Y-38805000D02*
G75*
G02*
X24575816Y-38077795I1800000J1850000D01*
G01*
X26900000Y-34355000D02*
G75*
G02*
X29256400Y-35856193I0J-2600000D01*
G01*
X29224184Y-38077795D02*
G75*
G02*
X28700000Y-38805000I-2324184J1122795D01*
G01*
%TO.C,C1*%
X93630000Y-15130000D02*
X96370000Y-15130000D01*
X93630000Y-20370000D02*
X93630000Y-15130000D01*
X96370000Y-15130000D02*
X96370000Y-20370000D01*
X96370000Y-20370000D02*
X93630000Y-20370000D01*
%TO.C,Q8*%
X21020000Y-34470000D02*
X17420000Y-34470000D01*
X16895816Y-35197205D02*
G75*
G02*
X17420000Y-34470000I2324184J-1122795D01*
G01*
X19220000Y-38920000D02*
G75*
G02*
X16863600Y-37418807I0J2600000D01*
G01*
X21020000Y-34470000D02*
G75*
G02*
X21544184Y-35197205I-1800000J-1850000D01*
G01*
X21576400Y-37418807D02*
G75*
G02*
X19220000Y-38920000I-2356400J1098807D01*
G01*
%TO.C,TP3*%
X57500000Y-56000000D02*
G75*
G02*
X54500000Y-56000000I-1500000J0D01*
G01*
X54500000Y-56000000D02*
G75*
G02*
X57500000Y-56000000I1500000J0D01*
G01*
%TO.C,R19*%
X18050000Y-49020000D02*
X20660000Y-49020000D01*
X18050000Y-49020000D02*
G75*
G02*
X15310000Y-49020000I-1370000J0D01*
G01*
X15310000Y-49020000D02*
G75*
G02*
X18050000Y-49020000I1370000J0D01*
G01*
%TO.C,Q14*%
X21020000Y-50980000D02*
X17420000Y-50980000D01*
X16895816Y-51707205D02*
G75*
G02*
X17420000Y-50980000I2324184J-1122795D01*
G01*
X19220000Y-55430000D02*
G75*
G02*
X16863600Y-53928807I0J2600000D01*
G01*
X21020000Y-50980000D02*
G75*
G02*
X21544184Y-51707205I-1800000J-1850000D01*
G01*
X21576400Y-53928807D02*
G75*
G02*
X19220000Y-55430000I-2356400J1098807D01*
G01*
%TO.C,TP6*%
X81500000Y-56000000D02*
G75*
G02*
X78500000Y-56000000I-1500000J0D01*
G01*
X78500000Y-56000000D02*
G75*
G02*
X81500000Y-56000000I1500000J0D01*
G01*
%TO.C,R21*%
X10370000Y-57275000D02*
X12980000Y-57275000D01*
X10370000Y-57275000D02*
G75*
G02*
X7630000Y-57275000I-1370000J0D01*
G01*
X7630000Y-57275000D02*
G75*
G02*
X10370000Y-57275000I1370000J0D01*
G01*
%TO.C,Q4*%
X9740000Y-30550000D02*
X13340000Y-30550000D01*
X9183600Y-27601193D02*
G75*
G02*
X11540000Y-26100000I2356400J-1098807D01*
G01*
X9740000Y-30550000D02*
G75*
G02*
X9215816Y-29822795I1800000J1850000D01*
G01*
X11540000Y-26100000D02*
G75*
G02*
X13896400Y-27601193I0J-2600000D01*
G01*
X13864184Y-29822795D02*
G75*
G02*
X13340000Y-30550000I-2324184J1122795D01*
G01*
%TO.C,R7*%
X18050000Y-16000000D02*
X20660000Y-16000000D01*
X18050000Y-16000000D02*
G75*
G02*
X15310000Y-16000000I-1370000J0D01*
G01*
X15310000Y-16000000D02*
G75*
G02*
X18050000Y-16000000I1370000J0D01*
G01*
%TO.C,R13*%
X18050000Y-32510000D02*
X20660000Y-32510000D01*
X18050000Y-32510000D02*
G75*
G02*
X15310000Y-32510000I-1370000J0D01*
G01*
X15310000Y-32510000D02*
G75*
G02*
X18050000Y-32510000I1370000J0D01*
G01*
%TO.C,Q21*%
X9740000Y-81985000D02*
X13340000Y-81985000D01*
X9183600Y-79036193D02*
G75*
G02*
X11540000Y-77535000I2356400J-1098807D01*
G01*
X9740000Y-81985000D02*
G75*
G02*
X9215816Y-81257795I1800000J1850000D01*
G01*
X11540000Y-77535000D02*
G75*
G02*
X13896400Y-79036193I0J-2600000D01*
G01*
X13864184Y-81257795D02*
G75*
G02*
X13340000Y-81985000I-2324184J1122795D01*
G01*
%TO.C,Q25*%
X25100000Y-68650000D02*
X28700000Y-68650000D01*
X24543600Y-65701193D02*
G75*
G02*
X26900000Y-64200000I2356400J-1098807D01*
G01*
X25100000Y-68650000D02*
G75*
G02*
X24575816Y-67922795I1800000J1850000D01*
G01*
X26900000Y-64200000D02*
G75*
G02*
X29256400Y-65701193I0J-2600000D01*
G01*
X29224184Y-67922795D02*
G75*
G02*
X28700000Y-68650000I-2324184J1122795D01*
G01*
%TO.C,R5*%
X85000000Y-15370000D02*
X85000000Y-17980000D01*
X86370000Y-14000000D02*
G75*
G02*
X83630000Y-14000000I-1370000J0D01*
G01*
X83630000Y-14000000D02*
G75*
G02*
X86370000Y-14000000I1370000J0D01*
G01*
%TO.C,R23*%
X25730000Y-57275000D02*
X28340000Y-57275000D01*
X25730000Y-57275000D02*
G75*
G02*
X22990000Y-57275000I-1370000J0D01*
G01*
X22990000Y-57275000D02*
G75*
G02*
X25730000Y-57275000I1370000J0D01*
G01*
%TO.C,D1*%
X25664000Y-77250000D02*
X25820000Y-77250000D01*
X27980000Y-77250000D02*
X28136000Y-77250000D01*
X25664484Y-77250000D02*
G75*
G02*
X25820000Y-74018563I1235516J1560000D01*
G01*
X25820000Y-76730961D02*
G75*
G02*
X25820000Y-74649039I1080000J1040961D01*
G01*
X27980000Y-74018563D02*
G75*
G02*
X28135516Y-77250000I-1080000J-1671437D01*
G01*
X27980000Y-74649039D02*
G75*
G02*
X27980000Y-76730961I-1080000J-1040961D01*
G01*
%TO.C,R10*%
X18050000Y-24255000D02*
X20660000Y-24255000D01*
X18050000Y-24255000D02*
G75*
G02*
X15310000Y-24255000I-1370000J0D01*
G01*
X15310000Y-24255000D02*
G75*
G02*
X18050000Y-24255000I1370000J0D01*
G01*
%TO.C,R24*%
X10370000Y-65530000D02*
X12980000Y-65530000D01*
X10370000Y-65530000D02*
G75*
G02*
X7630000Y-65530000I-1370000J0D01*
G01*
X7630000Y-65530000D02*
G75*
G02*
X10370000Y-65530000I1370000J0D01*
G01*
%TO.C,Q13*%
X9740000Y-55315000D02*
X13340000Y-55315000D01*
X9183600Y-52366193D02*
G75*
G02*
X11540000Y-50865000I2356400J-1098807D01*
G01*
X9740000Y-55315000D02*
G75*
G02*
X9215816Y-54587795I1800000J1850000D01*
G01*
X11540000Y-50865000D02*
G75*
G02*
X13896400Y-52366193I0J-2600000D01*
G01*
X13864184Y-54587795D02*
G75*
G02*
X13340000Y-55315000I-2324184J1122795D01*
G01*
%TO.C,R3*%
X56000000Y-37370000D02*
X56000000Y-39980000D01*
X57370000Y-36000000D02*
G75*
G02*
X54630000Y-36000000I-1370000J0D01*
G01*
X54630000Y-36000000D02*
G75*
G02*
X57370000Y-36000000I1370000J0D01*
G01*
%TO.C,Q23*%
X21020000Y-72570000D02*
X17420000Y-72570000D01*
X16895816Y-73297205D02*
G75*
G02*
X17420000Y-72570000I2324184J-1122795D01*
G01*
X19220000Y-77020000D02*
G75*
G02*
X16863600Y-75518807I0J2600000D01*
G01*
X21020000Y-72570000D02*
G75*
G02*
X21544184Y-73297205I-1800000J-1850000D01*
G01*
X21576400Y-75518807D02*
G75*
G02*
X19220000Y-77020000I-2356400J1098807D01*
G01*
%TO.C,Q17*%
X21020000Y-59235000D02*
X17420000Y-59235000D01*
X16895816Y-59962205D02*
G75*
G02*
X17420000Y-59235000I2324184J-1122795D01*
G01*
X19220000Y-63685000D02*
G75*
G02*
X16863600Y-62183807I0J2600000D01*
G01*
X21020000Y-59235000D02*
G75*
G02*
X21544184Y-59962205I-1800000J-1850000D01*
G01*
X21576400Y-62183807D02*
G75*
G02*
X19220000Y-63685000I-2356400J1098807D01*
G01*
%TO.C,Q24*%
X21020000Y-77650000D02*
X17420000Y-77650000D01*
X16895816Y-78377205D02*
G75*
G02*
X17420000Y-77650000I2324184J-1122795D01*
G01*
X19220000Y-82100000D02*
G75*
G02*
X16863600Y-80598807I0J2600000D01*
G01*
X21020000Y-77650000D02*
G75*
G02*
X21544184Y-78377205I-1800000J-1850000D01*
G01*
X21576400Y-80598807D02*
G75*
G02*
X19220000Y-82100000I-2356400J1098807D01*
G01*
%TO.C,R8*%
X25730000Y-16000000D02*
X28340000Y-16000000D01*
X25730000Y-16000000D02*
G75*
G02*
X22990000Y-16000000I-1370000J0D01*
G01*
X22990000Y-16000000D02*
G75*
G02*
X25730000Y-16000000I1370000J0D01*
G01*
%TO.C,Q15*%
X25100000Y-55315000D02*
X28700000Y-55315000D01*
X24543600Y-52366193D02*
G75*
G02*
X26900000Y-50865000I2356400J-1098807D01*
G01*
X25100000Y-55315000D02*
G75*
G02*
X24575816Y-54587795I1800000J1850000D01*
G01*
X26900000Y-50865000D02*
G75*
G02*
X29256400Y-52366193I0J-2600000D01*
G01*
X29224184Y-54587795D02*
G75*
G02*
X28700000Y-55315000I-2324184J1122795D01*
G01*
%TO.C,Q10*%
X9740000Y-47060000D02*
X13340000Y-47060000D01*
X9183600Y-44111193D02*
G75*
G02*
X11540000Y-42610000I2356400J-1098807D01*
G01*
X9740000Y-47060000D02*
G75*
G02*
X9215816Y-46332795I1800000J1850000D01*
G01*
X11540000Y-42610000D02*
G75*
G02*
X13896400Y-44111193I0J-2600000D01*
G01*
X13864184Y-46332795D02*
G75*
G02*
X13340000Y-47060000I-2324184J1122795D01*
G01*
%TO.C,Q16*%
X9740000Y-63570000D02*
X13340000Y-63570000D01*
X9183600Y-60621193D02*
G75*
G02*
X11540000Y-59120000I2356400J-1098807D01*
G01*
X9740000Y-63570000D02*
G75*
G02*
X9215816Y-62842795I1800000J1850000D01*
G01*
X11540000Y-59120000D02*
G75*
G02*
X13896400Y-60621193I0J-2600000D01*
G01*
X13864184Y-62842795D02*
G75*
G02*
X13340000Y-63570000I-2324184J1122795D01*
G01*
%TO.C,TP2*%
X49500000Y-56000000D02*
G75*
G02*
X46500000Y-56000000I-1500000J0D01*
G01*
X46500000Y-56000000D02*
G75*
G02*
X49500000Y-56000000I1500000J0D01*
G01*
%TO.C,TP1*%
X41500000Y-56000000D02*
G75*
G02*
X38500000Y-56000000I-1500000J0D01*
G01*
X38500000Y-56000000D02*
G75*
G02*
X41500000Y-56000000I1500000J0D01*
G01*
%TO.C,Q2*%
X21020000Y-17960000D02*
X17420000Y-17960000D01*
X16895816Y-18687205D02*
G75*
G02*
X17420000Y-17960000I2324184J-1122795D01*
G01*
X19220000Y-22410000D02*
G75*
G02*
X16863600Y-20908807I0J2600000D01*
G01*
X21020000Y-17960000D02*
G75*
G02*
X21544184Y-18687205I-1800000J-1850000D01*
G01*
X21576400Y-20908807D02*
G75*
G02*
X19220000Y-22410000I-2356400J1098807D01*
G01*
%TO.C,Q22*%
X21020000Y-67490000D02*
X17420000Y-67490000D01*
X16895816Y-68217205D02*
G75*
G02*
X17420000Y-67490000I2324184J-1122795D01*
G01*
X19220000Y-71940000D02*
G75*
G02*
X16863600Y-70438807I0J2600000D01*
G01*
X21020000Y-67490000D02*
G75*
G02*
X21544184Y-68217205I-1800000J-1850000D01*
G01*
X21576400Y-70438807D02*
G75*
G02*
X19220000Y-71940000I-2356400J1098807D01*
G01*
%TO.C,Q11*%
X21020000Y-42725000D02*
X17420000Y-42725000D01*
X16895816Y-43452205D02*
G75*
G02*
X17420000Y-42725000I2324184J-1122795D01*
G01*
X19220000Y-47175000D02*
G75*
G02*
X16863600Y-45673807I0J2600000D01*
G01*
X21020000Y-42725000D02*
G75*
G02*
X21544184Y-43452205I-1800000J-1850000D01*
G01*
X21576400Y-45673807D02*
G75*
G02*
X19220000Y-47175000I-2356400J1098807D01*
G01*
%TO.C,Q6*%
X25100000Y-30550000D02*
X28700000Y-30550000D01*
X24543600Y-27601193D02*
G75*
G02*
X26900000Y-26100000I2356400J-1098807D01*
G01*
X25100000Y-30550000D02*
G75*
G02*
X24575816Y-29822795I1800000J1850000D01*
G01*
X26900000Y-26100000D02*
G75*
G02*
X29256400Y-27601193I0J-2600000D01*
G01*
X29224184Y-29822795D02*
G75*
G02*
X28700000Y-30550000I-2324184J1122795D01*
G01*
%TO.C,R2*%
X51000000Y-37370000D02*
X51000000Y-39980000D01*
X52370000Y-36000000D02*
G75*
G02*
X49630000Y-36000000I-1370000J0D01*
G01*
X49630000Y-36000000D02*
G75*
G02*
X52370000Y-36000000I1370000J0D01*
G01*
%TO.C,C2*%
X93960000Y-27000000D02*
X92420000Y-27000000D01*
X93960000Y-27040000D02*
X92420000Y-27040000D01*
X93960000Y-27080000D02*
X92421000Y-27080000D01*
X93960000Y-27120000D02*
X92423000Y-27120000D01*
X93960000Y-27160000D02*
X92425000Y-27160000D01*
X93960000Y-27200000D02*
X92428000Y-27200000D01*
X93960000Y-27240000D02*
X92431000Y-27240000D01*
X93960000Y-27280000D02*
X92435000Y-27280000D01*
X93960000Y-27320000D02*
X92440000Y-27320000D01*
X93960000Y-27360000D02*
X92445000Y-27360000D01*
X93960000Y-27400000D02*
X92451000Y-27400000D01*
X93960000Y-27440000D02*
X92457000Y-27440000D01*
X93960000Y-27480000D02*
X92464000Y-27480000D01*
X93960000Y-27520000D02*
X92472000Y-27520000D01*
X93960000Y-27560000D02*
X92481000Y-27560000D01*
X93960000Y-27600000D02*
X92490000Y-27600000D01*
X93960000Y-27640000D02*
X92499000Y-27640000D01*
X93960000Y-27680000D02*
X92510000Y-27680000D01*
X93960000Y-27720000D02*
X92521000Y-27720000D01*
X93960000Y-27760000D02*
X92533000Y-27760000D01*
X93960000Y-27800000D02*
X92545000Y-27800000D01*
X93960000Y-27840000D02*
X92558000Y-27840000D01*
X93960000Y-27880000D02*
X92572000Y-27880000D01*
X93960000Y-27920000D02*
X92587000Y-27920000D01*
X93960000Y-27960000D02*
X92602000Y-27960000D01*
X93960000Y-28000000D02*
X92618000Y-28000000D01*
X93960000Y-28040000D02*
X92635000Y-28040000D01*
X93960000Y-28080000D02*
X92653000Y-28080000D01*
X93960000Y-28120000D02*
X92671000Y-28120000D01*
X93960000Y-28160000D02*
X92691000Y-28160000D01*
X93960000Y-28200000D02*
X92711000Y-28200000D01*
X93960000Y-28240000D02*
X92732000Y-28240000D01*
X93960000Y-28280000D02*
X92754000Y-28280000D01*
X93960000Y-28320000D02*
X92777000Y-28320000D01*
X93960000Y-28360000D02*
X92801000Y-28360000D01*
X93960000Y-28400000D02*
X92825000Y-28400000D01*
X93960000Y-28440000D02*
X92851000Y-28440000D01*
X93960000Y-28480000D02*
X92878000Y-28480000D01*
X93960000Y-28520000D02*
X92906000Y-28520000D01*
X93960000Y-28560000D02*
X92935000Y-28560000D01*
X93960000Y-28600000D02*
X92965000Y-28600000D01*
X93960000Y-28640000D02*
X92997000Y-28640000D01*
X93960000Y-28680000D02*
X93030000Y-28680000D01*
X93960000Y-28720000D02*
X93064000Y-28720000D01*
X93960000Y-28760000D02*
X93099000Y-28760000D01*
X93960000Y-28800000D02*
X93136000Y-28800000D01*
X93960000Y-28840000D02*
X93175000Y-28840000D01*
X93960000Y-28880000D02*
X93215000Y-28880000D01*
X93960000Y-28920000D02*
X93257000Y-28920000D01*
X93960000Y-28960000D02*
X93301000Y-28960000D01*
X93960000Y-29000000D02*
X93348000Y-29000000D01*
X95283000Y-29600000D02*
X94717000Y-29600000D01*
X95517000Y-29560000D02*
X94483000Y-29560000D01*
X95677000Y-29520000D02*
X94323000Y-29520000D01*
X95805000Y-29480000D02*
X94195000Y-29480000D01*
X95914000Y-29440000D02*
X94086000Y-29440000D01*
X96011000Y-29400000D02*
X93989000Y-29400000D01*
X96098000Y-29360000D02*
X93902000Y-29360000D01*
X96177000Y-29320000D02*
X93823000Y-29320000D01*
X96251000Y-29280000D02*
X93749000Y-29280000D01*
X96319000Y-29240000D02*
X93681000Y-29240000D01*
X96383000Y-29200000D02*
X93617000Y-29200000D01*
X96443000Y-29160000D02*
X93557000Y-29160000D01*
X96475000Y-24195225D02*
X96475000Y-24695225D01*
X96499000Y-29120000D02*
X93501000Y-29120000D01*
X96553000Y-29080000D02*
X93447000Y-29080000D01*
X96604000Y-29040000D02*
X93396000Y-29040000D01*
X96652000Y-29000000D02*
X96040000Y-29000000D01*
X96699000Y-28960000D02*
X96040000Y-28960000D01*
X96725000Y-24445225D02*
X96225000Y-24445225D01*
X96743000Y-28920000D02*
X96040000Y-28920000D01*
X96785000Y-28880000D02*
X96040000Y-28880000D01*
X96825000Y-28840000D02*
X96040000Y-28840000D01*
X96864000Y-28800000D02*
X96040000Y-28800000D01*
X96901000Y-28760000D02*
X96040000Y-28760000D01*
X96936000Y-28720000D02*
X96040000Y-28720000D01*
X96970000Y-28680000D02*
X96040000Y-28680000D01*
X97003000Y-28640000D02*
X96040000Y-28640000D01*
X97035000Y-28600000D02*
X96040000Y-28600000D01*
X97065000Y-28560000D02*
X96040000Y-28560000D01*
X97094000Y-28520000D02*
X96040000Y-28520000D01*
X97122000Y-28480000D02*
X96040000Y-28480000D01*
X97149000Y-28440000D02*
X96040000Y-28440000D01*
X97175000Y-28400000D02*
X96040000Y-28400000D01*
X97199000Y-28360000D02*
X96040000Y-28360000D01*
X97223000Y-28320000D02*
X96040000Y-28320000D01*
X97246000Y-28280000D02*
X96040000Y-28280000D01*
X97268000Y-28240000D02*
X96040000Y-28240000D01*
X97289000Y-28200000D02*
X96040000Y-28200000D01*
X97309000Y-28160000D02*
X96040000Y-28160000D01*
X97329000Y-28120000D02*
X96040000Y-28120000D01*
X97347000Y-28080000D02*
X96040000Y-28080000D01*
X97365000Y-28040000D02*
X96040000Y-28040000D01*
X97382000Y-28000000D02*
X96040000Y-28000000D01*
X97398000Y-27960000D02*
X96040000Y-27960000D01*
X97413000Y-27920000D02*
X96040000Y-27920000D01*
X97428000Y-27880000D02*
X96040000Y-27880000D01*
X97442000Y-27840000D02*
X96040000Y-27840000D01*
X97455000Y-27800000D02*
X96040000Y-27800000D01*
X97467000Y-27760000D02*
X96040000Y-27760000D01*
X97479000Y-27720000D02*
X96040000Y-27720000D01*
X97490000Y-27680000D02*
X96040000Y-27680000D01*
X97501000Y-27640000D02*
X96040000Y-27640000D01*
X97510000Y-27600000D02*
X96040000Y-27600000D01*
X97519000Y-27560000D02*
X96040000Y-27560000D01*
X97528000Y-27520000D02*
X96040000Y-27520000D01*
X97536000Y-27480000D02*
X96040000Y-27480000D01*
X97543000Y-27440000D02*
X96040000Y-27440000D01*
X97549000Y-27400000D02*
X96040000Y-27400000D01*
X97555000Y-27360000D02*
X96040000Y-27360000D01*
X97560000Y-27320000D02*
X96040000Y-27320000D01*
X97565000Y-27280000D02*
X96040000Y-27280000D01*
X97569000Y-27240000D02*
X96040000Y-27240000D01*
X97572000Y-27200000D02*
X96040000Y-27200000D01*
X97575000Y-27160000D02*
X96040000Y-27160000D01*
X97577000Y-27120000D02*
X96040000Y-27120000D01*
X97579000Y-27080000D02*
X96040000Y-27080000D01*
X97580000Y-27000000D02*
X96040000Y-27000000D01*
X97580000Y-27040000D02*
X96040000Y-27040000D01*
X97620000Y-27000000D02*
G75*
G02*
X92380000Y-27000000I-2620000J0D01*
G01*
X92380000Y-27000000D02*
G75*
G02*
X97620000Y-27000000I2620000J0D01*
G01*
%TO.C,Q20*%
X9740000Y-76905000D02*
X13340000Y-76905000D01*
X9183600Y-73956193D02*
G75*
G02*
X11540000Y-72455000I2356400J-1098807D01*
G01*
X9740000Y-76905000D02*
G75*
G02*
X9215816Y-76177795I1800000J1850000D01*
G01*
X11540000Y-72455000D02*
G75*
G02*
X13896400Y-73956193I0J-2600000D01*
G01*
X13864184Y-76177795D02*
G75*
G02*
X13340000Y-76905000I-2324184J1122795D01*
G01*
%TO.C,R4*%
X61000000Y-37370000D02*
X61000000Y-39980000D01*
X62370000Y-36000000D02*
G75*
G02*
X59630000Y-36000000I-1370000J0D01*
G01*
X59630000Y-36000000D02*
G75*
G02*
X62370000Y-36000000I1370000J0D01*
G01*
%TO.C,J2*%
X5420000Y-1670000D02*
X94580000Y-1670000D01*
X5420000Y-10790000D02*
X5420000Y-1670000D01*
X6720000Y-2980000D02*
X93280000Y-2980000D01*
X6720000Y-9480000D02*
X6720000Y-2980000D01*
X10130000Y-12180000D02*
X11130000Y-12180000D01*
X10630000Y-11180000D02*
X10130000Y-12180000D01*
X11130000Y-12180000D02*
X10630000Y-11180000D01*
X47950000Y-9480000D02*
X6720000Y-9480000D01*
X47950000Y-10790000D02*
X47950000Y-9480000D01*
X52050000Y-9480000D02*
X52050000Y-10790000D01*
X93280000Y-2980000D02*
X93280000Y-9480000D01*
X93280000Y-9480000D02*
X52050000Y-9480000D01*
X94580000Y-1670000D02*
X94580000Y-10790000D01*
X94580000Y-10790000D02*
X5420000Y-10790000D01*
%TO.C,Q18*%
X25100000Y-63570000D02*
X28700000Y-63570000D01*
X24543600Y-60621193D02*
G75*
G02*
X26900000Y-59120000I2356400J-1098807D01*
G01*
X25100000Y-63570000D02*
G75*
G02*
X24575816Y-62842795I1800000J1850000D01*
G01*
X26900000Y-59120000D02*
G75*
G02*
X29256400Y-60621193I0J-2600000D01*
G01*
X29224184Y-62842795D02*
G75*
G02*
X28700000Y-63570000I-2324184J1122795D01*
G01*
%TO.C,R18*%
X10370000Y-49020000D02*
X12980000Y-49020000D01*
X10370000Y-49020000D02*
G75*
G02*
X7630000Y-49020000I-1370000J0D01*
G01*
X7630000Y-49020000D02*
G75*
G02*
X10370000Y-49020000I1370000J0D01*
G01*
%TO.C,Q19*%
X9740000Y-71825000D02*
X13340000Y-71825000D01*
X9183600Y-68876193D02*
G75*
G02*
X11540000Y-67375000I2356400J-1098807D01*
G01*
X9740000Y-71825000D02*
G75*
G02*
X9215816Y-71097795I1800000J1850000D01*
G01*
X11540000Y-67375000D02*
G75*
G02*
X13896400Y-68876193I0J-2600000D01*
G01*
X13864184Y-71097795D02*
G75*
G02*
X13340000Y-71825000I-2324184J1122795D01*
G01*
%TO.C,R6*%
X10370000Y-16000000D02*
X12980000Y-16000000D01*
X10370000Y-16000000D02*
G75*
G02*
X7630000Y-16000000I-1370000J0D01*
G01*
X7630000Y-16000000D02*
G75*
G02*
X10370000Y-16000000I1370000J0D01*
G01*
%TO.C,Q3*%
X25100000Y-22295000D02*
X28700000Y-22295000D01*
X24543600Y-19346193D02*
G75*
G02*
X26900000Y-17845000I2356400J-1098807D01*
G01*
X25100000Y-22295000D02*
G75*
G02*
X24575816Y-21567795I1800000J1850000D01*
G01*
X26900000Y-17845000D02*
G75*
G02*
X29256400Y-19346193I0J-2600000D01*
G01*
X29224184Y-21567795D02*
G75*
G02*
X28700000Y-22295000I-2324184J1122795D01*
G01*
%TO.C,R14*%
X25730000Y-32510000D02*
X28340000Y-32510000D01*
X25730000Y-32510000D02*
G75*
G02*
X22990000Y-32510000I-1370000J0D01*
G01*
X22990000Y-32510000D02*
G75*
G02*
X25730000Y-32510000I1370000J0D01*
G01*
%TO.C,Q12*%
X25100000Y-47060000D02*
X28700000Y-47060000D01*
X24543600Y-44111193D02*
G75*
G02*
X26900000Y-42610000I2356400J-1098807D01*
G01*
X25100000Y-47060000D02*
G75*
G02*
X24575816Y-46332795I1800000J1850000D01*
G01*
X26900000Y-42610000D02*
G75*
G02*
X29256400Y-44111193I0J-2600000D01*
G01*
X29224184Y-46332795D02*
G75*
G02*
X28700000Y-47060000I-2324184J1122795D01*
G01*
%TO.C,R26*%
X25730000Y-70610000D02*
X28340000Y-70610000D01*
X25730000Y-70610000D02*
G75*
G02*
X22990000Y-70610000I-1370000J0D01*
G01*
X22990000Y-70610000D02*
G75*
G02*
X25730000Y-70610000I1370000J0D01*
G01*
%TO.C,R9*%
X10370000Y-24255000D02*
X12980000Y-24255000D01*
X10370000Y-24255000D02*
G75*
G02*
X7630000Y-24255000I-1370000J0D01*
G01*
X7630000Y-24255000D02*
G75*
G02*
X10370000Y-24255000I1370000J0D01*
G01*
%TO.C,TP5*%
X73500000Y-56000000D02*
G75*
G02*
X70500000Y-56000000I-1500000J0D01*
G01*
X70500000Y-56000000D02*
G75*
G02*
X73500000Y-56000000I1500000J0D01*
G01*
%TD*%
M02*
