%TF.GenerationSoftware,KiCad,Pcbnew,10.0.5*%
%TF.CreationDate,2026-10-01T12:32:17-04:00*%
%TF.ProjectId,coupon,636f7570-6f6e-42e6-9b69-6361645f7063,rev?*%
%TF.SameCoordinates,Original*%
%TF.FileFunction,Soldermask,Bot*%
%TF.FilePolarity,Negative*%
%FSLAX46Y46*%
G04 Gerber Fmt 4.6, Leading zero omitted, Abs format (unit mm)*
G04 Created by KiCad (PCBNEW 10.0.5) date 2026-10-01 12:32:17*
%MOMM*%
%LPD*%
G01*
G04 APERTURE LIST*
G04 Aperture macros list*
%AMRoundRect*
0 Rectangle with rounded corners*
0 $1 Rounding radius*
0 $2 $3 $4 $5 $6 $7 $8 $9 X,Y pos of 4 corners*
0 Add a 4 corners polygon primitive as box body*
4,1,4,$2,$3,$4,$5,$6,$7,$8,$9,$2,$3,0*
0 Add four circle primitives for the rounded corners*
1,1,$1+$1,$2,$3*
1,1,$1+$1,$4,$5*
1,1,$1+$1,$6,$7*
1,1,$1+$1,$8,$9*
0 Add four rect primitives between the rounded corners*
20,1,$1+$1,$2,$3,$4,$5,0*
20,1,$1+$1,$4,$5,$6,$7,0*
20,1,$1+$1,$6,$7,$8,$9,0*
20,1,$1+$1,$8,$9,$2,$3,0*%
G04 Aperture macros list end*
%ADD10C,1.600000*%
%ADD11R,1.500000X1.500000*%
%ADD12C,1.500000*%
%ADD13C,2.000000*%
%ADD14RoundRect,0.250000X0.550000X0.550000X-0.550000X0.550000X-0.550000X-0.550000X0.550000X-0.550000X0*%
%ADD15R,1.700000X1.700000*%
%ADD16C,1.700000*%
%ADD17C,6.400000*%
%ADD18RoundRect,0.250000X-0.550000X0.550000X-0.550000X-0.550000X0.550000X-0.550000X0.550000X0.550000X0*%
%ADD19R,1.800000X1.800000*%
%ADD20C,1.800000*%
%ADD21RoundRect,0.250000X-0.600000X0.600000X-0.600000X-0.600000X0.600000X-0.600000X0.600000X0.600000X0*%
G04 APERTURE END LIST*
D10*
%TO.C,R51*%
X58000000Y-54000000D03*
X63080000Y-54000000D03*
%TD*%
D11*
%TO.C,Q8*%
X21760000Y-28065000D03*
D12*
X19220000Y-28065000D03*
X16680000Y-28065000D03*
%TD*%
D13*
%TO.C,TP7*%
X88000000Y-78000000D03*
%TD*%
D11*
%TO.C,Q26*%
X37120000Y-44575000D03*
D12*
X34580000Y-44575000D03*
X32040000Y-44575000D03*
%TD*%
D10*
%TO.C,R44*%
X39720000Y-86485000D03*
X44800000Y-86485000D03*
%TD*%
%TO.C,R6*%
X39720000Y-16000000D03*
X44800000Y-16000000D03*
%TD*%
%TO.C,R26*%
X32040000Y-49020000D03*
X37120000Y-49020000D03*
%TD*%
D13*
%TO.C,TP15*%
X88000000Y-88000000D03*
%TD*%
D14*
%TO.C,D3*%
X73000000Y-64000000D03*
D10*
X65380000Y-64000000D03*
%TD*%
D11*
%TO.C,Q27*%
X39720000Y-45210000D03*
D12*
X42260000Y-45210000D03*
X44800000Y-45210000D03*
%TD*%
D10*
%TO.C,R40*%
X47400000Y-75690000D03*
X52480000Y-75690000D03*
%TD*%
%TO.C,R41*%
X32040000Y-78865000D03*
X37120000Y-78865000D03*
%TD*%
D11*
%TO.C,Q12*%
X52480000Y-28065000D03*
D12*
X49940000Y-28065000D03*
X47400000Y-28065000D03*
%TD*%
D10*
%TO.C,R13*%
X47400000Y-24255000D03*
X52480000Y-24255000D03*
%TD*%
%TO.C,R52*%
X77000000Y-54000000D03*
X77000000Y-59080000D03*
%TD*%
%TO.C,R53*%
X77000000Y-64000000D03*
X77000000Y-69080000D03*
%TD*%
D11*
%TO.C,Q51*%
X37120000Y-74420000D03*
D12*
X34580000Y-74420000D03*
X32040000Y-74420000D03*
%TD*%
D13*
%TO.C,TP14*%
X83000000Y-88000000D03*
%TD*%
D11*
%TO.C,Q17*%
X39720000Y-36955000D03*
D12*
X42260000Y-36955000D03*
X44800000Y-36955000D03*
%TD*%
D10*
%TO.C,R20*%
X9000000Y-40765000D03*
X14080000Y-40765000D03*
%TD*%
D11*
%TO.C,Q36*%
X37120000Y-61085000D03*
D12*
X34580000Y-61085000D03*
X32040000Y-61085000D03*
%TD*%
D11*
%TO.C,Q15*%
X24360000Y-36955000D03*
D12*
X26900000Y-36955000D03*
X29440000Y-36955000D03*
%TD*%
D13*
%TO.C,TP11*%
X68000000Y-88000000D03*
%TD*%
D10*
%TO.C,R19*%
X47400000Y-32510000D03*
X52480000Y-32510000D03*
%TD*%
%TO.C,R48*%
X84000000Y-24000000D03*
X84000000Y-29080000D03*
%TD*%
D11*
%TO.C,Q20*%
X9000000Y-50290000D03*
D12*
X11540000Y-50290000D03*
X14080000Y-50290000D03*
%TD*%
D11*
%TO.C,Q2*%
X21760000Y-19810000D03*
D12*
X19220000Y-19810000D03*
X16680000Y-19810000D03*
%TD*%
D11*
%TO.C,Q42*%
X21760000Y-62990000D03*
D12*
X19220000Y-62990000D03*
X16680000Y-62990000D03*
%TD*%
D13*
%TO.C,TP8*%
X93000000Y-78000000D03*
%TD*%
%TO.C,TP10*%
X63000000Y-88000000D03*
%TD*%
D11*
%TO.C,Q1*%
X9000000Y-20445000D03*
D12*
X11540000Y-20445000D03*
X14080000Y-20445000D03*
%TD*%
D13*
%TO.C,TP6*%
X83000000Y-78000000D03*
%TD*%
D10*
%TO.C,C3*%
X66000000Y-42000000D03*
X66000000Y-44500000D03*
%TD*%
D15*
%TO.C,J1*%
X58000000Y-19000000D03*
D16*
X58000000Y-21540000D03*
X58000000Y-24080000D03*
X58000000Y-26620000D03*
X58000000Y-29160000D03*
X58000000Y-31700000D03*
%TD*%
D14*
%TO.C,D2*%
X73000000Y-54000000D03*
D10*
X65380000Y-54000000D03*
%TD*%
D11*
%TO.C,Q50*%
X24360000Y-82040000D03*
D12*
X26900000Y-82040000D03*
X29440000Y-82040000D03*
%TD*%
D10*
%TO.C,R16*%
X24360000Y-32510000D03*
X29440000Y-32510000D03*
%TD*%
D13*
%TO.C,TP4*%
X73000000Y-78000000D03*
%TD*%
D10*
%TO.C,R50*%
X58000000Y-42000000D03*
X63080000Y-42000000D03*
%TD*%
%TO.C,R21*%
X16680000Y-40765000D03*
X21760000Y-40765000D03*
%TD*%
D11*
%TO.C,Q38*%
X39720000Y-61720000D03*
D12*
X42260000Y-61720000D03*
X44800000Y-61720000D03*
%TD*%
D13*
%TO.C,TP3*%
X68000000Y-78000000D03*
%TD*%
D11*
%TO.C,Q54*%
X52480000Y-79500000D03*
D12*
X49940000Y-79500000D03*
X47400000Y-79500000D03*
%TD*%
D11*
%TO.C,Q30*%
X37120000Y-52830000D03*
D12*
X34580000Y-52830000D03*
X32040000Y-52830000D03*
%TD*%
D11*
%TO.C,Q25*%
X24360000Y-42035000D03*
D12*
X26900000Y-42035000D03*
X29440000Y-42035000D03*
%TD*%
D11*
%TO.C,Q47*%
X9000000Y-76960000D03*
D12*
X11540000Y-76960000D03*
X14080000Y-76960000D03*
%TD*%
D10*
%TO.C,R29*%
X24360000Y-54100000D03*
X29440000Y-54100000D03*
%TD*%
D11*
%TO.C,Q14*%
X21760000Y-36320000D03*
D12*
X19220000Y-36320000D03*
X16680000Y-36320000D03*
%TD*%
D10*
%TO.C,R18*%
X39720000Y-32510000D03*
X44800000Y-32510000D03*
%TD*%
%TO.C,R42*%
X9000000Y-83310000D03*
X14080000Y-83310000D03*
%TD*%
D11*
%TO.C,Q21*%
X9000000Y-55370000D03*
D12*
X11540000Y-55370000D03*
X14080000Y-55370000D03*
%TD*%
D10*
%TO.C,C1*%
X95000000Y-16500000D03*
X95000000Y-19000000D03*
%TD*%
%TO.C,R25*%
X24360000Y-45845000D03*
X29440000Y-45845000D03*
%TD*%
%TO.C,R9*%
X16680000Y-24255000D03*
X21760000Y-24255000D03*
%TD*%
D11*
%TO.C,Q37*%
X37120000Y-66165000D03*
D12*
X34580000Y-66165000D03*
X32040000Y-66165000D03*
%TD*%
D11*
%TO.C,Q34*%
X24360000Y-58545000D03*
D12*
X26900000Y-58545000D03*
X29440000Y-58545000D03*
%TD*%
D10*
%TO.C,R17*%
X32040000Y-32510000D03*
X37120000Y-32510000D03*
%TD*%
%TO.C,R14*%
X9000000Y-32510000D03*
X14080000Y-32510000D03*
%TD*%
D11*
%TO.C,Q10*%
X37120000Y-28065000D03*
D12*
X34580000Y-28065000D03*
X32040000Y-28065000D03*
%TD*%
D13*
%TO.C,TP12*%
X73000000Y-88000000D03*
%TD*%
D11*
%TO.C,Q5*%
X39720000Y-20445000D03*
D12*
X42260000Y-20445000D03*
X44800000Y-20445000D03*
%TD*%
D11*
%TO.C,Q6*%
X52480000Y-19810000D03*
D12*
X49940000Y-19810000D03*
X47400000Y-19810000D03*
%TD*%
D10*
%TO.C,R28*%
X47400000Y-49020000D03*
X52480000Y-49020000D03*
%TD*%
D11*
%TO.C,Q19*%
X9000000Y-45210000D03*
D12*
X11540000Y-45210000D03*
X14080000Y-45210000D03*
%TD*%
D10*
%TO.C,R10*%
X24360000Y-24255000D03*
X29440000Y-24255000D03*
%TD*%
%TO.C,R32*%
X9000000Y-59180000D03*
X14080000Y-59180000D03*
%TD*%
D11*
%TO.C,Q53*%
X39720000Y-80135000D03*
D12*
X42260000Y-80135000D03*
X44800000Y-80135000D03*
%TD*%
D10*
%TO.C,R22*%
X32040000Y-40765000D03*
X37120000Y-40765000D03*
%TD*%
%TO.C,R39*%
X39720000Y-75690000D03*
X44800000Y-75690000D03*
%TD*%
D11*
%TO.C,Q31*%
X39720000Y-53465000D03*
D12*
X42260000Y-53465000D03*
X44800000Y-53465000D03*
%TD*%
D10*
%TO.C,R23*%
X39720000Y-40765000D03*
X44800000Y-40765000D03*
%TD*%
D11*
%TO.C,Q24*%
X21760000Y-54735000D03*
D12*
X19220000Y-54735000D03*
X16680000Y-54735000D03*
%TD*%
D11*
%TO.C,Q55*%
X37120000Y-89660000D03*
D12*
X34580000Y-89660000D03*
X32040000Y-89660000D03*
%TD*%
D11*
%TO.C,Q7*%
X9000000Y-28700000D03*
D12*
X11540000Y-28700000D03*
X14080000Y-28700000D03*
%TD*%
D10*
%TO.C,R1*%
X88000000Y-14000000D03*
X88000000Y-19080000D03*
%TD*%
D11*
%TO.C,Q13*%
X9000000Y-36955000D03*
D12*
X11540000Y-36955000D03*
X14080000Y-36955000D03*
%TD*%
D10*
%TO.C,R15*%
X16680000Y-32510000D03*
X21760000Y-32510000D03*
%TD*%
%TO.C,R38*%
X16680000Y-72515000D03*
X21760000Y-72515000D03*
%TD*%
D11*
%TO.C,Q46*%
X9000000Y-71880000D03*
D12*
X11540000Y-71880000D03*
X14080000Y-71880000D03*
%TD*%
D10*
%TO.C,R49*%
X77000000Y-42000000D03*
X77000000Y-47080000D03*
%TD*%
D13*
%TO.C,TP5*%
X78000000Y-78000000D03*
%TD*%
D17*
%TO.C,H1*%
X4000000Y-50000000D03*
%TD*%
D11*
%TO.C,Q11*%
X39720000Y-28700000D03*
D12*
X42260000Y-28700000D03*
X44800000Y-28700000D03*
%TD*%
D11*
%TO.C,Q44*%
X52480000Y-66165000D03*
D12*
X49940000Y-66165000D03*
X47400000Y-66165000D03*
%TD*%
D10*
%TO.C,R43*%
X16680000Y-83310000D03*
X21760000Y-83310000D03*
%TD*%
%TO.C,R8*%
X9000000Y-24255000D03*
X14080000Y-24255000D03*
%TD*%
D13*
%TO.C,TP1*%
X58000000Y-78000000D03*
%TD*%
D11*
%TO.C,Q9*%
X24360000Y-28700000D03*
D12*
X26900000Y-28700000D03*
X29440000Y-28700000D03*
%TD*%
D11*
%TO.C,Q41*%
X9000000Y-63625000D03*
D12*
X11540000Y-63625000D03*
X14080000Y-63625000D03*
%TD*%
D10*
%TO.C,R3*%
X16680000Y-16000000D03*
X21760000Y-16000000D03*
%TD*%
%TO.C,R36*%
X24360000Y-67435000D03*
X29440000Y-67435000D03*
%TD*%
D11*
%TO.C,Q35*%
X24360000Y-63625000D03*
D12*
X26900000Y-63625000D03*
X29440000Y-63625000D03*
%TD*%
D10*
%TO.C,R35*%
X9000000Y-67435000D03*
X14080000Y-67435000D03*
%TD*%
D11*
%TO.C,Q23*%
X21760000Y-49655000D03*
D12*
X19220000Y-49655000D03*
X16680000Y-49655000D03*
%TD*%
D10*
%TO.C,R5*%
X32040000Y-16000000D03*
X37120000Y-16000000D03*
%TD*%
%TO.C,R2*%
X9000000Y-16000000D03*
X14080000Y-16000000D03*
%TD*%
%TO.C,R30*%
X32040000Y-57275000D03*
X37120000Y-57275000D03*
%TD*%
%TO.C,R24*%
X47400000Y-40765000D03*
X52480000Y-40765000D03*
%TD*%
D11*
%TO.C,Q4*%
X37120000Y-19810000D03*
D12*
X34580000Y-19810000D03*
X32040000Y-19810000D03*
%TD*%
D11*
%TO.C,Q33*%
X52480000Y-57910000D03*
D12*
X49940000Y-57910000D03*
X47400000Y-57910000D03*
%TD*%
D11*
%TO.C,Q56*%
X72000000Y-36000000D03*
D12*
X74540000Y-36000000D03*
X77080000Y-36000000D03*
%TD*%
D10*
%TO.C,R37*%
X32040000Y-70610000D03*
X37120000Y-70610000D03*
%TD*%
D11*
%TO.C,Q29*%
X24360000Y-50290000D03*
D12*
X26900000Y-50290000D03*
X29440000Y-50290000D03*
%TD*%
D13*
%TO.C,TP9*%
X58000000Y-88000000D03*
%TD*%
D15*
%TO.C,J2*%
X68000000Y-19000000D03*
D16*
X68000000Y-21540000D03*
%TD*%
D11*
%TO.C,Q43*%
X21760000Y-68070000D03*
D12*
X19220000Y-68070000D03*
X16680000Y-68070000D03*
%TD*%
D10*
%TO.C,R47*%
X76000000Y-24000000D03*
X76000000Y-29080000D03*
%TD*%
D11*
%TO.C,Q16*%
X37120000Y-36320000D03*
D12*
X34580000Y-36320000D03*
X32040000Y-36320000D03*
%TD*%
D11*
%TO.C,Q39*%
X39720000Y-66800000D03*
D12*
X42260000Y-66800000D03*
X44800000Y-66800000D03*
%TD*%
D13*
%TO.C,TP2*%
X63000000Y-78000000D03*
%TD*%
D10*
%TO.C,R31*%
X39720000Y-57275000D03*
X44800000Y-57275000D03*
%TD*%
D18*
%TO.C,C2*%
X95000000Y-26000000D03*
D10*
X95000000Y-28000000D03*
%TD*%
%TO.C,R33*%
X16680000Y-59180000D03*
X21760000Y-59180000D03*
%TD*%
%TO.C,R27*%
X39720000Y-49020000D03*
X44800000Y-49020000D03*
%TD*%
%TO.C,R7*%
X47400000Y-16000000D03*
X52480000Y-16000000D03*
%TD*%
%TO.C,R46*%
X9000000Y-88390000D03*
X14080000Y-88390000D03*
%TD*%
%TO.C,R11*%
X32040000Y-24255000D03*
X37120000Y-24255000D03*
%TD*%
D11*
%TO.C,Q57*%
X82000000Y-36000000D03*
D12*
X84540000Y-36000000D03*
X87080000Y-36000000D03*
%TD*%
D10*
%TO.C,R34*%
X47400000Y-62355000D03*
X52480000Y-62355000D03*
%TD*%
%TO.C,R45*%
X47400000Y-86485000D03*
X52480000Y-86485000D03*
%TD*%
D17*
%TO.C,H2*%
X96000000Y-50000000D03*
%TD*%
D10*
%TO.C,R4*%
X24360000Y-16000000D03*
X29440000Y-16000000D03*
%TD*%
D11*
%TO.C,Q28*%
X52480000Y-44575000D03*
D12*
X49940000Y-44575000D03*
X47400000Y-44575000D03*
%TD*%
D11*
%TO.C,Q45*%
X52480000Y-71245000D03*
D12*
X49940000Y-71245000D03*
X47400000Y-71245000D03*
%TD*%
D11*
%TO.C,Q18*%
X52480000Y-36320000D03*
D12*
X49940000Y-36320000D03*
X47400000Y-36320000D03*
%TD*%
D11*
%TO.C,Q32*%
X52480000Y-52830000D03*
D12*
X49940000Y-52830000D03*
X47400000Y-52830000D03*
%TD*%
D11*
%TO.C,Q40*%
X39720000Y-71880000D03*
D12*
X42260000Y-71880000D03*
X44800000Y-71880000D03*
%TD*%
D11*
%TO.C,Q22*%
X21760000Y-44575000D03*
D12*
X19220000Y-44575000D03*
X16680000Y-44575000D03*
%TD*%
D11*
%TO.C,Q3*%
X24360000Y-20445000D03*
D12*
X26900000Y-20445000D03*
X29440000Y-20445000D03*
%TD*%
D11*
%TO.C,Q49*%
X24360000Y-76960000D03*
D12*
X26900000Y-76960000D03*
X29440000Y-76960000D03*
%TD*%
D11*
%TO.C,Q52*%
X21760000Y-76325000D03*
D12*
X19220000Y-76325000D03*
X16680000Y-76325000D03*
%TD*%
D11*
%TO.C,Q48*%
X24360000Y-71880000D03*
D12*
X26900000Y-71880000D03*
X29440000Y-71880000D03*
%TD*%
D10*
%TO.C,R12*%
X39720000Y-24255000D03*
X44800000Y-24255000D03*
%TD*%
D13*
%TO.C,TP13*%
X78000000Y-88000000D03*
%TD*%
D19*
%TO.C,D1*%
X34580000Y-85215000D03*
D20*
X34580000Y-82675000D03*
%TD*%
D21*
%TO.C,J3*%
X10630000Y-4960000D03*
D16*
X10630000Y-7500000D03*
X13170000Y-4960000D03*
X13170000Y-7500000D03*
X15710000Y-4960000D03*
X15710000Y-7500000D03*
X18250000Y-4960000D03*
X18250000Y-7500000D03*
X20790000Y-4960000D03*
X20790000Y-7500000D03*
X23330000Y-4960000D03*
X23330000Y-7500000D03*
X25870000Y-4960000D03*
X25870000Y-7500000D03*
X28410000Y-4960000D03*
X28410000Y-7500000D03*
X30950000Y-4960000D03*
X30950000Y-7500000D03*
X33490000Y-4960000D03*
X33490000Y-7500000D03*
X36030000Y-4960000D03*
X36030000Y-7500000D03*
X38570000Y-4960000D03*
X38570000Y-7500000D03*
X41110000Y-4960000D03*
X41110000Y-7500000D03*
X43650000Y-4960000D03*
X43650000Y-7500000D03*
X46190000Y-4960000D03*
X46190000Y-7500000D03*
X48730000Y-4960000D03*
X48730000Y-7500000D03*
X51270000Y-4960000D03*
X51270000Y-7500000D03*
X53810000Y-4960000D03*
X53810000Y-7500000D03*
X56350000Y-4960000D03*
X56350000Y-7500000D03*
X58890000Y-4960000D03*
X58890000Y-7500000D03*
X61430000Y-4960000D03*
X61430000Y-7500000D03*
X63970000Y-4960000D03*
X63970000Y-7500000D03*
X66510000Y-4960000D03*
X66510000Y-7500000D03*
X69050000Y-4960000D03*
X69050000Y-7500000D03*
X71590000Y-4960000D03*
X71590000Y-7500000D03*
X74130000Y-4960000D03*
X74130000Y-7500000D03*
X76670000Y-4960000D03*
X76670000Y-7500000D03*
X79210000Y-4960000D03*
X79210000Y-7500000D03*
X81750000Y-4960000D03*
X81750000Y-7500000D03*
X84290000Y-4960000D03*
X84290000Y-7500000D03*
X86830000Y-4960000D03*
X86830000Y-7500000D03*
X89370000Y-4960000D03*
X89370000Y-7500000D03*
%TD*%
M02*
