M48
; DRILL file KiCad 10.0.5 date 2026-09-11T06:26:47
; FORMAT={-:-/ absolute / metric / decimal}
; #@! TF.CreationDate,2026-09-11T06:26:47-04:00
; #@! TF.GenerationSoftware,Kicad,Pcbnew,10.0.5
; #@! TF.FileFunction,MixedPlating,1,2
FMAT,2
METRIC
; #@! TA.AperFunction,Plated,PTH,ViaDrill
T1C0.300
; #@! TA.AperFunction,Plated,PTH,ViaDrill
T2C0.400
; #@! TA.AperFunction,Plated,PTH,ComponentDrill
T3C0.800
; #@! TA.AperFunction,Plated,PTH,ComponentDrill
T4C0.900
; #@! TA.AperFunction,Plated,PTH,ComponentDrill
T5C1.000
; #@! TA.AperFunction,Plated,PTH,ComponentDrill
T6C3.200
%
G90
G05
T1
X25.882Y-38.534
X31.756Y-62.804
X38.907Y-37.325
X38.907Y-62.097
T2
X7.73Y-12.5
X10.63Y-14.0
X15.41Y-14.0
X18.25Y-2.46
X23.09Y-12.5
X30.77Y-14.0
X63.5Y-41.08
X89.37Y-2.46
X89.37Y-14.0
X95.0Y-21.5
X95.0Y-30.5
T3
X9.0Y-16.0
X9.0Y-20.445
X9.0Y-24.255
X9.0Y-28.7
X9.0Y-32.51
X9.0Y-36.955
X9.0Y-40.765
X9.0Y-45.21
X9.0Y-49.02
X9.0Y-53.465
X9.0Y-57.275
X9.0Y-61.72
X9.0Y-65.53
X9.0Y-69.975
X9.0Y-75.055
X9.0Y-80.135
X11.54Y-20.445
X11.54Y-28.7
X11.54Y-36.955
X11.54Y-45.21
X11.54Y-53.465
X11.54Y-61.72
X11.54Y-69.975
X11.54Y-75.055
X11.54Y-80.135
X14.08Y-16.0
X14.08Y-20.445
X14.08Y-24.255
X14.08Y-28.7
X14.08Y-32.51
X14.08Y-36.955
X14.08Y-40.765
X14.08Y-45.21
X14.08Y-49.02
X14.08Y-53.465
X14.08Y-57.275
X14.08Y-61.72
X14.08Y-65.53
X14.08Y-69.975
X14.08Y-75.055
X14.08Y-80.135
X16.68Y-16.0
X16.68Y-19.81
X16.68Y-24.255
X16.68Y-28.065
X16.68Y-32.51
X16.68Y-36.32
X16.68Y-40.765
X16.68Y-44.575
X16.68Y-49.02
X16.68Y-52.83
X16.68Y-57.275
X16.68Y-61.085
X16.68Y-65.53
X16.68Y-69.34
X16.68Y-74.42
X16.68Y-79.5
X19.22Y-19.81
X19.22Y-28.065
X19.22Y-36.32
X19.22Y-44.575
X19.22Y-52.83
X19.22Y-61.085
X19.22Y-69.34
X19.22Y-74.42
X19.22Y-79.5
X21.76Y-16.0
X21.76Y-19.81
X21.76Y-24.255
X21.76Y-28.065
X21.76Y-32.51
X21.76Y-36.32
X21.76Y-40.765
X21.76Y-44.575
X21.76Y-49.02
X21.76Y-52.83
X21.76Y-57.275
X21.76Y-61.085
X21.76Y-65.53
X21.76Y-69.34
X21.76Y-74.42
X21.76Y-79.5
X24.36Y-16.0
X24.36Y-20.445
X24.36Y-24.255
X24.36Y-28.7
X24.36Y-32.51
X24.36Y-36.955
X24.36Y-40.765
X24.36Y-45.21
X24.36Y-49.02
X24.36Y-53.465
X24.36Y-57.275
X24.36Y-61.72
X24.36Y-66.8
X24.36Y-70.61
X24.36Y-81.405
X26.9Y-20.445
X26.9Y-28.7
X26.9Y-36.955
X26.9Y-45.21
X26.9Y-53.465
X26.9Y-61.72
X26.9Y-66.8
X26.9Y-81.405
X29.44Y-16.0
X29.44Y-20.445
X29.44Y-24.255
X29.44Y-28.7
X29.44Y-32.51
X29.44Y-36.955
X29.44Y-40.765
X29.44Y-45.21
X29.44Y-49.02
X29.44Y-53.465
X29.44Y-57.275
X29.44Y-61.72
X29.44Y-66.8
X29.44Y-70.61
X29.44Y-81.405
X46.0Y-36.0
X46.0Y-41.08
X51.0Y-36.0
X51.0Y-41.08
X56.0Y-36.0
X56.0Y-41.08
X61.0Y-36.0
X61.0Y-41.08
X85.0Y-14.0
X85.0Y-19.08
X95.0Y-16.5
X95.0Y-19.0
X95.0Y-26.0
X95.0Y-28.0
T4
X26.9Y-74.42
X26.9Y-76.96
T5
X10.63Y-4.96
X10.63Y-7.5
X13.17Y-4.96
X13.17Y-7.5
X15.71Y-4.96
X15.71Y-7.5
X18.25Y-4.96
X18.25Y-7.5
X20.79Y-4.96
X20.79Y-7.5
X23.33Y-4.96
X23.33Y-7.5
X25.87Y-4.96
X25.87Y-7.5
X28.41Y-4.96
X28.41Y-7.5
X30.95Y-4.96
X30.95Y-7.5
X33.49Y-4.96
X33.49Y-7.5
X36.03Y-4.96
X36.03Y-7.5
X38.57Y-4.96
X38.57Y-7.5
X40.0Y-22.0
X40.0Y-24.54
X40.0Y-27.08
X40.0Y-29.62
X40.0Y-56.0
X41.11Y-4.96
X41.11Y-7.5
X43.65Y-4.96
X43.65Y-7.5
X46.19Y-4.96
X46.19Y-7.5
X48.0Y-56.0
X48.73Y-4.96
X48.73Y-7.5
X51.27Y-4.96
X51.27Y-7.5
X53.81Y-4.96
X53.81Y-7.5
X56.0Y-56.0
X56.35Y-4.96
X56.35Y-7.5
X58.89Y-4.96
X58.89Y-7.5
X61.43Y-4.96
X61.43Y-7.5
X63.97Y-4.96
X63.97Y-7.5
X64.0Y-56.0
X66.51Y-4.96
X66.51Y-7.5
X69.05Y-4.96
X69.05Y-7.5
X71.59Y-4.96
X71.59Y-7.5
X72.0Y-56.0
X74.13Y-4.96
X74.13Y-7.5
X76.67Y-4.96
X76.67Y-7.5
X79.21Y-4.96
X79.21Y-7.5
X80.0Y-56.0
X81.75Y-4.96
X81.75Y-7.5
X84.29Y-4.96
X84.29Y-7.5
X86.83Y-4.96
X86.83Y-7.5
X89.37Y-4.96
X89.37Y-7.5
T6
X4.0Y-50.0
X96.0Y-50.0
M30
