%TF.GenerationSoftware,KiCad,Pcbnew,10.0.5*%
%TF.CreationDate,2026-09-28T17:24:48-04:00*%
%TF.ProjectId,coupon,636f7570-6f6e-42e6-9b69-6361645f7063,rev?*%
%TF.SameCoordinates,Original*%
%TF.FileFunction,Legend,Top*%
%TF.FilePolarity,Positive*%
%FSLAX46Y46*%
G04 Gerber Fmt 4.6, Leading zero omitted, Abs format (unit mm)*
G04 Created by KiCad (PCBNEW 10.0.5) date 2026-09-28 17:24:48*
%MOMM*%
%LPD*%
G01*
G04 APERTURE LIST*
%ADD10C,0.150000*%
%ADD11C,0.250000*%
%ADD12C,0.120000*%
G04 APERTURE END LIST*
D10*
X37269160Y-84927295D02*
X37269160Y-84127295D01*
X37650112Y-84927295D02*
X37650112Y-84127295D01*
X37650112Y-84127295D02*
X38107255Y-84927295D01*
X38107255Y-84927295D02*
X38107255Y-84127295D01*
X56546303Y-82362295D02*
X56279636Y-81981342D01*
X56089160Y-82362295D02*
X56089160Y-81562295D01*
X56089160Y-81562295D02*
X56393922Y-81562295D01*
X56393922Y-81562295D02*
X56470112Y-81600390D01*
X56470112Y-81600390D02*
X56508207Y-81638485D01*
X56508207Y-81638485D02*
X56546303Y-81714676D01*
X56546303Y-81714676D02*
X56546303Y-81828961D01*
X56546303Y-81828961D02*
X56508207Y-81905152D01*
X56508207Y-81905152D02*
X56470112Y-81943247D01*
X56470112Y-81943247D02*
X56393922Y-81981342D01*
X56393922Y-81981342D02*
X56089160Y-81981342D01*
X56889160Y-82362295D02*
X56889160Y-81562295D01*
X57270112Y-82362295D02*
X57270112Y-81562295D01*
X57270112Y-81562295D02*
X57727255Y-82362295D01*
X57727255Y-82362295D02*
X57727255Y-81562295D01*
X58527254Y-81600390D02*
X58451064Y-81562295D01*
X58451064Y-81562295D02*
X58336778Y-81562295D01*
X58336778Y-81562295D02*
X58222492Y-81600390D01*
X58222492Y-81600390D02*
X58146302Y-81676580D01*
X58146302Y-81676580D02*
X58108207Y-81752771D01*
X58108207Y-81752771D02*
X58070111Y-81905152D01*
X58070111Y-81905152D02*
X58070111Y-82019438D01*
X58070111Y-82019438D02*
X58108207Y-82171819D01*
X58108207Y-82171819D02*
X58146302Y-82248009D01*
X58146302Y-82248009D02*
X58222492Y-82324200D01*
X58222492Y-82324200D02*
X58336778Y-82362295D01*
X58336778Y-82362295D02*
X58412969Y-82362295D01*
X58412969Y-82362295D02*
X58527254Y-82324200D01*
X58527254Y-82324200D02*
X58565350Y-82286104D01*
X58565350Y-82286104D02*
X58565350Y-82019438D01*
X58565350Y-82019438D02*
X58412969Y-82019438D01*
X56012969Y-91562295D02*
X56546303Y-92362295D01*
X56546303Y-91562295D02*
X56012969Y-92362295D01*
X56789160Y-15862295D02*
X56789160Y-15062295D01*
X57170112Y-15862295D02*
X57170112Y-15062295D01*
X57170112Y-15062295D02*
X57627255Y-15862295D01*
X57627255Y-15862295D02*
X57627255Y-15062295D01*
X58008207Y-15862295D02*
X58008207Y-15062295D01*
X58008207Y-15062295D02*
X58312969Y-15062295D01*
X58312969Y-15062295D02*
X58389159Y-15100390D01*
X58389159Y-15100390D02*
X58427254Y-15138485D01*
X58427254Y-15138485D02*
X58465350Y-15214676D01*
X58465350Y-15214676D02*
X58465350Y-15328961D01*
X58465350Y-15328961D02*
X58427254Y-15405152D01*
X58427254Y-15405152D02*
X58389159Y-15443247D01*
X58389159Y-15443247D02*
X58312969Y-15481342D01*
X58312969Y-15481342D02*
X58008207Y-15481342D01*
X58808207Y-15062295D02*
X58808207Y-15709914D01*
X58808207Y-15709914D02*
X58846302Y-15786104D01*
X58846302Y-15786104D02*
X58884397Y-15824200D01*
X58884397Y-15824200D02*
X58960588Y-15862295D01*
X58960588Y-15862295D02*
X59112969Y-15862295D01*
X59112969Y-15862295D02*
X59189159Y-15824200D01*
X59189159Y-15824200D02*
X59227254Y-15786104D01*
X59227254Y-15786104D02*
X59265350Y-15709914D01*
X59265350Y-15709914D02*
X59265350Y-15062295D01*
X59532016Y-15062295D02*
X59989159Y-15062295D01*
X59760587Y-15862295D02*
X59760587Y-15062295D01*
X60217730Y-15824200D02*
X60332016Y-15862295D01*
X60332016Y-15862295D02*
X60522492Y-15862295D01*
X60522492Y-15862295D02*
X60598683Y-15824200D01*
X60598683Y-15824200D02*
X60636778Y-15786104D01*
X60636778Y-15786104D02*
X60674873Y-15709914D01*
X60674873Y-15709914D02*
X60674873Y-15633723D01*
X60674873Y-15633723D02*
X60636778Y-15557533D01*
X60636778Y-15557533D02*
X60598683Y-15519438D01*
X60598683Y-15519438D02*
X60522492Y-15481342D01*
X60522492Y-15481342D02*
X60370111Y-15443247D01*
X60370111Y-15443247D02*
X60293921Y-15405152D01*
X60293921Y-15405152D02*
X60255826Y-15367057D01*
X60255826Y-15367057D02*
X60217730Y-15290866D01*
X60217730Y-15290866D02*
X60217730Y-15214676D01*
X60217730Y-15214676D02*
X60255826Y-15138485D01*
X60255826Y-15138485D02*
X60293921Y-15100390D01*
X60293921Y-15100390D02*
X60370111Y-15062295D01*
X60370111Y-15062295D02*
X60560588Y-15062295D01*
X60560588Y-15062295D02*
X60674873Y-15100390D01*
X58289160Y-50862295D02*
X58289160Y-50062295D01*
X58289160Y-50062295D02*
X58479636Y-50062295D01*
X58479636Y-50062295D02*
X58593922Y-50100390D01*
X58593922Y-50100390D02*
X58670112Y-50176580D01*
X58670112Y-50176580D02*
X58708207Y-50252771D01*
X58708207Y-50252771D02*
X58746303Y-50405152D01*
X58746303Y-50405152D02*
X58746303Y-50519438D01*
X58746303Y-50519438D02*
X58708207Y-50671819D01*
X58708207Y-50671819D02*
X58670112Y-50748009D01*
X58670112Y-50748009D02*
X58593922Y-50824200D01*
X58593922Y-50824200D02*
X58479636Y-50862295D01*
X58479636Y-50862295D02*
X58289160Y-50862295D01*
X59546303Y-50862295D02*
X59279636Y-50481342D01*
X59089160Y-50862295D02*
X59089160Y-50062295D01*
X59089160Y-50062295D02*
X59393922Y-50062295D01*
X59393922Y-50062295D02*
X59470112Y-50100390D01*
X59470112Y-50100390D02*
X59508207Y-50138485D01*
X59508207Y-50138485D02*
X59546303Y-50214676D01*
X59546303Y-50214676D02*
X59546303Y-50328961D01*
X59546303Y-50328961D02*
X59508207Y-50405152D01*
X59508207Y-50405152D02*
X59470112Y-50443247D01*
X59470112Y-50443247D02*
X59393922Y-50481342D01*
X59393922Y-50481342D02*
X59089160Y-50481342D01*
X59889160Y-50862295D02*
X59889160Y-50062295D01*
X60155826Y-50062295D02*
X60422493Y-50862295D01*
X60422493Y-50862295D02*
X60689159Y-50062295D01*
X60955826Y-50443247D02*
X61222492Y-50443247D01*
X61336778Y-50862295D02*
X60955826Y-50862295D01*
X60955826Y-50862295D02*
X60955826Y-50062295D01*
X60955826Y-50062295D02*
X61336778Y-50062295D01*
X62136779Y-50862295D02*
X61870112Y-50481342D01*
X61679636Y-50862295D02*
X61679636Y-50062295D01*
X61679636Y-50062295D02*
X61984398Y-50062295D01*
X61984398Y-50062295D02*
X62060588Y-50100390D01*
X62060588Y-50100390D02*
X62098683Y-50138485D01*
X62098683Y-50138485D02*
X62136779Y-50214676D01*
X62136779Y-50214676D02*
X62136779Y-50328961D01*
X62136779Y-50328961D02*
X62098683Y-50405152D01*
X62098683Y-50405152D02*
X62060588Y-50443247D01*
X62060588Y-50443247D02*
X61984398Y-50481342D01*
X61984398Y-50481342D02*
X61679636Y-50481342D01*
X58746303Y-62862295D02*
X58479636Y-62481342D01*
X58289160Y-62862295D02*
X58289160Y-62062295D01*
X58289160Y-62062295D02*
X58593922Y-62062295D01*
X58593922Y-62062295D02*
X58670112Y-62100390D01*
X58670112Y-62100390D02*
X58708207Y-62138485D01*
X58708207Y-62138485D02*
X58746303Y-62214676D01*
X58746303Y-62214676D02*
X58746303Y-62328961D01*
X58746303Y-62328961D02*
X58708207Y-62405152D01*
X58708207Y-62405152D02*
X58670112Y-62443247D01*
X58670112Y-62443247D02*
X58593922Y-62481342D01*
X58593922Y-62481342D02*
X58289160Y-62481342D01*
X59241541Y-62062295D02*
X59393922Y-62062295D01*
X59393922Y-62062295D02*
X59470112Y-62100390D01*
X59470112Y-62100390D02*
X59546303Y-62176580D01*
X59546303Y-62176580D02*
X59584398Y-62328961D01*
X59584398Y-62328961D02*
X59584398Y-62595628D01*
X59584398Y-62595628D02*
X59546303Y-62748009D01*
X59546303Y-62748009D02*
X59470112Y-62824200D01*
X59470112Y-62824200D02*
X59393922Y-62862295D01*
X59393922Y-62862295D02*
X59241541Y-62862295D01*
X59241541Y-62862295D02*
X59165350Y-62824200D01*
X59165350Y-62824200D02*
X59089160Y-62748009D01*
X59089160Y-62748009D02*
X59051064Y-62595628D01*
X59051064Y-62595628D02*
X59051064Y-62328961D01*
X59051064Y-62328961D02*
X59089160Y-62176580D01*
X59089160Y-62176580D02*
X59165350Y-62100390D01*
X59165350Y-62100390D02*
X59241541Y-62062295D01*
X59927255Y-62862295D02*
X59927255Y-62062295D01*
X59927255Y-62062295D02*
X60193921Y-62633723D01*
X60193921Y-62633723D02*
X60460588Y-62062295D01*
X60460588Y-62062295D02*
X60460588Y-62862295D01*
X58174874Y-74062295D02*
X58632017Y-74062295D01*
X58403445Y-74862295D02*
X58403445Y-74062295D01*
X58898684Y-74443247D02*
X59165350Y-74443247D01*
X59279636Y-74862295D02*
X58898684Y-74862295D01*
X58898684Y-74862295D02*
X58898684Y-74062295D01*
X58898684Y-74062295D02*
X59279636Y-74062295D01*
X59584398Y-74824200D02*
X59698684Y-74862295D01*
X59698684Y-74862295D02*
X59889160Y-74862295D01*
X59889160Y-74862295D02*
X59965351Y-74824200D01*
X59965351Y-74824200D02*
X60003446Y-74786104D01*
X60003446Y-74786104D02*
X60041541Y-74709914D01*
X60041541Y-74709914D02*
X60041541Y-74633723D01*
X60041541Y-74633723D02*
X60003446Y-74557533D01*
X60003446Y-74557533D02*
X59965351Y-74519438D01*
X59965351Y-74519438D02*
X59889160Y-74481342D01*
X59889160Y-74481342D02*
X59736779Y-74443247D01*
X59736779Y-74443247D02*
X59660589Y-74405152D01*
X59660589Y-74405152D02*
X59622494Y-74367057D01*
X59622494Y-74367057D02*
X59584398Y-74290866D01*
X59584398Y-74290866D02*
X59584398Y-74214676D01*
X59584398Y-74214676D02*
X59622494Y-74138485D01*
X59622494Y-74138485D02*
X59660589Y-74100390D01*
X59660589Y-74100390D02*
X59736779Y-74062295D01*
X59736779Y-74062295D02*
X59927256Y-74062295D01*
X59927256Y-74062295D02*
X60041541Y-74100390D01*
X60270113Y-74062295D02*
X60727256Y-74062295D01*
X60498684Y-74862295D02*
X60498684Y-74062295D01*
X61984399Y-74862295D02*
X61603447Y-74862295D01*
X61603447Y-74862295D02*
X61603447Y-74062295D01*
X62403447Y-74062295D02*
X62555828Y-74062295D01*
X62555828Y-74062295D02*
X62632018Y-74100390D01*
X62632018Y-74100390D02*
X62708209Y-74176580D01*
X62708209Y-74176580D02*
X62746304Y-74328961D01*
X62746304Y-74328961D02*
X62746304Y-74595628D01*
X62746304Y-74595628D02*
X62708209Y-74748009D01*
X62708209Y-74748009D02*
X62632018Y-74824200D01*
X62632018Y-74824200D02*
X62555828Y-74862295D01*
X62555828Y-74862295D02*
X62403447Y-74862295D01*
X62403447Y-74862295D02*
X62327256Y-74824200D01*
X62327256Y-74824200D02*
X62251066Y-74748009D01*
X62251066Y-74748009D02*
X62212970Y-74595628D01*
X62212970Y-74595628D02*
X62212970Y-74328961D01*
X62212970Y-74328961D02*
X62251066Y-74176580D01*
X62251066Y-74176580D02*
X62327256Y-74100390D01*
X62327256Y-74100390D02*
X62403447Y-74062295D01*
X63241542Y-74062295D02*
X63393923Y-74062295D01*
X63393923Y-74062295D02*
X63470113Y-74100390D01*
X63470113Y-74100390D02*
X63546304Y-74176580D01*
X63546304Y-74176580D02*
X63584399Y-74328961D01*
X63584399Y-74328961D02*
X63584399Y-74595628D01*
X63584399Y-74595628D02*
X63546304Y-74748009D01*
X63546304Y-74748009D02*
X63470113Y-74824200D01*
X63470113Y-74824200D02*
X63393923Y-74862295D01*
X63393923Y-74862295D02*
X63241542Y-74862295D01*
X63241542Y-74862295D02*
X63165351Y-74824200D01*
X63165351Y-74824200D02*
X63089161Y-74748009D01*
X63089161Y-74748009D02*
X63051065Y-74595628D01*
X63051065Y-74595628D02*
X63051065Y-74328961D01*
X63051065Y-74328961D02*
X63089161Y-74176580D01*
X63089161Y-74176580D02*
X63165351Y-74100390D01*
X63165351Y-74100390D02*
X63241542Y-74062295D01*
X63927256Y-74862295D02*
X63927256Y-74062295D01*
X63927256Y-74062295D02*
X64232018Y-74062295D01*
X64232018Y-74062295D02*
X64308208Y-74100390D01*
X64308208Y-74100390D02*
X64346303Y-74138485D01*
X64346303Y-74138485D02*
X64384399Y-74214676D01*
X64384399Y-74214676D02*
X64384399Y-74328961D01*
X64384399Y-74328961D02*
X64346303Y-74405152D01*
X64346303Y-74405152D02*
X64308208Y-74443247D01*
X64308208Y-74443247D02*
X64232018Y-74481342D01*
X64232018Y-74481342D02*
X63927256Y-74481342D01*
X64689160Y-74824200D02*
X64803446Y-74862295D01*
X64803446Y-74862295D02*
X64993922Y-74862295D01*
X64993922Y-74862295D02*
X65070113Y-74824200D01*
X65070113Y-74824200D02*
X65108208Y-74786104D01*
X65108208Y-74786104D02*
X65146303Y-74709914D01*
X65146303Y-74709914D02*
X65146303Y-74633723D01*
X65146303Y-74633723D02*
X65108208Y-74557533D01*
X65108208Y-74557533D02*
X65070113Y-74519438D01*
X65070113Y-74519438D02*
X64993922Y-74481342D01*
X64993922Y-74481342D02*
X64841541Y-74443247D01*
X64841541Y-74443247D02*
X64765351Y-74405152D01*
X64765351Y-74405152D02*
X64727256Y-74367057D01*
X64727256Y-74367057D02*
X64689160Y-74290866D01*
X64689160Y-74290866D02*
X64689160Y-74214676D01*
X64689160Y-74214676D02*
X64727256Y-74138485D01*
X64727256Y-74138485D02*
X64765351Y-74100390D01*
X64765351Y-74100390D02*
X64841541Y-74062295D01*
X64841541Y-74062295D02*
X65032018Y-74062295D01*
X65032018Y-74062295D02*
X65146303Y-74100390D01*
X59208207Y-39862295D02*
X58751064Y-39862295D01*
X58979636Y-39862295D02*
X58979636Y-39062295D01*
X58979636Y-39062295D02*
X58903445Y-39176580D01*
X58903445Y-39176580D02*
X58827255Y-39252771D01*
X58827255Y-39252771D02*
X58751064Y-39290866D01*
X59703446Y-39062295D02*
X59779636Y-39062295D01*
X59779636Y-39062295D02*
X59855827Y-39100390D01*
X59855827Y-39100390D02*
X59893922Y-39138485D01*
X59893922Y-39138485D02*
X59932017Y-39214676D01*
X59932017Y-39214676D02*
X59970112Y-39367057D01*
X59970112Y-39367057D02*
X59970112Y-39557533D01*
X59970112Y-39557533D02*
X59932017Y-39709914D01*
X59932017Y-39709914D02*
X59893922Y-39786104D01*
X59893922Y-39786104D02*
X59855827Y-39824200D01*
X59855827Y-39824200D02*
X59779636Y-39862295D01*
X59779636Y-39862295D02*
X59703446Y-39862295D01*
X59703446Y-39862295D02*
X59627255Y-39824200D01*
X59627255Y-39824200D02*
X59589160Y-39786104D01*
X59589160Y-39786104D02*
X59551065Y-39709914D01*
X59551065Y-39709914D02*
X59512969Y-39557533D01*
X59512969Y-39557533D02*
X59512969Y-39367057D01*
X59512969Y-39367057D02*
X59551065Y-39214676D01*
X59551065Y-39214676D02*
X59589160Y-39138485D01*
X59589160Y-39138485D02*
X59627255Y-39100390D01*
X59627255Y-39100390D02*
X59703446Y-39062295D01*
X60465351Y-39062295D02*
X60541541Y-39062295D01*
X60541541Y-39062295D02*
X60617732Y-39100390D01*
X60617732Y-39100390D02*
X60655827Y-39138485D01*
X60655827Y-39138485D02*
X60693922Y-39214676D01*
X60693922Y-39214676D02*
X60732017Y-39367057D01*
X60732017Y-39367057D02*
X60732017Y-39557533D01*
X60732017Y-39557533D02*
X60693922Y-39709914D01*
X60693922Y-39709914D02*
X60655827Y-39786104D01*
X60655827Y-39786104D02*
X60617732Y-39824200D01*
X60617732Y-39824200D02*
X60541541Y-39862295D01*
X60541541Y-39862295D02*
X60465351Y-39862295D01*
X60465351Y-39862295D02*
X60389160Y-39824200D01*
X60389160Y-39824200D02*
X60351065Y-39786104D01*
X60351065Y-39786104D02*
X60312970Y-39709914D01*
X60312970Y-39709914D02*
X60274874Y-39557533D01*
X60274874Y-39557533D02*
X60274874Y-39367057D01*
X60274874Y-39367057D02*
X60312970Y-39214676D01*
X60312970Y-39214676D02*
X60351065Y-39138485D01*
X60351065Y-39138485D02*
X60389160Y-39100390D01*
X60389160Y-39100390D02*
X60465351Y-39062295D01*
X61074875Y-39862295D02*
X61074875Y-39062295D01*
X61151065Y-39557533D02*
X61379637Y-39862295D01*
X61379637Y-39328961D02*
X61074875Y-39633723D01*
X59208207Y-56862295D02*
X58751064Y-56862295D01*
X58979636Y-56862295D02*
X58979636Y-56062295D01*
X58979636Y-56062295D02*
X58903445Y-56176580D01*
X58903445Y-56176580D02*
X58827255Y-56252771D01*
X58827255Y-56252771D02*
X58751064Y-56290866D01*
X59703446Y-56062295D02*
X59779636Y-56062295D01*
X59779636Y-56062295D02*
X59855827Y-56100390D01*
X59855827Y-56100390D02*
X59893922Y-56138485D01*
X59893922Y-56138485D02*
X59932017Y-56214676D01*
X59932017Y-56214676D02*
X59970112Y-56367057D01*
X59970112Y-56367057D02*
X59970112Y-56557533D01*
X59970112Y-56557533D02*
X59932017Y-56709914D01*
X59932017Y-56709914D02*
X59893922Y-56786104D01*
X59893922Y-56786104D02*
X59855827Y-56824200D01*
X59855827Y-56824200D02*
X59779636Y-56862295D01*
X59779636Y-56862295D02*
X59703446Y-56862295D01*
X59703446Y-56862295D02*
X59627255Y-56824200D01*
X59627255Y-56824200D02*
X59589160Y-56786104D01*
X59589160Y-56786104D02*
X59551065Y-56709914D01*
X59551065Y-56709914D02*
X59512969Y-56557533D01*
X59512969Y-56557533D02*
X59512969Y-56367057D01*
X59512969Y-56367057D02*
X59551065Y-56214676D01*
X59551065Y-56214676D02*
X59589160Y-56138485D01*
X59589160Y-56138485D02*
X59627255Y-56100390D01*
X59627255Y-56100390D02*
X59703446Y-56062295D01*
X60465351Y-56062295D02*
X60541541Y-56062295D01*
X60541541Y-56062295D02*
X60617732Y-56100390D01*
X60617732Y-56100390D02*
X60655827Y-56138485D01*
X60655827Y-56138485D02*
X60693922Y-56214676D01*
X60693922Y-56214676D02*
X60732017Y-56367057D01*
X60732017Y-56367057D02*
X60732017Y-56557533D01*
X60732017Y-56557533D02*
X60693922Y-56709914D01*
X60693922Y-56709914D02*
X60655827Y-56786104D01*
X60655827Y-56786104D02*
X60617732Y-56824200D01*
X60617732Y-56824200D02*
X60541541Y-56862295D01*
X60541541Y-56862295D02*
X60465351Y-56862295D01*
X60465351Y-56862295D02*
X60389160Y-56824200D01*
X60389160Y-56824200D02*
X60351065Y-56786104D01*
X60351065Y-56786104D02*
X60312970Y-56709914D01*
X60312970Y-56709914D02*
X60274874Y-56557533D01*
X60274874Y-56557533D02*
X60274874Y-56367057D01*
X60274874Y-56367057D02*
X60312970Y-56214676D01*
X60312970Y-56214676D02*
X60351065Y-56138485D01*
X60351065Y-56138485D02*
X60389160Y-56100390D01*
X60389160Y-56100390D02*
X60465351Y-56062295D01*
X60589160Y-18862295D02*
X60589160Y-18062295D01*
X60970112Y-18862295D02*
X60970112Y-18062295D01*
X60970112Y-18062295D02*
X61427255Y-18862295D01*
X61427255Y-18862295D02*
X61427255Y-18062295D01*
X60589160Y-21402295D02*
X60589160Y-20602295D01*
X60589160Y-20602295D02*
X61046303Y-21402295D01*
X61046303Y-21402295D02*
X61046303Y-20602295D01*
X61846302Y-21402295D02*
X61389159Y-21402295D01*
X61617731Y-21402295D02*
X61617731Y-20602295D01*
X61617731Y-20602295D02*
X61541540Y-20716580D01*
X61541540Y-20716580D02*
X61465350Y-20792771D01*
X61465350Y-20792771D02*
X61389159Y-20830866D01*
X60589160Y-23942295D02*
X60589160Y-23142295D01*
X60589160Y-23142295D02*
X61046303Y-23942295D01*
X61046303Y-23942295D02*
X61046303Y-23142295D01*
X61389159Y-23218485D02*
X61427255Y-23180390D01*
X61427255Y-23180390D02*
X61503445Y-23142295D01*
X61503445Y-23142295D02*
X61693921Y-23142295D01*
X61693921Y-23142295D02*
X61770112Y-23180390D01*
X61770112Y-23180390D02*
X61808207Y-23218485D01*
X61808207Y-23218485D02*
X61846302Y-23294676D01*
X61846302Y-23294676D02*
X61846302Y-23370866D01*
X61846302Y-23370866D02*
X61808207Y-23485152D01*
X61808207Y-23485152D02*
X61351064Y-23942295D01*
X61351064Y-23942295D02*
X61846302Y-23942295D01*
X60589160Y-26482295D02*
X60589160Y-25682295D01*
X60589160Y-25682295D02*
X61046303Y-26482295D01*
X61046303Y-26482295D02*
X61046303Y-25682295D01*
X61351064Y-25682295D02*
X61846302Y-25682295D01*
X61846302Y-25682295D02*
X61579636Y-25987057D01*
X61579636Y-25987057D02*
X61693921Y-25987057D01*
X61693921Y-25987057D02*
X61770112Y-26025152D01*
X61770112Y-26025152D02*
X61808207Y-26063247D01*
X61808207Y-26063247D02*
X61846302Y-26139438D01*
X61846302Y-26139438D02*
X61846302Y-26329914D01*
X61846302Y-26329914D02*
X61808207Y-26406104D01*
X61808207Y-26406104D02*
X61770112Y-26444200D01*
X61770112Y-26444200D02*
X61693921Y-26482295D01*
X61693921Y-26482295D02*
X61465350Y-26482295D01*
X61465350Y-26482295D02*
X61389159Y-26444200D01*
X61389159Y-26444200D02*
X61351064Y-26406104D01*
X61046303Y-29022295D02*
X60779636Y-28641342D01*
X60589160Y-29022295D02*
X60589160Y-28222295D01*
X60589160Y-28222295D02*
X60893922Y-28222295D01*
X60893922Y-28222295D02*
X60970112Y-28260390D01*
X60970112Y-28260390D02*
X61008207Y-28298485D01*
X61008207Y-28298485D02*
X61046303Y-28374676D01*
X61046303Y-28374676D02*
X61046303Y-28488961D01*
X61046303Y-28488961D02*
X61008207Y-28565152D01*
X61008207Y-28565152D02*
X60970112Y-28603247D01*
X60970112Y-28603247D02*
X60893922Y-28641342D01*
X60893922Y-28641342D02*
X60589160Y-28641342D01*
X61351064Y-28984200D02*
X61465350Y-29022295D01*
X61465350Y-29022295D02*
X61655826Y-29022295D01*
X61655826Y-29022295D02*
X61732017Y-28984200D01*
X61732017Y-28984200D02*
X61770112Y-28946104D01*
X61770112Y-28946104D02*
X61808207Y-28869914D01*
X61808207Y-28869914D02*
X61808207Y-28793723D01*
X61808207Y-28793723D02*
X61770112Y-28717533D01*
X61770112Y-28717533D02*
X61732017Y-28679438D01*
X61732017Y-28679438D02*
X61655826Y-28641342D01*
X61655826Y-28641342D02*
X61503445Y-28603247D01*
X61503445Y-28603247D02*
X61427255Y-28565152D01*
X61427255Y-28565152D02*
X61389160Y-28527057D01*
X61389160Y-28527057D02*
X61351064Y-28450866D01*
X61351064Y-28450866D02*
X61351064Y-28374676D01*
X61351064Y-28374676D02*
X61389160Y-28298485D01*
X61389160Y-28298485D02*
X61427255Y-28260390D01*
X61427255Y-28260390D02*
X61503445Y-28222295D01*
X61503445Y-28222295D02*
X61693922Y-28222295D01*
X61693922Y-28222295D02*
X61808207Y-28260390D01*
X62036779Y-28222295D02*
X62493922Y-28222295D01*
X62265350Y-29022295D02*
X62265350Y-28222295D01*
X61008207Y-30800390D02*
X60932017Y-30762295D01*
X60932017Y-30762295D02*
X60817731Y-30762295D01*
X60817731Y-30762295D02*
X60703445Y-30800390D01*
X60703445Y-30800390D02*
X60627255Y-30876580D01*
X60627255Y-30876580D02*
X60589160Y-30952771D01*
X60589160Y-30952771D02*
X60551064Y-31105152D01*
X60551064Y-31105152D02*
X60551064Y-31219438D01*
X60551064Y-31219438D02*
X60589160Y-31371819D01*
X60589160Y-31371819D02*
X60627255Y-31448009D01*
X60627255Y-31448009D02*
X60703445Y-31524200D01*
X60703445Y-31524200D02*
X60817731Y-31562295D01*
X60817731Y-31562295D02*
X60893922Y-31562295D01*
X60893922Y-31562295D02*
X61008207Y-31524200D01*
X61008207Y-31524200D02*
X61046303Y-31486104D01*
X61046303Y-31486104D02*
X61046303Y-31219438D01*
X61046303Y-31219438D02*
X60893922Y-31219438D01*
X61389160Y-31562295D02*
X61389160Y-30762295D01*
X61389160Y-30762295D02*
X61846303Y-31562295D01*
X61846303Y-31562295D02*
X61846303Y-30762295D01*
X62227255Y-31562295D02*
X62227255Y-30762295D01*
X62227255Y-30762295D02*
X62417731Y-30762295D01*
X62417731Y-30762295D02*
X62532017Y-30800390D01*
X62532017Y-30800390D02*
X62608207Y-30876580D01*
X62608207Y-30876580D02*
X62646302Y-30952771D01*
X62646302Y-30952771D02*
X62684398Y-31105152D01*
X62684398Y-31105152D02*
X62684398Y-31219438D01*
X62684398Y-31219438D02*
X62646302Y-31371819D01*
X62646302Y-31371819D02*
X62608207Y-31448009D01*
X62608207Y-31448009D02*
X62532017Y-31524200D01*
X62532017Y-31524200D02*
X62417731Y-31562295D01*
X62417731Y-31562295D02*
X62227255Y-31562295D01*
X61546303Y-82362295D02*
X61279636Y-81981342D01*
X61089160Y-82362295D02*
X61089160Y-81562295D01*
X61089160Y-81562295D02*
X61393922Y-81562295D01*
X61393922Y-81562295D02*
X61470112Y-81600390D01*
X61470112Y-81600390D02*
X61508207Y-81638485D01*
X61508207Y-81638485D02*
X61546303Y-81714676D01*
X61546303Y-81714676D02*
X61546303Y-81828961D01*
X61546303Y-81828961D02*
X61508207Y-81905152D01*
X61508207Y-81905152D02*
X61470112Y-81943247D01*
X61470112Y-81943247D02*
X61393922Y-81981342D01*
X61393922Y-81981342D02*
X61089160Y-81981342D01*
X61889160Y-82362295D02*
X61889160Y-81562295D01*
X62270112Y-82362295D02*
X62270112Y-81562295D01*
X62270112Y-81562295D02*
X62727255Y-82362295D01*
X62727255Y-82362295D02*
X62727255Y-81562295D01*
X63527254Y-81600390D02*
X63451064Y-81562295D01*
X63451064Y-81562295D02*
X63336778Y-81562295D01*
X63336778Y-81562295D02*
X63222492Y-81600390D01*
X63222492Y-81600390D02*
X63146302Y-81676580D01*
X63146302Y-81676580D02*
X63108207Y-81752771D01*
X63108207Y-81752771D02*
X63070111Y-81905152D01*
X63070111Y-81905152D02*
X63070111Y-82019438D01*
X63070111Y-82019438D02*
X63108207Y-82171819D01*
X63108207Y-82171819D02*
X63146302Y-82248009D01*
X63146302Y-82248009D02*
X63222492Y-82324200D01*
X63222492Y-82324200D02*
X63336778Y-82362295D01*
X63336778Y-82362295D02*
X63412969Y-82362295D01*
X63412969Y-82362295D02*
X63527254Y-82324200D01*
X63527254Y-82324200D02*
X63565350Y-82286104D01*
X63565350Y-82286104D02*
X63565350Y-82019438D01*
X63565350Y-82019438D02*
X63412969Y-82019438D01*
X64060588Y-81562295D02*
X64136778Y-81562295D01*
X64136778Y-81562295D02*
X64212969Y-81600390D01*
X64212969Y-81600390D02*
X64251064Y-81638485D01*
X64251064Y-81638485D02*
X64289159Y-81714676D01*
X64289159Y-81714676D02*
X64327254Y-81867057D01*
X64327254Y-81867057D02*
X64327254Y-82057533D01*
X64327254Y-82057533D02*
X64289159Y-82209914D01*
X64289159Y-82209914D02*
X64251064Y-82286104D01*
X64251064Y-82286104D02*
X64212969Y-82324200D01*
X64212969Y-82324200D02*
X64136778Y-82362295D01*
X64136778Y-82362295D02*
X64060588Y-82362295D01*
X64060588Y-82362295D02*
X63984397Y-82324200D01*
X63984397Y-82324200D02*
X63946302Y-82286104D01*
X63946302Y-82286104D02*
X63908207Y-82209914D01*
X63908207Y-82209914D02*
X63870111Y-82057533D01*
X63870111Y-82057533D02*
X63870111Y-81867057D01*
X63870111Y-81867057D02*
X63908207Y-81714676D01*
X63908207Y-81714676D02*
X63946302Y-81638485D01*
X63946302Y-81638485D02*
X63984397Y-81600390D01*
X63984397Y-81600390D02*
X64060588Y-81562295D01*
X61241541Y-91562295D02*
X61393922Y-91562295D01*
X61393922Y-91562295D02*
X61470112Y-91600390D01*
X61470112Y-91600390D02*
X61546303Y-91676580D01*
X61546303Y-91676580D02*
X61584398Y-91828961D01*
X61584398Y-91828961D02*
X61584398Y-92095628D01*
X61584398Y-92095628D02*
X61546303Y-92248009D01*
X61546303Y-92248009D02*
X61470112Y-92324200D01*
X61470112Y-92324200D02*
X61393922Y-92362295D01*
X61393922Y-92362295D02*
X61241541Y-92362295D01*
X61241541Y-92362295D02*
X61165350Y-92324200D01*
X61165350Y-92324200D02*
X61089160Y-92248009D01*
X61089160Y-92248009D02*
X61051064Y-92095628D01*
X61051064Y-92095628D02*
X61051064Y-91828961D01*
X61051064Y-91828961D02*
X61089160Y-91676580D01*
X61089160Y-91676580D02*
X61165350Y-91600390D01*
X61165350Y-91600390D02*
X61241541Y-91562295D01*
X61889159Y-92324200D02*
X62003445Y-92362295D01*
X62003445Y-92362295D02*
X62193921Y-92362295D01*
X62193921Y-92362295D02*
X62270112Y-92324200D01*
X62270112Y-92324200D02*
X62308207Y-92286104D01*
X62308207Y-92286104D02*
X62346302Y-92209914D01*
X62346302Y-92209914D02*
X62346302Y-92133723D01*
X62346302Y-92133723D02*
X62308207Y-92057533D01*
X62308207Y-92057533D02*
X62270112Y-92019438D01*
X62270112Y-92019438D02*
X62193921Y-91981342D01*
X62193921Y-91981342D02*
X62041540Y-91943247D01*
X62041540Y-91943247D02*
X61965350Y-91905152D01*
X61965350Y-91905152D02*
X61927255Y-91867057D01*
X61927255Y-91867057D02*
X61889159Y-91790866D01*
X61889159Y-91790866D02*
X61889159Y-91714676D01*
X61889159Y-91714676D02*
X61927255Y-91638485D01*
X61927255Y-91638485D02*
X61965350Y-91600390D01*
X61965350Y-91600390D02*
X62041540Y-91562295D01*
X62041540Y-91562295D02*
X62232017Y-91562295D01*
X62232017Y-91562295D02*
X62346302Y-91600390D01*
X63146303Y-92286104D02*
X63108207Y-92324200D01*
X63108207Y-92324200D02*
X62993922Y-92362295D01*
X62993922Y-92362295D02*
X62917731Y-92362295D01*
X62917731Y-92362295D02*
X62803445Y-92324200D01*
X62803445Y-92324200D02*
X62727255Y-92248009D01*
X62727255Y-92248009D02*
X62689160Y-92171819D01*
X62689160Y-92171819D02*
X62651064Y-92019438D01*
X62651064Y-92019438D02*
X62651064Y-91905152D01*
X62651064Y-91905152D02*
X62689160Y-91752771D01*
X62689160Y-91752771D02*
X62727255Y-91676580D01*
X62727255Y-91676580D02*
X62803445Y-91600390D01*
X62803445Y-91600390D02*
X62917731Y-91562295D01*
X62917731Y-91562295D02*
X62993922Y-91562295D01*
X62993922Y-91562295D02*
X63108207Y-91600390D01*
X63108207Y-91600390D02*
X63146303Y-91638485D01*
X66355826Y-81943247D02*
X66089160Y-81943247D01*
X66089160Y-82362295D02*
X66089160Y-81562295D01*
X66089160Y-81562295D02*
X66470112Y-81562295D01*
X66927255Y-81562295D02*
X67079636Y-81562295D01*
X67079636Y-81562295D02*
X67155826Y-81600390D01*
X67155826Y-81600390D02*
X67232017Y-81676580D01*
X67232017Y-81676580D02*
X67270112Y-81828961D01*
X67270112Y-81828961D02*
X67270112Y-82095628D01*
X67270112Y-82095628D02*
X67232017Y-82248009D01*
X67232017Y-82248009D02*
X67155826Y-82324200D01*
X67155826Y-82324200D02*
X67079636Y-82362295D01*
X67079636Y-82362295D02*
X66927255Y-82362295D01*
X66927255Y-82362295D02*
X66851064Y-82324200D01*
X66851064Y-82324200D02*
X66774874Y-82248009D01*
X66774874Y-82248009D02*
X66736778Y-82095628D01*
X66736778Y-82095628D02*
X66736778Y-81828961D01*
X66736778Y-81828961D02*
X66774874Y-81676580D01*
X66774874Y-81676580D02*
X66851064Y-81600390D01*
X66851064Y-81600390D02*
X66927255Y-81562295D01*
X68032016Y-82362295D02*
X67574873Y-82362295D01*
X67803445Y-82362295D02*
X67803445Y-81562295D01*
X67803445Y-81562295D02*
X67727254Y-81676580D01*
X67727254Y-81676580D02*
X67651064Y-81752771D01*
X67651064Y-81752771D02*
X67574873Y-81790866D01*
X66622493Y-92438485D02*
X66546303Y-92400390D01*
X66546303Y-92400390D02*
X66470112Y-92324200D01*
X66470112Y-92324200D02*
X66355826Y-92209914D01*
X66355826Y-92209914D02*
X66279636Y-92171819D01*
X66279636Y-92171819D02*
X66203445Y-92171819D01*
X66241541Y-92362295D02*
X66165350Y-92324200D01*
X66165350Y-92324200D02*
X66089160Y-92248009D01*
X66089160Y-92248009D02*
X66051064Y-92095628D01*
X66051064Y-92095628D02*
X66051064Y-91828961D01*
X66051064Y-91828961D02*
X66089160Y-91676580D01*
X66089160Y-91676580D02*
X66165350Y-91600390D01*
X66165350Y-91600390D02*
X66241541Y-91562295D01*
X66241541Y-91562295D02*
X66393922Y-91562295D01*
X66393922Y-91562295D02*
X66470112Y-91600390D01*
X66470112Y-91600390D02*
X66546303Y-91676580D01*
X66546303Y-91676580D02*
X66584398Y-91828961D01*
X66584398Y-91828961D02*
X66584398Y-92095628D01*
X66584398Y-92095628D02*
X66546303Y-92248009D01*
X66546303Y-92248009D02*
X66470112Y-92324200D01*
X66470112Y-92324200D02*
X66393922Y-92362295D01*
X66393922Y-92362295D02*
X66241541Y-92362295D01*
X66789160Y-15862295D02*
X66789160Y-15062295D01*
X66789160Y-15062295D02*
X67093922Y-15062295D01*
X67093922Y-15062295D02*
X67170112Y-15100390D01*
X67170112Y-15100390D02*
X67208207Y-15138485D01*
X67208207Y-15138485D02*
X67246303Y-15214676D01*
X67246303Y-15214676D02*
X67246303Y-15328961D01*
X67246303Y-15328961D02*
X67208207Y-15405152D01*
X67208207Y-15405152D02*
X67170112Y-15443247D01*
X67170112Y-15443247D02*
X67093922Y-15481342D01*
X67093922Y-15481342D02*
X66789160Y-15481342D01*
X67741541Y-15062295D02*
X67893922Y-15062295D01*
X67893922Y-15062295D02*
X67970112Y-15100390D01*
X67970112Y-15100390D02*
X68046303Y-15176580D01*
X68046303Y-15176580D02*
X68084398Y-15328961D01*
X68084398Y-15328961D02*
X68084398Y-15595628D01*
X68084398Y-15595628D02*
X68046303Y-15748009D01*
X68046303Y-15748009D02*
X67970112Y-15824200D01*
X67970112Y-15824200D02*
X67893922Y-15862295D01*
X67893922Y-15862295D02*
X67741541Y-15862295D01*
X67741541Y-15862295D02*
X67665350Y-15824200D01*
X67665350Y-15824200D02*
X67589160Y-15748009D01*
X67589160Y-15748009D02*
X67551064Y-15595628D01*
X67551064Y-15595628D02*
X67551064Y-15328961D01*
X67551064Y-15328961D02*
X67589160Y-15176580D01*
X67589160Y-15176580D02*
X67665350Y-15100390D01*
X67665350Y-15100390D02*
X67741541Y-15062295D01*
X68351064Y-15062295D02*
X68541540Y-15862295D01*
X68541540Y-15862295D02*
X68693921Y-15290866D01*
X68693921Y-15290866D02*
X68846302Y-15862295D01*
X68846302Y-15862295D02*
X69036779Y-15062295D01*
X69341541Y-15443247D02*
X69608207Y-15443247D01*
X69722493Y-15862295D02*
X69341541Y-15862295D01*
X69341541Y-15862295D02*
X69341541Y-15062295D01*
X69341541Y-15062295D02*
X69722493Y-15062295D01*
X70522494Y-15862295D02*
X70255827Y-15481342D01*
X70065351Y-15862295D02*
X70065351Y-15062295D01*
X70065351Y-15062295D02*
X70370113Y-15062295D01*
X70370113Y-15062295D02*
X70446303Y-15100390D01*
X70446303Y-15100390D02*
X70484398Y-15138485D01*
X70484398Y-15138485D02*
X70522494Y-15214676D01*
X70522494Y-15214676D02*
X70522494Y-15328961D01*
X70522494Y-15328961D02*
X70484398Y-15405152D01*
X70484398Y-15405152D02*
X70446303Y-15443247D01*
X70446303Y-15443247D02*
X70370113Y-15481342D01*
X70370113Y-15481342D02*
X70065351Y-15481342D01*
X69332017Y-45628961D02*
X69332017Y-46162295D01*
X69141541Y-45324200D02*
X68951064Y-45895628D01*
X68951064Y-45895628D02*
X69446303Y-45895628D01*
X69674874Y-45362295D02*
X70208208Y-45362295D01*
X70208208Y-45362295D02*
X69865350Y-46162295D01*
X70512970Y-45628961D02*
X70512970Y-46162295D01*
X70512970Y-45705152D02*
X70551065Y-45667057D01*
X70551065Y-45667057D02*
X70627255Y-45628961D01*
X70627255Y-45628961D02*
X70741541Y-45628961D01*
X70741541Y-45628961D02*
X70817732Y-45667057D01*
X70817732Y-45667057D02*
X70855827Y-45743247D01*
X70855827Y-45743247D02*
X70855827Y-46162295D01*
X70589160Y-18557533D02*
X71198684Y-18557533D01*
X70893922Y-18862295D02*
X70893922Y-18252771D01*
X71960588Y-18062295D02*
X71579636Y-18062295D01*
X71579636Y-18062295D02*
X71541540Y-18443247D01*
X71541540Y-18443247D02*
X71579636Y-18405152D01*
X71579636Y-18405152D02*
X71655826Y-18367057D01*
X71655826Y-18367057D02*
X71846302Y-18367057D01*
X71846302Y-18367057D02*
X71922493Y-18405152D01*
X71922493Y-18405152D02*
X71960588Y-18443247D01*
X71960588Y-18443247D02*
X71998683Y-18519438D01*
X71998683Y-18519438D02*
X71998683Y-18709914D01*
X71998683Y-18709914D02*
X71960588Y-18786104D01*
X71960588Y-18786104D02*
X71922493Y-18824200D01*
X71922493Y-18824200D02*
X71846302Y-18862295D01*
X71846302Y-18862295D02*
X71655826Y-18862295D01*
X71655826Y-18862295D02*
X71579636Y-18824200D01*
X71579636Y-18824200D02*
X71541540Y-18786104D01*
X72227255Y-18062295D02*
X72493922Y-18862295D01*
X72493922Y-18862295D02*
X72760588Y-18062295D01*
X71008207Y-20640390D02*
X70932017Y-20602295D01*
X70932017Y-20602295D02*
X70817731Y-20602295D01*
X70817731Y-20602295D02*
X70703445Y-20640390D01*
X70703445Y-20640390D02*
X70627255Y-20716580D01*
X70627255Y-20716580D02*
X70589160Y-20792771D01*
X70589160Y-20792771D02*
X70551064Y-20945152D01*
X70551064Y-20945152D02*
X70551064Y-21059438D01*
X70551064Y-21059438D02*
X70589160Y-21211819D01*
X70589160Y-21211819D02*
X70627255Y-21288009D01*
X70627255Y-21288009D02*
X70703445Y-21364200D01*
X70703445Y-21364200D02*
X70817731Y-21402295D01*
X70817731Y-21402295D02*
X70893922Y-21402295D01*
X70893922Y-21402295D02*
X71008207Y-21364200D01*
X71008207Y-21364200D02*
X71046303Y-21326104D01*
X71046303Y-21326104D02*
X71046303Y-21059438D01*
X71046303Y-21059438D02*
X70893922Y-21059438D01*
X71389160Y-21402295D02*
X71389160Y-20602295D01*
X71389160Y-20602295D02*
X71846303Y-21402295D01*
X71846303Y-21402295D02*
X71846303Y-20602295D01*
X72227255Y-21402295D02*
X72227255Y-20602295D01*
X72227255Y-20602295D02*
X72417731Y-20602295D01*
X72417731Y-20602295D02*
X72532017Y-20640390D01*
X72532017Y-20640390D02*
X72608207Y-20716580D01*
X72608207Y-20716580D02*
X72646302Y-20792771D01*
X72646302Y-20792771D02*
X72684398Y-20945152D01*
X72684398Y-20945152D02*
X72684398Y-21059438D01*
X72684398Y-21059438D02*
X72646302Y-21211819D01*
X72646302Y-21211819D02*
X72608207Y-21288009D01*
X72608207Y-21288009D02*
X72532017Y-21364200D01*
X72532017Y-21364200D02*
X72417731Y-21402295D01*
X72417731Y-21402295D02*
X72227255Y-21402295D01*
X71355826Y-81943247D02*
X71089160Y-81943247D01*
X71089160Y-82362295D02*
X71089160Y-81562295D01*
X71089160Y-81562295D02*
X71470112Y-81562295D01*
X71927255Y-81562295D02*
X72079636Y-81562295D01*
X72079636Y-81562295D02*
X72155826Y-81600390D01*
X72155826Y-81600390D02*
X72232017Y-81676580D01*
X72232017Y-81676580D02*
X72270112Y-81828961D01*
X72270112Y-81828961D02*
X72270112Y-82095628D01*
X72270112Y-82095628D02*
X72232017Y-82248009D01*
X72232017Y-82248009D02*
X72155826Y-82324200D01*
X72155826Y-82324200D02*
X72079636Y-82362295D01*
X72079636Y-82362295D02*
X71927255Y-82362295D01*
X71927255Y-82362295D02*
X71851064Y-82324200D01*
X71851064Y-82324200D02*
X71774874Y-82248009D01*
X71774874Y-82248009D02*
X71736778Y-82095628D01*
X71736778Y-82095628D02*
X71736778Y-81828961D01*
X71736778Y-81828961D02*
X71774874Y-81676580D01*
X71774874Y-81676580D02*
X71851064Y-81600390D01*
X71851064Y-81600390D02*
X71927255Y-81562295D01*
X73032016Y-82362295D02*
X72574873Y-82362295D01*
X72803445Y-82362295D02*
X72803445Y-81562295D01*
X72803445Y-81562295D02*
X72727254Y-81676580D01*
X72727254Y-81676580D02*
X72651064Y-81752771D01*
X72651064Y-81752771D02*
X72574873Y-81790866D01*
X73527255Y-81562295D02*
X73603445Y-81562295D01*
X73603445Y-81562295D02*
X73679636Y-81600390D01*
X73679636Y-81600390D02*
X73717731Y-81638485D01*
X73717731Y-81638485D02*
X73755826Y-81714676D01*
X73755826Y-81714676D02*
X73793921Y-81867057D01*
X73793921Y-81867057D02*
X73793921Y-82057533D01*
X73793921Y-82057533D02*
X73755826Y-82209914D01*
X73755826Y-82209914D02*
X73717731Y-82286104D01*
X73717731Y-82286104D02*
X73679636Y-82324200D01*
X73679636Y-82324200D02*
X73603445Y-82362295D01*
X73603445Y-82362295D02*
X73527255Y-82362295D01*
X73527255Y-82362295D02*
X73451064Y-82324200D01*
X73451064Y-82324200D02*
X73412969Y-82286104D01*
X73412969Y-82286104D02*
X73374874Y-82209914D01*
X73374874Y-82209914D02*
X73336778Y-82057533D01*
X73336778Y-82057533D02*
X73336778Y-81867057D01*
X73336778Y-81867057D02*
X73374874Y-81714676D01*
X73374874Y-81714676D02*
X73412969Y-81638485D01*
X73412969Y-81638485D02*
X73451064Y-81600390D01*
X73451064Y-81600390D02*
X73527255Y-81562295D01*
X71089160Y-92362295D02*
X71089160Y-91562295D01*
X71089160Y-91562295D02*
X71279636Y-91562295D01*
X71279636Y-91562295D02*
X71393922Y-91600390D01*
X71393922Y-91600390D02*
X71470112Y-91676580D01*
X71470112Y-91676580D02*
X71508207Y-91752771D01*
X71508207Y-91752771D02*
X71546303Y-91905152D01*
X71546303Y-91905152D02*
X71546303Y-92019438D01*
X71546303Y-92019438D02*
X71508207Y-92171819D01*
X71508207Y-92171819D02*
X71470112Y-92248009D01*
X71470112Y-92248009D02*
X71393922Y-92324200D01*
X71393922Y-92324200D02*
X71279636Y-92362295D01*
X71279636Y-92362295D02*
X71089160Y-92362295D01*
X72346303Y-92362295D02*
X72079636Y-91981342D01*
X71889160Y-92362295D02*
X71889160Y-91562295D01*
X71889160Y-91562295D02*
X72193922Y-91562295D01*
X72193922Y-91562295D02*
X72270112Y-91600390D01*
X72270112Y-91600390D02*
X72308207Y-91638485D01*
X72308207Y-91638485D02*
X72346303Y-91714676D01*
X72346303Y-91714676D02*
X72346303Y-91828961D01*
X72346303Y-91828961D02*
X72308207Y-91905152D01*
X72308207Y-91905152D02*
X72270112Y-91943247D01*
X72270112Y-91943247D02*
X72193922Y-91981342D01*
X72193922Y-91981342D02*
X71889160Y-91981342D01*
X72574874Y-91562295D02*
X72841541Y-92362295D01*
X72841541Y-92362295D02*
X73108207Y-91562295D01*
X72322493Y-32638485D02*
X72246303Y-32600390D01*
X72246303Y-32600390D02*
X72170112Y-32524200D01*
X72170112Y-32524200D02*
X72055826Y-32409914D01*
X72055826Y-32409914D02*
X71979636Y-32371819D01*
X71979636Y-32371819D02*
X71903445Y-32371819D01*
X71941541Y-32562295D02*
X71865350Y-32524200D01*
X71865350Y-32524200D02*
X71789160Y-32448009D01*
X71789160Y-32448009D02*
X71751064Y-32295628D01*
X71751064Y-32295628D02*
X71751064Y-32028961D01*
X71751064Y-32028961D02*
X71789160Y-31876580D01*
X71789160Y-31876580D02*
X71865350Y-31800390D01*
X71865350Y-31800390D02*
X71941541Y-31762295D01*
X71941541Y-31762295D02*
X72093922Y-31762295D01*
X72093922Y-31762295D02*
X72170112Y-31800390D01*
X72170112Y-31800390D02*
X72246303Y-31876580D01*
X72246303Y-31876580D02*
X72284398Y-32028961D01*
X72284398Y-32028961D02*
X72284398Y-32295628D01*
X72284398Y-32295628D02*
X72246303Y-32448009D01*
X72246303Y-32448009D02*
X72170112Y-32524200D01*
X72170112Y-32524200D02*
X72093922Y-32562295D01*
X72093922Y-32562295D02*
X71941541Y-32562295D01*
X73046302Y-32562295D02*
X72589159Y-32562295D01*
X72817731Y-32562295D02*
X72817731Y-31762295D01*
X72817731Y-31762295D02*
X72741540Y-31876580D01*
X72741540Y-31876580D02*
X72665350Y-31952771D01*
X72665350Y-31952771D02*
X72589159Y-31990866D01*
X76089160Y-82362295D02*
X76089160Y-81562295D01*
X76089160Y-81562295D02*
X76546303Y-82362295D01*
X76546303Y-82362295D02*
X76546303Y-81562295D01*
X76889159Y-82133723D02*
X77270112Y-82133723D01*
X76812969Y-82362295D02*
X77079636Y-81562295D01*
X77079636Y-81562295D02*
X77346302Y-82362295D01*
X77612969Y-82362295D02*
X77612969Y-81562295D01*
X77612969Y-81562295D02*
X78070112Y-82362295D01*
X78070112Y-82362295D02*
X78070112Y-81562295D01*
X78451064Y-82362295D02*
X78451064Y-81562295D01*
X78451064Y-81562295D02*
X78641540Y-81562295D01*
X78641540Y-81562295D02*
X78755826Y-81600390D01*
X78755826Y-81600390D02*
X78832016Y-81676580D01*
X78832016Y-81676580D02*
X78870111Y-81752771D01*
X78870111Y-81752771D02*
X78908207Y-81905152D01*
X78908207Y-81905152D02*
X78908207Y-82019438D01*
X78908207Y-82019438D02*
X78870111Y-82171819D01*
X78870111Y-82171819D02*
X78832016Y-82248009D01*
X78832016Y-82248009D02*
X78755826Y-82324200D01*
X78755826Y-82324200D02*
X78641540Y-82362295D01*
X78641540Y-82362295D02*
X78451064Y-82362295D01*
X76546303Y-92362295D02*
X76279636Y-91981342D01*
X76089160Y-92362295D02*
X76089160Y-91562295D01*
X76089160Y-91562295D02*
X76393922Y-91562295D01*
X76393922Y-91562295D02*
X76470112Y-91600390D01*
X76470112Y-91600390D02*
X76508207Y-91638485D01*
X76508207Y-91638485D02*
X76546303Y-91714676D01*
X76546303Y-91714676D02*
X76546303Y-91828961D01*
X76546303Y-91828961D02*
X76508207Y-91905152D01*
X76508207Y-91905152D02*
X76470112Y-91943247D01*
X76470112Y-91943247D02*
X76393922Y-91981342D01*
X76393922Y-91981342D02*
X76089160Y-91981342D01*
X77041541Y-91562295D02*
X77193922Y-91562295D01*
X77193922Y-91562295D02*
X77270112Y-91600390D01*
X77270112Y-91600390D02*
X77346303Y-91676580D01*
X77346303Y-91676580D02*
X77384398Y-91828961D01*
X77384398Y-91828961D02*
X77384398Y-92095628D01*
X77384398Y-92095628D02*
X77346303Y-92248009D01*
X77346303Y-92248009D02*
X77270112Y-92324200D01*
X77270112Y-92324200D02*
X77193922Y-92362295D01*
X77193922Y-92362295D02*
X77041541Y-92362295D01*
X77041541Y-92362295D02*
X76965350Y-92324200D01*
X76965350Y-92324200D02*
X76889160Y-92248009D01*
X76889160Y-92248009D02*
X76851064Y-92095628D01*
X76851064Y-92095628D02*
X76851064Y-91828961D01*
X76851064Y-91828961D02*
X76889160Y-91676580D01*
X76889160Y-91676580D02*
X76965350Y-91600390D01*
X76965350Y-91600390D02*
X77041541Y-91562295D01*
X77727255Y-92362295D02*
X77727255Y-91562295D01*
X77727255Y-91562295D02*
X77993921Y-92133723D01*
X77993921Y-92133723D02*
X78260588Y-91562295D01*
X78260588Y-91562295D02*
X78260588Y-92362295D01*
X76751064Y-21324200D02*
X76865350Y-21362295D01*
X76865350Y-21362295D02*
X77055826Y-21362295D01*
X77055826Y-21362295D02*
X77132017Y-21324200D01*
X77132017Y-21324200D02*
X77170112Y-21286104D01*
X77170112Y-21286104D02*
X77208207Y-21209914D01*
X77208207Y-21209914D02*
X77208207Y-21133723D01*
X77208207Y-21133723D02*
X77170112Y-21057533D01*
X77170112Y-21057533D02*
X77132017Y-21019438D01*
X77132017Y-21019438D02*
X77055826Y-20981342D01*
X77055826Y-20981342D02*
X76903445Y-20943247D01*
X76903445Y-20943247D02*
X76827255Y-20905152D01*
X76827255Y-20905152D02*
X76789160Y-20867057D01*
X76789160Y-20867057D02*
X76751064Y-20790866D01*
X76751064Y-20790866D02*
X76751064Y-20714676D01*
X76751064Y-20714676D02*
X76789160Y-20638485D01*
X76789160Y-20638485D02*
X76827255Y-20600390D01*
X76827255Y-20600390D02*
X76903445Y-20562295D01*
X76903445Y-20562295D02*
X77093922Y-20562295D01*
X77093922Y-20562295D02*
X77208207Y-20600390D01*
X78008208Y-21286104D02*
X77970112Y-21324200D01*
X77970112Y-21324200D02*
X77855827Y-21362295D01*
X77855827Y-21362295D02*
X77779636Y-21362295D01*
X77779636Y-21362295D02*
X77665350Y-21324200D01*
X77665350Y-21324200D02*
X77589160Y-21248009D01*
X77589160Y-21248009D02*
X77551065Y-21171819D01*
X77551065Y-21171819D02*
X77512969Y-21019438D01*
X77512969Y-21019438D02*
X77512969Y-20905152D01*
X77512969Y-20905152D02*
X77551065Y-20752771D01*
X77551065Y-20752771D02*
X77589160Y-20676580D01*
X77589160Y-20676580D02*
X77665350Y-20600390D01*
X77665350Y-20600390D02*
X77779636Y-20562295D01*
X77779636Y-20562295D02*
X77855827Y-20562295D01*
X77855827Y-20562295D02*
X77970112Y-20600390D01*
X77970112Y-20600390D02*
X78008208Y-20638485D01*
X78351065Y-21362295D02*
X78351065Y-20562295D01*
X78351065Y-20943247D02*
X78808208Y-20943247D01*
X78808208Y-21362295D02*
X78808208Y-20562295D01*
X79189160Y-21362295D02*
X79189160Y-20562295D01*
X79189160Y-20562295D02*
X79455826Y-21133723D01*
X79455826Y-21133723D02*
X79722493Y-20562295D01*
X79722493Y-20562295D02*
X79722493Y-21362295D01*
X80103446Y-21362295D02*
X80103446Y-20562295D01*
X80370112Y-20562295D02*
X80827255Y-20562295D01*
X80598683Y-21362295D02*
X80598683Y-20562295D01*
X80979636Y-20562295D02*
X81436779Y-20562295D01*
X81208207Y-21362295D02*
X81208207Y-20562295D01*
X78132017Y-26328961D02*
X78132017Y-26862295D01*
X77941541Y-26024200D02*
X77751064Y-26595628D01*
X77751064Y-26595628D02*
X78246303Y-26595628D01*
X78474874Y-26062295D02*
X79008208Y-26062295D01*
X79008208Y-26062295D02*
X78665350Y-26862295D01*
X79312970Y-26862295D02*
X79312970Y-26062295D01*
X79389160Y-26557533D02*
X79617732Y-26862295D01*
X79617732Y-26328961D02*
X79312970Y-26633723D01*
X79208207Y-44862295D02*
X78751064Y-44862295D01*
X78979636Y-44862295D02*
X78979636Y-44062295D01*
X78979636Y-44062295D02*
X78903445Y-44176580D01*
X78903445Y-44176580D02*
X78827255Y-44252771D01*
X78827255Y-44252771D02*
X78751064Y-44290866D01*
X79551065Y-44862295D02*
X79551065Y-44062295D01*
X79627255Y-44557533D02*
X79855827Y-44862295D01*
X79855827Y-44328961D02*
X79551065Y-44633723D01*
X79208207Y-56862295D02*
X78751064Y-56862295D01*
X78979636Y-56862295D02*
X78979636Y-56062295D01*
X78979636Y-56062295D02*
X78903445Y-56176580D01*
X78903445Y-56176580D02*
X78827255Y-56252771D01*
X78827255Y-56252771D02*
X78751064Y-56290866D01*
X79703446Y-56062295D02*
X79779636Y-56062295D01*
X79779636Y-56062295D02*
X79855827Y-56100390D01*
X79855827Y-56100390D02*
X79893922Y-56138485D01*
X79893922Y-56138485D02*
X79932017Y-56214676D01*
X79932017Y-56214676D02*
X79970112Y-56367057D01*
X79970112Y-56367057D02*
X79970112Y-56557533D01*
X79970112Y-56557533D02*
X79932017Y-56709914D01*
X79932017Y-56709914D02*
X79893922Y-56786104D01*
X79893922Y-56786104D02*
X79855827Y-56824200D01*
X79855827Y-56824200D02*
X79779636Y-56862295D01*
X79779636Y-56862295D02*
X79703446Y-56862295D01*
X79703446Y-56862295D02*
X79627255Y-56824200D01*
X79627255Y-56824200D02*
X79589160Y-56786104D01*
X79589160Y-56786104D02*
X79551065Y-56709914D01*
X79551065Y-56709914D02*
X79512969Y-56557533D01*
X79512969Y-56557533D02*
X79512969Y-56367057D01*
X79512969Y-56367057D02*
X79551065Y-56214676D01*
X79551065Y-56214676D02*
X79589160Y-56138485D01*
X79589160Y-56138485D02*
X79627255Y-56100390D01*
X79627255Y-56100390D02*
X79703446Y-56062295D01*
X80312970Y-56862295D02*
X80312970Y-56062295D01*
X80389160Y-56557533D02*
X80617732Y-56862295D01*
X80617732Y-56328961D02*
X80312970Y-56633723D01*
X78751064Y-66138485D02*
X78789160Y-66100390D01*
X78789160Y-66100390D02*
X78865350Y-66062295D01*
X78865350Y-66062295D02*
X79055826Y-66062295D01*
X79055826Y-66062295D02*
X79132017Y-66100390D01*
X79132017Y-66100390D02*
X79170112Y-66138485D01*
X79170112Y-66138485D02*
X79208207Y-66214676D01*
X79208207Y-66214676D02*
X79208207Y-66290866D01*
X79208207Y-66290866D02*
X79170112Y-66405152D01*
X79170112Y-66405152D02*
X78712969Y-66862295D01*
X78712969Y-66862295D02*
X79208207Y-66862295D01*
X79512969Y-66138485D02*
X79551065Y-66100390D01*
X79551065Y-66100390D02*
X79627255Y-66062295D01*
X79627255Y-66062295D02*
X79817731Y-66062295D01*
X79817731Y-66062295D02*
X79893922Y-66100390D01*
X79893922Y-66100390D02*
X79932017Y-66138485D01*
X79932017Y-66138485D02*
X79970112Y-66214676D01*
X79970112Y-66214676D02*
X79970112Y-66290866D01*
X79970112Y-66290866D02*
X79932017Y-66405152D01*
X79932017Y-66405152D02*
X79474874Y-66862295D01*
X79474874Y-66862295D02*
X79970112Y-66862295D01*
X80465351Y-66062295D02*
X80541541Y-66062295D01*
X80541541Y-66062295D02*
X80617732Y-66100390D01*
X80617732Y-66100390D02*
X80655827Y-66138485D01*
X80655827Y-66138485D02*
X80693922Y-66214676D01*
X80693922Y-66214676D02*
X80732017Y-66367057D01*
X80732017Y-66367057D02*
X80732017Y-66557533D01*
X80732017Y-66557533D02*
X80693922Y-66709914D01*
X80693922Y-66709914D02*
X80655827Y-66786104D01*
X80655827Y-66786104D02*
X80617732Y-66824200D01*
X80617732Y-66824200D02*
X80541541Y-66862295D01*
X80541541Y-66862295D02*
X80465351Y-66862295D01*
X80465351Y-66862295D02*
X80389160Y-66824200D01*
X80389160Y-66824200D02*
X80351065Y-66786104D01*
X80351065Y-66786104D02*
X80312970Y-66709914D01*
X80312970Y-66709914D02*
X80274874Y-66557533D01*
X80274874Y-66557533D02*
X80274874Y-66367057D01*
X80274874Y-66367057D02*
X80312970Y-66214676D01*
X80312970Y-66214676D02*
X80351065Y-66138485D01*
X80351065Y-66138485D02*
X80389160Y-66100390D01*
X80389160Y-66100390D02*
X80465351Y-66062295D01*
X81074875Y-66862295D02*
X81074875Y-66062295D01*
X81151065Y-66557533D02*
X81379637Y-66862295D01*
X81379637Y-66328961D02*
X81074875Y-66633723D01*
X81089160Y-82362295D02*
X81089160Y-81562295D01*
X81089160Y-81562295D02*
X81546303Y-82362295D01*
X81546303Y-82362295D02*
X81546303Y-81562295D01*
X82079636Y-81562295D02*
X82232017Y-81562295D01*
X82232017Y-81562295D02*
X82308207Y-81600390D01*
X82308207Y-81600390D02*
X82384398Y-81676580D01*
X82384398Y-81676580D02*
X82422493Y-81828961D01*
X82422493Y-81828961D02*
X82422493Y-82095628D01*
X82422493Y-82095628D02*
X82384398Y-82248009D01*
X82384398Y-82248009D02*
X82308207Y-82324200D01*
X82308207Y-82324200D02*
X82232017Y-82362295D01*
X82232017Y-82362295D02*
X82079636Y-82362295D01*
X82079636Y-82362295D02*
X82003445Y-82324200D01*
X82003445Y-82324200D02*
X81927255Y-82248009D01*
X81927255Y-82248009D02*
X81889159Y-82095628D01*
X81889159Y-82095628D02*
X81889159Y-81828961D01*
X81889159Y-81828961D02*
X81927255Y-81676580D01*
X81927255Y-81676580D02*
X82003445Y-81600390D01*
X82003445Y-81600390D02*
X82079636Y-81562295D01*
X83222493Y-82362295D02*
X82955826Y-81981342D01*
X82765350Y-82362295D02*
X82765350Y-81562295D01*
X82765350Y-81562295D02*
X83070112Y-81562295D01*
X83070112Y-81562295D02*
X83146302Y-81600390D01*
X83146302Y-81600390D02*
X83184397Y-81638485D01*
X83184397Y-81638485D02*
X83222493Y-81714676D01*
X83222493Y-81714676D02*
X83222493Y-81828961D01*
X83222493Y-81828961D02*
X83184397Y-81905152D01*
X83184397Y-81905152D02*
X83146302Y-81943247D01*
X83146302Y-81943247D02*
X83070112Y-81981342D01*
X83070112Y-81981342D02*
X82765350Y-81981342D01*
X81508207Y-91600390D02*
X81432017Y-91562295D01*
X81432017Y-91562295D02*
X81317731Y-91562295D01*
X81317731Y-91562295D02*
X81203445Y-91600390D01*
X81203445Y-91600390D02*
X81127255Y-91676580D01*
X81127255Y-91676580D02*
X81089160Y-91752771D01*
X81089160Y-91752771D02*
X81051064Y-91905152D01*
X81051064Y-91905152D02*
X81051064Y-92019438D01*
X81051064Y-92019438D02*
X81089160Y-92171819D01*
X81089160Y-92171819D02*
X81127255Y-92248009D01*
X81127255Y-92248009D02*
X81203445Y-92324200D01*
X81203445Y-92324200D02*
X81317731Y-92362295D01*
X81317731Y-92362295D02*
X81393922Y-92362295D01*
X81393922Y-92362295D02*
X81508207Y-92324200D01*
X81508207Y-92324200D02*
X81546303Y-92286104D01*
X81546303Y-92286104D02*
X81546303Y-92019438D01*
X81546303Y-92019438D02*
X81393922Y-92019438D01*
X81889160Y-92362295D02*
X81889160Y-91562295D01*
X81889160Y-91562295D02*
X82346303Y-92362295D01*
X82346303Y-92362295D02*
X82346303Y-91562295D01*
X82727255Y-92362295D02*
X82727255Y-91562295D01*
X82727255Y-91562295D02*
X82917731Y-91562295D01*
X82917731Y-91562295D02*
X83032017Y-91600390D01*
X83032017Y-91600390D02*
X83108207Y-91676580D01*
X83108207Y-91676580D02*
X83146302Y-91752771D01*
X83146302Y-91752771D02*
X83184398Y-91905152D01*
X83184398Y-91905152D02*
X83184398Y-92019438D01*
X83184398Y-92019438D02*
X83146302Y-92171819D01*
X83146302Y-92171819D02*
X83108207Y-92248009D01*
X83108207Y-92248009D02*
X83032017Y-92324200D01*
X83032017Y-92324200D02*
X82917731Y-92362295D01*
X82917731Y-92362295D02*
X82727255Y-92362295D01*
X82322493Y-32638485D02*
X82246303Y-32600390D01*
X82246303Y-32600390D02*
X82170112Y-32524200D01*
X82170112Y-32524200D02*
X82055826Y-32409914D01*
X82055826Y-32409914D02*
X81979636Y-32371819D01*
X81979636Y-32371819D02*
X81903445Y-32371819D01*
X81941541Y-32562295D02*
X81865350Y-32524200D01*
X81865350Y-32524200D02*
X81789160Y-32448009D01*
X81789160Y-32448009D02*
X81751064Y-32295628D01*
X81751064Y-32295628D02*
X81751064Y-32028961D01*
X81751064Y-32028961D02*
X81789160Y-31876580D01*
X81789160Y-31876580D02*
X81865350Y-31800390D01*
X81865350Y-31800390D02*
X81941541Y-31762295D01*
X81941541Y-31762295D02*
X82093922Y-31762295D01*
X82093922Y-31762295D02*
X82170112Y-31800390D01*
X82170112Y-31800390D02*
X82246303Y-31876580D01*
X82246303Y-31876580D02*
X82284398Y-32028961D01*
X82284398Y-32028961D02*
X82284398Y-32295628D01*
X82284398Y-32295628D02*
X82246303Y-32448009D01*
X82246303Y-32448009D02*
X82170112Y-32524200D01*
X82170112Y-32524200D02*
X82093922Y-32562295D01*
X82093922Y-32562295D02*
X81941541Y-32562295D01*
X82589159Y-31838485D02*
X82627255Y-31800390D01*
X82627255Y-31800390D02*
X82703445Y-31762295D01*
X82703445Y-31762295D02*
X82893921Y-31762295D01*
X82893921Y-31762295D02*
X82970112Y-31800390D01*
X82970112Y-31800390D02*
X83008207Y-31838485D01*
X83008207Y-31838485D02*
X83046302Y-31914676D01*
X83046302Y-31914676D02*
X83046302Y-31990866D01*
X83046302Y-31990866D02*
X83008207Y-32105152D01*
X83008207Y-32105152D02*
X82551064Y-32562295D01*
X82551064Y-32562295D02*
X83046302Y-32562295D01*
X86208207Y-26862295D02*
X85751064Y-26862295D01*
X85979636Y-26862295D02*
X85979636Y-26062295D01*
X85979636Y-26062295D02*
X85903445Y-26176580D01*
X85903445Y-26176580D02*
X85827255Y-26252771D01*
X85827255Y-26252771D02*
X85751064Y-26290866D01*
X86703446Y-26062295D02*
X86779636Y-26062295D01*
X86779636Y-26062295D02*
X86855827Y-26100390D01*
X86855827Y-26100390D02*
X86893922Y-26138485D01*
X86893922Y-26138485D02*
X86932017Y-26214676D01*
X86932017Y-26214676D02*
X86970112Y-26367057D01*
X86970112Y-26367057D02*
X86970112Y-26557533D01*
X86970112Y-26557533D02*
X86932017Y-26709914D01*
X86932017Y-26709914D02*
X86893922Y-26786104D01*
X86893922Y-26786104D02*
X86855827Y-26824200D01*
X86855827Y-26824200D02*
X86779636Y-26862295D01*
X86779636Y-26862295D02*
X86703446Y-26862295D01*
X86703446Y-26862295D02*
X86627255Y-26824200D01*
X86627255Y-26824200D02*
X86589160Y-26786104D01*
X86589160Y-26786104D02*
X86551065Y-26709914D01*
X86551065Y-26709914D02*
X86512969Y-26557533D01*
X86512969Y-26557533D02*
X86512969Y-26367057D01*
X86512969Y-26367057D02*
X86551065Y-26214676D01*
X86551065Y-26214676D02*
X86589160Y-26138485D01*
X86589160Y-26138485D02*
X86627255Y-26100390D01*
X86627255Y-26100390D02*
X86703446Y-26062295D01*
X87312970Y-26862295D02*
X87312970Y-26062295D01*
X87389160Y-26557533D02*
X87617732Y-26862295D01*
X87617732Y-26328961D02*
X87312970Y-26633723D01*
X86355826Y-81943247D02*
X86470112Y-81981342D01*
X86470112Y-81981342D02*
X86508207Y-82019438D01*
X86508207Y-82019438D02*
X86546303Y-82095628D01*
X86546303Y-82095628D02*
X86546303Y-82209914D01*
X86546303Y-82209914D02*
X86508207Y-82286104D01*
X86508207Y-82286104D02*
X86470112Y-82324200D01*
X86470112Y-82324200D02*
X86393922Y-82362295D01*
X86393922Y-82362295D02*
X86089160Y-82362295D01*
X86089160Y-82362295D02*
X86089160Y-81562295D01*
X86089160Y-81562295D02*
X86355826Y-81562295D01*
X86355826Y-81562295D02*
X86432017Y-81600390D01*
X86432017Y-81600390D02*
X86470112Y-81638485D01*
X86470112Y-81638485D02*
X86508207Y-81714676D01*
X86508207Y-81714676D02*
X86508207Y-81790866D01*
X86508207Y-81790866D02*
X86470112Y-81867057D01*
X86470112Y-81867057D02*
X86432017Y-81905152D01*
X86432017Y-81905152D02*
X86355826Y-81943247D01*
X86355826Y-81943247D02*
X86089160Y-81943247D01*
X86889160Y-81562295D02*
X86889160Y-82209914D01*
X86889160Y-82209914D02*
X86927255Y-82286104D01*
X86927255Y-82286104D02*
X86965350Y-82324200D01*
X86965350Y-82324200D02*
X87041541Y-82362295D01*
X87041541Y-82362295D02*
X87193922Y-82362295D01*
X87193922Y-82362295D02*
X87270112Y-82324200D01*
X87270112Y-82324200D02*
X87308207Y-82286104D01*
X87308207Y-82286104D02*
X87346303Y-82209914D01*
X87346303Y-82209914D02*
X87346303Y-81562295D01*
X87689159Y-82324200D02*
X87803445Y-82362295D01*
X87803445Y-82362295D02*
X87993921Y-82362295D01*
X87993921Y-82362295D02*
X88070112Y-82324200D01*
X88070112Y-82324200D02*
X88108207Y-82286104D01*
X88108207Y-82286104D02*
X88146302Y-82209914D01*
X88146302Y-82209914D02*
X88146302Y-82133723D01*
X88146302Y-82133723D02*
X88108207Y-82057533D01*
X88108207Y-82057533D02*
X88070112Y-82019438D01*
X88070112Y-82019438D02*
X87993921Y-81981342D01*
X87993921Y-81981342D02*
X87841540Y-81943247D01*
X87841540Y-81943247D02*
X87765350Y-81905152D01*
X87765350Y-81905152D02*
X87727255Y-81867057D01*
X87727255Y-81867057D02*
X87689159Y-81790866D01*
X87689159Y-81790866D02*
X87689159Y-81714676D01*
X87689159Y-81714676D02*
X87727255Y-81638485D01*
X87727255Y-81638485D02*
X87765350Y-81600390D01*
X87765350Y-81600390D02*
X87841540Y-81562295D01*
X87841540Y-81562295D02*
X88032017Y-81562295D01*
X88032017Y-81562295D02*
X88146302Y-81600390D01*
X86470112Y-91562295D02*
X86089160Y-91562295D01*
X86089160Y-91562295D02*
X86051064Y-91943247D01*
X86051064Y-91943247D02*
X86089160Y-91905152D01*
X86089160Y-91905152D02*
X86165350Y-91867057D01*
X86165350Y-91867057D02*
X86355826Y-91867057D01*
X86355826Y-91867057D02*
X86432017Y-91905152D01*
X86432017Y-91905152D02*
X86470112Y-91943247D01*
X86470112Y-91943247D02*
X86508207Y-92019438D01*
X86508207Y-92019438D02*
X86508207Y-92209914D01*
X86508207Y-92209914D02*
X86470112Y-92286104D01*
X86470112Y-92286104D02*
X86432017Y-92324200D01*
X86432017Y-92324200D02*
X86355826Y-92362295D01*
X86355826Y-92362295D02*
X86165350Y-92362295D01*
X86165350Y-92362295D02*
X86089160Y-92324200D01*
X86089160Y-92324200D02*
X86051064Y-92286104D01*
X86736779Y-91562295D02*
X87003446Y-92362295D01*
X87003446Y-92362295D02*
X87270112Y-91562295D01*
X90208207Y-16862295D02*
X89751064Y-16862295D01*
X89979636Y-16862295D02*
X89979636Y-16062295D01*
X89979636Y-16062295D02*
X89903445Y-16176580D01*
X89903445Y-16176580D02*
X89827255Y-16252771D01*
X89827255Y-16252771D02*
X89751064Y-16290866D01*
X90703446Y-16062295D02*
X90779636Y-16062295D01*
X90779636Y-16062295D02*
X90855827Y-16100390D01*
X90855827Y-16100390D02*
X90893922Y-16138485D01*
X90893922Y-16138485D02*
X90932017Y-16214676D01*
X90932017Y-16214676D02*
X90970112Y-16367057D01*
X90970112Y-16367057D02*
X90970112Y-16557533D01*
X90970112Y-16557533D02*
X90932017Y-16709914D01*
X90932017Y-16709914D02*
X90893922Y-16786104D01*
X90893922Y-16786104D02*
X90855827Y-16824200D01*
X90855827Y-16824200D02*
X90779636Y-16862295D01*
X90779636Y-16862295D02*
X90703446Y-16862295D01*
X90703446Y-16862295D02*
X90627255Y-16824200D01*
X90627255Y-16824200D02*
X90589160Y-16786104D01*
X90589160Y-16786104D02*
X90551065Y-16709914D01*
X90551065Y-16709914D02*
X90512969Y-16557533D01*
X90512969Y-16557533D02*
X90512969Y-16367057D01*
X90512969Y-16367057D02*
X90551065Y-16214676D01*
X90551065Y-16214676D02*
X90589160Y-16138485D01*
X90589160Y-16138485D02*
X90627255Y-16100390D01*
X90627255Y-16100390D02*
X90703446Y-16062295D01*
X91312970Y-16862295D02*
X91312970Y-16062295D01*
X91389160Y-16557533D02*
X91617732Y-16862295D01*
X91617732Y-16328961D02*
X91312970Y-16633723D01*
X90974874Y-81562295D02*
X91241541Y-82362295D01*
X91241541Y-82362295D02*
X91508207Y-81562295D01*
X91660588Y-81562295D02*
X92117731Y-81562295D01*
X91889159Y-82362295D02*
X91889159Y-81562295D01*
X92536779Y-81562295D02*
X92689160Y-81562295D01*
X92689160Y-81562295D02*
X92765350Y-81600390D01*
X92765350Y-81600390D02*
X92841541Y-81676580D01*
X92841541Y-81676580D02*
X92879636Y-81828961D01*
X92879636Y-81828961D02*
X92879636Y-82095628D01*
X92879636Y-82095628D02*
X92841541Y-82248009D01*
X92841541Y-82248009D02*
X92765350Y-82324200D01*
X92765350Y-82324200D02*
X92689160Y-82362295D01*
X92689160Y-82362295D02*
X92536779Y-82362295D01*
X92536779Y-82362295D02*
X92460588Y-82324200D01*
X92460588Y-82324200D02*
X92384398Y-82248009D01*
X92384398Y-82248009D02*
X92346302Y-82095628D01*
X92346302Y-82095628D02*
X92346302Y-81828961D01*
X92346302Y-81828961D02*
X92384398Y-81676580D01*
X92384398Y-81676580D02*
X92460588Y-81600390D01*
X92460588Y-81600390D02*
X92536779Y-81562295D01*
X4490588Y-8854819D02*
X3919160Y-8854819D01*
X4204874Y-8854819D02*
X4204874Y-7854819D01*
X4204874Y-7854819D02*
X4109636Y-7997676D01*
X4109636Y-7997676D02*
X4014398Y-8092914D01*
X4014398Y-8092914D02*
X3919160Y-8140533D01*
D11*
X29521615Y-98880928D02*
X29521615Y-97380928D01*
X29521615Y-97380928D02*
X30378758Y-98880928D01*
X30378758Y-98880928D02*
X30378758Y-97380928D01*
X31093044Y-98880928D02*
X31093044Y-97380928D01*
X32307330Y-98095214D02*
X32521616Y-98166642D01*
X32521616Y-98166642D02*
X32593045Y-98238071D01*
X32593045Y-98238071D02*
X32664473Y-98380928D01*
X32664473Y-98380928D02*
X32664473Y-98595214D01*
X32664473Y-98595214D02*
X32593045Y-98738071D01*
X32593045Y-98738071D02*
X32521616Y-98809500D01*
X32521616Y-98809500D02*
X32378759Y-98880928D01*
X32378759Y-98880928D02*
X31807330Y-98880928D01*
X31807330Y-98880928D02*
X31807330Y-97380928D01*
X31807330Y-97380928D02*
X32307330Y-97380928D01*
X32307330Y-97380928D02*
X32450188Y-97452357D01*
X32450188Y-97452357D02*
X32521616Y-97523785D01*
X32521616Y-97523785D02*
X32593045Y-97666642D01*
X32593045Y-97666642D02*
X32593045Y-97809500D01*
X32593045Y-97809500D02*
X32521616Y-97952357D01*
X32521616Y-97952357D02*
X32450188Y-98023785D01*
X32450188Y-98023785D02*
X32307330Y-98095214D01*
X32307330Y-98095214D02*
X31807330Y-98095214D01*
X33807330Y-98095214D02*
X34021616Y-98166642D01*
X34021616Y-98166642D02*
X34093045Y-98238071D01*
X34093045Y-98238071D02*
X34164473Y-98380928D01*
X34164473Y-98380928D02*
X34164473Y-98595214D01*
X34164473Y-98595214D02*
X34093045Y-98738071D01*
X34093045Y-98738071D02*
X34021616Y-98809500D01*
X34021616Y-98809500D02*
X33878759Y-98880928D01*
X33878759Y-98880928D02*
X33307330Y-98880928D01*
X33307330Y-98880928D02*
X33307330Y-97380928D01*
X33307330Y-97380928D02*
X33807330Y-97380928D01*
X33807330Y-97380928D02*
X33950188Y-97452357D01*
X33950188Y-97452357D02*
X34021616Y-97523785D01*
X34021616Y-97523785D02*
X34093045Y-97666642D01*
X34093045Y-97666642D02*
X34093045Y-97809500D01*
X34093045Y-97809500D02*
X34021616Y-97952357D01*
X34021616Y-97952357D02*
X33950188Y-98023785D01*
X33950188Y-98023785D02*
X33807330Y-98095214D01*
X33807330Y-98095214D02*
X33307330Y-98095214D01*
X35521616Y-98880928D02*
X34807330Y-98880928D01*
X34807330Y-98880928D02*
X34807330Y-97380928D01*
X36021616Y-98095214D02*
X36521616Y-98095214D01*
X36735902Y-98880928D02*
X36021616Y-98880928D01*
X36021616Y-98880928D02*
X36021616Y-97380928D01*
X36021616Y-97380928D02*
X36735902Y-97380928D01*
X40450188Y-97452357D02*
X40307331Y-97380928D01*
X40307331Y-97380928D02*
X40093045Y-97380928D01*
X40093045Y-97380928D02*
X39878759Y-97452357D01*
X39878759Y-97452357D02*
X39735902Y-97595214D01*
X39735902Y-97595214D02*
X39664473Y-97738071D01*
X39664473Y-97738071D02*
X39593045Y-98023785D01*
X39593045Y-98023785D02*
X39593045Y-98238071D01*
X39593045Y-98238071D02*
X39664473Y-98523785D01*
X39664473Y-98523785D02*
X39735902Y-98666642D01*
X39735902Y-98666642D02*
X39878759Y-98809500D01*
X39878759Y-98809500D02*
X40093045Y-98880928D01*
X40093045Y-98880928D02*
X40235902Y-98880928D01*
X40235902Y-98880928D02*
X40450188Y-98809500D01*
X40450188Y-98809500D02*
X40521616Y-98738071D01*
X40521616Y-98738071D02*
X40521616Y-98238071D01*
X40521616Y-98238071D02*
X40235902Y-98238071D01*
X41093045Y-98452357D02*
X41807331Y-98452357D01*
X40950188Y-98880928D02*
X41450188Y-97380928D01*
X41450188Y-97380928D02*
X41950188Y-98880928D01*
X42235902Y-97380928D02*
X43093045Y-97380928D01*
X42664473Y-98880928D02*
X42664473Y-97380928D01*
X43593044Y-98095214D02*
X44093044Y-98095214D01*
X44307330Y-98880928D02*
X43593044Y-98880928D01*
X43593044Y-98880928D02*
X43593044Y-97380928D01*
X43593044Y-97380928D02*
X44307330Y-97380928D01*
X46950187Y-98738071D02*
X46878759Y-98809500D01*
X46878759Y-98809500D02*
X46664473Y-98880928D01*
X46664473Y-98880928D02*
X46521616Y-98880928D01*
X46521616Y-98880928D02*
X46307330Y-98809500D01*
X46307330Y-98809500D02*
X46164473Y-98666642D01*
X46164473Y-98666642D02*
X46093044Y-98523785D01*
X46093044Y-98523785D02*
X46021616Y-98238071D01*
X46021616Y-98238071D02*
X46021616Y-98023785D01*
X46021616Y-98023785D02*
X46093044Y-97738071D01*
X46093044Y-97738071D02*
X46164473Y-97595214D01*
X46164473Y-97595214D02*
X46307330Y-97452357D01*
X46307330Y-97452357D02*
X46521616Y-97380928D01*
X46521616Y-97380928D02*
X46664473Y-97380928D01*
X46664473Y-97380928D02*
X46878759Y-97452357D01*
X46878759Y-97452357D02*
X46950187Y-97523785D01*
X47878759Y-97380928D02*
X48164473Y-97380928D01*
X48164473Y-97380928D02*
X48307330Y-97452357D01*
X48307330Y-97452357D02*
X48450187Y-97595214D01*
X48450187Y-97595214D02*
X48521616Y-97880928D01*
X48521616Y-97880928D02*
X48521616Y-98380928D01*
X48521616Y-98380928D02*
X48450187Y-98666642D01*
X48450187Y-98666642D02*
X48307330Y-98809500D01*
X48307330Y-98809500D02*
X48164473Y-98880928D01*
X48164473Y-98880928D02*
X47878759Y-98880928D01*
X47878759Y-98880928D02*
X47735902Y-98809500D01*
X47735902Y-98809500D02*
X47593044Y-98666642D01*
X47593044Y-98666642D02*
X47521616Y-98380928D01*
X47521616Y-98380928D02*
X47521616Y-97880928D01*
X47521616Y-97880928D02*
X47593044Y-97595214D01*
X47593044Y-97595214D02*
X47735902Y-97452357D01*
X47735902Y-97452357D02*
X47878759Y-97380928D01*
X49164473Y-97380928D02*
X49164473Y-98595214D01*
X49164473Y-98595214D02*
X49235902Y-98738071D01*
X49235902Y-98738071D02*
X49307331Y-98809500D01*
X49307331Y-98809500D02*
X49450188Y-98880928D01*
X49450188Y-98880928D02*
X49735902Y-98880928D01*
X49735902Y-98880928D02*
X49878759Y-98809500D01*
X49878759Y-98809500D02*
X49950188Y-98738071D01*
X49950188Y-98738071D02*
X50021616Y-98595214D01*
X50021616Y-98595214D02*
X50021616Y-97380928D01*
X50735902Y-98880928D02*
X50735902Y-97380928D01*
X50735902Y-97380928D02*
X51307331Y-97380928D01*
X51307331Y-97380928D02*
X51450188Y-97452357D01*
X51450188Y-97452357D02*
X51521617Y-97523785D01*
X51521617Y-97523785D02*
X51593045Y-97666642D01*
X51593045Y-97666642D02*
X51593045Y-97880928D01*
X51593045Y-97880928D02*
X51521617Y-98023785D01*
X51521617Y-98023785D02*
X51450188Y-98095214D01*
X51450188Y-98095214D02*
X51307331Y-98166642D01*
X51307331Y-98166642D02*
X50735902Y-98166642D01*
X52521617Y-97380928D02*
X52807331Y-97380928D01*
X52807331Y-97380928D02*
X52950188Y-97452357D01*
X52950188Y-97452357D02*
X53093045Y-97595214D01*
X53093045Y-97595214D02*
X53164474Y-97880928D01*
X53164474Y-97880928D02*
X53164474Y-98380928D01*
X53164474Y-98380928D02*
X53093045Y-98666642D01*
X53093045Y-98666642D02*
X52950188Y-98809500D01*
X52950188Y-98809500D02*
X52807331Y-98880928D01*
X52807331Y-98880928D02*
X52521617Y-98880928D01*
X52521617Y-98880928D02*
X52378760Y-98809500D01*
X52378760Y-98809500D02*
X52235902Y-98666642D01*
X52235902Y-98666642D02*
X52164474Y-98380928D01*
X52164474Y-98380928D02*
X52164474Y-97880928D01*
X52164474Y-97880928D02*
X52235902Y-97595214D01*
X52235902Y-97595214D02*
X52378760Y-97452357D01*
X52378760Y-97452357D02*
X52521617Y-97380928D01*
X53807331Y-98880928D02*
X53807331Y-97380928D01*
X53807331Y-97380928D02*
X54664474Y-98880928D01*
X54664474Y-98880928D02*
X54664474Y-97380928D01*
D10*
X87438095Y-79954819D02*
X88009523Y-79954819D01*
X87723809Y-80954819D02*
X87723809Y-79954819D01*
X88342857Y-80954819D02*
X88342857Y-79954819D01*
X88342857Y-79954819D02*
X88723809Y-79954819D01*
X88723809Y-79954819D02*
X88819047Y-80002438D01*
X88819047Y-80002438D02*
X88866666Y-80050057D01*
X88866666Y-80050057D02*
X88914285Y-80145295D01*
X88914285Y-80145295D02*
X88914285Y-80288152D01*
X88914285Y-80288152D02*
X88866666Y-80383390D01*
X88866666Y-80383390D02*
X88819047Y-80431009D01*
X88819047Y-80431009D02*
X88723809Y-80478628D01*
X88723809Y-80478628D02*
X88342857Y-80478628D01*
X89247619Y-79954819D02*
X89914285Y-79954819D01*
X89914285Y-79954819D02*
X89485714Y-80954819D01*
X86961905Y-89954819D02*
X87533333Y-89954819D01*
X87247619Y-90954819D02*
X87247619Y-89954819D01*
X87866667Y-90954819D02*
X87866667Y-89954819D01*
X87866667Y-89954819D02*
X88247619Y-89954819D01*
X88247619Y-89954819D02*
X88342857Y-90002438D01*
X88342857Y-90002438D02*
X88390476Y-90050057D01*
X88390476Y-90050057D02*
X88438095Y-90145295D01*
X88438095Y-90145295D02*
X88438095Y-90288152D01*
X88438095Y-90288152D02*
X88390476Y-90383390D01*
X88390476Y-90383390D02*
X88342857Y-90431009D01*
X88342857Y-90431009D02*
X88247619Y-90478628D01*
X88247619Y-90478628D02*
X87866667Y-90478628D01*
X89390476Y-90954819D02*
X88819048Y-90954819D01*
X89104762Y-90954819D02*
X89104762Y-89954819D01*
X89104762Y-89954819D02*
X89009524Y-90097676D01*
X89009524Y-90097676D02*
X88914286Y-90192914D01*
X88914286Y-90192914D02*
X88819048Y-90240533D01*
X90295238Y-89954819D02*
X89819048Y-89954819D01*
X89819048Y-89954819D02*
X89771429Y-90431009D01*
X89771429Y-90431009D02*
X89819048Y-90383390D01*
X89819048Y-90383390D02*
X89914286Y-90335771D01*
X89914286Y-90335771D02*
X90152381Y-90335771D01*
X90152381Y-90335771D02*
X90247619Y-90383390D01*
X90247619Y-90383390D02*
X90295238Y-90431009D01*
X90295238Y-90431009D02*
X90342857Y-90526247D01*
X90342857Y-90526247D02*
X90342857Y-90764342D01*
X90342857Y-90764342D02*
X90295238Y-90859580D01*
X90295238Y-90859580D02*
X90247619Y-90907200D01*
X90247619Y-90907200D02*
X90152381Y-90954819D01*
X90152381Y-90954819D02*
X89914286Y-90954819D01*
X89914286Y-90954819D02*
X89819048Y-90907200D01*
X89819048Y-90907200D02*
X89771429Y-90859580D01*
X81961905Y-89954819D02*
X82533333Y-89954819D01*
X82247619Y-90954819D02*
X82247619Y-89954819D01*
X82866667Y-90954819D02*
X82866667Y-89954819D01*
X82866667Y-89954819D02*
X83247619Y-89954819D01*
X83247619Y-89954819D02*
X83342857Y-90002438D01*
X83342857Y-90002438D02*
X83390476Y-90050057D01*
X83390476Y-90050057D02*
X83438095Y-90145295D01*
X83438095Y-90145295D02*
X83438095Y-90288152D01*
X83438095Y-90288152D02*
X83390476Y-90383390D01*
X83390476Y-90383390D02*
X83342857Y-90431009D01*
X83342857Y-90431009D02*
X83247619Y-90478628D01*
X83247619Y-90478628D02*
X82866667Y-90478628D01*
X84390476Y-90954819D02*
X83819048Y-90954819D01*
X84104762Y-90954819D02*
X84104762Y-89954819D01*
X84104762Y-89954819D02*
X84009524Y-90097676D01*
X84009524Y-90097676D02*
X83914286Y-90192914D01*
X83914286Y-90192914D02*
X83819048Y-90240533D01*
X85247619Y-90288152D02*
X85247619Y-90954819D01*
X85009524Y-89907200D02*
X84771429Y-90621485D01*
X84771429Y-90621485D02*
X85390476Y-90621485D01*
X66961905Y-89954819D02*
X67533333Y-89954819D01*
X67247619Y-90954819D02*
X67247619Y-89954819D01*
X67866667Y-90954819D02*
X67866667Y-89954819D01*
X67866667Y-89954819D02*
X68247619Y-89954819D01*
X68247619Y-89954819D02*
X68342857Y-90002438D01*
X68342857Y-90002438D02*
X68390476Y-90050057D01*
X68390476Y-90050057D02*
X68438095Y-90145295D01*
X68438095Y-90145295D02*
X68438095Y-90288152D01*
X68438095Y-90288152D02*
X68390476Y-90383390D01*
X68390476Y-90383390D02*
X68342857Y-90431009D01*
X68342857Y-90431009D02*
X68247619Y-90478628D01*
X68247619Y-90478628D02*
X67866667Y-90478628D01*
X69390476Y-90954819D02*
X68819048Y-90954819D01*
X69104762Y-90954819D02*
X69104762Y-89954819D01*
X69104762Y-89954819D02*
X69009524Y-90097676D01*
X69009524Y-90097676D02*
X68914286Y-90192914D01*
X68914286Y-90192914D02*
X68819048Y-90240533D01*
X70342857Y-90954819D02*
X69771429Y-90954819D01*
X70057143Y-90954819D02*
X70057143Y-89954819D01*
X70057143Y-89954819D02*
X69961905Y-90097676D01*
X69961905Y-90097676D02*
X69866667Y-90192914D01*
X69866667Y-90192914D02*
X69771429Y-90240533D01*
X92438095Y-79954819D02*
X93009523Y-79954819D01*
X92723809Y-80954819D02*
X92723809Y-79954819D01*
X93342857Y-80954819D02*
X93342857Y-79954819D01*
X93342857Y-79954819D02*
X93723809Y-79954819D01*
X93723809Y-79954819D02*
X93819047Y-80002438D01*
X93819047Y-80002438D02*
X93866666Y-80050057D01*
X93866666Y-80050057D02*
X93914285Y-80145295D01*
X93914285Y-80145295D02*
X93914285Y-80288152D01*
X93914285Y-80288152D02*
X93866666Y-80383390D01*
X93866666Y-80383390D02*
X93819047Y-80431009D01*
X93819047Y-80431009D02*
X93723809Y-80478628D01*
X93723809Y-80478628D02*
X93342857Y-80478628D01*
X94485714Y-80383390D02*
X94390476Y-80335771D01*
X94390476Y-80335771D02*
X94342857Y-80288152D01*
X94342857Y-80288152D02*
X94295238Y-80192914D01*
X94295238Y-80192914D02*
X94295238Y-80145295D01*
X94295238Y-80145295D02*
X94342857Y-80050057D01*
X94342857Y-80050057D02*
X94390476Y-80002438D01*
X94390476Y-80002438D02*
X94485714Y-79954819D01*
X94485714Y-79954819D02*
X94676190Y-79954819D01*
X94676190Y-79954819D02*
X94771428Y-80002438D01*
X94771428Y-80002438D02*
X94819047Y-80050057D01*
X94819047Y-80050057D02*
X94866666Y-80145295D01*
X94866666Y-80145295D02*
X94866666Y-80192914D01*
X94866666Y-80192914D02*
X94819047Y-80288152D01*
X94819047Y-80288152D02*
X94771428Y-80335771D01*
X94771428Y-80335771D02*
X94676190Y-80383390D01*
X94676190Y-80383390D02*
X94485714Y-80383390D01*
X94485714Y-80383390D02*
X94390476Y-80431009D01*
X94390476Y-80431009D02*
X94342857Y-80478628D01*
X94342857Y-80478628D02*
X94295238Y-80573866D01*
X94295238Y-80573866D02*
X94295238Y-80764342D01*
X94295238Y-80764342D02*
X94342857Y-80859580D01*
X94342857Y-80859580D02*
X94390476Y-80907200D01*
X94390476Y-80907200D02*
X94485714Y-80954819D01*
X94485714Y-80954819D02*
X94676190Y-80954819D01*
X94676190Y-80954819D02*
X94771428Y-80907200D01*
X94771428Y-80907200D02*
X94819047Y-80859580D01*
X94819047Y-80859580D02*
X94866666Y-80764342D01*
X94866666Y-80764342D02*
X94866666Y-80573866D01*
X94866666Y-80573866D02*
X94819047Y-80478628D01*
X94819047Y-80478628D02*
X94771428Y-80431009D01*
X94771428Y-80431009D02*
X94676190Y-80383390D01*
X61961905Y-89954819D02*
X62533333Y-89954819D01*
X62247619Y-90954819D02*
X62247619Y-89954819D01*
X62866667Y-90954819D02*
X62866667Y-89954819D01*
X62866667Y-89954819D02*
X63247619Y-89954819D01*
X63247619Y-89954819D02*
X63342857Y-90002438D01*
X63342857Y-90002438D02*
X63390476Y-90050057D01*
X63390476Y-90050057D02*
X63438095Y-90145295D01*
X63438095Y-90145295D02*
X63438095Y-90288152D01*
X63438095Y-90288152D02*
X63390476Y-90383390D01*
X63390476Y-90383390D02*
X63342857Y-90431009D01*
X63342857Y-90431009D02*
X63247619Y-90478628D01*
X63247619Y-90478628D02*
X62866667Y-90478628D01*
X64390476Y-90954819D02*
X63819048Y-90954819D01*
X64104762Y-90954819D02*
X64104762Y-89954819D01*
X64104762Y-89954819D02*
X64009524Y-90097676D01*
X64009524Y-90097676D02*
X63914286Y-90192914D01*
X63914286Y-90192914D02*
X63819048Y-90240533D01*
X65009524Y-89954819D02*
X65104762Y-89954819D01*
X65104762Y-89954819D02*
X65200000Y-90002438D01*
X65200000Y-90002438D02*
X65247619Y-90050057D01*
X65247619Y-90050057D02*
X65295238Y-90145295D01*
X65295238Y-90145295D02*
X65342857Y-90335771D01*
X65342857Y-90335771D02*
X65342857Y-90573866D01*
X65342857Y-90573866D02*
X65295238Y-90764342D01*
X65295238Y-90764342D02*
X65247619Y-90859580D01*
X65247619Y-90859580D02*
X65200000Y-90907200D01*
X65200000Y-90907200D02*
X65104762Y-90954819D01*
X65104762Y-90954819D02*
X65009524Y-90954819D01*
X65009524Y-90954819D02*
X64914286Y-90907200D01*
X64914286Y-90907200D02*
X64866667Y-90859580D01*
X64866667Y-90859580D02*
X64819048Y-90764342D01*
X64819048Y-90764342D02*
X64771429Y-90573866D01*
X64771429Y-90573866D02*
X64771429Y-90335771D01*
X64771429Y-90335771D02*
X64819048Y-90145295D01*
X64819048Y-90145295D02*
X64866667Y-90050057D01*
X64866667Y-90050057D02*
X64914286Y-90002438D01*
X64914286Y-90002438D02*
X65009524Y-89954819D01*
X82438095Y-79954819D02*
X83009523Y-79954819D01*
X82723809Y-80954819D02*
X82723809Y-79954819D01*
X83342857Y-80954819D02*
X83342857Y-79954819D01*
X83342857Y-79954819D02*
X83723809Y-79954819D01*
X83723809Y-79954819D02*
X83819047Y-80002438D01*
X83819047Y-80002438D02*
X83866666Y-80050057D01*
X83866666Y-80050057D02*
X83914285Y-80145295D01*
X83914285Y-80145295D02*
X83914285Y-80288152D01*
X83914285Y-80288152D02*
X83866666Y-80383390D01*
X83866666Y-80383390D02*
X83819047Y-80431009D01*
X83819047Y-80431009D02*
X83723809Y-80478628D01*
X83723809Y-80478628D02*
X83342857Y-80478628D01*
X84771428Y-79954819D02*
X84580952Y-79954819D01*
X84580952Y-79954819D02*
X84485714Y-80002438D01*
X84485714Y-80002438D02*
X84438095Y-80050057D01*
X84438095Y-80050057D02*
X84342857Y-80192914D01*
X84342857Y-80192914D02*
X84295238Y-80383390D01*
X84295238Y-80383390D02*
X84295238Y-80764342D01*
X84295238Y-80764342D02*
X84342857Y-80859580D01*
X84342857Y-80859580D02*
X84390476Y-80907200D01*
X84390476Y-80907200D02*
X84485714Y-80954819D01*
X84485714Y-80954819D02*
X84676190Y-80954819D01*
X84676190Y-80954819D02*
X84771428Y-80907200D01*
X84771428Y-80907200D02*
X84819047Y-80859580D01*
X84819047Y-80859580D02*
X84866666Y-80764342D01*
X84866666Y-80764342D02*
X84866666Y-80526247D01*
X84866666Y-80526247D02*
X84819047Y-80431009D01*
X84819047Y-80431009D02*
X84771428Y-80383390D01*
X84771428Y-80383390D02*
X84676190Y-80335771D01*
X84676190Y-80335771D02*
X84485714Y-80335771D01*
X84485714Y-80335771D02*
X84390476Y-80383390D01*
X84390476Y-80383390D02*
X84342857Y-80431009D01*
X84342857Y-80431009D02*
X84295238Y-80526247D01*
X68859580Y-43416666D02*
X68907200Y-43464285D01*
X68907200Y-43464285D02*
X68954819Y-43607142D01*
X68954819Y-43607142D02*
X68954819Y-43702380D01*
X68954819Y-43702380D02*
X68907200Y-43845237D01*
X68907200Y-43845237D02*
X68811961Y-43940475D01*
X68811961Y-43940475D02*
X68716723Y-43988094D01*
X68716723Y-43988094D02*
X68526247Y-44035713D01*
X68526247Y-44035713D02*
X68383390Y-44035713D01*
X68383390Y-44035713D02*
X68192914Y-43988094D01*
X68192914Y-43988094D02*
X68097676Y-43940475D01*
X68097676Y-43940475D02*
X68002438Y-43845237D01*
X68002438Y-43845237D02*
X67954819Y-43702380D01*
X67954819Y-43702380D02*
X67954819Y-43607142D01*
X67954819Y-43607142D02*
X68002438Y-43464285D01*
X68002438Y-43464285D02*
X68050057Y-43416666D01*
X67954819Y-43083332D02*
X67954819Y-42464285D01*
X67954819Y-42464285D02*
X68335771Y-42797618D01*
X68335771Y-42797618D02*
X68335771Y-42654761D01*
X68335771Y-42654761D02*
X68383390Y-42559523D01*
X68383390Y-42559523D02*
X68431009Y-42511904D01*
X68431009Y-42511904D02*
X68526247Y-42464285D01*
X68526247Y-42464285D02*
X68764342Y-42464285D01*
X68764342Y-42464285D02*
X68859580Y-42511904D01*
X68859580Y-42511904D02*
X68907200Y-42559523D01*
X68907200Y-42559523D02*
X68954819Y-42654761D01*
X68954819Y-42654761D02*
X68954819Y-42940475D01*
X68954819Y-42940475D02*
X68907200Y-43035713D01*
X68907200Y-43035713D02*
X68859580Y-43083332D01*
X72438095Y-79954819D02*
X73009523Y-79954819D01*
X72723809Y-80954819D02*
X72723809Y-79954819D01*
X73342857Y-80954819D02*
X73342857Y-79954819D01*
X73342857Y-79954819D02*
X73723809Y-79954819D01*
X73723809Y-79954819D02*
X73819047Y-80002438D01*
X73819047Y-80002438D02*
X73866666Y-80050057D01*
X73866666Y-80050057D02*
X73914285Y-80145295D01*
X73914285Y-80145295D02*
X73914285Y-80288152D01*
X73914285Y-80288152D02*
X73866666Y-80383390D01*
X73866666Y-80383390D02*
X73819047Y-80431009D01*
X73819047Y-80431009D02*
X73723809Y-80478628D01*
X73723809Y-80478628D02*
X73342857Y-80478628D01*
X74771428Y-80288152D02*
X74771428Y-80954819D01*
X74533333Y-79907200D02*
X74295238Y-80621485D01*
X74295238Y-80621485D02*
X74914285Y-80621485D01*
X67438095Y-79954819D02*
X68009523Y-79954819D01*
X67723809Y-80954819D02*
X67723809Y-79954819D01*
X68342857Y-80954819D02*
X68342857Y-79954819D01*
X68342857Y-79954819D02*
X68723809Y-79954819D01*
X68723809Y-79954819D02*
X68819047Y-80002438D01*
X68819047Y-80002438D02*
X68866666Y-80050057D01*
X68866666Y-80050057D02*
X68914285Y-80145295D01*
X68914285Y-80145295D02*
X68914285Y-80288152D01*
X68914285Y-80288152D02*
X68866666Y-80383390D01*
X68866666Y-80383390D02*
X68819047Y-80431009D01*
X68819047Y-80431009D02*
X68723809Y-80478628D01*
X68723809Y-80478628D02*
X68342857Y-80478628D01*
X69247619Y-79954819D02*
X69866666Y-79954819D01*
X69866666Y-79954819D02*
X69533333Y-80335771D01*
X69533333Y-80335771D02*
X69676190Y-80335771D01*
X69676190Y-80335771D02*
X69771428Y-80383390D01*
X69771428Y-80383390D02*
X69819047Y-80431009D01*
X69819047Y-80431009D02*
X69866666Y-80526247D01*
X69866666Y-80526247D02*
X69866666Y-80764342D01*
X69866666Y-80764342D02*
X69819047Y-80859580D01*
X69819047Y-80859580D02*
X69771428Y-80907200D01*
X69771428Y-80907200D02*
X69676190Y-80954819D01*
X69676190Y-80954819D02*
X69390476Y-80954819D01*
X69390476Y-80954819D02*
X69295238Y-80907200D01*
X69295238Y-80907200D02*
X69247619Y-80859580D01*
X97859580Y-17916666D02*
X97907200Y-17964285D01*
X97907200Y-17964285D02*
X97954819Y-18107142D01*
X97954819Y-18107142D02*
X97954819Y-18202380D01*
X97954819Y-18202380D02*
X97907200Y-18345237D01*
X97907200Y-18345237D02*
X97811961Y-18440475D01*
X97811961Y-18440475D02*
X97716723Y-18488094D01*
X97716723Y-18488094D02*
X97526247Y-18535713D01*
X97526247Y-18535713D02*
X97383390Y-18535713D01*
X97383390Y-18535713D02*
X97192914Y-18488094D01*
X97192914Y-18488094D02*
X97097676Y-18440475D01*
X97097676Y-18440475D02*
X97002438Y-18345237D01*
X97002438Y-18345237D02*
X96954819Y-18202380D01*
X96954819Y-18202380D02*
X96954819Y-18107142D01*
X96954819Y-18107142D02*
X97002438Y-17964285D01*
X97002438Y-17964285D02*
X97050057Y-17916666D01*
X97954819Y-16964285D02*
X97954819Y-17535713D01*
X97954819Y-17249999D02*
X96954819Y-17249999D01*
X96954819Y-17249999D02*
X97097676Y-17345237D01*
X97097676Y-17345237D02*
X97192914Y-17440475D01*
X97192914Y-17440475D02*
X97240533Y-17535713D01*
X71961905Y-89954819D02*
X72533333Y-89954819D01*
X72247619Y-90954819D02*
X72247619Y-89954819D01*
X72866667Y-90954819D02*
X72866667Y-89954819D01*
X72866667Y-89954819D02*
X73247619Y-89954819D01*
X73247619Y-89954819D02*
X73342857Y-90002438D01*
X73342857Y-90002438D02*
X73390476Y-90050057D01*
X73390476Y-90050057D02*
X73438095Y-90145295D01*
X73438095Y-90145295D02*
X73438095Y-90288152D01*
X73438095Y-90288152D02*
X73390476Y-90383390D01*
X73390476Y-90383390D02*
X73342857Y-90431009D01*
X73342857Y-90431009D02*
X73247619Y-90478628D01*
X73247619Y-90478628D02*
X72866667Y-90478628D01*
X74390476Y-90954819D02*
X73819048Y-90954819D01*
X74104762Y-90954819D02*
X74104762Y-89954819D01*
X74104762Y-89954819D02*
X74009524Y-90097676D01*
X74009524Y-90097676D02*
X73914286Y-90192914D01*
X73914286Y-90192914D02*
X73819048Y-90240533D01*
X74771429Y-90050057D02*
X74819048Y-90002438D01*
X74819048Y-90002438D02*
X74914286Y-89954819D01*
X74914286Y-89954819D02*
X75152381Y-89954819D01*
X75152381Y-89954819D02*
X75247619Y-90002438D01*
X75247619Y-90002438D02*
X75295238Y-90050057D01*
X75295238Y-90050057D02*
X75342857Y-90145295D01*
X75342857Y-90145295D02*
X75342857Y-90240533D01*
X75342857Y-90240533D02*
X75295238Y-90383390D01*
X75295238Y-90383390D02*
X74723810Y-90954819D01*
X74723810Y-90954819D02*
X75342857Y-90954819D01*
X77438095Y-79954819D02*
X78009523Y-79954819D01*
X77723809Y-80954819D02*
X77723809Y-79954819D01*
X78342857Y-80954819D02*
X78342857Y-79954819D01*
X78342857Y-79954819D02*
X78723809Y-79954819D01*
X78723809Y-79954819D02*
X78819047Y-80002438D01*
X78819047Y-80002438D02*
X78866666Y-80050057D01*
X78866666Y-80050057D02*
X78914285Y-80145295D01*
X78914285Y-80145295D02*
X78914285Y-80288152D01*
X78914285Y-80288152D02*
X78866666Y-80383390D01*
X78866666Y-80383390D02*
X78819047Y-80431009D01*
X78819047Y-80431009D02*
X78723809Y-80478628D01*
X78723809Y-80478628D02*
X78342857Y-80478628D01*
X79819047Y-79954819D02*
X79342857Y-79954819D01*
X79342857Y-79954819D02*
X79295238Y-80431009D01*
X79295238Y-80431009D02*
X79342857Y-80383390D01*
X79342857Y-80383390D02*
X79438095Y-80335771D01*
X79438095Y-80335771D02*
X79676190Y-80335771D01*
X79676190Y-80335771D02*
X79771428Y-80383390D01*
X79771428Y-80383390D02*
X79819047Y-80431009D01*
X79819047Y-80431009D02*
X79866666Y-80526247D01*
X79866666Y-80526247D02*
X79866666Y-80764342D01*
X79866666Y-80764342D02*
X79819047Y-80859580D01*
X79819047Y-80859580D02*
X79771428Y-80907200D01*
X79771428Y-80907200D02*
X79676190Y-80954819D01*
X79676190Y-80954819D02*
X79438095Y-80954819D01*
X79438095Y-80954819D02*
X79342857Y-80907200D01*
X79342857Y-80907200D02*
X79295238Y-80859580D01*
X3238095Y-46304819D02*
X3238095Y-45304819D01*
X3238095Y-45781009D02*
X3809523Y-45781009D01*
X3809523Y-46304819D02*
X3809523Y-45304819D01*
X4809523Y-46304819D02*
X4238095Y-46304819D01*
X4523809Y-46304819D02*
X4523809Y-45304819D01*
X4523809Y-45304819D02*
X4428571Y-45447676D01*
X4428571Y-45447676D02*
X4333333Y-45542914D01*
X4333333Y-45542914D02*
X4238095Y-45590533D01*
X57438095Y-79954819D02*
X58009523Y-79954819D01*
X57723809Y-80954819D02*
X57723809Y-79954819D01*
X58342857Y-80954819D02*
X58342857Y-79954819D01*
X58342857Y-79954819D02*
X58723809Y-79954819D01*
X58723809Y-79954819D02*
X58819047Y-80002438D01*
X58819047Y-80002438D02*
X58866666Y-80050057D01*
X58866666Y-80050057D02*
X58914285Y-80145295D01*
X58914285Y-80145295D02*
X58914285Y-80288152D01*
X58914285Y-80288152D02*
X58866666Y-80383390D01*
X58866666Y-80383390D02*
X58819047Y-80431009D01*
X58819047Y-80431009D02*
X58723809Y-80478628D01*
X58723809Y-80478628D02*
X58342857Y-80478628D01*
X59866666Y-80954819D02*
X59295238Y-80954819D01*
X59580952Y-80954819D02*
X59580952Y-79954819D01*
X59580952Y-79954819D02*
X59485714Y-80097676D01*
X59485714Y-80097676D02*
X59390476Y-80192914D01*
X59390476Y-80192914D02*
X59295238Y-80240533D01*
X57438095Y-89954819D02*
X58009523Y-89954819D01*
X57723809Y-90954819D02*
X57723809Y-89954819D01*
X58342857Y-90954819D02*
X58342857Y-89954819D01*
X58342857Y-89954819D02*
X58723809Y-89954819D01*
X58723809Y-89954819D02*
X58819047Y-90002438D01*
X58819047Y-90002438D02*
X58866666Y-90050057D01*
X58866666Y-90050057D02*
X58914285Y-90145295D01*
X58914285Y-90145295D02*
X58914285Y-90288152D01*
X58914285Y-90288152D02*
X58866666Y-90383390D01*
X58866666Y-90383390D02*
X58819047Y-90431009D01*
X58819047Y-90431009D02*
X58723809Y-90478628D01*
X58723809Y-90478628D02*
X58342857Y-90478628D01*
X59390476Y-90954819D02*
X59580952Y-90954819D01*
X59580952Y-90954819D02*
X59676190Y-90907200D01*
X59676190Y-90907200D02*
X59723809Y-90859580D01*
X59723809Y-90859580D02*
X59819047Y-90716723D01*
X59819047Y-90716723D02*
X59866666Y-90526247D01*
X59866666Y-90526247D02*
X59866666Y-90145295D01*
X59866666Y-90145295D02*
X59819047Y-90050057D01*
X59819047Y-90050057D02*
X59771428Y-90002438D01*
X59771428Y-90002438D02*
X59676190Y-89954819D01*
X59676190Y-89954819D02*
X59485714Y-89954819D01*
X59485714Y-89954819D02*
X59390476Y-90002438D01*
X59390476Y-90002438D02*
X59342857Y-90050057D01*
X59342857Y-90050057D02*
X59295238Y-90145295D01*
X59295238Y-90145295D02*
X59295238Y-90383390D01*
X59295238Y-90383390D02*
X59342857Y-90478628D01*
X59342857Y-90478628D02*
X59390476Y-90526247D01*
X59390476Y-90526247D02*
X59485714Y-90573866D01*
X59485714Y-90573866D02*
X59676190Y-90573866D01*
X59676190Y-90573866D02*
X59771428Y-90526247D01*
X59771428Y-90526247D02*
X59819047Y-90478628D01*
X59819047Y-90478628D02*
X59866666Y-90383390D01*
X62438095Y-79954819D02*
X63009523Y-79954819D01*
X62723809Y-80954819D02*
X62723809Y-79954819D01*
X63342857Y-80954819D02*
X63342857Y-79954819D01*
X63342857Y-79954819D02*
X63723809Y-79954819D01*
X63723809Y-79954819D02*
X63819047Y-80002438D01*
X63819047Y-80002438D02*
X63866666Y-80050057D01*
X63866666Y-80050057D02*
X63914285Y-80145295D01*
X63914285Y-80145295D02*
X63914285Y-80288152D01*
X63914285Y-80288152D02*
X63866666Y-80383390D01*
X63866666Y-80383390D02*
X63819047Y-80431009D01*
X63819047Y-80431009D02*
X63723809Y-80478628D01*
X63723809Y-80478628D02*
X63342857Y-80478628D01*
X64295238Y-80050057D02*
X64342857Y-80002438D01*
X64342857Y-80002438D02*
X64438095Y-79954819D01*
X64438095Y-79954819D02*
X64676190Y-79954819D01*
X64676190Y-79954819D02*
X64771428Y-80002438D01*
X64771428Y-80002438D02*
X64819047Y-80050057D01*
X64819047Y-80050057D02*
X64866666Y-80145295D01*
X64866666Y-80145295D02*
X64866666Y-80240533D01*
X64866666Y-80240533D02*
X64819047Y-80383390D01*
X64819047Y-80383390D02*
X64247619Y-80954819D01*
X64247619Y-80954819D02*
X64866666Y-80954819D01*
X99109580Y-27166666D02*
X99157200Y-27214285D01*
X99157200Y-27214285D02*
X99204819Y-27357142D01*
X99204819Y-27357142D02*
X99204819Y-27452380D01*
X99204819Y-27452380D02*
X99157200Y-27595237D01*
X99157200Y-27595237D02*
X99061961Y-27690475D01*
X99061961Y-27690475D02*
X98966723Y-27738094D01*
X98966723Y-27738094D02*
X98776247Y-27785713D01*
X98776247Y-27785713D02*
X98633390Y-27785713D01*
X98633390Y-27785713D02*
X98442914Y-27738094D01*
X98442914Y-27738094D02*
X98347676Y-27690475D01*
X98347676Y-27690475D02*
X98252438Y-27595237D01*
X98252438Y-27595237D02*
X98204819Y-27452380D01*
X98204819Y-27452380D02*
X98204819Y-27357142D01*
X98204819Y-27357142D02*
X98252438Y-27214285D01*
X98252438Y-27214285D02*
X98300057Y-27166666D01*
X98300057Y-26785713D02*
X98252438Y-26738094D01*
X98252438Y-26738094D02*
X98204819Y-26642856D01*
X98204819Y-26642856D02*
X98204819Y-26404761D01*
X98204819Y-26404761D02*
X98252438Y-26309523D01*
X98252438Y-26309523D02*
X98300057Y-26261904D01*
X98300057Y-26261904D02*
X98395295Y-26214285D01*
X98395295Y-26214285D02*
X98490533Y-26214285D01*
X98490533Y-26214285D02*
X98633390Y-26261904D01*
X98633390Y-26261904D02*
X99204819Y-26833332D01*
X99204819Y-26833332D02*
X99204819Y-26214285D01*
X95238095Y-46304819D02*
X95238095Y-45304819D01*
X95238095Y-45781009D02*
X95809523Y-45781009D01*
X95809523Y-46304819D02*
X95809523Y-45304819D01*
X96238095Y-45400057D02*
X96285714Y-45352438D01*
X96285714Y-45352438D02*
X96380952Y-45304819D01*
X96380952Y-45304819D02*
X96619047Y-45304819D01*
X96619047Y-45304819D02*
X96714285Y-45352438D01*
X96714285Y-45352438D02*
X96761904Y-45400057D01*
X96761904Y-45400057D02*
X96809523Y-45495295D01*
X96809523Y-45495295D02*
X96809523Y-45590533D01*
X96809523Y-45590533D02*
X96761904Y-45733390D01*
X96761904Y-45733390D02*
X96190476Y-46304819D01*
X96190476Y-46304819D02*
X96809523Y-46304819D01*
X76961905Y-89954819D02*
X77533333Y-89954819D01*
X77247619Y-90954819D02*
X77247619Y-89954819D01*
X77866667Y-90954819D02*
X77866667Y-89954819D01*
X77866667Y-89954819D02*
X78247619Y-89954819D01*
X78247619Y-89954819D02*
X78342857Y-90002438D01*
X78342857Y-90002438D02*
X78390476Y-90050057D01*
X78390476Y-90050057D02*
X78438095Y-90145295D01*
X78438095Y-90145295D02*
X78438095Y-90288152D01*
X78438095Y-90288152D02*
X78390476Y-90383390D01*
X78390476Y-90383390D02*
X78342857Y-90431009D01*
X78342857Y-90431009D02*
X78247619Y-90478628D01*
X78247619Y-90478628D02*
X77866667Y-90478628D01*
X79390476Y-90954819D02*
X78819048Y-90954819D01*
X79104762Y-90954819D02*
X79104762Y-89954819D01*
X79104762Y-89954819D02*
X79009524Y-90097676D01*
X79009524Y-90097676D02*
X78914286Y-90192914D01*
X78914286Y-90192914D02*
X78819048Y-90240533D01*
X79723810Y-89954819D02*
X80342857Y-89954819D01*
X80342857Y-89954819D02*
X80009524Y-90335771D01*
X80009524Y-90335771D02*
X80152381Y-90335771D01*
X80152381Y-90335771D02*
X80247619Y-90383390D01*
X80247619Y-90383390D02*
X80295238Y-90431009D01*
X80295238Y-90431009D02*
X80342857Y-90526247D01*
X80342857Y-90526247D02*
X80342857Y-90764342D01*
X80342857Y-90764342D02*
X80295238Y-90859580D01*
X80295238Y-90859580D02*
X80247619Y-90907200D01*
X80247619Y-90907200D02*
X80152381Y-90954819D01*
X80152381Y-90954819D02*
X79866667Y-90954819D01*
X79866667Y-90954819D02*
X79771429Y-90907200D01*
X79771429Y-90907200D02*
X79723810Y-90859580D01*
%TO.C,R51*%
D12*
X59370000Y-54000000D02*
X61980000Y-54000000D01*
X59370000Y-54000000D02*
G75*
G02*
X56630000Y-54000000I-1370000J0D01*
G01*
X56630000Y-54000000D02*
G75*
G02*
X59370000Y-54000000I1370000J0D01*
G01*
%TO.C,Q8*%
X21020000Y-26215000D02*
X17420000Y-26215000D01*
X16895816Y-26942205D02*
G75*
G02*
X17420000Y-26215000I2324184J-1122795D01*
G01*
X19220000Y-30665000D02*
G75*
G02*
X16863600Y-29163807I0J2600000D01*
G01*
X21020000Y-26215000D02*
G75*
G02*
X21544184Y-26942205I-1800000J-1850000D01*
G01*
X21576400Y-29163807D02*
G75*
G02*
X19220000Y-30665000I-2356400J1098807D01*
G01*
%TO.C,TP7*%
X89500000Y-78000000D02*
G75*
G02*
X86500000Y-78000000I-1500000J0D01*
G01*
X86500000Y-78000000D02*
G75*
G02*
X89500000Y-78000000I1500000J0D01*
G01*
%TO.C,Q26*%
X36380000Y-42725000D02*
X32780000Y-42725000D01*
X32255816Y-43452205D02*
G75*
G02*
X32780000Y-42725000I2324184J-1122795D01*
G01*
X34580000Y-47175000D02*
G75*
G02*
X32223600Y-45673807I0J2600000D01*
G01*
X36380000Y-42725000D02*
G75*
G02*
X36904184Y-43452205I-1800000J-1850000D01*
G01*
X36936400Y-45673807D02*
G75*
G02*
X34580000Y-47175000I-2356400J1098807D01*
G01*
%TO.C,R44*%
X41090000Y-86485000D02*
X43700000Y-86485000D01*
X41090000Y-86485000D02*
G75*
G02*
X38350000Y-86485000I-1370000J0D01*
G01*
X38350000Y-86485000D02*
G75*
G02*
X41090000Y-86485000I1370000J0D01*
G01*
%TO.C,R6*%
X41090000Y-16000000D02*
X43700000Y-16000000D01*
X41090000Y-16000000D02*
G75*
G02*
X38350000Y-16000000I-1370000J0D01*
G01*
X38350000Y-16000000D02*
G75*
G02*
X41090000Y-16000000I1370000J0D01*
G01*
%TO.C,R26*%
X33410000Y-49020000D02*
X36020000Y-49020000D01*
X33410000Y-49020000D02*
G75*
G02*
X30670000Y-49020000I-1370000J0D01*
G01*
X30670000Y-49020000D02*
G75*
G02*
X33410000Y-49020000I1370000J0D01*
G01*
%TO.C,TP15*%
X89500000Y-88000000D02*
G75*
G02*
X86500000Y-88000000I-1500000J0D01*
G01*
X86500000Y-88000000D02*
G75*
G02*
X89500000Y-88000000I1500000J0D01*
G01*
%TO.C,D3*%
X66420000Y-64000000D02*
X67070000Y-64000000D01*
X70470000Y-65120000D02*
X70470000Y-62880000D01*
X70590000Y-65120000D02*
X70590000Y-62880000D01*
X70710000Y-65120000D02*
X70710000Y-62880000D01*
X71960000Y-64000000D02*
X71310000Y-64000000D01*
X67070000Y-62880000D02*
X71310000Y-62880000D01*
X71310000Y-65120000D01*
X67070000Y-65120000D01*
X67070000Y-62880000D01*
%TO.C,Q27*%
X40460000Y-47060000D02*
X44060000Y-47060000D01*
X39903600Y-44111193D02*
G75*
G02*
X42260000Y-42610000I2356400J-1098807D01*
G01*
X40460000Y-47060000D02*
G75*
G02*
X39935816Y-46332795I1800000J1850000D01*
G01*
X42260000Y-42610000D02*
G75*
G02*
X44616400Y-44111193I0J-2600000D01*
G01*
X44584184Y-46332795D02*
G75*
G02*
X44060000Y-47060000I-2324184J1122795D01*
G01*
%TO.C,R40*%
X48770000Y-75690000D02*
X51380000Y-75690000D01*
X48770000Y-75690000D02*
G75*
G02*
X46030000Y-75690000I-1370000J0D01*
G01*
X46030000Y-75690000D02*
G75*
G02*
X48770000Y-75690000I1370000J0D01*
G01*
%TO.C,R41*%
X33410000Y-78865000D02*
X36020000Y-78865000D01*
X33410000Y-78865000D02*
G75*
G02*
X30670000Y-78865000I-1370000J0D01*
G01*
X30670000Y-78865000D02*
G75*
G02*
X33410000Y-78865000I1370000J0D01*
G01*
%TO.C,Q12*%
X51740000Y-26215000D02*
X48140000Y-26215000D01*
X47615816Y-26942205D02*
G75*
G02*
X48140000Y-26215000I2324184J-1122795D01*
G01*
X49940000Y-30665000D02*
G75*
G02*
X47583600Y-29163807I0J2600000D01*
G01*
X51740000Y-26215000D02*
G75*
G02*
X52264184Y-26942205I-1800000J-1850000D01*
G01*
X52296400Y-29163807D02*
G75*
G02*
X49940000Y-30665000I-2356400J1098807D01*
G01*
%TO.C,R13*%
X48770000Y-24255000D02*
X51380000Y-24255000D01*
X48770000Y-24255000D02*
G75*
G02*
X46030000Y-24255000I-1370000J0D01*
G01*
X46030000Y-24255000D02*
G75*
G02*
X48770000Y-24255000I1370000J0D01*
G01*
%TO.C,R52*%
X77000000Y-55370000D02*
X77000000Y-57980000D01*
X78370000Y-54000000D02*
G75*
G02*
X75630000Y-54000000I-1370000J0D01*
G01*
X75630000Y-54000000D02*
G75*
G02*
X78370000Y-54000000I1370000J0D01*
G01*
%TO.C,R53*%
X77000000Y-65370000D02*
X77000000Y-67980000D01*
X78370000Y-64000000D02*
G75*
G02*
X75630000Y-64000000I-1370000J0D01*
G01*
X75630000Y-64000000D02*
G75*
G02*
X78370000Y-64000000I1370000J0D01*
G01*
%TO.C,Q51*%
X36380000Y-72570000D02*
X32780000Y-72570000D01*
X32255816Y-73297205D02*
G75*
G02*
X32780000Y-72570000I2324184J-1122795D01*
G01*
X34580000Y-77020000D02*
G75*
G02*
X32223600Y-75518807I0J2600000D01*
G01*
X36380000Y-72570000D02*
G75*
G02*
X36904184Y-73297205I-1800000J-1850000D01*
G01*
X36936400Y-75518807D02*
G75*
G02*
X34580000Y-77020000I-2356400J1098807D01*
G01*
%TO.C,TP14*%
X84500000Y-88000000D02*
G75*
G02*
X81500000Y-88000000I-1500000J0D01*
G01*
X81500000Y-88000000D02*
G75*
G02*
X84500000Y-88000000I1500000J0D01*
G01*
%TO.C,Q17*%
X40460000Y-38805000D02*
X44060000Y-38805000D01*
X39903600Y-35856193D02*
G75*
G02*
X42260000Y-34355000I2356400J-1098807D01*
G01*
X40460000Y-38805000D02*
G75*
G02*
X39935816Y-38077795I1800000J1850000D01*
G01*
X42260000Y-34355000D02*
G75*
G02*
X44616400Y-35856193I0J-2600000D01*
G01*
X44584184Y-38077795D02*
G75*
G02*
X44060000Y-38805000I-2324184J1122795D01*
G01*
%TO.C,R20*%
X10370000Y-40765000D02*
X12980000Y-40765000D01*
X10370000Y-40765000D02*
G75*
G02*
X7630000Y-40765000I-1370000J0D01*
G01*
X7630000Y-40765000D02*
G75*
G02*
X10370000Y-40765000I1370000J0D01*
G01*
%TO.C,Q36*%
X36380000Y-59235000D02*
X32780000Y-59235000D01*
X32255816Y-59962205D02*
G75*
G02*
X32780000Y-59235000I2324184J-1122795D01*
G01*
X34580000Y-63685000D02*
G75*
G02*
X32223600Y-62183807I0J2600000D01*
G01*
X36380000Y-59235000D02*
G75*
G02*
X36904184Y-59962205I-1800000J-1850000D01*
G01*
X36936400Y-62183807D02*
G75*
G02*
X34580000Y-63685000I-2356400J1098807D01*
G01*
%TO.C,Q15*%
X25100000Y-38805000D02*
X28700000Y-38805000D01*
X24543600Y-35856193D02*
G75*
G02*
X26900000Y-34355000I2356400J-1098807D01*
G01*
X25100000Y-38805000D02*
G75*
G02*
X24575816Y-38077795I1800000J1850000D01*
G01*
X26900000Y-34355000D02*
G75*
G02*
X29256400Y-35856193I0J-2600000D01*
G01*
X29224184Y-38077795D02*
G75*
G02*
X28700000Y-38805000I-2324184J1122795D01*
G01*
%TO.C,TP11*%
X69500000Y-88000000D02*
G75*
G02*
X66500000Y-88000000I-1500000J0D01*
G01*
X66500000Y-88000000D02*
G75*
G02*
X69500000Y-88000000I1500000J0D01*
G01*
%TO.C,R19*%
X48770000Y-32510000D02*
X51380000Y-32510000D01*
X48770000Y-32510000D02*
G75*
G02*
X46030000Y-32510000I-1370000J0D01*
G01*
X46030000Y-32510000D02*
G75*
G02*
X48770000Y-32510000I1370000J0D01*
G01*
%TO.C,R48*%
X84000000Y-25370000D02*
X84000000Y-27980000D01*
X85370000Y-24000000D02*
G75*
G02*
X82630000Y-24000000I-1370000J0D01*
G01*
X82630000Y-24000000D02*
G75*
G02*
X85370000Y-24000000I1370000J0D01*
G01*
%TO.C,Q20*%
X9740000Y-52140000D02*
X13340000Y-52140000D01*
X9183600Y-49191193D02*
G75*
G02*
X11540000Y-47690000I2356400J-1098807D01*
G01*
X9740000Y-52140000D02*
G75*
G02*
X9215816Y-51412795I1800000J1850000D01*
G01*
X11540000Y-47690000D02*
G75*
G02*
X13896400Y-49191193I0J-2600000D01*
G01*
X13864184Y-51412795D02*
G75*
G02*
X13340000Y-52140000I-2324184J1122795D01*
G01*
%TO.C,Q2*%
X21020000Y-17960000D02*
X17420000Y-17960000D01*
X16895816Y-18687205D02*
G75*
G02*
X17420000Y-17960000I2324184J-1122795D01*
G01*
X19220000Y-22410000D02*
G75*
G02*
X16863600Y-20908807I0J2600000D01*
G01*
X21020000Y-17960000D02*
G75*
G02*
X21544184Y-18687205I-1800000J-1850000D01*
G01*
X21576400Y-20908807D02*
G75*
G02*
X19220000Y-22410000I-2356400J1098807D01*
G01*
%TO.C,Q42*%
X21020000Y-61140000D02*
X17420000Y-61140000D01*
X16895816Y-61867205D02*
G75*
G02*
X17420000Y-61140000I2324184J-1122795D01*
G01*
X19220000Y-65590000D02*
G75*
G02*
X16863600Y-64088807I0J2600000D01*
G01*
X21020000Y-61140000D02*
G75*
G02*
X21544184Y-61867205I-1800000J-1850000D01*
G01*
X21576400Y-64088807D02*
G75*
G02*
X19220000Y-65590000I-2356400J1098807D01*
G01*
%TO.C,TP8*%
X94500000Y-78000000D02*
G75*
G02*
X91500000Y-78000000I-1500000J0D01*
G01*
X91500000Y-78000000D02*
G75*
G02*
X94500000Y-78000000I1500000J0D01*
G01*
%TO.C,TP10*%
X64500000Y-88000000D02*
G75*
G02*
X61500000Y-88000000I-1500000J0D01*
G01*
X61500000Y-88000000D02*
G75*
G02*
X64500000Y-88000000I1500000J0D01*
G01*
%TO.C,Q1*%
X9740000Y-22295000D02*
X13340000Y-22295000D01*
X9183600Y-19346193D02*
G75*
G02*
X11540000Y-17845000I2356400J-1098807D01*
G01*
X9740000Y-22295000D02*
G75*
G02*
X9215816Y-21567795I1800000J1850000D01*
G01*
X11540000Y-17845000D02*
G75*
G02*
X13896400Y-19346193I0J-2600000D01*
G01*
X13864184Y-21567795D02*
G75*
G02*
X13340000Y-22295000I-2324184J1122795D01*
G01*
%TO.C,TP6*%
X84500000Y-78000000D02*
G75*
G02*
X81500000Y-78000000I-1500000J0D01*
G01*
X81500000Y-78000000D02*
G75*
G02*
X84500000Y-78000000I1500000J0D01*
G01*
%TO.C,C3*%
X64630000Y-40630000D02*
X67370000Y-40630000D01*
X64630000Y-45870000D02*
X64630000Y-40630000D01*
X67370000Y-40630000D02*
X67370000Y-45870000D01*
X67370000Y-45870000D02*
X64630000Y-45870000D01*
%TO.C,J1*%
X56620000Y-17620000D02*
X58000000Y-17620000D01*
X56620000Y-19000000D02*
X56620000Y-17620000D01*
X56620000Y-20270000D02*
X56620000Y-33080000D01*
X56620000Y-20270000D02*
X59380000Y-20270000D01*
X56620000Y-33080000D02*
X59380000Y-33080000D01*
X59380000Y-20270000D02*
X59380000Y-33080000D01*
%TO.C,D2*%
X66420000Y-54000000D02*
X67070000Y-54000000D01*
X70470000Y-55120000D02*
X70470000Y-52880000D01*
X70590000Y-55120000D02*
X70590000Y-52880000D01*
X70710000Y-55120000D02*
X70710000Y-52880000D01*
X71960000Y-54000000D02*
X71310000Y-54000000D01*
X67070000Y-52880000D02*
X71310000Y-52880000D01*
X71310000Y-55120000D01*
X67070000Y-55120000D01*
X67070000Y-52880000D01*
%TO.C,Q50*%
X25100000Y-83890000D02*
X28700000Y-83890000D01*
X24543600Y-80941193D02*
G75*
G02*
X26900000Y-79440000I2356400J-1098807D01*
G01*
X25100000Y-83890000D02*
G75*
G02*
X24575816Y-83162795I1800000J1850000D01*
G01*
X26900000Y-79440000D02*
G75*
G02*
X29256400Y-80941193I0J-2600000D01*
G01*
X29224184Y-83162795D02*
G75*
G02*
X28700000Y-83890000I-2324184J1122795D01*
G01*
%TO.C,R16*%
X25730000Y-32510000D02*
X28340000Y-32510000D01*
X25730000Y-32510000D02*
G75*
G02*
X22990000Y-32510000I-1370000J0D01*
G01*
X22990000Y-32510000D02*
G75*
G02*
X25730000Y-32510000I1370000J0D01*
G01*
%TO.C,TP4*%
X74500000Y-78000000D02*
G75*
G02*
X71500000Y-78000000I-1500000J0D01*
G01*
X71500000Y-78000000D02*
G75*
G02*
X74500000Y-78000000I1500000J0D01*
G01*
%TO.C,R50*%
X59370000Y-42000000D02*
X61980000Y-42000000D01*
X59370000Y-42000000D02*
G75*
G02*
X56630000Y-42000000I-1370000J0D01*
G01*
X56630000Y-42000000D02*
G75*
G02*
X59370000Y-42000000I1370000J0D01*
G01*
%TO.C,R21*%
X18050000Y-40765000D02*
X20660000Y-40765000D01*
X18050000Y-40765000D02*
G75*
G02*
X15310000Y-40765000I-1370000J0D01*
G01*
X15310000Y-40765000D02*
G75*
G02*
X18050000Y-40765000I1370000J0D01*
G01*
%TO.C,Q38*%
X40460000Y-63570000D02*
X44060000Y-63570000D01*
X39903600Y-60621193D02*
G75*
G02*
X42260000Y-59120000I2356400J-1098807D01*
G01*
X40460000Y-63570000D02*
G75*
G02*
X39935816Y-62842795I1800000J1850000D01*
G01*
X42260000Y-59120000D02*
G75*
G02*
X44616400Y-60621193I0J-2600000D01*
G01*
X44584184Y-62842795D02*
G75*
G02*
X44060000Y-63570000I-2324184J1122795D01*
G01*
%TO.C,TP3*%
X69500000Y-78000000D02*
G75*
G02*
X66500000Y-78000000I-1500000J0D01*
G01*
X66500000Y-78000000D02*
G75*
G02*
X69500000Y-78000000I1500000J0D01*
G01*
%TO.C,Q54*%
X51740000Y-77650000D02*
X48140000Y-77650000D01*
X47615816Y-78377205D02*
G75*
G02*
X48140000Y-77650000I2324184J-1122795D01*
G01*
X49940000Y-82100000D02*
G75*
G02*
X47583600Y-80598807I0J2600000D01*
G01*
X51740000Y-77650000D02*
G75*
G02*
X52264184Y-78377205I-1800000J-1850000D01*
G01*
X52296400Y-80598807D02*
G75*
G02*
X49940000Y-82100000I-2356400J1098807D01*
G01*
%TO.C,Q30*%
X36380000Y-50980000D02*
X32780000Y-50980000D01*
X32255816Y-51707205D02*
G75*
G02*
X32780000Y-50980000I2324184J-1122795D01*
G01*
X34580000Y-55430000D02*
G75*
G02*
X32223600Y-53928807I0J2600000D01*
G01*
X36380000Y-50980000D02*
G75*
G02*
X36904184Y-51707205I-1800000J-1850000D01*
G01*
X36936400Y-53928807D02*
G75*
G02*
X34580000Y-55430000I-2356400J1098807D01*
G01*
%TO.C,Q25*%
X25100000Y-43885000D02*
X28700000Y-43885000D01*
X24543600Y-40936193D02*
G75*
G02*
X26900000Y-39435000I2356400J-1098807D01*
G01*
X25100000Y-43885000D02*
G75*
G02*
X24575816Y-43157795I1800000J1850000D01*
G01*
X26900000Y-39435000D02*
G75*
G02*
X29256400Y-40936193I0J-2600000D01*
G01*
X29224184Y-43157795D02*
G75*
G02*
X28700000Y-43885000I-2324184J1122795D01*
G01*
%TO.C,Q47*%
X9740000Y-78810000D02*
X13340000Y-78810000D01*
X9183600Y-75861193D02*
G75*
G02*
X11540000Y-74360000I2356400J-1098807D01*
G01*
X9740000Y-78810000D02*
G75*
G02*
X9215816Y-78082795I1800000J1850000D01*
G01*
X11540000Y-74360000D02*
G75*
G02*
X13896400Y-75861193I0J-2600000D01*
G01*
X13864184Y-78082795D02*
G75*
G02*
X13340000Y-78810000I-2324184J1122795D01*
G01*
%TO.C,R29*%
X25730000Y-54100000D02*
X28340000Y-54100000D01*
X25730000Y-54100000D02*
G75*
G02*
X22990000Y-54100000I-1370000J0D01*
G01*
X22990000Y-54100000D02*
G75*
G02*
X25730000Y-54100000I1370000J0D01*
G01*
%TO.C,Q14*%
X21020000Y-34470000D02*
X17420000Y-34470000D01*
X16895816Y-35197205D02*
G75*
G02*
X17420000Y-34470000I2324184J-1122795D01*
G01*
X19220000Y-38920000D02*
G75*
G02*
X16863600Y-37418807I0J2600000D01*
G01*
X21020000Y-34470000D02*
G75*
G02*
X21544184Y-35197205I-1800000J-1850000D01*
G01*
X21576400Y-37418807D02*
G75*
G02*
X19220000Y-38920000I-2356400J1098807D01*
G01*
%TO.C,R18*%
X41090000Y-32510000D02*
X43700000Y-32510000D01*
X41090000Y-32510000D02*
G75*
G02*
X38350000Y-32510000I-1370000J0D01*
G01*
X38350000Y-32510000D02*
G75*
G02*
X41090000Y-32510000I1370000J0D01*
G01*
%TO.C,R42*%
X10370000Y-83310000D02*
X12980000Y-83310000D01*
X10370000Y-83310000D02*
G75*
G02*
X7630000Y-83310000I-1370000J0D01*
G01*
X7630000Y-83310000D02*
G75*
G02*
X10370000Y-83310000I1370000J0D01*
G01*
%TO.C,Q21*%
X9740000Y-57220000D02*
X13340000Y-57220000D01*
X9183600Y-54271193D02*
G75*
G02*
X11540000Y-52770000I2356400J-1098807D01*
G01*
X9740000Y-57220000D02*
G75*
G02*
X9215816Y-56492795I1800000J1850000D01*
G01*
X11540000Y-52770000D02*
G75*
G02*
X13896400Y-54271193I0J-2600000D01*
G01*
X13864184Y-56492795D02*
G75*
G02*
X13340000Y-57220000I-2324184J1122795D01*
G01*
%TO.C,C1*%
X93630000Y-15130000D02*
X96370000Y-15130000D01*
X93630000Y-20370000D02*
X93630000Y-15130000D01*
X96370000Y-15130000D02*
X96370000Y-20370000D01*
X96370000Y-20370000D02*
X93630000Y-20370000D01*
%TO.C,R25*%
X25730000Y-45845000D02*
X28340000Y-45845000D01*
X25730000Y-45845000D02*
G75*
G02*
X22990000Y-45845000I-1370000J0D01*
G01*
X22990000Y-45845000D02*
G75*
G02*
X25730000Y-45845000I1370000J0D01*
G01*
%TO.C,R9*%
X18050000Y-24255000D02*
X20660000Y-24255000D01*
X18050000Y-24255000D02*
G75*
G02*
X15310000Y-24255000I-1370000J0D01*
G01*
X15310000Y-24255000D02*
G75*
G02*
X18050000Y-24255000I1370000J0D01*
G01*
%TO.C,Q37*%
X36380000Y-64315000D02*
X32780000Y-64315000D01*
X32255816Y-65042205D02*
G75*
G02*
X32780000Y-64315000I2324184J-1122795D01*
G01*
X34580000Y-68765000D02*
G75*
G02*
X32223600Y-67263807I0J2600000D01*
G01*
X36380000Y-64315000D02*
G75*
G02*
X36904184Y-65042205I-1800000J-1850000D01*
G01*
X36936400Y-67263807D02*
G75*
G02*
X34580000Y-68765000I-2356400J1098807D01*
G01*
%TO.C,Q34*%
X25100000Y-60395000D02*
X28700000Y-60395000D01*
X24543600Y-57446193D02*
G75*
G02*
X26900000Y-55945000I2356400J-1098807D01*
G01*
X25100000Y-60395000D02*
G75*
G02*
X24575816Y-59667795I1800000J1850000D01*
G01*
X26900000Y-55945000D02*
G75*
G02*
X29256400Y-57446193I0J-2600000D01*
G01*
X29224184Y-59667795D02*
G75*
G02*
X28700000Y-60395000I-2324184J1122795D01*
G01*
%TO.C,R17*%
X33410000Y-32510000D02*
X36020000Y-32510000D01*
X33410000Y-32510000D02*
G75*
G02*
X30670000Y-32510000I-1370000J0D01*
G01*
X30670000Y-32510000D02*
G75*
G02*
X33410000Y-32510000I1370000J0D01*
G01*
%TO.C,R14*%
X10370000Y-32510000D02*
X12980000Y-32510000D01*
X10370000Y-32510000D02*
G75*
G02*
X7630000Y-32510000I-1370000J0D01*
G01*
X7630000Y-32510000D02*
G75*
G02*
X10370000Y-32510000I1370000J0D01*
G01*
%TO.C,Q10*%
X36380000Y-26215000D02*
X32780000Y-26215000D01*
X32255816Y-26942205D02*
G75*
G02*
X32780000Y-26215000I2324184J-1122795D01*
G01*
X34580000Y-30665000D02*
G75*
G02*
X32223600Y-29163807I0J2600000D01*
G01*
X36380000Y-26215000D02*
G75*
G02*
X36904184Y-26942205I-1800000J-1850000D01*
G01*
X36936400Y-29163807D02*
G75*
G02*
X34580000Y-30665000I-2356400J1098807D01*
G01*
%TO.C,TP12*%
X74500000Y-88000000D02*
G75*
G02*
X71500000Y-88000000I-1500000J0D01*
G01*
X71500000Y-88000000D02*
G75*
G02*
X74500000Y-88000000I1500000J0D01*
G01*
%TO.C,Q5*%
X40460000Y-22295000D02*
X44060000Y-22295000D01*
X39903600Y-19346193D02*
G75*
G02*
X42260000Y-17845000I2356400J-1098807D01*
G01*
X40460000Y-22295000D02*
G75*
G02*
X39935816Y-21567795I1800000J1850000D01*
G01*
X42260000Y-17845000D02*
G75*
G02*
X44616400Y-19346193I0J-2600000D01*
G01*
X44584184Y-21567795D02*
G75*
G02*
X44060000Y-22295000I-2324184J1122795D01*
G01*
%TO.C,Q6*%
X51740000Y-17960000D02*
X48140000Y-17960000D01*
X47615816Y-18687205D02*
G75*
G02*
X48140000Y-17960000I2324184J-1122795D01*
G01*
X49940000Y-22410000D02*
G75*
G02*
X47583600Y-20908807I0J2600000D01*
G01*
X51740000Y-17960000D02*
G75*
G02*
X52264184Y-18687205I-1800000J-1850000D01*
G01*
X52296400Y-20908807D02*
G75*
G02*
X49940000Y-22410000I-2356400J1098807D01*
G01*
%TO.C,R28*%
X48770000Y-49020000D02*
X51380000Y-49020000D01*
X48770000Y-49020000D02*
G75*
G02*
X46030000Y-49020000I-1370000J0D01*
G01*
X46030000Y-49020000D02*
G75*
G02*
X48770000Y-49020000I1370000J0D01*
G01*
%TO.C,Q19*%
X9740000Y-47060000D02*
X13340000Y-47060000D01*
X9183600Y-44111193D02*
G75*
G02*
X11540000Y-42610000I2356400J-1098807D01*
G01*
X9740000Y-47060000D02*
G75*
G02*
X9215816Y-46332795I1800000J1850000D01*
G01*
X11540000Y-42610000D02*
G75*
G02*
X13896400Y-44111193I0J-2600000D01*
G01*
X13864184Y-46332795D02*
G75*
G02*
X13340000Y-47060000I-2324184J1122795D01*
G01*
%TO.C,R10*%
X25730000Y-24255000D02*
X28340000Y-24255000D01*
X25730000Y-24255000D02*
G75*
G02*
X22990000Y-24255000I-1370000J0D01*
G01*
X22990000Y-24255000D02*
G75*
G02*
X25730000Y-24255000I1370000J0D01*
G01*
%TO.C,R32*%
X10370000Y-59180000D02*
X12980000Y-59180000D01*
X10370000Y-59180000D02*
G75*
G02*
X7630000Y-59180000I-1370000J0D01*
G01*
X7630000Y-59180000D02*
G75*
G02*
X10370000Y-59180000I1370000J0D01*
G01*
%TO.C,Q53*%
X40460000Y-81985000D02*
X44060000Y-81985000D01*
X39903600Y-79036193D02*
G75*
G02*
X42260000Y-77535000I2356400J-1098807D01*
G01*
X40460000Y-81985000D02*
G75*
G02*
X39935816Y-81257795I1800000J1850000D01*
G01*
X42260000Y-77535000D02*
G75*
G02*
X44616400Y-79036193I0J-2600000D01*
G01*
X44584184Y-81257795D02*
G75*
G02*
X44060000Y-81985000I-2324184J1122795D01*
G01*
%TO.C,R22*%
X33410000Y-40765000D02*
X36020000Y-40765000D01*
X33410000Y-40765000D02*
G75*
G02*
X30670000Y-40765000I-1370000J0D01*
G01*
X30670000Y-40765000D02*
G75*
G02*
X33410000Y-40765000I1370000J0D01*
G01*
%TO.C,R39*%
X41090000Y-75690000D02*
X43700000Y-75690000D01*
X41090000Y-75690000D02*
G75*
G02*
X38350000Y-75690000I-1370000J0D01*
G01*
X38350000Y-75690000D02*
G75*
G02*
X41090000Y-75690000I1370000J0D01*
G01*
%TO.C,Q31*%
X40460000Y-55315000D02*
X44060000Y-55315000D01*
X39903600Y-52366193D02*
G75*
G02*
X42260000Y-50865000I2356400J-1098807D01*
G01*
X40460000Y-55315000D02*
G75*
G02*
X39935816Y-54587795I1800000J1850000D01*
G01*
X42260000Y-50865000D02*
G75*
G02*
X44616400Y-52366193I0J-2600000D01*
G01*
X44584184Y-54587795D02*
G75*
G02*
X44060000Y-55315000I-2324184J1122795D01*
G01*
%TO.C,R23*%
X41090000Y-40765000D02*
X43700000Y-40765000D01*
X41090000Y-40765000D02*
G75*
G02*
X38350000Y-40765000I-1370000J0D01*
G01*
X38350000Y-40765000D02*
G75*
G02*
X41090000Y-40765000I1370000J0D01*
G01*
%TO.C,Q24*%
X21020000Y-52885000D02*
X17420000Y-52885000D01*
X16895816Y-53612205D02*
G75*
G02*
X17420000Y-52885000I2324184J-1122795D01*
G01*
X19220000Y-57335000D02*
G75*
G02*
X16863600Y-55833807I0J2600000D01*
G01*
X21020000Y-52885000D02*
G75*
G02*
X21544184Y-53612205I-1800000J-1850000D01*
G01*
X21576400Y-55833807D02*
G75*
G02*
X19220000Y-57335000I-2356400J1098807D01*
G01*
%TO.C,Q55*%
X36380000Y-87810000D02*
X32780000Y-87810000D01*
X32255816Y-88537205D02*
G75*
G02*
X32780000Y-87810000I2324184J-1122795D01*
G01*
X34580000Y-92260000D02*
G75*
G02*
X32223600Y-90758807I0J2600000D01*
G01*
X36380000Y-87810000D02*
G75*
G02*
X36904184Y-88537205I-1800000J-1850000D01*
G01*
X36936400Y-90758807D02*
G75*
G02*
X34580000Y-92260000I-2356400J1098807D01*
G01*
%TO.C,Q7*%
X9740000Y-30550000D02*
X13340000Y-30550000D01*
X9183600Y-27601193D02*
G75*
G02*
X11540000Y-26100000I2356400J-1098807D01*
G01*
X9740000Y-30550000D02*
G75*
G02*
X9215816Y-29822795I1800000J1850000D01*
G01*
X11540000Y-26100000D02*
G75*
G02*
X13896400Y-27601193I0J-2600000D01*
G01*
X13864184Y-29822795D02*
G75*
G02*
X13340000Y-30550000I-2324184J1122795D01*
G01*
%TO.C,R1*%
X88000000Y-15370000D02*
X88000000Y-17980000D01*
X89370000Y-14000000D02*
G75*
G02*
X86630000Y-14000000I-1370000J0D01*
G01*
X86630000Y-14000000D02*
G75*
G02*
X89370000Y-14000000I1370000J0D01*
G01*
%TO.C,Q13*%
X9740000Y-38805000D02*
X13340000Y-38805000D01*
X9183600Y-35856193D02*
G75*
G02*
X11540000Y-34355000I2356400J-1098807D01*
G01*
X9740000Y-38805000D02*
G75*
G02*
X9215816Y-38077795I1800000J1850000D01*
G01*
X11540000Y-34355000D02*
G75*
G02*
X13896400Y-35856193I0J-2600000D01*
G01*
X13864184Y-38077795D02*
G75*
G02*
X13340000Y-38805000I-2324184J1122795D01*
G01*
%TO.C,R15*%
X18050000Y-32510000D02*
X20660000Y-32510000D01*
X18050000Y-32510000D02*
G75*
G02*
X15310000Y-32510000I-1370000J0D01*
G01*
X15310000Y-32510000D02*
G75*
G02*
X18050000Y-32510000I1370000J0D01*
G01*
%TO.C,R38*%
X18050000Y-72515000D02*
X20660000Y-72515000D01*
X18050000Y-72515000D02*
G75*
G02*
X15310000Y-72515000I-1370000J0D01*
G01*
X15310000Y-72515000D02*
G75*
G02*
X18050000Y-72515000I1370000J0D01*
G01*
%TO.C,Q46*%
X9740000Y-73730000D02*
X13340000Y-73730000D01*
X9183600Y-70781193D02*
G75*
G02*
X11540000Y-69280000I2356400J-1098807D01*
G01*
X9740000Y-73730000D02*
G75*
G02*
X9215816Y-73002795I1800000J1850000D01*
G01*
X11540000Y-69280000D02*
G75*
G02*
X13896400Y-70781193I0J-2600000D01*
G01*
X13864184Y-73002795D02*
G75*
G02*
X13340000Y-73730000I-2324184J1122795D01*
G01*
%TO.C,J3*%
X5420000Y-1670000D02*
X94580000Y-1670000D01*
X5420000Y-10790000D02*
X5420000Y-1670000D01*
X6720000Y-2980000D02*
X93280000Y-2980000D01*
X6720000Y-9480000D02*
X6720000Y-2980000D01*
X10130000Y-12180000D02*
X11130000Y-12180000D01*
X10630000Y-11180000D02*
X10130000Y-12180000D01*
X11130000Y-12180000D02*
X10630000Y-11180000D01*
X47950000Y-9480000D02*
X6720000Y-9480000D01*
X47950000Y-10790000D02*
X47950000Y-9480000D01*
X52050000Y-9480000D02*
X52050000Y-10790000D01*
X93280000Y-2980000D02*
X93280000Y-9480000D01*
X93280000Y-9480000D02*
X52050000Y-9480000D01*
X94580000Y-1670000D02*
X94580000Y-10790000D01*
X94580000Y-10790000D02*
X5420000Y-10790000D01*
%TO.C,R49*%
X77000000Y-43370000D02*
X77000000Y-45980000D01*
X78370000Y-42000000D02*
G75*
G02*
X75630000Y-42000000I-1370000J0D01*
G01*
X75630000Y-42000000D02*
G75*
G02*
X78370000Y-42000000I1370000J0D01*
G01*
%TO.C,TP5*%
X79500000Y-78000000D02*
G75*
G02*
X76500000Y-78000000I-1500000J0D01*
G01*
X76500000Y-78000000D02*
G75*
G02*
X79500000Y-78000000I1500000J0D01*
G01*
%TO.C,Q11*%
X40460000Y-30550000D02*
X44060000Y-30550000D01*
X39903600Y-27601193D02*
G75*
G02*
X42260000Y-26100000I2356400J-1098807D01*
G01*
X40460000Y-30550000D02*
G75*
G02*
X39935816Y-29822795I1800000J1850000D01*
G01*
X42260000Y-26100000D02*
G75*
G02*
X44616400Y-27601193I0J-2600000D01*
G01*
X44584184Y-29822795D02*
G75*
G02*
X44060000Y-30550000I-2324184J1122795D01*
G01*
%TO.C,Q44*%
X51740000Y-64315000D02*
X48140000Y-64315000D01*
X47615816Y-65042205D02*
G75*
G02*
X48140000Y-64315000I2324184J-1122795D01*
G01*
X49940000Y-68765000D02*
G75*
G02*
X47583600Y-67263807I0J2600000D01*
G01*
X51740000Y-64315000D02*
G75*
G02*
X52264184Y-65042205I-1800000J-1850000D01*
G01*
X52296400Y-67263807D02*
G75*
G02*
X49940000Y-68765000I-2356400J1098807D01*
G01*
%TO.C,R43*%
X18050000Y-83310000D02*
X20660000Y-83310000D01*
X18050000Y-83310000D02*
G75*
G02*
X15310000Y-83310000I-1370000J0D01*
G01*
X15310000Y-83310000D02*
G75*
G02*
X18050000Y-83310000I1370000J0D01*
G01*
%TO.C,R8*%
X10370000Y-24255000D02*
X12980000Y-24255000D01*
X10370000Y-24255000D02*
G75*
G02*
X7630000Y-24255000I-1370000J0D01*
G01*
X7630000Y-24255000D02*
G75*
G02*
X10370000Y-24255000I1370000J0D01*
G01*
%TO.C,TP1*%
X59500000Y-78000000D02*
G75*
G02*
X56500000Y-78000000I-1500000J0D01*
G01*
X56500000Y-78000000D02*
G75*
G02*
X59500000Y-78000000I1500000J0D01*
G01*
%TO.C,Q9*%
X25100000Y-30550000D02*
X28700000Y-30550000D01*
X24543600Y-27601193D02*
G75*
G02*
X26900000Y-26100000I2356400J-1098807D01*
G01*
X25100000Y-30550000D02*
G75*
G02*
X24575816Y-29822795I1800000J1850000D01*
G01*
X26900000Y-26100000D02*
G75*
G02*
X29256400Y-27601193I0J-2600000D01*
G01*
X29224184Y-29822795D02*
G75*
G02*
X28700000Y-30550000I-2324184J1122795D01*
G01*
%TO.C,Q41*%
X9740000Y-65475000D02*
X13340000Y-65475000D01*
X9183600Y-62526193D02*
G75*
G02*
X11540000Y-61025000I2356400J-1098807D01*
G01*
X9740000Y-65475000D02*
G75*
G02*
X9215816Y-64747795I1800000J1850000D01*
G01*
X11540000Y-61025000D02*
G75*
G02*
X13896400Y-62526193I0J-2600000D01*
G01*
X13864184Y-64747795D02*
G75*
G02*
X13340000Y-65475000I-2324184J1122795D01*
G01*
%TO.C,R3*%
X18050000Y-16000000D02*
X20660000Y-16000000D01*
X18050000Y-16000000D02*
G75*
G02*
X15310000Y-16000000I-1370000J0D01*
G01*
X15310000Y-16000000D02*
G75*
G02*
X18050000Y-16000000I1370000J0D01*
G01*
%TO.C,R36*%
X25730000Y-67435000D02*
X28340000Y-67435000D01*
X25730000Y-67435000D02*
G75*
G02*
X22990000Y-67435000I-1370000J0D01*
G01*
X22990000Y-67435000D02*
G75*
G02*
X25730000Y-67435000I1370000J0D01*
G01*
%TO.C,Q35*%
X25100000Y-65475000D02*
X28700000Y-65475000D01*
X24543600Y-62526193D02*
G75*
G02*
X26900000Y-61025000I2356400J-1098807D01*
G01*
X25100000Y-65475000D02*
G75*
G02*
X24575816Y-64747795I1800000J1850000D01*
G01*
X26900000Y-61025000D02*
G75*
G02*
X29256400Y-62526193I0J-2600000D01*
G01*
X29224184Y-64747795D02*
G75*
G02*
X28700000Y-65475000I-2324184J1122795D01*
G01*
%TO.C,R35*%
X10370000Y-67435000D02*
X12980000Y-67435000D01*
X10370000Y-67435000D02*
G75*
G02*
X7630000Y-67435000I-1370000J0D01*
G01*
X7630000Y-67435000D02*
G75*
G02*
X10370000Y-67435000I1370000J0D01*
G01*
%TO.C,Q23*%
X21020000Y-47805000D02*
X17420000Y-47805000D01*
X16895816Y-48532205D02*
G75*
G02*
X17420000Y-47805000I2324184J-1122795D01*
G01*
X19220000Y-52255000D02*
G75*
G02*
X16863600Y-50753807I0J2600000D01*
G01*
X21020000Y-47805000D02*
G75*
G02*
X21544184Y-48532205I-1800000J-1850000D01*
G01*
X21576400Y-50753807D02*
G75*
G02*
X19220000Y-52255000I-2356400J1098807D01*
G01*
%TO.C,R5*%
X33410000Y-16000000D02*
X36020000Y-16000000D01*
X33410000Y-16000000D02*
G75*
G02*
X30670000Y-16000000I-1370000J0D01*
G01*
X30670000Y-16000000D02*
G75*
G02*
X33410000Y-16000000I1370000J0D01*
G01*
%TO.C,R2*%
X10370000Y-16000000D02*
X12980000Y-16000000D01*
X10370000Y-16000000D02*
G75*
G02*
X7630000Y-16000000I-1370000J0D01*
G01*
X7630000Y-16000000D02*
G75*
G02*
X10370000Y-16000000I1370000J0D01*
G01*
%TO.C,R30*%
X33410000Y-57275000D02*
X36020000Y-57275000D01*
X33410000Y-57275000D02*
G75*
G02*
X30670000Y-57275000I-1370000J0D01*
G01*
X30670000Y-57275000D02*
G75*
G02*
X33410000Y-57275000I1370000J0D01*
G01*
%TO.C,R24*%
X48770000Y-40765000D02*
X51380000Y-40765000D01*
X48770000Y-40765000D02*
G75*
G02*
X46030000Y-40765000I-1370000J0D01*
G01*
X46030000Y-40765000D02*
G75*
G02*
X48770000Y-40765000I1370000J0D01*
G01*
%TO.C,Q4*%
X36380000Y-17960000D02*
X32780000Y-17960000D01*
X32255816Y-18687205D02*
G75*
G02*
X32780000Y-17960000I2324184J-1122795D01*
G01*
X34580000Y-22410000D02*
G75*
G02*
X32223600Y-20908807I0J2600000D01*
G01*
X36380000Y-17960000D02*
G75*
G02*
X36904184Y-18687205I-1800000J-1850000D01*
G01*
X36936400Y-20908807D02*
G75*
G02*
X34580000Y-22410000I-2356400J1098807D01*
G01*
%TO.C,Q33*%
X51740000Y-56060000D02*
X48140000Y-56060000D01*
X47615816Y-56787205D02*
G75*
G02*
X48140000Y-56060000I2324184J-1122795D01*
G01*
X49940000Y-60510000D02*
G75*
G02*
X47583600Y-59008807I0J2600000D01*
G01*
X51740000Y-56060000D02*
G75*
G02*
X52264184Y-56787205I-1800000J-1850000D01*
G01*
X52296400Y-59008807D02*
G75*
G02*
X49940000Y-60510000I-2356400J1098807D01*
G01*
%TO.C,Q56*%
X72740000Y-37850000D02*
X76340000Y-37850000D01*
X72183600Y-34901193D02*
G75*
G02*
X74540000Y-33400000I2356400J-1098807D01*
G01*
X72740000Y-37850000D02*
G75*
G02*
X72215816Y-37122795I1800000J1850000D01*
G01*
X74540000Y-33400000D02*
G75*
G02*
X76896400Y-34901193I0J-2600000D01*
G01*
X76864184Y-37122795D02*
G75*
G02*
X76340000Y-37850000I-2324184J1122795D01*
G01*
%TO.C,R37*%
X33410000Y-70610000D02*
X36020000Y-70610000D01*
X33410000Y-70610000D02*
G75*
G02*
X30670000Y-70610000I-1370000J0D01*
G01*
X30670000Y-70610000D02*
G75*
G02*
X33410000Y-70610000I1370000J0D01*
G01*
%TO.C,Q29*%
X25100000Y-52140000D02*
X28700000Y-52140000D01*
X24543600Y-49191193D02*
G75*
G02*
X26900000Y-47690000I2356400J-1098807D01*
G01*
X25100000Y-52140000D02*
G75*
G02*
X24575816Y-51412795I1800000J1850000D01*
G01*
X26900000Y-47690000D02*
G75*
G02*
X29256400Y-49191193I0J-2600000D01*
G01*
X29224184Y-51412795D02*
G75*
G02*
X28700000Y-52140000I-2324184J1122795D01*
G01*
%TO.C,TP9*%
X59500000Y-88000000D02*
G75*
G02*
X56500000Y-88000000I-1500000J0D01*
G01*
X56500000Y-88000000D02*
G75*
G02*
X59500000Y-88000000I1500000J0D01*
G01*
%TO.C,J2*%
X66620000Y-17620000D02*
X68000000Y-17620000D01*
X66620000Y-19000000D02*
X66620000Y-17620000D01*
X66620000Y-20270000D02*
X66620000Y-22920000D01*
X66620000Y-20270000D02*
X69380000Y-20270000D01*
X66620000Y-22920000D02*
X69380000Y-22920000D01*
X69380000Y-20270000D02*
X69380000Y-22920000D01*
%TO.C,Q43*%
X21020000Y-66220000D02*
X17420000Y-66220000D01*
X16895816Y-66947205D02*
G75*
G02*
X17420000Y-66220000I2324184J-1122795D01*
G01*
X19220000Y-70670000D02*
G75*
G02*
X16863600Y-69168807I0J2600000D01*
G01*
X21020000Y-66220000D02*
G75*
G02*
X21544184Y-66947205I-1800000J-1850000D01*
G01*
X21576400Y-69168807D02*
G75*
G02*
X19220000Y-70670000I-2356400J1098807D01*
G01*
%TO.C,R47*%
X76000000Y-25370000D02*
X76000000Y-27980000D01*
X77370000Y-24000000D02*
G75*
G02*
X74630000Y-24000000I-1370000J0D01*
G01*
X74630000Y-24000000D02*
G75*
G02*
X77370000Y-24000000I1370000J0D01*
G01*
%TO.C,Q16*%
X36380000Y-34470000D02*
X32780000Y-34470000D01*
X32255816Y-35197205D02*
G75*
G02*
X32780000Y-34470000I2324184J-1122795D01*
G01*
X34580000Y-38920000D02*
G75*
G02*
X32223600Y-37418807I0J2600000D01*
G01*
X36380000Y-34470000D02*
G75*
G02*
X36904184Y-35197205I-1800000J-1850000D01*
G01*
X36936400Y-37418807D02*
G75*
G02*
X34580000Y-38920000I-2356400J1098807D01*
G01*
%TO.C,Q39*%
X40460000Y-68650000D02*
X44060000Y-68650000D01*
X39903600Y-65701193D02*
G75*
G02*
X42260000Y-64200000I2356400J-1098807D01*
G01*
X40460000Y-68650000D02*
G75*
G02*
X39935816Y-67922795I1800000J1850000D01*
G01*
X42260000Y-64200000D02*
G75*
G02*
X44616400Y-65701193I0J-2600000D01*
G01*
X44584184Y-67922795D02*
G75*
G02*
X44060000Y-68650000I-2324184J1122795D01*
G01*
%TO.C,TP2*%
X64500000Y-78000000D02*
G75*
G02*
X61500000Y-78000000I-1500000J0D01*
G01*
X61500000Y-78000000D02*
G75*
G02*
X64500000Y-78000000I1500000J0D01*
G01*
%TO.C,R31*%
X41090000Y-57275000D02*
X43700000Y-57275000D01*
X41090000Y-57275000D02*
G75*
G02*
X38350000Y-57275000I-1370000J0D01*
G01*
X38350000Y-57275000D02*
G75*
G02*
X41090000Y-57275000I1370000J0D01*
G01*
%TO.C,C2*%
X93960000Y-27000000D02*
X92420000Y-27000000D01*
X93960000Y-27040000D02*
X92420000Y-27040000D01*
X93960000Y-27080000D02*
X92421000Y-27080000D01*
X93960000Y-27120000D02*
X92423000Y-27120000D01*
X93960000Y-27160000D02*
X92425000Y-27160000D01*
X93960000Y-27200000D02*
X92428000Y-27200000D01*
X93960000Y-27240000D02*
X92431000Y-27240000D01*
X93960000Y-27280000D02*
X92435000Y-27280000D01*
X93960000Y-27320000D02*
X92440000Y-27320000D01*
X93960000Y-27360000D02*
X92445000Y-27360000D01*
X93960000Y-27400000D02*
X92451000Y-27400000D01*
X93960000Y-27440000D02*
X92457000Y-27440000D01*
X93960000Y-27480000D02*
X92464000Y-27480000D01*
X93960000Y-27520000D02*
X92472000Y-27520000D01*
X93960000Y-27560000D02*
X92481000Y-27560000D01*
X93960000Y-27600000D02*
X92490000Y-27600000D01*
X93960000Y-27640000D02*
X92499000Y-27640000D01*
X93960000Y-27680000D02*
X92510000Y-27680000D01*
X93960000Y-27720000D02*
X92521000Y-27720000D01*
X93960000Y-27760000D02*
X92533000Y-27760000D01*
X93960000Y-27800000D02*
X92545000Y-27800000D01*
X93960000Y-27840000D02*
X92558000Y-27840000D01*
X93960000Y-27880000D02*
X92572000Y-27880000D01*
X93960000Y-27920000D02*
X92587000Y-27920000D01*
X93960000Y-27960000D02*
X92602000Y-27960000D01*
X93960000Y-28000000D02*
X92618000Y-28000000D01*
X93960000Y-28040000D02*
X92635000Y-28040000D01*
X93960000Y-28080000D02*
X92653000Y-28080000D01*
X93960000Y-28120000D02*
X92671000Y-28120000D01*
X93960000Y-28160000D02*
X92691000Y-28160000D01*
X93960000Y-28200000D02*
X92711000Y-28200000D01*
X93960000Y-28240000D02*
X92732000Y-28240000D01*
X93960000Y-28280000D02*
X92754000Y-28280000D01*
X93960000Y-28320000D02*
X92777000Y-28320000D01*
X93960000Y-28360000D02*
X92801000Y-28360000D01*
X93960000Y-28400000D02*
X92825000Y-28400000D01*
X93960000Y-28440000D02*
X92851000Y-28440000D01*
X93960000Y-28480000D02*
X92878000Y-28480000D01*
X93960000Y-28520000D02*
X92906000Y-28520000D01*
X93960000Y-28560000D02*
X92935000Y-28560000D01*
X93960000Y-28600000D02*
X92965000Y-28600000D01*
X93960000Y-28640000D02*
X92997000Y-28640000D01*
X93960000Y-28680000D02*
X93030000Y-28680000D01*
X93960000Y-28720000D02*
X93064000Y-28720000D01*
X93960000Y-28760000D02*
X93099000Y-28760000D01*
X93960000Y-28800000D02*
X93136000Y-28800000D01*
X93960000Y-28840000D02*
X93175000Y-28840000D01*
X93960000Y-28880000D02*
X93215000Y-28880000D01*
X93960000Y-28920000D02*
X93257000Y-28920000D01*
X93960000Y-28960000D02*
X93301000Y-28960000D01*
X93960000Y-29000000D02*
X93348000Y-29000000D01*
X95283000Y-29600000D02*
X94717000Y-29600000D01*
X95517000Y-29560000D02*
X94483000Y-29560000D01*
X95677000Y-29520000D02*
X94323000Y-29520000D01*
X95805000Y-29480000D02*
X94195000Y-29480000D01*
X95914000Y-29440000D02*
X94086000Y-29440000D01*
X96011000Y-29400000D02*
X93989000Y-29400000D01*
X96098000Y-29360000D02*
X93902000Y-29360000D01*
X96177000Y-29320000D02*
X93823000Y-29320000D01*
X96251000Y-29280000D02*
X93749000Y-29280000D01*
X96319000Y-29240000D02*
X93681000Y-29240000D01*
X96383000Y-29200000D02*
X93617000Y-29200000D01*
X96443000Y-29160000D02*
X93557000Y-29160000D01*
X96475000Y-24195225D02*
X96475000Y-24695225D01*
X96499000Y-29120000D02*
X93501000Y-29120000D01*
X96553000Y-29080000D02*
X93447000Y-29080000D01*
X96604000Y-29040000D02*
X93396000Y-29040000D01*
X96652000Y-29000000D02*
X96040000Y-29000000D01*
X96699000Y-28960000D02*
X96040000Y-28960000D01*
X96725000Y-24445225D02*
X96225000Y-24445225D01*
X96743000Y-28920000D02*
X96040000Y-28920000D01*
X96785000Y-28880000D02*
X96040000Y-28880000D01*
X96825000Y-28840000D02*
X96040000Y-28840000D01*
X96864000Y-28800000D02*
X96040000Y-28800000D01*
X96901000Y-28760000D02*
X96040000Y-28760000D01*
X96936000Y-28720000D02*
X96040000Y-28720000D01*
X96970000Y-28680000D02*
X96040000Y-28680000D01*
X97003000Y-28640000D02*
X96040000Y-28640000D01*
X97035000Y-28600000D02*
X96040000Y-28600000D01*
X97065000Y-28560000D02*
X96040000Y-28560000D01*
X97094000Y-28520000D02*
X96040000Y-28520000D01*
X97122000Y-28480000D02*
X96040000Y-28480000D01*
X97149000Y-28440000D02*
X96040000Y-28440000D01*
X97175000Y-28400000D02*
X96040000Y-28400000D01*
X97199000Y-28360000D02*
X96040000Y-28360000D01*
X97223000Y-28320000D02*
X96040000Y-28320000D01*
X97246000Y-28280000D02*
X96040000Y-28280000D01*
X97268000Y-28240000D02*
X96040000Y-28240000D01*
X97289000Y-28200000D02*
X96040000Y-28200000D01*
X97309000Y-28160000D02*
X96040000Y-28160000D01*
X97329000Y-28120000D02*
X96040000Y-28120000D01*
X97347000Y-28080000D02*
X96040000Y-28080000D01*
X97365000Y-28040000D02*
X96040000Y-28040000D01*
X97382000Y-28000000D02*
X96040000Y-28000000D01*
X97398000Y-27960000D02*
X96040000Y-27960000D01*
X97413000Y-27920000D02*
X96040000Y-27920000D01*
X97428000Y-27880000D02*
X96040000Y-27880000D01*
X97442000Y-27840000D02*
X96040000Y-27840000D01*
X97455000Y-27800000D02*
X96040000Y-27800000D01*
X97467000Y-27760000D02*
X96040000Y-27760000D01*
X97479000Y-27720000D02*
X96040000Y-27720000D01*
X97490000Y-27680000D02*
X96040000Y-27680000D01*
X97501000Y-27640000D02*
X96040000Y-27640000D01*
X97510000Y-27600000D02*
X96040000Y-27600000D01*
X97519000Y-27560000D02*
X96040000Y-27560000D01*
X97528000Y-27520000D02*
X96040000Y-27520000D01*
X97536000Y-27480000D02*
X96040000Y-27480000D01*
X97543000Y-27440000D02*
X96040000Y-27440000D01*
X97549000Y-27400000D02*
X96040000Y-27400000D01*
X97555000Y-27360000D02*
X96040000Y-27360000D01*
X97560000Y-27320000D02*
X96040000Y-27320000D01*
X97565000Y-27280000D02*
X96040000Y-27280000D01*
X97569000Y-27240000D02*
X96040000Y-27240000D01*
X97572000Y-27200000D02*
X96040000Y-27200000D01*
X97575000Y-27160000D02*
X96040000Y-27160000D01*
X97577000Y-27120000D02*
X96040000Y-27120000D01*
X97579000Y-27080000D02*
X96040000Y-27080000D01*
X97580000Y-27000000D02*
X96040000Y-27000000D01*
X97580000Y-27040000D02*
X96040000Y-27040000D01*
X97620000Y-27000000D02*
G75*
G02*
X92380000Y-27000000I-2620000J0D01*
G01*
X92380000Y-27000000D02*
G75*
G02*
X97620000Y-27000000I2620000J0D01*
G01*
%TO.C,R33*%
X18050000Y-59180000D02*
X20660000Y-59180000D01*
X18050000Y-59180000D02*
G75*
G02*
X15310000Y-59180000I-1370000J0D01*
G01*
X15310000Y-59180000D02*
G75*
G02*
X18050000Y-59180000I1370000J0D01*
G01*
%TO.C,R27*%
X41090000Y-49020000D02*
X43700000Y-49020000D01*
X41090000Y-49020000D02*
G75*
G02*
X38350000Y-49020000I-1370000J0D01*
G01*
X38350000Y-49020000D02*
G75*
G02*
X41090000Y-49020000I1370000J0D01*
G01*
%TO.C,R7*%
X48770000Y-16000000D02*
X51380000Y-16000000D01*
X48770000Y-16000000D02*
G75*
G02*
X46030000Y-16000000I-1370000J0D01*
G01*
X46030000Y-16000000D02*
G75*
G02*
X48770000Y-16000000I1370000J0D01*
G01*
%TO.C,R46*%
X10370000Y-88390000D02*
X12980000Y-88390000D01*
X10370000Y-88390000D02*
G75*
G02*
X7630000Y-88390000I-1370000J0D01*
G01*
X7630000Y-88390000D02*
G75*
G02*
X10370000Y-88390000I1370000J0D01*
G01*
%TO.C,R11*%
X33410000Y-24255000D02*
X36020000Y-24255000D01*
X33410000Y-24255000D02*
G75*
G02*
X30670000Y-24255000I-1370000J0D01*
G01*
X30670000Y-24255000D02*
G75*
G02*
X33410000Y-24255000I1370000J0D01*
G01*
%TO.C,Q57*%
X82740000Y-37850000D02*
X86340000Y-37850000D01*
X82183600Y-34901193D02*
G75*
G02*
X84540000Y-33400000I2356400J-1098807D01*
G01*
X82740000Y-37850000D02*
G75*
G02*
X82215816Y-37122795I1800000J1850000D01*
G01*
X84540000Y-33400000D02*
G75*
G02*
X86896400Y-34901193I0J-2600000D01*
G01*
X86864184Y-37122795D02*
G75*
G02*
X86340000Y-37850000I-2324184J1122795D01*
G01*
%TO.C,R34*%
X48770000Y-62355000D02*
X51380000Y-62355000D01*
X48770000Y-62355000D02*
G75*
G02*
X46030000Y-62355000I-1370000J0D01*
G01*
X46030000Y-62355000D02*
G75*
G02*
X48770000Y-62355000I1370000J0D01*
G01*
%TO.C,R45*%
X48770000Y-86485000D02*
X51380000Y-86485000D01*
X48770000Y-86485000D02*
G75*
G02*
X46030000Y-86485000I-1370000J0D01*
G01*
X46030000Y-86485000D02*
G75*
G02*
X48770000Y-86485000I1370000J0D01*
G01*
%TO.C,R4*%
X25730000Y-16000000D02*
X28340000Y-16000000D01*
X25730000Y-16000000D02*
G75*
G02*
X22990000Y-16000000I-1370000J0D01*
G01*
X22990000Y-16000000D02*
G75*
G02*
X25730000Y-16000000I1370000J0D01*
G01*
%TO.C,Q28*%
X51740000Y-42725000D02*
X48140000Y-42725000D01*
X47615816Y-43452205D02*
G75*
G02*
X48140000Y-42725000I2324184J-1122795D01*
G01*
X49940000Y-47175000D02*
G75*
G02*
X47583600Y-45673807I0J2600000D01*
G01*
X51740000Y-42725000D02*
G75*
G02*
X52264184Y-43452205I-1800000J-1850000D01*
G01*
X52296400Y-45673807D02*
G75*
G02*
X49940000Y-47175000I-2356400J1098807D01*
G01*
%TO.C,Q45*%
X51740000Y-69395000D02*
X48140000Y-69395000D01*
X47615816Y-70122205D02*
G75*
G02*
X48140000Y-69395000I2324184J-1122795D01*
G01*
X49940000Y-73845000D02*
G75*
G02*
X47583600Y-72343807I0J2600000D01*
G01*
X51740000Y-69395000D02*
G75*
G02*
X52264184Y-70122205I-1800000J-1850000D01*
G01*
X52296400Y-72343807D02*
G75*
G02*
X49940000Y-73845000I-2356400J1098807D01*
G01*
%TO.C,Q18*%
X51740000Y-34470000D02*
X48140000Y-34470000D01*
X47615816Y-35197205D02*
G75*
G02*
X48140000Y-34470000I2324184J-1122795D01*
G01*
X49940000Y-38920000D02*
G75*
G02*
X47583600Y-37418807I0J2600000D01*
G01*
X51740000Y-34470000D02*
G75*
G02*
X52264184Y-35197205I-1800000J-1850000D01*
G01*
X52296400Y-37418807D02*
G75*
G02*
X49940000Y-38920000I-2356400J1098807D01*
G01*
%TO.C,Q32*%
X51740000Y-50980000D02*
X48140000Y-50980000D01*
X47615816Y-51707205D02*
G75*
G02*
X48140000Y-50980000I2324184J-1122795D01*
G01*
X49940000Y-55430000D02*
G75*
G02*
X47583600Y-53928807I0J2600000D01*
G01*
X51740000Y-50980000D02*
G75*
G02*
X52264184Y-51707205I-1800000J-1850000D01*
G01*
X52296400Y-53928807D02*
G75*
G02*
X49940000Y-55430000I-2356400J1098807D01*
G01*
%TO.C,Q40*%
X40460000Y-73730000D02*
X44060000Y-73730000D01*
X39903600Y-70781193D02*
G75*
G02*
X42260000Y-69280000I2356400J-1098807D01*
G01*
X40460000Y-73730000D02*
G75*
G02*
X39935816Y-73002795I1800000J1850000D01*
G01*
X42260000Y-69280000D02*
G75*
G02*
X44616400Y-70781193I0J-2600000D01*
G01*
X44584184Y-73002795D02*
G75*
G02*
X44060000Y-73730000I-2324184J1122795D01*
G01*
%TO.C,Q22*%
X21020000Y-42725000D02*
X17420000Y-42725000D01*
X16895816Y-43452205D02*
G75*
G02*
X17420000Y-42725000I2324184J-1122795D01*
G01*
X19220000Y-47175000D02*
G75*
G02*
X16863600Y-45673807I0J2600000D01*
G01*
X21020000Y-42725000D02*
G75*
G02*
X21544184Y-43452205I-1800000J-1850000D01*
G01*
X21576400Y-45673807D02*
G75*
G02*
X19220000Y-47175000I-2356400J1098807D01*
G01*
%TO.C,Q3*%
X25100000Y-22295000D02*
X28700000Y-22295000D01*
X24543600Y-19346193D02*
G75*
G02*
X26900000Y-17845000I2356400J-1098807D01*
G01*
X25100000Y-22295000D02*
G75*
G02*
X24575816Y-21567795I1800000J1850000D01*
G01*
X26900000Y-17845000D02*
G75*
G02*
X29256400Y-19346193I0J-2600000D01*
G01*
X29224184Y-21567795D02*
G75*
G02*
X28700000Y-22295000I-2324184J1122795D01*
G01*
%TO.C,Q49*%
X25100000Y-78810000D02*
X28700000Y-78810000D01*
X24543600Y-75861193D02*
G75*
G02*
X26900000Y-74360000I2356400J-1098807D01*
G01*
X25100000Y-78810000D02*
G75*
G02*
X24575816Y-78082795I1800000J1850000D01*
G01*
X26900000Y-74360000D02*
G75*
G02*
X29256400Y-75861193I0J-2600000D01*
G01*
X29224184Y-78082795D02*
G75*
G02*
X28700000Y-78810000I-2324184J1122795D01*
G01*
%TO.C,Q52*%
X21020000Y-74475000D02*
X17420000Y-74475000D01*
X16895816Y-75202205D02*
G75*
G02*
X17420000Y-74475000I2324184J-1122795D01*
G01*
X19220000Y-78925000D02*
G75*
G02*
X16863600Y-77423807I0J2600000D01*
G01*
X21020000Y-74475000D02*
G75*
G02*
X21544184Y-75202205I-1800000J-1850000D01*
G01*
X21576400Y-77423807D02*
G75*
G02*
X19220000Y-78925000I-2356400J1098807D01*
G01*
%TO.C,Q48*%
X25100000Y-73730000D02*
X28700000Y-73730000D01*
X24543600Y-70781193D02*
G75*
G02*
X26900000Y-69280000I2356400J-1098807D01*
G01*
X25100000Y-73730000D02*
G75*
G02*
X24575816Y-73002795I1800000J1850000D01*
G01*
X26900000Y-69280000D02*
G75*
G02*
X29256400Y-70781193I0J-2600000D01*
G01*
X29224184Y-73002795D02*
G75*
G02*
X28700000Y-73730000I-2324184J1122795D01*
G01*
%TO.C,R12*%
X41090000Y-24255000D02*
X43700000Y-24255000D01*
X41090000Y-24255000D02*
G75*
G02*
X38350000Y-24255000I-1370000J0D01*
G01*
X38350000Y-24255000D02*
G75*
G02*
X41090000Y-24255000I1370000J0D01*
G01*
%TO.C,TP13*%
X79500000Y-88000000D02*
G75*
G02*
X76500000Y-88000000I-1500000J0D01*
G01*
X76500000Y-88000000D02*
G75*
G02*
X79500000Y-88000000I1500000J0D01*
G01*
%TO.C,D1*%
X33344000Y-85505000D02*
X33500000Y-85505000D01*
X35660000Y-85505000D02*
X35816000Y-85505000D01*
X33344484Y-85505000D02*
G75*
G02*
X33500000Y-82273563I1235516J1560000D01*
G01*
X33500000Y-84985961D02*
G75*
G02*
X33500000Y-82904039I1080000J1040961D01*
G01*
X35660000Y-82273563D02*
G75*
G02*
X35815516Y-85505000I-1080000J-1671437D01*
G01*
X35660000Y-82904039D02*
G75*
G02*
X35660000Y-84985961I-1080000J-1040961D01*
G01*
%TD*%
M02*
