%TF.GenerationSoftware,KiCad,Pcbnew,10.0.5*%
%TF.CreationDate,2026-09-09T16:21:40-04:00*%
%TF.ProjectId,alu,616c752e-6b69-4636-9164-5f7063625858,rev?*%
%TF.SameCoordinates,Original*%
%TF.FileFunction,Soldermask,Top*%
%TF.FilePolarity,Negative*%
%FSLAX46Y46*%
G04 Gerber Fmt 4.6, Leading zero omitted, Abs format (unit mm)*
G04 Created by KiCad (PCBNEW 10.0.5) date 2026-09-09 16:21:40*
%MOMM*%
%LPD*%
G01*
G04 APERTURE LIST*
G04 Aperture macros list*
%AMRoundRect*
0 Rectangle with rounded corners*
0 $1 Rounding radius*
0 $2 $3 $4 $5 $6 $7 $8 $9 X,Y pos of 4 corners*
0 Add a 4 corners polygon primitive as box body*
4,1,4,$2,$3,$4,$5,$6,$7,$8,$9,$2,$3,0*
0 Add four circle primitives for the rounded corners*
1,1,$1+$1,$2,$3*
1,1,$1+$1,$4,$5*
1,1,$1+$1,$6,$7*
1,1,$1+$1,$8,$9*
0 Add four rect primitives between the rounded corners*
20,1,$1+$1,$2,$3,$4,$5,0*
20,1,$1+$1,$4,$5,$6,$7,0*
20,1,$1+$1,$6,$7,$8,$9,0*
20,1,$1+$1,$8,$9,$2,$3,0*%
G04 Aperture macros list end*
%ADD10R,1.800000X1.800000*%
%ADD11C,1.800000*%
%ADD12R,1.500000X1.500000*%
%ADD13C,1.500000*%
%ADD14C,1.600000*%
%ADD15RoundRect,0.250000X0.600000X-0.600000X0.600000X0.600000X-0.600000X0.600000X-0.600000X-0.600000X0*%
%ADD16C,1.700000*%
%ADD17C,6.400000*%
%ADD18RoundRect,0.250000X-0.550000X0.550000X-0.550000X-0.550000X0.550000X-0.550000X0.550000X0.550000X0*%
G04 APERTURE END LIST*
D10*
%TO.C,D1*%
X98170000Y-184560000D03*
D11*
X100710000Y-184560000D03*
%TD*%
D12*
%TO.C,Q85*%
X58800000Y-133760000D03*
D13*
X61340000Y-133760000D03*
X63880000Y-133760000D03*
%TD*%
D12*
%TO.C,Q51*%
X46100000Y-88040000D03*
D13*
X48640000Y-88040000D03*
X51180000Y-88040000D03*
%TD*%
D12*
%TO.C,Q128*%
X58800000Y-179480000D03*
D13*
X61340000Y-179480000D03*
X63880000Y-179480000D03*
%TD*%
D14*
%TO.C,R15*%
X124840000Y-42320000D03*
X124840000Y-47400000D03*
%TD*%
%TO.C,R32*%
X112140000Y-72800000D03*
X112140000Y-77880000D03*
%TD*%
D12*
%TO.C,Q53*%
X58800000Y-88040000D03*
D13*
X61340000Y-88040000D03*
X63880000Y-88040000D03*
%TD*%
D14*
%TO.C,R75*%
X48640000Y-179480000D03*
X48640000Y-184560000D03*
%TD*%
%TO.C,R45*%
X74040000Y-108360000D03*
X74040000Y-113440000D03*
%TD*%
D12*
%TO.C,Q111*%
X122300000Y-154080000D03*
D13*
X124840000Y-154080000D03*
X127380000Y-154080000D03*
%TD*%
D12*
%TO.C,Q67*%
X96900000Y-108360000D03*
D13*
X99440000Y-108360000D03*
X101980000Y-108360000D03*
%TD*%
D12*
%TO.C,Q113*%
X33400000Y-164240000D03*
D13*
X35940000Y-164240000D03*
X38480000Y-164240000D03*
%TD*%
D12*
%TO.C,Q81*%
X8000000Y-123600000D03*
D13*
X10540000Y-123600000D03*
X13080000Y-123600000D03*
%TD*%
D14*
%TO.C,R18*%
X61340000Y-47400000D03*
X61340000Y-52480000D03*
%TD*%
%TO.C,R69*%
X124840000Y-164240000D03*
X124840000Y-169320000D03*
%TD*%
D12*
%TO.C,Q86*%
X84200000Y-128680000D03*
D13*
X86740000Y-128680000D03*
X89280000Y-128680000D03*
%TD*%
D14*
%TO.C,R7*%
X86740000Y-22000000D03*
X86740000Y-27080000D03*
%TD*%
D12*
%TO.C,Q74*%
X58800000Y-108360000D03*
D13*
X61340000Y-108360000D03*
X63880000Y-108360000D03*
%TD*%
D14*
%TO.C,R4*%
X48640000Y-22000000D03*
X48640000Y-27080000D03*
%TD*%
%TO.C,R34*%
X10540000Y-88040000D03*
X10540000Y-93120000D03*
%TD*%
%TO.C,R40*%
X35940000Y-98200000D03*
X35940000Y-103280000D03*
%TD*%
%TO.C,R54*%
X112140000Y-123600000D03*
X112140000Y-128680000D03*
%TD*%
D12*
%TO.C,Q124*%
X122300000Y-174400000D03*
D13*
X124840000Y-174400000D03*
X127380000Y-174400000D03*
%TD*%
D12*
%TO.C,Q22*%
X20700000Y-57560000D03*
D13*
X23240000Y-57560000D03*
X25780000Y-57560000D03*
%TD*%
D14*
%TO.C,R53*%
X48640000Y-123600000D03*
X48640000Y-128680000D03*
%TD*%
%TO.C,R17*%
X48640000Y-47400000D03*
X48640000Y-52480000D03*
%TD*%
D12*
%TO.C,Q68*%
X122300000Y-103280000D03*
D13*
X124840000Y-103280000D03*
X127380000Y-103280000D03*
%TD*%
D12*
%TO.C,Q48*%
X33400000Y-82960000D03*
D13*
X35940000Y-82960000D03*
X38480000Y-82960000D03*
%TD*%
D12*
%TO.C,Q122*%
X71500000Y-174400000D03*
D13*
X74040000Y-174400000D03*
X76580000Y-174400000D03*
%TD*%
D12*
%TO.C,Q52*%
X58800000Y-82960000D03*
D13*
X61340000Y-82960000D03*
X63880000Y-82960000D03*
%TD*%
D14*
%TO.C,R50*%
X99440000Y-118520000D03*
X99440000Y-123600000D03*
%TD*%
D10*
%TO.C,D2*%
X110870000Y-184560000D03*
D11*
X113410000Y-184560000D03*
%TD*%
D12*
%TO.C,Q7*%
X58800000Y-32160000D03*
D13*
X61340000Y-32160000D03*
X63880000Y-32160000D03*
%TD*%
D14*
%TO.C,R42*%
X61340000Y-98200000D03*
X61340000Y-103280000D03*
%TD*%
D12*
%TO.C,Q114*%
X33400000Y-169320000D03*
D13*
X35940000Y-169320000D03*
X38480000Y-169320000D03*
%TD*%
D14*
%TO.C,R27*%
X124840000Y-67720000D03*
X124840000Y-72800000D03*
%TD*%
D12*
%TO.C,Q117*%
X109600000Y-164240000D03*
D13*
X112140000Y-164240000D03*
X114680000Y-164240000D03*
%TD*%
D12*
%TO.C,Q12*%
X96900000Y-32160000D03*
D13*
X99440000Y-32160000D03*
X101980000Y-32160000D03*
%TD*%
D14*
%TO.C,R6*%
X74040000Y-22000000D03*
X74040000Y-27080000D03*
%TD*%
D12*
%TO.C,Q133*%
X109600000Y-189640000D03*
D13*
X112140000Y-189640000D03*
X114680000Y-189640000D03*
%TD*%
D14*
%TO.C,R3*%
X35940000Y-22000000D03*
X35940000Y-27080000D03*
%TD*%
%TO.C,R26*%
X99440000Y-67720000D03*
X99440000Y-72800000D03*
%TD*%
%TO.C,R22*%
X137540000Y-47400000D03*
X137540000Y-52480000D03*
%TD*%
%TO.C,R58*%
X23240000Y-143920000D03*
X23240000Y-149000000D03*
%TD*%
D12*
%TO.C,Q65*%
X84200000Y-108360000D03*
D13*
X86740000Y-108360000D03*
X89280000Y-108360000D03*
%TD*%
D12*
%TO.C,Q36*%
X109600000Y-62640000D03*
D13*
X112140000Y-62640000D03*
X114680000Y-62640000D03*
%TD*%
D14*
%TO.C,R64*%
X35940000Y-149000000D03*
X35940000Y-154080000D03*
%TD*%
D12*
%TO.C,Q101*%
X71500000Y-143920000D03*
D13*
X74040000Y-143920000D03*
X76580000Y-143920000D03*
%TD*%
D12*
%TO.C,Q137*%
X33400000Y-199800000D03*
D13*
X35940000Y-199800000D03*
X38480000Y-199800000D03*
%TD*%
D14*
%TO.C,R36*%
X23240000Y-93120000D03*
X23240000Y-98200000D03*
%TD*%
%TO.C,R16*%
X35940000Y-47400000D03*
X35940000Y-52480000D03*
%TD*%
D12*
%TO.C,Q6*%
X46100000Y-37240000D03*
D13*
X48640000Y-37240000D03*
X51180000Y-37240000D03*
%TD*%
D12*
%TO.C,Q70*%
X33400000Y-108360000D03*
D13*
X35940000Y-108360000D03*
X38480000Y-108360000D03*
%TD*%
D14*
%TO.C,R72*%
X86740000Y-169320000D03*
X86740000Y-174400000D03*
%TD*%
D12*
%TO.C,Q37*%
X135000000Y-57560000D03*
D13*
X137540000Y-57560000D03*
X140080000Y-57560000D03*
%TD*%
D14*
%TO.C,R37*%
X86740000Y-93120000D03*
X86740000Y-98200000D03*
%TD*%
D12*
%TO.C,Q112*%
X33400000Y-159160000D03*
D13*
X35940000Y-159160000D03*
X38480000Y-159160000D03*
%TD*%
D12*
%TO.C,Q77*%
X135000000Y-108360000D03*
D13*
X137540000Y-108360000D03*
X140080000Y-108360000D03*
%TD*%
D14*
%TO.C,R25*%
X23240000Y-67720000D03*
X23240000Y-72800000D03*
%TD*%
D12*
%TO.C,Q61*%
X71500000Y-98200000D03*
D13*
X74040000Y-98200000D03*
X76580000Y-98200000D03*
%TD*%
D12*
%TO.C,Q21*%
X20700000Y-52480000D03*
D13*
X23240000Y-52480000D03*
X25780000Y-52480000D03*
%TD*%
D12*
%TO.C,Q42*%
X20700000Y-77880000D03*
D13*
X23240000Y-77880000D03*
X25780000Y-77880000D03*
%TD*%
D12*
%TO.C,Q94*%
X46100000Y-133760000D03*
D13*
X48640000Y-133760000D03*
X51180000Y-133760000D03*
%TD*%
D12*
%TO.C,Q18*%
X135000000Y-37240000D03*
D13*
X137540000Y-37240000D03*
X140080000Y-37240000D03*
%TD*%
D12*
%TO.C,Q27*%
X33400000Y-62640000D03*
D13*
X35940000Y-62640000D03*
X38480000Y-62640000D03*
%TD*%
D14*
%TO.C,R71*%
X61340000Y-169320000D03*
X61340000Y-174400000D03*
%TD*%
D12*
%TO.C,Q126*%
X20700000Y-179480000D03*
D13*
X23240000Y-179480000D03*
X25780000Y-179480000D03*
%TD*%
D14*
%TO.C,R28*%
X35940000Y-72800000D03*
X35940000Y-77880000D03*
%TD*%
D12*
%TO.C,Q62*%
X20700000Y-103280000D03*
D13*
X23240000Y-103280000D03*
X25780000Y-103280000D03*
%TD*%
D12*
%TO.C,Q131*%
X135000000Y-171860000D03*
D13*
X137540000Y-171860000D03*
X140080000Y-171860000D03*
%TD*%
D12*
%TO.C,Q121*%
X8000000Y-174400000D03*
D13*
X10540000Y-174400000D03*
X13080000Y-174400000D03*
%TD*%
D12*
%TO.C,Q104*%
X46100000Y-154080000D03*
D13*
X48640000Y-154080000D03*
X51180000Y-154080000D03*
%TD*%
D15*
%TO.C,J1*%
X26000000Y-8000000D03*
D16*
X26000000Y-5460000D03*
X28540000Y-8000000D03*
X28540000Y-5460000D03*
X31080000Y-8000000D03*
X31080000Y-5460000D03*
X33620000Y-8000000D03*
X33620000Y-5460000D03*
X36160000Y-8000000D03*
X36160000Y-5460000D03*
X38700000Y-8000000D03*
X38700000Y-5460000D03*
X41240000Y-8000000D03*
X41240000Y-5460000D03*
X43780000Y-8000000D03*
X43780000Y-5460000D03*
X46320000Y-8000000D03*
X46320000Y-5460000D03*
X48860000Y-8000000D03*
X48860000Y-5460000D03*
X51400000Y-8000000D03*
X51400000Y-5460000D03*
X53940000Y-8000000D03*
X53940000Y-5460000D03*
X56480000Y-8000000D03*
X56480000Y-5460000D03*
X59020000Y-8000000D03*
X59020000Y-5460000D03*
X61560000Y-8000000D03*
X61560000Y-5460000D03*
X64100000Y-8000000D03*
X64100000Y-5460000D03*
X66640000Y-8000000D03*
X66640000Y-5460000D03*
X69180000Y-8000000D03*
X69180000Y-5460000D03*
X71720000Y-8000000D03*
X71720000Y-5460000D03*
X74260000Y-8000000D03*
X74260000Y-5460000D03*
X76800000Y-8000000D03*
X76800000Y-5460000D03*
X79340000Y-8000000D03*
X79340000Y-5460000D03*
X81880000Y-8000000D03*
X81880000Y-5460000D03*
X84420000Y-8000000D03*
X84420000Y-5460000D03*
X86960000Y-8000000D03*
X86960000Y-5460000D03*
%TD*%
D14*
%TO.C,R49*%
X86740000Y-118520000D03*
X86740000Y-123600000D03*
%TD*%
D12*
%TO.C,Q97*%
X135000000Y-133760000D03*
D13*
X137540000Y-133760000D03*
X140080000Y-133760000D03*
%TD*%
D12*
%TO.C,Q43*%
X20700000Y-82960000D03*
D13*
X23240000Y-82960000D03*
X25780000Y-82960000D03*
%TD*%
D14*
%TO.C,R24*%
X10540000Y-67720000D03*
X10540000Y-72800000D03*
%TD*%
%TO.C,R62*%
X99440000Y-143920000D03*
X99440000Y-149000000D03*
%TD*%
D12*
%TO.C,Q55*%
X109600000Y-82960000D03*
D13*
X112140000Y-82960000D03*
X114680000Y-82960000D03*
%TD*%
D12*
%TO.C,Q4*%
X33400000Y-37240000D03*
D13*
X35940000Y-37240000D03*
X38480000Y-37240000D03*
%TD*%
D12*
%TO.C,Q63*%
X20700000Y-108360000D03*
D13*
X23240000Y-108360000D03*
X25780000Y-108360000D03*
%TD*%
D14*
%TO.C,R46*%
X10540000Y-113440000D03*
X10540000Y-118520000D03*
%TD*%
D12*
%TO.C,Q25*%
X122300000Y-57560000D03*
D13*
X124840000Y-57560000D03*
X127380000Y-57560000D03*
%TD*%
D12*
%TO.C,Q90*%
X122300000Y-128680000D03*
D13*
X124840000Y-128680000D03*
X127380000Y-128680000D03*
%TD*%
D14*
%TO.C,R13*%
X23240000Y-42320000D03*
X23240000Y-47400000D03*
%TD*%
%TO.C,R65*%
X112140000Y-149000000D03*
X112140000Y-154080000D03*
%TD*%
%TO.C,R8*%
X99440000Y-22000000D03*
X99440000Y-27080000D03*
%TD*%
D12*
%TO.C,Q103*%
X20700000Y-159160000D03*
D13*
X23240000Y-159160000D03*
X25780000Y-159160000D03*
%TD*%
D12*
%TO.C,Q106*%
X58800000Y-154080000D03*
D13*
X61340000Y-154080000D03*
X63880000Y-154080000D03*
%TD*%
D12*
%TO.C,Q50*%
X46100000Y-82960000D03*
D13*
X48640000Y-82960000D03*
X51180000Y-82960000D03*
%TD*%
D14*
%TO.C,R59*%
X48640000Y-143920000D03*
X48640000Y-149000000D03*
%TD*%
D12*
%TO.C,Q40*%
X71500000Y-77880000D03*
D13*
X74040000Y-77880000D03*
X76580000Y-77880000D03*
%TD*%
D14*
%TO.C,R31*%
X86740000Y-72800000D03*
X86740000Y-77880000D03*
%TD*%
D12*
%TO.C,Q79*%
X71500000Y-118520000D03*
D13*
X74040000Y-118520000D03*
X76580000Y-118520000D03*
%TD*%
D12*
%TO.C,Q56*%
X109600000Y-88040000D03*
D13*
X112140000Y-88040000D03*
X114680000Y-88040000D03*
%TD*%
D14*
%TO.C,R68*%
X74040000Y-164240000D03*
X74040000Y-169320000D03*
%TD*%
D12*
%TO.C,Q44*%
X96900000Y-77880000D03*
D13*
X99440000Y-77880000D03*
X101980000Y-77880000D03*
%TD*%
D12*
%TO.C,Q72*%
X46100000Y-108360000D03*
D13*
X48640000Y-108360000D03*
X51180000Y-108360000D03*
%TD*%
D12*
%TO.C,Q2*%
X20700000Y-32160000D03*
D13*
X23240000Y-32160000D03*
X25780000Y-32160000D03*
%TD*%
D14*
%TO.C,R39*%
X124840000Y-93120000D03*
X124840000Y-98200000D03*
%TD*%
%TO.C,R70*%
X23240000Y-169320000D03*
X23240000Y-174400000D03*
%TD*%
%TO.C,R76*%
X137540000Y-179480000D03*
X137540000Y-184560000D03*
%TD*%
D12*
%TO.C,Q47*%
X122300000Y-82960000D03*
D13*
X124840000Y-82960000D03*
X127380000Y-82960000D03*
%TD*%
D12*
%TO.C,Q33*%
X84200000Y-62640000D03*
D13*
X86740000Y-62640000D03*
X89280000Y-62640000D03*
%TD*%
D14*
%TO.C,R47*%
X23240000Y-118520000D03*
X23240000Y-123600000D03*
%TD*%
%TO.C,R52*%
X35940000Y-123600000D03*
X35940000Y-128680000D03*
%TD*%
D12*
%TO.C,Q95*%
X109600000Y-133760000D03*
D13*
X112140000Y-133760000D03*
X114680000Y-133760000D03*
%TD*%
D14*
%TO.C,R35*%
X74040000Y-88040000D03*
X74040000Y-93120000D03*
%TD*%
D12*
%TO.C,Q11*%
X84200000Y-37240000D03*
D13*
X86740000Y-37240000D03*
X89280000Y-37240000D03*
%TD*%
D14*
%TO.C,R66*%
X137540000Y-149000000D03*
X137540000Y-154080000D03*
%TD*%
D10*
%TO.C,D3*%
X47370000Y-189640000D03*
D11*
X49910000Y-189640000D03*
%TD*%
D12*
%TO.C,Q20*%
X8000000Y-57560000D03*
D13*
X10540000Y-57560000D03*
X13080000Y-57560000D03*
%TD*%
D14*
%TO.C,R29*%
X48640000Y-72800000D03*
X48640000Y-77880000D03*
%TD*%
D12*
%TO.C,Q15*%
X109600000Y-37240000D03*
D13*
X112140000Y-37240000D03*
X114680000Y-37240000D03*
%TD*%
D12*
%TO.C,Q84*%
X58800000Y-128680000D03*
D13*
X61340000Y-128680000D03*
X63880000Y-128680000D03*
%TD*%
D12*
%TO.C,Q41*%
X8000000Y-77880000D03*
D13*
X10540000Y-77880000D03*
X13080000Y-77880000D03*
%TD*%
D12*
%TO.C,Q83*%
X20700000Y-133760000D03*
D13*
X23240000Y-133760000D03*
X25780000Y-133760000D03*
%TD*%
D14*
%TO.C,R60*%
X61340000Y-143920000D03*
X61340000Y-149000000D03*
%TD*%
D12*
%TO.C,Q31*%
X58800000Y-62640000D03*
D13*
X61340000Y-62640000D03*
X63880000Y-62640000D03*
%TD*%
D12*
%TO.C,Q30*%
X58800000Y-57560000D03*
D13*
X61340000Y-57560000D03*
X63880000Y-57560000D03*
%TD*%
D14*
%TO.C,R43*%
X112140000Y-98200000D03*
X112140000Y-103280000D03*
%TD*%
%TO.C,R12*%
X10540000Y-42320000D03*
X10540000Y-47400000D03*
%TD*%
D12*
%TO.C,Q119*%
X71500000Y-156620000D03*
D13*
X74040000Y-156620000D03*
X76580000Y-156620000D03*
%TD*%
D12*
%TO.C,Q8*%
X58800000Y-37240000D03*
D13*
X61340000Y-37240000D03*
X63880000Y-37240000D03*
%TD*%
D14*
%TO.C,R44*%
X137540000Y-98200000D03*
X137540000Y-103280000D03*
%TD*%
D12*
%TO.C,Q60*%
X8000000Y-103280000D03*
D13*
X10540000Y-103280000D03*
X13080000Y-103280000D03*
%TD*%
D12*
%TO.C,Q39*%
X71500000Y-72800000D03*
D13*
X74040000Y-72800000D03*
X76580000Y-72800000D03*
%TD*%
D12*
%TO.C,Q13*%
X96900000Y-37240000D03*
D13*
X99440000Y-37240000D03*
X101980000Y-37240000D03*
%TD*%
D12*
%TO.C,Q38*%
X135000000Y-62640000D03*
D13*
X137540000Y-62640000D03*
X140080000Y-62640000D03*
%TD*%
D17*
%TO.C,H2*%
X152000000Y-4000000D03*
%TD*%
D12*
%TO.C,Q125*%
X122300000Y-179480000D03*
D13*
X124840000Y-179480000D03*
X127380000Y-179480000D03*
%TD*%
D12*
%TO.C,Q5*%
X46100000Y-32160000D03*
D13*
X48640000Y-32160000D03*
X51180000Y-32160000D03*
%TD*%
D12*
%TO.C,Q91*%
X122300000Y-133760000D03*
D13*
X124840000Y-133760000D03*
X127380000Y-133760000D03*
%TD*%
D14*
%TO.C,R21*%
X112140000Y-47400000D03*
X112140000Y-52480000D03*
%TD*%
%TO.C,R10*%
X124840000Y-22000000D03*
X124840000Y-27080000D03*
%TD*%
D12*
%TO.C,Q57*%
X135000000Y-82960000D03*
D13*
X137540000Y-82960000D03*
X140080000Y-82960000D03*
%TD*%
D12*
%TO.C,Q102*%
X20700000Y-154080000D03*
D13*
X23240000Y-154080000D03*
X25780000Y-154080000D03*
%TD*%
D12*
%TO.C,Q118*%
X135000000Y-159160000D03*
D13*
X137540000Y-159160000D03*
X140080000Y-159160000D03*
%TD*%
D12*
%TO.C,Q99*%
X8000000Y-143920000D03*
D13*
X10540000Y-143920000D03*
X13080000Y-143920000D03*
%TD*%
D12*
%TO.C,Q108*%
X84200000Y-154080000D03*
D13*
X86740000Y-154080000D03*
X89280000Y-154080000D03*
%TD*%
D12*
%TO.C,Q75*%
X109600000Y-108360000D03*
D13*
X112140000Y-108360000D03*
X114680000Y-108360000D03*
%TD*%
D12*
%TO.C,Q24*%
X122300000Y-52480000D03*
D13*
X124840000Y-52480000D03*
X127380000Y-52480000D03*
%TD*%
D17*
%TO.C,H1*%
X4000000Y-4000000D03*
%TD*%
D14*
%TO.C,R14*%
X74040000Y-42320000D03*
X74040000Y-47400000D03*
%TD*%
%TO.C,R55*%
X137540000Y-123600000D03*
X137540000Y-128680000D03*
%TD*%
D12*
%TO.C,Q98*%
X135000000Y-138840000D03*
D13*
X137540000Y-138840000D03*
X140080000Y-138840000D03*
%TD*%
D12*
%TO.C,Q29*%
X46100000Y-62640000D03*
D13*
X48640000Y-62640000D03*
X51180000Y-62640000D03*
%TD*%
D14*
%TO.C,R30*%
X61340000Y-72800000D03*
X61340000Y-77880000D03*
%TD*%
D12*
%TO.C,Q82*%
X20700000Y-128680000D03*
D13*
X23240000Y-128680000D03*
X25780000Y-128680000D03*
%TD*%
D12*
%TO.C,Q134*%
X46100000Y-194720000D03*
D13*
X48640000Y-194720000D03*
X51180000Y-194720000D03*
%TD*%
D12*
%TO.C,Q110*%
X96900000Y-154080000D03*
D13*
X99440000Y-154080000D03*
X101980000Y-154080000D03*
%TD*%
D14*
%TO.C,R9*%
X112140000Y-22000000D03*
X112140000Y-27080000D03*
%TD*%
%TO.C,R61*%
X86740000Y-143920000D03*
X86740000Y-149000000D03*
%TD*%
%TO.C,R77*%
X10540000Y-184560000D03*
X10540000Y-189640000D03*
%TD*%
D12*
%TO.C,Q73*%
X46100000Y-113440000D03*
D13*
X48640000Y-113440000D03*
X51180000Y-113440000D03*
%TD*%
D12*
%TO.C,Q115*%
X33400000Y-174400000D03*
D13*
X35940000Y-174400000D03*
X38480000Y-174400000D03*
%TD*%
D12*
%TO.C,Q136*%
X8000000Y-199800000D03*
D13*
X10540000Y-199800000D03*
X13080000Y-199800000D03*
%TD*%
D12*
%TO.C,Q9*%
X71500000Y-32160000D03*
D13*
X74040000Y-32160000D03*
X76580000Y-32160000D03*
%TD*%
D12*
%TO.C,Q123*%
X96900000Y-166780000D03*
D13*
X99440000Y-166780000D03*
X101980000Y-166780000D03*
%TD*%
D12*
%TO.C,Q78*%
X135000000Y-113440000D03*
D13*
X137540000Y-113440000D03*
X140080000Y-113440000D03*
%TD*%
D12*
%TO.C,Q58*%
X135000000Y-88040000D03*
D13*
X137540000Y-88040000D03*
X140080000Y-88040000D03*
%TD*%
D14*
%TO.C,R23*%
X74040000Y-62640000D03*
X74040000Y-67720000D03*
%TD*%
D10*
%TO.C,D5*%
X9270000Y-194720000D03*
D11*
X11810000Y-194720000D03*
%TD*%
D14*
%TO.C,R33*%
X137540000Y-72800000D03*
X137540000Y-77880000D03*
%TD*%
D12*
%TO.C,Q59*%
X8000000Y-98200000D03*
D13*
X10540000Y-98200000D03*
X13080000Y-98200000D03*
%TD*%
D12*
%TO.C,Q92*%
X33400000Y-133760000D03*
D13*
X35940000Y-133760000D03*
X38480000Y-133760000D03*
%TD*%
D12*
%TO.C,Q87*%
X84200000Y-133760000D03*
D13*
X86740000Y-133760000D03*
X89280000Y-133760000D03*
%TD*%
D12*
%TO.C,Q109*%
X84200000Y-159160000D03*
D13*
X86740000Y-159160000D03*
X89280000Y-159160000D03*
%TD*%
D17*
%TO.C,H3*%
X4000000Y-209960000D03*
%TD*%
D12*
%TO.C,Q17*%
X135000000Y-32160000D03*
D13*
X137540000Y-32160000D03*
X140080000Y-32160000D03*
%TD*%
D12*
%TO.C,Q132*%
X96900000Y-189640000D03*
D13*
X99440000Y-189640000D03*
X101980000Y-189640000D03*
%TD*%
D12*
%TO.C,Q80*%
X71500000Y-123600000D03*
D13*
X74040000Y-123600000D03*
X76580000Y-123600000D03*
%TD*%
D12*
%TO.C,Q54*%
X84200000Y-82960000D03*
D13*
X86740000Y-82960000D03*
X89280000Y-82960000D03*
%TD*%
D12*
%TO.C,Q89*%
X96900000Y-133760000D03*
D13*
X99440000Y-133760000D03*
X101980000Y-133760000D03*
%TD*%
D12*
%TO.C,Q26*%
X33400000Y-57560000D03*
D13*
X35940000Y-57560000D03*
X38480000Y-57560000D03*
%TD*%
D12*
%TO.C,Q46*%
X122300000Y-77880000D03*
D13*
X124840000Y-77880000D03*
X127380000Y-77880000D03*
%TD*%
D12*
%TO.C,Q100*%
X8000000Y-149000000D03*
D13*
X10540000Y-149000000D03*
X13080000Y-149000000D03*
%TD*%
D10*
%TO.C,D4*%
X136270000Y-189640000D03*
D11*
X138810000Y-189640000D03*
%TD*%
D14*
%TO.C,R73*%
X99440000Y-174400000D03*
X99440000Y-179480000D03*
%TD*%
D12*
%TO.C,Q69*%
X122300000Y-108360000D03*
D13*
X124840000Y-108360000D03*
X127380000Y-108360000D03*
%TD*%
D18*
%TO.C,C2*%
X116000000Y-6000000D03*
D14*
X116000000Y-8000000D03*
%TD*%
%TO.C,R5*%
X61340000Y-22000000D03*
X61340000Y-27080000D03*
%TD*%
D12*
%TO.C,Q32*%
X84200000Y-57560000D03*
D13*
X86740000Y-57560000D03*
X89280000Y-57560000D03*
%TD*%
D14*
%TO.C,R20*%
X99440000Y-47400000D03*
X99440000Y-52480000D03*
%TD*%
D12*
%TO.C,Q28*%
X46100000Y-57560000D03*
D13*
X48640000Y-57560000D03*
X51180000Y-57560000D03*
%TD*%
D10*
%TO.C,D6*%
X34670000Y-194720000D03*
D11*
X37210000Y-194720000D03*
%TD*%
D12*
%TO.C,Q120*%
X8000000Y-169320000D03*
D13*
X10540000Y-169320000D03*
X13080000Y-169320000D03*
%TD*%
D12*
%TO.C,Q76*%
X109600000Y-113440000D03*
D13*
X112140000Y-113440000D03*
X114680000Y-113440000D03*
%TD*%
D12*
%TO.C,Q3*%
X33400000Y-32160000D03*
D13*
X35940000Y-32160000D03*
X38480000Y-32160000D03*
%TD*%
D14*
%TO.C,R51*%
X124840000Y-118520000D03*
X124840000Y-123600000D03*
%TD*%
%TO.C,R1*%
X10540000Y-22000000D03*
X10540000Y-27080000D03*
%TD*%
D12*
%TO.C,Q64*%
X84200000Y-103280000D03*
D13*
X86740000Y-103280000D03*
X89280000Y-103280000D03*
%TD*%
D12*
%TO.C,Q107*%
X58800000Y-159160000D03*
D13*
X61340000Y-159160000D03*
X63880000Y-159160000D03*
%TD*%
D12*
%TO.C,Q16*%
X122300000Y-32160000D03*
D13*
X124840000Y-32160000D03*
X127380000Y-32160000D03*
%TD*%
D17*
%TO.C,H4*%
X152000000Y-209960000D03*
%TD*%
D14*
%TO.C,R38*%
X99440000Y-93120000D03*
X99440000Y-98200000D03*
%TD*%
%TO.C,R11*%
X137540000Y-22000000D03*
X137540000Y-27080000D03*
%TD*%
%TO.C,R57*%
X74040000Y-133760000D03*
X74040000Y-138840000D03*
%TD*%
%TO.C,C1*%
X110000000Y-6000000D03*
X110000000Y-8500000D03*
%TD*%
%TO.C,R63*%
X124840000Y-143920000D03*
X124840000Y-149000000D03*
%TD*%
%TO.C,R74*%
X112140000Y-174400000D03*
X112140000Y-179480000D03*
%TD*%
D12*
%TO.C,Q105*%
X46100000Y-159160000D03*
D13*
X48640000Y-159160000D03*
X51180000Y-159160000D03*
%TD*%
D12*
%TO.C,Q129*%
X58800000Y-184560000D03*
D13*
X61340000Y-184560000D03*
X63880000Y-184560000D03*
%TD*%
D12*
%TO.C,Q19*%
X8000000Y-52480000D03*
D13*
X10540000Y-52480000D03*
X13080000Y-52480000D03*
%TD*%
D12*
%TO.C,Q88*%
X96900000Y-128680000D03*
D13*
X99440000Y-128680000D03*
X101980000Y-128680000D03*
%TD*%
D12*
%TO.C,Q49*%
X33400000Y-88040000D03*
D13*
X35940000Y-88040000D03*
X38480000Y-88040000D03*
%TD*%
D12*
%TO.C,Q10*%
X84200000Y-32160000D03*
D13*
X86740000Y-32160000D03*
X89280000Y-32160000D03*
%TD*%
D14*
%TO.C,R2*%
X23240000Y-22000000D03*
X23240000Y-27080000D03*
%TD*%
%TO.C,R48*%
X61340000Y-118520000D03*
X61340000Y-123600000D03*
%TD*%
%TO.C,R56*%
X10540000Y-133760000D03*
X10540000Y-138840000D03*
%TD*%
D12*
%TO.C,Q71*%
X33400000Y-113440000D03*
D13*
X35940000Y-113440000D03*
X38480000Y-113440000D03*
%TD*%
D12*
%TO.C,Q1*%
X8000000Y-32160000D03*
D13*
X10540000Y-32160000D03*
X13080000Y-32160000D03*
%TD*%
D12*
%TO.C,Q116*%
X109600000Y-159160000D03*
D13*
X112140000Y-159160000D03*
X114680000Y-159160000D03*
%TD*%
D14*
%TO.C,R19*%
X86740000Y-47400000D03*
X86740000Y-52480000D03*
%TD*%
D12*
%TO.C,Q130*%
X84200000Y-179480000D03*
D13*
X86740000Y-179480000D03*
X89280000Y-179480000D03*
%TD*%
D12*
%TO.C,Q135*%
X135000000Y-194720000D03*
D13*
X137540000Y-194720000D03*
X140080000Y-194720000D03*
%TD*%
D12*
%TO.C,Q127*%
X46100000Y-171860000D03*
D13*
X48640000Y-171860000D03*
X51180000Y-171860000D03*
%TD*%
D14*
%TO.C,R41*%
X48640000Y-98200000D03*
X48640000Y-103280000D03*
%TD*%
D12*
%TO.C,Q14*%
X109600000Y-32160000D03*
D13*
X112140000Y-32160000D03*
X114680000Y-32160000D03*
%TD*%
D12*
%TO.C,Q34*%
X96900000Y-57560000D03*
D13*
X99440000Y-57560000D03*
X101980000Y-57560000D03*
%TD*%
D14*
%TO.C,R67*%
X10540000Y-159160000D03*
X10540000Y-164240000D03*
%TD*%
D12*
%TO.C,Q45*%
X96900000Y-82960000D03*
D13*
X99440000Y-82960000D03*
X101980000Y-82960000D03*
%TD*%
D12*
%TO.C,Q93*%
X33400000Y-138840000D03*
D13*
X35940000Y-138840000D03*
X38480000Y-138840000D03*
%TD*%
D12*
%TO.C,Q23*%
X71500000Y-52480000D03*
D13*
X74040000Y-52480000D03*
X76580000Y-52480000D03*
%TD*%
D14*
%TO.C,R78*%
X35940000Y-184560000D03*
X35940000Y-189640000D03*
%TD*%
D12*
%TO.C,Q35*%
X109600000Y-57560000D03*
D13*
X112140000Y-57560000D03*
X114680000Y-57560000D03*
%TD*%
D12*
%TO.C,Q66*%
X96900000Y-103280000D03*
D13*
X99440000Y-103280000D03*
X101980000Y-103280000D03*
%TD*%
D12*
%TO.C,Q96*%
X109600000Y-138840000D03*
D13*
X112140000Y-138840000D03*
X114680000Y-138840000D03*
%TD*%
M02*
