M48
; DRILL file KiCad 10.0.5 date 2026-09-09T16:21:40
; FORMAT={-:-/ absolute / metric / decimal}
; #@! TF.CreationDate,2026-09-09T16:21:40-04:00
; #@! TF.GenerationSoftware,Kicad,Pcbnew,10.0.5
; #@! TF.FileFunction,MixedPlating,1,2
FMAT,2
METRIC
; #@! TA.AperFunction,Plated,PTH,ViaDrill
T1C0.400
; #@! TA.AperFunction,Plated,PTH,ComponentDrill
T2C0.800
; #@! TA.AperFunction,Plated,PTH,ComponentDrill
T3C0.900
; #@! TA.AperFunction,Plated,PTH,ComponentDrill
T4C1.000
; #@! TA.AperFunction,Plated,PTH,ComponentDrill
T5C3.200
%
G90
G05
T1
X6.73Y-16.0
X7.601Y-20.637
X8.117Y-50.469
X8.118Y-19.326
X11.22Y-203.035
X14.35Y-19.0
X15.149Y-201.962
X15.982Y-155.424
X18.138Y-2.577
X19.43Y-16.0
X21.742Y-97.717
X25.885Y-23.776
X25.885Y-111.511
X26.476Y-17.655
X27.05Y-19.0
X27.082Y-11.358
X30.389Y-99.059
X30.389Y-181.322
X30.434Y-183.155
X32.13Y-16.0
X33.323Y-167.642
X33.323Y-198.402
X33.62Y-2.96
X34.343Y-10.91
X34.791Y-172.518
X34.927Y-187.157
X35.712Y-191.54
X38.13Y-79.086
X38.215Y-103.22
X38.688Y-50.742
X38.719Y-2.15
X39.007Y-197.837
X39.75Y-19.0
X41.104Y-69.665
X42.607Y-175.911
X42.631Y-111.278
X42.705Y-14.533
X42.823Y-103.816
X43.77Y-14.845
X44.099Y-11.308
X44.83Y-16.0
X45.23Y-6.91
X45.787Y-165.455
X46.043Y-163.781
X46.46Y-99.059
X46.635Y-162.538
X49.713Y-167.451
X49.749Y-29.925
X50.103Y-69.726
X50.955Y-103.49
X52.45Y-19.0
X55.663Y-194.996
X56.093Y-33.347
X57.53Y-16.0
X58.469Y-51.213
X58.469Y-55.001
X58.501Y-147.816
X58.532Y-48.133
X59.217Y-182.054
X61.354Y-28.759
X61.689Y-14.109
X62.289Y-203.034
X63.245Y-55.977
X63.297Y-54.759
X63.453Y-14.478
X63.494Y-51.2
X63.679Y-181.26
X64.129Y-59.735
X64.129Y-152.143
X65.15Y-19.0
X65.858Y-46.857
X66.217Y-2.744
X70.23Y-16.0
X71.091Y-95.053
X71.134Y-102.321
X71.295Y-155.038
X73.318Y-102.185
X74.074Y-202.804
X76.819Y-55.544
X76.819Y-79.898
X76.819Y-111.957
X76.898Y-91.855
X77.85Y-19.0
X82.93Y-16.0
X86.96Y-2.96
X89.061Y-87.079
X89.259Y-98.655
X90.55Y-19.0
X93.715Y-198.617
X94.048Y-20.021
X94.61Y-182.678
X94.728Y-36.759
X95.63Y-16.0
X97.26Y-147.93
X98.855Y-105.236
X98.911Y-172.022
X101.06Y-107.308
X101.304Y-137.052
X103.25Y-19.0
X105.5Y-196.081
X108.33Y-16.0
X110.0Y-11.0
X110.627Y-76.982
X112.673Y-14.475
X113.41Y-38.546
X115.95Y-19.0
X116.0Y-10.5
X120.014Y-20.359
X121.03Y-16.0
X122.229Y-35.263
X122.229Y-137.808
X123.798Y-83.933
X124.751Y-106.79
X125.142Y-111.278
X127.04Y-20.359
X128.65Y-19.0
X133.73Y-16.0
X136.413Y-17.97
X136.435Y-195.882
X136.926Y-11.358
X141.35Y-19.0
T2
X8.0Y-32.16
X8.0Y-52.48
X8.0Y-57.56
X8.0Y-77.88
X8.0Y-98.2
X8.0Y-103.28
X8.0Y-123.6
X8.0Y-143.92
X8.0Y-149.0
X8.0Y-169.32
X8.0Y-174.4
X8.0Y-199.8
X10.54Y-22.0
X10.54Y-27.08
X10.54Y-32.16
X10.54Y-42.32
X10.54Y-47.4
X10.54Y-52.48
X10.54Y-57.56
X10.54Y-67.72
X10.54Y-72.8
X10.54Y-77.88
X10.54Y-88.04
X10.54Y-93.12
X10.54Y-98.2
X10.54Y-103.28
X10.54Y-113.44
X10.54Y-118.52
X10.54Y-123.6
X10.54Y-133.76
X10.54Y-138.84
X10.54Y-143.92
X10.54Y-149.0
X10.54Y-159.16
X10.54Y-164.24
X10.54Y-169.32
X10.54Y-174.4
X10.54Y-184.56
X10.54Y-189.64
X10.54Y-199.8
X13.08Y-32.16
X13.08Y-52.48
X13.08Y-57.56
X13.08Y-77.88
X13.08Y-98.2
X13.08Y-103.28
X13.08Y-123.6
X13.08Y-143.92
X13.08Y-149.0
X13.08Y-169.32
X13.08Y-174.4
X13.08Y-199.8
X20.7Y-32.16
X20.7Y-52.48
X20.7Y-57.56
X20.7Y-77.88
X20.7Y-82.96
X20.7Y-103.28
X20.7Y-108.36
X20.7Y-128.68
X20.7Y-133.76
X20.7Y-154.08
X20.7Y-159.16
X20.7Y-179.48
X23.24Y-22.0
X23.24Y-27.08
X23.24Y-32.16
X23.24Y-42.32
X23.24Y-47.4
X23.24Y-52.48
X23.24Y-57.56
X23.24Y-67.72
X23.24Y-72.8
X23.24Y-77.88
X23.24Y-82.96
X23.24Y-93.12
X23.24Y-98.2
X23.24Y-103.28
X23.24Y-108.36
X23.24Y-118.52
X23.24Y-123.6
X23.24Y-128.68
X23.24Y-133.76
X23.24Y-143.92
X23.24Y-149.0
X23.24Y-154.08
X23.24Y-159.16
X23.24Y-169.32
X23.24Y-174.4
X23.24Y-179.48
X25.78Y-32.16
X25.78Y-52.48
X25.78Y-57.56
X25.78Y-77.88
X25.78Y-82.96
X25.78Y-103.28
X25.78Y-108.36
X25.78Y-128.68
X25.78Y-133.76
X25.78Y-154.08
X25.78Y-159.16
X25.78Y-179.48
X33.4Y-32.16
X33.4Y-37.24
X33.4Y-57.56
X33.4Y-62.64
X33.4Y-82.96
X33.4Y-88.04
X33.4Y-108.36
X33.4Y-113.44
X33.4Y-133.76
X33.4Y-138.84
X33.4Y-159.16
X33.4Y-164.24
X33.4Y-169.32
X33.4Y-174.4
X33.4Y-199.8
X35.94Y-22.0
X35.94Y-27.08
X35.94Y-32.16
X35.94Y-37.24
X35.94Y-47.4
X35.94Y-52.48
X35.94Y-57.56
X35.94Y-62.64
X35.94Y-72.8
X35.94Y-77.88
X35.94Y-82.96
X35.94Y-88.04
X35.94Y-98.2
X35.94Y-103.28
X35.94Y-108.36
X35.94Y-113.44
X35.94Y-123.6
X35.94Y-128.68
X35.94Y-133.76
X35.94Y-138.84
X35.94Y-149.0
X35.94Y-154.08
X35.94Y-159.16
X35.94Y-164.24
X35.94Y-169.32
X35.94Y-174.4
X35.94Y-184.56
X35.94Y-189.64
X35.94Y-199.8
X38.48Y-32.16
X38.48Y-37.24
X38.48Y-57.56
X38.48Y-62.64
X38.48Y-82.96
X38.48Y-88.04
X38.48Y-108.36
X38.48Y-113.44
X38.48Y-133.76
X38.48Y-138.84
X38.48Y-159.16
X38.48Y-164.24
X38.48Y-169.32
X38.48Y-174.4
X38.48Y-199.8
X46.1Y-32.16
X46.1Y-37.24
X46.1Y-57.56
X46.1Y-62.64
X46.1Y-82.96
X46.1Y-88.04
X46.1Y-108.36
X46.1Y-113.44
X46.1Y-133.76
X46.1Y-154.08
X46.1Y-159.16
X46.1Y-171.86
X46.1Y-194.72
X48.64Y-22.0
X48.64Y-27.08
X48.64Y-32.16
X48.64Y-37.24
X48.64Y-47.4
X48.64Y-52.48
X48.64Y-57.56
X48.64Y-62.64
X48.64Y-72.8
X48.64Y-77.88
X48.64Y-82.96
X48.64Y-88.04
X48.64Y-98.2
X48.64Y-103.28
X48.64Y-108.36
X48.64Y-113.44
X48.64Y-123.6
X48.64Y-128.68
X48.64Y-133.76
X48.64Y-143.92
X48.64Y-149.0
X48.64Y-154.08
X48.64Y-159.16
X48.64Y-171.86
X48.64Y-179.48
X48.64Y-184.56
X48.64Y-194.72
X51.18Y-32.16
X51.18Y-37.24
X51.18Y-57.56
X51.18Y-62.64
X51.18Y-82.96
X51.18Y-88.04
X51.18Y-108.36
X51.18Y-113.44
X51.18Y-133.76
X51.18Y-154.08
X51.18Y-159.16
X51.18Y-171.86
X51.18Y-194.72
X58.8Y-32.16
X58.8Y-37.24
X58.8Y-57.56
X58.8Y-62.64
X58.8Y-82.96
X58.8Y-88.04
X58.8Y-108.36
X58.8Y-128.68
X58.8Y-133.76
X58.8Y-154.08
X58.8Y-159.16
X58.8Y-179.48
X58.8Y-184.56
X61.34Y-22.0
X61.34Y-27.08
X61.34Y-32.16
X61.34Y-37.24
X61.34Y-47.4
X61.34Y-52.48
X61.34Y-57.56
X61.34Y-62.64
X61.34Y-72.8
X61.34Y-77.88
X61.34Y-82.96
X61.34Y-88.04
X61.34Y-98.2
X61.34Y-103.28
X61.34Y-108.36
X61.34Y-118.52
X61.34Y-123.6
X61.34Y-128.68
X61.34Y-133.76
X61.34Y-143.92
X61.34Y-149.0
X61.34Y-154.08
X61.34Y-159.16
X61.34Y-169.32
X61.34Y-174.4
X61.34Y-179.48
X61.34Y-184.56
X63.88Y-32.16
X63.88Y-37.24
X63.88Y-57.56
X63.88Y-62.64
X63.88Y-82.96
X63.88Y-88.04
X63.88Y-108.36
X63.88Y-128.68
X63.88Y-133.76
X63.88Y-154.08
X63.88Y-159.16
X63.88Y-179.48
X63.88Y-184.56
X71.5Y-32.16
X71.5Y-52.48
X71.5Y-72.8
X71.5Y-77.88
X71.5Y-98.2
X71.5Y-118.52
X71.5Y-123.6
X71.5Y-143.92
X71.5Y-156.62
X71.5Y-174.4
X74.04Y-22.0
X74.04Y-27.08
X74.04Y-32.16
X74.04Y-42.32
X74.04Y-47.4
X74.04Y-52.48
X74.04Y-62.64
X74.04Y-67.72
X74.04Y-72.8
X74.04Y-77.88
X74.04Y-88.04
X74.04Y-93.12
X74.04Y-98.2
X74.04Y-108.36
X74.04Y-113.44
X74.04Y-118.52
X74.04Y-123.6
X74.04Y-133.76
X74.04Y-138.84
X74.04Y-143.92
X74.04Y-156.62
X74.04Y-164.24
X74.04Y-169.32
X74.04Y-174.4
X76.58Y-32.16
X76.58Y-52.48
X76.58Y-72.8
X76.58Y-77.88
X76.58Y-98.2
X76.58Y-118.52
X76.58Y-123.6
X76.58Y-143.92
X76.58Y-156.62
X76.58Y-174.4
X84.2Y-32.16
X84.2Y-37.24
X84.2Y-57.56
X84.2Y-62.64
X84.2Y-82.96
X84.2Y-103.28
X84.2Y-108.36
X84.2Y-128.68
X84.2Y-133.76
X84.2Y-154.08
X84.2Y-159.16
X84.2Y-179.48
X86.74Y-22.0
X86.74Y-27.08
X86.74Y-32.16
X86.74Y-37.24
X86.74Y-47.4
X86.74Y-52.48
X86.74Y-57.56
X86.74Y-62.64
X86.74Y-72.8
X86.74Y-77.88
X86.74Y-82.96
X86.74Y-93.12
X86.74Y-98.2
X86.74Y-103.28
X86.74Y-108.36
X86.74Y-118.52
X86.74Y-123.6
X86.74Y-128.68
X86.74Y-133.76
X86.74Y-143.92
X86.74Y-149.0
X86.74Y-154.08
X86.74Y-159.16
X86.74Y-169.32
X86.74Y-174.4
X86.74Y-179.48
X89.28Y-32.16
X89.28Y-37.24
X89.28Y-57.56
X89.28Y-62.64
X89.28Y-82.96
X89.28Y-103.28
X89.28Y-108.36
X89.28Y-128.68
X89.28Y-133.76
X89.28Y-154.08
X89.28Y-159.16
X89.28Y-179.48
X96.9Y-32.16
X96.9Y-37.24
X96.9Y-57.56
X96.9Y-77.88
X96.9Y-82.96
X96.9Y-103.28
X96.9Y-108.36
X96.9Y-128.68
X96.9Y-133.76
X96.9Y-154.08
X96.9Y-166.78
X96.9Y-189.64
X99.44Y-22.0
X99.44Y-27.08
X99.44Y-32.16
X99.44Y-37.24
X99.44Y-47.4
X99.44Y-52.48
X99.44Y-57.56
X99.44Y-67.72
X99.44Y-72.8
X99.44Y-77.88
X99.44Y-82.96
X99.44Y-93.12
X99.44Y-98.2
X99.44Y-103.28
X99.44Y-108.36
X99.44Y-118.52
X99.44Y-123.6
X99.44Y-128.68
X99.44Y-133.76
X99.44Y-143.92
X99.44Y-149.0
X99.44Y-154.08
X99.44Y-166.78
X99.44Y-174.4
X99.44Y-179.48
X99.44Y-189.64
X101.98Y-32.16
X101.98Y-37.24
X101.98Y-57.56
X101.98Y-77.88
X101.98Y-82.96
X101.98Y-103.28
X101.98Y-108.36
X101.98Y-128.68
X101.98Y-133.76
X101.98Y-154.08
X101.98Y-166.78
X101.98Y-189.64
X109.6Y-32.16
X109.6Y-37.24
X109.6Y-57.56
X109.6Y-62.64
X109.6Y-82.96
X109.6Y-88.04
X109.6Y-108.36
X109.6Y-113.44
X109.6Y-133.76
X109.6Y-138.84
X109.6Y-159.16
X109.6Y-164.24
X109.6Y-189.64
X110.0Y-6.0
X110.0Y-8.5
X112.14Y-22.0
X112.14Y-27.08
X112.14Y-32.16
X112.14Y-37.24
X112.14Y-47.4
X112.14Y-52.48
X112.14Y-57.56
X112.14Y-62.64
X112.14Y-72.8
X112.14Y-77.88
X112.14Y-82.96
X112.14Y-88.04
X112.14Y-98.2
X112.14Y-103.28
X112.14Y-108.36
X112.14Y-113.44
X112.14Y-123.6
X112.14Y-128.68
X112.14Y-133.76
X112.14Y-138.84
X112.14Y-149.0
X112.14Y-154.08
X112.14Y-159.16
X112.14Y-164.24
X112.14Y-174.4
X112.14Y-179.48
X112.14Y-189.64
X114.68Y-32.16
X114.68Y-37.24
X114.68Y-57.56
X114.68Y-62.64
X114.68Y-82.96
X114.68Y-88.04
X114.68Y-108.36
X114.68Y-113.44
X114.68Y-133.76
X114.68Y-138.84
X114.68Y-159.16
X114.68Y-164.24
X114.68Y-189.64
X116.0Y-6.0
X116.0Y-8.0
X122.3Y-32.16
X122.3Y-52.48
X122.3Y-57.56
X122.3Y-77.88
X122.3Y-82.96
X122.3Y-103.28
X122.3Y-108.36
X122.3Y-128.68
X122.3Y-133.76
X122.3Y-154.08
X122.3Y-174.4
X122.3Y-179.48
X124.84Y-22.0
X124.84Y-27.08
X124.84Y-32.16
X124.84Y-42.32
X124.84Y-47.4
X124.84Y-52.48
X124.84Y-57.56
X124.84Y-67.72
X124.84Y-72.8
X124.84Y-77.88
X124.84Y-82.96
X124.84Y-93.12
X124.84Y-98.2
X124.84Y-103.28
X124.84Y-108.36
X124.84Y-118.52
X124.84Y-123.6
X124.84Y-128.68
X124.84Y-133.76
X124.84Y-143.92
X124.84Y-149.0
X124.84Y-154.08
X124.84Y-164.24
X124.84Y-169.32
X124.84Y-174.4
X124.84Y-179.48
X127.38Y-32.16
X127.38Y-52.48
X127.38Y-57.56
X127.38Y-77.88
X127.38Y-82.96
X127.38Y-103.28
X127.38Y-108.36
X127.38Y-128.68
X127.38Y-133.76
X127.38Y-154.08
X127.38Y-174.4
X127.38Y-179.48
X135.0Y-32.16
X135.0Y-37.24
X135.0Y-57.56
X135.0Y-62.64
X135.0Y-82.96
X135.0Y-88.04
X135.0Y-108.36
X135.0Y-113.44
X135.0Y-133.76
X135.0Y-138.84
X135.0Y-159.16
X135.0Y-171.86
X135.0Y-194.72
X137.54Y-22.0
X137.54Y-27.08
X137.54Y-32.16
X137.54Y-37.24
X137.54Y-47.4
X137.54Y-52.48
X137.54Y-57.56
X137.54Y-62.64
X137.54Y-72.8
X137.54Y-77.88
X137.54Y-82.96
X137.54Y-88.04
X137.54Y-98.2
X137.54Y-103.28
X137.54Y-108.36
X137.54Y-113.44
X137.54Y-123.6
X137.54Y-128.68
X137.54Y-133.76
X137.54Y-138.84
X137.54Y-149.0
X137.54Y-154.08
X137.54Y-159.16
X137.54Y-171.86
X137.54Y-179.48
X137.54Y-184.56
X137.54Y-194.72
X140.08Y-32.16
X140.08Y-37.24
X140.08Y-57.56
X140.08Y-62.64
X140.08Y-82.96
X140.08Y-88.04
X140.08Y-108.36
X140.08Y-113.44
X140.08Y-133.76
X140.08Y-138.84
X140.08Y-159.16
X140.08Y-171.86
X140.08Y-194.72
T3
X9.27Y-194.72
X11.81Y-194.72
X34.67Y-194.72
X37.21Y-194.72
X47.37Y-189.64
X49.91Y-189.64
X98.17Y-184.56
X100.71Y-184.56
X110.87Y-184.56
X113.41Y-184.56
X136.27Y-189.64
X138.81Y-189.64
T4
X26.0Y-5.46
X26.0Y-8.0
X28.54Y-5.46
X28.54Y-8.0
X31.08Y-5.46
X31.08Y-8.0
X33.62Y-5.46
X33.62Y-8.0
X36.16Y-5.46
X36.16Y-8.0
X38.7Y-5.46
X38.7Y-8.0
X41.24Y-5.46
X41.24Y-8.0
X43.78Y-5.46
X43.78Y-8.0
X46.32Y-5.46
X46.32Y-8.0
X48.86Y-5.46
X48.86Y-8.0
X51.4Y-5.46
X51.4Y-8.0
X53.94Y-5.46
X53.94Y-8.0
X56.48Y-5.46
X56.48Y-8.0
X59.02Y-5.46
X59.02Y-8.0
X61.56Y-5.46
X61.56Y-8.0
X64.1Y-5.46
X64.1Y-8.0
X66.64Y-5.46
X66.64Y-8.0
X69.18Y-5.46
X69.18Y-8.0
X71.72Y-5.46
X71.72Y-8.0
X74.26Y-5.46
X74.26Y-8.0
X76.8Y-5.46
X76.8Y-8.0
X79.34Y-5.46
X79.34Y-8.0
X81.88Y-5.46
X81.88Y-8.0
X84.42Y-5.46
X84.42Y-8.0
X86.96Y-5.46
X86.96Y-8.0
T5
X4.0Y-4.0
X4.0Y-209.96
X152.0Y-4.0
X152.0Y-209.96
M30
