M48
; DRILL file KiCad 10.0.5 date 2026-09-10T17:50:14
; FORMAT={-:-/ absolute / metric / decimal}
; #@! TF.CreationDate,2026-09-10T17:50:14-04:00
; #@! TF.GenerationSoftware,Kicad,Pcbnew,10.0.5
; #@! TF.FileFunction,MixedPlating,1,2
FMAT,2
METRIC
; #@! TA.AperFunction,Plated,PTH,ViaDrill
T1C0.400
; #@! TA.AperFunction,Plated,PTH,ComponentDrill
T2C0.800
; #@! TA.AperFunction,Plated,PTH,ComponentDrill
T3C0.900
; #@! TA.AperFunction,Plated,PTH,ComponentDrill
T4C1.000
; #@! TA.AperFunction,Plated,PTH,ComponentDrill
T5C3.200
%
G90
G05
T1
X6.73Y-16.0
X14.35Y-19.0
X19.43Y-16.0
X26.036Y-60.288
X26.036Y-166.043
X27.05Y-19.0
X30.003Y-80.148
X30.642Y-223.033
X30.73Y-13.273
X31.199Y-204.654
X32.13Y-16.0
X33.62Y-2.96
X33.957Y-161.989
X33.993Y-47.787
X34.835Y-137.666
X36.071Y-34.408
X37.382Y-20.363
X38.353Y-150.575
X38.504Y-46.046
X38.61Y-188.295
X39.75Y-19.0
X41.718Y-137.589
X42.683Y-14.998
X42.83Y-116.52
X43.145Y-13.89
X43.211Y-179.616
X43.32Y-12.377
X43.413Y-168.307
X43.562Y-199.847
X43.694Y-104.571
X43.927Y-138.746
X44.83Y-16.0
X45.708Y-73.025
X46.566Y-113.86
X47.024Y-120.161
X51.18Y-158.37
X52.45Y-19.0
X56.67Y-219.733
X57.53Y-16.0
X58.916Y-176.946
X60.677Y-106.445
X63.4Y-165.99
X64.063Y-51.614
X64.118Y-202.133
X64.191Y-222.446
X65.15Y-19.0
X69.687Y-14.509
X70.23Y-16.0
X71.627Y-39.622
X74.069Y-12.102
X74.314Y-137.298
X75.714Y-92.066
X75.733Y-12.264
X76.182Y-29.931
X77.85Y-19.0
X82.93Y-16.0
X83.924Y-164.165
X85.905Y-84.382
X89.571Y-161.524
X89.617Y-86.304
X90.55Y-19.0
X91.856Y-83.763
X91.856Y-187.224
X93.646Y-71.867
X93.738Y-34.945
X94.146Y-92.49
X94.146Y-189.516
X94.286Y-162.23
X95.63Y-16.0
X97.41Y-60.216
X97.626Y-187.677
X97.766Y-170.086
X98.76Y-186.848
X98.989Y-55.231
X99.835Y-182.628
X99.957Y-207.484
X101.935Y-20.363
X103.25Y-19.0
X103.884Y-14.558
X104.174Y-143.479
X104.174Y-151.99
X104.74Y-2.96
X105.754Y-79.106
X106.98Y-130.488
X107.458Y-152.898
X108.33Y-16.0
X109.623Y-169.138
X110.711Y-222.863
X114.253Y-165.379
X115.95Y-19.0
X116.968Y-126.914
X117.717Y-62.391
X118.0Y-11.0
X121.03Y-16.0
X122.104Y-69.488
X123.011Y-161.769
X124.0Y-10.5
X126.646Y-69.848
X128.65Y-19.0
X133.73Y-16.0
X134.73Y-67.669
X135.052Y-217.998
X135.33Y-106.58
X136.357Y-71.103
X139.543Y-137.354
X141.35Y-19.0
X142.225Y-203.443
X142.364Y-162.025
X143.207Y-210.694
X143.253Y-195.095
X145.005Y-216.042
X145.408Y-103.033
X145.498Y-210.824
X145.501Y-134.962
X146.43Y-16.0
X147.648Y-140.093
X154.05Y-19.0
X159.13Y-16.0
X159.988Y-207.956
X161.608Y-151.798
X162.541Y-87.091
X163.936Y-166.77
X166.75Y-19.0
X171.83Y-16.0
X173.664Y-164.36
X179.45Y-19.0
T2
X8.0Y-32.16
X8.0Y-52.48
X8.0Y-57.56
X8.0Y-77.88
X8.0Y-82.96
X8.0Y-103.28
X8.0Y-108.36
X8.0Y-128.68
X8.0Y-149.0
X8.0Y-154.08
X8.0Y-174.4
X8.0Y-194.72
X8.0Y-199.8
X8.0Y-220.12
X8.0Y-225.2
X8.0Y-230.28
X8.0Y-255.68
X10.54Y-22.0
X10.54Y-27.08
X10.54Y-32.16
X10.54Y-42.32
X10.54Y-47.4
X10.54Y-52.48
X10.54Y-57.56
X10.54Y-67.72
X10.54Y-72.8
X10.54Y-77.88
X10.54Y-82.96
X10.54Y-93.12
X10.54Y-98.2
X10.54Y-103.28
X10.54Y-108.36
X10.54Y-118.52
X10.54Y-123.6
X10.54Y-128.68
X10.54Y-138.84
X10.54Y-143.92
X10.54Y-149.0
X10.54Y-154.08
X10.54Y-164.24
X10.54Y-169.32
X10.54Y-174.4
X10.54Y-184.56
X10.54Y-189.64
X10.54Y-194.72
X10.54Y-199.8
X10.54Y-209.96
X10.54Y-215.04
X10.54Y-220.12
X10.54Y-225.2
X10.54Y-230.28
X10.54Y-240.44
X10.54Y-245.52
X10.54Y-255.68
X13.08Y-32.16
X13.08Y-52.48
X13.08Y-57.56
X13.08Y-77.88
X13.08Y-82.96
X13.08Y-103.28
X13.08Y-108.36
X13.08Y-128.68
X13.08Y-149.0
X13.08Y-154.08
X13.08Y-174.4
X13.08Y-194.72
X13.08Y-199.8
X13.08Y-220.12
X13.08Y-225.2
X13.08Y-230.28
X13.08Y-255.68
X20.7Y-32.16
X20.7Y-52.48
X20.7Y-72.8
X20.7Y-77.88
X20.7Y-98.2
X20.7Y-118.52
X20.7Y-123.6
X20.7Y-143.92
X20.7Y-164.24
X20.7Y-184.56
X20.7Y-189.64
X20.7Y-209.96
X20.7Y-215.04
X20.7Y-227.74
X20.7Y-237.9
X23.24Y-22.0
X23.24Y-27.08
X23.24Y-32.16
X23.24Y-42.32
X23.24Y-47.4
X23.24Y-52.48
X23.24Y-62.64
X23.24Y-67.72
X23.24Y-72.8
X23.24Y-77.88
X23.24Y-88.04
X23.24Y-93.12
X23.24Y-98.2
X23.24Y-108.36
X23.24Y-113.44
X23.24Y-118.52
X23.24Y-123.6
X23.24Y-133.76
X23.24Y-138.84
X23.24Y-143.92
X23.24Y-154.08
X23.24Y-159.16
X23.24Y-164.24
X23.24Y-174.4
X23.24Y-179.48
X23.24Y-184.56
X23.24Y-189.64
X23.24Y-199.8
X23.24Y-204.88
X23.24Y-209.96
X23.24Y-215.04
X23.24Y-227.74
X23.24Y-237.9
X25.78Y-32.16
X25.78Y-52.48
X25.78Y-72.8
X25.78Y-77.88
X25.78Y-98.2
X25.78Y-118.52
X25.78Y-123.6
X25.78Y-143.92
X25.78Y-164.24
X25.78Y-184.56
X25.78Y-189.64
X25.78Y-209.96
X25.78Y-215.04
X25.78Y-227.74
X25.78Y-237.9
X33.4Y-32.16
X33.4Y-37.24
X33.4Y-57.56
X33.4Y-62.64
X33.4Y-82.96
X33.4Y-88.04
X33.4Y-108.36
X33.4Y-113.44
X33.4Y-133.76
X33.4Y-138.84
X33.4Y-159.16
X33.4Y-164.24
X33.4Y-184.56
X33.4Y-204.88
X33.4Y-225.2
X33.4Y-230.28
X33.4Y-235.36
X33.4Y-240.44
X35.94Y-22.0
X35.94Y-27.08
X35.94Y-32.16
X35.94Y-37.24
X35.94Y-47.4
X35.94Y-52.48
X35.94Y-57.56
X35.94Y-62.64
X35.94Y-72.8
X35.94Y-77.88
X35.94Y-82.96
X35.94Y-88.04
X35.94Y-98.2
X35.94Y-103.28
X35.94Y-108.36
X35.94Y-113.44
X35.94Y-123.6
X35.94Y-128.68
X35.94Y-133.76
X35.94Y-138.84
X35.94Y-149.0
X35.94Y-154.08
X35.94Y-159.16
X35.94Y-164.24
X35.94Y-174.4
X35.94Y-179.48
X35.94Y-184.56
X35.94Y-194.72
X35.94Y-199.8
X35.94Y-204.88
X35.94Y-215.04
X35.94Y-220.12
X35.94Y-225.2
X35.94Y-230.28
X35.94Y-235.36
X35.94Y-240.44
X38.48Y-32.16
X38.48Y-37.24
X38.48Y-57.56
X38.48Y-62.64
X38.48Y-82.96
X38.48Y-88.04
X38.48Y-108.36
X38.48Y-113.44
X38.48Y-133.76
X38.48Y-138.84
X38.48Y-159.16
X38.48Y-164.24
X38.48Y-184.56
X38.48Y-204.88
X38.48Y-225.2
X38.48Y-230.28
X38.48Y-235.36
X38.48Y-240.44
X46.1Y-32.16
X46.1Y-52.48
X46.1Y-57.56
X46.1Y-77.88
X46.1Y-98.2
X46.1Y-103.28
X46.1Y-123.6
X46.1Y-128.68
X46.1Y-149.0
X46.1Y-154.08
X46.1Y-174.4
X46.1Y-194.72
X46.1Y-199.8
X46.1Y-220.12
X46.1Y-240.44
X48.64Y-22.0
X48.64Y-27.08
X48.64Y-32.16
X48.64Y-42.32
X48.64Y-47.4
X48.64Y-52.48
X48.64Y-57.56
X48.64Y-67.72
X48.64Y-72.8
X48.64Y-77.88
X48.64Y-88.04
X48.64Y-93.12
X48.64Y-98.2
X48.64Y-103.28
X48.64Y-113.44
X48.64Y-118.52
X48.64Y-123.6
X48.64Y-128.68
X48.64Y-138.84
X48.64Y-143.92
X48.64Y-149.0
X48.64Y-154.08
X48.64Y-164.24
X48.64Y-169.32
X48.64Y-174.4
X48.64Y-184.56
X48.64Y-189.64
X48.64Y-194.72
X48.64Y-199.8
X48.64Y-209.96
X48.64Y-215.04
X48.64Y-220.12
X48.64Y-230.28
X48.64Y-235.36
X48.64Y-240.44
X51.18Y-32.16
X51.18Y-52.48
X51.18Y-57.56
X51.18Y-77.88
X51.18Y-98.2
X51.18Y-103.28
X51.18Y-123.6
X51.18Y-128.68
X51.18Y-149.0
X51.18Y-154.08
X51.18Y-174.4
X51.18Y-194.72
X51.18Y-199.8
X51.18Y-220.12
X51.18Y-240.44
X58.8Y-32.16
X58.8Y-37.24
X58.8Y-57.56
X58.8Y-77.88
X58.8Y-82.96
X58.8Y-103.28
X58.8Y-108.36
X58.8Y-128.68
X58.8Y-133.76
X58.8Y-154.08
X58.8Y-174.4
X58.8Y-179.48
X58.8Y-199.8
X58.8Y-204.88
X58.8Y-225.2
X58.8Y-230.28
X58.8Y-255.68
X61.34Y-22.0
X61.34Y-27.08
X61.34Y-32.16
X61.34Y-37.24
X61.34Y-47.4
X61.34Y-52.48
X61.34Y-57.56
X61.34Y-67.72
X61.34Y-72.8
X61.34Y-77.88
X61.34Y-82.96
X61.34Y-93.12
X61.34Y-98.2
X61.34Y-103.28
X61.34Y-108.36
X61.34Y-118.52
X61.34Y-123.6
X61.34Y-128.68
X61.34Y-133.76
X61.34Y-143.92
X61.34Y-149.0
X61.34Y-154.08
X61.34Y-164.24
X61.34Y-169.32
X61.34Y-174.4
X61.34Y-179.48
X61.34Y-189.64
X61.34Y-194.72
X61.34Y-199.8
X61.34Y-204.88
X61.34Y-215.04
X61.34Y-220.12
X61.34Y-225.2
X61.34Y-230.28
X61.34Y-240.44
X61.34Y-245.52
X61.34Y-255.68
X63.88Y-32.16
X63.88Y-37.24
X63.88Y-57.56
X63.88Y-77.88
X63.88Y-82.96
X63.88Y-103.28
X63.88Y-108.36
X63.88Y-128.68
X63.88Y-133.76
X63.88Y-154.08
X63.88Y-174.4
X63.88Y-179.48
X63.88Y-199.8
X63.88Y-204.88
X63.88Y-225.2
X63.88Y-230.28
X63.88Y-255.68
X71.5Y-32.16
X71.5Y-37.24
X71.5Y-57.56
X71.5Y-62.64
X71.5Y-82.96
X71.5Y-88.04
X71.5Y-108.36
X71.5Y-113.44
X71.5Y-133.76
X71.5Y-138.84
X71.5Y-159.16
X71.5Y-164.24
X71.5Y-184.56
X71.5Y-204.88
X71.5Y-209.96
X71.5Y-222.66
X71.5Y-232.82
X71.5Y-255.68
X74.04Y-22.0
X74.04Y-27.08
X74.04Y-32.16
X74.04Y-37.24
X74.04Y-47.4
X74.04Y-52.48
X74.04Y-57.56
X74.04Y-62.64
X74.04Y-72.8
X74.04Y-77.88
X74.04Y-82.96
X74.04Y-88.04
X74.04Y-98.2
X74.04Y-103.28
X74.04Y-108.36
X74.04Y-113.44
X74.04Y-123.6
X74.04Y-128.68
X74.04Y-133.76
X74.04Y-138.84
X74.04Y-149.0
X74.04Y-154.08
X74.04Y-159.16
X74.04Y-164.24
X74.04Y-174.4
X74.04Y-179.48
X74.04Y-184.56
X74.04Y-194.72
X74.04Y-199.8
X74.04Y-204.88
X74.04Y-209.96
X74.04Y-222.66
X74.04Y-232.82
X74.04Y-240.44
X74.04Y-245.52
X74.04Y-255.68
X76.58Y-32.16
X76.58Y-37.24
X76.58Y-57.56
X76.58Y-62.64
X76.58Y-82.96
X76.58Y-88.04
X76.58Y-108.36
X76.58Y-113.44
X76.58Y-133.76
X76.58Y-138.84
X76.58Y-159.16
X76.58Y-164.24
X76.58Y-184.56
X76.58Y-204.88
X76.58Y-209.96
X76.58Y-222.66
X76.58Y-232.82
X76.58Y-255.68
X84.2Y-32.16
X84.2Y-37.24
X84.2Y-57.56
X84.2Y-62.64
X84.2Y-82.96
X84.2Y-103.28
X84.2Y-108.36
X84.2Y-128.68
X84.2Y-133.76
X84.2Y-154.08
X84.2Y-174.4
X84.2Y-179.48
X84.2Y-199.8
X84.2Y-204.88
X84.2Y-209.96
X84.2Y-230.28
X84.2Y-235.36
X86.74Y-22.0
X86.74Y-27.08
X86.74Y-32.16
X86.74Y-37.24
X86.74Y-47.4
X86.74Y-52.48
X86.74Y-57.56
X86.74Y-62.64
X86.74Y-72.8
X86.74Y-77.88
X86.74Y-82.96
X86.74Y-93.12
X86.74Y-98.2
X86.74Y-103.28
X86.74Y-108.36
X86.74Y-118.52
X86.74Y-123.6
X86.74Y-128.68
X86.74Y-133.76
X86.74Y-143.92
X86.74Y-149.0
X86.74Y-154.08
X86.74Y-164.24
X86.74Y-169.32
X86.74Y-174.4
X86.74Y-179.48
X86.74Y-189.64
X86.74Y-194.72
X86.74Y-199.8
X86.74Y-204.88
X86.74Y-209.96
X86.74Y-220.12
X86.74Y-225.2
X86.74Y-230.28
X86.74Y-235.36
X89.28Y-32.16
X89.28Y-37.24
X89.28Y-57.56
X89.28Y-62.64
X89.28Y-82.96
X89.28Y-103.28
X89.28Y-108.36
X89.28Y-128.68
X89.28Y-133.76
X89.28Y-154.08
X89.28Y-174.4
X89.28Y-179.48
X89.28Y-199.8
X89.28Y-204.88
X89.28Y-209.96
X89.28Y-230.28
X89.28Y-235.36
X96.9Y-32.16
X96.9Y-52.48
X96.9Y-57.56
X96.9Y-77.88
X96.9Y-82.96
X96.9Y-103.28
X96.9Y-108.36
X96.9Y-128.68
X96.9Y-133.76
X96.9Y-154.08
X96.9Y-159.16
X96.9Y-179.48
X96.9Y-184.56
X96.9Y-204.88
X96.9Y-209.96
X96.9Y-230.28
X99.44Y-22.0
X99.44Y-27.08
X99.44Y-32.16
X99.44Y-42.32
X99.44Y-47.4
X99.44Y-52.48
X99.44Y-57.56
X99.44Y-67.72
X99.44Y-72.8
X99.44Y-77.88
X99.44Y-82.96
X99.44Y-93.12
X99.44Y-98.2
X99.44Y-103.28
X99.44Y-108.36
X99.44Y-118.52
X99.44Y-123.6
X99.44Y-128.68
X99.44Y-133.76
X99.44Y-143.92
X99.44Y-149.0
X99.44Y-154.08
X99.44Y-159.16
X99.44Y-169.32
X99.44Y-174.4
X99.44Y-179.48
X99.44Y-184.56
X99.44Y-194.72
X99.44Y-199.8
X99.44Y-204.88
X99.44Y-209.96
X99.44Y-220.12
X99.44Y-225.2
X99.44Y-230.28
X101.98Y-32.16
X101.98Y-52.48
X101.98Y-57.56
X101.98Y-77.88
X101.98Y-82.96
X101.98Y-103.28
X101.98Y-108.36
X101.98Y-128.68
X101.98Y-133.76
X101.98Y-154.08
X101.98Y-159.16
X101.98Y-179.48
X101.98Y-184.56
X101.98Y-204.88
X101.98Y-209.96
X101.98Y-230.28
X109.6Y-32.16
X109.6Y-37.24
X109.6Y-57.56
X109.6Y-62.64
X109.6Y-82.96
X109.6Y-88.04
X109.6Y-108.36
X109.6Y-128.68
X109.6Y-149.0
X109.6Y-154.08
X109.6Y-174.4
X109.6Y-179.48
X109.6Y-199.8
X109.6Y-220.12
X109.6Y-225.2
X109.6Y-250.6
X112.14Y-22.0
X112.14Y-27.08
X112.14Y-32.16
X112.14Y-37.24
X112.14Y-47.4
X112.14Y-52.48
X112.14Y-57.56
X112.14Y-62.64
X112.14Y-72.8
X112.14Y-77.88
X112.14Y-82.96
X112.14Y-88.04
X112.14Y-98.2
X112.14Y-103.28
X112.14Y-108.36
X112.14Y-118.52
X112.14Y-123.6
X112.14Y-128.68
X112.14Y-138.84
X112.14Y-143.92
X112.14Y-149.0
X112.14Y-154.08
X112.14Y-164.24
X112.14Y-169.32
X112.14Y-174.4
X112.14Y-179.48
X112.14Y-189.64
X112.14Y-194.72
X112.14Y-199.8
X112.14Y-209.96
X112.14Y-215.04
X112.14Y-220.12
X112.14Y-225.2
X112.14Y-235.36
X112.14Y-240.44
X112.14Y-250.6
X114.68Y-32.16
X114.68Y-37.24
X114.68Y-57.56
X114.68Y-62.64
X114.68Y-82.96
X114.68Y-88.04
X114.68Y-108.36
X114.68Y-128.68
X114.68Y-149.0
X114.68Y-154.08
X114.68Y-174.4
X114.68Y-179.48
X114.68Y-199.8
X114.68Y-220.12
X114.68Y-225.2
X114.68Y-250.6
X118.0Y-6.0
X118.0Y-8.5
X122.3Y-32.16
X122.3Y-52.48
X122.3Y-57.56
X122.3Y-77.88
X122.3Y-82.96
X122.3Y-103.28
X122.3Y-123.6
X122.3Y-128.68
X122.3Y-149.0
X122.3Y-154.08
X122.3Y-174.4
X122.3Y-179.48
X122.3Y-199.8
X122.3Y-204.88
X122.3Y-225.2
X122.3Y-250.6
X124.0Y-6.0
X124.0Y-8.0
X124.84Y-22.0
X124.84Y-27.08
X124.84Y-32.16
X124.84Y-42.32
X124.84Y-47.4
X124.84Y-52.48
X124.84Y-57.56
X124.84Y-67.72
X124.84Y-72.8
X124.84Y-77.88
X124.84Y-82.96
X124.84Y-93.12
X124.84Y-98.2
X124.84Y-103.28
X124.84Y-113.44
X124.84Y-118.52
X124.84Y-123.6
X124.84Y-128.68
X124.84Y-138.84
X124.84Y-143.92
X124.84Y-149.0
X124.84Y-154.08
X124.84Y-164.24
X124.84Y-169.32
X124.84Y-174.4
X124.84Y-179.48
X124.84Y-189.64
X124.84Y-194.72
X124.84Y-199.8
X124.84Y-204.88
X124.84Y-215.04
X124.84Y-220.12
X124.84Y-225.2
X124.84Y-235.36
X124.84Y-240.44
X124.84Y-250.6
X127.38Y-32.16
X127.38Y-52.48
X127.38Y-57.56
X127.38Y-77.88
X127.38Y-82.96
X127.38Y-103.28
X127.38Y-123.6
X127.38Y-128.68
X127.38Y-149.0
X127.38Y-154.08
X127.38Y-174.4
X127.38Y-179.48
X127.38Y-199.8
X127.38Y-204.88
X127.38Y-225.2
X127.38Y-250.6
X135.0Y-32.16
X135.0Y-37.24
X135.0Y-57.56
X135.0Y-62.64
X135.0Y-82.96
X135.0Y-88.04
X135.0Y-108.36
X135.0Y-113.44
X135.0Y-133.76
X135.0Y-138.84
X135.0Y-159.16
X135.0Y-164.24
X135.0Y-169.32
X135.0Y-189.64
X135.0Y-194.72
X135.0Y-215.04
X135.0Y-220.12
X135.0Y-240.44
X135.0Y-245.52
X137.54Y-22.0
X137.54Y-27.08
X137.54Y-32.16
X137.54Y-37.24
X137.54Y-47.4
X137.54Y-52.48
X137.54Y-57.56
X137.54Y-62.64
X137.54Y-72.8
X137.54Y-77.88
X137.54Y-82.96
X137.54Y-88.04
X137.54Y-98.2
X137.54Y-103.28
X137.54Y-108.36
X137.54Y-113.44
X137.54Y-123.6
X137.54Y-128.68
X137.54Y-133.76
X137.54Y-138.84
X137.54Y-149.0
X137.54Y-154.08
X137.54Y-159.16
X137.54Y-164.24
X137.54Y-169.32
X137.54Y-179.48
X137.54Y-184.56
X137.54Y-189.64
X137.54Y-194.72
X137.54Y-204.88
X137.54Y-209.96
X137.54Y-215.04
X137.54Y-220.12
X137.54Y-230.28
X137.54Y-235.36
X137.54Y-240.44
X137.54Y-245.52
X140.08Y-32.16
X140.08Y-37.24
X140.08Y-57.56
X140.08Y-62.64
X140.08Y-82.96
X140.08Y-88.04
X140.08Y-108.36
X140.08Y-113.44
X140.08Y-133.76
X140.08Y-138.84
X140.08Y-159.16
X140.08Y-164.24
X140.08Y-169.32
X140.08Y-189.64
X140.08Y-194.72
X140.08Y-215.04
X140.08Y-220.12
X140.08Y-240.44
X140.08Y-245.52
X147.7Y-32.16
X147.7Y-37.24
X147.7Y-57.56
X147.7Y-62.64
X147.7Y-82.96
X147.7Y-88.04
X147.7Y-108.36
X147.7Y-113.44
X147.7Y-133.76
X147.7Y-154.08
X147.7Y-159.16
X147.7Y-179.48
X147.7Y-184.56
X147.7Y-189.64
X147.7Y-209.96
X147.7Y-215.04
X147.7Y-235.36
X147.7Y-240.44
X150.24Y-22.0
X150.24Y-27.08
X150.24Y-32.16
X150.24Y-37.24
X150.24Y-47.4
X150.24Y-52.48
X150.24Y-57.56
X150.24Y-62.64
X150.24Y-72.8
X150.24Y-77.88
X150.24Y-82.96
X150.24Y-88.04
X150.24Y-98.2
X150.24Y-103.28
X150.24Y-108.36
X150.24Y-113.44
X150.24Y-123.6
X150.24Y-128.68
X150.24Y-133.76
X150.24Y-143.92
X150.24Y-149.0
X150.24Y-154.08
X150.24Y-159.16
X150.24Y-169.32
X150.24Y-174.4
X150.24Y-179.48
X150.24Y-184.56
X150.24Y-189.64
X150.24Y-199.8
X150.24Y-204.88
X150.24Y-209.96
X150.24Y-215.04
X150.24Y-225.2
X150.24Y-230.28
X150.24Y-235.36
X150.24Y-240.44
X152.78Y-32.16
X152.78Y-37.24
X152.78Y-57.56
X152.78Y-62.64
X152.78Y-82.96
X152.78Y-88.04
X152.78Y-108.36
X152.78Y-113.44
X152.78Y-133.76
X152.78Y-154.08
X152.78Y-159.16
X152.78Y-179.48
X152.78Y-184.56
X152.78Y-189.64
X152.78Y-209.96
X152.78Y-215.04
X152.78Y-235.36
X152.78Y-240.44
X160.4Y-32.16
X160.4Y-37.24
X160.4Y-57.56
X160.4Y-77.88
X160.4Y-82.96
X160.4Y-103.28
X160.4Y-108.36
X160.4Y-128.68
X160.4Y-133.76
X160.4Y-154.08
X160.4Y-159.16
X160.4Y-179.48
X160.4Y-199.8
X160.4Y-220.12
X160.4Y-225.2
X160.4Y-250.6
X162.94Y-22.0
X162.94Y-27.08
X162.94Y-32.16
X162.94Y-37.24
X162.94Y-47.4
X162.94Y-52.48
X162.94Y-57.56
X162.94Y-67.72
X162.94Y-72.8
X162.94Y-77.88
X162.94Y-82.96
X162.94Y-93.12
X162.94Y-98.2
X162.94Y-103.28
X162.94Y-108.36
X162.94Y-118.52
X162.94Y-123.6
X162.94Y-128.68
X162.94Y-133.76
X162.94Y-143.92
X162.94Y-149.0
X162.94Y-154.08
X162.94Y-159.16
X162.94Y-169.32
X162.94Y-174.4
X162.94Y-179.48
X162.94Y-189.64
X162.94Y-194.72
X162.94Y-199.8
X162.94Y-209.96
X162.94Y-215.04
X162.94Y-220.12
X162.94Y-225.2
X162.94Y-235.36
X162.94Y-240.44
X162.94Y-250.6
X165.48Y-32.16
X165.48Y-37.24
X165.48Y-57.56
X165.48Y-77.88
X165.48Y-82.96
X165.48Y-103.28
X165.48Y-108.36
X165.48Y-128.68
X165.48Y-133.76
X165.48Y-154.08
X165.48Y-159.16
X165.48Y-179.48
X165.48Y-199.8
X165.48Y-220.12
X165.48Y-225.2
X165.48Y-250.6
X173.1Y-32.16
X173.1Y-52.48
X173.1Y-72.8
X173.1Y-77.88
X173.1Y-98.2
X173.1Y-103.28
X173.1Y-123.6
X173.1Y-128.68
X173.1Y-149.0
X173.1Y-169.32
X173.1Y-174.4
X173.1Y-194.72
X173.1Y-199.8
X173.1Y-220.12
X173.1Y-240.44
X175.64Y-22.0
X175.64Y-27.08
X175.64Y-32.16
X175.64Y-42.32
X175.64Y-47.4
X175.64Y-52.48
X175.64Y-62.64
X175.64Y-67.72
X175.64Y-72.8
X175.64Y-77.88
X175.64Y-88.04
X175.64Y-93.12
X175.64Y-98.2
X175.64Y-103.28
X175.64Y-113.44
X175.64Y-118.52
X175.64Y-123.6
X175.64Y-128.68
X175.64Y-138.84
X175.64Y-143.92
X175.64Y-149.0
X175.64Y-159.16
X175.64Y-164.24
X175.64Y-169.32
X175.64Y-174.4
X175.64Y-184.56
X175.64Y-189.64
X175.64Y-194.72
X175.64Y-199.8
X175.64Y-209.96
X175.64Y-215.04
X175.64Y-220.12
X175.64Y-230.28
X175.64Y-235.36
X175.64Y-240.44
X178.18Y-32.16
X178.18Y-52.48
X178.18Y-72.8
X178.18Y-77.88
X178.18Y-98.2
X178.18Y-103.28
X178.18Y-123.6
X178.18Y-128.68
X178.18Y-149.0
X178.18Y-169.32
X178.18Y-174.4
X178.18Y-194.72
X178.18Y-199.8
X178.18Y-220.12
X178.18Y-240.44
T3
X9.27Y-250.6
X11.81Y-250.6
X60.07Y-250.6
X62.61Y-250.6
X72.77Y-250.6
X75.31Y-250.6
X110.87Y-245.52
X113.41Y-245.52
X123.57Y-245.52
X126.11Y-245.52
X161.67Y-245.52
X164.21Y-245.52
T4
X26.0Y-5.46
X26.0Y-8.0
X28.54Y-5.46
X28.54Y-8.0
X31.08Y-5.46
X31.08Y-8.0
X33.62Y-5.46
X33.62Y-8.0
X36.16Y-5.46
X36.16Y-8.0
X38.7Y-5.46
X38.7Y-8.0
X41.24Y-5.46
X41.24Y-8.0
X43.78Y-5.46
X43.78Y-8.0
X46.32Y-5.46
X46.32Y-8.0
X48.86Y-5.46
X48.86Y-8.0
X51.4Y-5.46
X51.4Y-8.0
X53.94Y-5.46
X53.94Y-8.0
X56.48Y-5.46
X56.48Y-8.0
X59.02Y-5.46
X59.02Y-8.0
X61.56Y-5.46
X61.56Y-8.0
X64.1Y-5.46
X64.1Y-8.0
X66.64Y-5.46
X66.64Y-8.0
X69.18Y-5.46
X69.18Y-8.0
X71.72Y-5.46
X71.72Y-8.0
X74.26Y-5.46
X74.26Y-8.0
X76.8Y-5.46
X76.8Y-8.0
X79.34Y-5.46
X79.34Y-8.0
X81.88Y-5.46
X81.88Y-8.0
X84.42Y-5.46
X84.42Y-8.0
X86.96Y-5.46
X86.96Y-8.0
X89.5Y-5.46
X89.5Y-8.0
X92.04Y-5.46
X92.04Y-8.0
X94.58Y-5.46
X94.58Y-8.0
X97.12Y-5.46
X97.12Y-8.0
X99.66Y-5.46
X99.66Y-8.0
X102.2Y-5.46
X102.2Y-8.0
X104.74Y-5.46
X104.74Y-8.0
T5
X4.0Y-4.0
X4.0Y-265.84
X185.8Y-4.0
X185.8Y-265.84
M30
