M48
; DRILL file KiCad 10.0.5 date 2026-09-11T05:06:57
; FORMAT={-:-/ absolute / metric / decimal}
; #@! TF.CreationDate,2026-09-11T05:06:57-04:00
; #@! TF.GenerationSoftware,Kicad,Pcbnew,10.0.5
; #@! TF.FileFunction,MixedPlating,1,2
FMAT,2
METRIC
; #@! TA.AperFunction,Plated,PTH,ViaDrill
T1C0.400
; #@! TA.AperFunction,Plated,PTH,ComponentDrill
T2C0.800
; #@! TA.AperFunction,Plated,PTH,ComponentDrill
T3C0.900
; #@! TA.AperFunction,Plated,PTH,ComponentDrill
T4C1.000
; #@! TA.AperFunction,Plated,PTH,ComponentDrill
T5C3.200
%
G90
G05
T1
X7.73Y-12.5
X10.63Y-14.0
X15.41Y-14.0
X18.25Y-2.46
X22.241Y-26.597
X22.399Y-10.38
X23.09Y-12.5
X30.77Y-14.0
X35.514Y-61.455
X36.23Y-53.669
X38.45Y-12.5
X40.836Y-67.902
X40.972Y-44.598
X41.258Y-22.038
X46.13Y-14.0
X53.81Y-12.5
X54.852Y-72.304
X61.49Y-14.0
X64.054Y-61.927
X69.17Y-12.5
X71.739Y-63.33
X76.85Y-14.0
X84.53Y-12.5
X89.37Y-2.46
X89.37Y-14.0
X95.0Y-21.5
X95.0Y-30.5
T2
X9.0Y-16.0
X9.0Y-20.445
X9.0Y-24.255
X9.0Y-28.7
X9.0Y-33.78
X9.0Y-37.59
X9.0Y-42.035
X9.0Y-47.115
X9.0Y-50.925
X9.0Y-55.37
X9.0Y-59.18
X9.0Y-63.625
X9.0Y-68.705
X9.0Y-72.515
X9.0Y-76.96
X9.0Y-82.04
X11.54Y-20.445
X11.54Y-28.7
X11.54Y-33.78
X11.54Y-42.035
X11.54Y-47.115
X11.54Y-55.37
X11.54Y-63.625
X11.54Y-68.705
X11.54Y-76.96
X11.54Y-82.04
X14.08Y-16.0
X14.08Y-20.445
X14.08Y-24.255
X14.08Y-28.7
X14.08Y-33.78
X14.08Y-37.59
X14.08Y-42.035
X14.08Y-47.115
X14.08Y-50.925
X14.08Y-55.37
X14.08Y-59.18
X14.08Y-63.625
X14.08Y-68.705
X14.08Y-72.515
X14.08Y-76.96
X14.08Y-82.04
X16.68Y-16.0
X16.68Y-19.81
X16.68Y-24.89
X16.68Y-29.335
X16.68Y-33.145
X16.68Y-38.225
X16.68Y-42.67
X16.68Y-46.48
X16.68Y-51.56
X16.68Y-56.64
X16.68Y-61.085
X16.68Y-64.895
X16.68Y-69.34
X16.68Y-73.15
X16.68Y-78.23
X16.68Y-82.675
X16.68Y-86.485
X16.68Y-91.565
X19.22Y-19.81
X19.22Y-24.89
X19.22Y-33.145
X19.22Y-38.225
X19.22Y-46.48
X19.22Y-51.56
X19.22Y-56.64
X19.22Y-64.895
X19.22Y-73.15
X19.22Y-78.23
X19.22Y-86.485
X19.22Y-91.565
X21.76Y-16.0
X21.76Y-19.81
X21.76Y-24.89
X21.76Y-29.335
X21.76Y-33.145
X21.76Y-38.225
X21.76Y-42.67
X21.76Y-46.48
X21.76Y-51.56
X21.76Y-56.64
X21.76Y-61.085
X21.76Y-64.895
X21.76Y-69.34
X21.76Y-73.15
X21.76Y-78.23
X21.76Y-82.675
X21.76Y-86.485
X21.76Y-91.565
X24.36Y-16.0
X24.36Y-20.445
X24.36Y-25.525
X24.36Y-29.335
X24.36Y-33.78
X24.36Y-38.86
X24.36Y-42.67
X24.36Y-47.115
X24.36Y-50.925
X24.36Y-55.37
X24.36Y-60.45
X24.36Y-64.26
X24.36Y-68.705
X24.36Y-73.785
X24.36Y-77.595
X24.36Y-82.04
X24.36Y-87.12
X26.9Y-20.445
X26.9Y-25.525
X26.9Y-33.78
X26.9Y-38.86
X26.9Y-47.115
X26.9Y-55.37
X26.9Y-60.45
X26.9Y-68.705
X26.9Y-73.785
X26.9Y-82.04
X26.9Y-87.12
X29.44Y-16.0
X29.44Y-20.445
X29.44Y-25.525
X29.44Y-29.335
X29.44Y-33.78
X29.44Y-38.86
X29.44Y-42.67
X29.44Y-47.115
X29.44Y-50.925
X29.44Y-55.37
X29.44Y-60.45
X29.44Y-64.26
X29.44Y-68.705
X29.44Y-73.785
X29.44Y-77.595
X29.44Y-82.04
X29.44Y-87.12
X32.04Y-16.0
X32.04Y-19.81
X32.04Y-24.89
X32.04Y-29.335
X32.04Y-33.145
X32.04Y-38.225
X32.04Y-42.67
X32.04Y-46.48
X32.04Y-51.56
X32.04Y-56.005
X32.04Y-59.815
X32.04Y-64.895
X32.04Y-69.34
X32.04Y-73.15
X32.04Y-78.23
X34.58Y-19.81
X34.58Y-24.89
X34.58Y-33.145
X34.58Y-38.225
X34.58Y-46.48
X34.58Y-51.56
X34.58Y-59.815
X34.58Y-64.895
X34.58Y-73.15
X34.58Y-78.23
X37.12Y-16.0
X37.12Y-19.81
X37.12Y-24.89
X37.12Y-29.335
X37.12Y-33.145
X37.12Y-38.225
X37.12Y-42.67
X37.12Y-46.48
X37.12Y-51.56
X37.12Y-56.005
X37.12Y-59.815
X37.12Y-64.895
X37.12Y-69.34
X37.12Y-73.15
X37.12Y-78.23
X39.72Y-16.0
X39.72Y-20.445
X39.72Y-25.525
X39.72Y-30.605
X39.72Y-34.415
X39.72Y-38.86
X39.72Y-42.67
X39.72Y-47.115
X39.72Y-52.195
X39.72Y-56.005
X39.72Y-60.45
X39.72Y-65.53
X39.72Y-69.34
X39.72Y-73.785
X39.72Y-78.865
X39.72Y-82.675
X39.72Y-87.12
X39.72Y-92.2
X42.26Y-20.445
X42.26Y-25.525
X42.26Y-30.605
X42.26Y-38.86
X42.26Y-47.115
X42.26Y-52.195
X42.26Y-60.45
X42.26Y-65.53
X42.26Y-73.785
X42.26Y-78.865
X42.26Y-87.12
X42.26Y-92.2
X44.8Y-16.0
X44.8Y-20.445
X44.8Y-25.525
X44.8Y-30.605
X44.8Y-34.415
X44.8Y-38.86
X44.8Y-42.67
X44.8Y-47.115
X44.8Y-52.195
X44.8Y-56.005
X44.8Y-60.45
X44.8Y-65.53
X44.8Y-69.34
X44.8Y-73.785
X44.8Y-78.865
X44.8Y-82.675
X44.8Y-87.12
X44.8Y-92.2
X47.4Y-16.0
X47.4Y-19.81
X47.4Y-24.255
X47.4Y-28.065
X47.4Y-33.145
X47.4Y-37.59
X47.4Y-41.4
X47.4Y-46.48
X47.4Y-50.925
X47.4Y-54.735
X47.4Y-59.815
X47.4Y-64.26
X47.4Y-68.07
X47.4Y-73.15
X47.4Y-77.595
X47.4Y-81.405
X49.94Y-19.81
X49.94Y-28.065
X49.94Y-33.145
X49.94Y-41.4
X49.94Y-46.48
X49.94Y-54.735
X49.94Y-59.815
X49.94Y-68.07
X49.94Y-73.15
X49.94Y-81.405
X52.48Y-16.0
X52.48Y-19.81
X52.48Y-24.255
X52.48Y-28.065
X52.48Y-33.145
X52.48Y-37.59
X52.48Y-41.4
X52.48Y-46.48
X52.48Y-50.925
X52.48Y-54.735
X52.48Y-59.815
X52.48Y-64.26
X52.48Y-68.07
X52.48Y-73.15
X52.48Y-77.595
X52.48Y-81.405
X55.08Y-16.0
X55.08Y-20.445
X55.08Y-25.525
X55.08Y-29.335
X55.08Y-33.78
X55.08Y-38.86
X55.08Y-42.67
X55.08Y-47.115
X55.08Y-52.195
X55.08Y-56.005
X55.08Y-60.45
X55.08Y-64.26
X55.08Y-68.705
X55.08Y-73.785
X55.08Y-77.595
X55.08Y-82.04
X55.08Y-87.12
X57.62Y-20.445
X57.62Y-25.525
X57.62Y-33.78
X57.62Y-38.86
X57.62Y-47.115
X57.62Y-52.195
X57.62Y-60.45
X57.62Y-68.705
X57.62Y-73.785
X57.62Y-82.04
X57.62Y-87.12
X60.16Y-16.0
X60.16Y-20.445
X60.16Y-25.525
X60.16Y-29.335
X60.16Y-33.78
X60.16Y-38.86
X60.16Y-42.67
X60.16Y-47.115
X60.16Y-52.195
X60.16Y-56.005
X60.16Y-60.45
X60.16Y-64.26
X60.16Y-68.705
X60.16Y-73.785
X60.16Y-77.595
X60.16Y-82.04
X60.16Y-87.12
X62.76Y-16.0
X62.76Y-19.81
X62.76Y-24.89
X62.76Y-29.335
X62.76Y-33.145
X62.76Y-38.225
X62.76Y-42.67
X62.76Y-46.48
X62.76Y-50.925
X62.76Y-54.735
X62.76Y-59.815
X62.76Y-64.26
X62.76Y-68.07
X62.76Y-73.15
X62.76Y-77.595
X62.76Y-81.405
X62.76Y-86.485
X65.3Y-19.81
X65.3Y-24.89
X65.3Y-33.145
X65.3Y-38.225
X65.3Y-46.48
X65.3Y-54.735
X65.3Y-59.815
X65.3Y-68.07
X65.3Y-73.15
X65.3Y-81.405
X65.3Y-86.485
X67.84Y-16.0
X67.84Y-19.81
X67.84Y-24.89
X67.84Y-29.335
X67.84Y-33.145
X67.84Y-38.225
X67.84Y-42.67
X67.84Y-46.48
X67.84Y-50.925
X67.84Y-54.735
X67.84Y-59.815
X67.84Y-64.26
X67.84Y-68.07
X67.84Y-73.15
X67.84Y-77.595
X67.84Y-81.405
X67.84Y-86.485
X70.44Y-16.0
X70.44Y-20.445
X70.44Y-25.525
X70.44Y-29.335
X70.44Y-33.78
X70.44Y-38.86
X70.44Y-42.67
X70.44Y-47.115
X70.44Y-52.195
X70.44Y-56.005
X70.44Y-60.45
X70.44Y-65.53
X70.44Y-70.61
X70.44Y-74.42
X70.44Y-85.215
X72.98Y-20.445
X72.98Y-25.525
X72.98Y-33.78
X72.98Y-38.86
X72.98Y-47.115
X72.98Y-52.195
X72.98Y-60.45
X72.98Y-65.53
X72.98Y-70.61
X72.98Y-85.215
X75.52Y-16.0
X75.52Y-20.445
X75.52Y-25.525
X75.52Y-29.335
X75.52Y-33.78
X75.52Y-38.86
X75.52Y-42.67
X75.52Y-47.115
X75.52Y-52.195
X75.52Y-56.005
X75.52Y-60.45
X75.52Y-65.53
X75.52Y-70.61
X75.52Y-74.42
X75.52Y-85.215
X78.12Y-16.0
X78.12Y-26.795
X78.12Y-31.24
X78.12Y-42.035
X80.66Y-26.795
X80.66Y-42.035
X83.2Y-16.0
X83.2Y-26.795
X83.2Y-31.24
X83.2Y-42.035
X95.0Y-16.5
X95.0Y-19.0
X95.0Y-26.0
X95.0Y-28.0
T3
X72.98Y-78.23
X72.98Y-80.77
X80.66Y-19.81
X80.66Y-22.35
X80.66Y-35.05
X80.66Y-37.59
T4
X10.63Y-4.96
X10.63Y-7.5
X13.17Y-4.96
X13.17Y-7.5
X15.71Y-4.96
X15.71Y-7.5
X18.25Y-4.96
X18.25Y-7.5
X20.79Y-4.96
X20.79Y-7.5
X23.33Y-4.96
X23.33Y-7.5
X25.87Y-4.96
X25.87Y-7.5
X28.41Y-4.96
X28.41Y-7.5
X30.95Y-4.96
X30.95Y-7.5
X33.49Y-4.96
X33.49Y-7.5
X36.03Y-4.96
X36.03Y-7.5
X38.57Y-4.96
X38.57Y-7.5
X41.11Y-4.96
X41.11Y-7.5
X43.65Y-4.96
X43.65Y-7.5
X46.19Y-4.96
X46.19Y-7.5
X48.73Y-4.96
X48.73Y-7.5
X51.27Y-4.96
X51.27Y-7.5
X53.81Y-4.96
X53.81Y-7.5
X56.35Y-4.96
X56.35Y-7.5
X58.89Y-4.96
X58.89Y-7.5
X61.43Y-4.96
X61.43Y-7.5
X63.97Y-4.96
X63.97Y-7.5
X66.51Y-4.96
X66.51Y-7.5
X69.05Y-4.96
X69.05Y-7.5
X71.59Y-4.96
X71.59Y-7.5
X74.13Y-4.96
X74.13Y-7.5
X76.67Y-4.96
X76.67Y-7.5
X79.21Y-4.96
X79.21Y-7.5
X81.75Y-4.96
X81.75Y-7.5
X84.29Y-4.96
X84.29Y-7.5
X86.83Y-4.96
X86.83Y-7.5
X89.37Y-4.96
X89.37Y-7.5
T5
X4.0Y-50.0
X96.0Y-50.0
M30
