%TF.GenerationSoftware,KiCad,Pcbnew,10.0.5*%
%TF.CreationDate,2026-10-01T12:37:06-04:00*%
%TF.ProjectId,panela,70616e65-6c61-42e6-9b69-6361645f7063,rev?*%
%TF.SameCoordinates,Original*%
%TF.FileFunction,Legend,Top*%
%TF.FilePolarity,Positive*%
%FSLAX46Y46*%
G04 Gerber Fmt 4.6, Leading zero omitted, Abs format (unit mm)*
G04 Created by KiCad (PCBNEW 10.0.5) date 2026-10-01 12:37:06*
%MOMM*%
%LPD*%
G01*
G04 APERTURE LIST*
%ADD10C,0.150000*%
%ADD11C,0.250000*%
%ADD12C,0.120000*%
%ADD13C,0.000000*%
G04 APERTURE END LIST*
D10*
X8590588Y-5414819D02*
X8019160Y-5414819D01*
X8304874Y-5414819D02*
X8304874Y-4414819D01*
X8304874Y-4414819D02*
X8209636Y-4557676D01*
X8209636Y-4557676D02*
X8114398Y-4652914D01*
X8114398Y-4652914D02*
X8019160Y-4700533D01*
X8019160Y-7050057D02*
X8066779Y-7002438D01*
X8066779Y-7002438D02*
X8162017Y-6954819D01*
X8162017Y-6954819D02*
X8400112Y-6954819D01*
X8400112Y-6954819D02*
X8495350Y-7002438D01*
X8495350Y-7002438D02*
X8542969Y-7050057D01*
X8542969Y-7050057D02*
X8590588Y-7145295D01*
X8590588Y-7145295D02*
X8590588Y-7240533D01*
X8590588Y-7240533D02*
X8542969Y-7383390D01*
X8542969Y-7383390D02*
X7971541Y-7954819D01*
X7971541Y-7954819D02*
X8590588Y-7954819D01*
X14029160Y-52587200D02*
X14172017Y-52634819D01*
X14172017Y-52634819D02*
X14410112Y-52634819D01*
X14410112Y-52634819D02*
X14505350Y-52587200D01*
X14505350Y-52587200D02*
X14552969Y-52539580D01*
X14552969Y-52539580D02*
X14600588Y-52444342D01*
X14600588Y-52444342D02*
X14600588Y-52349104D01*
X14600588Y-52349104D02*
X14552969Y-52253866D01*
X14552969Y-52253866D02*
X14505350Y-52206247D01*
X14505350Y-52206247D02*
X14410112Y-52158628D01*
X14410112Y-52158628D02*
X14219636Y-52111009D01*
X14219636Y-52111009D02*
X14124398Y-52063390D01*
X14124398Y-52063390D02*
X14076779Y-52015771D01*
X14076779Y-52015771D02*
X14029160Y-51920533D01*
X14029160Y-51920533D02*
X14029160Y-51825295D01*
X14029160Y-51825295D02*
X14076779Y-51730057D01*
X14076779Y-51730057D02*
X14124398Y-51682438D01*
X14124398Y-51682438D02*
X14219636Y-51634819D01*
X14219636Y-51634819D02*
X14457731Y-51634819D01*
X14457731Y-51634819D02*
X14600588Y-51682438D01*
X15029160Y-51634819D02*
X15029160Y-52444342D01*
X15029160Y-52444342D02*
X15076779Y-52539580D01*
X15076779Y-52539580D02*
X15124398Y-52587200D01*
X15124398Y-52587200D02*
X15219636Y-52634819D01*
X15219636Y-52634819D02*
X15410112Y-52634819D01*
X15410112Y-52634819D02*
X15505350Y-52587200D01*
X15505350Y-52587200D02*
X15552969Y-52539580D01*
X15552969Y-52539580D02*
X15600588Y-52444342D01*
X15600588Y-52444342D02*
X15600588Y-51634819D01*
X16410112Y-52111009D02*
X16552969Y-52158628D01*
X16552969Y-52158628D02*
X16600588Y-52206247D01*
X16600588Y-52206247D02*
X16648207Y-52301485D01*
X16648207Y-52301485D02*
X16648207Y-52444342D01*
X16648207Y-52444342D02*
X16600588Y-52539580D01*
X16600588Y-52539580D02*
X16552969Y-52587200D01*
X16552969Y-52587200D02*
X16457731Y-52634819D01*
X16457731Y-52634819D02*
X16076779Y-52634819D01*
X16076779Y-52634819D02*
X16076779Y-51634819D01*
X16076779Y-51634819D02*
X16410112Y-51634819D01*
X16410112Y-51634819D02*
X16505350Y-51682438D01*
X16505350Y-51682438D02*
X16552969Y-51730057D01*
X16552969Y-51730057D02*
X16600588Y-51825295D01*
X16600588Y-51825295D02*
X16600588Y-51920533D01*
X16600588Y-51920533D02*
X16552969Y-52015771D01*
X16552969Y-52015771D02*
X16505350Y-52063390D01*
X16505350Y-52063390D02*
X16410112Y-52111009D01*
X16410112Y-52111009D02*
X16076779Y-52111009D01*
X14229160Y-21869104D02*
X14705350Y-21869104D01*
X14133922Y-22154819D02*
X14467255Y-21154819D01*
X14467255Y-21154819D02*
X14800588Y-22154819D01*
X15038684Y-21154819D02*
X15657731Y-21154819D01*
X15657731Y-21154819D02*
X15324398Y-21535771D01*
X15324398Y-21535771D02*
X15467255Y-21535771D01*
X15467255Y-21535771D02*
X15562493Y-21583390D01*
X15562493Y-21583390D02*
X15610112Y-21631009D01*
X15610112Y-21631009D02*
X15657731Y-21726247D01*
X15657731Y-21726247D02*
X15657731Y-21964342D01*
X15657731Y-21964342D02*
X15610112Y-22059580D01*
X15610112Y-22059580D02*
X15562493Y-22107200D01*
X15562493Y-22107200D02*
X15467255Y-22154819D01*
X15467255Y-22154819D02*
X15181541Y-22154819D01*
X15181541Y-22154819D02*
X15086303Y-22107200D01*
X15086303Y-22107200D02*
X15038684Y-22059580D01*
X14276779Y-37394819D02*
X14276779Y-36394819D01*
X14276779Y-36394819D02*
X14514874Y-36394819D01*
X14514874Y-36394819D02*
X14657731Y-36442438D01*
X14657731Y-36442438D02*
X14752969Y-36537676D01*
X14752969Y-36537676D02*
X14800588Y-36632914D01*
X14800588Y-36632914D02*
X14848207Y-36823390D01*
X14848207Y-36823390D02*
X14848207Y-36966247D01*
X14848207Y-36966247D02*
X14800588Y-37156723D01*
X14800588Y-37156723D02*
X14752969Y-37251961D01*
X14752969Y-37251961D02*
X14657731Y-37347200D01*
X14657731Y-37347200D02*
X14514874Y-37394819D01*
X14514874Y-37394819D02*
X14276779Y-37394819D01*
X15181541Y-36394819D02*
X15800588Y-36394819D01*
X15800588Y-36394819D02*
X15467255Y-36775771D01*
X15467255Y-36775771D02*
X15610112Y-36775771D01*
X15610112Y-36775771D02*
X15705350Y-36823390D01*
X15705350Y-36823390D02*
X15752969Y-36871009D01*
X15752969Y-36871009D02*
X15800588Y-36966247D01*
X15800588Y-36966247D02*
X15800588Y-37204342D01*
X15800588Y-37204342D02*
X15752969Y-37299580D01*
X15752969Y-37299580D02*
X15705350Y-37347200D01*
X15705350Y-37347200D02*
X15610112Y-37394819D01*
X15610112Y-37394819D02*
X15324398Y-37394819D01*
X15324398Y-37394819D02*
X15229160Y-37347200D01*
X15229160Y-37347200D02*
X15181541Y-37299580D01*
X21909160Y-21869104D02*
X22385350Y-21869104D01*
X21813922Y-22154819D02*
X22147255Y-21154819D01*
X22147255Y-21154819D02*
X22480588Y-22154819D01*
X22766303Y-21250057D02*
X22813922Y-21202438D01*
X22813922Y-21202438D02*
X22909160Y-21154819D01*
X22909160Y-21154819D02*
X23147255Y-21154819D01*
X23147255Y-21154819D02*
X23242493Y-21202438D01*
X23242493Y-21202438D02*
X23290112Y-21250057D01*
X23290112Y-21250057D02*
X23337731Y-21345295D01*
X23337731Y-21345295D02*
X23337731Y-21440533D01*
X23337731Y-21440533D02*
X23290112Y-21583390D01*
X23290112Y-21583390D02*
X22718684Y-22154819D01*
X22718684Y-22154819D02*
X23337731Y-22154819D01*
X21956779Y-37394819D02*
X21956779Y-36394819D01*
X21956779Y-36394819D02*
X22194874Y-36394819D01*
X22194874Y-36394819D02*
X22337731Y-36442438D01*
X22337731Y-36442438D02*
X22432969Y-36537676D01*
X22432969Y-36537676D02*
X22480588Y-36632914D01*
X22480588Y-36632914D02*
X22528207Y-36823390D01*
X22528207Y-36823390D02*
X22528207Y-36966247D01*
X22528207Y-36966247D02*
X22480588Y-37156723D01*
X22480588Y-37156723D02*
X22432969Y-37251961D01*
X22432969Y-37251961D02*
X22337731Y-37347200D01*
X22337731Y-37347200D02*
X22194874Y-37394819D01*
X22194874Y-37394819D02*
X21956779Y-37394819D01*
X22909160Y-36490057D02*
X22956779Y-36442438D01*
X22956779Y-36442438D02*
X23052017Y-36394819D01*
X23052017Y-36394819D02*
X23290112Y-36394819D01*
X23290112Y-36394819D02*
X23385350Y-36442438D01*
X23385350Y-36442438D02*
X23432969Y-36490057D01*
X23432969Y-36490057D02*
X23480588Y-36585295D01*
X23480588Y-36585295D02*
X23480588Y-36680533D01*
X23480588Y-36680533D02*
X23432969Y-36823390D01*
X23432969Y-36823390D02*
X22861541Y-37394819D01*
X22861541Y-37394819D02*
X23480588Y-37394819D01*
X21956779Y-52111009D02*
X22290112Y-52111009D01*
X22432969Y-52634819D02*
X21956779Y-52634819D01*
X21956779Y-52634819D02*
X21956779Y-51634819D01*
X21956779Y-51634819D02*
X22432969Y-51634819D01*
X23052017Y-51634819D02*
X23242493Y-51634819D01*
X23242493Y-51634819D02*
X23337731Y-51682438D01*
X23337731Y-51682438D02*
X23432969Y-51777676D01*
X23432969Y-51777676D02*
X23480588Y-51968152D01*
X23480588Y-51968152D02*
X23480588Y-52301485D01*
X23480588Y-52301485D02*
X23432969Y-52491961D01*
X23432969Y-52491961D02*
X23337731Y-52587200D01*
X23337731Y-52587200D02*
X23242493Y-52634819D01*
X23242493Y-52634819D02*
X23052017Y-52634819D01*
X23052017Y-52634819D02*
X22956779Y-52587200D01*
X22956779Y-52587200D02*
X22861541Y-52491961D01*
X22861541Y-52491961D02*
X22813922Y-52301485D01*
X22813922Y-52301485D02*
X22813922Y-51968152D01*
X22813922Y-51968152D02*
X22861541Y-51777676D01*
X22861541Y-51777676D02*
X22956779Y-51682438D01*
X22956779Y-51682438D02*
X23052017Y-51634819D01*
X29589160Y-21869104D02*
X30065350Y-21869104D01*
X29493922Y-22154819D02*
X29827255Y-21154819D01*
X29827255Y-21154819D02*
X30160588Y-22154819D01*
X31017731Y-22154819D02*
X30446303Y-22154819D01*
X30732017Y-22154819D02*
X30732017Y-21154819D01*
X30732017Y-21154819D02*
X30636779Y-21297676D01*
X30636779Y-21297676D02*
X30541541Y-21392914D01*
X30541541Y-21392914D02*
X30446303Y-21440533D01*
X29636779Y-37394819D02*
X29636779Y-36394819D01*
X29636779Y-36394819D02*
X29874874Y-36394819D01*
X29874874Y-36394819D02*
X30017731Y-36442438D01*
X30017731Y-36442438D02*
X30112969Y-36537676D01*
X30112969Y-36537676D02*
X30160588Y-36632914D01*
X30160588Y-36632914D02*
X30208207Y-36823390D01*
X30208207Y-36823390D02*
X30208207Y-36966247D01*
X30208207Y-36966247D02*
X30160588Y-37156723D01*
X30160588Y-37156723D02*
X30112969Y-37251961D01*
X30112969Y-37251961D02*
X30017731Y-37347200D01*
X30017731Y-37347200D02*
X29874874Y-37394819D01*
X29874874Y-37394819D02*
X29636779Y-37394819D01*
X31160588Y-37394819D02*
X30589160Y-37394819D01*
X30874874Y-37394819D02*
X30874874Y-36394819D01*
X30874874Y-36394819D02*
X30779636Y-36537676D01*
X30779636Y-36537676D02*
X30684398Y-36632914D01*
X30684398Y-36632914D02*
X30589160Y-36680533D01*
X29589160Y-52349104D02*
X30065350Y-52349104D01*
X29493922Y-52634819D02*
X29827255Y-51634819D01*
X29827255Y-51634819D02*
X30160588Y-52634819D01*
X30493922Y-52634819D02*
X30493922Y-51634819D01*
X37269160Y-21869104D02*
X37745350Y-21869104D01*
X37173922Y-22154819D02*
X37507255Y-21154819D01*
X37507255Y-21154819D02*
X37840588Y-22154819D01*
X38364398Y-21154819D02*
X38459636Y-21154819D01*
X38459636Y-21154819D02*
X38554874Y-21202438D01*
X38554874Y-21202438D02*
X38602493Y-21250057D01*
X38602493Y-21250057D02*
X38650112Y-21345295D01*
X38650112Y-21345295D02*
X38697731Y-21535771D01*
X38697731Y-21535771D02*
X38697731Y-21773866D01*
X38697731Y-21773866D02*
X38650112Y-21964342D01*
X38650112Y-21964342D02*
X38602493Y-22059580D01*
X38602493Y-22059580D02*
X38554874Y-22107200D01*
X38554874Y-22107200D02*
X38459636Y-22154819D01*
X38459636Y-22154819D02*
X38364398Y-22154819D01*
X38364398Y-22154819D02*
X38269160Y-22107200D01*
X38269160Y-22107200D02*
X38221541Y-22059580D01*
X38221541Y-22059580D02*
X38173922Y-21964342D01*
X38173922Y-21964342D02*
X38126303Y-21773866D01*
X38126303Y-21773866D02*
X38126303Y-21535771D01*
X38126303Y-21535771D02*
X38173922Y-21345295D01*
X38173922Y-21345295D02*
X38221541Y-21250057D01*
X38221541Y-21250057D02*
X38269160Y-21202438D01*
X38269160Y-21202438D02*
X38364398Y-21154819D01*
X37316779Y-37394819D02*
X37316779Y-36394819D01*
X37316779Y-36394819D02*
X37554874Y-36394819D01*
X37554874Y-36394819D02*
X37697731Y-36442438D01*
X37697731Y-36442438D02*
X37792969Y-36537676D01*
X37792969Y-36537676D02*
X37840588Y-36632914D01*
X37840588Y-36632914D02*
X37888207Y-36823390D01*
X37888207Y-36823390D02*
X37888207Y-36966247D01*
X37888207Y-36966247D02*
X37840588Y-37156723D01*
X37840588Y-37156723D02*
X37792969Y-37251961D01*
X37792969Y-37251961D02*
X37697731Y-37347200D01*
X37697731Y-37347200D02*
X37554874Y-37394819D01*
X37554874Y-37394819D02*
X37316779Y-37394819D01*
X38507255Y-36394819D02*
X38602493Y-36394819D01*
X38602493Y-36394819D02*
X38697731Y-36442438D01*
X38697731Y-36442438D02*
X38745350Y-36490057D01*
X38745350Y-36490057D02*
X38792969Y-36585295D01*
X38792969Y-36585295D02*
X38840588Y-36775771D01*
X38840588Y-36775771D02*
X38840588Y-37013866D01*
X38840588Y-37013866D02*
X38792969Y-37204342D01*
X38792969Y-37204342D02*
X38745350Y-37299580D01*
X38745350Y-37299580D02*
X38697731Y-37347200D01*
X38697731Y-37347200D02*
X38602493Y-37394819D01*
X38602493Y-37394819D02*
X38507255Y-37394819D01*
X38507255Y-37394819D02*
X38412017Y-37347200D01*
X38412017Y-37347200D02*
X38364398Y-37299580D01*
X38364398Y-37299580D02*
X38316779Y-37204342D01*
X38316779Y-37204342D02*
X38269160Y-37013866D01*
X38269160Y-37013866D02*
X38269160Y-36775771D01*
X38269160Y-36775771D02*
X38316779Y-36585295D01*
X38316779Y-36585295D02*
X38364398Y-36490057D01*
X38364398Y-36490057D02*
X38412017Y-36442438D01*
X38412017Y-36442438D02*
X38507255Y-36394819D01*
X37269160Y-52349104D02*
X37745350Y-52349104D01*
X37173922Y-52634819D02*
X37507255Y-51634819D01*
X37507255Y-51634819D02*
X37840588Y-52634819D01*
X38364398Y-51634819D02*
X38554874Y-51634819D01*
X38554874Y-51634819D02*
X38650112Y-51682438D01*
X38650112Y-51682438D02*
X38745350Y-51777676D01*
X38745350Y-51777676D02*
X38792969Y-51968152D01*
X38792969Y-51968152D02*
X38792969Y-52301485D01*
X38792969Y-52301485D02*
X38745350Y-52491961D01*
X38745350Y-52491961D02*
X38650112Y-52587200D01*
X38650112Y-52587200D02*
X38554874Y-52634819D01*
X38554874Y-52634819D02*
X38364398Y-52634819D01*
X38364398Y-52634819D02*
X38269160Y-52587200D01*
X38269160Y-52587200D02*
X38173922Y-52491961D01*
X38173922Y-52491961D02*
X38126303Y-52301485D01*
X38126303Y-52301485D02*
X38126303Y-51968152D01*
X38126303Y-51968152D02*
X38173922Y-51777676D01*
X38173922Y-51777676D02*
X38269160Y-51682438D01*
X38269160Y-51682438D02*
X38364398Y-51634819D01*
X38159160Y-68569104D02*
X38635350Y-68569104D01*
X38063922Y-68854819D02*
X38397255Y-67854819D01*
X38397255Y-67854819D02*
X38730588Y-68854819D01*
X39254398Y-67854819D02*
X39349636Y-67854819D01*
X39349636Y-67854819D02*
X39444874Y-67902438D01*
X39444874Y-67902438D02*
X39492493Y-67950057D01*
X39492493Y-67950057D02*
X39540112Y-68045295D01*
X39540112Y-68045295D02*
X39587731Y-68235771D01*
X39587731Y-68235771D02*
X39587731Y-68473866D01*
X39587731Y-68473866D02*
X39540112Y-68664342D01*
X39540112Y-68664342D02*
X39492493Y-68759580D01*
X39492493Y-68759580D02*
X39444874Y-68807200D01*
X39444874Y-68807200D02*
X39349636Y-68854819D01*
X39349636Y-68854819D02*
X39254398Y-68854819D01*
X39254398Y-68854819D02*
X39159160Y-68807200D01*
X39159160Y-68807200D02*
X39111541Y-68759580D01*
X39111541Y-68759580D02*
X39063922Y-68664342D01*
X39063922Y-68664342D02*
X39016303Y-68473866D01*
X39016303Y-68473866D02*
X39016303Y-68235771D01*
X39016303Y-68235771D02*
X39063922Y-68045295D01*
X39063922Y-68045295D02*
X39111541Y-67950057D01*
X39111541Y-67950057D02*
X39159160Y-67902438D01*
X39159160Y-67902438D02*
X39254398Y-67854819D01*
X40730589Y-68569104D02*
X41206779Y-68569104D01*
X40635351Y-68854819D02*
X40968684Y-67854819D01*
X40968684Y-67854819D02*
X41302017Y-68854819D01*
X42159160Y-68854819D02*
X41587732Y-68854819D01*
X41873446Y-68854819D02*
X41873446Y-67854819D01*
X41873446Y-67854819D02*
X41778208Y-67997676D01*
X41778208Y-67997676D02*
X41682970Y-68092914D01*
X41682970Y-68092914D02*
X41587732Y-68140533D01*
X43302018Y-68569104D02*
X43778208Y-68569104D01*
X43206780Y-68854819D02*
X43540113Y-67854819D01*
X43540113Y-67854819D02*
X43873446Y-68854819D01*
X44159161Y-67950057D02*
X44206780Y-67902438D01*
X44206780Y-67902438D02*
X44302018Y-67854819D01*
X44302018Y-67854819D02*
X44540113Y-67854819D01*
X44540113Y-67854819D02*
X44635351Y-67902438D01*
X44635351Y-67902438D02*
X44682970Y-67950057D01*
X44682970Y-67950057D02*
X44730589Y-68045295D01*
X44730589Y-68045295D02*
X44730589Y-68140533D01*
X44730589Y-68140533D02*
X44682970Y-68283390D01*
X44682970Y-68283390D02*
X44111542Y-68854819D01*
X44111542Y-68854819D02*
X44730589Y-68854819D01*
X45873447Y-68569104D02*
X46349637Y-68569104D01*
X45778209Y-68854819D02*
X46111542Y-67854819D01*
X46111542Y-67854819D02*
X46444875Y-68854819D01*
X46682971Y-67854819D02*
X47302018Y-67854819D01*
X47302018Y-67854819D02*
X46968685Y-68235771D01*
X46968685Y-68235771D02*
X47111542Y-68235771D01*
X47111542Y-68235771D02*
X47206780Y-68283390D01*
X47206780Y-68283390D02*
X47254399Y-68331009D01*
X47254399Y-68331009D02*
X47302018Y-68426247D01*
X47302018Y-68426247D02*
X47302018Y-68664342D01*
X47302018Y-68664342D02*
X47254399Y-68759580D01*
X47254399Y-68759580D02*
X47206780Y-68807200D01*
X47206780Y-68807200D02*
X47111542Y-68854819D01*
X47111542Y-68854819D02*
X46825828Y-68854819D01*
X46825828Y-68854819D02*
X46730590Y-68807200D01*
X46730590Y-68807200D02*
X46682971Y-68759580D01*
X48825828Y-68331009D02*
X48968685Y-68378628D01*
X48968685Y-68378628D02*
X49016304Y-68426247D01*
X49016304Y-68426247D02*
X49063923Y-68521485D01*
X49063923Y-68521485D02*
X49063923Y-68664342D01*
X49063923Y-68664342D02*
X49016304Y-68759580D01*
X49016304Y-68759580D02*
X48968685Y-68807200D01*
X48968685Y-68807200D02*
X48873447Y-68854819D01*
X48873447Y-68854819D02*
X48492495Y-68854819D01*
X48492495Y-68854819D02*
X48492495Y-67854819D01*
X48492495Y-67854819D02*
X48825828Y-67854819D01*
X48825828Y-67854819D02*
X48921066Y-67902438D01*
X48921066Y-67902438D02*
X48968685Y-67950057D01*
X48968685Y-67950057D02*
X49016304Y-68045295D01*
X49016304Y-68045295D02*
X49016304Y-68140533D01*
X49016304Y-68140533D02*
X48968685Y-68235771D01*
X48968685Y-68235771D02*
X48921066Y-68283390D01*
X48921066Y-68283390D02*
X48825828Y-68331009D01*
X48825828Y-68331009D02*
X48492495Y-68331009D01*
X49682971Y-67854819D02*
X49778209Y-67854819D01*
X49778209Y-67854819D02*
X49873447Y-67902438D01*
X49873447Y-67902438D02*
X49921066Y-67950057D01*
X49921066Y-67950057D02*
X49968685Y-68045295D01*
X49968685Y-68045295D02*
X50016304Y-68235771D01*
X50016304Y-68235771D02*
X50016304Y-68473866D01*
X50016304Y-68473866D02*
X49968685Y-68664342D01*
X49968685Y-68664342D02*
X49921066Y-68759580D01*
X49921066Y-68759580D02*
X49873447Y-68807200D01*
X49873447Y-68807200D02*
X49778209Y-68854819D01*
X49778209Y-68854819D02*
X49682971Y-68854819D01*
X49682971Y-68854819D02*
X49587733Y-68807200D01*
X49587733Y-68807200D02*
X49540114Y-68759580D01*
X49540114Y-68759580D02*
X49492495Y-68664342D01*
X49492495Y-68664342D02*
X49444876Y-68473866D01*
X49444876Y-68473866D02*
X49444876Y-68235771D01*
X49444876Y-68235771D02*
X49492495Y-68045295D01*
X49492495Y-68045295D02*
X49540114Y-67950057D01*
X49540114Y-67950057D02*
X49587733Y-67902438D01*
X49587733Y-67902438D02*
X49682971Y-67854819D01*
X51540114Y-68331009D02*
X51682971Y-68378628D01*
X51682971Y-68378628D02*
X51730590Y-68426247D01*
X51730590Y-68426247D02*
X51778209Y-68521485D01*
X51778209Y-68521485D02*
X51778209Y-68664342D01*
X51778209Y-68664342D02*
X51730590Y-68759580D01*
X51730590Y-68759580D02*
X51682971Y-68807200D01*
X51682971Y-68807200D02*
X51587733Y-68854819D01*
X51587733Y-68854819D02*
X51206781Y-68854819D01*
X51206781Y-68854819D02*
X51206781Y-67854819D01*
X51206781Y-67854819D02*
X51540114Y-67854819D01*
X51540114Y-67854819D02*
X51635352Y-67902438D01*
X51635352Y-67902438D02*
X51682971Y-67950057D01*
X51682971Y-67950057D02*
X51730590Y-68045295D01*
X51730590Y-68045295D02*
X51730590Y-68140533D01*
X51730590Y-68140533D02*
X51682971Y-68235771D01*
X51682971Y-68235771D02*
X51635352Y-68283390D01*
X51635352Y-68283390D02*
X51540114Y-68331009D01*
X51540114Y-68331009D02*
X51206781Y-68331009D01*
X52730590Y-68854819D02*
X52159162Y-68854819D01*
X52444876Y-68854819D02*
X52444876Y-67854819D01*
X52444876Y-67854819D02*
X52349638Y-67997676D01*
X52349638Y-67997676D02*
X52254400Y-68092914D01*
X52254400Y-68092914D02*
X52159162Y-68140533D01*
X54254400Y-68331009D02*
X54397257Y-68378628D01*
X54397257Y-68378628D02*
X54444876Y-68426247D01*
X54444876Y-68426247D02*
X54492495Y-68521485D01*
X54492495Y-68521485D02*
X54492495Y-68664342D01*
X54492495Y-68664342D02*
X54444876Y-68759580D01*
X54444876Y-68759580D02*
X54397257Y-68807200D01*
X54397257Y-68807200D02*
X54302019Y-68854819D01*
X54302019Y-68854819D02*
X53921067Y-68854819D01*
X53921067Y-68854819D02*
X53921067Y-67854819D01*
X53921067Y-67854819D02*
X54254400Y-67854819D01*
X54254400Y-67854819D02*
X54349638Y-67902438D01*
X54349638Y-67902438D02*
X54397257Y-67950057D01*
X54397257Y-67950057D02*
X54444876Y-68045295D01*
X54444876Y-68045295D02*
X54444876Y-68140533D01*
X54444876Y-68140533D02*
X54397257Y-68235771D01*
X54397257Y-68235771D02*
X54349638Y-68283390D01*
X54349638Y-68283390D02*
X54254400Y-68331009D01*
X54254400Y-68331009D02*
X53921067Y-68331009D01*
X54873448Y-67950057D02*
X54921067Y-67902438D01*
X54921067Y-67902438D02*
X55016305Y-67854819D01*
X55016305Y-67854819D02*
X55254400Y-67854819D01*
X55254400Y-67854819D02*
X55349638Y-67902438D01*
X55349638Y-67902438D02*
X55397257Y-67950057D01*
X55397257Y-67950057D02*
X55444876Y-68045295D01*
X55444876Y-68045295D02*
X55444876Y-68140533D01*
X55444876Y-68140533D02*
X55397257Y-68283390D01*
X55397257Y-68283390D02*
X54825829Y-68854819D01*
X54825829Y-68854819D02*
X55444876Y-68854819D01*
X56968686Y-68331009D02*
X57111543Y-68378628D01*
X57111543Y-68378628D02*
X57159162Y-68426247D01*
X57159162Y-68426247D02*
X57206781Y-68521485D01*
X57206781Y-68521485D02*
X57206781Y-68664342D01*
X57206781Y-68664342D02*
X57159162Y-68759580D01*
X57159162Y-68759580D02*
X57111543Y-68807200D01*
X57111543Y-68807200D02*
X57016305Y-68854819D01*
X57016305Y-68854819D02*
X56635353Y-68854819D01*
X56635353Y-68854819D02*
X56635353Y-67854819D01*
X56635353Y-67854819D02*
X56968686Y-67854819D01*
X56968686Y-67854819D02*
X57063924Y-67902438D01*
X57063924Y-67902438D02*
X57111543Y-67950057D01*
X57111543Y-67950057D02*
X57159162Y-68045295D01*
X57159162Y-68045295D02*
X57159162Y-68140533D01*
X57159162Y-68140533D02*
X57111543Y-68235771D01*
X57111543Y-68235771D02*
X57063924Y-68283390D01*
X57063924Y-68283390D02*
X56968686Y-68331009D01*
X56968686Y-68331009D02*
X56635353Y-68331009D01*
X57540115Y-67854819D02*
X58159162Y-67854819D01*
X58159162Y-67854819D02*
X57825829Y-68235771D01*
X57825829Y-68235771D02*
X57968686Y-68235771D01*
X57968686Y-68235771D02*
X58063924Y-68283390D01*
X58063924Y-68283390D02*
X58111543Y-68331009D01*
X58111543Y-68331009D02*
X58159162Y-68426247D01*
X58159162Y-68426247D02*
X58159162Y-68664342D01*
X58159162Y-68664342D02*
X58111543Y-68759580D01*
X58111543Y-68759580D02*
X58063924Y-68807200D01*
X58063924Y-68807200D02*
X57968686Y-68854819D01*
X57968686Y-68854819D02*
X57682972Y-68854819D01*
X57682972Y-68854819D02*
X57587734Y-68807200D01*
X57587734Y-68807200D02*
X57540115Y-68759580D01*
X45330112Y-21631009D02*
X45472969Y-21678628D01*
X45472969Y-21678628D02*
X45520588Y-21726247D01*
X45520588Y-21726247D02*
X45568207Y-21821485D01*
X45568207Y-21821485D02*
X45568207Y-21964342D01*
X45568207Y-21964342D02*
X45520588Y-22059580D01*
X45520588Y-22059580D02*
X45472969Y-22107200D01*
X45472969Y-22107200D02*
X45377731Y-22154819D01*
X45377731Y-22154819D02*
X44996779Y-22154819D01*
X44996779Y-22154819D02*
X44996779Y-21154819D01*
X44996779Y-21154819D02*
X45330112Y-21154819D01*
X45330112Y-21154819D02*
X45425350Y-21202438D01*
X45425350Y-21202438D02*
X45472969Y-21250057D01*
X45472969Y-21250057D02*
X45520588Y-21345295D01*
X45520588Y-21345295D02*
X45520588Y-21440533D01*
X45520588Y-21440533D02*
X45472969Y-21535771D01*
X45472969Y-21535771D02*
X45425350Y-21583390D01*
X45425350Y-21583390D02*
X45330112Y-21631009D01*
X45330112Y-21631009D02*
X44996779Y-21631009D01*
X45901541Y-21154819D02*
X46520588Y-21154819D01*
X46520588Y-21154819D02*
X46187255Y-21535771D01*
X46187255Y-21535771D02*
X46330112Y-21535771D01*
X46330112Y-21535771D02*
X46425350Y-21583390D01*
X46425350Y-21583390D02*
X46472969Y-21631009D01*
X46472969Y-21631009D02*
X46520588Y-21726247D01*
X46520588Y-21726247D02*
X46520588Y-21964342D01*
X46520588Y-21964342D02*
X46472969Y-22059580D01*
X46472969Y-22059580D02*
X46425350Y-22107200D01*
X46425350Y-22107200D02*
X46330112Y-22154819D01*
X46330112Y-22154819D02*
X46044398Y-22154819D01*
X46044398Y-22154819D02*
X45949160Y-22107200D01*
X45949160Y-22107200D02*
X45901541Y-22059580D01*
X45568207Y-37299580D02*
X45520588Y-37347200D01*
X45520588Y-37347200D02*
X45377731Y-37394819D01*
X45377731Y-37394819D02*
X45282493Y-37394819D01*
X45282493Y-37394819D02*
X45139636Y-37347200D01*
X45139636Y-37347200D02*
X45044398Y-37251961D01*
X45044398Y-37251961D02*
X44996779Y-37156723D01*
X44996779Y-37156723D02*
X44949160Y-36966247D01*
X44949160Y-36966247D02*
X44949160Y-36823390D01*
X44949160Y-36823390D02*
X44996779Y-36632914D01*
X44996779Y-36632914D02*
X45044398Y-36537676D01*
X45044398Y-36537676D02*
X45139636Y-36442438D01*
X45139636Y-36442438D02*
X45282493Y-36394819D01*
X45282493Y-36394819D02*
X45377731Y-36394819D01*
X45377731Y-36394819D02*
X45520588Y-36442438D01*
X45520588Y-36442438D02*
X45568207Y-36490057D01*
X46330112Y-36871009D02*
X45996779Y-36871009D01*
X45996779Y-37394819D02*
X45996779Y-36394819D01*
X45996779Y-36394819D02*
X46472969Y-36394819D01*
X45330112Y-52111009D02*
X45472969Y-52158628D01*
X45472969Y-52158628D02*
X45520588Y-52206247D01*
X45520588Y-52206247D02*
X45568207Y-52301485D01*
X45568207Y-52301485D02*
X45568207Y-52444342D01*
X45568207Y-52444342D02*
X45520588Y-52539580D01*
X45520588Y-52539580D02*
X45472969Y-52587200D01*
X45472969Y-52587200D02*
X45377731Y-52634819D01*
X45377731Y-52634819D02*
X44996779Y-52634819D01*
X44996779Y-52634819D02*
X44996779Y-51634819D01*
X44996779Y-51634819D02*
X45330112Y-51634819D01*
X45330112Y-51634819D02*
X45425350Y-51682438D01*
X45425350Y-51682438D02*
X45472969Y-51730057D01*
X45472969Y-51730057D02*
X45520588Y-51825295D01*
X45520588Y-51825295D02*
X45520588Y-51920533D01*
X45520588Y-51920533D02*
X45472969Y-52015771D01*
X45472969Y-52015771D02*
X45425350Y-52063390D01*
X45425350Y-52063390D02*
X45330112Y-52111009D01*
X45330112Y-52111009D02*
X44996779Y-52111009D01*
X45996779Y-52634819D02*
X45996779Y-51634819D01*
X53010112Y-21631009D02*
X53152969Y-21678628D01*
X53152969Y-21678628D02*
X53200588Y-21726247D01*
X53200588Y-21726247D02*
X53248207Y-21821485D01*
X53248207Y-21821485D02*
X53248207Y-21964342D01*
X53248207Y-21964342D02*
X53200588Y-22059580D01*
X53200588Y-22059580D02*
X53152969Y-22107200D01*
X53152969Y-22107200D02*
X53057731Y-22154819D01*
X53057731Y-22154819D02*
X52676779Y-22154819D01*
X52676779Y-22154819D02*
X52676779Y-21154819D01*
X52676779Y-21154819D02*
X53010112Y-21154819D01*
X53010112Y-21154819D02*
X53105350Y-21202438D01*
X53105350Y-21202438D02*
X53152969Y-21250057D01*
X53152969Y-21250057D02*
X53200588Y-21345295D01*
X53200588Y-21345295D02*
X53200588Y-21440533D01*
X53200588Y-21440533D02*
X53152969Y-21535771D01*
X53152969Y-21535771D02*
X53105350Y-21583390D01*
X53105350Y-21583390D02*
X53010112Y-21631009D01*
X53010112Y-21631009D02*
X52676779Y-21631009D01*
X53629160Y-21250057D02*
X53676779Y-21202438D01*
X53676779Y-21202438D02*
X53772017Y-21154819D01*
X53772017Y-21154819D02*
X54010112Y-21154819D01*
X54010112Y-21154819D02*
X54105350Y-21202438D01*
X54105350Y-21202438D02*
X54152969Y-21250057D01*
X54152969Y-21250057D02*
X54200588Y-21345295D01*
X54200588Y-21345295D02*
X54200588Y-21440533D01*
X54200588Y-21440533D02*
X54152969Y-21583390D01*
X54152969Y-21583390D02*
X53581541Y-22154819D01*
X53581541Y-22154819D02*
X54200588Y-22154819D01*
X52581541Y-36394819D02*
X53248207Y-36394819D01*
X53248207Y-36394819D02*
X52581541Y-37394819D01*
X52581541Y-37394819D02*
X53248207Y-37394819D01*
X53962493Y-36871009D02*
X53629160Y-36871009D01*
X53629160Y-37394819D02*
X53629160Y-36394819D01*
X53629160Y-36394819D02*
X54105350Y-36394819D01*
X53010112Y-52111009D02*
X53152969Y-52158628D01*
X53152969Y-52158628D02*
X53200588Y-52206247D01*
X53200588Y-52206247D02*
X53248207Y-52301485D01*
X53248207Y-52301485D02*
X53248207Y-52444342D01*
X53248207Y-52444342D02*
X53200588Y-52539580D01*
X53200588Y-52539580D02*
X53152969Y-52587200D01*
X53152969Y-52587200D02*
X53057731Y-52634819D01*
X53057731Y-52634819D02*
X52676779Y-52634819D01*
X52676779Y-52634819D02*
X52676779Y-51634819D01*
X52676779Y-51634819D02*
X53010112Y-51634819D01*
X53010112Y-51634819D02*
X53105350Y-51682438D01*
X53105350Y-51682438D02*
X53152969Y-51730057D01*
X53152969Y-51730057D02*
X53200588Y-51825295D01*
X53200588Y-51825295D02*
X53200588Y-51920533D01*
X53200588Y-51920533D02*
X53152969Y-52015771D01*
X53152969Y-52015771D02*
X53105350Y-52063390D01*
X53105350Y-52063390D02*
X53010112Y-52111009D01*
X53010112Y-52111009D02*
X52676779Y-52111009D01*
X53867255Y-51634819D02*
X54057731Y-51634819D01*
X54057731Y-51634819D02*
X54152969Y-51682438D01*
X54152969Y-51682438D02*
X54248207Y-51777676D01*
X54248207Y-51777676D02*
X54295826Y-51968152D01*
X54295826Y-51968152D02*
X54295826Y-52301485D01*
X54295826Y-52301485D02*
X54248207Y-52491961D01*
X54248207Y-52491961D02*
X54152969Y-52587200D01*
X54152969Y-52587200D02*
X54057731Y-52634819D01*
X54057731Y-52634819D02*
X53867255Y-52634819D01*
X53867255Y-52634819D02*
X53772017Y-52587200D01*
X53772017Y-52587200D02*
X53676779Y-52491961D01*
X53676779Y-52491961D02*
X53629160Y-52301485D01*
X53629160Y-52301485D02*
X53629160Y-51968152D01*
X53629160Y-51968152D02*
X53676779Y-51777676D01*
X53676779Y-51777676D02*
X53772017Y-51682438D01*
X53772017Y-51682438D02*
X53867255Y-51634819D01*
X55897255Y-92834819D02*
X56087731Y-92834819D01*
X56087731Y-92834819D02*
X56182969Y-92882438D01*
X56182969Y-92882438D02*
X56278207Y-92977676D01*
X56278207Y-92977676D02*
X56325826Y-93168152D01*
X56325826Y-93168152D02*
X56325826Y-93501485D01*
X56325826Y-93501485D02*
X56278207Y-93691961D01*
X56278207Y-93691961D02*
X56182969Y-93787200D01*
X56182969Y-93787200D02*
X56087731Y-93834819D01*
X56087731Y-93834819D02*
X55897255Y-93834819D01*
X55897255Y-93834819D02*
X55802017Y-93787200D01*
X55802017Y-93787200D02*
X55706779Y-93691961D01*
X55706779Y-93691961D02*
X55659160Y-93501485D01*
X55659160Y-93501485D02*
X55659160Y-93168152D01*
X55659160Y-93168152D02*
X55706779Y-92977676D01*
X55706779Y-92977676D02*
X55802017Y-92882438D01*
X55802017Y-92882438D02*
X55897255Y-92834819D01*
X56754398Y-93834819D02*
X56754398Y-92834819D01*
X56754398Y-92834819D02*
X57325826Y-93834819D01*
X57325826Y-93834819D02*
X57325826Y-92834819D01*
X58563922Y-93168152D02*
X59325827Y-93453866D01*
X59325827Y-93453866D02*
X58563922Y-93739580D01*
X60690112Y-21631009D02*
X60832969Y-21678628D01*
X60832969Y-21678628D02*
X60880588Y-21726247D01*
X60880588Y-21726247D02*
X60928207Y-21821485D01*
X60928207Y-21821485D02*
X60928207Y-21964342D01*
X60928207Y-21964342D02*
X60880588Y-22059580D01*
X60880588Y-22059580D02*
X60832969Y-22107200D01*
X60832969Y-22107200D02*
X60737731Y-22154819D01*
X60737731Y-22154819D02*
X60356779Y-22154819D01*
X60356779Y-22154819D02*
X60356779Y-21154819D01*
X60356779Y-21154819D02*
X60690112Y-21154819D01*
X60690112Y-21154819D02*
X60785350Y-21202438D01*
X60785350Y-21202438D02*
X60832969Y-21250057D01*
X60832969Y-21250057D02*
X60880588Y-21345295D01*
X60880588Y-21345295D02*
X60880588Y-21440533D01*
X60880588Y-21440533D02*
X60832969Y-21535771D01*
X60832969Y-21535771D02*
X60785350Y-21583390D01*
X60785350Y-21583390D02*
X60690112Y-21631009D01*
X60690112Y-21631009D02*
X60356779Y-21631009D01*
X61880588Y-22154819D02*
X61309160Y-22154819D01*
X61594874Y-22154819D02*
X61594874Y-21154819D01*
X61594874Y-21154819D02*
X61499636Y-21297676D01*
X61499636Y-21297676D02*
X61404398Y-21392914D01*
X61404398Y-21392914D02*
X61309160Y-21440533D01*
X60928207Y-37299580D02*
X60880588Y-37347200D01*
X60880588Y-37347200D02*
X60737731Y-37394819D01*
X60737731Y-37394819D02*
X60642493Y-37394819D01*
X60642493Y-37394819D02*
X60499636Y-37347200D01*
X60499636Y-37347200D02*
X60404398Y-37251961D01*
X60404398Y-37251961D02*
X60356779Y-37156723D01*
X60356779Y-37156723D02*
X60309160Y-36966247D01*
X60309160Y-36966247D02*
X60309160Y-36823390D01*
X60309160Y-36823390D02*
X60356779Y-36632914D01*
X60356779Y-36632914D02*
X60404398Y-36537676D01*
X60404398Y-36537676D02*
X60499636Y-36442438D01*
X60499636Y-36442438D02*
X60642493Y-36394819D01*
X60642493Y-36394819D02*
X60737731Y-36394819D01*
X60737731Y-36394819D02*
X60880588Y-36442438D01*
X60880588Y-36442438D02*
X60928207Y-36490057D01*
X61832969Y-37394819D02*
X61356779Y-37394819D01*
X61356779Y-37394819D02*
X61356779Y-36394819D01*
X62166303Y-37394819D02*
X62166303Y-36394819D01*
X62737731Y-37394819D02*
X62309160Y-36823390D01*
X62737731Y-36394819D02*
X62166303Y-36966247D01*
X60690112Y-52111009D02*
X60832969Y-52158628D01*
X60832969Y-52158628D02*
X60880588Y-52206247D01*
X60880588Y-52206247D02*
X60928207Y-52301485D01*
X60928207Y-52301485D02*
X60928207Y-52444342D01*
X60928207Y-52444342D02*
X60880588Y-52539580D01*
X60880588Y-52539580D02*
X60832969Y-52587200D01*
X60832969Y-52587200D02*
X60737731Y-52634819D01*
X60737731Y-52634819D02*
X60356779Y-52634819D01*
X60356779Y-52634819D02*
X60356779Y-51634819D01*
X60356779Y-51634819D02*
X60690112Y-51634819D01*
X60690112Y-51634819D02*
X60785350Y-51682438D01*
X60785350Y-51682438D02*
X60832969Y-51730057D01*
X60832969Y-51730057D02*
X60880588Y-51825295D01*
X60880588Y-51825295D02*
X60880588Y-51920533D01*
X60880588Y-51920533D02*
X60832969Y-52015771D01*
X60832969Y-52015771D02*
X60785350Y-52063390D01*
X60785350Y-52063390D02*
X60690112Y-52111009D01*
X60690112Y-52111009D02*
X60356779Y-52111009D01*
X61309160Y-52349104D02*
X61785350Y-52349104D01*
X61213922Y-52634819D02*
X61547255Y-51634819D01*
X61547255Y-51634819D02*
X61880588Y-52634819D01*
X63359160Y-71769104D02*
X63835350Y-71769104D01*
X63263922Y-72054819D02*
X63597255Y-71054819D01*
X63597255Y-71054819D02*
X63930588Y-72054819D01*
X64454398Y-71054819D02*
X64549636Y-71054819D01*
X64549636Y-71054819D02*
X64644874Y-71102438D01*
X64644874Y-71102438D02*
X64692493Y-71150057D01*
X64692493Y-71150057D02*
X64740112Y-71245295D01*
X64740112Y-71245295D02*
X64787731Y-71435771D01*
X64787731Y-71435771D02*
X64787731Y-71673866D01*
X64787731Y-71673866D02*
X64740112Y-71864342D01*
X64740112Y-71864342D02*
X64692493Y-71959580D01*
X64692493Y-71959580D02*
X64644874Y-72007200D01*
X64644874Y-72007200D02*
X64549636Y-72054819D01*
X64549636Y-72054819D02*
X64454398Y-72054819D01*
X64454398Y-72054819D02*
X64359160Y-72007200D01*
X64359160Y-72007200D02*
X64311541Y-71959580D01*
X64311541Y-71959580D02*
X64263922Y-71864342D01*
X64263922Y-71864342D02*
X64216303Y-71673866D01*
X64216303Y-71673866D02*
X64216303Y-71435771D01*
X64216303Y-71435771D02*
X64263922Y-71245295D01*
X64263922Y-71245295D02*
X64311541Y-71150057D01*
X64311541Y-71150057D02*
X64359160Y-71102438D01*
X64359160Y-71102438D02*
X64454398Y-71054819D01*
X63359160Y-74309104D02*
X63835350Y-74309104D01*
X63263922Y-74594819D02*
X63597255Y-73594819D01*
X63597255Y-73594819D02*
X63930588Y-74594819D01*
X64787731Y-74594819D02*
X64216303Y-74594819D01*
X64502017Y-74594819D02*
X64502017Y-73594819D01*
X64502017Y-73594819D02*
X64406779Y-73737676D01*
X64406779Y-73737676D02*
X64311541Y-73832914D01*
X64311541Y-73832914D02*
X64216303Y-73880533D01*
X63359160Y-76849104D02*
X63835350Y-76849104D01*
X63263922Y-77134819D02*
X63597255Y-76134819D01*
X63597255Y-76134819D02*
X63930588Y-77134819D01*
X64216303Y-76230057D02*
X64263922Y-76182438D01*
X64263922Y-76182438D02*
X64359160Y-76134819D01*
X64359160Y-76134819D02*
X64597255Y-76134819D01*
X64597255Y-76134819D02*
X64692493Y-76182438D01*
X64692493Y-76182438D02*
X64740112Y-76230057D01*
X64740112Y-76230057D02*
X64787731Y-76325295D01*
X64787731Y-76325295D02*
X64787731Y-76420533D01*
X64787731Y-76420533D02*
X64740112Y-76563390D01*
X64740112Y-76563390D02*
X64168684Y-77134819D01*
X64168684Y-77134819D02*
X64787731Y-77134819D01*
X63359160Y-79389104D02*
X63835350Y-79389104D01*
X63263922Y-79674819D02*
X63597255Y-78674819D01*
X63597255Y-78674819D02*
X63930588Y-79674819D01*
X64168684Y-78674819D02*
X64787731Y-78674819D01*
X64787731Y-78674819D02*
X64454398Y-79055771D01*
X64454398Y-79055771D02*
X64597255Y-79055771D01*
X64597255Y-79055771D02*
X64692493Y-79103390D01*
X64692493Y-79103390D02*
X64740112Y-79151009D01*
X64740112Y-79151009D02*
X64787731Y-79246247D01*
X64787731Y-79246247D02*
X64787731Y-79484342D01*
X64787731Y-79484342D02*
X64740112Y-79579580D01*
X64740112Y-79579580D02*
X64692493Y-79627200D01*
X64692493Y-79627200D02*
X64597255Y-79674819D01*
X64597255Y-79674819D02*
X64311541Y-79674819D01*
X64311541Y-79674819D02*
X64216303Y-79627200D01*
X64216303Y-79627200D02*
X64168684Y-79579580D01*
X63740112Y-81691009D02*
X63882969Y-81738628D01*
X63882969Y-81738628D02*
X63930588Y-81786247D01*
X63930588Y-81786247D02*
X63978207Y-81881485D01*
X63978207Y-81881485D02*
X63978207Y-82024342D01*
X63978207Y-82024342D02*
X63930588Y-82119580D01*
X63930588Y-82119580D02*
X63882969Y-82167200D01*
X63882969Y-82167200D02*
X63787731Y-82214819D01*
X63787731Y-82214819D02*
X63406779Y-82214819D01*
X63406779Y-82214819D02*
X63406779Y-81214819D01*
X63406779Y-81214819D02*
X63740112Y-81214819D01*
X63740112Y-81214819D02*
X63835350Y-81262438D01*
X63835350Y-81262438D02*
X63882969Y-81310057D01*
X63882969Y-81310057D02*
X63930588Y-81405295D01*
X63930588Y-81405295D02*
X63930588Y-81500533D01*
X63930588Y-81500533D02*
X63882969Y-81595771D01*
X63882969Y-81595771D02*
X63835350Y-81643390D01*
X63835350Y-81643390D02*
X63740112Y-81691009D01*
X63740112Y-81691009D02*
X63406779Y-81691009D01*
X64597255Y-81214819D02*
X64692493Y-81214819D01*
X64692493Y-81214819D02*
X64787731Y-81262438D01*
X64787731Y-81262438D02*
X64835350Y-81310057D01*
X64835350Y-81310057D02*
X64882969Y-81405295D01*
X64882969Y-81405295D02*
X64930588Y-81595771D01*
X64930588Y-81595771D02*
X64930588Y-81833866D01*
X64930588Y-81833866D02*
X64882969Y-82024342D01*
X64882969Y-82024342D02*
X64835350Y-82119580D01*
X64835350Y-82119580D02*
X64787731Y-82167200D01*
X64787731Y-82167200D02*
X64692493Y-82214819D01*
X64692493Y-82214819D02*
X64597255Y-82214819D01*
X64597255Y-82214819D02*
X64502017Y-82167200D01*
X64502017Y-82167200D02*
X64454398Y-82119580D01*
X64454398Y-82119580D02*
X64406779Y-82024342D01*
X64406779Y-82024342D02*
X64359160Y-81833866D01*
X64359160Y-81833866D02*
X64359160Y-81595771D01*
X64359160Y-81595771D02*
X64406779Y-81405295D01*
X64406779Y-81405295D02*
X64454398Y-81310057D01*
X64454398Y-81310057D02*
X64502017Y-81262438D01*
X64502017Y-81262438D02*
X64597255Y-81214819D01*
X63740112Y-84231009D02*
X63882969Y-84278628D01*
X63882969Y-84278628D02*
X63930588Y-84326247D01*
X63930588Y-84326247D02*
X63978207Y-84421485D01*
X63978207Y-84421485D02*
X63978207Y-84564342D01*
X63978207Y-84564342D02*
X63930588Y-84659580D01*
X63930588Y-84659580D02*
X63882969Y-84707200D01*
X63882969Y-84707200D02*
X63787731Y-84754819D01*
X63787731Y-84754819D02*
X63406779Y-84754819D01*
X63406779Y-84754819D02*
X63406779Y-83754819D01*
X63406779Y-83754819D02*
X63740112Y-83754819D01*
X63740112Y-83754819D02*
X63835350Y-83802438D01*
X63835350Y-83802438D02*
X63882969Y-83850057D01*
X63882969Y-83850057D02*
X63930588Y-83945295D01*
X63930588Y-83945295D02*
X63930588Y-84040533D01*
X63930588Y-84040533D02*
X63882969Y-84135771D01*
X63882969Y-84135771D02*
X63835350Y-84183390D01*
X63835350Y-84183390D02*
X63740112Y-84231009D01*
X63740112Y-84231009D02*
X63406779Y-84231009D01*
X64930588Y-84754819D02*
X64359160Y-84754819D01*
X64644874Y-84754819D02*
X64644874Y-83754819D01*
X64644874Y-83754819D02*
X64549636Y-83897676D01*
X64549636Y-83897676D02*
X64454398Y-83992914D01*
X64454398Y-83992914D02*
X64359160Y-84040533D01*
X63740112Y-86771009D02*
X63882969Y-86818628D01*
X63882969Y-86818628D02*
X63930588Y-86866247D01*
X63930588Y-86866247D02*
X63978207Y-86961485D01*
X63978207Y-86961485D02*
X63978207Y-87104342D01*
X63978207Y-87104342D02*
X63930588Y-87199580D01*
X63930588Y-87199580D02*
X63882969Y-87247200D01*
X63882969Y-87247200D02*
X63787731Y-87294819D01*
X63787731Y-87294819D02*
X63406779Y-87294819D01*
X63406779Y-87294819D02*
X63406779Y-86294819D01*
X63406779Y-86294819D02*
X63740112Y-86294819D01*
X63740112Y-86294819D02*
X63835350Y-86342438D01*
X63835350Y-86342438D02*
X63882969Y-86390057D01*
X63882969Y-86390057D02*
X63930588Y-86485295D01*
X63930588Y-86485295D02*
X63930588Y-86580533D01*
X63930588Y-86580533D02*
X63882969Y-86675771D01*
X63882969Y-86675771D02*
X63835350Y-86723390D01*
X63835350Y-86723390D02*
X63740112Y-86771009D01*
X63740112Y-86771009D02*
X63406779Y-86771009D01*
X64359160Y-86390057D02*
X64406779Y-86342438D01*
X64406779Y-86342438D02*
X64502017Y-86294819D01*
X64502017Y-86294819D02*
X64740112Y-86294819D01*
X64740112Y-86294819D02*
X64835350Y-86342438D01*
X64835350Y-86342438D02*
X64882969Y-86390057D01*
X64882969Y-86390057D02*
X64930588Y-86485295D01*
X64930588Y-86485295D02*
X64930588Y-86580533D01*
X64930588Y-86580533D02*
X64882969Y-86723390D01*
X64882969Y-86723390D02*
X64311541Y-87294819D01*
X64311541Y-87294819D02*
X64930588Y-87294819D01*
X63740112Y-89311009D02*
X63882969Y-89358628D01*
X63882969Y-89358628D02*
X63930588Y-89406247D01*
X63930588Y-89406247D02*
X63978207Y-89501485D01*
X63978207Y-89501485D02*
X63978207Y-89644342D01*
X63978207Y-89644342D02*
X63930588Y-89739580D01*
X63930588Y-89739580D02*
X63882969Y-89787200D01*
X63882969Y-89787200D02*
X63787731Y-89834819D01*
X63787731Y-89834819D02*
X63406779Y-89834819D01*
X63406779Y-89834819D02*
X63406779Y-88834819D01*
X63406779Y-88834819D02*
X63740112Y-88834819D01*
X63740112Y-88834819D02*
X63835350Y-88882438D01*
X63835350Y-88882438D02*
X63882969Y-88930057D01*
X63882969Y-88930057D02*
X63930588Y-89025295D01*
X63930588Y-89025295D02*
X63930588Y-89120533D01*
X63930588Y-89120533D02*
X63882969Y-89215771D01*
X63882969Y-89215771D02*
X63835350Y-89263390D01*
X63835350Y-89263390D02*
X63740112Y-89311009D01*
X63740112Y-89311009D02*
X63406779Y-89311009D01*
X64311541Y-88834819D02*
X64930588Y-88834819D01*
X64930588Y-88834819D02*
X64597255Y-89215771D01*
X64597255Y-89215771D02*
X64740112Y-89215771D01*
X64740112Y-89215771D02*
X64835350Y-89263390D01*
X64835350Y-89263390D02*
X64882969Y-89311009D01*
X64882969Y-89311009D02*
X64930588Y-89406247D01*
X64930588Y-89406247D02*
X64930588Y-89644342D01*
X64930588Y-89644342D02*
X64882969Y-89739580D01*
X64882969Y-89739580D02*
X64835350Y-89787200D01*
X64835350Y-89787200D02*
X64740112Y-89834819D01*
X64740112Y-89834819D02*
X64454398Y-89834819D01*
X64454398Y-89834819D02*
X64359160Y-89787200D01*
X64359160Y-89787200D02*
X64311541Y-89739580D01*
X68370112Y-21331009D02*
X68512969Y-21378628D01*
X68512969Y-21378628D02*
X68560588Y-21426247D01*
X68560588Y-21426247D02*
X68608207Y-21521485D01*
X68608207Y-21521485D02*
X68608207Y-21664342D01*
X68608207Y-21664342D02*
X68560588Y-21759580D01*
X68560588Y-21759580D02*
X68512969Y-21807200D01*
X68512969Y-21807200D02*
X68417731Y-21854819D01*
X68417731Y-21854819D02*
X68036779Y-21854819D01*
X68036779Y-21854819D02*
X68036779Y-20854819D01*
X68036779Y-20854819D02*
X68370112Y-20854819D01*
X68370112Y-20854819D02*
X68465350Y-20902438D01*
X68465350Y-20902438D02*
X68512969Y-20950057D01*
X68512969Y-20950057D02*
X68560588Y-21045295D01*
X68560588Y-21045295D02*
X68560588Y-21140533D01*
X68560588Y-21140533D02*
X68512969Y-21235771D01*
X68512969Y-21235771D02*
X68465350Y-21283390D01*
X68465350Y-21283390D02*
X68370112Y-21331009D01*
X68370112Y-21331009D02*
X68036779Y-21331009D01*
X69227255Y-20854819D02*
X69322493Y-20854819D01*
X69322493Y-20854819D02*
X69417731Y-20902438D01*
X69417731Y-20902438D02*
X69465350Y-20950057D01*
X69465350Y-20950057D02*
X69512969Y-21045295D01*
X69512969Y-21045295D02*
X69560588Y-21235771D01*
X69560588Y-21235771D02*
X69560588Y-21473866D01*
X69560588Y-21473866D02*
X69512969Y-21664342D01*
X69512969Y-21664342D02*
X69465350Y-21759580D01*
X69465350Y-21759580D02*
X69417731Y-21807200D01*
X69417731Y-21807200D02*
X69322493Y-21854819D01*
X69322493Y-21854819D02*
X69227255Y-21854819D01*
X69227255Y-21854819D02*
X69132017Y-21807200D01*
X69132017Y-21807200D02*
X69084398Y-21759580D01*
X69084398Y-21759580D02*
X69036779Y-21664342D01*
X69036779Y-21664342D02*
X68989160Y-21473866D01*
X68989160Y-21473866D02*
X68989160Y-21235771D01*
X68989160Y-21235771D02*
X69036779Y-21045295D01*
X69036779Y-21045295D02*
X69084398Y-20950057D01*
X69084398Y-20950057D02*
X69132017Y-20902438D01*
X69132017Y-20902438D02*
X69227255Y-20854819D01*
X68608207Y-37094819D02*
X68274874Y-36618628D01*
X68036779Y-37094819D02*
X68036779Y-36094819D01*
X68036779Y-36094819D02*
X68417731Y-36094819D01*
X68417731Y-36094819D02*
X68512969Y-36142438D01*
X68512969Y-36142438D02*
X68560588Y-36190057D01*
X68560588Y-36190057D02*
X68608207Y-36285295D01*
X68608207Y-36285295D02*
X68608207Y-36428152D01*
X68608207Y-36428152D02*
X68560588Y-36523390D01*
X68560588Y-36523390D02*
X68512969Y-36571009D01*
X68512969Y-36571009D02*
X68417731Y-36618628D01*
X68417731Y-36618628D02*
X68036779Y-36618628D01*
X68989160Y-37047200D02*
X69132017Y-37094819D01*
X69132017Y-37094819D02*
X69370112Y-37094819D01*
X69370112Y-37094819D02*
X69465350Y-37047200D01*
X69465350Y-37047200D02*
X69512969Y-36999580D01*
X69512969Y-36999580D02*
X69560588Y-36904342D01*
X69560588Y-36904342D02*
X69560588Y-36809104D01*
X69560588Y-36809104D02*
X69512969Y-36713866D01*
X69512969Y-36713866D02*
X69465350Y-36666247D01*
X69465350Y-36666247D02*
X69370112Y-36618628D01*
X69370112Y-36618628D02*
X69179636Y-36571009D01*
X69179636Y-36571009D02*
X69084398Y-36523390D01*
X69084398Y-36523390D02*
X69036779Y-36475771D01*
X69036779Y-36475771D02*
X68989160Y-36380533D01*
X68989160Y-36380533D02*
X68989160Y-36285295D01*
X68989160Y-36285295D02*
X69036779Y-36190057D01*
X69036779Y-36190057D02*
X69084398Y-36142438D01*
X69084398Y-36142438D02*
X69179636Y-36094819D01*
X69179636Y-36094819D02*
X69417731Y-36094819D01*
X69417731Y-36094819D02*
X69560588Y-36142438D01*
X69846303Y-36094819D02*
X70417731Y-36094819D01*
X70132017Y-37094819D02*
X70132017Y-36094819D01*
X67989160Y-52049104D02*
X68465350Y-52049104D01*
X67893922Y-52334819D02*
X68227255Y-51334819D01*
X68227255Y-51334819D02*
X68560588Y-52334819D01*
X69227255Y-51811009D02*
X69370112Y-51858628D01*
X69370112Y-51858628D02*
X69417731Y-51906247D01*
X69417731Y-51906247D02*
X69465350Y-52001485D01*
X69465350Y-52001485D02*
X69465350Y-52144342D01*
X69465350Y-52144342D02*
X69417731Y-52239580D01*
X69417731Y-52239580D02*
X69370112Y-52287200D01*
X69370112Y-52287200D02*
X69274874Y-52334819D01*
X69274874Y-52334819D02*
X68893922Y-52334819D01*
X68893922Y-52334819D02*
X68893922Y-51334819D01*
X68893922Y-51334819D02*
X69227255Y-51334819D01*
X69227255Y-51334819D02*
X69322493Y-51382438D01*
X69322493Y-51382438D02*
X69370112Y-51430057D01*
X69370112Y-51430057D02*
X69417731Y-51525295D01*
X69417731Y-51525295D02*
X69417731Y-51620533D01*
X69417731Y-51620533D02*
X69370112Y-51715771D01*
X69370112Y-51715771D02*
X69322493Y-51763390D01*
X69322493Y-51763390D02*
X69227255Y-51811009D01*
X69227255Y-51811009D02*
X68893922Y-51811009D01*
X68879160Y-68807200D02*
X69022017Y-68854819D01*
X69022017Y-68854819D02*
X69260112Y-68854819D01*
X69260112Y-68854819D02*
X69355350Y-68807200D01*
X69355350Y-68807200D02*
X69402969Y-68759580D01*
X69402969Y-68759580D02*
X69450588Y-68664342D01*
X69450588Y-68664342D02*
X69450588Y-68569104D01*
X69450588Y-68569104D02*
X69402969Y-68473866D01*
X69402969Y-68473866D02*
X69355350Y-68426247D01*
X69355350Y-68426247D02*
X69260112Y-68378628D01*
X69260112Y-68378628D02*
X69069636Y-68331009D01*
X69069636Y-68331009D02*
X68974398Y-68283390D01*
X68974398Y-68283390D02*
X68926779Y-68235771D01*
X68926779Y-68235771D02*
X68879160Y-68140533D01*
X68879160Y-68140533D02*
X68879160Y-68045295D01*
X68879160Y-68045295D02*
X68926779Y-67950057D01*
X68926779Y-67950057D02*
X68974398Y-67902438D01*
X68974398Y-67902438D02*
X69069636Y-67854819D01*
X69069636Y-67854819D02*
X69307731Y-67854819D01*
X69307731Y-67854819D02*
X69450588Y-67902438D01*
X69879160Y-67854819D02*
X69879160Y-68664342D01*
X69879160Y-68664342D02*
X69926779Y-68759580D01*
X69926779Y-68759580D02*
X69974398Y-68807200D01*
X69974398Y-68807200D02*
X70069636Y-68854819D01*
X70069636Y-68854819D02*
X70260112Y-68854819D01*
X70260112Y-68854819D02*
X70355350Y-68807200D01*
X70355350Y-68807200D02*
X70402969Y-68759580D01*
X70402969Y-68759580D02*
X70450588Y-68664342D01*
X70450588Y-68664342D02*
X70450588Y-67854819D01*
X71260112Y-68331009D02*
X71402969Y-68378628D01*
X71402969Y-68378628D02*
X71450588Y-68426247D01*
X71450588Y-68426247D02*
X71498207Y-68521485D01*
X71498207Y-68521485D02*
X71498207Y-68664342D01*
X71498207Y-68664342D02*
X71450588Y-68759580D01*
X71450588Y-68759580D02*
X71402969Y-68807200D01*
X71402969Y-68807200D02*
X71307731Y-68854819D01*
X71307731Y-68854819D02*
X70926779Y-68854819D01*
X70926779Y-68854819D02*
X70926779Y-67854819D01*
X70926779Y-67854819D02*
X71260112Y-67854819D01*
X71260112Y-67854819D02*
X71355350Y-67902438D01*
X71355350Y-67902438D02*
X71402969Y-67950057D01*
X71402969Y-67950057D02*
X71450588Y-68045295D01*
X71450588Y-68045295D02*
X71450588Y-68140533D01*
X71450588Y-68140533D02*
X71402969Y-68235771D01*
X71402969Y-68235771D02*
X71355350Y-68283390D01*
X71355350Y-68283390D02*
X71260112Y-68331009D01*
X71260112Y-68331009D02*
X70926779Y-68331009D01*
X72688684Y-68331009D02*
X73022017Y-68331009D01*
X73164874Y-68854819D02*
X72688684Y-68854819D01*
X72688684Y-68854819D02*
X72688684Y-67854819D01*
X72688684Y-67854819D02*
X73164874Y-67854819D01*
X73783922Y-67854819D02*
X73974398Y-67854819D01*
X73974398Y-67854819D02*
X74069636Y-67902438D01*
X74069636Y-67902438D02*
X74164874Y-67997676D01*
X74164874Y-67997676D02*
X74212493Y-68188152D01*
X74212493Y-68188152D02*
X74212493Y-68521485D01*
X74212493Y-68521485D02*
X74164874Y-68711961D01*
X74164874Y-68711961D02*
X74069636Y-68807200D01*
X74069636Y-68807200D02*
X73974398Y-68854819D01*
X73974398Y-68854819D02*
X73783922Y-68854819D01*
X73783922Y-68854819D02*
X73688684Y-68807200D01*
X73688684Y-68807200D02*
X73593446Y-68711961D01*
X73593446Y-68711961D02*
X73545827Y-68521485D01*
X73545827Y-68521485D02*
X73545827Y-68188152D01*
X73545827Y-68188152D02*
X73593446Y-67997676D01*
X73593446Y-67997676D02*
X73688684Y-67902438D01*
X73688684Y-67902438D02*
X73783922Y-67854819D01*
X75355351Y-68569104D02*
X75831541Y-68569104D01*
X75260113Y-68854819D02*
X75593446Y-67854819D01*
X75593446Y-67854819D02*
X75926779Y-68854819D01*
X76260113Y-68854819D02*
X76260113Y-67854819D01*
X77450589Y-68569104D02*
X77926779Y-68569104D01*
X77355351Y-68854819D02*
X77688684Y-67854819D01*
X77688684Y-67854819D02*
X78022017Y-68854819D01*
X78545827Y-67854819D02*
X78736303Y-67854819D01*
X78736303Y-67854819D02*
X78831541Y-67902438D01*
X78831541Y-67902438D02*
X78926779Y-67997676D01*
X78926779Y-67997676D02*
X78974398Y-68188152D01*
X78974398Y-68188152D02*
X78974398Y-68521485D01*
X78974398Y-68521485D02*
X78926779Y-68711961D01*
X78926779Y-68711961D02*
X78831541Y-68807200D01*
X78831541Y-68807200D02*
X78736303Y-68854819D01*
X78736303Y-68854819D02*
X78545827Y-68854819D01*
X78545827Y-68854819D02*
X78450589Y-68807200D01*
X78450589Y-68807200D02*
X78355351Y-68711961D01*
X78355351Y-68711961D02*
X78307732Y-68521485D01*
X78307732Y-68521485D02*
X78307732Y-68188152D01*
X78307732Y-68188152D02*
X78355351Y-67997676D01*
X78355351Y-67997676D02*
X78450589Y-67902438D01*
X78450589Y-67902438D02*
X78545827Y-67854819D01*
X80498208Y-68331009D02*
X80641065Y-68378628D01*
X80641065Y-68378628D02*
X80688684Y-68426247D01*
X80688684Y-68426247D02*
X80736303Y-68521485D01*
X80736303Y-68521485D02*
X80736303Y-68664342D01*
X80736303Y-68664342D02*
X80688684Y-68759580D01*
X80688684Y-68759580D02*
X80641065Y-68807200D01*
X80641065Y-68807200D02*
X80545827Y-68854819D01*
X80545827Y-68854819D02*
X80164875Y-68854819D01*
X80164875Y-68854819D02*
X80164875Y-67854819D01*
X80164875Y-67854819D02*
X80498208Y-67854819D01*
X80498208Y-67854819D02*
X80593446Y-67902438D01*
X80593446Y-67902438D02*
X80641065Y-67950057D01*
X80641065Y-67950057D02*
X80688684Y-68045295D01*
X80688684Y-68045295D02*
X80688684Y-68140533D01*
X80688684Y-68140533D02*
X80641065Y-68235771D01*
X80641065Y-68235771D02*
X80593446Y-68283390D01*
X80593446Y-68283390D02*
X80498208Y-68331009D01*
X80498208Y-68331009D02*
X80164875Y-68331009D01*
X81164875Y-68854819D02*
X81164875Y-67854819D01*
X82736303Y-68331009D02*
X82879160Y-68378628D01*
X82879160Y-68378628D02*
X82926779Y-68426247D01*
X82926779Y-68426247D02*
X82974398Y-68521485D01*
X82974398Y-68521485D02*
X82974398Y-68664342D01*
X82974398Y-68664342D02*
X82926779Y-68759580D01*
X82926779Y-68759580D02*
X82879160Y-68807200D01*
X82879160Y-68807200D02*
X82783922Y-68854819D01*
X82783922Y-68854819D02*
X82402970Y-68854819D01*
X82402970Y-68854819D02*
X82402970Y-67854819D01*
X82402970Y-67854819D02*
X82736303Y-67854819D01*
X82736303Y-67854819D02*
X82831541Y-67902438D01*
X82831541Y-67902438D02*
X82879160Y-67950057D01*
X82879160Y-67950057D02*
X82926779Y-68045295D01*
X82926779Y-68045295D02*
X82926779Y-68140533D01*
X82926779Y-68140533D02*
X82879160Y-68235771D01*
X82879160Y-68235771D02*
X82831541Y-68283390D01*
X82831541Y-68283390D02*
X82736303Y-68331009D01*
X82736303Y-68331009D02*
X82402970Y-68331009D01*
X83593446Y-67854819D02*
X83783922Y-67854819D01*
X83783922Y-67854819D02*
X83879160Y-67902438D01*
X83879160Y-67902438D02*
X83974398Y-67997676D01*
X83974398Y-67997676D02*
X84022017Y-68188152D01*
X84022017Y-68188152D02*
X84022017Y-68521485D01*
X84022017Y-68521485D02*
X83974398Y-68711961D01*
X83974398Y-68711961D02*
X83879160Y-68807200D01*
X83879160Y-68807200D02*
X83783922Y-68854819D01*
X83783922Y-68854819D02*
X83593446Y-68854819D01*
X83593446Y-68854819D02*
X83498208Y-68807200D01*
X83498208Y-68807200D02*
X83402970Y-68711961D01*
X83402970Y-68711961D02*
X83355351Y-68521485D01*
X83355351Y-68521485D02*
X83355351Y-68188152D01*
X83355351Y-68188152D02*
X83402970Y-67997676D01*
X83402970Y-67997676D02*
X83498208Y-67902438D01*
X83498208Y-67902438D02*
X83593446Y-67854819D01*
X85545827Y-68331009D02*
X85688684Y-68378628D01*
X85688684Y-68378628D02*
X85736303Y-68426247D01*
X85736303Y-68426247D02*
X85783922Y-68521485D01*
X85783922Y-68521485D02*
X85783922Y-68664342D01*
X85783922Y-68664342D02*
X85736303Y-68759580D01*
X85736303Y-68759580D02*
X85688684Y-68807200D01*
X85688684Y-68807200D02*
X85593446Y-68854819D01*
X85593446Y-68854819D02*
X85212494Y-68854819D01*
X85212494Y-68854819D02*
X85212494Y-67854819D01*
X85212494Y-67854819D02*
X85545827Y-67854819D01*
X85545827Y-67854819D02*
X85641065Y-67902438D01*
X85641065Y-67902438D02*
X85688684Y-67950057D01*
X85688684Y-67950057D02*
X85736303Y-68045295D01*
X85736303Y-68045295D02*
X85736303Y-68140533D01*
X85736303Y-68140533D02*
X85688684Y-68235771D01*
X85688684Y-68235771D02*
X85641065Y-68283390D01*
X85641065Y-68283390D02*
X85545827Y-68331009D01*
X85545827Y-68331009D02*
X85212494Y-68331009D01*
X86164875Y-68569104D02*
X86641065Y-68569104D01*
X86069637Y-68854819D02*
X86402970Y-67854819D01*
X86402970Y-67854819D02*
X86736303Y-68854819D01*
X87783923Y-68569104D02*
X88260113Y-68569104D01*
X87688685Y-68854819D02*
X88022018Y-67854819D01*
X88022018Y-67854819D02*
X88355351Y-68854819D01*
X89022018Y-68331009D02*
X89164875Y-68378628D01*
X89164875Y-68378628D02*
X89212494Y-68426247D01*
X89212494Y-68426247D02*
X89260113Y-68521485D01*
X89260113Y-68521485D02*
X89260113Y-68664342D01*
X89260113Y-68664342D02*
X89212494Y-68759580D01*
X89212494Y-68759580D02*
X89164875Y-68807200D01*
X89164875Y-68807200D02*
X89069637Y-68854819D01*
X89069637Y-68854819D02*
X88688685Y-68854819D01*
X88688685Y-68854819D02*
X88688685Y-67854819D01*
X88688685Y-67854819D02*
X89022018Y-67854819D01*
X89022018Y-67854819D02*
X89117256Y-67902438D01*
X89117256Y-67902438D02*
X89164875Y-67950057D01*
X89164875Y-67950057D02*
X89212494Y-68045295D01*
X89212494Y-68045295D02*
X89212494Y-68140533D01*
X89212494Y-68140533D02*
X89164875Y-68235771D01*
X89164875Y-68235771D02*
X89117256Y-68283390D01*
X89117256Y-68283390D02*
X89022018Y-68331009D01*
X89022018Y-68331009D02*
X88688685Y-68331009D01*
X86617255Y-92834819D02*
X86807731Y-92834819D01*
X86807731Y-92834819D02*
X86902969Y-92882438D01*
X86902969Y-92882438D02*
X86998207Y-92977676D01*
X86998207Y-92977676D02*
X87045826Y-93168152D01*
X87045826Y-93168152D02*
X87045826Y-93501485D01*
X87045826Y-93501485D02*
X86998207Y-93691961D01*
X86998207Y-93691961D02*
X86902969Y-93787200D01*
X86902969Y-93787200D02*
X86807731Y-93834819D01*
X86807731Y-93834819D02*
X86617255Y-93834819D01*
X86617255Y-93834819D02*
X86522017Y-93787200D01*
X86522017Y-93787200D02*
X86426779Y-93691961D01*
X86426779Y-93691961D02*
X86379160Y-93501485D01*
X86379160Y-93501485D02*
X86379160Y-93168152D01*
X86379160Y-93168152D02*
X86426779Y-92977676D01*
X86426779Y-92977676D02*
X86522017Y-92882438D01*
X86522017Y-92882438D02*
X86617255Y-92834819D01*
X87474398Y-93834819D02*
X87474398Y-92834819D01*
X87474398Y-92834819D02*
X88045826Y-93834819D01*
X88045826Y-93834819D02*
X88045826Y-92834819D01*
X89283922Y-93168152D02*
X90045827Y-93453866D01*
X90045827Y-93453866D02*
X89283922Y-93739580D01*
X91635350Y-4414819D02*
X91444874Y-4414819D01*
X91444874Y-4414819D02*
X91349636Y-4462438D01*
X91349636Y-4462438D02*
X91302017Y-4510057D01*
X91302017Y-4510057D02*
X91206779Y-4652914D01*
X91206779Y-4652914D02*
X91159160Y-4843390D01*
X91159160Y-4843390D02*
X91159160Y-5224342D01*
X91159160Y-5224342D02*
X91206779Y-5319580D01*
X91206779Y-5319580D02*
X91254398Y-5367200D01*
X91254398Y-5367200D02*
X91349636Y-5414819D01*
X91349636Y-5414819D02*
X91540112Y-5414819D01*
X91540112Y-5414819D02*
X91635350Y-5367200D01*
X91635350Y-5367200D02*
X91682969Y-5319580D01*
X91682969Y-5319580D02*
X91730588Y-5224342D01*
X91730588Y-5224342D02*
X91730588Y-4986247D01*
X91730588Y-4986247D02*
X91682969Y-4891009D01*
X91682969Y-4891009D02*
X91635350Y-4843390D01*
X91635350Y-4843390D02*
X91540112Y-4795771D01*
X91540112Y-4795771D02*
X91349636Y-4795771D01*
X91349636Y-4795771D02*
X91254398Y-4843390D01*
X91254398Y-4843390D02*
X91206779Y-4891009D01*
X91206779Y-4891009D02*
X91159160Y-4986247D01*
X92063922Y-4414819D02*
X92682969Y-4414819D01*
X92682969Y-4414819D02*
X92349636Y-4795771D01*
X92349636Y-4795771D02*
X92492493Y-4795771D01*
X92492493Y-4795771D02*
X92587731Y-4843390D01*
X92587731Y-4843390D02*
X92635350Y-4891009D01*
X92635350Y-4891009D02*
X92682969Y-4986247D01*
X92682969Y-4986247D02*
X92682969Y-5224342D01*
X92682969Y-5224342D02*
X92635350Y-5319580D01*
X92635350Y-5319580D02*
X92587731Y-5367200D01*
X92587731Y-5367200D02*
X92492493Y-5414819D01*
X92492493Y-5414819D02*
X92206779Y-5414819D01*
X92206779Y-5414819D02*
X92111541Y-5367200D01*
X92111541Y-5367200D02*
X92063922Y-5319580D01*
X91635350Y-6954819D02*
X91444874Y-6954819D01*
X91444874Y-6954819D02*
X91349636Y-7002438D01*
X91349636Y-7002438D02*
X91302017Y-7050057D01*
X91302017Y-7050057D02*
X91206779Y-7192914D01*
X91206779Y-7192914D02*
X91159160Y-7383390D01*
X91159160Y-7383390D02*
X91159160Y-7764342D01*
X91159160Y-7764342D02*
X91206779Y-7859580D01*
X91206779Y-7859580D02*
X91254398Y-7907200D01*
X91254398Y-7907200D02*
X91349636Y-7954819D01*
X91349636Y-7954819D02*
X91540112Y-7954819D01*
X91540112Y-7954819D02*
X91635350Y-7907200D01*
X91635350Y-7907200D02*
X91682969Y-7859580D01*
X91682969Y-7859580D02*
X91730588Y-7764342D01*
X91730588Y-7764342D02*
X91730588Y-7526247D01*
X91730588Y-7526247D02*
X91682969Y-7431009D01*
X91682969Y-7431009D02*
X91635350Y-7383390D01*
X91635350Y-7383390D02*
X91540112Y-7335771D01*
X91540112Y-7335771D02*
X91349636Y-7335771D01*
X91349636Y-7335771D02*
X91254398Y-7383390D01*
X91254398Y-7383390D02*
X91206779Y-7431009D01*
X91206779Y-7431009D02*
X91159160Y-7526247D01*
X92587731Y-7288152D02*
X92587731Y-7954819D01*
X92349636Y-6907200D02*
X92111541Y-7621485D01*
X92111541Y-7621485D02*
X92730588Y-7621485D01*
X94079160Y-72007200D02*
X94222017Y-72054819D01*
X94222017Y-72054819D02*
X94460112Y-72054819D01*
X94460112Y-72054819D02*
X94555350Y-72007200D01*
X94555350Y-72007200D02*
X94602969Y-71959580D01*
X94602969Y-71959580D02*
X94650588Y-71864342D01*
X94650588Y-71864342D02*
X94650588Y-71769104D01*
X94650588Y-71769104D02*
X94602969Y-71673866D01*
X94602969Y-71673866D02*
X94555350Y-71626247D01*
X94555350Y-71626247D02*
X94460112Y-71578628D01*
X94460112Y-71578628D02*
X94269636Y-71531009D01*
X94269636Y-71531009D02*
X94174398Y-71483390D01*
X94174398Y-71483390D02*
X94126779Y-71435771D01*
X94126779Y-71435771D02*
X94079160Y-71340533D01*
X94079160Y-71340533D02*
X94079160Y-71245295D01*
X94079160Y-71245295D02*
X94126779Y-71150057D01*
X94126779Y-71150057D02*
X94174398Y-71102438D01*
X94174398Y-71102438D02*
X94269636Y-71054819D01*
X94269636Y-71054819D02*
X94507731Y-71054819D01*
X94507731Y-71054819D02*
X94650588Y-71102438D01*
X95079160Y-71054819D02*
X95079160Y-71864342D01*
X95079160Y-71864342D02*
X95126779Y-71959580D01*
X95126779Y-71959580D02*
X95174398Y-72007200D01*
X95174398Y-72007200D02*
X95269636Y-72054819D01*
X95269636Y-72054819D02*
X95460112Y-72054819D01*
X95460112Y-72054819D02*
X95555350Y-72007200D01*
X95555350Y-72007200D02*
X95602969Y-71959580D01*
X95602969Y-71959580D02*
X95650588Y-71864342D01*
X95650588Y-71864342D02*
X95650588Y-71054819D01*
X96460112Y-71531009D02*
X96602969Y-71578628D01*
X96602969Y-71578628D02*
X96650588Y-71626247D01*
X96650588Y-71626247D02*
X96698207Y-71721485D01*
X96698207Y-71721485D02*
X96698207Y-71864342D01*
X96698207Y-71864342D02*
X96650588Y-71959580D01*
X96650588Y-71959580D02*
X96602969Y-72007200D01*
X96602969Y-72007200D02*
X96507731Y-72054819D01*
X96507731Y-72054819D02*
X96126779Y-72054819D01*
X96126779Y-72054819D02*
X96126779Y-71054819D01*
X96126779Y-71054819D02*
X96460112Y-71054819D01*
X96460112Y-71054819D02*
X96555350Y-71102438D01*
X96555350Y-71102438D02*
X96602969Y-71150057D01*
X96602969Y-71150057D02*
X96650588Y-71245295D01*
X96650588Y-71245295D02*
X96650588Y-71340533D01*
X96650588Y-71340533D02*
X96602969Y-71435771D01*
X96602969Y-71435771D02*
X96555350Y-71483390D01*
X96555350Y-71483390D02*
X96460112Y-71531009D01*
X96460112Y-71531009D02*
X96126779Y-71531009D01*
X94126779Y-74071009D02*
X94460112Y-74071009D01*
X94602969Y-74594819D02*
X94126779Y-74594819D01*
X94126779Y-74594819D02*
X94126779Y-73594819D01*
X94126779Y-73594819D02*
X94602969Y-73594819D01*
X95222017Y-73594819D02*
X95412493Y-73594819D01*
X95412493Y-73594819D02*
X95507731Y-73642438D01*
X95507731Y-73642438D02*
X95602969Y-73737676D01*
X95602969Y-73737676D02*
X95650588Y-73928152D01*
X95650588Y-73928152D02*
X95650588Y-74261485D01*
X95650588Y-74261485D02*
X95602969Y-74451961D01*
X95602969Y-74451961D02*
X95507731Y-74547200D01*
X95507731Y-74547200D02*
X95412493Y-74594819D01*
X95412493Y-74594819D02*
X95222017Y-74594819D01*
X95222017Y-74594819D02*
X95126779Y-74547200D01*
X95126779Y-74547200D02*
X95031541Y-74451961D01*
X95031541Y-74451961D02*
X94983922Y-74261485D01*
X94983922Y-74261485D02*
X94983922Y-73928152D01*
X94983922Y-73928152D02*
X95031541Y-73737676D01*
X95031541Y-73737676D02*
X95126779Y-73642438D01*
X95126779Y-73642438D02*
X95222017Y-73594819D01*
X94079160Y-76849104D02*
X94555350Y-76849104D01*
X93983922Y-77134819D02*
X94317255Y-76134819D01*
X94317255Y-76134819D02*
X94650588Y-77134819D01*
X94983922Y-77134819D02*
X94983922Y-76134819D01*
X94079160Y-79389104D02*
X94555350Y-79389104D01*
X93983922Y-79674819D02*
X94317255Y-78674819D01*
X94317255Y-78674819D02*
X94650588Y-79674819D01*
X95174398Y-78674819D02*
X95364874Y-78674819D01*
X95364874Y-78674819D02*
X95460112Y-78722438D01*
X95460112Y-78722438D02*
X95555350Y-78817676D01*
X95555350Y-78817676D02*
X95602969Y-79008152D01*
X95602969Y-79008152D02*
X95602969Y-79341485D01*
X95602969Y-79341485D02*
X95555350Y-79531961D01*
X95555350Y-79531961D02*
X95460112Y-79627200D01*
X95460112Y-79627200D02*
X95364874Y-79674819D01*
X95364874Y-79674819D02*
X95174398Y-79674819D01*
X95174398Y-79674819D02*
X95079160Y-79627200D01*
X95079160Y-79627200D02*
X94983922Y-79531961D01*
X94983922Y-79531961D02*
X94936303Y-79341485D01*
X94936303Y-79341485D02*
X94936303Y-79008152D01*
X94936303Y-79008152D02*
X94983922Y-78817676D01*
X94983922Y-78817676D02*
X95079160Y-78722438D01*
X95079160Y-78722438D02*
X95174398Y-78674819D01*
X94460112Y-81691009D02*
X94602969Y-81738628D01*
X94602969Y-81738628D02*
X94650588Y-81786247D01*
X94650588Y-81786247D02*
X94698207Y-81881485D01*
X94698207Y-81881485D02*
X94698207Y-82024342D01*
X94698207Y-82024342D02*
X94650588Y-82119580D01*
X94650588Y-82119580D02*
X94602969Y-82167200D01*
X94602969Y-82167200D02*
X94507731Y-82214819D01*
X94507731Y-82214819D02*
X94126779Y-82214819D01*
X94126779Y-82214819D02*
X94126779Y-81214819D01*
X94126779Y-81214819D02*
X94460112Y-81214819D01*
X94460112Y-81214819D02*
X94555350Y-81262438D01*
X94555350Y-81262438D02*
X94602969Y-81310057D01*
X94602969Y-81310057D02*
X94650588Y-81405295D01*
X94650588Y-81405295D02*
X94650588Y-81500533D01*
X94650588Y-81500533D02*
X94602969Y-81595771D01*
X94602969Y-81595771D02*
X94555350Y-81643390D01*
X94555350Y-81643390D02*
X94460112Y-81691009D01*
X94460112Y-81691009D02*
X94126779Y-81691009D01*
X95126779Y-82214819D02*
X95126779Y-81214819D01*
X94460112Y-84231009D02*
X94602969Y-84278628D01*
X94602969Y-84278628D02*
X94650588Y-84326247D01*
X94650588Y-84326247D02*
X94698207Y-84421485D01*
X94698207Y-84421485D02*
X94698207Y-84564342D01*
X94698207Y-84564342D02*
X94650588Y-84659580D01*
X94650588Y-84659580D02*
X94602969Y-84707200D01*
X94602969Y-84707200D02*
X94507731Y-84754819D01*
X94507731Y-84754819D02*
X94126779Y-84754819D01*
X94126779Y-84754819D02*
X94126779Y-83754819D01*
X94126779Y-83754819D02*
X94460112Y-83754819D01*
X94460112Y-83754819D02*
X94555350Y-83802438D01*
X94555350Y-83802438D02*
X94602969Y-83850057D01*
X94602969Y-83850057D02*
X94650588Y-83945295D01*
X94650588Y-83945295D02*
X94650588Y-84040533D01*
X94650588Y-84040533D02*
X94602969Y-84135771D01*
X94602969Y-84135771D02*
X94555350Y-84183390D01*
X94555350Y-84183390D02*
X94460112Y-84231009D01*
X94460112Y-84231009D02*
X94126779Y-84231009D01*
X95317255Y-83754819D02*
X95507731Y-83754819D01*
X95507731Y-83754819D02*
X95602969Y-83802438D01*
X95602969Y-83802438D02*
X95698207Y-83897676D01*
X95698207Y-83897676D02*
X95745826Y-84088152D01*
X95745826Y-84088152D02*
X95745826Y-84421485D01*
X95745826Y-84421485D02*
X95698207Y-84611961D01*
X95698207Y-84611961D02*
X95602969Y-84707200D01*
X95602969Y-84707200D02*
X95507731Y-84754819D01*
X95507731Y-84754819D02*
X95317255Y-84754819D01*
X95317255Y-84754819D02*
X95222017Y-84707200D01*
X95222017Y-84707200D02*
X95126779Y-84611961D01*
X95126779Y-84611961D02*
X95079160Y-84421485D01*
X95079160Y-84421485D02*
X95079160Y-84088152D01*
X95079160Y-84088152D02*
X95126779Y-83897676D01*
X95126779Y-83897676D02*
X95222017Y-83802438D01*
X95222017Y-83802438D02*
X95317255Y-83754819D01*
X94460112Y-86771009D02*
X94602969Y-86818628D01*
X94602969Y-86818628D02*
X94650588Y-86866247D01*
X94650588Y-86866247D02*
X94698207Y-86961485D01*
X94698207Y-86961485D02*
X94698207Y-87104342D01*
X94698207Y-87104342D02*
X94650588Y-87199580D01*
X94650588Y-87199580D02*
X94602969Y-87247200D01*
X94602969Y-87247200D02*
X94507731Y-87294819D01*
X94507731Y-87294819D02*
X94126779Y-87294819D01*
X94126779Y-87294819D02*
X94126779Y-86294819D01*
X94126779Y-86294819D02*
X94460112Y-86294819D01*
X94460112Y-86294819D02*
X94555350Y-86342438D01*
X94555350Y-86342438D02*
X94602969Y-86390057D01*
X94602969Y-86390057D02*
X94650588Y-86485295D01*
X94650588Y-86485295D02*
X94650588Y-86580533D01*
X94650588Y-86580533D02*
X94602969Y-86675771D01*
X94602969Y-86675771D02*
X94555350Y-86723390D01*
X94555350Y-86723390D02*
X94460112Y-86771009D01*
X94460112Y-86771009D02*
X94126779Y-86771009D01*
X95079160Y-87009104D02*
X95555350Y-87009104D01*
X94983922Y-87294819D02*
X95317255Y-86294819D01*
X95317255Y-86294819D02*
X95650588Y-87294819D01*
X94079160Y-89549104D02*
X94555350Y-89549104D01*
X93983922Y-89834819D02*
X94317255Y-88834819D01*
X94317255Y-88834819D02*
X94650588Y-89834819D01*
X95317255Y-89311009D02*
X95460112Y-89358628D01*
X95460112Y-89358628D02*
X95507731Y-89406247D01*
X95507731Y-89406247D02*
X95555350Y-89501485D01*
X95555350Y-89501485D02*
X95555350Y-89644342D01*
X95555350Y-89644342D02*
X95507731Y-89739580D01*
X95507731Y-89739580D02*
X95460112Y-89787200D01*
X95460112Y-89787200D02*
X95364874Y-89834819D01*
X95364874Y-89834819D02*
X94983922Y-89834819D01*
X94983922Y-89834819D02*
X94983922Y-88834819D01*
X94983922Y-88834819D02*
X95317255Y-88834819D01*
X95317255Y-88834819D02*
X95412493Y-88882438D01*
X95412493Y-88882438D02*
X95460112Y-88930057D01*
X95460112Y-88930057D02*
X95507731Y-89025295D01*
X95507731Y-89025295D02*
X95507731Y-89120533D01*
X95507731Y-89120533D02*
X95460112Y-89215771D01*
X95460112Y-89215771D02*
X95412493Y-89263390D01*
X95412493Y-89263390D02*
X95317255Y-89311009D01*
X95317255Y-89311009D02*
X94983922Y-89311009D01*
D11*
X9521615Y-98880928D02*
X9521615Y-97380928D01*
X9521615Y-97380928D02*
X10378758Y-98880928D01*
X10378758Y-98880928D02*
X10378758Y-97380928D01*
X11093044Y-98880928D02*
X11093044Y-97380928D01*
X12307330Y-98095214D02*
X12521616Y-98166642D01*
X12521616Y-98166642D02*
X12593045Y-98238071D01*
X12593045Y-98238071D02*
X12664473Y-98380928D01*
X12664473Y-98380928D02*
X12664473Y-98595214D01*
X12664473Y-98595214D02*
X12593045Y-98738071D01*
X12593045Y-98738071D02*
X12521616Y-98809500D01*
X12521616Y-98809500D02*
X12378759Y-98880928D01*
X12378759Y-98880928D02*
X11807330Y-98880928D01*
X11807330Y-98880928D02*
X11807330Y-97380928D01*
X11807330Y-97380928D02*
X12307330Y-97380928D01*
X12307330Y-97380928D02*
X12450188Y-97452357D01*
X12450188Y-97452357D02*
X12521616Y-97523785D01*
X12521616Y-97523785D02*
X12593045Y-97666642D01*
X12593045Y-97666642D02*
X12593045Y-97809500D01*
X12593045Y-97809500D02*
X12521616Y-97952357D01*
X12521616Y-97952357D02*
X12450188Y-98023785D01*
X12450188Y-98023785D02*
X12307330Y-98095214D01*
X12307330Y-98095214D02*
X11807330Y-98095214D01*
X13807330Y-98095214D02*
X14021616Y-98166642D01*
X14021616Y-98166642D02*
X14093045Y-98238071D01*
X14093045Y-98238071D02*
X14164473Y-98380928D01*
X14164473Y-98380928D02*
X14164473Y-98595214D01*
X14164473Y-98595214D02*
X14093045Y-98738071D01*
X14093045Y-98738071D02*
X14021616Y-98809500D01*
X14021616Y-98809500D02*
X13878759Y-98880928D01*
X13878759Y-98880928D02*
X13307330Y-98880928D01*
X13307330Y-98880928D02*
X13307330Y-97380928D01*
X13307330Y-97380928D02*
X13807330Y-97380928D01*
X13807330Y-97380928D02*
X13950188Y-97452357D01*
X13950188Y-97452357D02*
X14021616Y-97523785D01*
X14021616Y-97523785D02*
X14093045Y-97666642D01*
X14093045Y-97666642D02*
X14093045Y-97809500D01*
X14093045Y-97809500D02*
X14021616Y-97952357D01*
X14021616Y-97952357D02*
X13950188Y-98023785D01*
X13950188Y-98023785D02*
X13807330Y-98095214D01*
X13807330Y-98095214D02*
X13307330Y-98095214D01*
X15521616Y-98880928D02*
X14807330Y-98880928D01*
X14807330Y-98880928D02*
X14807330Y-97380928D01*
X16021616Y-98095214D02*
X16521616Y-98095214D01*
X16735902Y-98880928D02*
X16021616Y-98880928D01*
X16021616Y-98880928D02*
X16021616Y-97380928D01*
X16021616Y-97380928D02*
X16735902Y-97380928D01*
X19664473Y-98880928D02*
X19664473Y-97380928D01*
X19664473Y-97380928D02*
X20235902Y-97380928D01*
X20235902Y-97380928D02*
X20378759Y-97452357D01*
X20378759Y-97452357D02*
X20450188Y-97523785D01*
X20450188Y-97523785D02*
X20521616Y-97666642D01*
X20521616Y-97666642D02*
X20521616Y-97880928D01*
X20521616Y-97880928D02*
X20450188Y-98023785D01*
X20450188Y-98023785D02*
X20378759Y-98095214D01*
X20378759Y-98095214D02*
X20235902Y-98166642D01*
X20235902Y-98166642D02*
X19664473Y-98166642D01*
X21093045Y-98452357D02*
X21807331Y-98452357D01*
X20950188Y-98880928D02*
X21450188Y-97380928D01*
X21450188Y-97380928D02*
X21950188Y-98880928D01*
X22450187Y-98880928D02*
X22450187Y-97380928D01*
X22450187Y-97380928D02*
X23307330Y-98880928D01*
X23307330Y-98880928D02*
X23307330Y-97380928D01*
X24021616Y-98095214D02*
X24521616Y-98095214D01*
X24735902Y-98880928D02*
X24021616Y-98880928D01*
X24021616Y-98880928D02*
X24021616Y-97380928D01*
X24021616Y-97380928D02*
X24735902Y-97380928D01*
X26093045Y-98880928D02*
X25378759Y-98880928D01*
X25378759Y-98880928D02*
X25378759Y-97380928D01*
X27664474Y-98452357D02*
X28378760Y-98452357D01*
X27521617Y-98880928D02*
X28021617Y-97380928D01*
X28021617Y-97380928D02*
X28521617Y-98880928D01*
X32021616Y-98880928D02*
X31307330Y-98880928D01*
X31307330Y-98880928D02*
X31307330Y-97380928D01*
X32521616Y-98095214D02*
X33021616Y-98095214D01*
X33235902Y-98880928D02*
X32521616Y-98880928D01*
X32521616Y-98880928D02*
X32521616Y-97380928D01*
X32521616Y-97380928D02*
X33235902Y-97380928D01*
X33664474Y-97380928D02*
X34164474Y-98880928D01*
X34164474Y-98880928D02*
X34664474Y-97380928D01*
X35164473Y-98095214D02*
X35664473Y-98095214D01*
X35878759Y-98880928D02*
X35164473Y-98880928D01*
X35164473Y-98880928D02*
X35164473Y-97380928D01*
X35164473Y-97380928D02*
X35878759Y-97380928D01*
X37235902Y-98880928D02*
X36521616Y-98880928D01*
X36521616Y-98880928D02*
X36521616Y-97380928D01*
X37664474Y-98809500D02*
X37878760Y-98880928D01*
X37878760Y-98880928D02*
X38235902Y-98880928D01*
X38235902Y-98880928D02*
X38378760Y-98809500D01*
X38378760Y-98809500D02*
X38450188Y-98738071D01*
X38450188Y-98738071D02*
X38521617Y-98595214D01*
X38521617Y-98595214D02*
X38521617Y-98452357D01*
X38521617Y-98452357D02*
X38450188Y-98309500D01*
X38450188Y-98309500D02*
X38378760Y-98238071D01*
X38378760Y-98238071D02*
X38235902Y-98166642D01*
X38235902Y-98166642D02*
X37950188Y-98095214D01*
X37950188Y-98095214D02*
X37807331Y-98023785D01*
X37807331Y-98023785D02*
X37735902Y-97952357D01*
X37735902Y-97952357D02*
X37664474Y-97809500D01*
X37664474Y-97809500D02*
X37664474Y-97666642D01*
X37664474Y-97666642D02*
X37735902Y-97523785D01*
X37735902Y-97523785D02*
X37807331Y-97452357D01*
X37807331Y-97452357D02*
X37950188Y-97380928D01*
X37950188Y-97380928D02*
X38307331Y-97380928D01*
X38307331Y-97380928D02*
X38521617Y-97452357D01*
X41093045Y-98880928D02*
X40235902Y-98880928D01*
X40664473Y-98880928D02*
X40664473Y-97380928D01*
X40664473Y-97380928D02*
X40521616Y-97595214D01*
X40521616Y-97595214D02*
X40378759Y-97738071D01*
X40378759Y-97738071D02*
X40235902Y-97809500D01*
D10*
X95238095Y-46304819D02*
X95238095Y-45304819D01*
X95238095Y-45781009D02*
X95809523Y-45781009D01*
X95809523Y-46304819D02*
X95809523Y-45304819D01*
X96238095Y-45400057D02*
X96285714Y-45352438D01*
X96285714Y-45352438D02*
X96380952Y-45304819D01*
X96380952Y-45304819D02*
X96619047Y-45304819D01*
X96619047Y-45304819D02*
X96714285Y-45352438D01*
X96714285Y-45352438D02*
X96761904Y-45400057D01*
X96761904Y-45400057D02*
X96809523Y-45495295D01*
X96809523Y-45495295D02*
X96809523Y-45590533D01*
X96809523Y-45590533D02*
X96761904Y-45733390D01*
X96761904Y-45733390D02*
X96190476Y-46304819D01*
X96190476Y-46304819D02*
X96809523Y-46304819D01*
X3238095Y-46304819D02*
X3238095Y-45304819D01*
X3238095Y-45781009D02*
X3809523Y-45781009D01*
X3809523Y-46304819D02*
X3809523Y-45304819D01*
X4809523Y-46304819D02*
X4238095Y-46304819D01*
X4523809Y-46304819D02*
X4523809Y-45304819D01*
X4523809Y-45304819D02*
X4428571Y-45447676D01*
X4428571Y-45447676D02*
X4333333Y-45542914D01*
X4333333Y-45542914D02*
X4238095Y-45590533D01*
%TO.C,D22*%
D12*
X64064000Y-22640000D02*
X64220000Y-22640000D01*
X66380000Y-22640000D02*
X66536000Y-22640000D01*
X64064484Y-22640000D02*
G75*
G02*
X64220000Y-19408563I1235516J1560000D01*
G01*
X64220000Y-22120961D02*
G75*
G02*
X64220000Y-20039039I1080000J1040961D01*
G01*
X66380000Y-19408563D02*
G75*
G02*
X66535516Y-22640000I-1080000J-1671437D01*
G01*
X66380000Y-20039039D02*
G75*
G02*
X66380000Y-22120961I-1080000J-1040961D01*
G01*
%TO.C,R38*%
X71810000Y-59180000D02*
X74420000Y-59180000D01*
X71810000Y-59180000D02*
G75*
G02*
X69070000Y-59180000I-1370000J0D01*
G01*
X69070000Y-59180000D02*
G75*
G02*
X71810000Y-59180000I1370000J0D01*
G01*
%TO.C,D16*%
X48704000Y-22640000D02*
X48860000Y-22640000D01*
X51020000Y-22640000D02*
X51176000Y-22640000D01*
X48704484Y-22640000D02*
G75*
G02*
X48860000Y-19408563I1235516J1560000D01*
G01*
X48860000Y-22120961D02*
G75*
G02*
X48860000Y-20039039I1080000J1040961D01*
G01*
X51020000Y-19408563D02*
G75*
G02*
X51175516Y-22640000I-1080000J-1671437D01*
G01*
X51020000Y-20039039D02*
G75*
G02*
X51020000Y-22120961I-1080000J-1040961D01*
G01*
%TO.C,Q1*%
X9740000Y-28645000D02*
X13340000Y-28645000D01*
X9183600Y-25696193D02*
G75*
G02*
X11540000Y-24195000I2356400J-1098807D01*
G01*
X9740000Y-28645000D02*
G75*
G02*
X9215816Y-27917795I1800000J1850000D01*
G01*
X11540000Y-24195000D02*
G75*
G02*
X13896400Y-25696193I0J-2600000D01*
G01*
X13864184Y-27917795D02*
G75*
G02*
X13340000Y-28645000I-2324184J1122795D01*
G01*
%TO.C,R8*%
X25730000Y-31240000D02*
X28340000Y-31240000D01*
X25730000Y-31240000D02*
G75*
G02*
X22990000Y-31240000I-1370000J0D01*
G01*
X22990000Y-31240000D02*
G75*
G02*
X25730000Y-31240000I1370000J0D01*
G01*
%TO.C,Q24*%
X67100000Y-55425000D02*
X63500000Y-55425000D01*
X62975816Y-56152205D02*
G75*
G02*
X63500000Y-55425000I2324184J-1122795D01*
G01*
X65300000Y-59875000D02*
G75*
G02*
X62943600Y-58373807I0J2600000D01*
G01*
X67100000Y-55425000D02*
G75*
G02*
X67624184Y-56152205I-1800000J-1850000D01*
G01*
X67656400Y-58373807D02*
G75*
G02*
X65300000Y-59875000I-2356400J1098807D01*
G01*
%TO.C,D20*%
X56384000Y-37880000D02*
X56540000Y-37880000D01*
X58700000Y-37880000D02*
X58856000Y-37880000D01*
X56384484Y-37880000D02*
G75*
G02*
X56540000Y-34648563I1235516J1560000D01*
G01*
X56540000Y-37360961D02*
G75*
G02*
X56540000Y-35279039I1080000J1040961D01*
G01*
X58700000Y-34648563D02*
G75*
G02*
X58855516Y-37880000I-1080000J-1671437D01*
G01*
X58700000Y-35279039D02*
G75*
G02*
X58700000Y-37360961I-1080000J-1040961D01*
G01*
%TO.C,D9*%
X25664000Y-53120000D02*
X25820000Y-53120000D01*
X27980000Y-53120000D02*
X28136000Y-53120000D01*
X25664484Y-53120000D02*
G75*
G02*
X25820000Y-49888563I1235516J1560000D01*
G01*
X25820000Y-52600961D02*
G75*
G02*
X25820000Y-50519039I1080000J1040961D01*
G01*
X27980000Y-49888563D02*
G75*
G02*
X28135516Y-53120000I-1080000J-1671437D01*
G01*
X27980000Y-50519039D02*
G75*
G02*
X27980000Y-52600961I-1080000J-1040961D01*
G01*
%TO.C,R7*%
X25730000Y-16000000D02*
X28340000Y-16000000D01*
X25730000Y-16000000D02*
G75*
G02*
X22990000Y-16000000I-1370000J0D01*
G01*
X22990000Y-16000000D02*
G75*
G02*
X25730000Y-16000000I1370000J0D01*
G01*
%TO.C,R3*%
X10370000Y-46480000D02*
X12980000Y-46480000D01*
X10370000Y-46480000D02*
G75*
G02*
X7630000Y-46480000I-1370000J0D01*
G01*
X7630000Y-46480000D02*
G75*
G02*
X10370000Y-46480000I1370000J0D01*
G01*
%TO.C,R57*%
X80590000Y-73370000D02*
X80590000Y-75980000D01*
X81960000Y-72000000D02*
G75*
G02*
X79220000Y-72000000I-1370000J0D01*
G01*
X79220000Y-72000000D02*
G75*
G02*
X81960000Y-72000000I1370000J0D01*
G01*
%TO.C,Q12*%
X36380000Y-55425000D02*
X32780000Y-55425000D01*
X32255816Y-56152205D02*
G75*
G02*
X32780000Y-55425000I2324184J-1122795D01*
G01*
X34580000Y-59875000D02*
G75*
G02*
X32223600Y-58373807I0J2600000D01*
G01*
X36380000Y-55425000D02*
G75*
G02*
X36904184Y-56152205I-1800000J-1850000D01*
G01*
X36936400Y-58373807D02*
G75*
G02*
X34580000Y-59875000I-2356400J1098807D01*
G01*
%TO.C,R60*%
X74590000Y-73370000D02*
X74590000Y-75980000D01*
X75960000Y-72000000D02*
G75*
G02*
X73220000Y-72000000I-1370000J0D01*
G01*
X73220000Y-72000000D02*
G75*
G02*
X75960000Y-72000000I1370000J0D01*
G01*
%TO.C,R52*%
X43870000Y-73370000D02*
X43870000Y-75980000D01*
X45240000Y-72000000D02*
G75*
G02*
X42500000Y-72000000I-1370000J0D01*
G01*
X42500000Y-72000000D02*
G75*
G02*
X45240000Y-72000000I1370000J0D01*
G01*
%TO.C,R53*%
X43870000Y-81070000D02*
X43870000Y-83680000D01*
X45240000Y-79700000D02*
G75*
G02*
X42500000Y-79700000I-1370000J0D01*
G01*
X42500000Y-79700000D02*
G75*
G02*
X45240000Y-79700000I1370000J0D01*
G01*
%TO.C,R9*%
X25730000Y-46480000D02*
X28340000Y-46480000D01*
X25730000Y-46480000D02*
G75*
G02*
X22990000Y-46480000I-1370000J0D01*
G01*
X22990000Y-46480000D02*
G75*
G02*
X25730000Y-46480000I1370000J0D01*
G01*
%TO.C,R13*%
X41090000Y-16000000D02*
X43700000Y-16000000D01*
X41090000Y-16000000D02*
G75*
G02*
X38350000Y-16000000I-1370000J0D01*
G01*
X38350000Y-16000000D02*
G75*
G02*
X41090000Y-16000000I1370000J0D01*
G01*
%TO.C,R6*%
X18050000Y-46480000D02*
X20660000Y-46480000D01*
X18050000Y-46480000D02*
G75*
G02*
X15310000Y-46480000I-1370000J0D01*
G01*
X15310000Y-46480000D02*
G75*
G02*
X18050000Y-46480000I1370000J0D01*
G01*
%TO.C,Q21*%
X55820000Y-59125000D02*
X59420000Y-59125000D01*
X55263600Y-56176193D02*
G75*
G02*
X57620000Y-54675000I2356400J-1098807D01*
G01*
X55820000Y-59125000D02*
G75*
G02*
X55295816Y-58397795I1800000J1850000D01*
G01*
X57620000Y-54675000D02*
G75*
G02*
X59976400Y-56176193I0J-2600000D01*
G01*
X59944184Y-58397795D02*
G75*
G02*
X59420000Y-59125000I-2324184J1122795D01*
G01*
%TO.C,R19*%
X56450000Y-16000000D02*
X59060000Y-16000000D01*
X56450000Y-16000000D02*
G75*
G02*
X53710000Y-16000000I-1370000J0D01*
G01*
X53710000Y-16000000D02*
G75*
G02*
X56450000Y-16000000I1370000J0D01*
G01*
%TO.C,SW2*%
X83210000Y-69340000D02*
X83210000Y-70723000D01*
X83210000Y-69340000D02*
X84593000Y-69340000D01*
X83450000Y-69580000D02*
X83450000Y-92200000D01*
X83450000Y-69580000D02*
X93350000Y-69580000D01*
X83450000Y-92200000D02*
X93350000Y-92200000D01*
X87723333Y-71365000D02*
X87723333Y-72635000D01*
X87723333Y-73905000D02*
X87723333Y-75175000D01*
X87723333Y-76445000D02*
X87723333Y-77715000D01*
X87723333Y-78985000D02*
X87723333Y-80255000D01*
X87723333Y-81525000D02*
X87723333Y-82795000D01*
X87723333Y-84065000D02*
X87723333Y-85335000D01*
X87723333Y-86605000D02*
X87723333Y-87875000D01*
X87723333Y-89145000D02*
X87723333Y-90415000D01*
X93350000Y-69580000D02*
X93350000Y-92200000D01*
X86370000Y-71365000D02*
X87723333Y-71365000D01*
X87723333Y-72635000D01*
X86370000Y-72635000D01*
X86370000Y-71365000D01*
G36*
X86370000Y-71365000D02*
G01*
X87723333Y-71365000D01*
X87723333Y-72635000D01*
X86370000Y-72635000D01*
X86370000Y-71365000D01*
G37*
X86370000Y-71365000D02*
X90430000Y-71365000D01*
X90430000Y-72635000D01*
X86370000Y-72635000D01*
X86370000Y-71365000D01*
X86370000Y-73905000D02*
X87723333Y-73905000D01*
X87723333Y-75175000D01*
X86370000Y-75175000D01*
X86370000Y-73905000D01*
G36*
X86370000Y-73905000D02*
G01*
X87723333Y-73905000D01*
X87723333Y-75175000D01*
X86370000Y-75175000D01*
X86370000Y-73905000D01*
G37*
X86370000Y-73905000D02*
X90430000Y-73905000D01*
X90430000Y-75175000D01*
X86370000Y-75175000D01*
X86370000Y-73905000D01*
X86370000Y-76445000D02*
X87723333Y-76445000D01*
X87723333Y-77715000D01*
X86370000Y-77715000D01*
X86370000Y-76445000D01*
G36*
X86370000Y-76445000D02*
G01*
X87723333Y-76445000D01*
X87723333Y-77715000D01*
X86370000Y-77715000D01*
X86370000Y-76445000D01*
G37*
X86370000Y-76445000D02*
X90430000Y-76445000D01*
X90430000Y-77715000D01*
X86370000Y-77715000D01*
X86370000Y-76445000D01*
X86370000Y-78985000D02*
X87723333Y-78985000D01*
X87723333Y-80255000D01*
X86370000Y-80255000D01*
X86370000Y-78985000D01*
G36*
X86370000Y-78985000D02*
G01*
X87723333Y-78985000D01*
X87723333Y-80255000D01*
X86370000Y-80255000D01*
X86370000Y-78985000D01*
G37*
X86370000Y-78985000D02*
X90430000Y-78985000D01*
X90430000Y-80255000D01*
X86370000Y-80255000D01*
X86370000Y-78985000D01*
X86370000Y-81525000D02*
X87723333Y-81525000D01*
X87723333Y-82795000D01*
X86370000Y-82795000D01*
X86370000Y-81525000D01*
G36*
X86370000Y-81525000D02*
G01*
X87723333Y-81525000D01*
X87723333Y-82795000D01*
X86370000Y-82795000D01*
X86370000Y-81525000D01*
G37*
X86370000Y-81525000D02*
X90430000Y-81525000D01*
X90430000Y-82795000D01*
X86370000Y-82795000D01*
X86370000Y-81525000D01*
X86370000Y-84065000D02*
X87723333Y-84065000D01*
X87723333Y-85335000D01*
X86370000Y-85335000D01*
X86370000Y-84065000D01*
G36*
X86370000Y-84065000D02*
G01*
X87723333Y-84065000D01*
X87723333Y-85335000D01*
X86370000Y-85335000D01*
X86370000Y-84065000D01*
G37*
X86370000Y-84065000D02*
X90430000Y-84065000D01*
X90430000Y-85335000D01*
X86370000Y-85335000D01*
X86370000Y-84065000D01*
X86370000Y-86605000D02*
X87723333Y-86605000D01*
X87723333Y-87875000D01*
X86370000Y-87875000D01*
X86370000Y-86605000D01*
G36*
X86370000Y-86605000D02*
G01*
X87723333Y-86605000D01*
X87723333Y-87875000D01*
X86370000Y-87875000D01*
X86370000Y-86605000D01*
G37*
X86370000Y-86605000D02*
X90430000Y-86605000D01*
X90430000Y-87875000D01*
X86370000Y-87875000D01*
X86370000Y-86605000D01*
X86370000Y-89145000D02*
X87723333Y-89145000D01*
X87723333Y-90415000D01*
X86370000Y-90415000D01*
X86370000Y-89145000D01*
G36*
X86370000Y-89145000D02*
G01*
X87723333Y-89145000D01*
X87723333Y-90415000D01*
X86370000Y-90415000D01*
X86370000Y-89145000D01*
G37*
X86370000Y-89145000D02*
X90430000Y-89145000D01*
X90430000Y-90415000D01*
X86370000Y-90415000D01*
X86370000Y-89145000D01*
%TO.C,D17*%
X48704000Y-37880000D02*
X48860000Y-37880000D01*
X51020000Y-37880000D02*
X51176000Y-37880000D01*
X48704484Y-37880000D02*
G75*
G02*
X48860000Y-34648563I1235516J1560000D01*
G01*
X48860000Y-37360961D02*
G75*
G02*
X48860000Y-35279039I1080000J1040961D01*
G01*
X51020000Y-34648563D02*
G75*
G02*
X51175516Y-37880000I-1080000J-1671437D01*
G01*
X51020000Y-35279039D02*
G75*
G02*
X51020000Y-37360961I-1080000J-1040961D01*
G01*
%TO.C,Q19*%
X55820000Y-28645000D02*
X59420000Y-28645000D01*
X55263600Y-25696193D02*
G75*
G02*
X57620000Y-24195000I2356400J-1098807D01*
G01*
X55820000Y-28645000D02*
G75*
G02*
X55295816Y-27917795I1800000J1850000D01*
G01*
X57620000Y-24195000D02*
G75*
G02*
X59976400Y-25696193I0J-2600000D01*
G01*
X59944184Y-27917795D02*
G75*
G02*
X59420000Y-28645000I-2324184J1122795D01*
G01*
%TO.C,Q15*%
X40460000Y-59125000D02*
X44060000Y-59125000D01*
X39903600Y-56176193D02*
G75*
G02*
X42260000Y-54675000I2356400J-1098807D01*
G01*
X40460000Y-59125000D02*
G75*
G02*
X39935816Y-58397795I1800000J1850000D01*
G01*
X42260000Y-54675000D02*
G75*
G02*
X44616400Y-56176193I0J-2600000D01*
G01*
X44584184Y-58397795D02*
G75*
G02*
X44060000Y-59125000I-2324184J1122795D01*
G01*
%TO.C,R43*%
X79490000Y-33780000D02*
X82100000Y-33780000D01*
X79490000Y-33780000D02*
G75*
G02*
X76750000Y-33780000I-1370000J0D01*
G01*
X76750000Y-33780000D02*
G75*
G02*
X79490000Y-33780000I1370000J0D01*
G01*
%TO.C,R45*%
X79490000Y-43940000D02*
X82100000Y-43940000D01*
X79490000Y-43940000D02*
G75*
G02*
X76750000Y-43940000I-1370000J0D01*
G01*
X76750000Y-43940000D02*
G75*
G02*
X79490000Y-43940000I1370000J0D01*
G01*
%TO.C,R1*%
X10370000Y-16000000D02*
X12980000Y-16000000D01*
X10370000Y-16000000D02*
G75*
G02*
X7630000Y-16000000I-1370000J0D01*
G01*
X7630000Y-16000000D02*
G75*
G02*
X10370000Y-16000000I1370000J0D01*
G01*
%TO.C,R4*%
X18050000Y-16000000D02*
X20660000Y-16000000D01*
X18050000Y-16000000D02*
G75*
G02*
X15310000Y-16000000I-1370000J0D01*
G01*
X15310000Y-16000000D02*
G75*
G02*
X18050000Y-16000000I1370000J0D01*
G01*
%TO.C,D14*%
X41024000Y-37880000D02*
X41180000Y-37880000D01*
X43340000Y-37880000D02*
X43496000Y-37880000D01*
X41024484Y-37880000D02*
G75*
G02*
X41180000Y-34648563I1235516J1560000D01*
G01*
X41180000Y-37360961D02*
G75*
G02*
X41180000Y-35279039I1080000J1040961D01*
G01*
X43340000Y-34648563D02*
G75*
G02*
X43495516Y-37880000I-1080000J-1671437D01*
G01*
X43340000Y-35279039D02*
G75*
G02*
X43340000Y-37360961I-1080000J-1040961D01*
G01*
%TO.C,R37*%
X71810000Y-54100000D02*
X74420000Y-54100000D01*
X71810000Y-54100000D02*
G75*
G02*
X69070000Y-54100000I-1370000J0D01*
G01*
X69070000Y-54100000D02*
G75*
G02*
X71810000Y-54100000I1370000J0D01*
G01*
%TO.C,Q16*%
X51740000Y-24945000D02*
X48140000Y-24945000D01*
X47615816Y-25672205D02*
G75*
G02*
X48140000Y-24945000I2324184J-1122795D01*
G01*
X49940000Y-29395000D02*
G75*
G02*
X47583600Y-27893807I0J2600000D01*
G01*
X51740000Y-24945000D02*
G75*
G02*
X52264184Y-25672205I-1800000J-1850000D01*
G01*
X52296400Y-27893807D02*
G75*
G02*
X49940000Y-29395000I-2356400J1098807D01*
G01*
%TO.C,Q25*%
X86540000Y-22295000D02*
X90140000Y-22295000D01*
X85983600Y-19346193D02*
G75*
G02*
X88340000Y-17845000I2356400J-1098807D01*
G01*
X86540000Y-22295000D02*
G75*
G02*
X86015816Y-21567795I1800000J1850000D01*
G01*
X88340000Y-17845000D02*
G75*
G02*
X90696400Y-19346193I0J-2600000D01*
G01*
X90664184Y-21567795D02*
G75*
G02*
X90140000Y-22295000I-2324184J1122795D01*
G01*
%TO.C,R44*%
X79490000Y-38860000D02*
X82100000Y-38860000D01*
X79490000Y-38860000D02*
G75*
G02*
X76750000Y-38860000I-1370000J0D01*
G01*
X76750000Y-38860000D02*
G75*
G02*
X79490000Y-38860000I1370000J0D01*
G01*
%TO.C,Q11*%
X36380000Y-40185000D02*
X32780000Y-40185000D01*
X32255816Y-40912205D02*
G75*
G02*
X32780000Y-40185000I2324184J-1122795D01*
G01*
X34580000Y-44635000D02*
G75*
G02*
X32223600Y-43133807I0J2600000D01*
G01*
X36380000Y-40185000D02*
G75*
G02*
X36904184Y-40912205I-1800000J-1850000D01*
G01*
X36936400Y-43133807D02*
G75*
G02*
X34580000Y-44635000I-2356400J1098807D01*
G01*
%TO.C,R2*%
X10370000Y-31240000D02*
X12980000Y-31240000D01*
X10370000Y-31240000D02*
G75*
G02*
X7630000Y-31240000I-1370000J0D01*
G01*
X7630000Y-31240000D02*
G75*
G02*
X10370000Y-31240000I1370000J0D01*
G01*
%TO.C,Q13*%
X40460000Y-28645000D02*
X44060000Y-28645000D01*
X39903600Y-25696193D02*
G75*
G02*
X42260000Y-24195000I2356400J-1098807D01*
G01*
X40460000Y-28645000D02*
G75*
G02*
X39935816Y-27917795I1800000J1850000D01*
G01*
X42260000Y-24195000D02*
G75*
G02*
X44616400Y-25696193I0J-2600000D01*
G01*
X44584184Y-27917795D02*
G75*
G02*
X44060000Y-28645000I-2324184J1122795D01*
G01*
%TO.C,R21*%
X56450000Y-46480000D02*
X59060000Y-46480000D01*
X56450000Y-46480000D02*
G75*
G02*
X53710000Y-46480000I-1370000J0D01*
G01*
X53710000Y-46480000D02*
G75*
G02*
X56450000Y-46480000I1370000J0D01*
G01*
%TO.C,R22*%
X64130000Y-16000000D02*
X66740000Y-16000000D01*
X64130000Y-16000000D02*
G75*
G02*
X61390000Y-16000000I-1370000J0D01*
G01*
X61390000Y-16000000D02*
G75*
G02*
X64130000Y-16000000I1370000J0D01*
G01*
%TO.C,D10*%
X33344000Y-22640000D02*
X33500000Y-22640000D01*
X35660000Y-22640000D02*
X35816000Y-22640000D01*
X33344484Y-22640000D02*
G75*
G02*
X33500000Y-19408563I1235516J1560000D01*
G01*
X33500000Y-22120961D02*
G75*
G02*
X33500000Y-20039039I1080000J1040961D01*
G01*
X35660000Y-19408563D02*
G75*
G02*
X35815516Y-22640000I-1080000J-1671437D01*
G01*
X35660000Y-20039039D02*
G75*
G02*
X35660000Y-22120961I-1080000J-1040961D01*
G01*
%TO.C,Q2*%
X9740000Y-43885000D02*
X13340000Y-43885000D01*
X9183600Y-40936193D02*
G75*
G02*
X11540000Y-39435000I2356400J-1098807D01*
G01*
X9740000Y-43885000D02*
G75*
G02*
X9215816Y-43157795I1800000J1850000D01*
G01*
X11540000Y-39435000D02*
G75*
G02*
X13896400Y-40936193I0J-2600000D01*
G01*
X13864184Y-43157795D02*
G75*
G02*
X13340000Y-43885000I-2324184J1122795D01*
G01*
%TO.C,R27*%
X87170000Y-32510000D02*
X89780000Y-32510000D01*
X87170000Y-32510000D02*
G75*
G02*
X84430000Y-32510000I-1370000J0D01*
G01*
X84430000Y-32510000D02*
G75*
G02*
X87170000Y-32510000I1370000J0D01*
G01*
%TO.C,R23*%
X64130000Y-31240000D02*
X66740000Y-31240000D01*
X64130000Y-31240000D02*
G75*
G02*
X61390000Y-31240000I-1370000J0D01*
G01*
X61390000Y-31240000D02*
G75*
G02*
X64130000Y-31240000I1370000J0D01*
G01*
%TO.C,R16*%
X48770000Y-16000000D02*
X51380000Y-16000000D01*
X48770000Y-16000000D02*
G75*
G02*
X46030000Y-16000000I-1370000J0D01*
G01*
X46030000Y-16000000D02*
G75*
G02*
X48770000Y-16000000I1370000J0D01*
G01*
%TO.C,R11*%
X33410000Y-31240000D02*
X36020000Y-31240000D01*
X33410000Y-31240000D02*
G75*
G02*
X30670000Y-31240000I-1370000J0D01*
G01*
X30670000Y-31240000D02*
G75*
G02*
X33410000Y-31240000I1370000J0D01*
G01*
%TO.C,R61*%
X74590000Y-81070000D02*
X74590000Y-83680000D01*
X75960000Y-79700000D02*
G75*
G02*
X73220000Y-79700000I-1370000J0D01*
G01*
X73220000Y-79700000D02*
G75*
G02*
X75960000Y-79700000I1370000J0D01*
G01*
%TO.C,R32*%
X71810000Y-28700000D02*
X74420000Y-28700000D01*
X71810000Y-28700000D02*
G75*
G02*
X69070000Y-28700000I-1370000J0D01*
G01*
X69070000Y-28700000D02*
G75*
G02*
X71810000Y-28700000I1370000J0D01*
G01*
%TO.C,D23*%
X64064000Y-37880000D02*
X64220000Y-37880000D01*
X66380000Y-37880000D02*
X66536000Y-37880000D01*
X64064484Y-37880000D02*
G75*
G02*
X64220000Y-34648563I1235516J1560000D01*
G01*
X64220000Y-37360961D02*
G75*
G02*
X64220000Y-35279039I1080000J1040961D01*
G01*
X66380000Y-34648563D02*
G75*
G02*
X66535516Y-37880000I-1080000J-1671437D01*
G01*
X66380000Y-35279039D02*
G75*
G02*
X66380000Y-37360961I-1080000J-1040961D01*
G01*
%TO.C,Q28*%
X86540000Y-47060000D02*
X90140000Y-47060000D01*
X85983600Y-44111193D02*
G75*
G02*
X88340000Y-42610000I2356400J-1098807D01*
G01*
X86540000Y-47060000D02*
G75*
G02*
X86015816Y-46332795I1800000J1850000D01*
G01*
X88340000Y-42610000D02*
G75*
G02*
X90696400Y-44111193I0J-2600000D01*
G01*
X90664184Y-46332795D02*
G75*
G02*
X90140000Y-47060000I-2324184J1122795D01*
G01*
%TO.C,D4*%
X17984000Y-22640000D02*
X18140000Y-22640000D01*
X20300000Y-22640000D02*
X20456000Y-22640000D01*
X17984484Y-22640000D02*
G75*
G02*
X18140000Y-19408563I1235516J1560000D01*
G01*
X18140000Y-22120961D02*
G75*
G02*
X18140000Y-20039039I1080000J1040961D01*
G01*
X20300000Y-19408563D02*
G75*
G02*
X20455516Y-22640000I-1080000J-1671437D01*
G01*
X20300000Y-20039039D02*
G75*
G02*
X20300000Y-22120961I-1080000J-1040961D01*
G01*
%TO.C,R62*%
X74590000Y-88770000D02*
X74590000Y-91380000D01*
X75960000Y-87400000D02*
G75*
G02*
X73220000Y-87400000I-1370000J0D01*
G01*
X73220000Y-87400000D02*
G75*
G02*
X75960000Y-87400000I1370000J0D01*
G01*
%TO.C,R29*%
X64130000Y-64260000D02*
X66740000Y-64260000D01*
X64130000Y-64260000D02*
G75*
G02*
X61390000Y-64260000I-1370000J0D01*
G01*
X61390000Y-64260000D02*
G75*
G02*
X64130000Y-64260000I1370000J0D01*
G01*
%TO.C,Q8*%
X25100000Y-43885000D02*
X28700000Y-43885000D01*
X24543600Y-40936193D02*
G75*
G02*
X26900000Y-39435000I2356400J-1098807D01*
G01*
X25100000Y-43885000D02*
G75*
G02*
X24575816Y-43157795I1800000J1850000D01*
G01*
X26900000Y-39435000D02*
G75*
G02*
X29256400Y-40936193I0J-2600000D01*
G01*
X29224184Y-43157795D02*
G75*
G02*
X28700000Y-43885000I-2324184J1122795D01*
G01*
%TO.C,D2*%
X10304000Y-37880000D02*
X10460000Y-37880000D01*
X12620000Y-37880000D02*
X12776000Y-37880000D01*
X10304484Y-37880000D02*
G75*
G02*
X10460000Y-34648563I1235516J1560000D01*
G01*
X10460000Y-37360961D02*
G75*
G02*
X10460000Y-35279039I1080000J1040961D01*
G01*
X12620000Y-34648563D02*
G75*
G02*
X12775516Y-37880000I-1080000J-1671437D01*
G01*
X12620000Y-35279039D02*
G75*
G02*
X12620000Y-37360961I-1080000J-1040961D01*
G01*
%TO.C,R18*%
X48770000Y-46480000D02*
X51380000Y-46480000D01*
X48770000Y-46480000D02*
G75*
G02*
X46030000Y-46480000I-1370000J0D01*
G01*
X46030000Y-46480000D02*
G75*
G02*
X48770000Y-46480000I1370000J0D01*
G01*
D13*
%TO.C,LOGO*%
G36*
X18290000Y-93354000D02*
G01*
X18328000Y-93359000D01*
X18366000Y-93369000D01*
X18403000Y-93384000D01*
X18439000Y-93403000D01*
X18475000Y-93427000D01*
X18516000Y-93464000D01*
X18550000Y-93504000D01*
X18577000Y-93548000D01*
X18597000Y-93593000D01*
X18609000Y-93641000D01*
X18613000Y-93689000D01*
X18611000Y-93738000D01*
X18601000Y-93786000D01*
X18583000Y-93833000D01*
X18558000Y-93879000D01*
X18526000Y-93921000D01*
X18486000Y-93960000D01*
X18465000Y-93977000D01*
X18442000Y-93992000D01*
X18418000Y-94005000D01*
X18394000Y-94017000D01*
X18368000Y-94026000D01*
X18343000Y-94033000D01*
X18317000Y-94038000D01*
X18291000Y-94041000D01*
X18265000Y-94042000D01*
X18239000Y-94041000D01*
X18214000Y-94037000D01*
X18190000Y-94031000D01*
X18129000Y-94006000D01*
X18075000Y-93973000D01*
X18029000Y-93932000D01*
X17992000Y-93885000D01*
X17963000Y-93833000D01*
X17943000Y-93778000D01*
X17933000Y-93721000D01*
X17933000Y-93663000D01*
X17943000Y-93605000D01*
X17963000Y-93550000D01*
X17995000Y-93498000D01*
X18037000Y-93450000D01*
X18071000Y-93422000D01*
X18105000Y-93399000D01*
X18141000Y-93381000D01*
X18178000Y-93367000D01*
X18215000Y-93358000D01*
X18252000Y-93353000D01*
X18290000Y-93354000D01*
G37*
G36*
X12816000Y-87901000D02*
G01*
X12881000Y-87928000D01*
X12941000Y-87971000D01*
X12994000Y-88030000D01*
X13008000Y-88050000D01*
X13020000Y-88072000D01*
X13030000Y-88094000D01*
X13039000Y-88118000D01*
X13046000Y-88142000D01*
X13052000Y-88166000D01*
X13056000Y-88191000D01*
X13058000Y-88216000D01*
X13058000Y-88241000D01*
X13057000Y-88266000D01*
X13054000Y-88291000D01*
X13049000Y-88315000D01*
X13041000Y-88341000D01*
X13029000Y-88368000D01*
X13015000Y-88394000D01*
X12998000Y-88419000D01*
X12979000Y-88444000D01*
X12958000Y-88467000D01*
X12935000Y-88489000D01*
X12911000Y-88509000D01*
X12886000Y-88526000D01*
X12861000Y-88541000D01*
X12835000Y-88552000D01*
X12810000Y-88561000D01*
X12790000Y-88566000D01*
X12772000Y-88570000D01*
X12756000Y-88573000D01*
X12741000Y-88575000D01*
X12728000Y-88576000D01*
X12715000Y-88576000D01*
X12701000Y-88575000D01*
X12688000Y-88573000D01*
X12673000Y-88570000D01*
X12657000Y-88566000D01*
X12640000Y-88561000D01*
X12620000Y-88555000D01*
X12584000Y-88542000D01*
X12551000Y-88526000D01*
X12519000Y-88506000D01*
X12491000Y-88484000D01*
X12465000Y-88459000D01*
X12443000Y-88432000D01*
X12423000Y-88403000D01*
X12407000Y-88371000D01*
X12394000Y-88338000D01*
X12385000Y-88304000D01*
X12379000Y-88267000D01*
X12377000Y-88230000D01*
X12386000Y-88151000D01*
X12411000Y-88081000D01*
X12448000Y-88020000D01*
X12495000Y-87970000D01*
X12552000Y-87931000D01*
X12614000Y-87904000D01*
X12680000Y-87889000D01*
X12749000Y-87888000D01*
X12816000Y-87901000D01*
G37*
G36*
X18338000Y-87893000D02*
G01*
X18402000Y-87913000D01*
X18463000Y-87946000D01*
X18518000Y-87995000D01*
X18555000Y-88041000D01*
X18582000Y-88089000D01*
X18601000Y-88139000D01*
X18612000Y-88190000D01*
X18615000Y-88242000D01*
X18609000Y-88293000D01*
X18596000Y-88342000D01*
X18575000Y-88390000D01*
X18546000Y-88434000D01*
X18510000Y-88474000D01*
X18466000Y-88510000D01*
X18416000Y-88540000D01*
X18399000Y-88548000D01*
X18381000Y-88554000D01*
X18361000Y-88560000D01*
X18341000Y-88564000D01*
X18319000Y-88568000D01*
X18297000Y-88570000D01*
X18275000Y-88571000D01*
X18253000Y-88572000D01*
X18232000Y-88571000D01*
X18211000Y-88569000D01*
X18192000Y-88566000D01*
X18173000Y-88561000D01*
X18165000Y-88559000D01*
X18157000Y-88556000D01*
X18147000Y-88551000D01*
X18138000Y-88547000D01*
X18127000Y-88541000D01*
X18117000Y-88535000D01*
X18106000Y-88529000D01*
X18096000Y-88522000D01*
X18086000Y-88515000D01*
X18076000Y-88508000D01*
X18067000Y-88501000D01*
X18058000Y-88494000D01*
X18038000Y-88476000D01*
X18019000Y-88457000D01*
X18003000Y-88438000D01*
X17988000Y-88418000D01*
X17975000Y-88397000D01*
X17964000Y-88376000D01*
X17955000Y-88354000D01*
X17948000Y-88331000D01*
X17942000Y-88308000D01*
X17938000Y-88283000D01*
X17935000Y-88257000D01*
X17934000Y-88230000D01*
X17941000Y-88156000D01*
X17962000Y-88090000D01*
X17994000Y-88031000D01*
X18037000Y-87981000D01*
X18089000Y-87941000D01*
X18146000Y-87912000D01*
X18208000Y-87893000D01*
X18273000Y-87887000D01*
X18338000Y-87893000D01*
G37*
G36*
X16295000Y-93246000D02*
G01*
X16341000Y-93251000D01*
X16376000Y-93261000D01*
X16401000Y-93278000D01*
X16419000Y-93303000D01*
X16429000Y-93337000D01*
X16435000Y-93383000D01*
X16438000Y-93442000D01*
X16438000Y-93515000D01*
X16439000Y-93605000D01*
X16444000Y-93908000D01*
X16407000Y-93950000D01*
X16371000Y-93993000D01*
X16084000Y-93997000D01*
X16032000Y-93997000D01*
X15986000Y-93997000D01*
X15945000Y-93997000D01*
X15909000Y-93997000D01*
X15878000Y-93996000D01*
X15851000Y-93995000D01*
X15828000Y-93994000D01*
X15809000Y-93992000D01*
X15793000Y-93990000D01*
X15780000Y-93987000D01*
X15770000Y-93984000D01*
X15762000Y-93980000D01*
X15747000Y-93971000D01*
X15733000Y-93960000D01*
X15722000Y-93948000D01*
X15713000Y-93934000D01*
X15706000Y-93916000D01*
X15700000Y-93893000D01*
X15695000Y-93866000D01*
X15692000Y-93832000D01*
X15690000Y-93791000D01*
X15688000Y-93743000D01*
X15688000Y-93685000D01*
X15687000Y-93618000D01*
X15687000Y-93552000D01*
X15688000Y-93495000D01*
X15690000Y-93445000D01*
X15692000Y-93403000D01*
X15695000Y-93368000D01*
X15699000Y-93338000D01*
X15705000Y-93314000D01*
X15712000Y-93295000D01*
X15720000Y-93280000D01*
X15730000Y-93269000D01*
X15741000Y-93260000D01*
X15754000Y-93254000D01*
X15771000Y-93252000D01*
X15787000Y-93250000D01*
X15806000Y-93249000D01*
X15830000Y-93248000D01*
X15857000Y-93248000D01*
X15887000Y-93247000D01*
X15920000Y-93246000D01*
X15956000Y-93246000D01*
X15993000Y-93245000D01*
X16032000Y-93245000D01*
X16071000Y-93245000D01*
X16162000Y-93244000D01*
X16235000Y-93244000D01*
X16295000Y-93246000D01*
G37*
G36*
X17134000Y-93245000D02*
G01*
X17198000Y-93245000D01*
X17253000Y-93245000D01*
X17299000Y-93246000D01*
X17336000Y-93246000D01*
X17367000Y-93248000D01*
X17392000Y-93249000D01*
X17412000Y-93252000D01*
X17428000Y-93255000D01*
X17441000Y-93259000D01*
X17452000Y-93263000D01*
X17461000Y-93269000D01*
X17470000Y-93276000D01*
X17509000Y-93306000D01*
X17509000Y-93615000D01*
X17509000Y-93924000D01*
X17463000Y-93962000D01*
X17453000Y-93971000D01*
X17443000Y-93978000D01*
X17433000Y-93984000D01*
X17421000Y-93989000D01*
X17407000Y-93993000D01*
X17390000Y-93995000D01*
X17367000Y-93997000D01*
X17340000Y-93999000D01*
X17305000Y-93999000D01*
X17262000Y-94000000D01*
X17210000Y-93999000D01*
X17149000Y-93999000D01*
X17112000Y-93999000D01*
X17076000Y-93999000D01*
X17042000Y-93998000D01*
X17010000Y-93998000D01*
X16980000Y-93997000D01*
X16952000Y-93996000D01*
X16927000Y-93995000D01*
X16905000Y-93994000D01*
X16887000Y-93993000D01*
X16873000Y-93992000D01*
X16857000Y-93990000D01*
X16850000Y-93987000D01*
X16841000Y-93982000D01*
X16832000Y-93975000D01*
X16821000Y-93968000D01*
X16811000Y-93960000D01*
X16802000Y-93951000D01*
X16794000Y-93944000D01*
X16788000Y-93937000D01*
X16783000Y-93928000D01*
X16778000Y-93917000D01*
X16775000Y-93903000D01*
X16773000Y-93884000D01*
X16771000Y-93860000D01*
X16770000Y-93828000D01*
X16769000Y-93789000D01*
X16768000Y-93742000D01*
X16768000Y-93684000D01*
X16768000Y-93615000D01*
X16768000Y-93523000D01*
X16768000Y-93448000D01*
X16769000Y-93387000D01*
X16775000Y-93340000D01*
X16785000Y-93305000D01*
X16802000Y-93279000D01*
X16827000Y-93262000D01*
X16862000Y-93251000D01*
X16909000Y-93246000D01*
X16969000Y-93244000D01*
X17043000Y-93244000D01*
X17134000Y-93245000D01*
G37*
G36*
X12738000Y-93357000D02*
G01*
X12774000Y-93362000D01*
X12810000Y-93370000D01*
X12844000Y-93381000D01*
X12877000Y-93395000D01*
X12908000Y-93412000D01*
X12936000Y-93433000D01*
X12962000Y-93456000D01*
X12984000Y-93483000D01*
X13004000Y-93512000D01*
X13020000Y-93543000D01*
X13034000Y-93576000D01*
X13044000Y-93610000D01*
X13051000Y-93645000D01*
X13055000Y-93680000D01*
X13056000Y-93715000D01*
X13053000Y-93750000D01*
X13047000Y-93784000D01*
X13037000Y-93816000D01*
X13023000Y-93847000D01*
X13011000Y-93867000D01*
X12998000Y-93887000D01*
X12983000Y-93907000D01*
X12966000Y-93926000D01*
X12948000Y-93944000D01*
X12928000Y-93961000D01*
X12908000Y-93976000D01*
X12888000Y-93991000D01*
X12867000Y-94003000D01*
X12846000Y-94014000D01*
X12826000Y-94022000D01*
X12805000Y-94028000D01*
X12787000Y-94033000D01*
X12770000Y-94036000D01*
X12755000Y-94039000D01*
X12740000Y-94041000D01*
X12725000Y-94042000D01*
X12711000Y-94042000D01*
X12697000Y-94042000D01*
X12683000Y-94041000D01*
X12668000Y-94039000D01*
X12652000Y-94036000D01*
X12636000Y-94032000D01*
X12618000Y-94027000D01*
X12600000Y-94021000D01*
X12581000Y-94013000D01*
X12562000Y-94002000D01*
X12542000Y-93990000D01*
X12523000Y-93976000D01*
X12503000Y-93960000D01*
X12485000Y-93944000D01*
X12467000Y-93926000D01*
X12451000Y-93908000D01*
X12437000Y-93890000D01*
X12424000Y-93872000D01*
X12414000Y-93854000D01*
X12396000Y-93811000D01*
X12384000Y-93767000D01*
X12378000Y-93722000D01*
X12378000Y-93678000D01*
X12383000Y-93634000D01*
X12394000Y-93591000D01*
X12411000Y-93550000D01*
X12432000Y-93512000D01*
X12459000Y-93476000D01*
X12490000Y-93443000D01*
X12526000Y-93414000D01*
X12567000Y-93389000D01*
X12598000Y-93375000D01*
X12631000Y-93365000D01*
X12666000Y-93359000D01*
X12702000Y-93356000D01*
X12738000Y-93357000D01*
G37*
G36*
X14986000Y-93245000D02*
G01*
X15050000Y-93245000D01*
X15105000Y-93245000D01*
X15150000Y-93246000D01*
X15188000Y-93246000D01*
X15219000Y-93248000D01*
X15244000Y-93249000D01*
X15264000Y-93252000D01*
X15280000Y-93255000D01*
X15293000Y-93259000D01*
X15303000Y-93263000D01*
X15313000Y-93269000D01*
X15322000Y-93276000D01*
X15361000Y-93306000D01*
X15361000Y-93608000D01*
X15361000Y-93649000D01*
X15360000Y-93688000D01*
X15360000Y-93727000D01*
X15360000Y-93763000D01*
X15359000Y-93797000D01*
X15358000Y-93828000D01*
X15357000Y-93855000D01*
X15356000Y-93880000D01*
X15355000Y-93900000D01*
X15354000Y-93916000D01*
X15353000Y-93927000D01*
X15345000Y-93946000D01*
X15337000Y-93958000D01*
X15325000Y-93967000D01*
X15310000Y-93975000D01*
X15291000Y-93982000D01*
X15267000Y-93988000D01*
X15238000Y-93992000D01*
X15202000Y-93995000D01*
X15160000Y-93998000D01*
X15111000Y-93999000D01*
X15053000Y-94000000D01*
X14987000Y-94000000D01*
X14947000Y-94000000D01*
X14908000Y-93999000D01*
X14872000Y-93999000D01*
X14839000Y-93998000D01*
X14809000Y-93997000D01*
X14781000Y-93995000D01*
X14757000Y-93994000D01*
X14736000Y-93992000D01*
X14718000Y-93990000D01*
X14704000Y-93988000D01*
X14687000Y-93983000D01*
X14672000Y-93975000D01*
X14660000Y-93966000D01*
X14649000Y-93956000D01*
X14641000Y-93943000D01*
X14634000Y-93927000D01*
X14629000Y-93905000D01*
X14626000Y-93878000D01*
X14623000Y-93844000D01*
X14621000Y-93802000D01*
X14621000Y-93750000D01*
X14620000Y-93688000D01*
X14620000Y-93615000D01*
X14620000Y-93523000D01*
X14620000Y-93448000D01*
X14621000Y-93387000D01*
X14627000Y-93340000D01*
X14637000Y-93305000D01*
X14654000Y-93279000D01*
X14679000Y-93262000D01*
X14714000Y-93251000D01*
X14761000Y-93246000D01*
X14821000Y-93244000D01*
X14895000Y-93244000D01*
X14986000Y-93245000D01*
G37*
G36*
X24667000Y-88130000D02*
G01*
X24731000Y-88140000D01*
X24795000Y-88156000D01*
X24859000Y-88178000D01*
X24909000Y-88199000D01*
X24955000Y-88224000D01*
X24999000Y-88253000D01*
X25038000Y-88285000D01*
X25075000Y-88321000D01*
X25107000Y-88360000D01*
X25137000Y-88402000D01*
X25162000Y-88448000D01*
X25184000Y-88496000D01*
X25202000Y-88548000D01*
X25216000Y-88603000D01*
X25226000Y-88660000D01*
X25233000Y-88725000D01*
X25234000Y-88788000D01*
X25229000Y-88850000D01*
X25219000Y-88910000D01*
X25203000Y-88968000D01*
X25182000Y-89023000D01*
X25157000Y-89076000D01*
X25126000Y-89126000D01*
X25091000Y-89173000D01*
X25051000Y-89216000D01*
X25006000Y-89255000D01*
X24957000Y-89291000D01*
X24920000Y-89313000D01*
X24882000Y-89333000D01*
X24843000Y-89350000D01*
X24804000Y-89365000D01*
X24764000Y-89378000D01*
X24723000Y-89387000D01*
X24682000Y-89395000D01*
X24640000Y-89399000D01*
X24599000Y-89401000D01*
X24557000Y-89401000D01*
X24515000Y-89397000D01*
X24473000Y-89391000D01*
X24443000Y-89385000D01*
X24413000Y-89378000D01*
X24384000Y-89369000D01*
X24356000Y-89359000D01*
X24328000Y-89347000D01*
X24301000Y-89334000D01*
X24274000Y-89319000D01*
X24248000Y-89303000D01*
X24222000Y-89285000D01*
X24197000Y-89266000D01*
X24172000Y-89245000D01*
X24147000Y-89223000D01*
X24088000Y-89157000D01*
X24040000Y-89085000D01*
X24002000Y-89008000D01*
X23976000Y-88926000D01*
X23960000Y-88843000D01*
X23956000Y-88757000D01*
X23962000Y-88673000D01*
X23979000Y-88589000D01*
X24007000Y-88508000D01*
X24046000Y-88432000D01*
X24095000Y-88361000D01*
X24156000Y-88297000D01*
X24205000Y-88256000D01*
X24256000Y-88221000D01*
X24310000Y-88191000D01*
X24366000Y-88167000D01*
X24423000Y-88148000D01*
X24482000Y-88135000D01*
X24543000Y-88128000D01*
X24605000Y-88126000D01*
X24667000Y-88130000D01*
G37*
G36*
X14091000Y-93245000D02*
G01*
X14151000Y-93247000D01*
X14198000Y-93252000D01*
X14233000Y-93263000D01*
X14259000Y-93280000D01*
X14276000Y-93306000D01*
X14287000Y-93341000D01*
X14292000Y-93388000D01*
X14294000Y-93448000D01*
X14294000Y-93523000D01*
X14294000Y-93614000D01*
X14294000Y-93681000D01*
X14294000Y-93737000D01*
X14293000Y-93784000D01*
X14293000Y-93822000D01*
X14291000Y-93852000D01*
X14289000Y-93877000D01*
X14287000Y-93896000D01*
X14283000Y-93910000D01*
X14279000Y-93922000D01*
X14273000Y-93932000D01*
X14266000Y-93942000D01*
X14258000Y-93951000D01*
X14223000Y-93993000D01*
X13936000Y-93997000D01*
X13884000Y-93997000D01*
X13838000Y-93997000D01*
X13797000Y-93997000D01*
X13761000Y-93997000D01*
X13730000Y-93996000D01*
X13703000Y-93995000D01*
X13680000Y-93994000D01*
X13661000Y-93992000D01*
X13645000Y-93990000D01*
X13632000Y-93987000D01*
X13622000Y-93984000D01*
X13614000Y-93980000D01*
X13599000Y-93971000D01*
X13585000Y-93960000D01*
X13574000Y-93948000D01*
X13565000Y-93934000D01*
X13557000Y-93916000D01*
X13552000Y-93893000D01*
X13547000Y-93866000D01*
X13544000Y-93832000D01*
X13542000Y-93791000D01*
X13540000Y-93743000D01*
X13539000Y-93685000D01*
X13539000Y-93618000D01*
X13539000Y-93552000D01*
X13540000Y-93495000D01*
X13541000Y-93445000D01*
X13544000Y-93403000D01*
X13547000Y-93368000D01*
X13551000Y-93338000D01*
X13557000Y-93314000D01*
X13563000Y-93295000D01*
X13572000Y-93280000D01*
X13581000Y-93269000D01*
X13593000Y-93260000D01*
X13606000Y-93254000D01*
X13623000Y-93252000D01*
X13639000Y-93250000D01*
X13659000Y-93249000D01*
X13682000Y-93248000D01*
X13710000Y-93248000D01*
X13740000Y-93247000D01*
X13773000Y-93246000D01*
X13809000Y-93246000D01*
X13846000Y-93245000D01*
X13885000Y-93245000D01*
X13926000Y-93245000D01*
X14016000Y-93244000D01*
X14091000Y-93245000D01*
G37*
G36*
X24716000Y-89716000D02*
G01*
X24796000Y-89737000D01*
X24872000Y-89767000D01*
X24942000Y-89806000D01*
X25005000Y-89854000D01*
X25061000Y-89909000D01*
X25106000Y-89973000D01*
X25141000Y-90044000D01*
X25173000Y-90126000D01*
X25171000Y-91528000D01*
X25171000Y-91863000D01*
X25171000Y-92143000D01*
X25170000Y-92374000D01*
X25168000Y-92560000D01*
X25166000Y-92707000D01*
X25162000Y-92822000D01*
X25158000Y-92908000D01*
X25152000Y-92972000D01*
X25144000Y-93020000D01*
X25134000Y-93055000D01*
X25122000Y-93085000D01*
X25108000Y-93114000D01*
X25089000Y-93146000D01*
X25066000Y-93177000D01*
X25040000Y-93206000D01*
X25011000Y-93235000D01*
X24978000Y-93261000D01*
X24943000Y-93285000D01*
X24906000Y-93307000D01*
X24867000Y-93327000D01*
X24826000Y-93344000D01*
X24784000Y-93359000D01*
X24742000Y-93370000D01*
X24698000Y-93378000D01*
X24672000Y-93382000D01*
X24648000Y-93385000D01*
X24628000Y-93387000D01*
X24610000Y-93389000D01*
X24593000Y-93390000D01*
X24577000Y-93390000D01*
X24561000Y-93390000D01*
X24545000Y-93389000D01*
X24528000Y-93387000D01*
X24509000Y-93384000D01*
X24487000Y-93381000D01*
X24463000Y-93377000D01*
X24420000Y-93368000D01*
X24377000Y-93355000D01*
X24335000Y-93339000D01*
X24294000Y-93319000D01*
X24256000Y-93297000D01*
X24219000Y-93272000D01*
X24184000Y-93244000D01*
X24152000Y-93214000D01*
X24122000Y-93183000D01*
X24096000Y-93149000D01*
X24074000Y-93114000D01*
X24055000Y-93077000D01*
X24020000Y-93000000D01*
X24020000Y-91541000D01*
X24020000Y-90082000D01*
X24053000Y-90014000D01*
X24068000Y-89987000D01*
X24083000Y-89961000D01*
X24099000Y-89936000D01*
X24116000Y-89913000D01*
X24134000Y-89892000D01*
X24154000Y-89871000D01*
X24175000Y-89852000D01*
X24197000Y-89834000D01*
X24220000Y-89816000D01*
X24245000Y-89800000D01*
X24272000Y-89785000D01*
X24301000Y-89770000D01*
X24382000Y-89737000D01*
X24465000Y-89715000D01*
X24549000Y-89705000D01*
X24634000Y-89705000D01*
X24716000Y-89716000D01*
G37*
G36*
X34184000Y-88142000D02*
G01*
X34250000Y-88153000D01*
X34313000Y-88171000D01*
X34372000Y-88195000D01*
X34428000Y-88224000D01*
X34478000Y-88258000D01*
X34524000Y-88297000D01*
X34565000Y-88342000D01*
X34599000Y-88390000D01*
X34628000Y-88443000D01*
X34649000Y-88499000D01*
X34656000Y-88523000D01*
X34662000Y-88552000D01*
X34666000Y-88593000D01*
X34670000Y-88654000D01*
X34673000Y-88742000D01*
X34675000Y-88865000D01*
X34677000Y-89030000D01*
X34678000Y-89245000D01*
X34679000Y-89517000D01*
X34679000Y-89853000D01*
X34679000Y-90262000D01*
X34679000Y-90749000D01*
X34679000Y-91261000D01*
X34679000Y-91689000D01*
X34678000Y-92041000D01*
X34677000Y-92325000D01*
X34675000Y-92549000D01*
X34672000Y-92722000D01*
X34667000Y-92850000D01*
X34661000Y-92942000D01*
X34654000Y-93007000D01*
X34644000Y-93051000D01*
X34633000Y-93084000D01*
X34619000Y-93113000D01*
X34607000Y-93134000D01*
X34591000Y-93156000D01*
X34573000Y-93178000D01*
X34551000Y-93201000D01*
X34528000Y-93224000D01*
X34503000Y-93247000D01*
X34476000Y-93268000D01*
X34450000Y-93289000D01*
X34423000Y-93307000D01*
X34396000Y-93323000D01*
X34371000Y-93337000D01*
X34346000Y-93347000D01*
X34321000Y-93355000D01*
X34293000Y-93363000D01*
X34262000Y-93369000D01*
X34229000Y-93375000D01*
X34194000Y-93379000D01*
X34159000Y-93383000D01*
X34123000Y-93385000D01*
X34088000Y-93386000D01*
X34053000Y-93386000D01*
X34021000Y-93385000D01*
X33990000Y-93382000D01*
X33962000Y-93378000D01*
X33935000Y-93372000D01*
X33906000Y-93364000D01*
X33876000Y-93354000D01*
X33847000Y-93342000D01*
X33817000Y-93329000D01*
X33788000Y-93314000D01*
X33760000Y-93298000D01*
X33733000Y-93282000D01*
X33709000Y-93264000D01*
X33686000Y-93247000D01*
X33666000Y-93229000D01*
X33648000Y-93211000D01*
X33641000Y-93202000D01*
X33633000Y-93191000D01*
X33624000Y-93180000D01*
X33616000Y-93168000D01*
X33607000Y-93156000D01*
X33599000Y-93143000D01*
X33590000Y-93130000D01*
X33582000Y-93117000D01*
X33575000Y-93104000D01*
X33568000Y-93091000D01*
X33561000Y-93079000D01*
X33555000Y-93067000D01*
X33516000Y-92986000D01*
X33516000Y-90763000D01*
X33516000Y-88541000D01*
X33559000Y-88448000D01*
X33583000Y-88403000D01*
X33609000Y-88362000D01*
X33639000Y-88324000D01*
X33673000Y-88289000D01*
X33710000Y-88257000D01*
X33749000Y-88229000D01*
X33792000Y-88204000D01*
X33838000Y-88183000D01*
X33886000Y-88166000D01*
X33936000Y-88153000D01*
X33989000Y-88143000D01*
X34045000Y-88137000D01*
X34115000Y-88136000D01*
X34184000Y-88142000D01*
G37*
G36*
X22034000Y-89584000D02*
G01*
X22124000Y-89589000D01*
X22214000Y-89599000D01*
X22303000Y-89612000D01*
X22390000Y-89629000D01*
X22482000Y-89653000D01*
X22573000Y-89682000D01*
X22663000Y-89716000D01*
X22751000Y-89756000D01*
X22837000Y-89801000D01*
X22920000Y-89850000D01*
X23001000Y-89904000D01*
X23078000Y-89961000D01*
X23151000Y-90023000D01*
X23219000Y-90087000D01*
X23283000Y-90155000D01*
X23341000Y-90226000D01*
X23378000Y-90276000D01*
X23413000Y-90330000D01*
X23446000Y-90387000D01*
X23478000Y-90446000D01*
X23508000Y-90508000D01*
X23536000Y-90571000D01*
X23561000Y-90636000D01*
X23584000Y-90703000D01*
X23605000Y-90770000D01*
X23623000Y-90837000D01*
X23638000Y-90905000D01*
X23650000Y-90972000D01*
X23655000Y-91004000D01*
X23658000Y-91041000D01*
X23662000Y-91083000D01*
X23664000Y-91133000D01*
X23666000Y-91193000D01*
X23668000Y-91264000D01*
X23669000Y-91350000D01*
X23670000Y-91452000D01*
X23670000Y-91572000D01*
X23670000Y-91712000D01*
X23670000Y-91874000D01*
X23669000Y-92060000D01*
X23665000Y-93000000D01*
X23621000Y-93086000D01*
X23599000Y-93125000D01*
X23574000Y-93162000D01*
X23546000Y-93196000D01*
X23515000Y-93228000D01*
X23482000Y-93257000D01*
X23446000Y-93284000D01*
X23407000Y-93307000D01*
X23367000Y-93328000D01*
X23324000Y-93345000D01*
X23280000Y-93360000D01*
X23233000Y-93371000D01*
X23186000Y-93379000D01*
X23117000Y-93384000D01*
X23049000Y-93384000D01*
X22985000Y-93378000D01*
X22922000Y-93366000D01*
X22863000Y-93348000D01*
X22807000Y-93325000D01*
X22755000Y-93297000D01*
X22707000Y-93264000D01*
X22664000Y-93226000D01*
X22625000Y-93183000D01*
X22591000Y-93136000D01*
X22563000Y-93084000D01*
X22524000Y-93000000D01*
X22516000Y-92104000D01*
X22514000Y-91901000D01*
X22513000Y-91730000D01*
X22511000Y-91589000D01*
X22510000Y-91475000D01*
X22508000Y-91384000D01*
X22505000Y-91314000D01*
X22502000Y-91260000D01*
X22499000Y-91219000D01*
X22495000Y-91189000D01*
X22489000Y-91165000D01*
X22483000Y-91146000D01*
X22476000Y-91126000D01*
X22449000Y-91068000D01*
X22417000Y-91015000D01*
X22382000Y-90966000D01*
X22342000Y-90923000D01*
X22299000Y-90885000D01*
X22252000Y-90852000D01*
X22201000Y-90825000D01*
X22147000Y-90804000D01*
X22090000Y-90788000D01*
X22030000Y-90777000D01*
X21967000Y-90773000D01*
X21902000Y-90775000D01*
X21842000Y-90781000D01*
X21785000Y-90793000D01*
X21731000Y-90809000D01*
X21681000Y-90830000D01*
X21634000Y-90855000D01*
X21590000Y-90885000D01*
X21550000Y-90920000D01*
X21513000Y-90959000D01*
X21480000Y-91002000D01*
X21450000Y-91051000D01*
X21424000Y-91103000D01*
X21401000Y-91160000D01*
X21398000Y-91174000D01*
X21395000Y-91199000D01*
X21393000Y-91235000D01*
X21391000Y-91283000D01*
X21388000Y-91342000D01*
X21386000Y-91413000D01*
X21384000Y-91496000D01*
X21382000Y-91592000D01*
X21381000Y-91699000D01*
X21379000Y-91819000D01*
X21378000Y-91951000D01*
X21376000Y-92097000D01*
X21368000Y-92986000D01*
X21329000Y-93069000D01*
X21315000Y-93097000D01*
X21300000Y-93123000D01*
X21284000Y-93148000D01*
X21267000Y-93172000D01*
X21249000Y-93195000D01*
X21230000Y-93216000D01*
X21210000Y-93236000D01*
X21188000Y-93255000D01*
X21166000Y-93273000D01*
X21142000Y-93289000D01*
X21118000Y-93304000D01*
X21092000Y-93318000D01*
X21073000Y-93327000D01*
X21055000Y-93335000D01*
X21038000Y-93342000D01*
X21021000Y-93348000D01*
X21004000Y-93354000D01*
X20985000Y-93359000D01*
X20966000Y-93363000D01*
X20944000Y-93368000D01*
X20920000Y-93372000D01*
X20893000Y-93376000D01*
X20862000Y-93379000D01*
X20827000Y-93384000D01*
X20814000Y-93384000D01*
X20805000Y-93384000D01*
X20795000Y-93384000D01*
X20784000Y-93384000D01*
X20772000Y-93383000D01*
X20759000Y-93383000D01*
X20746000Y-93382000D01*
X20732000Y-93381000D01*
X20719000Y-93380000D01*
X20705000Y-93378000D01*
X20691000Y-93377000D01*
X20659000Y-93373000D01*
X20628000Y-93367000D01*
X20598000Y-93359000D01*
X20569000Y-93350000D01*
X20540000Y-93340000D01*
X20513000Y-93328000D01*
X20486000Y-93314000D01*
X20460000Y-93299000D01*
X20435000Y-93283000D01*
X20411000Y-93265000D01*
X20388000Y-93245000D01*
X20366000Y-93224000D01*
X20346000Y-93204000D01*
X20327000Y-93183000D01*
X20310000Y-93161000D01*
X20295000Y-93139000D01*
X20281000Y-93117000D01*
X20269000Y-93094000D01*
X20257000Y-93071000D01*
X20248000Y-93047000D01*
X20239000Y-93021000D01*
X20231000Y-92995000D01*
X20225000Y-92968000D01*
X20220000Y-92939000D01*
X20215000Y-92884000D01*
X20212000Y-92781000D01*
X20209000Y-92638000D01*
X20207000Y-92465000D01*
X20206000Y-92272000D01*
X20206000Y-92068000D01*
X20206000Y-91861000D01*
X20207000Y-91661000D01*
X20209000Y-91477000D01*
X20212000Y-91318000D01*
X20215000Y-91194000D01*
X20220000Y-91114000D01*
X20230000Y-91014000D01*
X20245000Y-90918000D01*
X20265000Y-90825000D01*
X20289000Y-90734000D01*
X20318000Y-90647000D01*
X20351000Y-90563000D01*
X20390000Y-90481000D01*
X20432000Y-90402000D01*
X20480000Y-90326000D01*
X20533000Y-90252000D01*
X20590000Y-90180000D01*
X20652000Y-90110000D01*
X20701000Y-90061000D01*
X20751000Y-90014000D01*
X20802000Y-89970000D01*
X20854000Y-89928000D01*
X20908000Y-89889000D01*
X20963000Y-89853000D01*
X21020000Y-89818000D01*
X21079000Y-89786000D01*
X21140000Y-89756000D01*
X21204000Y-89728000D01*
X21270000Y-89701000D01*
X21339000Y-89677000D01*
X21418000Y-89652000D01*
X21501000Y-89631000D01*
X21586000Y-89614000D01*
X21673000Y-89600000D01*
X21762000Y-89590000D01*
X21852000Y-89584000D01*
X21943000Y-89582000D01*
X22034000Y-89584000D01*
G37*
G36*
X29316000Y-91524000D02*
G01*
X29310000Y-91678000D01*
X29293000Y-91830000D01*
X29263000Y-91979000D01*
X29223000Y-92125000D01*
X29172000Y-92268000D01*
X29110000Y-92406000D01*
X29039000Y-92539000D01*
X28957000Y-92665000D01*
X28867000Y-92785000D01*
X28767000Y-92898000D01*
X28658000Y-93002000D01*
X28542000Y-93098000D01*
X28486000Y-93138000D01*
X28426000Y-93177000D01*
X28364000Y-93214000D01*
X28298000Y-93249000D01*
X28230000Y-93283000D01*
X28160000Y-93314000D01*
X28089000Y-93343000D01*
X28018000Y-93370000D01*
X27946000Y-93394000D01*
X27874000Y-93414000D01*
X27803000Y-93432000D01*
X27734000Y-93446000D01*
X27684000Y-93453000D01*
X27630000Y-93460000D01*
X27573000Y-93465000D01*
X27512000Y-93470000D01*
X27449000Y-93473000D01*
X27386000Y-93475000D01*
X27322000Y-93475000D01*
X27260000Y-93475000D01*
X27200000Y-93473000D01*
X27143000Y-93470000D01*
X27091000Y-93466000D01*
X27044000Y-93460000D01*
X26877000Y-93429000D01*
X26717000Y-93384000D01*
X26565000Y-93328000D01*
X26420000Y-93258000D01*
X26285000Y-93178000D01*
X26159000Y-93086000D01*
X26043000Y-92984000D01*
X25938000Y-92872000D01*
X25844000Y-92750000D01*
X25762000Y-92619000D01*
X25693000Y-92480000D01*
X25638000Y-92334000D01*
X25618000Y-92270000D01*
X25601000Y-92212000D01*
X25587000Y-92152000D01*
X25576000Y-92085000D01*
X25567000Y-92003000D01*
X25561000Y-91901000D01*
X25556000Y-91771000D01*
X25552000Y-91609000D01*
X25550360Y-91498000D01*
X26676000Y-91498000D01*
X26676000Y-91525000D01*
X26676000Y-91556000D01*
X26678000Y-91629000D01*
X26686000Y-91698000D01*
X26698000Y-91763000D01*
X26714000Y-91825000D01*
X26736000Y-91882000D01*
X26762000Y-91936000D01*
X26793000Y-91986000D01*
X26828000Y-92032000D01*
X26868000Y-92074000D01*
X26913000Y-92112000D01*
X26962000Y-92146000D01*
X27017000Y-92177000D01*
X27054000Y-92194000D01*
X27094000Y-92209000D01*
X27136000Y-92221000D01*
X27181000Y-92232000D01*
X27226000Y-92240000D01*
X27273000Y-92246000D01*
X27320000Y-92249000D01*
X27368000Y-92250000D01*
X27415000Y-92249000D01*
X27462000Y-92245000D01*
X27508000Y-92238000D01*
X27552000Y-92229000D01*
X27614000Y-92212000D01*
X27673000Y-92188000D01*
X27729000Y-92160000D01*
X27782000Y-92126000D01*
X27832000Y-92088000D01*
X27878000Y-92046000D01*
X27920000Y-92000000D01*
X27957000Y-91950000D01*
X27990000Y-91897000D01*
X28017000Y-91841000D01*
X28039000Y-91783000D01*
X28055000Y-91722000D01*
X28060000Y-91693000D01*
X28065000Y-91662000D01*
X28068000Y-91628000D01*
X28070000Y-91592000D01*
X28071000Y-91555000D01*
X28071000Y-91518000D01*
X28070000Y-91481000D01*
X28068000Y-91445000D01*
X28065000Y-91410000D01*
X28062000Y-91378000D01*
X28057000Y-91349000D01*
X28051000Y-91324000D01*
X28027000Y-91250000D01*
X27996000Y-91182000D01*
X27958000Y-91118000D01*
X27914000Y-91061000D01*
X27863000Y-91009000D01*
X27807000Y-90963000D01*
X27745000Y-90923000D01*
X27678000Y-90890000D01*
X27607000Y-90864000D01*
X27531000Y-90845000D01*
X27451000Y-90834000D01*
X27368000Y-90830000D01*
X27290000Y-90833000D01*
X27215000Y-90843000D01*
X27145000Y-90860000D01*
X27079000Y-90883000D01*
X27017000Y-90912000D01*
X26960000Y-90948000D01*
X26907000Y-90990000D01*
X26859000Y-91038000D01*
X26815000Y-91092000D01*
X26776000Y-91152000D01*
X26743000Y-91218000D01*
X26714000Y-91290000D01*
X26706000Y-91312000D01*
X26700000Y-91333000D01*
X26694000Y-91352000D01*
X26690000Y-91371000D01*
X26686000Y-91390000D01*
X26683000Y-91409000D01*
X26680000Y-91429000D01*
X26678000Y-91450000D01*
X26677000Y-91473000D01*
X26676000Y-91498000D01*
X25550360Y-91498000D01*
X25549000Y-91406000D01*
X25547000Y-91158000D01*
X25546000Y-90857000D01*
X25544000Y-90497000D01*
X25544000Y-90300000D01*
X25543000Y-90106000D01*
X25543000Y-89917000D01*
X25543000Y-89735000D01*
X25543000Y-89563000D01*
X25544000Y-89401000D01*
X25545000Y-89253000D01*
X25546000Y-89121000D01*
X25547000Y-89005000D01*
X25548000Y-88910000D01*
X25549000Y-88836000D01*
X25551000Y-88786000D01*
X25554000Y-88729000D01*
X25556000Y-88680000D01*
X25559000Y-88638000D01*
X25561000Y-88602000D01*
X25564000Y-88571000D01*
X25567000Y-88545000D01*
X25571000Y-88522000D01*
X25575000Y-88503000D01*
X25580000Y-88485000D01*
X25585000Y-88469000D01*
X25591000Y-88453000D01*
X25599000Y-88437000D01*
X25632000Y-88380000D01*
X25672000Y-88328000D01*
X25719000Y-88281000D01*
X25772000Y-88240000D01*
X25830000Y-88206000D01*
X25893000Y-88178000D01*
X25960000Y-88157000D01*
X26030000Y-88143000D01*
X26102000Y-88136000D01*
X26175000Y-88137000D01*
X26250000Y-88146000D01*
X26324000Y-88163000D01*
X26347000Y-88170000D01*
X26371000Y-88180000D01*
X26396000Y-88192000D01*
X26421000Y-88205000D01*
X26446000Y-88220000D01*
X26470000Y-88236000D01*
X26494000Y-88253000D01*
X26517000Y-88271000D01*
X26538000Y-88289000D01*
X26558000Y-88308000D01*
X26576000Y-88326000D01*
X26591000Y-88345000D01*
X26614000Y-88377000D01*
X26634000Y-88406000D01*
X26650000Y-88435000D01*
X26663000Y-88467000D01*
X26673000Y-88503000D01*
X26681000Y-88548000D01*
X26687000Y-88603000D01*
X26691000Y-88671000D01*
X26693000Y-88755000D01*
X26695000Y-88857000D01*
X26695000Y-88980000D01*
X26696000Y-89127000D01*
X26696000Y-89204000D01*
X26696000Y-89280000D01*
X26697000Y-89353000D01*
X26697000Y-89422000D01*
X26698000Y-89487000D01*
X26699000Y-89547000D01*
X26699000Y-89601000D01*
X26700000Y-89649000D01*
X26701000Y-89689000D01*
X26702000Y-89721000D01*
X26703000Y-89744000D01*
X26704000Y-89758000D01*
X26712000Y-89819000D01*
X26833000Y-89764000D01*
X26896000Y-89736000D01*
X26958000Y-89710000D01*
X27018000Y-89688000D01*
X27076000Y-89668000D01*
X27134000Y-89652000D01*
X27192000Y-89637000D01*
X27250000Y-89626000D01*
X27309000Y-89616000D01*
X27369000Y-89609000D01*
X27430000Y-89604000D01*
X27494000Y-89601000D01*
X27560000Y-89600000D01*
X27676000Y-89604000D01*
X27788000Y-89614000D01*
X27898000Y-89631000D01*
X28004000Y-89655000D01*
X28108000Y-89685000D01*
X28208000Y-89723000D01*
X28306000Y-89768000D01*
X28401000Y-89819000D01*
X28494000Y-89877000D01*
X28584000Y-89943000D01*
X28672000Y-90015000D01*
X28757000Y-90095000D01*
X28844000Y-90187000D01*
X28924000Y-90286000D01*
X28997000Y-90389000D01*
X29063000Y-90498000D01*
X29121000Y-90612000D01*
X29172000Y-90731000D01*
X29216000Y-90854000D01*
X29251000Y-90981000D01*
X29280000Y-91111000D01*
X29300000Y-91246000D01*
X29312000Y-91384000D01*
X29316000Y-91518000D01*
X29316000Y-91524000D01*
G37*
G36*
X38710000Y-91245000D02*
G01*
X38716000Y-91299000D01*
X38718000Y-91350000D01*
X38718000Y-91397000D01*
X38715000Y-91441000D01*
X38708000Y-91482000D01*
X38699000Y-91522000D01*
X38686000Y-91560000D01*
X38671000Y-91598000D01*
X38653000Y-91635000D01*
X38641000Y-91656000D01*
X38628000Y-91675000D01*
X38615000Y-91693000D01*
X38602000Y-91710000D01*
X38587000Y-91726000D01*
X38571000Y-91741000D01*
X38553000Y-91756000D01*
X38535000Y-91769000D01*
X38514000Y-91783000D01*
X38492000Y-91796000D01*
X38468000Y-91808000D01*
X38442000Y-91821000D01*
X38361000Y-91860000D01*
X37227000Y-91867000D01*
X36094000Y-91874000D01*
X36098000Y-91911000D01*
X36101000Y-91925000D01*
X36103000Y-91933000D01*
X36106000Y-91943000D01*
X36110000Y-91953000D01*
X36114000Y-91965000D01*
X36118000Y-91976000D01*
X36123000Y-91989000D01*
X36129000Y-92002000D01*
X36135000Y-92014000D01*
X36140000Y-92027000D01*
X36147000Y-92040000D01*
X36169000Y-92081000D01*
X36197000Y-92121000D01*
X36229000Y-92160000D01*
X36265000Y-92197000D01*
X36305000Y-92232000D01*
X36347000Y-92265000D01*
X36393000Y-92295000D01*
X36441000Y-92323000D01*
X36490000Y-92347000D01*
X36541000Y-92368000D01*
X36594000Y-92385000D01*
X36647000Y-92399000D01*
X36679000Y-92405000D01*
X36714000Y-92409000D01*
X36752000Y-92412000D01*
X36791000Y-92414000D01*
X36831000Y-92415000D01*
X36872000Y-92414000D01*
X36913000Y-92413000D01*
X36953000Y-92410000D01*
X36993000Y-92405000D01*
X37031000Y-92400000D01*
X37067000Y-92393000D01*
X37101000Y-92386000D01*
X37118000Y-92381000D01*
X37137000Y-92375000D01*
X37156000Y-92369000D01*
X37177000Y-92361000D01*
X37199000Y-92353000D01*
X37220000Y-92344000D01*
X37243000Y-92335000D01*
X37264000Y-92326000D01*
X37286000Y-92316000D01*
X37307000Y-92306000D01*
X37326000Y-92296000D01*
X37344000Y-92287000D01*
X37407000Y-92253000D01*
X37459000Y-92225000D01*
X37503000Y-92201000D01*
X37539000Y-92183000D01*
X37569000Y-92169000D01*
X37595000Y-92158000D01*
X37618000Y-92151000D01*
X37640000Y-92146000D01*
X37661000Y-92143000D01*
X37684000Y-92142000D01*
X37709000Y-92141000D01*
X37739000Y-92142000D01*
X37773000Y-92143000D01*
X37807000Y-92145000D01*
X37839000Y-92150000D01*
X37870000Y-92156000D01*
X37900000Y-92165000D01*
X37929000Y-92175000D01*
X37957000Y-92188000D01*
X37985000Y-92202000D01*
X38012000Y-92219000D01*
X38039000Y-92237000D01*
X38066000Y-92258000D01*
X38092000Y-92282000D01*
X38128000Y-92319000D01*
X38159000Y-92359000D01*
X38185000Y-92403000D01*
X38206000Y-92449000D01*
X38222000Y-92497000D01*
X38233000Y-92547000D01*
X38239000Y-92598000D01*
X38240000Y-92650000D01*
X38236000Y-92702000D01*
X38226000Y-92753000D01*
X38210000Y-92804000D01*
X38190000Y-92854000D01*
X38154000Y-92914000D01*
X38105000Y-92975000D01*
X38044000Y-93035000D01*
X37972000Y-93094000D01*
X37891000Y-93151000D01*
X37801000Y-93206000D01*
X37704000Y-93257000D01*
X37601000Y-93305000D01*
X37494000Y-93348000D01*
X37382000Y-93386000D01*
X37269000Y-93419000D01*
X37153000Y-93444000D01*
X37112000Y-93451000D01*
X37063000Y-93457000D01*
X37008000Y-93463000D01*
X36948000Y-93467000D01*
X36886000Y-93471000D01*
X36822000Y-93473000D01*
X36758000Y-93475000D01*
X36696000Y-93476000D01*
X36637000Y-93475000D01*
X36582000Y-93474000D01*
X36533000Y-93471000D01*
X36491000Y-93467000D01*
X36405000Y-93454000D01*
X36320000Y-93437000D01*
X36236000Y-93416000D01*
X36154000Y-93391000D01*
X36073000Y-93363000D01*
X35993000Y-93330000D01*
X35915000Y-93294000D01*
X35839000Y-93254000D01*
X35765000Y-93211000D01*
X35693000Y-93164000D01*
X35622000Y-93114000D01*
X35555000Y-93060000D01*
X35475000Y-92989000D01*
X35401000Y-92915000D01*
X35331000Y-92836000D01*
X35266000Y-92753000D01*
X35205000Y-92665000D01*
X35150000Y-92574000D01*
X35099000Y-92479000D01*
X35054000Y-92380000D01*
X35013000Y-92277000D01*
X34977000Y-92170000D01*
X34947000Y-92059000D01*
X34921000Y-91945000D01*
X34912000Y-91891000D01*
X34905000Y-91830000D01*
X34900000Y-91762000D01*
X34896000Y-91690000D01*
X34895000Y-91615000D01*
X34895000Y-91538000D01*
X34896000Y-91462000D01*
X34900000Y-91386000D01*
X34905000Y-91314000D01*
X34911000Y-91245000D01*
X34918403Y-91194000D01*
X36094000Y-91194000D01*
X36096000Y-91204000D01*
X36104000Y-91206000D01*
X36124000Y-91207000D01*
X36156000Y-91208000D01*
X36199000Y-91210000D01*
X36251000Y-91211000D01*
X36313000Y-91212000D01*
X36382000Y-91213000D01*
X36459000Y-91214000D01*
X36543000Y-91214000D01*
X36632000Y-91215000D01*
X36725000Y-91215000D01*
X36823000Y-91215000D01*
X37542000Y-91215000D01*
X37534000Y-91172000D01*
X37529000Y-91152000D01*
X37522000Y-91131000D01*
X37514000Y-91109000D01*
X37505000Y-91087000D01*
X37494000Y-91065000D01*
X37482000Y-91042000D01*
X37469000Y-91020000D01*
X37455000Y-90997000D01*
X37439000Y-90975000D01*
X37423000Y-90953000D01*
X37406000Y-90932000D01*
X37388000Y-90912000D01*
X37350000Y-90873000D01*
X37312000Y-90838000D01*
X37272000Y-90807000D01*
X37231000Y-90779000D01*
X37188000Y-90755000D01*
X37144000Y-90735000D01*
X37097000Y-90718000D01*
X37048000Y-90705000D01*
X36996000Y-90695000D01*
X36941000Y-90688000D01*
X36882000Y-90683000D01*
X36820000Y-90682000D01*
X36760000Y-90684000D01*
X36702000Y-90688000D01*
X36647000Y-90695000D01*
X36596000Y-90706000D01*
X36546000Y-90719000D01*
X36499000Y-90736000D01*
X36454000Y-90757000D01*
X36411000Y-90780000D01*
X36369000Y-90808000D01*
X36329000Y-90839000D01*
X36290000Y-90873000D01*
X36252000Y-90912000D01*
X36231000Y-90935000D01*
X36211000Y-90961000D01*
X36191000Y-90990000D01*
X36171000Y-91019000D01*
X36153000Y-91049000D01*
X36137000Y-91079000D01*
X36122000Y-91107000D01*
X36110000Y-91134000D01*
X36101000Y-91158000D01*
X36096000Y-91178000D01*
X36094000Y-91194000D01*
X34918403Y-91194000D01*
X34920000Y-91183000D01*
X34930000Y-91128000D01*
X34953000Y-91027000D01*
X34980000Y-90930000D01*
X35011000Y-90836000D01*
X35045000Y-90746000D01*
X35083000Y-90659000D01*
X35124000Y-90574000D01*
X35170000Y-90493000D01*
X35219000Y-90415000D01*
X35273000Y-90339000D01*
X35331000Y-90265000D01*
X35393000Y-90194000D01*
X35459000Y-90125000D01*
X35577000Y-90017000D01*
X35703000Y-89921000D01*
X35837000Y-89836000D01*
X35978000Y-89763000D01*
X36125000Y-89701000D01*
X36277000Y-89652000D01*
X36433000Y-89615000D01*
X36593000Y-89591000D01*
X36757000Y-89580000D01*
X36922000Y-89581000D01*
X37089000Y-89596000D01*
X37257000Y-89624000D01*
X37434000Y-89669000D01*
X37602000Y-89730000D01*
X37762000Y-89807000D01*
X37911000Y-89897000D01*
X38051000Y-90001000D01*
X38179000Y-90118000D01*
X38295000Y-90248000D01*
X38399000Y-90388000D01*
X38490000Y-90540000D01*
X38567000Y-90702000D01*
X38629000Y-90873000D01*
X38677000Y-91053000D01*
X38691000Y-91122000D01*
X38702000Y-91186000D01*
X38706000Y-91215000D01*
X38710000Y-91245000D01*
G37*
G36*
X33295000Y-91623000D02*
G01*
X33287000Y-91728000D01*
X33273000Y-91834000D01*
X33255000Y-91938000D01*
X33231000Y-92042000D01*
X33202000Y-92144000D01*
X33168000Y-92244000D01*
X33129000Y-92341000D01*
X33086000Y-92434000D01*
X33039000Y-92523000D01*
X32988000Y-92608000D01*
X32951000Y-92662000D01*
X32912000Y-92716000D01*
X32870000Y-92769000D01*
X32827000Y-92820000D01*
X32783000Y-92871000D01*
X32737000Y-92919000D01*
X32690000Y-92966000D01*
X32642000Y-93011000D01*
X32593000Y-93054000D01*
X32544000Y-93094000D01*
X32495000Y-93131000D01*
X32445000Y-93166000D01*
X32396000Y-93197000D01*
X32341000Y-93228000D01*
X32283000Y-93258000D01*
X32222000Y-93287000D01*
X32159000Y-93315000D01*
X32094000Y-93342000D01*
X32028000Y-93366000D01*
X31962000Y-93389000D01*
X31896000Y-93409000D01*
X31832000Y-93427000D01*
X31770000Y-93441000D01*
X31711000Y-93452000D01*
X31674000Y-93457000D01*
X31629000Y-93462000D01*
X31578000Y-93466000D01*
X31522000Y-93469000D01*
X31463000Y-93472000D01*
X31403000Y-93474000D01*
X31344000Y-93475000D01*
X31286000Y-93475000D01*
X31232000Y-93474000D01*
X31184000Y-93473000D01*
X31142000Y-93470000D01*
X31109000Y-93467000D01*
X31005000Y-93450000D01*
X30906000Y-93430000D01*
X30810000Y-93406000D01*
X30718000Y-93379000D01*
X30629000Y-93347000D01*
X30543000Y-93312000D01*
X30461000Y-93273000D01*
X30381000Y-93229000D01*
X30304000Y-93182000D01*
X30230000Y-93130000D01*
X30158000Y-93074000D01*
X30088000Y-93013000D01*
X30037000Y-92964000D01*
X29987000Y-92910000D01*
X29940000Y-92852000D01*
X29894000Y-92791000D01*
X29850000Y-92727000D01*
X29809000Y-92662000D01*
X29772000Y-92594000D01*
X29737000Y-92526000D01*
X29707000Y-92458000D01*
X29681000Y-92390000D01*
X29659000Y-92323000D01*
X29643000Y-92258000D01*
X29630000Y-92195000D01*
X29619000Y-92132000D01*
X29610000Y-92062000D01*
X29603000Y-91980000D01*
X29597000Y-91881000D01*
X29592000Y-91758000D01*
X29589039Y-91608000D01*
X30685000Y-91608000D01*
X30694000Y-91699000D01*
X30713000Y-91785000D01*
X30742000Y-91865000D01*
X30779000Y-91940000D01*
X30826000Y-92008000D01*
X30881000Y-92069000D01*
X30944000Y-92122000D01*
X31015000Y-92167000D01*
X31094000Y-92203000D01*
X31180000Y-92229000D01*
X31205000Y-92235000D01*
X31232000Y-92240000D01*
X31259000Y-92244000D01*
X31287000Y-92247000D01*
X31314000Y-92249000D01*
X31342000Y-92250000D01*
X31370000Y-92250000D01*
X31398000Y-92250000D01*
X31425000Y-92248000D01*
X31452000Y-92246000D01*
X31478000Y-92243000D01*
X31504000Y-92238000D01*
X31538000Y-92231000D01*
X31571000Y-92223000D01*
X31602000Y-92214000D01*
X31632000Y-92204000D01*
X31660000Y-92193000D01*
X31688000Y-92180000D01*
X31714000Y-92167000D01*
X31740000Y-92152000D01*
X31765000Y-92136000D01*
X31789000Y-92118000D01*
X31813000Y-92099000D01*
X31836000Y-92078000D01*
X31874000Y-92041000D01*
X31908000Y-92004000D01*
X31938000Y-91966000D01*
X31964000Y-91927000D01*
X31987000Y-91887000D01*
X32006000Y-91845000D01*
X32022000Y-91801000D01*
X32035000Y-91755000D01*
X32045000Y-91706000D01*
X32052000Y-91655000D01*
X32056000Y-91601000D01*
X32057000Y-91543000D01*
X32056000Y-91487000D01*
X32052000Y-91433000D01*
X32046000Y-91383000D01*
X32038000Y-91335000D01*
X32027000Y-91290000D01*
X32013000Y-91248000D01*
X31996000Y-91207000D01*
X31977000Y-91168000D01*
X31954000Y-91130000D01*
X31928000Y-91094000D01*
X31899000Y-91058000D01*
X31866000Y-91023000D01*
X31833000Y-90991000D01*
X31799000Y-90962000D01*
X31763000Y-90936000D01*
X31727000Y-90913000D01*
X31689000Y-90893000D01*
X31650000Y-90876000D01*
X31609000Y-90861000D01*
X31566000Y-90849000D01*
X31522000Y-90840000D01*
X31475000Y-90834000D01*
X31427000Y-90830000D01*
X31376000Y-90828000D01*
X31324000Y-90829000D01*
X31275000Y-90834000D01*
X31226000Y-90841000D01*
X31180000Y-90851000D01*
X31135000Y-90863000D01*
X31092000Y-90879000D01*
X31051000Y-90898000D01*
X31012000Y-90919000D01*
X30974000Y-90943000D01*
X30938000Y-90970000D01*
X30904000Y-91000000D01*
X30872000Y-91033000D01*
X30849000Y-91059000D01*
X30828000Y-91085000D01*
X30809000Y-91113000D01*
X30791000Y-91141000D01*
X30774000Y-91171000D01*
X30760000Y-91201000D01*
X30746000Y-91233000D01*
X30734000Y-91266000D01*
X30723000Y-91300000D01*
X30713000Y-91337000D01*
X30705000Y-91375000D01*
X30697000Y-91414000D01*
X30686000Y-91513000D01*
X30685000Y-91608000D01*
X29589039Y-91608000D01*
X29589000Y-91606000D01*
X29586000Y-91420000D01*
X29585000Y-91193000D01*
X29584000Y-90921000D01*
X29583000Y-90598000D01*
X29583000Y-90217000D01*
X29583000Y-89820000D01*
X29583000Y-89491000D01*
X29584000Y-89221000D01*
X29586000Y-89006000D01*
X29588000Y-88837000D01*
X29592000Y-88709000D01*
X29598000Y-88613000D01*
X29606000Y-88544000D01*
X29616000Y-88495000D01*
X29629000Y-88458000D01*
X29644000Y-88427000D01*
X29663000Y-88395000D01*
X29697000Y-88344000D01*
X29739000Y-88299000D01*
X29786000Y-88259000D01*
X29839000Y-88223000D01*
X29897000Y-88194000D01*
X29958000Y-88170000D01*
X30023000Y-88152000D01*
X30090000Y-88141000D01*
X30159000Y-88136000D01*
X30229000Y-88138000D01*
X30299000Y-88147000D01*
X30368000Y-88163000D01*
X30392000Y-88170000D01*
X30416000Y-88180000D01*
X30441000Y-88192000D01*
X30466000Y-88205000D01*
X30491000Y-88220000D01*
X30516000Y-88237000D01*
X30540000Y-88254000D01*
X30563000Y-88272000D01*
X30584000Y-88291000D01*
X30604000Y-88310000D01*
X30622000Y-88329000D01*
X30638000Y-88349000D01*
X30661000Y-88379000D01*
X30680000Y-88408000D01*
X30696000Y-88436000D01*
X30708000Y-88468000D01*
X30718000Y-88506000D01*
X30725000Y-88552000D01*
X30731000Y-88610000D01*
X30735000Y-88683000D01*
X30737000Y-88772000D01*
X30738000Y-88882000D01*
X30739000Y-89014000D01*
X30739000Y-89173000D01*
X30739000Y-89256000D01*
X30739000Y-89336000D01*
X30740000Y-89413000D01*
X30740000Y-89484000D01*
X30741000Y-89550000D01*
X30741000Y-89610000D01*
X30742000Y-89663000D01*
X30743000Y-89708000D01*
X30744000Y-89744000D01*
X30744000Y-89772000D01*
X30745000Y-89789000D01*
X30748000Y-89796000D01*
X30758000Y-89794000D01*
X30765000Y-89791000D01*
X30774000Y-89788000D01*
X30785000Y-89784000D01*
X30796000Y-89779000D01*
X30809000Y-89774000D01*
X30823000Y-89767000D01*
X30837000Y-89761000D01*
X30852000Y-89754000D01*
X30868000Y-89746000D01*
X30914000Y-89725000D01*
X30960000Y-89706000D01*
X31008000Y-89688000D01*
X31056000Y-89672000D01*
X31105000Y-89658000D01*
X31155000Y-89645000D01*
X31206000Y-89635000D01*
X31258000Y-89625000D01*
X31312000Y-89618000D01*
X31367000Y-89612000D01*
X31423000Y-89607000D01*
X31482000Y-89604000D01*
X31562000Y-89602000D01*
X31638000Y-89603000D01*
X31711000Y-89607000D01*
X31781000Y-89613000D01*
X31850000Y-89623000D01*
X31917000Y-89635000D01*
X31983000Y-89651000D01*
X32048000Y-89670000D01*
X32114000Y-89693000D01*
X32181000Y-89719000D01*
X32249000Y-89750000D01*
X32319000Y-89783000D01*
X32361000Y-89805000D01*
X32401000Y-89827000D01*
X32440000Y-89850000D01*
X32477000Y-89873000D01*
X32514000Y-89898000D01*
X32550000Y-89924000D01*
X32585000Y-89951000D01*
X32620000Y-89979000D01*
X32655000Y-90009000D01*
X32690000Y-90042000D01*
X32726000Y-90076000D01*
X32763000Y-90112000D01*
X32842000Y-90198000D01*
X32914000Y-90287000D01*
X32980000Y-90380000D01*
X33040000Y-90477000D01*
X33093000Y-90578000D01*
X33140000Y-90683000D01*
X33181000Y-90793000D01*
X33216000Y-90907000D01*
X33244000Y-91026000D01*
X33267000Y-91151000D01*
X33284000Y-91280000D01*
X33295000Y-91415000D01*
X33298000Y-91519000D01*
X33297000Y-91543000D01*
X33295000Y-91623000D01*
G37*
G36*
X19531000Y-90926000D02*
G01*
X19531000Y-91421000D01*
X19531000Y-91855000D01*
X19530000Y-92231000D01*
X19530000Y-92554000D01*
X19529000Y-92827000D01*
X19527000Y-93054000D01*
X19526000Y-93239000D01*
X19524000Y-93385000D01*
X19521000Y-93496000D01*
X19519000Y-93577000D01*
X19515000Y-93630000D01*
X19512000Y-93660000D01*
X19479000Y-93795000D01*
X19435000Y-93925000D01*
X19381000Y-94050000D01*
X19317000Y-94169000D01*
X19244000Y-94281000D01*
X19162000Y-94387000D01*
X19071000Y-94484000D01*
X18972000Y-94574000D01*
X18866000Y-94654000D01*
X18753000Y-94726000D01*
X18633000Y-94788000D01*
X18507000Y-94839000D01*
X18445000Y-94862000D01*
X18389000Y-94881000D01*
X18329000Y-94896000D01*
X18254000Y-94908000D01*
X18152000Y-94918000D01*
X18012000Y-94924000D01*
X17824000Y-94929000D01*
X17575000Y-94933000D01*
X17255000Y-94935000D01*
X16852000Y-94936000D01*
X16355000Y-94937000D01*
X15753000Y-94938000D01*
X15428000Y-94938000D01*
X15111000Y-94938000D01*
X14804000Y-94938000D01*
X14511000Y-94938000D01*
X14236000Y-94938000D01*
X13982000Y-94938000D01*
X13751000Y-94937000D01*
X13548000Y-94936000D01*
X13375000Y-94936000D01*
X13236000Y-94935000D01*
X13134000Y-94934000D01*
X13072000Y-94932000D01*
X12997000Y-94930000D01*
X12929000Y-94927000D01*
X12870000Y-94923000D01*
X12816000Y-94919000D01*
X12767000Y-94913000D01*
X12721000Y-94907000D01*
X12678000Y-94898000D01*
X12637000Y-94889000D01*
X12595000Y-94877000D01*
X12553000Y-94863000D01*
X12508000Y-94847000D01*
X12460000Y-94828000D01*
X12373000Y-94791000D01*
X12288000Y-94748000D01*
X12205000Y-94699000D01*
X12124000Y-94645000D01*
X12047000Y-94587000D01*
X11972000Y-94525000D01*
X11902000Y-94459000D01*
X11836000Y-94390000D01*
X11776000Y-94318000D01*
X11720000Y-94245000D01*
X11671000Y-94169000D01*
X11629000Y-94092000D01*
X11612000Y-94056000D01*
X11594000Y-94017000D01*
X11577000Y-93974000D01*
X11560000Y-93930000D01*
X11544000Y-93884000D01*
X11529000Y-93837000D01*
X11514000Y-93790000D01*
X11501000Y-93744000D01*
X11489000Y-93699000D01*
X11479000Y-93656000D01*
X11471000Y-93617000D01*
X11465000Y-93581000D01*
X11463000Y-93545000D01*
X11461000Y-93476000D01*
X11459000Y-93374000D01*
X11457000Y-93239000D01*
X11455000Y-93071000D01*
X11454000Y-92868000D01*
X11452000Y-92632000D01*
X11451000Y-92361000D01*
X11451000Y-92055000D01*
X11450000Y-91715000D01*
X11450000Y-91340000D01*
X11450000Y-90929000D01*
X11450000Y-90285000D01*
X11450000Y-89752000D01*
X11450406Y-89576000D01*
X12058000Y-89576000D01*
X12059000Y-89969000D01*
X12059000Y-90437000D01*
X12060000Y-90986000D01*
X12065000Y-93593000D01*
X12099000Y-93697000D01*
X12130000Y-93777000D01*
X12168000Y-93854000D01*
X12213000Y-93926000D01*
X12263000Y-93993000D01*
X12319000Y-94056000D01*
X12381000Y-94113000D01*
X12447000Y-94164000D01*
X12518000Y-94210000D01*
X12593000Y-94249000D01*
X12672000Y-94282000D01*
X12754000Y-94307000D01*
X12839000Y-94326000D01*
X12872000Y-94328000D01*
X12952000Y-94329000D01*
X13073000Y-94330000D01*
X13234000Y-94332000D01*
X13431000Y-94333000D01*
X13661000Y-94334000D01*
X13920000Y-94335000D01*
X14204000Y-94335000D01*
X14512000Y-94336000D01*
X14839000Y-94336000D01*
X15182000Y-94336000D01*
X15539000Y-94336000D01*
X18168000Y-94334000D01*
X18290000Y-94292000D01*
X18327000Y-94279000D01*
X18365000Y-94263000D01*
X18403000Y-94245000D01*
X18441000Y-94225000D01*
X18479000Y-94203000D01*
X18516000Y-94180000D01*
X18552000Y-94156000D01*
X18586000Y-94131000D01*
X18619000Y-94105000D01*
X18649000Y-94079000D01*
X18677000Y-94052000D01*
X18702000Y-94026000D01*
X18723000Y-93999000D01*
X18746000Y-93969000D01*
X18768000Y-93935000D01*
X18790000Y-93898000D01*
X18812000Y-93858000D01*
X18832000Y-93818000D01*
X18852000Y-93777000D01*
X18869000Y-93737000D01*
X18885000Y-93698000D01*
X18898000Y-93660000D01*
X18908000Y-93625000D01*
X18915000Y-93594000D01*
X18918000Y-93563000D01*
X18920000Y-93498000D01*
X18922000Y-93400000D01*
X18924000Y-93267000D01*
X18926000Y-93100000D01*
X18927000Y-92899000D01*
X18928000Y-92662000D01*
X18929000Y-92389000D01*
X18930000Y-92081000D01*
X18931000Y-91736000D01*
X18931000Y-91354000D01*
X18931000Y-90935000D01*
X18931000Y-90283000D01*
X18931000Y-89747000D01*
X18930000Y-89314000D01*
X18929000Y-88971000D01*
X18926000Y-88707000D01*
X18921000Y-88511000D01*
X18914000Y-88369000D01*
X18905000Y-88269000D01*
X18892000Y-88201000D01*
X18876000Y-88151000D01*
X18856000Y-88109000D01*
X18832000Y-88060000D01*
X18822000Y-88040000D01*
X18812000Y-88020000D01*
X18801000Y-88002000D01*
X18790000Y-87984000D01*
X18777000Y-87966000D01*
X18765000Y-87948000D01*
X18751000Y-87930000D01*
X18735000Y-87912000D01*
X18719000Y-87893000D01*
X18701000Y-87873000D01*
X18681000Y-87852000D01*
X18659000Y-87830000D01*
X18625000Y-87798000D01*
X18592000Y-87768000D01*
X18560000Y-87741000D01*
X18527000Y-87717000D01*
X18494000Y-87695000D01*
X18461000Y-87674000D01*
X18427000Y-87656000D01*
X18391000Y-87639000D01*
X18354000Y-87624000D01*
X18315000Y-87610000D01*
X18273000Y-87598000D01*
X18229000Y-87586000D01*
X18200000Y-87579000D01*
X18165000Y-87573000D01*
X18114000Y-87569000D01*
X18039000Y-87565000D01*
X17931000Y-87562000D01*
X17781000Y-87560000D01*
X17579000Y-87558000D01*
X17318000Y-87557000D01*
X16987000Y-87556000D01*
X16577000Y-87556000D01*
X16081000Y-87556000D01*
X15488000Y-87556000D01*
X14888000Y-87556000D01*
X14388000Y-87556000D01*
X13976000Y-87556000D01*
X13644000Y-87557000D01*
X13384000Y-87558000D01*
X13184000Y-87560000D01*
X13037000Y-87562000D01*
X12932000Y-87565000D01*
X12860000Y-87569000D01*
X12813000Y-87574000D01*
X12780000Y-87580000D01*
X12753000Y-87587000D01*
X12669000Y-87614000D01*
X12590000Y-87647000D01*
X12514000Y-87687000D01*
X12443000Y-87733000D01*
X12378000Y-87784000D01*
X12317000Y-87840000D01*
X12262000Y-87902000D01*
X12213000Y-87968000D01*
X12170000Y-88039000D01*
X12133000Y-88114000D01*
X12103000Y-88192000D01*
X12080000Y-88274000D01*
X12075000Y-88302000D01*
X12071000Y-88344000D01*
X12067000Y-88405000D01*
X12064000Y-88493000D01*
X12062000Y-88615000D01*
X12060000Y-88777000D01*
X12059000Y-88987000D01*
X12059000Y-89251000D01*
X12058000Y-89576000D01*
X11450406Y-89576000D01*
X11451000Y-89318000D01*
X11452000Y-88973000D01*
X11456000Y-88704000D01*
X11460000Y-88499000D01*
X11467000Y-88347000D01*
X11477000Y-88236000D01*
X11489000Y-88155000D01*
X11505000Y-88092000D01*
X11525000Y-88035000D01*
X11548000Y-87973000D01*
X11597000Y-87855000D01*
X11655000Y-87743000D01*
X11721000Y-87637000D01*
X11795000Y-87536000D01*
X11876000Y-87443000D01*
X11965000Y-87356000D01*
X12060000Y-87277000D01*
X12162000Y-87205000D01*
X12270000Y-87140000D01*
X12384000Y-87084000D01*
X12503000Y-87036000D01*
X12628000Y-86997000D01*
X12776000Y-86956000D01*
X15398000Y-86951000D01*
X16025000Y-86950000D01*
X16551000Y-86950000D01*
X16986000Y-86950000D01*
X17338000Y-86951000D01*
X17619000Y-86952000D01*
X17837000Y-86955000D01*
X18004000Y-86960000D01*
X18128000Y-86966000D01*
X18219000Y-86973000D01*
X18288000Y-86983000D01*
X18344000Y-86995000D01*
X18397000Y-87009000D01*
X18457000Y-87027000D01*
X18517000Y-87049000D01*
X18579000Y-87074000D01*
X18640000Y-87102000D01*
X18701000Y-87134000D01*
X18761000Y-87168000D01*
X18821000Y-87204000D01*
X18878000Y-87243000D01*
X18934000Y-87284000D01*
X18988000Y-87326000D01*
X19039000Y-87370000D01*
X19087000Y-87415000D01*
X19136000Y-87465000D01*
X19181000Y-87517000D01*
X19224000Y-87571000D01*
X19265000Y-87628000D01*
X19303000Y-87686000D01*
X19338000Y-87747000D01*
X19371000Y-87810000D01*
X19401000Y-87875000D01*
X19429000Y-87943000D01*
X19455000Y-88013000D01*
X19478000Y-88085000D01*
X19498000Y-88160000D01*
X19531000Y-88289000D01*
X19531000Y-90283000D01*
X19531000Y-90926000D01*
G37*
G36*
X18296000Y-92035000D02*
G01*
X18362000Y-92097000D01*
X18427000Y-92158000D01*
X18427000Y-92462000D01*
X18427000Y-92530000D01*
X18427000Y-92587000D01*
X18427000Y-92634000D01*
X18426000Y-92673000D01*
X18425000Y-92705000D01*
X18423000Y-92731000D01*
X18420000Y-92751000D01*
X18417000Y-92768000D01*
X18413000Y-92782000D01*
X18407000Y-92794000D01*
X18401000Y-92805000D01*
X18394000Y-92816000D01*
X18389000Y-92823000D01*
X18383000Y-92830000D01*
X18378000Y-92837000D01*
X18372000Y-92844000D01*
X18365000Y-92851000D01*
X18359000Y-92857000D01*
X18353000Y-92863000D01*
X18346000Y-92869000D01*
X18340000Y-92874000D01*
X18334000Y-92878000D01*
X18323000Y-92885000D01*
X18278000Y-92892000D01*
X18178000Y-92897000D01*
X18035000Y-92901000D01*
X17859000Y-92904000D01*
X17660000Y-92905000D01*
X17451000Y-92906000D01*
X17241000Y-92905000D01*
X17042000Y-92903000D01*
X16864000Y-92900000D01*
X16719000Y-92895000D01*
X16617000Y-92890000D01*
X16569000Y-92883000D01*
X16547000Y-92873000D01*
X16528000Y-92863000D01*
X16512000Y-92850000D01*
X16499000Y-92835000D01*
X16489000Y-92817000D01*
X16481000Y-92793000D01*
X16474000Y-92764000D01*
X16469000Y-92728000D01*
X16466000Y-92684000D01*
X16463000Y-92631000D01*
X16461000Y-92568000D01*
X16460000Y-92495000D01*
X16459000Y-92421000D01*
X16459000Y-92358000D01*
X16460000Y-92303000D01*
X16462000Y-92257000D01*
X16466000Y-92217000D01*
X16471000Y-92185000D01*
X16478000Y-92158000D01*
X16486000Y-92137000D01*
X16497000Y-92119000D01*
X16510000Y-92105000D01*
X16525000Y-92094000D01*
X16543000Y-92085000D01*
X16580000Y-92068000D01*
X16571000Y-91890000D01*
X16564000Y-91798000D01*
X16552000Y-91707000D01*
X16537000Y-91617000D01*
X16518000Y-91528000D01*
X16494000Y-91440000D01*
X16467000Y-91353000D01*
X16436000Y-91268000D01*
X16400000Y-91185000D01*
X16362000Y-91104000D01*
X16319000Y-91025000D01*
X16273000Y-90948000D01*
X16223000Y-90874000D01*
X16194000Y-90835000D01*
X16159000Y-90792000D01*
X16119000Y-90746000D01*
X16074000Y-90697000D01*
X16025000Y-90646000D01*
X15973000Y-90593000D01*
X15918000Y-90539000D01*
X15860000Y-90484000D01*
X15800000Y-90429000D01*
X15738000Y-90375000D01*
X15676000Y-90321000D01*
X15613000Y-90268000D01*
X15515000Y-90188000D01*
X15419000Y-90111000D01*
X15328000Y-90037000D01*
X15242000Y-89967000D01*
X15161000Y-89902000D01*
X15086000Y-89842000D01*
X15020000Y-89790000D01*
X14961000Y-89744000D01*
X14913000Y-89706000D01*
X14874000Y-89677000D01*
X14847000Y-89657000D01*
X14832000Y-89647000D01*
X14812000Y-89640000D01*
X14790000Y-89637000D01*
X14766000Y-89639000D01*
X14741000Y-89646000D01*
X14716000Y-89656000D01*
X14690000Y-89670000D01*
X14665000Y-89687000D01*
X14641000Y-89707000D01*
X14619000Y-89730000D01*
X14599000Y-89755000D01*
X14581000Y-89782000D01*
X14566000Y-89811000D01*
X14560000Y-89827000D01*
X14555000Y-89846000D01*
X14551000Y-89872000D01*
X14547000Y-89908000D01*
X14544000Y-89958000D01*
X14542000Y-90025000D01*
X14540000Y-90112000D01*
X14539000Y-90222000D01*
X14538000Y-90359000D01*
X14537000Y-90526000D01*
X14536000Y-90726000D01*
X14535000Y-90963000D01*
X14532000Y-92052000D01*
X14579000Y-92082000D01*
X14598000Y-92094000D01*
X14614000Y-92107000D01*
X14627000Y-92120000D01*
X14638000Y-92136000D01*
X14646000Y-92155000D01*
X14652000Y-92180000D01*
X14657000Y-92210000D01*
X14660000Y-92247000D01*
X14662000Y-92293000D01*
X14662000Y-92348000D01*
X14662000Y-92415000D01*
X14661000Y-92493000D01*
X14657000Y-92800000D01*
X14609000Y-92848000D01*
X14560000Y-92897000D01*
X13705000Y-92900000D01*
X13526000Y-92901000D01*
X13373000Y-92901000D01*
X13245000Y-92901000D01*
X13138000Y-92901000D01*
X13051000Y-92900000D01*
X12982000Y-92899000D01*
X12928000Y-92897000D01*
X12887000Y-92895000D01*
X12857000Y-92892000D01*
X12836000Y-92889000D01*
X12821000Y-92884000D01*
X12811000Y-92879000D01*
X12792000Y-92867000D01*
X12776000Y-92854000D01*
X12763000Y-92840000D01*
X12752000Y-92824000D01*
X12744000Y-92804000D01*
X12737000Y-92780000D01*
X12732000Y-92749000D01*
X12728000Y-92712000D01*
X12726000Y-92666000D01*
X12725000Y-92611000D01*
X12724000Y-92546000D01*
X12724000Y-92470000D01*
X12724000Y-92166000D01*
X12761000Y-92121000D01*
X12767000Y-92115000D01*
X12772000Y-92109000D01*
X12778000Y-92103000D01*
X12784000Y-92097000D01*
X12790000Y-92092000D01*
X12796000Y-92087000D01*
X12802000Y-92082000D01*
X12814000Y-92074000D01*
X12823000Y-92069000D01*
X12834000Y-92064000D01*
X12836222Y-92060000D01*
X13242000Y-92060000D01*
X13367000Y-92060000D01*
X13493000Y-92060000D01*
X13498000Y-90834000D01*
X13499000Y-90584000D01*
X13500000Y-90369000D01*
X13501000Y-90186000D01*
X13503000Y-90033000D01*
X13504000Y-89907000D01*
X13506000Y-89804000D01*
X13507444Y-89765000D01*
X13894000Y-89765000D01*
X13894000Y-90912000D01*
X13894000Y-92060000D01*
X14020000Y-92060000D01*
X14146000Y-92060000D01*
X14146000Y-90951000D01*
X14146000Y-90724000D01*
X14146000Y-90529000D01*
X14147000Y-90363000D01*
X14147000Y-90225000D01*
X14149000Y-90110000D01*
X14150000Y-90017000D01*
X14152000Y-89943000D01*
X14154000Y-89885000D01*
X14157000Y-89841000D01*
X14161000Y-89807000D01*
X14165000Y-89782000D01*
X14170000Y-89762000D01*
X14181000Y-89728000D01*
X14192000Y-89696000D01*
X14205000Y-89664000D01*
X14218000Y-89635000D01*
X14233000Y-89606000D01*
X14248000Y-89579000D01*
X14264000Y-89553000D01*
X14282000Y-89528000D01*
X14300000Y-89505000D01*
X14320000Y-89482000D01*
X14340000Y-89461000D01*
X14362000Y-89440000D01*
X14445000Y-89366000D01*
X14400000Y-89342000D01*
X14393000Y-89339000D01*
X14386000Y-89336000D01*
X14377000Y-89333000D01*
X14368000Y-89331000D01*
X14358000Y-89328000D01*
X14348000Y-89326000D01*
X14337000Y-89324000D01*
X14326000Y-89322000D01*
X14316000Y-89321000D01*
X14305000Y-89320000D01*
X14295000Y-89319000D01*
X14285000Y-89319000D01*
X14246000Y-89321000D01*
X14208000Y-89329000D01*
X14172000Y-89341000D01*
X14137000Y-89358000D01*
X14104000Y-89379000D01*
X14073000Y-89405000D01*
X14044000Y-89435000D01*
X14017000Y-89469000D01*
X13992000Y-89508000D01*
X13970000Y-89550000D01*
X13949000Y-89596000D01*
X13932000Y-89646000D01*
X13894000Y-89765000D01*
X13507444Y-89765000D01*
X13509000Y-89723000D01*
X13511000Y-89659000D01*
X13514000Y-89611000D01*
X13518000Y-89575000D01*
X13522000Y-89549000D01*
X13527000Y-89530000D01*
X13564000Y-89428000D01*
X13609000Y-89335000D01*
X13662000Y-89250000D01*
X13722000Y-89175000D01*
X13789000Y-89109000D01*
X13862000Y-89053000D01*
X13941000Y-89008000D01*
X14024000Y-88974000D01*
X14111000Y-88951000D01*
X14202000Y-88940000D01*
X14295000Y-88940000D01*
X14391000Y-88954000D01*
X14440000Y-88964000D01*
X14485000Y-88977000D01*
X14530000Y-88992000D01*
X14575000Y-89012000D01*
X14624000Y-89038000D01*
X14678000Y-89071000D01*
X14739000Y-89112000D01*
X14810000Y-89163000D01*
X14892000Y-89225000D01*
X14988000Y-89299000D01*
X15072000Y-89366000D01*
X15099000Y-89387000D01*
X15227000Y-89490000D01*
X15458000Y-89675000D01*
X15658000Y-89838000D01*
X15830000Y-89980000D01*
X15977000Y-90104000D01*
X16102000Y-90213000D01*
X16207000Y-90309000D01*
X16296000Y-90396000D01*
X16372000Y-90476000D01*
X16436000Y-90552000D01*
X16493000Y-90626000D01*
X16545000Y-90700000D01*
X16594000Y-90779000D01*
X16601000Y-90790000D01*
X16607000Y-90800000D01*
X16614000Y-90810000D01*
X16620000Y-90819000D01*
X16626000Y-90828000D01*
X16631000Y-90836000D01*
X16636000Y-90842000D01*
X16645000Y-90853000D01*
X16651000Y-90858000D01*
X16656000Y-90851000D01*
X16657000Y-90839000D01*
X16658000Y-90830000D01*
X16658000Y-90821000D01*
X16658000Y-90810000D01*
X16657000Y-90798000D01*
X16656000Y-90786000D01*
X16656000Y-90773000D01*
X16654000Y-90760000D01*
X16650000Y-90727000D01*
X16644000Y-90691000D01*
X16636000Y-90654000D01*
X16626000Y-90616000D01*
X16614000Y-90577000D01*
X16601000Y-90538000D01*
X16586000Y-90499000D01*
X16570000Y-90461000D01*
X16553000Y-90423000D01*
X16536000Y-90388000D01*
X16517000Y-90354000D01*
X16498000Y-90323000D01*
X16477000Y-90292000D01*
X16452000Y-90259000D01*
X16423000Y-90223000D01*
X16391000Y-90186000D01*
X16355000Y-90147000D01*
X16318000Y-90107000D01*
X16277000Y-90066000D01*
X16236000Y-90025000D01*
X16192000Y-89984000D01*
X16148000Y-89944000D01*
X16103000Y-89905000D01*
X16057000Y-89867000D01*
X16037000Y-89850000D01*
X16015000Y-89832000D01*
X15991000Y-89813000D01*
X15967000Y-89793000D01*
X15942000Y-89772000D01*
X15916000Y-89751000D01*
X15891000Y-89730000D01*
X15866000Y-89710000D01*
X15841000Y-89690000D01*
X15818000Y-89670000D01*
X15796000Y-89652000D01*
X15776000Y-89636000D01*
X15702000Y-89575000D01*
X15617000Y-89507000D01*
X15525000Y-89433000D01*
X15428000Y-89355000D01*
X15330000Y-89276000D01*
X15232000Y-89198000D01*
X15139000Y-89125000D01*
X15053000Y-89057000D01*
X14977000Y-88997000D01*
X14914000Y-88948000D01*
X14867000Y-88912000D01*
X14839000Y-88892000D01*
X14789000Y-88860000D01*
X14740000Y-88831000D01*
X14690000Y-88805000D01*
X14640000Y-88783000D01*
X14589000Y-88764000D01*
X14538000Y-88748000D01*
X14485000Y-88735000D01*
X14430000Y-88726000D01*
X14374000Y-88719000D01*
X14316000Y-88715000D01*
X14255000Y-88714000D01*
X14192000Y-88715000D01*
X14126000Y-88720000D01*
X14064000Y-88727000D01*
X14005000Y-88736000D01*
X13951000Y-88750000D01*
X13898000Y-88766000D01*
X13848000Y-88786000D01*
X13799000Y-88810000D01*
X13752000Y-88839000D01*
X13705000Y-88872000D01*
X13657000Y-88909000D01*
X13609000Y-88951000D01*
X13560000Y-88999000D01*
X13527000Y-89034000D01*
X13496000Y-89069000D01*
X13467000Y-89105000D01*
X13440000Y-89141000D01*
X13414000Y-89179000D01*
X13391000Y-89218000D01*
X13369000Y-89258000D01*
X13348000Y-89299000D01*
X13330000Y-89341000D01*
X13313000Y-89385000D01*
X13297000Y-89431000D01*
X13283000Y-89478000D01*
X13276000Y-89505000D01*
X13270000Y-89533000D01*
X13264000Y-89565000D01*
X13260000Y-89608000D01*
X13257000Y-89664000D01*
X13254000Y-89739000D01*
X13252000Y-89836000D01*
X13251000Y-89962000D01*
X13249000Y-90119000D01*
X13248000Y-90312000D01*
X13247000Y-90547000D01*
X13246000Y-90826000D01*
X13242000Y-92060000D01*
X12836222Y-92060000D01*
X12839000Y-92055000D01*
X12844000Y-92038000D01*
X12847000Y-92007000D01*
X12850000Y-91959000D01*
X12853000Y-91890000D01*
X12855000Y-91795000D01*
X12856000Y-91672000D01*
X12857000Y-91515000D01*
X12858000Y-91320000D01*
X12859000Y-91084000D01*
X12861000Y-90803000D01*
X12865000Y-89549000D01*
X12907000Y-89393000D01*
X12952000Y-89252000D01*
X13008000Y-89119000D01*
X13075000Y-88995000D01*
X13152000Y-88880000D01*
X13238000Y-88775000D01*
X13318000Y-88695000D01*
X15190000Y-88695000D01*
X15242000Y-88740000D01*
X15252000Y-88748000D01*
X15266000Y-88760000D01*
X15283000Y-88775000D01*
X15305000Y-88793000D01*
X15330000Y-88813000D01*
X15357000Y-88836000D01*
X15387000Y-88861000D01*
X15419000Y-88887000D01*
X15453000Y-88914000D01*
X15488000Y-88943000D01*
X15524000Y-88972000D01*
X15561000Y-89002000D01*
X15598000Y-89033000D01*
X15637000Y-89064000D01*
X15677000Y-89097000D01*
X15717000Y-89130000D01*
X15758000Y-89163000D01*
X15797000Y-89195000D01*
X15835000Y-89226000D01*
X15872000Y-89256000D01*
X15906000Y-89284000D01*
X15937000Y-89310000D01*
X15966000Y-89334000D01*
X15990000Y-89354000D01*
X16013000Y-89373000D01*
X16037000Y-89393000D01*
X16061000Y-89412000D01*
X16085000Y-89432000D01*
X16109000Y-89452000D01*
X16132000Y-89471000D01*
X16155000Y-89490000D01*
X16176000Y-89507000D01*
X16196000Y-89524000D01*
X16214000Y-89539000D01*
X16231000Y-89552000D01*
X16245000Y-89563000D01*
X16340000Y-89642000D01*
X16426000Y-89713000D01*
X16501000Y-89779000D01*
X16568000Y-89840000D01*
X16627000Y-89898000D01*
X16679000Y-89954000D01*
X16726000Y-90009000D01*
X16769000Y-90064000D01*
X16808000Y-90120000D01*
X16844000Y-90179000D01*
X16880000Y-90241000D01*
X16915000Y-90308000D01*
X16941000Y-90362000D01*
X16964000Y-90411000D01*
X16982000Y-90459000D01*
X16997000Y-90509000D01*
X17009000Y-90564000D01*
X17018000Y-90627000D01*
X17025000Y-90701000D01*
X17029000Y-90791000D01*
X17030000Y-90821000D01*
X17032000Y-90897000D01*
X17034000Y-91025000D01*
X17035000Y-91178000D01*
X17035000Y-91357000D01*
X17035000Y-91450000D01*
X17035000Y-91538000D01*
X17036000Y-91623000D01*
X17036000Y-91702000D01*
X17037000Y-91776000D01*
X17038000Y-91842000D01*
X17039000Y-91901000D01*
X17040000Y-91951000D01*
X17041000Y-91992000D01*
X17042000Y-92023000D01*
X17043000Y-92042000D01*
X17045000Y-92050000D01*
X17058000Y-92054000D01*
X17066000Y-92055000D01*
X17075000Y-92056000D01*
X17086000Y-92057000D01*
X17098000Y-92058000D01*
X17111000Y-92058000D01*
X17125000Y-92059000D01*
X17140000Y-92059000D01*
X17155000Y-92060000D01*
X17171000Y-92060000D01*
X17287000Y-92060000D01*
X17287000Y-91380000D01*
X17287000Y-91203000D01*
X17286000Y-91051000D01*
X17284000Y-90922000D01*
X17281000Y-90813000D01*
X17277000Y-90721000D01*
X17272000Y-90643000D01*
X17264000Y-90577000D01*
X17255000Y-90519000D01*
X17243000Y-90467000D01*
X17228000Y-90418000D01*
X17211000Y-90369000D01*
X17190000Y-90318000D01*
X17164000Y-90259000D01*
X17135000Y-90200000D01*
X17103000Y-90142000D01*
X17067000Y-90085000D01*
X17029000Y-90028000D01*
X16987000Y-89972000D01*
X16942000Y-89916000D01*
X16894000Y-89861000D01*
X16843000Y-89806000D01*
X16788000Y-89751000D01*
X16730000Y-89697000D01*
X16669000Y-89643000D01*
X16616000Y-89598000D01*
X16550000Y-89543000D01*
X16473000Y-89479000D01*
X16389000Y-89410000D01*
X16300000Y-89336000D01*
X16209000Y-89262000D01*
X16120000Y-89190000D01*
X16035000Y-89121000D01*
X15957000Y-89058000D01*
X15890000Y-89004000D01*
X15836000Y-88962000D01*
X15798000Y-88932000D01*
X15749000Y-88897000D01*
X15703000Y-88865000D01*
X15659000Y-88836000D01*
X15616000Y-88810000D01*
X15574000Y-88788000D01*
X16155000Y-88788000D01*
X16176000Y-88811000D01*
X16210000Y-88835000D01*
X16262000Y-88876000D01*
X16330000Y-88930000D01*
X16410000Y-88995000D01*
X16498000Y-89067000D01*
X16592000Y-89145000D01*
X16689000Y-89225000D01*
X16784000Y-89304000D01*
X16874000Y-89380000D01*
X16957000Y-89450000D01*
X17028000Y-89512000D01*
X17085000Y-89562000D01*
X17142000Y-89615000D01*
X17196000Y-89670000D01*
X17249000Y-89727000D01*
X17298000Y-89785000D01*
X17346000Y-89846000D01*
X17390000Y-89907000D01*
X17431000Y-89969000D01*
X17469000Y-90031000D01*
X17503000Y-90094000D01*
X17534000Y-90156000D01*
X17560000Y-90218000D01*
X17582000Y-90279000D01*
X17600000Y-90333000D01*
X17615000Y-90381000D01*
X17627000Y-90427000D01*
X17637000Y-90475000D01*
X17645000Y-90527000D01*
X17651000Y-90588000D01*
X17656000Y-90660000D01*
X17660000Y-90747000D01*
X17662000Y-90852000D01*
X17664000Y-90980000D01*
X17666000Y-91133000D01*
X17668000Y-91315000D01*
X17668000Y-91380000D01*
X17674000Y-92060000D01*
X17799000Y-92060000D01*
X17924000Y-92060000D01*
X17924000Y-91392000D01*
X17924000Y-91299000D01*
X17923000Y-91208000D01*
X17923000Y-91119000D01*
X17922000Y-91034000D01*
X17921000Y-90953000D01*
X17919000Y-90877000D01*
X17918000Y-90808000D01*
X17916000Y-90745000D01*
X17914000Y-90690000D01*
X17912000Y-90645000D01*
X17910000Y-90609000D01*
X17908000Y-90583000D01*
X17899000Y-90517000D01*
X17888000Y-90453000D01*
X17874000Y-90388000D01*
X17858000Y-90325000D01*
X17839000Y-90263000D01*
X17818000Y-90201000D01*
X17794000Y-90141000D01*
X17768000Y-90082000D01*
X17740000Y-90023000D01*
X17709000Y-89966000D01*
X17675000Y-89911000D01*
X17640000Y-89856000D01*
X17590000Y-89790000D01*
X17531000Y-89719000D01*
X17464000Y-89645000D01*
X17388000Y-89569000D01*
X17307000Y-89492000D01*
X17220000Y-89415000D01*
X17128000Y-89338000D01*
X17033000Y-89263000D01*
X16936000Y-89191000D01*
X16838000Y-89121000D01*
X16740000Y-89056000D01*
X16642000Y-88996000D01*
X16592000Y-88968000D01*
X16535000Y-88939000D01*
X16475000Y-88910000D01*
X16412000Y-88881000D01*
X16351000Y-88855000D01*
X16294000Y-88831000D01*
X16243000Y-88812000D01*
X16201000Y-88797000D01*
X16171000Y-88789000D01*
X16155000Y-88788000D01*
X15574000Y-88788000D01*
X15533000Y-88769000D01*
X15493000Y-88752000D01*
X15453000Y-88738000D01*
X15412000Y-88726000D01*
X15372000Y-88717000D01*
X15330000Y-88710000D01*
X15287000Y-88704000D01*
X15190000Y-88695000D01*
X13318000Y-88695000D01*
X13333000Y-88680000D01*
X13438000Y-88596000D01*
X13551000Y-88522000D01*
X13672000Y-88459000D01*
X13801000Y-88408000D01*
X13937000Y-88369000D01*
X14079000Y-88342000D01*
X14139000Y-88337000D01*
X14243000Y-88333000D01*
X14382000Y-88330000D01*
X14548000Y-88328000D01*
X14732000Y-88327000D01*
X14925000Y-88327000D01*
X15119000Y-88327000D01*
X15306000Y-88329000D01*
X15475000Y-88331000D01*
X15620000Y-88334000D01*
X15732000Y-88338000D01*
X15801000Y-88342000D01*
X15914000Y-88358000D01*
X16026000Y-88379000D01*
X16137000Y-88405000D01*
X16249000Y-88438000D01*
X16361000Y-88477000D01*
X16473000Y-88521000D01*
X16585000Y-88571000D01*
X16698000Y-88627000D01*
X16811000Y-88689000D01*
X16925000Y-88758000D01*
X17040000Y-88832000D01*
X17155000Y-88913000D01*
X17315000Y-89031000D01*
X17460000Y-89147000D01*
X17591000Y-89261000D01*
X17709000Y-89374000D01*
X17814000Y-89486000D01*
X17907000Y-89599000D01*
X17989000Y-89713000D01*
X18061000Y-89829000D01*
X18122000Y-89948000D01*
X18174000Y-90072000D01*
X18218000Y-90200000D01*
X18254000Y-90334000D01*
X18260000Y-90364000D01*
X18266000Y-90394000D01*
X18271000Y-90427000D01*
X18275000Y-90464000D01*
X18278000Y-90509000D01*
X18281000Y-90564000D01*
X18283000Y-90632000D01*
X18285000Y-90715000D01*
X18286000Y-90816000D01*
X18288000Y-90938000D01*
X18289000Y-91082000D01*
X18290000Y-91251000D01*
X18291000Y-91392000D01*
X18296000Y-92035000D01*
G37*
%TO.C,Q10*%
D12*
X36380000Y-24945000D02*
X32780000Y-24945000D01*
X32255816Y-25672205D02*
G75*
G02*
X32780000Y-24945000I2324184J-1122795D01*
G01*
X34580000Y-29395000D02*
G75*
G02*
X32223600Y-27893807I0J2600000D01*
G01*
X36380000Y-24945000D02*
G75*
G02*
X36904184Y-25672205I-1800000J-1850000D01*
G01*
X36936400Y-27893807D02*
G75*
G02*
X34580000Y-29395000I-2356400J1098807D01*
G01*
%TO.C,Q7*%
X25100000Y-28645000D02*
X28700000Y-28645000D01*
X24543600Y-25696193D02*
G75*
G02*
X26900000Y-24195000I2356400J-1098807D01*
G01*
X25100000Y-28645000D02*
G75*
G02*
X24575816Y-27917795I1800000J1850000D01*
G01*
X26900000Y-24195000D02*
G75*
G02*
X29256400Y-25696193I0J-2600000D01*
G01*
X29224184Y-27917795D02*
G75*
G02*
X28700000Y-28645000I-2324184J1122795D01*
G01*
%TO.C,D15*%
X41024000Y-53120000D02*
X41180000Y-53120000D01*
X43340000Y-53120000D02*
X43496000Y-53120000D01*
X41024484Y-53120000D02*
G75*
G02*
X41180000Y-49888563I1235516J1560000D01*
G01*
X41180000Y-52600961D02*
G75*
G02*
X41180000Y-50519039I1080000J1040961D01*
G01*
X43340000Y-49888563D02*
G75*
G02*
X43495516Y-53120000I-1080000J-1671437D01*
G01*
X43340000Y-50519039D02*
G75*
G02*
X43340000Y-52600961I-1080000J-1040961D01*
G01*
%TO.C,Q23*%
X67100000Y-40185000D02*
X63500000Y-40185000D01*
X62975816Y-40912205D02*
G75*
G02*
X63500000Y-40185000I2324184J-1122795D01*
G01*
X65300000Y-44635000D02*
G75*
G02*
X62943600Y-43133807I0J2600000D01*
G01*
X67100000Y-40185000D02*
G75*
G02*
X67624184Y-40912205I-1800000J-1850000D01*
G01*
X67656400Y-43133807D02*
G75*
G02*
X65300000Y-44635000I-2356400J1098807D01*
G01*
%TO.C,R63*%
X68590000Y-73370000D02*
X68590000Y-75980000D01*
X69960000Y-72000000D02*
G75*
G02*
X67220000Y-72000000I-1370000J0D01*
G01*
X67220000Y-72000000D02*
G75*
G02*
X69960000Y-72000000I1370000J0D01*
G01*
%TO.C,R51*%
X49870000Y-88770000D02*
X49870000Y-91380000D01*
X51240000Y-87400000D02*
G75*
G02*
X48500000Y-87400000I-1370000J0D01*
G01*
X48500000Y-87400000D02*
G75*
G02*
X51240000Y-87400000I1370000J0D01*
G01*
%TO.C,R14*%
X41090000Y-31240000D02*
X43700000Y-31240000D01*
X41090000Y-31240000D02*
G75*
G02*
X38350000Y-31240000I-1370000J0D01*
G01*
X38350000Y-31240000D02*
G75*
G02*
X41090000Y-31240000I1370000J0D01*
G01*
%TO.C,R26*%
X87170000Y-24255000D02*
X89780000Y-24255000D01*
X87170000Y-24255000D02*
G75*
G02*
X84430000Y-24255000I-1370000J0D01*
G01*
X84430000Y-24255000D02*
G75*
G02*
X87170000Y-24255000I1370000J0D01*
G01*
%TO.C,R49*%
X49870000Y-73370000D02*
X49870000Y-75980000D01*
X51240000Y-72000000D02*
G75*
G02*
X48500000Y-72000000I-1370000J0D01*
G01*
X48500000Y-72000000D02*
G75*
G02*
X51240000Y-72000000I1370000J0D01*
G01*
%TO.C,R46*%
X79490000Y-49020000D02*
X82100000Y-49020000D01*
X79490000Y-49020000D02*
G75*
G02*
X76750000Y-49020000I-1370000J0D01*
G01*
X76750000Y-49020000D02*
G75*
G02*
X79490000Y-49020000I1370000J0D01*
G01*
%TO.C,Q26*%
X86540000Y-30550000D02*
X90140000Y-30550000D01*
X85983600Y-27601193D02*
G75*
G02*
X88340000Y-26100000I2356400J-1098807D01*
G01*
X86540000Y-30550000D02*
G75*
G02*
X86015816Y-29822795I1800000J1850000D01*
G01*
X88340000Y-26100000D02*
G75*
G02*
X90696400Y-27601193I0J-2600000D01*
G01*
X90664184Y-29822795D02*
G75*
G02*
X90140000Y-30550000I-2324184J1122795D01*
G01*
%TO.C,R40*%
X79490000Y-18540000D02*
X82100000Y-18540000D01*
X79490000Y-18540000D02*
G75*
G02*
X76750000Y-18540000I-1370000J0D01*
G01*
X76750000Y-18540000D02*
G75*
G02*
X79490000Y-18540000I1370000J0D01*
G01*
%TO.C,D7*%
X25664000Y-22640000D02*
X25820000Y-22640000D01*
X27980000Y-22640000D02*
X28136000Y-22640000D01*
X25664484Y-22640000D02*
G75*
G02*
X25820000Y-19408563I1235516J1560000D01*
G01*
X25820000Y-22120961D02*
G75*
G02*
X25820000Y-20039039I1080000J1040961D01*
G01*
X27980000Y-19408563D02*
G75*
G02*
X28135516Y-22640000I-1080000J-1671437D01*
G01*
X27980000Y-20039039D02*
G75*
G02*
X27980000Y-22120961I-1080000J-1040961D01*
G01*
%TO.C,R55*%
X37870000Y-73370000D02*
X37870000Y-75980000D01*
X39240000Y-72000000D02*
G75*
G02*
X36500000Y-72000000I-1370000J0D01*
G01*
X36500000Y-72000000D02*
G75*
G02*
X39240000Y-72000000I1370000J0D01*
G01*
%TO.C,C2*%
X93960000Y-27000000D02*
X92420000Y-27000000D01*
X93960000Y-27040000D02*
X92420000Y-27040000D01*
X93960000Y-27080000D02*
X92421000Y-27080000D01*
X93960000Y-27120000D02*
X92423000Y-27120000D01*
X93960000Y-27160000D02*
X92425000Y-27160000D01*
X93960000Y-27200000D02*
X92428000Y-27200000D01*
X93960000Y-27240000D02*
X92431000Y-27240000D01*
X93960000Y-27280000D02*
X92435000Y-27280000D01*
X93960000Y-27320000D02*
X92440000Y-27320000D01*
X93960000Y-27360000D02*
X92445000Y-27360000D01*
X93960000Y-27400000D02*
X92451000Y-27400000D01*
X93960000Y-27440000D02*
X92457000Y-27440000D01*
X93960000Y-27480000D02*
X92464000Y-27480000D01*
X93960000Y-27520000D02*
X92472000Y-27520000D01*
X93960000Y-27560000D02*
X92481000Y-27560000D01*
X93960000Y-27600000D02*
X92490000Y-27600000D01*
X93960000Y-27640000D02*
X92499000Y-27640000D01*
X93960000Y-27680000D02*
X92510000Y-27680000D01*
X93960000Y-27720000D02*
X92521000Y-27720000D01*
X93960000Y-27760000D02*
X92533000Y-27760000D01*
X93960000Y-27800000D02*
X92545000Y-27800000D01*
X93960000Y-27840000D02*
X92558000Y-27840000D01*
X93960000Y-27880000D02*
X92572000Y-27880000D01*
X93960000Y-27920000D02*
X92587000Y-27920000D01*
X93960000Y-27960000D02*
X92602000Y-27960000D01*
X93960000Y-28000000D02*
X92618000Y-28000000D01*
X93960000Y-28040000D02*
X92635000Y-28040000D01*
X93960000Y-28080000D02*
X92653000Y-28080000D01*
X93960000Y-28120000D02*
X92671000Y-28120000D01*
X93960000Y-28160000D02*
X92691000Y-28160000D01*
X93960000Y-28200000D02*
X92711000Y-28200000D01*
X93960000Y-28240000D02*
X92732000Y-28240000D01*
X93960000Y-28280000D02*
X92754000Y-28280000D01*
X93960000Y-28320000D02*
X92777000Y-28320000D01*
X93960000Y-28360000D02*
X92801000Y-28360000D01*
X93960000Y-28400000D02*
X92825000Y-28400000D01*
X93960000Y-28440000D02*
X92851000Y-28440000D01*
X93960000Y-28480000D02*
X92878000Y-28480000D01*
X93960000Y-28520000D02*
X92906000Y-28520000D01*
X93960000Y-28560000D02*
X92935000Y-28560000D01*
X93960000Y-28600000D02*
X92965000Y-28600000D01*
X93960000Y-28640000D02*
X92997000Y-28640000D01*
X93960000Y-28680000D02*
X93030000Y-28680000D01*
X93960000Y-28720000D02*
X93064000Y-28720000D01*
X93960000Y-28760000D02*
X93099000Y-28760000D01*
X93960000Y-28800000D02*
X93136000Y-28800000D01*
X93960000Y-28840000D02*
X93175000Y-28840000D01*
X93960000Y-28880000D02*
X93215000Y-28880000D01*
X93960000Y-28920000D02*
X93257000Y-28920000D01*
X93960000Y-28960000D02*
X93301000Y-28960000D01*
X93960000Y-29000000D02*
X93348000Y-29000000D01*
X95283000Y-29600000D02*
X94717000Y-29600000D01*
X95517000Y-29560000D02*
X94483000Y-29560000D01*
X95677000Y-29520000D02*
X94323000Y-29520000D01*
X95805000Y-29480000D02*
X94195000Y-29480000D01*
X95914000Y-29440000D02*
X94086000Y-29440000D01*
X96011000Y-29400000D02*
X93989000Y-29400000D01*
X96098000Y-29360000D02*
X93902000Y-29360000D01*
X96177000Y-29320000D02*
X93823000Y-29320000D01*
X96251000Y-29280000D02*
X93749000Y-29280000D01*
X96319000Y-29240000D02*
X93681000Y-29240000D01*
X96383000Y-29200000D02*
X93617000Y-29200000D01*
X96443000Y-29160000D02*
X93557000Y-29160000D01*
X96475000Y-24195225D02*
X96475000Y-24695225D01*
X96499000Y-29120000D02*
X93501000Y-29120000D01*
X96553000Y-29080000D02*
X93447000Y-29080000D01*
X96604000Y-29040000D02*
X93396000Y-29040000D01*
X96652000Y-29000000D02*
X96040000Y-29000000D01*
X96699000Y-28960000D02*
X96040000Y-28960000D01*
X96725000Y-24445225D02*
X96225000Y-24445225D01*
X96743000Y-28920000D02*
X96040000Y-28920000D01*
X96785000Y-28880000D02*
X96040000Y-28880000D01*
X96825000Y-28840000D02*
X96040000Y-28840000D01*
X96864000Y-28800000D02*
X96040000Y-28800000D01*
X96901000Y-28760000D02*
X96040000Y-28760000D01*
X96936000Y-28720000D02*
X96040000Y-28720000D01*
X96970000Y-28680000D02*
X96040000Y-28680000D01*
X97003000Y-28640000D02*
X96040000Y-28640000D01*
X97035000Y-28600000D02*
X96040000Y-28600000D01*
X97065000Y-28560000D02*
X96040000Y-28560000D01*
X97094000Y-28520000D02*
X96040000Y-28520000D01*
X97122000Y-28480000D02*
X96040000Y-28480000D01*
X97149000Y-28440000D02*
X96040000Y-28440000D01*
X97175000Y-28400000D02*
X96040000Y-28400000D01*
X97199000Y-28360000D02*
X96040000Y-28360000D01*
X97223000Y-28320000D02*
X96040000Y-28320000D01*
X97246000Y-28280000D02*
X96040000Y-28280000D01*
X97268000Y-28240000D02*
X96040000Y-28240000D01*
X97289000Y-28200000D02*
X96040000Y-28200000D01*
X97309000Y-28160000D02*
X96040000Y-28160000D01*
X97329000Y-28120000D02*
X96040000Y-28120000D01*
X97347000Y-28080000D02*
X96040000Y-28080000D01*
X97365000Y-28040000D02*
X96040000Y-28040000D01*
X97382000Y-28000000D02*
X96040000Y-28000000D01*
X97398000Y-27960000D02*
X96040000Y-27960000D01*
X97413000Y-27920000D02*
X96040000Y-27920000D01*
X97428000Y-27880000D02*
X96040000Y-27880000D01*
X97442000Y-27840000D02*
X96040000Y-27840000D01*
X97455000Y-27800000D02*
X96040000Y-27800000D01*
X97467000Y-27760000D02*
X96040000Y-27760000D01*
X97479000Y-27720000D02*
X96040000Y-27720000D01*
X97490000Y-27680000D02*
X96040000Y-27680000D01*
X97501000Y-27640000D02*
X96040000Y-27640000D01*
X97510000Y-27600000D02*
X96040000Y-27600000D01*
X97519000Y-27560000D02*
X96040000Y-27560000D01*
X97528000Y-27520000D02*
X96040000Y-27520000D01*
X97536000Y-27480000D02*
X96040000Y-27480000D01*
X97543000Y-27440000D02*
X96040000Y-27440000D01*
X97549000Y-27400000D02*
X96040000Y-27400000D01*
X97555000Y-27360000D02*
X96040000Y-27360000D01*
X97560000Y-27320000D02*
X96040000Y-27320000D01*
X97565000Y-27280000D02*
X96040000Y-27280000D01*
X97569000Y-27240000D02*
X96040000Y-27240000D01*
X97572000Y-27200000D02*
X96040000Y-27200000D01*
X97575000Y-27160000D02*
X96040000Y-27160000D01*
X97577000Y-27120000D02*
X96040000Y-27120000D01*
X97579000Y-27080000D02*
X96040000Y-27080000D01*
X97580000Y-27000000D02*
X96040000Y-27000000D01*
X97580000Y-27040000D02*
X96040000Y-27040000D01*
X97620000Y-27000000D02*
G75*
G02*
X92380000Y-27000000I-2620000J0D01*
G01*
X92380000Y-27000000D02*
G75*
G02*
X97620000Y-27000000I2620000J0D01*
G01*
%TO.C,Q3*%
X9740000Y-59125000D02*
X13340000Y-59125000D01*
X9183600Y-56176193D02*
G75*
G02*
X11540000Y-54675000I2356400J-1098807D01*
G01*
X9740000Y-59125000D02*
G75*
G02*
X9215816Y-58397795I1800000J1850000D01*
G01*
X11540000Y-54675000D02*
G75*
G02*
X13896400Y-56176193I0J-2600000D01*
G01*
X13864184Y-58397795D02*
G75*
G02*
X13340000Y-59125000I-2324184J1122795D01*
G01*
%TO.C,R34*%
X71810000Y-38860000D02*
X74420000Y-38860000D01*
X71810000Y-38860000D02*
G75*
G02*
X69070000Y-38860000I-1370000J0D01*
G01*
X69070000Y-38860000D02*
G75*
G02*
X71810000Y-38860000I1370000J0D01*
G01*
%TO.C,R30*%
X71810000Y-18540000D02*
X74420000Y-18540000D01*
X71810000Y-18540000D02*
G75*
G02*
X69070000Y-18540000I-1370000J0D01*
G01*
X69070000Y-18540000D02*
G75*
G02*
X71810000Y-18540000I1370000J0D01*
G01*
%TO.C,Q20*%
X55820000Y-43885000D02*
X59420000Y-43885000D01*
X55263600Y-40936193D02*
G75*
G02*
X57620000Y-39435000I2356400J-1098807D01*
G01*
X55820000Y-43885000D02*
G75*
G02*
X55295816Y-43157795I1800000J1850000D01*
G01*
X57620000Y-39435000D02*
G75*
G02*
X59976400Y-40936193I0J-2600000D01*
G01*
X59944184Y-43157795D02*
G75*
G02*
X59420000Y-43885000I-2324184J1122795D01*
G01*
%TO.C,D6*%
X17984000Y-53120000D02*
X18140000Y-53120000D01*
X20300000Y-53120000D02*
X20456000Y-53120000D01*
X17984484Y-53120000D02*
G75*
G02*
X18140000Y-49888563I1235516J1560000D01*
G01*
X18140000Y-52600961D02*
G75*
G02*
X18140000Y-50519039I1080000J1040961D01*
G01*
X20300000Y-49888563D02*
G75*
G02*
X20455516Y-53120000I-1080000J-1671437D01*
G01*
X20300000Y-50519039D02*
G75*
G02*
X20300000Y-52600961I-1080000J-1040961D01*
G01*
%TO.C,D8*%
X25664000Y-37880000D02*
X25820000Y-37880000D01*
X27980000Y-37880000D02*
X28136000Y-37880000D01*
X25664484Y-37880000D02*
G75*
G02*
X25820000Y-34648563I1235516J1560000D01*
G01*
X25820000Y-37360961D02*
G75*
G02*
X25820000Y-35279039I1080000J1040961D01*
G01*
X27980000Y-34648563D02*
G75*
G02*
X28135516Y-37880000I-1080000J-1671437D01*
G01*
X27980000Y-35279039D02*
G75*
G02*
X27980000Y-37360961I-1080000J-1040961D01*
G01*
%TO.C,R25*%
X87170000Y-16000000D02*
X89780000Y-16000000D01*
X87170000Y-16000000D02*
G75*
G02*
X84430000Y-16000000I-1370000J0D01*
G01*
X84430000Y-16000000D02*
G75*
G02*
X87170000Y-16000000I1370000J0D01*
G01*
%TO.C,C1*%
X93630000Y-15130000D02*
X96370000Y-15130000D01*
X93630000Y-20370000D02*
X93630000Y-15130000D01*
X96370000Y-15130000D02*
X96370000Y-20370000D01*
X96370000Y-20370000D02*
X93630000Y-20370000D01*
%TO.C,D3*%
X10304000Y-53120000D02*
X10460000Y-53120000D01*
X12620000Y-53120000D02*
X12776000Y-53120000D01*
X10304484Y-53120000D02*
G75*
G02*
X10460000Y-49888563I1235516J1560000D01*
G01*
X10460000Y-52600961D02*
G75*
G02*
X10460000Y-50519039I1080000J1040961D01*
G01*
X12620000Y-49888563D02*
G75*
G02*
X12775516Y-53120000I-1080000J-1671437D01*
G01*
X12620000Y-50519039D02*
G75*
G02*
X12620000Y-52600961I-1080000J-1040961D01*
G01*
%TO.C,D21*%
X56384000Y-53120000D02*
X56540000Y-53120000D01*
X58700000Y-53120000D02*
X58856000Y-53120000D01*
X56384484Y-53120000D02*
G75*
G02*
X56540000Y-49888563I1235516J1560000D01*
G01*
X56540000Y-52600961D02*
G75*
G02*
X56540000Y-50519039I1080000J1040961D01*
G01*
X58700000Y-49888563D02*
G75*
G02*
X58855516Y-53120000I-1080000J-1671437D01*
G01*
X58700000Y-50519039D02*
G75*
G02*
X58700000Y-52600961I-1080000J-1040961D01*
G01*
%TO.C,Q22*%
X67100000Y-24945000D02*
X63500000Y-24945000D01*
X62975816Y-25672205D02*
G75*
G02*
X63500000Y-24945000I2324184J-1122795D01*
G01*
X65300000Y-29395000D02*
G75*
G02*
X62943600Y-27893807I0J2600000D01*
G01*
X67100000Y-24945000D02*
G75*
G02*
X67624184Y-25672205I-1800000J-1850000D01*
G01*
X67656400Y-27893807D02*
G75*
G02*
X65300000Y-29395000I-2356400J1098807D01*
G01*
%TO.C,D1*%
X10304000Y-22640000D02*
X10460000Y-22640000D01*
X12620000Y-22640000D02*
X12776000Y-22640000D01*
X10304484Y-22640000D02*
G75*
G02*
X10460000Y-19408563I1235516J1560000D01*
G01*
X10460000Y-22120961D02*
G75*
G02*
X10460000Y-20039039I1080000J1040961D01*
G01*
X12620000Y-19408563D02*
G75*
G02*
X12775516Y-22640000I-1080000J-1671437D01*
G01*
X12620000Y-20039039D02*
G75*
G02*
X12620000Y-22120961I-1080000J-1040961D01*
G01*
%TO.C,Q6*%
X21020000Y-55425000D02*
X17420000Y-55425000D01*
X16895816Y-56152205D02*
G75*
G02*
X17420000Y-55425000I2324184J-1122795D01*
G01*
X19220000Y-59875000D02*
G75*
G02*
X16863600Y-58373807I0J2600000D01*
G01*
X21020000Y-55425000D02*
G75*
G02*
X21544184Y-56152205I-1800000J-1850000D01*
G01*
X21576400Y-58373807D02*
G75*
G02*
X19220000Y-59875000I-2356400J1098807D01*
G01*
%TO.C,D13*%
X41024000Y-22640000D02*
X41180000Y-22640000D01*
X43340000Y-22640000D02*
X43496000Y-22640000D01*
X41024484Y-22640000D02*
G75*
G02*
X41180000Y-19408563I1235516J1560000D01*
G01*
X41180000Y-22120961D02*
G75*
G02*
X41180000Y-20039039I1080000J1040961D01*
G01*
X43340000Y-19408563D02*
G75*
G02*
X43495516Y-22640000I-1080000J-1671437D01*
G01*
X43340000Y-20039039D02*
G75*
G02*
X43340000Y-22120961I-1080000J-1040961D01*
G01*
%TO.C,R31*%
X71810000Y-23620000D02*
X74420000Y-23620000D01*
X71810000Y-23620000D02*
G75*
G02*
X69070000Y-23620000I-1370000J0D01*
G01*
X69070000Y-23620000D02*
G75*
G02*
X71810000Y-23620000I1370000J0D01*
G01*
%TO.C,Q9*%
X25100000Y-59125000D02*
X28700000Y-59125000D01*
X24543600Y-56176193D02*
G75*
G02*
X26900000Y-54675000I2356400J-1098807D01*
G01*
X25100000Y-59125000D02*
G75*
G02*
X24575816Y-58397795I1800000J1850000D01*
G01*
X26900000Y-54675000D02*
G75*
G02*
X29256400Y-56176193I0J-2600000D01*
G01*
X29224184Y-58397795D02*
G75*
G02*
X28700000Y-59125000I-2324184J1122795D01*
G01*
%TO.C,R5*%
X18050000Y-31240000D02*
X20660000Y-31240000D01*
X18050000Y-31240000D02*
G75*
G02*
X15310000Y-31240000I-1370000J0D01*
G01*
X15310000Y-31240000D02*
G75*
G02*
X18050000Y-31240000I1370000J0D01*
G01*
%TO.C,Q18*%
X51740000Y-55425000D02*
X48140000Y-55425000D01*
X47615816Y-56152205D02*
G75*
G02*
X48140000Y-55425000I2324184J-1122795D01*
G01*
X49940000Y-59875000D02*
G75*
G02*
X47583600Y-58373807I0J2600000D01*
G01*
X51740000Y-55425000D02*
G75*
G02*
X52264184Y-56152205I-1800000J-1850000D01*
G01*
X52296400Y-58373807D02*
G75*
G02*
X49940000Y-59875000I-2356400J1098807D01*
G01*
%TO.C,R12*%
X33410000Y-46480000D02*
X36020000Y-46480000D01*
X33410000Y-46480000D02*
G75*
G02*
X30670000Y-46480000I-1370000J0D01*
G01*
X30670000Y-46480000D02*
G75*
G02*
X33410000Y-46480000I1370000J0D01*
G01*
%TO.C,R15*%
X41090000Y-46480000D02*
X43700000Y-46480000D01*
X41090000Y-46480000D02*
G75*
G02*
X38350000Y-46480000I-1370000J0D01*
G01*
X38350000Y-46480000D02*
G75*
G02*
X41090000Y-46480000I1370000J0D01*
G01*
%TO.C,R33*%
X71810000Y-33780000D02*
X74420000Y-33780000D01*
X71810000Y-33780000D02*
G75*
G02*
X69070000Y-33780000I-1370000J0D01*
G01*
X69070000Y-33780000D02*
G75*
G02*
X71810000Y-33780000I1370000J0D01*
G01*
%TO.C,D19*%
X56384000Y-22640000D02*
X56540000Y-22640000D01*
X58700000Y-22640000D02*
X58856000Y-22640000D01*
X56384484Y-22640000D02*
G75*
G02*
X56540000Y-19408563I1235516J1560000D01*
G01*
X56540000Y-22120961D02*
G75*
G02*
X56540000Y-20039039I1080000J1040961D01*
G01*
X58700000Y-19408563D02*
G75*
G02*
X58855516Y-22640000I-1080000J-1671437D01*
G01*
X58700000Y-20039039D02*
G75*
G02*
X58700000Y-22120961I-1080000J-1040961D01*
G01*
%TO.C,R58*%
X80590000Y-81070000D02*
X80590000Y-83680000D01*
X81960000Y-79700000D02*
G75*
G02*
X79220000Y-79700000I-1370000J0D01*
G01*
X79220000Y-79700000D02*
G75*
G02*
X81960000Y-79700000I1370000J0D01*
G01*
%TO.C,Q5*%
X21020000Y-40185000D02*
X17420000Y-40185000D01*
X16895816Y-40912205D02*
G75*
G02*
X17420000Y-40185000I2324184J-1122795D01*
G01*
X19220000Y-44635000D02*
G75*
G02*
X16863600Y-43133807I0J2600000D01*
G01*
X21020000Y-40185000D02*
G75*
G02*
X21544184Y-40912205I-1800000J-1850000D01*
G01*
X21576400Y-43133807D02*
G75*
G02*
X19220000Y-44635000I-2356400J1098807D01*
G01*
%TO.C,R50*%
X49870000Y-81070000D02*
X49870000Y-83680000D01*
X51240000Y-79700000D02*
G75*
G02*
X48500000Y-79700000I-1370000J0D01*
G01*
X48500000Y-79700000D02*
G75*
G02*
X51240000Y-79700000I1370000J0D01*
G01*
%TO.C,D24*%
X64064000Y-53120000D02*
X64220000Y-53120000D01*
X66380000Y-53120000D02*
X66536000Y-53120000D01*
X64064484Y-53120000D02*
G75*
G02*
X64220000Y-49888563I1235516J1560000D01*
G01*
X64220000Y-52600961D02*
G75*
G02*
X64220000Y-50519039I1080000J1040961D01*
G01*
X66380000Y-49888563D02*
G75*
G02*
X66535516Y-53120000I-1080000J-1671437D01*
G01*
X66380000Y-50519039D02*
G75*
G02*
X66380000Y-52600961I-1080000J-1040961D01*
G01*
%TO.C,R28*%
X87170000Y-40765000D02*
X89780000Y-40765000D01*
X87170000Y-40765000D02*
G75*
G02*
X84430000Y-40765000I-1370000J0D01*
G01*
X84430000Y-40765000D02*
G75*
G02*
X87170000Y-40765000I1370000J0D01*
G01*
%TO.C,Q17*%
X51740000Y-40185000D02*
X48140000Y-40185000D01*
X47615816Y-40912205D02*
G75*
G02*
X48140000Y-40185000I2324184J-1122795D01*
G01*
X49940000Y-44635000D02*
G75*
G02*
X47583600Y-43133807I0J2600000D01*
G01*
X51740000Y-40185000D02*
G75*
G02*
X52264184Y-40912205I-1800000J-1850000D01*
G01*
X52296400Y-43133807D02*
G75*
G02*
X49940000Y-44635000I-2356400J1098807D01*
G01*
%TO.C,R17*%
X48770000Y-31240000D02*
X51380000Y-31240000D01*
X48770000Y-31240000D02*
G75*
G02*
X46030000Y-31240000I-1370000J0D01*
G01*
X46030000Y-31240000D02*
G75*
G02*
X48770000Y-31240000I1370000J0D01*
G01*
%TO.C,R39*%
X71810000Y-64260000D02*
X74420000Y-64260000D01*
X71810000Y-64260000D02*
G75*
G02*
X69070000Y-64260000I-1370000J0D01*
G01*
X69070000Y-64260000D02*
G75*
G02*
X71810000Y-64260000I1370000J0D01*
G01*
%TO.C,D5*%
X17984000Y-37880000D02*
X18140000Y-37880000D01*
X20300000Y-37880000D02*
X20456000Y-37880000D01*
X17984484Y-37880000D02*
G75*
G02*
X18140000Y-34648563I1235516J1560000D01*
G01*
X18140000Y-37360961D02*
G75*
G02*
X18140000Y-35279039I1080000J1040961D01*
G01*
X20300000Y-34648563D02*
G75*
G02*
X20455516Y-37880000I-1080000J-1671437D01*
G01*
X20300000Y-35279039D02*
G75*
G02*
X20300000Y-37360961I-1080000J-1040961D01*
G01*
%TO.C,Q27*%
X86540000Y-38805000D02*
X90140000Y-38805000D01*
X85983600Y-35856193D02*
G75*
G02*
X88340000Y-34355000I2356400J-1098807D01*
G01*
X86540000Y-38805000D02*
G75*
G02*
X86015816Y-38077795I1800000J1850000D01*
G01*
X88340000Y-34355000D02*
G75*
G02*
X90696400Y-35856193I0J-2600000D01*
G01*
X90664184Y-38077795D02*
G75*
G02*
X90140000Y-38805000I-2324184J1122795D01*
G01*
%TO.C,R59*%
X80590000Y-88770000D02*
X80590000Y-91380000D01*
X81960000Y-87400000D02*
G75*
G02*
X79220000Y-87400000I-1370000J0D01*
G01*
X79220000Y-87400000D02*
G75*
G02*
X81960000Y-87400000I1370000J0D01*
G01*
%TO.C,R24*%
X64130000Y-46480000D02*
X66740000Y-46480000D01*
X64130000Y-46480000D02*
G75*
G02*
X61390000Y-46480000I-1370000J0D01*
G01*
X61390000Y-46480000D02*
G75*
G02*
X64130000Y-46480000I1370000J0D01*
G01*
%TO.C,SW1*%
X52490000Y-69340000D02*
X52490000Y-70723000D01*
X52490000Y-69340000D02*
X53873000Y-69340000D01*
X52730000Y-69580000D02*
X52730000Y-92200000D01*
X52730000Y-69580000D02*
X62630000Y-69580000D01*
X52730000Y-92200000D02*
X62630000Y-92200000D01*
X57003333Y-71365000D02*
X57003333Y-72635000D01*
X57003333Y-73905000D02*
X57003333Y-75175000D01*
X57003333Y-76445000D02*
X57003333Y-77715000D01*
X57003333Y-78985000D02*
X57003333Y-80255000D01*
X57003333Y-81525000D02*
X57003333Y-82795000D01*
X57003333Y-84065000D02*
X57003333Y-85335000D01*
X57003333Y-86605000D02*
X57003333Y-87875000D01*
X57003333Y-89145000D02*
X57003333Y-90415000D01*
X62630000Y-69580000D02*
X62630000Y-92200000D01*
X55650000Y-71365000D02*
X57003333Y-71365000D01*
X57003333Y-72635000D01*
X55650000Y-72635000D01*
X55650000Y-71365000D01*
G36*
X55650000Y-71365000D02*
G01*
X57003333Y-71365000D01*
X57003333Y-72635000D01*
X55650000Y-72635000D01*
X55650000Y-71365000D01*
G37*
X55650000Y-71365000D02*
X59710000Y-71365000D01*
X59710000Y-72635000D01*
X55650000Y-72635000D01*
X55650000Y-71365000D01*
X55650000Y-73905000D02*
X57003333Y-73905000D01*
X57003333Y-75175000D01*
X55650000Y-75175000D01*
X55650000Y-73905000D01*
G36*
X55650000Y-73905000D02*
G01*
X57003333Y-73905000D01*
X57003333Y-75175000D01*
X55650000Y-75175000D01*
X55650000Y-73905000D01*
G37*
X55650000Y-73905000D02*
X59710000Y-73905000D01*
X59710000Y-75175000D01*
X55650000Y-75175000D01*
X55650000Y-73905000D01*
X55650000Y-76445000D02*
X57003333Y-76445000D01*
X57003333Y-77715000D01*
X55650000Y-77715000D01*
X55650000Y-76445000D01*
G36*
X55650000Y-76445000D02*
G01*
X57003333Y-76445000D01*
X57003333Y-77715000D01*
X55650000Y-77715000D01*
X55650000Y-76445000D01*
G37*
X55650000Y-76445000D02*
X59710000Y-76445000D01*
X59710000Y-77715000D01*
X55650000Y-77715000D01*
X55650000Y-76445000D01*
X55650000Y-78985000D02*
X57003333Y-78985000D01*
X57003333Y-80255000D01*
X55650000Y-80255000D01*
X55650000Y-78985000D01*
G36*
X55650000Y-78985000D02*
G01*
X57003333Y-78985000D01*
X57003333Y-80255000D01*
X55650000Y-80255000D01*
X55650000Y-78985000D01*
G37*
X55650000Y-78985000D02*
X59710000Y-78985000D01*
X59710000Y-80255000D01*
X55650000Y-80255000D01*
X55650000Y-78985000D01*
X55650000Y-81525000D02*
X57003333Y-81525000D01*
X57003333Y-82795000D01*
X55650000Y-82795000D01*
X55650000Y-81525000D01*
G36*
X55650000Y-81525000D02*
G01*
X57003333Y-81525000D01*
X57003333Y-82795000D01*
X55650000Y-82795000D01*
X55650000Y-81525000D01*
G37*
X55650000Y-81525000D02*
X59710000Y-81525000D01*
X59710000Y-82795000D01*
X55650000Y-82795000D01*
X55650000Y-81525000D01*
X55650000Y-84065000D02*
X57003333Y-84065000D01*
X57003333Y-85335000D01*
X55650000Y-85335000D01*
X55650000Y-84065000D01*
G36*
X55650000Y-84065000D02*
G01*
X57003333Y-84065000D01*
X57003333Y-85335000D01*
X55650000Y-85335000D01*
X55650000Y-84065000D01*
G37*
X55650000Y-84065000D02*
X59710000Y-84065000D01*
X59710000Y-85335000D01*
X55650000Y-85335000D01*
X55650000Y-84065000D01*
X55650000Y-86605000D02*
X57003333Y-86605000D01*
X57003333Y-87875000D01*
X55650000Y-87875000D01*
X55650000Y-86605000D01*
G36*
X55650000Y-86605000D02*
G01*
X57003333Y-86605000D01*
X57003333Y-87875000D01*
X55650000Y-87875000D01*
X55650000Y-86605000D01*
G37*
X55650000Y-86605000D02*
X59710000Y-86605000D01*
X59710000Y-87875000D01*
X55650000Y-87875000D01*
X55650000Y-86605000D01*
X55650000Y-89145000D02*
X57003333Y-89145000D01*
X57003333Y-90415000D01*
X55650000Y-90415000D01*
X55650000Y-89145000D01*
G36*
X55650000Y-89145000D02*
G01*
X57003333Y-89145000D01*
X57003333Y-90415000D01*
X55650000Y-90415000D01*
X55650000Y-89145000D01*
G37*
X55650000Y-89145000D02*
X59710000Y-89145000D01*
X59710000Y-90415000D01*
X55650000Y-90415000D01*
X55650000Y-89145000D01*
%TO.C,R35*%
X71810000Y-43940000D02*
X74420000Y-43940000D01*
X71810000Y-43940000D02*
G75*
G02*
X69070000Y-43940000I-1370000J0D01*
G01*
X69070000Y-43940000D02*
G75*
G02*
X71810000Y-43940000I1370000J0D01*
G01*
%TO.C,Q14*%
X40460000Y-43885000D02*
X44060000Y-43885000D01*
X39903600Y-40936193D02*
G75*
G02*
X42260000Y-39435000I2356400J-1098807D01*
G01*
X40460000Y-43885000D02*
G75*
G02*
X39935816Y-43157795I1800000J1850000D01*
G01*
X42260000Y-39435000D02*
G75*
G02*
X44616400Y-40936193I0J-2600000D01*
G01*
X44584184Y-43157795D02*
G75*
G02*
X44060000Y-43885000I-2324184J1122795D01*
G01*
%TO.C,R10*%
X33410000Y-16000000D02*
X36020000Y-16000000D01*
X33410000Y-16000000D02*
G75*
G02*
X30670000Y-16000000I-1370000J0D01*
G01*
X30670000Y-16000000D02*
G75*
G02*
X33410000Y-16000000I1370000J0D01*
G01*
%TO.C,R20*%
X56450000Y-31240000D02*
X59060000Y-31240000D01*
X56450000Y-31240000D02*
G75*
G02*
X53710000Y-31240000I-1370000J0D01*
G01*
X53710000Y-31240000D02*
G75*
G02*
X56450000Y-31240000I1370000J0D01*
G01*
%TO.C,R48*%
X79490000Y-59180000D02*
X82100000Y-59180000D01*
X79490000Y-59180000D02*
G75*
G02*
X76750000Y-59180000I-1370000J0D01*
G01*
X76750000Y-59180000D02*
G75*
G02*
X79490000Y-59180000I1370000J0D01*
G01*
%TO.C,D11*%
X33344000Y-37880000D02*
X33500000Y-37880000D01*
X35660000Y-37880000D02*
X35816000Y-37880000D01*
X33344484Y-37880000D02*
G75*
G02*
X33500000Y-34648563I1235516J1560000D01*
G01*
X33500000Y-37360961D02*
G75*
G02*
X33500000Y-35279039I1080000J1040961D01*
G01*
X35660000Y-34648563D02*
G75*
G02*
X35815516Y-37880000I-1080000J-1671437D01*
G01*
X35660000Y-35279039D02*
G75*
G02*
X35660000Y-37360961I-1080000J-1040961D01*
G01*
%TO.C,R36*%
X71810000Y-49020000D02*
X74420000Y-49020000D01*
X71810000Y-49020000D02*
G75*
G02*
X69070000Y-49020000I-1370000J0D01*
G01*
X69070000Y-49020000D02*
G75*
G02*
X71810000Y-49020000I1370000J0D01*
G01*
%TO.C,D12*%
X33344000Y-53120000D02*
X33500000Y-53120000D01*
X35660000Y-53120000D02*
X35816000Y-53120000D01*
X33344484Y-53120000D02*
G75*
G02*
X33500000Y-49888563I1235516J1560000D01*
G01*
X33500000Y-52600961D02*
G75*
G02*
X33500000Y-50519039I1080000J1040961D01*
G01*
X35660000Y-49888563D02*
G75*
G02*
X35815516Y-53120000I-1080000J-1671437D01*
G01*
X35660000Y-50519039D02*
G75*
G02*
X35660000Y-52600961I-1080000J-1040961D01*
G01*
%TO.C,D18*%
X48704000Y-53120000D02*
X48860000Y-53120000D01*
X51020000Y-53120000D02*
X51176000Y-53120000D01*
X48704484Y-53120000D02*
G75*
G02*
X48860000Y-49888563I1235516J1560000D01*
G01*
X48860000Y-52600961D02*
G75*
G02*
X48860000Y-50519039I1080000J1040961D01*
G01*
X51020000Y-49888563D02*
G75*
G02*
X51175516Y-53120000I-1080000J-1671437D01*
G01*
X51020000Y-50519039D02*
G75*
G02*
X51020000Y-52600961I-1080000J-1040961D01*
G01*
%TO.C,R41*%
X79490000Y-23620000D02*
X82100000Y-23620000D01*
X79490000Y-23620000D02*
G75*
G02*
X76750000Y-23620000I-1370000J0D01*
G01*
X76750000Y-23620000D02*
G75*
G02*
X79490000Y-23620000I1370000J0D01*
G01*
%TO.C,R56*%
X37870000Y-81070000D02*
X37870000Y-83680000D01*
X39240000Y-79700000D02*
G75*
G02*
X36500000Y-79700000I-1370000J0D01*
G01*
X36500000Y-79700000D02*
G75*
G02*
X39240000Y-79700000I1370000J0D01*
G01*
%TO.C,R64*%
X68590000Y-81070000D02*
X68590000Y-83680000D01*
X69960000Y-79700000D02*
G75*
G02*
X67220000Y-79700000I-1370000J0D01*
G01*
X67220000Y-79700000D02*
G75*
G02*
X69960000Y-79700000I1370000J0D01*
G01*
%TO.C,R54*%
X43870000Y-88770000D02*
X43870000Y-91380000D01*
X45240000Y-87400000D02*
G75*
G02*
X42500000Y-87400000I-1370000J0D01*
G01*
X42500000Y-87400000D02*
G75*
G02*
X45240000Y-87400000I1370000J0D01*
G01*
%TO.C,Q4*%
X21020000Y-24945000D02*
X17420000Y-24945000D01*
X16895816Y-25672205D02*
G75*
G02*
X17420000Y-24945000I2324184J-1122795D01*
G01*
X19220000Y-29395000D02*
G75*
G02*
X16863600Y-27893807I0J2600000D01*
G01*
X21020000Y-24945000D02*
G75*
G02*
X21544184Y-25672205I-1800000J-1850000D01*
G01*
X21576400Y-27893807D02*
G75*
G02*
X19220000Y-29395000I-2356400J1098807D01*
G01*
%TO.C,R47*%
X79490000Y-54100000D02*
X82100000Y-54100000D01*
X79490000Y-54100000D02*
G75*
G02*
X76750000Y-54100000I-1370000J0D01*
G01*
X76750000Y-54100000D02*
G75*
G02*
X79490000Y-54100000I1370000J0D01*
G01*
%TO.C,R42*%
X79490000Y-28700000D02*
X82100000Y-28700000D01*
X79490000Y-28700000D02*
G75*
G02*
X76750000Y-28700000I-1370000J0D01*
G01*
X76750000Y-28700000D02*
G75*
G02*
X79490000Y-28700000I1370000J0D01*
G01*
%TD*%
M02*
