M48
; DRILL file KiCad 10.0.5 date 2026-09-11T06:42:10
; FORMAT={-:-/ absolute / metric / decimal}
; #@! TF.CreationDate,2026-09-11T06:42:10-04:00
; #@! TF.GenerationSoftware,Kicad,Pcbnew,10.0.5
; #@! TF.FileFunction,MixedPlating,1,2
FMAT,2
METRIC
; #@! TA.AperFunction,Plated,PTH,ViaDrill
T1C0.300
; #@! TA.AperFunction,Plated,PTH,ViaDrill
T2C0.400
; #@! TA.AperFunction,Plated,PTH,ComponentDrill
T3C0.800
; #@! TA.AperFunction,Plated,PTH,ComponentDrill
T4C0.900
; #@! TA.AperFunction,Plated,PTH,ComponentDrill
T5C1.000
; #@! TA.AperFunction,Plated,PTH,ComponentDrill
T6C3.200
%
G90
G05
T1
X11.645Y-17.45
X28.134Y-40.161
X29.964Y-24.725
X33.295Y-27.393
X35.06Y-14.852
X39.656Y-32.919
X52.681Y-28.54
X59.695Y-40.664
X63.502Y-22.973
X64.593Y-44.085
X65.201Y-23.769
X66.863Y-67.672
X67.073Y-58.865
X67.523Y-69.779
X68.665Y-9.106
X70.358Y-56.446
X71.907Y-36.42
X72.858Y-26.351
X73.247Y-57.765
X73.406Y-38.217
X79.441Y-9.293
X80.329Y-64.751
X81.694Y-44.108
X82.834Y-10.984
X87.348Y-12.651
T2
X7.73Y-12.5
X10.63Y-14.0
X15.41Y-14.0
X18.25Y-2.46
X23.09Y-12.5
X30.77Y-14.0
X38.45Y-12.5
X46.13Y-14.0
X53.81Y-12.5
X61.49Y-14.0
X69.17Y-12.5
X84.53Y-12.5
X89.37Y-2.46
X89.37Y-14.0
X92.21Y-14.0
X95.0Y-21.5
X95.0Y-30.5
T3
X9.0Y-16.0
X9.0Y-26.795
X9.0Y-31.24
X9.0Y-42.035
X9.0Y-46.48
X9.0Y-57.275
X11.54Y-26.795
X11.54Y-42.035
X11.54Y-57.275
X14.08Y-16.0
X14.08Y-26.795
X14.08Y-31.24
X14.08Y-42.035
X14.08Y-46.48
X14.08Y-57.275
X16.68Y-16.0
X16.68Y-26.795
X16.68Y-31.24
X16.68Y-42.035
X16.68Y-46.48
X16.68Y-57.275
X19.22Y-26.795
X19.22Y-42.035
X19.22Y-57.275
X21.76Y-16.0
X21.76Y-26.795
X21.76Y-31.24
X21.76Y-42.035
X21.76Y-46.48
X21.76Y-57.275
X24.36Y-16.0
X24.36Y-26.795
X24.36Y-31.24
X24.36Y-42.035
X24.36Y-46.48
X24.36Y-57.275
X26.9Y-26.795
X26.9Y-42.035
X26.9Y-57.275
X29.44Y-16.0
X29.44Y-26.795
X29.44Y-31.24
X29.44Y-42.035
X29.44Y-46.48
X29.44Y-57.275
X32.04Y-16.0
X32.04Y-26.795
X32.04Y-31.24
X32.04Y-42.035
X32.04Y-46.48
X32.04Y-57.275
X34.58Y-26.795
X34.58Y-42.035
X34.58Y-57.275
X37.12Y-16.0
X37.12Y-26.795
X37.12Y-31.24
X37.12Y-42.035
X37.12Y-46.48
X37.12Y-57.275
X37.87Y-72.0
X37.87Y-77.08
X37.87Y-79.7
X37.87Y-84.78
X39.72Y-16.0
X39.72Y-26.795
X39.72Y-31.24
X39.72Y-42.035
X39.72Y-46.48
X39.72Y-57.275
X42.26Y-26.795
X42.26Y-42.035
X42.26Y-57.275
X43.87Y-72.0
X43.87Y-77.08
X43.87Y-79.7
X43.87Y-84.78
X43.87Y-87.4
X43.87Y-92.48
X44.8Y-16.0
X44.8Y-26.795
X44.8Y-31.24
X44.8Y-42.035
X44.8Y-46.48
X44.8Y-57.275
X47.4Y-16.0
X47.4Y-26.795
X47.4Y-31.24
X47.4Y-42.035
X47.4Y-46.48
X47.4Y-57.275
X49.87Y-72.0
X49.87Y-77.08
X49.87Y-79.7
X49.87Y-84.78
X49.87Y-87.4
X49.87Y-92.48
X49.94Y-26.795
X49.94Y-42.035
X49.94Y-57.275
X52.48Y-16.0
X52.48Y-26.795
X52.48Y-31.24
X52.48Y-42.035
X52.48Y-46.48
X52.48Y-57.275
X53.87Y-72.0
X53.87Y-74.54
X53.87Y-77.08
X53.87Y-79.62
X53.87Y-82.16
X53.87Y-84.7
X53.87Y-87.24
X53.87Y-89.78
X55.08Y-16.0
X55.08Y-26.795
X55.08Y-31.24
X55.08Y-42.035
X55.08Y-46.48
X55.08Y-57.275
X57.62Y-26.795
X57.62Y-42.035
X57.62Y-57.275
X60.16Y-16.0
X60.16Y-26.795
X60.16Y-31.24
X60.16Y-42.035
X60.16Y-46.48
X60.16Y-57.275
X61.49Y-72.0
X61.49Y-74.54
X61.49Y-77.08
X61.49Y-79.62
X61.49Y-82.16
X61.49Y-84.7
X61.49Y-87.24
X61.49Y-89.78
X62.76Y-16.0
X62.76Y-26.795
X62.76Y-31.24
X62.76Y-42.035
X62.76Y-46.48
X62.76Y-57.275
X62.76Y-64.26
X65.3Y-26.795
X65.3Y-42.035
X65.3Y-57.275
X67.84Y-16.0
X67.84Y-26.795
X67.84Y-31.24
X67.84Y-42.035
X67.84Y-46.48
X67.84Y-57.275
X67.84Y-64.26
X68.59Y-72.0
X68.59Y-77.08
X68.59Y-79.7
X68.59Y-84.78
X70.44Y-18.54
X70.44Y-23.62
X70.44Y-28.7
X70.44Y-33.78
X70.44Y-38.86
X70.44Y-43.94
X70.44Y-49.02
X70.44Y-54.1
X70.44Y-59.18
X70.44Y-64.26
X74.59Y-72.0
X74.59Y-77.08
X74.59Y-79.7
X74.59Y-84.78
X74.59Y-87.4
X74.59Y-92.48
X75.52Y-18.54
X75.52Y-23.62
X75.52Y-28.7
X75.52Y-33.78
X75.52Y-38.86
X75.52Y-43.94
X75.52Y-49.02
X75.52Y-54.1
X75.52Y-59.18
X75.52Y-64.26
X78.12Y-18.54
X78.12Y-23.62
X78.12Y-28.7
X78.12Y-33.78
X78.12Y-38.86
X78.12Y-43.94
X78.12Y-49.02
X78.12Y-54.1
X78.12Y-59.18
X80.59Y-72.0
X80.59Y-77.08
X80.59Y-79.7
X80.59Y-84.78
X80.59Y-87.4
X80.59Y-92.48
X83.2Y-18.54
X83.2Y-23.62
X83.2Y-28.7
X83.2Y-33.78
X83.2Y-38.86
X83.2Y-43.94
X83.2Y-49.02
X83.2Y-54.1
X83.2Y-59.18
X84.59Y-72.0
X84.59Y-74.54
X84.59Y-77.08
X84.59Y-79.62
X84.59Y-82.16
X84.59Y-84.7
X84.59Y-87.24
X84.59Y-89.78
X85.8Y-16.0
X85.8Y-20.445
X85.8Y-24.255
X85.8Y-28.7
X85.8Y-32.51
X85.8Y-36.955
X85.8Y-40.765
X85.8Y-45.21
X88.34Y-20.445
X88.34Y-28.7
X88.34Y-36.955
X88.34Y-45.21
X90.88Y-16.0
X90.88Y-20.445
X90.88Y-24.255
X90.88Y-28.7
X90.88Y-32.51
X90.88Y-36.955
X90.88Y-40.765
X90.88Y-45.21
X92.21Y-72.0
X92.21Y-74.54
X92.21Y-77.08
X92.21Y-79.62
X92.21Y-82.16
X92.21Y-84.7
X92.21Y-87.24
X92.21Y-89.78
X95.0Y-16.5
X95.0Y-19.0
X95.0Y-26.0
X95.0Y-28.0
T4
X11.54Y-19.81
X11.54Y-22.35
X11.54Y-35.05
X11.54Y-37.59
X11.54Y-50.29
X11.54Y-52.83
X19.22Y-19.81
X19.22Y-22.35
X19.22Y-35.05
X19.22Y-37.59
X19.22Y-50.29
X19.22Y-52.83
X26.9Y-19.81
X26.9Y-22.35
X26.9Y-35.05
X26.9Y-37.59
X26.9Y-50.29
X26.9Y-52.83
X34.58Y-19.81
X34.58Y-22.35
X34.58Y-35.05
X34.58Y-37.59
X34.58Y-50.29
X34.58Y-52.83
X42.26Y-19.81
X42.26Y-22.35
X42.26Y-35.05
X42.26Y-37.59
X42.26Y-50.29
X42.26Y-52.83
X49.94Y-19.81
X49.94Y-22.35
X49.94Y-35.05
X49.94Y-37.59
X49.94Y-50.29
X49.94Y-52.83
X57.62Y-19.81
X57.62Y-22.35
X57.62Y-35.05
X57.62Y-37.59
X57.62Y-50.29
X57.62Y-52.83
X65.3Y-19.81
X65.3Y-22.35
X65.3Y-35.05
X65.3Y-37.59
X65.3Y-50.29
X65.3Y-52.83
T5
X10.63Y-4.96
X10.63Y-7.5
X13.17Y-4.96
X13.17Y-7.5
X15.71Y-4.96
X15.71Y-7.5
X18.25Y-4.96
X18.25Y-7.5
X20.79Y-4.96
X20.79Y-7.5
X23.33Y-4.96
X23.33Y-7.5
X25.87Y-4.96
X25.87Y-7.5
X28.41Y-4.96
X28.41Y-7.5
X30.95Y-4.96
X30.95Y-7.5
X33.49Y-4.96
X33.49Y-7.5
X36.03Y-4.96
X36.03Y-7.5
X38.57Y-4.96
X38.57Y-7.5
X41.11Y-4.96
X41.11Y-7.5
X43.65Y-4.96
X43.65Y-7.5
X46.19Y-4.96
X46.19Y-7.5
X48.73Y-4.96
X48.73Y-7.5
X51.27Y-4.96
X51.27Y-7.5
X53.81Y-4.96
X53.81Y-7.5
X56.35Y-4.96
X56.35Y-7.5
X58.89Y-4.96
X58.89Y-7.5
X61.43Y-4.96
X61.43Y-7.5
X63.97Y-4.96
X63.97Y-7.5
X66.51Y-4.96
X66.51Y-7.5
X69.05Y-4.96
X69.05Y-7.5
X71.59Y-4.96
X71.59Y-7.5
X74.13Y-4.96
X74.13Y-7.5
X76.67Y-4.96
X76.67Y-7.5
X79.21Y-4.96
X79.21Y-7.5
X81.75Y-4.96
X81.75Y-7.5
X84.29Y-4.96
X84.29Y-7.5
X86.83Y-4.96
X86.83Y-7.5
X89.37Y-4.96
X89.37Y-7.5
T6
X4.0Y-50.0
X96.0Y-50.0
M30
