%TF.GenerationSoftware,KiCad,Pcbnew,10.0.5*%
%TF.CreationDate,2026-10-01T13:32:53-04:00*%
%TF.ProjectId,panela,70616e65-6c61-42e6-9b69-6361645f7063,rev?*%
%TF.SameCoordinates,Original*%
%TF.FileFunction,Legend,Top*%
%TF.FilePolarity,Positive*%
%FSLAX46Y46*%
G04 Gerber Fmt 4.6, Leading zero omitted, Abs format (unit mm)*
G04 Created by KiCad (PCBNEW 10.0.5) date 2026-10-01 13:32:53*
%MOMM*%
%LPD*%
G01*
G04 APERTURE LIST*
%ADD10C,0.150000*%
%ADD11C,0.250000*%
%ADD12C,0.120000*%
G04 APERTURE END LIST*
D10*
X8590588Y-5414819D02*
X8019160Y-5414819D01*
X8304874Y-5414819D02*
X8304874Y-4414819D01*
X8304874Y-4414819D02*
X8209636Y-4557676D01*
X8209636Y-4557676D02*
X8114398Y-4652914D01*
X8114398Y-4652914D02*
X8019160Y-4700533D01*
X8019160Y-7050057D02*
X8066779Y-7002438D01*
X8066779Y-7002438D02*
X8162017Y-6954819D01*
X8162017Y-6954819D02*
X8400112Y-6954819D01*
X8400112Y-6954819D02*
X8495350Y-7002438D01*
X8495350Y-7002438D02*
X8542969Y-7050057D01*
X8542969Y-7050057D02*
X8590588Y-7145295D01*
X8590588Y-7145295D02*
X8590588Y-7240533D01*
X8590588Y-7240533D02*
X8542969Y-7383390D01*
X8542969Y-7383390D02*
X7971541Y-7954819D01*
X7971541Y-7954819D02*
X8590588Y-7954819D01*
X14029160Y-52587200D02*
X14172017Y-52634819D01*
X14172017Y-52634819D02*
X14410112Y-52634819D01*
X14410112Y-52634819D02*
X14505350Y-52587200D01*
X14505350Y-52587200D02*
X14552969Y-52539580D01*
X14552969Y-52539580D02*
X14600588Y-52444342D01*
X14600588Y-52444342D02*
X14600588Y-52349104D01*
X14600588Y-52349104D02*
X14552969Y-52253866D01*
X14552969Y-52253866D02*
X14505350Y-52206247D01*
X14505350Y-52206247D02*
X14410112Y-52158628D01*
X14410112Y-52158628D02*
X14219636Y-52111009D01*
X14219636Y-52111009D02*
X14124398Y-52063390D01*
X14124398Y-52063390D02*
X14076779Y-52015771D01*
X14076779Y-52015771D02*
X14029160Y-51920533D01*
X14029160Y-51920533D02*
X14029160Y-51825295D01*
X14029160Y-51825295D02*
X14076779Y-51730057D01*
X14076779Y-51730057D02*
X14124398Y-51682438D01*
X14124398Y-51682438D02*
X14219636Y-51634819D01*
X14219636Y-51634819D02*
X14457731Y-51634819D01*
X14457731Y-51634819D02*
X14600588Y-51682438D01*
X15029160Y-51634819D02*
X15029160Y-52444342D01*
X15029160Y-52444342D02*
X15076779Y-52539580D01*
X15076779Y-52539580D02*
X15124398Y-52587200D01*
X15124398Y-52587200D02*
X15219636Y-52634819D01*
X15219636Y-52634819D02*
X15410112Y-52634819D01*
X15410112Y-52634819D02*
X15505350Y-52587200D01*
X15505350Y-52587200D02*
X15552969Y-52539580D01*
X15552969Y-52539580D02*
X15600588Y-52444342D01*
X15600588Y-52444342D02*
X15600588Y-51634819D01*
X16410112Y-52111009D02*
X16552969Y-52158628D01*
X16552969Y-52158628D02*
X16600588Y-52206247D01*
X16600588Y-52206247D02*
X16648207Y-52301485D01*
X16648207Y-52301485D02*
X16648207Y-52444342D01*
X16648207Y-52444342D02*
X16600588Y-52539580D01*
X16600588Y-52539580D02*
X16552969Y-52587200D01*
X16552969Y-52587200D02*
X16457731Y-52634819D01*
X16457731Y-52634819D02*
X16076779Y-52634819D01*
X16076779Y-52634819D02*
X16076779Y-51634819D01*
X16076779Y-51634819D02*
X16410112Y-51634819D01*
X16410112Y-51634819D02*
X16505350Y-51682438D01*
X16505350Y-51682438D02*
X16552969Y-51730057D01*
X16552969Y-51730057D02*
X16600588Y-51825295D01*
X16600588Y-51825295D02*
X16600588Y-51920533D01*
X16600588Y-51920533D02*
X16552969Y-52015771D01*
X16552969Y-52015771D02*
X16505350Y-52063390D01*
X16505350Y-52063390D02*
X16410112Y-52111009D01*
X16410112Y-52111009D02*
X16076779Y-52111009D01*
X14229160Y-21869104D02*
X14705350Y-21869104D01*
X14133922Y-22154819D02*
X14467255Y-21154819D01*
X14467255Y-21154819D02*
X14800588Y-22154819D01*
X15038684Y-21154819D02*
X15657731Y-21154819D01*
X15657731Y-21154819D02*
X15324398Y-21535771D01*
X15324398Y-21535771D02*
X15467255Y-21535771D01*
X15467255Y-21535771D02*
X15562493Y-21583390D01*
X15562493Y-21583390D02*
X15610112Y-21631009D01*
X15610112Y-21631009D02*
X15657731Y-21726247D01*
X15657731Y-21726247D02*
X15657731Y-21964342D01*
X15657731Y-21964342D02*
X15610112Y-22059580D01*
X15610112Y-22059580D02*
X15562493Y-22107200D01*
X15562493Y-22107200D02*
X15467255Y-22154819D01*
X15467255Y-22154819D02*
X15181541Y-22154819D01*
X15181541Y-22154819D02*
X15086303Y-22107200D01*
X15086303Y-22107200D02*
X15038684Y-22059580D01*
X14276779Y-37394819D02*
X14276779Y-36394819D01*
X14276779Y-36394819D02*
X14514874Y-36394819D01*
X14514874Y-36394819D02*
X14657731Y-36442438D01*
X14657731Y-36442438D02*
X14752969Y-36537676D01*
X14752969Y-36537676D02*
X14800588Y-36632914D01*
X14800588Y-36632914D02*
X14848207Y-36823390D01*
X14848207Y-36823390D02*
X14848207Y-36966247D01*
X14848207Y-36966247D02*
X14800588Y-37156723D01*
X14800588Y-37156723D02*
X14752969Y-37251961D01*
X14752969Y-37251961D02*
X14657731Y-37347200D01*
X14657731Y-37347200D02*
X14514874Y-37394819D01*
X14514874Y-37394819D02*
X14276779Y-37394819D01*
X15181541Y-36394819D02*
X15800588Y-36394819D01*
X15800588Y-36394819D02*
X15467255Y-36775771D01*
X15467255Y-36775771D02*
X15610112Y-36775771D01*
X15610112Y-36775771D02*
X15705350Y-36823390D01*
X15705350Y-36823390D02*
X15752969Y-36871009D01*
X15752969Y-36871009D02*
X15800588Y-36966247D01*
X15800588Y-36966247D02*
X15800588Y-37204342D01*
X15800588Y-37204342D02*
X15752969Y-37299580D01*
X15752969Y-37299580D02*
X15705350Y-37347200D01*
X15705350Y-37347200D02*
X15610112Y-37394819D01*
X15610112Y-37394819D02*
X15324398Y-37394819D01*
X15324398Y-37394819D02*
X15229160Y-37347200D01*
X15229160Y-37347200D02*
X15181541Y-37299580D01*
X21909160Y-21869104D02*
X22385350Y-21869104D01*
X21813922Y-22154819D02*
X22147255Y-21154819D01*
X22147255Y-21154819D02*
X22480588Y-22154819D01*
X22766303Y-21250057D02*
X22813922Y-21202438D01*
X22813922Y-21202438D02*
X22909160Y-21154819D01*
X22909160Y-21154819D02*
X23147255Y-21154819D01*
X23147255Y-21154819D02*
X23242493Y-21202438D01*
X23242493Y-21202438D02*
X23290112Y-21250057D01*
X23290112Y-21250057D02*
X23337731Y-21345295D01*
X23337731Y-21345295D02*
X23337731Y-21440533D01*
X23337731Y-21440533D02*
X23290112Y-21583390D01*
X23290112Y-21583390D02*
X22718684Y-22154819D01*
X22718684Y-22154819D02*
X23337731Y-22154819D01*
X21956779Y-37394819D02*
X21956779Y-36394819D01*
X21956779Y-36394819D02*
X22194874Y-36394819D01*
X22194874Y-36394819D02*
X22337731Y-36442438D01*
X22337731Y-36442438D02*
X22432969Y-36537676D01*
X22432969Y-36537676D02*
X22480588Y-36632914D01*
X22480588Y-36632914D02*
X22528207Y-36823390D01*
X22528207Y-36823390D02*
X22528207Y-36966247D01*
X22528207Y-36966247D02*
X22480588Y-37156723D01*
X22480588Y-37156723D02*
X22432969Y-37251961D01*
X22432969Y-37251961D02*
X22337731Y-37347200D01*
X22337731Y-37347200D02*
X22194874Y-37394819D01*
X22194874Y-37394819D02*
X21956779Y-37394819D01*
X22909160Y-36490057D02*
X22956779Y-36442438D01*
X22956779Y-36442438D02*
X23052017Y-36394819D01*
X23052017Y-36394819D02*
X23290112Y-36394819D01*
X23290112Y-36394819D02*
X23385350Y-36442438D01*
X23385350Y-36442438D02*
X23432969Y-36490057D01*
X23432969Y-36490057D02*
X23480588Y-36585295D01*
X23480588Y-36585295D02*
X23480588Y-36680533D01*
X23480588Y-36680533D02*
X23432969Y-36823390D01*
X23432969Y-36823390D02*
X22861541Y-37394819D01*
X22861541Y-37394819D02*
X23480588Y-37394819D01*
X21956779Y-52111009D02*
X22290112Y-52111009D01*
X22432969Y-52634819D02*
X21956779Y-52634819D01*
X21956779Y-52634819D02*
X21956779Y-51634819D01*
X21956779Y-51634819D02*
X22432969Y-51634819D01*
X23052017Y-51634819D02*
X23242493Y-51634819D01*
X23242493Y-51634819D02*
X23337731Y-51682438D01*
X23337731Y-51682438D02*
X23432969Y-51777676D01*
X23432969Y-51777676D02*
X23480588Y-51968152D01*
X23480588Y-51968152D02*
X23480588Y-52301485D01*
X23480588Y-52301485D02*
X23432969Y-52491961D01*
X23432969Y-52491961D02*
X23337731Y-52587200D01*
X23337731Y-52587200D02*
X23242493Y-52634819D01*
X23242493Y-52634819D02*
X23052017Y-52634819D01*
X23052017Y-52634819D02*
X22956779Y-52587200D01*
X22956779Y-52587200D02*
X22861541Y-52491961D01*
X22861541Y-52491961D02*
X22813922Y-52301485D01*
X22813922Y-52301485D02*
X22813922Y-51968152D01*
X22813922Y-51968152D02*
X22861541Y-51777676D01*
X22861541Y-51777676D02*
X22956779Y-51682438D01*
X22956779Y-51682438D02*
X23052017Y-51634819D01*
X29589160Y-21869104D02*
X30065350Y-21869104D01*
X29493922Y-22154819D02*
X29827255Y-21154819D01*
X29827255Y-21154819D02*
X30160588Y-22154819D01*
X31017731Y-22154819D02*
X30446303Y-22154819D01*
X30732017Y-22154819D02*
X30732017Y-21154819D01*
X30732017Y-21154819D02*
X30636779Y-21297676D01*
X30636779Y-21297676D02*
X30541541Y-21392914D01*
X30541541Y-21392914D02*
X30446303Y-21440533D01*
X29636779Y-37394819D02*
X29636779Y-36394819D01*
X29636779Y-36394819D02*
X29874874Y-36394819D01*
X29874874Y-36394819D02*
X30017731Y-36442438D01*
X30017731Y-36442438D02*
X30112969Y-36537676D01*
X30112969Y-36537676D02*
X30160588Y-36632914D01*
X30160588Y-36632914D02*
X30208207Y-36823390D01*
X30208207Y-36823390D02*
X30208207Y-36966247D01*
X30208207Y-36966247D02*
X30160588Y-37156723D01*
X30160588Y-37156723D02*
X30112969Y-37251961D01*
X30112969Y-37251961D02*
X30017731Y-37347200D01*
X30017731Y-37347200D02*
X29874874Y-37394819D01*
X29874874Y-37394819D02*
X29636779Y-37394819D01*
X31160588Y-37394819D02*
X30589160Y-37394819D01*
X30874874Y-37394819D02*
X30874874Y-36394819D01*
X30874874Y-36394819D02*
X30779636Y-36537676D01*
X30779636Y-36537676D02*
X30684398Y-36632914D01*
X30684398Y-36632914D02*
X30589160Y-36680533D01*
X29589160Y-52349104D02*
X30065350Y-52349104D01*
X29493922Y-52634819D02*
X29827255Y-51634819D01*
X29827255Y-51634819D02*
X30160588Y-52634819D01*
X30493922Y-52634819D02*
X30493922Y-51634819D01*
X37269160Y-21869104D02*
X37745350Y-21869104D01*
X37173922Y-22154819D02*
X37507255Y-21154819D01*
X37507255Y-21154819D02*
X37840588Y-22154819D01*
X38364398Y-21154819D02*
X38459636Y-21154819D01*
X38459636Y-21154819D02*
X38554874Y-21202438D01*
X38554874Y-21202438D02*
X38602493Y-21250057D01*
X38602493Y-21250057D02*
X38650112Y-21345295D01*
X38650112Y-21345295D02*
X38697731Y-21535771D01*
X38697731Y-21535771D02*
X38697731Y-21773866D01*
X38697731Y-21773866D02*
X38650112Y-21964342D01*
X38650112Y-21964342D02*
X38602493Y-22059580D01*
X38602493Y-22059580D02*
X38554874Y-22107200D01*
X38554874Y-22107200D02*
X38459636Y-22154819D01*
X38459636Y-22154819D02*
X38364398Y-22154819D01*
X38364398Y-22154819D02*
X38269160Y-22107200D01*
X38269160Y-22107200D02*
X38221541Y-22059580D01*
X38221541Y-22059580D02*
X38173922Y-21964342D01*
X38173922Y-21964342D02*
X38126303Y-21773866D01*
X38126303Y-21773866D02*
X38126303Y-21535771D01*
X38126303Y-21535771D02*
X38173922Y-21345295D01*
X38173922Y-21345295D02*
X38221541Y-21250057D01*
X38221541Y-21250057D02*
X38269160Y-21202438D01*
X38269160Y-21202438D02*
X38364398Y-21154819D01*
X37316779Y-37394819D02*
X37316779Y-36394819D01*
X37316779Y-36394819D02*
X37554874Y-36394819D01*
X37554874Y-36394819D02*
X37697731Y-36442438D01*
X37697731Y-36442438D02*
X37792969Y-36537676D01*
X37792969Y-36537676D02*
X37840588Y-36632914D01*
X37840588Y-36632914D02*
X37888207Y-36823390D01*
X37888207Y-36823390D02*
X37888207Y-36966247D01*
X37888207Y-36966247D02*
X37840588Y-37156723D01*
X37840588Y-37156723D02*
X37792969Y-37251961D01*
X37792969Y-37251961D02*
X37697731Y-37347200D01*
X37697731Y-37347200D02*
X37554874Y-37394819D01*
X37554874Y-37394819D02*
X37316779Y-37394819D01*
X38507255Y-36394819D02*
X38602493Y-36394819D01*
X38602493Y-36394819D02*
X38697731Y-36442438D01*
X38697731Y-36442438D02*
X38745350Y-36490057D01*
X38745350Y-36490057D02*
X38792969Y-36585295D01*
X38792969Y-36585295D02*
X38840588Y-36775771D01*
X38840588Y-36775771D02*
X38840588Y-37013866D01*
X38840588Y-37013866D02*
X38792969Y-37204342D01*
X38792969Y-37204342D02*
X38745350Y-37299580D01*
X38745350Y-37299580D02*
X38697731Y-37347200D01*
X38697731Y-37347200D02*
X38602493Y-37394819D01*
X38602493Y-37394819D02*
X38507255Y-37394819D01*
X38507255Y-37394819D02*
X38412017Y-37347200D01*
X38412017Y-37347200D02*
X38364398Y-37299580D01*
X38364398Y-37299580D02*
X38316779Y-37204342D01*
X38316779Y-37204342D02*
X38269160Y-37013866D01*
X38269160Y-37013866D02*
X38269160Y-36775771D01*
X38269160Y-36775771D02*
X38316779Y-36585295D01*
X38316779Y-36585295D02*
X38364398Y-36490057D01*
X38364398Y-36490057D02*
X38412017Y-36442438D01*
X38412017Y-36442438D02*
X38507255Y-36394819D01*
X37269160Y-52349104D02*
X37745350Y-52349104D01*
X37173922Y-52634819D02*
X37507255Y-51634819D01*
X37507255Y-51634819D02*
X37840588Y-52634819D01*
X38364398Y-51634819D02*
X38554874Y-51634819D01*
X38554874Y-51634819D02*
X38650112Y-51682438D01*
X38650112Y-51682438D02*
X38745350Y-51777676D01*
X38745350Y-51777676D02*
X38792969Y-51968152D01*
X38792969Y-51968152D02*
X38792969Y-52301485D01*
X38792969Y-52301485D02*
X38745350Y-52491961D01*
X38745350Y-52491961D02*
X38650112Y-52587200D01*
X38650112Y-52587200D02*
X38554874Y-52634819D01*
X38554874Y-52634819D02*
X38364398Y-52634819D01*
X38364398Y-52634819D02*
X38269160Y-52587200D01*
X38269160Y-52587200D02*
X38173922Y-52491961D01*
X38173922Y-52491961D02*
X38126303Y-52301485D01*
X38126303Y-52301485D02*
X38126303Y-51968152D01*
X38126303Y-51968152D02*
X38173922Y-51777676D01*
X38173922Y-51777676D02*
X38269160Y-51682438D01*
X38269160Y-51682438D02*
X38364398Y-51634819D01*
X38159160Y-68569104D02*
X38635350Y-68569104D01*
X38063922Y-68854819D02*
X38397255Y-67854819D01*
X38397255Y-67854819D02*
X38730588Y-68854819D01*
X39254398Y-67854819D02*
X39349636Y-67854819D01*
X39349636Y-67854819D02*
X39444874Y-67902438D01*
X39444874Y-67902438D02*
X39492493Y-67950057D01*
X39492493Y-67950057D02*
X39540112Y-68045295D01*
X39540112Y-68045295D02*
X39587731Y-68235771D01*
X39587731Y-68235771D02*
X39587731Y-68473866D01*
X39587731Y-68473866D02*
X39540112Y-68664342D01*
X39540112Y-68664342D02*
X39492493Y-68759580D01*
X39492493Y-68759580D02*
X39444874Y-68807200D01*
X39444874Y-68807200D02*
X39349636Y-68854819D01*
X39349636Y-68854819D02*
X39254398Y-68854819D01*
X39254398Y-68854819D02*
X39159160Y-68807200D01*
X39159160Y-68807200D02*
X39111541Y-68759580D01*
X39111541Y-68759580D02*
X39063922Y-68664342D01*
X39063922Y-68664342D02*
X39016303Y-68473866D01*
X39016303Y-68473866D02*
X39016303Y-68235771D01*
X39016303Y-68235771D02*
X39063922Y-68045295D01*
X39063922Y-68045295D02*
X39111541Y-67950057D01*
X39111541Y-67950057D02*
X39159160Y-67902438D01*
X39159160Y-67902438D02*
X39254398Y-67854819D01*
X40730589Y-68569104D02*
X41206779Y-68569104D01*
X40635351Y-68854819D02*
X40968684Y-67854819D01*
X40968684Y-67854819D02*
X41302017Y-68854819D01*
X42159160Y-68854819D02*
X41587732Y-68854819D01*
X41873446Y-68854819D02*
X41873446Y-67854819D01*
X41873446Y-67854819D02*
X41778208Y-67997676D01*
X41778208Y-67997676D02*
X41682970Y-68092914D01*
X41682970Y-68092914D02*
X41587732Y-68140533D01*
X43302018Y-68569104D02*
X43778208Y-68569104D01*
X43206780Y-68854819D02*
X43540113Y-67854819D01*
X43540113Y-67854819D02*
X43873446Y-68854819D01*
X44159161Y-67950057D02*
X44206780Y-67902438D01*
X44206780Y-67902438D02*
X44302018Y-67854819D01*
X44302018Y-67854819D02*
X44540113Y-67854819D01*
X44540113Y-67854819D02*
X44635351Y-67902438D01*
X44635351Y-67902438D02*
X44682970Y-67950057D01*
X44682970Y-67950057D02*
X44730589Y-68045295D01*
X44730589Y-68045295D02*
X44730589Y-68140533D01*
X44730589Y-68140533D02*
X44682970Y-68283390D01*
X44682970Y-68283390D02*
X44111542Y-68854819D01*
X44111542Y-68854819D02*
X44730589Y-68854819D01*
X45873447Y-68569104D02*
X46349637Y-68569104D01*
X45778209Y-68854819D02*
X46111542Y-67854819D01*
X46111542Y-67854819D02*
X46444875Y-68854819D01*
X46682971Y-67854819D02*
X47302018Y-67854819D01*
X47302018Y-67854819D02*
X46968685Y-68235771D01*
X46968685Y-68235771D02*
X47111542Y-68235771D01*
X47111542Y-68235771D02*
X47206780Y-68283390D01*
X47206780Y-68283390D02*
X47254399Y-68331009D01*
X47254399Y-68331009D02*
X47302018Y-68426247D01*
X47302018Y-68426247D02*
X47302018Y-68664342D01*
X47302018Y-68664342D02*
X47254399Y-68759580D01*
X47254399Y-68759580D02*
X47206780Y-68807200D01*
X47206780Y-68807200D02*
X47111542Y-68854819D01*
X47111542Y-68854819D02*
X46825828Y-68854819D01*
X46825828Y-68854819D02*
X46730590Y-68807200D01*
X46730590Y-68807200D02*
X46682971Y-68759580D01*
X48825828Y-68331009D02*
X48968685Y-68378628D01*
X48968685Y-68378628D02*
X49016304Y-68426247D01*
X49016304Y-68426247D02*
X49063923Y-68521485D01*
X49063923Y-68521485D02*
X49063923Y-68664342D01*
X49063923Y-68664342D02*
X49016304Y-68759580D01*
X49016304Y-68759580D02*
X48968685Y-68807200D01*
X48968685Y-68807200D02*
X48873447Y-68854819D01*
X48873447Y-68854819D02*
X48492495Y-68854819D01*
X48492495Y-68854819D02*
X48492495Y-67854819D01*
X48492495Y-67854819D02*
X48825828Y-67854819D01*
X48825828Y-67854819D02*
X48921066Y-67902438D01*
X48921066Y-67902438D02*
X48968685Y-67950057D01*
X48968685Y-67950057D02*
X49016304Y-68045295D01*
X49016304Y-68045295D02*
X49016304Y-68140533D01*
X49016304Y-68140533D02*
X48968685Y-68235771D01*
X48968685Y-68235771D02*
X48921066Y-68283390D01*
X48921066Y-68283390D02*
X48825828Y-68331009D01*
X48825828Y-68331009D02*
X48492495Y-68331009D01*
X49682971Y-67854819D02*
X49778209Y-67854819D01*
X49778209Y-67854819D02*
X49873447Y-67902438D01*
X49873447Y-67902438D02*
X49921066Y-67950057D01*
X49921066Y-67950057D02*
X49968685Y-68045295D01*
X49968685Y-68045295D02*
X50016304Y-68235771D01*
X50016304Y-68235771D02*
X50016304Y-68473866D01*
X50016304Y-68473866D02*
X49968685Y-68664342D01*
X49968685Y-68664342D02*
X49921066Y-68759580D01*
X49921066Y-68759580D02*
X49873447Y-68807200D01*
X49873447Y-68807200D02*
X49778209Y-68854819D01*
X49778209Y-68854819D02*
X49682971Y-68854819D01*
X49682971Y-68854819D02*
X49587733Y-68807200D01*
X49587733Y-68807200D02*
X49540114Y-68759580D01*
X49540114Y-68759580D02*
X49492495Y-68664342D01*
X49492495Y-68664342D02*
X49444876Y-68473866D01*
X49444876Y-68473866D02*
X49444876Y-68235771D01*
X49444876Y-68235771D02*
X49492495Y-68045295D01*
X49492495Y-68045295D02*
X49540114Y-67950057D01*
X49540114Y-67950057D02*
X49587733Y-67902438D01*
X49587733Y-67902438D02*
X49682971Y-67854819D01*
X51540114Y-68331009D02*
X51682971Y-68378628D01*
X51682971Y-68378628D02*
X51730590Y-68426247D01*
X51730590Y-68426247D02*
X51778209Y-68521485D01*
X51778209Y-68521485D02*
X51778209Y-68664342D01*
X51778209Y-68664342D02*
X51730590Y-68759580D01*
X51730590Y-68759580D02*
X51682971Y-68807200D01*
X51682971Y-68807200D02*
X51587733Y-68854819D01*
X51587733Y-68854819D02*
X51206781Y-68854819D01*
X51206781Y-68854819D02*
X51206781Y-67854819D01*
X51206781Y-67854819D02*
X51540114Y-67854819D01*
X51540114Y-67854819D02*
X51635352Y-67902438D01*
X51635352Y-67902438D02*
X51682971Y-67950057D01*
X51682971Y-67950057D02*
X51730590Y-68045295D01*
X51730590Y-68045295D02*
X51730590Y-68140533D01*
X51730590Y-68140533D02*
X51682971Y-68235771D01*
X51682971Y-68235771D02*
X51635352Y-68283390D01*
X51635352Y-68283390D02*
X51540114Y-68331009D01*
X51540114Y-68331009D02*
X51206781Y-68331009D01*
X52730590Y-68854819D02*
X52159162Y-68854819D01*
X52444876Y-68854819D02*
X52444876Y-67854819D01*
X52444876Y-67854819D02*
X52349638Y-67997676D01*
X52349638Y-67997676D02*
X52254400Y-68092914D01*
X52254400Y-68092914D02*
X52159162Y-68140533D01*
X54254400Y-68331009D02*
X54397257Y-68378628D01*
X54397257Y-68378628D02*
X54444876Y-68426247D01*
X54444876Y-68426247D02*
X54492495Y-68521485D01*
X54492495Y-68521485D02*
X54492495Y-68664342D01*
X54492495Y-68664342D02*
X54444876Y-68759580D01*
X54444876Y-68759580D02*
X54397257Y-68807200D01*
X54397257Y-68807200D02*
X54302019Y-68854819D01*
X54302019Y-68854819D02*
X53921067Y-68854819D01*
X53921067Y-68854819D02*
X53921067Y-67854819D01*
X53921067Y-67854819D02*
X54254400Y-67854819D01*
X54254400Y-67854819D02*
X54349638Y-67902438D01*
X54349638Y-67902438D02*
X54397257Y-67950057D01*
X54397257Y-67950057D02*
X54444876Y-68045295D01*
X54444876Y-68045295D02*
X54444876Y-68140533D01*
X54444876Y-68140533D02*
X54397257Y-68235771D01*
X54397257Y-68235771D02*
X54349638Y-68283390D01*
X54349638Y-68283390D02*
X54254400Y-68331009D01*
X54254400Y-68331009D02*
X53921067Y-68331009D01*
X54873448Y-67950057D02*
X54921067Y-67902438D01*
X54921067Y-67902438D02*
X55016305Y-67854819D01*
X55016305Y-67854819D02*
X55254400Y-67854819D01*
X55254400Y-67854819D02*
X55349638Y-67902438D01*
X55349638Y-67902438D02*
X55397257Y-67950057D01*
X55397257Y-67950057D02*
X55444876Y-68045295D01*
X55444876Y-68045295D02*
X55444876Y-68140533D01*
X55444876Y-68140533D02*
X55397257Y-68283390D01*
X55397257Y-68283390D02*
X54825829Y-68854819D01*
X54825829Y-68854819D02*
X55444876Y-68854819D01*
X56968686Y-68331009D02*
X57111543Y-68378628D01*
X57111543Y-68378628D02*
X57159162Y-68426247D01*
X57159162Y-68426247D02*
X57206781Y-68521485D01*
X57206781Y-68521485D02*
X57206781Y-68664342D01*
X57206781Y-68664342D02*
X57159162Y-68759580D01*
X57159162Y-68759580D02*
X57111543Y-68807200D01*
X57111543Y-68807200D02*
X57016305Y-68854819D01*
X57016305Y-68854819D02*
X56635353Y-68854819D01*
X56635353Y-68854819D02*
X56635353Y-67854819D01*
X56635353Y-67854819D02*
X56968686Y-67854819D01*
X56968686Y-67854819D02*
X57063924Y-67902438D01*
X57063924Y-67902438D02*
X57111543Y-67950057D01*
X57111543Y-67950057D02*
X57159162Y-68045295D01*
X57159162Y-68045295D02*
X57159162Y-68140533D01*
X57159162Y-68140533D02*
X57111543Y-68235771D01*
X57111543Y-68235771D02*
X57063924Y-68283390D01*
X57063924Y-68283390D02*
X56968686Y-68331009D01*
X56968686Y-68331009D02*
X56635353Y-68331009D01*
X57540115Y-67854819D02*
X58159162Y-67854819D01*
X58159162Y-67854819D02*
X57825829Y-68235771D01*
X57825829Y-68235771D02*
X57968686Y-68235771D01*
X57968686Y-68235771D02*
X58063924Y-68283390D01*
X58063924Y-68283390D02*
X58111543Y-68331009D01*
X58111543Y-68331009D02*
X58159162Y-68426247D01*
X58159162Y-68426247D02*
X58159162Y-68664342D01*
X58159162Y-68664342D02*
X58111543Y-68759580D01*
X58111543Y-68759580D02*
X58063924Y-68807200D01*
X58063924Y-68807200D02*
X57968686Y-68854819D01*
X57968686Y-68854819D02*
X57682972Y-68854819D01*
X57682972Y-68854819D02*
X57587734Y-68807200D01*
X57587734Y-68807200D02*
X57540115Y-68759580D01*
X45330112Y-21631009D02*
X45472969Y-21678628D01*
X45472969Y-21678628D02*
X45520588Y-21726247D01*
X45520588Y-21726247D02*
X45568207Y-21821485D01*
X45568207Y-21821485D02*
X45568207Y-21964342D01*
X45568207Y-21964342D02*
X45520588Y-22059580D01*
X45520588Y-22059580D02*
X45472969Y-22107200D01*
X45472969Y-22107200D02*
X45377731Y-22154819D01*
X45377731Y-22154819D02*
X44996779Y-22154819D01*
X44996779Y-22154819D02*
X44996779Y-21154819D01*
X44996779Y-21154819D02*
X45330112Y-21154819D01*
X45330112Y-21154819D02*
X45425350Y-21202438D01*
X45425350Y-21202438D02*
X45472969Y-21250057D01*
X45472969Y-21250057D02*
X45520588Y-21345295D01*
X45520588Y-21345295D02*
X45520588Y-21440533D01*
X45520588Y-21440533D02*
X45472969Y-21535771D01*
X45472969Y-21535771D02*
X45425350Y-21583390D01*
X45425350Y-21583390D02*
X45330112Y-21631009D01*
X45330112Y-21631009D02*
X44996779Y-21631009D01*
X45901541Y-21154819D02*
X46520588Y-21154819D01*
X46520588Y-21154819D02*
X46187255Y-21535771D01*
X46187255Y-21535771D02*
X46330112Y-21535771D01*
X46330112Y-21535771D02*
X46425350Y-21583390D01*
X46425350Y-21583390D02*
X46472969Y-21631009D01*
X46472969Y-21631009D02*
X46520588Y-21726247D01*
X46520588Y-21726247D02*
X46520588Y-21964342D01*
X46520588Y-21964342D02*
X46472969Y-22059580D01*
X46472969Y-22059580D02*
X46425350Y-22107200D01*
X46425350Y-22107200D02*
X46330112Y-22154819D01*
X46330112Y-22154819D02*
X46044398Y-22154819D01*
X46044398Y-22154819D02*
X45949160Y-22107200D01*
X45949160Y-22107200D02*
X45901541Y-22059580D01*
X45568207Y-37299580D02*
X45520588Y-37347200D01*
X45520588Y-37347200D02*
X45377731Y-37394819D01*
X45377731Y-37394819D02*
X45282493Y-37394819D01*
X45282493Y-37394819D02*
X45139636Y-37347200D01*
X45139636Y-37347200D02*
X45044398Y-37251961D01*
X45044398Y-37251961D02*
X44996779Y-37156723D01*
X44996779Y-37156723D02*
X44949160Y-36966247D01*
X44949160Y-36966247D02*
X44949160Y-36823390D01*
X44949160Y-36823390D02*
X44996779Y-36632914D01*
X44996779Y-36632914D02*
X45044398Y-36537676D01*
X45044398Y-36537676D02*
X45139636Y-36442438D01*
X45139636Y-36442438D02*
X45282493Y-36394819D01*
X45282493Y-36394819D02*
X45377731Y-36394819D01*
X45377731Y-36394819D02*
X45520588Y-36442438D01*
X45520588Y-36442438D02*
X45568207Y-36490057D01*
X46330112Y-36871009D02*
X45996779Y-36871009D01*
X45996779Y-37394819D02*
X45996779Y-36394819D01*
X45996779Y-36394819D02*
X46472969Y-36394819D01*
X45330112Y-52111009D02*
X45472969Y-52158628D01*
X45472969Y-52158628D02*
X45520588Y-52206247D01*
X45520588Y-52206247D02*
X45568207Y-52301485D01*
X45568207Y-52301485D02*
X45568207Y-52444342D01*
X45568207Y-52444342D02*
X45520588Y-52539580D01*
X45520588Y-52539580D02*
X45472969Y-52587200D01*
X45472969Y-52587200D02*
X45377731Y-52634819D01*
X45377731Y-52634819D02*
X44996779Y-52634819D01*
X44996779Y-52634819D02*
X44996779Y-51634819D01*
X44996779Y-51634819D02*
X45330112Y-51634819D01*
X45330112Y-51634819D02*
X45425350Y-51682438D01*
X45425350Y-51682438D02*
X45472969Y-51730057D01*
X45472969Y-51730057D02*
X45520588Y-51825295D01*
X45520588Y-51825295D02*
X45520588Y-51920533D01*
X45520588Y-51920533D02*
X45472969Y-52015771D01*
X45472969Y-52015771D02*
X45425350Y-52063390D01*
X45425350Y-52063390D02*
X45330112Y-52111009D01*
X45330112Y-52111009D02*
X44996779Y-52111009D01*
X45996779Y-52634819D02*
X45996779Y-51634819D01*
X53010112Y-21631009D02*
X53152969Y-21678628D01*
X53152969Y-21678628D02*
X53200588Y-21726247D01*
X53200588Y-21726247D02*
X53248207Y-21821485D01*
X53248207Y-21821485D02*
X53248207Y-21964342D01*
X53248207Y-21964342D02*
X53200588Y-22059580D01*
X53200588Y-22059580D02*
X53152969Y-22107200D01*
X53152969Y-22107200D02*
X53057731Y-22154819D01*
X53057731Y-22154819D02*
X52676779Y-22154819D01*
X52676779Y-22154819D02*
X52676779Y-21154819D01*
X52676779Y-21154819D02*
X53010112Y-21154819D01*
X53010112Y-21154819D02*
X53105350Y-21202438D01*
X53105350Y-21202438D02*
X53152969Y-21250057D01*
X53152969Y-21250057D02*
X53200588Y-21345295D01*
X53200588Y-21345295D02*
X53200588Y-21440533D01*
X53200588Y-21440533D02*
X53152969Y-21535771D01*
X53152969Y-21535771D02*
X53105350Y-21583390D01*
X53105350Y-21583390D02*
X53010112Y-21631009D01*
X53010112Y-21631009D02*
X52676779Y-21631009D01*
X53629160Y-21250057D02*
X53676779Y-21202438D01*
X53676779Y-21202438D02*
X53772017Y-21154819D01*
X53772017Y-21154819D02*
X54010112Y-21154819D01*
X54010112Y-21154819D02*
X54105350Y-21202438D01*
X54105350Y-21202438D02*
X54152969Y-21250057D01*
X54152969Y-21250057D02*
X54200588Y-21345295D01*
X54200588Y-21345295D02*
X54200588Y-21440533D01*
X54200588Y-21440533D02*
X54152969Y-21583390D01*
X54152969Y-21583390D02*
X53581541Y-22154819D01*
X53581541Y-22154819D02*
X54200588Y-22154819D01*
X52581541Y-36394819D02*
X53248207Y-36394819D01*
X53248207Y-36394819D02*
X52581541Y-37394819D01*
X52581541Y-37394819D02*
X53248207Y-37394819D01*
X53962493Y-36871009D02*
X53629160Y-36871009D01*
X53629160Y-37394819D02*
X53629160Y-36394819D01*
X53629160Y-36394819D02*
X54105350Y-36394819D01*
X53010112Y-52111009D02*
X53152969Y-52158628D01*
X53152969Y-52158628D02*
X53200588Y-52206247D01*
X53200588Y-52206247D02*
X53248207Y-52301485D01*
X53248207Y-52301485D02*
X53248207Y-52444342D01*
X53248207Y-52444342D02*
X53200588Y-52539580D01*
X53200588Y-52539580D02*
X53152969Y-52587200D01*
X53152969Y-52587200D02*
X53057731Y-52634819D01*
X53057731Y-52634819D02*
X52676779Y-52634819D01*
X52676779Y-52634819D02*
X52676779Y-51634819D01*
X52676779Y-51634819D02*
X53010112Y-51634819D01*
X53010112Y-51634819D02*
X53105350Y-51682438D01*
X53105350Y-51682438D02*
X53152969Y-51730057D01*
X53152969Y-51730057D02*
X53200588Y-51825295D01*
X53200588Y-51825295D02*
X53200588Y-51920533D01*
X53200588Y-51920533D02*
X53152969Y-52015771D01*
X53152969Y-52015771D02*
X53105350Y-52063390D01*
X53105350Y-52063390D02*
X53010112Y-52111009D01*
X53010112Y-52111009D02*
X52676779Y-52111009D01*
X53867255Y-51634819D02*
X54057731Y-51634819D01*
X54057731Y-51634819D02*
X54152969Y-51682438D01*
X54152969Y-51682438D02*
X54248207Y-51777676D01*
X54248207Y-51777676D02*
X54295826Y-51968152D01*
X54295826Y-51968152D02*
X54295826Y-52301485D01*
X54295826Y-52301485D02*
X54248207Y-52491961D01*
X54248207Y-52491961D02*
X54152969Y-52587200D01*
X54152969Y-52587200D02*
X54057731Y-52634819D01*
X54057731Y-52634819D02*
X53867255Y-52634819D01*
X53867255Y-52634819D02*
X53772017Y-52587200D01*
X53772017Y-52587200D02*
X53676779Y-52491961D01*
X53676779Y-52491961D02*
X53629160Y-52301485D01*
X53629160Y-52301485D02*
X53629160Y-51968152D01*
X53629160Y-51968152D02*
X53676779Y-51777676D01*
X53676779Y-51777676D02*
X53772017Y-51682438D01*
X53772017Y-51682438D02*
X53867255Y-51634819D01*
X55897255Y-92834819D02*
X56087731Y-92834819D01*
X56087731Y-92834819D02*
X56182969Y-92882438D01*
X56182969Y-92882438D02*
X56278207Y-92977676D01*
X56278207Y-92977676D02*
X56325826Y-93168152D01*
X56325826Y-93168152D02*
X56325826Y-93501485D01*
X56325826Y-93501485D02*
X56278207Y-93691961D01*
X56278207Y-93691961D02*
X56182969Y-93787200D01*
X56182969Y-93787200D02*
X56087731Y-93834819D01*
X56087731Y-93834819D02*
X55897255Y-93834819D01*
X55897255Y-93834819D02*
X55802017Y-93787200D01*
X55802017Y-93787200D02*
X55706779Y-93691961D01*
X55706779Y-93691961D02*
X55659160Y-93501485D01*
X55659160Y-93501485D02*
X55659160Y-93168152D01*
X55659160Y-93168152D02*
X55706779Y-92977676D01*
X55706779Y-92977676D02*
X55802017Y-92882438D01*
X55802017Y-92882438D02*
X55897255Y-92834819D01*
X56754398Y-93834819D02*
X56754398Y-92834819D01*
X56754398Y-92834819D02*
X57325826Y-93834819D01*
X57325826Y-93834819D02*
X57325826Y-92834819D01*
X58563922Y-93168152D02*
X59325827Y-93453866D01*
X59325827Y-93453866D02*
X58563922Y-93739580D01*
X60690112Y-21631009D02*
X60832969Y-21678628D01*
X60832969Y-21678628D02*
X60880588Y-21726247D01*
X60880588Y-21726247D02*
X60928207Y-21821485D01*
X60928207Y-21821485D02*
X60928207Y-21964342D01*
X60928207Y-21964342D02*
X60880588Y-22059580D01*
X60880588Y-22059580D02*
X60832969Y-22107200D01*
X60832969Y-22107200D02*
X60737731Y-22154819D01*
X60737731Y-22154819D02*
X60356779Y-22154819D01*
X60356779Y-22154819D02*
X60356779Y-21154819D01*
X60356779Y-21154819D02*
X60690112Y-21154819D01*
X60690112Y-21154819D02*
X60785350Y-21202438D01*
X60785350Y-21202438D02*
X60832969Y-21250057D01*
X60832969Y-21250057D02*
X60880588Y-21345295D01*
X60880588Y-21345295D02*
X60880588Y-21440533D01*
X60880588Y-21440533D02*
X60832969Y-21535771D01*
X60832969Y-21535771D02*
X60785350Y-21583390D01*
X60785350Y-21583390D02*
X60690112Y-21631009D01*
X60690112Y-21631009D02*
X60356779Y-21631009D01*
X61880588Y-22154819D02*
X61309160Y-22154819D01*
X61594874Y-22154819D02*
X61594874Y-21154819D01*
X61594874Y-21154819D02*
X61499636Y-21297676D01*
X61499636Y-21297676D02*
X61404398Y-21392914D01*
X61404398Y-21392914D02*
X61309160Y-21440533D01*
X60928207Y-37299580D02*
X60880588Y-37347200D01*
X60880588Y-37347200D02*
X60737731Y-37394819D01*
X60737731Y-37394819D02*
X60642493Y-37394819D01*
X60642493Y-37394819D02*
X60499636Y-37347200D01*
X60499636Y-37347200D02*
X60404398Y-37251961D01*
X60404398Y-37251961D02*
X60356779Y-37156723D01*
X60356779Y-37156723D02*
X60309160Y-36966247D01*
X60309160Y-36966247D02*
X60309160Y-36823390D01*
X60309160Y-36823390D02*
X60356779Y-36632914D01*
X60356779Y-36632914D02*
X60404398Y-36537676D01*
X60404398Y-36537676D02*
X60499636Y-36442438D01*
X60499636Y-36442438D02*
X60642493Y-36394819D01*
X60642493Y-36394819D02*
X60737731Y-36394819D01*
X60737731Y-36394819D02*
X60880588Y-36442438D01*
X60880588Y-36442438D02*
X60928207Y-36490057D01*
X61832969Y-37394819D02*
X61356779Y-37394819D01*
X61356779Y-37394819D02*
X61356779Y-36394819D01*
X62166303Y-37394819D02*
X62166303Y-36394819D01*
X62737731Y-37394819D02*
X62309160Y-36823390D01*
X62737731Y-36394819D02*
X62166303Y-36966247D01*
X60690112Y-52111009D02*
X60832969Y-52158628D01*
X60832969Y-52158628D02*
X60880588Y-52206247D01*
X60880588Y-52206247D02*
X60928207Y-52301485D01*
X60928207Y-52301485D02*
X60928207Y-52444342D01*
X60928207Y-52444342D02*
X60880588Y-52539580D01*
X60880588Y-52539580D02*
X60832969Y-52587200D01*
X60832969Y-52587200D02*
X60737731Y-52634819D01*
X60737731Y-52634819D02*
X60356779Y-52634819D01*
X60356779Y-52634819D02*
X60356779Y-51634819D01*
X60356779Y-51634819D02*
X60690112Y-51634819D01*
X60690112Y-51634819D02*
X60785350Y-51682438D01*
X60785350Y-51682438D02*
X60832969Y-51730057D01*
X60832969Y-51730057D02*
X60880588Y-51825295D01*
X60880588Y-51825295D02*
X60880588Y-51920533D01*
X60880588Y-51920533D02*
X60832969Y-52015771D01*
X60832969Y-52015771D02*
X60785350Y-52063390D01*
X60785350Y-52063390D02*
X60690112Y-52111009D01*
X60690112Y-52111009D02*
X60356779Y-52111009D01*
X61309160Y-52349104D02*
X61785350Y-52349104D01*
X61213922Y-52634819D02*
X61547255Y-51634819D01*
X61547255Y-51634819D02*
X61880588Y-52634819D01*
X63359160Y-71769104D02*
X63835350Y-71769104D01*
X63263922Y-72054819D02*
X63597255Y-71054819D01*
X63597255Y-71054819D02*
X63930588Y-72054819D01*
X64454398Y-71054819D02*
X64549636Y-71054819D01*
X64549636Y-71054819D02*
X64644874Y-71102438D01*
X64644874Y-71102438D02*
X64692493Y-71150057D01*
X64692493Y-71150057D02*
X64740112Y-71245295D01*
X64740112Y-71245295D02*
X64787731Y-71435771D01*
X64787731Y-71435771D02*
X64787731Y-71673866D01*
X64787731Y-71673866D02*
X64740112Y-71864342D01*
X64740112Y-71864342D02*
X64692493Y-71959580D01*
X64692493Y-71959580D02*
X64644874Y-72007200D01*
X64644874Y-72007200D02*
X64549636Y-72054819D01*
X64549636Y-72054819D02*
X64454398Y-72054819D01*
X64454398Y-72054819D02*
X64359160Y-72007200D01*
X64359160Y-72007200D02*
X64311541Y-71959580D01*
X64311541Y-71959580D02*
X64263922Y-71864342D01*
X64263922Y-71864342D02*
X64216303Y-71673866D01*
X64216303Y-71673866D02*
X64216303Y-71435771D01*
X64216303Y-71435771D02*
X64263922Y-71245295D01*
X64263922Y-71245295D02*
X64311541Y-71150057D01*
X64311541Y-71150057D02*
X64359160Y-71102438D01*
X64359160Y-71102438D02*
X64454398Y-71054819D01*
X63359160Y-74309104D02*
X63835350Y-74309104D01*
X63263922Y-74594819D02*
X63597255Y-73594819D01*
X63597255Y-73594819D02*
X63930588Y-74594819D01*
X64787731Y-74594819D02*
X64216303Y-74594819D01*
X64502017Y-74594819D02*
X64502017Y-73594819D01*
X64502017Y-73594819D02*
X64406779Y-73737676D01*
X64406779Y-73737676D02*
X64311541Y-73832914D01*
X64311541Y-73832914D02*
X64216303Y-73880533D01*
X63359160Y-76849104D02*
X63835350Y-76849104D01*
X63263922Y-77134819D02*
X63597255Y-76134819D01*
X63597255Y-76134819D02*
X63930588Y-77134819D01*
X64216303Y-76230057D02*
X64263922Y-76182438D01*
X64263922Y-76182438D02*
X64359160Y-76134819D01*
X64359160Y-76134819D02*
X64597255Y-76134819D01*
X64597255Y-76134819D02*
X64692493Y-76182438D01*
X64692493Y-76182438D02*
X64740112Y-76230057D01*
X64740112Y-76230057D02*
X64787731Y-76325295D01*
X64787731Y-76325295D02*
X64787731Y-76420533D01*
X64787731Y-76420533D02*
X64740112Y-76563390D01*
X64740112Y-76563390D02*
X64168684Y-77134819D01*
X64168684Y-77134819D02*
X64787731Y-77134819D01*
X63359160Y-79389104D02*
X63835350Y-79389104D01*
X63263922Y-79674819D02*
X63597255Y-78674819D01*
X63597255Y-78674819D02*
X63930588Y-79674819D01*
X64168684Y-78674819D02*
X64787731Y-78674819D01*
X64787731Y-78674819D02*
X64454398Y-79055771D01*
X64454398Y-79055771D02*
X64597255Y-79055771D01*
X64597255Y-79055771D02*
X64692493Y-79103390D01*
X64692493Y-79103390D02*
X64740112Y-79151009D01*
X64740112Y-79151009D02*
X64787731Y-79246247D01*
X64787731Y-79246247D02*
X64787731Y-79484342D01*
X64787731Y-79484342D02*
X64740112Y-79579580D01*
X64740112Y-79579580D02*
X64692493Y-79627200D01*
X64692493Y-79627200D02*
X64597255Y-79674819D01*
X64597255Y-79674819D02*
X64311541Y-79674819D01*
X64311541Y-79674819D02*
X64216303Y-79627200D01*
X64216303Y-79627200D02*
X64168684Y-79579580D01*
X63740112Y-81691009D02*
X63882969Y-81738628D01*
X63882969Y-81738628D02*
X63930588Y-81786247D01*
X63930588Y-81786247D02*
X63978207Y-81881485D01*
X63978207Y-81881485D02*
X63978207Y-82024342D01*
X63978207Y-82024342D02*
X63930588Y-82119580D01*
X63930588Y-82119580D02*
X63882969Y-82167200D01*
X63882969Y-82167200D02*
X63787731Y-82214819D01*
X63787731Y-82214819D02*
X63406779Y-82214819D01*
X63406779Y-82214819D02*
X63406779Y-81214819D01*
X63406779Y-81214819D02*
X63740112Y-81214819D01*
X63740112Y-81214819D02*
X63835350Y-81262438D01*
X63835350Y-81262438D02*
X63882969Y-81310057D01*
X63882969Y-81310057D02*
X63930588Y-81405295D01*
X63930588Y-81405295D02*
X63930588Y-81500533D01*
X63930588Y-81500533D02*
X63882969Y-81595771D01*
X63882969Y-81595771D02*
X63835350Y-81643390D01*
X63835350Y-81643390D02*
X63740112Y-81691009D01*
X63740112Y-81691009D02*
X63406779Y-81691009D01*
X64597255Y-81214819D02*
X64692493Y-81214819D01*
X64692493Y-81214819D02*
X64787731Y-81262438D01*
X64787731Y-81262438D02*
X64835350Y-81310057D01*
X64835350Y-81310057D02*
X64882969Y-81405295D01*
X64882969Y-81405295D02*
X64930588Y-81595771D01*
X64930588Y-81595771D02*
X64930588Y-81833866D01*
X64930588Y-81833866D02*
X64882969Y-82024342D01*
X64882969Y-82024342D02*
X64835350Y-82119580D01*
X64835350Y-82119580D02*
X64787731Y-82167200D01*
X64787731Y-82167200D02*
X64692493Y-82214819D01*
X64692493Y-82214819D02*
X64597255Y-82214819D01*
X64597255Y-82214819D02*
X64502017Y-82167200D01*
X64502017Y-82167200D02*
X64454398Y-82119580D01*
X64454398Y-82119580D02*
X64406779Y-82024342D01*
X64406779Y-82024342D02*
X64359160Y-81833866D01*
X64359160Y-81833866D02*
X64359160Y-81595771D01*
X64359160Y-81595771D02*
X64406779Y-81405295D01*
X64406779Y-81405295D02*
X64454398Y-81310057D01*
X64454398Y-81310057D02*
X64502017Y-81262438D01*
X64502017Y-81262438D02*
X64597255Y-81214819D01*
X63740112Y-84231009D02*
X63882969Y-84278628D01*
X63882969Y-84278628D02*
X63930588Y-84326247D01*
X63930588Y-84326247D02*
X63978207Y-84421485D01*
X63978207Y-84421485D02*
X63978207Y-84564342D01*
X63978207Y-84564342D02*
X63930588Y-84659580D01*
X63930588Y-84659580D02*
X63882969Y-84707200D01*
X63882969Y-84707200D02*
X63787731Y-84754819D01*
X63787731Y-84754819D02*
X63406779Y-84754819D01*
X63406779Y-84754819D02*
X63406779Y-83754819D01*
X63406779Y-83754819D02*
X63740112Y-83754819D01*
X63740112Y-83754819D02*
X63835350Y-83802438D01*
X63835350Y-83802438D02*
X63882969Y-83850057D01*
X63882969Y-83850057D02*
X63930588Y-83945295D01*
X63930588Y-83945295D02*
X63930588Y-84040533D01*
X63930588Y-84040533D02*
X63882969Y-84135771D01*
X63882969Y-84135771D02*
X63835350Y-84183390D01*
X63835350Y-84183390D02*
X63740112Y-84231009D01*
X63740112Y-84231009D02*
X63406779Y-84231009D01*
X64930588Y-84754819D02*
X64359160Y-84754819D01*
X64644874Y-84754819D02*
X64644874Y-83754819D01*
X64644874Y-83754819D02*
X64549636Y-83897676D01*
X64549636Y-83897676D02*
X64454398Y-83992914D01*
X64454398Y-83992914D02*
X64359160Y-84040533D01*
X63740112Y-86771009D02*
X63882969Y-86818628D01*
X63882969Y-86818628D02*
X63930588Y-86866247D01*
X63930588Y-86866247D02*
X63978207Y-86961485D01*
X63978207Y-86961485D02*
X63978207Y-87104342D01*
X63978207Y-87104342D02*
X63930588Y-87199580D01*
X63930588Y-87199580D02*
X63882969Y-87247200D01*
X63882969Y-87247200D02*
X63787731Y-87294819D01*
X63787731Y-87294819D02*
X63406779Y-87294819D01*
X63406779Y-87294819D02*
X63406779Y-86294819D01*
X63406779Y-86294819D02*
X63740112Y-86294819D01*
X63740112Y-86294819D02*
X63835350Y-86342438D01*
X63835350Y-86342438D02*
X63882969Y-86390057D01*
X63882969Y-86390057D02*
X63930588Y-86485295D01*
X63930588Y-86485295D02*
X63930588Y-86580533D01*
X63930588Y-86580533D02*
X63882969Y-86675771D01*
X63882969Y-86675771D02*
X63835350Y-86723390D01*
X63835350Y-86723390D02*
X63740112Y-86771009D01*
X63740112Y-86771009D02*
X63406779Y-86771009D01*
X64359160Y-86390057D02*
X64406779Y-86342438D01*
X64406779Y-86342438D02*
X64502017Y-86294819D01*
X64502017Y-86294819D02*
X64740112Y-86294819D01*
X64740112Y-86294819D02*
X64835350Y-86342438D01*
X64835350Y-86342438D02*
X64882969Y-86390057D01*
X64882969Y-86390057D02*
X64930588Y-86485295D01*
X64930588Y-86485295D02*
X64930588Y-86580533D01*
X64930588Y-86580533D02*
X64882969Y-86723390D01*
X64882969Y-86723390D02*
X64311541Y-87294819D01*
X64311541Y-87294819D02*
X64930588Y-87294819D01*
X63740112Y-89311009D02*
X63882969Y-89358628D01*
X63882969Y-89358628D02*
X63930588Y-89406247D01*
X63930588Y-89406247D02*
X63978207Y-89501485D01*
X63978207Y-89501485D02*
X63978207Y-89644342D01*
X63978207Y-89644342D02*
X63930588Y-89739580D01*
X63930588Y-89739580D02*
X63882969Y-89787200D01*
X63882969Y-89787200D02*
X63787731Y-89834819D01*
X63787731Y-89834819D02*
X63406779Y-89834819D01*
X63406779Y-89834819D02*
X63406779Y-88834819D01*
X63406779Y-88834819D02*
X63740112Y-88834819D01*
X63740112Y-88834819D02*
X63835350Y-88882438D01*
X63835350Y-88882438D02*
X63882969Y-88930057D01*
X63882969Y-88930057D02*
X63930588Y-89025295D01*
X63930588Y-89025295D02*
X63930588Y-89120533D01*
X63930588Y-89120533D02*
X63882969Y-89215771D01*
X63882969Y-89215771D02*
X63835350Y-89263390D01*
X63835350Y-89263390D02*
X63740112Y-89311009D01*
X63740112Y-89311009D02*
X63406779Y-89311009D01*
X64311541Y-88834819D02*
X64930588Y-88834819D01*
X64930588Y-88834819D02*
X64597255Y-89215771D01*
X64597255Y-89215771D02*
X64740112Y-89215771D01*
X64740112Y-89215771D02*
X64835350Y-89263390D01*
X64835350Y-89263390D02*
X64882969Y-89311009D01*
X64882969Y-89311009D02*
X64930588Y-89406247D01*
X64930588Y-89406247D02*
X64930588Y-89644342D01*
X64930588Y-89644342D02*
X64882969Y-89739580D01*
X64882969Y-89739580D02*
X64835350Y-89787200D01*
X64835350Y-89787200D02*
X64740112Y-89834819D01*
X64740112Y-89834819D02*
X64454398Y-89834819D01*
X64454398Y-89834819D02*
X64359160Y-89787200D01*
X64359160Y-89787200D02*
X64311541Y-89739580D01*
X68370112Y-21331009D02*
X68512969Y-21378628D01*
X68512969Y-21378628D02*
X68560588Y-21426247D01*
X68560588Y-21426247D02*
X68608207Y-21521485D01*
X68608207Y-21521485D02*
X68608207Y-21664342D01*
X68608207Y-21664342D02*
X68560588Y-21759580D01*
X68560588Y-21759580D02*
X68512969Y-21807200D01*
X68512969Y-21807200D02*
X68417731Y-21854819D01*
X68417731Y-21854819D02*
X68036779Y-21854819D01*
X68036779Y-21854819D02*
X68036779Y-20854819D01*
X68036779Y-20854819D02*
X68370112Y-20854819D01*
X68370112Y-20854819D02*
X68465350Y-20902438D01*
X68465350Y-20902438D02*
X68512969Y-20950057D01*
X68512969Y-20950057D02*
X68560588Y-21045295D01*
X68560588Y-21045295D02*
X68560588Y-21140533D01*
X68560588Y-21140533D02*
X68512969Y-21235771D01*
X68512969Y-21235771D02*
X68465350Y-21283390D01*
X68465350Y-21283390D02*
X68370112Y-21331009D01*
X68370112Y-21331009D02*
X68036779Y-21331009D01*
X69227255Y-20854819D02*
X69322493Y-20854819D01*
X69322493Y-20854819D02*
X69417731Y-20902438D01*
X69417731Y-20902438D02*
X69465350Y-20950057D01*
X69465350Y-20950057D02*
X69512969Y-21045295D01*
X69512969Y-21045295D02*
X69560588Y-21235771D01*
X69560588Y-21235771D02*
X69560588Y-21473866D01*
X69560588Y-21473866D02*
X69512969Y-21664342D01*
X69512969Y-21664342D02*
X69465350Y-21759580D01*
X69465350Y-21759580D02*
X69417731Y-21807200D01*
X69417731Y-21807200D02*
X69322493Y-21854819D01*
X69322493Y-21854819D02*
X69227255Y-21854819D01*
X69227255Y-21854819D02*
X69132017Y-21807200D01*
X69132017Y-21807200D02*
X69084398Y-21759580D01*
X69084398Y-21759580D02*
X69036779Y-21664342D01*
X69036779Y-21664342D02*
X68989160Y-21473866D01*
X68989160Y-21473866D02*
X68989160Y-21235771D01*
X68989160Y-21235771D02*
X69036779Y-21045295D01*
X69036779Y-21045295D02*
X69084398Y-20950057D01*
X69084398Y-20950057D02*
X69132017Y-20902438D01*
X69132017Y-20902438D02*
X69227255Y-20854819D01*
X68608207Y-37094819D02*
X68274874Y-36618628D01*
X68036779Y-37094819D02*
X68036779Y-36094819D01*
X68036779Y-36094819D02*
X68417731Y-36094819D01*
X68417731Y-36094819D02*
X68512969Y-36142438D01*
X68512969Y-36142438D02*
X68560588Y-36190057D01*
X68560588Y-36190057D02*
X68608207Y-36285295D01*
X68608207Y-36285295D02*
X68608207Y-36428152D01*
X68608207Y-36428152D02*
X68560588Y-36523390D01*
X68560588Y-36523390D02*
X68512969Y-36571009D01*
X68512969Y-36571009D02*
X68417731Y-36618628D01*
X68417731Y-36618628D02*
X68036779Y-36618628D01*
X68989160Y-37047200D02*
X69132017Y-37094819D01*
X69132017Y-37094819D02*
X69370112Y-37094819D01*
X69370112Y-37094819D02*
X69465350Y-37047200D01*
X69465350Y-37047200D02*
X69512969Y-36999580D01*
X69512969Y-36999580D02*
X69560588Y-36904342D01*
X69560588Y-36904342D02*
X69560588Y-36809104D01*
X69560588Y-36809104D02*
X69512969Y-36713866D01*
X69512969Y-36713866D02*
X69465350Y-36666247D01*
X69465350Y-36666247D02*
X69370112Y-36618628D01*
X69370112Y-36618628D02*
X69179636Y-36571009D01*
X69179636Y-36571009D02*
X69084398Y-36523390D01*
X69084398Y-36523390D02*
X69036779Y-36475771D01*
X69036779Y-36475771D02*
X68989160Y-36380533D01*
X68989160Y-36380533D02*
X68989160Y-36285295D01*
X68989160Y-36285295D02*
X69036779Y-36190057D01*
X69036779Y-36190057D02*
X69084398Y-36142438D01*
X69084398Y-36142438D02*
X69179636Y-36094819D01*
X69179636Y-36094819D02*
X69417731Y-36094819D01*
X69417731Y-36094819D02*
X69560588Y-36142438D01*
X69846303Y-36094819D02*
X70417731Y-36094819D01*
X70132017Y-37094819D02*
X70132017Y-36094819D01*
X67989160Y-52049104D02*
X68465350Y-52049104D01*
X67893922Y-52334819D02*
X68227255Y-51334819D01*
X68227255Y-51334819D02*
X68560588Y-52334819D01*
X69227255Y-51811009D02*
X69370112Y-51858628D01*
X69370112Y-51858628D02*
X69417731Y-51906247D01*
X69417731Y-51906247D02*
X69465350Y-52001485D01*
X69465350Y-52001485D02*
X69465350Y-52144342D01*
X69465350Y-52144342D02*
X69417731Y-52239580D01*
X69417731Y-52239580D02*
X69370112Y-52287200D01*
X69370112Y-52287200D02*
X69274874Y-52334819D01*
X69274874Y-52334819D02*
X68893922Y-52334819D01*
X68893922Y-52334819D02*
X68893922Y-51334819D01*
X68893922Y-51334819D02*
X69227255Y-51334819D01*
X69227255Y-51334819D02*
X69322493Y-51382438D01*
X69322493Y-51382438D02*
X69370112Y-51430057D01*
X69370112Y-51430057D02*
X69417731Y-51525295D01*
X69417731Y-51525295D02*
X69417731Y-51620533D01*
X69417731Y-51620533D02*
X69370112Y-51715771D01*
X69370112Y-51715771D02*
X69322493Y-51763390D01*
X69322493Y-51763390D02*
X69227255Y-51811009D01*
X69227255Y-51811009D02*
X68893922Y-51811009D01*
X68879160Y-68807200D02*
X69022017Y-68854819D01*
X69022017Y-68854819D02*
X69260112Y-68854819D01*
X69260112Y-68854819D02*
X69355350Y-68807200D01*
X69355350Y-68807200D02*
X69402969Y-68759580D01*
X69402969Y-68759580D02*
X69450588Y-68664342D01*
X69450588Y-68664342D02*
X69450588Y-68569104D01*
X69450588Y-68569104D02*
X69402969Y-68473866D01*
X69402969Y-68473866D02*
X69355350Y-68426247D01*
X69355350Y-68426247D02*
X69260112Y-68378628D01*
X69260112Y-68378628D02*
X69069636Y-68331009D01*
X69069636Y-68331009D02*
X68974398Y-68283390D01*
X68974398Y-68283390D02*
X68926779Y-68235771D01*
X68926779Y-68235771D02*
X68879160Y-68140533D01*
X68879160Y-68140533D02*
X68879160Y-68045295D01*
X68879160Y-68045295D02*
X68926779Y-67950057D01*
X68926779Y-67950057D02*
X68974398Y-67902438D01*
X68974398Y-67902438D02*
X69069636Y-67854819D01*
X69069636Y-67854819D02*
X69307731Y-67854819D01*
X69307731Y-67854819D02*
X69450588Y-67902438D01*
X69879160Y-67854819D02*
X69879160Y-68664342D01*
X69879160Y-68664342D02*
X69926779Y-68759580D01*
X69926779Y-68759580D02*
X69974398Y-68807200D01*
X69974398Y-68807200D02*
X70069636Y-68854819D01*
X70069636Y-68854819D02*
X70260112Y-68854819D01*
X70260112Y-68854819D02*
X70355350Y-68807200D01*
X70355350Y-68807200D02*
X70402969Y-68759580D01*
X70402969Y-68759580D02*
X70450588Y-68664342D01*
X70450588Y-68664342D02*
X70450588Y-67854819D01*
X71260112Y-68331009D02*
X71402969Y-68378628D01*
X71402969Y-68378628D02*
X71450588Y-68426247D01*
X71450588Y-68426247D02*
X71498207Y-68521485D01*
X71498207Y-68521485D02*
X71498207Y-68664342D01*
X71498207Y-68664342D02*
X71450588Y-68759580D01*
X71450588Y-68759580D02*
X71402969Y-68807200D01*
X71402969Y-68807200D02*
X71307731Y-68854819D01*
X71307731Y-68854819D02*
X70926779Y-68854819D01*
X70926779Y-68854819D02*
X70926779Y-67854819D01*
X70926779Y-67854819D02*
X71260112Y-67854819D01*
X71260112Y-67854819D02*
X71355350Y-67902438D01*
X71355350Y-67902438D02*
X71402969Y-67950057D01*
X71402969Y-67950057D02*
X71450588Y-68045295D01*
X71450588Y-68045295D02*
X71450588Y-68140533D01*
X71450588Y-68140533D02*
X71402969Y-68235771D01*
X71402969Y-68235771D02*
X71355350Y-68283390D01*
X71355350Y-68283390D02*
X71260112Y-68331009D01*
X71260112Y-68331009D02*
X70926779Y-68331009D01*
X72688684Y-68331009D02*
X73022017Y-68331009D01*
X73164874Y-68854819D02*
X72688684Y-68854819D01*
X72688684Y-68854819D02*
X72688684Y-67854819D01*
X72688684Y-67854819D02*
X73164874Y-67854819D01*
X73783922Y-67854819D02*
X73974398Y-67854819D01*
X73974398Y-67854819D02*
X74069636Y-67902438D01*
X74069636Y-67902438D02*
X74164874Y-67997676D01*
X74164874Y-67997676D02*
X74212493Y-68188152D01*
X74212493Y-68188152D02*
X74212493Y-68521485D01*
X74212493Y-68521485D02*
X74164874Y-68711961D01*
X74164874Y-68711961D02*
X74069636Y-68807200D01*
X74069636Y-68807200D02*
X73974398Y-68854819D01*
X73974398Y-68854819D02*
X73783922Y-68854819D01*
X73783922Y-68854819D02*
X73688684Y-68807200D01*
X73688684Y-68807200D02*
X73593446Y-68711961D01*
X73593446Y-68711961D02*
X73545827Y-68521485D01*
X73545827Y-68521485D02*
X73545827Y-68188152D01*
X73545827Y-68188152D02*
X73593446Y-67997676D01*
X73593446Y-67997676D02*
X73688684Y-67902438D01*
X73688684Y-67902438D02*
X73783922Y-67854819D01*
X75355351Y-68569104D02*
X75831541Y-68569104D01*
X75260113Y-68854819D02*
X75593446Y-67854819D01*
X75593446Y-67854819D02*
X75926779Y-68854819D01*
X76260113Y-68854819D02*
X76260113Y-67854819D01*
X77450589Y-68569104D02*
X77926779Y-68569104D01*
X77355351Y-68854819D02*
X77688684Y-67854819D01*
X77688684Y-67854819D02*
X78022017Y-68854819D01*
X78545827Y-67854819D02*
X78736303Y-67854819D01*
X78736303Y-67854819D02*
X78831541Y-67902438D01*
X78831541Y-67902438D02*
X78926779Y-67997676D01*
X78926779Y-67997676D02*
X78974398Y-68188152D01*
X78974398Y-68188152D02*
X78974398Y-68521485D01*
X78974398Y-68521485D02*
X78926779Y-68711961D01*
X78926779Y-68711961D02*
X78831541Y-68807200D01*
X78831541Y-68807200D02*
X78736303Y-68854819D01*
X78736303Y-68854819D02*
X78545827Y-68854819D01*
X78545827Y-68854819D02*
X78450589Y-68807200D01*
X78450589Y-68807200D02*
X78355351Y-68711961D01*
X78355351Y-68711961D02*
X78307732Y-68521485D01*
X78307732Y-68521485D02*
X78307732Y-68188152D01*
X78307732Y-68188152D02*
X78355351Y-67997676D01*
X78355351Y-67997676D02*
X78450589Y-67902438D01*
X78450589Y-67902438D02*
X78545827Y-67854819D01*
X80498208Y-68331009D02*
X80641065Y-68378628D01*
X80641065Y-68378628D02*
X80688684Y-68426247D01*
X80688684Y-68426247D02*
X80736303Y-68521485D01*
X80736303Y-68521485D02*
X80736303Y-68664342D01*
X80736303Y-68664342D02*
X80688684Y-68759580D01*
X80688684Y-68759580D02*
X80641065Y-68807200D01*
X80641065Y-68807200D02*
X80545827Y-68854819D01*
X80545827Y-68854819D02*
X80164875Y-68854819D01*
X80164875Y-68854819D02*
X80164875Y-67854819D01*
X80164875Y-67854819D02*
X80498208Y-67854819D01*
X80498208Y-67854819D02*
X80593446Y-67902438D01*
X80593446Y-67902438D02*
X80641065Y-67950057D01*
X80641065Y-67950057D02*
X80688684Y-68045295D01*
X80688684Y-68045295D02*
X80688684Y-68140533D01*
X80688684Y-68140533D02*
X80641065Y-68235771D01*
X80641065Y-68235771D02*
X80593446Y-68283390D01*
X80593446Y-68283390D02*
X80498208Y-68331009D01*
X80498208Y-68331009D02*
X80164875Y-68331009D01*
X81164875Y-68854819D02*
X81164875Y-67854819D01*
X82736303Y-68331009D02*
X82879160Y-68378628D01*
X82879160Y-68378628D02*
X82926779Y-68426247D01*
X82926779Y-68426247D02*
X82974398Y-68521485D01*
X82974398Y-68521485D02*
X82974398Y-68664342D01*
X82974398Y-68664342D02*
X82926779Y-68759580D01*
X82926779Y-68759580D02*
X82879160Y-68807200D01*
X82879160Y-68807200D02*
X82783922Y-68854819D01*
X82783922Y-68854819D02*
X82402970Y-68854819D01*
X82402970Y-68854819D02*
X82402970Y-67854819D01*
X82402970Y-67854819D02*
X82736303Y-67854819D01*
X82736303Y-67854819D02*
X82831541Y-67902438D01*
X82831541Y-67902438D02*
X82879160Y-67950057D01*
X82879160Y-67950057D02*
X82926779Y-68045295D01*
X82926779Y-68045295D02*
X82926779Y-68140533D01*
X82926779Y-68140533D02*
X82879160Y-68235771D01*
X82879160Y-68235771D02*
X82831541Y-68283390D01*
X82831541Y-68283390D02*
X82736303Y-68331009D01*
X82736303Y-68331009D02*
X82402970Y-68331009D01*
X83593446Y-67854819D02*
X83783922Y-67854819D01*
X83783922Y-67854819D02*
X83879160Y-67902438D01*
X83879160Y-67902438D02*
X83974398Y-67997676D01*
X83974398Y-67997676D02*
X84022017Y-68188152D01*
X84022017Y-68188152D02*
X84022017Y-68521485D01*
X84022017Y-68521485D02*
X83974398Y-68711961D01*
X83974398Y-68711961D02*
X83879160Y-68807200D01*
X83879160Y-68807200D02*
X83783922Y-68854819D01*
X83783922Y-68854819D02*
X83593446Y-68854819D01*
X83593446Y-68854819D02*
X83498208Y-68807200D01*
X83498208Y-68807200D02*
X83402970Y-68711961D01*
X83402970Y-68711961D02*
X83355351Y-68521485D01*
X83355351Y-68521485D02*
X83355351Y-68188152D01*
X83355351Y-68188152D02*
X83402970Y-67997676D01*
X83402970Y-67997676D02*
X83498208Y-67902438D01*
X83498208Y-67902438D02*
X83593446Y-67854819D01*
X85545827Y-68331009D02*
X85688684Y-68378628D01*
X85688684Y-68378628D02*
X85736303Y-68426247D01*
X85736303Y-68426247D02*
X85783922Y-68521485D01*
X85783922Y-68521485D02*
X85783922Y-68664342D01*
X85783922Y-68664342D02*
X85736303Y-68759580D01*
X85736303Y-68759580D02*
X85688684Y-68807200D01*
X85688684Y-68807200D02*
X85593446Y-68854819D01*
X85593446Y-68854819D02*
X85212494Y-68854819D01*
X85212494Y-68854819D02*
X85212494Y-67854819D01*
X85212494Y-67854819D02*
X85545827Y-67854819D01*
X85545827Y-67854819D02*
X85641065Y-67902438D01*
X85641065Y-67902438D02*
X85688684Y-67950057D01*
X85688684Y-67950057D02*
X85736303Y-68045295D01*
X85736303Y-68045295D02*
X85736303Y-68140533D01*
X85736303Y-68140533D02*
X85688684Y-68235771D01*
X85688684Y-68235771D02*
X85641065Y-68283390D01*
X85641065Y-68283390D02*
X85545827Y-68331009D01*
X85545827Y-68331009D02*
X85212494Y-68331009D01*
X86164875Y-68569104D02*
X86641065Y-68569104D01*
X86069637Y-68854819D02*
X86402970Y-67854819D01*
X86402970Y-67854819D02*
X86736303Y-68854819D01*
X87783923Y-68569104D02*
X88260113Y-68569104D01*
X87688685Y-68854819D02*
X88022018Y-67854819D01*
X88022018Y-67854819D02*
X88355351Y-68854819D01*
X89022018Y-68331009D02*
X89164875Y-68378628D01*
X89164875Y-68378628D02*
X89212494Y-68426247D01*
X89212494Y-68426247D02*
X89260113Y-68521485D01*
X89260113Y-68521485D02*
X89260113Y-68664342D01*
X89260113Y-68664342D02*
X89212494Y-68759580D01*
X89212494Y-68759580D02*
X89164875Y-68807200D01*
X89164875Y-68807200D02*
X89069637Y-68854819D01*
X89069637Y-68854819D02*
X88688685Y-68854819D01*
X88688685Y-68854819D02*
X88688685Y-67854819D01*
X88688685Y-67854819D02*
X89022018Y-67854819D01*
X89022018Y-67854819D02*
X89117256Y-67902438D01*
X89117256Y-67902438D02*
X89164875Y-67950057D01*
X89164875Y-67950057D02*
X89212494Y-68045295D01*
X89212494Y-68045295D02*
X89212494Y-68140533D01*
X89212494Y-68140533D02*
X89164875Y-68235771D01*
X89164875Y-68235771D02*
X89117256Y-68283390D01*
X89117256Y-68283390D02*
X89022018Y-68331009D01*
X89022018Y-68331009D02*
X88688685Y-68331009D01*
X86617255Y-92834819D02*
X86807731Y-92834819D01*
X86807731Y-92834819D02*
X86902969Y-92882438D01*
X86902969Y-92882438D02*
X86998207Y-92977676D01*
X86998207Y-92977676D02*
X87045826Y-93168152D01*
X87045826Y-93168152D02*
X87045826Y-93501485D01*
X87045826Y-93501485D02*
X86998207Y-93691961D01*
X86998207Y-93691961D02*
X86902969Y-93787200D01*
X86902969Y-93787200D02*
X86807731Y-93834819D01*
X86807731Y-93834819D02*
X86617255Y-93834819D01*
X86617255Y-93834819D02*
X86522017Y-93787200D01*
X86522017Y-93787200D02*
X86426779Y-93691961D01*
X86426779Y-93691961D02*
X86379160Y-93501485D01*
X86379160Y-93501485D02*
X86379160Y-93168152D01*
X86379160Y-93168152D02*
X86426779Y-92977676D01*
X86426779Y-92977676D02*
X86522017Y-92882438D01*
X86522017Y-92882438D02*
X86617255Y-92834819D01*
X87474398Y-93834819D02*
X87474398Y-92834819D01*
X87474398Y-92834819D02*
X88045826Y-93834819D01*
X88045826Y-93834819D02*
X88045826Y-92834819D01*
X89283922Y-93168152D02*
X90045827Y-93453866D01*
X90045827Y-93453866D02*
X89283922Y-93739580D01*
X91635350Y-4414819D02*
X91444874Y-4414819D01*
X91444874Y-4414819D02*
X91349636Y-4462438D01*
X91349636Y-4462438D02*
X91302017Y-4510057D01*
X91302017Y-4510057D02*
X91206779Y-4652914D01*
X91206779Y-4652914D02*
X91159160Y-4843390D01*
X91159160Y-4843390D02*
X91159160Y-5224342D01*
X91159160Y-5224342D02*
X91206779Y-5319580D01*
X91206779Y-5319580D02*
X91254398Y-5367200D01*
X91254398Y-5367200D02*
X91349636Y-5414819D01*
X91349636Y-5414819D02*
X91540112Y-5414819D01*
X91540112Y-5414819D02*
X91635350Y-5367200D01*
X91635350Y-5367200D02*
X91682969Y-5319580D01*
X91682969Y-5319580D02*
X91730588Y-5224342D01*
X91730588Y-5224342D02*
X91730588Y-4986247D01*
X91730588Y-4986247D02*
X91682969Y-4891009D01*
X91682969Y-4891009D02*
X91635350Y-4843390D01*
X91635350Y-4843390D02*
X91540112Y-4795771D01*
X91540112Y-4795771D02*
X91349636Y-4795771D01*
X91349636Y-4795771D02*
X91254398Y-4843390D01*
X91254398Y-4843390D02*
X91206779Y-4891009D01*
X91206779Y-4891009D02*
X91159160Y-4986247D01*
X92063922Y-4414819D02*
X92682969Y-4414819D01*
X92682969Y-4414819D02*
X92349636Y-4795771D01*
X92349636Y-4795771D02*
X92492493Y-4795771D01*
X92492493Y-4795771D02*
X92587731Y-4843390D01*
X92587731Y-4843390D02*
X92635350Y-4891009D01*
X92635350Y-4891009D02*
X92682969Y-4986247D01*
X92682969Y-4986247D02*
X92682969Y-5224342D01*
X92682969Y-5224342D02*
X92635350Y-5319580D01*
X92635350Y-5319580D02*
X92587731Y-5367200D01*
X92587731Y-5367200D02*
X92492493Y-5414819D01*
X92492493Y-5414819D02*
X92206779Y-5414819D01*
X92206779Y-5414819D02*
X92111541Y-5367200D01*
X92111541Y-5367200D02*
X92063922Y-5319580D01*
X91635350Y-6954819D02*
X91444874Y-6954819D01*
X91444874Y-6954819D02*
X91349636Y-7002438D01*
X91349636Y-7002438D02*
X91302017Y-7050057D01*
X91302017Y-7050057D02*
X91206779Y-7192914D01*
X91206779Y-7192914D02*
X91159160Y-7383390D01*
X91159160Y-7383390D02*
X91159160Y-7764342D01*
X91159160Y-7764342D02*
X91206779Y-7859580D01*
X91206779Y-7859580D02*
X91254398Y-7907200D01*
X91254398Y-7907200D02*
X91349636Y-7954819D01*
X91349636Y-7954819D02*
X91540112Y-7954819D01*
X91540112Y-7954819D02*
X91635350Y-7907200D01*
X91635350Y-7907200D02*
X91682969Y-7859580D01*
X91682969Y-7859580D02*
X91730588Y-7764342D01*
X91730588Y-7764342D02*
X91730588Y-7526247D01*
X91730588Y-7526247D02*
X91682969Y-7431009D01*
X91682969Y-7431009D02*
X91635350Y-7383390D01*
X91635350Y-7383390D02*
X91540112Y-7335771D01*
X91540112Y-7335771D02*
X91349636Y-7335771D01*
X91349636Y-7335771D02*
X91254398Y-7383390D01*
X91254398Y-7383390D02*
X91206779Y-7431009D01*
X91206779Y-7431009D02*
X91159160Y-7526247D01*
X92587731Y-7288152D02*
X92587731Y-7954819D01*
X92349636Y-6907200D02*
X92111541Y-7621485D01*
X92111541Y-7621485D02*
X92730588Y-7621485D01*
X94079160Y-72007200D02*
X94222017Y-72054819D01*
X94222017Y-72054819D02*
X94460112Y-72054819D01*
X94460112Y-72054819D02*
X94555350Y-72007200D01*
X94555350Y-72007200D02*
X94602969Y-71959580D01*
X94602969Y-71959580D02*
X94650588Y-71864342D01*
X94650588Y-71864342D02*
X94650588Y-71769104D01*
X94650588Y-71769104D02*
X94602969Y-71673866D01*
X94602969Y-71673866D02*
X94555350Y-71626247D01*
X94555350Y-71626247D02*
X94460112Y-71578628D01*
X94460112Y-71578628D02*
X94269636Y-71531009D01*
X94269636Y-71531009D02*
X94174398Y-71483390D01*
X94174398Y-71483390D02*
X94126779Y-71435771D01*
X94126779Y-71435771D02*
X94079160Y-71340533D01*
X94079160Y-71340533D02*
X94079160Y-71245295D01*
X94079160Y-71245295D02*
X94126779Y-71150057D01*
X94126779Y-71150057D02*
X94174398Y-71102438D01*
X94174398Y-71102438D02*
X94269636Y-71054819D01*
X94269636Y-71054819D02*
X94507731Y-71054819D01*
X94507731Y-71054819D02*
X94650588Y-71102438D01*
X95079160Y-71054819D02*
X95079160Y-71864342D01*
X95079160Y-71864342D02*
X95126779Y-71959580D01*
X95126779Y-71959580D02*
X95174398Y-72007200D01*
X95174398Y-72007200D02*
X95269636Y-72054819D01*
X95269636Y-72054819D02*
X95460112Y-72054819D01*
X95460112Y-72054819D02*
X95555350Y-72007200D01*
X95555350Y-72007200D02*
X95602969Y-71959580D01*
X95602969Y-71959580D02*
X95650588Y-71864342D01*
X95650588Y-71864342D02*
X95650588Y-71054819D01*
X96460112Y-71531009D02*
X96602969Y-71578628D01*
X96602969Y-71578628D02*
X96650588Y-71626247D01*
X96650588Y-71626247D02*
X96698207Y-71721485D01*
X96698207Y-71721485D02*
X96698207Y-71864342D01*
X96698207Y-71864342D02*
X96650588Y-71959580D01*
X96650588Y-71959580D02*
X96602969Y-72007200D01*
X96602969Y-72007200D02*
X96507731Y-72054819D01*
X96507731Y-72054819D02*
X96126779Y-72054819D01*
X96126779Y-72054819D02*
X96126779Y-71054819D01*
X96126779Y-71054819D02*
X96460112Y-71054819D01*
X96460112Y-71054819D02*
X96555350Y-71102438D01*
X96555350Y-71102438D02*
X96602969Y-71150057D01*
X96602969Y-71150057D02*
X96650588Y-71245295D01*
X96650588Y-71245295D02*
X96650588Y-71340533D01*
X96650588Y-71340533D02*
X96602969Y-71435771D01*
X96602969Y-71435771D02*
X96555350Y-71483390D01*
X96555350Y-71483390D02*
X96460112Y-71531009D01*
X96460112Y-71531009D02*
X96126779Y-71531009D01*
X94126779Y-74071009D02*
X94460112Y-74071009D01*
X94602969Y-74594819D02*
X94126779Y-74594819D01*
X94126779Y-74594819D02*
X94126779Y-73594819D01*
X94126779Y-73594819D02*
X94602969Y-73594819D01*
X95222017Y-73594819D02*
X95412493Y-73594819D01*
X95412493Y-73594819D02*
X95507731Y-73642438D01*
X95507731Y-73642438D02*
X95602969Y-73737676D01*
X95602969Y-73737676D02*
X95650588Y-73928152D01*
X95650588Y-73928152D02*
X95650588Y-74261485D01*
X95650588Y-74261485D02*
X95602969Y-74451961D01*
X95602969Y-74451961D02*
X95507731Y-74547200D01*
X95507731Y-74547200D02*
X95412493Y-74594819D01*
X95412493Y-74594819D02*
X95222017Y-74594819D01*
X95222017Y-74594819D02*
X95126779Y-74547200D01*
X95126779Y-74547200D02*
X95031541Y-74451961D01*
X95031541Y-74451961D02*
X94983922Y-74261485D01*
X94983922Y-74261485D02*
X94983922Y-73928152D01*
X94983922Y-73928152D02*
X95031541Y-73737676D01*
X95031541Y-73737676D02*
X95126779Y-73642438D01*
X95126779Y-73642438D02*
X95222017Y-73594819D01*
X94079160Y-76849104D02*
X94555350Y-76849104D01*
X93983922Y-77134819D02*
X94317255Y-76134819D01*
X94317255Y-76134819D02*
X94650588Y-77134819D01*
X94983922Y-77134819D02*
X94983922Y-76134819D01*
X94079160Y-79389104D02*
X94555350Y-79389104D01*
X93983922Y-79674819D02*
X94317255Y-78674819D01*
X94317255Y-78674819D02*
X94650588Y-79674819D01*
X95174398Y-78674819D02*
X95364874Y-78674819D01*
X95364874Y-78674819D02*
X95460112Y-78722438D01*
X95460112Y-78722438D02*
X95555350Y-78817676D01*
X95555350Y-78817676D02*
X95602969Y-79008152D01*
X95602969Y-79008152D02*
X95602969Y-79341485D01*
X95602969Y-79341485D02*
X95555350Y-79531961D01*
X95555350Y-79531961D02*
X95460112Y-79627200D01*
X95460112Y-79627200D02*
X95364874Y-79674819D01*
X95364874Y-79674819D02*
X95174398Y-79674819D01*
X95174398Y-79674819D02*
X95079160Y-79627200D01*
X95079160Y-79627200D02*
X94983922Y-79531961D01*
X94983922Y-79531961D02*
X94936303Y-79341485D01*
X94936303Y-79341485D02*
X94936303Y-79008152D01*
X94936303Y-79008152D02*
X94983922Y-78817676D01*
X94983922Y-78817676D02*
X95079160Y-78722438D01*
X95079160Y-78722438D02*
X95174398Y-78674819D01*
X94460112Y-81691009D02*
X94602969Y-81738628D01*
X94602969Y-81738628D02*
X94650588Y-81786247D01*
X94650588Y-81786247D02*
X94698207Y-81881485D01*
X94698207Y-81881485D02*
X94698207Y-82024342D01*
X94698207Y-82024342D02*
X94650588Y-82119580D01*
X94650588Y-82119580D02*
X94602969Y-82167200D01*
X94602969Y-82167200D02*
X94507731Y-82214819D01*
X94507731Y-82214819D02*
X94126779Y-82214819D01*
X94126779Y-82214819D02*
X94126779Y-81214819D01*
X94126779Y-81214819D02*
X94460112Y-81214819D01*
X94460112Y-81214819D02*
X94555350Y-81262438D01*
X94555350Y-81262438D02*
X94602969Y-81310057D01*
X94602969Y-81310057D02*
X94650588Y-81405295D01*
X94650588Y-81405295D02*
X94650588Y-81500533D01*
X94650588Y-81500533D02*
X94602969Y-81595771D01*
X94602969Y-81595771D02*
X94555350Y-81643390D01*
X94555350Y-81643390D02*
X94460112Y-81691009D01*
X94460112Y-81691009D02*
X94126779Y-81691009D01*
X95126779Y-82214819D02*
X95126779Y-81214819D01*
X94460112Y-84231009D02*
X94602969Y-84278628D01*
X94602969Y-84278628D02*
X94650588Y-84326247D01*
X94650588Y-84326247D02*
X94698207Y-84421485D01*
X94698207Y-84421485D02*
X94698207Y-84564342D01*
X94698207Y-84564342D02*
X94650588Y-84659580D01*
X94650588Y-84659580D02*
X94602969Y-84707200D01*
X94602969Y-84707200D02*
X94507731Y-84754819D01*
X94507731Y-84754819D02*
X94126779Y-84754819D01*
X94126779Y-84754819D02*
X94126779Y-83754819D01*
X94126779Y-83754819D02*
X94460112Y-83754819D01*
X94460112Y-83754819D02*
X94555350Y-83802438D01*
X94555350Y-83802438D02*
X94602969Y-83850057D01*
X94602969Y-83850057D02*
X94650588Y-83945295D01*
X94650588Y-83945295D02*
X94650588Y-84040533D01*
X94650588Y-84040533D02*
X94602969Y-84135771D01*
X94602969Y-84135771D02*
X94555350Y-84183390D01*
X94555350Y-84183390D02*
X94460112Y-84231009D01*
X94460112Y-84231009D02*
X94126779Y-84231009D01*
X95317255Y-83754819D02*
X95507731Y-83754819D01*
X95507731Y-83754819D02*
X95602969Y-83802438D01*
X95602969Y-83802438D02*
X95698207Y-83897676D01*
X95698207Y-83897676D02*
X95745826Y-84088152D01*
X95745826Y-84088152D02*
X95745826Y-84421485D01*
X95745826Y-84421485D02*
X95698207Y-84611961D01*
X95698207Y-84611961D02*
X95602969Y-84707200D01*
X95602969Y-84707200D02*
X95507731Y-84754819D01*
X95507731Y-84754819D02*
X95317255Y-84754819D01*
X95317255Y-84754819D02*
X95222017Y-84707200D01*
X95222017Y-84707200D02*
X95126779Y-84611961D01*
X95126779Y-84611961D02*
X95079160Y-84421485D01*
X95079160Y-84421485D02*
X95079160Y-84088152D01*
X95079160Y-84088152D02*
X95126779Y-83897676D01*
X95126779Y-83897676D02*
X95222017Y-83802438D01*
X95222017Y-83802438D02*
X95317255Y-83754819D01*
X94460112Y-86771009D02*
X94602969Y-86818628D01*
X94602969Y-86818628D02*
X94650588Y-86866247D01*
X94650588Y-86866247D02*
X94698207Y-86961485D01*
X94698207Y-86961485D02*
X94698207Y-87104342D01*
X94698207Y-87104342D02*
X94650588Y-87199580D01*
X94650588Y-87199580D02*
X94602969Y-87247200D01*
X94602969Y-87247200D02*
X94507731Y-87294819D01*
X94507731Y-87294819D02*
X94126779Y-87294819D01*
X94126779Y-87294819D02*
X94126779Y-86294819D01*
X94126779Y-86294819D02*
X94460112Y-86294819D01*
X94460112Y-86294819D02*
X94555350Y-86342438D01*
X94555350Y-86342438D02*
X94602969Y-86390057D01*
X94602969Y-86390057D02*
X94650588Y-86485295D01*
X94650588Y-86485295D02*
X94650588Y-86580533D01*
X94650588Y-86580533D02*
X94602969Y-86675771D01*
X94602969Y-86675771D02*
X94555350Y-86723390D01*
X94555350Y-86723390D02*
X94460112Y-86771009D01*
X94460112Y-86771009D02*
X94126779Y-86771009D01*
X95079160Y-87009104D02*
X95555350Y-87009104D01*
X94983922Y-87294819D02*
X95317255Y-86294819D01*
X95317255Y-86294819D02*
X95650588Y-87294819D01*
X94079160Y-89549104D02*
X94555350Y-89549104D01*
X93983922Y-89834819D02*
X94317255Y-88834819D01*
X94317255Y-88834819D02*
X94650588Y-89834819D01*
X95317255Y-89311009D02*
X95460112Y-89358628D01*
X95460112Y-89358628D02*
X95507731Y-89406247D01*
X95507731Y-89406247D02*
X95555350Y-89501485D01*
X95555350Y-89501485D02*
X95555350Y-89644342D01*
X95555350Y-89644342D02*
X95507731Y-89739580D01*
X95507731Y-89739580D02*
X95460112Y-89787200D01*
X95460112Y-89787200D02*
X95364874Y-89834819D01*
X95364874Y-89834819D02*
X94983922Y-89834819D01*
X94983922Y-89834819D02*
X94983922Y-88834819D01*
X94983922Y-88834819D02*
X95317255Y-88834819D01*
X95317255Y-88834819D02*
X95412493Y-88882438D01*
X95412493Y-88882438D02*
X95460112Y-88930057D01*
X95460112Y-88930057D02*
X95507731Y-89025295D01*
X95507731Y-89025295D02*
X95507731Y-89120533D01*
X95507731Y-89120533D02*
X95460112Y-89215771D01*
X95460112Y-89215771D02*
X95412493Y-89263390D01*
X95412493Y-89263390D02*
X95317255Y-89311009D01*
X95317255Y-89311009D02*
X94983922Y-89311009D01*
D11*
X9521615Y-98880928D02*
X9521615Y-97380928D01*
X9521615Y-97380928D02*
X10378758Y-98880928D01*
X10378758Y-98880928D02*
X10378758Y-97380928D01*
X11093044Y-98880928D02*
X11093044Y-97380928D01*
X12307330Y-98095214D02*
X12521616Y-98166642D01*
X12521616Y-98166642D02*
X12593045Y-98238071D01*
X12593045Y-98238071D02*
X12664473Y-98380928D01*
X12664473Y-98380928D02*
X12664473Y-98595214D01*
X12664473Y-98595214D02*
X12593045Y-98738071D01*
X12593045Y-98738071D02*
X12521616Y-98809500D01*
X12521616Y-98809500D02*
X12378759Y-98880928D01*
X12378759Y-98880928D02*
X11807330Y-98880928D01*
X11807330Y-98880928D02*
X11807330Y-97380928D01*
X11807330Y-97380928D02*
X12307330Y-97380928D01*
X12307330Y-97380928D02*
X12450188Y-97452357D01*
X12450188Y-97452357D02*
X12521616Y-97523785D01*
X12521616Y-97523785D02*
X12593045Y-97666642D01*
X12593045Y-97666642D02*
X12593045Y-97809500D01*
X12593045Y-97809500D02*
X12521616Y-97952357D01*
X12521616Y-97952357D02*
X12450188Y-98023785D01*
X12450188Y-98023785D02*
X12307330Y-98095214D01*
X12307330Y-98095214D02*
X11807330Y-98095214D01*
X13807330Y-98095214D02*
X14021616Y-98166642D01*
X14021616Y-98166642D02*
X14093045Y-98238071D01*
X14093045Y-98238071D02*
X14164473Y-98380928D01*
X14164473Y-98380928D02*
X14164473Y-98595214D01*
X14164473Y-98595214D02*
X14093045Y-98738071D01*
X14093045Y-98738071D02*
X14021616Y-98809500D01*
X14021616Y-98809500D02*
X13878759Y-98880928D01*
X13878759Y-98880928D02*
X13307330Y-98880928D01*
X13307330Y-98880928D02*
X13307330Y-97380928D01*
X13307330Y-97380928D02*
X13807330Y-97380928D01*
X13807330Y-97380928D02*
X13950188Y-97452357D01*
X13950188Y-97452357D02*
X14021616Y-97523785D01*
X14021616Y-97523785D02*
X14093045Y-97666642D01*
X14093045Y-97666642D02*
X14093045Y-97809500D01*
X14093045Y-97809500D02*
X14021616Y-97952357D01*
X14021616Y-97952357D02*
X13950188Y-98023785D01*
X13950188Y-98023785D02*
X13807330Y-98095214D01*
X13807330Y-98095214D02*
X13307330Y-98095214D01*
X15521616Y-98880928D02*
X14807330Y-98880928D01*
X14807330Y-98880928D02*
X14807330Y-97380928D01*
X16021616Y-98095214D02*
X16521616Y-98095214D01*
X16735902Y-98880928D02*
X16021616Y-98880928D01*
X16021616Y-98880928D02*
X16021616Y-97380928D01*
X16021616Y-97380928D02*
X16735902Y-97380928D01*
X19664473Y-98880928D02*
X19664473Y-97380928D01*
X19664473Y-97380928D02*
X20235902Y-97380928D01*
X20235902Y-97380928D02*
X20378759Y-97452357D01*
X20378759Y-97452357D02*
X20450188Y-97523785D01*
X20450188Y-97523785D02*
X20521616Y-97666642D01*
X20521616Y-97666642D02*
X20521616Y-97880928D01*
X20521616Y-97880928D02*
X20450188Y-98023785D01*
X20450188Y-98023785D02*
X20378759Y-98095214D01*
X20378759Y-98095214D02*
X20235902Y-98166642D01*
X20235902Y-98166642D02*
X19664473Y-98166642D01*
X21093045Y-98452357D02*
X21807331Y-98452357D01*
X20950188Y-98880928D02*
X21450188Y-97380928D01*
X21450188Y-97380928D02*
X21950188Y-98880928D01*
X22450187Y-98880928D02*
X22450187Y-97380928D01*
X22450187Y-97380928D02*
X23307330Y-98880928D01*
X23307330Y-98880928D02*
X23307330Y-97380928D01*
X24021616Y-98095214D02*
X24521616Y-98095214D01*
X24735902Y-98880928D02*
X24021616Y-98880928D01*
X24021616Y-98880928D02*
X24021616Y-97380928D01*
X24021616Y-97380928D02*
X24735902Y-97380928D01*
X26093045Y-98880928D02*
X25378759Y-98880928D01*
X25378759Y-98880928D02*
X25378759Y-97380928D01*
X27664474Y-98452357D02*
X28378760Y-98452357D01*
X27521617Y-98880928D02*
X28021617Y-97380928D01*
X28021617Y-97380928D02*
X28521617Y-98880928D01*
X32021616Y-98880928D02*
X31307330Y-98880928D01*
X31307330Y-98880928D02*
X31307330Y-97380928D01*
X32521616Y-98095214D02*
X33021616Y-98095214D01*
X33235902Y-98880928D02*
X32521616Y-98880928D01*
X32521616Y-98880928D02*
X32521616Y-97380928D01*
X32521616Y-97380928D02*
X33235902Y-97380928D01*
X33664474Y-97380928D02*
X34164474Y-98880928D01*
X34164474Y-98880928D02*
X34664474Y-97380928D01*
X35164473Y-98095214D02*
X35664473Y-98095214D01*
X35878759Y-98880928D02*
X35164473Y-98880928D01*
X35164473Y-98880928D02*
X35164473Y-97380928D01*
X35164473Y-97380928D02*
X35878759Y-97380928D01*
X37235902Y-98880928D02*
X36521616Y-98880928D01*
X36521616Y-98880928D02*
X36521616Y-97380928D01*
X37664474Y-98809500D02*
X37878760Y-98880928D01*
X37878760Y-98880928D02*
X38235902Y-98880928D01*
X38235902Y-98880928D02*
X38378760Y-98809500D01*
X38378760Y-98809500D02*
X38450188Y-98738071D01*
X38450188Y-98738071D02*
X38521617Y-98595214D01*
X38521617Y-98595214D02*
X38521617Y-98452357D01*
X38521617Y-98452357D02*
X38450188Y-98309500D01*
X38450188Y-98309500D02*
X38378760Y-98238071D01*
X38378760Y-98238071D02*
X38235902Y-98166642D01*
X38235902Y-98166642D02*
X37950188Y-98095214D01*
X37950188Y-98095214D02*
X37807331Y-98023785D01*
X37807331Y-98023785D02*
X37735902Y-97952357D01*
X37735902Y-97952357D02*
X37664474Y-97809500D01*
X37664474Y-97809500D02*
X37664474Y-97666642D01*
X37664474Y-97666642D02*
X37735902Y-97523785D01*
X37735902Y-97523785D02*
X37807331Y-97452357D01*
X37807331Y-97452357D02*
X37950188Y-97380928D01*
X37950188Y-97380928D02*
X38307331Y-97380928D01*
X38307331Y-97380928D02*
X38521617Y-97452357D01*
X41093045Y-98880928D02*
X40235902Y-98880928D01*
X40664473Y-98880928D02*
X40664473Y-97380928D01*
X40664473Y-97380928D02*
X40521616Y-97595214D01*
X40521616Y-97595214D02*
X40378759Y-97738071D01*
X40378759Y-97738071D02*
X40235902Y-97809500D01*
D10*
X95238095Y-46304819D02*
X95238095Y-45304819D01*
X95238095Y-45781009D02*
X95809523Y-45781009D01*
X95809523Y-46304819D02*
X95809523Y-45304819D01*
X96238095Y-45400057D02*
X96285714Y-45352438D01*
X96285714Y-45352438D02*
X96380952Y-45304819D01*
X96380952Y-45304819D02*
X96619047Y-45304819D01*
X96619047Y-45304819D02*
X96714285Y-45352438D01*
X96714285Y-45352438D02*
X96761904Y-45400057D01*
X96761904Y-45400057D02*
X96809523Y-45495295D01*
X96809523Y-45495295D02*
X96809523Y-45590533D01*
X96809523Y-45590533D02*
X96761904Y-45733390D01*
X96761904Y-45733390D02*
X96190476Y-46304819D01*
X96190476Y-46304819D02*
X96809523Y-46304819D01*
X3238095Y-46304819D02*
X3238095Y-45304819D01*
X3238095Y-45781009D02*
X3809523Y-45781009D01*
X3809523Y-46304819D02*
X3809523Y-45304819D01*
X4809523Y-46304819D02*
X4238095Y-46304819D01*
X4523809Y-46304819D02*
X4523809Y-45304819D01*
X4523809Y-45304819D02*
X4428571Y-45447676D01*
X4428571Y-45447676D02*
X4333333Y-45542914D01*
X4333333Y-45542914D02*
X4238095Y-45590533D01*
%TO.C,D22*%
D12*
X64064000Y-22640000D02*
X64220000Y-22640000D01*
X66380000Y-22640000D02*
X66536000Y-22640000D01*
X64064484Y-22640000D02*
G75*
G02*
X64220000Y-19408563I1235516J1560000D01*
G01*
X64220000Y-22120961D02*
G75*
G02*
X64220000Y-20039039I1080000J1040961D01*
G01*
X66380000Y-19408563D02*
G75*
G02*
X66535516Y-22640000I-1080000J-1671437D01*
G01*
X66380000Y-20039039D02*
G75*
G02*
X66380000Y-22120961I-1080000J-1040961D01*
G01*
%TO.C,R38*%
X71810000Y-59180000D02*
X74420000Y-59180000D01*
X71810000Y-59180000D02*
G75*
G02*
X69070000Y-59180000I-1370000J0D01*
G01*
X69070000Y-59180000D02*
G75*
G02*
X71810000Y-59180000I1370000J0D01*
G01*
%TO.C,D16*%
X48704000Y-22640000D02*
X48860000Y-22640000D01*
X51020000Y-22640000D02*
X51176000Y-22640000D01*
X48704484Y-22640000D02*
G75*
G02*
X48860000Y-19408563I1235516J1560000D01*
G01*
X48860000Y-22120961D02*
G75*
G02*
X48860000Y-20039039I1080000J1040961D01*
G01*
X51020000Y-19408563D02*
G75*
G02*
X51175516Y-22640000I-1080000J-1671437D01*
G01*
X51020000Y-20039039D02*
G75*
G02*
X51020000Y-22120961I-1080000J-1040961D01*
G01*
%TO.C,Q1*%
X9740000Y-28645000D02*
X13340000Y-28645000D01*
X9183600Y-25696193D02*
G75*
G02*
X11540000Y-24195000I2356400J-1098807D01*
G01*
X9740000Y-28645000D02*
G75*
G02*
X9215816Y-27917795I1800000J1850000D01*
G01*
X11540000Y-24195000D02*
G75*
G02*
X13896400Y-25696193I0J-2600000D01*
G01*
X13864184Y-27917795D02*
G75*
G02*
X13340000Y-28645000I-2324184J1122795D01*
G01*
%TO.C,R8*%
X25730000Y-31240000D02*
X28340000Y-31240000D01*
X25730000Y-31240000D02*
G75*
G02*
X22990000Y-31240000I-1370000J0D01*
G01*
X22990000Y-31240000D02*
G75*
G02*
X25730000Y-31240000I1370000J0D01*
G01*
%TO.C,Q24*%
X67100000Y-55425000D02*
X63500000Y-55425000D01*
X62975816Y-56152205D02*
G75*
G02*
X63500000Y-55425000I2324184J-1122795D01*
G01*
X65300000Y-59875000D02*
G75*
G02*
X62943600Y-58373807I0J2600000D01*
G01*
X67100000Y-55425000D02*
G75*
G02*
X67624184Y-56152205I-1800000J-1850000D01*
G01*
X67656400Y-58373807D02*
G75*
G02*
X65300000Y-59875000I-2356400J1098807D01*
G01*
%TO.C,D20*%
X56384000Y-37880000D02*
X56540000Y-37880000D01*
X58700000Y-37880000D02*
X58856000Y-37880000D01*
X56384484Y-37880000D02*
G75*
G02*
X56540000Y-34648563I1235516J1560000D01*
G01*
X56540000Y-37360961D02*
G75*
G02*
X56540000Y-35279039I1080000J1040961D01*
G01*
X58700000Y-34648563D02*
G75*
G02*
X58855516Y-37880000I-1080000J-1671437D01*
G01*
X58700000Y-35279039D02*
G75*
G02*
X58700000Y-37360961I-1080000J-1040961D01*
G01*
%TO.C,D9*%
X25664000Y-53120000D02*
X25820000Y-53120000D01*
X27980000Y-53120000D02*
X28136000Y-53120000D01*
X25664484Y-53120000D02*
G75*
G02*
X25820000Y-49888563I1235516J1560000D01*
G01*
X25820000Y-52600961D02*
G75*
G02*
X25820000Y-50519039I1080000J1040961D01*
G01*
X27980000Y-49888563D02*
G75*
G02*
X28135516Y-53120000I-1080000J-1671437D01*
G01*
X27980000Y-50519039D02*
G75*
G02*
X27980000Y-52600961I-1080000J-1040961D01*
G01*
%TO.C,R7*%
X25730000Y-16000000D02*
X28340000Y-16000000D01*
X25730000Y-16000000D02*
G75*
G02*
X22990000Y-16000000I-1370000J0D01*
G01*
X22990000Y-16000000D02*
G75*
G02*
X25730000Y-16000000I1370000J0D01*
G01*
%TO.C,R3*%
X10370000Y-46480000D02*
X12980000Y-46480000D01*
X10370000Y-46480000D02*
G75*
G02*
X7630000Y-46480000I-1370000J0D01*
G01*
X7630000Y-46480000D02*
G75*
G02*
X10370000Y-46480000I1370000J0D01*
G01*
%TO.C,R57*%
X80590000Y-73370000D02*
X80590000Y-75980000D01*
X81960000Y-72000000D02*
G75*
G02*
X79220000Y-72000000I-1370000J0D01*
G01*
X79220000Y-72000000D02*
G75*
G02*
X81960000Y-72000000I1370000J0D01*
G01*
%TO.C,Q12*%
X36380000Y-55425000D02*
X32780000Y-55425000D01*
X32255816Y-56152205D02*
G75*
G02*
X32780000Y-55425000I2324184J-1122795D01*
G01*
X34580000Y-59875000D02*
G75*
G02*
X32223600Y-58373807I0J2600000D01*
G01*
X36380000Y-55425000D02*
G75*
G02*
X36904184Y-56152205I-1800000J-1850000D01*
G01*
X36936400Y-58373807D02*
G75*
G02*
X34580000Y-59875000I-2356400J1098807D01*
G01*
%TO.C,R60*%
X74590000Y-73370000D02*
X74590000Y-75980000D01*
X75960000Y-72000000D02*
G75*
G02*
X73220000Y-72000000I-1370000J0D01*
G01*
X73220000Y-72000000D02*
G75*
G02*
X75960000Y-72000000I1370000J0D01*
G01*
%TO.C,R52*%
X43870000Y-73370000D02*
X43870000Y-75980000D01*
X45240000Y-72000000D02*
G75*
G02*
X42500000Y-72000000I-1370000J0D01*
G01*
X42500000Y-72000000D02*
G75*
G02*
X45240000Y-72000000I1370000J0D01*
G01*
%TO.C,R53*%
X43870000Y-81070000D02*
X43870000Y-83680000D01*
X45240000Y-79700000D02*
G75*
G02*
X42500000Y-79700000I-1370000J0D01*
G01*
X42500000Y-79700000D02*
G75*
G02*
X45240000Y-79700000I1370000J0D01*
G01*
%TO.C,R9*%
X25730000Y-46480000D02*
X28340000Y-46480000D01*
X25730000Y-46480000D02*
G75*
G02*
X22990000Y-46480000I-1370000J0D01*
G01*
X22990000Y-46480000D02*
G75*
G02*
X25730000Y-46480000I1370000J0D01*
G01*
%TO.C,R13*%
X41090000Y-16000000D02*
X43700000Y-16000000D01*
X41090000Y-16000000D02*
G75*
G02*
X38350000Y-16000000I-1370000J0D01*
G01*
X38350000Y-16000000D02*
G75*
G02*
X41090000Y-16000000I1370000J0D01*
G01*
%TO.C,R6*%
X18050000Y-46480000D02*
X20660000Y-46480000D01*
X18050000Y-46480000D02*
G75*
G02*
X15310000Y-46480000I-1370000J0D01*
G01*
X15310000Y-46480000D02*
G75*
G02*
X18050000Y-46480000I1370000J0D01*
G01*
%TO.C,Q21*%
X55820000Y-59125000D02*
X59420000Y-59125000D01*
X55263600Y-56176193D02*
G75*
G02*
X57620000Y-54675000I2356400J-1098807D01*
G01*
X55820000Y-59125000D02*
G75*
G02*
X55295816Y-58397795I1800000J1850000D01*
G01*
X57620000Y-54675000D02*
G75*
G02*
X59976400Y-56176193I0J-2600000D01*
G01*
X59944184Y-58397795D02*
G75*
G02*
X59420000Y-59125000I-2324184J1122795D01*
G01*
%TO.C,R19*%
X56450000Y-16000000D02*
X59060000Y-16000000D01*
X56450000Y-16000000D02*
G75*
G02*
X53710000Y-16000000I-1370000J0D01*
G01*
X53710000Y-16000000D02*
G75*
G02*
X56450000Y-16000000I1370000J0D01*
G01*
%TO.C,SW2*%
X83210000Y-69340000D02*
X83210000Y-70723000D01*
X83210000Y-69340000D02*
X84593000Y-69340000D01*
X83450000Y-69580000D02*
X83450000Y-92200000D01*
X83450000Y-69580000D02*
X93350000Y-69580000D01*
X83450000Y-92200000D02*
X93350000Y-92200000D01*
X87723333Y-71365000D02*
X87723333Y-72635000D01*
X87723333Y-73905000D02*
X87723333Y-75175000D01*
X87723333Y-76445000D02*
X87723333Y-77715000D01*
X87723333Y-78985000D02*
X87723333Y-80255000D01*
X87723333Y-81525000D02*
X87723333Y-82795000D01*
X87723333Y-84065000D02*
X87723333Y-85335000D01*
X87723333Y-86605000D02*
X87723333Y-87875000D01*
X87723333Y-89145000D02*
X87723333Y-90415000D01*
X93350000Y-69580000D02*
X93350000Y-92200000D01*
X86370000Y-71365000D02*
X87723333Y-71365000D01*
X87723333Y-72635000D01*
X86370000Y-72635000D01*
X86370000Y-71365000D01*
G36*
X86370000Y-71365000D02*
G01*
X87723333Y-71365000D01*
X87723333Y-72635000D01*
X86370000Y-72635000D01*
X86370000Y-71365000D01*
G37*
X86370000Y-71365000D02*
X90430000Y-71365000D01*
X90430000Y-72635000D01*
X86370000Y-72635000D01*
X86370000Y-71365000D01*
X86370000Y-73905000D02*
X87723333Y-73905000D01*
X87723333Y-75175000D01*
X86370000Y-75175000D01*
X86370000Y-73905000D01*
G36*
X86370000Y-73905000D02*
G01*
X87723333Y-73905000D01*
X87723333Y-75175000D01*
X86370000Y-75175000D01*
X86370000Y-73905000D01*
G37*
X86370000Y-73905000D02*
X90430000Y-73905000D01*
X90430000Y-75175000D01*
X86370000Y-75175000D01*
X86370000Y-73905000D01*
X86370000Y-76445000D02*
X87723333Y-76445000D01*
X87723333Y-77715000D01*
X86370000Y-77715000D01*
X86370000Y-76445000D01*
G36*
X86370000Y-76445000D02*
G01*
X87723333Y-76445000D01*
X87723333Y-77715000D01*
X86370000Y-77715000D01*
X86370000Y-76445000D01*
G37*
X86370000Y-76445000D02*
X90430000Y-76445000D01*
X90430000Y-77715000D01*
X86370000Y-77715000D01*
X86370000Y-76445000D01*
X86370000Y-78985000D02*
X87723333Y-78985000D01*
X87723333Y-80255000D01*
X86370000Y-80255000D01*
X86370000Y-78985000D01*
G36*
X86370000Y-78985000D02*
G01*
X87723333Y-78985000D01*
X87723333Y-80255000D01*
X86370000Y-80255000D01*
X86370000Y-78985000D01*
G37*
X86370000Y-78985000D02*
X90430000Y-78985000D01*
X90430000Y-80255000D01*
X86370000Y-80255000D01*
X86370000Y-78985000D01*
X86370000Y-81525000D02*
X87723333Y-81525000D01*
X87723333Y-82795000D01*
X86370000Y-82795000D01*
X86370000Y-81525000D01*
G36*
X86370000Y-81525000D02*
G01*
X87723333Y-81525000D01*
X87723333Y-82795000D01*
X86370000Y-82795000D01*
X86370000Y-81525000D01*
G37*
X86370000Y-81525000D02*
X90430000Y-81525000D01*
X90430000Y-82795000D01*
X86370000Y-82795000D01*
X86370000Y-81525000D01*
X86370000Y-84065000D02*
X87723333Y-84065000D01*
X87723333Y-85335000D01*
X86370000Y-85335000D01*
X86370000Y-84065000D01*
G36*
X86370000Y-84065000D02*
G01*
X87723333Y-84065000D01*
X87723333Y-85335000D01*
X86370000Y-85335000D01*
X86370000Y-84065000D01*
G37*
X86370000Y-84065000D02*
X90430000Y-84065000D01*
X90430000Y-85335000D01*
X86370000Y-85335000D01*
X86370000Y-84065000D01*
X86370000Y-86605000D02*
X87723333Y-86605000D01*
X87723333Y-87875000D01*
X86370000Y-87875000D01*
X86370000Y-86605000D01*
G36*
X86370000Y-86605000D02*
G01*
X87723333Y-86605000D01*
X87723333Y-87875000D01*
X86370000Y-87875000D01*
X86370000Y-86605000D01*
G37*
X86370000Y-86605000D02*
X90430000Y-86605000D01*
X90430000Y-87875000D01*
X86370000Y-87875000D01*
X86370000Y-86605000D01*
X86370000Y-89145000D02*
X87723333Y-89145000D01*
X87723333Y-90415000D01*
X86370000Y-90415000D01*
X86370000Y-89145000D01*
G36*
X86370000Y-89145000D02*
G01*
X87723333Y-89145000D01*
X87723333Y-90415000D01*
X86370000Y-90415000D01*
X86370000Y-89145000D01*
G37*
X86370000Y-89145000D02*
X90430000Y-89145000D01*
X90430000Y-90415000D01*
X86370000Y-90415000D01*
X86370000Y-89145000D01*
%TO.C,D17*%
X48704000Y-37880000D02*
X48860000Y-37880000D01*
X51020000Y-37880000D02*
X51176000Y-37880000D01*
X48704484Y-37880000D02*
G75*
G02*
X48860000Y-34648563I1235516J1560000D01*
G01*
X48860000Y-37360961D02*
G75*
G02*
X48860000Y-35279039I1080000J1040961D01*
G01*
X51020000Y-34648563D02*
G75*
G02*
X51175516Y-37880000I-1080000J-1671437D01*
G01*
X51020000Y-35279039D02*
G75*
G02*
X51020000Y-37360961I-1080000J-1040961D01*
G01*
%TO.C,Q19*%
X55820000Y-28645000D02*
X59420000Y-28645000D01*
X55263600Y-25696193D02*
G75*
G02*
X57620000Y-24195000I2356400J-1098807D01*
G01*
X55820000Y-28645000D02*
G75*
G02*
X55295816Y-27917795I1800000J1850000D01*
G01*
X57620000Y-24195000D02*
G75*
G02*
X59976400Y-25696193I0J-2600000D01*
G01*
X59944184Y-27917795D02*
G75*
G02*
X59420000Y-28645000I-2324184J1122795D01*
G01*
%TO.C,Q15*%
X40460000Y-59125000D02*
X44060000Y-59125000D01*
X39903600Y-56176193D02*
G75*
G02*
X42260000Y-54675000I2356400J-1098807D01*
G01*
X40460000Y-59125000D02*
G75*
G02*
X39935816Y-58397795I1800000J1850000D01*
G01*
X42260000Y-54675000D02*
G75*
G02*
X44616400Y-56176193I0J-2600000D01*
G01*
X44584184Y-58397795D02*
G75*
G02*
X44060000Y-59125000I-2324184J1122795D01*
G01*
%TO.C,R43*%
X79490000Y-33780000D02*
X82100000Y-33780000D01*
X79490000Y-33780000D02*
G75*
G02*
X76750000Y-33780000I-1370000J0D01*
G01*
X76750000Y-33780000D02*
G75*
G02*
X79490000Y-33780000I1370000J0D01*
G01*
%TO.C,R45*%
X79490000Y-43940000D02*
X82100000Y-43940000D01*
X79490000Y-43940000D02*
G75*
G02*
X76750000Y-43940000I-1370000J0D01*
G01*
X76750000Y-43940000D02*
G75*
G02*
X79490000Y-43940000I1370000J0D01*
G01*
%TO.C,R1*%
X10370000Y-16000000D02*
X12980000Y-16000000D01*
X10370000Y-16000000D02*
G75*
G02*
X7630000Y-16000000I-1370000J0D01*
G01*
X7630000Y-16000000D02*
G75*
G02*
X10370000Y-16000000I1370000J0D01*
G01*
%TO.C,R4*%
X18050000Y-16000000D02*
X20660000Y-16000000D01*
X18050000Y-16000000D02*
G75*
G02*
X15310000Y-16000000I-1370000J0D01*
G01*
X15310000Y-16000000D02*
G75*
G02*
X18050000Y-16000000I1370000J0D01*
G01*
%TO.C,D14*%
X41024000Y-37880000D02*
X41180000Y-37880000D01*
X43340000Y-37880000D02*
X43496000Y-37880000D01*
X41024484Y-37880000D02*
G75*
G02*
X41180000Y-34648563I1235516J1560000D01*
G01*
X41180000Y-37360961D02*
G75*
G02*
X41180000Y-35279039I1080000J1040961D01*
G01*
X43340000Y-34648563D02*
G75*
G02*
X43495516Y-37880000I-1080000J-1671437D01*
G01*
X43340000Y-35279039D02*
G75*
G02*
X43340000Y-37360961I-1080000J-1040961D01*
G01*
%TO.C,R37*%
X71810000Y-54100000D02*
X74420000Y-54100000D01*
X71810000Y-54100000D02*
G75*
G02*
X69070000Y-54100000I-1370000J0D01*
G01*
X69070000Y-54100000D02*
G75*
G02*
X71810000Y-54100000I1370000J0D01*
G01*
%TO.C,Q16*%
X51740000Y-24945000D02*
X48140000Y-24945000D01*
X47615816Y-25672205D02*
G75*
G02*
X48140000Y-24945000I2324184J-1122795D01*
G01*
X49940000Y-29395000D02*
G75*
G02*
X47583600Y-27893807I0J2600000D01*
G01*
X51740000Y-24945000D02*
G75*
G02*
X52264184Y-25672205I-1800000J-1850000D01*
G01*
X52296400Y-27893807D02*
G75*
G02*
X49940000Y-29395000I-2356400J1098807D01*
G01*
%TO.C,Q25*%
X86540000Y-22295000D02*
X90140000Y-22295000D01*
X85983600Y-19346193D02*
G75*
G02*
X88340000Y-17845000I2356400J-1098807D01*
G01*
X86540000Y-22295000D02*
G75*
G02*
X86015816Y-21567795I1800000J1850000D01*
G01*
X88340000Y-17845000D02*
G75*
G02*
X90696400Y-19346193I0J-2600000D01*
G01*
X90664184Y-21567795D02*
G75*
G02*
X90140000Y-22295000I-2324184J1122795D01*
G01*
%TO.C,R44*%
X79490000Y-38860000D02*
X82100000Y-38860000D01*
X79490000Y-38860000D02*
G75*
G02*
X76750000Y-38860000I-1370000J0D01*
G01*
X76750000Y-38860000D02*
G75*
G02*
X79490000Y-38860000I1370000J0D01*
G01*
%TO.C,Q11*%
X36380000Y-40185000D02*
X32780000Y-40185000D01*
X32255816Y-40912205D02*
G75*
G02*
X32780000Y-40185000I2324184J-1122795D01*
G01*
X34580000Y-44635000D02*
G75*
G02*
X32223600Y-43133807I0J2600000D01*
G01*
X36380000Y-40185000D02*
G75*
G02*
X36904184Y-40912205I-1800000J-1850000D01*
G01*
X36936400Y-43133807D02*
G75*
G02*
X34580000Y-44635000I-2356400J1098807D01*
G01*
%TO.C,R2*%
X10370000Y-31240000D02*
X12980000Y-31240000D01*
X10370000Y-31240000D02*
G75*
G02*
X7630000Y-31240000I-1370000J0D01*
G01*
X7630000Y-31240000D02*
G75*
G02*
X10370000Y-31240000I1370000J0D01*
G01*
%TO.C,Q13*%
X40460000Y-28645000D02*
X44060000Y-28645000D01*
X39903600Y-25696193D02*
G75*
G02*
X42260000Y-24195000I2356400J-1098807D01*
G01*
X40460000Y-28645000D02*
G75*
G02*
X39935816Y-27917795I1800000J1850000D01*
G01*
X42260000Y-24195000D02*
G75*
G02*
X44616400Y-25696193I0J-2600000D01*
G01*
X44584184Y-27917795D02*
G75*
G02*
X44060000Y-28645000I-2324184J1122795D01*
G01*
%TO.C,R21*%
X56450000Y-46480000D02*
X59060000Y-46480000D01*
X56450000Y-46480000D02*
G75*
G02*
X53710000Y-46480000I-1370000J0D01*
G01*
X53710000Y-46480000D02*
G75*
G02*
X56450000Y-46480000I1370000J0D01*
G01*
%TO.C,R22*%
X64130000Y-16000000D02*
X66740000Y-16000000D01*
X64130000Y-16000000D02*
G75*
G02*
X61390000Y-16000000I-1370000J0D01*
G01*
X61390000Y-16000000D02*
G75*
G02*
X64130000Y-16000000I1370000J0D01*
G01*
%TO.C,D10*%
X33344000Y-22640000D02*
X33500000Y-22640000D01*
X35660000Y-22640000D02*
X35816000Y-22640000D01*
X33344484Y-22640000D02*
G75*
G02*
X33500000Y-19408563I1235516J1560000D01*
G01*
X33500000Y-22120961D02*
G75*
G02*
X33500000Y-20039039I1080000J1040961D01*
G01*
X35660000Y-19408563D02*
G75*
G02*
X35815516Y-22640000I-1080000J-1671437D01*
G01*
X35660000Y-20039039D02*
G75*
G02*
X35660000Y-22120961I-1080000J-1040961D01*
G01*
%TO.C,Q2*%
X9740000Y-43885000D02*
X13340000Y-43885000D01*
X9183600Y-40936193D02*
G75*
G02*
X11540000Y-39435000I2356400J-1098807D01*
G01*
X9740000Y-43885000D02*
G75*
G02*
X9215816Y-43157795I1800000J1850000D01*
G01*
X11540000Y-39435000D02*
G75*
G02*
X13896400Y-40936193I0J-2600000D01*
G01*
X13864184Y-43157795D02*
G75*
G02*
X13340000Y-43885000I-2324184J1122795D01*
G01*
%TO.C,R27*%
X87170000Y-32510000D02*
X89780000Y-32510000D01*
X87170000Y-32510000D02*
G75*
G02*
X84430000Y-32510000I-1370000J0D01*
G01*
X84430000Y-32510000D02*
G75*
G02*
X87170000Y-32510000I1370000J0D01*
G01*
%TO.C,R23*%
X64130000Y-31240000D02*
X66740000Y-31240000D01*
X64130000Y-31240000D02*
G75*
G02*
X61390000Y-31240000I-1370000J0D01*
G01*
X61390000Y-31240000D02*
G75*
G02*
X64130000Y-31240000I1370000J0D01*
G01*
%TO.C,R16*%
X48770000Y-16000000D02*
X51380000Y-16000000D01*
X48770000Y-16000000D02*
G75*
G02*
X46030000Y-16000000I-1370000J0D01*
G01*
X46030000Y-16000000D02*
G75*
G02*
X48770000Y-16000000I1370000J0D01*
G01*
%TO.C,R11*%
X33410000Y-31240000D02*
X36020000Y-31240000D01*
X33410000Y-31240000D02*
G75*
G02*
X30670000Y-31240000I-1370000J0D01*
G01*
X30670000Y-31240000D02*
G75*
G02*
X33410000Y-31240000I1370000J0D01*
G01*
%TO.C,R61*%
X74590000Y-81070000D02*
X74590000Y-83680000D01*
X75960000Y-79700000D02*
G75*
G02*
X73220000Y-79700000I-1370000J0D01*
G01*
X73220000Y-79700000D02*
G75*
G02*
X75960000Y-79700000I1370000J0D01*
G01*
%TO.C,R32*%
X71810000Y-28700000D02*
X74420000Y-28700000D01*
X71810000Y-28700000D02*
G75*
G02*
X69070000Y-28700000I-1370000J0D01*
G01*
X69070000Y-28700000D02*
G75*
G02*
X71810000Y-28700000I1370000J0D01*
G01*
%TO.C,D23*%
X64064000Y-37880000D02*
X64220000Y-37880000D01*
X66380000Y-37880000D02*
X66536000Y-37880000D01*
X64064484Y-37880000D02*
G75*
G02*
X64220000Y-34648563I1235516J1560000D01*
G01*
X64220000Y-37360961D02*
G75*
G02*
X64220000Y-35279039I1080000J1040961D01*
G01*
X66380000Y-34648563D02*
G75*
G02*
X66535516Y-37880000I-1080000J-1671437D01*
G01*
X66380000Y-35279039D02*
G75*
G02*
X66380000Y-37360961I-1080000J-1040961D01*
G01*
%TO.C,Q28*%
X86540000Y-47060000D02*
X90140000Y-47060000D01*
X85983600Y-44111193D02*
G75*
G02*
X88340000Y-42610000I2356400J-1098807D01*
G01*
X86540000Y-47060000D02*
G75*
G02*
X86015816Y-46332795I1800000J1850000D01*
G01*
X88340000Y-42610000D02*
G75*
G02*
X90696400Y-44111193I0J-2600000D01*
G01*
X90664184Y-46332795D02*
G75*
G02*
X90140000Y-47060000I-2324184J1122795D01*
G01*
%TO.C,D4*%
X17984000Y-22640000D02*
X18140000Y-22640000D01*
X20300000Y-22640000D02*
X20456000Y-22640000D01*
X17984484Y-22640000D02*
G75*
G02*
X18140000Y-19408563I1235516J1560000D01*
G01*
X18140000Y-22120961D02*
G75*
G02*
X18140000Y-20039039I1080000J1040961D01*
G01*
X20300000Y-19408563D02*
G75*
G02*
X20455516Y-22640000I-1080000J-1671437D01*
G01*
X20300000Y-20039039D02*
G75*
G02*
X20300000Y-22120961I-1080000J-1040961D01*
G01*
%TO.C,R62*%
X74590000Y-88770000D02*
X74590000Y-91380000D01*
X75960000Y-87400000D02*
G75*
G02*
X73220000Y-87400000I-1370000J0D01*
G01*
X73220000Y-87400000D02*
G75*
G02*
X75960000Y-87400000I1370000J0D01*
G01*
%TO.C,R29*%
X64130000Y-64260000D02*
X66740000Y-64260000D01*
X64130000Y-64260000D02*
G75*
G02*
X61390000Y-64260000I-1370000J0D01*
G01*
X61390000Y-64260000D02*
G75*
G02*
X64130000Y-64260000I1370000J0D01*
G01*
%TO.C,Q8*%
X25100000Y-43885000D02*
X28700000Y-43885000D01*
X24543600Y-40936193D02*
G75*
G02*
X26900000Y-39435000I2356400J-1098807D01*
G01*
X25100000Y-43885000D02*
G75*
G02*
X24575816Y-43157795I1800000J1850000D01*
G01*
X26900000Y-39435000D02*
G75*
G02*
X29256400Y-40936193I0J-2600000D01*
G01*
X29224184Y-43157795D02*
G75*
G02*
X28700000Y-43885000I-2324184J1122795D01*
G01*
%TO.C,D2*%
X10304000Y-37880000D02*
X10460000Y-37880000D01*
X12620000Y-37880000D02*
X12776000Y-37880000D01*
X10304484Y-37880000D02*
G75*
G02*
X10460000Y-34648563I1235516J1560000D01*
G01*
X10460000Y-37360961D02*
G75*
G02*
X10460000Y-35279039I1080000J1040961D01*
G01*
X12620000Y-34648563D02*
G75*
G02*
X12775516Y-37880000I-1080000J-1671437D01*
G01*
X12620000Y-35279039D02*
G75*
G02*
X12620000Y-37360961I-1080000J-1040961D01*
G01*
%TO.C,R18*%
X48770000Y-46480000D02*
X51380000Y-46480000D01*
X48770000Y-46480000D02*
G75*
G02*
X46030000Y-46480000I-1370000J0D01*
G01*
X46030000Y-46480000D02*
G75*
G02*
X48770000Y-46480000I1370000J0D01*
G01*
%TO.C,Q10*%
X36380000Y-24945000D02*
X32780000Y-24945000D01*
X32255816Y-25672205D02*
G75*
G02*
X32780000Y-24945000I2324184J-1122795D01*
G01*
X34580000Y-29395000D02*
G75*
G02*
X32223600Y-27893807I0J2600000D01*
G01*
X36380000Y-24945000D02*
G75*
G02*
X36904184Y-25672205I-1800000J-1850000D01*
G01*
X36936400Y-27893807D02*
G75*
G02*
X34580000Y-29395000I-2356400J1098807D01*
G01*
%TO.C,Q7*%
X25100000Y-28645000D02*
X28700000Y-28645000D01*
X24543600Y-25696193D02*
G75*
G02*
X26900000Y-24195000I2356400J-1098807D01*
G01*
X25100000Y-28645000D02*
G75*
G02*
X24575816Y-27917795I1800000J1850000D01*
G01*
X26900000Y-24195000D02*
G75*
G02*
X29256400Y-25696193I0J-2600000D01*
G01*
X29224184Y-27917795D02*
G75*
G02*
X28700000Y-28645000I-2324184J1122795D01*
G01*
%TO.C,D15*%
X41024000Y-53120000D02*
X41180000Y-53120000D01*
X43340000Y-53120000D02*
X43496000Y-53120000D01*
X41024484Y-53120000D02*
G75*
G02*
X41180000Y-49888563I1235516J1560000D01*
G01*
X41180000Y-52600961D02*
G75*
G02*
X41180000Y-50519039I1080000J1040961D01*
G01*
X43340000Y-49888563D02*
G75*
G02*
X43495516Y-53120000I-1080000J-1671437D01*
G01*
X43340000Y-50519039D02*
G75*
G02*
X43340000Y-52600961I-1080000J-1040961D01*
G01*
%TO.C,Q23*%
X67100000Y-40185000D02*
X63500000Y-40185000D01*
X62975816Y-40912205D02*
G75*
G02*
X63500000Y-40185000I2324184J-1122795D01*
G01*
X65300000Y-44635000D02*
G75*
G02*
X62943600Y-43133807I0J2600000D01*
G01*
X67100000Y-40185000D02*
G75*
G02*
X67624184Y-40912205I-1800000J-1850000D01*
G01*
X67656400Y-43133807D02*
G75*
G02*
X65300000Y-44635000I-2356400J1098807D01*
G01*
%TO.C,R63*%
X68590000Y-73370000D02*
X68590000Y-75980000D01*
X69960000Y-72000000D02*
G75*
G02*
X67220000Y-72000000I-1370000J0D01*
G01*
X67220000Y-72000000D02*
G75*
G02*
X69960000Y-72000000I1370000J0D01*
G01*
%TO.C,R51*%
X49870000Y-88770000D02*
X49870000Y-91380000D01*
X51240000Y-87400000D02*
G75*
G02*
X48500000Y-87400000I-1370000J0D01*
G01*
X48500000Y-87400000D02*
G75*
G02*
X51240000Y-87400000I1370000J0D01*
G01*
%TO.C,R14*%
X41090000Y-31240000D02*
X43700000Y-31240000D01*
X41090000Y-31240000D02*
G75*
G02*
X38350000Y-31240000I-1370000J0D01*
G01*
X38350000Y-31240000D02*
G75*
G02*
X41090000Y-31240000I1370000J0D01*
G01*
%TO.C,R26*%
X87170000Y-24255000D02*
X89780000Y-24255000D01*
X87170000Y-24255000D02*
G75*
G02*
X84430000Y-24255000I-1370000J0D01*
G01*
X84430000Y-24255000D02*
G75*
G02*
X87170000Y-24255000I1370000J0D01*
G01*
%TO.C,R49*%
X49870000Y-73370000D02*
X49870000Y-75980000D01*
X51240000Y-72000000D02*
G75*
G02*
X48500000Y-72000000I-1370000J0D01*
G01*
X48500000Y-72000000D02*
G75*
G02*
X51240000Y-72000000I1370000J0D01*
G01*
%TO.C,R46*%
X79490000Y-49020000D02*
X82100000Y-49020000D01*
X79490000Y-49020000D02*
G75*
G02*
X76750000Y-49020000I-1370000J0D01*
G01*
X76750000Y-49020000D02*
G75*
G02*
X79490000Y-49020000I1370000J0D01*
G01*
%TO.C,Q26*%
X86540000Y-30550000D02*
X90140000Y-30550000D01*
X85983600Y-27601193D02*
G75*
G02*
X88340000Y-26100000I2356400J-1098807D01*
G01*
X86540000Y-30550000D02*
G75*
G02*
X86015816Y-29822795I1800000J1850000D01*
G01*
X88340000Y-26100000D02*
G75*
G02*
X90696400Y-27601193I0J-2600000D01*
G01*
X90664184Y-29822795D02*
G75*
G02*
X90140000Y-30550000I-2324184J1122795D01*
G01*
%TO.C,R40*%
X79490000Y-18540000D02*
X82100000Y-18540000D01*
X79490000Y-18540000D02*
G75*
G02*
X76750000Y-18540000I-1370000J0D01*
G01*
X76750000Y-18540000D02*
G75*
G02*
X79490000Y-18540000I1370000J0D01*
G01*
%TO.C,D7*%
X25664000Y-22640000D02*
X25820000Y-22640000D01*
X27980000Y-22640000D02*
X28136000Y-22640000D01*
X25664484Y-22640000D02*
G75*
G02*
X25820000Y-19408563I1235516J1560000D01*
G01*
X25820000Y-22120961D02*
G75*
G02*
X25820000Y-20039039I1080000J1040961D01*
G01*
X27980000Y-19408563D02*
G75*
G02*
X28135516Y-22640000I-1080000J-1671437D01*
G01*
X27980000Y-20039039D02*
G75*
G02*
X27980000Y-22120961I-1080000J-1040961D01*
G01*
%TO.C,R55*%
X37870000Y-73370000D02*
X37870000Y-75980000D01*
X39240000Y-72000000D02*
G75*
G02*
X36500000Y-72000000I-1370000J0D01*
G01*
X36500000Y-72000000D02*
G75*
G02*
X39240000Y-72000000I1370000J0D01*
G01*
%TO.C,C2*%
X93960000Y-27000000D02*
X92420000Y-27000000D01*
X93960000Y-27040000D02*
X92420000Y-27040000D01*
X93960000Y-27080000D02*
X92421000Y-27080000D01*
X93960000Y-27120000D02*
X92423000Y-27120000D01*
X93960000Y-27160000D02*
X92425000Y-27160000D01*
X93960000Y-27200000D02*
X92428000Y-27200000D01*
X93960000Y-27240000D02*
X92431000Y-27240000D01*
X93960000Y-27280000D02*
X92435000Y-27280000D01*
X93960000Y-27320000D02*
X92440000Y-27320000D01*
X93960000Y-27360000D02*
X92445000Y-27360000D01*
X93960000Y-27400000D02*
X92451000Y-27400000D01*
X93960000Y-27440000D02*
X92457000Y-27440000D01*
X93960000Y-27480000D02*
X92464000Y-27480000D01*
X93960000Y-27520000D02*
X92472000Y-27520000D01*
X93960000Y-27560000D02*
X92481000Y-27560000D01*
X93960000Y-27600000D02*
X92490000Y-27600000D01*
X93960000Y-27640000D02*
X92499000Y-27640000D01*
X93960000Y-27680000D02*
X92510000Y-27680000D01*
X93960000Y-27720000D02*
X92521000Y-27720000D01*
X93960000Y-27760000D02*
X92533000Y-27760000D01*
X93960000Y-27800000D02*
X92545000Y-27800000D01*
X93960000Y-27840000D02*
X92558000Y-27840000D01*
X93960000Y-27880000D02*
X92572000Y-27880000D01*
X93960000Y-27920000D02*
X92587000Y-27920000D01*
X93960000Y-27960000D02*
X92602000Y-27960000D01*
X93960000Y-28000000D02*
X92618000Y-28000000D01*
X93960000Y-28040000D02*
X92635000Y-28040000D01*
X93960000Y-28080000D02*
X92653000Y-28080000D01*
X93960000Y-28120000D02*
X92671000Y-28120000D01*
X93960000Y-28160000D02*
X92691000Y-28160000D01*
X93960000Y-28200000D02*
X92711000Y-28200000D01*
X93960000Y-28240000D02*
X92732000Y-28240000D01*
X93960000Y-28280000D02*
X92754000Y-28280000D01*
X93960000Y-28320000D02*
X92777000Y-28320000D01*
X93960000Y-28360000D02*
X92801000Y-28360000D01*
X93960000Y-28400000D02*
X92825000Y-28400000D01*
X93960000Y-28440000D02*
X92851000Y-28440000D01*
X93960000Y-28480000D02*
X92878000Y-28480000D01*
X93960000Y-28520000D02*
X92906000Y-28520000D01*
X93960000Y-28560000D02*
X92935000Y-28560000D01*
X93960000Y-28600000D02*
X92965000Y-28600000D01*
X93960000Y-28640000D02*
X92997000Y-28640000D01*
X93960000Y-28680000D02*
X93030000Y-28680000D01*
X93960000Y-28720000D02*
X93064000Y-28720000D01*
X93960000Y-28760000D02*
X93099000Y-28760000D01*
X93960000Y-28800000D02*
X93136000Y-28800000D01*
X93960000Y-28840000D02*
X93175000Y-28840000D01*
X93960000Y-28880000D02*
X93215000Y-28880000D01*
X93960000Y-28920000D02*
X93257000Y-28920000D01*
X93960000Y-28960000D02*
X93301000Y-28960000D01*
X93960000Y-29000000D02*
X93348000Y-29000000D01*
X95283000Y-29600000D02*
X94717000Y-29600000D01*
X95517000Y-29560000D02*
X94483000Y-29560000D01*
X95677000Y-29520000D02*
X94323000Y-29520000D01*
X95805000Y-29480000D02*
X94195000Y-29480000D01*
X95914000Y-29440000D02*
X94086000Y-29440000D01*
X96011000Y-29400000D02*
X93989000Y-29400000D01*
X96098000Y-29360000D02*
X93902000Y-29360000D01*
X96177000Y-29320000D02*
X93823000Y-29320000D01*
X96251000Y-29280000D02*
X93749000Y-29280000D01*
X96319000Y-29240000D02*
X93681000Y-29240000D01*
X96383000Y-29200000D02*
X93617000Y-29200000D01*
X96443000Y-29160000D02*
X93557000Y-29160000D01*
X96475000Y-24195225D02*
X96475000Y-24695225D01*
X96499000Y-29120000D02*
X93501000Y-29120000D01*
X96553000Y-29080000D02*
X93447000Y-29080000D01*
X96604000Y-29040000D02*
X93396000Y-29040000D01*
X96652000Y-29000000D02*
X96040000Y-29000000D01*
X96699000Y-28960000D02*
X96040000Y-28960000D01*
X96725000Y-24445225D02*
X96225000Y-24445225D01*
X96743000Y-28920000D02*
X96040000Y-28920000D01*
X96785000Y-28880000D02*
X96040000Y-28880000D01*
X96825000Y-28840000D02*
X96040000Y-28840000D01*
X96864000Y-28800000D02*
X96040000Y-28800000D01*
X96901000Y-28760000D02*
X96040000Y-28760000D01*
X96936000Y-28720000D02*
X96040000Y-28720000D01*
X96970000Y-28680000D02*
X96040000Y-28680000D01*
X97003000Y-28640000D02*
X96040000Y-28640000D01*
X97035000Y-28600000D02*
X96040000Y-28600000D01*
X97065000Y-28560000D02*
X96040000Y-28560000D01*
X97094000Y-28520000D02*
X96040000Y-28520000D01*
X97122000Y-28480000D02*
X96040000Y-28480000D01*
X97149000Y-28440000D02*
X96040000Y-28440000D01*
X97175000Y-28400000D02*
X96040000Y-28400000D01*
X97199000Y-28360000D02*
X96040000Y-28360000D01*
X97223000Y-28320000D02*
X96040000Y-28320000D01*
X97246000Y-28280000D02*
X96040000Y-28280000D01*
X97268000Y-28240000D02*
X96040000Y-28240000D01*
X97289000Y-28200000D02*
X96040000Y-28200000D01*
X97309000Y-28160000D02*
X96040000Y-28160000D01*
X97329000Y-28120000D02*
X96040000Y-28120000D01*
X97347000Y-28080000D02*
X96040000Y-28080000D01*
X97365000Y-28040000D02*
X96040000Y-28040000D01*
X97382000Y-28000000D02*
X96040000Y-28000000D01*
X97398000Y-27960000D02*
X96040000Y-27960000D01*
X97413000Y-27920000D02*
X96040000Y-27920000D01*
X97428000Y-27880000D02*
X96040000Y-27880000D01*
X97442000Y-27840000D02*
X96040000Y-27840000D01*
X97455000Y-27800000D02*
X96040000Y-27800000D01*
X97467000Y-27760000D02*
X96040000Y-27760000D01*
X97479000Y-27720000D02*
X96040000Y-27720000D01*
X97490000Y-27680000D02*
X96040000Y-27680000D01*
X97501000Y-27640000D02*
X96040000Y-27640000D01*
X97510000Y-27600000D02*
X96040000Y-27600000D01*
X97519000Y-27560000D02*
X96040000Y-27560000D01*
X97528000Y-27520000D02*
X96040000Y-27520000D01*
X97536000Y-27480000D02*
X96040000Y-27480000D01*
X97543000Y-27440000D02*
X96040000Y-27440000D01*
X97549000Y-27400000D02*
X96040000Y-27400000D01*
X97555000Y-27360000D02*
X96040000Y-27360000D01*
X97560000Y-27320000D02*
X96040000Y-27320000D01*
X97565000Y-27280000D02*
X96040000Y-27280000D01*
X97569000Y-27240000D02*
X96040000Y-27240000D01*
X97572000Y-27200000D02*
X96040000Y-27200000D01*
X97575000Y-27160000D02*
X96040000Y-27160000D01*
X97577000Y-27120000D02*
X96040000Y-27120000D01*
X97579000Y-27080000D02*
X96040000Y-27080000D01*
X97580000Y-27000000D02*
X96040000Y-27000000D01*
X97580000Y-27040000D02*
X96040000Y-27040000D01*
X97620000Y-27000000D02*
G75*
G02*
X92380000Y-27000000I-2620000J0D01*
G01*
X92380000Y-27000000D02*
G75*
G02*
X97620000Y-27000000I2620000J0D01*
G01*
%TO.C,Q3*%
X9740000Y-59125000D02*
X13340000Y-59125000D01*
X9183600Y-56176193D02*
G75*
G02*
X11540000Y-54675000I2356400J-1098807D01*
G01*
X9740000Y-59125000D02*
G75*
G02*
X9215816Y-58397795I1800000J1850000D01*
G01*
X11540000Y-54675000D02*
G75*
G02*
X13896400Y-56176193I0J-2600000D01*
G01*
X13864184Y-58397795D02*
G75*
G02*
X13340000Y-59125000I-2324184J1122795D01*
G01*
%TO.C,R34*%
X71810000Y-38860000D02*
X74420000Y-38860000D01*
X71810000Y-38860000D02*
G75*
G02*
X69070000Y-38860000I-1370000J0D01*
G01*
X69070000Y-38860000D02*
G75*
G02*
X71810000Y-38860000I1370000J0D01*
G01*
%TO.C,R30*%
X71810000Y-18540000D02*
X74420000Y-18540000D01*
X71810000Y-18540000D02*
G75*
G02*
X69070000Y-18540000I-1370000J0D01*
G01*
X69070000Y-18540000D02*
G75*
G02*
X71810000Y-18540000I1370000J0D01*
G01*
%TO.C,Q20*%
X55820000Y-43885000D02*
X59420000Y-43885000D01*
X55263600Y-40936193D02*
G75*
G02*
X57620000Y-39435000I2356400J-1098807D01*
G01*
X55820000Y-43885000D02*
G75*
G02*
X55295816Y-43157795I1800000J1850000D01*
G01*
X57620000Y-39435000D02*
G75*
G02*
X59976400Y-40936193I0J-2600000D01*
G01*
X59944184Y-43157795D02*
G75*
G02*
X59420000Y-43885000I-2324184J1122795D01*
G01*
%TO.C,D6*%
X17984000Y-53120000D02*
X18140000Y-53120000D01*
X20300000Y-53120000D02*
X20456000Y-53120000D01*
X17984484Y-53120000D02*
G75*
G02*
X18140000Y-49888563I1235516J1560000D01*
G01*
X18140000Y-52600961D02*
G75*
G02*
X18140000Y-50519039I1080000J1040961D01*
G01*
X20300000Y-49888563D02*
G75*
G02*
X20455516Y-53120000I-1080000J-1671437D01*
G01*
X20300000Y-50519039D02*
G75*
G02*
X20300000Y-52600961I-1080000J-1040961D01*
G01*
%TO.C,D8*%
X25664000Y-37880000D02*
X25820000Y-37880000D01*
X27980000Y-37880000D02*
X28136000Y-37880000D01*
X25664484Y-37880000D02*
G75*
G02*
X25820000Y-34648563I1235516J1560000D01*
G01*
X25820000Y-37360961D02*
G75*
G02*
X25820000Y-35279039I1080000J1040961D01*
G01*
X27980000Y-34648563D02*
G75*
G02*
X28135516Y-37880000I-1080000J-1671437D01*
G01*
X27980000Y-35279039D02*
G75*
G02*
X27980000Y-37360961I-1080000J-1040961D01*
G01*
%TO.C,R25*%
X87170000Y-16000000D02*
X89780000Y-16000000D01*
X87170000Y-16000000D02*
G75*
G02*
X84430000Y-16000000I-1370000J0D01*
G01*
X84430000Y-16000000D02*
G75*
G02*
X87170000Y-16000000I1370000J0D01*
G01*
%TO.C,C1*%
X93630000Y-15130000D02*
X96370000Y-15130000D01*
X93630000Y-20370000D02*
X93630000Y-15130000D01*
X96370000Y-15130000D02*
X96370000Y-20370000D01*
X96370000Y-20370000D02*
X93630000Y-20370000D01*
%TO.C,D3*%
X10304000Y-53120000D02*
X10460000Y-53120000D01*
X12620000Y-53120000D02*
X12776000Y-53120000D01*
X10304484Y-53120000D02*
G75*
G02*
X10460000Y-49888563I1235516J1560000D01*
G01*
X10460000Y-52600961D02*
G75*
G02*
X10460000Y-50519039I1080000J1040961D01*
G01*
X12620000Y-49888563D02*
G75*
G02*
X12775516Y-53120000I-1080000J-1671437D01*
G01*
X12620000Y-50519039D02*
G75*
G02*
X12620000Y-52600961I-1080000J-1040961D01*
G01*
%TO.C,D21*%
X56384000Y-53120000D02*
X56540000Y-53120000D01*
X58700000Y-53120000D02*
X58856000Y-53120000D01*
X56384484Y-53120000D02*
G75*
G02*
X56540000Y-49888563I1235516J1560000D01*
G01*
X56540000Y-52600961D02*
G75*
G02*
X56540000Y-50519039I1080000J1040961D01*
G01*
X58700000Y-49888563D02*
G75*
G02*
X58855516Y-53120000I-1080000J-1671437D01*
G01*
X58700000Y-50519039D02*
G75*
G02*
X58700000Y-52600961I-1080000J-1040961D01*
G01*
%TO.C,Q22*%
X67100000Y-24945000D02*
X63500000Y-24945000D01*
X62975816Y-25672205D02*
G75*
G02*
X63500000Y-24945000I2324184J-1122795D01*
G01*
X65300000Y-29395000D02*
G75*
G02*
X62943600Y-27893807I0J2600000D01*
G01*
X67100000Y-24945000D02*
G75*
G02*
X67624184Y-25672205I-1800000J-1850000D01*
G01*
X67656400Y-27893807D02*
G75*
G02*
X65300000Y-29395000I-2356400J1098807D01*
G01*
%TO.C,D1*%
X10304000Y-22640000D02*
X10460000Y-22640000D01*
X12620000Y-22640000D02*
X12776000Y-22640000D01*
X10304484Y-22640000D02*
G75*
G02*
X10460000Y-19408563I1235516J1560000D01*
G01*
X10460000Y-22120961D02*
G75*
G02*
X10460000Y-20039039I1080000J1040961D01*
G01*
X12620000Y-19408563D02*
G75*
G02*
X12775516Y-22640000I-1080000J-1671437D01*
G01*
X12620000Y-20039039D02*
G75*
G02*
X12620000Y-22120961I-1080000J-1040961D01*
G01*
%TO.C,Q6*%
X21020000Y-55425000D02*
X17420000Y-55425000D01*
X16895816Y-56152205D02*
G75*
G02*
X17420000Y-55425000I2324184J-1122795D01*
G01*
X19220000Y-59875000D02*
G75*
G02*
X16863600Y-58373807I0J2600000D01*
G01*
X21020000Y-55425000D02*
G75*
G02*
X21544184Y-56152205I-1800000J-1850000D01*
G01*
X21576400Y-58373807D02*
G75*
G02*
X19220000Y-59875000I-2356400J1098807D01*
G01*
%TO.C,D13*%
X41024000Y-22640000D02*
X41180000Y-22640000D01*
X43340000Y-22640000D02*
X43496000Y-22640000D01*
X41024484Y-22640000D02*
G75*
G02*
X41180000Y-19408563I1235516J1560000D01*
G01*
X41180000Y-22120961D02*
G75*
G02*
X41180000Y-20039039I1080000J1040961D01*
G01*
X43340000Y-19408563D02*
G75*
G02*
X43495516Y-22640000I-1080000J-1671437D01*
G01*
X43340000Y-20039039D02*
G75*
G02*
X43340000Y-22120961I-1080000J-1040961D01*
G01*
%TO.C,R31*%
X71810000Y-23620000D02*
X74420000Y-23620000D01*
X71810000Y-23620000D02*
G75*
G02*
X69070000Y-23620000I-1370000J0D01*
G01*
X69070000Y-23620000D02*
G75*
G02*
X71810000Y-23620000I1370000J0D01*
G01*
%TO.C,Q9*%
X25100000Y-59125000D02*
X28700000Y-59125000D01*
X24543600Y-56176193D02*
G75*
G02*
X26900000Y-54675000I2356400J-1098807D01*
G01*
X25100000Y-59125000D02*
G75*
G02*
X24575816Y-58397795I1800000J1850000D01*
G01*
X26900000Y-54675000D02*
G75*
G02*
X29256400Y-56176193I0J-2600000D01*
G01*
X29224184Y-58397795D02*
G75*
G02*
X28700000Y-59125000I-2324184J1122795D01*
G01*
%TO.C,R5*%
X18050000Y-31240000D02*
X20660000Y-31240000D01*
X18050000Y-31240000D02*
G75*
G02*
X15310000Y-31240000I-1370000J0D01*
G01*
X15310000Y-31240000D02*
G75*
G02*
X18050000Y-31240000I1370000J0D01*
G01*
%TO.C,Q18*%
X51740000Y-55425000D02*
X48140000Y-55425000D01*
X47615816Y-56152205D02*
G75*
G02*
X48140000Y-55425000I2324184J-1122795D01*
G01*
X49940000Y-59875000D02*
G75*
G02*
X47583600Y-58373807I0J2600000D01*
G01*
X51740000Y-55425000D02*
G75*
G02*
X52264184Y-56152205I-1800000J-1850000D01*
G01*
X52296400Y-58373807D02*
G75*
G02*
X49940000Y-59875000I-2356400J1098807D01*
G01*
%TO.C,R12*%
X33410000Y-46480000D02*
X36020000Y-46480000D01*
X33410000Y-46480000D02*
G75*
G02*
X30670000Y-46480000I-1370000J0D01*
G01*
X30670000Y-46480000D02*
G75*
G02*
X33410000Y-46480000I1370000J0D01*
G01*
%TO.C,R15*%
X41090000Y-46480000D02*
X43700000Y-46480000D01*
X41090000Y-46480000D02*
G75*
G02*
X38350000Y-46480000I-1370000J0D01*
G01*
X38350000Y-46480000D02*
G75*
G02*
X41090000Y-46480000I1370000J0D01*
G01*
%TO.C,R33*%
X71810000Y-33780000D02*
X74420000Y-33780000D01*
X71810000Y-33780000D02*
G75*
G02*
X69070000Y-33780000I-1370000J0D01*
G01*
X69070000Y-33780000D02*
G75*
G02*
X71810000Y-33780000I1370000J0D01*
G01*
%TO.C,D19*%
X56384000Y-22640000D02*
X56540000Y-22640000D01*
X58700000Y-22640000D02*
X58856000Y-22640000D01*
X56384484Y-22640000D02*
G75*
G02*
X56540000Y-19408563I1235516J1560000D01*
G01*
X56540000Y-22120961D02*
G75*
G02*
X56540000Y-20039039I1080000J1040961D01*
G01*
X58700000Y-19408563D02*
G75*
G02*
X58855516Y-22640000I-1080000J-1671437D01*
G01*
X58700000Y-20039039D02*
G75*
G02*
X58700000Y-22120961I-1080000J-1040961D01*
G01*
%TO.C,R58*%
X80590000Y-81070000D02*
X80590000Y-83680000D01*
X81960000Y-79700000D02*
G75*
G02*
X79220000Y-79700000I-1370000J0D01*
G01*
X79220000Y-79700000D02*
G75*
G02*
X81960000Y-79700000I1370000J0D01*
G01*
%TO.C,Q5*%
X21020000Y-40185000D02*
X17420000Y-40185000D01*
X16895816Y-40912205D02*
G75*
G02*
X17420000Y-40185000I2324184J-1122795D01*
G01*
X19220000Y-44635000D02*
G75*
G02*
X16863600Y-43133807I0J2600000D01*
G01*
X21020000Y-40185000D02*
G75*
G02*
X21544184Y-40912205I-1800000J-1850000D01*
G01*
X21576400Y-43133807D02*
G75*
G02*
X19220000Y-44635000I-2356400J1098807D01*
G01*
%TO.C,R50*%
X49870000Y-81070000D02*
X49870000Y-83680000D01*
X51240000Y-79700000D02*
G75*
G02*
X48500000Y-79700000I-1370000J0D01*
G01*
X48500000Y-79700000D02*
G75*
G02*
X51240000Y-79700000I1370000J0D01*
G01*
%TO.C,D24*%
X64064000Y-53120000D02*
X64220000Y-53120000D01*
X66380000Y-53120000D02*
X66536000Y-53120000D01*
X64064484Y-53120000D02*
G75*
G02*
X64220000Y-49888563I1235516J1560000D01*
G01*
X64220000Y-52600961D02*
G75*
G02*
X64220000Y-50519039I1080000J1040961D01*
G01*
X66380000Y-49888563D02*
G75*
G02*
X66535516Y-53120000I-1080000J-1671437D01*
G01*
X66380000Y-50519039D02*
G75*
G02*
X66380000Y-52600961I-1080000J-1040961D01*
G01*
%TO.C,R28*%
X87170000Y-40765000D02*
X89780000Y-40765000D01*
X87170000Y-40765000D02*
G75*
G02*
X84430000Y-40765000I-1370000J0D01*
G01*
X84430000Y-40765000D02*
G75*
G02*
X87170000Y-40765000I1370000J0D01*
G01*
%TO.C,Q17*%
X51740000Y-40185000D02*
X48140000Y-40185000D01*
X47615816Y-40912205D02*
G75*
G02*
X48140000Y-40185000I2324184J-1122795D01*
G01*
X49940000Y-44635000D02*
G75*
G02*
X47583600Y-43133807I0J2600000D01*
G01*
X51740000Y-40185000D02*
G75*
G02*
X52264184Y-40912205I-1800000J-1850000D01*
G01*
X52296400Y-43133807D02*
G75*
G02*
X49940000Y-44635000I-2356400J1098807D01*
G01*
%TO.C,R17*%
X48770000Y-31240000D02*
X51380000Y-31240000D01*
X48770000Y-31240000D02*
G75*
G02*
X46030000Y-31240000I-1370000J0D01*
G01*
X46030000Y-31240000D02*
G75*
G02*
X48770000Y-31240000I1370000J0D01*
G01*
%TO.C,R39*%
X71810000Y-64260000D02*
X74420000Y-64260000D01*
X71810000Y-64260000D02*
G75*
G02*
X69070000Y-64260000I-1370000J0D01*
G01*
X69070000Y-64260000D02*
G75*
G02*
X71810000Y-64260000I1370000J0D01*
G01*
%TO.C,D5*%
X17984000Y-37880000D02*
X18140000Y-37880000D01*
X20300000Y-37880000D02*
X20456000Y-37880000D01*
X17984484Y-37880000D02*
G75*
G02*
X18140000Y-34648563I1235516J1560000D01*
G01*
X18140000Y-37360961D02*
G75*
G02*
X18140000Y-35279039I1080000J1040961D01*
G01*
X20300000Y-34648563D02*
G75*
G02*
X20455516Y-37880000I-1080000J-1671437D01*
G01*
X20300000Y-35279039D02*
G75*
G02*
X20300000Y-37360961I-1080000J-1040961D01*
G01*
%TO.C,Q27*%
X86540000Y-38805000D02*
X90140000Y-38805000D01*
X85983600Y-35856193D02*
G75*
G02*
X88340000Y-34355000I2356400J-1098807D01*
G01*
X86540000Y-38805000D02*
G75*
G02*
X86015816Y-38077795I1800000J1850000D01*
G01*
X88340000Y-34355000D02*
G75*
G02*
X90696400Y-35856193I0J-2600000D01*
G01*
X90664184Y-38077795D02*
G75*
G02*
X90140000Y-38805000I-2324184J1122795D01*
G01*
%TO.C,R59*%
X80590000Y-88770000D02*
X80590000Y-91380000D01*
X81960000Y-87400000D02*
G75*
G02*
X79220000Y-87400000I-1370000J0D01*
G01*
X79220000Y-87400000D02*
G75*
G02*
X81960000Y-87400000I1370000J0D01*
G01*
%TO.C,R24*%
X64130000Y-46480000D02*
X66740000Y-46480000D01*
X64130000Y-46480000D02*
G75*
G02*
X61390000Y-46480000I-1370000J0D01*
G01*
X61390000Y-46480000D02*
G75*
G02*
X64130000Y-46480000I1370000J0D01*
G01*
%TO.C,SW1*%
X52490000Y-69340000D02*
X52490000Y-70723000D01*
X52490000Y-69340000D02*
X53873000Y-69340000D01*
X52730000Y-69580000D02*
X52730000Y-92200000D01*
X52730000Y-69580000D02*
X62630000Y-69580000D01*
X52730000Y-92200000D02*
X62630000Y-92200000D01*
X57003333Y-71365000D02*
X57003333Y-72635000D01*
X57003333Y-73905000D02*
X57003333Y-75175000D01*
X57003333Y-76445000D02*
X57003333Y-77715000D01*
X57003333Y-78985000D02*
X57003333Y-80255000D01*
X57003333Y-81525000D02*
X57003333Y-82795000D01*
X57003333Y-84065000D02*
X57003333Y-85335000D01*
X57003333Y-86605000D02*
X57003333Y-87875000D01*
X57003333Y-89145000D02*
X57003333Y-90415000D01*
X62630000Y-69580000D02*
X62630000Y-92200000D01*
X55650000Y-71365000D02*
X57003333Y-71365000D01*
X57003333Y-72635000D01*
X55650000Y-72635000D01*
X55650000Y-71365000D01*
G36*
X55650000Y-71365000D02*
G01*
X57003333Y-71365000D01*
X57003333Y-72635000D01*
X55650000Y-72635000D01*
X55650000Y-71365000D01*
G37*
X55650000Y-71365000D02*
X59710000Y-71365000D01*
X59710000Y-72635000D01*
X55650000Y-72635000D01*
X55650000Y-71365000D01*
X55650000Y-73905000D02*
X57003333Y-73905000D01*
X57003333Y-75175000D01*
X55650000Y-75175000D01*
X55650000Y-73905000D01*
G36*
X55650000Y-73905000D02*
G01*
X57003333Y-73905000D01*
X57003333Y-75175000D01*
X55650000Y-75175000D01*
X55650000Y-73905000D01*
G37*
X55650000Y-73905000D02*
X59710000Y-73905000D01*
X59710000Y-75175000D01*
X55650000Y-75175000D01*
X55650000Y-73905000D01*
X55650000Y-76445000D02*
X57003333Y-76445000D01*
X57003333Y-77715000D01*
X55650000Y-77715000D01*
X55650000Y-76445000D01*
G36*
X55650000Y-76445000D02*
G01*
X57003333Y-76445000D01*
X57003333Y-77715000D01*
X55650000Y-77715000D01*
X55650000Y-76445000D01*
G37*
X55650000Y-76445000D02*
X59710000Y-76445000D01*
X59710000Y-77715000D01*
X55650000Y-77715000D01*
X55650000Y-76445000D01*
X55650000Y-78985000D02*
X57003333Y-78985000D01*
X57003333Y-80255000D01*
X55650000Y-80255000D01*
X55650000Y-78985000D01*
G36*
X55650000Y-78985000D02*
G01*
X57003333Y-78985000D01*
X57003333Y-80255000D01*
X55650000Y-80255000D01*
X55650000Y-78985000D01*
G37*
X55650000Y-78985000D02*
X59710000Y-78985000D01*
X59710000Y-80255000D01*
X55650000Y-80255000D01*
X55650000Y-78985000D01*
X55650000Y-81525000D02*
X57003333Y-81525000D01*
X57003333Y-82795000D01*
X55650000Y-82795000D01*
X55650000Y-81525000D01*
G36*
X55650000Y-81525000D02*
G01*
X57003333Y-81525000D01*
X57003333Y-82795000D01*
X55650000Y-82795000D01*
X55650000Y-81525000D01*
G37*
X55650000Y-81525000D02*
X59710000Y-81525000D01*
X59710000Y-82795000D01*
X55650000Y-82795000D01*
X55650000Y-81525000D01*
X55650000Y-84065000D02*
X57003333Y-84065000D01*
X57003333Y-85335000D01*
X55650000Y-85335000D01*
X55650000Y-84065000D01*
G36*
X55650000Y-84065000D02*
G01*
X57003333Y-84065000D01*
X57003333Y-85335000D01*
X55650000Y-85335000D01*
X55650000Y-84065000D01*
G37*
X55650000Y-84065000D02*
X59710000Y-84065000D01*
X59710000Y-85335000D01*
X55650000Y-85335000D01*
X55650000Y-84065000D01*
X55650000Y-86605000D02*
X57003333Y-86605000D01*
X57003333Y-87875000D01*
X55650000Y-87875000D01*
X55650000Y-86605000D01*
G36*
X55650000Y-86605000D02*
G01*
X57003333Y-86605000D01*
X57003333Y-87875000D01*
X55650000Y-87875000D01*
X55650000Y-86605000D01*
G37*
X55650000Y-86605000D02*
X59710000Y-86605000D01*
X59710000Y-87875000D01*
X55650000Y-87875000D01*
X55650000Y-86605000D01*
X55650000Y-89145000D02*
X57003333Y-89145000D01*
X57003333Y-90415000D01*
X55650000Y-90415000D01*
X55650000Y-89145000D01*
G36*
X55650000Y-89145000D02*
G01*
X57003333Y-89145000D01*
X57003333Y-90415000D01*
X55650000Y-90415000D01*
X55650000Y-89145000D01*
G37*
X55650000Y-89145000D02*
X59710000Y-89145000D01*
X59710000Y-90415000D01*
X55650000Y-90415000D01*
X55650000Y-89145000D01*
%TO.C,R35*%
X71810000Y-43940000D02*
X74420000Y-43940000D01*
X71810000Y-43940000D02*
G75*
G02*
X69070000Y-43940000I-1370000J0D01*
G01*
X69070000Y-43940000D02*
G75*
G02*
X71810000Y-43940000I1370000J0D01*
G01*
%TO.C,Q14*%
X40460000Y-43885000D02*
X44060000Y-43885000D01*
X39903600Y-40936193D02*
G75*
G02*
X42260000Y-39435000I2356400J-1098807D01*
G01*
X40460000Y-43885000D02*
G75*
G02*
X39935816Y-43157795I1800000J1850000D01*
G01*
X42260000Y-39435000D02*
G75*
G02*
X44616400Y-40936193I0J-2600000D01*
G01*
X44584184Y-43157795D02*
G75*
G02*
X44060000Y-43885000I-2324184J1122795D01*
G01*
%TO.C,R10*%
X33410000Y-16000000D02*
X36020000Y-16000000D01*
X33410000Y-16000000D02*
G75*
G02*
X30670000Y-16000000I-1370000J0D01*
G01*
X30670000Y-16000000D02*
G75*
G02*
X33410000Y-16000000I1370000J0D01*
G01*
%TO.C,R20*%
X56450000Y-31240000D02*
X59060000Y-31240000D01*
X56450000Y-31240000D02*
G75*
G02*
X53710000Y-31240000I-1370000J0D01*
G01*
X53710000Y-31240000D02*
G75*
G02*
X56450000Y-31240000I1370000J0D01*
G01*
%TO.C,R48*%
X79490000Y-59180000D02*
X82100000Y-59180000D01*
X79490000Y-59180000D02*
G75*
G02*
X76750000Y-59180000I-1370000J0D01*
G01*
X76750000Y-59180000D02*
G75*
G02*
X79490000Y-59180000I1370000J0D01*
G01*
%TO.C,D11*%
X33344000Y-37880000D02*
X33500000Y-37880000D01*
X35660000Y-37880000D02*
X35816000Y-37880000D01*
X33344484Y-37880000D02*
G75*
G02*
X33500000Y-34648563I1235516J1560000D01*
G01*
X33500000Y-37360961D02*
G75*
G02*
X33500000Y-35279039I1080000J1040961D01*
G01*
X35660000Y-34648563D02*
G75*
G02*
X35815516Y-37880000I-1080000J-1671437D01*
G01*
X35660000Y-35279039D02*
G75*
G02*
X35660000Y-37360961I-1080000J-1040961D01*
G01*
%TO.C,R36*%
X71810000Y-49020000D02*
X74420000Y-49020000D01*
X71810000Y-49020000D02*
G75*
G02*
X69070000Y-49020000I-1370000J0D01*
G01*
X69070000Y-49020000D02*
G75*
G02*
X71810000Y-49020000I1370000J0D01*
G01*
%TO.C,D12*%
X33344000Y-53120000D02*
X33500000Y-53120000D01*
X35660000Y-53120000D02*
X35816000Y-53120000D01*
X33344484Y-53120000D02*
G75*
G02*
X33500000Y-49888563I1235516J1560000D01*
G01*
X33500000Y-52600961D02*
G75*
G02*
X33500000Y-50519039I1080000J1040961D01*
G01*
X35660000Y-49888563D02*
G75*
G02*
X35815516Y-53120000I-1080000J-1671437D01*
G01*
X35660000Y-50519039D02*
G75*
G02*
X35660000Y-52600961I-1080000J-1040961D01*
G01*
%TO.C,D18*%
X48704000Y-53120000D02*
X48860000Y-53120000D01*
X51020000Y-53120000D02*
X51176000Y-53120000D01*
X48704484Y-53120000D02*
G75*
G02*
X48860000Y-49888563I1235516J1560000D01*
G01*
X48860000Y-52600961D02*
G75*
G02*
X48860000Y-50519039I1080000J1040961D01*
G01*
X51020000Y-49888563D02*
G75*
G02*
X51175516Y-53120000I-1080000J-1671437D01*
G01*
X51020000Y-50519039D02*
G75*
G02*
X51020000Y-52600961I-1080000J-1040961D01*
G01*
%TO.C,R41*%
X79490000Y-23620000D02*
X82100000Y-23620000D01*
X79490000Y-23620000D02*
G75*
G02*
X76750000Y-23620000I-1370000J0D01*
G01*
X76750000Y-23620000D02*
G75*
G02*
X79490000Y-23620000I1370000J0D01*
G01*
%TO.C,R56*%
X37870000Y-81070000D02*
X37870000Y-83680000D01*
X39240000Y-79700000D02*
G75*
G02*
X36500000Y-79700000I-1370000J0D01*
G01*
X36500000Y-79700000D02*
G75*
G02*
X39240000Y-79700000I1370000J0D01*
G01*
%TO.C,R64*%
X68590000Y-81070000D02*
X68590000Y-83680000D01*
X69960000Y-79700000D02*
G75*
G02*
X67220000Y-79700000I-1370000J0D01*
G01*
X67220000Y-79700000D02*
G75*
G02*
X69960000Y-79700000I1370000J0D01*
G01*
%TO.C,R54*%
X43870000Y-88770000D02*
X43870000Y-91380000D01*
X45240000Y-87400000D02*
G75*
G02*
X42500000Y-87400000I-1370000J0D01*
G01*
X42500000Y-87400000D02*
G75*
G02*
X45240000Y-87400000I1370000J0D01*
G01*
%TO.C,Q4*%
X21020000Y-24945000D02*
X17420000Y-24945000D01*
X16895816Y-25672205D02*
G75*
G02*
X17420000Y-24945000I2324184J-1122795D01*
G01*
X19220000Y-29395000D02*
G75*
G02*
X16863600Y-27893807I0J2600000D01*
G01*
X21020000Y-24945000D02*
G75*
G02*
X21544184Y-25672205I-1800000J-1850000D01*
G01*
X21576400Y-27893807D02*
G75*
G02*
X19220000Y-29395000I-2356400J1098807D01*
G01*
%TO.C,R47*%
X79490000Y-54100000D02*
X82100000Y-54100000D01*
X79490000Y-54100000D02*
G75*
G02*
X76750000Y-54100000I-1370000J0D01*
G01*
X76750000Y-54100000D02*
G75*
G02*
X79490000Y-54100000I1370000J0D01*
G01*
%TO.C,R42*%
X79490000Y-28700000D02*
X82100000Y-28700000D01*
X79490000Y-28700000D02*
G75*
G02*
X76750000Y-28700000I-1370000J0D01*
G01*
X76750000Y-28700000D02*
G75*
G02*
X79490000Y-28700000I1370000J0D01*
G01*
%TD*%
M02*
