%TF.GenerationSoftware,KiCad,Pcbnew,10.0.5*%
%TF.CreationDate,2026-09-11T06:42:10-04:00*%
%TF.ProjectId,panela,70616e65-6c61-42e6-9b69-6361645f7063,rev?*%
%TF.SameCoordinates,Original*%
%TF.FileFunction,Copper,L1,Top*%
%TF.FilePolarity,Positive*%
%FSLAX46Y46*%
G04 Gerber Fmt 4.6, Leading zero omitted, Abs format (unit mm)*
G04 Created by KiCad (PCBNEW 10.0.5) date 2026-09-11 06:42:10*
%MOMM*%
%LPD*%
G01*
G04 APERTURE LIST*
G04 Aperture macros list*
%AMRoundRect*
0 Rectangle with rounded corners*
0 $1 Rounding radius*
0 $2 $3 $4 $5 $6 $7 $8 $9 X,Y pos of 4 corners*
0 Add a 4 corners polygon primitive as box body*
4,1,4,$2,$3,$4,$5,$6,$7,$8,$9,$2,$3,0*
0 Add four circle primitives for the rounded corners*
1,1,$1+$1,$2,$3*
1,1,$1+$1,$4,$5*
1,1,$1+$1,$6,$7*
1,1,$1+$1,$8,$9*
0 Add four rect primitives between the rounded corners*
20,1,$1+$1,$2,$3,$4,$5,0*
20,1,$1+$1,$4,$5,$6,$7,0*
20,1,$1+$1,$6,$7,$8,$9,0*
20,1,$1+$1,$8,$9,$2,$3,0*%
G04 Aperture macros list end*
%TA.AperFunction,ComponentPad*%
%ADD10R,1.800000X1.800000*%
%TD*%
%TA.AperFunction,ComponentPad*%
%ADD11C,1.800000*%
%TD*%
%TA.AperFunction,ComponentPad*%
%ADD12C,1.600000*%
%TD*%
%TA.AperFunction,ComponentPad*%
%ADD13R,1.500000X1.500000*%
%TD*%
%TA.AperFunction,ComponentPad*%
%ADD14C,1.500000*%
%TD*%
%TA.AperFunction,ComponentPad*%
%ADD15RoundRect,0.250000X-0.550000X-0.550000X0.550000X-0.550000X0.550000X0.550000X-0.550000X0.550000X0*%
%TD*%
%TA.AperFunction,ComponentPad*%
%ADD16C,6.400000*%
%TD*%
%TA.AperFunction,ComponentPad*%
%ADD17RoundRect,0.250000X-0.550000X0.550000X-0.550000X-0.550000X0.550000X-0.550000X0.550000X0.550000X0*%
%TD*%
%TA.AperFunction,ComponentPad*%
%ADD18RoundRect,0.250000X0.600000X-0.600000X0.600000X0.600000X-0.600000X0.600000X-0.600000X-0.600000X0*%
%TD*%
%TA.AperFunction,ComponentPad*%
%ADD19C,1.700000*%
%TD*%
%TA.AperFunction,ViaPad*%
%ADD20C,0.800000*%
%TD*%
%TA.AperFunction,ViaPad*%
%ADD21C,0.600000*%
%TD*%
%TA.AperFunction,Conductor*%
%ADD22C,0.500000*%
%TD*%
%TA.AperFunction,Conductor*%
%ADD23C,0.800000*%
%TD*%
%TA.AperFunction,Conductor*%
%ADD24C,0.200000*%
%TD*%
G04 APERTURE END LIST*
D10*
%TO.P,D22,1*%
%TO.N,Net-(D22-K)*%
X65300000Y-22350000D03*
D11*
%TO.P,D22,2*%
%TO.N,Net-(D22-A)*%
X65300000Y-19810000D03*
%TD*%
D12*
%TO.P,R38,1*%
%TO.N,GND*%
X70440000Y-59180000D03*
%TO.P,R38,2*%
%TO.N,EO*%
X75520000Y-59180000D03*
%TD*%
D10*
%TO.P,D16,1*%
%TO.N,Net-(D16-K)*%
X49940000Y-22350000D03*
D11*
%TO.P,D16,2*%
%TO.N,Net-(D16-A)*%
X49940000Y-19810000D03*
%TD*%
D13*
%TO.P,Q1,1*%
%TO.N,GND*%
X9000000Y-26795000D03*
D14*
%TO.P,Q1,2*%
%TO.N,A3*%
X11540000Y-26795000D03*
%TO.P,Q1,3*%
%TO.N,Net-(D1-K)*%
X14080000Y-26795000D03*
%TD*%
D12*
%TO.P,R8,1*%
%TO.N,Net-(D8-A)*%
X24360000Y-31240000D03*
%TO.P,R8,2*%
%TO.N,+5V*%
X29440000Y-31240000D03*
%TD*%
D13*
%TO.P,Q24,1*%
%TO.N,GND*%
X67840000Y-57275000D03*
D14*
%TO.P,Q24,2*%
%TO.N,AB*%
X65300000Y-57275000D03*
%TO.P,Q24,3*%
%TO.N,Net-(D24-K)*%
X62760000Y-57275000D03*
%TD*%
D10*
%TO.P,D20,1*%
%TO.N,Net-(D20-K)*%
X57620000Y-37590000D03*
D11*
%TO.P,D20,2*%
%TO.N,Net-(D20-A)*%
X57620000Y-35050000D03*
%TD*%
D10*
%TO.P,D9,1*%
%TO.N,Net-(D9-K)*%
X26900000Y-52830000D03*
D11*
%TO.P,D9,2*%
%TO.N,Net-(D9-A)*%
X26900000Y-50290000D03*
%TD*%
D12*
%TO.P,R7,1*%
%TO.N,Net-(D7-A)*%
X24360000Y-16000000D03*
%TO.P,R7,2*%
%TO.N,+5V*%
X29440000Y-16000000D03*
%TD*%
%TO.P,R3,1*%
%TO.N,Net-(D3-A)*%
X9000000Y-46480000D03*
%TO.P,R3,2*%
%TO.N,+5V*%
X14080000Y-46480000D03*
%TD*%
%TO.P,R57,1*%
%TO.N,SUB*%
X80590000Y-72000000D03*
%TO.P,R57,2*%
%TO.N,Net-(R57-Pad2)*%
X80590000Y-77080000D03*
%TD*%
D13*
%TO.P,Q12,1*%
%TO.N,GND*%
X37120000Y-57275000D03*
D14*
%TO.P,Q12,2*%
%TO.N,AO*%
X34580000Y-57275000D03*
%TO.P,Q12,3*%
%TO.N,Net-(D12-K)*%
X32040000Y-57275000D03*
%TD*%
D12*
%TO.P,R60,1*%
%TO.N,AO*%
X74590000Y-72000000D03*
%TO.P,R60,2*%
%TO.N,Net-(R60-Pad2)*%
X74590000Y-77080000D03*
%TD*%
%TO.P,R52,1*%
%TO.N,A3*%
X43870000Y-72000000D03*
%TO.P,R52,2*%
%TO.N,Net-(R52-Pad2)*%
X43870000Y-77080000D03*
%TD*%
%TO.P,R53,1*%
%TO.N,B0*%
X43870000Y-79700000D03*
%TO.P,R53,2*%
%TO.N,Net-(R53-Pad2)*%
X43870000Y-84780000D03*
%TD*%
%TO.P,R9,1*%
%TO.N,Net-(D9-A)*%
X24360000Y-46480000D03*
%TO.P,R9,2*%
%TO.N,+5V*%
X29440000Y-46480000D03*
%TD*%
%TO.P,R13,1*%
%TO.N,Net-(D13-A)*%
X39720000Y-16000000D03*
%TO.P,R13,2*%
%TO.N,+5V*%
X44800000Y-16000000D03*
%TD*%
%TO.P,R6,1*%
%TO.N,+5V*%
X16680000Y-46480000D03*
%TO.P,R6,2*%
%TO.N,Net-(D6-A)*%
X21760000Y-46480000D03*
%TD*%
D13*
%TO.P,Q21,1*%
%TO.N,GND*%
X55080000Y-57275000D03*
D14*
%TO.P,Q21,2*%
%TO.N,BA*%
X57620000Y-57275000D03*
%TO.P,Q21,3*%
%TO.N,Net-(D21-K)*%
X60160000Y-57275000D03*
%TD*%
D12*
%TO.P,R19,1*%
%TO.N,Net-(D19-A)*%
X55080000Y-16000000D03*
%TO.P,R19,2*%
%TO.N,+5V*%
X60160000Y-16000000D03*
%TD*%
D15*
%TO.P,SW2,1*%
%TO.N,Net-(R57-Pad2)*%
X84590000Y-72000000D03*
D12*
%TO.P,SW2,2*%
%TO.N,Net-(R58-Pad2)*%
X84590000Y-74540000D03*
%TO.P,SW2,3*%
%TO.N,Net-(R59-Pad2)*%
X84590000Y-77080000D03*
%TO.P,SW2,4*%
%TO.N,Net-(R60-Pad2)*%
X84590000Y-79620000D03*
%TO.P,SW2,5*%
%TO.N,Net-(R61-Pad2)*%
X84590000Y-82160000D03*
%TO.P,SW2,6*%
%TO.N,Net-(R62-Pad2)*%
X84590000Y-84700000D03*
%TO.P,SW2,7*%
%TO.N,Net-(R63-Pad2)*%
X84590000Y-87240000D03*
%TO.P,SW2,8*%
%TO.N,Net-(R64-Pad2)*%
X84590000Y-89780000D03*
%TO.P,SW2,9*%
%TO.N,+5V*%
X92210000Y-89780000D03*
%TO.P,SW2,10*%
X92210000Y-87240000D03*
%TO.P,SW2,11*%
X92210000Y-84700000D03*
%TO.P,SW2,12*%
X92210000Y-82160000D03*
%TO.P,SW2,13*%
X92210000Y-79620000D03*
%TO.P,SW2,14*%
X92210000Y-77080000D03*
%TO.P,SW2,15*%
X92210000Y-74540000D03*
%TO.P,SW2,16*%
X92210000Y-72000000D03*
%TD*%
D16*
%TO.P,H2,1*%
%TO.N,N/C*%
X96000000Y-50000000D03*
%TD*%
D10*
%TO.P,D17,1*%
%TO.N,Net-(D17-K)*%
X49940000Y-37590000D03*
D11*
%TO.P,D17,2*%
%TO.N,Net-(D17-A)*%
X49940000Y-35050000D03*
%TD*%
D13*
%TO.P,Q19,1*%
%TO.N,GND*%
X55080000Y-26795000D03*
D14*
%TO.P,Q19,2*%
%TO.N,B1*%
X57620000Y-26795000D03*
%TO.P,Q19,3*%
%TO.N,Net-(D19-K)*%
X60160000Y-26795000D03*
%TD*%
D13*
%TO.P,Q15,1*%
%TO.N,GND*%
X39720000Y-57275000D03*
D14*
%TO.P,Q15,2*%
%TO.N,BI*%
X42260000Y-57275000D03*
%TO.P,Q15,3*%
%TO.N,Net-(D15-K)*%
X44800000Y-57275000D03*
%TD*%
D12*
%TO.P,R43,1*%
%TO.N,BA*%
X78120000Y-33780000D03*
%TO.P,R43,2*%
%TO.N,GND*%
X83200000Y-33780000D03*
%TD*%
%TO.P,R45,1*%
%TO.N,CF*%
X78120000Y-43940000D03*
%TO.P,R45,2*%
%TO.N,GND*%
X83200000Y-43940000D03*
%TD*%
%TO.P,R1,1*%
%TO.N,Net-(D1-A)*%
X9000000Y-16000000D03*
%TO.P,R1,2*%
%TO.N,+5V*%
X14080000Y-16000000D03*
%TD*%
%TO.P,R4,1*%
%TO.N,+5V*%
X16680000Y-16000000D03*
%TO.P,R4,2*%
%TO.N,Net-(D4-A)*%
X21760000Y-16000000D03*
%TD*%
D10*
%TO.P,D14,1*%
%TO.N,Net-(D14-K)*%
X42260000Y-37590000D03*
D11*
%TO.P,D14,2*%
%TO.N,Net-(D14-A)*%
X42260000Y-35050000D03*
%TD*%
D12*
%TO.P,R37,1*%
%TO.N,GND*%
X70440000Y-54100000D03*
%TO.P,R37,2*%
%TO.N,SUB*%
X75520000Y-54100000D03*
%TD*%
D13*
%TO.P,Q16,1*%
%TO.N,GND*%
X52480000Y-26795000D03*
D14*
%TO.P,Q16,2*%
%TO.N,B2*%
X49940000Y-26795000D03*
%TO.P,Q16,3*%
%TO.N,Net-(D16-K)*%
X47400000Y-26795000D03*
%TD*%
D13*
%TO.P,Q25,1*%
%TO.N,GND*%
X85800000Y-20445000D03*
D14*
%TO.P,Q25,2*%
%TO.N,BUS0#*%
X88340000Y-20445000D03*
%TO.P,Q25,3*%
%TO.N,D0*%
X90880000Y-20445000D03*
%TD*%
D12*
%TO.P,R44,1*%
%TO.N,AB*%
X78120000Y-38860000D03*
%TO.P,R44,2*%
%TO.N,GND*%
X83200000Y-38860000D03*
%TD*%
D13*
%TO.P,Q11,1*%
%TO.N,GND*%
X37120000Y-42035000D03*
D14*
%TO.P,Q11,2*%
%TO.N,D0*%
X34580000Y-42035000D03*
%TO.P,Q11,3*%
%TO.N,Net-(D11-K)*%
X32040000Y-42035000D03*
%TD*%
D12*
%TO.P,R2,1*%
%TO.N,Net-(D2-A)*%
X9000000Y-31240000D03*
%TO.P,R2,2*%
%TO.N,+5V*%
X14080000Y-31240000D03*
%TD*%
D13*
%TO.P,Q13,1*%
%TO.N,GND*%
X39720000Y-26795000D03*
D14*
%TO.P,Q13,2*%
%TO.N,B3*%
X42260000Y-26795000D03*
%TO.P,Q13,3*%
%TO.N,Net-(D13-K)*%
X44800000Y-26795000D03*
%TD*%
D12*
%TO.P,R21,1*%
%TO.N,Net-(D21-A)*%
X55080000Y-46480000D03*
%TO.P,R21,2*%
%TO.N,+5V*%
X60160000Y-46480000D03*
%TD*%
%TO.P,R22,1*%
%TO.N,+5V*%
X62760000Y-16000000D03*
%TO.P,R22,2*%
%TO.N,Net-(D22-A)*%
X67840000Y-16000000D03*
%TD*%
D10*
%TO.P,D10,1*%
%TO.N,Net-(D10-K)*%
X34580000Y-22350000D03*
D11*
%TO.P,D10,2*%
%TO.N,Net-(D10-A)*%
X34580000Y-19810000D03*
%TD*%
D13*
%TO.P,Q2,1*%
%TO.N,GND*%
X9000000Y-42035000D03*
D14*
%TO.P,Q2,2*%
%TO.N,D3*%
X11540000Y-42035000D03*
%TO.P,Q2,3*%
%TO.N,Net-(D2-K)*%
X14080000Y-42035000D03*
%TD*%
D16*
%TO.P,H1,1*%
%TO.N,N/C*%
X4000000Y-50000000D03*
%TD*%
D12*
%TO.P,R27,1*%
%TO.N,D2*%
X85800000Y-32510000D03*
%TO.P,R27,2*%
%TO.N,+5V*%
X90880000Y-32510000D03*
%TD*%
%TO.P,R23,1*%
%TO.N,+5V*%
X62760000Y-31240000D03*
%TO.P,R23,2*%
%TO.N,Net-(D23-A)*%
X67840000Y-31240000D03*
%TD*%
%TO.P,R16,1*%
%TO.N,+5V*%
X47400000Y-16000000D03*
%TO.P,R16,2*%
%TO.N,Net-(D16-A)*%
X52480000Y-16000000D03*
%TD*%
%TO.P,R11,1*%
%TO.N,+5V*%
X32040000Y-31240000D03*
%TO.P,R11,2*%
%TO.N,Net-(D11-A)*%
X37120000Y-31240000D03*
%TD*%
%TO.P,R61,1*%
%TO.N,BI*%
X74590000Y-79700000D03*
%TO.P,R61,2*%
%TO.N,Net-(R61-Pad2)*%
X74590000Y-84780000D03*
%TD*%
%TO.P,R32,1*%
%TO.N,GND*%
X70440000Y-28700000D03*
%TO.P,R32,2*%
%TO.N,A3*%
X75520000Y-28700000D03*
%TD*%
D10*
%TO.P,D23,1*%
%TO.N,Net-(D23-K)*%
X65300000Y-37590000D03*
D11*
%TO.P,D23,2*%
%TO.N,Net-(D23-A)*%
X65300000Y-35050000D03*
%TD*%
D13*
%TO.P,Q28,1*%
%TO.N,GND*%
X85800000Y-45210000D03*
D14*
%TO.P,Q28,2*%
%TO.N,BUS3#*%
X88340000Y-45210000D03*
%TO.P,Q28,3*%
%TO.N,D3*%
X90880000Y-45210000D03*
%TD*%
D10*
%TO.P,D4,1*%
%TO.N,Net-(D4-K)*%
X19220000Y-22350000D03*
D11*
%TO.P,D4,2*%
%TO.N,Net-(D4-A)*%
X19220000Y-19810000D03*
%TD*%
D12*
%TO.P,R62,1*%
%TO.N,BO*%
X74590000Y-87400000D03*
%TO.P,R62,2*%
%TO.N,Net-(R62-Pad2)*%
X74590000Y-92480000D03*
%TD*%
%TO.P,R29,1*%
%TO.N,A0*%
X62760000Y-64260000D03*
%TO.P,R29,2*%
%TO.N,GND*%
X67840000Y-64260000D03*
%TD*%
D13*
%TO.P,Q8,1*%
%TO.N,GND*%
X24360000Y-42035000D03*
D14*
%TO.P,Q8,2*%
%TO.N,D1*%
X26900000Y-42035000D03*
%TO.P,Q8,3*%
%TO.N,Net-(D8-K)*%
X29440000Y-42035000D03*
%TD*%
D10*
%TO.P,D2,1*%
%TO.N,Net-(D2-K)*%
X11540000Y-37590000D03*
D11*
%TO.P,D2,2*%
%TO.N,Net-(D2-A)*%
X11540000Y-35050000D03*
%TD*%
D12*
%TO.P,R18,1*%
%TO.N,+5V*%
X47400000Y-46480000D03*
%TO.P,R18,2*%
%TO.N,Net-(D18-A)*%
X52480000Y-46480000D03*
%TD*%
D13*
%TO.P,Q10,1*%
%TO.N,GND*%
X37120000Y-26795000D03*
D14*
%TO.P,Q10,2*%
%TO.N,A0*%
X34580000Y-26795000D03*
%TO.P,Q10,3*%
%TO.N,Net-(D10-K)*%
X32040000Y-26795000D03*
%TD*%
D13*
%TO.P,Q7,1*%
%TO.N,GND*%
X24360000Y-26795000D03*
D14*
%TO.P,Q7,2*%
%TO.N,A1*%
X26900000Y-26795000D03*
%TO.P,Q7,3*%
%TO.N,Net-(D7-K)*%
X29440000Y-26795000D03*
%TD*%
D10*
%TO.P,D15,1*%
%TO.N,Net-(D15-K)*%
X42260000Y-52830000D03*
D11*
%TO.P,D15,2*%
%TO.N,Net-(D15-A)*%
X42260000Y-50290000D03*
%TD*%
D13*
%TO.P,Q23,1*%
%TO.N,GND*%
X67840000Y-42035000D03*
D14*
%TO.P,Q23,2*%
%TO.N,RST*%
X65300000Y-42035000D03*
%TO.P,Q23,3*%
%TO.N,Net-(D23-K)*%
X62760000Y-42035000D03*
%TD*%
D12*
%TO.P,R63,1*%
%TO.N,BA*%
X68590000Y-72000000D03*
%TO.P,R63,2*%
%TO.N,Net-(R63-Pad2)*%
X68590000Y-77080000D03*
%TD*%
%TO.P,R51,1*%
%TO.N,A2*%
X49870000Y-87400000D03*
%TO.P,R51,2*%
%TO.N,Net-(R51-Pad2)*%
X49870000Y-92480000D03*
%TD*%
%TO.P,R14,1*%
%TO.N,Net-(D14-A)*%
X39720000Y-31240000D03*
%TO.P,R14,2*%
%TO.N,+5V*%
X44800000Y-31240000D03*
%TD*%
%TO.P,R26,1*%
%TO.N,D1*%
X85800000Y-24255000D03*
%TO.P,R26,2*%
%TO.N,+5V*%
X90880000Y-24255000D03*
%TD*%
%TO.P,R49,1*%
%TO.N,A0*%
X49870000Y-72000000D03*
%TO.P,R49,2*%
%TO.N,Net-(R49-Pad2)*%
X49870000Y-77080000D03*
%TD*%
%TO.P,R46,1*%
%TO.N,ZF*%
X78120000Y-49020000D03*
%TO.P,R46,2*%
%TO.N,GND*%
X83200000Y-49020000D03*
%TD*%
D13*
%TO.P,Q26,1*%
%TO.N,GND*%
X85800000Y-28700000D03*
D14*
%TO.P,Q26,2*%
%TO.N,BUS1#*%
X88340000Y-28700000D03*
%TO.P,Q26,3*%
%TO.N,D1*%
X90880000Y-28700000D03*
%TD*%
D12*
%TO.P,R40,1*%
%TO.N,AO*%
X78120000Y-18540000D03*
%TO.P,R40,2*%
%TO.N,GND*%
X83200000Y-18540000D03*
%TD*%
D10*
%TO.P,D7,1*%
%TO.N,Net-(D7-K)*%
X26900000Y-22350000D03*
D11*
%TO.P,D7,2*%
%TO.N,Net-(D7-A)*%
X26900000Y-19810000D03*
%TD*%
D12*
%TO.P,R55,1*%
%TO.N,B2*%
X37870000Y-72000000D03*
%TO.P,R55,2*%
%TO.N,Net-(R55-Pad2)*%
X37870000Y-77080000D03*
%TD*%
D17*
%TO.P,C2,1*%
%TO.N,+5V*%
X95000000Y-26000000D03*
D12*
%TO.P,C2,2*%
%TO.N,GND*%
X95000000Y-28000000D03*
%TD*%
D18*
%TO.P,J1,1*%
%TO.N,+5V*%
X10630000Y-7500000D03*
D19*
%TO.P,J1,2*%
X10630000Y-4960000D03*
%TO.P,J1,3*%
%TO.N,GND*%
X13170000Y-7500000D03*
%TO.P,J1,4*%
X13170000Y-4960000D03*
%TO.P,J1,5*%
%TO.N,CLK*%
X15710000Y-7500000D03*
%TO.P,J1,6*%
%TO.N,GND*%
X15710000Y-4960000D03*
%TO.P,J1,7*%
%TO.N,RST*%
X18250000Y-7500000D03*
%TO.P,J1,8*%
%TO.N,GND*%
X18250000Y-4960000D03*
%TO.P,J1,9*%
%TO.N,BUS0#*%
X20790000Y-7500000D03*
%TO.P,J1,10*%
%TO.N,BUS1#*%
X20790000Y-4960000D03*
%TO.P,J1,11*%
%TO.N,BUS2#*%
X23330000Y-7500000D03*
%TO.P,J1,12*%
%TO.N,BUS3#*%
X23330000Y-4960000D03*
%TO.P,J1,13*%
%TO.N,A0*%
X25870000Y-7500000D03*
%TO.P,J1,14*%
%TO.N,A1*%
X25870000Y-4960000D03*
%TO.P,J1,15*%
%TO.N,A2*%
X28410000Y-7500000D03*
%TO.P,J1,16*%
%TO.N,A3*%
X28410000Y-4960000D03*
%TO.P,J1,17*%
%TO.N,B0*%
X30950000Y-7500000D03*
%TO.P,J1,18*%
%TO.N,B1*%
X30950000Y-4960000D03*
%TO.P,J1,19*%
%TO.N,B2*%
X33490000Y-7500000D03*
%TO.P,J1,20*%
%TO.N,B3*%
X33490000Y-4960000D03*
%TO.P,J1,21*%
%TO.N,unconnected-(J1-Pin_21-Pad21)*%
X36030000Y-7500000D03*
%TO.P,J1,22*%
%TO.N,unconnected-(J1-Pin_22-Pad22)*%
X36030000Y-4960000D03*
%TO.P,J1,23*%
%TO.N,unconnected-(J1-Pin_23-Pad23)*%
X38570000Y-7500000D03*
%TO.P,J1,24*%
%TO.N,unconnected-(J1-Pin_24-Pad24)*%
X38570000Y-4960000D03*
%TO.P,J1,25*%
%TO.N,unconnected-(J1-Pin_25-Pad25)*%
X41110000Y-7500000D03*
%TO.P,J1,26*%
%TO.N,unconnected-(J1-Pin_26-Pad26)*%
X41110000Y-4960000D03*
%TO.P,J1,27*%
%TO.N,unconnected-(J1-Pin_27-Pad27)*%
X43650000Y-7500000D03*
%TO.P,J1,28*%
%TO.N,unconnected-(J1-Pin_28-Pad28)*%
X43650000Y-4960000D03*
%TO.P,J1,29*%
%TO.N,unconnected-(J1-Pin_29-Pad29)*%
X46190000Y-7500000D03*
%TO.P,J1,30*%
%TO.N,unconnected-(J1-Pin_30-Pad30)*%
X46190000Y-4960000D03*
%TO.P,J1,31*%
%TO.N,unconnected-(J1-Pin_31-Pad31)*%
X48730000Y-7500000D03*
%TO.P,J1,32*%
%TO.N,unconnected-(J1-Pin_32-Pad32)*%
X48730000Y-4960000D03*
%TO.P,J1,33*%
%TO.N,unconnected-(J1-Pin_33-Pad33)*%
X51270000Y-7500000D03*
%TO.P,J1,34*%
%TO.N,unconnected-(J1-Pin_34-Pad34)*%
X51270000Y-4960000D03*
%TO.P,J1,35*%
%TO.N,unconnected-(J1-Pin_35-Pad35)*%
X53810000Y-7500000D03*
%TO.P,J1,36*%
%TO.N,unconnected-(J1-Pin_36-Pad36)*%
X53810000Y-4960000D03*
%TO.P,J1,37*%
%TO.N,CF*%
X56350000Y-7500000D03*
%TO.P,J1,38*%
%TO.N,ZF*%
X56350000Y-4960000D03*
%TO.P,J1,39*%
%TO.N,SUB*%
X58890000Y-7500000D03*
%TO.P,J1,40*%
%TO.N,EO*%
X58890000Y-4960000D03*
%TO.P,J1,41*%
%TO.N,AI*%
X61430000Y-7500000D03*
%TO.P,J1,42*%
%TO.N,AO*%
X61430000Y-4960000D03*
%TO.P,J1,43*%
%TO.N,BI*%
X63970000Y-7500000D03*
%TO.P,J1,44*%
%TO.N,BO*%
X63970000Y-4960000D03*
%TO.P,J1,45*%
%TO.N,BA*%
X66510000Y-7500000D03*
%TO.P,J1,46*%
%TO.N,AB*%
X66510000Y-4960000D03*
%TO.P,J1,47*%
%TO.N,unconnected-(J1-Pin_47-Pad47)*%
X69050000Y-7500000D03*
%TO.P,J1,48*%
%TO.N,unconnected-(J1-Pin_48-Pad48)*%
X69050000Y-4960000D03*
%TO.P,J1,49*%
%TO.N,unconnected-(J1-Pin_49-Pad49)*%
X71590000Y-7500000D03*
%TO.P,J1,50*%
%TO.N,unconnected-(J1-Pin_50-Pad50)*%
X71590000Y-4960000D03*
%TO.P,J1,51*%
%TO.N,unconnected-(J1-Pin_51-Pad51)*%
X74130000Y-7500000D03*
%TO.P,J1,52*%
%TO.N,unconnected-(J1-Pin_52-Pad52)*%
X74130000Y-4960000D03*
%TO.P,J1,53*%
%TO.N,unconnected-(J1-Pin_53-Pad53)*%
X76670000Y-7500000D03*
%TO.P,J1,54*%
%TO.N,unconnected-(J1-Pin_54-Pad54)*%
X76670000Y-4960000D03*
%TO.P,J1,55*%
%TO.N,unconnected-(J1-Pin_55-Pad55)*%
X79210000Y-7500000D03*
%TO.P,J1,56*%
%TO.N,unconnected-(J1-Pin_56-Pad56)*%
X79210000Y-4960000D03*
%TO.P,J1,57*%
%TO.N,unconnected-(J1-Pin_57-Pad57)*%
X81750000Y-7500000D03*
%TO.P,J1,58*%
%TO.N,unconnected-(J1-Pin_58-Pad58)*%
X81750000Y-4960000D03*
%TO.P,J1,59*%
%TO.N,unconnected-(J1-Pin_59-Pad59)*%
X84290000Y-7500000D03*
%TO.P,J1,60*%
%TO.N,unconnected-(J1-Pin_60-Pad60)*%
X84290000Y-4960000D03*
%TO.P,J1,61*%
%TO.N,unconnected-(J1-Pin_61-Pad61)*%
X86830000Y-7500000D03*
%TO.P,J1,62*%
%TO.N,unconnected-(J1-Pin_62-Pad62)*%
X86830000Y-4960000D03*
%TO.P,J1,63*%
%TO.N,+5V*%
X89370000Y-7500000D03*
%TO.P,J1,64*%
%TO.N,GND*%
X89370000Y-4960000D03*
%TD*%
D13*
%TO.P,Q3,1*%
%TO.N,GND*%
X9000000Y-57275000D03*
D14*
%TO.P,Q3,2*%
%TO.N,SUB*%
X11540000Y-57275000D03*
%TO.P,Q3,3*%
%TO.N,Net-(D3-K)*%
X14080000Y-57275000D03*
%TD*%
D12*
%TO.P,R34,1*%
%TO.N,GND*%
X70440000Y-38860000D03*
%TO.P,R34,2*%
%TO.N,B1*%
X75520000Y-38860000D03*
%TD*%
%TO.P,R30,1*%
%TO.N,GND*%
X70440000Y-18540000D03*
%TO.P,R30,2*%
%TO.N,A1*%
X75520000Y-18540000D03*
%TD*%
D13*
%TO.P,Q20,1*%
%TO.N,GND*%
X55080000Y-42035000D03*
D14*
%TO.P,Q20,2*%
%TO.N,CLK*%
X57620000Y-42035000D03*
%TO.P,Q20,3*%
%TO.N,Net-(D20-K)*%
X60160000Y-42035000D03*
%TD*%
D10*
%TO.P,D6,1*%
%TO.N,Net-(D6-K)*%
X19220000Y-52830000D03*
D11*
%TO.P,D6,2*%
%TO.N,Net-(D6-A)*%
X19220000Y-50290000D03*
%TD*%
D10*
%TO.P,D8,1*%
%TO.N,Net-(D8-K)*%
X26900000Y-37590000D03*
D11*
%TO.P,D8,2*%
%TO.N,Net-(D8-A)*%
X26900000Y-35050000D03*
%TD*%
D12*
%TO.P,R25,1*%
%TO.N,D0*%
X85800000Y-16000000D03*
%TO.P,R25,2*%
%TO.N,+5V*%
X90880000Y-16000000D03*
%TD*%
%TO.P,C1,1*%
%TO.N,+5V*%
X95000000Y-16500000D03*
%TO.P,C1,2*%
%TO.N,GND*%
X95000000Y-19000000D03*
%TD*%
D10*
%TO.P,D3,1*%
%TO.N,Net-(D3-K)*%
X11540000Y-52830000D03*
D11*
%TO.P,D3,2*%
%TO.N,Net-(D3-A)*%
X11540000Y-50290000D03*
%TD*%
D10*
%TO.P,D21,1*%
%TO.N,Net-(D21-K)*%
X57620000Y-52830000D03*
D11*
%TO.P,D21,2*%
%TO.N,Net-(D21-A)*%
X57620000Y-50290000D03*
%TD*%
D13*
%TO.P,Q22,1*%
%TO.N,GND*%
X67840000Y-26795000D03*
D14*
%TO.P,Q22,2*%
%TO.N,B0*%
X65300000Y-26795000D03*
%TO.P,Q22,3*%
%TO.N,Net-(D22-K)*%
X62760000Y-26795000D03*
%TD*%
D10*
%TO.P,D1,1*%
%TO.N,Net-(D1-K)*%
X11540000Y-22350000D03*
D11*
%TO.P,D1,2*%
%TO.N,Net-(D1-A)*%
X11540000Y-19810000D03*
%TD*%
D13*
%TO.P,Q6,1*%
%TO.N,GND*%
X21760000Y-57275000D03*
D14*
%TO.P,Q6,2*%
%TO.N,EO*%
X19220000Y-57275000D03*
%TO.P,Q6,3*%
%TO.N,Net-(D6-K)*%
X16680000Y-57275000D03*
%TD*%
D10*
%TO.P,D13,1*%
%TO.N,Net-(D13-K)*%
X42260000Y-22350000D03*
D11*
%TO.P,D13,2*%
%TO.N,Net-(D13-A)*%
X42260000Y-19810000D03*
%TD*%
D12*
%TO.P,R31,1*%
%TO.N,GND*%
X70440000Y-23620000D03*
%TO.P,R31,2*%
%TO.N,A2*%
X75520000Y-23620000D03*
%TD*%
D13*
%TO.P,Q9,1*%
%TO.N,GND*%
X24360000Y-57275000D03*
D14*
%TO.P,Q9,2*%
%TO.N,AI*%
X26900000Y-57275000D03*
%TO.P,Q9,3*%
%TO.N,Net-(D9-K)*%
X29440000Y-57275000D03*
%TD*%
D12*
%TO.P,R5,1*%
%TO.N,+5V*%
X16680000Y-31240000D03*
%TO.P,R5,2*%
%TO.N,Net-(D5-A)*%
X21760000Y-31240000D03*
%TD*%
D13*
%TO.P,Q18,1*%
%TO.N,GND*%
X52480000Y-57275000D03*
D14*
%TO.P,Q18,2*%
%TO.N,BO*%
X49940000Y-57275000D03*
%TO.P,Q18,3*%
%TO.N,Net-(D18-K)*%
X47400000Y-57275000D03*
%TD*%
D12*
%TO.P,R12,1*%
%TO.N,+5V*%
X32040000Y-46480000D03*
%TO.P,R12,2*%
%TO.N,Net-(D12-A)*%
X37120000Y-46480000D03*
%TD*%
%TO.P,R15,1*%
%TO.N,Net-(D15-A)*%
X39720000Y-46480000D03*
%TO.P,R15,2*%
%TO.N,+5V*%
X44800000Y-46480000D03*
%TD*%
%TO.P,R33,1*%
%TO.N,GND*%
X70440000Y-33780000D03*
%TO.P,R33,2*%
%TO.N,B0*%
X75520000Y-33780000D03*
%TD*%
D10*
%TO.P,D19,1*%
%TO.N,Net-(D19-K)*%
X57620000Y-22350000D03*
D11*
%TO.P,D19,2*%
%TO.N,Net-(D19-A)*%
X57620000Y-19810000D03*
%TD*%
D12*
%TO.P,R58,1*%
%TO.N,EO*%
X80590000Y-79700000D03*
%TO.P,R58,2*%
%TO.N,Net-(R58-Pad2)*%
X80590000Y-84780000D03*
%TD*%
D13*
%TO.P,Q5,1*%
%TO.N,GND*%
X21760000Y-42035000D03*
D14*
%TO.P,Q5,2*%
%TO.N,D2*%
X19220000Y-42035000D03*
%TO.P,Q5,3*%
%TO.N,Net-(D5-K)*%
X16680000Y-42035000D03*
%TD*%
D12*
%TO.P,R50,1*%
%TO.N,A1*%
X49870000Y-79700000D03*
%TO.P,R50,2*%
%TO.N,Net-(R50-Pad2)*%
X49870000Y-84780000D03*
%TD*%
D10*
%TO.P,D24,1*%
%TO.N,Net-(D24-K)*%
X65300000Y-52830000D03*
D11*
%TO.P,D24,2*%
%TO.N,Net-(D24-A)*%
X65300000Y-50290000D03*
%TD*%
D12*
%TO.P,R28,1*%
%TO.N,D3*%
X85800000Y-40765000D03*
%TO.P,R28,2*%
%TO.N,+5V*%
X90880000Y-40765000D03*
%TD*%
D13*
%TO.P,Q17,1*%
%TO.N,GND*%
X52480000Y-42035000D03*
D14*
%TO.P,Q17,2*%
%TO.N,ZF*%
X49940000Y-42035000D03*
%TO.P,Q17,3*%
%TO.N,Net-(D17-K)*%
X47400000Y-42035000D03*
%TD*%
D12*
%TO.P,R17,1*%
%TO.N,+5V*%
X47400000Y-31240000D03*
%TO.P,R17,2*%
%TO.N,Net-(D17-A)*%
X52480000Y-31240000D03*
%TD*%
%TO.P,R39,1*%
%TO.N,GND*%
X70440000Y-64260000D03*
%TO.P,R39,2*%
%TO.N,AI*%
X75520000Y-64260000D03*
%TD*%
D10*
%TO.P,D5,1*%
%TO.N,Net-(D5-K)*%
X19220000Y-37590000D03*
D11*
%TO.P,D5,2*%
%TO.N,Net-(D5-A)*%
X19220000Y-35050000D03*
%TD*%
D13*
%TO.P,Q27,1*%
%TO.N,GND*%
X85800000Y-36955000D03*
D14*
%TO.P,Q27,2*%
%TO.N,BUS2#*%
X88340000Y-36955000D03*
%TO.P,Q27,3*%
%TO.N,D2*%
X90880000Y-36955000D03*
%TD*%
D12*
%TO.P,R59,1*%
%TO.N,AI*%
X80590000Y-87400000D03*
%TO.P,R59,2*%
%TO.N,Net-(R59-Pad2)*%
X80590000Y-92480000D03*
%TD*%
%TO.P,R24,1*%
%TO.N,+5V*%
X62760000Y-46480000D03*
%TO.P,R24,2*%
%TO.N,Net-(D24-A)*%
X67840000Y-46480000D03*
%TD*%
D15*
%TO.P,SW1,1*%
%TO.N,Net-(R49-Pad2)*%
X53870000Y-72000000D03*
D12*
%TO.P,SW1,2*%
%TO.N,Net-(R50-Pad2)*%
X53870000Y-74540000D03*
%TO.P,SW1,3*%
%TO.N,Net-(R51-Pad2)*%
X53870000Y-77080000D03*
%TO.P,SW1,4*%
%TO.N,Net-(R52-Pad2)*%
X53870000Y-79620000D03*
%TO.P,SW1,5*%
%TO.N,Net-(R53-Pad2)*%
X53870000Y-82160000D03*
%TO.P,SW1,6*%
%TO.N,Net-(R54-Pad2)*%
X53870000Y-84700000D03*
%TO.P,SW1,7*%
%TO.N,Net-(R55-Pad2)*%
X53870000Y-87240000D03*
%TO.P,SW1,8*%
%TO.N,Net-(R56-Pad2)*%
X53870000Y-89780000D03*
%TO.P,SW1,9*%
%TO.N,+5V*%
X61490000Y-89780000D03*
%TO.P,SW1,10*%
X61490000Y-87240000D03*
%TO.P,SW1,11*%
X61490000Y-84700000D03*
%TO.P,SW1,12*%
X61490000Y-82160000D03*
%TO.P,SW1,13*%
X61490000Y-79620000D03*
%TO.P,SW1,14*%
X61490000Y-77080000D03*
%TO.P,SW1,15*%
X61490000Y-74540000D03*
%TO.P,SW1,16*%
X61490000Y-72000000D03*
%TD*%
%TO.P,R35,1*%
%TO.N,GND*%
X70440000Y-43940000D03*
%TO.P,R35,2*%
%TO.N,B2*%
X75520000Y-43940000D03*
%TD*%
D13*
%TO.P,Q14,1*%
%TO.N,GND*%
X39720000Y-42035000D03*
D14*
%TO.P,Q14,2*%
%TO.N,CF*%
X42260000Y-42035000D03*
%TO.P,Q14,3*%
%TO.N,Net-(D14-K)*%
X44800000Y-42035000D03*
%TD*%
D12*
%TO.P,R10,1*%
%TO.N,+5V*%
X32040000Y-16000000D03*
%TO.P,R10,2*%
%TO.N,Net-(D10-A)*%
X37120000Y-16000000D03*
%TD*%
%TO.P,R20,1*%
%TO.N,Net-(D20-A)*%
X55080000Y-31240000D03*
%TO.P,R20,2*%
%TO.N,+5V*%
X60160000Y-31240000D03*
%TD*%
%TO.P,R48,1*%
%TO.N,RST*%
X78120000Y-59180000D03*
%TO.P,R48,2*%
%TO.N,GND*%
X83200000Y-59180000D03*
%TD*%
D10*
%TO.P,D11,1*%
%TO.N,Net-(D11-K)*%
X34580000Y-37590000D03*
D11*
%TO.P,D11,2*%
%TO.N,Net-(D11-A)*%
X34580000Y-35050000D03*
%TD*%
D12*
%TO.P,R36,1*%
%TO.N,GND*%
X70440000Y-49020000D03*
%TO.P,R36,2*%
%TO.N,B3*%
X75520000Y-49020000D03*
%TD*%
D10*
%TO.P,D12,1*%
%TO.N,Net-(D12-K)*%
X34580000Y-52830000D03*
D11*
%TO.P,D12,2*%
%TO.N,Net-(D12-A)*%
X34580000Y-50290000D03*
%TD*%
D10*
%TO.P,D18,1*%
%TO.N,Net-(D18-K)*%
X49940000Y-52830000D03*
D11*
%TO.P,D18,2*%
%TO.N,Net-(D18-A)*%
X49940000Y-50290000D03*
%TD*%
D12*
%TO.P,R41,1*%
%TO.N,BI*%
X78120000Y-23620000D03*
%TO.P,R41,2*%
%TO.N,GND*%
X83200000Y-23620000D03*
%TD*%
%TO.P,R56,1*%
%TO.N,B3*%
X37870000Y-79700000D03*
%TO.P,R56,2*%
%TO.N,Net-(R56-Pad2)*%
X37870000Y-84780000D03*
%TD*%
%TO.P,R64,1*%
%TO.N,AB*%
X68590000Y-79700000D03*
%TO.P,R64,2*%
%TO.N,Net-(R64-Pad2)*%
X68590000Y-84780000D03*
%TD*%
%TO.P,R54,1*%
%TO.N,B1*%
X43870000Y-87400000D03*
%TO.P,R54,2*%
%TO.N,Net-(R54-Pad2)*%
X43870000Y-92480000D03*
%TD*%
D13*
%TO.P,Q4,1*%
%TO.N,GND*%
X21760000Y-26795000D03*
D14*
%TO.P,Q4,2*%
%TO.N,A2*%
X19220000Y-26795000D03*
%TO.P,Q4,3*%
%TO.N,Net-(D4-K)*%
X16680000Y-26795000D03*
%TD*%
D12*
%TO.P,R47,1*%
%TO.N,CLK*%
X78120000Y-54100000D03*
%TO.P,R47,2*%
%TO.N,GND*%
X83200000Y-54100000D03*
%TD*%
%TO.P,R42,1*%
%TO.N,BO*%
X78120000Y-28700000D03*
%TO.P,R42,2*%
%TO.N,GND*%
X83200000Y-28700000D03*
%TD*%
D20*
%TO.N,+5V*%
X10630000Y-14000000D03*
X30770000Y-14000000D03*
X46130000Y-14000000D03*
X61490000Y-14000000D03*
X89370000Y-14000000D03*
X92210000Y-14000000D03*
X15410000Y-14000000D03*
D21*
%TO.N,A0*%
X39655800Y-32919500D03*
%TO.N,A2*%
X29963600Y-24725100D03*
%TO.N,A3*%
X33295300Y-27392600D03*
%TO.N,AI*%
X67073100Y-58865300D03*
%TO.N,B0*%
X67523400Y-69778700D03*
X65200900Y-23768900D03*
X35060200Y-14852400D03*
%TO.N,B1*%
X52680800Y-28539800D03*
%TO.N,B2*%
X28134100Y-40161300D03*
X73406000Y-38217200D03*
%TO.N,B3*%
X66863100Y-67672200D03*
X71907000Y-36420200D03*
%TO.N,BA*%
X73247400Y-57764800D03*
%TO.N,BI*%
X68665300Y-9106400D03*
%TO.N,BO*%
X72858200Y-26350600D03*
X70357600Y-56445800D03*
%TO.N,BUS0#*%
X87348300Y-12651300D03*
%TO.N,BUS2#*%
X82834200Y-10984300D03*
%TO.N,CF*%
X59694800Y-40664100D03*
%TO.N,CLK*%
X11645200Y-17449900D03*
%TO.N,EO*%
X80328900Y-64751000D03*
D20*
%TO.N,GND*%
X84530000Y-12500000D03*
X53810000Y-12500000D03*
X7730000Y-12500000D03*
X95000000Y-30500000D03*
X18250000Y-2460000D03*
X69170000Y-12500000D03*
X23090000Y-12500000D03*
X95000000Y-21500000D03*
X38450000Y-12500000D03*
X89370000Y-2460000D03*
D21*
%TO.N,Net-(D22-K)*%
X63502200Y-22973200D03*
%TO.N,RST*%
X81694300Y-44108200D03*
X79441500Y-9292500D03*
%TO.N,ZF*%
X64592700Y-44085300D03*
%TD*%
%TO.N,+5V*%
D22*
X98000000Y-14000000D02*
X98000000Y-26000000D01*
X10630000Y-7500000D02*
X10630000Y-4960000D01*
D23*
X10630000Y-14000000D02*
X15410000Y-14000000D01*
D22*
X95000000Y-14000000D02*
X95000000Y-16500000D01*
X98000000Y-26000000D02*
X95000000Y-26000000D01*
D23*
X92210000Y-14000000D02*
X98000000Y-14000000D01*
X15410000Y-14000000D02*
X92210000Y-14000000D01*
%TO.N,A0*%
D24*
X38171700Y-30386700D02*
X38171700Y-31435400D01*
X49870000Y-72000000D02*
X57610000Y-64260000D01*
X38171700Y-31435400D02*
X39655800Y-32919500D01*
X34580000Y-26795000D02*
X38171700Y-30386700D01*
X57610000Y-64260000D02*
X62760000Y-64260000D01*
%TO.N,A1*%
X30352900Y-24334200D02*
X30192100Y-24173400D01*
X29521600Y-24173400D02*
X26900000Y-26795000D01*
X30192100Y-24173400D02*
X29521600Y-24173400D01*
X74030200Y-18540000D02*
X68236000Y-24334200D01*
X68236000Y-24334200D02*
X30352900Y-24334200D01*
X75520000Y-18540000D02*
X74030200Y-18540000D01*
%TO.N,A2*%
X30464600Y-27187900D02*
X30464600Y-24766900D01*
X29852200Y-27800300D02*
X30464600Y-27187900D01*
X74373100Y-24766900D02*
X30464600Y-24766900D01*
X30005400Y-24766900D02*
X29963600Y-24725100D01*
X75520000Y-23620000D02*
X74373100Y-24766900D01*
X20225300Y-27800300D02*
X29852200Y-27800300D01*
X19220000Y-26795000D02*
X20225300Y-27800300D01*
X30464600Y-24766900D02*
X30005400Y-24766900D01*
%TO.N,A3*%
X32316900Y-28155600D02*
X33187600Y-27284900D01*
X34505800Y-25393200D02*
X70112800Y-25393200D01*
X11540000Y-26795000D02*
X12900600Y-28155600D01*
X33187600Y-26711400D02*
X34505800Y-25393200D01*
X33187600Y-27284900D02*
X33295300Y-27392600D01*
X70112800Y-25393200D02*
X73419600Y-28700000D01*
X33187600Y-27284900D02*
X33187600Y-26711400D01*
X73419600Y-28700000D02*
X75520000Y-28700000D01*
X12900600Y-28155600D02*
X32316900Y-28155600D01*
%TO.N,AI*%
X72467800Y-64260000D02*
X75520000Y-64260000D01*
X67073100Y-58865300D02*
X72467800Y-64260000D01*
X27937600Y-56237400D02*
X42704000Y-56237400D01*
X43530000Y-57486600D02*
X44908700Y-58865300D01*
X26900000Y-57275000D02*
X27937600Y-56237400D01*
X42704000Y-56237400D02*
X43530000Y-57063400D01*
X43530000Y-57063400D02*
X43530000Y-57486600D01*
X44908700Y-58865300D02*
X67073100Y-58865300D01*
%TO.N,AO*%
X62543000Y-62555600D02*
X39860600Y-62555600D01*
X71987400Y-72000000D02*
X62543000Y-62555600D01*
X74590000Y-72000000D02*
X71987400Y-72000000D01*
X39860600Y-62555600D02*
X34580000Y-57275000D01*
%TO.N,B0*%
X43870000Y-79700000D02*
X44946200Y-80776200D01*
X65200900Y-23768900D02*
X56837500Y-23768900D01*
X65975700Y-26795000D02*
X65300000Y-26795000D01*
X44946200Y-80776200D02*
X55937900Y-80776200D01*
X60904100Y-75810000D02*
X61741300Y-75810000D01*
X35060200Y-14852500D02*
X35060200Y-14852400D01*
X47921100Y-14852500D02*
X35060200Y-14852500D01*
X75520000Y-33780000D02*
X72960700Y-33780000D01*
X61741300Y-75810000D02*
X67523300Y-70028000D01*
X67523300Y-69778700D02*
X67523400Y-69778700D01*
X55937900Y-80776200D02*
X60904100Y-75810000D01*
X56837500Y-23768900D02*
X47921100Y-14852500D01*
X67523300Y-70028000D02*
X67523300Y-69778700D01*
X72960700Y-33780000D02*
X65975700Y-26795000D01*
%TO.N,B1*%
X53180600Y-28040000D02*
X57620000Y-28040000D01*
X75520000Y-38860000D02*
X75520000Y-36836600D01*
X57620000Y-26795000D02*
X57620000Y-28040000D01*
X75520000Y-36836600D02*
X66723400Y-28040000D01*
X52680800Y-28539800D02*
X53180600Y-28040000D01*
X66723400Y-28040000D02*
X57620000Y-28040000D01*
%TO.N,B2*%
X38112000Y-36380000D02*
X46265500Y-28226500D01*
X72923900Y-38217200D02*
X73406000Y-38217200D01*
X51611400Y-29897900D02*
X55327200Y-29897900D01*
X28134100Y-40161300D02*
X31915400Y-36380000D01*
X49940000Y-26795000D02*
X49940000Y-28226500D01*
X49940000Y-28226500D02*
X51611400Y-29897900D01*
X46265500Y-28226500D02*
X49940000Y-28226500D01*
X61742700Y-36313400D02*
X71020200Y-36313400D01*
X71020200Y-36313500D02*
X72923900Y-38217200D01*
X31915400Y-36380000D02*
X38112000Y-36380000D01*
X71020200Y-36313400D02*
X71020200Y-36313500D01*
X55327200Y-29897900D02*
X61742700Y-36313400D01*
%TO.N,B3*%
X51333600Y-28004100D02*
X52495600Y-29166100D01*
X42260000Y-26795000D02*
X43302100Y-25752900D01*
X52495600Y-29166100D02*
X67352200Y-29166100D01*
X36790800Y-76581500D02*
X38832300Y-74540000D01*
X37870000Y-79700000D02*
X36790800Y-78620800D01*
X56353900Y-67672200D02*
X66863100Y-67672200D01*
X67352200Y-29166100D02*
X71907000Y-33720900D01*
X71907000Y-33720900D02*
X71907000Y-36420200D01*
X51333600Y-26712600D02*
X51333600Y-28004100D01*
X50373900Y-25752900D02*
X51333600Y-26712600D01*
X49486100Y-74540000D02*
X56353900Y-67672200D01*
X43302100Y-25752900D02*
X50373900Y-25752900D01*
X36790800Y-78620800D02*
X36790800Y-76581500D01*
X38832300Y-74540000D02*
X49486100Y-74540000D01*
%TO.N,BA*%
X57620000Y-57275000D02*
X58642000Y-58297000D01*
X69901900Y-57764800D02*
X73247400Y-57764800D01*
X69369700Y-58297000D02*
X69901900Y-57764800D01*
X58642000Y-58297000D02*
X69369700Y-58297000D01*
%TO.N,BI*%
X75670200Y-71531900D02*
X69450000Y-65311700D01*
X69450000Y-65311700D02*
X66615200Y-65311700D01*
X46432400Y-61447400D02*
X42260000Y-57275000D01*
X74590000Y-79700000D02*
X73515800Y-78625800D01*
X63970000Y-7500000D02*
X65576400Y-9106400D01*
X73515800Y-78625800D02*
X73515800Y-75126600D01*
X73515800Y-75126600D02*
X75670200Y-72972200D01*
X65576400Y-9106400D02*
X68665300Y-9106400D01*
X75670200Y-72972200D02*
X75670200Y-71531900D01*
X62750900Y-61447400D02*
X46432400Y-61447400D01*
X66615200Y-65311700D02*
X62750900Y-61447400D01*
%TO.N,BO*%
X75770600Y-26350600D02*
X78120000Y-28700000D01*
X72858200Y-26350600D02*
X75770600Y-26350600D01*
X49940000Y-57275000D02*
X50941700Y-56273300D01*
X50941700Y-56273300D02*
X70185100Y-56273300D01*
X70185100Y-56273300D02*
X70357600Y-56445800D01*
%TO.N,BUS0#*%
X86530600Y-11833600D02*
X87348300Y-12651300D01*
X20790000Y-7500000D02*
X25123600Y-11833600D01*
X25123600Y-11833600D02*
X86530600Y-11833600D01*
%TO.N,BUS2#*%
X26814300Y-10984300D02*
X82834200Y-10984300D01*
X23330000Y-7500000D02*
X26814300Y-10984300D01*
%TO.N,CF*%
X77055700Y-42875700D02*
X78120000Y-43940000D01*
X42260000Y-42035000D02*
X43614900Y-40680100D01*
X64824900Y-43036700D02*
X69856000Y-43036700D01*
X59694800Y-40680100D02*
X62828900Y-40680100D01*
X43614900Y-40680100D02*
X59694800Y-40680100D01*
X70017000Y-42875700D02*
X77055700Y-42875700D01*
X64030100Y-41881300D02*
X64030100Y-42241900D01*
X59694800Y-40680100D02*
X59694800Y-40664100D01*
X64030100Y-42241900D02*
X64824900Y-43036700D01*
X69856000Y-43036700D02*
X70017000Y-42875700D01*
X62828900Y-40680100D02*
X64030100Y-41881300D01*
%TO.N,CLK*%
X60865400Y-48752000D02*
X65828300Y-48752000D01*
X10348200Y-42280500D02*
X12180600Y-44112900D01*
X11645200Y-17449900D02*
X10348200Y-18746900D01*
X12180600Y-44112900D02*
X57620000Y-44112900D01*
X65828300Y-48752000D02*
X69766900Y-52690600D01*
X57620000Y-44112900D02*
X57620000Y-45506600D01*
X57620000Y-42035000D02*
X57620000Y-44112900D01*
X57620000Y-45506600D02*
X60865400Y-48752000D01*
X10348200Y-18746900D02*
X10348200Y-42280500D01*
X76710600Y-52690600D02*
X78120000Y-54100000D01*
X69766900Y-52690600D02*
X76710600Y-52690600D01*
%TO.N,D0*%
X70018000Y-39925300D02*
X75975200Y-39925300D01*
X34580000Y-42035000D02*
X37569100Y-39045900D01*
X88212600Y-23112400D02*
X90880000Y-20445000D01*
X75975200Y-39925300D02*
X76607600Y-39292900D01*
X76607600Y-39292900D02*
X76607600Y-31960100D01*
X85455300Y-23112400D02*
X88212600Y-23112400D01*
X69138600Y-39045900D02*
X70018000Y-39925300D01*
X76607600Y-31960100D02*
X85455300Y-23112400D01*
X86435000Y-16000000D02*
X85800000Y-16000000D01*
X37569100Y-39045900D02*
X69138600Y-39045900D01*
X90880000Y-20445000D02*
X86435000Y-16000000D01*
%TO.N,D1*%
X89217000Y-27037000D02*
X90880000Y-28700000D01*
X88582000Y-27037000D02*
X89217000Y-27037000D01*
X26900000Y-42035000D02*
X27907300Y-43042300D01*
X37879200Y-39397600D02*
X68951700Y-39397600D01*
X36118300Y-41158500D02*
X37879200Y-39397600D01*
X85964500Y-30411400D02*
X86946100Y-29429800D01*
X36118300Y-42016600D02*
X36118300Y-41158500D01*
X86946100Y-29429800D02*
X86946100Y-28672900D01*
X27907300Y-43042300D02*
X35092600Y-43042300D01*
X85001900Y-30411400D02*
X85964500Y-30411400D01*
X76141200Y-40291900D02*
X76995100Y-39438000D01*
X69846000Y-40291900D02*
X76141200Y-40291900D01*
X35092600Y-43042300D02*
X36118300Y-42016600D01*
X76995100Y-38418200D02*
X85001900Y-30411400D01*
X88582000Y-27037000D02*
X85800000Y-24255000D01*
X68951700Y-39397600D02*
X69846000Y-40291900D01*
X76995100Y-39438000D02*
X76995100Y-38418200D01*
X86946100Y-28672900D02*
X88582000Y-27037000D01*
%TO.N,D2*%
X90880000Y-36955000D02*
X89632000Y-35707000D01*
X40256800Y-43394000D02*
X40860200Y-42790600D01*
X82760400Y-35707000D02*
X85800000Y-35707000D01*
X85800000Y-35707000D02*
X85800000Y-32510000D01*
X89632000Y-35707000D02*
X85800000Y-35707000D01*
X77823800Y-40643600D02*
X82760400Y-35707000D01*
X68756600Y-39749300D02*
X69650900Y-40643600D01*
X19220000Y-42035000D02*
X20579000Y-43394000D01*
X69650900Y-40643600D02*
X77823800Y-40643600D01*
X40860200Y-41445200D02*
X42556100Y-39749300D01*
X20579000Y-43394000D02*
X40256800Y-43394000D01*
X40860200Y-42790600D02*
X40860200Y-41445200D01*
X42556100Y-39749300D02*
X68756600Y-39749300D01*
%TO.N,D3*%
X90245000Y-45210000D02*
X90880000Y-45210000D01*
X40412600Y-43754200D02*
X41258300Y-42908500D01*
X85800000Y-40765000D02*
X90245000Y-45210000D01*
X69372000Y-40995300D02*
X85569700Y-40995300D01*
X41258300Y-42908500D02*
X41258300Y-41583200D01*
X13259200Y-43754200D02*
X40412600Y-43754200D01*
X11540000Y-42035000D02*
X13259200Y-43754200D01*
X68480300Y-40103600D02*
X69372000Y-40995300D01*
X85569700Y-40995300D02*
X85800000Y-40765000D01*
X41258300Y-41583200D02*
X42737900Y-40103600D01*
X42737900Y-40103600D02*
X68480300Y-40103600D01*
%TO.N,EO*%
X19220000Y-57275000D02*
X20653400Y-55841600D01*
X20653400Y-55841600D02*
X72181600Y-55841600D01*
X72181600Y-55841600D02*
X75520000Y-59180000D01*
X80328900Y-64751000D02*
X80328900Y-63988900D01*
X80328900Y-63988900D02*
X75520000Y-59180000D01*
%TO.N,GND*%
D22*
X18250000Y-4960000D02*
X18250000Y-2460000D01*
X95000000Y-28000000D02*
X95000000Y-30500000D01*
X13170000Y-7500000D02*
X13170000Y-12500000D01*
X89370000Y-4960000D02*
X89370000Y-2460000D01*
D23*
X7730000Y-12500000D02*
X84530000Y-12500000D01*
D22*
X13170000Y-7500000D02*
X13170000Y-4960000D01*
X95000000Y-19000000D02*
X95000000Y-21500000D01*
X13170000Y-4960000D02*
X18250000Y-4960000D01*
%TO.N,Net-(D5-K)*%
D24*
X19220000Y-39495000D02*
X16680000Y-42035000D01*
X19220000Y-37590000D02*
X19220000Y-39495000D01*
%TO.N,Net-(D7-A)*%
X26900000Y-19810000D02*
X24360000Y-17270000D01*
X24360000Y-17270000D02*
X24360000Y-16000000D01*
%TO.N,Net-(D8-K)*%
X29227700Y-42035000D02*
X29440000Y-42035000D01*
X26900000Y-37590000D02*
X26900000Y-39707300D01*
X26900000Y-39707300D02*
X29227700Y-42035000D01*
%TO.N,Net-(D9-A)*%
X26900000Y-50290000D02*
X24360000Y-47750000D01*
X24360000Y-47750000D02*
X24360000Y-46480000D01*
%TO.N,Net-(D11-K)*%
X34580000Y-38741700D02*
X32040000Y-41281700D01*
X34580000Y-37590000D02*
X34580000Y-38741700D01*
X32040000Y-41281700D02*
X32040000Y-42035000D01*
%TO.N,Net-(D12-A)*%
X37120000Y-47750000D02*
X37120000Y-46480000D01*
X34580000Y-50290000D02*
X37120000Y-47750000D01*
%TO.N,Net-(D18-A)*%
X49940000Y-50290000D02*
X52480000Y-47750000D01*
X52480000Y-47750000D02*
X52480000Y-46480000D01*
%TO.N,Net-(D19-A)*%
X55080000Y-17270000D02*
X55080000Y-16000000D01*
X57620000Y-19810000D02*
X55080000Y-17270000D01*
%TO.N,Net-(D22-A)*%
X67840000Y-17270000D02*
X67840000Y-16000000D01*
X65300000Y-19810000D02*
X67840000Y-17270000D01*
%TO.N,Net-(D22-K)*%
X64125400Y-22350000D02*
X63502200Y-22973200D01*
X65300000Y-22350000D02*
X64125400Y-22350000D01*
%TO.N,Net-(D23-A)*%
X65300000Y-33780000D02*
X67840000Y-31240000D01*
X65300000Y-35050000D02*
X65300000Y-33780000D01*
%TO.N,Net-(R52-Pad2)*%
X52640000Y-78390000D02*
X53870000Y-79620000D01*
X43870000Y-77080000D02*
X45180000Y-78390000D01*
X45180000Y-78390000D02*
X52640000Y-78390000D01*
%TO.N,Net-(R53-Pad2)*%
X46490000Y-82160000D02*
X53870000Y-82160000D01*
X43870000Y-84780000D02*
X46490000Y-82160000D01*
%TO.N,Net-(R54-Pad2)*%
X53718500Y-91423700D02*
X54980800Y-90161400D01*
X44926300Y-91423700D02*
X53718500Y-91423700D01*
X43870000Y-92480000D02*
X44926300Y-91423700D01*
X54980800Y-90161400D02*
X54980800Y-85810800D01*
X54980800Y-85810800D02*
X53870000Y-84700000D01*
%TO.N,Net-(R55-Pad2)*%
X43665200Y-86090000D02*
X52720000Y-86090000D01*
X42204000Y-84628800D02*
X43665200Y-86090000D01*
X37870000Y-77080000D02*
X42204000Y-81414000D01*
X52720000Y-86090000D02*
X53870000Y-87240000D01*
X42204000Y-81414000D02*
X42204000Y-84628800D01*
%TO.N,Net-(R56-Pad2)*%
X37870000Y-84780000D02*
X42870000Y-89780000D01*
X42870000Y-89780000D02*
X53870000Y-89780000D01*
%TO.N,Net-(R60-Pad2)*%
X74590000Y-77080000D02*
X75900000Y-78390000D01*
X83360000Y-78390000D02*
X84590000Y-79620000D01*
X75900000Y-78390000D02*
X83360000Y-78390000D01*
%TO.N,Net-(R61-Pad2)*%
X77210000Y-82160000D02*
X84590000Y-82160000D01*
X74590000Y-84780000D02*
X77210000Y-82160000D01*
%TO.N,Net-(R62-Pad2)*%
X74590000Y-92480000D02*
X77042300Y-92480000D01*
X77042300Y-92480000D02*
X84590000Y-84932300D01*
X84590000Y-84932300D02*
X84590000Y-84700000D01*
%TO.N,Net-(R63-Pad2)*%
X72400000Y-80890000D02*
X84870300Y-80890000D01*
X85649800Y-81669500D02*
X85649800Y-86180200D01*
X85649800Y-86180200D02*
X84590000Y-87240000D01*
X68590000Y-77080000D02*
X72400000Y-80890000D01*
X84870300Y-80890000D02*
X85649800Y-81669500D01*
%TO.N,RST*%
X79074300Y-9659700D02*
X26436600Y-9659700D01*
X24600000Y-7185700D02*
X23783600Y-6369300D01*
X65300000Y-42035000D02*
X66301700Y-41033300D01*
X79181700Y-58118300D02*
X78120000Y-59180000D01*
X19380700Y-6369300D02*
X18250000Y-7500000D01*
X26436600Y-9659700D02*
X24600000Y-7823100D01*
X79181700Y-43433400D02*
X79181700Y-44108200D01*
X68912700Y-41033300D02*
X69418900Y-41539500D01*
X23783600Y-6369300D02*
X19380700Y-6369300D01*
X66301700Y-41033300D02*
X68912700Y-41033300D01*
X81694300Y-44108200D02*
X79181700Y-44108200D01*
X77287800Y-41539500D02*
X79181700Y-43433400D01*
X79181700Y-44108200D02*
X79181700Y-58118300D01*
X79441500Y-9292500D02*
X79074300Y-9659700D01*
X69418900Y-41539500D02*
X77287800Y-41539500D01*
X24600000Y-7823100D02*
X24600000Y-7185700D01*
%TO.N,SUB*%
X80590000Y-72000000D02*
X80880600Y-71709400D01*
X13627500Y-55187500D02*
X11540000Y-57275000D01*
X75520000Y-55187500D02*
X13627500Y-55187500D01*
X76607500Y-59724000D02*
X76607500Y-56275000D01*
X75520000Y-55187500D02*
X75520000Y-54100000D01*
X80880600Y-63997100D02*
X76607500Y-59724000D01*
X76607500Y-56275000D02*
X75520000Y-55187500D01*
X80880600Y-71709400D02*
X80880600Y-63997100D01*
%TO.N,ZF*%
X58039300Y-41033300D02*
X57149200Y-41033300D01*
X55934300Y-43036700D02*
X50941700Y-43036700D01*
X58840900Y-42132600D02*
X58840900Y-41834900D01*
X64592700Y-44085300D02*
X60793600Y-44085300D01*
X57149200Y-41033300D02*
X56135600Y-42046900D01*
X58840900Y-41834900D02*
X58039300Y-41033300D01*
X56135600Y-42046900D02*
X56135600Y-42835400D01*
X65535900Y-45028500D02*
X64592700Y-44085300D01*
X78120000Y-49020000D02*
X74128500Y-45028500D01*
X50941700Y-43036700D02*
X49940000Y-42035000D01*
X56135600Y-42835400D02*
X55934300Y-43036700D01*
X60793600Y-44085300D02*
X58840900Y-42132600D01*
X74128500Y-45028500D02*
X65535900Y-45028500D01*
%TD*%
M02*
