%TF.GenerationSoftware,KiCad,Pcbnew,10.0.5*%
%TF.CreationDate,2026-09-11T05:31:18-04:00*%
%TF.ProjectId,memslot,6d656d73-6c6f-4742-9e6b-696361645f70,rev?*%
%TF.SameCoordinates,Original*%
%TF.FileFunction,Legend,Top*%
%TF.FilePolarity,Positive*%
%FSLAX46Y46*%
G04 Gerber Fmt 4.6, Leading zero omitted, Abs format (unit mm)*
G04 Created by KiCad (PCBNEW 10.0.5) date 2026-09-11 05:31:18*
%MOMM*%
%LPD*%
G01*
G04 APERTURE LIST*
%ADD10C,0.150000*%
%ADD11C,0.250000*%
%ADD12C,0.120000*%
G04 APERTURE END LIST*
D10*
X35670112Y-87762295D02*
X35289160Y-87762295D01*
X35289160Y-87762295D02*
X35289160Y-86962295D01*
X35936779Y-87762295D02*
X35936779Y-86962295D01*
X36317731Y-87762295D02*
X36317731Y-86962295D01*
X36317731Y-86962295D02*
X36774874Y-87762295D01*
X36774874Y-87762295D02*
X36774874Y-86962295D01*
X37155826Y-87762295D02*
X37155826Y-86962295D01*
X37612969Y-87762295D02*
X37270111Y-87305152D01*
X37612969Y-86962295D02*
X37155826Y-87419438D01*
X61941541Y-97762295D02*
X62017731Y-97762295D01*
X62017731Y-97762295D02*
X62093922Y-97800390D01*
X62093922Y-97800390D02*
X62132017Y-97838485D01*
X62132017Y-97838485D02*
X62170112Y-97914676D01*
X62170112Y-97914676D02*
X62208207Y-98067057D01*
X62208207Y-98067057D02*
X62208207Y-98257533D01*
X62208207Y-98257533D02*
X62170112Y-98409914D01*
X62170112Y-98409914D02*
X62132017Y-98486104D01*
X62132017Y-98486104D02*
X62093922Y-98524200D01*
X62093922Y-98524200D02*
X62017731Y-98562295D01*
X62017731Y-98562295D02*
X61941541Y-98562295D01*
X61941541Y-98562295D02*
X61865350Y-98524200D01*
X61865350Y-98524200D02*
X61827255Y-98486104D01*
X61827255Y-98486104D02*
X61789160Y-98409914D01*
X61789160Y-98409914D02*
X61751064Y-98257533D01*
X61751064Y-98257533D02*
X61751064Y-98067057D01*
X61751064Y-98067057D02*
X61789160Y-97914676D01*
X61789160Y-97914676D02*
X61827255Y-97838485D01*
X61827255Y-97838485D02*
X61865350Y-97800390D01*
X61865350Y-97800390D02*
X61941541Y-97762295D01*
X62851064Y-90933723D02*
X63232017Y-90933723D01*
X62774874Y-91162295D02*
X63041541Y-90362295D01*
X63041541Y-90362295D02*
X63308207Y-91162295D01*
X63498683Y-90362295D02*
X63993921Y-90362295D01*
X63993921Y-90362295D02*
X63727255Y-90667057D01*
X63727255Y-90667057D02*
X63841540Y-90667057D01*
X63841540Y-90667057D02*
X63917731Y-90705152D01*
X63917731Y-90705152D02*
X63955826Y-90743247D01*
X63955826Y-90743247D02*
X63993921Y-90819438D01*
X63993921Y-90819438D02*
X63993921Y-91009914D01*
X63993921Y-91009914D02*
X63955826Y-91086104D01*
X63955826Y-91086104D02*
X63917731Y-91124200D01*
X63917731Y-91124200D02*
X63841540Y-91162295D01*
X63841540Y-91162295D02*
X63612969Y-91162295D01*
X63612969Y-91162295D02*
X63536778Y-91124200D01*
X63536778Y-91124200D02*
X63498683Y-91086104D01*
X67308207Y-98562295D02*
X66851064Y-98562295D01*
X67079636Y-98562295D02*
X67079636Y-97762295D01*
X67079636Y-97762295D02*
X67003445Y-97876580D01*
X67003445Y-97876580D02*
X66927255Y-97952771D01*
X66927255Y-97952771D02*
X66851064Y-97990866D01*
X67989160Y-69052295D02*
X67989160Y-68252295D01*
X67989160Y-68252295D02*
X68255826Y-68823723D01*
X68255826Y-68823723D02*
X68522493Y-68252295D01*
X68522493Y-68252295D02*
X68522493Y-69052295D01*
X68903446Y-68633247D02*
X69170112Y-68633247D01*
X69284398Y-69052295D02*
X68903446Y-69052295D01*
X68903446Y-69052295D02*
X68903446Y-68252295D01*
X68903446Y-68252295D02*
X69284398Y-68252295D01*
X69551065Y-68252295D02*
X70046303Y-68252295D01*
X70046303Y-68252295D02*
X69779637Y-68557057D01*
X69779637Y-68557057D02*
X69893922Y-68557057D01*
X69893922Y-68557057D02*
X69970113Y-68595152D01*
X69970113Y-68595152D02*
X70008208Y-68633247D01*
X70008208Y-68633247D02*
X70046303Y-68709438D01*
X70046303Y-68709438D02*
X70046303Y-68899914D01*
X70046303Y-68899914D02*
X70008208Y-68976104D01*
X70008208Y-68976104D02*
X69970113Y-69014200D01*
X69970113Y-69014200D02*
X69893922Y-69052295D01*
X69893922Y-69052295D02*
X69665351Y-69052295D01*
X69665351Y-69052295D02*
X69589160Y-69014200D01*
X69589160Y-69014200D02*
X69551065Y-68976104D01*
X71441541Y-97762295D02*
X71517731Y-97762295D01*
X71517731Y-97762295D02*
X71593922Y-97800390D01*
X71593922Y-97800390D02*
X71632017Y-97838485D01*
X71632017Y-97838485D02*
X71670112Y-97914676D01*
X71670112Y-97914676D02*
X71708207Y-98067057D01*
X71708207Y-98067057D02*
X71708207Y-98257533D01*
X71708207Y-98257533D02*
X71670112Y-98409914D01*
X71670112Y-98409914D02*
X71632017Y-98486104D01*
X71632017Y-98486104D02*
X71593922Y-98524200D01*
X71593922Y-98524200D02*
X71517731Y-98562295D01*
X71517731Y-98562295D02*
X71441541Y-98562295D01*
X71441541Y-98562295D02*
X71365350Y-98524200D01*
X71365350Y-98524200D02*
X71327255Y-98486104D01*
X71327255Y-98486104D02*
X71289160Y-98409914D01*
X71289160Y-98409914D02*
X71251064Y-98257533D01*
X71251064Y-98257533D02*
X71251064Y-98067057D01*
X71251064Y-98067057D02*
X71289160Y-97914676D01*
X71289160Y-97914676D02*
X71327255Y-97838485D01*
X71327255Y-97838485D02*
X71365350Y-97800390D01*
X71365350Y-97800390D02*
X71441541Y-97762295D01*
X72351064Y-90933723D02*
X72732017Y-90933723D01*
X72274874Y-91162295D02*
X72541541Y-90362295D01*
X72541541Y-90362295D02*
X72808207Y-91162295D01*
X73036778Y-90438485D02*
X73074874Y-90400390D01*
X73074874Y-90400390D02*
X73151064Y-90362295D01*
X73151064Y-90362295D02*
X73341540Y-90362295D01*
X73341540Y-90362295D02*
X73417731Y-90400390D01*
X73417731Y-90400390D02*
X73455826Y-90438485D01*
X73455826Y-90438485D02*
X73493921Y-90514676D01*
X73493921Y-90514676D02*
X73493921Y-90590866D01*
X73493921Y-90590866D02*
X73455826Y-90705152D01*
X73455826Y-90705152D02*
X72998683Y-91162295D01*
X72998683Y-91162295D02*
X73493921Y-91162295D01*
X75669160Y-22062295D02*
X75669160Y-21262295D01*
X75669160Y-21262295D02*
X75935826Y-21833723D01*
X75935826Y-21833723D02*
X76202493Y-21262295D01*
X76202493Y-21262295D02*
X76202493Y-22062295D01*
X76583446Y-21643247D02*
X76850112Y-21643247D01*
X76964398Y-22062295D02*
X76583446Y-22062295D01*
X76583446Y-22062295D02*
X76583446Y-21262295D01*
X76583446Y-21262295D02*
X76964398Y-21262295D01*
X77269160Y-21338485D02*
X77307256Y-21300390D01*
X77307256Y-21300390D02*
X77383446Y-21262295D01*
X77383446Y-21262295D02*
X77573922Y-21262295D01*
X77573922Y-21262295D02*
X77650113Y-21300390D01*
X77650113Y-21300390D02*
X77688208Y-21338485D01*
X77688208Y-21338485D02*
X77726303Y-21414676D01*
X77726303Y-21414676D02*
X77726303Y-21490866D01*
X77726303Y-21490866D02*
X77688208Y-21605152D01*
X77688208Y-21605152D02*
X77231065Y-22062295D01*
X77231065Y-22062295D02*
X77726303Y-22062295D01*
X75669160Y-37302295D02*
X75669160Y-36502295D01*
X75669160Y-36502295D02*
X75935826Y-37073723D01*
X75935826Y-37073723D02*
X76202493Y-36502295D01*
X76202493Y-36502295D02*
X76202493Y-37302295D01*
X76583446Y-36883247D02*
X76850112Y-36883247D01*
X76964398Y-37302295D02*
X76583446Y-37302295D01*
X76583446Y-37302295D02*
X76583446Y-36502295D01*
X76583446Y-36502295D02*
X76964398Y-36502295D01*
X77726303Y-37302295D02*
X77269160Y-37302295D01*
X77497732Y-37302295D02*
X77497732Y-36502295D01*
X77497732Y-36502295D02*
X77421541Y-36616580D01*
X77421541Y-36616580D02*
X77345351Y-36692771D01*
X77345351Y-36692771D02*
X77269160Y-36730866D01*
X75669160Y-52542295D02*
X75669160Y-51742295D01*
X75669160Y-51742295D02*
X75935826Y-52313723D01*
X75935826Y-52313723D02*
X76202493Y-51742295D01*
X76202493Y-51742295D02*
X76202493Y-52542295D01*
X76583446Y-52123247D02*
X76850112Y-52123247D01*
X76964398Y-52542295D02*
X76583446Y-52542295D01*
X76583446Y-52542295D02*
X76583446Y-51742295D01*
X76583446Y-51742295D02*
X76964398Y-51742295D01*
X77459637Y-51742295D02*
X77535827Y-51742295D01*
X77535827Y-51742295D02*
X77612018Y-51780390D01*
X77612018Y-51780390D02*
X77650113Y-51818485D01*
X77650113Y-51818485D02*
X77688208Y-51894676D01*
X77688208Y-51894676D02*
X77726303Y-52047057D01*
X77726303Y-52047057D02*
X77726303Y-52237533D01*
X77726303Y-52237533D02*
X77688208Y-52389914D01*
X77688208Y-52389914D02*
X77650113Y-52466104D01*
X77650113Y-52466104D02*
X77612018Y-52504200D01*
X77612018Y-52504200D02*
X77535827Y-52542295D01*
X77535827Y-52542295D02*
X77459637Y-52542295D01*
X77459637Y-52542295D02*
X77383446Y-52504200D01*
X77383446Y-52504200D02*
X77345351Y-52466104D01*
X77345351Y-52466104D02*
X77307256Y-52389914D01*
X77307256Y-52389914D02*
X77269160Y-52237533D01*
X77269160Y-52237533D02*
X77269160Y-52047057D01*
X77269160Y-52047057D02*
X77307256Y-51894676D01*
X77307256Y-51894676D02*
X77345351Y-51818485D01*
X77345351Y-51818485D02*
X77383446Y-51780390D01*
X77383446Y-51780390D02*
X77459637Y-51742295D01*
X75669160Y-67782295D02*
X75669160Y-66982295D01*
X75669160Y-66982295D02*
X75935826Y-67553723D01*
X75935826Y-67553723D02*
X76202493Y-66982295D01*
X76202493Y-66982295D02*
X76202493Y-67782295D01*
X76735827Y-66982295D02*
X76888208Y-66982295D01*
X76888208Y-66982295D02*
X76964398Y-67020390D01*
X76964398Y-67020390D02*
X77040589Y-67096580D01*
X77040589Y-67096580D02*
X77078684Y-67248961D01*
X77078684Y-67248961D02*
X77078684Y-67515628D01*
X77078684Y-67515628D02*
X77040589Y-67668009D01*
X77040589Y-67668009D02*
X76964398Y-67744200D01*
X76964398Y-67744200D02*
X76888208Y-67782295D01*
X76888208Y-67782295D02*
X76735827Y-67782295D01*
X76735827Y-67782295D02*
X76659636Y-67744200D01*
X76659636Y-67744200D02*
X76583446Y-67668009D01*
X76583446Y-67668009D02*
X76545350Y-67515628D01*
X76545350Y-67515628D02*
X76545350Y-67248961D01*
X76545350Y-67248961D02*
X76583446Y-67096580D01*
X76583446Y-67096580D02*
X76659636Y-67020390D01*
X76659636Y-67020390D02*
X76735827Y-66982295D01*
X77345350Y-66982295D02*
X77840588Y-66982295D01*
X77840588Y-66982295D02*
X77573922Y-67287057D01*
X77573922Y-67287057D02*
X77688207Y-67287057D01*
X77688207Y-67287057D02*
X77764398Y-67325152D01*
X77764398Y-67325152D02*
X77802493Y-67363247D01*
X77802493Y-67363247D02*
X77840588Y-67439438D01*
X77840588Y-67439438D02*
X77840588Y-67629914D01*
X77840588Y-67629914D02*
X77802493Y-67706104D01*
X77802493Y-67706104D02*
X77764398Y-67744200D01*
X77764398Y-67744200D02*
X77688207Y-67782295D01*
X77688207Y-67782295D02*
X77459636Y-67782295D01*
X77459636Y-67782295D02*
X77383445Y-67744200D01*
X77383445Y-67744200D02*
X77345350Y-67706104D01*
X76808207Y-98562295D02*
X76351064Y-98562295D01*
X76579636Y-98562295D02*
X76579636Y-97762295D01*
X76579636Y-97762295D02*
X76503445Y-97876580D01*
X76503445Y-97876580D02*
X76427255Y-97952771D01*
X76427255Y-97952771D02*
X76351064Y-97990866D01*
X80941541Y-97762295D02*
X81017731Y-97762295D01*
X81017731Y-97762295D02*
X81093922Y-97800390D01*
X81093922Y-97800390D02*
X81132017Y-97838485D01*
X81132017Y-97838485D02*
X81170112Y-97914676D01*
X81170112Y-97914676D02*
X81208207Y-98067057D01*
X81208207Y-98067057D02*
X81208207Y-98257533D01*
X81208207Y-98257533D02*
X81170112Y-98409914D01*
X81170112Y-98409914D02*
X81132017Y-98486104D01*
X81132017Y-98486104D02*
X81093922Y-98524200D01*
X81093922Y-98524200D02*
X81017731Y-98562295D01*
X81017731Y-98562295D02*
X80941541Y-98562295D01*
X80941541Y-98562295D02*
X80865350Y-98524200D01*
X80865350Y-98524200D02*
X80827255Y-98486104D01*
X80827255Y-98486104D02*
X80789160Y-98409914D01*
X80789160Y-98409914D02*
X80751064Y-98257533D01*
X80751064Y-98257533D02*
X80751064Y-98067057D01*
X80751064Y-98067057D02*
X80789160Y-97914676D01*
X80789160Y-97914676D02*
X80827255Y-97838485D01*
X80827255Y-97838485D02*
X80865350Y-97800390D01*
X80865350Y-97800390D02*
X80941541Y-97762295D01*
X81851064Y-90933723D02*
X82232017Y-90933723D01*
X81774874Y-91162295D02*
X82041541Y-90362295D01*
X82041541Y-90362295D02*
X82308207Y-91162295D01*
X82993921Y-91162295D02*
X82536778Y-91162295D01*
X82765350Y-91162295D02*
X82765350Y-90362295D01*
X82765350Y-90362295D02*
X82689159Y-90476580D01*
X82689159Y-90476580D02*
X82612969Y-90552771D01*
X82612969Y-90552771D02*
X82536778Y-90590866D01*
X83349160Y-22062295D02*
X83349160Y-21262295D01*
X83349160Y-21262295D02*
X83615826Y-21833723D01*
X83615826Y-21833723D02*
X83882493Y-21262295D01*
X83882493Y-21262295D02*
X83882493Y-22062295D01*
X84415827Y-21262295D02*
X84568208Y-21262295D01*
X84568208Y-21262295D02*
X84644398Y-21300390D01*
X84644398Y-21300390D02*
X84720589Y-21376580D01*
X84720589Y-21376580D02*
X84758684Y-21528961D01*
X84758684Y-21528961D02*
X84758684Y-21795628D01*
X84758684Y-21795628D02*
X84720589Y-21948009D01*
X84720589Y-21948009D02*
X84644398Y-22024200D01*
X84644398Y-22024200D02*
X84568208Y-22062295D01*
X84568208Y-22062295D02*
X84415827Y-22062295D01*
X84415827Y-22062295D02*
X84339636Y-22024200D01*
X84339636Y-22024200D02*
X84263446Y-21948009D01*
X84263446Y-21948009D02*
X84225350Y-21795628D01*
X84225350Y-21795628D02*
X84225350Y-21528961D01*
X84225350Y-21528961D02*
X84263446Y-21376580D01*
X84263446Y-21376580D02*
X84339636Y-21300390D01*
X84339636Y-21300390D02*
X84415827Y-21262295D01*
X85063445Y-21338485D02*
X85101541Y-21300390D01*
X85101541Y-21300390D02*
X85177731Y-21262295D01*
X85177731Y-21262295D02*
X85368207Y-21262295D01*
X85368207Y-21262295D02*
X85444398Y-21300390D01*
X85444398Y-21300390D02*
X85482493Y-21338485D01*
X85482493Y-21338485D02*
X85520588Y-21414676D01*
X85520588Y-21414676D02*
X85520588Y-21490866D01*
X85520588Y-21490866D02*
X85482493Y-21605152D01*
X85482493Y-21605152D02*
X85025350Y-22062295D01*
X85025350Y-22062295D02*
X85520588Y-22062295D01*
X83349160Y-37302295D02*
X83349160Y-36502295D01*
X83349160Y-36502295D02*
X83615826Y-37073723D01*
X83615826Y-37073723D02*
X83882493Y-36502295D01*
X83882493Y-36502295D02*
X83882493Y-37302295D01*
X84415827Y-36502295D02*
X84568208Y-36502295D01*
X84568208Y-36502295D02*
X84644398Y-36540390D01*
X84644398Y-36540390D02*
X84720589Y-36616580D01*
X84720589Y-36616580D02*
X84758684Y-36768961D01*
X84758684Y-36768961D02*
X84758684Y-37035628D01*
X84758684Y-37035628D02*
X84720589Y-37188009D01*
X84720589Y-37188009D02*
X84644398Y-37264200D01*
X84644398Y-37264200D02*
X84568208Y-37302295D01*
X84568208Y-37302295D02*
X84415827Y-37302295D01*
X84415827Y-37302295D02*
X84339636Y-37264200D01*
X84339636Y-37264200D02*
X84263446Y-37188009D01*
X84263446Y-37188009D02*
X84225350Y-37035628D01*
X84225350Y-37035628D02*
X84225350Y-36768961D01*
X84225350Y-36768961D02*
X84263446Y-36616580D01*
X84263446Y-36616580D02*
X84339636Y-36540390D01*
X84339636Y-36540390D02*
X84415827Y-36502295D01*
X85520588Y-37302295D02*
X85063445Y-37302295D01*
X85292017Y-37302295D02*
X85292017Y-36502295D01*
X85292017Y-36502295D02*
X85215826Y-36616580D01*
X85215826Y-36616580D02*
X85139636Y-36692771D01*
X85139636Y-36692771D02*
X85063445Y-36730866D01*
X83349160Y-52542295D02*
X83349160Y-51742295D01*
X83349160Y-51742295D02*
X83615826Y-52313723D01*
X83615826Y-52313723D02*
X83882493Y-51742295D01*
X83882493Y-51742295D02*
X83882493Y-52542295D01*
X84415827Y-51742295D02*
X84568208Y-51742295D01*
X84568208Y-51742295D02*
X84644398Y-51780390D01*
X84644398Y-51780390D02*
X84720589Y-51856580D01*
X84720589Y-51856580D02*
X84758684Y-52008961D01*
X84758684Y-52008961D02*
X84758684Y-52275628D01*
X84758684Y-52275628D02*
X84720589Y-52428009D01*
X84720589Y-52428009D02*
X84644398Y-52504200D01*
X84644398Y-52504200D02*
X84568208Y-52542295D01*
X84568208Y-52542295D02*
X84415827Y-52542295D01*
X84415827Y-52542295D02*
X84339636Y-52504200D01*
X84339636Y-52504200D02*
X84263446Y-52428009D01*
X84263446Y-52428009D02*
X84225350Y-52275628D01*
X84225350Y-52275628D02*
X84225350Y-52008961D01*
X84225350Y-52008961D02*
X84263446Y-51856580D01*
X84263446Y-51856580D02*
X84339636Y-51780390D01*
X84339636Y-51780390D02*
X84415827Y-51742295D01*
X85253922Y-51742295D02*
X85330112Y-51742295D01*
X85330112Y-51742295D02*
X85406303Y-51780390D01*
X85406303Y-51780390D02*
X85444398Y-51818485D01*
X85444398Y-51818485D02*
X85482493Y-51894676D01*
X85482493Y-51894676D02*
X85520588Y-52047057D01*
X85520588Y-52047057D02*
X85520588Y-52237533D01*
X85520588Y-52237533D02*
X85482493Y-52389914D01*
X85482493Y-52389914D02*
X85444398Y-52466104D01*
X85444398Y-52466104D02*
X85406303Y-52504200D01*
X85406303Y-52504200D02*
X85330112Y-52542295D01*
X85330112Y-52542295D02*
X85253922Y-52542295D01*
X85253922Y-52542295D02*
X85177731Y-52504200D01*
X85177731Y-52504200D02*
X85139636Y-52466104D01*
X85139636Y-52466104D02*
X85101541Y-52389914D01*
X85101541Y-52389914D02*
X85063445Y-52237533D01*
X85063445Y-52237533D02*
X85063445Y-52047057D01*
X85063445Y-52047057D02*
X85101541Y-51894676D01*
X85101541Y-51894676D02*
X85139636Y-51818485D01*
X85139636Y-51818485D02*
X85177731Y-51780390D01*
X85177731Y-51780390D02*
X85253922Y-51742295D01*
X86308207Y-98562295D02*
X85851064Y-98562295D01*
X86079636Y-98562295D02*
X86079636Y-97762295D01*
X86079636Y-97762295D02*
X86003445Y-97876580D01*
X86003445Y-97876580D02*
X85927255Y-97952771D01*
X85927255Y-97952771D02*
X85851064Y-97990866D01*
X4490588Y-8854819D02*
X3919160Y-8854819D01*
X4204874Y-8854819D02*
X4204874Y-7854819D01*
X4204874Y-7854819D02*
X4109636Y-7997676D01*
X4109636Y-7997676D02*
X4014398Y-8092914D01*
X4014398Y-8092914D02*
X3919160Y-8140533D01*
D11*
X44521615Y-88180928D02*
X44521615Y-86680928D01*
X44521615Y-86680928D02*
X45378758Y-88180928D01*
X45378758Y-88180928D02*
X45378758Y-86680928D01*
X46093044Y-88180928D02*
X46093044Y-86680928D01*
X47307330Y-87395214D02*
X47521616Y-87466642D01*
X47521616Y-87466642D02*
X47593045Y-87538071D01*
X47593045Y-87538071D02*
X47664473Y-87680928D01*
X47664473Y-87680928D02*
X47664473Y-87895214D01*
X47664473Y-87895214D02*
X47593045Y-88038071D01*
X47593045Y-88038071D02*
X47521616Y-88109500D01*
X47521616Y-88109500D02*
X47378759Y-88180928D01*
X47378759Y-88180928D02*
X46807330Y-88180928D01*
X46807330Y-88180928D02*
X46807330Y-86680928D01*
X46807330Y-86680928D02*
X47307330Y-86680928D01*
X47307330Y-86680928D02*
X47450188Y-86752357D01*
X47450188Y-86752357D02*
X47521616Y-86823785D01*
X47521616Y-86823785D02*
X47593045Y-86966642D01*
X47593045Y-86966642D02*
X47593045Y-87109500D01*
X47593045Y-87109500D02*
X47521616Y-87252357D01*
X47521616Y-87252357D02*
X47450188Y-87323785D01*
X47450188Y-87323785D02*
X47307330Y-87395214D01*
X47307330Y-87395214D02*
X46807330Y-87395214D01*
X48807330Y-87395214D02*
X49021616Y-87466642D01*
X49021616Y-87466642D02*
X49093045Y-87538071D01*
X49093045Y-87538071D02*
X49164473Y-87680928D01*
X49164473Y-87680928D02*
X49164473Y-87895214D01*
X49164473Y-87895214D02*
X49093045Y-88038071D01*
X49093045Y-88038071D02*
X49021616Y-88109500D01*
X49021616Y-88109500D02*
X48878759Y-88180928D01*
X48878759Y-88180928D02*
X48307330Y-88180928D01*
X48307330Y-88180928D02*
X48307330Y-86680928D01*
X48307330Y-86680928D02*
X48807330Y-86680928D01*
X48807330Y-86680928D02*
X48950188Y-86752357D01*
X48950188Y-86752357D02*
X49021616Y-86823785D01*
X49021616Y-86823785D02*
X49093045Y-86966642D01*
X49093045Y-86966642D02*
X49093045Y-87109500D01*
X49093045Y-87109500D02*
X49021616Y-87252357D01*
X49021616Y-87252357D02*
X48950188Y-87323785D01*
X48950188Y-87323785D02*
X48807330Y-87395214D01*
X48807330Y-87395214D02*
X48307330Y-87395214D01*
X50521616Y-88180928D02*
X49807330Y-88180928D01*
X49807330Y-88180928D02*
X49807330Y-86680928D01*
X51021616Y-87395214D02*
X51521616Y-87395214D01*
X51735902Y-88180928D02*
X51021616Y-88180928D01*
X51021616Y-88180928D02*
X51021616Y-86680928D01*
X51021616Y-86680928D02*
X51735902Y-86680928D01*
X54664473Y-88180928D02*
X54664473Y-86680928D01*
X54664473Y-86680928D02*
X55164473Y-87752357D01*
X55164473Y-87752357D02*
X55664473Y-86680928D01*
X55664473Y-86680928D02*
X55664473Y-88180928D01*
X56378759Y-87395214D02*
X56878759Y-87395214D01*
X57093045Y-88180928D02*
X56378759Y-88180928D01*
X56378759Y-88180928D02*
X56378759Y-86680928D01*
X56378759Y-86680928D02*
X57093045Y-86680928D01*
X57735902Y-88180928D02*
X57735902Y-86680928D01*
X57735902Y-86680928D02*
X58235902Y-87752357D01*
X58235902Y-87752357D02*
X58735902Y-86680928D01*
X58735902Y-86680928D02*
X58735902Y-88180928D01*
X59735903Y-86680928D02*
X60021617Y-86680928D01*
X60021617Y-86680928D02*
X60164474Y-86752357D01*
X60164474Y-86752357D02*
X60307331Y-86895214D01*
X60307331Y-86895214D02*
X60378760Y-87180928D01*
X60378760Y-87180928D02*
X60378760Y-87680928D01*
X60378760Y-87680928D02*
X60307331Y-87966642D01*
X60307331Y-87966642D02*
X60164474Y-88109500D01*
X60164474Y-88109500D02*
X60021617Y-88180928D01*
X60021617Y-88180928D02*
X59735903Y-88180928D01*
X59735903Y-88180928D02*
X59593046Y-88109500D01*
X59593046Y-88109500D02*
X59450188Y-87966642D01*
X59450188Y-87966642D02*
X59378760Y-87680928D01*
X59378760Y-87680928D02*
X59378760Y-87180928D01*
X59378760Y-87180928D02*
X59450188Y-86895214D01*
X59450188Y-86895214D02*
X59593046Y-86752357D01*
X59593046Y-86752357D02*
X59735903Y-86680928D01*
X61878760Y-88180928D02*
X61378760Y-87466642D01*
X61021617Y-88180928D02*
X61021617Y-86680928D01*
X61021617Y-86680928D02*
X61593046Y-86680928D01*
X61593046Y-86680928D02*
X61735903Y-86752357D01*
X61735903Y-86752357D02*
X61807332Y-86823785D01*
X61807332Y-86823785D02*
X61878760Y-86966642D01*
X61878760Y-86966642D02*
X61878760Y-87180928D01*
X61878760Y-87180928D02*
X61807332Y-87323785D01*
X61807332Y-87323785D02*
X61735903Y-87395214D01*
X61735903Y-87395214D02*
X61593046Y-87466642D01*
X61593046Y-87466642D02*
X61021617Y-87466642D01*
X62807332Y-87466642D02*
X62807332Y-88180928D01*
X62307332Y-86680928D02*
X62807332Y-87466642D01*
X62807332Y-87466642D02*
X63307332Y-86680928D01*
X64878760Y-88109500D02*
X65093046Y-88180928D01*
X65093046Y-88180928D02*
X65450188Y-88180928D01*
X65450188Y-88180928D02*
X65593046Y-88109500D01*
X65593046Y-88109500D02*
X65664474Y-88038071D01*
X65664474Y-88038071D02*
X65735903Y-87895214D01*
X65735903Y-87895214D02*
X65735903Y-87752357D01*
X65735903Y-87752357D02*
X65664474Y-87609500D01*
X65664474Y-87609500D02*
X65593046Y-87538071D01*
X65593046Y-87538071D02*
X65450188Y-87466642D01*
X65450188Y-87466642D02*
X65164474Y-87395214D01*
X65164474Y-87395214D02*
X65021617Y-87323785D01*
X65021617Y-87323785D02*
X64950188Y-87252357D01*
X64950188Y-87252357D02*
X64878760Y-87109500D01*
X64878760Y-87109500D02*
X64878760Y-86966642D01*
X64878760Y-86966642D02*
X64950188Y-86823785D01*
X64950188Y-86823785D02*
X65021617Y-86752357D01*
X65021617Y-86752357D02*
X65164474Y-86680928D01*
X65164474Y-86680928D02*
X65521617Y-86680928D01*
X65521617Y-86680928D02*
X65735903Y-86752357D01*
X67093045Y-88180928D02*
X66378759Y-88180928D01*
X66378759Y-88180928D02*
X66378759Y-86680928D01*
X67878760Y-86680928D02*
X68164474Y-86680928D01*
X68164474Y-86680928D02*
X68307331Y-86752357D01*
X68307331Y-86752357D02*
X68450188Y-86895214D01*
X68450188Y-86895214D02*
X68521617Y-87180928D01*
X68521617Y-87180928D02*
X68521617Y-87680928D01*
X68521617Y-87680928D02*
X68450188Y-87966642D01*
X68450188Y-87966642D02*
X68307331Y-88109500D01*
X68307331Y-88109500D02*
X68164474Y-88180928D01*
X68164474Y-88180928D02*
X67878760Y-88180928D01*
X67878760Y-88180928D02*
X67735903Y-88109500D01*
X67735903Y-88109500D02*
X67593045Y-87966642D01*
X67593045Y-87966642D02*
X67521617Y-87680928D01*
X67521617Y-87680928D02*
X67521617Y-87180928D01*
X67521617Y-87180928D02*
X67593045Y-86895214D01*
X67593045Y-86895214D02*
X67735903Y-86752357D01*
X67735903Y-86752357D02*
X67878760Y-86680928D01*
X68950189Y-86680928D02*
X69807332Y-86680928D01*
X69378760Y-88180928D02*
X69378760Y-86680928D01*
X70235903Y-88109500D02*
X70450189Y-88180928D01*
X70450189Y-88180928D02*
X70807331Y-88180928D01*
X70807331Y-88180928D02*
X70950189Y-88109500D01*
X70950189Y-88109500D02*
X71021617Y-88038071D01*
X71021617Y-88038071D02*
X71093046Y-87895214D01*
X71093046Y-87895214D02*
X71093046Y-87752357D01*
X71093046Y-87752357D02*
X71021617Y-87609500D01*
X71021617Y-87609500D02*
X70950189Y-87538071D01*
X70950189Y-87538071D02*
X70807331Y-87466642D01*
X70807331Y-87466642D02*
X70521617Y-87395214D01*
X70521617Y-87395214D02*
X70378760Y-87323785D01*
X70378760Y-87323785D02*
X70307331Y-87252357D01*
X70307331Y-87252357D02*
X70235903Y-87109500D01*
X70235903Y-87109500D02*
X70235903Y-86966642D01*
X70235903Y-86966642D02*
X70307331Y-86823785D01*
X70307331Y-86823785D02*
X70378760Y-86752357D01*
X70378760Y-86752357D02*
X70521617Y-86680928D01*
X70521617Y-86680928D02*
X70878760Y-86680928D01*
X70878760Y-86680928D02*
X71093046Y-86752357D01*
D10*
X95238095Y-46304819D02*
X95238095Y-45304819D01*
X95238095Y-45781009D02*
X95809523Y-45781009D01*
X95809523Y-46304819D02*
X95809523Y-45304819D01*
X96238095Y-45400057D02*
X96285714Y-45352438D01*
X96285714Y-45352438D02*
X96380952Y-45304819D01*
X96380952Y-45304819D02*
X96619047Y-45304819D01*
X96619047Y-45304819D02*
X96714285Y-45352438D01*
X96714285Y-45352438D02*
X96761904Y-45400057D01*
X96761904Y-45400057D02*
X96809523Y-45495295D01*
X96809523Y-45495295D02*
X96809523Y-45590533D01*
X96809523Y-45590533D02*
X96761904Y-45733390D01*
X96761904Y-45733390D02*
X96190476Y-46304819D01*
X96190476Y-46304819D02*
X96809523Y-46304819D01*
X3238095Y-46304819D02*
X3238095Y-45304819D01*
X3238095Y-45781009D02*
X3809523Y-45781009D01*
X3809523Y-46304819D02*
X3809523Y-45304819D01*
X4809523Y-46304819D02*
X4238095Y-46304819D01*
X4523809Y-46304819D02*
X4523809Y-45304819D01*
X4523809Y-45304819D02*
X4428571Y-45447676D01*
X4428571Y-45447676D02*
X4333333Y-45542914D01*
X4333333Y-45542914D02*
X4238095Y-45590533D01*
X99109580Y-27166666D02*
X99157200Y-27214285D01*
X99157200Y-27214285D02*
X99204819Y-27357142D01*
X99204819Y-27357142D02*
X99204819Y-27452380D01*
X99204819Y-27452380D02*
X99157200Y-27595237D01*
X99157200Y-27595237D02*
X99061961Y-27690475D01*
X99061961Y-27690475D02*
X98966723Y-27738094D01*
X98966723Y-27738094D02*
X98776247Y-27785713D01*
X98776247Y-27785713D02*
X98633390Y-27785713D01*
X98633390Y-27785713D02*
X98442914Y-27738094D01*
X98442914Y-27738094D02*
X98347676Y-27690475D01*
X98347676Y-27690475D02*
X98252438Y-27595237D01*
X98252438Y-27595237D02*
X98204819Y-27452380D01*
X98204819Y-27452380D02*
X98204819Y-27357142D01*
X98204819Y-27357142D02*
X98252438Y-27214285D01*
X98252438Y-27214285D02*
X98300057Y-27166666D01*
X98300057Y-26785713D02*
X98252438Y-26738094D01*
X98252438Y-26738094D02*
X98204819Y-26642856D01*
X98204819Y-26642856D02*
X98204819Y-26404761D01*
X98204819Y-26404761D02*
X98252438Y-26309523D01*
X98252438Y-26309523D02*
X98300057Y-26261904D01*
X98300057Y-26261904D02*
X98395295Y-26214285D01*
X98395295Y-26214285D02*
X98490533Y-26214285D01*
X98490533Y-26214285D02*
X98633390Y-26261904D01*
X98633390Y-26261904D02*
X99204819Y-26833332D01*
X99204819Y-26833332D02*
X99204819Y-26214285D01*
X97859580Y-17916666D02*
X97907200Y-17964285D01*
X97907200Y-17964285D02*
X97954819Y-18107142D01*
X97954819Y-18107142D02*
X97954819Y-18202380D01*
X97954819Y-18202380D02*
X97907200Y-18345237D01*
X97907200Y-18345237D02*
X97811961Y-18440475D01*
X97811961Y-18440475D02*
X97716723Y-18488094D01*
X97716723Y-18488094D02*
X97526247Y-18535713D01*
X97526247Y-18535713D02*
X97383390Y-18535713D01*
X97383390Y-18535713D02*
X97192914Y-18488094D01*
X97192914Y-18488094D02*
X97097676Y-18440475D01*
X97097676Y-18440475D02*
X97002438Y-18345237D01*
X97002438Y-18345237D02*
X96954819Y-18202380D01*
X96954819Y-18202380D02*
X96954819Y-18107142D01*
X96954819Y-18107142D02*
X97002438Y-17964285D01*
X97002438Y-17964285D02*
X97050057Y-17916666D01*
X97954819Y-16964285D02*
X97954819Y-17535713D01*
X97954819Y-17249999D02*
X96954819Y-17249999D01*
X96954819Y-17249999D02*
X97097676Y-17345237D01*
X97097676Y-17345237D02*
X97192914Y-17440475D01*
X97192914Y-17440475D02*
X97240533Y-17535713D01*
%TO.C,Q74*%
D12*
X55820000Y-76270000D02*
X59420000Y-76270000D01*
X55263600Y-73321193D02*
G75*
G02*
X57620000Y-71820000I2356400J-1098807D01*
G01*
X55820000Y-76270000D02*
G75*
G02*
X55295816Y-75542795I1800000J1850000D01*
G01*
X57620000Y-71820000D02*
G75*
G02*
X59976400Y-73321193I0J-2600000D01*
G01*
X59944184Y-75542795D02*
G75*
G02*
X59420000Y-76270000I-2324184J1122795D01*
G01*
%TO.C,Q64*%
X55820000Y-19120000D02*
X59420000Y-19120000D01*
X55263600Y-16171193D02*
G75*
G02*
X57620000Y-14670000I2356400J-1098807D01*
G01*
X55820000Y-19120000D02*
G75*
G02*
X55295816Y-18392795I1800000J1850000D01*
G01*
X57620000Y-14670000D02*
G75*
G02*
X59976400Y-16171193I0J-2600000D01*
G01*
X59944184Y-18392795D02*
G75*
G02*
X59420000Y-19120000I-2324184J1122795D01*
G01*
%TO.C,D3*%
X71744000Y-37880000D02*
X71900000Y-37880000D01*
X74060000Y-37880000D02*
X74216000Y-37880000D01*
X71744484Y-37880000D02*
G75*
G02*
X71900000Y-34648563I1235516J1560000D01*
G01*
X71900000Y-37360961D02*
G75*
G02*
X71900000Y-35279039I1080000J1040961D01*
G01*
X74060000Y-34648563D02*
G75*
G02*
X74215516Y-37880000I-1080000J-1671437D01*
G01*
X74060000Y-35279039D02*
G75*
G02*
X74060000Y-37360961I-1080000J-1040961D01*
G01*
%TO.C,R17*%
X33410000Y-54735000D02*
X36020000Y-54735000D01*
X33410000Y-54735000D02*
G75*
G02*
X30670000Y-54735000I-1370000J0D01*
G01*
X30670000Y-54735000D02*
G75*
G02*
X33410000Y-54735000I1370000J0D01*
G01*
%TO.C,D8*%
X79424000Y-53120000D02*
X79580000Y-53120000D01*
X81740000Y-53120000D02*
X81896000Y-53120000D01*
X79424484Y-53120000D02*
G75*
G02*
X79580000Y-49888563I1235516J1560000D01*
G01*
X79580000Y-52600961D02*
G75*
G02*
X79580000Y-50519039I1080000J1040961D01*
G01*
X81740000Y-49888563D02*
G75*
G02*
X81895516Y-53120000I-1080000J-1671437D01*
G01*
X81740000Y-50519039D02*
G75*
G02*
X81740000Y-52600961I-1080000J-1040961D01*
G01*
%TO.C,Q79*%
X67100000Y-36375000D02*
X63500000Y-36375000D01*
X62975816Y-37102205D02*
G75*
G02*
X63500000Y-36375000I2324184J-1122795D01*
G01*
X65300000Y-40825000D02*
G75*
G02*
X62943600Y-39323807I0J2600000D01*
G01*
X67100000Y-36375000D02*
G75*
G02*
X67624184Y-37102205I-1800000J-1850000D01*
G01*
X67656400Y-39323807D02*
G75*
G02*
X65300000Y-40825000I-2356400J1098807D01*
G01*
%TO.C,Q58*%
X51740000Y-43360000D02*
X48140000Y-43360000D01*
X47615816Y-44087205D02*
G75*
G02*
X48140000Y-43360000I2324184J-1122795D01*
G01*
X49940000Y-47810000D02*
G75*
G02*
X47583600Y-46308807I0J2600000D01*
G01*
X51740000Y-43360000D02*
G75*
G02*
X52264184Y-44087205I-1800000J-1850000D01*
G01*
X52296400Y-46308807D02*
G75*
G02*
X49940000Y-47810000I-2356400J1098807D01*
G01*
%TO.C,R9*%
X18050000Y-42670000D02*
X20660000Y-42670000D01*
X18050000Y-42670000D02*
G75*
G02*
X15310000Y-42670000I-1370000J0D01*
G01*
X15310000Y-42670000D02*
G75*
G02*
X18050000Y-42670000I1370000J0D01*
G01*
%TO.C,Q8*%
X9740000Y-73730000D02*
X13340000Y-73730000D01*
X9183600Y-70781193D02*
G75*
G02*
X11540000Y-69280000I2356400J-1098807D01*
G01*
X9740000Y-73730000D02*
G75*
G02*
X9215816Y-73002795I1800000J1850000D01*
G01*
X11540000Y-69280000D02*
G75*
G02*
X13896400Y-70781193I0J-2600000D01*
G01*
X13864184Y-73002795D02*
G75*
G02*
X13340000Y-73730000I-2324184J1122795D01*
G01*
%TO.C,R13*%
X25730000Y-24255000D02*
X28340000Y-24255000D01*
X25730000Y-24255000D02*
G75*
G02*
X22990000Y-24255000I-1370000J0D01*
G01*
X22990000Y-24255000D02*
G75*
G02*
X25730000Y-24255000I1370000J0D01*
G01*
%TO.C,Q70*%
X55820000Y-55950000D02*
X59420000Y-55950000D01*
X55263600Y-53001193D02*
G75*
G02*
X57620000Y-51500000I2356400J-1098807D01*
G01*
X55820000Y-55950000D02*
G75*
G02*
X55295816Y-55222795I1800000J1850000D01*
G01*
X57620000Y-51500000D02*
G75*
G02*
X59976400Y-53001193I0J-2600000D01*
G01*
X59944184Y-55222795D02*
G75*
G02*
X59420000Y-55950000I-2324184J1122795D01*
G01*
%TO.C,R8*%
X18050000Y-29335000D02*
X20660000Y-29335000D01*
X18050000Y-29335000D02*
G75*
G02*
X15310000Y-29335000I-1370000J0D01*
G01*
X15310000Y-29335000D02*
G75*
G02*
X18050000Y-29335000I1370000J0D01*
G01*
%TO.C,R24*%
X56450000Y-36320000D02*
X59060000Y-36320000D01*
X56450000Y-36320000D02*
G75*
G02*
X53710000Y-36320000I-1370000J0D01*
G01*
X53710000Y-36320000D02*
G75*
G02*
X56450000Y-36320000I1370000J0D01*
G01*
%TO.C,Q25*%
X25100000Y-50870000D02*
X28700000Y-50870000D01*
X24543600Y-47921193D02*
G75*
G02*
X26900000Y-46420000I2356400J-1098807D01*
G01*
X25100000Y-50870000D02*
G75*
G02*
X24575816Y-50142795I1800000J1850000D01*
G01*
X26900000Y-46420000D02*
G75*
G02*
X29256400Y-47921193I0J-2600000D01*
G01*
X29224184Y-50142795D02*
G75*
G02*
X28700000Y-50870000I-2324184J1122795D01*
G01*
%TO.C,Q18*%
X21020000Y-71300000D02*
X17420000Y-71300000D01*
X16895816Y-72027205D02*
G75*
G02*
X17420000Y-71300000I2324184J-1122795D01*
G01*
X19220000Y-75750000D02*
G75*
G02*
X16863600Y-74248807I0J2600000D01*
G01*
X21020000Y-71300000D02*
G75*
G02*
X21544184Y-72027205I-1800000J-1850000D01*
G01*
X21576400Y-74248807D02*
G75*
G02*
X19220000Y-75750000I-2356400J1098807D01*
G01*
%TO.C,Q29*%
X25100000Y-77540000D02*
X28700000Y-77540000D01*
X24543600Y-74591193D02*
G75*
G02*
X26900000Y-73090000I2356400J-1098807D01*
G01*
X25100000Y-77540000D02*
G75*
G02*
X24575816Y-76812795I1800000J1850000D01*
G01*
X26900000Y-73090000D02*
G75*
G02*
X29256400Y-74591193I0J-2600000D01*
G01*
X29224184Y-76812795D02*
G75*
G02*
X28700000Y-77540000I-2324184J1122795D01*
G01*
%TO.C,Q38*%
X36380000Y-61775000D02*
X32780000Y-61775000D01*
X32255816Y-62502205D02*
G75*
G02*
X32780000Y-61775000I2324184J-1122795D01*
G01*
X34580000Y-66225000D02*
G75*
G02*
X32223600Y-64723807I0J2600000D01*
G01*
X36380000Y-61775000D02*
G75*
G02*
X36904184Y-62502205I-1800000J-1850000D01*
G01*
X36936400Y-64723807D02*
G75*
G02*
X34580000Y-66225000I-2356400J1098807D01*
G01*
%TO.C,Q42*%
X40460000Y-19120000D02*
X44060000Y-19120000D01*
X39903600Y-16171193D02*
G75*
G02*
X42260000Y-14670000I2356400J-1098807D01*
G01*
X40460000Y-19120000D02*
G75*
G02*
X39935816Y-18392795I1800000J1850000D01*
G01*
X42260000Y-14670000D02*
G75*
G02*
X44616400Y-16171193I0J-2600000D01*
G01*
X44584184Y-18392795D02*
G75*
G02*
X44060000Y-19120000I-2324184J1122795D01*
G01*
%TO.C,Q2*%
X9740000Y-30550000D02*
X13340000Y-30550000D01*
X9183600Y-27601193D02*
G75*
G02*
X11540000Y-26100000I2356400J-1098807D01*
G01*
X9740000Y-30550000D02*
G75*
G02*
X9215816Y-29822795I1800000J1850000D01*
G01*
X11540000Y-26100000D02*
G75*
G02*
X13896400Y-27601193I0J-2600000D01*
G01*
X13864184Y-29822795D02*
G75*
G02*
X13340000Y-30550000I-2324184J1122795D01*
G01*
%TO.C,Q4*%
X9740000Y-47060000D02*
X13340000Y-47060000D01*
X9183600Y-44111193D02*
G75*
G02*
X11540000Y-42610000I2356400J-1098807D01*
G01*
X9740000Y-47060000D02*
G75*
G02*
X9215816Y-46332795I1800000J1850000D01*
G01*
X11540000Y-42610000D02*
G75*
G02*
X13896400Y-44111193I0J-2600000D01*
G01*
X13864184Y-46332795D02*
G75*
G02*
X13340000Y-47060000I-2324184J1122795D01*
G01*
%TO.C,R27*%
X64130000Y-24255000D02*
X66740000Y-24255000D01*
X64130000Y-24255000D02*
G75*
G02*
X61390000Y-24255000I-1370000J0D01*
G01*
X61390000Y-24255000D02*
G75*
G02*
X64130000Y-24255000I1370000J0D01*
G01*
%TO.C,Q46*%
X40460000Y-45790000D02*
X44060000Y-45790000D01*
X39903600Y-42841193D02*
G75*
G02*
X42260000Y-41340000I2356400J-1098807D01*
G01*
X40460000Y-45790000D02*
G75*
G02*
X39935816Y-45062795I1800000J1850000D01*
G01*
X42260000Y-41340000D02*
G75*
G02*
X44616400Y-42841193I0J-2600000D01*
G01*
X44584184Y-45062795D02*
G75*
G02*
X44060000Y-45790000I-2324184J1122795D01*
G01*
%TO.C,Q88*%
X71180000Y-74365000D02*
X74780000Y-74365000D01*
X70623600Y-71416193D02*
G75*
G02*
X72980000Y-69915000I2356400J-1098807D01*
G01*
X71180000Y-74365000D02*
G75*
G02*
X70655816Y-73637795I1800000J1850000D01*
G01*
X72980000Y-69915000D02*
G75*
G02*
X75336400Y-71416193I0J-2600000D01*
G01*
X75304184Y-73637795D02*
G75*
G02*
X74780000Y-74365000I-2324184J1122795D01*
G01*
%TO.C,D7*%
X79424000Y-37880000D02*
X79580000Y-37880000D01*
X81740000Y-37880000D02*
X81896000Y-37880000D01*
X79424484Y-37880000D02*
G75*
G02*
X79580000Y-34648563I1235516J1560000D01*
G01*
X79580000Y-37360961D02*
G75*
G02*
X79580000Y-35279039I1080000J1040961D01*
G01*
X81740000Y-34648563D02*
G75*
G02*
X81895516Y-37880000I-1080000J-1671437D01*
G01*
X81740000Y-35279039D02*
G75*
G02*
X81740000Y-37360961I-1080000J-1040961D01*
G01*
%TO.C,R2*%
X10370000Y-24255000D02*
X12980000Y-24255000D01*
X10370000Y-24255000D02*
G75*
G02*
X7630000Y-24255000I-1370000J0D01*
G01*
X7630000Y-24255000D02*
G75*
G02*
X10370000Y-24255000I1370000J0D01*
G01*
%TO.C,R32*%
X71810000Y-61720000D02*
X74420000Y-61720000D01*
X71810000Y-61720000D02*
G75*
G02*
X69070000Y-61720000I-1370000J0D01*
G01*
X69070000Y-61720000D02*
G75*
G02*
X71810000Y-61720000I1370000J0D01*
G01*
%TO.C,Q87*%
X71180000Y-59125000D02*
X74780000Y-59125000D01*
X70623600Y-56176193D02*
G75*
G02*
X72980000Y-54675000I2356400J-1098807D01*
G01*
X71180000Y-59125000D02*
G75*
G02*
X70655816Y-58397795I1800000J1850000D01*
G01*
X72980000Y-54675000D02*
G75*
G02*
X75336400Y-56176193I0J-2600000D01*
G01*
X75304184Y-58397795D02*
G75*
G02*
X74780000Y-59125000I-2324184J1122795D01*
G01*
%TO.C,Q3*%
X9740000Y-38805000D02*
X13340000Y-38805000D01*
X9183600Y-35856193D02*
G75*
G02*
X11540000Y-34355000I2356400J-1098807D01*
G01*
X9740000Y-38805000D02*
G75*
G02*
X9215816Y-38077795I1800000J1850000D01*
G01*
X11540000Y-34355000D02*
G75*
G02*
X13896400Y-35856193I0J-2600000D01*
G01*
X13864184Y-38077795D02*
G75*
G02*
X13340000Y-38805000I-2324184J1122795D01*
G01*
%TO.C,Q82*%
X67100000Y-51615000D02*
X63500000Y-51615000D01*
X62975816Y-52342205D02*
G75*
G02*
X63500000Y-51615000I2324184J-1122795D01*
G01*
X65300000Y-56065000D02*
G75*
G02*
X62943600Y-54563807I0J2600000D01*
G01*
X67100000Y-51615000D02*
G75*
G02*
X67624184Y-52342205I-1800000J-1850000D01*
G01*
X67656400Y-54563807D02*
G75*
G02*
X65300000Y-56065000I-2356400J1098807D01*
G01*
%TO.C,J2*%
X34790000Y-89170000D02*
X57910000Y-89170000D01*
X34790000Y-98290000D02*
X34790000Y-89170000D01*
X36090000Y-90480000D02*
X56610000Y-90480000D01*
X36090000Y-96980000D02*
X36090000Y-90480000D01*
X39500000Y-99680000D02*
X40500000Y-99680000D01*
X40000000Y-98680000D02*
X39500000Y-99680000D01*
X40500000Y-99680000D02*
X40000000Y-98680000D01*
X44300000Y-96980000D02*
X36090000Y-96980000D01*
X44300000Y-98290000D02*
X44300000Y-96980000D01*
X48400000Y-96980000D02*
X48400000Y-98290000D01*
X56610000Y-90480000D02*
X56610000Y-96980000D01*
X56610000Y-96980000D02*
X48400000Y-96980000D01*
X57910000Y-89170000D02*
X57910000Y-98290000D01*
X57910000Y-98290000D02*
X34790000Y-98290000D01*
%TO.C,Q21*%
X25100000Y-30550000D02*
X28700000Y-30550000D01*
X24543600Y-27601193D02*
G75*
G02*
X26900000Y-26100000I2356400J-1098807D01*
G01*
X25100000Y-30550000D02*
G75*
G02*
X24575816Y-29822795I1800000J1850000D01*
G01*
X26900000Y-26100000D02*
G75*
G02*
X29256400Y-27601193I0J-2600000D01*
G01*
X29224184Y-29822795D02*
G75*
G02*
X28700000Y-30550000I-2324184J1122795D01*
G01*
%TO.C,Q16*%
X21020000Y-57965000D02*
X17420000Y-57965000D01*
X16895816Y-58692205D02*
G75*
G02*
X17420000Y-57965000I2324184J-1122795D01*
G01*
X19220000Y-62415000D02*
G75*
G02*
X16863600Y-60913807I0J2600000D01*
G01*
X21020000Y-57965000D02*
G75*
G02*
X21544184Y-58692205I-1800000J-1850000D01*
G01*
X21576400Y-60913807D02*
G75*
G02*
X19220000Y-62415000I-2356400J1098807D01*
G01*
%TO.C,D5*%
X71744000Y-68360000D02*
X71900000Y-68360000D01*
X74060000Y-68360000D02*
X74216000Y-68360000D01*
X71744484Y-68360000D02*
G75*
G02*
X71900000Y-65128563I1235516J1560000D01*
G01*
X71900000Y-67840961D02*
G75*
G02*
X71900000Y-65759039I1080000J1040961D01*
G01*
X74060000Y-65128563D02*
G75*
G02*
X74215516Y-68360000I-1080000J-1671437D01*
G01*
X74060000Y-65759039D02*
G75*
G02*
X74060000Y-67840961I-1080000J-1040961D01*
G01*
%TO.C,R30*%
X71810000Y-31240000D02*
X74420000Y-31240000D01*
X71810000Y-31240000D02*
G75*
G02*
X69070000Y-31240000I-1370000J0D01*
G01*
X69070000Y-31240000D02*
G75*
G02*
X71810000Y-31240000I1370000J0D01*
G01*
%TO.C,Q59*%
X51740000Y-48440000D02*
X48140000Y-48440000D01*
X47615816Y-49167205D02*
G75*
G02*
X48140000Y-48440000I2324184J-1122795D01*
G01*
X49940000Y-52890000D02*
G75*
G02*
X47583600Y-51388807I0J2600000D01*
G01*
X51740000Y-48440000D02*
G75*
G02*
X52264184Y-49167205I-1800000J-1850000D01*
G01*
X52296400Y-51388807D02*
G75*
G02*
X49940000Y-52890000I-2356400J1098807D01*
G01*
%TO.C,Q49*%
X40460000Y-61030000D02*
X44060000Y-61030000D01*
X39903600Y-58081193D02*
G75*
G02*
X42260000Y-56580000I2356400J-1098807D01*
G01*
X40460000Y-61030000D02*
G75*
G02*
X39935816Y-60302795I1800000J1850000D01*
G01*
X42260000Y-56580000D02*
G75*
G02*
X44616400Y-58081193I0J-2600000D01*
G01*
X44584184Y-60302795D02*
G75*
G02*
X44060000Y-61030000I-2324184J1122795D01*
G01*
%TO.C,R26*%
X64130000Y-16000000D02*
X66740000Y-16000000D01*
X64130000Y-16000000D02*
G75*
G02*
X61390000Y-16000000I-1370000J0D01*
G01*
X61390000Y-16000000D02*
G75*
G02*
X64130000Y-16000000I1370000J0D01*
G01*
%TO.C,R28*%
X64130000Y-62990000D02*
X66740000Y-62990000D01*
X64130000Y-62990000D02*
G75*
G02*
X61390000Y-62990000I-1370000J0D01*
G01*
X61390000Y-62990000D02*
G75*
G02*
X64130000Y-62990000I1370000J0D01*
G01*
%TO.C,R21*%
X48770000Y-16000000D02*
X51380000Y-16000000D01*
X48770000Y-16000000D02*
G75*
G02*
X46030000Y-16000000I-1370000J0D01*
G01*
X46030000Y-16000000D02*
G75*
G02*
X48770000Y-16000000I1370000J0D01*
G01*
%TO.C,R22*%
X48770000Y-54735000D02*
X51380000Y-54735000D01*
X48770000Y-54735000D02*
G75*
G02*
X46030000Y-54735000I-1370000J0D01*
G01*
X46030000Y-54735000D02*
G75*
G02*
X48770000Y-54735000I1370000J0D01*
G01*
%TO.C,J1*%
X5420000Y-1670000D02*
X94580000Y-1670000D01*
X5420000Y-10790000D02*
X5420000Y-1670000D01*
X6720000Y-2980000D02*
X93280000Y-2980000D01*
X6720000Y-9480000D02*
X6720000Y-2980000D01*
X10130000Y-12180000D02*
X11130000Y-12180000D01*
X10630000Y-11180000D02*
X10130000Y-12180000D01*
X11130000Y-12180000D02*
X10630000Y-11180000D01*
X47950000Y-9480000D02*
X6720000Y-9480000D01*
X47950000Y-10790000D02*
X47950000Y-9480000D01*
X52050000Y-9480000D02*
X52050000Y-10790000D01*
X93280000Y-2980000D02*
X93280000Y-9480000D01*
X93280000Y-9480000D02*
X52050000Y-9480000D01*
X94580000Y-1670000D02*
X94580000Y-10790000D01*
X94580000Y-10790000D02*
X5420000Y-10790000D01*
%TO.C,R19*%
X41090000Y-34415000D02*
X43700000Y-34415000D01*
X41090000Y-34415000D02*
G75*
G02*
X38350000Y-34415000I-1370000J0D01*
G01*
X38350000Y-34415000D02*
G75*
G02*
X41090000Y-34415000I1370000J0D01*
G01*
%TO.C,R29*%
X71810000Y-16000000D02*
X74420000Y-16000000D01*
X71810000Y-16000000D02*
G75*
G02*
X69070000Y-16000000I-1370000J0D01*
G01*
X69070000Y-16000000D02*
G75*
G02*
X71810000Y-16000000I1370000J0D01*
G01*
%TO.C,Q60*%
X51740000Y-56695000D02*
X48140000Y-56695000D01*
X47615816Y-57422205D02*
G75*
G02*
X48140000Y-56695000I2324184J-1122795D01*
G01*
X49940000Y-61145000D02*
G75*
G02*
X47583600Y-59643807I0J2600000D01*
G01*
X51740000Y-56695000D02*
G75*
G02*
X52264184Y-57422205I-1800000J-1850000D01*
G01*
X52296400Y-59643807D02*
G75*
G02*
X49940000Y-61145000I-2356400J1098807D01*
G01*
%TO.C,Q72*%
X55820000Y-66110000D02*
X59420000Y-66110000D01*
X55263600Y-63161193D02*
G75*
G02*
X57620000Y-61660000I2356400J-1098807D01*
G01*
X55820000Y-66110000D02*
G75*
G02*
X55295816Y-65382795I1800000J1850000D01*
G01*
X57620000Y-61660000D02*
G75*
G02*
X59976400Y-63161193I0J-2600000D01*
G01*
X59944184Y-65382795D02*
G75*
G02*
X59420000Y-66110000I-2324184J1122795D01*
G01*
%TO.C,Q77*%
X67100000Y-26215000D02*
X63500000Y-26215000D01*
X62975816Y-26942205D02*
G75*
G02*
X63500000Y-26215000I2324184J-1122795D01*
G01*
X65300000Y-30665000D02*
G75*
G02*
X62943600Y-29163807I0J2600000D01*
G01*
X67100000Y-26215000D02*
G75*
G02*
X67624184Y-26942205I-1800000J-1850000D01*
G01*
X67656400Y-29163807D02*
G75*
G02*
X65300000Y-30665000I-2356400J1098807D01*
G01*
%TO.C,R4*%
X10370000Y-40765000D02*
X12980000Y-40765000D01*
X10370000Y-40765000D02*
G75*
G02*
X7630000Y-40765000I-1370000J0D01*
G01*
X7630000Y-40765000D02*
G75*
G02*
X10370000Y-40765000I1370000J0D01*
G01*
%TO.C,Q12*%
X21020000Y-31295000D02*
X17420000Y-31295000D01*
X16895816Y-32022205D02*
G75*
G02*
X17420000Y-31295000I2324184J-1122795D01*
G01*
X19220000Y-35745000D02*
G75*
G02*
X16863600Y-34243807I0J2600000D01*
G01*
X21020000Y-31295000D02*
G75*
G02*
X21544184Y-32022205I-1800000J-1850000D01*
G01*
X21576400Y-34243807D02*
G75*
G02*
X19220000Y-35745000I-2356400J1098807D01*
G01*
%TO.C,R16*%
X33410000Y-46480000D02*
X36020000Y-46480000D01*
X33410000Y-46480000D02*
G75*
G02*
X30670000Y-46480000I-1370000J0D01*
G01*
X30670000Y-46480000D02*
G75*
G02*
X33410000Y-46480000I1370000J0D01*
G01*
%TO.C,Q66*%
X55820000Y-29280000D02*
X59420000Y-29280000D01*
X55263600Y-26331193D02*
G75*
G02*
X57620000Y-24830000I2356400J-1098807D01*
G01*
X55820000Y-29280000D02*
G75*
G02*
X55295816Y-28552795I1800000J1850000D01*
G01*
X57620000Y-24830000D02*
G75*
G02*
X59976400Y-26331193I0J-2600000D01*
G01*
X59944184Y-28552795D02*
G75*
G02*
X59420000Y-29280000I-2324184J1122795D01*
G01*
%TO.C,R7*%
X18050000Y-16000000D02*
X20660000Y-16000000D01*
X18050000Y-16000000D02*
G75*
G02*
X15310000Y-16000000I-1370000J0D01*
G01*
X15310000Y-16000000D02*
G75*
G02*
X18050000Y-16000000I1370000J0D01*
G01*
%TO.C,R3*%
X10370000Y-32510000D02*
X12980000Y-32510000D01*
X10370000Y-32510000D02*
G75*
G02*
X7630000Y-32510000I-1370000J0D01*
G01*
X7630000Y-32510000D02*
G75*
G02*
X10370000Y-32510000I1370000J0D01*
G01*
%TO.C,Q33*%
X36380000Y-30025000D02*
X32780000Y-30025000D01*
X32255816Y-30752205D02*
G75*
G02*
X32780000Y-30025000I2324184J-1122795D01*
G01*
X34580000Y-34475000D02*
G75*
G02*
X32223600Y-32973807I0J2600000D01*
G01*
X36380000Y-30025000D02*
G75*
G02*
X36904184Y-30752205I-1800000J-1850000D01*
G01*
X36936400Y-32973807D02*
G75*
G02*
X34580000Y-34475000I-2356400J1098807D01*
G01*
%TO.C,Q39*%
X36380000Y-66855000D02*
X32780000Y-66855000D01*
X32255816Y-67582205D02*
G75*
G02*
X32780000Y-66855000I2324184J-1122795D01*
G01*
X34580000Y-71305000D02*
G75*
G02*
X32223600Y-69803807I0J2600000D01*
G01*
X36380000Y-66855000D02*
G75*
G02*
X36904184Y-67582205I-1800000J-1850000D01*
G01*
X36936400Y-69803807D02*
G75*
G02*
X34580000Y-71305000I-2356400J1098807D01*
G01*
%TO.C,D6*%
X79424000Y-22640000D02*
X79580000Y-22640000D01*
X81740000Y-22640000D02*
X81896000Y-22640000D01*
X79424484Y-22640000D02*
G75*
G02*
X79580000Y-19408563I1235516J1560000D01*
G01*
X79580000Y-22120961D02*
G75*
G02*
X79580000Y-20039039I1080000J1040961D01*
G01*
X81740000Y-19408563D02*
G75*
G02*
X81895516Y-22640000I-1080000J-1671437D01*
G01*
X81740000Y-20039039D02*
G75*
G02*
X81740000Y-22120961I-1080000J-1040961D01*
G01*
%TO.C,J3*%
X60620000Y-96380000D02*
X60620000Y-95000000D01*
X62000000Y-96380000D02*
X60620000Y-96380000D01*
X63270000Y-93620000D02*
X68460000Y-93620000D01*
X63270000Y-96380000D02*
X63270000Y-93620000D01*
X63270000Y-96380000D02*
X68460000Y-96380000D01*
X68460000Y-96380000D02*
X68460000Y-93620000D01*
%TO.C,R15*%
X25730000Y-71245000D02*
X28340000Y-71245000D01*
X25730000Y-71245000D02*
G75*
G02*
X22990000Y-71245000I-1370000J0D01*
G01*
X22990000Y-71245000D02*
G75*
G02*
X25730000Y-71245000I1370000J0D01*
G01*
%TO.C,Q53*%
X51740000Y-17960000D02*
X48140000Y-17960000D01*
X47615816Y-18687205D02*
G75*
G02*
X48140000Y-17960000I2324184J-1122795D01*
G01*
X49940000Y-22410000D02*
G75*
G02*
X47583600Y-20908807I0J2600000D01*
G01*
X51740000Y-17960000D02*
G75*
G02*
X52264184Y-18687205I-1800000J-1850000D01*
G01*
X52296400Y-20908807D02*
G75*
G02*
X49940000Y-22410000I-2356400J1098807D01*
G01*
%TO.C,Q27*%
X25100000Y-61030000D02*
X28700000Y-61030000D01*
X24543600Y-58081193D02*
G75*
G02*
X26900000Y-56580000I2356400J-1098807D01*
G01*
X25100000Y-61030000D02*
G75*
G02*
X24575816Y-60302795I1800000J1850000D01*
G01*
X26900000Y-56580000D02*
G75*
G02*
X29256400Y-58081193I0J-2600000D01*
G01*
X29224184Y-60302795D02*
G75*
G02*
X28700000Y-61030000I-2324184J1122795D01*
G01*
%TO.C,Q86*%
X71180000Y-43885000D02*
X74780000Y-43885000D01*
X70623600Y-40936193D02*
G75*
G02*
X72980000Y-39435000I2356400J-1098807D01*
G01*
X71180000Y-43885000D02*
G75*
G02*
X70655816Y-43157795I1800000J1850000D01*
G01*
X72980000Y-39435000D02*
G75*
G02*
X75336400Y-40936193I0J-2600000D01*
G01*
X75304184Y-43157795D02*
G75*
G02*
X74780000Y-43885000I-2324184J1122795D01*
G01*
%TO.C,Q83*%
X67100000Y-56695000D02*
X63500000Y-56695000D01*
X62975816Y-57422205D02*
G75*
G02*
X63500000Y-56695000I2324184J-1122795D01*
G01*
X65300000Y-61145000D02*
G75*
G02*
X62943600Y-59643807I0J2600000D01*
G01*
X67100000Y-56695000D02*
G75*
G02*
X67624184Y-57422205I-1800000J-1850000D01*
G01*
X67656400Y-59643807D02*
G75*
G02*
X65300000Y-61145000I-2356400J1098807D01*
G01*
%TO.C,Q28*%
X25100000Y-69285000D02*
X28700000Y-69285000D01*
X24543600Y-66336193D02*
G75*
G02*
X26900000Y-64835000I2356400J-1098807D01*
G01*
X25100000Y-69285000D02*
G75*
G02*
X24575816Y-68557795I1800000J1850000D01*
G01*
X26900000Y-64835000D02*
G75*
G02*
X29256400Y-66336193I0J-2600000D01*
G01*
X29224184Y-68557795D02*
G75*
G02*
X28700000Y-69285000I-2324184J1122795D01*
G01*
%TO.C,D2*%
X71744000Y-22640000D02*
X71900000Y-22640000D01*
X74060000Y-22640000D02*
X74216000Y-22640000D01*
X71744484Y-22640000D02*
G75*
G02*
X71900000Y-19408563I1235516J1560000D01*
G01*
X71900000Y-22120961D02*
G75*
G02*
X71900000Y-20039039I1080000J1040961D01*
G01*
X74060000Y-19408563D02*
G75*
G02*
X74215516Y-22640000I-1080000J-1671437D01*
G01*
X74060000Y-20039039D02*
G75*
G02*
X74060000Y-22120961I-1080000J-1040961D01*
G01*
%TO.C,Q22*%
X25100000Y-35630000D02*
X28700000Y-35630000D01*
X24543600Y-32681193D02*
G75*
G02*
X26900000Y-31180000I2356400J-1098807D01*
G01*
X25100000Y-35630000D02*
G75*
G02*
X24575816Y-34902795I1800000J1850000D01*
G01*
X26900000Y-31180000D02*
G75*
G02*
X29256400Y-32681193I0J-2600000D01*
G01*
X29224184Y-34902795D02*
G75*
G02*
X28700000Y-35630000I-2324184J1122795D01*
G01*
%TO.C,Q56*%
X51740000Y-33200000D02*
X48140000Y-33200000D01*
X47615816Y-33927205D02*
G75*
G02*
X48140000Y-33200000I2324184J-1122795D01*
G01*
X49940000Y-37650000D02*
G75*
G02*
X47583600Y-36148807I0J2600000D01*
G01*
X51740000Y-33200000D02*
G75*
G02*
X52264184Y-33927205I-1800000J-1850000D01*
G01*
X52296400Y-36148807D02*
G75*
G02*
X49940000Y-37650000I-2356400J1098807D01*
G01*
%TO.C,Q73*%
X55820000Y-71190000D02*
X59420000Y-71190000D01*
X55263600Y-68241193D02*
G75*
G02*
X57620000Y-66740000I2356400J-1098807D01*
G01*
X55820000Y-71190000D02*
G75*
G02*
X55295816Y-70462795I1800000J1850000D01*
G01*
X57620000Y-66740000D02*
G75*
G02*
X59976400Y-68241193I0J-2600000D01*
G01*
X59944184Y-70462795D02*
G75*
G02*
X59420000Y-71190000I-2324184J1122795D01*
G01*
%TO.C,Q81*%
X67100000Y-46535000D02*
X63500000Y-46535000D01*
X62975816Y-47262205D02*
G75*
G02*
X63500000Y-46535000I2324184J-1122795D01*
G01*
X65300000Y-50985000D02*
G75*
G02*
X62943600Y-49483807I0J2600000D01*
G01*
X67100000Y-46535000D02*
G75*
G02*
X67624184Y-47262205I-1800000J-1850000D01*
G01*
X67656400Y-49483807D02*
G75*
G02*
X65300000Y-50985000I-2356400J1098807D01*
G01*
%TO.C,Q62*%
X51740000Y-70030000D02*
X48140000Y-70030000D01*
X47615816Y-70757205D02*
G75*
G02*
X48140000Y-70030000I2324184J-1122795D01*
G01*
X49940000Y-74480000D02*
G75*
G02*
X47583600Y-72978807I0J2600000D01*
G01*
X51740000Y-70030000D02*
G75*
G02*
X52264184Y-70757205I-1800000J-1850000D01*
G01*
X52296400Y-72978807D02*
G75*
G02*
X49940000Y-74480000I-2356400J1098807D01*
G01*
%TO.C,Q37*%
X36380000Y-56695000D02*
X32780000Y-56695000D01*
X32255816Y-57422205D02*
G75*
G02*
X32780000Y-56695000I2324184J-1122795D01*
G01*
X34580000Y-61145000D02*
G75*
G02*
X32223600Y-59643807I0J2600000D01*
G01*
X36380000Y-56695000D02*
G75*
G02*
X36904184Y-57422205I-1800000J-1850000D01*
G01*
X36936400Y-59643807D02*
G75*
G02*
X34580000Y-61145000I-2356400J1098807D01*
G01*
%TO.C,Q76*%
X67100000Y-17960000D02*
X63500000Y-17960000D01*
X62975816Y-18687205D02*
G75*
G02*
X63500000Y-17960000I2324184J-1122795D01*
G01*
X65300000Y-22410000D02*
G75*
G02*
X62943600Y-20908807I0J2600000D01*
G01*
X67100000Y-17960000D02*
G75*
G02*
X67624184Y-18687205I-1800000J-1850000D01*
G01*
X67656400Y-20908807D02*
G75*
G02*
X65300000Y-22410000I-2356400J1098807D01*
G01*
%TO.C,Q30*%
X36380000Y-14785000D02*
X32780000Y-14785000D01*
X32255816Y-15512205D02*
G75*
G02*
X32780000Y-14785000I2324184J-1122795D01*
G01*
X34580000Y-19235000D02*
G75*
G02*
X32223600Y-17733807I0J2600000D01*
G01*
X36380000Y-14785000D02*
G75*
G02*
X36904184Y-15512205I-1800000J-1850000D01*
G01*
X36936400Y-17733807D02*
G75*
G02*
X34580000Y-19235000I-2356400J1098807D01*
G01*
%TO.C,Q90*%
X82460000Y-40185000D02*
X78860000Y-40185000D01*
X78335816Y-40912205D02*
G75*
G02*
X78860000Y-40185000I2324184J-1122795D01*
G01*
X80660000Y-44635000D02*
G75*
G02*
X78303600Y-43133807I0J2600000D01*
G01*
X82460000Y-40185000D02*
G75*
G02*
X82984184Y-40912205I-1800000J-1850000D01*
G01*
X83016400Y-43133807D02*
G75*
G02*
X80660000Y-44635000I-2356400J1098807D01*
G01*
%TO.C,Q11*%
X21020000Y-23040000D02*
X17420000Y-23040000D01*
X16895816Y-23767205D02*
G75*
G02*
X17420000Y-23040000I2324184J-1122795D01*
G01*
X19220000Y-27490000D02*
G75*
G02*
X16863600Y-25988807I0J2600000D01*
G01*
X21020000Y-23040000D02*
G75*
G02*
X21544184Y-23767205I-1800000J-1850000D01*
G01*
X21576400Y-25988807D02*
G75*
G02*
X19220000Y-27490000I-2356400J1098807D01*
G01*
%TO.C,R12*%
X25730000Y-16000000D02*
X28340000Y-16000000D01*
X25730000Y-16000000D02*
G75*
G02*
X22990000Y-16000000I-1370000J0D01*
G01*
X22990000Y-16000000D02*
G75*
G02*
X25730000Y-16000000I1370000J0D01*
G01*
%TO.C,Q78*%
X67100000Y-31295000D02*
X63500000Y-31295000D01*
X62975816Y-32022205D02*
G75*
G02*
X63500000Y-31295000I2324184J-1122795D01*
G01*
X65300000Y-35745000D02*
G75*
G02*
X62943600Y-34243807I0J2600000D01*
G01*
X67100000Y-31295000D02*
G75*
G02*
X67624184Y-32022205I-1800000J-1850000D01*
G01*
X67656400Y-34243807D02*
G75*
G02*
X65300000Y-35745000I-2356400J1098807D01*
G01*
%TO.C,Q36*%
X36380000Y-48440000D02*
X32780000Y-48440000D01*
X32255816Y-49167205D02*
G75*
G02*
X32780000Y-48440000I2324184J-1122795D01*
G01*
X34580000Y-52890000D02*
G75*
G02*
X32223600Y-51388807I0J2600000D01*
G01*
X36380000Y-48440000D02*
G75*
G02*
X36904184Y-49167205I-1800000J-1850000D01*
G01*
X36936400Y-51388807D02*
G75*
G02*
X34580000Y-52890000I-2356400J1098807D01*
G01*
%TO.C,Q34*%
X36380000Y-35105000D02*
X32780000Y-35105000D01*
X32255816Y-35832205D02*
G75*
G02*
X32780000Y-35105000I2324184J-1122795D01*
G01*
X34580000Y-39555000D02*
G75*
G02*
X32223600Y-38053807I0J2600000D01*
G01*
X36380000Y-35105000D02*
G75*
G02*
X36904184Y-35832205I-1800000J-1850000D01*
G01*
X36936400Y-38053807D02*
G75*
G02*
X34580000Y-39555000I-2356400J1098807D01*
G01*
%TO.C,Q26*%
X25100000Y-55950000D02*
X28700000Y-55950000D01*
X24543600Y-53001193D02*
G75*
G02*
X26900000Y-51500000I2356400J-1098807D01*
G01*
X25100000Y-55950000D02*
G75*
G02*
X24575816Y-55222795I1800000J1850000D01*
G01*
X26900000Y-51500000D02*
G75*
G02*
X29256400Y-53001193I0J-2600000D01*
G01*
X29224184Y-55222795D02*
G75*
G02*
X28700000Y-55950000I-2324184J1122795D01*
G01*
%TO.C,R1*%
X10370000Y-16000000D02*
X12980000Y-16000000D01*
X10370000Y-16000000D02*
G75*
G02*
X7630000Y-16000000I-1370000J0D01*
G01*
X7630000Y-16000000D02*
G75*
G02*
X10370000Y-16000000I1370000J0D01*
G01*
%TO.C,Q51*%
X40460000Y-71190000D02*
X44060000Y-71190000D01*
X39903600Y-68241193D02*
G75*
G02*
X42260000Y-66740000I2356400J-1098807D01*
G01*
X40460000Y-71190000D02*
G75*
G02*
X39935816Y-70462795I1800000J1850000D01*
G01*
X42260000Y-66740000D02*
G75*
G02*
X44616400Y-68241193I0J-2600000D01*
G01*
X44584184Y-70462795D02*
G75*
G02*
X44060000Y-71190000I-2324184J1122795D01*
G01*
%TO.C,Q75*%
X55820000Y-81350000D02*
X59420000Y-81350000D01*
X55263600Y-78401193D02*
G75*
G02*
X57620000Y-76900000I2356400J-1098807D01*
G01*
X55820000Y-81350000D02*
G75*
G02*
X55295816Y-80622795I1800000J1850000D01*
G01*
X57620000Y-76900000D02*
G75*
G02*
X59976400Y-78401193I0J-2600000D01*
G01*
X59944184Y-80622795D02*
G75*
G02*
X59420000Y-81350000I-2324184J1122795D01*
G01*
%TO.C,Q85*%
X71180000Y-28645000D02*
X74780000Y-28645000D01*
X70623600Y-25696193D02*
G75*
G02*
X72980000Y-24195000I2356400J-1098807D01*
G01*
X71180000Y-28645000D02*
G75*
G02*
X70655816Y-27917795I1800000J1850000D01*
G01*
X72980000Y-24195000D02*
G75*
G02*
X75336400Y-25696193I0J-2600000D01*
G01*
X75304184Y-27917795D02*
G75*
G02*
X74780000Y-28645000I-2324184J1122795D01*
G01*
%TO.C,D4*%
X71744000Y-53120000D02*
X71900000Y-53120000D01*
X74060000Y-53120000D02*
X74216000Y-53120000D01*
X71744484Y-53120000D02*
G75*
G02*
X71900000Y-49888563I1235516J1560000D01*
G01*
X71900000Y-52600961D02*
G75*
G02*
X71900000Y-50519039I1080000J1040961D01*
G01*
X74060000Y-49888563D02*
G75*
G02*
X74215516Y-53120000I-1080000J-1671437D01*
G01*
X74060000Y-50519039D02*
G75*
G02*
X74060000Y-52600961I-1080000J-1040961D01*
G01*
%TO.C,Q63*%
X51740000Y-75110000D02*
X48140000Y-75110000D01*
X47615816Y-75837205D02*
G75*
G02*
X48140000Y-75110000I2324184J-1122795D01*
G01*
X49940000Y-79560000D02*
G75*
G02*
X47583600Y-78058807I0J2600000D01*
G01*
X51740000Y-75110000D02*
G75*
G02*
X52264184Y-75837205I-1800000J-1850000D01*
G01*
X52296400Y-78058807D02*
G75*
G02*
X49940000Y-79560000I-2356400J1098807D01*
G01*
%TO.C,Q19*%
X21020000Y-76380000D02*
X17420000Y-76380000D01*
X16895816Y-77107205D02*
G75*
G02*
X17420000Y-76380000I2324184J-1122795D01*
G01*
X19220000Y-80830000D02*
G75*
G02*
X16863600Y-79328807I0J2600000D01*
G01*
X21020000Y-76380000D02*
G75*
G02*
X21544184Y-77107205I-1800000J-1850000D01*
G01*
X21576400Y-79328807D02*
G75*
G02*
X19220000Y-80830000I-2356400J1098807D01*
G01*
%TO.C,Q69*%
X55820000Y-50870000D02*
X59420000Y-50870000D01*
X55263600Y-47921193D02*
G75*
G02*
X57620000Y-46420000I2356400J-1098807D01*
G01*
X55820000Y-50870000D02*
G75*
G02*
X55295816Y-50142795I1800000J1850000D01*
G01*
X57620000Y-46420000D02*
G75*
G02*
X59976400Y-47921193I0J-2600000D01*
G01*
X59944184Y-50142795D02*
G75*
G02*
X59420000Y-50870000I-2324184J1122795D01*
G01*
%TO.C,R35*%
X79490000Y-46480000D02*
X82100000Y-46480000D01*
X79490000Y-46480000D02*
G75*
G02*
X76750000Y-46480000I-1370000J0D01*
G01*
X76750000Y-46480000D02*
G75*
G02*
X79490000Y-46480000I1370000J0D01*
G01*
%TO.C,Q55*%
X51740000Y-28120000D02*
X48140000Y-28120000D01*
X47615816Y-28847205D02*
G75*
G02*
X48140000Y-28120000I2324184J-1122795D01*
G01*
X49940000Y-32570000D02*
G75*
G02*
X47583600Y-31068807I0J2600000D01*
G01*
X51740000Y-28120000D02*
G75*
G02*
X52264184Y-28847205I-1800000J-1850000D01*
G01*
X52296400Y-31068807D02*
G75*
G02*
X49940000Y-32570000I-2356400J1098807D01*
G01*
%TO.C,J5*%
X79620000Y-96380000D02*
X79620000Y-95000000D01*
X81000000Y-96380000D02*
X79620000Y-96380000D01*
X82270000Y-93620000D02*
X87460000Y-93620000D01*
X82270000Y-96380000D02*
X82270000Y-93620000D01*
X82270000Y-96380000D02*
X87460000Y-96380000D01*
X87460000Y-96380000D02*
X87460000Y-93620000D01*
%TO.C,R33*%
X79490000Y-16000000D02*
X82100000Y-16000000D01*
X79490000Y-16000000D02*
G75*
G02*
X76750000Y-16000000I-1370000J0D01*
G01*
X76750000Y-16000000D02*
G75*
G02*
X79490000Y-16000000I1370000J0D01*
G01*
%TO.C,Q44*%
X40460000Y-32455000D02*
X44060000Y-32455000D01*
X39903600Y-29506193D02*
G75*
G02*
X42260000Y-28005000I2356400J-1098807D01*
G01*
X40460000Y-32455000D02*
G75*
G02*
X39935816Y-31727795I1800000J1850000D01*
G01*
X42260000Y-28005000D02*
G75*
G02*
X44616400Y-29506193I0J-2600000D01*
G01*
X44584184Y-31727795D02*
G75*
G02*
X44060000Y-32455000I-2324184J1122795D01*
G01*
%TO.C,R10*%
X18050000Y-56005000D02*
X20660000Y-56005000D01*
X18050000Y-56005000D02*
G75*
G02*
X15310000Y-56005000I-1370000J0D01*
G01*
X15310000Y-56005000D02*
G75*
G02*
X18050000Y-56005000I1370000J0D01*
G01*
%TO.C,Q41*%
X36380000Y-77015000D02*
X32780000Y-77015000D01*
X32255816Y-77742205D02*
G75*
G02*
X32780000Y-77015000I2324184J-1122795D01*
G01*
X34580000Y-81465000D02*
G75*
G02*
X32223600Y-79963807I0J2600000D01*
G01*
X36380000Y-77015000D02*
G75*
G02*
X36904184Y-77742205I-1800000J-1850000D01*
G01*
X36936400Y-79963807D02*
G75*
G02*
X34580000Y-81465000I-2356400J1098807D01*
G01*
%TO.C,Q47*%
X40460000Y-50870000D02*
X44060000Y-50870000D01*
X39903600Y-47921193D02*
G75*
G02*
X42260000Y-46420000I2356400J-1098807D01*
G01*
X40460000Y-50870000D02*
G75*
G02*
X39935816Y-50142795I1800000J1850000D01*
G01*
X42260000Y-46420000D02*
G75*
G02*
X44616400Y-47921193I0J-2600000D01*
G01*
X44584184Y-50142795D02*
G75*
G02*
X44060000Y-50870000I-2324184J1122795D01*
G01*
%TO.C,Q1*%
X9740000Y-22295000D02*
X13340000Y-22295000D01*
X9183600Y-19346193D02*
G75*
G02*
X11540000Y-17845000I2356400J-1098807D01*
G01*
X9740000Y-22295000D02*
G75*
G02*
X9215816Y-21567795I1800000J1850000D01*
G01*
X11540000Y-17845000D02*
G75*
G02*
X13896400Y-19346193I0J-2600000D01*
G01*
X13864184Y-21567795D02*
G75*
G02*
X13340000Y-22295000I-2324184J1122795D01*
G01*
%TO.C,Q61*%
X51740000Y-64950000D02*
X48140000Y-64950000D01*
X47615816Y-65677205D02*
G75*
G02*
X48140000Y-64950000I2324184J-1122795D01*
G01*
X49940000Y-69400000D02*
G75*
G02*
X47583600Y-67898807I0J2600000D01*
G01*
X51740000Y-64950000D02*
G75*
G02*
X52264184Y-65677205I-1800000J-1850000D01*
G01*
X52296400Y-67898807D02*
G75*
G02*
X49940000Y-69400000I-2356400J1098807D01*
G01*
%TO.C,Q89*%
X82460000Y-24945000D02*
X78860000Y-24945000D01*
X78335816Y-25672205D02*
G75*
G02*
X78860000Y-24945000I2324184J-1122795D01*
G01*
X80660000Y-29395000D02*
G75*
G02*
X78303600Y-27893807I0J2600000D01*
G01*
X82460000Y-24945000D02*
G75*
G02*
X82984184Y-25672205I-1800000J-1850000D01*
G01*
X83016400Y-27893807D02*
G75*
G02*
X80660000Y-29395000I-2356400J1098807D01*
G01*
%TO.C,Q6*%
X9740000Y-60395000D02*
X13340000Y-60395000D01*
X9183600Y-57446193D02*
G75*
G02*
X11540000Y-55945000I2356400J-1098807D01*
G01*
X9740000Y-60395000D02*
G75*
G02*
X9215816Y-59667795I1800000J1850000D01*
G01*
X11540000Y-55945000D02*
G75*
G02*
X13896400Y-57446193I0J-2600000D01*
G01*
X13864184Y-59667795D02*
G75*
G02*
X13340000Y-60395000I-2324184J1122795D01*
G01*
%TO.C,Q23*%
X25100000Y-40710000D02*
X28700000Y-40710000D01*
X24543600Y-37761193D02*
G75*
G02*
X26900000Y-36260000I2356400J-1098807D01*
G01*
X25100000Y-40710000D02*
G75*
G02*
X24575816Y-39982795I1800000J1850000D01*
G01*
X26900000Y-36260000D02*
G75*
G02*
X29256400Y-37761193I0J-2600000D01*
G01*
X29224184Y-39982795D02*
G75*
G02*
X28700000Y-40710000I-2324184J1122795D01*
G01*
%TO.C,Q9*%
X9740000Y-78810000D02*
X13340000Y-78810000D01*
X9183600Y-75861193D02*
G75*
G02*
X11540000Y-74360000I2356400J-1098807D01*
G01*
X9740000Y-78810000D02*
G75*
G02*
X9215816Y-78082795I1800000J1850000D01*
G01*
X11540000Y-74360000D02*
G75*
G02*
X13896400Y-75861193I0J-2600000D01*
G01*
X13864184Y-78082795D02*
G75*
G02*
X13340000Y-78810000I-2324184J1122795D01*
G01*
%TO.C,Q71*%
X55820000Y-61030000D02*
X59420000Y-61030000D01*
X55263600Y-58081193D02*
G75*
G02*
X57620000Y-56580000I2356400J-1098807D01*
G01*
X55820000Y-61030000D02*
G75*
G02*
X55295816Y-60302795I1800000J1850000D01*
G01*
X57620000Y-56580000D02*
G75*
G02*
X59976400Y-58081193I0J-2600000D01*
G01*
X59944184Y-60302795D02*
G75*
G02*
X59420000Y-61030000I-2324184J1122795D01*
G01*
%TO.C,Q10*%
X21020000Y-17960000D02*
X17420000Y-17960000D01*
X16895816Y-18687205D02*
G75*
G02*
X17420000Y-17960000I2324184J-1122795D01*
G01*
X19220000Y-22410000D02*
G75*
G02*
X16863600Y-20908807I0J2600000D01*
G01*
X21020000Y-17960000D02*
G75*
G02*
X21544184Y-18687205I-1800000J-1850000D01*
G01*
X21576400Y-20908807D02*
G75*
G02*
X19220000Y-22410000I-2356400J1098807D01*
G01*
%TO.C,Q50*%
X40460000Y-66110000D02*
X44060000Y-66110000D01*
X39903600Y-63161193D02*
G75*
G02*
X42260000Y-61660000I2356400J-1098807D01*
G01*
X40460000Y-66110000D02*
G75*
G02*
X39935816Y-65382795I1800000J1850000D01*
G01*
X42260000Y-61660000D02*
G75*
G02*
X44616400Y-63161193I0J-2600000D01*
G01*
X44584184Y-65382795D02*
G75*
G02*
X44060000Y-66110000I-2324184J1122795D01*
G01*
%TO.C,Q7*%
X9740000Y-65475000D02*
X13340000Y-65475000D01*
X9183600Y-62526193D02*
G75*
G02*
X11540000Y-61025000I2356400J-1098807D01*
G01*
X9740000Y-65475000D02*
G75*
G02*
X9215816Y-64747795I1800000J1850000D01*
G01*
X11540000Y-61025000D02*
G75*
G02*
X13896400Y-62526193I0J-2600000D01*
G01*
X13864184Y-64747795D02*
G75*
G02*
X13340000Y-65475000I-2324184J1122795D01*
G01*
%TO.C,Q13*%
X21020000Y-36375000D02*
X17420000Y-36375000D01*
X16895816Y-37102205D02*
G75*
G02*
X17420000Y-36375000I2324184J-1122795D01*
G01*
X19220000Y-40825000D02*
G75*
G02*
X16863600Y-39323807I0J2600000D01*
G01*
X21020000Y-36375000D02*
G75*
G02*
X21544184Y-37102205I-1800000J-1850000D01*
G01*
X21576400Y-39323807D02*
G75*
G02*
X19220000Y-40825000I-2356400J1098807D01*
G01*
%TO.C,Q84*%
X67100000Y-71935000D02*
X63500000Y-71935000D01*
X62975816Y-72662205D02*
G75*
G02*
X63500000Y-71935000I2324184J-1122795D01*
G01*
X65300000Y-76385000D02*
G75*
G02*
X62943600Y-74883807I0J2600000D01*
G01*
X67100000Y-71935000D02*
G75*
G02*
X67624184Y-72662205I-1800000J-1850000D01*
G01*
X67656400Y-74883807D02*
G75*
G02*
X65300000Y-76385000I-2356400J1098807D01*
G01*
%TO.C,Q32*%
X36380000Y-24945000D02*
X32780000Y-24945000D01*
X32255816Y-25672205D02*
G75*
G02*
X32780000Y-24945000I2324184J-1122795D01*
G01*
X34580000Y-29395000D02*
G75*
G02*
X32223600Y-27893807I0J2600000D01*
G01*
X36380000Y-24945000D02*
G75*
G02*
X36904184Y-25672205I-1800000J-1850000D01*
G01*
X36936400Y-27893807D02*
G75*
G02*
X34580000Y-29395000I-2356400J1098807D01*
G01*
%TO.C,Q20*%
X25100000Y-22295000D02*
X28700000Y-22295000D01*
X24543600Y-19346193D02*
G75*
G02*
X26900000Y-17845000I2356400J-1098807D01*
G01*
X25100000Y-22295000D02*
G75*
G02*
X24575816Y-21567795I1800000J1850000D01*
G01*
X26900000Y-17845000D02*
G75*
G02*
X29256400Y-19346193I0J-2600000D01*
G01*
X29224184Y-21567795D02*
G75*
G02*
X28700000Y-22295000I-2324184J1122795D01*
G01*
%TO.C,R25*%
X56450000Y-44575000D02*
X59060000Y-44575000D01*
X56450000Y-44575000D02*
G75*
G02*
X53710000Y-44575000I-1370000J0D01*
G01*
X53710000Y-44575000D02*
G75*
G02*
X56450000Y-44575000I1370000J0D01*
G01*
%TO.C,Q24*%
X25100000Y-45790000D02*
X28700000Y-45790000D01*
X24543600Y-42841193D02*
G75*
G02*
X26900000Y-41340000I2356400J-1098807D01*
G01*
X25100000Y-45790000D02*
G75*
G02*
X24575816Y-45062795I1800000J1850000D01*
G01*
X26900000Y-41340000D02*
G75*
G02*
X29256400Y-42841193I0J-2600000D01*
G01*
X29224184Y-45062795D02*
G75*
G02*
X28700000Y-45790000I-2324184J1122795D01*
G01*
%TO.C,Q17*%
X21020000Y-63045000D02*
X17420000Y-63045000D01*
X16895816Y-63772205D02*
G75*
G02*
X17420000Y-63045000I2324184J-1122795D01*
G01*
X19220000Y-67495000D02*
G75*
G02*
X16863600Y-65993807I0J2600000D01*
G01*
X21020000Y-63045000D02*
G75*
G02*
X21544184Y-63772205I-1800000J-1850000D01*
G01*
X21576400Y-65993807D02*
G75*
G02*
X19220000Y-67495000I-2356400J1098807D01*
G01*
%TO.C,R23*%
X48770000Y-62990000D02*
X51380000Y-62990000D01*
X48770000Y-62990000D02*
G75*
G02*
X46030000Y-62990000I-1370000J0D01*
G01*
X46030000Y-62990000D02*
G75*
G02*
X48770000Y-62990000I1370000J0D01*
G01*
%TO.C,R11*%
X18050000Y-69340000D02*
X20660000Y-69340000D01*
X18050000Y-69340000D02*
G75*
G02*
X15310000Y-69340000I-1370000J0D01*
G01*
X15310000Y-69340000D02*
G75*
G02*
X18050000Y-69340000I1370000J0D01*
G01*
%TO.C,Q35*%
X36380000Y-40185000D02*
X32780000Y-40185000D01*
X32255816Y-40912205D02*
G75*
G02*
X32780000Y-40185000I2324184J-1122795D01*
G01*
X34580000Y-44635000D02*
G75*
G02*
X32223600Y-43133807I0J2600000D01*
G01*
X36380000Y-40185000D02*
G75*
G02*
X36904184Y-40912205I-1800000J-1850000D01*
G01*
X36936400Y-43133807D02*
G75*
G02*
X34580000Y-44635000I-2356400J1098807D01*
G01*
%TO.C,D1*%
X64064000Y-69630000D02*
X64220000Y-69630000D01*
X66380000Y-69630000D02*
X66536000Y-69630000D01*
X64064484Y-69630000D02*
G75*
G02*
X64220000Y-66398563I1235516J1560000D01*
G01*
X64220000Y-69110961D02*
G75*
G02*
X64220000Y-67029039I1080000J1040961D01*
G01*
X66380000Y-66398563D02*
G75*
G02*
X66535516Y-69630000I-1080000J-1671437D01*
G01*
X66380000Y-67029039D02*
G75*
G02*
X66380000Y-69110961I-1080000J-1040961D01*
G01*
%TO.C,Q43*%
X40460000Y-24200000D02*
X44060000Y-24200000D01*
X39903600Y-21251193D02*
G75*
G02*
X42260000Y-19750000I2356400J-1098807D01*
G01*
X40460000Y-24200000D02*
G75*
G02*
X39935816Y-23472795I1800000J1850000D01*
G01*
X42260000Y-19750000D02*
G75*
G02*
X44616400Y-21251193I0J-2600000D01*
G01*
X44584184Y-23472795D02*
G75*
G02*
X44060000Y-24200000I-2324184J1122795D01*
G01*
%TO.C,J4*%
X70120000Y-96380000D02*
X70120000Y-95000000D01*
X71500000Y-96380000D02*
X70120000Y-96380000D01*
X72770000Y-93620000D02*
X77960000Y-93620000D01*
X72770000Y-96380000D02*
X72770000Y-93620000D01*
X72770000Y-96380000D02*
X77960000Y-96380000D01*
X77960000Y-96380000D02*
X77960000Y-93620000D01*
%TO.C,Q45*%
X40460000Y-40710000D02*
X44060000Y-40710000D01*
X39903600Y-37761193D02*
G75*
G02*
X42260000Y-36260000I2356400J-1098807D01*
G01*
X40460000Y-40710000D02*
G75*
G02*
X39935816Y-39982795I1800000J1850000D01*
G01*
X42260000Y-36260000D02*
G75*
G02*
X44616400Y-37761193I0J-2600000D01*
G01*
X44584184Y-39982795D02*
G75*
G02*
X44060000Y-40710000I-2324184J1122795D01*
G01*
%TO.C,R14*%
X25730000Y-62990000D02*
X28340000Y-62990000D01*
X25730000Y-62990000D02*
G75*
G02*
X22990000Y-62990000I-1370000J0D01*
G01*
X22990000Y-62990000D02*
G75*
G02*
X25730000Y-62990000I1370000J0D01*
G01*
%TO.C,Q54*%
X51740000Y-23040000D02*
X48140000Y-23040000D01*
X47615816Y-23767205D02*
G75*
G02*
X48140000Y-23040000I2324184J-1122795D01*
G01*
X49940000Y-27490000D02*
G75*
G02*
X47583600Y-25988807I0J2600000D01*
G01*
X51740000Y-23040000D02*
G75*
G02*
X52264184Y-23767205I-1800000J-1850000D01*
G01*
X52296400Y-25988807D02*
G75*
G02*
X49940000Y-27490000I-2356400J1098807D01*
G01*
%TO.C,R5*%
X10370000Y-49020000D02*
X12980000Y-49020000D01*
X10370000Y-49020000D02*
G75*
G02*
X7630000Y-49020000I-1370000J0D01*
G01*
X7630000Y-49020000D02*
G75*
G02*
X10370000Y-49020000I1370000J0D01*
G01*
%TO.C,Q91*%
X82460000Y-55425000D02*
X78860000Y-55425000D01*
X78335816Y-56152205D02*
G75*
G02*
X78860000Y-55425000I2324184J-1122795D01*
G01*
X80660000Y-59875000D02*
G75*
G02*
X78303600Y-58373807I0J2600000D01*
G01*
X82460000Y-55425000D02*
G75*
G02*
X82984184Y-56152205I-1800000J-1850000D01*
G01*
X83016400Y-58373807D02*
G75*
G02*
X80660000Y-59875000I-2356400J1098807D01*
G01*
%TO.C,Q48*%
X40460000Y-55950000D02*
X44060000Y-55950000D01*
X39903600Y-53001193D02*
G75*
G02*
X42260000Y-51500000I2356400J-1098807D01*
G01*
X40460000Y-55950000D02*
G75*
G02*
X39935816Y-55222795I1800000J1850000D01*
G01*
X42260000Y-51500000D02*
G75*
G02*
X44616400Y-53001193I0J-2600000D01*
G01*
X44584184Y-55222795D02*
G75*
G02*
X44060000Y-55950000I-2324184J1122795D01*
G01*
%TO.C,C2*%
X93960000Y-27000000D02*
X92420000Y-27000000D01*
X93960000Y-27040000D02*
X92420000Y-27040000D01*
X93960000Y-27080000D02*
X92421000Y-27080000D01*
X93960000Y-27120000D02*
X92423000Y-27120000D01*
X93960000Y-27160000D02*
X92425000Y-27160000D01*
X93960000Y-27200000D02*
X92428000Y-27200000D01*
X93960000Y-27240000D02*
X92431000Y-27240000D01*
X93960000Y-27280000D02*
X92435000Y-27280000D01*
X93960000Y-27320000D02*
X92440000Y-27320000D01*
X93960000Y-27360000D02*
X92445000Y-27360000D01*
X93960000Y-27400000D02*
X92451000Y-27400000D01*
X93960000Y-27440000D02*
X92457000Y-27440000D01*
X93960000Y-27480000D02*
X92464000Y-27480000D01*
X93960000Y-27520000D02*
X92472000Y-27520000D01*
X93960000Y-27560000D02*
X92481000Y-27560000D01*
X93960000Y-27600000D02*
X92490000Y-27600000D01*
X93960000Y-27640000D02*
X92499000Y-27640000D01*
X93960000Y-27680000D02*
X92510000Y-27680000D01*
X93960000Y-27720000D02*
X92521000Y-27720000D01*
X93960000Y-27760000D02*
X92533000Y-27760000D01*
X93960000Y-27800000D02*
X92545000Y-27800000D01*
X93960000Y-27840000D02*
X92558000Y-27840000D01*
X93960000Y-27880000D02*
X92572000Y-27880000D01*
X93960000Y-27920000D02*
X92587000Y-27920000D01*
X93960000Y-27960000D02*
X92602000Y-27960000D01*
X93960000Y-28000000D02*
X92618000Y-28000000D01*
X93960000Y-28040000D02*
X92635000Y-28040000D01*
X93960000Y-28080000D02*
X92653000Y-28080000D01*
X93960000Y-28120000D02*
X92671000Y-28120000D01*
X93960000Y-28160000D02*
X92691000Y-28160000D01*
X93960000Y-28200000D02*
X92711000Y-28200000D01*
X93960000Y-28240000D02*
X92732000Y-28240000D01*
X93960000Y-28280000D02*
X92754000Y-28280000D01*
X93960000Y-28320000D02*
X92777000Y-28320000D01*
X93960000Y-28360000D02*
X92801000Y-28360000D01*
X93960000Y-28400000D02*
X92825000Y-28400000D01*
X93960000Y-28440000D02*
X92851000Y-28440000D01*
X93960000Y-28480000D02*
X92878000Y-28480000D01*
X93960000Y-28520000D02*
X92906000Y-28520000D01*
X93960000Y-28560000D02*
X92935000Y-28560000D01*
X93960000Y-28600000D02*
X92965000Y-28600000D01*
X93960000Y-28640000D02*
X92997000Y-28640000D01*
X93960000Y-28680000D02*
X93030000Y-28680000D01*
X93960000Y-28720000D02*
X93064000Y-28720000D01*
X93960000Y-28760000D02*
X93099000Y-28760000D01*
X93960000Y-28800000D02*
X93136000Y-28800000D01*
X93960000Y-28840000D02*
X93175000Y-28840000D01*
X93960000Y-28880000D02*
X93215000Y-28880000D01*
X93960000Y-28920000D02*
X93257000Y-28920000D01*
X93960000Y-28960000D02*
X93301000Y-28960000D01*
X93960000Y-29000000D02*
X93348000Y-29000000D01*
X95283000Y-29600000D02*
X94717000Y-29600000D01*
X95517000Y-29560000D02*
X94483000Y-29560000D01*
X95677000Y-29520000D02*
X94323000Y-29520000D01*
X95805000Y-29480000D02*
X94195000Y-29480000D01*
X95914000Y-29440000D02*
X94086000Y-29440000D01*
X96011000Y-29400000D02*
X93989000Y-29400000D01*
X96098000Y-29360000D02*
X93902000Y-29360000D01*
X96177000Y-29320000D02*
X93823000Y-29320000D01*
X96251000Y-29280000D02*
X93749000Y-29280000D01*
X96319000Y-29240000D02*
X93681000Y-29240000D01*
X96383000Y-29200000D02*
X93617000Y-29200000D01*
X96443000Y-29160000D02*
X93557000Y-29160000D01*
X96475000Y-24195225D02*
X96475000Y-24695225D01*
X96499000Y-29120000D02*
X93501000Y-29120000D01*
X96553000Y-29080000D02*
X93447000Y-29080000D01*
X96604000Y-29040000D02*
X93396000Y-29040000D01*
X96652000Y-29000000D02*
X96040000Y-29000000D01*
X96699000Y-28960000D02*
X96040000Y-28960000D01*
X96725000Y-24445225D02*
X96225000Y-24445225D01*
X96743000Y-28920000D02*
X96040000Y-28920000D01*
X96785000Y-28880000D02*
X96040000Y-28880000D01*
X96825000Y-28840000D02*
X96040000Y-28840000D01*
X96864000Y-28800000D02*
X96040000Y-28800000D01*
X96901000Y-28760000D02*
X96040000Y-28760000D01*
X96936000Y-28720000D02*
X96040000Y-28720000D01*
X96970000Y-28680000D02*
X96040000Y-28680000D01*
X97003000Y-28640000D02*
X96040000Y-28640000D01*
X97035000Y-28600000D02*
X96040000Y-28600000D01*
X97065000Y-28560000D02*
X96040000Y-28560000D01*
X97094000Y-28520000D02*
X96040000Y-28520000D01*
X97122000Y-28480000D02*
X96040000Y-28480000D01*
X97149000Y-28440000D02*
X96040000Y-28440000D01*
X97175000Y-28400000D02*
X96040000Y-28400000D01*
X97199000Y-28360000D02*
X96040000Y-28360000D01*
X97223000Y-28320000D02*
X96040000Y-28320000D01*
X97246000Y-28280000D02*
X96040000Y-28280000D01*
X97268000Y-28240000D02*
X96040000Y-28240000D01*
X97289000Y-28200000D02*
X96040000Y-28200000D01*
X97309000Y-28160000D02*
X96040000Y-28160000D01*
X97329000Y-28120000D02*
X96040000Y-28120000D01*
X97347000Y-28080000D02*
X96040000Y-28080000D01*
X97365000Y-28040000D02*
X96040000Y-28040000D01*
X97382000Y-28000000D02*
X96040000Y-28000000D01*
X97398000Y-27960000D02*
X96040000Y-27960000D01*
X97413000Y-27920000D02*
X96040000Y-27920000D01*
X97428000Y-27880000D02*
X96040000Y-27880000D01*
X97442000Y-27840000D02*
X96040000Y-27840000D01*
X97455000Y-27800000D02*
X96040000Y-27800000D01*
X97467000Y-27760000D02*
X96040000Y-27760000D01*
X97479000Y-27720000D02*
X96040000Y-27720000D01*
X97490000Y-27680000D02*
X96040000Y-27680000D01*
X97501000Y-27640000D02*
X96040000Y-27640000D01*
X97510000Y-27600000D02*
X96040000Y-27600000D01*
X97519000Y-27560000D02*
X96040000Y-27560000D01*
X97528000Y-27520000D02*
X96040000Y-27520000D01*
X97536000Y-27480000D02*
X96040000Y-27480000D01*
X97543000Y-27440000D02*
X96040000Y-27440000D01*
X97549000Y-27400000D02*
X96040000Y-27400000D01*
X97555000Y-27360000D02*
X96040000Y-27360000D01*
X97560000Y-27320000D02*
X96040000Y-27320000D01*
X97565000Y-27280000D02*
X96040000Y-27280000D01*
X97569000Y-27240000D02*
X96040000Y-27240000D01*
X97572000Y-27200000D02*
X96040000Y-27200000D01*
X97575000Y-27160000D02*
X96040000Y-27160000D01*
X97577000Y-27120000D02*
X96040000Y-27120000D01*
X97579000Y-27080000D02*
X96040000Y-27080000D01*
X97580000Y-27000000D02*
X96040000Y-27000000D01*
X97580000Y-27040000D02*
X96040000Y-27040000D01*
X97620000Y-27000000D02*
G75*
G02*
X92380000Y-27000000I-2620000J0D01*
G01*
X92380000Y-27000000D02*
G75*
G02*
X97620000Y-27000000I2620000J0D01*
G01*
%TO.C,C1*%
X93630000Y-15130000D02*
X96370000Y-15130000D01*
X93630000Y-20370000D02*
X93630000Y-15130000D01*
X96370000Y-15130000D02*
X96370000Y-20370000D01*
X96370000Y-20370000D02*
X93630000Y-20370000D01*
%TO.C,R34*%
X79490000Y-31240000D02*
X82100000Y-31240000D01*
X79490000Y-31240000D02*
G75*
G02*
X76750000Y-31240000I-1370000J0D01*
G01*
X76750000Y-31240000D02*
G75*
G02*
X79490000Y-31240000I1370000J0D01*
G01*
%TO.C,R6*%
X10370000Y-67435000D02*
X12980000Y-67435000D01*
X10370000Y-67435000D02*
G75*
G02*
X7630000Y-67435000I-1370000J0D01*
G01*
X7630000Y-67435000D02*
G75*
G02*
X10370000Y-67435000I1370000J0D01*
G01*
%TO.C,Q57*%
X51740000Y-38280000D02*
X48140000Y-38280000D01*
X47615816Y-39007205D02*
G75*
G02*
X48140000Y-38280000I2324184J-1122795D01*
G01*
X49940000Y-42730000D02*
G75*
G02*
X47583600Y-41228807I0J2600000D01*
G01*
X51740000Y-38280000D02*
G75*
G02*
X52264184Y-39007205I-1800000J-1850000D01*
G01*
X52296400Y-41228807D02*
G75*
G02*
X49940000Y-42730000I-2356400J1098807D01*
G01*
%TO.C,Q40*%
X36380000Y-71935000D02*
X32780000Y-71935000D01*
X32255816Y-72662205D02*
G75*
G02*
X32780000Y-71935000I2324184J-1122795D01*
G01*
X34580000Y-76385000D02*
G75*
G02*
X32223600Y-74883807I0J2600000D01*
G01*
X36380000Y-71935000D02*
G75*
G02*
X36904184Y-72662205I-1800000J-1850000D01*
G01*
X36936400Y-74883807D02*
G75*
G02*
X34580000Y-76385000I-2356400J1098807D01*
G01*
%TO.C,Q15*%
X21020000Y-49710000D02*
X17420000Y-49710000D01*
X16895816Y-50437205D02*
G75*
G02*
X17420000Y-49710000I2324184J-1122795D01*
G01*
X19220000Y-54160000D02*
G75*
G02*
X16863600Y-52658807I0J2600000D01*
G01*
X21020000Y-49710000D02*
G75*
G02*
X21544184Y-50437205I-1800000J-1850000D01*
G01*
X21576400Y-52658807D02*
G75*
G02*
X19220000Y-54160000I-2356400J1098807D01*
G01*
%TO.C,Q52*%
X40460000Y-79445000D02*
X44060000Y-79445000D01*
X39903600Y-76496193D02*
G75*
G02*
X42260000Y-74995000I2356400J-1098807D01*
G01*
X40460000Y-79445000D02*
G75*
G02*
X39935816Y-78717795I1800000J1850000D01*
G01*
X42260000Y-74995000D02*
G75*
G02*
X44616400Y-76496193I0J-2600000D01*
G01*
X44584184Y-78717795D02*
G75*
G02*
X44060000Y-79445000I-2324184J1122795D01*
G01*
%TO.C,Q65*%
X55820000Y-24200000D02*
X59420000Y-24200000D01*
X55263600Y-21251193D02*
G75*
G02*
X57620000Y-19750000I2356400J-1098807D01*
G01*
X55820000Y-24200000D02*
G75*
G02*
X55295816Y-23472795I1800000J1850000D01*
G01*
X57620000Y-19750000D02*
G75*
G02*
X59976400Y-21251193I0J-2600000D01*
G01*
X59944184Y-23472795D02*
G75*
G02*
X59420000Y-24200000I-2324184J1122795D01*
G01*
%TO.C,R31*%
X71810000Y-46480000D02*
X74420000Y-46480000D01*
X71810000Y-46480000D02*
G75*
G02*
X69070000Y-46480000I-1370000J0D01*
G01*
X69070000Y-46480000D02*
G75*
G02*
X71810000Y-46480000I1370000J0D01*
G01*
%TO.C,Q5*%
X9740000Y-55315000D02*
X13340000Y-55315000D01*
X9183600Y-52366193D02*
G75*
G02*
X11540000Y-50865000I2356400J-1098807D01*
G01*
X9740000Y-55315000D02*
G75*
G02*
X9215816Y-54587795I1800000J1850000D01*
G01*
X11540000Y-50865000D02*
G75*
G02*
X13896400Y-52366193I0J-2600000D01*
G01*
X13864184Y-54587795D02*
G75*
G02*
X13340000Y-55315000I-2324184J1122795D01*
G01*
%TO.C,R20*%
X41090000Y-73150000D02*
X43700000Y-73150000D01*
X41090000Y-73150000D02*
G75*
G02*
X38350000Y-73150000I-1370000J0D01*
G01*
X38350000Y-73150000D02*
G75*
G02*
X41090000Y-73150000I1370000J0D01*
G01*
%TO.C,Q67*%
X55820000Y-34360000D02*
X59420000Y-34360000D01*
X55263600Y-31411193D02*
G75*
G02*
X57620000Y-29910000I2356400J-1098807D01*
G01*
X55820000Y-34360000D02*
G75*
G02*
X55295816Y-33632795I1800000J1850000D01*
G01*
X57620000Y-29910000D02*
G75*
G02*
X59976400Y-31411193I0J-2600000D01*
G01*
X59944184Y-33632795D02*
G75*
G02*
X59420000Y-34360000I-2324184J1122795D01*
G01*
%TO.C,R18*%
X41090000Y-26160000D02*
X43700000Y-26160000D01*
X41090000Y-26160000D02*
G75*
G02*
X38350000Y-26160000I-1370000J0D01*
G01*
X38350000Y-26160000D02*
G75*
G02*
X41090000Y-26160000I1370000J0D01*
G01*
%TO.C,Q31*%
X36380000Y-19865000D02*
X32780000Y-19865000D01*
X32255816Y-20592205D02*
G75*
G02*
X32780000Y-19865000I2324184J-1122795D01*
G01*
X34580000Y-24315000D02*
G75*
G02*
X32223600Y-22813807I0J2600000D01*
G01*
X36380000Y-19865000D02*
G75*
G02*
X36904184Y-20592205I-1800000J-1850000D01*
G01*
X36936400Y-22813807D02*
G75*
G02*
X34580000Y-24315000I-2356400J1098807D01*
G01*
%TO.C,Q68*%
X55820000Y-42615000D02*
X59420000Y-42615000D01*
X55263600Y-39666193D02*
G75*
G02*
X57620000Y-38165000I2356400J-1098807D01*
G01*
X55820000Y-42615000D02*
G75*
G02*
X55295816Y-41887795I1800000J1850000D01*
G01*
X57620000Y-38165000D02*
G75*
G02*
X59976400Y-39666193I0J-2600000D01*
G01*
X59944184Y-41887795D02*
G75*
G02*
X59420000Y-42615000I-2324184J1122795D01*
G01*
%TO.C,Q14*%
X21020000Y-44630000D02*
X17420000Y-44630000D01*
X16895816Y-45357205D02*
G75*
G02*
X17420000Y-44630000I2324184J-1122795D01*
G01*
X19220000Y-49080000D02*
G75*
G02*
X16863600Y-47578807I0J2600000D01*
G01*
X21020000Y-44630000D02*
G75*
G02*
X21544184Y-45357205I-1800000J-1850000D01*
G01*
X21576400Y-47578807D02*
G75*
G02*
X19220000Y-49080000I-2356400J1098807D01*
G01*
%TO.C,Q80*%
X67100000Y-41455000D02*
X63500000Y-41455000D01*
X62975816Y-42182205D02*
G75*
G02*
X63500000Y-41455000I2324184J-1122795D01*
G01*
X65300000Y-45905000D02*
G75*
G02*
X62943600Y-44403807I0J2600000D01*
G01*
X67100000Y-41455000D02*
G75*
G02*
X67624184Y-42182205I-1800000J-1850000D01*
G01*
X67656400Y-44403807D02*
G75*
G02*
X65300000Y-45905000I-2356400J1098807D01*
G01*
%TD*%
M02*
