%TF.GenerationSoftware,KiCad,Pcbnew,10.0.5*%
%TF.CreationDate,2026-09-11T05:31:18-04:00*%
%TF.ProjectId,memslot,6d656d73-6c6f-4742-9e6b-696361645f70,rev?*%
%TF.SameCoordinates,Original*%
%TF.FileFunction,Other,User*%
%FSLAX46Y46*%
G04 Gerber Fmt 4.6, Leading zero omitted, Abs format (unit mm)*
G04 Created by KiCad (PCBNEW 10.0.5) date 2026-09-11 05:31:18*
%MOMM*%
%LPD*%
G01*
G04 APERTURE LIST*
%ADD10C,0.050000*%
G04 APERTURE END LIST*
%TO.C,Q74*%
D10*
X54070000Y-71690000D02*
X54070000Y-76430000D01*
X54070000Y-71690000D02*
X61170000Y-71690000D01*
X61170000Y-76430000D02*
X54070000Y-76430000D01*
X61170000Y-76430000D02*
X61170000Y-71690000D01*
%TO.C,Q64*%
X54070000Y-14540000D02*
X54070000Y-19280000D01*
X54070000Y-14540000D02*
X61170000Y-14540000D01*
X61170000Y-19280000D02*
X54070000Y-19280000D01*
X61170000Y-19280000D02*
X61170000Y-14540000D01*
%TO.C,D3*%
X70770000Y-33900000D02*
X75190000Y-33900000D01*
X75190000Y-38740000D01*
X70770000Y-38740000D01*
X70770000Y-33900000D01*
%TO.C,R17*%
X30540000Y-53235000D02*
X38170000Y-53235000D01*
X38170000Y-56235000D01*
X30540000Y-56235000D01*
X30540000Y-53235000D01*
%TO.C,H2*%
X99450000Y-50000000D02*
G75*
G02*
X92550000Y-50000000I-3450000J0D01*
G01*
X92550000Y-50000000D02*
G75*
G02*
X99450000Y-50000000I3450000J0D01*
G01*
%TO.C,D8*%
X78450000Y-49140000D02*
X82870000Y-49140000D01*
X82870000Y-53980000D01*
X78450000Y-53980000D01*
X78450000Y-49140000D01*
%TO.C,Q79*%
X61750000Y-36215000D02*
X61750000Y-40955000D01*
X61750000Y-36215000D02*
X68850000Y-36215000D01*
X68850000Y-40955000D02*
X61750000Y-40955000D01*
X68850000Y-40955000D02*
X68850000Y-36215000D01*
%TO.C,Q58*%
X46390000Y-43200000D02*
X46390000Y-47940000D01*
X46390000Y-43200000D02*
X53490000Y-43200000D01*
X53490000Y-47940000D02*
X46390000Y-47940000D01*
X53490000Y-47940000D02*
X53490000Y-43200000D01*
%TO.C,R9*%
X15180000Y-41170000D02*
X22810000Y-41170000D01*
X22810000Y-44170000D01*
X15180000Y-44170000D01*
X15180000Y-41170000D01*
%TO.C,Q8*%
X7990000Y-69150000D02*
X7990000Y-73890000D01*
X7990000Y-69150000D02*
X15090000Y-69150000D01*
X15090000Y-73890000D02*
X7990000Y-73890000D01*
X15090000Y-73890000D02*
X15090000Y-69150000D01*
%TO.C,R13*%
X22860000Y-22755000D02*
X30490000Y-22755000D01*
X30490000Y-25755000D01*
X22860000Y-25755000D01*
X22860000Y-22755000D01*
%TO.C,Q70*%
X54070000Y-51370000D02*
X54070000Y-56110000D01*
X54070000Y-51370000D02*
X61170000Y-51370000D01*
X61170000Y-56110000D02*
X54070000Y-56110000D01*
X61170000Y-56110000D02*
X61170000Y-51370000D01*
%TO.C,R8*%
X15180000Y-27835000D02*
X22810000Y-27835000D01*
X22810000Y-30835000D01*
X15180000Y-30835000D01*
X15180000Y-27835000D01*
%TO.C,R24*%
X53580000Y-34820000D02*
X61210000Y-34820000D01*
X61210000Y-37820000D01*
X53580000Y-37820000D01*
X53580000Y-34820000D01*
%TO.C,Q25*%
X23350000Y-46290000D02*
X23350000Y-51030000D01*
X23350000Y-46290000D02*
X30450000Y-46290000D01*
X30450000Y-51030000D02*
X23350000Y-51030000D01*
X30450000Y-51030000D02*
X30450000Y-46290000D01*
%TO.C,Q18*%
X15670000Y-71140000D02*
X15670000Y-75880000D01*
X15670000Y-71140000D02*
X22770000Y-71140000D01*
X22770000Y-75880000D02*
X15670000Y-75880000D01*
X22770000Y-75880000D02*
X22770000Y-71140000D01*
%TO.C,Q29*%
X23350000Y-72960000D02*
X23350000Y-77700000D01*
X23350000Y-72960000D02*
X30450000Y-72960000D01*
X30450000Y-77700000D02*
X23350000Y-77700000D01*
X30450000Y-77700000D02*
X30450000Y-72960000D01*
%TO.C,Q38*%
X31030000Y-61615000D02*
X31030000Y-66355000D01*
X31030000Y-61615000D02*
X38130000Y-61615000D01*
X38130000Y-66355000D02*
X31030000Y-66355000D01*
X38130000Y-66355000D02*
X38130000Y-61615000D01*
%TO.C,Q42*%
X38710000Y-14540000D02*
X38710000Y-19280000D01*
X38710000Y-14540000D02*
X45810000Y-14540000D01*
X45810000Y-19280000D02*
X38710000Y-19280000D01*
X45810000Y-19280000D02*
X45810000Y-14540000D01*
%TO.C,Q2*%
X7990000Y-25970000D02*
X7990000Y-30710000D01*
X7990000Y-25970000D02*
X15090000Y-25970000D01*
X15090000Y-30710000D02*
X7990000Y-30710000D01*
X15090000Y-30710000D02*
X15090000Y-25970000D01*
%TO.C,Q4*%
X7990000Y-42480000D02*
X7990000Y-47220000D01*
X7990000Y-42480000D02*
X15090000Y-42480000D01*
X15090000Y-47220000D02*
X7990000Y-47220000D01*
X15090000Y-47220000D02*
X15090000Y-42480000D01*
%TO.C,R27*%
X61260000Y-22755000D02*
X68890000Y-22755000D01*
X68890000Y-25755000D01*
X61260000Y-25755000D01*
X61260000Y-22755000D01*
%TO.C,Q46*%
X38710000Y-41210000D02*
X38710000Y-45950000D01*
X38710000Y-41210000D02*
X45810000Y-41210000D01*
X45810000Y-45950000D02*
X38710000Y-45950000D01*
X45810000Y-45950000D02*
X45810000Y-41210000D01*
%TO.C,Q88*%
X69430000Y-69785000D02*
X69430000Y-74525000D01*
X69430000Y-69785000D02*
X76530000Y-69785000D01*
X76530000Y-74525000D02*
X69430000Y-74525000D01*
X76530000Y-74525000D02*
X76530000Y-69785000D01*
%TO.C,D7*%
X78450000Y-33900000D02*
X82870000Y-33900000D01*
X82870000Y-38740000D01*
X78450000Y-38740000D01*
X78450000Y-33900000D01*
%TO.C,R2*%
X7500000Y-22755000D02*
X15130000Y-22755000D01*
X15130000Y-25755000D01*
X7500000Y-25755000D01*
X7500000Y-22755000D01*
%TO.C,R32*%
X68940000Y-60220000D02*
X76570000Y-60220000D01*
X76570000Y-63220000D01*
X68940000Y-63220000D01*
X68940000Y-60220000D01*
%TO.C,Q87*%
X69430000Y-54545000D02*
X69430000Y-59285000D01*
X69430000Y-54545000D02*
X76530000Y-54545000D01*
X76530000Y-59285000D02*
X69430000Y-59285000D01*
X76530000Y-59285000D02*
X76530000Y-54545000D01*
%TO.C,Q3*%
X7990000Y-34225000D02*
X7990000Y-38965000D01*
X7990000Y-34225000D02*
X15090000Y-34225000D01*
X15090000Y-38965000D02*
X7990000Y-38965000D01*
X15090000Y-38965000D02*
X15090000Y-34225000D01*
%TO.C,Q82*%
X61750000Y-51455000D02*
X61750000Y-56195000D01*
X61750000Y-51455000D02*
X68850000Y-51455000D01*
X68850000Y-56195000D02*
X61750000Y-56195000D01*
X68850000Y-56195000D02*
X68850000Y-51455000D01*
%TO.C,J2*%
X34400000Y-88780000D02*
X58300000Y-88780000D01*
X58300000Y-98680000D01*
X34400000Y-98680000D01*
X34400000Y-88780000D01*
%TO.C,Q21*%
X23350000Y-25970000D02*
X23350000Y-30710000D01*
X23350000Y-25970000D02*
X30450000Y-25970000D01*
X30450000Y-30710000D02*
X23350000Y-30710000D01*
X30450000Y-30710000D02*
X30450000Y-25970000D01*
%TO.C,Q16*%
X15670000Y-57805000D02*
X15670000Y-62545000D01*
X15670000Y-57805000D02*
X22770000Y-57805000D01*
X22770000Y-62545000D02*
X15670000Y-62545000D01*
X22770000Y-62545000D02*
X22770000Y-57805000D01*
%TO.C,D5*%
X70770000Y-64380000D02*
X75190000Y-64380000D01*
X75190000Y-69220000D01*
X70770000Y-69220000D01*
X70770000Y-64380000D01*
%TO.C,R30*%
X68940000Y-29740000D02*
X76570000Y-29740000D01*
X76570000Y-32740000D01*
X68940000Y-32740000D01*
X68940000Y-29740000D01*
%TO.C,Q59*%
X46390000Y-48280000D02*
X46390000Y-53020000D01*
X46390000Y-48280000D02*
X53490000Y-48280000D01*
X53490000Y-53020000D02*
X46390000Y-53020000D01*
X53490000Y-53020000D02*
X53490000Y-48280000D01*
%TO.C,Q49*%
X38710000Y-56450000D02*
X38710000Y-61190000D01*
X38710000Y-56450000D02*
X45810000Y-56450000D01*
X45810000Y-61190000D02*
X38710000Y-61190000D01*
X45810000Y-61190000D02*
X45810000Y-56450000D01*
%TO.C,R26*%
X61260000Y-14500000D02*
X68890000Y-14500000D01*
X68890000Y-17500000D01*
X61260000Y-17500000D01*
X61260000Y-14500000D01*
%TO.C,R28*%
X61260000Y-61490000D02*
X68890000Y-61490000D01*
X68890000Y-64490000D01*
X61260000Y-64490000D01*
X61260000Y-61490000D01*
%TO.C,R21*%
X45900000Y-14500000D02*
X53530000Y-14500000D01*
X53530000Y-17500000D01*
X45900000Y-17500000D01*
X45900000Y-14500000D01*
%TO.C,R22*%
X45900000Y-53235000D02*
X53530000Y-53235000D01*
X53530000Y-56235000D01*
X45900000Y-56235000D01*
X45900000Y-53235000D01*
%TO.C,J1*%
X5030000Y-1280000D02*
X94970000Y-1280000D01*
X94970000Y-11180000D01*
X5030000Y-11180000D01*
X5030000Y-1280000D01*
%TO.C,R19*%
X38220000Y-32915000D02*
X45850000Y-32915000D01*
X45850000Y-35915000D01*
X38220000Y-35915000D01*
X38220000Y-32915000D01*
%TO.C,R29*%
X68940000Y-14500000D02*
X76570000Y-14500000D01*
X76570000Y-17500000D01*
X68940000Y-17500000D01*
X68940000Y-14500000D01*
%TO.C,Q60*%
X46390000Y-56535000D02*
X46390000Y-61275000D01*
X46390000Y-56535000D02*
X53490000Y-56535000D01*
X53490000Y-61275000D02*
X46390000Y-61275000D01*
X53490000Y-61275000D02*
X53490000Y-56535000D01*
%TO.C,Q72*%
X54070000Y-61530000D02*
X54070000Y-66270000D01*
X54070000Y-61530000D02*
X61170000Y-61530000D01*
X61170000Y-66270000D02*
X54070000Y-66270000D01*
X61170000Y-66270000D02*
X61170000Y-61530000D01*
%TO.C,Q77*%
X61750000Y-26055000D02*
X61750000Y-30795000D01*
X61750000Y-26055000D02*
X68850000Y-26055000D01*
X68850000Y-30795000D02*
X61750000Y-30795000D01*
X68850000Y-30795000D02*
X68850000Y-26055000D01*
%TO.C,R4*%
X7500000Y-39265000D02*
X15130000Y-39265000D01*
X15130000Y-42265000D01*
X7500000Y-42265000D01*
X7500000Y-39265000D01*
%TO.C,Q12*%
X15670000Y-31135000D02*
X15670000Y-35875000D01*
X15670000Y-31135000D02*
X22770000Y-31135000D01*
X22770000Y-35875000D02*
X15670000Y-35875000D01*
X22770000Y-35875000D02*
X22770000Y-31135000D01*
%TO.C,R16*%
X30540000Y-44980000D02*
X38170000Y-44980000D01*
X38170000Y-47980000D01*
X30540000Y-47980000D01*
X30540000Y-44980000D01*
%TO.C,Q66*%
X54070000Y-24700000D02*
X54070000Y-29440000D01*
X54070000Y-24700000D02*
X61170000Y-24700000D01*
X61170000Y-29440000D02*
X54070000Y-29440000D01*
X61170000Y-29440000D02*
X61170000Y-24700000D01*
%TO.C,R7*%
X15180000Y-14500000D02*
X22810000Y-14500000D01*
X22810000Y-17500000D01*
X15180000Y-17500000D01*
X15180000Y-14500000D01*
%TO.C,R3*%
X7500000Y-31010000D02*
X15130000Y-31010000D01*
X15130000Y-34010000D01*
X7500000Y-34010000D01*
X7500000Y-31010000D01*
%TO.C,Q33*%
X31030000Y-29865000D02*
X31030000Y-34605000D01*
X31030000Y-29865000D02*
X38130000Y-29865000D01*
X38130000Y-34605000D02*
X31030000Y-34605000D01*
X38130000Y-34605000D02*
X38130000Y-29865000D01*
%TO.C,Q39*%
X31030000Y-66695000D02*
X31030000Y-71435000D01*
X31030000Y-66695000D02*
X38130000Y-66695000D01*
X38130000Y-71435000D02*
X31030000Y-71435000D01*
X38130000Y-71435000D02*
X38130000Y-66695000D01*
%TO.C,D6*%
X78450000Y-18660000D02*
X82870000Y-18660000D01*
X82870000Y-23500000D01*
X78450000Y-23500000D01*
X78450000Y-18660000D01*
%TO.C,J3*%
X60230000Y-93230000D02*
X68850000Y-93230000D01*
X68850000Y-96770000D01*
X60230000Y-96770000D01*
X60230000Y-93230000D01*
%TO.C,R15*%
X22860000Y-69745000D02*
X30490000Y-69745000D01*
X30490000Y-72745000D01*
X22860000Y-72745000D01*
X22860000Y-69745000D01*
%TO.C,Q53*%
X46390000Y-17800000D02*
X46390000Y-22540000D01*
X46390000Y-17800000D02*
X53490000Y-17800000D01*
X53490000Y-22540000D02*
X46390000Y-22540000D01*
X53490000Y-22540000D02*
X53490000Y-17800000D01*
%TO.C,Q27*%
X23350000Y-56450000D02*
X23350000Y-61190000D01*
X23350000Y-56450000D02*
X30450000Y-56450000D01*
X30450000Y-61190000D02*
X23350000Y-61190000D01*
X30450000Y-61190000D02*
X30450000Y-56450000D01*
%TO.C,Q86*%
X69430000Y-39305000D02*
X69430000Y-44045000D01*
X69430000Y-39305000D02*
X76530000Y-39305000D01*
X76530000Y-44045000D02*
X69430000Y-44045000D01*
X76530000Y-44045000D02*
X76530000Y-39305000D01*
%TO.C,Q83*%
X61750000Y-56535000D02*
X61750000Y-61275000D01*
X61750000Y-56535000D02*
X68850000Y-56535000D01*
X68850000Y-61275000D02*
X61750000Y-61275000D01*
X68850000Y-61275000D02*
X68850000Y-56535000D01*
%TO.C,Q28*%
X23350000Y-64705000D02*
X23350000Y-69445000D01*
X23350000Y-64705000D02*
X30450000Y-64705000D01*
X30450000Y-69445000D02*
X23350000Y-69445000D01*
X30450000Y-69445000D02*
X30450000Y-64705000D01*
%TO.C,D2*%
X70770000Y-18660000D02*
X75190000Y-18660000D01*
X75190000Y-23500000D01*
X70770000Y-23500000D01*
X70770000Y-18660000D01*
%TO.C,Q22*%
X23350000Y-31050000D02*
X23350000Y-35790000D01*
X23350000Y-31050000D02*
X30450000Y-31050000D01*
X30450000Y-35790000D02*
X23350000Y-35790000D01*
X30450000Y-35790000D02*
X30450000Y-31050000D01*
%TO.C,Q56*%
X46390000Y-33040000D02*
X46390000Y-37780000D01*
X46390000Y-33040000D02*
X53490000Y-33040000D01*
X53490000Y-37780000D02*
X46390000Y-37780000D01*
X53490000Y-37780000D02*
X53490000Y-33040000D01*
%TO.C,Q73*%
X54070000Y-66610000D02*
X54070000Y-71350000D01*
X54070000Y-66610000D02*
X61170000Y-66610000D01*
X61170000Y-71350000D02*
X54070000Y-71350000D01*
X61170000Y-71350000D02*
X61170000Y-66610000D01*
%TO.C,Q81*%
X61750000Y-46375000D02*
X61750000Y-51115000D01*
X61750000Y-46375000D02*
X68850000Y-46375000D01*
X68850000Y-51115000D02*
X61750000Y-51115000D01*
X68850000Y-51115000D02*
X68850000Y-46375000D01*
%TO.C,Q62*%
X46390000Y-69870000D02*
X46390000Y-74610000D01*
X46390000Y-69870000D02*
X53490000Y-69870000D01*
X53490000Y-74610000D02*
X46390000Y-74610000D01*
X53490000Y-74610000D02*
X53490000Y-69870000D01*
%TO.C,Q37*%
X31030000Y-56535000D02*
X31030000Y-61275000D01*
X31030000Y-56535000D02*
X38130000Y-56535000D01*
X38130000Y-61275000D02*
X31030000Y-61275000D01*
X38130000Y-61275000D02*
X38130000Y-56535000D01*
%TO.C,Q76*%
X61750000Y-17800000D02*
X61750000Y-22540000D01*
X61750000Y-17800000D02*
X68850000Y-17800000D01*
X68850000Y-22540000D02*
X61750000Y-22540000D01*
X68850000Y-22540000D02*
X68850000Y-17800000D01*
%TO.C,Q30*%
X31030000Y-14625000D02*
X31030000Y-19365000D01*
X31030000Y-14625000D02*
X38130000Y-14625000D01*
X38130000Y-19365000D02*
X31030000Y-19365000D01*
X38130000Y-19365000D02*
X38130000Y-14625000D01*
%TO.C,Q90*%
X77110000Y-40025000D02*
X77110000Y-44765000D01*
X77110000Y-40025000D02*
X84210000Y-40025000D01*
X84210000Y-44765000D02*
X77110000Y-44765000D01*
X84210000Y-44765000D02*
X84210000Y-40025000D01*
%TO.C,Q11*%
X15670000Y-22880000D02*
X15670000Y-27620000D01*
X15670000Y-22880000D02*
X22770000Y-22880000D01*
X22770000Y-27620000D02*
X15670000Y-27620000D01*
X22770000Y-27620000D02*
X22770000Y-22880000D01*
%TO.C,R12*%
X22860000Y-14500000D02*
X30490000Y-14500000D01*
X30490000Y-17500000D01*
X22860000Y-17500000D01*
X22860000Y-14500000D01*
%TO.C,Q78*%
X61750000Y-31135000D02*
X61750000Y-35875000D01*
X61750000Y-31135000D02*
X68850000Y-31135000D01*
X68850000Y-35875000D02*
X61750000Y-35875000D01*
X68850000Y-35875000D02*
X68850000Y-31135000D01*
%TO.C,Q36*%
X31030000Y-48280000D02*
X31030000Y-53020000D01*
X31030000Y-48280000D02*
X38130000Y-48280000D01*
X38130000Y-53020000D02*
X31030000Y-53020000D01*
X38130000Y-53020000D02*
X38130000Y-48280000D01*
%TO.C,Q34*%
X31030000Y-34945000D02*
X31030000Y-39685000D01*
X31030000Y-34945000D02*
X38130000Y-34945000D01*
X38130000Y-39685000D02*
X31030000Y-39685000D01*
X38130000Y-39685000D02*
X38130000Y-34945000D01*
%TO.C,Q26*%
X23350000Y-51370000D02*
X23350000Y-56110000D01*
X23350000Y-51370000D02*
X30450000Y-51370000D01*
X30450000Y-56110000D02*
X23350000Y-56110000D01*
X30450000Y-56110000D02*
X30450000Y-51370000D01*
%TO.C,R1*%
X7500000Y-14500000D02*
X15130000Y-14500000D01*
X15130000Y-17500000D01*
X7500000Y-17500000D01*
X7500000Y-14500000D01*
%TO.C,Q51*%
X38710000Y-66610000D02*
X38710000Y-71350000D01*
X38710000Y-66610000D02*
X45810000Y-66610000D01*
X45810000Y-71350000D02*
X38710000Y-71350000D01*
X45810000Y-71350000D02*
X45810000Y-66610000D01*
%TO.C,Q75*%
X54070000Y-76770000D02*
X54070000Y-81510000D01*
X54070000Y-76770000D02*
X61170000Y-76770000D01*
X61170000Y-81510000D02*
X54070000Y-81510000D01*
X61170000Y-81510000D02*
X61170000Y-76770000D01*
%TO.C,Q85*%
X69430000Y-24065000D02*
X69430000Y-28805000D01*
X69430000Y-24065000D02*
X76530000Y-24065000D01*
X76530000Y-28805000D02*
X69430000Y-28805000D01*
X76530000Y-28805000D02*
X76530000Y-24065000D01*
%TO.C,D4*%
X70770000Y-49140000D02*
X75190000Y-49140000D01*
X75190000Y-53980000D01*
X70770000Y-53980000D01*
X70770000Y-49140000D01*
%TO.C,Q63*%
X46390000Y-74950000D02*
X46390000Y-79690000D01*
X46390000Y-74950000D02*
X53490000Y-74950000D01*
X53490000Y-79690000D02*
X46390000Y-79690000D01*
X53490000Y-79690000D02*
X53490000Y-74950000D01*
%TO.C,Q19*%
X15670000Y-76220000D02*
X15670000Y-80960000D01*
X15670000Y-76220000D02*
X22770000Y-76220000D01*
X22770000Y-80960000D02*
X15670000Y-80960000D01*
X22770000Y-80960000D02*
X22770000Y-76220000D01*
%TO.C,Q69*%
X54070000Y-46290000D02*
X54070000Y-51030000D01*
X54070000Y-46290000D02*
X61170000Y-46290000D01*
X61170000Y-51030000D02*
X54070000Y-51030000D01*
X61170000Y-51030000D02*
X61170000Y-46290000D01*
%TO.C,R35*%
X76620000Y-44980000D02*
X84250000Y-44980000D01*
X84250000Y-47980000D01*
X76620000Y-47980000D01*
X76620000Y-44980000D01*
%TO.C,Q55*%
X46390000Y-27960000D02*
X46390000Y-32700000D01*
X46390000Y-27960000D02*
X53490000Y-27960000D01*
X53490000Y-32700000D02*
X46390000Y-32700000D01*
X53490000Y-32700000D02*
X53490000Y-27960000D01*
%TO.C,H1*%
X7450000Y-50000000D02*
G75*
G02*
X550000Y-50000000I-3450000J0D01*
G01*
X550000Y-50000000D02*
G75*
G02*
X7450000Y-50000000I3450000J0D01*
G01*
%TO.C,J5*%
X79230000Y-93230000D02*
X87850000Y-93230000D01*
X87850000Y-96770000D01*
X79230000Y-96770000D01*
X79230000Y-93230000D01*
%TO.C,R33*%
X76620000Y-14500000D02*
X84250000Y-14500000D01*
X84250000Y-17500000D01*
X76620000Y-17500000D01*
X76620000Y-14500000D01*
%TO.C,Q44*%
X38710000Y-27875000D02*
X38710000Y-32615000D01*
X38710000Y-27875000D02*
X45810000Y-27875000D01*
X45810000Y-32615000D02*
X38710000Y-32615000D01*
X45810000Y-32615000D02*
X45810000Y-27875000D01*
%TO.C,R10*%
X15180000Y-54505000D02*
X22810000Y-54505000D01*
X22810000Y-57505000D01*
X15180000Y-57505000D01*
X15180000Y-54505000D01*
%TO.C,Q41*%
X31030000Y-76855000D02*
X31030000Y-81595000D01*
X31030000Y-76855000D02*
X38130000Y-76855000D01*
X38130000Y-81595000D02*
X31030000Y-81595000D01*
X38130000Y-81595000D02*
X38130000Y-76855000D01*
%TO.C,Q47*%
X38710000Y-46290000D02*
X38710000Y-51030000D01*
X38710000Y-46290000D02*
X45810000Y-46290000D01*
X45810000Y-51030000D02*
X38710000Y-51030000D01*
X45810000Y-51030000D02*
X45810000Y-46290000D01*
%TO.C,Q1*%
X7990000Y-17715000D02*
X7990000Y-22455000D01*
X7990000Y-17715000D02*
X15090000Y-17715000D01*
X15090000Y-22455000D02*
X7990000Y-22455000D01*
X15090000Y-22455000D02*
X15090000Y-17715000D01*
%TO.C,Q61*%
X46390000Y-64790000D02*
X46390000Y-69530000D01*
X46390000Y-64790000D02*
X53490000Y-64790000D01*
X53490000Y-69530000D02*
X46390000Y-69530000D01*
X53490000Y-69530000D02*
X53490000Y-64790000D01*
%TO.C,Q89*%
X77110000Y-24785000D02*
X77110000Y-29525000D01*
X77110000Y-24785000D02*
X84210000Y-24785000D01*
X84210000Y-29525000D02*
X77110000Y-29525000D01*
X84210000Y-29525000D02*
X84210000Y-24785000D01*
%TO.C,Q6*%
X7990000Y-55815000D02*
X7990000Y-60555000D01*
X7990000Y-55815000D02*
X15090000Y-55815000D01*
X15090000Y-60555000D02*
X7990000Y-60555000D01*
X15090000Y-60555000D02*
X15090000Y-55815000D01*
%TO.C,Q23*%
X23350000Y-36130000D02*
X23350000Y-40870000D01*
X23350000Y-36130000D02*
X30450000Y-36130000D01*
X30450000Y-40870000D02*
X23350000Y-40870000D01*
X30450000Y-40870000D02*
X30450000Y-36130000D01*
%TO.C,Q9*%
X7990000Y-74230000D02*
X7990000Y-78970000D01*
X7990000Y-74230000D02*
X15090000Y-74230000D01*
X15090000Y-78970000D02*
X7990000Y-78970000D01*
X15090000Y-78970000D02*
X15090000Y-74230000D01*
%TO.C,Q71*%
X54070000Y-56450000D02*
X54070000Y-61190000D01*
X54070000Y-56450000D02*
X61170000Y-56450000D01*
X61170000Y-61190000D02*
X54070000Y-61190000D01*
X61170000Y-61190000D02*
X61170000Y-56450000D01*
%TO.C,Q10*%
X15670000Y-17800000D02*
X15670000Y-22540000D01*
X15670000Y-17800000D02*
X22770000Y-17800000D01*
X22770000Y-22540000D02*
X15670000Y-22540000D01*
X22770000Y-22540000D02*
X22770000Y-17800000D01*
%TO.C,Q50*%
X38710000Y-61530000D02*
X38710000Y-66270000D01*
X38710000Y-61530000D02*
X45810000Y-61530000D01*
X45810000Y-66270000D02*
X38710000Y-66270000D01*
X45810000Y-66270000D02*
X45810000Y-61530000D01*
%TO.C,Q7*%
X7990000Y-60895000D02*
X7990000Y-65635000D01*
X7990000Y-60895000D02*
X15090000Y-60895000D01*
X15090000Y-65635000D02*
X7990000Y-65635000D01*
X15090000Y-65635000D02*
X15090000Y-60895000D01*
%TO.C,Q13*%
X15670000Y-36215000D02*
X15670000Y-40955000D01*
X15670000Y-36215000D02*
X22770000Y-36215000D01*
X22770000Y-40955000D02*
X15670000Y-40955000D01*
X22770000Y-40955000D02*
X22770000Y-36215000D01*
%TO.C,Q84*%
X61750000Y-71775000D02*
X61750000Y-76515000D01*
X61750000Y-71775000D02*
X68850000Y-71775000D01*
X68850000Y-76515000D02*
X61750000Y-76515000D01*
X68850000Y-76515000D02*
X68850000Y-71775000D01*
%TO.C,Q32*%
X31030000Y-24785000D02*
X31030000Y-29525000D01*
X31030000Y-24785000D02*
X38130000Y-24785000D01*
X38130000Y-29525000D02*
X31030000Y-29525000D01*
X38130000Y-29525000D02*
X38130000Y-24785000D01*
%TO.C,Q20*%
X23350000Y-17715000D02*
X23350000Y-22455000D01*
X23350000Y-17715000D02*
X30450000Y-17715000D01*
X30450000Y-22455000D02*
X23350000Y-22455000D01*
X30450000Y-22455000D02*
X30450000Y-17715000D01*
%TO.C,R25*%
X53580000Y-43075000D02*
X61210000Y-43075000D01*
X61210000Y-46075000D01*
X53580000Y-46075000D01*
X53580000Y-43075000D01*
%TO.C,Q24*%
X23350000Y-41210000D02*
X23350000Y-45950000D01*
X23350000Y-41210000D02*
X30450000Y-41210000D01*
X30450000Y-45950000D02*
X23350000Y-45950000D01*
X30450000Y-45950000D02*
X30450000Y-41210000D01*
%TO.C,Q17*%
X15670000Y-62885000D02*
X15670000Y-67625000D01*
X15670000Y-62885000D02*
X22770000Y-62885000D01*
X22770000Y-67625000D02*
X15670000Y-67625000D01*
X22770000Y-67625000D02*
X22770000Y-62885000D01*
%TO.C,R23*%
X45900000Y-61490000D02*
X53530000Y-61490000D01*
X53530000Y-64490000D01*
X45900000Y-64490000D01*
X45900000Y-61490000D01*
%TO.C,R11*%
X15180000Y-67840000D02*
X22810000Y-67840000D01*
X22810000Y-70840000D01*
X15180000Y-70840000D01*
X15180000Y-67840000D01*
%TO.C,Q35*%
X31030000Y-40025000D02*
X31030000Y-44765000D01*
X31030000Y-40025000D02*
X38130000Y-40025000D01*
X38130000Y-44765000D02*
X31030000Y-44765000D01*
X38130000Y-44765000D02*
X38130000Y-40025000D01*
%TO.C,D1*%
X63090000Y-65650000D02*
X67510000Y-65650000D01*
X67510000Y-70490000D01*
X63090000Y-70490000D01*
X63090000Y-65650000D01*
%TO.C,Q43*%
X38710000Y-19620000D02*
X38710000Y-24360000D01*
X38710000Y-19620000D02*
X45810000Y-19620000D01*
X45810000Y-24360000D02*
X38710000Y-24360000D01*
X45810000Y-24360000D02*
X45810000Y-19620000D01*
%TO.C,J4*%
X69730000Y-93230000D02*
X78350000Y-93230000D01*
X78350000Y-96770000D01*
X69730000Y-96770000D01*
X69730000Y-93230000D01*
%TO.C,Q45*%
X38710000Y-36130000D02*
X38710000Y-40870000D01*
X38710000Y-36130000D02*
X45810000Y-36130000D01*
X45810000Y-40870000D02*
X38710000Y-40870000D01*
X45810000Y-40870000D02*
X45810000Y-36130000D01*
%TO.C,R14*%
X22860000Y-61490000D02*
X30490000Y-61490000D01*
X30490000Y-64490000D01*
X22860000Y-64490000D01*
X22860000Y-61490000D01*
%TO.C,Q54*%
X46390000Y-22880000D02*
X46390000Y-27620000D01*
X46390000Y-22880000D02*
X53490000Y-22880000D01*
X53490000Y-27620000D02*
X46390000Y-27620000D01*
X53490000Y-27620000D02*
X53490000Y-22880000D01*
%TO.C,R5*%
X7500000Y-47520000D02*
X15130000Y-47520000D01*
X15130000Y-50520000D01*
X7500000Y-50520000D01*
X7500000Y-47520000D01*
%TO.C,Q91*%
X77110000Y-55265000D02*
X77110000Y-60005000D01*
X77110000Y-55265000D02*
X84210000Y-55265000D01*
X84210000Y-60005000D02*
X77110000Y-60005000D01*
X84210000Y-60005000D02*
X84210000Y-55265000D01*
%TO.C,Q48*%
X38710000Y-51370000D02*
X38710000Y-56110000D01*
X38710000Y-51370000D02*
X45810000Y-51370000D01*
X45810000Y-56110000D02*
X38710000Y-56110000D01*
X45810000Y-56110000D02*
X45810000Y-51370000D01*
%TO.C,C2*%
X97750000Y-27000000D02*
G75*
G02*
X92250000Y-27000000I-2750000J0D01*
G01*
X92250000Y-27000000D02*
G75*
G02*
X97750000Y-27000000I2750000J0D01*
G01*
%TO.C,C1*%
X93500000Y-15000000D02*
X96500000Y-15000000D01*
X96500000Y-20500000D01*
X93500000Y-20500000D01*
X93500000Y-15000000D01*
%TO.C,R34*%
X76620000Y-29740000D02*
X84250000Y-29740000D01*
X84250000Y-32740000D01*
X76620000Y-32740000D01*
X76620000Y-29740000D01*
%TO.C,R6*%
X7500000Y-65935000D02*
X15130000Y-65935000D01*
X15130000Y-68935000D01*
X7500000Y-68935000D01*
X7500000Y-65935000D01*
%TO.C,Q57*%
X46390000Y-38120000D02*
X46390000Y-42860000D01*
X46390000Y-38120000D02*
X53490000Y-38120000D01*
X53490000Y-42860000D02*
X46390000Y-42860000D01*
X53490000Y-42860000D02*
X53490000Y-38120000D01*
%TO.C,Q40*%
X31030000Y-71775000D02*
X31030000Y-76515000D01*
X31030000Y-71775000D02*
X38130000Y-71775000D01*
X38130000Y-76515000D02*
X31030000Y-76515000D01*
X38130000Y-76515000D02*
X38130000Y-71775000D01*
%TO.C,Q15*%
X15670000Y-49550000D02*
X15670000Y-54290000D01*
X15670000Y-49550000D02*
X22770000Y-49550000D01*
X22770000Y-54290000D02*
X15670000Y-54290000D01*
X22770000Y-54290000D02*
X22770000Y-49550000D01*
%TO.C,Q52*%
X38710000Y-74865000D02*
X38710000Y-79605000D01*
X38710000Y-74865000D02*
X45810000Y-74865000D01*
X45810000Y-79605000D02*
X38710000Y-79605000D01*
X45810000Y-79605000D02*
X45810000Y-74865000D01*
%TO.C,Q65*%
X54070000Y-19620000D02*
X54070000Y-24360000D01*
X54070000Y-19620000D02*
X61170000Y-19620000D01*
X61170000Y-24360000D02*
X54070000Y-24360000D01*
X61170000Y-24360000D02*
X61170000Y-19620000D01*
%TO.C,R31*%
X68940000Y-44980000D02*
X76570000Y-44980000D01*
X76570000Y-47980000D01*
X68940000Y-47980000D01*
X68940000Y-44980000D01*
%TO.C,Q5*%
X7990000Y-50735000D02*
X7990000Y-55475000D01*
X7990000Y-50735000D02*
X15090000Y-50735000D01*
X15090000Y-55475000D02*
X7990000Y-55475000D01*
X15090000Y-55475000D02*
X15090000Y-50735000D01*
%TO.C,R20*%
X38220000Y-71650000D02*
X45850000Y-71650000D01*
X45850000Y-74650000D01*
X38220000Y-74650000D01*
X38220000Y-71650000D01*
%TO.C,Q67*%
X54070000Y-29780000D02*
X54070000Y-34520000D01*
X54070000Y-29780000D02*
X61170000Y-29780000D01*
X61170000Y-34520000D02*
X54070000Y-34520000D01*
X61170000Y-34520000D02*
X61170000Y-29780000D01*
%TO.C,R18*%
X38220000Y-24660000D02*
X45850000Y-24660000D01*
X45850000Y-27660000D01*
X38220000Y-27660000D01*
X38220000Y-24660000D01*
%TO.C,Q31*%
X31030000Y-19705000D02*
X31030000Y-24445000D01*
X31030000Y-19705000D02*
X38130000Y-19705000D01*
X38130000Y-24445000D02*
X31030000Y-24445000D01*
X38130000Y-24445000D02*
X38130000Y-19705000D01*
%TO.C,Q68*%
X54070000Y-38035000D02*
X54070000Y-42775000D01*
X54070000Y-38035000D02*
X61170000Y-38035000D01*
X61170000Y-42775000D02*
X54070000Y-42775000D01*
X61170000Y-42775000D02*
X61170000Y-38035000D01*
%TO.C,Q14*%
X15670000Y-44470000D02*
X15670000Y-49210000D01*
X15670000Y-44470000D02*
X22770000Y-44470000D01*
X22770000Y-49210000D02*
X15670000Y-49210000D01*
X22770000Y-49210000D02*
X22770000Y-44470000D01*
%TO.C,Q80*%
X61750000Y-41295000D02*
X61750000Y-46035000D01*
X61750000Y-41295000D02*
X68850000Y-41295000D01*
X68850000Y-46035000D02*
X61750000Y-46035000D01*
X68850000Y-46035000D02*
X68850000Y-41295000D01*
%TD*%
M02*
