%TF.GenerationSoftware,KiCad,Pcbnew,10.0.5*%
%TF.CreationDate,2026-10-01T12:36:38-04:00*%
%TF.ProjectId,memslot,6d656d73-6c6f-4742-9e6b-696361645f70,rev?*%
%TF.SameCoordinates,Original*%
%TF.FileFunction,Legend,Top*%
%TF.FilePolarity,Positive*%
%FSLAX46Y46*%
G04 Gerber Fmt 4.6, Leading zero omitted, Abs format (unit mm)*
G04 Created by KiCad (PCBNEW 10.0.5) date 2026-10-01 12:36:38*
%MOMM*%
%LPD*%
G01*
G04 APERTURE LIST*
%ADD10C,0.150000*%
%ADD11C,0.250000*%
%ADD12C,0.120000*%
%ADD13C,0.000000*%
G04 APERTURE END LIST*
D10*
X8590588Y-5414819D02*
X8019160Y-5414819D01*
X8304874Y-5414819D02*
X8304874Y-4414819D01*
X8304874Y-4414819D02*
X8209636Y-4557676D01*
X8209636Y-4557676D02*
X8114398Y-4652914D01*
X8114398Y-4652914D02*
X8019160Y-4700533D01*
X8019160Y-7050057D02*
X8066779Y-7002438D01*
X8066779Y-7002438D02*
X8162017Y-6954819D01*
X8162017Y-6954819D02*
X8400112Y-6954819D01*
X8400112Y-6954819D02*
X8495350Y-7002438D01*
X8495350Y-7002438D02*
X8542969Y-7050057D01*
X8542969Y-7050057D02*
X8590588Y-7145295D01*
X8590588Y-7145295D02*
X8590588Y-7240533D01*
X8590588Y-7240533D02*
X8542969Y-7383390D01*
X8542969Y-7383390D02*
X7971541Y-7954819D01*
X7971541Y-7954819D02*
X8590588Y-7954819D01*
X35812969Y-87854819D02*
X35336779Y-87854819D01*
X35336779Y-87854819D02*
X35336779Y-86854819D01*
X36146303Y-87854819D02*
X36146303Y-86854819D01*
X36622493Y-87854819D02*
X36622493Y-86854819D01*
X36622493Y-86854819D02*
X37193921Y-87854819D01*
X37193921Y-87854819D02*
X37193921Y-86854819D01*
X37670112Y-87854819D02*
X37670112Y-86854819D01*
X38241540Y-87854819D02*
X37812969Y-87283390D01*
X38241540Y-86854819D02*
X37670112Y-87426247D01*
X62027255Y-97654819D02*
X62122493Y-97654819D01*
X62122493Y-97654819D02*
X62217731Y-97702438D01*
X62217731Y-97702438D02*
X62265350Y-97750057D01*
X62265350Y-97750057D02*
X62312969Y-97845295D01*
X62312969Y-97845295D02*
X62360588Y-98035771D01*
X62360588Y-98035771D02*
X62360588Y-98273866D01*
X62360588Y-98273866D02*
X62312969Y-98464342D01*
X62312969Y-98464342D02*
X62265350Y-98559580D01*
X62265350Y-98559580D02*
X62217731Y-98607200D01*
X62217731Y-98607200D02*
X62122493Y-98654819D01*
X62122493Y-98654819D02*
X62027255Y-98654819D01*
X62027255Y-98654819D02*
X61932017Y-98607200D01*
X61932017Y-98607200D02*
X61884398Y-98559580D01*
X61884398Y-98559580D02*
X61836779Y-98464342D01*
X61836779Y-98464342D02*
X61789160Y-98273866D01*
X61789160Y-98273866D02*
X61789160Y-98035771D01*
X61789160Y-98035771D02*
X61836779Y-97845295D01*
X61836779Y-97845295D02*
X61884398Y-97750057D01*
X61884398Y-97750057D02*
X61932017Y-97702438D01*
X61932017Y-97702438D02*
X62027255Y-97654819D01*
X62889160Y-90969104D02*
X63365350Y-90969104D01*
X62793922Y-91254819D02*
X63127255Y-90254819D01*
X63127255Y-90254819D02*
X63460588Y-91254819D01*
X63698684Y-90254819D02*
X64317731Y-90254819D01*
X64317731Y-90254819D02*
X63984398Y-90635771D01*
X63984398Y-90635771D02*
X64127255Y-90635771D01*
X64127255Y-90635771D02*
X64222493Y-90683390D01*
X64222493Y-90683390D02*
X64270112Y-90731009D01*
X64270112Y-90731009D02*
X64317731Y-90826247D01*
X64317731Y-90826247D02*
X64317731Y-91064342D01*
X64317731Y-91064342D02*
X64270112Y-91159580D01*
X64270112Y-91159580D02*
X64222493Y-91207200D01*
X64222493Y-91207200D02*
X64127255Y-91254819D01*
X64127255Y-91254819D02*
X63841541Y-91254819D01*
X63841541Y-91254819D02*
X63746303Y-91207200D01*
X63746303Y-91207200D02*
X63698684Y-91159580D01*
X67460588Y-98654819D02*
X66889160Y-98654819D01*
X67174874Y-98654819D02*
X67174874Y-97654819D01*
X67174874Y-97654819D02*
X67079636Y-97797676D01*
X67079636Y-97797676D02*
X66984398Y-97892914D01*
X66984398Y-97892914D02*
X66889160Y-97940533D01*
X67836779Y-69144819D02*
X67836779Y-68144819D01*
X67836779Y-68144819D02*
X68170112Y-68859104D01*
X68170112Y-68859104D02*
X68503445Y-68144819D01*
X68503445Y-68144819D02*
X68503445Y-69144819D01*
X68979636Y-68621009D02*
X69312969Y-68621009D01*
X69455826Y-69144819D02*
X68979636Y-69144819D01*
X68979636Y-69144819D02*
X68979636Y-68144819D01*
X68979636Y-68144819D02*
X69455826Y-68144819D01*
X69789160Y-68144819D02*
X70408207Y-68144819D01*
X70408207Y-68144819D02*
X70074874Y-68525771D01*
X70074874Y-68525771D02*
X70217731Y-68525771D01*
X70217731Y-68525771D02*
X70312969Y-68573390D01*
X70312969Y-68573390D02*
X70360588Y-68621009D01*
X70360588Y-68621009D02*
X70408207Y-68716247D01*
X70408207Y-68716247D02*
X70408207Y-68954342D01*
X70408207Y-68954342D02*
X70360588Y-69049580D01*
X70360588Y-69049580D02*
X70312969Y-69097200D01*
X70312969Y-69097200D02*
X70217731Y-69144819D01*
X70217731Y-69144819D02*
X69932017Y-69144819D01*
X69932017Y-69144819D02*
X69836779Y-69097200D01*
X69836779Y-69097200D02*
X69789160Y-69049580D01*
X71527255Y-97654819D02*
X71622493Y-97654819D01*
X71622493Y-97654819D02*
X71717731Y-97702438D01*
X71717731Y-97702438D02*
X71765350Y-97750057D01*
X71765350Y-97750057D02*
X71812969Y-97845295D01*
X71812969Y-97845295D02*
X71860588Y-98035771D01*
X71860588Y-98035771D02*
X71860588Y-98273866D01*
X71860588Y-98273866D02*
X71812969Y-98464342D01*
X71812969Y-98464342D02*
X71765350Y-98559580D01*
X71765350Y-98559580D02*
X71717731Y-98607200D01*
X71717731Y-98607200D02*
X71622493Y-98654819D01*
X71622493Y-98654819D02*
X71527255Y-98654819D01*
X71527255Y-98654819D02*
X71432017Y-98607200D01*
X71432017Y-98607200D02*
X71384398Y-98559580D01*
X71384398Y-98559580D02*
X71336779Y-98464342D01*
X71336779Y-98464342D02*
X71289160Y-98273866D01*
X71289160Y-98273866D02*
X71289160Y-98035771D01*
X71289160Y-98035771D02*
X71336779Y-97845295D01*
X71336779Y-97845295D02*
X71384398Y-97750057D01*
X71384398Y-97750057D02*
X71432017Y-97702438D01*
X71432017Y-97702438D02*
X71527255Y-97654819D01*
X72389160Y-90969104D02*
X72865350Y-90969104D01*
X72293922Y-91254819D02*
X72627255Y-90254819D01*
X72627255Y-90254819D02*
X72960588Y-91254819D01*
X73246303Y-90350057D02*
X73293922Y-90302438D01*
X73293922Y-90302438D02*
X73389160Y-90254819D01*
X73389160Y-90254819D02*
X73627255Y-90254819D01*
X73627255Y-90254819D02*
X73722493Y-90302438D01*
X73722493Y-90302438D02*
X73770112Y-90350057D01*
X73770112Y-90350057D02*
X73817731Y-90445295D01*
X73817731Y-90445295D02*
X73817731Y-90540533D01*
X73817731Y-90540533D02*
X73770112Y-90683390D01*
X73770112Y-90683390D02*
X73198684Y-91254819D01*
X73198684Y-91254819D02*
X73817731Y-91254819D01*
X75516779Y-22154819D02*
X75516779Y-21154819D01*
X75516779Y-21154819D02*
X75850112Y-21869104D01*
X75850112Y-21869104D02*
X76183445Y-21154819D01*
X76183445Y-21154819D02*
X76183445Y-22154819D01*
X76659636Y-21631009D02*
X76992969Y-21631009D01*
X77135826Y-22154819D02*
X76659636Y-22154819D01*
X76659636Y-22154819D02*
X76659636Y-21154819D01*
X76659636Y-21154819D02*
X77135826Y-21154819D01*
X77516779Y-21250057D02*
X77564398Y-21202438D01*
X77564398Y-21202438D02*
X77659636Y-21154819D01*
X77659636Y-21154819D02*
X77897731Y-21154819D01*
X77897731Y-21154819D02*
X77992969Y-21202438D01*
X77992969Y-21202438D02*
X78040588Y-21250057D01*
X78040588Y-21250057D02*
X78088207Y-21345295D01*
X78088207Y-21345295D02*
X78088207Y-21440533D01*
X78088207Y-21440533D02*
X78040588Y-21583390D01*
X78040588Y-21583390D02*
X77469160Y-22154819D01*
X77469160Y-22154819D02*
X78088207Y-22154819D01*
X75516779Y-37394819D02*
X75516779Y-36394819D01*
X75516779Y-36394819D02*
X75850112Y-37109104D01*
X75850112Y-37109104D02*
X76183445Y-36394819D01*
X76183445Y-36394819D02*
X76183445Y-37394819D01*
X76659636Y-36871009D02*
X76992969Y-36871009D01*
X77135826Y-37394819D02*
X76659636Y-37394819D01*
X76659636Y-37394819D02*
X76659636Y-36394819D01*
X76659636Y-36394819D02*
X77135826Y-36394819D01*
X78088207Y-37394819D02*
X77516779Y-37394819D01*
X77802493Y-37394819D02*
X77802493Y-36394819D01*
X77802493Y-36394819D02*
X77707255Y-36537676D01*
X77707255Y-36537676D02*
X77612017Y-36632914D01*
X77612017Y-36632914D02*
X77516779Y-36680533D01*
X75516779Y-52634819D02*
X75516779Y-51634819D01*
X75516779Y-51634819D02*
X75850112Y-52349104D01*
X75850112Y-52349104D02*
X76183445Y-51634819D01*
X76183445Y-51634819D02*
X76183445Y-52634819D01*
X76659636Y-52111009D02*
X76992969Y-52111009D01*
X77135826Y-52634819D02*
X76659636Y-52634819D01*
X76659636Y-52634819D02*
X76659636Y-51634819D01*
X76659636Y-51634819D02*
X77135826Y-51634819D01*
X77754874Y-51634819D02*
X77850112Y-51634819D01*
X77850112Y-51634819D02*
X77945350Y-51682438D01*
X77945350Y-51682438D02*
X77992969Y-51730057D01*
X77992969Y-51730057D02*
X78040588Y-51825295D01*
X78040588Y-51825295D02*
X78088207Y-52015771D01*
X78088207Y-52015771D02*
X78088207Y-52253866D01*
X78088207Y-52253866D02*
X78040588Y-52444342D01*
X78040588Y-52444342D02*
X77992969Y-52539580D01*
X77992969Y-52539580D02*
X77945350Y-52587200D01*
X77945350Y-52587200D02*
X77850112Y-52634819D01*
X77850112Y-52634819D02*
X77754874Y-52634819D01*
X77754874Y-52634819D02*
X77659636Y-52587200D01*
X77659636Y-52587200D02*
X77612017Y-52539580D01*
X77612017Y-52539580D02*
X77564398Y-52444342D01*
X77564398Y-52444342D02*
X77516779Y-52253866D01*
X77516779Y-52253866D02*
X77516779Y-52015771D01*
X77516779Y-52015771D02*
X77564398Y-51825295D01*
X77564398Y-51825295D02*
X77612017Y-51730057D01*
X77612017Y-51730057D02*
X77659636Y-51682438D01*
X77659636Y-51682438D02*
X77754874Y-51634819D01*
X75716779Y-67874819D02*
X75716779Y-66874819D01*
X75716779Y-66874819D02*
X76050112Y-67589104D01*
X76050112Y-67589104D02*
X76383445Y-66874819D01*
X76383445Y-66874819D02*
X76383445Y-67874819D01*
X77050112Y-66874819D02*
X77240588Y-66874819D01*
X77240588Y-66874819D02*
X77335826Y-66922438D01*
X77335826Y-66922438D02*
X77431064Y-67017676D01*
X77431064Y-67017676D02*
X77478683Y-67208152D01*
X77478683Y-67208152D02*
X77478683Y-67541485D01*
X77478683Y-67541485D02*
X77431064Y-67731961D01*
X77431064Y-67731961D02*
X77335826Y-67827200D01*
X77335826Y-67827200D02*
X77240588Y-67874819D01*
X77240588Y-67874819D02*
X77050112Y-67874819D01*
X77050112Y-67874819D02*
X76954874Y-67827200D01*
X76954874Y-67827200D02*
X76859636Y-67731961D01*
X76859636Y-67731961D02*
X76812017Y-67541485D01*
X76812017Y-67541485D02*
X76812017Y-67208152D01*
X76812017Y-67208152D02*
X76859636Y-67017676D01*
X76859636Y-67017676D02*
X76954874Y-66922438D01*
X76954874Y-66922438D02*
X77050112Y-66874819D01*
X77812017Y-66874819D02*
X78431064Y-66874819D01*
X78431064Y-66874819D02*
X78097731Y-67255771D01*
X78097731Y-67255771D02*
X78240588Y-67255771D01*
X78240588Y-67255771D02*
X78335826Y-67303390D01*
X78335826Y-67303390D02*
X78383445Y-67351009D01*
X78383445Y-67351009D02*
X78431064Y-67446247D01*
X78431064Y-67446247D02*
X78431064Y-67684342D01*
X78431064Y-67684342D02*
X78383445Y-67779580D01*
X78383445Y-67779580D02*
X78335826Y-67827200D01*
X78335826Y-67827200D02*
X78240588Y-67874819D01*
X78240588Y-67874819D02*
X77954874Y-67874819D01*
X77954874Y-67874819D02*
X77859636Y-67827200D01*
X77859636Y-67827200D02*
X77812017Y-67779580D01*
X76960588Y-98654819D02*
X76389160Y-98654819D01*
X76674874Y-98654819D02*
X76674874Y-97654819D01*
X76674874Y-97654819D02*
X76579636Y-97797676D01*
X76579636Y-97797676D02*
X76484398Y-97892914D01*
X76484398Y-97892914D02*
X76389160Y-97940533D01*
X81027255Y-97654819D02*
X81122493Y-97654819D01*
X81122493Y-97654819D02*
X81217731Y-97702438D01*
X81217731Y-97702438D02*
X81265350Y-97750057D01*
X81265350Y-97750057D02*
X81312969Y-97845295D01*
X81312969Y-97845295D02*
X81360588Y-98035771D01*
X81360588Y-98035771D02*
X81360588Y-98273866D01*
X81360588Y-98273866D02*
X81312969Y-98464342D01*
X81312969Y-98464342D02*
X81265350Y-98559580D01*
X81265350Y-98559580D02*
X81217731Y-98607200D01*
X81217731Y-98607200D02*
X81122493Y-98654819D01*
X81122493Y-98654819D02*
X81027255Y-98654819D01*
X81027255Y-98654819D02*
X80932017Y-98607200D01*
X80932017Y-98607200D02*
X80884398Y-98559580D01*
X80884398Y-98559580D02*
X80836779Y-98464342D01*
X80836779Y-98464342D02*
X80789160Y-98273866D01*
X80789160Y-98273866D02*
X80789160Y-98035771D01*
X80789160Y-98035771D02*
X80836779Y-97845295D01*
X80836779Y-97845295D02*
X80884398Y-97750057D01*
X80884398Y-97750057D02*
X80932017Y-97702438D01*
X80932017Y-97702438D02*
X81027255Y-97654819D01*
X81889160Y-90969104D02*
X82365350Y-90969104D01*
X81793922Y-91254819D02*
X82127255Y-90254819D01*
X82127255Y-90254819D02*
X82460588Y-91254819D01*
X83317731Y-91254819D02*
X82746303Y-91254819D01*
X83032017Y-91254819D02*
X83032017Y-90254819D01*
X83032017Y-90254819D02*
X82936779Y-90397676D01*
X82936779Y-90397676D02*
X82841541Y-90492914D01*
X82841541Y-90492914D02*
X82746303Y-90540533D01*
X83396779Y-22154819D02*
X83396779Y-21154819D01*
X83396779Y-21154819D02*
X83730112Y-21869104D01*
X83730112Y-21869104D02*
X84063445Y-21154819D01*
X84063445Y-21154819D02*
X84063445Y-22154819D01*
X84730112Y-21154819D02*
X84920588Y-21154819D01*
X84920588Y-21154819D02*
X85015826Y-21202438D01*
X85015826Y-21202438D02*
X85111064Y-21297676D01*
X85111064Y-21297676D02*
X85158683Y-21488152D01*
X85158683Y-21488152D02*
X85158683Y-21821485D01*
X85158683Y-21821485D02*
X85111064Y-22011961D01*
X85111064Y-22011961D02*
X85015826Y-22107200D01*
X85015826Y-22107200D02*
X84920588Y-22154819D01*
X84920588Y-22154819D02*
X84730112Y-22154819D01*
X84730112Y-22154819D02*
X84634874Y-22107200D01*
X84634874Y-22107200D02*
X84539636Y-22011961D01*
X84539636Y-22011961D02*
X84492017Y-21821485D01*
X84492017Y-21821485D02*
X84492017Y-21488152D01*
X84492017Y-21488152D02*
X84539636Y-21297676D01*
X84539636Y-21297676D02*
X84634874Y-21202438D01*
X84634874Y-21202438D02*
X84730112Y-21154819D01*
X85539636Y-21250057D02*
X85587255Y-21202438D01*
X85587255Y-21202438D02*
X85682493Y-21154819D01*
X85682493Y-21154819D02*
X85920588Y-21154819D01*
X85920588Y-21154819D02*
X86015826Y-21202438D01*
X86015826Y-21202438D02*
X86063445Y-21250057D01*
X86063445Y-21250057D02*
X86111064Y-21345295D01*
X86111064Y-21345295D02*
X86111064Y-21440533D01*
X86111064Y-21440533D02*
X86063445Y-21583390D01*
X86063445Y-21583390D02*
X85492017Y-22154819D01*
X85492017Y-22154819D02*
X86111064Y-22154819D01*
X83396779Y-37394819D02*
X83396779Y-36394819D01*
X83396779Y-36394819D02*
X83730112Y-37109104D01*
X83730112Y-37109104D02*
X84063445Y-36394819D01*
X84063445Y-36394819D02*
X84063445Y-37394819D01*
X84730112Y-36394819D02*
X84920588Y-36394819D01*
X84920588Y-36394819D02*
X85015826Y-36442438D01*
X85015826Y-36442438D02*
X85111064Y-36537676D01*
X85111064Y-36537676D02*
X85158683Y-36728152D01*
X85158683Y-36728152D02*
X85158683Y-37061485D01*
X85158683Y-37061485D02*
X85111064Y-37251961D01*
X85111064Y-37251961D02*
X85015826Y-37347200D01*
X85015826Y-37347200D02*
X84920588Y-37394819D01*
X84920588Y-37394819D02*
X84730112Y-37394819D01*
X84730112Y-37394819D02*
X84634874Y-37347200D01*
X84634874Y-37347200D02*
X84539636Y-37251961D01*
X84539636Y-37251961D02*
X84492017Y-37061485D01*
X84492017Y-37061485D02*
X84492017Y-36728152D01*
X84492017Y-36728152D02*
X84539636Y-36537676D01*
X84539636Y-36537676D02*
X84634874Y-36442438D01*
X84634874Y-36442438D02*
X84730112Y-36394819D01*
X86111064Y-37394819D02*
X85539636Y-37394819D01*
X85825350Y-37394819D02*
X85825350Y-36394819D01*
X85825350Y-36394819D02*
X85730112Y-36537676D01*
X85730112Y-36537676D02*
X85634874Y-36632914D01*
X85634874Y-36632914D02*
X85539636Y-36680533D01*
X83396779Y-52634819D02*
X83396779Y-51634819D01*
X83396779Y-51634819D02*
X83730112Y-52349104D01*
X83730112Y-52349104D02*
X84063445Y-51634819D01*
X84063445Y-51634819D02*
X84063445Y-52634819D01*
X84730112Y-51634819D02*
X84920588Y-51634819D01*
X84920588Y-51634819D02*
X85015826Y-51682438D01*
X85015826Y-51682438D02*
X85111064Y-51777676D01*
X85111064Y-51777676D02*
X85158683Y-51968152D01*
X85158683Y-51968152D02*
X85158683Y-52301485D01*
X85158683Y-52301485D02*
X85111064Y-52491961D01*
X85111064Y-52491961D02*
X85015826Y-52587200D01*
X85015826Y-52587200D02*
X84920588Y-52634819D01*
X84920588Y-52634819D02*
X84730112Y-52634819D01*
X84730112Y-52634819D02*
X84634874Y-52587200D01*
X84634874Y-52587200D02*
X84539636Y-52491961D01*
X84539636Y-52491961D02*
X84492017Y-52301485D01*
X84492017Y-52301485D02*
X84492017Y-51968152D01*
X84492017Y-51968152D02*
X84539636Y-51777676D01*
X84539636Y-51777676D02*
X84634874Y-51682438D01*
X84634874Y-51682438D02*
X84730112Y-51634819D01*
X85777731Y-51634819D02*
X85872969Y-51634819D01*
X85872969Y-51634819D02*
X85968207Y-51682438D01*
X85968207Y-51682438D02*
X86015826Y-51730057D01*
X86015826Y-51730057D02*
X86063445Y-51825295D01*
X86063445Y-51825295D02*
X86111064Y-52015771D01*
X86111064Y-52015771D02*
X86111064Y-52253866D01*
X86111064Y-52253866D02*
X86063445Y-52444342D01*
X86063445Y-52444342D02*
X86015826Y-52539580D01*
X86015826Y-52539580D02*
X85968207Y-52587200D01*
X85968207Y-52587200D02*
X85872969Y-52634819D01*
X85872969Y-52634819D02*
X85777731Y-52634819D01*
X85777731Y-52634819D02*
X85682493Y-52587200D01*
X85682493Y-52587200D02*
X85634874Y-52539580D01*
X85634874Y-52539580D02*
X85587255Y-52444342D01*
X85587255Y-52444342D02*
X85539636Y-52253866D01*
X85539636Y-52253866D02*
X85539636Y-52015771D01*
X85539636Y-52015771D02*
X85587255Y-51825295D01*
X85587255Y-51825295D02*
X85634874Y-51730057D01*
X85634874Y-51730057D02*
X85682493Y-51682438D01*
X85682493Y-51682438D02*
X85777731Y-51634819D01*
X86460588Y-98654819D02*
X85889160Y-98654819D01*
X86174874Y-98654819D02*
X86174874Y-97654819D01*
X86174874Y-97654819D02*
X86079636Y-97797676D01*
X86079636Y-97797676D02*
X85984398Y-97892914D01*
X85984398Y-97892914D02*
X85889160Y-97940533D01*
X91635350Y-4414819D02*
X91444874Y-4414819D01*
X91444874Y-4414819D02*
X91349636Y-4462438D01*
X91349636Y-4462438D02*
X91302017Y-4510057D01*
X91302017Y-4510057D02*
X91206779Y-4652914D01*
X91206779Y-4652914D02*
X91159160Y-4843390D01*
X91159160Y-4843390D02*
X91159160Y-5224342D01*
X91159160Y-5224342D02*
X91206779Y-5319580D01*
X91206779Y-5319580D02*
X91254398Y-5367200D01*
X91254398Y-5367200D02*
X91349636Y-5414819D01*
X91349636Y-5414819D02*
X91540112Y-5414819D01*
X91540112Y-5414819D02*
X91635350Y-5367200D01*
X91635350Y-5367200D02*
X91682969Y-5319580D01*
X91682969Y-5319580D02*
X91730588Y-5224342D01*
X91730588Y-5224342D02*
X91730588Y-4986247D01*
X91730588Y-4986247D02*
X91682969Y-4891009D01*
X91682969Y-4891009D02*
X91635350Y-4843390D01*
X91635350Y-4843390D02*
X91540112Y-4795771D01*
X91540112Y-4795771D02*
X91349636Y-4795771D01*
X91349636Y-4795771D02*
X91254398Y-4843390D01*
X91254398Y-4843390D02*
X91206779Y-4891009D01*
X91206779Y-4891009D02*
X91159160Y-4986247D01*
X92063922Y-4414819D02*
X92682969Y-4414819D01*
X92682969Y-4414819D02*
X92349636Y-4795771D01*
X92349636Y-4795771D02*
X92492493Y-4795771D01*
X92492493Y-4795771D02*
X92587731Y-4843390D01*
X92587731Y-4843390D02*
X92635350Y-4891009D01*
X92635350Y-4891009D02*
X92682969Y-4986247D01*
X92682969Y-4986247D02*
X92682969Y-5224342D01*
X92682969Y-5224342D02*
X92635350Y-5319580D01*
X92635350Y-5319580D02*
X92587731Y-5367200D01*
X92587731Y-5367200D02*
X92492493Y-5414819D01*
X92492493Y-5414819D02*
X92206779Y-5414819D01*
X92206779Y-5414819D02*
X92111541Y-5367200D01*
X92111541Y-5367200D02*
X92063922Y-5319580D01*
X91635350Y-6954819D02*
X91444874Y-6954819D01*
X91444874Y-6954819D02*
X91349636Y-7002438D01*
X91349636Y-7002438D02*
X91302017Y-7050057D01*
X91302017Y-7050057D02*
X91206779Y-7192914D01*
X91206779Y-7192914D02*
X91159160Y-7383390D01*
X91159160Y-7383390D02*
X91159160Y-7764342D01*
X91159160Y-7764342D02*
X91206779Y-7859580D01*
X91206779Y-7859580D02*
X91254398Y-7907200D01*
X91254398Y-7907200D02*
X91349636Y-7954819D01*
X91349636Y-7954819D02*
X91540112Y-7954819D01*
X91540112Y-7954819D02*
X91635350Y-7907200D01*
X91635350Y-7907200D02*
X91682969Y-7859580D01*
X91682969Y-7859580D02*
X91730588Y-7764342D01*
X91730588Y-7764342D02*
X91730588Y-7526247D01*
X91730588Y-7526247D02*
X91682969Y-7431009D01*
X91682969Y-7431009D02*
X91635350Y-7383390D01*
X91635350Y-7383390D02*
X91540112Y-7335771D01*
X91540112Y-7335771D02*
X91349636Y-7335771D01*
X91349636Y-7335771D02*
X91254398Y-7383390D01*
X91254398Y-7383390D02*
X91206779Y-7431009D01*
X91206779Y-7431009D02*
X91159160Y-7526247D01*
X92587731Y-7288152D02*
X92587731Y-7954819D01*
X92349636Y-6907200D02*
X92111541Y-7621485D01*
X92111541Y-7621485D02*
X92730588Y-7621485D01*
D11*
X44521615Y-88180928D02*
X44521615Y-86680928D01*
X44521615Y-86680928D02*
X45378758Y-88180928D01*
X45378758Y-88180928D02*
X45378758Y-86680928D01*
X46093044Y-88180928D02*
X46093044Y-86680928D01*
X47307330Y-87395214D02*
X47521616Y-87466642D01*
X47521616Y-87466642D02*
X47593045Y-87538071D01*
X47593045Y-87538071D02*
X47664473Y-87680928D01*
X47664473Y-87680928D02*
X47664473Y-87895214D01*
X47664473Y-87895214D02*
X47593045Y-88038071D01*
X47593045Y-88038071D02*
X47521616Y-88109500D01*
X47521616Y-88109500D02*
X47378759Y-88180928D01*
X47378759Y-88180928D02*
X46807330Y-88180928D01*
X46807330Y-88180928D02*
X46807330Y-86680928D01*
X46807330Y-86680928D02*
X47307330Y-86680928D01*
X47307330Y-86680928D02*
X47450188Y-86752357D01*
X47450188Y-86752357D02*
X47521616Y-86823785D01*
X47521616Y-86823785D02*
X47593045Y-86966642D01*
X47593045Y-86966642D02*
X47593045Y-87109500D01*
X47593045Y-87109500D02*
X47521616Y-87252357D01*
X47521616Y-87252357D02*
X47450188Y-87323785D01*
X47450188Y-87323785D02*
X47307330Y-87395214D01*
X47307330Y-87395214D02*
X46807330Y-87395214D01*
X48807330Y-87395214D02*
X49021616Y-87466642D01*
X49021616Y-87466642D02*
X49093045Y-87538071D01*
X49093045Y-87538071D02*
X49164473Y-87680928D01*
X49164473Y-87680928D02*
X49164473Y-87895214D01*
X49164473Y-87895214D02*
X49093045Y-88038071D01*
X49093045Y-88038071D02*
X49021616Y-88109500D01*
X49021616Y-88109500D02*
X48878759Y-88180928D01*
X48878759Y-88180928D02*
X48307330Y-88180928D01*
X48307330Y-88180928D02*
X48307330Y-86680928D01*
X48307330Y-86680928D02*
X48807330Y-86680928D01*
X48807330Y-86680928D02*
X48950188Y-86752357D01*
X48950188Y-86752357D02*
X49021616Y-86823785D01*
X49021616Y-86823785D02*
X49093045Y-86966642D01*
X49093045Y-86966642D02*
X49093045Y-87109500D01*
X49093045Y-87109500D02*
X49021616Y-87252357D01*
X49021616Y-87252357D02*
X48950188Y-87323785D01*
X48950188Y-87323785D02*
X48807330Y-87395214D01*
X48807330Y-87395214D02*
X48307330Y-87395214D01*
X50521616Y-88180928D02*
X49807330Y-88180928D01*
X49807330Y-88180928D02*
X49807330Y-86680928D01*
X51021616Y-87395214D02*
X51521616Y-87395214D01*
X51735902Y-88180928D02*
X51021616Y-88180928D01*
X51021616Y-88180928D02*
X51021616Y-86680928D01*
X51021616Y-86680928D02*
X51735902Y-86680928D01*
X54664473Y-88180928D02*
X54664473Y-86680928D01*
X54664473Y-86680928D02*
X55164473Y-87752357D01*
X55164473Y-87752357D02*
X55664473Y-86680928D01*
X55664473Y-86680928D02*
X55664473Y-88180928D01*
X56378759Y-87395214D02*
X56878759Y-87395214D01*
X57093045Y-88180928D02*
X56378759Y-88180928D01*
X56378759Y-88180928D02*
X56378759Y-86680928D01*
X56378759Y-86680928D02*
X57093045Y-86680928D01*
X57735902Y-88180928D02*
X57735902Y-86680928D01*
X57735902Y-86680928D02*
X58235902Y-87752357D01*
X58235902Y-87752357D02*
X58735902Y-86680928D01*
X58735902Y-86680928D02*
X58735902Y-88180928D01*
X59735903Y-86680928D02*
X60021617Y-86680928D01*
X60021617Y-86680928D02*
X60164474Y-86752357D01*
X60164474Y-86752357D02*
X60307331Y-86895214D01*
X60307331Y-86895214D02*
X60378760Y-87180928D01*
X60378760Y-87180928D02*
X60378760Y-87680928D01*
X60378760Y-87680928D02*
X60307331Y-87966642D01*
X60307331Y-87966642D02*
X60164474Y-88109500D01*
X60164474Y-88109500D02*
X60021617Y-88180928D01*
X60021617Y-88180928D02*
X59735903Y-88180928D01*
X59735903Y-88180928D02*
X59593046Y-88109500D01*
X59593046Y-88109500D02*
X59450188Y-87966642D01*
X59450188Y-87966642D02*
X59378760Y-87680928D01*
X59378760Y-87680928D02*
X59378760Y-87180928D01*
X59378760Y-87180928D02*
X59450188Y-86895214D01*
X59450188Y-86895214D02*
X59593046Y-86752357D01*
X59593046Y-86752357D02*
X59735903Y-86680928D01*
X61878760Y-88180928D02*
X61378760Y-87466642D01*
X61021617Y-88180928D02*
X61021617Y-86680928D01*
X61021617Y-86680928D02*
X61593046Y-86680928D01*
X61593046Y-86680928D02*
X61735903Y-86752357D01*
X61735903Y-86752357D02*
X61807332Y-86823785D01*
X61807332Y-86823785D02*
X61878760Y-86966642D01*
X61878760Y-86966642D02*
X61878760Y-87180928D01*
X61878760Y-87180928D02*
X61807332Y-87323785D01*
X61807332Y-87323785D02*
X61735903Y-87395214D01*
X61735903Y-87395214D02*
X61593046Y-87466642D01*
X61593046Y-87466642D02*
X61021617Y-87466642D01*
X62807332Y-87466642D02*
X62807332Y-88180928D01*
X62307332Y-86680928D02*
X62807332Y-87466642D01*
X62807332Y-87466642D02*
X63307332Y-86680928D01*
X64878760Y-88109500D02*
X65093046Y-88180928D01*
X65093046Y-88180928D02*
X65450188Y-88180928D01*
X65450188Y-88180928D02*
X65593046Y-88109500D01*
X65593046Y-88109500D02*
X65664474Y-88038071D01*
X65664474Y-88038071D02*
X65735903Y-87895214D01*
X65735903Y-87895214D02*
X65735903Y-87752357D01*
X65735903Y-87752357D02*
X65664474Y-87609500D01*
X65664474Y-87609500D02*
X65593046Y-87538071D01*
X65593046Y-87538071D02*
X65450188Y-87466642D01*
X65450188Y-87466642D02*
X65164474Y-87395214D01*
X65164474Y-87395214D02*
X65021617Y-87323785D01*
X65021617Y-87323785D02*
X64950188Y-87252357D01*
X64950188Y-87252357D02*
X64878760Y-87109500D01*
X64878760Y-87109500D02*
X64878760Y-86966642D01*
X64878760Y-86966642D02*
X64950188Y-86823785D01*
X64950188Y-86823785D02*
X65021617Y-86752357D01*
X65021617Y-86752357D02*
X65164474Y-86680928D01*
X65164474Y-86680928D02*
X65521617Y-86680928D01*
X65521617Y-86680928D02*
X65735903Y-86752357D01*
X67093045Y-88180928D02*
X66378759Y-88180928D01*
X66378759Y-88180928D02*
X66378759Y-86680928D01*
X67878760Y-86680928D02*
X68164474Y-86680928D01*
X68164474Y-86680928D02*
X68307331Y-86752357D01*
X68307331Y-86752357D02*
X68450188Y-86895214D01*
X68450188Y-86895214D02*
X68521617Y-87180928D01*
X68521617Y-87180928D02*
X68521617Y-87680928D01*
X68521617Y-87680928D02*
X68450188Y-87966642D01*
X68450188Y-87966642D02*
X68307331Y-88109500D01*
X68307331Y-88109500D02*
X68164474Y-88180928D01*
X68164474Y-88180928D02*
X67878760Y-88180928D01*
X67878760Y-88180928D02*
X67735903Y-88109500D01*
X67735903Y-88109500D02*
X67593045Y-87966642D01*
X67593045Y-87966642D02*
X67521617Y-87680928D01*
X67521617Y-87680928D02*
X67521617Y-87180928D01*
X67521617Y-87180928D02*
X67593045Y-86895214D01*
X67593045Y-86895214D02*
X67735903Y-86752357D01*
X67735903Y-86752357D02*
X67878760Y-86680928D01*
X68950189Y-86680928D02*
X69807332Y-86680928D01*
X69378760Y-88180928D02*
X69378760Y-86680928D01*
X70235903Y-88109500D02*
X70450189Y-88180928D01*
X70450189Y-88180928D02*
X70807331Y-88180928D01*
X70807331Y-88180928D02*
X70950189Y-88109500D01*
X70950189Y-88109500D02*
X71021617Y-88038071D01*
X71021617Y-88038071D02*
X71093046Y-87895214D01*
X71093046Y-87895214D02*
X71093046Y-87752357D01*
X71093046Y-87752357D02*
X71021617Y-87609500D01*
X71021617Y-87609500D02*
X70950189Y-87538071D01*
X70950189Y-87538071D02*
X70807331Y-87466642D01*
X70807331Y-87466642D02*
X70521617Y-87395214D01*
X70521617Y-87395214D02*
X70378760Y-87323785D01*
X70378760Y-87323785D02*
X70307331Y-87252357D01*
X70307331Y-87252357D02*
X70235903Y-87109500D01*
X70235903Y-87109500D02*
X70235903Y-86966642D01*
X70235903Y-86966642D02*
X70307331Y-86823785D01*
X70307331Y-86823785D02*
X70378760Y-86752357D01*
X70378760Y-86752357D02*
X70521617Y-86680928D01*
X70521617Y-86680928D02*
X70878760Y-86680928D01*
X70878760Y-86680928D02*
X71093046Y-86752357D01*
D10*
X95238095Y-46304819D02*
X95238095Y-45304819D01*
X95238095Y-45781009D02*
X95809523Y-45781009D01*
X95809523Y-46304819D02*
X95809523Y-45304819D01*
X96238095Y-45400057D02*
X96285714Y-45352438D01*
X96285714Y-45352438D02*
X96380952Y-45304819D01*
X96380952Y-45304819D02*
X96619047Y-45304819D01*
X96619047Y-45304819D02*
X96714285Y-45352438D01*
X96714285Y-45352438D02*
X96761904Y-45400057D01*
X96761904Y-45400057D02*
X96809523Y-45495295D01*
X96809523Y-45495295D02*
X96809523Y-45590533D01*
X96809523Y-45590533D02*
X96761904Y-45733390D01*
X96761904Y-45733390D02*
X96190476Y-46304819D01*
X96190476Y-46304819D02*
X96809523Y-46304819D01*
X3238095Y-46304819D02*
X3238095Y-45304819D01*
X3238095Y-45781009D02*
X3809523Y-45781009D01*
X3809523Y-46304819D02*
X3809523Y-45304819D01*
X4809523Y-46304819D02*
X4238095Y-46304819D01*
X4523809Y-46304819D02*
X4523809Y-45304819D01*
X4523809Y-45304819D02*
X4428571Y-45447676D01*
X4428571Y-45447676D02*
X4333333Y-45542914D01*
X4333333Y-45542914D02*
X4238095Y-45590533D01*
X99109580Y-27166666D02*
X99157200Y-27214285D01*
X99157200Y-27214285D02*
X99204819Y-27357142D01*
X99204819Y-27357142D02*
X99204819Y-27452380D01*
X99204819Y-27452380D02*
X99157200Y-27595237D01*
X99157200Y-27595237D02*
X99061961Y-27690475D01*
X99061961Y-27690475D02*
X98966723Y-27738094D01*
X98966723Y-27738094D02*
X98776247Y-27785713D01*
X98776247Y-27785713D02*
X98633390Y-27785713D01*
X98633390Y-27785713D02*
X98442914Y-27738094D01*
X98442914Y-27738094D02*
X98347676Y-27690475D01*
X98347676Y-27690475D02*
X98252438Y-27595237D01*
X98252438Y-27595237D02*
X98204819Y-27452380D01*
X98204819Y-27452380D02*
X98204819Y-27357142D01*
X98204819Y-27357142D02*
X98252438Y-27214285D01*
X98252438Y-27214285D02*
X98300057Y-27166666D01*
X98300057Y-26785713D02*
X98252438Y-26738094D01*
X98252438Y-26738094D02*
X98204819Y-26642856D01*
X98204819Y-26642856D02*
X98204819Y-26404761D01*
X98204819Y-26404761D02*
X98252438Y-26309523D01*
X98252438Y-26309523D02*
X98300057Y-26261904D01*
X98300057Y-26261904D02*
X98395295Y-26214285D01*
X98395295Y-26214285D02*
X98490533Y-26214285D01*
X98490533Y-26214285D02*
X98633390Y-26261904D01*
X98633390Y-26261904D02*
X99204819Y-26833332D01*
X99204819Y-26833332D02*
X99204819Y-26214285D01*
X97859580Y-17916666D02*
X97907200Y-17964285D01*
X97907200Y-17964285D02*
X97954819Y-18107142D01*
X97954819Y-18107142D02*
X97954819Y-18202380D01*
X97954819Y-18202380D02*
X97907200Y-18345237D01*
X97907200Y-18345237D02*
X97811961Y-18440475D01*
X97811961Y-18440475D02*
X97716723Y-18488094D01*
X97716723Y-18488094D02*
X97526247Y-18535713D01*
X97526247Y-18535713D02*
X97383390Y-18535713D01*
X97383390Y-18535713D02*
X97192914Y-18488094D01*
X97192914Y-18488094D02*
X97097676Y-18440475D01*
X97097676Y-18440475D02*
X97002438Y-18345237D01*
X97002438Y-18345237D02*
X96954819Y-18202380D01*
X96954819Y-18202380D02*
X96954819Y-18107142D01*
X96954819Y-18107142D02*
X97002438Y-17964285D01*
X97002438Y-17964285D02*
X97050057Y-17916666D01*
X97954819Y-16964285D02*
X97954819Y-17535713D01*
X97954819Y-17249999D02*
X96954819Y-17249999D01*
X96954819Y-17249999D02*
X97097676Y-17345237D01*
X97097676Y-17345237D02*
X97192914Y-17440475D01*
X97192914Y-17440475D02*
X97240533Y-17535713D01*
%TO.C,Q74*%
D12*
X55820000Y-76270000D02*
X59420000Y-76270000D01*
X55263600Y-73321193D02*
G75*
G02*
X57620000Y-71820000I2356400J-1098807D01*
G01*
X55820000Y-76270000D02*
G75*
G02*
X55295816Y-75542795I1800000J1850000D01*
G01*
X57620000Y-71820000D02*
G75*
G02*
X59976400Y-73321193I0J-2600000D01*
G01*
X59944184Y-75542795D02*
G75*
G02*
X59420000Y-76270000I-2324184J1122795D01*
G01*
%TO.C,Q64*%
X55820000Y-19120000D02*
X59420000Y-19120000D01*
X55263600Y-16171193D02*
G75*
G02*
X57620000Y-14670000I2356400J-1098807D01*
G01*
X55820000Y-19120000D02*
G75*
G02*
X55295816Y-18392795I1800000J1850000D01*
G01*
X57620000Y-14670000D02*
G75*
G02*
X59976400Y-16171193I0J-2600000D01*
G01*
X59944184Y-18392795D02*
G75*
G02*
X59420000Y-19120000I-2324184J1122795D01*
G01*
%TO.C,D3*%
X71744000Y-37880000D02*
X71900000Y-37880000D01*
X74060000Y-37880000D02*
X74216000Y-37880000D01*
X71744484Y-37880000D02*
G75*
G02*
X71900000Y-34648563I1235516J1560000D01*
G01*
X71900000Y-37360961D02*
G75*
G02*
X71900000Y-35279039I1080000J1040961D01*
G01*
X74060000Y-34648563D02*
G75*
G02*
X74215516Y-37880000I-1080000J-1671437D01*
G01*
X74060000Y-35279039D02*
G75*
G02*
X74060000Y-37360961I-1080000J-1040961D01*
G01*
%TO.C,R17*%
X33410000Y-54735000D02*
X36020000Y-54735000D01*
X33410000Y-54735000D02*
G75*
G02*
X30670000Y-54735000I-1370000J0D01*
G01*
X30670000Y-54735000D02*
G75*
G02*
X33410000Y-54735000I1370000J0D01*
G01*
%TO.C,D8*%
X79424000Y-53120000D02*
X79580000Y-53120000D01*
X81740000Y-53120000D02*
X81896000Y-53120000D01*
X79424484Y-53120000D02*
G75*
G02*
X79580000Y-49888563I1235516J1560000D01*
G01*
X79580000Y-52600961D02*
G75*
G02*
X79580000Y-50519039I1080000J1040961D01*
G01*
X81740000Y-49888563D02*
G75*
G02*
X81895516Y-53120000I-1080000J-1671437D01*
G01*
X81740000Y-50519039D02*
G75*
G02*
X81740000Y-52600961I-1080000J-1040961D01*
G01*
%TO.C,Q79*%
X67100000Y-36375000D02*
X63500000Y-36375000D01*
X62975816Y-37102205D02*
G75*
G02*
X63500000Y-36375000I2324184J-1122795D01*
G01*
X65300000Y-40825000D02*
G75*
G02*
X62943600Y-39323807I0J2600000D01*
G01*
X67100000Y-36375000D02*
G75*
G02*
X67624184Y-37102205I-1800000J-1850000D01*
G01*
X67656400Y-39323807D02*
G75*
G02*
X65300000Y-40825000I-2356400J1098807D01*
G01*
%TO.C,Q58*%
X51740000Y-43360000D02*
X48140000Y-43360000D01*
X47615816Y-44087205D02*
G75*
G02*
X48140000Y-43360000I2324184J-1122795D01*
G01*
X49940000Y-47810000D02*
G75*
G02*
X47583600Y-46308807I0J2600000D01*
G01*
X51740000Y-43360000D02*
G75*
G02*
X52264184Y-44087205I-1800000J-1850000D01*
G01*
X52296400Y-46308807D02*
G75*
G02*
X49940000Y-47810000I-2356400J1098807D01*
G01*
%TO.C,R9*%
X18050000Y-42670000D02*
X20660000Y-42670000D01*
X18050000Y-42670000D02*
G75*
G02*
X15310000Y-42670000I-1370000J0D01*
G01*
X15310000Y-42670000D02*
G75*
G02*
X18050000Y-42670000I1370000J0D01*
G01*
%TO.C,Q8*%
X9740000Y-73730000D02*
X13340000Y-73730000D01*
X9183600Y-70781193D02*
G75*
G02*
X11540000Y-69280000I2356400J-1098807D01*
G01*
X9740000Y-73730000D02*
G75*
G02*
X9215816Y-73002795I1800000J1850000D01*
G01*
X11540000Y-69280000D02*
G75*
G02*
X13896400Y-70781193I0J-2600000D01*
G01*
X13864184Y-73002795D02*
G75*
G02*
X13340000Y-73730000I-2324184J1122795D01*
G01*
%TO.C,R13*%
X25730000Y-24255000D02*
X28340000Y-24255000D01*
X25730000Y-24255000D02*
G75*
G02*
X22990000Y-24255000I-1370000J0D01*
G01*
X22990000Y-24255000D02*
G75*
G02*
X25730000Y-24255000I1370000J0D01*
G01*
%TO.C,Q70*%
X55820000Y-55950000D02*
X59420000Y-55950000D01*
X55263600Y-53001193D02*
G75*
G02*
X57620000Y-51500000I2356400J-1098807D01*
G01*
X55820000Y-55950000D02*
G75*
G02*
X55295816Y-55222795I1800000J1850000D01*
G01*
X57620000Y-51500000D02*
G75*
G02*
X59976400Y-53001193I0J-2600000D01*
G01*
X59944184Y-55222795D02*
G75*
G02*
X59420000Y-55950000I-2324184J1122795D01*
G01*
%TO.C,R8*%
X18050000Y-29335000D02*
X20660000Y-29335000D01*
X18050000Y-29335000D02*
G75*
G02*
X15310000Y-29335000I-1370000J0D01*
G01*
X15310000Y-29335000D02*
G75*
G02*
X18050000Y-29335000I1370000J0D01*
G01*
%TO.C,R24*%
X56450000Y-36320000D02*
X59060000Y-36320000D01*
X56450000Y-36320000D02*
G75*
G02*
X53710000Y-36320000I-1370000J0D01*
G01*
X53710000Y-36320000D02*
G75*
G02*
X56450000Y-36320000I1370000J0D01*
G01*
%TO.C,Q25*%
X25100000Y-50870000D02*
X28700000Y-50870000D01*
X24543600Y-47921193D02*
G75*
G02*
X26900000Y-46420000I2356400J-1098807D01*
G01*
X25100000Y-50870000D02*
G75*
G02*
X24575816Y-50142795I1800000J1850000D01*
G01*
X26900000Y-46420000D02*
G75*
G02*
X29256400Y-47921193I0J-2600000D01*
G01*
X29224184Y-50142795D02*
G75*
G02*
X28700000Y-50870000I-2324184J1122795D01*
G01*
%TO.C,Q18*%
X21020000Y-71300000D02*
X17420000Y-71300000D01*
X16895816Y-72027205D02*
G75*
G02*
X17420000Y-71300000I2324184J-1122795D01*
G01*
X19220000Y-75750000D02*
G75*
G02*
X16863600Y-74248807I0J2600000D01*
G01*
X21020000Y-71300000D02*
G75*
G02*
X21544184Y-72027205I-1800000J-1850000D01*
G01*
X21576400Y-74248807D02*
G75*
G02*
X19220000Y-75750000I-2356400J1098807D01*
G01*
%TO.C,Q29*%
X25100000Y-77540000D02*
X28700000Y-77540000D01*
X24543600Y-74591193D02*
G75*
G02*
X26900000Y-73090000I2356400J-1098807D01*
G01*
X25100000Y-77540000D02*
G75*
G02*
X24575816Y-76812795I1800000J1850000D01*
G01*
X26900000Y-73090000D02*
G75*
G02*
X29256400Y-74591193I0J-2600000D01*
G01*
X29224184Y-76812795D02*
G75*
G02*
X28700000Y-77540000I-2324184J1122795D01*
G01*
%TO.C,Q38*%
X36380000Y-61775000D02*
X32780000Y-61775000D01*
X32255816Y-62502205D02*
G75*
G02*
X32780000Y-61775000I2324184J-1122795D01*
G01*
X34580000Y-66225000D02*
G75*
G02*
X32223600Y-64723807I0J2600000D01*
G01*
X36380000Y-61775000D02*
G75*
G02*
X36904184Y-62502205I-1800000J-1850000D01*
G01*
X36936400Y-64723807D02*
G75*
G02*
X34580000Y-66225000I-2356400J1098807D01*
G01*
%TO.C,Q42*%
X40460000Y-19120000D02*
X44060000Y-19120000D01*
X39903600Y-16171193D02*
G75*
G02*
X42260000Y-14670000I2356400J-1098807D01*
G01*
X40460000Y-19120000D02*
G75*
G02*
X39935816Y-18392795I1800000J1850000D01*
G01*
X42260000Y-14670000D02*
G75*
G02*
X44616400Y-16171193I0J-2600000D01*
G01*
X44584184Y-18392795D02*
G75*
G02*
X44060000Y-19120000I-2324184J1122795D01*
G01*
%TO.C,Q2*%
X9740000Y-30550000D02*
X13340000Y-30550000D01*
X9183600Y-27601193D02*
G75*
G02*
X11540000Y-26100000I2356400J-1098807D01*
G01*
X9740000Y-30550000D02*
G75*
G02*
X9215816Y-29822795I1800000J1850000D01*
G01*
X11540000Y-26100000D02*
G75*
G02*
X13896400Y-27601193I0J-2600000D01*
G01*
X13864184Y-29822795D02*
G75*
G02*
X13340000Y-30550000I-2324184J1122795D01*
G01*
%TO.C,Q4*%
X9740000Y-47060000D02*
X13340000Y-47060000D01*
X9183600Y-44111193D02*
G75*
G02*
X11540000Y-42610000I2356400J-1098807D01*
G01*
X9740000Y-47060000D02*
G75*
G02*
X9215816Y-46332795I1800000J1850000D01*
G01*
X11540000Y-42610000D02*
G75*
G02*
X13896400Y-44111193I0J-2600000D01*
G01*
X13864184Y-46332795D02*
G75*
G02*
X13340000Y-47060000I-2324184J1122795D01*
G01*
%TO.C,R27*%
X64130000Y-24255000D02*
X66740000Y-24255000D01*
X64130000Y-24255000D02*
G75*
G02*
X61390000Y-24255000I-1370000J0D01*
G01*
X61390000Y-24255000D02*
G75*
G02*
X64130000Y-24255000I1370000J0D01*
G01*
%TO.C,Q46*%
X40460000Y-45790000D02*
X44060000Y-45790000D01*
X39903600Y-42841193D02*
G75*
G02*
X42260000Y-41340000I2356400J-1098807D01*
G01*
X40460000Y-45790000D02*
G75*
G02*
X39935816Y-45062795I1800000J1850000D01*
G01*
X42260000Y-41340000D02*
G75*
G02*
X44616400Y-42841193I0J-2600000D01*
G01*
X44584184Y-45062795D02*
G75*
G02*
X44060000Y-45790000I-2324184J1122795D01*
G01*
%TO.C,Q88*%
X71180000Y-74365000D02*
X74780000Y-74365000D01*
X70623600Y-71416193D02*
G75*
G02*
X72980000Y-69915000I2356400J-1098807D01*
G01*
X71180000Y-74365000D02*
G75*
G02*
X70655816Y-73637795I1800000J1850000D01*
G01*
X72980000Y-69915000D02*
G75*
G02*
X75336400Y-71416193I0J-2600000D01*
G01*
X75304184Y-73637795D02*
G75*
G02*
X74780000Y-74365000I-2324184J1122795D01*
G01*
%TO.C,D7*%
X79424000Y-37880000D02*
X79580000Y-37880000D01*
X81740000Y-37880000D02*
X81896000Y-37880000D01*
X79424484Y-37880000D02*
G75*
G02*
X79580000Y-34648563I1235516J1560000D01*
G01*
X79580000Y-37360961D02*
G75*
G02*
X79580000Y-35279039I1080000J1040961D01*
G01*
X81740000Y-34648563D02*
G75*
G02*
X81895516Y-37880000I-1080000J-1671437D01*
G01*
X81740000Y-35279039D02*
G75*
G02*
X81740000Y-37360961I-1080000J-1040961D01*
G01*
%TO.C,R2*%
X10370000Y-24255000D02*
X12980000Y-24255000D01*
X10370000Y-24255000D02*
G75*
G02*
X7630000Y-24255000I-1370000J0D01*
G01*
X7630000Y-24255000D02*
G75*
G02*
X10370000Y-24255000I1370000J0D01*
G01*
%TO.C,R32*%
X71810000Y-61720000D02*
X74420000Y-61720000D01*
X71810000Y-61720000D02*
G75*
G02*
X69070000Y-61720000I-1370000J0D01*
G01*
X69070000Y-61720000D02*
G75*
G02*
X71810000Y-61720000I1370000J0D01*
G01*
%TO.C,Q87*%
X71180000Y-59125000D02*
X74780000Y-59125000D01*
X70623600Y-56176193D02*
G75*
G02*
X72980000Y-54675000I2356400J-1098807D01*
G01*
X71180000Y-59125000D02*
G75*
G02*
X70655816Y-58397795I1800000J1850000D01*
G01*
X72980000Y-54675000D02*
G75*
G02*
X75336400Y-56176193I0J-2600000D01*
G01*
X75304184Y-58397795D02*
G75*
G02*
X74780000Y-59125000I-2324184J1122795D01*
G01*
%TO.C,Q3*%
X9740000Y-38805000D02*
X13340000Y-38805000D01*
X9183600Y-35856193D02*
G75*
G02*
X11540000Y-34355000I2356400J-1098807D01*
G01*
X9740000Y-38805000D02*
G75*
G02*
X9215816Y-38077795I1800000J1850000D01*
G01*
X11540000Y-34355000D02*
G75*
G02*
X13896400Y-35856193I0J-2600000D01*
G01*
X13864184Y-38077795D02*
G75*
G02*
X13340000Y-38805000I-2324184J1122795D01*
G01*
%TO.C,Q82*%
X67100000Y-51615000D02*
X63500000Y-51615000D01*
X62975816Y-52342205D02*
G75*
G02*
X63500000Y-51615000I2324184J-1122795D01*
G01*
X65300000Y-56065000D02*
G75*
G02*
X62943600Y-54563807I0J2600000D01*
G01*
X67100000Y-51615000D02*
G75*
G02*
X67624184Y-52342205I-1800000J-1850000D01*
G01*
X67656400Y-54563807D02*
G75*
G02*
X65300000Y-56065000I-2356400J1098807D01*
G01*
%TO.C,J2*%
X34790000Y-89170000D02*
X57910000Y-89170000D01*
X34790000Y-98290000D02*
X34790000Y-89170000D01*
X36090000Y-90480000D02*
X56610000Y-90480000D01*
X36090000Y-96980000D02*
X36090000Y-90480000D01*
X39500000Y-99680000D02*
X40500000Y-99680000D01*
X40000000Y-98680000D02*
X39500000Y-99680000D01*
X40500000Y-99680000D02*
X40000000Y-98680000D01*
X44300000Y-96980000D02*
X36090000Y-96980000D01*
X44300000Y-98290000D02*
X44300000Y-96980000D01*
X48400000Y-96980000D02*
X48400000Y-98290000D01*
X56610000Y-90480000D02*
X56610000Y-96980000D01*
X56610000Y-96980000D02*
X48400000Y-96980000D01*
X57910000Y-89170000D02*
X57910000Y-98290000D01*
X57910000Y-98290000D02*
X34790000Y-98290000D01*
%TO.C,Q21*%
X25100000Y-30550000D02*
X28700000Y-30550000D01*
X24543600Y-27601193D02*
G75*
G02*
X26900000Y-26100000I2356400J-1098807D01*
G01*
X25100000Y-30550000D02*
G75*
G02*
X24575816Y-29822795I1800000J1850000D01*
G01*
X26900000Y-26100000D02*
G75*
G02*
X29256400Y-27601193I0J-2600000D01*
G01*
X29224184Y-29822795D02*
G75*
G02*
X28700000Y-30550000I-2324184J1122795D01*
G01*
%TO.C,Q16*%
X21020000Y-57965000D02*
X17420000Y-57965000D01*
X16895816Y-58692205D02*
G75*
G02*
X17420000Y-57965000I2324184J-1122795D01*
G01*
X19220000Y-62415000D02*
G75*
G02*
X16863600Y-60913807I0J2600000D01*
G01*
X21020000Y-57965000D02*
G75*
G02*
X21544184Y-58692205I-1800000J-1850000D01*
G01*
X21576400Y-60913807D02*
G75*
G02*
X19220000Y-62415000I-2356400J1098807D01*
G01*
%TO.C,D5*%
X71744000Y-68360000D02*
X71900000Y-68360000D01*
X74060000Y-68360000D02*
X74216000Y-68360000D01*
X71744484Y-68360000D02*
G75*
G02*
X71900000Y-65128563I1235516J1560000D01*
G01*
X71900000Y-67840961D02*
G75*
G02*
X71900000Y-65759039I1080000J1040961D01*
G01*
X74060000Y-65128563D02*
G75*
G02*
X74215516Y-68360000I-1080000J-1671437D01*
G01*
X74060000Y-65759039D02*
G75*
G02*
X74060000Y-67840961I-1080000J-1040961D01*
G01*
%TO.C,R30*%
X71810000Y-31240000D02*
X74420000Y-31240000D01*
X71810000Y-31240000D02*
G75*
G02*
X69070000Y-31240000I-1370000J0D01*
G01*
X69070000Y-31240000D02*
G75*
G02*
X71810000Y-31240000I1370000J0D01*
G01*
%TO.C,Q59*%
X51740000Y-48440000D02*
X48140000Y-48440000D01*
X47615816Y-49167205D02*
G75*
G02*
X48140000Y-48440000I2324184J-1122795D01*
G01*
X49940000Y-52890000D02*
G75*
G02*
X47583600Y-51388807I0J2600000D01*
G01*
X51740000Y-48440000D02*
G75*
G02*
X52264184Y-49167205I-1800000J-1850000D01*
G01*
X52296400Y-51388807D02*
G75*
G02*
X49940000Y-52890000I-2356400J1098807D01*
G01*
%TO.C,Q49*%
X40460000Y-61030000D02*
X44060000Y-61030000D01*
X39903600Y-58081193D02*
G75*
G02*
X42260000Y-56580000I2356400J-1098807D01*
G01*
X40460000Y-61030000D02*
G75*
G02*
X39935816Y-60302795I1800000J1850000D01*
G01*
X42260000Y-56580000D02*
G75*
G02*
X44616400Y-58081193I0J-2600000D01*
G01*
X44584184Y-60302795D02*
G75*
G02*
X44060000Y-61030000I-2324184J1122795D01*
G01*
%TO.C,R26*%
X64130000Y-16000000D02*
X66740000Y-16000000D01*
X64130000Y-16000000D02*
G75*
G02*
X61390000Y-16000000I-1370000J0D01*
G01*
X61390000Y-16000000D02*
G75*
G02*
X64130000Y-16000000I1370000J0D01*
G01*
%TO.C,R28*%
X64130000Y-62990000D02*
X66740000Y-62990000D01*
X64130000Y-62990000D02*
G75*
G02*
X61390000Y-62990000I-1370000J0D01*
G01*
X61390000Y-62990000D02*
G75*
G02*
X64130000Y-62990000I1370000J0D01*
G01*
%TO.C,R21*%
X48770000Y-16000000D02*
X51380000Y-16000000D01*
X48770000Y-16000000D02*
G75*
G02*
X46030000Y-16000000I-1370000J0D01*
G01*
X46030000Y-16000000D02*
G75*
G02*
X48770000Y-16000000I1370000J0D01*
G01*
%TO.C,R22*%
X48770000Y-54735000D02*
X51380000Y-54735000D01*
X48770000Y-54735000D02*
G75*
G02*
X46030000Y-54735000I-1370000J0D01*
G01*
X46030000Y-54735000D02*
G75*
G02*
X48770000Y-54735000I1370000J0D01*
G01*
%TO.C,R19*%
X41090000Y-34415000D02*
X43700000Y-34415000D01*
X41090000Y-34415000D02*
G75*
G02*
X38350000Y-34415000I-1370000J0D01*
G01*
X38350000Y-34415000D02*
G75*
G02*
X41090000Y-34415000I1370000J0D01*
G01*
%TO.C,R29*%
X71810000Y-16000000D02*
X74420000Y-16000000D01*
X71810000Y-16000000D02*
G75*
G02*
X69070000Y-16000000I-1370000J0D01*
G01*
X69070000Y-16000000D02*
G75*
G02*
X71810000Y-16000000I1370000J0D01*
G01*
%TO.C,Q60*%
X51740000Y-56695000D02*
X48140000Y-56695000D01*
X47615816Y-57422205D02*
G75*
G02*
X48140000Y-56695000I2324184J-1122795D01*
G01*
X49940000Y-61145000D02*
G75*
G02*
X47583600Y-59643807I0J2600000D01*
G01*
X51740000Y-56695000D02*
G75*
G02*
X52264184Y-57422205I-1800000J-1850000D01*
G01*
X52296400Y-59643807D02*
G75*
G02*
X49940000Y-61145000I-2356400J1098807D01*
G01*
%TO.C,Q72*%
X55820000Y-66110000D02*
X59420000Y-66110000D01*
X55263600Y-63161193D02*
G75*
G02*
X57620000Y-61660000I2356400J-1098807D01*
G01*
X55820000Y-66110000D02*
G75*
G02*
X55295816Y-65382795I1800000J1850000D01*
G01*
X57620000Y-61660000D02*
G75*
G02*
X59976400Y-63161193I0J-2600000D01*
G01*
X59944184Y-65382795D02*
G75*
G02*
X59420000Y-66110000I-2324184J1122795D01*
G01*
%TO.C,Q77*%
X67100000Y-26215000D02*
X63500000Y-26215000D01*
X62975816Y-26942205D02*
G75*
G02*
X63500000Y-26215000I2324184J-1122795D01*
G01*
X65300000Y-30665000D02*
G75*
G02*
X62943600Y-29163807I0J2600000D01*
G01*
X67100000Y-26215000D02*
G75*
G02*
X67624184Y-26942205I-1800000J-1850000D01*
G01*
X67656400Y-29163807D02*
G75*
G02*
X65300000Y-30665000I-2356400J1098807D01*
G01*
%TO.C,R4*%
X10370000Y-40765000D02*
X12980000Y-40765000D01*
X10370000Y-40765000D02*
G75*
G02*
X7630000Y-40765000I-1370000J0D01*
G01*
X7630000Y-40765000D02*
G75*
G02*
X10370000Y-40765000I1370000J0D01*
G01*
%TO.C,Q12*%
X21020000Y-31295000D02*
X17420000Y-31295000D01*
X16895816Y-32022205D02*
G75*
G02*
X17420000Y-31295000I2324184J-1122795D01*
G01*
X19220000Y-35745000D02*
G75*
G02*
X16863600Y-34243807I0J2600000D01*
G01*
X21020000Y-31295000D02*
G75*
G02*
X21544184Y-32022205I-1800000J-1850000D01*
G01*
X21576400Y-34243807D02*
G75*
G02*
X19220000Y-35745000I-2356400J1098807D01*
G01*
%TO.C,R16*%
X33410000Y-46480000D02*
X36020000Y-46480000D01*
X33410000Y-46480000D02*
G75*
G02*
X30670000Y-46480000I-1370000J0D01*
G01*
X30670000Y-46480000D02*
G75*
G02*
X33410000Y-46480000I1370000J0D01*
G01*
%TO.C,Q66*%
X55820000Y-29280000D02*
X59420000Y-29280000D01*
X55263600Y-26331193D02*
G75*
G02*
X57620000Y-24830000I2356400J-1098807D01*
G01*
X55820000Y-29280000D02*
G75*
G02*
X55295816Y-28552795I1800000J1850000D01*
G01*
X57620000Y-24830000D02*
G75*
G02*
X59976400Y-26331193I0J-2600000D01*
G01*
X59944184Y-28552795D02*
G75*
G02*
X59420000Y-29280000I-2324184J1122795D01*
G01*
D13*
%TO.C,LOGO*%
G36*
X76290000Y-82854000D02*
G01*
X76328000Y-82859000D01*
X76366000Y-82869000D01*
X76403000Y-82884000D01*
X76439000Y-82903000D01*
X76475000Y-82927000D01*
X76516000Y-82964000D01*
X76550000Y-83004000D01*
X76577000Y-83048000D01*
X76597000Y-83093000D01*
X76609000Y-83141000D01*
X76613000Y-83189000D01*
X76611000Y-83238000D01*
X76601000Y-83286000D01*
X76583000Y-83333000D01*
X76558000Y-83379000D01*
X76526000Y-83421000D01*
X76486000Y-83460000D01*
X76465000Y-83477000D01*
X76442000Y-83492000D01*
X76418000Y-83505000D01*
X76394000Y-83517000D01*
X76368000Y-83526000D01*
X76343000Y-83533000D01*
X76317000Y-83538000D01*
X76291000Y-83541000D01*
X76265000Y-83542000D01*
X76239000Y-83541000D01*
X76214000Y-83537000D01*
X76190000Y-83531000D01*
X76129000Y-83506000D01*
X76075000Y-83473000D01*
X76029000Y-83432000D01*
X75992000Y-83385000D01*
X75963000Y-83333000D01*
X75943000Y-83278000D01*
X75933000Y-83221000D01*
X75933000Y-83163000D01*
X75943000Y-83105000D01*
X75963000Y-83050000D01*
X75995000Y-82998000D01*
X76037000Y-82950000D01*
X76071000Y-82922000D01*
X76105000Y-82899000D01*
X76141000Y-82881000D01*
X76178000Y-82867000D01*
X76215000Y-82858000D01*
X76252000Y-82853000D01*
X76290000Y-82854000D01*
G37*
G36*
X70816000Y-77401000D02*
G01*
X70881000Y-77428000D01*
X70941000Y-77471000D01*
X70994000Y-77530000D01*
X71008000Y-77550000D01*
X71020000Y-77572000D01*
X71030000Y-77594000D01*
X71039000Y-77618000D01*
X71046000Y-77642000D01*
X71052000Y-77666000D01*
X71056000Y-77691000D01*
X71058000Y-77716000D01*
X71058000Y-77741000D01*
X71057000Y-77766000D01*
X71054000Y-77791000D01*
X71049000Y-77815000D01*
X71041000Y-77841000D01*
X71029000Y-77868000D01*
X71015000Y-77894000D01*
X70998000Y-77919000D01*
X70979000Y-77944000D01*
X70958000Y-77967000D01*
X70935000Y-77989000D01*
X70911000Y-78009000D01*
X70886000Y-78026000D01*
X70861000Y-78041000D01*
X70835000Y-78052000D01*
X70810000Y-78061000D01*
X70790000Y-78066000D01*
X70772000Y-78070000D01*
X70756000Y-78073000D01*
X70741000Y-78075000D01*
X70728000Y-78076000D01*
X70715000Y-78076000D01*
X70701000Y-78075000D01*
X70688000Y-78073000D01*
X70673000Y-78070000D01*
X70657000Y-78066000D01*
X70640000Y-78061000D01*
X70620000Y-78055000D01*
X70584000Y-78042000D01*
X70551000Y-78026000D01*
X70519000Y-78006000D01*
X70491000Y-77984000D01*
X70465000Y-77959000D01*
X70443000Y-77932000D01*
X70423000Y-77903000D01*
X70407000Y-77871000D01*
X70394000Y-77838000D01*
X70385000Y-77804000D01*
X70379000Y-77767000D01*
X70377000Y-77730000D01*
X70386000Y-77651000D01*
X70411000Y-77581000D01*
X70448000Y-77520000D01*
X70495000Y-77470000D01*
X70552000Y-77431000D01*
X70614000Y-77404000D01*
X70680000Y-77389000D01*
X70749000Y-77388000D01*
X70816000Y-77401000D01*
G37*
G36*
X76338000Y-77393000D02*
G01*
X76402000Y-77413000D01*
X76463000Y-77446000D01*
X76518000Y-77495000D01*
X76555000Y-77541000D01*
X76582000Y-77589000D01*
X76601000Y-77639000D01*
X76612000Y-77690000D01*
X76615000Y-77742000D01*
X76609000Y-77793000D01*
X76596000Y-77842000D01*
X76575000Y-77890000D01*
X76546000Y-77934000D01*
X76510000Y-77974000D01*
X76466000Y-78010000D01*
X76416000Y-78040000D01*
X76399000Y-78048000D01*
X76381000Y-78054000D01*
X76361000Y-78060000D01*
X76341000Y-78064000D01*
X76319000Y-78068000D01*
X76297000Y-78070000D01*
X76275000Y-78071000D01*
X76253000Y-78072000D01*
X76232000Y-78071000D01*
X76211000Y-78069000D01*
X76192000Y-78066000D01*
X76173000Y-78061000D01*
X76165000Y-78059000D01*
X76157000Y-78056000D01*
X76147000Y-78051000D01*
X76138000Y-78047000D01*
X76127000Y-78041000D01*
X76117000Y-78035000D01*
X76106000Y-78029000D01*
X76096000Y-78022000D01*
X76086000Y-78015000D01*
X76076000Y-78008000D01*
X76067000Y-78001000D01*
X76058000Y-77994000D01*
X76038000Y-77976000D01*
X76019000Y-77957000D01*
X76003000Y-77938000D01*
X75988000Y-77918000D01*
X75975000Y-77897000D01*
X75964000Y-77876000D01*
X75955000Y-77854000D01*
X75948000Y-77831000D01*
X75942000Y-77808000D01*
X75938000Y-77783000D01*
X75935000Y-77757000D01*
X75934000Y-77730000D01*
X75941000Y-77656000D01*
X75962000Y-77590000D01*
X75994000Y-77531000D01*
X76037000Y-77481000D01*
X76089000Y-77441000D01*
X76146000Y-77412000D01*
X76208000Y-77393000D01*
X76273000Y-77387000D01*
X76338000Y-77393000D01*
G37*
G36*
X74295000Y-82746000D02*
G01*
X74341000Y-82751000D01*
X74376000Y-82761000D01*
X74401000Y-82778000D01*
X74419000Y-82803000D01*
X74429000Y-82837000D01*
X74435000Y-82883000D01*
X74438000Y-82942000D01*
X74438000Y-83015000D01*
X74439000Y-83105000D01*
X74444000Y-83408000D01*
X74407000Y-83450000D01*
X74371000Y-83493000D01*
X74084000Y-83497000D01*
X74032000Y-83497000D01*
X73986000Y-83497000D01*
X73945000Y-83497000D01*
X73909000Y-83497000D01*
X73878000Y-83496000D01*
X73851000Y-83495000D01*
X73828000Y-83494000D01*
X73809000Y-83492000D01*
X73793000Y-83490000D01*
X73780000Y-83487000D01*
X73770000Y-83484000D01*
X73762000Y-83480000D01*
X73747000Y-83471000D01*
X73733000Y-83460000D01*
X73722000Y-83448000D01*
X73713000Y-83434000D01*
X73706000Y-83416000D01*
X73700000Y-83393000D01*
X73695000Y-83366000D01*
X73692000Y-83332000D01*
X73690000Y-83291000D01*
X73688000Y-83243000D01*
X73688000Y-83185000D01*
X73687000Y-83118000D01*
X73687000Y-83052000D01*
X73688000Y-82995000D01*
X73690000Y-82945000D01*
X73692000Y-82903000D01*
X73695000Y-82868000D01*
X73699000Y-82838000D01*
X73705000Y-82814000D01*
X73712000Y-82795000D01*
X73720000Y-82780000D01*
X73730000Y-82769000D01*
X73741000Y-82760000D01*
X73754000Y-82754000D01*
X73771000Y-82752000D01*
X73787000Y-82750000D01*
X73806000Y-82749000D01*
X73830000Y-82748000D01*
X73857000Y-82748000D01*
X73887000Y-82747000D01*
X73920000Y-82746000D01*
X73956000Y-82746000D01*
X73993000Y-82745000D01*
X74032000Y-82745000D01*
X74071000Y-82745000D01*
X74162000Y-82744000D01*
X74235000Y-82744000D01*
X74295000Y-82746000D01*
G37*
G36*
X75134000Y-82745000D02*
G01*
X75198000Y-82745000D01*
X75253000Y-82745000D01*
X75299000Y-82746000D01*
X75336000Y-82746000D01*
X75367000Y-82748000D01*
X75392000Y-82749000D01*
X75412000Y-82752000D01*
X75428000Y-82755000D01*
X75441000Y-82759000D01*
X75452000Y-82763000D01*
X75461000Y-82769000D01*
X75470000Y-82776000D01*
X75509000Y-82806000D01*
X75509000Y-83115000D01*
X75509000Y-83424000D01*
X75463000Y-83462000D01*
X75453000Y-83471000D01*
X75443000Y-83478000D01*
X75433000Y-83484000D01*
X75421000Y-83489000D01*
X75407000Y-83493000D01*
X75390000Y-83495000D01*
X75367000Y-83497000D01*
X75340000Y-83499000D01*
X75305000Y-83499000D01*
X75262000Y-83500000D01*
X75210000Y-83499000D01*
X75149000Y-83499000D01*
X75112000Y-83499000D01*
X75076000Y-83499000D01*
X75042000Y-83498000D01*
X75010000Y-83498000D01*
X74980000Y-83497000D01*
X74952000Y-83496000D01*
X74927000Y-83495000D01*
X74905000Y-83494000D01*
X74887000Y-83493000D01*
X74873000Y-83492000D01*
X74857000Y-83490000D01*
X74850000Y-83487000D01*
X74841000Y-83482000D01*
X74832000Y-83475000D01*
X74821000Y-83468000D01*
X74811000Y-83460000D01*
X74802000Y-83451000D01*
X74794000Y-83444000D01*
X74788000Y-83437000D01*
X74783000Y-83428000D01*
X74778000Y-83417000D01*
X74775000Y-83403000D01*
X74773000Y-83384000D01*
X74771000Y-83360000D01*
X74770000Y-83328000D01*
X74769000Y-83289000D01*
X74768000Y-83242000D01*
X74768000Y-83184000D01*
X74768000Y-83115000D01*
X74768000Y-83023000D01*
X74768000Y-82948000D01*
X74769000Y-82887000D01*
X74775000Y-82840000D01*
X74785000Y-82805000D01*
X74802000Y-82779000D01*
X74827000Y-82762000D01*
X74862000Y-82751000D01*
X74909000Y-82746000D01*
X74969000Y-82744000D01*
X75043000Y-82744000D01*
X75134000Y-82745000D01*
G37*
G36*
X70738000Y-82857000D02*
G01*
X70774000Y-82862000D01*
X70810000Y-82870000D01*
X70844000Y-82881000D01*
X70877000Y-82895000D01*
X70908000Y-82912000D01*
X70936000Y-82933000D01*
X70962000Y-82956000D01*
X70984000Y-82983000D01*
X71004000Y-83012000D01*
X71020000Y-83043000D01*
X71034000Y-83076000D01*
X71044000Y-83110000D01*
X71051000Y-83145000D01*
X71055000Y-83180000D01*
X71056000Y-83215000D01*
X71053000Y-83250000D01*
X71047000Y-83284000D01*
X71037000Y-83316000D01*
X71023000Y-83347000D01*
X71011000Y-83367000D01*
X70998000Y-83387000D01*
X70983000Y-83407000D01*
X70966000Y-83426000D01*
X70948000Y-83444000D01*
X70928000Y-83461000D01*
X70908000Y-83476000D01*
X70888000Y-83491000D01*
X70867000Y-83503000D01*
X70846000Y-83514000D01*
X70826000Y-83522000D01*
X70805000Y-83528000D01*
X70787000Y-83533000D01*
X70770000Y-83536000D01*
X70755000Y-83539000D01*
X70740000Y-83541000D01*
X70725000Y-83542000D01*
X70711000Y-83542000D01*
X70697000Y-83542000D01*
X70683000Y-83541000D01*
X70668000Y-83539000D01*
X70652000Y-83536000D01*
X70636000Y-83532000D01*
X70618000Y-83527000D01*
X70600000Y-83521000D01*
X70581000Y-83513000D01*
X70562000Y-83502000D01*
X70542000Y-83490000D01*
X70523000Y-83476000D01*
X70503000Y-83460000D01*
X70485000Y-83444000D01*
X70467000Y-83426000D01*
X70451000Y-83408000D01*
X70437000Y-83390000D01*
X70424000Y-83372000D01*
X70414000Y-83354000D01*
X70396000Y-83311000D01*
X70384000Y-83267000D01*
X70378000Y-83222000D01*
X70378000Y-83178000D01*
X70383000Y-83134000D01*
X70394000Y-83091000D01*
X70411000Y-83050000D01*
X70432000Y-83012000D01*
X70459000Y-82976000D01*
X70490000Y-82943000D01*
X70526000Y-82914000D01*
X70567000Y-82889000D01*
X70598000Y-82875000D01*
X70631000Y-82865000D01*
X70666000Y-82859000D01*
X70702000Y-82856000D01*
X70738000Y-82857000D01*
G37*
G36*
X72986000Y-82745000D02*
G01*
X73050000Y-82745000D01*
X73105000Y-82745000D01*
X73150000Y-82746000D01*
X73188000Y-82746000D01*
X73219000Y-82748000D01*
X73244000Y-82749000D01*
X73264000Y-82752000D01*
X73280000Y-82755000D01*
X73293000Y-82759000D01*
X73303000Y-82763000D01*
X73313000Y-82769000D01*
X73322000Y-82776000D01*
X73361000Y-82806000D01*
X73361000Y-83108000D01*
X73361000Y-83149000D01*
X73360000Y-83188000D01*
X73360000Y-83227000D01*
X73360000Y-83263000D01*
X73359000Y-83297000D01*
X73358000Y-83328000D01*
X73357000Y-83355000D01*
X73356000Y-83380000D01*
X73355000Y-83400000D01*
X73354000Y-83416000D01*
X73353000Y-83427000D01*
X73345000Y-83446000D01*
X73337000Y-83458000D01*
X73325000Y-83467000D01*
X73310000Y-83475000D01*
X73291000Y-83482000D01*
X73267000Y-83488000D01*
X73238000Y-83492000D01*
X73202000Y-83495000D01*
X73160000Y-83498000D01*
X73111000Y-83499000D01*
X73053000Y-83500000D01*
X72987000Y-83500000D01*
X72947000Y-83500000D01*
X72908000Y-83499000D01*
X72872000Y-83499000D01*
X72839000Y-83498000D01*
X72809000Y-83497000D01*
X72781000Y-83495000D01*
X72757000Y-83494000D01*
X72736000Y-83492000D01*
X72718000Y-83490000D01*
X72704000Y-83488000D01*
X72687000Y-83483000D01*
X72672000Y-83475000D01*
X72660000Y-83466000D01*
X72649000Y-83456000D01*
X72641000Y-83443000D01*
X72634000Y-83427000D01*
X72629000Y-83405000D01*
X72626000Y-83378000D01*
X72623000Y-83344000D01*
X72621000Y-83302000D01*
X72621000Y-83250000D01*
X72620000Y-83188000D01*
X72620000Y-83115000D01*
X72620000Y-83023000D01*
X72620000Y-82948000D01*
X72621000Y-82887000D01*
X72627000Y-82840000D01*
X72637000Y-82805000D01*
X72654000Y-82779000D01*
X72679000Y-82762000D01*
X72714000Y-82751000D01*
X72761000Y-82746000D01*
X72821000Y-82744000D01*
X72895000Y-82744000D01*
X72986000Y-82745000D01*
G37*
G36*
X82667000Y-77630000D02*
G01*
X82731000Y-77640000D01*
X82795000Y-77656000D01*
X82859000Y-77678000D01*
X82909000Y-77699000D01*
X82955000Y-77724000D01*
X82999000Y-77753000D01*
X83038000Y-77785000D01*
X83075000Y-77821000D01*
X83107000Y-77860000D01*
X83137000Y-77902000D01*
X83162000Y-77948000D01*
X83184000Y-77996000D01*
X83202000Y-78048000D01*
X83216000Y-78103000D01*
X83226000Y-78160000D01*
X83233000Y-78225000D01*
X83234000Y-78288000D01*
X83229000Y-78350000D01*
X83219000Y-78410000D01*
X83203000Y-78468000D01*
X83182000Y-78523000D01*
X83157000Y-78576000D01*
X83126000Y-78626000D01*
X83091000Y-78673000D01*
X83051000Y-78716000D01*
X83006000Y-78755000D01*
X82957000Y-78791000D01*
X82920000Y-78813000D01*
X82882000Y-78833000D01*
X82843000Y-78850000D01*
X82804000Y-78865000D01*
X82764000Y-78878000D01*
X82723000Y-78887000D01*
X82682000Y-78895000D01*
X82640000Y-78899000D01*
X82599000Y-78901000D01*
X82557000Y-78901000D01*
X82515000Y-78897000D01*
X82473000Y-78891000D01*
X82443000Y-78885000D01*
X82413000Y-78878000D01*
X82384000Y-78869000D01*
X82356000Y-78859000D01*
X82328000Y-78847000D01*
X82301000Y-78834000D01*
X82274000Y-78819000D01*
X82248000Y-78803000D01*
X82222000Y-78785000D01*
X82197000Y-78766000D01*
X82172000Y-78745000D01*
X82147000Y-78723000D01*
X82088000Y-78657000D01*
X82040000Y-78585000D01*
X82002000Y-78508000D01*
X81976000Y-78426000D01*
X81960000Y-78343000D01*
X81956000Y-78257000D01*
X81962000Y-78173000D01*
X81979000Y-78089000D01*
X82007000Y-78008000D01*
X82046000Y-77932000D01*
X82095000Y-77861000D01*
X82156000Y-77797000D01*
X82205000Y-77756000D01*
X82256000Y-77721000D01*
X82310000Y-77691000D01*
X82366000Y-77667000D01*
X82423000Y-77648000D01*
X82482000Y-77635000D01*
X82543000Y-77628000D01*
X82605000Y-77626000D01*
X82667000Y-77630000D01*
G37*
G36*
X72091000Y-82745000D02*
G01*
X72151000Y-82747000D01*
X72198000Y-82752000D01*
X72233000Y-82763000D01*
X72259000Y-82780000D01*
X72276000Y-82806000D01*
X72287000Y-82841000D01*
X72292000Y-82888000D01*
X72294000Y-82948000D01*
X72294000Y-83023000D01*
X72294000Y-83114000D01*
X72294000Y-83181000D01*
X72294000Y-83237000D01*
X72293000Y-83284000D01*
X72293000Y-83322000D01*
X72291000Y-83352000D01*
X72289000Y-83377000D01*
X72287000Y-83396000D01*
X72283000Y-83410000D01*
X72279000Y-83422000D01*
X72273000Y-83432000D01*
X72266000Y-83442000D01*
X72258000Y-83451000D01*
X72223000Y-83493000D01*
X71936000Y-83497000D01*
X71884000Y-83497000D01*
X71838000Y-83497000D01*
X71797000Y-83497000D01*
X71761000Y-83497000D01*
X71730000Y-83496000D01*
X71703000Y-83495000D01*
X71680000Y-83494000D01*
X71661000Y-83492000D01*
X71645000Y-83490000D01*
X71632000Y-83487000D01*
X71622000Y-83484000D01*
X71614000Y-83480000D01*
X71599000Y-83471000D01*
X71585000Y-83460000D01*
X71574000Y-83448000D01*
X71565000Y-83434000D01*
X71557000Y-83416000D01*
X71552000Y-83393000D01*
X71547000Y-83366000D01*
X71544000Y-83332000D01*
X71542000Y-83291000D01*
X71540000Y-83243000D01*
X71539000Y-83185000D01*
X71539000Y-83118000D01*
X71539000Y-83052000D01*
X71540000Y-82995000D01*
X71541000Y-82945000D01*
X71544000Y-82903000D01*
X71547000Y-82868000D01*
X71551000Y-82838000D01*
X71557000Y-82814000D01*
X71563000Y-82795000D01*
X71572000Y-82780000D01*
X71581000Y-82769000D01*
X71593000Y-82760000D01*
X71606000Y-82754000D01*
X71623000Y-82752000D01*
X71639000Y-82750000D01*
X71659000Y-82749000D01*
X71682000Y-82748000D01*
X71710000Y-82748000D01*
X71740000Y-82747000D01*
X71773000Y-82746000D01*
X71809000Y-82746000D01*
X71846000Y-82745000D01*
X71885000Y-82745000D01*
X71926000Y-82745000D01*
X72016000Y-82744000D01*
X72091000Y-82745000D01*
G37*
G36*
X82716000Y-79216000D02*
G01*
X82796000Y-79237000D01*
X82872000Y-79267000D01*
X82942000Y-79306000D01*
X83005000Y-79354000D01*
X83061000Y-79409000D01*
X83106000Y-79473000D01*
X83141000Y-79544000D01*
X83173000Y-79626000D01*
X83171000Y-81028000D01*
X83171000Y-81363000D01*
X83171000Y-81643000D01*
X83170000Y-81874000D01*
X83168000Y-82060000D01*
X83166000Y-82207000D01*
X83162000Y-82322000D01*
X83158000Y-82408000D01*
X83152000Y-82472000D01*
X83144000Y-82520000D01*
X83134000Y-82555000D01*
X83122000Y-82585000D01*
X83108000Y-82614000D01*
X83089000Y-82646000D01*
X83066000Y-82677000D01*
X83040000Y-82706000D01*
X83011000Y-82735000D01*
X82978000Y-82761000D01*
X82943000Y-82785000D01*
X82906000Y-82807000D01*
X82867000Y-82827000D01*
X82826000Y-82844000D01*
X82784000Y-82859000D01*
X82742000Y-82870000D01*
X82698000Y-82878000D01*
X82672000Y-82882000D01*
X82648000Y-82885000D01*
X82628000Y-82887000D01*
X82610000Y-82889000D01*
X82593000Y-82890000D01*
X82577000Y-82890000D01*
X82561000Y-82890000D01*
X82545000Y-82889000D01*
X82528000Y-82887000D01*
X82509000Y-82884000D01*
X82487000Y-82881000D01*
X82463000Y-82877000D01*
X82420000Y-82868000D01*
X82377000Y-82855000D01*
X82335000Y-82839000D01*
X82294000Y-82819000D01*
X82256000Y-82797000D01*
X82219000Y-82772000D01*
X82184000Y-82744000D01*
X82152000Y-82714000D01*
X82122000Y-82683000D01*
X82096000Y-82649000D01*
X82074000Y-82614000D01*
X82055000Y-82577000D01*
X82020000Y-82500000D01*
X82020000Y-81041000D01*
X82020000Y-79582000D01*
X82053000Y-79514000D01*
X82068000Y-79487000D01*
X82083000Y-79461000D01*
X82099000Y-79436000D01*
X82116000Y-79413000D01*
X82134000Y-79392000D01*
X82154000Y-79371000D01*
X82175000Y-79352000D01*
X82197000Y-79334000D01*
X82220000Y-79316000D01*
X82245000Y-79300000D01*
X82272000Y-79285000D01*
X82301000Y-79270000D01*
X82382000Y-79237000D01*
X82465000Y-79215000D01*
X82549000Y-79205000D01*
X82634000Y-79205000D01*
X82716000Y-79216000D01*
G37*
G36*
X92184000Y-77642000D02*
G01*
X92250000Y-77653000D01*
X92313000Y-77671000D01*
X92372000Y-77695000D01*
X92428000Y-77724000D01*
X92478000Y-77758000D01*
X92524000Y-77797000D01*
X92565000Y-77842000D01*
X92599000Y-77890000D01*
X92628000Y-77943000D01*
X92649000Y-77999000D01*
X92656000Y-78023000D01*
X92662000Y-78052000D01*
X92666000Y-78093000D01*
X92670000Y-78154000D01*
X92673000Y-78242000D01*
X92675000Y-78365000D01*
X92677000Y-78530000D01*
X92678000Y-78745000D01*
X92679000Y-79017000D01*
X92679000Y-79353000D01*
X92679000Y-79762000D01*
X92679000Y-80249000D01*
X92679000Y-80761000D01*
X92679000Y-81189000D01*
X92678000Y-81541000D01*
X92677000Y-81825000D01*
X92675000Y-82049000D01*
X92672000Y-82222000D01*
X92667000Y-82350000D01*
X92661000Y-82442000D01*
X92654000Y-82507000D01*
X92644000Y-82551000D01*
X92633000Y-82584000D01*
X92619000Y-82613000D01*
X92607000Y-82634000D01*
X92591000Y-82656000D01*
X92573000Y-82678000D01*
X92551000Y-82701000D01*
X92528000Y-82724000D01*
X92503000Y-82747000D01*
X92476000Y-82768000D01*
X92450000Y-82789000D01*
X92423000Y-82807000D01*
X92396000Y-82823000D01*
X92371000Y-82837000D01*
X92346000Y-82847000D01*
X92321000Y-82855000D01*
X92293000Y-82863000D01*
X92262000Y-82869000D01*
X92229000Y-82875000D01*
X92194000Y-82879000D01*
X92159000Y-82883000D01*
X92123000Y-82885000D01*
X92088000Y-82886000D01*
X92053000Y-82886000D01*
X92021000Y-82885000D01*
X91990000Y-82882000D01*
X91962000Y-82878000D01*
X91935000Y-82872000D01*
X91906000Y-82864000D01*
X91876000Y-82854000D01*
X91847000Y-82842000D01*
X91817000Y-82829000D01*
X91788000Y-82814000D01*
X91760000Y-82798000D01*
X91733000Y-82782000D01*
X91709000Y-82764000D01*
X91686000Y-82747000D01*
X91666000Y-82729000D01*
X91648000Y-82711000D01*
X91641000Y-82702000D01*
X91633000Y-82691000D01*
X91624000Y-82680000D01*
X91616000Y-82668000D01*
X91607000Y-82656000D01*
X91599000Y-82643000D01*
X91590000Y-82630000D01*
X91582000Y-82617000D01*
X91575000Y-82604000D01*
X91568000Y-82591000D01*
X91561000Y-82579000D01*
X91555000Y-82567000D01*
X91516000Y-82486000D01*
X91516000Y-80263000D01*
X91516000Y-78041000D01*
X91559000Y-77948000D01*
X91583000Y-77903000D01*
X91609000Y-77862000D01*
X91639000Y-77824000D01*
X91673000Y-77789000D01*
X91710000Y-77757000D01*
X91749000Y-77729000D01*
X91792000Y-77704000D01*
X91838000Y-77683000D01*
X91886000Y-77666000D01*
X91936000Y-77653000D01*
X91989000Y-77643000D01*
X92045000Y-77637000D01*
X92115000Y-77636000D01*
X92184000Y-77642000D01*
G37*
G36*
X80034000Y-79084000D02*
G01*
X80124000Y-79089000D01*
X80214000Y-79099000D01*
X80303000Y-79112000D01*
X80390000Y-79129000D01*
X80482000Y-79153000D01*
X80573000Y-79182000D01*
X80663000Y-79216000D01*
X80751000Y-79256000D01*
X80837000Y-79301000D01*
X80920000Y-79350000D01*
X81001000Y-79404000D01*
X81078000Y-79461000D01*
X81151000Y-79523000D01*
X81219000Y-79587000D01*
X81283000Y-79655000D01*
X81341000Y-79726000D01*
X81378000Y-79776000D01*
X81413000Y-79830000D01*
X81446000Y-79887000D01*
X81478000Y-79946000D01*
X81508000Y-80008000D01*
X81536000Y-80071000D01*
X81561000Y-80136000D01*
X81584000Y-80203000D01*
X81605000Y-80270000D01*
X81623000Y-80337000D01*
X81638000Y-80405000D01*
X81650000Y-80472000D01*
X81655000Y-80504000D01*
X81658000Y-80541000D01*
X81662000Y-80583000D01*
X81664000Y-80633000D01*
X81666000Y-80693000D01*
X81668000Y-80764000D01*
X81669000Y-80850000D01*
X81670000Y-80952000D01*
X81670000Y-81072000D01*
X81670000Y-81212000D01*
X81670000Y-81374000D01*
X81669000Y-81560000D01*
X81665000Y-82500000D01*
X81621000Y-82586000D01*
X81599000Y-82625000D01*
X81574000Y-82662000D01*
X81546000Y-82696000D01*
X81515000Y-82728000D01*
X81482000Y-82757000D01*
X81446000Y-82784000D01*
X81407000Y-82807000D01*
X81367000Y-82828000D01*
X81324000Y-82845000D01*
X81280000Y-82860000D01*
X81233000Y-82871000D01*
X81186000Y-82879000D01*
X81117000Y-82884000D01*
X81049000Y-82884000D01*
X80985000Y-82878000D01*
X80922000Y-82866000D01*
X80863000Y-82848000D01*
X80807000Y-82825000D01*
X80755000Y-82797000D01*
X80707000Y-82764000D01*
X80664000Y-82726000D01*
X80625000Y-82683000D01*
X80591000Y-82636000D01*
X80563000Y-82584000D01*
X80524000Y-82500000D01*
X80516000Y-81604000D01*
X80514000Y-81401000D01*
X80513000Y-81230000D01*
X80511000Y-81089000D01*
X80510000Y-80975000D01*
X80508000Y-80884000D01*
X80505000Y-80814000D01*
X80502000Y-80760000D01*
X80499000Y-80719000D01*
X80495000Y-80689000D01*
X80489000Y-80665000D01*
X80483000Y-80646000D01*
X80476000Y-80626000D01*
X80449000Y-80568000D01*
X80417000Y-80515000D01*
X80382000Y-80466000D01*
X80342000Y-80423000D01*
X80299000Y-80385000D01*
X80252000Y-80352000D01*
X80201000Y-80325000D01*
X80147000Y-80304000D01*
X80090000Y-80288000D01*
X80030000Y-80277000D01*
X79967000Y-80273000D01*
X79902000Y-80275000D01*
X79842000Y-80281000D01*
X79785000Y-80293000D01*
X79731000Y-80309000D01*
X79681000Y-80330000D01*
X79634000Y-80355000D01*
X79590000Y-80385000D01*
X79550000Y-80420000D01*
X79513000Y-80459000D01*
X79480000Y-80502000D01*
X79450000Y-80551000D01*
X79424000Y-80603000D01*
X79401000Y-80660000D01*
X79398000Y-80674000D01*
X79395000Y-80699000D01*
X79393000Y-80735000D01*
X79391000Y-80783000D01*
X79388000Y-80842000D01*
X79386000Y-80913000D01*
X79384000Y-80996000D01*
X79382000Y-81092000D01*
X79381000Y-81199000D01*
X79379000Y-81319000D01*
X79378000Y-81451000D01*
X79376000Y-81597000D01*
X79368000Y-82486000D01*
X79329000Y-82569000D01*
X79315000Y-82597000D01*
X79300000Y-82623000D01*
X79284000Y-82648000D01*
X79267000Y-82672000D01*
X79249000Y-82695000D01*
X79230000Y-82716000D01*
X79210000Y-82736000D01*
X79188000Y-82755000D01*
X79166000Y-82773000D01*
X79142000Y-82789000D01*
X79118000Y-82804000D01*
X79092000Y-82818000D01*
X79073000Y-82827000D01*
X79055000Y-82835000D01*
X79038000Y-82842000D01*
X79021000Y-82848000D01*
X79004000Y-82854000D01*
X78985000Y-82859000D01*
X78966000Y-82863000D01*
X78944000Y-82868000D01*
X78920000Y-82872000D01*
X78893000Y-82876000D01*
X78862000Y-82879000D01*
X78827000Y-82884000D01*
X78814000Y-82884000D01*
X78805000Y-82884000D01*
X78795000Y-82884000D01*
X78784000Y-82884000D01*
X78772000Y-82883000D01*
X78759000Y-82883000D01*
X78746000Y-82882000D01*
X78732000Y-82881000D01*
X78719000Y-82880000D01*
X78705000Y-82878000D01*
X78691000Y-82877000D01*
X78659000Y-82873000D01*
X78628000Y-82867000D01*
X78598000Y-82859000D01*
X78569000Y-82850000D01*
X78540000Y-82840000D01*
X78513000Y-82828000D01*
X78486000Y-82814000D01*
X78460000Y-82799000D01*
X78435000Y-82783000D01*
X78411000Y-82765000D01*
X78388000Y-82745000D01*
X78366000Y-82724000D01*
X78346000Y-82704000D01*
X78327000Y-82683000D01*
X78310000Y-82661000D01*
X78295000Y-82639000D01*
X78281000Y-82617000D01*
X78269000Y-82594000D01*
X78257000Y-82571000D01*
X78248000Y-82547000D01*
X78239000Y-82521000D01*
X78231000Y-82495000D01*
X78225000Y-82468000D01*
X78220000Y-82439000D01*
X78215000Y-82384000D01*
X78212000Y-82281000D01*
X78209000Y-82138000D01*
X78207000Y-81965000D01*
X78206000Y-81772000D01*
X78206000Y-81568000D01*
X78206000Y-81361000D01*
X78207000Y-81161000D01*
X78209000Y-80977000D01*
X78212000Y-80818000D01*
X78215000Y-80694000D01*
X78220000Y-80614000D01*
X78230000Y-80514000D01*
X78245000Y-80418000D01*
X78265000Y-80325000D01*
X78289000Y-80234000D01*
X78318000Y-80147000D01*
X78351000Y-80063000D01*
X78390000Y-79981000D01*
X78432000Y-79902000D01*
X78480000Y-79826000D01*
X78533000Y-79752000D01*
X78590000Y-79680000D01*
X78652000Y-79610000D01*
X78701000Y-79561000D01*
X78751000Y-79514000D01*
X78802000Y-79470000D01*
X78854000Y-79428000D01*
X78908000Y-79389000D01*
X78963000Y-79353000D01*
X79020000Y-79318000D01*
X79079000Y-79286000D01*
X79140000Y-79256000D01*
X79204000Y-79228000D01*
X79270000Y-79201000D01*
X79339000Y-79177000D01*
X79418000Y-79152000D01*
X79501000Y-79131000D01*
X79586000Y-79114000D01*
X79673000Y-79100000D01*
X79762000Y-79090000D01*
X79852000Y-79084000D01*
X79943000Y-79082000D01*
X80034000Y-79084000D01*
G37*
G36*
X87316000Y-81024000D02*
G01*
X87310000Y-81178000D01*
X87293000Y-81330000D01*
X87263000Y-81479000D01*
X87223000Y-81625000D01*
X87172000Y-81768000D01*
X87110000Y-81906000D01*
X87039000Y-82039000D01*
X86957000Y-82165000D01*
X86867000Y-82285000D01*
X86767000Y-82398000D01*
X86658000Y-82502000D01*
X86542000Y-82598000D01*
X86486000Y-82638000D01*
X86426000Y-82677000D01*
X86364000Y-82714000D01*
X86298000Y-82749000D01*
X86230000Y-82783000D01*
X86160000Y-82814000D01*
X86089000Y-82843000D01*
X86018000Y-82870000D01*
X85946000Y-82894000D01*
X85874000Y-82914000D01*
X85803000Y-82932000D01*
X85734000Y-82946000D01*
X85684000Y-82953000D01*
X85630000Y-82960000D01*
X85573000Y-82965000D01*
X85512000Y-82970000D01*
X85449000Y-82973000D01*
X85386000Y-82975000D01*
X85322000Y-82975000D01*
X85260000Y-82975000D01*
X85200000Y-82973000D01*
X85143000Y-82970000D01*
X85091000Y-82966000D01*
X85044000Y-82960000D01*
X84877000Y-82929000D01*
X84717000Y-82884000D01*
X84565000Y-82828000D01*
X84420000Y-82758000D01*
X84285000Y-82678000D01*
X84159000Y-82586000D01*
X84043000Y-82484000D01*
X83938000Y-82372000D01*
X83844000Y-82250000D01*
X83762000Y-82119000D01*
X83693000Y-81980000D01*
X83638000Y-81834000D01*
X83618000Y-81770000D01*
X83601000Y-81712000D01*
X83587000Y-81652000D01*
X83576000Y-81585000D01*
X83567000Y-81503000D01*
X83561000Y-81401000D01*
X83556000Y-81271000D01*
X83552000Y-81109000D01*
X83550360Y-80998000D01*
X84676000Y-80998000D01*
X84676000Y-81025000D01*
X84676000Y-81056000D01*
X84678000Y-81129000D01*
X84686000Y-81198000D01*
X84698000Y-81263000D01*
X84714000Y-81325000D01*
X84736000Y-81382000D01*
X84762000Y-81436000D01*
X84793000Y-81486000D01*
X84828000Y-81532000D01*
X84868000Y-81574000D01*
X84913000Y-81612000D01*
X84962000Y-81646000D01*
X85017000Y-81677000D01*
X85054000Y-81694000D01*
X85094000Y-81709000D01*
X85136000Y-81721000D01*
X85181000Y-81732000D01*
X85226000Y-81740000D01*
X85273000Y-81746000D01*
X85320000Y-81749000D01*
X85368000Y-81750000D01*
X85415000Y-81749000D01*
X85462000Y-81745000D01*
X85508000Y-81738000D01*
X85552000Y-81729000D01*
X85614000Y-81712000D01*
X85673000Y-81688000D01*
X85729000Y-81660000D01*
X85782000Y-81626000D01*
X85832000Y-81588000D01*
X85878000Y-81546000D01*
X85920000Y-81500000D01*
X85957000Y-81450000D01*
X85990000Y-81397000D01*
X86017000Y-81341000D01*
X86039000Y-81283000D01*
X86055000Y-81222000D01*
X86060000Y-81193000D01*
X86065000Y-81162000D01*
X86068000Y-81128000D01*
X86070000Y-81092000D01*
X86071000Y-81055000D01*
X86071000Y-81018000D01*
X86070000Y-80981000D01*
X86068000Y-80945000D01*
X86065000Y-80910000D01*
X86062000Y-80878000D01*
X86057000Y-80849000D01*
X86051000Y-80824000D01*
X86027000Y-80750000D01*
X85996000Y-80682000D01*
X85958000Y-80618000D01*
X85914000Y-80561000D01*
X85863000Y-80509000D01*
X85807000Y-80463000D01*
X85745000Y-80423000D01*
X85678000Y-80390000D01*
X85607000Y-80364000D01*
X85531000Y-80345000D01*
X85451000Y-80334000D01*
X85368000Y-80330000D01*
X85290000Y-80333000D01*
X85215000Y-80343000D01*
X85145000Y-80360000D01*
X85079000Y-80383000D01*
X85017000Y-80412000D01*
X84960000Y-80448000D01*
X84907000Y-80490000D01*
X84859000Y-80538000D01*
X84815000Y-80592000D01*
X84776000Y-80652000D01*
X84743000Y-80718000D01*
X84714000Y-80790000D01*
X84706000Y-80812000D01*
X84700000Y-80833000D01*
X84694000Y-80852000D01*
X84690000Y-80871000D01*
X84686000Y-80890000D01*
X84683000Y-80909000D01*
X84680000Y-80929000D01*
X84678000Y-80950000D01*
X84677000Y-80973000D01*
X84676000Y-80998000D01*
X83550360Y-80998000D01*
X83549000Y-80906000D01*
X83547000Y-80658000D01*
X83546000Y-80357000D01*
X83544000Y-79997000D01*
X83544000Y-79800000D01*
X83543000Y-79606000D01*
X83543000Y-79417000D01*
X83543000Y-79235000D01*
X83543000Y-79063000D01*
X83544000Y-78901000D01*
X83545000Y-78753000D01*
X83546000Y-78621000D01*
X83547000Y-78505000D01*
X83548000Y-78410000D01*
X83549000Y-78336000D01*
X83551000Y-78286000D01*
X83554000Y-78229000D01*
X83556000Y-78180000D01*
X83559000Y-78138000D01*
X83561000Y-78102000D01*
X83564000Y-78071000D01*
X83567000Y-78045000D01*
X83571000Y-78022000D01*
X83575000Y-78003000D01*
X83580000Y-77985000D01*
X83585000Y-77969000D01*
X83591000Y-77953000D01*
X83599000Y-77937000D01*
X83632000Y-77880000D01*
X83672000Y-77828000D01*
X83719000Y-77781000D01*
X83772000Y-77740000D01*
X83830000Y-77706000D01*
X83893000Y-77678000D01*
X83960000Y-77657000D01*
X84030000Y-77643000D01*
X84102000Y-77636000D01*
X84175000Y-77637000D01*
X84250000Y-77646000D01*
X84324000Y-77663000D01*
X84347000Y-77670000D01*
X84371000Y-77680000D01*
X84396000Y-77692000D01*
X84421000Y-77705000D01*
X84446000Y-77720000D01*
X84470000Y-77736000D01*
X84494000Y-77753000D01*
X84517000Y-77771000D01*
X84538000Y-77789000D01*
X84558000Y-77808000D01*
X84576000Y-77826000D01*
X84591000Y-77845000D01*
X84614000Y-77877000D01*
X84634000Y-77906000D01*
X84650000Y-77935000D01*
X84663000Y-77967000D01*
X84673000Y-78003000D01*
X84681000Y-78048000D01*
X84687000Y-78103000D01*
X84691000Y-78171000D01*
X84693000Y-78255000D01*
X84695000Y-78357000D01*
X84695000Y-78480000D01*
X84696000Y-78627000D01*
X84696000Y-78704000D01*
X84696000Y-78780000D01*
X84697000Y-78853000D01*
X84697000Y-78922000D01*
X84698000Y-78987000D01*
X84699000Y-79047000D01*
X84699000Y-79101000D01*
X84700000Y-79149000D01*
X84701000Y-79189000D01*
X84702000Y-79221000D01*
X84703000Y-79244000D01*
X84704000Y-79258000D01*
X84712000Y-79319000D01*
X84833000Y-79264000D01*
X84896000Y-79236000D01*
X84958000Y-79210000D01*
X85018000Y-79188000D01*
X85076000Y-79168000D01*
X85134000Y-79152000D01*
X85192000Y-79137000D01*
X85250000Y-79126000D01*
X85309000Y-79116000D01*
X85369000Y-79109000D01*
X85430000Y-79104000D01*
X85494000Y-79101000D01*
X85560000Y-79100000D01*
X85676000Y-79104000D01*
X85788000Y-79114000D01*
X85898000Y-79131000D01*
X86004000Y-79155000D01*
X86108000Y-79185000D01*
X86208000Y-79223000D01*
X86306000Y-79268000D01*
X86401000Y-79319000D01*
X86494000Y-79377000D01*
X86584000Y-79443000D01*
X86672000Y-79515000D01*
X86757000Y-79595000D01*
X86844000Y-79687000D01*
X86924000Y-79786000D01*
X86997000Y-79889000D01*
X87063000Y-79998000D01*
X87121000Y-80112000D01*
X87172000Y-80231000D01*
X87216000Y-80354000D01*
X87251000Y-80481000D01*
X87280000Y-80611000D01*
X87300000Y-80746000D01*
X87312000Y-80884000D01*
X87316000Y-81018000D01*
X87316000Y-81024000D01*
G37*
G36*
X96710000Y-80745000D02*
G01*
X96716000Y-80799000D01*
X96718000Y-80850000D01*
X96718000Y-80897000D01*
X96715000Y-80941000D01*
X96708000Y-80982000D01*
X96699000Y-81022000D01*
X96686000Y-81060000D01*
X96671000Y-81098000D01*
X96653000Y-81135000D01*
X96641000Y-81156000D01*
X96628000Y-81175000D01*
X96615000Y-81193000D01*
X96602000Y-81210000D01*
X96587000Y-81226000D01*
X96571000Y-81241000D01*
X96553000Y-81256000D01*
X96535000Y-81269000D01*
X96514000Y-81283000D01*
X96492000Y-81296000D01*
X96468000Y-81308000D01*
X96442000Y-81321000D01*
X96361000Y-81360000D01*
X95227000Y-81367000D01*
X94094000Y-81374000D01*
X94098000Y-81411000D01*
X94101000Y-81425000D01*
X94103000Y-81433000D01*
X94106000Y-81443000D01*
X94110000Y-81453000D01*
X94114000Y-81465000D01*
X94118000Y-81476000D01*
X94123000Y-81489000D01*
X94129000Y-81502000D01*
X94135000Y-81514000D01*
X94140000Y-81527000D01*
X94147000Y-81540000D01*
X94169000Y-81581000D01*
X94197000Y-81621000D01*
X94229000Y-81660000D01*
X94265000Y-81697000D01*
X94305000Y-81732000D01*
X94347000Y-81765000D01*
X94393000Y-81795000D01*
X94441000Y-81823000D01*
X94490000Y-81847000D01*
X94541000Y-81868000D01*
X94594000Y-81885000D01*
X94647000Y-81899000D01*
X94679000Y-81905000D01*
X94714000Y-81909000D01*
X94752000Y-81912000D01*
X94791000Y-81914000D01*
X94831000Y-81915000D01*
X94872000Y-81914000D01*
X94913000Y-81913000D01*
X94953000Y-81910000D01*
X94993000Y-81905000D01*
X95031000Y-81900000D01*
X95067000Y-81893000D01*
X95101000Y-81886000D01*
X95118000Y-81881000D01*
X95137000Y-81875000D01*
X95156000Y-81869000D01*
X95177000Y-81861000D01*
X95199000Y-81853000D01*
X95220000Y-81844000D01*
X95243000Y-81835000D01*
X95264000Y-81826000D01*
X95286000Y-81816000D01*
X95307000Y-81806000D01*
X95326000Y-81796000D01*
X95344000Y-81787000D01*
X95407000Y-81753000D01*
X95459000Y-81725000D01*
X95503000Y-81701000D01*
X95539000Y-81683000D01*
X95569000Y-81669000D01*
X95595000Y-81658000D01*
X95618000Y-81651000D01*
X95640000Y-81646000D01*
X95661000Y-81643000D01*
X95684000Y-81642000D01*
X95709000Y-81641000D01*
X95739000Y-81642000D01*
X95773000Y-81643000D01*
X95807000Y-81645000D01*
X95839000Y-81650000D01*
X95870000Y-81656000D01*
X95900000Y-81665000D01*
X95929000Y-81675000D01*
X95957000Y-81688000D01*
X95985000Y-81702000D01*
X96012000Y-81719000D01*
X96039000Y-81737000D01*
X96066000Y-81758000D01*
X96092000Y-81782000D01*
X96128000Y-81819000D01*
X96159000Y-81859000D01*
X96185000Y-81903000D01*
X96206000Y-81949000D01*
X96222000Y-81997000D01*
X96233000Y-82047000D01*
X96239000Y-82098000D01*
X96240000Y-82150000D01*
X96236000Y-82202000D01*
X96226000Y-82253000D01*
X96210000Y-82304000D01*
X96190000Y-82354000D01*
X96154000Y-82414000D01*
X96105000Y-82475000D01*
X96044000Y-82535000D01*
X95972000Y-82594000D01*
X95891000Y-82651000D01*
X95801000Y-82706000D01*
X95704000Y-82757000D01*
X95601000Y-82805000D01*
X95494000Y-82848000D01*
X95382000Y-82886000D01*
X95269000Y-82919000D01*
X95153000Y-82944000D01*
X95112000Y-82951000D01*
X95063000Y-82957000D01*
X95008000Y-82963000D01*
X94948000Y-82967000D01*
X94886000Y-82971000D01*
X94822000Y-82973000D01*
X94758000Y-82975000D01*
X94696000Y-82976000D01*
X94637000Y-82975000D01*
X94582000Y-82974000D01*
X94533000Y-82971000D01*
X94491000Y-82967000D01*
X94405000Y-82954000D01*
X94320000Y-82937000D01*
X94236000Y-82916000D01*
X94154000Y-82891000D01*
X94073000Y-82863000D01*
X93993000Y-82830000D01*
X93915000Y-82794000D01*
X93839000Y-82754000D01*
X93765000Y-82711000D01*
X93693000Y-82664000D01*
X93622000Y-82614000D01*
X93555000Y-82560000D01*
X93475000Y-82489000D01*
X93401000Y-82415000D01*
X93331000Y-82336000D01*
X93266000Y-82253000D01*
X93205000Y-82165000D01*
X93150000Y-82074000D01*
X93099000Y-81979000D01*
X93054000Y-81880000D01*
X93013000Y-81777000D01*
X92977000Y-81670000D01*
X92947000Y-81559000D01*
X92921000Y-81445000D01*
X92912000Y-81391000D01*
X92905000Y-81330000D01*
X92900000Y-81262000D01*
X92896000Y-81190000D01*
X92895000Y-81115000D01*
X92895000Y-81038000D01*
X92896000Y-80962000D01*
X92900000Y-80886000D01*
X92905000Y-80814000D01*
X92911000Y-80745000D01*
X92918403Y-80694000D01*
X94094000Y-80694000D01*
X94096000Y-80704000D01*
X94104000Y-80706000D01*
X94124000Y-80707000D01*
X94156000Y-80708000D01*
X94199000Y-80710000D01*
X94251000Y-80711000D01*
X94313000Y-80712000D01*
X94382000Y-80713000D01*
X94459000Y-80714000D01*
X94543000Y-80714000D01*
X94632000Y-80715000D01*
X94725000Y-80715000D01*
X94823000Y-80715000D01*
X95542000Y-80715000D01*
X95534000Y-80672000D01*
X95529000Y-80652000D01*
X95522000Y-80631000D01*
X95514000Y-80609000D01*
X95505000Y-80587000D01*
X95494000Y-80565000D01*
X95482000Y-80542000D01*
X95469000Y-80520000D01*
X95455000Y-80497000D01*
X95439000Y-80475000D01*
X95423000Y-80453000D01*
X95406000Y-80432000D01*
X95388000Y-80412000D01*
X95350000Y-80373000D01*
X95312000Y-80338000D01*
X95272000Y-80307000D01*
X95231000Y-80279000D01*
X95188000Y-80255000D01*
X95144000Y-80235000D01*
X95097000Y-80218000D01*
X95048000Y-80205000D01*
X94996000Y-80195000D01*
X94941000Y-80188000D01*
X94882000Y-80183000D01*
X94820000Y-80182000D01*
X94760000Y-80184000D01*
X94702000Y-80188000D01*
X94647000Y-80195000D01*
X94596000Y-80206000D01*
X94546000Y-80219000D01*
X94499000Y-80236000D01*
X94454000Y-80257000D01*
X94411000Y-80280000D01*
X94369000Y-80308000D01*
X94329000Y-80339000D01*
X94290000Y-80373000D01*
X94252000Y-80412000D01*
X94231000Y-80435000D01*
X94211000Y-80461000D01*
X94191000Y-80490000D01*
X94171000Y-80519000D01*
X94153000Y-80549000D01*
X94137000Y-80579000D01*
X94122000Y-80607000D01*
X94110000Y-80634000D01*
X94101000Y-80658000D01*
X94096000Y-80678000D01*
X94094000Y-80694000D01*
X92918403Y-80694000D01*
X92920000Y-80683000D01*
X92930000Y-80628000D01*
X92953000Y-80527000D01*
X92980000Y-80430000D01*
X93011000Y-80336000D01*
X93045000Y-80246000D01*
X93083000Y-80159000D01*
X93124000Y-80074000D01*
X93170000Y-79993000D01*
X93219000Y-79915000D01*
X93273000Y-79839000D01*
X93331000Y-79765000D01*
X93393000Y-79694000D01*
X93459000Y-79625000D01*
X93577000Y-79517000D01*
X93703000Y-79421000D01*
X93837000Y-79336000D01*
X93978000Y-79263000D01*
X94125000Y-79201000D01*
X94277000Y-79152000D01*
X94433000Y-79115000D01*
X94593000Y-79091000D01*
X94757000Y-79080000D01*
X94922000Y-79081000D01*
X95089000Y-79096000D01*
X95257000Y-79124000D01*
X95434000Y-79169000D01*
X95602000Y-79230000D01*
X95762000Y-79307000D01*
X95911000Y-79397000D01*
X96051000Y-79501000D01*
X96179000Y-79618000D01*
X96295000Y-79748000D01*
X96399000Y-79888000D01*
X96490000Y-80040000D01*
X96567000Y-80202000D01*
X96629000Y-80373000D01*
X96677000Y-80553000D01*
X96691000Y-80622000D01*
X96702000Y-80686000D01*
X96706000Y-80715000D01*
X96710000Y-80745000D01*
G37*
G36*
X91295000Y-81123000D02*
G01*
X91287000Y-81228000D01*
X91273000Y-81334000D01*
X91255000Y-81438000D01*
X91231000Y-81542000D01*
X91202000Y-81644000D01*
X91168000Y-81744000D01*
X91129000Y-81841000D01*
X91086000Y-81934000D01*
X91039000Y-82023000D01*
X90988000Y-82108000D01*
X90951000Y-82162000D01*
X90912000Y-82216000D01*
X90870000Y-82269000D01*
X90827000Y-82320000D01*
X90783000Y-82371000D01*
X90737000Y-82419000D01*
X90690000Y-82466000D01*
X90642000Y-82511000D01*
X90593000Y-82554000D01*
X90544000Y-82594000D01*
X90495000Y-82631000D01*
X90445000Y-82666000D01*
X90396000Y-82697000D01*
X90341000Y-82728000D01*
X90283000Y-82758000D01*
X90222000Y-82787000D01*
X90159000Y-82815000D01*
X90094000Y-82842000D01*
X90028000Y-82866000D01*
X89962000Y-82889000D01*
X89896000Y-82909000D01*
X89832000Y-82927000D01*
X89770000Y-82941000D01*
X89711000Y-82952000D01*
X89674000Y-82957000D01*
X89629000Y-82962000D01*
X89578000Y-82966000D01*
X89522000Y-82969000D01*
X89463000Y-82972000D01*
X89403000Y-82974000D01*
X89344000Y-82975000D01*
X89286000Y-82975000D01*
X89232000Y-82974000D01*
X89184000Y-82973000D01*
X89142000Y-82970000D01*
X89109000Y-82967000D01*
X89005000Y-82950000D01*
X88906000Y-82930000D01*
X88810000Y-82906000D01*
X88718000Y-82879000D01*
X88629000Y-82847000D01*
X88543000Y-82812000D01*
X88461000Y-82773000D01*
X88381000Y-82729000D01*
X88304000Y-82682000D01*
X88230000Y-82630000D01*
X88158000Y-82574000D01*
X88088000Y-82513000D01*
X88037000Y-82464000D01*
X87987000Y-82410000D01*
X87940000Y-82352000D01*
X87894000Y-82291000D01*
X87850000Y-82227000D01*
X87809000Y-82162000D01*
X87772000Y-82094000D01*
X87737000Y-82026000D01*
X87707000Y-81958000D01*
X87681000Y-81890000D01*
X87659000Y-81823000D01*
X87643000Y-81758000D01*
X87630000Y-81695000D01*
X87619000Y-81632000D01*
X87610000Y-81562000D01*
X87603000Y-81480000D01*
X87597000Y-81381000D01*
X87592000Y-81258000D01*
X87589039Y-81108000D01*
X88685000Y-81108000D01*
X88694000Y-81199000D01*
X88713000Y-81285000D01*
X88742000Y-81365000D01*
X88779000Y-81440000D01*
X88826000Y-81508000D01*
X88881000Y-81569000D01*
X88944000Y-81622000D01*
X89015000Y-81667000D01*
X89094000Y-81703000D01*
X89180000Y-81729000D01*
X89205000Y-81735000D01*
X89232000Y-81740000D01*
X89259000Y-81744000D01*
X89287000Y-81747000D01*
X89314000Y-81749000D01*
X89342000Y-81750000D01*
X89370000Y-81750000D01*
X89398000Y-81750000D01*
X89425000Y-81748000D01*
X89452000Y-81746000D01*
X89478000Y-81743000D01*
X89504000Y-81738000D01*
X89538000Y-81731000D01*
X89571000Y-81723000D01*
X89602000Y-81714000D01*
X89632000Y-81704000D01*
X89660000Y-81693000D01*
X89688000Y-81680000D01*
X89714000Y-81667000D01*
X89740000Y-81652000D01*
X89765000Y-81636000D01*
X89789000Y-81618000D01*
X89813000Y-81599000D01*
X89836000Y-81578000D01*
X89874000Y-81541000D01*
X89908000Y-81504000D01*
X89938000Y-81466000D01*
X89964000Y-81427000D01*
X89987000Y-81387000D01*
X90006000Y-81345000D01*
X90022000Y-81301000D01*
X90035000Y-81255000D01*
X90045000Y-81206000D01*
X90052000Y-81155000D01*
X90056000Y-81101000D01*
X90057000Y-81043000D01*
X90056000Y-80987000D01*
X90052000Y-80933000D01*
X90046000Y-80883000D01*
X90038000Y-80835000D01*
X90027000Y-80790000D01*
X90013000Y-80748000D01*
X89996000Y-80707000D01*
X89977000Y-80668000D01*
X89954000Y-80630000D01*
X89928000Y-80594000D01*
X89899000Y-80558000D01*
X89866000Y-80523000D01*
X89833000Y-80491000D01*
X89799000Y-80462000D01*
X89763000Y-80436000D01*
X89727000Y-80413000D01*
X89689000Y-80393000D01*
X89650000Y-80376000D01*
X89609000Y-80361000D01*
X89566000Y-80349000D01*
X89522000Y-80340000D01*
X89475000Y-80334000D01*
X89427000Y-80330000D01*
X89376000Y-80328000D01*
X89324000Y-80329000D01*
X89275000Y-80334000D01*
X89226000Y-80341000D01*
X89180000Y-80351000D01*
X89135000Y-80363000D01*
X89092000Y-80379000D01*
X89051000Y-80398000D01*
X89012000Y-80419000D01*
X88974000Y-80443000D01*
X88938000Y-80470000D01*
X88904000Y-80500000D01*
X88872000Y-80533000D01*
X88849000Y-80559000D01*
X88828000Y-80585000D01*
X88809000Y-80613000D01*
X88791000Y-80641000D01*
X88774000Y-80671000D01*
X88760000Y-80701000D01*
X88746000Y-80733000D01*
X88734000Y-80766000D01*
X88723000Y-80800000D01*
X88713000Y-80837000D01*
X88705000Y-80875000D01*
X88697000Y-80914000D01*
X88686000Y-81013000D01*
X88685000Y-81108000D01*
X87589039Y-81108000D01*
X87589000Y-81106000D01*
X87586000Y-80920000D01*
X87585000Y-80693000D01*
X87584000Y-80421000D01*
X87583000Y-80098000D01*
X87583000Y-79717000D01*
X87583000Y-79320000D01*
X87583000Y-78991000D01*
X87584000Y-78721000D01*
X87586000Y-78506000D01*
X87588000Y-78337000D01*
X87592000Y-78209000D01*
X87598000Y-78113000D01*
X87606000Y-78044000D01*
X87616000Y-77995000D01*
X87629000Y-77958000D01*
X87644000Y-77927000D01*
X87663000Y-77895000D01*
X87697000Y-77844000D01*
X87739000Y-77799000D01*
X87786000Y-77759000D01*
X87839000Y-77723000D01*
X87897000Y-77694000D01*
X87958000Y-77670000D01*
X88023000Y-77652000D01*
X88090000Y-77641000D01*
X88159000Y-77636000D01*
X88229000Y-77638000D01*
X88299000Y-77647000D01*
X88368000Y-77663000D01*
X88392000Y-77670000D01*
X88416000Y-77680000D01*
X88441000Y-77692000D01*
X88466000Y-77705000D01*
X88491000Y-77720000D01*
X88516000Y-77737000D01*
X88540000Y-77754000D01*
X88563000Y-77772000D01*
X88584000Y-77791000D01*
X88604000Y-77810000D01*
X88622000Y-77829000D01*
X88638000Y-77849000D01*
X88661000Y-77879000D01*
X88680000Y-77908000D01*
X88696000Y-77936000D01*
X88708000Y-77968000D01*
X88718000Y-78006000D01*
X88725000Y-78052000D01*
X88731000Y-78110000D01*
X88735000Y-78183000D01*
X88737000Y-78272000D01*
X88738000Y-78382000D01*
X88739000Y-78514000D01*
X88739000Y-78673000D01*
X88739000Y-78756000D01*
X88739000Y-78836000D01*
X88740000Y-78913000D01*
X88740000Y-78984000D01*
X88741000Y-79050000D01*
X88741000Y-79110000D01*
X88742000Y-79163000D01*
X88743000Y-79208000D01*
X88744000Y-79244000D01*
X88744000Y-79272000D01*
X88745000Y-79289000D01*
X88748000Y-79296000D01*
X88758000Y-79294000D01*
X88765000Y-79291000D01*
X88774000Y-79288000D01*
X88785000Y-79284000D01*
X88796000Y-79279000D01*
X88809000Y-79274000D01*
X88823000Y-79267000D01*
X88837000Y-79261000D01*
X88852000Y-79254000D01*
X88868000Y-79246000D01*
X88914000Y-79225000D01*
X88960000Y-79206000D01*
X89008000Y-79188000D01*
X89056000Y-79172000D01*
X89105000Y-79158000D01*
X89155000Y-79145000D01*
X89206000Y-79135000D01*
X89258000Y-79125000D01*
X89312000Y-79118000D01*
X89367000Y-79112000D01*
X89423000Y-79107000D01*
X89482000Y-79104000D01*
X89562000Y-79102000D01*
X89638000Y-79103000D01*
X89711000Y-79107000D01*
X89781000Y-79113000D01*
X89850000Y-79123000D01*
X89917000Y-79135000D01*
X89983000Y-79151000D01*
X90048000Y-79170000D01*
X90114000Y-79193000D01*
X90181000Y-79219000D01*
X90249000Y-79250000D01*
X90319000Y-79283000D01*
X90361000Y-79305000D01*
X90401000Y-79327000D01*
X90440000Y-79350000D01*
X90477000Y-79373000D01*
X90514000Y-79398000D01*
X90550000Y-79424000D01*
X90585000Y-79451000D01*
X90620000Y-79479000D01*
X90655000Y-79509000D01*
X90690000Y-79542000D01*
X90726000Y-79576000D01*
X90763000Y-79612000D01*
X90842000Y-79698000D01*
X90914000Y-79787000D01*
X90980000Y-79880000D01*
X91040000Y-79977000D01*
X91093000Y-80078000D01*
X91140000Y-80183000D01*
X91181000Y-80293000D01*
X91216000Y-80407000D01*
X91244000Y-80526000D01*
X91267000Y-80651000D01*
X91284000Y-80780000D01*
X91295000Y-80915000D01*
X91298000Y-81019000D01*
X91297000Y-81043000D01*
X91295000Y-81123000D01*
G37*
G36*
X77531000Y-80426000D02*
G01*
X77531000Y-80921000D01*
X77531000Y-81355000D01*
X77530000Y-81731000D01*
X77530000Y-82054000D01*
X77529000Y-82327000D01*
X77527000Y-82554000D01*
X77526000Y-82739000D01*
X77524000Y-82885000D01*
X77521000Y-82996000D01*
X77519000Y-83077000D01*
X77515000Y-83130000D01*
X77512000Y-83160000D01*
X77479000Y-83295000D01*
X77435000Y-83425000D01*
X77381000Y-83550000D01*
X77317000Y-83669000D01*
X77244000Y-83781000D01*
X77162000Y-83887000D01*
X77071000Y-83984000D01*
X76972000Y-84074000D01*
X76866000Y-84154000D01*
X76753000Y-84226000D01*
X76633000Y-84288000D01*
X76507000Y-84339000D01*
X76445000Y-84362000D01*
X76389000Y-84381000D01*
X76329000Y-84396000D01*
X76254000Y-84408000D01*
X76152000Y-84418000D01*
X76012000Y-84424000D01*
X75824000Y-84429000D01*
X75575000Y-84433000D01*
X75255000Y-84435000D01*
X74852000Y-84436000D01*
X74355000Y-84437000D01*
X73753000Y-84438000D01*
X73428000Y-84438000D01*
X73111000Y-84438000D01*
X72804000Y-84438000D01*
X72511000Y-84438000D01*
X72236000Y-84438000D01*
X71982000Y-84438000D01*
X71751000Y-84437000D01*
X71548000Y-84436000D01*
X71375000Y-84436000D01*
X71236000Y-84435000D01*
X71134000Y-84434000D01*
X71072000Y-84432000D01*
X70997000Y-84430000D01*
X70929000Y-84427000D01*
X70870000Y-84423000D01*
X70816000Y-84419000D01*
X70767000Y-84413000D01*
X70721000Y-84407000D01*
X70678000Y-84398000D01*
X70637000Y-84389000D01*
X70595000Y-84377000D01*
X70553000Y-84363000D01*
X70508000Y-84347000D01*
X70460000Y-84328000D01*
X70373000Y-84291000D01*
X70288000Y-84248000D01*
X70205000Y-84199000D01*
X70124000Y-84145000D01*
X70047000Y-84087000D01*
X69972000Y-84025000D01*
X69902000Y-83959000D01*
X69836000Y-83890000D01*
X69776000Y-83818000D01*
X69720000Y-83745000D01*
X69671000Y-83669000D01*
X69629000Y-83592000D01*
X69612000Y-83556000D01*
X69594000Y-83517000D01*
X69577000Y-83474000D01*
X69560000Y-83430000D01*
X69544000Y-83384000D01*
X69529000Y-83337000D01*
X69514000Y-83290000D01*
X69501000Y-83244000D01*
X69489000Y-83199000D01*
X69479000Y-83156000D01*
X69471000Y-83117000D01*
X69465000Y-83081000D01*
X69463000Y-83045000D01*
X69461000Y-82976000D01*
X69459000Y-82874000D01*
X69457000Y-82739000D01*
X69455000Y-82571000D01*
X69454000Y-82368000D01*
X69452000Y-82132000D01*
X69451000Y-81861000D01*
X69451000Y-81555000D01*
X69450000Y-81215000D01*
X69450000Y-80840000D01*
X69450000Y-80429000D01*
X69450000Y-79785000D01*
X69450000Y-79252000D01*
X69450406Y-79076000D01*
X70058000Y-79076000D01*
X70059000Y-79469000D01*
X70059000Y-79937000D01*
X70060000Y-80486000D01*
X70065000Y-83093000D01*
X70099000Y-83197000D01*
X70130000Y-83277000D01*
X70168000Y-83354000D01*
X70213000Y-83426000D01*
X70263000Y-83493000D01*
X70319000Y-83556000D01*
X70381000Y-83613000D01*
X70447000Y-83664000D01*
X70518000Y-83710000D01*
X70593000Y-83749000D01*
X70672000Y-83782000D01*
X70754000Y-83807000D01*
X70839000Y-83826000D01*
X70872000Y-83828000D01*
X70952000Y-83829000D01*
X71073000Y-83830000D01*
X71234000Y-83832000D01*
X71431000Y-83833000D01*
X71661000Y-83834000D01*
X71920000Y-83835000D01*
X72204000Y-83835000D01*
X72512000Y-83836000D01*
X72839000Y-83836000D01*
X73182000Y-83836000D01*
X73539000Y-83836000D01*
X76168000Y-83834000D01*
X76290000Y-83792000D01*
X76327000Y-83779000D01*
X76365000Y-83763000D01*
X76403000Y-83745000D01*
X76441000Y-83725000D01*
X76479000Y-83703000D01*
X76516000Y-83680000D01*
X76552000Y-83656000D01*
X76586000Y-83631000D01*
X76619000Y-83605000D01*
X76649000Y-83579000D01*
X76677000Y-83552000D01*
X76702000Y-83526000D01*
X76723000Y-83499000D01*
X76746000Y-83469000D01*
X76768000Y-83435000D01*
X76790000Y-83398000D01*
X76812000Y-83358000D01*
X76832000Y-83318000D01*
X76852000Y-83277000D01*
X76869000Y-83237000D01*
X76885000Y-83198000D01*
X76898000Y-83160000D01*
X76908000Y-83125000D01*
X76915000Y-83094000D01*
X76918000Y-83063000D01*
X76920000Y-82998000D01*
X76922000Y-82900000D01*
X76924000Y-82767000D01*
X76926000Y-82600000D01*
X76927000Y-82399000D01*
X76928000Y-82162000D01*
X76929000Y-81889000D01*
X76930000Y-81581000D01*
X76931000Y-81236000D01*
X76931000Y-80854000D01*
X76931000Y-80435000D01*
X76931000Y-79783000D01*
X76931000Y-79247000D01*
X76930000Y-78814000D01*
X76929000Y-78471000D01*
X76926000Y-78207000D01*
X76921000Y-78011000D01*
X76914000Y-77869000D01*
X76905000Y-77769000D01*
X76892000Y-77701000D01*
X76876000Y-77651000D01*
X76856000Y-77609000D01*
X76832000Y-77560000D01*
X76822000Y-77540000D01*
X76812000Y-77520000D01*
X76801000Y-77502000D01*
X76790000Y-77484000D01*
X76777000Y-77466000D01*
X76765000Y-77448000D01*
X76751000Y-77430000D01*
X76735000Y-77412000D01*
X76719000Y-77393000D01*
X76701000Y-77373000D01*
X76681000Y-77352000D01*
X76659000Y-77330000D01*
X76625000Y-77298000D01*
X76592000Y-77268000D01*
X76560000Y-77241000D01*
X76527000Y-77217000D01*
X76494000Y-77195000D01*
X76461000Y-77174000D01*
X76427000Y-77156000D01*
X76391000Y-77139000D01*
X76354000Y-77124000D01*
X76315000Y-77110000D01*
X76273000Y-77098000D01*
X76229000Y-77086000D01*
X76200000Y-77079000D01*
X76165000Y-77073000D01*
X76114000Y-77069000D01*
X76039000Y-77065000D01*
X75931000Y-77062000D01*
X75781000Y-77060000D01*
X75579000Y-77058000D01*
X75318000Y-77057000D01*
X74987000Y-77056000D01*
X74577000Y-77056000D01*
X74081000Y-77056000D01*
X73488000Y-77056000D01*
X72888000Y-77056000D01*
X72388000Y-77056000D01*
X71976000Y-77056000D01*
X71644000Y-77057000D01*
X71384000Y-77058000D01*
X71184000Y-77060000D01*
X71037000Y-77062000D01*
X70932000Y-77065000D01*
X70860000Y-77069000D01*
X70813000Y-77074000D01*
X70780000Y-77080000D01*
X70753000Y-77087000D01*
X70669000Y-77114000D01*
X70590000Y-77147000D01*
X70514000Y-77187000D01*
X70443000Y-77233000D01*
X70378000Y-77284000D01*
X70317000Y-77340000D01*
X70262000Y-77402000D01*
X70213000Y-77468000D01*
X70170000Y-77539000D01*
X70133000Y-77614000D01*
X70103000Y-77692000D01*
X70080000Y-77774000D01*
X70075000Y-77802000D01*
X70071000Y-77844000D01*
X70067000Y-77905000D01*
X70064000Y-77993000D01*
X70062000Y-78115000D01*
X70060000Y-78277000D01*
X70059000Y-78487000D01*
X70059000Y-78751000D01*
X70058000Y-79076000D01*
X69450406Y-79076000D01*
X69451000Y-78818000D01*
X69452000Y-78473000D01*
X69456000Y-78204000D01*
X69460000Y-77999000D01*
X69467000Y-77847000D01*
X69477000Y-77736000D01*
X69489000Y-77655000D01*
X69505000Y-77592000D01*
X69525000Y-77535000D01*
X69548000Y-77473000D01*
X69597000Y-77355000D01*
X69655000Y-77243000D01*
X69721000Y-77137000D01*
X69795000Y-77036000D01*
X69876000Y-76943000D01*
X69965000Y-76856000D01*
X70060000Y-76777000D01*
X70162000Y-76705000D01*
X70270000Y-76640000D01*
X70384000Y-76584000D01*
X70503000Y-76536000D01*
X70628000Y-76497000D01*
X70776000Y-76456000D01*
X73398000Y-76451000D01*
X74025000Y-76450000D01*
X74551000Y-76450000D01*
X74986000Y-76450000D01*
X75338000Y-76451000D01*
X75619000Y-76452000D01*
X75837000Y-76455000D01*
X76004000Y-76460000D01*
X76128000Y-76466000D01*
X76219000Y-76473000D01*
X76288000Y-76483000D01*
X76344000Y-76495000D01*
X76397000Y-76509000D01*
X76457000Y-76527000D01*
X76517000Y-76549000D01*
X76579000Y-76574000D01*
X76640000Y-76602000D01*
X76701000Y-76634000D01*
X76761000Y-76668000D01*
X76821000Y-76704000D01*
X76878000Y-76743000D01*
X76934000Y-76784000D01*
X76988000Y-76826000D01*
X77039000Y-76870000D01*
X77087000Y-76915000D01*
X77136000Y-76965000D01*
X77181000Y-77017000D01*
X77224000Y-77071000D01*
X77265000Y-77128000D01*
X77303000Y-77186000D01*
X77338000Y-77247000D01*
X77371000Y-77310000D01*
X77401000Y-77375000D01*
X77429000Y-77443000D01*
X77455000Y-77513000D01*
X77478000Y-77585000D01*
X77498000Y-77660000D01*
X77531000Y-77789000D01*
X77531000Y-79783000D01*
X77531000Y-80426000D01*
G37*
G36*
X76296000Y-81535000D02*
G01*
X76362000Y-81597000D01*
X76427000Y-81658000D01*
X76427000Y-81962000D01*
X76427000Y-82030000D01*
X76427000Y-82087000D01*
X76427000Y-82134000D01*
X76426000Y-82173000D01*
X76425000Y-82205000D01*
X76423000Y-82231000D01*
X76420000Y-82251000D01*
X76417000Y-82268000D01*
X76413000Y-82282000D01*
X76407000Y-82294000D01*
X76401000Y-82305000D01*
X76394000Y-82316000D01*
X76389000Y-82323000D01*
X76383000Y-82330000D01*
X76378000Y-82337000D01*
X76372000Y-82344000D01*
X76365000Y-82351000D01*
X76359000Y-82357000D01*
X76353000Y-82363000D01*
X76346000Y-82369000D01*
X76340000Y-82374000D01*
X76334000Y-82378000D01*
X76323000Y-82385000D01*
X76278000Y-82392000D01*
X76178000Y-82397000D01*
X76035000Y-82401000D01*
X75859000Y-82404000D01*
X75660000Y-82405000D01*
X75451000Y-82406000D01*
X75241000Y-82405000D01*
X75042000Y-82403000D01*
X74864000Y-82400000D01*
X74719000Y-82395000D01*
X74617000Y-82390000D01*
X74569000Y-82383000D01*
X74547000Y-82373000D01*
X74528000Y-82363000D01*
X74512000Y-82350000D01*
X74499000Y-82335000D01*
X74489000Y-82317000D01*
X74481000Y-82293000D01*
X74474000Y-82264000D01*
X74469000Y-82228000D01*
X74466000Y-82184000D01*
X74463000Y-82131000D01*
X74461000Y-82068000D01*
X74460000Y-81995000D01*
X74459000Y-81921000D01*
X74459000Y-81858000D01*
X74460000Y-81803000D01*
X74462000Y-81757000D01*
X74466000Y-81717000D01*
X74471000Y-81685000D01*
X74478000Y-81658000D01*
X74486000Y-81637000D01*
X74497000Y-81619000D01*
X74510000Y-81605000D01*
X74525000Y-81594000D01*
X74543000Y-81585000D01*
X74580000Y-81568000D01*
X74571000Y-81390000D01*
X74564000Y-81298000D01*
X74552000Y-81207000D01*
X74537000Y-81117000D01*
X74518000Y-81028000D01*
X74494000Y-80940000D01*
X74467000Y-80853000D01*
X74436000Y-80768000D01*
X74400000Y-80685000D01*
X74362000Y-80604000D01*
X74319000Y-80525000D01*
X74273000Y-80448000D01*
X74223000Y-80374000D01*
X74194000Y-80335000D01*
X74159000Y-80292000D01*
X74119000Y-80246000D01*
X74074000Y-80197000D01*
X74025000Y-80146000D01*
X73973000Y-80093000D01*
X73918000Y-80039000D01*
X73860000Y-79984000D01*
X73800000Y-79929000D01*
X73738000Y-79875000D01*
X73676000Y-79821000D01*
X73613000Y-79768000D01*
X73515000Y-79688000D01*
X73419000Y-79611000D01*
X73328000Y-79537000D01*
X73242000Y-79467000D01*
X73161000Y-79402000D01*
X73086000Y-79342000D01*
X73020000Y-79290000D01*
X72961000Y-79244000D01*
X72913000Y-79206000D01*
X72874000Y-79177000D01*
X72847000Y-79157000D01*
X72832000Y-79147000D01*
X72812000Y-79140000D01*
X72790000Y-79137000D01*
X72766000Y-79139000D01*
X72741000Y-79146000D01*
X72716000Y-79156000D01*
X72690000Y-79170000D01*
X72665000Y-79187000D01*
X72641000Y-79207000D01*
X72619000Y-79230000D01*
X72599000Y-79255000D01*
X72581000Y-79282000D01*
X72566000Y-79311000D01*
X72560000Y-79327000D01*
X72555000Y-79346000D01*
X72551000Y-79372000D01*
X72547000Y-79408000D01*
X72544000Y-79458000D01*
X72542000Y-79525000D01*
X72540000Y-79612000D01*
X72539000Y-79722000D01*
X72538000Y-79859000D01*
X72537000Y-80026000D01*
X72536000Y-80226000D01*
X72535000Y-80463000D01*
X72532000Y-81552000D01*
X72579000Y-81582000D01*
X72598000Y-81594000D01*
X72614000Y-81607000D01*
X72627000Y-81620000D01*
X72638000Y-81636000D01*
X72646000Y-81655000D01*
X72652000Y-81680000D01*
X72657000Y-81710000D01*
X72660000Y-81747000D01*
X72662000Y-81793000D01*
X72662000Y-81848000D01*
X72662000Y-81915000D01*
X72661000Y-81993000D01*
X72657000Y-82300000D01*
X72609000Y-82348000D01*
X72560000Y-82397000D01*
X71705000Y-82400000D01*
X71526000Y-82401000D01*
X71373000Y-82401000D01*
X71245000Y-82401000D01*
X71138000Y-82401000D01*
X71051000Y-82400000D01*
X70982000Y-82399000D01*
X70928000Y-82397000D01*
X70887000Y-82395000D01*
X70857000Y-82392000D01*
X70836000Y-82389000D01*
X70821000Y-82384000D01*
X70811000Y-82379000D01*
X70792000Y-82367000D01*
X70776000Y-82354000D01*
X70763000Y-82340000D01*
X70752000Y-82324000D01*
X70744000Y-82304000D01*
X70737000Y-82280000D01*
X70732000Y-82249000D01*
X70728000Y-82212000D01*
X70726000Y-82166000D01*
X70725000Y-82111000D01*
X70724000Y-82046000D01*
X70724000Y-81970000D01*
X70724000Y-81666000D01*
X70761000Y-81621000D01*
X70767000Y-81615000D01*
X70772000Y-81609000D01*
X70778000Y-81603000D01*
X70784000Y-81597000D01*
X70790000Y-81592000D01*
X70796000Y-81587000D01*
X70802000Y-81582000D01*
X70814000Y-81574000D01*
X70823000Y-81569000D01*
X70834000Y-81564000D01*
X70836222Y-81560000D01*
X71242000Y-81560000D01*
X71367000Y-81560000D01*
X71493000Y-81560000D01*
X71498000Y-80334000D01*
X71499000Y-80084000D01*
X71500000Y-79869000D01*
X71501000Y-79686000D01*
X71503000Y-79533000D01*
X71504000Y-79407000D01*
X71506000Y-79304000D01*
X71507444Y-79265000D01*
X71894000Y-79265000D01*
X71894000Y-80412000D01*
X71894000Y-81560000D01*
X72020000Y-81560000D01*
X72146000Y-81560000D01*
X72146000Y-80451000D01*
X72146000Y-80224000D01*
X72146000Y-80029000D01*
X72147000Y-79863000D01*
X72147000Y-79725000D01*
X72149000Y-79610000D01*
X72150000Y-79517000D01*
X72152000Y-79443000D01*
X72154000Y-79385000D01*
X72157000Y-79341000D01*
X72161000Y-79307000D01*
X72165000Y-79282000D01*
X72170000Y-79262000D01*
X72181000Y-79228000D01*
X72192000Y-79196000D01*
X72205000Y-79164000D01*
X72218000Y-79135000D01*
X72233000Y-79106000D01*
X72248000Y-79079000D01*
X72264000Y-79053000D01*
X72282000Y-79028000D01*
X72300000Y-79005000D01*
X72320000Y-78982000D01*
X72340000Y-78961000D01*
X72362000Y-78940000D01*
X72445000Y-78866000D01*
X72400000Y-78842000D01*
X72393000Y-78839000D01*
X72386000Y-78836000D01*
X72377000Y-78833000D01*
X72368000Y-78831000D01*
X72358000Y-78828000D01*
X72348000Y-78826000D01*
X72337000Y-78824000D01*
X72326000Y-78822000D01*
X72316000Y-78821000D01*
X72305000Y-78820000D01*
X72295000Y-78819000D01*
X72285000Y-78819000D01*
X72246000Y-78821000D01*
X72208000Y-78829000D01*
X72172000Y-78841000D01*
X72137000Y-78858000D01*
X72104000Y-78879000D01*
X72073000Y-78905000D01*
X72044000Y-78935000D01*
X72017000Y-78969000D01*
X71992000Y-79008000D01*
X71970000Y-79050000D01*
X71949000Y-79096000D01*
X71932000Y-79146000D01*
X71894000Y-79265000D01*
X71507444Y-79265000D01*
X71509000Y-79223000D01*
X71511000Y-79159000D01*
X71514000Y-79111000D01*
X71518000Y-79075000D01*
X71522000Y-79049000D01*
X71527000Y-79030000D01*
X71564000Y-78928000D01*
X71609000Y-78835000D01*
X71662000Y-78750000D01*
X71722000Y-78675000D01*
X71789000Y-78609000D01*
X71862000Y-78553000D01*
X71941000Y-78508000D01*
X72024000Y-78474000D01*
X72111000Y-78451000D01*
X72202000Y-78440000D01*
X72295000Y-78440000D01*
X72391000Y-78454000D01*
X72440000Y-78464000D01*
X72485000Y-78477000D01*
X72530000Y-78492000D01*
X72575000Y-78512000D01*
X72624000Y-78538000D01*
X72678000Y-78571000D01*
X72739000Y-78612000D01*
X72810000Y-78663000D01*
X72892000Y-78725000D01*
X72988000Y-78799000D01*
X73072000Y-78866000D01*
X73099000Y-78887000D01*
X73227000Y-78990000D01*
X73458000Y-79175000D01*
X73658000Y-79338000D01*
X73830000Y-79480000D01*
X73977000Y-79604000D01*
X74102000Y-79713000D01*
X74207000Y-79809000D01*
X74296000Y-79896000D01*
X74372000Y-79976000D01*
X74436000Y-80052000D01*
X74493000Y-80126000D01*
X74545000Y-80200000D01*
X74594000Y-80279000D01*
X74601000Y-80290000D01*
X74607000Y-80300000D01*
X74614000Y-80310000D01*
X74620000Y-80319000D01*
X74626000Y-80328000D01*
X74631000Y-80336000D01*
X74636000Y-80342000D01*
X74645000Y-80353000D01*
X74651000Y-80358000D01*
X74656000Y-80351000D01*
X74657000Y-80339000D01*
X74658000Y-80330000D01*
X74658000Y-80321000D01*
X74658000Y-80310000D01*
X74657000Y-80298000D01*
X74656000Y-80286000D01*
X74656000Y-80273000D01*
X74654000Y-80260000D01*
X74650000Y-80227000D01*
X74644000Y-80191000D01*
X74636000Y-80154000D01*
X74626000Y-80116000D01*
X74614000Y-80077000D01*
X74601000Y-80038000D01*
X74586000Y-79999000D01*
X74570000Y-79961000D01*
X74553000Y-79923000D01*
X74536000Y-79888000D01*
X74517000Y-79854000D01*
X74498000Y-79823000D01*
X74477000Y-79792000D01*
X74452000Y-79759000D01*
X74423000Y-79723000D01*
X74391000Y-79686000D01*
X74355000Y-79647000D01*
X74318000Y-79607000D01*
X74277000Y-79566000D01*
X74236000Y-79525000D01*
X74192000Y-79484000D01*
X74148000Y-79444000D01*
X74103000Y-79405000D01*
X74057000Y-79367000D01*
X74037000Y-79350000D01*
X74015000Y-79332000D01*
X73991000Y-79313000D01*
X73967000Y-79293000D01*
X73942000Y-79272000D01*
X73916000Y-79251000D01*
X73891000Y-79230000D01*
X73866000Y-79210000D01*
X73841000Y-79190000D01*
X73818000Y-79170000D01*
X73796000Y-79152000D01*
X73776000Y-79136000D01*
X73702000Y-79075000D01*
X73617000Y-79007000D01*
X73525000Y-78933000D01*
X73428000Y-78855000D01*
X73330000Y-78776000D01*
X73232000Y-78698000D01*
X73139000Y-78625000D01*
X73053000Y-78557000D01*
X72977000Y-78497000D01*
X72914000Y-78448000D01*
X72867000Y-78412000D01*
X72839000Y-78392000D01*
X72789000Y-78360000D01*
X72740000Y-78331000D01*
X72690000Y-78305000D01*
X72640000Y-78283000D01*
X72589000Y-78264000D01*
X72538000Y-78248000D01*
X72485000Y-78235000D01*
X72430000Y-78226000D01*
X72374000Y-78219000D01*
X72316000Y-78215000D01*
X72255000Y-78214000D01*
X72192000Y-78215000D01*
X72126000Y-78220000D01*
X72064000Y-78227000D01*
X72005000Y-78236000D01*
X71951000Y-78250000D01*
X71898000Y-78266000D01*
X71848000Y-78286000D01*
X71799000Y-78310000D01*
X71752000Y-78339000D01*
X71705000Y-78372000D01*
X71657000Y-78409000D01*
X71609000Y-78451000D01*
X71560000Y-78499000D01*
X71527000Y-78534000D01*
X71496000Y-78569000D01*
X71467000Y-78605000D01*
X71440000Y-78641000D01*
X71414000Y-78679000D01*
X71391000Y-78718000D01*
X71369000Y-78758000D01*
X71348000Y-78799000D01*
X71330000Y-78841000D01*
X71313000Y-78885000D01*
X71297000Y-78931000D01*
X71283000Y-78978000D01*
X71276000Y-79005000D01*
X71270000Y-79033000D01*
X71264000Y-79065000D01*
X71260000Y-79108000D01*
X71257000Y-79164000D01*
X71254000Y-79239000D01*
X71252000Y-79336000D01*
X71251000Y-79462000D01*
X71249000Y-79619000D01*
X71248000Y-79812000D01*
X71247000Y-80047000D01*
X71246000Y-80326000D01*
X71242000Y-81560000D01*
X70836222Y-81560000D01*
X70839000Y-81555000D01*
X70844000Y-81538000D01*
X70847000Y-81507000D01*
X70850000Y-81459000D01*
X70853000Y-81390000D01*
X70855000Y-81295000D01*
X70856000Y-81172000D01*
X70857000Y-81015000D01*
X70858000Y-80820000D01*
X70859000Y-80584000D01*
X70861000Y-80303000D01*
X70865000Y-79049000D01*
X70907000Y-78893000D01*
X70952000Y-78752000D01*
X71008000Y-78619000D01*
X71075000Y-78495000D01*
X71152000Y-78380000D01*
X71238000Y-78275000D01*
X71318000Y-78195000D01*
X73190000Y-78195000D01*
X73242000Y-78240000D01*
X73252000Y-78248000D01*
X73266000Y-78260000D01*
X73283000Y-78275000D01*
X73305000Y-78293000D01*
X73330000Y-78313000D01*
X73357000Y-78336000D01*
X73387000Y-78361000D01*
X73419000Y-78387000D01*
X73453000Y-78414000D01*
X73488000Y-78443000D01*
X73524000Y-78472000D01*
X73561000Y-78502000D01*
X73598000Y-78533000D01*
X73637000Y-78564000D01*
X73677000Y-78597000D01*
X73717000Y-78630000D01*
X73758000Y-78663000D01*
X73797000Y-78695000D01*
X73835000Y-78726000D01*
X73872000Y-78756000D01*
X73906000Y-78784000D01*
X73937000Y-78810000D01*
X73966000Y-78834000D01*
X73990000Y-78854000D01*
X74013000Y-78873000D01*
X74037000Y-78893000D01*
X74061000Y-78912000D01*
X74085000Y-78932000D01*
X74109000Y-78952000D01*
X74132000Y-78971000D01*
X74155000Y-78990000D01*
X74176000Y-79007000D01*
X74196000Y-79024000D01*
X74214000Y-79039000D01*
X74231000Y-79052000D01*
X74245000Y-79063000D01*
X74340000Y-79142000D01*
X74426000Y-79213000D01*
X74501000Y-79279000D01*
X74568000Y-79340000D01*
X74627000Y-79398000D01*
X74679000Y-79454000D01*
X74726000Y-79509000D01*
X74769000Y-79564000D01*
X74808000Y-79620000D01*
X74844000Y-79679000D01*
X74880000Y-79741000D01*
X74915000Y-79808000D01*
X74941000Y-79862000D01*
X74964000Y-79911000D01*
X74982000Y-79959000D01*
X74997000Y-80009000D01*
X75009000Y-80064000D01*
X75018000Y-80127000D01*
X75025000Y-80201000D01*
X75029000Y-80291000D01*
X75030000Y-80321000D01*
X75032000Y-80397000D01*
X75034000Y-80525000D01*
X75035000Y-80678000D01*
X75035000Y-80857000D01*
X75035000Y-80950000D01*
X75035000Y-81038000D01*
X75036000Y-81123000D01*
X75036000Y-81202000D01*
X75037000Y-81276000D01*
X75038000Y-81342000D01*
X75039000Y-81401000D01*
X75040000Y-81451000D01*
X75041000Y-81492000D01*
X75042000Y-81523000D01*
X75043000Y-81542000D01*
X75045000Y-81550000D01*
X75058000Y-81554000D01*
X75066000Y-81555000D01*
X75075000Y-81556000D01*
X75086000Y-81557000D01*
X75098000Y-81558000D01*
X75111000Y-81558000D01*
X75125000Y-81559000D01*
X75140000Y-81559000D01*
X75155000Y-81560000D01*
X75171000Y-81560000D01*
X75287000Y-81560000D01*
X75287000Y-80880000D01*
X75287000Y-80703000D01*
X75286000Y-80551000D01*
X75284000Y-80422000D01*
X75281000Y-80313000D01*
X75277000Y-80221000D01*
X75272000Y-80143000D01*
X75264000Y-80077000D01*
X75255000Y-80019000D01*
X75243000Y-79967000D01*
X75228000Y-79918000D01*
X75211000Y-79869000D01*
X75190000Y-79818000D01*
X75164000Y-79759000D01*
X75135000Y-79700000D01*
X75103000Y-79642000D01*
X75067000Y-79585000D01*
X75029000Y-79528000D01*
X74987000Y-79472000D01*
X74942000Y-79416000D01*
X74894000Y-79361000D01*
X74843000Y-79306000D01*
X74788000Y-79251000D01*
X74730000Y-79197000D01*
X74669000Y-79143000D01*
X74616000Y-79098000D01*
X74550000Y-79043000D01*
X74473000Y-78979000D01*
X74389000Y-78910000D01*
X74300000Y-78836000D01*
X74209000Y-78762000D01*
X74120000Y-78690000D01*
X74035000Y-78621000D01*
X73957000Y-78558000D01*
X73890000Y-78504000D01*
X73836000Y-78462000D01*
X73798000Y-78432000D01*
X73749000Y-78397000D01*
X73703000Y-78365000D01*
X73659000Y-78336000D01*
X73616000Y-78310000D01*
X73574000Y-78288000D01*
X74155000Y-78288000D01*
X74176000Y-78311000D01*
X74210000Y-78335000D01*
X74262000Y-78376000D01*
X74330000Y-78430000D01*
X74410000Y-78495000D01*
X74498000Y-78567000D01*
X74592000Y-78645000D01*
X74689000Y-78725000D01*
X74784000Y-78804000D01*
X74874000Y-78880000D01*
X74957000Y-78950000D01*
X75028000Y-79012000D01*
X75085000Y-79062000D01*
X75142000Y-79115000D01*
X75196000Y-79170000D01*
X75249000Y-79227000D01*
X75298000Y-79285000D01*
X75346000Y-79346000D01*
X75390000Y-79407000D01*
X75431000Y-79469000D01*
X75469000Y-79531000D01*
X75503000Y-79594000D01*
X75534000Y-79656000D01*
X75560000Y-79718000D01*
X75582000Y-79779000D01*
X75600000Y-79833000D01*
X75615000Y-79881000D01*
X75627000Y-79927000D01*
X75637000Y-79975000D01*
X75645000Y-80027000D01*
X75651000Y-80088000D01*
X75656000Y-80160000D01*
X75660000Y-80247000D01*
X75662000Y-80352000D01*
X75664000Y-80480000D01*
X75666000Y-80633000D01*
X75668000Y-80815000D01*
X75668000Y-80880000D01*
X75674000Y-81560000D01*
X75799000Y-81560000D01*
X75924000Y-81560000D01*
X75924000Y-80892000D01*
X75924000Y-80799000D01*
X75923000Y-80708000D01*
X75923000Y-80619000D01*
X75922000Y-80534000D01*
X75921000Y-80453000D01*
X75919000Y-80377000D01*
X75918000Y-80308000D01*
X75916000Y-80245000D01*
X75914000Y-80190000D01*
X75912000Y-80145000D01*
X75910000Y-80109000D01*
X75908000Y-80083000D01*
X75899000Y-80017000D01*
X75888000Y-79953000D01*
X75874000Y-79888000D01*
X75858000Y-79825000D01*
X75839000Y-79763000D01*
X75818000Y-79701000D01*
X75794000Y-79641000D01*
X75768000Y-79582000D01*
X75740000Y-79523000D01*
X75709000Y-79466000D01*
X75675000Y-79411000D01*
X75640000Y-79356000D01*
X75590000Y-79290000D01*
X75531000Y-79219000D01*
X75464000Y-79145000D01*
X75388000Y-79069000D01*
X75307000Y-78992000D01*
X75220000Y-78915000D01*
X75128000Y-78838000D01*
X75033000Y-78763000D01*
X74936000Y-78691000D01*
X74838000Y-78621000D01*
X74740000Y-78556000D01*
X74642000Y-78496000D01*
X74592000Y-78468000D01*
X74535000Y-78439000D01*
X74475000Y-78410000D01*
X74412000Y-78381000D01*
X74351000Y-78355000D01*
X74294000Y-78331000D01*
X74243000Y-78312000D01*
X74201000Y-78297000D01*
X74171000Y-78289000D01*
X74155000Y-78288000D01*
X73574000Y-78288000D01*
X73533000Y-78269000D01*
X73493000Y-78252000D01*
X73453000Y-78238000D01*
X73412000Y-78226000D01*
X73372000Y-78217000D01*
X73330000Y-78210000D01*
X73287000Y-78204000D01*
X73190000Y-78195000D01*
X71318000Y-78195000D01*
X71333000Y-78180000D01*
X71438000Y-78096000D01*
X71551000Y-78022000D01*
X71672000Y-77959000D01*
X71801000Y-77908000D01*
X71937000Y-77869000D01*
X72079000Y-77842000D01*
X72139000Y-77837000D01*
X72243000Y-77833000D01*
X72382000Y-77830000D01*
X72548000Y-77828000D01*
X72732000Y-77827000D01*
X72925000Y-77827000D01*
X73119000Y-77827000D01*
X73306000Y-77829000D01*
X73475000Y-77831000D01*
X73620000Y-77834000D01*
X73732000Y-77838000D01*
X73801000Y-77842000D01*
X73914000Y-77858000D01*
X74026000Y-77879000D01*
X74137000Y-77905000D01*
X74249000Y-77938000D01*
X74361000Y-77977000D01*
X74473000Y-78021000D01*
X74585000Y-78071000D01*
X74698000Y-78127000D01*
X74811000Y-78189000D01*
X74925000Y-78258000D01*
X75040000Y-78332000D01*
X75155000Y-78413000D01*
X75315000Y-78531000D01*
X75460000Y-78647000D01*
X75591000Y-78761000D01*
X75709000Y-78874000D01*
X75814000Y-78986000D01*
X75907000Y-79099000D01*
X75989000Y-79213000D01*
X76061000Y-79329000D01*
X76122000Y-79448000D01*
X76174000Y-79572000D01*
X76218000Y-79700000D01*
X76254000Y-79834000D01*
X76260000Y-79864000D01*
X76266000Y-79894000D01*
X76271000Y-79927000D01*
X76275000Y-79964000D01*
X76278000Y-80009000D01*
X76281000Y-80064000D01*
X76283000Y-80132000D01*
X76285000Y-80215000D01*
X76286000Y-80316000D01*
X76288000Y-80438000D01*
X76289000Y-80582000D01*
X76290000Y-80751000D01*
X76291000Y-80892000D01*
X76296000Y-81535000D01*
G37*
%TO.C,R7*%
D12*
X18050000Y-16000000D02*
X20660000Y-16000000D01*
X18050000Y-16000000D02*
G75*
G02*
X15310000Y-16000000I-1370000J0D01*
G01*
X15310000Y-16000000D02*
G75*
G02*
X18050000Y-16000000I1370000J0D01*
G01*
%TO.C,R3*%
X10370000Y-32510000D02*
X12980000Y-32510000D01*
X10370000Y-32510000D02*
G75*
G02*
X7630000Y-32510000I-1370000J0D01*
G01*
X7630000Y-32510000D02*
G75*
G02*
X10370000Y-32510000I1370000J0D01*
G01*
%TO.C,Q33*%
X36380000Y-30025000D02*
X32780000Y-30025000D01*
X32255816Y-30752205D02*
G75*
G02*
X32780000Y-30025000I2324184J-1122795D01*
G01*
X34580000Y-34475000D02*
G75*
G02*
X32223600Y-32973807I0J2600000D01*
G01*
X36380000Y-30025000D02*
G75*
G02*
X36904184Y-30752205I-1800000J-1850000D01*
G01*
X36936400Y-32973807D02*
G75*
G02*
X34580000Y-34475000I-2356400J1098807D01*
G01*
%TO.C,Q39*%
X36380000Y-66855000D02*
X32780000Y-66855000D01*
X32255816Y-67582205D02*
G75*
G02*
X32780000Y-66855000I2324184J-1122795D01*
G01*
X34580000Y-71305000D02*
G75*
G02*
X32223600Y-69803807I0J2600000D01*
G01*
X36380000Y-66855000D02*
G75*
G02*
X36904184Y-67582205I-1800000J-1850000D01*
G01*
X36936400Y-69803807D02*
G75*
G02*
X34580000Y-71305000I-2356400J1098807D01*
G01*
%TO.C,D6*%
X79424000Y-22640000D02*
X79580000Y-22640000D01*
X81740000Y-22640000D02*
X81896000Y-22640000D01*
X79424484Y-22640000D02*
G75*
G02*
X79580000Y-19408563I1235516J1560000D01*
G01*
X79580000Y-22120961D02*
G75*
G02*
X79580000Y-20039039I1080000J1040961D01*
G01*
X81740000Y-19408563D02*
G75*
G02*
X81895516Y-22640000I-1080000J-1671437D01*
G01*
X81740000Y-20039039D02*
G75*
G02*
X81740000Y-22120961I-1080000J-1040961D01*
G01*
%TO.C,J3*%
X60620000Y-96380000D02*
X60620000Y-95000000D01*
X62000000Y-96380000D02*
X60620000Y-96380000D01*
X63270000Y-93620000D02*
X68460000Y-93620000D01*
X63270000Y-96380000D02*
X63270000Y-93620000D01*
X63270000Y-96380000D02*
X68460000Y-96380000D01*
X68460000Y-96380000D02*
X68460000Y-93620000D01*
%TO.C,R15*%
X25730000Y-71245000D02*
X28340000Y-71245000D01*
X25730000Y-71245000D02*
G75*
G02*
X22990000Y-71245000I-1370000J0D01*
G01*
X22990000Y-71245000D02*
G75*
G02*
X25730000Y-71245000I1370000J0D01*
G01*
%TO.C,Q53*%
X51740000Y-17960000D02*
X48140000Y-17960000D01*
X47615816Y-18687205D02*
G75*
G02*
X48140000Y-17960000I2324184J-1122795D01*
G01*
X49940000Y-22410000D02*
G75*
G02*
X47583600Y-20908807I0J2600000D01*
G01*
X51740000Y-17960000D02*
G75*
G02*
X52264184Y-18687205I-1800000J-1850000D01*
G01*
X52296400Y-20908807D02*
G75*
G02*
X49940000Y-22410000I-2356400J1098807D01*
G01*
%TO.C,Q27*%
X25100000Y-61030000D02*
X28700000Y-61030000D01*
X24543600Y-58081193D02*
G75*
G02*
X26900000Y-56580000I2356400J-1098807D01*
G01*
X25100000Y-61030000D02*
G75*
G02*
X24575816Y-60302795I1800000J1850000D01*
G01*
X26900000Y-56580000D02*
G75*
G02*
X29256400Y-58081193I0J-2600000D01*
G01*
X29224184Y-60302795D02*
G75*
G02*
X28700000Y-61030000I-2324184J1122795D01*
G01*
%TO.C,Q86*%
X71180000Y-43885000D02*
X74780000Y-43885000D01*
X70623600Y-40936193D02*
G75*
G02*
X72980000Y-39435000I2356400J-1098807D01*
G01*
X71180000Y-43885000D02*
G75*
G02*
X70655816Y-43157795I1800000J1850000D01*
G01*
X72980000Y-39435000D02*
G75*
G02*
X75336400Y-40936193I0J-2600000D01*
G01*
X75304184Y-43157795D02*
G75*
G02*
X74780000Y-43885000I-2324184J1122795D01*
G01*
%TO.C,Q83*%
X67100000Y-56695000D02*
X63500000Y-56695000D01*
X62975816Y-57422205D02*
G75*
G02*
X63500000Y-56695000I2324184J-1122795D01*
G01*
X65300000Y-61145000D02*
G75*
G02*
X62943600Y-59643807I0J2600000D01*
G01*
X67100000Y-56695000D02*
G75*
G02*
X67624184Y-57422205I-1800000J-1850000D01*
G01*
X67656400Y-59643807D02*
G75*
G02*
X65300000Y-61145000I-2356400J1098807D01*
G01*
%TO.C,Q28*%
X25100000Y-69285000D02*
X28700000Y-69285000D01*
X24543600Y-66336193D02*
G75*
G02*
X26900000Y-64835000I2356400J-1098807D01*
G01*
X25100000Y-69285000D02*
G75*
G02*
X24575816Y-68557795I1800000J1850000D01*
G01*
X26900000Y-64835000D02*
G75*
G02*
X29256400Y-66336193I0J-2600000D01*
G01*
X29224184Y-68557795D02*
G75*
G02*
X28700000Y-69285000I-2324184J1122795D01*
G01*
%TO.C,D2*%
X71744000Y-22640000D02*
X71900000Y-22640000D01*
X74060000Y-22640000D02*
X74216000Y-22640000D01*
X71744484Y-22640000D02*
G75*
G02*
X71900000Y-19408563I1235516J1560000D01*
G01*
X71900000Y-22120961D02*
G75*
G02*
X71900000Y-20039039I1080000J1040961D01*
G01*
X74060000Y-19408563D02*
G75*
G02*
X74215516Y-22640000I-1080000J-1671437D01*
G01*
X74060000Y-20039039D02*
G75*
G02*
X74060000Y-22120961I-1080000J-1040961D01*
G01*
%TO.C,Q22*%
X25100000Y-35630000D02*
X28700000Y-35630000D01*
X24543600Y-32681193D02*
G75*
G02*
X26900000Y-31180000I2356400J-1098807D01*
G01*
X25100000Y-35630000D02*
G75*
G02*
X24575816Y-34902795I1800000J1850000D01*
G01*
X26900000Y-31180000D02*
G75*
G02*
X29256400Y-32681193I0J-2600000D01*
G01*
X29224184Y-34902795D02*
G75*
G02*
X28700000Y-35630000I-2324184J1122795D01*
G01*
%TO.C,Q56*%
X51740000Y-33200000D02*
X48140000Y-33200000D01*
X47615816Y-33927205D02*
G75*
G02*
X48140000Y-33200000I2324184J-1122795D01*
G01*
X49940000Y-37650000D02*
G75*
G02*
X47583600Y-36148807I0J2600000D01*
G01*
X51740000Y-33200000D02*
G75*
G02*
X52264184Y-33927205I-1800000J-1850000D01*
G01*
X52296400Y-36148807D02*
G75*
G02*
X49940000Y-37650000I-2356400J1098807D01*
G01*
%TO.C,Q73*%
X55820000Y-71190000D02*
X59420000Y-71190000D01*
X55263600Y-68241193D02*
G75*
G02*
X57620000Y-66740000I2356400J-1098807D01*
G01*
X55820000Y-71190000D02*
G75*
G02*
X55295816Y-70462795I1800000J1850000D01*
G01*
X57620000Y-66740000D02*
G75*
G02*
X59976400Y-68241193I0J-2600000D01*
G01*
X59944184Y-70462795D02*
G75*
G02*
X59420000Y-71190000I-2324184J1122795D01*
G01*
%TO.C,Q81*%
X67100000Y-46535000D02*
X63500000Y-46535000D01*
X62975816Y-47262205D02*
G75*
G02*
X63500000Y-46535000I2324184J-1122795D01*
G01*
X65300000Y-50985000D02*
G75*
G02*
X62943600Y-49483807I0J2600000D01*
G01*
X67100000Y-46535000D02*
G75*
G02*
X67624184Y-47262205I-1800000J-1850000D01*
G01*
X67656400Y-49483807D02*
G75*
G02*
X65300000Y-50985000I-2356400J1098807D01*
G01*
%TO.C,Q62*%
X51740000Y-70030000D02*
X48140000Y-70030000D01*
X47615816Y-70757205D02*
G75*
G02*
X48140000Y-70030000I2324184J-1122795D01*
G01*
X49940000Y-74480000D02*
G75*
G02*
X47583600Y-72978807I0J2600000D01*
G01*
X51740000Y-70030000D02*
G75*
G02*
X52264184Y-70757205I-1800000J-1850000D01*
G01*
X52296400Y-72978807D02*
G75*
G02*
X49940000Y-74480000I-2356400J1098807D01*
G01*
%TO.C,Q37*%
X36380000Y-56695000D02*
X32780000Y-56695000D01*
X32255816Y-57422205D02*
G75*
G02*
X32780000Y-56695000I2324184J-1122795D01*
G01*
X34580000Y-61145000D02*
G75*
G02*
X32223600Y-59643807I0J2600000D01*
G01*
X36380000Y-56695000D02*
G75*
G02*
X36904184Y-57422205I-1800000J-1850000D01*
G01*
X36936400Y-59643807D02*
G75*
G02*
X34580000Y-61145000I-2356400J1098807D01*
G01*
%TO.C,Q76*%
X67100000Y-17960000D02*
X63500000Y-17960000D01*
X62975816Y-18687205D02*
G75*
G02*
X63500000Y-17960000I2324184J-1122795D01*
G01*
X65300000Y-22410000D02*
G75*
G02*
X62943600Y-20908807I0J2600000D01*
G01*
X67100000Y-17960000D02*
G75*
G02*
X67624184Y-18687205I-1800000J-1850000D01*
G01*
X67656400Y-20908807D02*
G75*
G02*
X65300000Y-22410000I-2356400J1098807D01*
G01*
%TO.C,Q30*%
X36380000Y-14785000D02*
X32780000Y-14785000D01*
X32255816Y-15512205D02*
G75*
G02*
X32780000Y-14785000I2324184J-1122795D01*
G01*
X34580000Y-19235000D02*
G75*
G02*
X32223600Y-17733807I0J2600000D01*
G01*
X36380000Y-14785000D02*
G75*
G02*
X36904184Y-15512205I-1800000J-1850000D01*
G01*
X36936400Y-17733807D02*
G75*
G02*
X34580000Y-19235000I-2356400J1098807D01*
G01*
%TO.C,Q90*%
X82460000Y-40185000D02*
X78860000Y-40185000D01*
X78335816Y-40912205D02*
G75*
G02*
X78860000Y-40185000I2324184J-1122795D01*
G01*
X80660000Y-44635000D02*
G75*
G02*
X78303600Y-43133807I0J2600000D01*
G01*
X82460000Y-40185000D02*
G75*
G02*
X82984184Y-40912205I-1800000J-1850000D01*
G01*
X83016400Y-43133807D02*
G75*
G02*
X80660000Y-44635000I-2356400J1098807D01*
G01*
%TO.C,Q11*%
X21020000Y-23040000D02*
X17420000Y-23040000D01*
X16895816Y-23767205D02*
G75*
G02*
X17420000Y-23040000I2324184J-1122795D01*
G01*
X19220000Y-27490000D02*
G75*
G02*
X16863600Y-25988807I0J2600000D01*
G01*
X21020000Y-23040000D02*
G75*
G02*
X21544184Y-23767205I-1800000J-1850000D01*
G01*
X21576400Y-25988807D02*
G75*
G02*
X19220000Y-27490000I-2356400J1098807D01*
G01*
%TO.C,R12*%
X25730000Y-16000000D02*
X28340000Y-16000000D01*
X25730000Y-16000000D02*
G75*
G02*
X22990000Y-16000000I-1370000J0D01*
G01*
X22990000Y-16000000D02*
G75*
G02*
X25730000Y-16000000I1370000J0D01*
G01*
%TO.C,Q78*%
X67100000Y-31295000D02*
X63500000Y-31295000D01*
X62975816Y-32022205D02*
G75*
G02*
X63500000Y-31295000I2324184J-1122795D01*
G01*
X65300000Y-35745000D02*
G75*
G02*
X62943600Y-34243807I0J2600000D01*
G01*
X67100000Y-31295000D02*
G75*
G02*
X67624184Y-32022205I-1800000J-1850000D01*
G01*
X67656400Y-34243807D02*
G75*
G02*
X65300000Y-35745000I-2356400J1098807D01*
G01*
%TO.C,Q36*%
X36380000Y-48440000D02*
X32780000Y-48440000D01*
X32255816Y-49167205D02*
G75*
G02*
X32780000Y-48440000I2324184J-1122795D01*
G01*
X34580000Y-52890000D02*
G75*
G02*
X32223600Y-51388807I0J2600000D01*
G01*
X36380000Y-48440000D02*
G75*
G02*
X36904184Y-49167205I-1800000J-1850000D01*
G01*
X36936400Y-51388807D02*
G75*
G02*
X34580000Y-52890000I-2356400J1098807D01*
G01*
%TO.C,Q34*%
X36380000Y-35105000D02*
X32780000Y-35105000D01*
X32255816Y-35832205D02*
G75*
G02*
X32780000Y-35105000I2324184J-1122795D01*
G01*
X34580000Y-39555000D02*
G75*
G02*
X32223600Y-38053807I0J2600000D01*
G01*
X36380000Y-35105000D02*
G75*
G02*
X36904184Y-35832205I-1800000J-1850000D01*
G01*
X36936400Y-38053807D02*
G75*
G02*
X34580000Y-39555000I-2356400J1098807D01*
G01*
%TO.C,Q26*%
X25100000Y-55950000D02*
X28700000Y-55950000D01*
X24543600Y-53001193D02*
G75*
G02*
X26900000Y-51500000I2356400J-1098807D01*
G01*
X25100000Y-55950000D02*
G75*
G02*
X24575816Y-55222795I1800000J1850000D01*
G01*
X26900000Y-51500000D02*
G75*
G02*
X29256400Y-53001193I0J-2600000D01*
G01*
X29224184Y-55222795D02*
G75*
G02*
X28700000Y-55950000I-2324184J1122795D01*
G01*
%TO.C,R1*%
X10370000Y-16000000D02*
X12980000Y-16000000D01*
X10370000Y-16000000D02*
G75*
G02*
X7630000Y-16000000I-1370000J0D01*
G01*
X7630000Y-16000000D02*
G75*
G02*
X10370000Y-16000000I1370000J0D01*
G01*
%TO.C,Q51*%
X40460000Y-71190000D02*
X44060000Y-71190000D01*
X39903600Y-68241193D02*
G75*
G02*
X42260000Y-66740000I2356400J-1098807D01*
G01*
X40460000Y-71190000D02*
G75*
G02*
X39935816Y-70462795I1800000J1850000D01*
G01*
X42260000Y-66740000D02*
G75*
G02*
X44616400Y-68241193I0J-2600000D01*
G01*
X44584184Y-70462795D02*
G75*
G02*
X44060000Y-71190000I-2324184J1122795D01*
G01*
%TO.C,Q75*%
X55820000Y-81350000D02*
X59420000Y-81350000D01*
X55263600Y-78401193D02*
G75*
G02*
X57620000Y-76900000I2356400J-1098807D01*
G01*
X55820000Y-81350000D02*
G75*
G02*
X55295816Y-80622795I1800000J1850000D01*
G01*
X57620000Y-76900000D02*
G75*
G02*
X59976400Y-78401193I0J-2600000D01*
G01*
X59944184Y-80622795D02*
G75*
G02*
X59420000Y-81350000I-2324184J1122795D01*
G01*
%TO.C,Q85*%
X71180000Y-28645000D02*
X74780000Y-28645000D01*
X70623600Y-25696193D02*
G75*
G02*
X72980000Y-24195000I2356400J-1098807D01*
G01*
X71180000Y-28645000D02*
G75*
G02*
X70655816Y-27917795I1800000J1850000D01*
G01*
X72980000Y-24195000D02*
G75*
G02*
X75336400Y-25696193I0J-2600000D01*
G01*
X75304184Y-27917795D02*
G75*
G02*
X74780000Y-28645000I-2324184J1122795D01*
G01*
%TO.C,D4*%
X71744000Y-53120000D02*
X71900000Y-53120000D01*
X74060000Y-53120000D02*
X74216000Y-53120000D01*
X71744484Y-53120000D02*
G75*
G02*
X71900000Y-49888563I1235516J1560000D01*
G01*
X71900000Y-52600961D02*
G75*
G02*
X71900000Y-50519039I1080000J1040961D01*
G01*
X74060000Y-49888563D02*
G75*
G02*
X74215516Y-53120000I-1080000J-1671437D01*
G01*
X74060000Y-50519039D02*
G75*
G02*
X74060000Y-52600961I-1080000J-1040961D01*
G01*
%TO.C,Q63*%
X51740000Y-75110000D02*
X48140000Y-75110000D01*
X47615816Y-75837205D02*
G75*
G02*
X48140000Y-75110000I2324184J-1122795D01*
G01*
X49940000Y-79560000D02*
G75*
G02*
X47583600Y-78058807I0J2600000D01*
G01*
X51740000Y-75110000D02*
G75*
G02*
X52264184Y-75837205I-1800000J-1850000D01*
G01*
X52296400Y-78058807D02*
G75*
G02*
X49940000Y-79560000I-2356400J1098807D01*
G01*
%TO.C,Q19*%
X21020000Y-76380000D02*
X17420000Y-76380000D01*
X16895816Y-77107205D02*
G75*
G02*
X17420000Y-76380000I2324184J-1122795D01*
G01*
X19220000Y-80830000D02*
G75*
G02*
X16863600Y-79328807I0J2600000D01*
G01*
X21020000Y-76380000D02*
G75*
G02*
X21544184Y-77107205I-1800000J-1850000D01*
G01*
X21576400Y-79328807D02*
G75*
G02*
X19220000Y-80830000I-2356400J1098807D01*
G01*
%TO.C,Q69*%
X55820000Y-50870000D02*
X59420000Y-50870000D01*
X55263600Y-47921193D02*
G75*
G02*
X57620000Y-46420000I2356400J-1098807D01*
G01*
X55820000Y-50870000D02*
G75*
G02*
X55295816Y-50142795I1800000J1850000D01*
G01*
X57620000Y-46420000D02*
G75*
G02*
X59976400Y-47921193I0J-2600000D01*
G01*
X59944184Y-50142795D02*
G75*
G02*
X59420000Y-50870000I-2324184J1122795D01*
G01*
%TO.C,R35*%
X79490000Y-46480000D02*
X82100000Y-46480000D01*
X79490000Y-46480000D02*
G75*
G02*
X76750000Y-46480000I-1370000J0D01*
G01*
X76750000Y-46480000D02*
G75*
G02*
X79490000Y-46480000I1370000J0D01*
G01*
%TO.C,Q55*%
X51740000Y-28120000D02*
X48140000Y-28120000D01*
X47615816Y-28847205D02*
G75*
G02*
X48140000Y-28120000I2324184J-1122795D01*
G01*
X49940000Y-32570000D02*
G75*
G02*
X47583600Y-31068807I0J2600000D01*
G01*
X51740000Y-28120000D02*
G75*
G02*
X52264184Y-28847205I-1800000J-1850000D01*
G01*
X52296400Y-31068807D02*
G75*
G02*
X49940000Y-32570000I-2356400J1098807D01*
G01*
%TO.C,J5*%
X79620000Y-96380000D02*
X79620000Y-95000000D01*
X81000000Y-96380000D02*
X79620000Y-96380000D01*
X82270000Y-93620000D02*
X87460000Y-93620000D01*
X82270000Y-96380000D02*
X82270000Y-93620000D01*
X82270000Y-96380000D02*
X87460000Y-96380000D01*
X87460000Y-96380000D02*
X87460000Y-93620000D01*
%TO.C,R33*%
X79490000Y-16000000D02*
X82100000Y-16000000D01*
X79490000Y-16000000D02*
G75*
G02*
X76750000Y-16000000I-1370000J0D01*
G01*
X76750000Y-16000000D02*
G75*
G02*
X79490000Y-16000000I1370000J0D01*
G01*
%TO.C,Q44*%
X40460000Y-32455000D02*
X44060000Y-32455000D01*
X39903600Y-29506193D02*
G75*
G02*
X42260000Y-28005000I2356400J-1098807D01*
G01*
X40460000Y-32455000D02*
G75*
G02*
X39935816Y-31727795I1800000J1850000D01*
G01*
X42260000Y-28005000D02*
G75*
G02*
X44616400Y-29506193I0J-2600000D01*
G01*
X44584184Y-31727795D02*
G75*
G02*
X44060000Y-32455000I-2324184J1122795D01*
G01*
%TO.C,R10*%
X18050000Y-56005000D02*
X20660000Y-56005000D01*
X18050000Y-56005000D02*
G75*
G02*
X15310000Y-56005000I-1370000J0D01*
G01*
X15310000Y-56005000D02*
G75*
G02*
X18050000Y-56005000I1370000J0D01*
G01*
%TO.C,Q41*%
X36380000Y-77015000D02*
X32780000Y-77015000D01*
X32255816Y-77742205D02*
G75*
G02*
X32780000Y-77015000I2324184J-1122795D01*
G01*
X34580000Y-81465000D02*
G75*
G02*
X32223600Y-79963807I0J2600000D01*
G01*
X36380000Y-77015000D02*
G75*
G02*
X36904184Y-77742205I-1800000J-1850000D01*
G01*
X36936400Y-79963807D02*
G75*
G02*
X34580000Y-81465000I-2356400J1098807D01*
G01*
%TO.C,Q47*%
X40460000Y-50870000D02*
X44060000Y-50870000D01*
X39903600Y-47921193D02*
G75*
G02*
X42260000Y-46420000I2356400J-1098807D01*
G01*
X40460000Y-50870000D02*
G75*
G02*
X39935816Y-50142795I1800000J1850000D01*
G01*
X42260000Y-46420000D02*
G75*
G02*
X44616400Y-47921193I0J-2600000D01*
G01*
X44584184Y-50142795D02*
G75*
G02*
X44060000Y-50870000I-2324184J1122795D01*
G01*
%TO.C,Q1*%
X9740000Y-22295000D02*
X13340000Y-22295000D01*
X9183600Y-19346193D02*
G75*
G02*
X11540000Y-17845000I2356400J-1098807D01*
G01*
X9740000Y-22295000D02*
G75*
G02*
X9215816Y-21567795I1800000J1850000D01*
G01*
X11540000Y-17845000D02*
G75*
G02*
X13896400Y-19346193I0J-2600000D01*
G01*
X13864184Y-21567795D02*
G75*
G02*
X13340000Y-22295000I-2324184J1122795D01*
G01*
%TO.C,Q61*%
X51740000Y-64950000D02*
X48140000Y-64950000D01*
X47615816Y-65677205D02*
G75*
G02*
X48140000Y-64950000I2324184J-1122795D01*
G01*
X49940000Y-69400000D02*
G75*
G02*
X47583600Y-67898807I0J2600000D01*
G01*
X51740000Y-64950000D02*
G75*
G02*
X52264184Y-65677205I-1800000J-1850000D01*
G01*
X52296400Y-67898807D02*
G75*
G02*
X49940000Y-69400000I-2356400J1098807D01*
G01*
%TO.C,Q89*%
X82460000Y-24945000D02*
X78860000Y-24945000D01*
X78335816Y-25672205D02*
G75*
G02*
X78860000Y-24945000I2324184J-1122795D01*
G01*
X80660000Y-29395000D02*
G75*
G02*
X78303600Y-27893807I0J2600000D01*
G01*
X82460000Y-24945000D02*
G75*
G02*
X82984184Y-25672205I-1800000J-1850000D01*
G01*
X83016400Y-27893807D02*
G75*
G02*
X80660000Y-29395000I-2356400J1098807D01*
G01*
%TO.C,Q6*%
X9740000Y-60395000D02*
X13340000Y-60395000D01*
X9183600Y-57446193D02*
G75*
G02*
X11540000Y-55945000I2356400J-1098807D01*
G01*
X9740000Y-60395000D02*
G75*
G02*
X9215816Y-59667795I1800000J1850000D01*
G01*
X11540000Y-55945000D02*
G75*
G02*
X13896400Y-57446193I0J-2600000D01*
G01*
X13864184Y-59667795D02*
G75*
G02*
X13340000Y-60395000I-2324184J1122795D01*
G01*
%TO.C,Q23*%
X25100000Y-40710000D02*
X28700000Y-40710000D01*
X24543600Y-37761193D02*
G75*
G02*
X26900000Y-36260000I2356400J-1098807D01*
G01*
X25100000Y-40710000D02*
G75*
G02*
X24575816Y-39982795I1800000J1850000D01*
G01*
X26900000Y-36260000D02*
G75*
G02*
X29256400Y-37761193I0J-2600000D01*
G01*
X29224184Y-39982795D02*
G75*
G02*
X28700000Y-40710000I-2324184J1122795D01*
G01*
%TO.C,Q9*%
X9740000Y-78810000D02*
X13340000Y-78810000D01*
X9183600Y-75861193D02*
G75*
G02*
X11540000Y-74360000I2356400J-1098807D01*
G01*
X9740000Y-78810000D02*
G75*
G02*
X9215816Y-78082795I1800000J1850000D01*
G01*
X11540000Y-74360000D02*
G75*
G02*
X13896400Y-75861193I0J-2600000D01*
G01*
X13864184Y-78082795D02*
G75*
G02*
X13340000Y-78810000I-2324184J1122795D01*
G01*
%TO.C,Q71*%
X55820000Y-61030000D02*
X59420000Y-61030000D01*
X55263600Y-58081193D02*
G75*
G02*
X57620000Y-56580000I2356400J-1098807D01*
G01*
X55820000Y-61030000D02*
G75*
G02*
X55295816Y-60302795I1800000J1850000D01*
G01*
X57620000Y-56580000D02*
G75*
G02*
X59976400Y-58081193I0J-2600000D01*
G01*
X59944184Y-60302795D02*
G75*
G02*
X59420000Y-61030000I-2324184J1122795D01*
G01*
%TO.C,Q10*%
X21020000Y-17960000D02*
X17420000Y-17960000D01*
X16895816Y-18687205D02*
G75*
G02*
X17420000Y-17960000I2324184J-1122795D01*
G01*
X19220000Y-22410000D02*
G75*
G02*
X16863600Y-20908807I0J2600000D01*
G01*
X21020000Y-17960000D02*
G75*
G02*
X21544184Y-18687205I-1800000J-1850000D01*
G01*
X21576400Y-20908807D02*
G75*
G02*
X19220000Y-22410000I-2356400J1098807D01*
G01*
%TO.C,Q50*%
X40460000Y-66110000D02*
X44060000Y-66110000D01*
X39903600Y-63161193D02*
G75*
G02*
X42260000Y-61660000I2356400J-1098807D01*
G01*
X40460000Y-66110000D02*
G75*
G02*
X39935816Y-65382795I1800000J1850000D01*
G01*
X42260000Y-61660000D02*
G75*
G02*
X44616400Y-63161193I0J-2600000D01*
G01*
X44584184Y-65382795D02*
G75*
G02*
X44060000Y-66110000I-2324184J1122795D01*
G01*
%TO.C,Q7*%
X9740000Y-65475000D02*
X13340000Y-65475000D01*
X9183600Y-62526193D02*
G75*
G02*
X11540000Y-61025000I2356400J-1098807D01*
G01*
X9740000Y-65475000D02*
G75*
G02*
X9215816Y-64747795I1800000J1850000D01*
G01*
X11540000Y-61025000D02*
G75*
G02*
X13896400Y-62526193I0J-2600000D01*
G01*
X13864184Y-64747795D02*
G75*
G02*
X13340000Y-65475000I-2324184J1122795D01*
G01*
%TO.C,Q13*%
X21020000Y-36375000D02*
X17420000Y-36375000D01*
X16895816Y-37102205D02*
G75*
G02*
X17420000Y-36375000I2324184J-1122795D01*
G01*
X19220000Y-40825000D02*
G75*
G02*
X16863600Y-39323807I0J2600000D01*
G01*
X21020000Y-36375000D02*
G75*
G02*
X21544184Y-37102205I-1800000J-1850000D01*
G01*
X21576400Y-39323807D02*
G75*
G02*
X19220000Y-40825000I-2356400J1098807D01*
G01*
%TO.C,Q84*%
X67100000Y-71935000D02*
X63500000Y-71935000D01*
X62975816Y-72662205D02*
G75*
G02*
X63500000Y-71935000I2324184J-1122795D01*
G01*
X65300000Y-76385000D02*
G75*
G02*
X62943600Y-74883807I0J2600000D01*
G01*
X67100000Y-71935000D02*
G75*
G02*
X67624184Y-72662205I-1800000J-1850000D01*
G01*
X67656400Y-74883807D02*
G75*
G02*
X65300000Y-76385000I-2356400J1098807D01*
G01*
%TO.C,Q32*%
X36380000Y-24945000D02*
X32780000Y-24945000D01*
X32255816Y-25672205D02*
G75*
G02*
X32780000Y-24945000I2324184J-1122795D01*
G01*
X34580000Y-29395000D02*
G75*
G02*
X32223600Y-27893807I0J2600000D01*
G01*
X36380000Y-24945000D02*
G75*
G02*
X36904184Y-25672205I-1800000J-1850000D01*
G01*
X36936400Y-27893807D02*
G75*
G02*
X34580000Y-29395000I-2356400J1098807D01*
G01*
%TO.C,Q20*%
X25100000Y-22295000D02*
X28700000Y-22295000D01*
X24543600Y-19346193D02*
G75*
G02*
X26900000Y-17845000I2356400J-1098807D01*
G01*
X25100000Y-22295000D02*
G75*
G02*
X24575816Y-21567795I1800000J1850000D01*
G01*
X26900000Y-17845000D02*
G75*
G02*
X29256400Y-19346193I0J-2600000D01*
G01*
X29224184Y-21567795D02*
G75*
G02*
X28700000Y-22295000I-2324184J1122795D01*
G01*
%TO.C,R25*%
X56450000Y-44575000D02*
X59060000Y-44575000D01*
X56450000Y-44575000D02*
G75*
G02*
X53710000Y-44575000I-1370000J0D01*
G01*
X53710000Y-44575000D02*
G75*
G02*
X56450000Y-44575000I1370000J0D01*
G01*
%TO.C,Q24*%
X25100000Y-45790000D02*
X28700000Y-45790000D01*
X24543600Y-42841193D02*
G75*
G02*
X26900000Y-41340000I2356400J-1098807D01*
G01*
X25100000Y-45790000D02*
G75*
G02*
X24575816Y-45062795I1800000J1850000D01*
G01*
X26900000Y-41340000D02*
G75*
G02*
X29256400Y-42841193I0J-2600000D01*
G01*
X29224184Y-45062795D02*
G75*
G02*
X28700000Y-45790000I-2324184J1122795D01*
G01*
%TO.C,Q17*%
X21020000Y-63045000D02*
X17420000Y-63045000D01*
X16895816Y-63772205D02*
G75*
G02*
X17420000Y-63045000I2324184J-1122795D01*
G01*
X19220000Y-67495000D02*
G75*
G02*
X16863600Y-65993807I0J2600000D01*
G01*
X21020000Y-63045000D02*
G75*
G02*
X21544184Y-63772205I-1800000J-1850000D01*
G01*
X21576400Y-65993807D02*
G75*
G02*
X19220000Y-67495000I-2356400J1098807D01*
G01*
%TO.C,R23*%
X48770000Y-62990000D02*
X51380000Y-62990000D01*
X48770000Y-62990000D02*
G75*
G02*
X46030000Y-62990000I-1370000J0D01*
G01*
X46030000Y-62990000D02*
G75*
G02*
X48770000Y-62990000I1370000J0D01*
G01*
%TO.C,R11*%
X18050000Y-69340000D02*
X20660000Y-69340000D01*
X18050000Y-69340000D02*
G75*
G02*
X15310000Y-69340000I-1370000J0D01*
G01*
X15310000Y-69340000D02*
G75*
G02*
X18050000Y-69340000I1370000J0D01*
G01*
%TO.C,Q35*%
X36380000Y-40185000D02*
X32780000Y-40185000D01*
X32255816Y-40912205D02*
G75*
G02*
X32780000Y-40185000I2324184J-1122795D01*
G01*
X34580000Y-44635000D02*
G75*
G02*
X32223600Y-43133807I0J2600000D01*
G01*
X36380000Y-40185000D02*
G75*
G02*
X36904184Y-40912205I-1800000J-1850000D01*
G01*
X36936400Y-43133807D02*
G75*
G02*
X34580000Y-44635000I-2356400J1098807D01*
G01*
%TO.C,D1*%
X64064000Y-69630000D02*
X64220000Y-69630000D01*
X66380000Y-69630000D02*
X66536000Y-69630000D01*
X64064484Y-69630000D02*
G75*
G02*
X64220000Y-66398563I1235516J1560000D01*
G01*
X64220000Y-69110961D02*
G75*
G02*
X64220000Y-67029039I1080000J1040961D01*
G01*
X66380000Y-66398563D02*
G75*
G02*
X66535516Y-69630000I-1080000J-1671437D01*
G01*
X66380000Y-67029039D02*
G75*
G02*
X66380000Y-69110961I-1080000J-1040961D01*
G01*
%TO.C,Q43*%
X40460000Y-24200000D02*
X44060000Y-24200000D01*
X39903600Y-21251193D02*
G75*
G02*
X42260000Y-19750000I2356400J-1098807D01*
G01*
X40460000Y-24200000D02*
G75*
G02*
X39935816Y-23472795I1800000J1850000D01*
G01*
X42260000Y-19750000D02*
G75*
G02*
X44616400Y-21251193I0J-2600000D01*
G01*
X44584184Y-23472795D02*
G75*
G02*
X44060000Y-24200000I-2324184J1122795D01*
G01*
%TO.C,J4*%
X70120000Y-96380000D02*
X70120000Y-95000000D01*
X71500000Y-96380000D02*
X70120000Y-96380000D01*
X72770000Y-93620000D02*
X77960000Y-93620000D01*
X72770000Y-96380000D02*
X72770000Y-93620000D01*
X72770000Y-96380000D02*
X77960000Y-96380000D01*
X77960000Y-96380000D02*
X77960000Y-93620000D01*
%TO.C,Q45*%
X40460000Y-40710000D02*
X44060000Y-40710000D01*
X39903600Y-37761193D02*
G75*
G02*
X42260000Y-36260000I2356400J-1098807D01*
G01*
X40460000Y-40710000D02*
G75*
G02*
X39935816Y-39982795I1800000J1850000D01*
G01*
X42260000Y-36260000D02*
G75*
G02*
X44616400Y-37761193I0J-2600000D01*
G01*
X44584184Y-39982795D02*
G75*
G02*
X44060000Y-40710000I-2324184J1122795D01*
G01*
%TO.C,R14*%
X25730000Y-62990000D02*
X28340000Y-62990000D01*
X25730000Y-62990000D02*
G75*
G02*
X22990000Y-62990000I-1370000J0D01*
G01*
X22990000Y-62990000D02*
G75*
G02*
X25730000Y-62990000I1370000J0D01*
G01*
%TO.C,Q54*%
X51740000Y-23040000D02*
X48140000Y-23040000D01*
X47615816Y-23767205D02*
G75*
G02*
X48140000Y-23040000I2324184J-1122795D01*
G01*
X49940000Y-27490000D02*
G75*
G02*
X47583600Y-25988807I0J2600000D01*
G01*
X51740000Y-23040000D02*
G75*
G02*
X52264184Y-23767205I-1800000J-1850000D01*
G01*
X52296400Y-25988807D02*
G75*
G02*
X49940000Y-27490000I-2356400J1098807D01*
G01*
%TO.C,R5*%
X10370000Y-49020000D02*
X12980000Y-49020000D01*
X10370000Y-49020000D02*
G75*
G02*
X7630000Y-49020000I-1370000J0D01*
G01*
X7630000Y-49020000D02*
G75*
G02*
X10370000Y-49020000I1370000J0D01*
G01*
%TO.C,Q91*%
X82460000Y-55425000D02*
X78860000Y-55425000D01*
X78335816Y-56152205D02*
G75*
G02*
X78860000Y-55425000I2324184J-1122795D01*
G01*
X80660000Y-59875000D02*
G75*
G02*
X78303600Y-58373807I0J2600000D01*
G01*
X82460000Y-55425000D02*
G75*
G02*
X82984184Y-56152205I-1800000J-1850000D01*
G01*
X83016400Y-58373807D02*
G75*
G02*
X80660000Y-59875000I-2356400J1098807D01*
G01*
%TO.C,Q48*%
X40460000Y-55950000D02*
X44060000Y-55950000D01*
X39903600Y-53001193D02*
G75*
G02*
X42260000Y-51500000I2356400J-1098807D01*
G01*
X40460000Y-55950000D02*
G75*
G02*
X39935816Y-55222795I1800000J1850000D01*
G01*
X42260000Y-51500000D02*
G75*
G02*
X44616400Y-53001193I0J-2600000D01*
G01*
X44584184Y-55222795D02*
G75*
G02*
X44060000Y-55950000I-2324184J1122795D01*
G01*
%TO.C,C2*%
X93960000Y-27000000D02*
X92420000Y-27000000D01*
X93960000Y-27040000D02*
X92420000Y-27040000D01*
X93960000Y-27080000D02*
X92421000Y-27080000D01*
X93960000Y-27120000D02*
X92423000Y-27120000D01*
X93960000Y-27160000D02*
X92425000Y-27160000D01*
X93960000Y-27200000D02*
X92428000Y-27200000D01*
X93960000Y-27240000D02*
X92431000Y-27240000D01*
X93960000Y-27280000D02*
X92435000Y-27280000D01*
X93960000Y-27320000D02*
X92440000Y-27320000D01*
X93960000Y-27360000D02*
X92445000Y-27360000D01*
X93960000Y-27400000D02*
X92451000Y-27400000D01*
X93960000Y-27440000D02*
X92457000Y-27440000D01*
X93960000Y-27480000D02*
X92464000Y-27480000D01*
X93960000Y-27520000D02*
X92472000Y-27520000D01*
X93960000Y-27560000D02*
X92481000Y-27560000D01*
X93960000Y-27600000D02*
X92490000Y-27600000D01*
X93960000Y-27640000D02*
X92499000Y-27640000D01*
X93960000Y-27680000D02*
X92510000Y-27680000D01*
X93960000Y-27720000D02*
X92521000Y-27720000D01*
X93960000Y-27760000D02*
X92533000Y-27760000D01*
X93960000Y-27800000D02*
X92545000Y-27800000D01*
X93960000Y-27840000D02*
X92558000Y-27840000D01*
X93960000Y-27880000D02*
X92572000Y-27880000D01*
X93960000Y-27920000D02*
X92587000Y-27920000D01*
X93960000Y-27960000D02*
X92602000Y-27960000D01*
X93960000Y-28000000D02*
X92618000Y-28000000D01*
X93960000Y-28040000D02*
X92635000Y-28040000D01*
X93960000Y-28080000D02*
X92653000Y-28080000D01*
X93960000Y-28120000D02*
X92671000Y-28120000D01*
X93960000Y-28160000D02*
X92691000Y-28160000D01*
X93960000Y-28200000D02*
X92711000Y-28200000D01*
X93960000Y-28240000D02*
X92732000Y-28240000D01*
X93960000Y-28280000D02*
X92754000Y-28280000D01*
X93960000Y-28320000D02*
X92777000Y-28320000D01*
X93960000Y-28360000D02*
X92801000Y-28360000D01*
X93960000Y-28400000D02*
X92825000Y-28400000D01*
X93960000Y-28440000D02*
X92851000Y-28440000D01*
X93960000Y-28480000D02*
X92878000Y-28480000D01*
X93960000Y-28520000D02*
X92906000Y-28520000D01*
X93960000Y-28560000D02*
X92935000Y-28560000D01*
X93960000Y-28600000D02*
X92965000Y-28600000D01*
X93960000Y-28640000D02*
X92997000Y-28640000D01*
X93960000Y-28680000D02*
X93030000Y-28680000D01*
X93960000Y-28720000D02*
X93064000Y-28720000D01*
X93960000Y-28760000D02*
X93099000Y-28760000D01*
X93960000Y-28800000D02*
X93136000Y-28800000D01*
X93960000Y-28840000D02*
X93175000Y-28840000D01*
X93960000Y-28880000D02*
X93215000Y-28880000D01*
X93960000Y-28920000D02*
X93257000Y-28920000D01*
X93960000Y-28960000D02*
X93301000Y-28960000D01*
X93960000Y-29000000D02*
X93348000Y-29000000D01*
X95283000Y-29600000D02*
X94717000Y-29600000D01*
X95517000Y-29560000D02*
X94483000Y-29560000D01*
X95677000Y-29520000D02*
X94323000Y-29520000D01*
X95805000Y-29480000D02*
X94195000Y-29480000D01*
X95914000Y-29440000D02*
X94086000Y-29440000D01*
X96011000Y-29400000D02*
X93989000Y-29400000D01*
X96098000Y-29360000D02*
X93902000Y-29360000D01*
X96177000Y-29320000D02*
X93823000Y-29320000D01*
X96251000Y-29280000D02*
X93749000Y-29280000D01*
X96319000Y-29240000D02*
X93681000Y-29240000D01*
X96383000Y-29200000D02*
X93617000Y-29200000D01*
X96443000Y-29160000D02*
X93557000Y-29160000D01*
X96475000Y-24195225D02*
X96475000Y-24695225D01*
X96499000Y-29120000D02*
X93501000Y-29120000D01*
X96553000Y-29080000D02*
X93447000Y-29080000D01*
X96604000Y-29040000D02*
X93396000Y-29040000D01*
X96652000Y-29000000D02*
X96040000Y-29000000D01*
X96699000Y-28960000D02*
X96040000Y-28960000D01*
X96725000Y-24445225D02*
X96225000Y-24445225D01*
X96743000Y-28920000D02*
X96040000Y-28920000D01*
X96785000Y-28880000D02*
X96040000Y-28880000D01*
X96825000Y-28840000D02*
X96040000Y-28840000D01*
X96864000Y-28800000D02*
X96040000Y-28800000D01*
X96901000Y-28760000D02*
X96040000Y-28760000D01*
X96936000Y-28720000D02*
X96040000Y-28720000D01*
X96970000Y-28680000D02*
X96040000Y-28680000D01*
X97003000Y-28640000D02*
X96040000Y-28640000D01*
X97035000Y-28600000D02*
X96040000Y-28600000D01*
X97065000Y-28560000D02*
X96040000Y-28560000D01*
X97094000Y-28520000D02*
X96040000Y-28520000D01*
X97122000Y-28480000D02*
X96040000Y-28480000D01*
X97149000Y-28440000D02*
X96040000Y-28440000D01*
X97175000Y-28400000D02*
X96040000Y-28400000D01*
X97199000Y-28360000D02*
X96040000Y-28360000D01*
X97223000Y-28320000D02*
X96040000Y-28320000D01*
X97246000Y-28280000D02*
X96040000Y-28280000D01*
X97268000Y-28240000D02*
X96040000Y-28240000D01*
X97289000Y-28200000D02*
X96040000Y-28200000D01*
X97309000Y-28160000D02*
X96040000Y-28160000D01*
X97329000Y-28120000D02*
X96040000Y-28120000D01*
X97347000Y-28080000D02*
X96040000Y-28080000D01*
X97365000Y-28040000D02*
X96040000Y-28040000D01*
X97382000Y-28000000D02*
X96040000Y-28000000D01*
X97398000Y-27960000D02*
X96040000Y-27960000D01*
X97413000Y-27920000D02*
X96040000Y-27920000D01*
X97428000Y-27880000D02*
X96040000Y-27880000D01*
X97442000Y-27840000D02*
X96040000Y-27840000D01*
X97455000Y-27800000D02*
X96040000Y-27800000D01*
X97467000Y-27760000D02*
X96040000Y-27760000D01*
X97479000Y-27720000D02*
X96040000Y-27720000D01*
X97490000Y-27680000D02*
X96040000Y-27680000D01*
X97501000Y-27640000D02*
X96040000Y-27640000D01*
X97510000Y-27600000D02*
X96040000Y-27600000D01*
X97519000Y-27560000D02*
X96040000Y-27560000D01*
X97528000Y-27520000D02*
X96040000Y-27520000D01*
X97536000Y-27480000D02*
X96040000Y-27480000D01*
X97543000Y-27440000D02*
X96040000Y-27440000D01*
X97549000Y-27400000D02*
X96040000Y-27400000D01*
X97555000Y-27360000D02*
X96040000Y-27360000D01*
X97560000Y-27320000D02*
X96040000Y-27320000D01*
X97565000Y-27280000D02*
X96040000Y-27280000D01*
X97569000Y-27240000D02*
X96040000Y-27240000D01*
X97572000Y-27200000D02*
X96040000Y-27200000D01*
X97575000Y-27160000D02*
X96040000Y-27160000D01*
X97577000Y-27120000D02*
X96040000Y-27120000D01*
X97579000Y-27080000D02*
X96040000Y-27080000D01*
X97580000Y-27000000D02*
X96040000Y-27000000D01*
X97580000Y-27040000D02*
X96040000Y-27040000D01*
X97620000Y-27000000D02*
G75*
G02*
X92380000Y-27000000I-2620000J0D01*
G01*
X92380000Y-27000000D02*
G75*
G02*
X97620000Y-27000000I2620000J0D01*
G01*
%TO.C,C1*%
X93630000Y-15130000D02*
X96370000Y-15130000D01*
X93630000Y-20370000D02*
X93630000Y-15130000D01*
X96370000Y-15130000D02*
X96370000Y-20370000D01*
X96370000Y-20370000D02*
X93630000Y-20370000D01*
%TO.C,R34*%
X79490000Y-31240000D02*
X82100000Y-31240000D01*
X79490000Y-31240000D02*
G75*
G02*
X76750000Y-31240000I-1370000J0D01*
G01*
X76750000Y-31240000D02*
G75*
G02*
X79490000Y-31240000I1370000J0D01*
G01*
%TO.C,R6*%
X10370000Y-67435000D02*
X12980000Y-67435000D01*
X10370000Y-67435000D02*
G75*
G02*
X7630000Y-67435000I-1370000J0D01*
G01*
X7630000Y-67435000D02*
G75*
G02*
X10370000Y-67435000I1370000J0D01*
G01*
%TO.C,Q57*%
X51740000Y-38280000D02*
X48140000Y-38280000D01*
X47615816Y-39007205D02*
G75*
G02*
X48140000Y-38280000I2324184J-1122795D01*
G01*
X49940000Y-42730000D02*
G75*
G02*
X47583600Y-41228807I0J2600000D01*
G01*
X51740000Y-38280000D02*
G75*
G02*
X52264184Y-39007205I-1800000J-1850000D01*
G01*
X52296400Y-41228807D02*
G75*
G02*
X49940000Y-42730000I-2356400J1098807D01*
G01*
%TO.C,Q40*%
X36380000Y-71935000D02*
X32780000Y-71935000D01*
X32255816Y-72662205D02*
G75*
G02*
X32780000Y-71935000I2324184J-1122795D01*
G01*
X34580000Y-76385000D02*
G75*
G02*
X32223600Y-74883807I0J2600000D01*
G01*
X36380000Y-71935000D02*
G75*
G02*
X36904184Y-72662205I-1800000J-1850000D01*
G01*
X36936400Y-74883807D02*
G75*
G02*
X34580000Y-76385000I-2356400J1098807D01*
G01*
%TO.C,Q15*%
X21020000Y-49710000D02*
X17420000Y-49710000D01*
X16895816Y-50437205D02*
G75*
G02*
X17420000Y-49710000I2324184J-1122795D01*
G01*
X19220000Y-54160000D02*
G75*
G02*
X16863600Y-52658807I0J2600000D01*
G01*
X21020000Y-49710000D02*
G75*
G02*
X21544184Y-50437205I-1800000J-1850000D01*
G01*
X21576400Y-52658807D02*
G75*
G02*
X19220000Y-54160000I-2356400J1098807D01*
G01*
%TO.C,Q52*%
X40460000Y-79445000D02*
X44060000Y-79445000D01*
X39903600Y-76496193D02*
G75*
G02*
X42260000Y-74995000I2356400J-1098807D01*
G01*
X40460000Y-79445000D02*
G75*
G02*
X39935816Y-78717795I1800000J1850000D01*
G01*
X42260000Y-74995000D02*
G75*
G02*
X44616400Y-76496193I0J-2600000D01*
G01*
X44584184Y-78717795D02*
G75*
G02*
X44060000Y-79445000I-2324184J1122795D01*
G01*
%TO.C,Q65*%
X55820000Y-24200000D02*
X59420000Y-24200000D01*
X55263600Y-21251193D02*
G75*
G02*
X57620000Y-19750000I2356400J-1098807D01*
G01*
X55820000Y-24200000D02*
G75*
G02*
X55295816Y-23472795I1800000J1850000D01*
G01*
X57620000Y-19750000D02*
G75*
G02*
X59976400Y-21251193I0J-2600000D01*
G01*
X59944184Y-23472795D02*
G75*
G02*
X59420000Y-24200000I-2324184J1122795D01*
G01*
%TO.C,R31*%
X71810000Y-46480000D02*
X74420000Y-46480000D01*
X71810000Y-46480000D02*
G75*
G02*
X69070000Y-46480000I-1370000J0D01*
G01*
X69070000Y-46480000D02*
G75*
G02*
X71810000Y-46480000I1370000J0D01*
G01*
%TO.C,Q5*%
X9740000Y-55315000D02*
X13340000Y-55315000D01*
X9183600Y-52366193D02*
G75*
G02*
X11540000Y-50865000I2356400J-1098807D01*
G01*
X9740000Y-55315000D02*
G75*
G02*
X9215816Y-54587795I1800000J1850000D01*
G01*
X11540000Y-50865000D02*
G75*
G02*
X13896400Y-52366193I0J-2600000D01*
G01*
X13864184Y-54587795D02*
G75*
G02*
X13340000Y-55315000I-2324184J1122795D01*
G01*
%TO.C,R20*%
X41090000Y-73150000D02*
X43700000Y-73150000D01*
X41090000Y-73150000D02*
G75*
G02*
X38350000Y-73150000I-1370000J0D01*
G01*
X38350000Y-73150000D02*
G75*
G02*
X41090000Y-73150000I1370000J0D01*
G01*
%TO.C,Q67*%
X55820000Y-34360000D02*
X59420000Y-34360000D01*
X55263600Y-31411193D02*
G75*
G02*
X57620000Y-29910000I2356400J-1098807D01*
G01*
X55820000Y-34360000D02*
G75*
G02*
X55295816Y-33632795I1800000J1850000D01*
G01*
X57620000Y-29910000D02*
G75*
G02*
X59976400Y-31411193I0J-2600000D01*
G01*
X59944184Y-33632795D02*
G75*
G02*
X59420000Y-34360000I-2324184J1122795D01*
G01*
%TO.C,R18*%
X41090000Y-26160000D02*
X43700000Y-26160000D01*
X41090000Y-26160000D02*
G75*
G02*
X38350000Y-26160000I-1370000J0D01*
G01*
X38350000Y-26160000D02*
G75*
G02*
X41090000Y-26160000I1370000J0D01*
G01*
%TO.C,Q31*%
X36380000Y-19865000D02*
X32780000Y-19865000D01*
X32255816Y-20592205D02*
G75*
G02*
X32780000Y-19865000I2324184J-1122795D01*
G01*
X34580000Y-24315000D02*
G75*
G02*
X32223600Y-22813807I0J2600000D01*
G01*
X36380000Y-19865000D02*
G75*
G02*
X36904184Y-20592205I-1800000J-1850000D01*
G01*
X36936400Y-22813807D02*
G75*
G02*
X34580000Y-24315000I-2356400J1098807D01*
G01*
%TO.C,Q68*%
X55820000Y-42615000D02*
X59420000Y-42615000D01*
X55263600Y-39666193D02*
G75*
G02*
X57620000Y-38165000I2356400J-1098807D01*
G01*
X55820000Y-42615000D02*
G75*
G02*
X55295816Y-41887795I1800000J1850000D01*
G01*
X57620000Y-38165000D02*
G75*
G02*
X59976400Y-39666193I0J-2600000D01*
G01*
X59944184Y-41887795D02*
G75*
G02*
X59420000Y-42615000I-2324184J1122795D01*
G01*
%TO.C,Q14*%
X21020000Y-44630000D02*
X17420000Y-44630000D01*
X16895816Y-45357205D02*
G75*
G02*
X17420000Y-44630000I2324184J-1122795D01*
G01*
X19220000Y-49080000D02*
G75*
G02*
X16863600Y-47578807I0J2600000D01*
G01*
X21020000Y-44630000D02*
G75*
G02*
X21544184Y-45357205I-1800000J-1850000D01*
G01*
X21576400Y-47578807D02*
G75*
G02*
X19220000Y-49080000I-2356400J1098807D01*
G01*
%TO.C,Q80*%
X67100000Y-41455000D02*
X63500000Y-41455000D01*
X62975816Y-42182205D02*
G75*
G02*
X63500000Y-41455000I2324184J-1122795D01*
G01*
X65300000Y-45905000D02*
G75*
G02*
X62943600Y-44403807I0J2600000D01*
G01*
X67100000Y-41455000D02*
G75*
G02*
X67624184Y-42182205I-1800000J-1850000D01*
G01*
X67656400Y-44403807D02*
G75*
G02*
X65300000Y-45905000I-2356400J1098807D01*
G01*
%TD*%
M02*
