%TF.GenerationSoftware,KiCad,Pcbnew,10.0.5*%
%TF.CreationDate,2026-09-11T05:31:18-04:00*%
%TF.ProjectId,memslot,6d656d73-6c6f-4742-9e6b-696361645f70,rev?*%
%TF.SameCoordinates,Original*%
%TF.FileFunction,Soldermask,Top*%
%TF.FilePolarity,Negative*%
%FSLAX46Y46*%
G04 Gerber Fmt 4.6, Leading zero omitted, Abs format (unit mm)*
G04 Created by KiCad (PCBNEW 10.0.5) date 2026-09-11 05:31:18*
%MOMM*%
%LPD*%
G01*
G04 APERTURE LIST*
G04 Aperture macros list*
%AMRoundRect*
0 Rectangle with rounded corners*
0 $1 Rounding radius*
0 $2 $3 $4 $5 $6 $7 $8 $9 X,Y pos of 4 corners*
0 Add a 4 corners polygon primitive as box body*
4,1,4,$2,$3,$4,$5,$6,$7,$8,$9,$2,$3,0*
0 Add four circle primitives for the rounded corners*
1,1,$1+$1,$2,$3*
1,1,$1+$1,$4,$5*
1,1,$1+$1,$6,$7*
1,1,$1+$1,$8,$9*
0 Add four rect primitives between the rounded corners*
20,1,$1+$1,$2,$3,$4,$5,0*
20,1,$1+$1,$4,$5,$6,$7,0*
20,1,$1+$1,$6,$7,$8,$9,0*
20,1,$1+$1,$8,$9,$2,$3,0*%
G04 Aperture macros list end*
%ADD10R,1.500000X1.500000*%
%ADD11C,1.500000*%
%ADD12R,1.800000X1.800000*%
%ADD13C,1.800000*%
%ADD14C,1.600000*%
%ADD15C,6.400000*%
%ADD16RoundRect,0.250000X0.600000X-0.600000X0.600000X0.600000X-0.600000X0.600000X-0.600000X-0.600000X0*%
%ADD17C,1.700000*%
%ADD18R,1.700000X1.700000*%
%ADD19RoundRect,0.250000X-0.550000X0.550000X-0.550000X-0.550000X0.550000X-0.550000X0.550000X0.550000X0*%
G04 APERTURE END LIST*
D10*
%TO.C,Q74*%
X55080000Y-74420000D03*
D11*
X57620000Y-74420000D03*
X60160000Y-74420000D03*
%TD*%
D10*
%TO.C,Q64*%
X55080000Y-17270000D03*
D11*
X57620000Y-17270000D03*
X60160000Y-17270000D03*
%TD*%
D12*
%TO.C,D3*%
X72980000Y-37590000D03*
D13*
X72980000Y-35050000D03*
%TD*%
D14*
%TO.C,R17*%
X32040000Y-54735000D03*
X37120000Y-54735000D03*
%TD*%
D15*
%TO.C,H2*%
X96000000Y-50000000D03*
%TD*%
D12*
%TO.C,D8*%
X80660000Y-52830000D03*
D13*
X80660000Y-50290000D03*
%TD*%
D10*
%TO.C,Q79*%
X67840000Y-38225000D03*
D11*
X65300000Y-38225000D03*
X62760000Y-38225000D03*
%TD*%
D10*
%TO.C,Q58*%
X52480000Y-45210000D03*
D11*
X49940000Y-45210000D03*
X47400000Y-45210000D03*
%TD*%
D14*
%TO.C,R9*%
X16680000Y-42670000D03*
X21760000Y-42670000D03*
%TD*%
D10*
%TO.C,Q8*%
X9000000Y-71880000D03*
D11*
X11540000Y-71880000D03*
X14080000Y-71880000D03*
%TD*%
D14*
%TO.C,R13*%
X24360000Y-24255000D03*
X29440000Y-24255000D03*
%TD*%
D10*
%TO.C,Q70*%
X55080000Y-54100000D03*
D11*
X57620000Y-54100000D03*
X60160000Y-54100000D03*
%TD*%
D14*
%TO.C,R8*%
X16680000Y-29335000D03*
X21760000Y-29335000D03*
%TD*%
%TO.C,R24*%
X55080000Y-36320000D03*
X60160000Y-36320000D03*
%TD*%
D10*
%TO.C,Q25*%
X24360000Y-49020000D03*
D11*
X26900000Y-49020000D03*
X29440000Y-49020000D03*
%TD*%
D10*
%TO.C,Q18*%
X21760000Y-73150000D03*
D11*
X19220000Y-73150000D03*
X16680000Y-73150000D03*
%TD*%
D10*
%TO.C,Q29*%
X24360000Y-75690000D03*
D11*
X26900000Y-75690000D03*
X29440000Y-75690000D03*
%TD*%
D10*
%TO.C,Q38*%
X37120000Y-63625000D03*
D11*
X34580000Y-63625000D03*
X32040000Y-63625000D03*
%TD*%
D10*
%TO.C,Q42*%
X39720000Y-17270000D03*
D11*
X42260000Y-17270000D03*
X44800000Y-17270000D03*
%TD*%
D10*
%TO.C,Q2*%
X9000000Y-28700000D03*
D11*
X11540000Y-28700000D03*
X14080000Y-28700000D03*
%TD*%
D10*
%TO.C,Q4*%
X9000000Y-45210000D03*
D11*
X11540000Y-45210000D03*
X14080000Y-45210000D03*
%TD*%
D14*
%TO.C,R27*%
X62760000Y-24255000D03*
X67840000Y-24255000D03*
%TD*%
D10*
%TO.C,Q46*%
X39720000Y-43940000D03*
D11*
X42260000Y-43940000D03*
X44800000Y-43940000D03*
%TD*%
D10*
%TO.C,Q88*%
X70440000Y-72515000D03*
D11*
X72980000Y-72515000D03*
X75520000Y-72515000D03*
%TD*%
D12*
%TO.C,D7*%
X80660000Y-37590000D03*
D13*
X80660000Y-35050000D03*
%TD*%
D14*
%TO.C,R2*%
X9000000Y-24255000D03*
X14080000Y-24255000D03*
%TD*%
%TO.C,R32*%
X70440000Y-61720000D03*
X75520000Y-61720000D03*
%TD*%
D10*
%TO.C,Q87*%
X70440000Y-57275000D03*
D11*
X72980000Y-57275000D03*
X75520000Y-57275000D03*
%TD*%
D10*
%TO.C,Q3*%
X9000000Y-36955000D03*
D11*
X11540000Y-36955000D03*
X14080000Y-36955000D03*
%TD*%
D10*
%TO.C,Q82*%
X67840000Y-53465000D03*
D11*
X65300000Y-53465000D03*
X62760000Y-53465000D03*
%TD*%
D16*
%TO.C,J2*%
X40000000Y-95000000D03*
D17*
X40000000Y-92460000D03*
X42540000Y-95000000D03*
X42540000Y-92460000D03*
X45080000Y-95000000D03*
X45080000Y-92460000D03*
X47620000Y-95000000D03*
X47620000Y-92460000D03*
X50160000Y-95000000D03*
X50160000Y-92460000D03*
X52700000Y-95000000D03*
X52700000Y-92460000D03*
%TD*%
D10*
%TO.C,Q21*%
X24360000Y-28700000D03*
D11*
X26900000Y-28700000D03*
X29440000Y-28700000D03*
%TD*%
D10*
%TO.C,Q16*%
X21760000Y-59815000D03*
D11*
X19220000Y-59815000D03*
X16680000Y-59815000D03*
%TD*%
D12*
%TO.C,D5*%
X72980000Y-68070000D03*
D13*
X72980000Y-65530000D03*
%TD*%
D14*
%TO.C,R30*%
X70440000Y-31240000D03*
X75520000Y-31240000D03*
%TD*%
D10*
%TO.C,Q59*%
X52480000Y-50290000D03*
D11*
X49940000Y-50290000D03*
X47400000Y-50290000D03*
%TD*%
D10*
%TO.C,Q49*%
X39720000Y-59180000D03*
D11*
X42260000Y-59180000D03*
X44800000Y-59180000D03*
%TD*%
D14*
%TO.C,R26*%
X62760000Y-16000000D03*
X67840000Y-16000000D03*
%TD*%
%TO.C,R28*%
X62760000Y-62990000D03*
X67840000Y-62990000D03*
%TD*%
%TO.C,R21*%
X47400000Y-16000000D03*
X52480000Y-16000000D03*
%TD*%
%TO.C,R22*%
X47400000Y-54735000D03*
X52480000Y-54735000D03*
%TD*%
D16*
%TO.C,J1*%
X10630000Y-7500000D03*
D17*
X10630000Y-4960000D03*
X13170000Y-7500000D03*
X13170000Y-4960000D03*
X15710000Y-7500000D03*
X15710000Y-4960000D03*
X18250000Y-7500000D03*
X18250000Y-4960000D03*
X20790000Y-7500000D03*
X20790000Y-4960000D03*
X23330000Y-7500000D03*
X23330000Y-4960000D03*
X25870000Y-7500000D03*
X25870000Y-4960000D03*
X28410000Y-7500000D03*
X28410000Y-4960000D03*
X30950000Y-7500000D03*
X30950000Y-4960000D03*
X33490000Y-7500000D03*
X33490000Y-4960000D03*
X36030000Y-7500000D03*
X36030000Y-4960000D03*
X38570000Y-7500000D03*
X38570000Y-4960000D03*
X41110000Y-7500000D03*
X41110000Y-4960000D03*
X43650000Y-7500000D03*
X43650000Y-4960000D03*
X46190000Y-7500000D03*
X46190000Y-4960000D03*
X48730000Y-7500000D03*
X48730000Y-4960000D03*
X51270000Y-7500000D03*
X51270000Y-4960000D03*
X53810000Y-7500000D03*
X53810000Y-4960000D03*
X56350000Y-7500000D03*
X56350000Y-4960000D03*
X58890000Y-7500000D03*
X58890000Y-4960000D03*
X61430000Y-7500000D03*
X61430000Y-4960000D03*
X63970000Y-7500000D03*
X63970000Y-4960000D03*
X66510000Y-7500000D03*
X66510000Y-4960000D03*
X69050000Y-7500000D03*
X69050000Y-4960000D03*
X71590000Y-7500000D03*
X71590000Y-4960000D03*
X74130000Y-7500000D03*
X74130000Y-4960000D03*
X76670000Y-7500000D03*
X76670000Y-4960000D03*
X79210000Y-7500000D03*
X79210000Y-4960000D03*
X81750000Y-7500000D03*
X81750000Y-4960000D03*
X84290000Y-7500000D03*
X84290000Y-4960000D03*
X86830000Y-7500000D03*
X86830000Y-4960000D03*
X89370000Y-7500000D03*
X89370000Y-4960000D03*
%TD*%
D14*
%TO.C,R19*%
X39720000Y-34415000D03*
X44800000Y-34415000D03*
%TD*%
%TO.C,R29*%
X70440000Y-16000000D03*
X75520000Y-16000000D03*
%TD*%
D10*
%TO.C,Q60*%
X52480000Y-58545000D03*
D11*
X49940000Y-58545000D03*
X47400000Y-58545000D03*
%TD*%
D10*
%TO.C,Q72*%
X55080000Y-64260000D03*
D11*
X57620000Y-64260000D03*
X60160000Y-64260000D03*
%TD*%
D10*
%TO.C,Q77*%
X67840000Y-28065000D03*
D11*
X65300000Y-28065000D03*
X62760000Y-28065000D03*
%TD*%
D14*
%TO.C,R4*%
X9000000Y-40765000D03*
X14080000Y-40765000D03*
%TD*%
D10*
%TO.C,Q12*%
X21760000Y-33145000D03*
D11*
X19220000Y-33145000D03*
X16680000Y-33145000D03*
%TD*%
D14*
%TO.C,R16*%
X32040000Y-46480000D03*
X37120000Y-46480000D03*
%TD*%
D10*
%TO.C,Q66*%
X55080000Y-27430000D03*
D11*
X57620000Y-27430000D03*
X60160000Y-27430000D03*
%TD*%
D14*
%TO.C,R7*%
X16680000Y-16000000D03*
X21760000Y-16000000D03*
%TD*%
%TO.C,R3*%
X9000000Y-32510000D03*
X14080000Y-32510000D03*
%TD*%
D10*
%TO.C,Q33*%
X37120000Y-31875000D03*
D11*
X34580000Y-31875000D03*
X32040000Y-31875000D03*
%TD*%
D10*
%TO.C,Q39*%
X37120000Y-68705000D03*
D11*
X34580000Y-68705000D03*
X32040000Y-68705000D03*
%TD*%
D12*
%TO.C,D6*%
X80660000Y-22350000D03*
D13*
X80660000Y-19810000D03*
%TD*%
D18*
%TO.C,J3*%
X62000000Y-95000000D03*
D17*
X64540000Y-95000000D03*
X67080000Y-95000000D03*
%TD*%
D14*
%TO.C,R15*%
X24360000Y-71245000D03*
X29440000Y-71245000D03*
%TD*%
D10*
%TO.C,Q53*%
X52480000Y-19810000D03*
D11*
X49940000Y-19810000D03*
X47400000Y-19810000D03*
%TD*%
D10*
%TO.C,Q27*%
X24360000Y-59180000D03*
D11*
X26900000Y-59180000D03*
X29440000Y-59180000D03*
%TD*%
D10*
%TO.C,Q86*%
X70440000Y-42035000D03*
D11*
X72980000Y-42035000D03*
X75520000Y-42035000D03*
%TD*%
D10*
%TO.C,Q83*%
X67840000Y-58545000D03*
D11*
X65300000Y-58545000D03*
X62760000Y-58545000D03*
%TD*%
D10*
%TO.C,Q28*%
X24360000Y-67435000D03*
D11*
X26900000Y-67435000D03*
X29440000Y-67435000D03*
%TD*%
D12*
%TO.C,D2*%
X72980000Y-22350000D03*
D13*
X72980000Y-19810000D03*
%TD*%
D10*
%TO.C,Q22*%
X24360000Y-33780000D03*
D11*
X26900000Y-33780000D03*
X29440000Y-33780000D03*
%TD*%
D10*
%TO.C,Q56*%
X52480000Y-35050000D03*
D11*
X49940000Y-35050000D03*
X47400000Y-35050000D03*
%TD*%
D10*
%TO.C,Q73*%
X55080000Y-69340000D03*
D11*
X57620000Y-69340000D03*
X60160000Y-69340000D03*
%TD*%
D10*
%TO.C,Q81*%
X67840000Y-48385000D03*
D11*
X65300000Y-48385000D03*
X62760000Y-48385000D03*
%TD*%
D10*
%TO.C,Q62*%
X52480000Y-71880000D03*
D11*
X49940000Y-71880000D03*
X47400000Y-71880000D03*
%TD*%
D10*
%TO.C,Q37*%
X37120000Y-58545000D03*
D11*
X34580000Y-58545000D03*
X32040000Y-58545000D03*
%TD*%
D10*
%TO.C,Q76*%
X67840000Y-19810000D03*
D11*
X65300000Y-19810000D03*
X62760000Y-19810000D03*
%TD*%
D10*
%TO.C,Q30*%
X37120000Y-16635000D03*
D11*
X34580000Y-16635000D03*
X32040000Y-16635000D03*
%TD*%
D10*
%TO.C,Q90*%
X83200000Y-42035000D03*
D11*
X80660000Y-42035000D03*
X78120000Y-42035000D03*
%TD*%
D10*
%TO.C,Q11*%
X21760000Y-24890000D03*
D11*
X19220000Y-24890000D03*
X16680000Y-24890000D03*
%TD*%
D14*
%TO.C,R12*%
X24360000Y-16000000D03*
X29440000Y-16000000D03*
%TD*%
D10*
%TO.C,Q78*%
X67840000Y-33145000D03*
D11*
X65300000Y-33145000D03*
X62760000Y-33145000D03*
%TD*%
D10*
%TO.C,Q36*%
X37120000Y-50290000D03*
D11*
X34580000Y-50290000D03*
X32040000Y-50290000D03*
%TD*%
D10*
%TO.C,Q34*%
X37120000Y-36955000D03*
D11*
X34580000Y-36955000D03*
X32040000Y-36955000D03*
%TD*%
D10*
%TO.C,Q26*%
X24360000Y-54100000D03*
D11*
X26900000Y-54100000D03*
X29440000Y-54100000D03*
%TD*%
D14*
%TO.C,R1*%
X9000000Y-16000000D03*
X14080000Y-16000000D03*
%TD*%
D10*
%TO.C,Q51*%
X39720000Y-69340000D03*
D11*
X42260000Y-69340000D03*
X44800000Y-69340000D03*
%TD*%
D10*
%TO.C,Q75*%
X55080000Y-79500000D03*
D11*
X57620000Y-79500000D03*
X60160000Y-79500000D03*
%TD*%
D10*
%TO.C,Q85*%
X70440000Y-26795000D03*
D11*
X72980000Y-26795000D03*
X75520000Y-26795000D03*
%TD*%
D12*
%TO.C,D4*%
X72980000Y-52830000D03*
D13*
X72980000Y-50290000D03*
%TD*%
D10*
%TO.C,Q63*%
X52480000Y-76960000D03*
D11*
X49940000Y-76960000D03*
X47400000Y-76960000D03*
%TD*%
D10*
%TO.C,Q19*%
X21760000Y-78230000D03*
D11*
X19220000Y-78230000D03*
X16680000Y-78230000D03*
%TD*%
D10*
%TO.C,Q69*%
X55080000Y-49020000D03*
D11*
X57620000Y-49020000D03*
X60160000Y-49020000D03*
%TD*%
D14*
%TO.C,R35*%
X78120000Y-46480000D03*
X83200000Y-46480000D03*
%TD*%
D10*
%TO.C,Q55*%
X52480000Y-29970000D03*
D11*
X49940000Y-29970000D03*
X47400000Y-29970000D03*
%TD*%
D15*
%TO.C,H1*%
X4000000Y-50000000D03*
%TD*%
D18*
%TO.C,J5*%
X81000000Y-95000000D03*
D17*
X83540000Y-95000000D03*
X86080000Y-95000000D03*
%TD*%
D14*
%TO.C,R33*%
X78120000Y-16000000D03*
X83200000Y-16000000D03*
%TD*%
D10*
%TO.C,Q44*%
X39720000Y-30605000D03*
D11*
X42260000Y-30605000D03*
X44800000Y-30605000D03*
%TD*%
D14*
%TO.C,R10*%
X16680000Y-56005000D03*
X21760000Y-56005000D03*
%TD*%
D10*
%TO.C,Q41*%
X37120000Y-78865000D03*
D11*
X34580000Y-78865000D03*
X32040000Y-78865000D03*
%TD*%
D10*
%TO.C,Q47*%
X39720000Y-49020000D03*
D11*
X42260000Y-49020000D03*
X44800000Y-49020000D03*
%TD*%
D10*
%TO.C,Q1*%
X9000000Y-20445000D03*
D11*
X11540000Y-20445000D03*
X14080000Y-20445000D03*
%TD*%
D10*
%TO.C,Q61*%
X52480000Y-66800000D03*
D11*
X49940000Y-66800000D03*
X47400000Y-66800000D03*
%TD*%
D10*
%TO.C,Q89*%
X83200000Y-26795000D03*
D11*
X80660000Y-26795000D03*
X78120000Y-26795000D03*
%TD*%
D10*
%TO.C,Q6*%
X9000000Y-58545000D03*
D11*
X11540000Y-58545000D03*
X14080000Y-58545000D03*
%TD*%
D10*
%TO.C,Q23*%
X24360000Y-38860000D03*
D11*
X26900000Y-38860000D03*
X29440000Y-38860000D03*
%TD*%
D10*
%TO.C,Q9*%
X9000000Y-76960000D03*
D11*
X11540000Y-76960000D03*
X14080000Y-76960000D03*
%TD*%
D10*
%TO.C,Q71*%
X55080000Y-59180000D03*
D11*
X57620000Y-59180000D03*
X60160000Y-59180000D03*
%TD*%
D10*
%TO.C,Q10*%
X21760000Y-19810000D03*
D11*
X19220000Y-19810000D03*
X16680000Y-19810000D03*
%TD*%
D10*
%TO.C,Q50*%
X39720000Y-64260000D03*
D11*
X42260000Y-64260000D03*
X44800000Y-64260000D03*
%TD*%
D10*
%TO.C,Q7*%
X9000000Y-63625000D03*
D11*
X11540000Y-63625000D03*
X14080000Y-63625000D03*
%TD*%
D10*
%TO.C,Q13*%
X21760000Y-38225000D03*
D11*
X19220000Y-38225000D03*
X16680000Y-38225000D03*
%TD*%
D10*
%TO.C,Q84*%
X67840000Y-73785000D03*
D11*
X65300000Y-73785000D03*
X62760000Y-73785000D03*
%TD*%
D10*
%TO.C,Q32*%
X37120000Y-26795000D03*
D11*
X34580000Y-26795000D03*
X32040000Y-26795000D03*
%TD*%
D10*
%TO.C,Q20*%
X24360000Y-20445000D03*
D11*
X26900000Y-20445000D03*
X29440000Y-20445000D03*
%TD*%
D14*
%TO.C,R25*%
X55080000Y-44575000D03*
X60160000Y-44575000D03*
%TD*%
D10*
%TO.C,Q24*%
X24360000Y-43940000D03*
D11*
X26900000Y-43940000D03*
X29440000Y-43940000D03*
%TD*%
D10*
%TO.C,Q17*%
X21760000Y-64895000D03*
D11*
X19220000Y-64895000D03*
X16680000Y-64895000D03*
%TD*%
D14*
%TO.C,R23*%
X47400000Y-62990000D03*
X52480000Y-62990000D03*
%TD*%
%TO.C,R11*%
X16680000Y-69340000D03*
X21760000Y-69340000D03*
%TD*%
D10*
%TO.C,Q35*%
X37120000Y-42035000D03*
D11*
X34580000Y-42035000D03*
X32040000Y-42035000D03*
%TD*%
D12*
%TO.C,D1*%
X65300000Y-69340000D03*
D13*
X65300000Y-66800000D03*
%TD*%
D10*
%TO.C,Q43*%
X39720000Y-22350000D03*
D11*
X42260000Y-22350000D03*
X44800000Y-22350000D03*
%TD*%
D18*
%TO.C,J4*%
X71500000Y-95000000D03*
D17*
X74040000Y-95000000D03*
X76580000Y-95000000D03*
%TD*%
D10*
%TO.C,Q45*%
X39720000Y-38860000D03*
D11*
X42260000Y-38860000D03*
X44800000Y-38860000D03*
%TD*%
D14*
%TO.C,R14*%
X24360000Y-62990000D03*
X29440000Y-62990000D03*
%TD*%
D10*
%TO.C,Q54*%
X52480000Y-24890000D03*
D11*
X49940000Y-24890000D03*
X47400000Y-24890000D03*
%TD*%
D14*
%TO.C,R5*%
X9000000Y-49020000D03*
X14080000Y-49020000D03*
%TD*%
D10*
%TO.C,Q91*%
X83200000Y-57275000D03*
D11*
X80660000Y-57275000D03*
X78120000Y-57275000D03*
%TD*%
D10*
%TO.C,Q48*%
X39720000Y-54100000D03*
D11*
X42260000Y-54100000D03*
X44800000Y-54100000D03*
%TD*%
D19*
%TO.C,C2*%
X95000000Y-26000000D03*
D14*
X95000000Y-28000000D03*
%TD*%
%TO.C,C1*%
X95000000Y-16500000D03*
X95000000Y-19000000D03*
%TD*%
%TO.C,R34*%
X78120000Y-31240000D03*
X83200000Y-31240000D03*
%TD*%
%TO.C,R6*%
X9000000Y-67435000D03*
X14080000Y-67435000D03*
%TD*%
D10*
%TO.C,Q57*%
X52480000Y-40130000D03*
D11*
X49940000Y-40130000D03*
X47400000Y-40130000D03*
%TD*%
D10*
%TO.C,Q40*%
X37120000Y-73785000D03*
D11*
X34580000Y-73785000D03*
X32040000Y-73785000D03*
%TD*%
D10*
%TO.C,Q15*%
X21760000Y-51560000D03*
D11*
X19220000Y-51560000D03*
X16680000Y-51560000D03*
%TD*%
D10*
%TO.C,Q52*%
X39720000Y-77595000D03*
D11*
X42260000Y-77595000D03*
X44800000Y-77595000D03*
%TD*%
D10*
%TO.C,Q65*%
X55080000Y-22350000D03*
D11*
X57620000Y-22350000D03*
X60160000Y-22350000D03*
%TD*%
D14*
%TO.C,R31*%
X70440000Y-46480000D03*
X75520000Y-46480000D03*
%TD*%
D10*
%TO.C,Q5*%
X9000000Y-53465000D03*
D11*
X11540000Y-53465000D03*
X14080000Y-53465000D03*
%TD*%
D14*
%TO.C,R20*%
X39720000Y-73150000D03*
X44800000Y-73150000D03*
%TD*%
D10*
%TO.C,Q67*%
X55080000Y-32510000D03*
D11*
X57620000Y-32510000D03*
X60160000Y-32510000D03*
%TD*%
D14*
%TO.C,R18*%
X39720000Y-26160000D03*
X44800000Y-26160000D03*
%TD*%
D10*
%TO.C,Q31*%
X37120000Y-21715000D03*
D11*
X34580000Y-21715000D03*
X32040000Y-21715000D03*
%TD*%
D10*
%TO.C,Q68*%
X55080000Y-40765000D03*
D11*
X57620000Y-40765000D03*
X60160000Y-40765000D03*
%TD*%
D10*
%TO.C,Q14*%
X21760000Y-46480000D03*
D11*
X19220000Y-46480000D03*
X16680000Y-46480000D03*
%TD*%
D10*
%TO.C,Q80*%
X67840000Y-43305000D03*
D11*
X65300000Y-43305000D03*
X62760000Y-43305000D03*
%TD*%
M02*
