M48
; DRILL file KiCad 10.0.5 date 2026-09-11T05:31:18
; FORMAT={-:-/ absolute / metric / decimal}
; #@! TF.CreationDate,2026-09-11T05:31:18-04:00
; #@! TF.GenerationSoftware,Kicad,Pcbnew,10.0.5
; #@! TF.FileFunction,MixedPlating,1,2
FMAT,2
METRIC
; #@! TA.AperFunction,Plated,PTH,ViaDrill
T1C0.400
; #@! TA.AperFunction,Plated,PTH,ComponentDrill
T2C0.800
; #@! TA.AperFunction,Plated,PTH,ComponentDrill
T3C0.900
; #@! TA.AperFunction,Plated,PTH,ComponentDrill
T4C1.000
; #@! TA.AperFunction,Plated,PTH,ComponentDrill
T5C3.200
%
G90
G05
T1
X7.73Y-12.5
X10.63Y-14.0
X13.522Y-55.023
X15.41Y-14.0
X17.995Y-9.803
X18.25Y-2.46
X23.09Y-12.5
X25.431Y-23.243
X26.112Y-42.052
X26.153Y-62.698
X30.77Y-14.0
X32.833Y-30.031
X35.326Y-25.465
X38.45Y-12.5
X39.282Y-62.591
X46.13Y-14.0
X47.709Y-70.38
X49.94Y-60.722
X50.585Y-96.984
X52.7Y-89.96
X52.7Y-97.5
X52.752Y-37.934
X53.81Y-12.5
X56.82Y-56.47
X58.455Y-38.962
X60.48Y-28.915
X61.49Y-14.0
X64.313Y-31.691
X66.278Y-21.592
X69.17Y-12.5
X76.85Y-14.0
X84.53Y-12.5
X89.37Y-2.46
X89.37Y-14.0
X95.0Y-21.5
X95.0Y-30.5
T2
X9.0Y-16.0
X9.0Y-20.445
X9.0Y-24.255
X9.0Y-28.7
X9.0Y-32.51
X9.0Y-36.955
X9.0Y-40.765
X9.0Y-45.21
X9.0Y-49.02
X9.0Y-53.465
X9.0Y-58.545
X9.0Y-63.625
X9.0Y-67.435
X9.0Y-71.88
X9.0Y-76.96
X11.54Y-20.445
X11.54Y-28.7
X11.54Y-36.955
X11.54Y-45.21
X11.54Y-53.465
X11.54Y-58.545
X11.54Y-63.625
X11.54Y-71.88
X11.54Y-76.96
X14.08Y-16.0
X14.08Y-20.445
X14.08Y-24.255
X14.08Y-28.7
X14.08Y-32.51
X14.08Y-36.955
X14.08Y-40.765
X14.08Y-45.21
X14.08Y-49.02
X14.08Y-53.465
X14.08Y-58.545
X14.08Y-63.625
X14.08Y-67.435
X14.08Y-71.88
X14.08Y-76.96
X16.68Y-16.0
X16.68Y-19.81
X16.68Y-24.89
X16.68Y-29.335
X16.68Y-33.145
X16.68Y-38.225
X16.68Y-42.67
X16.68Y-46.48
X16.68Y-51.56
X16.68Y-56.005
X16.68Y-59.815
X16.68Y-64.895
X16.68Y-69.34
X16.68Y-73.15
X16.68Y-78.23
X19.22Y-19.81
X19.22Y-24.89
X19.22Y-33.145
X19.22Y-38.225
X19.22Y-46.48
X19.22Y-51.56
X19.22Y-59.815
X19.22Y-64.895
X19.22Y-73.15
X19.22Y-78.23
X21.76Y-16.0
X21.76Y-19.81
X21.76Y-24.89
X21.76Y-29.335
X21.76Y-33.145
X21.76Y-38.225
X21.76Y-42.67
X21.76Y-46.48
X21.76Y-51.56
X21.76Y-56.005
X21.76Y-59.815
X21.76Y-64.895
X21.76Y-69.34
X21.76Y-73.15
X21.76Y-78.23
X24.36Y-16.0
X24.36Y-20.445
X24.36Y-24.255
X24.36Y-28.7
X24.36Y-33.78
X24.36Y-38.86
X24.36Y-43.94
X24.36Y-49.02
X24.36Y-54.1
X24.36Y-59.18
X24.36Y-62.99
X24.36Y-67.435
X24.36Y-71.245
X24.36Y-75.69
X26.9Y-20.445
X26.9Y-28.7
X26.9Y-33.78
X26.9Y-38.86
X26.9Y-43.94
X26.9Y-49.02
X26.9Y-54.1
X26.9Y-59.18
X26.9Y-67.435
X26.9Y-75.69
X29.44Y-16.0
X29.44Y-20.445
X29.44Y-24.255
X29.44Y-28.7
X29.44Y-33.78
X29.44Y-38.86
X29.44Y-43.94
X29.44Y-49.02
X29.44Y-54.1
X29.44Y-59.18
X29.44Y-62.99
X29.44Y-67.435
X29.44Y-71.245
X29.44Y-75.69
X32.04Y-16.635
X32.04Y-21.715
X32.04Y-26.795
X32.04Y-31.875
X32.04Y-36.955
X32.04Y-42.035
X32.04Y-46.48
X32.04Y-50.29
X32.04Y-54.735
X32.04Y-58.545
X32.04Y-63.625
X32.04Y-68.705
X32.04Y-73.785
X32.04Y-78.865
X34.58Y-16.635
X34.58Y-21.715
X34.58Y-26.795
X34.58Y-31.875
X34.58Y-36.955
X34.58Y-42.035
X34.58Y-50.29
X34.58Y-58.545
X34.58Y-63.625
X34.58Y-68.705
X34.58Y-73.785
X34.58Y-78.865
X37.12Y-16.635
X37.12Y-21.715
X37.12Y-26.795
X37.12Y-31.875
X37.12Y-36.955
X37.12Y-42.035
X37.12Y-46.48
X37.12Y-50.29
X37.12Y-54.735
X37.12Y-58.545
X37.12Y-63.625
X37.12Y-68.705
X37.12Y-73.785
X37.12Y-78.865
X39.72Y-17.27
X39.72Y-22.35
X39.72Y-26.16
X39.72Y-30.605
X39.72Y-34.415
X39.72Y-38.86
X39.72Y-43.94
X39.72Y-49.02
X39.72Y-54.1
X39.72Y-59.18
X39.72Y-64.26
X39.72Y-69.34
X39.72Y-73.15
X39.72Y-77.595
X42.26Y-17.27
X42.26Y-22.35
X42.26Y-30.605
X42.26Y-38.86
X42.26Y-43.94
X42.26Y-49.02
X42.26Y-54.1
X42.26Y-59.18
X42.26Y-64.26
X42.26Y-69.34
X42.26Y-77.595
X44.8Y-17.27
X44.8Y-22.35
X44.8Y-26.16
X44.8Y-30.605
X44.8Y-34.415
X44.8Y-38.86
X44.8Y-43.94
X44.8Y-49.02
X44.8Y-54.1
X44.8Y-59.18
X44.8Y-64.26
X44.8Y-69.34
X44.8Y-73.15
X44.8Y-77.595
X47.4Y-16.0
X47.4Y-19.81
X47.4Y-24.89
X47.4Y-29.97
X47.4Y-35.05
X47.4Y-40.13
X47.4Y-45.21
X47.4Y-50.29
X47.4Y-54.735
X47.4Y-58.545
X47.4Y-62.99
X47.4Y-66.8
X47.4Y-71.88
X47.4Y-76.96
X49.94Y-19.81
X49.94Y-24.89
X49.94Y-29.97
X49.94Y-35.05
X49.94Y-40.13
X49.94Y-45.21
X49.94Y-50.29
X49.94Y-58.545
X49.94Y-66.8
X49.94Y-71.88
X49.94Y-76.96
X52.48Y-16.0
X52.48Y-19.81
X52.48Y-24.89
X52.48Y-29.97
X52.48Y-35.05
X52.48Y-40.13
X52.48Y-45.21
X52.48Y-50.29
X52.48Y-54.735
X52.48Y-58.545
X52.48Y-62.99
X52.48Y-66.8
X52.48Y-71.88
X52.48Y-76.96
X55.08Y-17.27
X55.08Y-22.35
X55.08Y-27.43
X55.08Y-32.51
X55.08Y-36.32
X55.08Y-40.765
X55.08Y-44.575
X55.08Y-49.02
X55.08Y-54.1
X55.08Y-59.18
X55.08Y-64.26
X55.08Y-69.34
X55.08Y-74.42
X55.08Y-79.5
X57.62Y-17.27
X57.62Y-22.35
X57.62Y-27.43
X57.62Y-32.51
X57.62Y-40.765
X57.62Y-49.02
X57.62Y-54.1
X57.62Y-59.18
X57.62Y-64.26
X57.62Y-69.34
X57.62Y-74.42
X57.62Y-79.5
X60.16Y-17.27
X60.16Y-22.35
X60.16Y-27.43
X60.16Y-32.51
X60.16Y-36.32
X60.16Y-40.765
X60.16Y-44.575
X60.16Y-49.02
X60.16Y-54.1
X60.16Y-59.18
X60.16Y-64.26
X60.16Y-69.34
X60.16Y-74.42
X60.16Y-79.5
X62.76Y-16.0
X62.76Y-19.81
X62.76Y-24.255
X62.76Y-28.065
X62.76Y-33.145
X62.76Y-38.225
X62.76Y-43.305
X62.76Y-48.385
X62.76Y-53.465
X62.76Y-58.545
X62.76Y-62.99
X62.76Y-73.785
X65.3Y-19.81
X65.3Y-28.065
X65.3Y-33.145
X65.3Y-38.225
X65.3Y-43.305
X65.3Y-48.385
X65.3Y-53.465
X65.3Y-58.545
X65.3Y-73.785
X67.84Y-16.0
X67.84Y-19.81
X67.84Y-24.255
X67.84Y-28.065
X67.84Y-33.145
X67.84Y-38.225
X67.84Y-43.305
X67.84Y-48.385
X67.84Y-53.465
X67.84Y-58.545
X67.84Y-62.99
X67.84Y-73.785
X70.44Y-16.0
X70.44Y-26.795
X70.44Y-31.24
X70.44Y-42.035
X70.44Y-46.48
X70.44Y-57.275
X70.44Y-61.72
X70.44Y-72.515
X72.98Y-26.795
X72.98Y-42.035
X72.98Y-57.275
X72.98Y-72.515
X75.52Y-16.0
X75.52Y-26.795
X75.52Y-31.24
X75.52Y-42.035
X75.52Y-46.48
X75.52Y-57.275
X75.52Y-61.72
X75.52Y-72.515
X78.12Y-16.0
X78.12Y-26.795
X78.12Y-31.24
X78.12Y-42.035
X78.12Y-46.48
X78.12Y-57.275
X80.66Y-26.795
X80.66Y-42.035
X80.66Y-57.275
X83.2Y-16.0
X83.2Y-26.795
X83.2Y-31.24
X83.2Y-42.035
X83.2Y-46.48
X83.2Y-57.275
X95.0Y-16.5
X95.0Y-19.0
X95.0Y-26.0
X95.0Y-28.0
T3
X65.3Y-66.8
X65.3Y-69.34
X72.98Y-19.81
X72.98Y-22.35
X72.98Y-35.05
X72.98Y-37.59
X72.98Y-50.29
X72.98Y-52.83
X72.98Y-65.53
X72.98Y-68.07
X80.66Y-19.81
X80.66Y-22.35
X80.66Y-35.05
X80.66Y-37.59
X80.66Y-50.29
X80.66Y-52.83
T4
X10.63Y-4.96
X10.63Y-7.5
X13.17Y-4.96
X13.17Y-7.5
X15.71Y-4.96
X15.71Y-7.5
X18.25Y-4.96
X18.25Y-7.5
X20.79Y-4.96
X20.79Y-7.5
X23.33Y-4.96
X23.33Y-7.5
X25.87Y-4.96
X25.87Y-7.5
X28.41Y-4.96
X28.41Y-7.5
X30.95Y-4.96
X30.95Y-7.5
X33.49Y-4.96
X33.49Y-7.5
X36.03Y-4.96
X36.03Y-7.5
X38.57Y-4.96
X38.57Y-7.5
X40.0Y-92.46
X40.0Y-95.0
X41.11Y-4.96
X41.11Y-7.5
X42.54Y-92.46
X42.54Y-95.0
X43.65Y-4.96
X43.65Y-7.5
X45.08Y-92.46
X45.08Y-95.0
X46.19Y-4.96
X46.19Y-7.5
X47.62Y-92.46
X47.62Y-95.0
X48.73Y-4.96
X48.73Y-7.5
X50.16Y-92.46
X50.16Y-95.0
X51.27Y-4.96
X51.27Y-7.5
X52.7Y-92.46
X52.7Y-95.0
X53.81Y-4.96
X53.81Y-7.5
X56.35Y-4.96
X56.35Y-7.5
X58.89Y-4.96
X58.89Y-7.5
X61.43Y-4.96
X61.43Y-7.5
X62.0Y-95.0
X63.97Y-4.96
X63.97Y-7.5
X64.54Y-95.0
X66.51Y-4.96
X66.51Y-7.5
X67.08Y-95.0
X69.05Y-4.96
X69.05Y-7.5
X71.5Y-95.0
X71.59Y-4.96
X71.59Y-7.5
X74.04Y-95.0
X74.13Y-4.96
X74.13Y-7.5
X76.58Y-95.0
X76.67Y-4.96
X76.67Y-7.5
X79.21Y-4.96
X79.21Y-7.5
X81.0Y-95.0
X81.75Y-4.96
X81.75Y-7.5
X83.54Y-95.0
X84.29Y-4.96
X84.29Y-7.5
X86.08Y-95.0
X86.83Y-4.96
X86.83Y-7.5
X89.37Y-4.96
X89.37Y-7.5
T5
X4.0Y-50.0
X96.0Y-50.0
M30
