%TF.GenerationSoftware,KiCad,Pcbnew,10.0.5*%
%TF.CreationDate,2026-10-01T11:07:41-04:00*%
%TF.ProjectId,hub,6875622e-6b69-4636-9164-5f7063625858,rev?*%
%TF.SameCoordinates,Original*%
%TF.FileFunction,Soldermask,Bot*%
%TF.FilePolarity,Negative*%
%FSLAX46Y46*%
G04 Gerber Fmt 4.6, Leading zero omitted, Abs format (unit mm)*
G04 Created by KiCad (PCBNEW 10.0.5) date 2026-10-01 11:07:41*
%MOMM*%
%LPD*%
G01*
G04 APERTURE LIST*
G04 Aperture macros list*
%AMRoundRect*
0 Rectangle with rounded corners*
0 $1 Rounding radius*
0 $2 $3 $4 $5 $6 $7 $8 $9 X,Y pos of 4 corners*
0 Add a 4 corners polygon primitive as box body*
4,1,4,$2,$3,$4,$5,$6,$7,$8,$9,$2,$3,0*
0 Add four circle primitives for the rounded corners*
1,1,$1+$1,$2,$3*
1,1,$1+$1,$4,$5*
1,1,$1+$1,$6,$7*
1,1,$1+$1,$8,$9*
0 Add four rect primitives between the rounded corners*
20,1,$1+$1,$2,$3,$4,$5,0*
20,1,$1+$1,$4,$5,$6,$7,0*
20,1,$1+$1,$6,$7,$8,$9,0*
20,1,$1+$1,$8,$9,$2,$3,0*%
G04 Aperture macros list end*
%ADD10C,2.800000*%
%ADD11RoundRect,0.249999X-0.850001X0.850001X-0.850001X-0.850001X0.850001X-0.850001X0.850001X0.850001X0*%
%ADD12C,2.200000*%
%ADD13C,2.000000*%
%ADD14RoundRect,0.250000X-0.550000X0.550000X-0.550000X-0.550000X0.550000X-0.550000X0.550000X0.550000X0*%
%ADD15C,1.600000*%
%ADD16R,1.800000X1.800000*%
%ADD17C,1.800000*%
%ADD18C,1.560000*%
%ADD19R,1.905000X2.000000*%
%ADD20O,1.905000X2.000000*%
%ADD21RoundRect,0.250000X-1.350000X1.350000X-1.350000X-1.350000X1.350000X-1.350000X1.350000X1.350000X0*%
%ADD22C,3.200000*%
%ADD23C,6.400000*%
%ADD24RoundRect,0.250000X-0.600000X0.600000X-0.600000X-0.600000X0.600000X-0.600000X0.600000X0.600000X0*%
%ADD25C,1.700000*%
G04 APERTURE END LIST*
D10*
%TO.C,J1*%
X11620000Y-26000000D03*
X14000000Y-23620000D03*
X14000000Y-28380000D03*
X16380000Y-26000000D03*
%TD*%
D11*
%TO.C,D2*%
X46300000Y-29810000D03*
D12*
X46300000Y-39970000D03*
%TD*%
D13*
%TO.C,TP6*%
X70000000Y-60000000D03*
%TD*%
D14*
%TO.C,C2*%
X62000000Y-14000000D03*
D15*
X62000000Y-16000000D03*
%TD*%
D16*
%TO.C,D1*%
X50000000Y-21000000D03*
D17*
X50000000Y-18460000D03*
%TD*%
D15*
%TO.C,R11*%
X75000000Y-40000000D03*
X75000000Y-45080000D03*
%TD*%
D13*
%TO.C,TP3*%
X46000000Y-60000000D03*
%TD*%
D18*
%TO.C,F1*%
X26000000Y-16000000D03*
X36200000Y-17900000D03*
%TD*%
D19*
%TO.C,Q1*%
X33660000Y-34000000D03*
D20*
X36200000Y-34000000D03*
X38740000Y-34000000D03*
%TD*%
D15*
%TO.C,C1*%
X57000000Y-14000000D03*
X57000000Y-16500000D03*
%TD*%
%TO.C,R10*%
X70000000Y-40000000D03*
X70000000Y-45080000D03*
%TD*%
D13*
%TO.C,TP4*%
X54000000Y-60000000D03*
%TD*%
D15*
%TO.C,R9*%
X65000000Y-40000000D03*
X65000000Y-45080000D03*
%TD*%
%TO.C,R8*%
X60000000Y-40000000D03*
X60000000Y-45080000D03*
%TD*%
%TO.C,R14*%
X42000000Y-39970000D03*
X42000000Y-45050000D03*
%TD*%
D13*
%TO.C,TP2*%
X38000000Y-60000000D03*
%TD*%
D15*
%TO.C,R1*%
X46000000Y-14000000D03*
X46000000Y-19080000D03*
%TD*%
%TO.C,R13*%
X85000000Y-40000000D03*
X85000000Y-45080000D03*
%TD*%
D13*
%TO.C,TP1*%
X30000000Y-60000000D03*
%TD*%
D15*
%TO.C,R4*%
X76000000Y-14000000D03*
X76000000Y-19080000D03*
%TD*%
%TO.C,R2*%
X68000000Y-14000000D03*
X68000000Y-19080000D03*
%TD*%
D21*
%TO.C,D3*%
X27500000Y-29810000D03*
D22*
X27500000Y-45050000D03*
%TD*%
D15*
%TO.C,R6*%
X50000000Y-40000000D03*
X50000000Y-45080000D03*
%TD*%
D13*
%TO.C,TP5*%
X62000000Y-60000000D03*
%TD*%
D15*
%TO.C,R5*%
X80000000Y-14000000D03*
X80000000Y-19080000D03*
%TD*%
D23*
%TO.C,H1*%
X4000000Y-50000000D03*
%TD*%
D10*
%TO.C,J2*%
X11620000Y-45050000D03*
X14000000Y-42670000D03*
X14000000Y-47430000D03*
X16380000Y-45050000D03*
%TD*%
D15*
%TO.C,C3*%
X78000000Y-60000000D03*
X80500000Y-60000000D03*
%TD*%
D23*
%TO.C,H2*%
X96000000Y-50000000D03*
%TD*%
D15*
%TO.C,R7*%
X55000000Y-40000000D03*
X55000000Y-45080000D03*
%TD*%
%TO.C,R12*%
X80000000Y-40000000D03*
X80000000Y-45080000D03*
%TD*%
%TO.C,R3*%
X72000000Y-14000000D03*
X72000000Y-19080000D03*
%TD*%
%TO.C,C4*%
X38200000Y-42550000D03*
X38200000Y-45050000D03*
%TD*%
D24*
%TO.C,J4*%
X10630000Y-90460000D03*
D25*
X10630000Y-93000000D03*
X13170000Y-90460000D03*
X13170000Y-93000000D03*
X15710000Y-90460000D03*
X15710000Y-93000000D03*
X18250000Y-90460000D03*
X18250000Y-93000000D03*
X20790000Y-90460000D03*
X20790000Y-93000000D03*
X23330000Y-90460000D03*
X23330000Y-93000000D03*
X25870000Y-90460000D03*
X25870000Y-93000000D03*
X28410000Y-90460000D03*
X28410000Y-93000000D03*
X30950000Y-90460000D03*
X30950000Y-93000000D03*
X33490000Y-90460000D03*
X33490000Y-93000000D03*
X36030000Y-90460000D03*
X36030000Y-93000000D03*
X38570000Y-90460000D03*
X38570000Y-93000000D03*
X41110000Y-90460000D03*
X41110000Y-93000000D03*
X43650000Y-90460000D03*
X43650000Y-93000000D03*
X46190000Y-90460000D03*
X46190000Y-93000000D03*
X48730000Y-90460000D03*
X48730000Y-93000000D03*
X51270000Y-90460000D03*
X51270000Y-93000000D03*
X53810000Y-90460000D03*
X53810000Y-93000000D03*
X56350000Y-90460000D03*
X56350000Y-93000000D03*
X58890000Y-90460000D03*
X58890000Y-93000000D03*
X61430000Y-90460000D03*
X61430000Y-93000000D03*
X63970000Y-90460000D03*
X63970000Y-93000000D03*
X66510000Y-90460000D03*
X66510000Y-93000000D03*
X69050000Y-90460000D03*
X69050000Y-93000000D03*
X71590000Y-90460000D03*
X71590000Y-93000000D03*
X74130000Y-90460000D03*
X74130000Y-93000000D03*
X76670000Y-90460000D03*
X76670000Y-93000000D03*
X79210000Y-90460000D03*
X79210000Y-93000000D03*
X81750000Y-90460000D03*
X81750000Y-93000000D03*
X84290000Y-90460000D03*
X84290000Y-93000000D03*
X86830000Y-90460000D03*
X86830000Y-93000000D03*
X89370000Y-90460000D03*
X89370000Y-93000000D03*
%TD*%
D24*
%TO.C,J3*%
X10630000Y-4960000D03*
D25*
X10630000Y-7500000D03*
X13170000Y-4960000D03*
X13170000Y-7500000D03*
X15710000Y-4960000D03*
X15710000Y-7500000D03*
X18250000Y-4960000D03*
X18250000Y-7500000D03*
X20790000Y-4960000D03*
X20790000Y-7500000D03*
X23330000Y-4960000D03*
X23330000Y-7500000D03*
X25870000Y-4960000D03*
X25870000Y-7500000D03*
X28410000Y-4960000D03*
X28410000Y-7500000D03*
X30950000Y-4960000D03*
X30950000Y-7500000D03*
X33490000Y-4960000D03*
X33490000Y-7500000D03*
X36030000Y-4960000D03*
X36030000Y-7500000D03*
X38570000Y-4960000D03*
X38570000Y-7500000D03*
X41110000Y-4960000D03*
X41110000Y-7500000D03*
X43650000Y-4960000D03*
X43650000Y-7500000D03*
X46190000Y-4960000D03*
X46190000Y-7500000D03*
X48730000Y-4960000D03*
X48730000Y-7500000D03*
X51270000Y-4960000D03*
X51270000Y-7500000D03*
X53810000Y-4960000D03*
X53810000Y-7500000D03*
X56350000Y-4960000D03*
X56350000Y-7500000D03*
X58890000Y-4960000D03*
X58890000Y-7500000D03*
X61430000Y-4960000D03*
X61430000Y-7500000D03*
X63970000Y-4960000D03*
X63970000Y-7500000D03*
X66510000Y-4960000D03*
X66510000Y-7500000D03*
X69050000Y-4960000D03*
X69050000Y-7500000D03*
X71590000Y-4960000D03*
X71590000Y-7500000D03*
X74130000Y-4960000D03*
X74130000Y-7500000D03*
X76670000Y-4960000D03*
X76670000Y-7500000D03*
X79210000Y-4960000D03*
X79210000Y-7500000D03*
X81750000Y-4960000D03*
X81750000Y-7500000D03*
X84290000Y-4960000D03*
X84290000Y-7500000D03*
X86830000Y-4960000D03*
X86830000Y-7500000D03*
X89370000Y-4960000D03*
X89370000Y-7500000D03*
%TD*%
M02*
