%TF.GenerationSoftware,KiCad,Pcbnew,10.0.5*%
%TF.CreationDate,2026-09-11T08:53:43-04:00*%
%TF.ProjectId,hub,6875622e-6b69-4636-9164-5f7063625858,rev?*%
%TF.SameCoordinates,Original*%
%TF.FileFunction,Legend,Top*%
%TF.FilePolarity,Positive*%
%FSLAX46Y46*%
G04 Gerber Fmt 4.6, Leading zero omitted, Abs format (unit mm)*
G04 Created by KiCad (PCBNEW 10.0.5) date 2026-09-11 08:53:43*
%MOMM*%
%LPD*%
G01*
G04 APERTURE LIST*
%ADD10C,0.150000*%
%ADD11C,0.250000*%
%ADD12C,0.120000*%
G04 APERTURE END LIST*
D10*
X28555826Y-63943247D02*
X28670112Y-63981342D01*
X28670112Y-63981342D02*
X28708207Y-64019438D01*
X28708207Y-64019438D02*
X28746303Y-64095628D01*
X28746303Y-64095628D02*
X28746303Y-64209914D01*
X28746303Y-64209914D02*
X28708207Y-64286104D01*
X28708207Y-64286104D02*
X28670112Y-64324200D01*
X28670112Y-64324200D02*
X28593922Y-64362295D01*
X28593922Y-64362295D02*
X28289160Y-64362295D01*
X28289160Y-64362295D02*
X28289160Y-63562295D01*
X28289160Y-63562295D02*
X28555826Y-63562295D01*
X28555826Y-63562295D02*
X28632017Y-63600390D01*
X28632017Y-63600390D02*
X28670112Y-63638485D01*
X28670112Y-63638485D02*
X28708207Y-63714676D01*
X28708207Y-63714676D02*
X28708207Y-63790866D01*
X28708207Y-63790866D02*
X28670112Y-63867057D01*
X28670112Y-63867057D02*
X28632017Y-63905152D01*
X28632017Y-63905152D02*
X28555826Y-63943247D01*
X28555826Y-63943247D02*
X28289160Y-63943247D01*
X29089160Y-63562295D02*
X29089160Y-64209914D01*
X29089160Y-64209914D02*
X29127255Y-64286104D01*
X29127255Y-64286104D02*
X29165350Y-64324200D01*
X29165350Y-64324200D02*
X29241541Y-64362295D01*
X29241541Y-64362295D02*
X29393922Y-64362295D01*
X29393922Y-64362295D02*
X29470112Y-64324200D01*
X29470112Y-64324200D02*
X29508207Y-64286104D01*
X29508207Y-64286104D02*
X29546303Y-64209914D01*
X29546303Y-64209914D02*
X29546303Y-63562295D01*
X29889159Y-64324200D02*
X30003445Y-64362295D01*
X30003445Y-64362295D02*
X30193921Y-64362295D01*
X30193921Y-64362295D02*
X30270112Y-64324200D01*
X30270112Y-64324200D02*
X30308207Y-64286104D01*
X30308207Y-64286104D02*
X30346302Y-64209914D01*
X30346302Y-64209914D02*
X30346302Y-64133723D01*
X30346302Y-64133723D02*
X30308207Y-64057533D01*
X30308207Y-64057533D02*
X30270112Y-64019438D01*
X30270112Y-64019438D02*
X30193921Y-63981342D01*
X30193921Y-63981342D02*
X30041540Y-63943247D01*
X30041540Y-63943247D02*
X29965350Y-63905152D01*
X29965350Y-63905152D02*
X29927255Y-63867057D01*
X29927255Y-63867057D02*
X29889159Y-63790866D01*
X29889159Y-63790866D02*
X29889159Y-63714676D01*
X29889159Y-63714676D02*
X29927255Y-63638485D01*
X29927255Y-63638485D02*
X29965350Y-63600390D01*
X29965350Y-63600390D02*
X30041540Y-63562295D01*
X30041540Y-63562295D02*
X30232017Y-63562295D01*
X30232017Y-63562295D02*
X30346302Y-63600390D01*
X30841541Y-63562295D02*
X30917731Y-63562295D01*
X30917731Y-63562295D02*
X30993922Y-63600390D01*
X30993922Y-63600390D02*
X31032017Y-63638485D01*
X31032017Y-63638485D02*
X31070112Y-63714676D01*
X31070112Y-63714676D02*
X31108207Y-63867057D01*
X31108207Y-63867057D02*
X31108207Y-64057533D01*
X31108207Y-64057533D02*
X31070112Y-64209914D01*
X31070112Y-64209914D02*
X31032017Y-64286104D01*
X31032017Y-64286104D02*
X30993922Y-64324200D01*
X30993922Y-64324200D02*
X30917731Y-64362295D01*
X30917731Y-64362295D02*
X30841541Y-64362295D01*
X30841541Y-64362295D02*
X30765350Y-64324200D01*
X30765350Y-64324200D02*
X30727255Y-64286104D01*
X30727255Y-64286104D02*
X30689160Y-64209914D01*
X30689160Y-64209914D02*
X30651064Y-64057533D01*
X30651064Y-64057533D02*
X30651064Y-63867057D01*
X30651064Y-63867057D02*
X30689160Y-63714676D01*
X30689160Y-63714676D02*
X30727255Y-63638485D01*
X30727255Y-63638485D02*
X30765350Y-63600390D01*
X30765350Y-63600390D02*
X30841541Y-63562295D01*
X30174874Y-56062295D02*
X30632017Y-56062295D01*
X30403445Y-56862295D02*
X30403445Y-56062295D01*
X30898684Y-56443247D02*
X31165350Y-56443247D01*
X31279636Y-56862295D02*
X30898684Y-56862295D01*
X30898684Y-56862295D02*
X30898684Y-56062295D01*
X30898684Y-56062295D02*
X31279636Y-56062295D01*
X31584398Y-56824200D02*
X31698684Y-56862295D01*
X31698684Y-56862295D02*
X31889160Y-56862295D01*
X31889160Y-56862295D02*
X31965351Y-56824200D01*
X31965351Y-56824200D02*
X32003446Y-56786104D01*
X32003446Y-56786104D02*
X32041541Y-56709914D01*
X32041541Y-56709914D02*
X32041541Y-56633723D01*
X32041541Y-56633723D02*
X32003446Y-56557533D01*
X32003446Y-56557533D02*
X31965351Y-56519438D01*
X31965351Y-56519438D02*
X31889160Y-56481342D01*
X31889160Y-56481342D02*
X31736779Y-56443247D01*
X31736779Y-56443247D02*
X31660589Y-56405152D01*
X31660589Y-56405152D02*
X31622494Y-56367057D01*
X31622494Y-56367057D02*
X31584398Y-56290866D01*
X31584398Y-56290866D02*
X31584398Y-56214676D01*
X31584398Y-56214676D02*
X31622494Y-56138485D01*
X31622494Y-56138485D02*
X31660589Y-56100390D01*
X31660589Y-56100390D02*
X31736779Y-56062295D01*
X31736779Y-56062295D02*
X31927256Y-56062295D01*
X31927256Y-56062295D02*
X32041541Y-56100390D01*
X32270113Y-56062295D02*
X32727256Y-56062295D01*
X32498684Y-56862295D02*
X32498684Y-56062295D01*
X33984399Y-56862295D02*
X33603447Y-56862295D01*
X33603447Y-56862295D02*
X33603447Y-56062295D01*
X34403447Y-56062295D02*
X34555828Y-56062295D01*
X34555828Y-56062295D02*
X34632018Y-56100390D01*
X34632018Y-56100390D02*
X34708209Y-56176580D01*
X34708209Y-56176580D02*
X34746304Y-56328961D01*
X34746304Y-56328961D02*
X34746304Y-56595628D01*
X34746304Y-56595628D02*
X34708209Y-56748009D01*
X34708209Y-56748009D02*
X34632018Y-56824200D01*
X34632018Y-56824200D02*
X34555828Y-56862295D01*
X34555828Y-56862295D02*
X34403447Y-56862295D01*
X34403447Y-56862295D02*
X34327256Y-56824200D01*
X34327256Y-56824200D02*
X34251066Y-56748009D01*
X34251066Y-56748009D02*
X34212970Y-56595628D01*
X34212970Y-56595628D02*
X34212970Y-56328961D01*
X34212970Y-56328961D02*
X34251066Y-56176580D01*
X34251066Y-56176580D02*
X34327256Y-56100390D01*
X34327256Y-56100390D02*
X34403447Y-56062295D01*
X35241542Y-56062295D02*
X35393923Y-56062295D01*
X35393923Y-56062295D02*
X35470113Y-56100390D01*
X35470113Y-56100390D02*
X35546304Y-56176580D01*
X35546304Y-56176580D02*
X35584399Y-56328961D01*
X35584399Y-56328961D02*
X35584399Y-56595628D01*
X35584399Y-56595628D02*
X35546304Y-56748009D01*
X35546304Y-56748009D02*
X35470113Y-56824200D01*
X35470113Y-56824200D02*
X35393923Y-56862295D01*
X35393923Y-56862295D02*
X35241542Y-56862295D01*
X35241542Y-56862295D02*
X35165351Y-56824200D01*
X35165351Y-56824200D02*
X35089161Y-56748009D01*
X35089161Y-56748009D02*
X35051065Y-56595628D01*
X35051065Y-56595628D02*
X35051065Y-56328961D01*
X35051065Y-56328961D02*
X35089161Y-56176580D01*
X35089161Y-56176580D02*
X35165351Y-56100390D01*
X35165351Y-56100390D02*
X35241542Y-56062295D01*
X35927256Y-56862295D02*
X35927256Y-56062295D01*
X35927256Y-56062295D02*
X36232018Y-56062295D01*
X36232018Y-56062295D02*
X36308208Y-56100390D01*
X36308208Y-56100390D02*
X36346303Y-56138485D01*
X36346303Y-56138485D02*
X36384399Y-56214676D01*
X36384399Y-56214676D02*
X36384399Y-56328961D01*
X36384399Y-56328961D02*
X36346303Y-56405152D01*
X36346303Y-56405152D02*
X36308208Y-56443247D01*
X36308208Y-56443247D02*
X36232018Y-56481342D01*
X36232018Y-56481342D02*
X35927256Y-56481342D01*
X36689160Y-56824200D02*
X36803446Y-56862295D01*
X36803446Y-56862295D02*
X36993922Y-56862295D01*
X36993922Y-56862295D02*
X37070113Y-56824200D01*
X37070113Y-56824200D02*
X37108208Y-56786104D01*
X37108208Y-56786104D02*
X37146303Y-56709914D01*
X37146303Y-56709914D02*
X37146303Y-56633723D01*
X37146303Y-56633723D02*
X37108208Y-56557533D01*
X37108208Y-56557533D02*
X37070113Y-56519438D01*
X37070113Y-56519438D02*
X36993922Y-56481342D01*
X36993922Y-56481342D02*
X36841541Y-56443247D01*
X36841541Y-56443247D02*
X36765351Y-56405152D01*
X36765351Y-56405152D02*
X36727256Y-56367057D01*
X36727256Y-56367057D02*
X36689160Y-56290866D01*
X36689160Y-56290866D02*
X36689160Y-56214676D01*
X36689160Y-56214676D02*
X36727256Y-56138485D01*
X36727256Y-56138485D02*
X36765351Y-56100390D01*
X36765351Y-56100390D02*
X36841541Y-56062295D01*
X36841541Y-56062295D02*
X37032018Y-56062295D01*
X37032018Y-56062295D02*
X37146303Y-56100390D01*
X36555826Y-63943247D02*
X36670112Y-63981342D01*
X36670112Y-63981342D02*
X36708207Y-64019438D01*
X36708207Y-64019438D02*
X36746303Y-64095628D01*
X36746303Y-64095628D02*
X36746303Y-64209914D01*
X36746303Y-64209914D02*
X36708207Y-64286104D01*
X36708207Y-64286104D02*
X36670112Y-64324200D01*
X36670112Y-64324200D02*
X36593922Y-64362295D01*
X36593922Y-64362295D02*
X36289160Y-64362295D01*
X36289160Y-64362295D02*
X36289160Y-63562295D01*
X36289160Y-63562295D02*
X36555826Y-63562295D01*
X36555826Y-63562295D02*
X36632017Y-63600390D01*
X36632017Y-63600390D02*
X36670112Y-63638485D01*
X36670112Y-63638485D02*
X36708207Y-63714676D01*
X36708207Y-63714676D02*
X36708207Y-63790866D01*
X36708207Y-63790866D02*
X36670112Y-63867057D01*
X36670112Y-63867057D02*
X36632017Y-63905152D01*
X36632017Y-63905152D02*
X36555826Y-63943247D01*
X36555826Y-63943247D02*
X36289160Y-63943247D01*
X37089160Y-63562295D02*
X37089160Y-64209914D01*
X37089160Y-64209914D02*
X37127255Y-64286104D01*
X37127255Y-64286104D02*
X37165350Y-64324200D01*
X37165350Y-64324200D02*
X37241541Y-64362295D01*
X37241541Y-64362295D02*
X37393922Y-64362295D01*
X37393922Y-64362295D02*
X37470112Y-64324200D01*
X37470112Y-64324200D02*
X37508207Y-64286104D01*
X37508207Y-64286104D02*
X37546303Y-64209914D01*
X37546303Y-64209914D02*
X37546303Y-63562295D01*
X37889159Y-64324200D02*
X38003445Y-64362295D01*
X38003445Y-64362295D02*
X38193921Y-64362295D01*
X38193921Y-64362295D02*
X38270112Y-64324200D01*
X38270112Y-64324200D02*
X38308207Y-64286104D01*
X38308207Y-64286104D02*
X38346302Y-64209914D01*
X38346302Y-64209914D02*
X38346302Y-64133723D01*
X38346302Y-64133723D02*
X38308207Y-64057533D01*
X38308207Y-64057533D02*
X38270112Y-64019438D01*
X38270112Y-64019438D02*
X38193921Y-63981342D01*
X38193921Y-63981342D02*
X38041540Y-63943247D01*
X38041540Y-63943247D02*
X37965350Y-63905152D01*
X37965350Y-63905152D02*
X37927255Y-63867057D01*
X37927255Y-63867057D02*
X37889159Y-63790866D01*
X37889159Y-63790866D02*
X37889159Y-63714676D01*
X37889159Y-63714676D02*
X37927255Y-63638485D01*
X37927255Y-63638485D02*
X37965350Y-63600390D01*
X37965350Y-63600390D02*
X38041540Y-63562295D01*
X38041540Y-63562295D02*
X38232017Y-63562295D01*
X38232017Y-63562295D02*
X38346302Y-63600390D01*
X39108207Y-64362295D02*
X38651064Y-64362295D01*
X38879636Y-64362295D02*
X38879636Y-63562295D01*
X38879636Y-63562295D02*
X38803445Y-63676580D01*
X38803445Y-63676580D02*
X38727255Y-63752771D01*
X38727255Y-63752771D02*
X38651064Y-63790866D01*
X44555826Y-63943247D02*
X44670112Y-63981342D01*
X44670112Y-63981342D02*
X44708207Y-64019438D01*
X44708207Y-64019438D02*
X44746303Y-64095628D01*
X44746303Y-64095628D02*
X44746303Y-64209914D01*
X44746303Y-64209914D02*
X44708207Y-64286104D01*
X44708207Y-64286104D02*
X44670112Y-64324200D01*
X44670112Y-64324200D02*
X44593922Y-64362295D01*
X44593922Y-64362295D02*
X44289160Y-64362295D01*
X44289160Y-64362295D02*
X44289160Y-63562295D01*
X44289160Y-63562295D02*
X44555826Y-63562295D01*
X44555826Y-63562295D02*
X44632017Y-63600390D01*
X44632017Y-63600390D02*
X44670112Y-63638485D01*
X44670112Y-63638485D02*
X44708207Y-63714676D01*
X44708207Y-63714676D02*
X44708207Y-63790866D01*
X44708207Y-63790866D02*
X44670112Y-63867057D01*
X44670112Y-63867057D02*
X44632017Y-63905152D01*
X44632017Y-63905152D02*
X44555826Y-63943247D01*
X44555826Y-63943247D02*
X44289160Y-63943247D01*
X45089160Y-63562295D02*
X45089160Y-64209914D01*
X45089160Y-64209914D02*
X45127255Y-64286104D01*
X45127255Y-64286104D02*
X45165350Y-64324200D01*
X45165350Y-64324200D02*
X45241541Y-64362295D01*
X45241541Y-64362295D02*
X45393922Y-64362295D01*
X45393922Y-64362295D02*
X45470112Y-64324200D01*
X45470112Y-64324200D02*
X45508207Y-64286104D01*
X45508207Y-64286104D02*
X45546303Y-64209914D01*
X45546303Y-64209914D02*
X45546303Y-63562295D01*
X45889159Y-64324200D02*
X46003445Y-64362295D01*
X46003445Y-64362295D02*
X46193921Y-64362295D01*
X46193921Y-64362295D02*
X46270112Y-64324200D01*
X46270112Y-64324200D02*
X46308207Y-64286104D01*
X46308207Y-64286104D02*
X46346302Y-64209914D01*
X46346302Y-64209914D02*
X46346302Y-64133723D01*
X46346302Y-64133723D02*
X46308207Y-64057533D01*
X46308207Y-64057533D02*
X46270112Y-64019438D01*
X46270112Y-64019438D02*
X46193921Y-63981342D01*
X46193921Y-63981342D02*
X46041540Y-63943247D01*
X46041540Y-63943247D02*
X45965350Y-63905152D01*
X45965350Y-63905152D02*
X45927255Y-63867057D01*
X45927255Y-63867057D02*
X45889159Y-63790866D01*
X45889159Y-63790866D02*
X45889159Y-63714676D01*
X45889159Y-63714676D02*
X45927255Y-63638485D01*
X45927255Y-63638485D02*
X45965350Y-63600390D01*
X45965350Y-63600390D02*
X46041540Y-63562295D01*
X46041540Y-63562295D02*
X46232017Y-63562295D01*
X46232017Y-63562295D02*
X46346302Y-63600390D01*
X46651064Y-63638485D02*
X46689160Y-63600390D01*
X46689160Y-63600390D02*
X46765350Y-63562295D01*
X46765350Y-63562295D02*
X46955826Y-63562295D01*
X46955826Y-63562295D02*
X47032017Y-63600390D01*
X47032017Y-63600390D02*
X47070112Y-63638485D01*
X47070112Y-63638485D02*
X47108207Y-63714676D01*
X47108207Y-63714676D02*
X47108207Y-63790866D01*
X47108207Y-63790866D02*
X47070112Y-63905152D01*
X47070112Y-63905152D02*
X46612969Y-64362295D01*
X46612969Y-64362295D02*
X47108207Y-64362295D01*
X50289160Y-37862295D02*
X50289160Y-37062295D01*
X50289160Y-37062295D02*
X50555826Y-37633723D01*
X50555826Y-37633723D02*
X50822493Y-37062295D01*
X50822493Y-37062295D02*
X50822493Y-37862295D01*
X51812970Y-37862295D02*
X51812970Y-37062295D01*
X51812970Y-37062295D02*
X52117732Y-37062295D01*
X52117732Y-37062295D02*
X52193922Y-37100390D01*
X52193922Y-37100390D02*
X52232017Y-37138485D01*
X52232017Y-37138485D02*
X52270113Y-37214676D01*
X52270113Y-37214676D02*
X52270113Y-37328961D01*
X52270113Y-37328961D02*
X52232017Y-37405152D01*
X52232017Y-37405152D02*
X52193922Y-37443247D01*
X52193922Y-37443247D02*
X52117732Y-37481342D01*
X52117732Y-37481342D02*
X51812970Y-37481342D01*
X52612970Y-37062295D02*
X52612970Y-37709914D01*
X52612970Y-37709914D02*
X52651065Y-37786104D01*
X52651065Y-37786104D02*
X52689160Y-37824200D01*
X52689160Y-37824200D02*
X52765351Y-37862295D01*
X52765351Y-37862295D02*
X52917732Y-37862295D01*
X52917732Y-37862295D02*
X52993922Y-37824200D01*
X52993922Y-37824200D02*
X53032017Y-37786104D01*
X53032017Y-37786104D02*
X53070113Y-37709914D01*
X53070113Y-37709914D02*
X53070113Y-37062295D01*
X53832017Y-37862295D02*
X53451065Y-37862295D01*
X53451065Y-37862295D02*
X53451065Y-37062295D01*
X54479636Y-37862295D02*
X54098684Y-37862295D01*
X54098684Y-37862295D02*
X54098684Y-37062295D01*
X54746303Y-37557533D02*
X55355827Y-37557533D01*
X55736779Y-37862295D02*
X55736779Y-37062295D01*
X55736779Y-37062295D02*
X55927255Y-37062295D01*
X55927255Y-37062295D02*
X56041541Y-37100390D01*
X56041541Y-37100390D02*
X56117731Y-37176580D01*
X56117731Y-37176580D02*
X56155826Y-37252771D01*
X56155826Y-37252771D02*
X56193922Y-37405152D01*
X56193922Y-37405152D02*
X56193922Y-37519438D01*
X56193922Y-37519438D02*
X56155826Y-37671819D01*
X56155826Y-37671819D02*
X56117731Y-37748009D01*
X56117731Y-37748009D02*
X56041541Y-37824200D01*
X56041541Y-37824200D02*
X55927255Y-37862295D01*
X55927255Y-37862295D02*
X55736779Y-37862295D01*
X56689160Y-37062295D02*
X56841541Y-37062295D01*
X56841541Y-37062295D02*
X56917731Y-37100390D01*
X56917731Y-37100390D02*
X56993922Y-37176580D01*
X56993922Y-37176580D02*
X57032017Y-37328961D01*
X57032017Y-37328961D02*
X57032017Y-37595628D01*
X57032017Y-37595628D02*
X56993922Y-37748009D01*
X56993922Y-37748009D02*
X56917731Y-37824200D01*
X56917731Y-37824200D02*
X56841541Y-37862295D01*
X56841541Y-37862295D02*
X56689160Y-37862295D01*
X56689160Y-37862295D02*
X56612969Y-37824200D01*
X56612969Y-37824200D02*
X56536779Y-37748009D01*
X56536779Y-37748009D02*
X56498683Y-37595628D01*
X56498683Y-37595628D02*
X56498683Y-37328961D01*
X56498683Y-37328961D02*
X56536779Y-37176580D01*
X56536779Y-37176580D02*
X56612969Y-37100390D01*
X56612969Y-37100390D02*
X56689160Y-37062295D01*
X57298683Y-37062295D02*
X57489159Y-37862295D01*
X57489159Y-37862295D02*
X57641540Y-37290866D01*
X57641540Y-37290866D02*
X57793921Y-37862295D01*
X57793921Y-37862295D02*
X57984398Y-37062295D01*
X58289160Y-37862295D02*
X58289160Y-37062295D01*
X58289160Y-37062295D02*
X58746303Y-37862295D01*
X58746303Y-37862295D02*
X58746303Y-37062295D01*
X59089159Y-37824200D02*
X59203445Y-37862295D01*
X59203445Y-37862295D02*
X59393921Y-37862295D01*
X59393921Y-37862295D02*
X59470112Y-37824200D01*
X59470112Y-37824200D02*
X59508207Y-37786104D01*
X59508207Y-37786104D02*
X59546302Y-37709914D01*
X59546302Y-37709914D02*
X59546302Y-37633723D01*
X59546302Y-37633723D02*
X59508207Y-37557533D01*
X59508207Y-37557533D02*
X59470112Y-37519438D01*
X59470112Y-37519438D02*
X59393921Y-37481342D01*
X59393921Y-37481342D02*
X59241540Y-37443247D01*
X59241540Y-37443247D02*
X59165350Y-37405152D01*
X59165350Y-37405152D02*
X59127255Y-37367057D01*
X59127255Y-37367057D02*
X59089159Y-37290866D01*
X59089159Y-37290866D02*
X59089159Y-37214676D01*
X59089159Y-37214676D02*
X59127255Y-37138485D01*
X59127255Y-37138485D02*
X59165350Y-37100390D01*
X59165350Y-37100390D02*
X59241540Y-37062295D01*
X59241540Y-37062295D02*
X59432017Y-37062295D01*
X59432017Y-37062295D02*
X59546302Y-37100390D01*
X60460588Y-37138485D02*
X60498684Y-37100390D01*
X60498684Y-37100390D02*
X60574874Y-37062295D01*
X60574874Y-37062295D02*
X60765350Y-37062295D01*
X60765350Y-37062295D02*
X60841541Y-37100390D01*
X60841541Y-37100390D02*
X60879636Y-37138485D01*
X60879636Y-37138485D02*
X60917731Y-37214676D01*
X60917731Y-37214676D02*
X60917731Y-37290866D01*
X60917731Y-37290866D02*
X60879636Y-37405152D01*
X60879636Y-37405152D02*
X60422493Y-37862295D01*
X60422493Y-37862295D02*
X60917731Y-37862295D01*
X61222493Y-37138485D02*
X61260589Y-37100390D01*
X61260589Y-37100390D02*
X61336779Y-37062295D01*
X61336779Y-37062295D02*
X61527255Y-37062295D01*
X61527255Y-37062295D02*
X61603446Y-37100390D01*
X61603446Y-37100390D02*
X61641541Y-37138485D01*
X61641541Y-37138485D02*
X61679636Y-37214676D01*
X61679636Y-37214676D02*
X61679636Y-37290866D01*
X61679636Y-37290866D02*
X61641541Y-37405152D01*
X61641541Y-37405152D02*
X61184398Y-37862295D01*
X61184398Y-37862295D02*
X61679636Y-37862295D01*
X62174875Y-37062295D02*
X62251065Y-37062295D01*
X62251065Y-37062295D02*
X62327256Y-37100390D01*
X62327256Y-37100390D02*
X62365351Y-37138485D01*
X62365351Y-37138485D02*
X62403446Y-37214676D01*
X62403446Y-37214676D02*
X62441541Y-37367057D01*
X62441541Y-37367057D02*
X62441541Y-37557533D01*
X62441541Y-37557533D02*
X62403446Y-37709914D01*
X62403446Y-37709914D02*
X62365351Y-37786104D01*
X62365351Y-37786104D02*
X62327256Y-37824200D01*
X62327256Y-37824200D02*
X62251065Y-37862295D01*
X62251065Y-37862295D02*
X62174875Y-37862295D01*
X62174875Y-37862295D02*
X62098684Y-37824200D01*
X62098684Y-37824200D02*
X62060589Y-37786104D01*
X62060589Y-37786104D02*
X62022494Y-37709914D01*
X62022494Y-37709914D02*
X61984398Y-37557533D01*
X61984398Y-37557533D02*
X61984398Y-37367057D01*
X61984398Y-37367057D02*
X62022494Y-37214676D01*
X62022494Y-37214676D02*
X62060589Y-37138485D01*
X62060589Y-37138485D02*
X62098684Y-37100390D01*
X62098684Y-37100390D02*
X62174875Y-37062295D01*
X62784399Y-37862295D02*
X62784399Y-37062295D01*
X62860589Y-37557533D02*
X63089161Y-37862295D01*
X63089161Y-37328961D02*
X62784399Y-37633723D01*
X64803447Y-37062295D02*
X64879637Y-37062295D01*
X64879637Y-37062295D02*
X64955828Y-37100390D01*
X64955828Y-37100390D02*
X64993923Y-37138485D01*
X64993923Y-37138485D02*
X65032018Y-37214676D01*
X65032018Y-37214676D02*
X65070113Y-37367057D01*
X65070113Y-37367057D02*
X65070113Y-37557533D01*
X65070113Y-37557533D02*
X65032018Y-37709914D01*
X65032018Y-37709914D02*
X64993923Y-37786104D01*
X64993923Y-37786104D02*
X64955828Y-37824200D01*
X64955828Y-37824200D02*
X64879637Y-37862295D01*
X64879637Y-37862295D02*
X64803447Y-37862295D01*
X64803447Y-37862295D02*
X64727256Y-37824200D01*
X64727256Y-37824200D02*
X64689161Y-37786104D01*
X64689161Y-37786104D02*
X64651066Y-37709914D01*
X64651066Y-37709914D02*
X64612970Y-37557533D01*
X64612970Y-37557533D02*
X64612970Y-37367057D01*
X64612970Y-37367057D02*
X64651066Y-37214676D01*
X64651066Y-37214676D02*
X64689161Y-37138485D01*
X64689161Y-37138485D02*
X64727256Y-37100390D01*
X64727256Y-37100390D02*
X64803447Y-37062295D01*
X66022495Y-37786104D02*
X66060590Y-37824200D01*
X66060590Y-37824200D02*
X66022495Y-37862295D01*
X66022495Y-37862295D02*
X65984399Y-37824200D01*
X65984399Y-37824200D02*
X66022495Y-37786104D01*
X66022495Y-37786104D02*
X66022495Y-37862295D01*
X66403447Y-37786104D02*
X66441542Y-37824200D01*
X66441542Y-37824200D02*
X66403447Y-37862295D01*
X66403447Y-37862295D02*
X66365351Y-37824200D01*
X66365351Y-37824200D02*
X66403447Y-37786104D01*
X66403447Y-37786104D02*
X66403447Y-37862295D01*
X67317732Y-37062295D02*
X67851066Y-37062295D01*
X67851066Y-37062295D02*
X67508208Y-37862295D01*
X52555826Y-63943247D02*
X52670112Y-63981342D01*
X52670112Y-63981342D02*
X52708207Y-64019438D01*
X52708207Y-64019438D02*
X52746303Y-64095628D01*
X52746303Y-64095628D02*
X52746303Y-64209914D01*
X52746303Y-64209914D02*
X52708207Y-64286104D01*
X52708207Y-64286104D02*
X52670112Y-64324200D01*
X52670112Y-64324200D02*
X52593922Y-64362295D01*
X52593922Y-64362295D02*
X52289160Y-64362295D01*
X52289160Y-64362295D02*
X52289160Y-63562295D01*
X52289160Y-63562295D02*
X52555826Y-63562295D01*
X52555826Y-63562295D02*
X52632017Y-63600390D01*
X52632017Y-63600390D02*
X52670112Y-63638485D01*
X52670112Y-63638485D02*
X52708207Y-63714676D01*
X52708207Y-63714676D02*
X52708207Y-63790866D01*
X52708207Y-63790866D02*
X52670112Y-63867057D01*
X52670112Y-63867057D02*
X52632017Y-63905152D01*
X52632017Y-63905152D02*
X52555826Y-63943247D01*
X52555826Y-63943247D02*
X52289160Y-63943247D01*
X53089160Y-63562295D02*
X53089160Y-64209914D01*
X53089160Y-64209914D02*
X53127255Y-64286104D01*
X53127255Y-64286104D02*
X53165350Y-64324200D01*
X53165350Y-64324200D02*
X53241541Y-64362295D01*
X53241541Y-64362295D02*
X53393922Y-64362295D01*
X53393922Y-64362295D02*
X53470112Y-64324200D01*
X53470112Y-64324200D02*
X53508207Y-64286104D01*
X53508207Y-64286104D02*
X53546303Y-64209914D01*
X53546303Y-64209914D02*
X53546303Y-63562295D01*
X53889159Y-64324200D02*
X54003445Y-64362295D01*
X54003445Y-64362295D02*
X54193921Y-64362295D01*
X54193921Y-64362295D02*
X54270112Y-64324200D01*
X54270112Y-64324200D02*
X54308207Y-64286104D01*
X54308207Y-64286104D02*
X54346302Y-64209914D01*
X54346302Y-64209914D02*
X54346302Y-64133723D01*
X54346302Y-64133723D02*
X54308207Y-64057533D01*
X54308207Y-64057533D02*
X54270112Y-64019438D01*
X54270112Y-64019438D02*
X54193921Y-63981342D01*
X54193921Y-63981342D02*
X54041540Y-63943247D01*
X54041540Y-63943247D02*
X53965350Y-63905152D01*
X53965350Y-63905152D02*
X53927255Y-63867057D01*
X53927255Y-63867057D02*
X53889159Y-63790866D01*
X53889159Y-63790866D02*
X53889159Y-63714676D01*
X53889159Y-63714676D02*
X53927255Y-63638485D01*
X53927255Y-63638485D02*
X53965350Y-63600390D01*
X53965350Y-63600390D02*
X54041540Y-63562295D01*
X54041540Y-63562295D02*
X54232017Y-63562295D01*
X54232017Y-63562295D02*
X54346302Y-63600390D01*
X54612969Y-63562295D02*
X55108207Y-63562295D01*
X55108207Y-63562295D02*
X54841541Y-63867057D01*
X54841541Y-63867057D02*
X54955826Y-63867057D01*
X54955826Y-63867057D02*
X55032017Y-63905152D01*
X55032017Y-63905152D02*
X55070112Y-63943247D01*
X55070112Y-63943247D02*
X55108207Y-64019438D01*
X55108207Y-64019438D02*
X55108207Y-64209914D01*
X55108207Y-64209914D02*
X55070112Y-64286104D01*
X55070112Y-64286104D02*
X55032017Y-64324200D01*
X55032017Y-64324200D02*
X54955826Y-64362295D01*
X54955826Y-64362295D02*
X54727255Y-64362295D01*
X54727255Y-64362295D02*
X54651064Y-64324200D01*
X54651064Y-64324200D02*
X54612969Y-64286104D01*
X60746303Y-64286104D02*
X60708207Y-64324200D01*
X60708207Y-64324200D02*
X60593922Y-64362295D01*
X60593922Y-64362295D02*
X60517731Y-64362295D01*
X60517731Y-64362295D02*
X60403445Y-64324200D01*
X60403445Y-64324200D02*
X60327255Y-64248009D01*
X60327255Y-64248009D02*
X60289160Y-64171819D01*
X60289160Y-64171819D02*
X60251064Y-64019438D01*
X60251064Y-64019438D02*
X60251064Y-63905152D01*
X60251064Y-63905152D02*
X60289160Y-63752771D01*
X60289160Y-63752771D02*
X60327255Y-63676580D01*
X60327255Y-63676580D02*
X60403445Y-63600390D01*
X60403445Y-63600390D02*
X60517731Y-63562295D01*
X60517731Y-63562295D02*
X60593922Y-63562295D01*
X60593922Y-63562295D02*
X60708207Y-63600390D01*
X60708207Y-63600390D02*
X60746303Y-63638485D01*
X61470112Y-64362295D02*
X61089160Y-64362295D01*
X61089160Y-64362295D02*
X61089160Y-63562295D01*
X61736779Y-64362295D02*
X61736779Y-63562295D01*
X62193922Y-64362295D02*
X61851064Y-63905152D01*
X62193922Y-63562295D02*
X61736779Y-64019438D01*
X66555826Y-20943247D02*
X66670112Y-20981342D01*
X66670112Y-20981342D02*
X66708207Y-21019438D01*
X66708207Y-21019438D02*
X66746303Y-21095628D01*
X66746303Y-21095628D02*
X66746303Y-21209914D01*
X66746303Y-21209914D02*
X66708207Y-21286104D01*
X66708207Y-21286104D02*
X66670112Y-21324200D01*
X66670112Y-21324200D02*
X66593922Y-21362295D01*
X66593922Y-21362295D02*
X66289160Y-21362295D01*
X66289160Y-21362295D02*
X66289160Y-20562295D01*
X66289160Y-20562295D02*
X66555826Y-20562295D01*
X66555826Y-20562295D02*
X66632017Y-20600390D01*
X66632017Y-20600390D02*
X66670112Y-20638485D01*
X66670112Y-20638485D02*
X66708207Y-20714676D01*
X66708207Y-20714676D02*
X66708207Y-20790866D01*
X66708207Y-20790866D02*
X66670112Y-20867057D01*
X66670112Y-20867057D02*
X66632017Y-20905152D01*
X66632017Y-20905152D02*
X66555826Y-20943247D01*
X66555826Y-20943247D02*
X66289160Y-20943247D01*
X67089160Y-20562295D02*
X67089160Y-21209914D01*
X67089160Y-21209914D02*
X67127255Y-21286104D01*
X67127255Y-21286104D02*
X67165350Y-21324200D01*
X67165350Y-21324200D02*
X67241541Y-21362295D01*
X67241541Y-21362295D02*
X67393922Y-21362295D01*
X67393922Y-21362295D02*
X67470112Y-21324200D01*
X67470112Y-21324200D02*
X67508207Y-21286104D01*
X67508207Y-21286104D02*
X67546303Y-21209914D01*
X67546303Y-21209914D02*
X67546303Y-20562295D01*
X67889159Y-21324200D02*
X68003445Y-21362295D01*
X68003445Y-21362295D02*
X68193921Y-21362295D01*
X68193921Y-21362295D02*
X68270112Y-21324200D01*
X68270112Y-21324200D02*
X68308207Y-21286104D01*
X68308207Y-21286104D02*
X68346302Y-21209914D01*
X68346302Y-21209914D02*
X68346302Y-21133723D01*
X68346302Y-21133723D02*
X68308207Y-21057533D01*
X68308207Y-21057533D02*
X68270112Y-21019438D01*
X68270112Y-21019438D02*
X68193921Y-20981342D01*
X68193921Y-20981342D02*
X68041540Y-20943247D01*
X68041540Y-20943247D02*
X67965350Y-20905152D01*
X67965350Y-20905152D02*
X67927255Y-20867057D01*
X67927255Y-20867057D02*
X67889159Y-20790866D01*
X67889159Y-20790866D02*
X67889159Y-20714676D01*
X67889159Y-20714676D02*
X67927255Y-20638485D01*
X67927255Y-20638485D02*
X67965350Y-20600390D01*
X67965350Y-20600390D02*
X68041540Y-20562295D01*
X68041540Y-20562295D02*
X68232017Y-20562295D01*
X68232017Y-20562295D02*
X68346302Y-20600390D01*
X69298684Y-21362295D02*
X69298684Y-20562295D01*
X69298684Y-20562295D02*
X69603446Y-20562295D01*
X69603446Y-20562295D02*
X69679636Y-20600390D01*
X69679636Y-20600390D02*
X69717731Y-20638485D01*
X69717731Y-20638485D02*
X69755827Y-20714676D01*
X69755827Y-20714676D02*
X69755827Y-20828961D01*
X69755827Y-20828961D02*
X69717731Y-20905152D01*
X69717731Y-20905152D02*
X69679636Y-20943247D01*
X69679636Y-20943247D02*
X69603446Y-20981342D01*
X69603446Y-20981342D02*
X69298684Y-20981342D01*
X70098684Y-20562295D02*
X70098684Y-21209914D01*
X70098684Y-21209914D02*
X70136779Y-21286104D01*
X70136779Y-21286104D02*
X70174874Y-21324200D01*
X70174874Y-21324200D02*
X70251065Y-21362295D01*
X70251065Y-21362295D02*
X70403446Y-21362295D01*
X70403446Y-21362295D02*
X70479636Y-21324200D01*
X70479636Y-21324200D02*
X70517731Y-21286104D01*
X70517731Y-21286104D02*
X70555827Y-21209914D01*
X70555827Y-21209914D02*
X70555827Y-20562295D01*
X71317731Y-21362295D02*
X70936779Y-21362295D01*
X70936779Y-21362295D02*
X70936779Y-20562295D01*
X71965350Y-21362295D02*
X71584398Y-21362295D01*
X71584398Y-21362295D02*
X71584398Y-20562295D01*
X72232017Y-21057533D02*
X72841541Y-21057533D01*
X73222493Y-20562295D02*
X73222493Y-21209914D01*
X73222493Y-21209914D02*
X73260588Y-21286104D01*
X73260588Y-21286104D02*
X73298683Y-21324200D01*
X73298683Y-21324200D02*
X73374874Y-21362295D01*
X73374874Y-21362295D02*
X73527255Y-21362295D01*
X73527255Y-21362295D02*
X73603445Y-21324200D01*
X73603445Y-21324200D02*
X73641540Y-21286104D01*
X73641540Y-21286104D02*
X73679636Y-21209914D01*
X73679636Y-21209914D02*
X73679636Y-20562295D01*
X74060588Y-21362295D02*
X74060588Y-20562295D01*
X74060588Y-20562295D02*
X74365350Y-20562295D01*
X74365350Y-20562295D02*
X74441540Y-20600390D01*
X74441540Y-20600390D02*
X74479635Y-20638485D01*
X74479635Y-20638485D02*
X74517731Y-20714676D01*
X74517731Y-20714676D02*
X74517731Y-20828961D01*
X74517731Y-20828961D02*
X74479635Y-20905152D01*
X74479635Y-20905152D02*
X74441540Y-20943247D01*
X74441540Y-20943247D02*
X74365350Y-20981342D01*
X74365350Y-20981342D02*
X74060588Y-20981342D01*
X74822492Y-21324200D02*
X74936778Y-21362295D01*
X74936778Y-21362295D02*
X75127254Y-21362295D01*
X75127254Y-21362295D02*
X75203445Y-21324200D01*
X75203445Y-21324200D02*
X75241540Y-21286104D01*
X75241540Y-21286104D02*
X75279635Y-21209914D01*
X75279635Y-21209914D02*
X75279635Y-21133723D01*
X75279635Y-21133723D02*
X75241540Y-21057533D01*
X75241540Y-21057533D02*
X75203445Y-21019438D01*
X75203445Y-21019438D02*
X75127254Y-20981342D01*
X75127254Y-20981342D02*
X74974873Y-20943247D01*
X74974873Y-20943247D02*
X74898683Y-20905152D01*
X74898683Y-20905152D02*
X74860588Y-20867057D01*
X74860588Y-20867057D02*
X74822492Y-20790866D01*
X74822492Y-20790866D02*
X74822492Y-20714676D01*
X74822492Y-20714676D02*
X74860588Y-20638485D01*
X74860588Y-20638485D02*
X74898683Y-20600390D01*
X74898683Y-20600390D02*
X74974873Y-20562295D01*
X74974873Y-20562295D02*
X75165350Y-20562295D01*
X75165350Y-20562295D02*
X75279635Y-20600390D01*
X76155826Y-20562295D02*
X76651064Y-20562295D01*
X76651064Y-20562295D02*
X76384398Y-20867057D01*
X76384398Y-20867057D02*
X76498683Y-20867057D01*
X76498683Y-20867057D02*
X76574874Y-20905152D01*
X76574874Y-20905152D02*
X76612969Y-20943247D01*
X76612969Y-20943247D02*
X76651064Y-21019438D01*
X76651064Y-21019438D02*
X76651064Y-21209914D01*
X76651064Y-21209914D02*
X76612969Y-21286104D01*
X76612969Y-21286104D02*
X76574874Y-21324200D01*
X76574874Y-21324200D02*
X76498683Y-21362295D01*
X76498683Y-21362295D02*
X76270112Y-21362295D01*
X76270112Y-21362295D02*
X76193921Y-21324200D01*
X76193921Y-21324200D02*
X76155826Y-21286104D01*
X77565350Y-20638485D02*
X77603446Y-20600390D01*
X77603446Y-20600390D02*
X77679636Y-20562295D01*
X77679636Y-20562295D02*
X77870112Y-20562295D01*
X77870112Y-20562295D02*
X77946303Y-20600390D01*
X77946303Y-20600390D02*
X77984398Y-20638485D01*
X77984398Y-20638485D02*
X78022493Y-20714676D01*
X78022493Y-20714676D02*
X78022493Y-20790866D01*
X78022493Y-20790866D02*
X77984398Y-20905152D01*
X77984398Y-20905152D02*
X77527255Y-21362295D01*
X77527255Y-21362295D02*
X78022493Y-21362295D01*
X79393922Y-21362295D02*
X78936779Y-21362295D01*
X79165351Y-21362295D02*
X79165351Y-20562295D01*
X79165351Y-20562295D02*
X79089160Y-20676580D01*
X79089160Y-20676580D02*
X79012970Y-20752771D01*
X79012970Y-20752771D02*
X78936779Y-20790866D01*
X80498685Y-20562295D02*
X80574875Y-20562295D01*
X80574875Y-20562295D02*
X80651066Y-20600390D01*
X80651066Y-20600390D02*
X80689161Y-20638485D01*
X80689161Y-20638485D02*
X80727256Y-20714676D01*
X80727256Y-20714676D02*
X80765351Y-20867057D01*
X80765351Y-20867057D02*
X80765351Y-21057533D01*
X80765351Y-21057533D02*
X80727256Y-21209914D01*
X80727256Y-21209914D02*
X80689161Y-21286104D01*
X80689161Y-21286104D02*
X80651066Y-21324200D01*
X80651066Y-21324200D02*
X80574875Y-21362295D01*
X80574875Y-21362295D02*
X80498685Y-21362295D01*
X80498685Y-21362295D02*
X80422494Y-21324200D01*
X80422494Y-21324200D02*
X80384399Y-21286104D01*
X80384399Y-21286104D02*
X80346304Y-21209914D01*
X80346304Y-21209914D02*
X80308208Y-21057533D01*
X80308208Y-21057533D02*
X80308208Y-20867057D01*
X80308208Y-20867057D02*
X80346304Y-20714676D01*
X80346304Y-20714676D02*
X80384399Y-20638485D01*
X80384399Y-20638485D02*
X80422494Y-20600390D01*
X80422494Y-20600390D02*
X80498685Y-20562295D01*
X68746303Y-64362295D02*
X68479636Y-63981342D01*
X68289160Y-64362295D02*
X68289160Y-63562295D01*
X68289160Y-63562295D02*
X68593922Y-63562295D01*
X68593922Y-63562295D02*
X68670112Y-63600390D01*
X68670112Y-63600390D02*
X68708207Y-63638485D01*
X68708207Y-63638485D02*
X68746303Y-63714676D01*
X68746303Y-63714676D02*
X68746303Y-63828961D01*
X68746303Y-63828961D02*
X68708207Y-63905152D01*
X68708207Y-63905152D02*
X68670112Y-63943247D01*
X68670112Y-63943247D02*
X68593922Y-63981342D01*
X68593922Y-63981342D02*
X68289160Y-63981342D01*
X69051064Y-64324200D02*
X69165350Y-64362295D01*
X69165350Y-64362295D02*
X69355826Y-64362295D01*
X69355826Y-64362295D02*
X69432017Y-64324200D01*
X69432017Y-64324200D02*
X69470112Y-64286104D01*
X69470112Y-64286104D02*
X69508207Y-64209914D01*
X69508207Y-64209914D02*
X69508207Y-64133723D01*
X69508207Y-64133723D02*
X69470112Y-64057533D01*
X69470112Y-64057533D02*
X69432017Y-64019438D01*
X69432017Y-64019438D02*
X69355826Y-63981342D01*
X69355826Y-63981342D02*
X69203445Y-63943247D01*
X69203445Y-63943247D02*
X69127255Y-63905152D01*
X69127255Y-63905152D02*
X69089160Y-63867057D01*
X69089160Y-63867057D02*
X69051064Y-63790866D01*
X69051064Y-63790866D02*
X69051064Y-63714676D01*
X69051064Y-63714676D02*
X69089160Y-63638485D01*
X69089160Y-63638485D02*
X69127255Y-63600390D01*
X69127255Y-63600390D02*
X69203445Y-63562295D01*
X69203445Y-63562295D02*
X69393922Y-63562295D01*
X69393922Y-63562295D02*
X69508207Y-63600390D01*
X69736779Y-63562295D02*
X70193922Y-63562295D01*
X69965350Y-64362295D02*
X69965350Y-63562295D01*
X3336779Y-17954819D02*
X3336779Y-18764342D01*
X3336779Y-18764342D02*
X3384398Y-18859580D01*
X3384398Y-18859580D02*
X3432017Y-18907200D01*
X3432017Y-18907200D02*
X3527255Y-18954819D01*
X3527255Y-18954819D02*
X3717731Y-18954819D01*
X3717731Y-18954819D02*
X3812969Y-18907200D01*
X3812969Y-18907200D02*
X3860588Y-18859580D01*
X3860588Y-18859580D02*
X3908207Y-18764342D01*
X3908207Y-18764342D02*
X3908207Y-17954819D01*
X4336779Y-18907200D02*
X4479636Y-18954819D01*
X4479636Y-18954819D02*
X4717731Y-18954819D01*
X4717731Y-18954819D02*
X4812969Y-18907200D01*
X4812969Y-18907200D02*
X4860588Y-18859580D01*
X4860588Y-18859580D02*
X4908207Y-18764342D01*
X4908207Y-18764342D02*
X4908207Y-18669104D01*
X4908207Y-18669104D02*
X4860588Y-18573866D01*
X4860588Y-18573866D02*
X4812969Y-18526247D01*
X4812969Y-18526247D02*
X4717731Y-18478628D01*
X4717731Y-18478628D02*
X4527255Y-18431009D01*
X4527255Y-18431009D02*
X4432017Y-18383390D01*
X4432017Y-18383390D02*
X4384398Y-18335771D01*
X4384398Y-18335771D02*
X4336779Y-18240533D01*
X4336779Y-18240533D02*
X4336779Y-18145295D01*
X4336779Y-18145295D02*
X4384398Y-18050057D01*
X4384398Y-18050057D02*
X4432017Y-18002438D01*
X4432017Y-18002438D02*
X4527255Y-17954819D01*
X4527255Y-17954819D02*
X4765350Y-17954819D01*
X4765350Y-17954819D02*
X4908207Y-18002438D01*
X5670112Y-18431009D02*
X5812969Y-18478628D01*
X5812969Y-18478628D02*
X5860588Y-18526247D01*
X5860588Y-18526247D02*
X5908207Y-18621485D01*
X5908207Y-18621485D02*
X5908207Y-18764342D01*
X5908207Y-18764342D02*
X5860588Y-18859580D01*
X5860588Y-18859580D02*
X5812969Y-18907200D01*
X5812969Y-18907200D02*
X5717731Y-18954819D01*
X5717731Y-18954819D02*
X5336779Y-18954819D01*
X5336779Y-18954819D02*
X5336779Y-17954819D01*
X5336779Y-17954819D02*
X5670112Y-17954819D01*
X5670112Y-17954819D02*
X5765350Y-18002438D01*
X5765350Y-18002438D02*
X5812969Y-18050057D01*
X5812969Y-18050057D02*
X5860588Y-18145295D01*
X5860588Y-18145295D02*
X5860588Y-18240533D01*
X5860588Y-18240533D02*
X5812969Y-18335771D01*
X5812969Y-18335771D02*
X5765350Y-18383390D01*
X5765350Y-18383390D02*
X5670112Y-18431009D01*
X5670112Y-18431009D02*
X5336779Y-18431009D01*
X7574874Y-17954819D02*
X7098684Y-17954819D01*
X7098684Y-17954819D02*
X7051065Y-18431009D01*
X7051065Y-18431009D02*
X7098684Y-18383390D01*
X7098684Y-18383390D02*
X7193922Y-18335771D01*
X7193922Y-18335771D02*
X7432017Y-18335771D01*
X7432017Y-18335771D02*
X7527255Y-18383390D01*
X7527255Y-18383390D02*
X7574874Y-18431009D01*
X7574874Y-18431009D02*
X7622493Y-18526247D01*
X7622493Y-18526247D02*
X7622493Y-18764342D01*
X7622493Y-18764342D02*
X7574874Y-18859580D01*
X7574874Y-18859580D02*
X7527255Y-18907200D01*
X7527255Y-18907200D02*
X7432017Y-18954819D01*
X7432017Y-18954819D02*
X7193922Y-18954819D01*
X7193922Y-18954819D02*
X7098684Y-18907200D01*
X7098684Y-18907200D02*
X7051065Y-18859580D01*
X7908208Y-17954819D02*
X8241541Y-18954819D01*
X8241541Y-18954819D02*
X8574874Y-17954819D01*
X9670113Y-18954819D02*
X9670113Y-17954819D01*
X10146303Y-18954819D02*
X10146303Y-17954819D01*
X10146303Y-17954819D02*
X10717731Y-18954819D01*
X10717731Y-18954819D02*
X10717731Y-17954819D01*
X4490588Y-8854819D02*
X3919160Y-8854819D01*
X4204874Y-8854819D02*
X4204874Y-7854819D01*
X4204874Y-7854819D02*
X4109636Y-7997676D01*
X4109636Y-7997676D02*
X4014398Y-8092914D01*
X4014398Y-8092914D02*
X3919160Y-8140533D01*
X4490588Y-94354819D02*
X3919160Y-94354819D01*
X4204874Y-94354819D02*
X4204874Y-93354819D01*
X4204874Y-93354819D02*
X4109636Y-93497676D01*
X4109636Y-93497676D02*
X4014398Y-93592914D01*
X4014398Y-93592914D02*
X3919160Y-93640533D01*
X14300112Y-11931009D02*
X14442969Y-11978628D01*
X14442969Y-11978628D02*
X14490588Y-12026247D01*
X14490588Y-12026247D02*
X14538207Y-12121485D01*
X14538207Y-12121485D02*
X14538207Y-12264342D01*
X14538207Y-12264342D02*
X14490588Y-12359580D01*
X14490588Y-12359580D02*
X14442969Y-12407200D01*
X14442969Y-12407200D02*
X14347731Y-12454819D01*
X14347731Y-12454819D02*
X13966779Y-12454819D01*
X13966779Y-12454819D02*
X13966779Y-11454819D01*
X13966779Y-11454819D02*
X14300112Y-11454819D01*
X14300112Y-11454819D02*
X14395350Y-11502438D01*
X14395350Y-11502438D02*
X14442969Y-11550057D01*
X14442969Y-11550057D02*
X14490588Y-11645295D01*
X14490588Y-11645295D02*
X14490588Y-11740533D01*
X14490588Y-11740533D02*
X14442969Y-11835771D01*
X14442969Y-11835771D02*
X14395350Y-11883390D01*
X14395350Y-11883390D02*
X14300112Y-11931009D01*
X14300112Y-11931009D02*
X13966779Y-11931009D01*
X14966779Y-11454819D02*
X14966779Y-12264342D01*
X14966779Y-12264342D02*
X15014398Y-12359580D01*
X15014398Y-12359580D02*
X15062017Y-12407200D01*
X15062017Y-12407200D02*
X15157255Y-12454819D01*
X15157255Y-12454819D02*
X15347731Y-12454819D01*
X15347731Y-12454819D02*
X15442969Y-12407200D01*
X15442969Y-12407200D02*
X15490588Y-12359580D01*
X15490588Y-12359580D02*
X15538207Y-12264342D01*
X15538207Y-12264342D02*
X15538207Y-11454819D01*
X15966779Y-12407200D02*
X16109636Y-12454819D01*
X16109636Y-12454819D02*
X16347731Y-12454819D01*
X16347731Y-12454819D02*
X16442969Y-12407200D01*
X16442969Y-12407200D02*
X16490588Y-12359580D01*
X16490588Y-12359580D02*
X16538207Y-12264342D01*
X16538207Y-12264342D02*
X16538207Y-12169104D01*
X16538207Y-12169104D02*
X16490588Y-12073866D01*
X16490588Y-12073866D02*
X16442969Y-12026247D01*
X16442969Y-12026247D02*
X16347731Y-11978628D01*
X16347731Y-11978628D02*
X16157255Y-11931009D01*
X16157255Y-11931009D02*
X16062017Y-11883390D01*
X16062017Y-11883390D02*
X16014398Y-11835771D01*
X16014398Y-11835771D02*
X15966779Y-11740533D01*
X15966779Y-11740533D02*
X15966779Y-11645295D01*
X15966779Y-11645295D02*
X16014398Y-11550057D01*
X16014398Y-11550057D02*
X16062017Y-11502438D01*
X16062017Y-11502438D02*
X16157255Y-11454819D01*
X16157255Y-11454819D02*
X16395350Y-11454819D01*
X16395350Y-11454819D02*
X16538207Y-11502438D01*
X18823922Y-11931009D02*
X18490589Y-11931009D01*
X18490589Y-12454819D02*
X18490589Y-11454819D01*
X18490589Y-11454819D02*
X18966779Y-11454819D01*
X19300113Y-12169104D02*
X19776303Y-12169104D01*
X19204875Y-12454819D02*
X19538208Y-11454819D01*
X19538208Y-11454819D02*
X19871541Y-12454819D01*
X20776303Y-12359580D02*
X20728684Y-12407200D01*
X20728684Y-12407200D02*
X20585827Y-12454819D01*
X20585827Y-12454819D02*
X20490589Y-12454819D01*
X20490589Y-12454819D02*
X20347732Y-12407200D01*
X20347732Y-12407200D02*
X20252494Y-12311961D01*
X20252494Y-12311961D02*
X20204875Y-12216723D01*
X20204875Y-12216723D02*
X20157256Y-12026247D01*
X20157256Y-12026247D02*
X20157256Y-11883390D01*
X20157256Y-11883390D02*
X20204875Y-11692914D01*
X20204875Y-11692914D02*
X20252494Y-11597676D01*
X20252494Y-11597676D02*
X20347732Y-11502438D01*
X20347732Y-11502438D02*
X20490589Y-11454819D01*
X20490589Y-11454819D02*
X20585827Y-11454819D01*
X20585827Y-11454819D02*
X20728684Y-11502438D01*
X20728684Y-11502438D02*
X20776303Y-11550057D01*
X21204875Y-11931009D02*
X21538208Y-11931009D01*
X21681065Y-12454819D02*
X21204875Y-12454819D01*
X21204875Y-12454819D02*
X21204875Y-11454819D01*
X21204875Y-11454819D02*
X21681065Y-11454819D01*
X22823923Y-12169104D02*
X23300113Y-12169104D01*
X22728685Y-12454819D02*
X23062018Y-11454819D01*
X23062018Y-11454819D02*
X23395351Y-12454819D01*
X25538209Y-12835771D02*
X25490590Y-12788152D01*
X25490590Y-12788152D02*
X25395352Y-12645295D01*
X25395352Y-12645295D02*
X25347733Y-12550057D01*
X25347733Y-12550057D02*
X25300114Y-12407200D01*
X25300114Y-12407200D02*
X25252495Y-12169104D01*
X25252495Y-12169104D02*
X25252495Y-11978628D01*
X25252495Y-11978628D02*
X25300114Y-11740533D01*
X25300114Y-11740533D02*
X25347733Y-11597676D01*
X25347733Y-11597676D02*
X25395352Y-11502438D01*
X25395352Y-11502438D02*
X25490590Y-11359580D01*
X25490590Y-11359580D02*
X25538209Y-11311961D01*
X25919162Y-11788152D02*
X25919162Y-12788152D01*
X25919162Y-11835771D02*
X26014400Y-11788152D01*
X26014400Y-11788152D02*
X26204876Y-11788152D01*
X26204876Y-11788152D02*
X26300114Y-11835771D01*
X26300114Y-11835771D02*
X26347733Y-11883390D01*
X26347733Y-11883390D02*
X26395352Y-11978628D01*
X26395352Y-11978628D02*
X26395352Y-12264342D01*
X26395352Y-12264342D02*
X26347733Y-12359580D01*
X26347733Y-12359580D02*
X26300114Y-12407200D01*
X26300114Y-12407200D02*
X26204876Y-12454819D01*
X26204876Y-12454819D02*
X26014400Y-12454819D01*
X26014400Y-12454819D02*
X25919162Y-12407200D01*
X26823924Y-12454819D02*
X26823924Y-11788152D01*
X26823924Y-11454819D02*
X26776305Y-11502438D01*
X26776305Y-11502438D02*
X26823924Y-11550057D01*
X26823924Y-11550057D02*
X26871543Y-11502438D01*
X26871543Y-11502438D02*
X26823924Y-11454819D01*
X26823924Y-11454819D02*
X26823924Y-11550057D01*
X27300114Y-11788152D02*
X27300114Y-12454819D01*
X27300114Y-11883390D02*
X27347733Y-11835771D01*
X27347733Y-11835771D02*
X27442971Y-11788152D01*
X27442971Y-11788152D02*
X27585828Y-11788152D01*
X27585828Y-11788152D02*
X27681066Y-11835771D01*
X27681066Y-11835771D02*
X27728685Y-11931009D01*
X27728685Y-11931009D02*
X27728685Y-12454819D01*
X29490590Y-12454819D02*
X28919162Y-12454819D01*
X29204876Y-12454819D02*
X29204876Y-11454819D01*
X29204876Y-11454819D02*
X29109638Y-11597676D01*
X29109638Y-11597676D02*
X29014400Y-11692914D01*
X29014400Y-11692914D02*
X28919162Y-11740533D01*
X30823924Y-12454819D02*
X30728686Y-12407200D01*
X30728686Y-12407200D02*
X30681067Y-12311961D01*
X30681067Y-12311961D02*
X30681067Y-11454819D01*
X31585829Y-12407200D02*
X31490591Y-12454819D01*
X31490591Y-12454819D02*
X31300115Y-12454819D01*
X31300115Y-12454819D02*
X31204877Y-12407200D01*
X31204877Y-12407200D02*
X31157258Y-12311961D01*
X31157258Y-12311961D02*
X31157258Y-11931009D01*
X31157258Y-11931009D02*
X31204877Y-11835771D01*
X31204877Y-11835771D02*
X31300115Y-11788152D01*
X31300115Y-11788152D02*
X31490591Y-11788152D01*
X31490591Y-11788152D02*
X31585829Y-11835771D01*
X31585829Y-11835771D02*
X31633448Y-11931009D01*
X31633448Y-11931009D02*
X31633448Y-12026247D01*
X31633448Y-12026247D02*
X31157258Y-12121485D01*
X31919163Y-11788152D02*
X32300115Y-11788152D01*
X32062020Y-12454819D02*
X32062020Y-11597676D01*
X32062020Y-11597676D02*
X32109639Y-11502438D01*
X32109639Y-11502438D02*
X32204877Y-11454819D01*
X32204877Y-11454819D02*
X32300115Y-11454819D01*
X32490592Y-11788152D02*
X32871544Y-11788152D01*
X32633449Y-11454819D02*
X32633449Y-12311961D01*
X32633449Y-12311961D02*
X32681068Y-12407200D01*
X32681068Y-12407200D02*
X32776306Y-12454819D01*
X32776306Y-12454819D02*
X32871544Y-12454819D01*
X33109640Y-12835771D02*
X33157259Y-12788152D01*
X33157259Y-12788152D02*
X33252497Y-12645295D01*
X33252497Y-12645295D02*
X33300116Y-12550057D01*
X33300116Y-12550057D02*
X33347735Y-12407200D01*
X33347735Y-12407200D02*
X33395354Y-12169104D01*
X33395354Y-12169104D02*
X33395354Y-11978628D01*
X33395354Y-11978628D02*
X33347735Y-11740533D01*
X33347735Y-11740533D02*
X33300116Y-11597676D01*
X33300116Y-11597676D02*
X33252497Y-11502438D01*
X33252497Y-11502438D02*
X33157259Y-11359580D01*
X33157259Y-11359580D02*
X33109640Y-11311961D01*
X24741541Y-20954819D02*
X25408207Y-20954819D01*
X25408207Y-20954819D02*
X24979636Y-21954819D01*
X26265350Y-20954819D02*
X25789160Y-20954819D01*
X25789160Y-20954819D02*
X25741541Y-21431009D01*
X25741541Y-21431009D02*
X25789160Y-21383390D01*
X25789160Y-21383390D02*
X25884398Y-21335771D01*
X25884398Y-21335771D02*
X26122493Y-21335771D01*
X26122493Y-21335771D02*
X26217731Y-21383390D01*
X26217731Y-21383390D02*
X26265350Y-21431009D01*
X26265350Y-21431009D02*
X26312969Y-21526247D01*
X26312969Y-21526247D02*
X26312969Y-21764342D01*
X26312969Y-21764342D02*
X26265350Y-21859580D01*
X26265350Y-21859580D02*
X26217731Y-21907200D01*
X26217731Y-21907200D02*
X26122493Y-21954819D01*
X26122493Y-21954819D02*
X25884398Y-21954819D01*
X25884398Y-21954819D02*
X25789160Y-21907200D01*
X25789160Y-21907200D02*
X25741541Y-21859580D01*
X26932017Y-20954819D02*
X27027255Y-20954819D01*
X27027255Y-20954819D02*
X27122493Y-21002438D01*
X27122493Y-21002438D02*
X27170112Y-21050057D01*
X27170112Y-21050057D02*
X27217731Y-21145295D01*
X27217731Y-21145295D02*
X27265350Y-21335771D01*
X27265350Y-21335771D02*
X27265350Y-21573866D01*
X27265350Y-21573866D02*
X27217731Y-21764342D01*
X27217731Y-21764342D02*
X27170112Y-21859580D01*
X27170112Y-21859580D02*
X27122493Y-21907200D01*
X27122493Y-21907200D02*
X27027255Y-21954819D01*
X27027255Y-21954819D02*
X26932017Y-21954819D01*
X26932017Y-21954819D02*
X26836779Y-21907200D01*
X26836779Y-21907200D02*
X26789160Y-21859580D01*
X26789160Y-21859580D02*
X26741541Y-21764342D01*
X26741541Y-21764342D02*
X26693922Y-21573866D01*
X26693922Y-21573866D02*
X26693922Y-21335771D01*
X26693922Y-21335771D02*
X26741541Y-21145295D01*
X26741541Y-21145295D02*
X26789160Y-21050057D01*
X26789160Y-21050057D02*
X26836779Y-21002438D01*
X26836779Y-21002438D02*
X26932017Y-20954819D01*
X27693922Y-21954819D02*
X27693922Y-21288152D01*
X27693922Y-21383390D02*
X27741541Y-21335771D01*
X27741541Y-21335771D02*
X27836779Y-21288152D01*
X27836779Y-21288152D02*
X27979636Y-21288152D01*
X27979636Y-21288152D02*
X28074874Y-21335771D01*
X28074874Y-21335771D02*
X28122493Y-21431009D01*
X28122493Y-21431009D02*
X28122493Y-21954819D01*
X28122493Y-21431009D02*
X28170112Y-21335771D01*
X28170112Y-21335771D02*
X28265350Y-21288152D01*
X28265350Y-21288152D02*
X28408207Y-21288152D01*
X28408207Y-21288152D02*
X28503446Y-21335771D01*
X28503446Y-21335771D02*
X28551065Y-21431009D01*
X28551065Y-21431009D02*
X28551065Y-21954819D01*
X28979636Y-21669104D02*
X29455826Y-21669104D01*
X28884398Y-21954819D02*
X29217731Y-20954819D01*
X29217731Y-20954819D02*
X29551064Y-21954819D01*
X41300112Y-83931009D02*
X41442969Y-83978628D01*
X41442969Y-83978628D02*
X41490588Y-84026247D01*
X41490588Y-84026247D02*
X41538207Y-84121485D01*
X41538207Y-84121485D02*
X41538207Y-84264342D01*
X41538207Y-84264342D02*
X41490588Y-84359580D01*
X41490588Y-84359580D02*
X41442969Y-84407200D01*
X41442969Y-84407200D02*
X41347731Y-84454819D01*
X41347731Y-84454819D02*
X40966779Y-84454819D01*
X40966779Y-84454819D02*
X40966779Y-83454819D01*
X40966779Y-83454819D02*
X41300112Y-83454819D01*
X41300112Y-83454819D02*
X41395350Y-83502438D01*
X41395350Y-83502438D02*
X41442969Y-83550057D01*
X41442969Y-83550057D02*
X41490588Y-83645295D01*
X41490588Y-83645295D02*
X41490588Y-83740533D01*
X41490588Y-83740533D02*
X41442969Y-83835771D01*
X41442969Y-83835771D02*
X41395350Y-83883390D01*
X41395350Y-83883390D02*
X41300112Y-83931009D01*
X41300112Y-83931009D02*
X40966779Y-83931009D01*
X41966779Y-83454819D02*
X41966779Y-84264342D01*
X41966779Y-84264342D02*
X42014398Y-84359580D01*
X42014398Y-84359580D02*
X42062017Y-84407200D01*
X42062017Y-84407200D02*
X42157255Y-84454819D01*
X42157255Y-84454819D02*
X42347731Y-84454819D01*
X42347731Y-84454819D02*
X42442969Y-84407200D01*
X42442969Y-84407200D02*
X42490588Y-84359580D01*
X42490588Y-84359580D02*
X42538207Y-84264342D01*
X42538207Y-84264342D02*
X42538207Y-83454819D01*
X42966779Y-84407200D02*
X43109636Y-84454819D01*
X43109636Y-84454819D02*
X43347731Y-84454819D01*
X43347731Y-84454819D02*
X43442969Y-84407200D01*
X43442969Y-84407200D02*
X43490588Y-84359580D01*
X43490588Y-84359580D02*
X43538207Y-84264342D01*
X43538207Y-84264342D02*
X43538207Y-84169104D01*
X43538207Y-84169104D02*
X43490588Y-84073866D01*
X43490588Y-84073866D02*
X43442969Y-84026247D01*
X43442969Y-84026247D02*
X43347731Y-83978628D01*
X43347731Y-83978628D02*
X43157255Y-83931009D01*
X43157255Y-83931009D02*
X43062017Y-83883390D01*
X43062017Y-83883390D02*
X43014398Y-83835771D01*
X43014398Y-83835771D02*
X42966779Y-83740533D01*
X42966779Y-83740533D02*
X42966779Y-83645295D01*
X42966779Y-83645295D02*
X43014398Y-83550057D01*
X43014398Y-83550057D02*
X43062017Y-83502438D01*
X43062017Y-83502438D02*
X43157255Y-83454819D01*
X43157255Y-83454819D02*
X43395350Y-83454819D01*
X43395350Y-83454819D02*
X43538207Y-83502438D01*
X45823922Y-83931009D02*
X45490589Y-83931009D01*
X45490589Y-84454819D02*
X45490589Y-83454819D01*
X45490589Y-83454819D02*
X45966779Y-83454819D01*
X46300113Y-84169104D02*
X46776303Y-84169104D01*
X46204875Y-84454819D02*
X46538208Y-83454819D01*
X46538208Y-83454819D02*
X46871541Y-84454819D01*
X47776303Y-84359580D02*
X47728684Y-84407200D01*
X47728684Y-84407200D02*
X47585827Y-84454819D01*
X47585827Y-84454819D02*
X47490589Y-84454819D01*
X47490589Y-84454819D02*
X47347732Y-84407200D01*
X47347732Y-84407200D02*
X47252494Y-84311961D01*
X47252494Y-84311961D02*
X47204875Y-84216723D01*
X47204875Y-84216723D02*
X47157256Y-84026247D01*
X47157256Y-84026247D02*
X47157256Y-83883390D01*
X47157256Y-83883390D02*
X47204875Y-83692914D01*
X47204875Y-83692914D02*
X47252494Y-83597676D01*
X47252494Y-83597676D02*
X47347732Y-83502438D01*
X47347732Y-83502438D02*
X47490589Y-83454819D01*
X47490589Y-83454819D02*
X47585827Y-83454819D01*
X47585827Y-83454819D02*
X47728684Y-83502438D01*
X47728684Y-83502438D02*
X47776303Y-83550057D01*
X48204875Y-83931009D02*
X48538208Y-83931009D01*
X48681065Y-84454819D02*
X48204875Y-84454819D01*
X48204875Y-84454819D02*
X48204875Y-83454819D01*
X48204875Y-83454819D02*
X48681065Y-83454819D01*
X50204875Y-83931009D02*
X50347732Y-83978628D01*
X50347732Y-83978628D02*
X50395351Y-84026247D01*
X50395351Y-84026247D02*
X50442970Y-84121485D01*
X50442970Y-84121485D02*
X50442970Y-84264342D01*
X50442970Y-84264342D02*
X50395351Y-84359580D01*
X50395351Y-84359580D02*
X50347732Y-84407200D01*
X50347732Y-84407200D02*
X50252494Y-84454819D01*
X50252494Y-84454819D02*
X49871542Y-84454819D01*
X49871542Y-84454819D02*
X49871542Y-83454819D01*
X49871542Y-83454819D02*
X50204875Y-83454819D01*
X50204875Y-83454819D02*
X50300113Y-83502438D01*
X50300113Y-83502438D02*
X50347732Y-83550057D01*
X50347732Y-83550057D02*
X50395351Y-83645295D01*
X50395351Y-83645295D02*
X50395351Y-83740533D01*
X50395351Y-83740533D02*
X50347732Y-83835771D01*
X50347732Y-83835771D02*
X50300113Y-83883390D01*
X50300113Y-83883390D02*
X50204875Y-83931009D01*
X50204875Y-83931009D02*
X49871542Y-83931009D01*
X52681066Y-84835771D02*
X52633447Y-84788152D01*
X52633447Y-84788152D02*
X52538209Y-84645295D01*
X52538209Y-84645295D02*
X52490590Y-84550057D01*
X52490590Y-84550057D02*
X52442971Y-84407200D01*
X52442971Y-84407200D02*
X52395352Y-84169104D01*
X52395352Y-84169104D02*
X52395352Y-83978628D01*
X52395352Y-83978628D02*
X52442971Y-83740533D01*
X52442971Y-83740533D02*
X52490590Y-83597676D01*
X52490590Y-83597676D02*
X52538209Y-83502438D01*
X52538209Y-83502438D02*
X52633447Y-83359580D01*
X52633447Y-83359580D02*
X52681066Y-83311961D01*
X53062019Y-83788152D02*
X53062019Y-84788152D01*
X53062019Y-83835771D02*
X53157257Y-83788152D01*
X53157257Y-83788152D02*
X53347733Y-83788152D01*
X53347733Y-83788152D02*
X53442971Y-83835771D01*
X53442971Y-83835771D02*
X53490590Y-83883390D01*
X53490590Y-83883390D02*
X53538209Y-83978628D01*
X53538209Y-83978628D02*
X53538209Y-84264342D01*
X53538209Y-84264342D02*
X53490590Y-84359580D01*
X53490590Y-84359580D02*
X53442971Y-84407200D01*
X53442971Y-84407200D02*
X53347733Y-84454819D01*
X53347733Y-84454819D02*
X53157257Y-84454819D01*
X53157257Y-84454819D02*
X53062019Y-84407200D01*
X53966781Y-84454819D02*
X53966781Y-83788152D01*
X53966781Y-83454819D02*
X53919162Y-83502438D01*
X53919162Y-83502438D02*
X53966781Y-83550057D01*
X53966781Y-83550057D02*
X54014400Y-83502438D01*
X54014400Y-83502438D02*
X53966781Y-83454819D01*
X53966781Y-83454819D02*
X53966781Y-83550057D01*
X54442971Y-83788152D02*
X54442971Y-84454819D01*
X54442971Y-83883390D02*
X54490590Y-83835771D01*
X54490590Y-83835771D02*
X54585828Y-83788152D01*
X54585828Y-83788152D02*
X54728685Y-83788152D01*
X54728685Y-83788152D02*
X54823923Y-83835771D01*
X54823923Y-83835771D02*
X54871542Y-83931009D01*
X54871542Y-83931009D02*
X54871542Y-84454819D01*
X56633447Y-84454819D02*
X56062019Y-84454819D01*
X56347733Y-84454819D02*
X56347733Y-83454819D01*
X56347733Y-83454819D02*
X56252495Y-83597676D01*
X56252495Y-83597676D02*
X56157257Y-83692914D01*
X56157257Y-83692914D02*
X56062019Y-83740533D01*
X57966781Y-84454819D02*
X57871543Y-84407200D01*
X57871543Y-84407200D02*
X57823924Y-84311961D01*
X57823924Y-84311961D02*
X57823924Y-83454819D01*
X58728686Y-84407200D02*
X58633448Y-84454819D01*
X58633448Y-84454819D02*
X58442972Y-84454819D01*
X58442972Y-84454819D02*
X58347734Y-84407200D01*
X58347734Y-84407200D02*
X58300115Y-84311961D01*
X58300115Y-84311961D02*
X58300115Y-83931009D01*
X58300115Y-83931009D02*
X58347734Y-83835771D01*
X58347734Y-83835771D02*
X58442972Y-83788152D01*
X58442972Y-83788152D02*
X58633448Y-83788152D01*
X58633448Y-83788152D02*
X58728686Y-83835771D01*
X58728686Y-83835771D02*
X58776305Y-83931009D01*
X58776305Y-83931009D02*
X58776305Y-84026247D01*
X58776305Y-84026247D02*
X58300115Y-84121485D01*
X59062020Y-83788152D02*
X59442972Y-83788152D01*
X59204877Y-84454819D02*
X59204877Y-83597676D01*
X59204877Y-83597676D02*
X59252496Y-83502438D01*
X59252496Y-83502438D02*
X59347734Y-83454819D01*
X59347734Y-83454819D02*
X59442972Y-83454819D01*
X59633449Y-83788152D02*
X60014401Y-83788152D01*
X59776306Y-83454819D02*
X59776306Y-84311961D01*
X59776306Y-84311961D02*
X59823925Y-84407200D01*
X59823925Y-84407200D02*
X59919163Y-84454819D01*
X59919163Y-84454819D02*
X60014401Y-84454819D01*
X60252497Y-84835771D02*
X60300116Y-84788152D01*
X60300116Y-84788152D02*
X60395354Y-84645295D01*
X60395354Y-84645295D02*
X60442973Y-84550057D01*
X60442973Y-84550057D02*
X60490592Y-84407200D01*
X60490592Y-84407200D02*
X60538211Y-84169104D01*
X60538211Y-84169104D02*
X60538211Y-83978628D01*
X60538211Y-83978628D02*
X60490592Y-83740533D01*
X60490592Y-83740533D02*
X60442973Y-83597676D01*
X60442973Y-83597676D02*
X60395354Y-83502438D01*
X60395354Y-83502438D02*
X60300116Y-83359580D01*
X60300116Y-83359580D02*
X60252497Y-83311961D01*
X49336779Y-24454819D02*
X49336779Y-23454819D01*
X49336779Y-23454819D02*
X49717731Y-23454819D01*
X49717731Y-23454819D02*
X49812969Y-23502438D01*
X49812969Y-23502438D02*
X49860588Y-23550057D01*
X49860588Y-23550057D02*
X49908207Y-23645295D01*
X49908207Y-23645295D02*
X49908207Y-23788152D01*
X49908207Y-23788152D02*
X49860588Y-23883390D01*
X49860588Y-23883390D02*
X49812969Y-23931009D01*
X49812969Y-23931009D02*
X49717731Y-23978628D01*
X49717731Y-23978628D02*
X49336779Y-23978628D01*
X50241541Y-23454819D02*
X50479636Y-24454819D01*
X50479636Y-24454819D02*
X50670112Y-23740533D01*
X50670112Y-23740533D02*
X50860588Y-24454819D01*
X50860588Y-24454819D02*
X51098684Y-23454819D01*
X52051064Y-24454819D02*
X51717731Y-23978628D01*
X51479636Y-24454819D02*
X51479636Y-23454819D01*
X51479636Y-23454819D02*
X51860588Y-23454819D01*
X51860588Y-23454819D02*
X51955826Y-23502438D01*
X51955826Y-23502438D02*
X52003445Y-23550057D01*
X52003445Y-23550057D02*
X52051064Y-23645295D01*
X52051064Y-23645295D02*
X52051064Y-23788152D01*
X52051064Y-23788152D02*
X52003445Y-23883390D01*
X52003445Y-23883390D02*
X51955826Y-23931009D01*
X51955826Y-23931009D02*
X51860588Y-23978628D01*
X51860588Y-23978628D02*
X51479636Y-23978628D01*
D11*
X34521615Y-76680928D02*
X34521615Y-75180928D01*
X34521615Y-75180928D02*
X35378758Y-76680928D01*
X35378758Y-76680928D02*
X35378758Y-75180928D01*
X36093044Y-76680928D02*
X36093044Y-75180928D01*
X37307330Y-75895214D02*
X37521616Y-75966642D01*
X37521616Y-75966642D02*
X37593045Y-76038071D01*
X37593045Y-76038071D02*
X37664473Y-76180928D01*
X37664473Y-76180928D02*
X37664473Y-76395214D01*
X37664473Y-76395214D02*
X37593045Y-76538071D01*
X37593045Y-76538071D02*
X37521616Y-76609500D01*
X37521616Y-76609500D02*
X37378759Y-76680928D01*
X37378759Y-76680928D02*
X36807330Y-76680928D01*
X36807330Y-76680928D02*
X36807330Y-75180928D01*
X36807330Y-75180928D02*
X37307330Y-75180928D01*
X37307330Y-75180928D02*
X37450188Y-75252357D01*
X37450188Y-75252357D02*
X37521616Y-75323785D01*
X37521616Y-75323785D02*
X37593045Y-75466642D01*
X37593045Y-75466642D02*
X37593045Y-75609500D01*
X37593045Y-75609500D02*
X37521616Y-75752357D01*
X37521616Y-75752357D02*
X37450188Y-75823785D01*
X37450188Y-75823785D02*
X37307330Y-75895214D01*
X37307330Y-75895214D02*
X36807330Y-75895214D01*
X38807330Y-75895214D02*
X39021616Y-75966642D01*
X39021616Y-75966642D02*
X39093045Y-76038071D01*
X39093045Y-76038071D02*
X39164473Y-76180928D01*
X39164473Y-76180928D02*
X39164473Y-76395214D01*
X39164473Y-76395214D02*
X39093045Y-76538071D01*
X39093045Y-76538071D02*
X39021616Y-76609500D01*
X39021616Y-76609500D02*
X38878759Y-76680928D01*
X38878759Y-76680928D02*
X38307330Y-76680928D01*
X38307330Y-76680928D02*
X38307330Y-75180928D01*
X38307330Y-75180928D02*
X38807330Y-75180928D01*
X38807330Y-75180928D02*
X38950188Y-75252357D01*
X38950188Y-75252357D02*
X39021616Y-75323785D01*
X39021616Y-75323785D02*
X39093045Y-75466642D01*
X39093045Y-75466642D02*
X39093045Y-75609500D01*
X39093045Y-75609500D02*
X39021616Y-75752357D01*
X39021616Y-75752357D02*
X38950188Y-75823785D01*
X38950188Y-75823785D02*
X38807330Y-75895214D01*
X38807330Y-75895214D02*
X38307330Y-75895214D01*
X40521616Y-76680928D02*
X39807330Y-76680928D01*
X39807330Y-76680928D02*
X39807330Y-75180928D01*
X41021616Y-75895214D02*
X41521616Y-75895214D01*
X41735902Y-76680928D02*
X41021616Y-76680928D01*
X41021616Y-76680928D02*
X41021616Y-75180928D01*
X41021616Y-75180928D02*
X41735902Y-75180928D01*
X45164473Y-75895214D02*
X45378759Y-75966642D01*
X45378759Y-75966642D02*
X45450188Y-76038071D01*
X45450188Y-76038071D02*
X45521616Y-76180928D01*
X45521616Y-76180928D02*
X45521616Y-76395214D01*
X45521616Y-76395214D02*
X45450188Y-76538071D01*
X45450188Y-76538071D02*
X45378759Y-76609500D01*
X45378759Y-76609500D02*
X45235902Y-76680928D01*
X45235902Y-76680928D02*
X44664473Y-76680928D01*
X44664473Y-76680928D02*
X44664473Y-75180928D01*
X44664473Y-75180928D02*
X45164473Y-75180928D01*
X45164473Y-75180928D02*
X45307331Y-75252357D01*
X45307331Y-75252357D02*
X45378759Y-75323785D01*
X45378759Y-75323785D02*
X45450188Y-75466642D01*
X45450188Y-75466642D02*
X45450188Y-75609500D01*
X45450188Y-75609500D02*
X45378759Y-75752357D01*
X45378759Y-75752357D02*
X45307331Y-75823785D01*
X45307331Y-75823785D02*
X45164473Y-75895214D01*
X45164473Y-75895214D02*
X44664473Y-75895214D01*
X46164473Y-75180928D02*
X46164473Y-76395214D01*
X46164473Y-76395214D02*
X46235902Y-76538071D01*
X46235902Y-76538071D02*
X46307331Y-76609500D01*
X46307331Y-76609500D02*
X46450188Y-76680928D01*
X46450188Y-76680928D02*
X46735902Y-76680928D01*
X46735902Y-76680928D02*
X46878759Y-76609500D01*
X46878759Y-76609500D02*
X46950188Y-76538071D01*
X46950188Y-76538071D02*
X47021616Y-76395214D01*
X47021616Y-76395214D02*
X47021616Y-75180928D01*
X47664474Y-76609500D02*
X47878760Y-76680928D01*
X47878760Y-76680928D02*
X48235902Y-76680928D01*
X48235902Y-76680928D02*
X48378760Y-76609500D01*
X48378760Y-76609500D02*
X48450188Y-76538071D01*
X48450188Y-76538071D02*
X48521617Y-76395214D01*
X48521617Y-76395214D02*
X48521617Y-76252357D01*
X48521617Y-76252357D02*
X48450188Y-76109500D01*
X48450188Y-76109500D02*
X48378760Y-76038071D01*
X48378760Y-76038071D02*
X48235902Y-75966642D01*
X48235902Y-75966642D02*
X47950188Y-75895214D01*
X47950188Y-75895214D02*
X47807331Y-75823785D01*
X47807331Y-75823785D02*
X47735902Y-75752357D01*
X47735902Y-75752357D02*
X47664474Y-75609500D01*
X47664474Y-75609500D02*
X47664474Y-75466642D01*
X47664474Y-75466642D02*
X47735902Y-75323785D01*
X47735902Y-75323785D02*
X47807331Y-75252357D01*
X47807331Y-75252357D02*
X47950188Y-75180928D01*
X47950188Y-75180928D02*
X48307331Y-75180928D01*
X48307331Y-75180928D02*
X48521617Y-75252357D01*
X50307330Y-76680928D02*
X50307330Y-75180928D01*
X50307330Y-75895214D02*
X51164473Y-75895214D01*
X51164473Y-76680928D02*
X51164473Y-75180928D01*
X51878759Y-75180928D02*
X51878759Y-76395214D01*
X51878759Y-76395214D02*
X51950188Y-76538071D01*
X51950188Y-76538071D02*
X52021617Y-76609500D01*
X52021617Y-76609500D02*
X52164474Y-76680928D01*
X52164474Y-76680928D02*
X52450188Y-76680928D01*
X52450188Y-76680928D02*
X52593045Y-76609500D01*
X52593045Y-76609500D02*
X52664474Y-76538071D01*
X52664474Y-76538071D02*
X52735902Y-76395214D01*
X52735902Y-76395214D02*
X52735902Y-75180928D01*
X53950188Y-75895214D02*
X54164474Y-75966642D01*
X54164474Y-75966642D02*
X54235903Y-76038071D01*
X54235903Y-76038071D02*
X54307331Y-76180928D01*
X54307331Y-76180928D02*
X54307331Y-76395214D01*
X54307331Y-76395214D02*
X54235903Y-76538071D01*
X54235903Y-76538071D02*
X54164474Y-76609500D01*
X54164474Y-76609500D02*
X54021617Y-76680928D01*
X54021617Y-76680928D02*
X53450188Y-76680928D01*
X53450188Y-76680928D02*
X53450188Y-75180928D01*
X53450188Y-75180928D02*
X53950188Y-75180928D01*
X53950188Y-75180928D02*
X54093046Y-75252357D01*
X54093046Y-75252357D02*
X54164474Y-75323785D01*
X54164474Y-75323785D02*
X54235903Y-75466642D01*
X54235903Y-75466642D02*
X54235903Y-75609500D01*
X54235903Y-75609500D02*
X54164474Y-75752357D01*
X54164474Y-75752357D02*
X54093046Y-75823785D01*
X54093046Y-75823785D02*
X53950188Y-75895214D01*
X53950188Y-75895214D02*
X53450188Y-75895214D01*
D10*
X95238095Y-46304819D02*
X95238095Y-45304819D01*
X95238095Y-45781009D02*
X95809523Y-45781009D01*
X95809523Y-46304819D02*
X95809523Y-45304819D01*
X96238095Y-45400057D02*
X96285714Y-45352438D01*
X96285714Y-45352438D02*
X96380952Y-45304819D01*
X96380952Y-45304819D02*
X96619047Y-45304819D01*
X96619047Y-45304819D02*
X96714285Y-45352438D01*
X96714285Y-45352438D02*
X96761904Y-45400057D01*
X96761904Y-45400057D02*
X96809523Y-45495295D01*
X96809523Y-45495295D02*
X96809523Y-45590533D01*
X96809523Y-45590533D02*
X96761904Y-45733390D01*
X96761904Y-45733390D02*
X96190476Y-46304819D01*
X96190476Y-46304819D02*
X96809523Y-46304819D01*
X3238095Y-46304819D02*
X3238095Y-45304819D01*
X3238095Y-45781009D02*
X3809523Y-45781009D01*
X3809523Y-46304819D02*
X3809523Y-45304819D01*
X4809523Y-46304819D02*
X4238095Y-46304819D01*
X4523809Y-46304819D02*
X4523809Y-45304819D01*
X4523809Y-45304819D02*
X4428571Y-45447676D01*
X4428571Y-45447676D02*
X4333333Y-45542914D01*
X4333333Y-45542914D02*
X4238095Y-45590533D01*
%TO.C,R7*%
D12*
X55000000Y-41370000D02*
X55000000Y-43980000D01*
X56370000Y-40000000D02*
G75*
G02*
X53630000Y-40000000I-1370000J0D01*
G01*
X53630000Y-40000000D02*
G75*
G02*
X56370000Y-40000000I1370000J0D01*
G01*
%TO.C,J1*%
X-1120000Y-22590000D02*
X7240000Y-22590000D01*
X-1120000Y-34910000D02*
X-1120000Y-22590000D01*
X7240000Y-34910000D02*
X-1120000Y-34910000D01*
X11340000Y-34910000D02*
X15600000Y-34910000D01*
X15600000Y-22590000D02*
X11340000Y-22590000D01*
X15600000Y-34910000D02*
X15600000Y-22590000D01*
X15820000Y-30000000D02*
X16320000Y-30500000D01*
X16320000Y-29500000D02*
X15820000Y-30000000D01*
X16320000Y-30500000D02*
X16320000Y-29500000D01*
%TO.C,R9*%
X65000000Y-41370000D02*
X65000000Y-43980000D01*
X66370000Y-40000000D02*
G75*
G02*
X63630000Y-40000000I-1370000J0D01*
G01*
X63630000Y-40000000D02*
G75*
G02*
X66370000Y-40000000I1370000J0D01*
G01*
%TO.C,R4*%
X76000000Y-15370000D02*
X76000000Y-17980000D01*
X77370000Y-14000000D02*
G75*
G02*
X74630000Y-14000000I-1370000J0D01*
G01*
X74630000Y-14000000D02*
G75*
G02*
X77370000Y-14000000I1370000J0D01*
G01*
%TO.C,R11*%
X75000000Y-41370000D02*
X75000000Y-43980000D01*
X76370000Y-40000000D02*
G75*
G02*
X73630000Y-40000000I-1370000J0D01*
G01*
X73630000Y-40000000D02*
G75*
G02*
X76370000Y-40000000I1370000J0D01*
G01*
%TO.C,C1*%
X55630000Y-12630000D02*
X58370000Y-12630000D01*
X55630000Y-17870000D02*
X55630000Y-12630000D01*
X58370000Y-12630000D02*
X58370000Y-17870000D01*
X58370000Y-17870000D02*
X55630000Y-17870000D01*
%TO.C,TP6*%
X71500000Y-60000000D02*
G75*
G02*
X68500000Y-60000000I-1500000J0D01*
G01*
X68500000Y-60000000D02*
G75*
G02*
X71500000Y-60000000I1500000J0D01*
G01*
%TO.C,D1*%
X48764000Y-21290000D02*
X48920000Y-21290000D01*
X51080000Y-21290000D02*
X51236000Y-21290000D01*
X48764484Y-21290000D02*
G75*
G02*
X48920000Y-18058563I1235516J1560000D01*
G01*
X48920000Y-20770961D02*
G75*
G02*
X48920000Y-18689039I1080000J1040961D01*
G01*
X51080000Y-18058563D02*
G75*
G02*
X51235516Y-21290000I-1080000J-1671437D01*
G01*
X51080000Y-18689039D02*
G75*
G02*
X51080000Y-20770961I-1080000J-1040961D01*
G01*
%TO.C,C2*%
X60960000Y-15000000D02*
X59420000Y-15000000D01*
X60960000Y-15040000D02*
X59420000Y-15040000D01*
X60960000Y-15080000D02*
X59421000Y-15080000D01*
X60960000Y-15120000D02*
X59423000Y-15120000D01*
X60960000Y-15160000D02*
X59425000Y-15160000D01*
X60960000Y-15200000D02*
X59428000Y-15200000D01*
X60960000Y-15240000D02*
X59431000Y-15240000D01*
X60960000Y-15280000D02*
X59435000Y-15280000D01*
X60960000Y-15320000D02*
X59440000Y-15320000D01*
X60960000Y-15360000D02*
X59445000Y-15360000D01*
X60960000Y-15400000D02*
X59451000Y-15400000D01*
X60960000Y-15440000D02*
X59457000Y-15440000D01*
X60960000Y-15480000D02*
X59464000Y-15480000D01*
X60960000Y-15520000D02*
X59472000Y-15520000D01*
X60960000Y-15560000D02*
X59481000Y-15560000D01*
X60960000Y-15600000D02*
X59490000Y-15600000D01*
X60960000Y-15640000D02*
X59499000Y-15640000D01*
X60960000Y-15680000D02*
X59510000Y-15680000D01*
X60960000Y-15720000D02*
X59521000Y-15720000D01*
X60960000Y-15760000D02*
X59533000Y-15760000D01*
X60960000Y-15800000D02*
X59545000Y-15800000D01*
X60960000Y-15840000D02*
X59558000Y-15840000D01*
X60960000Y-15880000D02*
X59572000Y-15880000D01*
X60960000Y-15920000D02*
X59587000Y-15920000D01*
X60960000Y-15960000D02*
X59602000Y-15960000D01*
X60960000Y-16000000D02*
X59618000Y-16000000D01*
X60960000Y-16040000D02*
X59635000Y-16040000D01*
X60960000Y-16080000D02*
X59653000Y-16080000D01*
X60960000Y-16120000D02*
X59671000Y-16120000D01*
X60960000Y-16160000D02*
X59691000Y-16160000D01*
X60960000Y-16200000D02*
X59711000Y-16200000D01*
X60960000Y-16240000D02*
X59732000Y-16240000D01*
X60960000Y-16280000D02*
X59754000Y-16280000D01*
X60960000Y-16320000D02*
X59777000Y-16320000D01*
X60960000Y-16360000D02*
X59801000Y-16360000D01*
X60960000Y-16400000D02*
X59825000Y-16400000D01*
X60960000Y-16440000D02*
X59851000Y-16440000D01*
X60960000Y-16480000D02*
X59878000Y-16480000D01*
X60960000Y-16520000D02*
X59906000Y-16520000D01*
X60960000Y-16560000D02*
X59935000Y-16560000D01*
X60960000Y-16600000D02*
X59965000Y-16600000D01*
X60960000Y-16640000D02*
X59997000Y-16640000D01*
X60960000Y-16680000D02*
X60030000Y-16680000D01*
X60960000Y-16720000D02*
X60064000Y-16720000D01*
X60960000Y-16760000D02*
X60099000Y-16760000D01*
X60960000Y-16800000D02*
X60136000Y-16800000D01*
X60960000Y-16840000D02*
X60175000Y-16840000D01*
X60960000Y-16880000D02*
X60215000Y-16880000D01*
X60960000Y-16920000D02*
X60257000Y-16920000D01*
X60960000Y-16960000D02*
X60301000Y-16960000D01*
X60960000Y-17000000D02*
X60348000Y-17000000D01*
X62283000Y-17600000D02*
X61717000Y-17600000D01*
X62517000Y-17560000D02*
X61483000Y-17560000D01*
X62677000Y-17520000D02*
X61323000Y-17520000D01*
X62805000Y-17480000D02*
X61195000Y-17480000D01*
X62914000Y-17440000D02*
X61086000Y-17440000D01*
X63011000Y-17400000D02*
X60989000Y-17400000D01*
X63098000Y-17360000D02*
X60902000Y-17360000D01*
X63177000Y-17320000D02*
X60823000Y-17320000D01*
X63251000Y-17280000D02*
X60749000Y-17280000D01*
X63319000Y-17240000D02*
X60681000Y-17240000D01*
X63383000Y-17200000D02*
X60617000Y-17200000D01*
X63443000Y-17160000D02*
X60557000Y-17160000D01*
X63475000Y-12195225D02*
X63475000Y-12695225D01*
X63499000Y-17120000D02*
X60501000Y-17120000D01*
X63553000Y-17080000D02*
X60447000Y-17080000D01*
X63604000Y-17040000D02*
X60396000Y-17040000D01*
X63652000Y-17000000D02*
X63040000Y-17000000D01*
X63699000Y-16960000D02*
X63040000Y-16960000D01*
X63725000Y-12445225D02*
X63225000Y-12445225D01*
X63743000Y-16920000D02*
X63040000Y-16920000D01*
X63785000Y-16880000D02*
X63040000Y-16880000D01*
X63825000Y-16840000D02*
X63040000Y-16840000D01*
X63864000Y-16800000D02*
X63040000Y-16800000D01*
X63901000Y-16760000D02*
X63040000Y-16760000D01*
X63936000Y-16720000D02*
X63040000Y-16720000D01*
X63970000Y-16680000D02*
X63040000Y-16680000D01*
X64003000Y-16640000D02*
X63040000Y-16640000D01*
X64035000Y-16600000D02*
X63040000Y-16600000D01*
X64065000Y-16560000D02*
X63040000Y-16560000D01*
X64094000Y-16520000D02*
X63040000Y-16520000D01*
X64122000Y-16480000D02*
X63040000Y-16480000D01*
X64149000Y-16440000D02*
X63040000Y-16440000D01*
X64175000Y-16400000D02*
X63040000Y-16400000D01*
X64199000Y-16360000D02*
X63040000Y-16360000D01*
X64223000Y-16320000D02*
X63040000Y-16320000D01*
X64246000Y-16280000D02*
X63040000Y-16280000D01*
X64268000Y-16240000D02*
X63040000Y-16240000D01*
X64289000Y-16200000D02*
X63040000Y-16200000D01*
X64309000Y-16160000D02*
X63040000Y-16160000D01*
X64329000Y-16120000D02*
X63040000Y-16120000D01*
X64347000Y-16080000D02*
X63040000Y-16080000D01*
X64365000Y-16040000D02*
X63040000Y-16040000D01*
X64382000Y-16000000D02*
X63040000Y-16000000D01*
X64398000Y-15960000D02*
X63040000Y-15960000D01*
X64413000Y-15920000D02*
X63040000Y-15920000D01*
X64428000Y-15880000D02*
X63040000Y-15880000D01*
X64442000Y-15840000D02*
X63040000Y-15840000D01*
X64455000Y-15800000D02*
X63040000Y-15800000D01*
X64467000Y-15760000D02*
X63040000Y-15760000D01*
X64479000Y-15720000D02*
X63040000Y-15720000D01*
X64490000Y-15680000D02*
X63040000Y-15680000D01*
X64501000Y-15640000D02*
X63040000Y-15640000D01*
X64510000Y-15600000D02*
X63040000Y-15600000D01*
X64519000Y-15560000D02*
X63040000Y-15560000D01*
X64528000Y-15520000D02*
X63040000Y-15520000D01*
X64536000Y-15480000D02*
X63040000Y-15480000D01*
X64543000Y-15440000D02*
X63040000Y-15440000D01*
X64549000Y-15400000D02*
X63040000Y-15400000D01*
X64555000Y-15360000D02*
X63040000Y-15360000D01*
X64560000Y-15320000D02*
X63040000Y-15320000D01*
X64565000Y-15280000D02*
X63040000Y-15280000D01*
X64569000Y-15240000D02*
X63040000Y-15240000D01*
X64572000Y-15200000D02*
X63040000Y-15200000D01*
X64575000Y-15160000D02*
X63040000Y-15160000D01*
X64577000Y-15120000D02*
X63040000Y-15120000D01*
X64579000Y-15080000D02*
X63040000Y-15080000D01*
X64580000Y-15000000D02*
X63040000Y-15000000D01*
X64580000Y-15040000D02*
X63040000Y-15040000D01*
X64620000Y-15000000D02*
G75*
G02*
X59380000Y-15000000I-2620000J0D01*
G01*
X59380000Y-15000000D02*
G75*
G02*
X64620000Y-15000000I2620000J0D01*
G01*
%TO.C,R1*%
X46000000Y-15370000D02*
X46000000Y-17980000D01*
X47370000Y-14000000D02*
G75*
G02*
X44630000Y-14000000I-1370000J0D01*
G01*
X44630000Y-14000000D02*
G75*
G02*
X47370000Y-14000000I1370000J0D01*
G01*
%TO.C,R5*%
X80000000Y-15370000D02*
X80000000Y-17980000D01*
X81370000Y-14000000D02*
G75*
G02*
X78630000Y-14000000I-1370000J0D01*
G01*
X78630000Y-14000000D02*
G75*
G02*
X81370000Y-14000000I1370000J0D01*
G01*
%TO.C,R13*%
X85000000Y-41370000D02*
X85000000Y-43980000D01*
X86370000Y-40000000D02*
G75*
G02*
X83630000Y-40000000I-1370000J0D01*
G01*
X83630000Y-40000000D02*
G75*
G02*
X86370000Y-40000000I1370000J0D01*
G01*
%TO.C,TP3*%
X47500000Y-60000000D02*
G75*
G02*
X44500000Y-60000000I-1500000J0D01*
G01*
X44500000Y-60000000D02*
G75*
G02*
X47500000Y-60000000I1500000J0D01*
G01*
%TO.C,R6*%
X50000000Y-41370000D02*
X50000000Y-43980000D01*
X51370000Y-40000000D02*
G75*
G02*
X48630000Y-40000000I-1370000J0D01*
G01*
X48630000Y-40000000D02*
G75*
G02*
X51370000Y-40000000I1370000J0D01*
G01*
%TO.C,TP2*%
X39500000Y-60000000D02*
G75*
G02*
X36500000Y-60000000I-1500000J0D01*
G01*
X36500000Y-60000000D02*
G75*
G02*
X39500000Y-60000000I1500000J0D01*
G01*
%TO.C,J2*%
X5420000Y-1670000D02*
X94580000Y-1670000D01*
X5420000Y-10790000D02*
X5420000Y-1670000D01*
X6720000Y-2980000D02*
X93280000Y-2980000D01*
X6720000Y-9480000D02*
X6720000Y-2980000D01*
X10130000Y-12180000D02*
X11130000Y-12180000D01*
X10630000Y-11180000D02*
X10130000Y-12180000D01*
X11130000Y-12180000D02*
X10630000Y-11180000D01*
X47950000Y-9480000D02*
X6720000Y-9480000D01*
X47950000Y-10790000D02*
X47950000Y-9480000D01*
X52050000Y-9480000D02*
X52050000Y-10790000D01*
X93280000Y-2980000D02*
X93280000Y-9480000D01*
X93280000Y-9480000D02*
X52050000Y-9480000D01*
X94580000Y-1670000D02*
X94580000Y-10790000D01*
X94580000Y-10790000D02*
X5420000Y-10790000D01*
%TO.C,TP1*%
X31500000Y-60000000D02*
G75*
G02*
X28500000Y-60000000I-1500000J0D01*
G01*
X28500000Y-60000000D02*
G75*
G02*
X31500000Y-60000000I1500000J0D01*
G01*
%TO.C,J3*%
X5420000Y-87170000D02*
X94580000Y-87170000D01*
X5420000Y-96290000D02*
X5420000Y-87170000D01*
X6720000Y-88480000D02*
X93280000Y-88480000D01*
X6720000Y-94980000D02*
X6720000Y-88480000D01*
X10130000Y-97680000D02*
X11130000Y-97680000D01*
X10630000Y-96680000D02*
X10130000Y-97680000D01*
X11130000Y-97680000D02*
X10630000Y-96680000D01*
X47950000Y-94980000D02*
X6720000Y-94980000D01*
X47950000Y-96290000D02*
X47950000Y-94980000D01*
X52050000Y-94980000D02*
X52050000Y-96290000D01*
X93280000Y-88480000D02*
X93280000Y-94980000D01*
X93280000Y-94980000D02*
X52050000Y-94980000D01*
X94580000Y-87170000D02*
X94580000Y-96290000D01*
X94580000Y-96290000D02*
X5420000Y-96290000D01*
%TO.C,R2*%
X68000000Y-15370000D02*
X68000000Y-17980000D01*
X69370000Y-14000000D02*
G75*
G02*
X66630000Y-14000000I-1370000J0D01*
G01*
X66630000Y-14000000D02*
G75*
G02*
X69370000Y-14000000I1370000J0D01*
G01*
%TO.C,R3*%
X72000000Y-15370000D02*
X72000000Y-17980000D01*
X73370000Y-14000000D02*
G75*
G02*
X70630000Y-14000000I-1370000J0D01*
G01*
X70630000Y-14000000D02*
G75*
G02*
X73370000Y-14000000I1370000J0D01*
G01*
%TO.C,R10*%
X70000000Y-41370000D02*
X70000000Y-43980000D01*
X71370000Y-40000000D02*
G75*
G02*
X68630000Y-40000000I-1370000J0D01*
G01*
X68630000Y-40000000D02*
G75*
G02*
X71370000Y-40000000I1370000J0D01*
G01*
%TO.C,R8*%
X60000000Y-41370000D02*
X60000000Y-43980000D01*
X61370000Y-40000000D02*
G75*
G02*
X58630000Y-40000000I-1370000J0D01*
G01*
X58630000Y-40000000D02*
G75*
G02*
X61370000Y-40000000I1370000J0D01*
G01*
%TO.C,TP4*%
X55500000Y-60000000D02*
G75*
G02*
X52500000Y-60000000I-1500000J0D01*
G01*
X52500000Y-60000000D02*
G75*
G02*
X55500000Y-60000000I1500000J0D01*
G01*
%TO.C,TP5*%
X63500000Y-60000000D02*
G75*
G02*
X60500000Y-60000000I-1500000J0D01*
G01*
X60500000Y-60000000D02*
G75*
G02*
X63500000Y-60000000I1500000J0D01*
G01*
%TO.C,F1*%
X22650000Y-14400000D02*
X22650000Y-19500000D01*
X22650000Y-14400000D02*
X34450000Y-14400000D01*
X22650000Y-19500000D02*
X34450000Y-19500000D01*
X34450000Y-14400000D02*
X34450000Y-19500000D01*
%TO.C,R12*%
X80000000Y-41370000D02*
X80000000Y-43980000D01*
X81370000Y-40000000D02*
G75*
G02*
X78630000Y-40000000I-1370000J0D01*
G01*
X78630000Y-40000000D02*
G75*
G02*
X81370000Y-40000000I1370000J0D01*
G01*
%TD*%
M02*
