%TF.GenerationSoftware,KiCad,Pcbnew,10.0.5*%
%TF.CreationDate,2026-09-14T17:44:57-04:00*%
%TF.ProjectId,hub,6875622e-6b69-4636-9164-5f7063625858,rev?*%
%TF.SameCoordinates,Original*%
%TF.FileFunction,Copper,L2,Bot*%
%TF.FilePolarity,Positive*%
%FSLAX46Y46*%
G04 Gerber Fmt 4.6, Leading zero omitted, Abs format (unit mm)*
G04 Created by KiCad (PCBNEW 10.0.5) date 2026-09-14 17:44:57*
%MOMM*%
%LPD*%
G01*
G04 APERTURE LIST*
G04 Aperture macros list*
%AMRoundRect*
0 Rectangle with rounded corners*
0 $1 Rounding radius*
0 $2 $3 $4 $5 $6 $7 $8 $9 X,Y pos of 4 corners*
0 Add a 4 corners polygon primitive as box body*
4,1,4,$2,$3,$4,$5,$6,$7,$8,$9,$2,$3,0*
0 Add four circle primitives for the rounded corners*
1,1,$1+$1,$2,$3*
1,1,$1+$1,$4,$5*
1,1,$1+$1,$6,$7*
1,1,$1+$1,$8,$9*
0 Add four rect primitives between the rounded corners*
20,1,$1+$1,$2,$3,$4,$5,0*
20,1,$1+$1,$4,$5,$6,$7,0*
20,1,$1+$1,$6,$7,$8,$9,0*
20,1,$1+$1,$8,$9,$2,$3,0*%
G04 Aperture macros list end*
%TA.AperFunction,ComponentPad*%
%ADD10RoundRect,0.250000X0.600000X-0.600000X0.600000X0.600000X-0.600000X0.600000X-0.600000X-0.600000X0*%
%TD*%
%TA.AperFunction,ComponentPad*%
%ADD11C,1.700000*%
%TD*%
%TA.AperFunction,ComponentPad*%
%ADD12RoundRect,0.250000X-0.550000X0.550000X-0.550000X-0.550000X0.550000X-0.550000X0.550000X0.550000X0*%
%TD*%
%TA.AperFunction,ComponentPad*%
%ADD13C,1.600000*%
%TD*%
%TA.AperFunction,ComponentPad*%
%ADD14C,2.000000*%
%TD*%
%TA.AperFunction,ComponentPad*%
%ADD15C,6.400000*%
%TD*%
%TA.AperFunction,ComponentPad*%
%ADD16RoundRect,0.250000X0.600000X0.600000X-0.600000X0.600000X-0.600000X-0.600000X0.600000X-0.600000X0*%
%TD*%
%TA.AperFunction,ComponentPad*%
%ADD17C,3.500000*%
%TD*%
%TA.AperFunction,ComponentPad*%
%ADD18C,1.560000*%
%TD*%
%TA.AperFunction,ComponentPad*%
%ADD19RoundRect,0.250000X1.050000X-1.050000X1.050000X1.050000X-1.050000X1.050000X-1.050000X-1.050000X0*%
%TD*%
%TA.AperFunction,ComponentPad*%
%ADD20C,2.600000*%
%TD*%
%TA.AperFunction,ComponentPad*%
%ADD21R,1.800000X1.800000*%
%TD*%
%TA.AperFunction,ComponentPad*%
%ADD22C,1.800000*%
%TD*%
%TA.AperFunction,ViaPad*%
%ADD23C,0.800000*%
%TD*%
%TA.AperFunction,Conductor*%
%ADD24C,0.800000*%
%TD*%
%TA.AperFunction,Conductor*%
%ADD25C,0.200000*%
%TD*%
G04 APERTURE END LIST*
D10*
%TO.P,J4,1*%
%TO.N,+5V*%
X10630000Y-93000000D03*
D11*
%TO.P,J4,2*%
X10630000Y-90460000D03*
%TO.P,J4,3*%
%TO.N,GND*%
X13170000Y-93000000D03*
%TO.P,J4,4*%
X13170000Y-90460000D03*
%TO.P,J4,5*%
%TO.N,CLK*%
X15710000Y-93000000D03*
%TO.P,J4,6*%
%TO.N,GND*%
X15710000Y-90460000D03*
%TO.P,J4,7*%
%TO.N,RST*%
X18250000Y-93000000D03*
%TO.P,J4,8*%
%TO.N,GND*%
X18250000Y-90460000D03*
%TO.P,J4,9*%
%TO.N,BUS0#*%
X20790000Y-93000000D03*
%TO.P,J4,10*%
%TO.N,BUS1#*%
X20790000Y-90460000D03*
%TO.P,J4,11*%
%TO.N,BUS2#*%
X23330000Y-93000000D03*
%TO.P,J4,12*%
%TO.N,BUS3#*%
X23330000Y-90460000D03*
%TO.P,J4,13*%
%TO.N,A0*%
X25870000Y-93000000D03*
%TO.P,J4,14*%
%TO.N,A1*%
X25870000Y-90460000D03*
%TO.P,J4,15*%
%TO.N,A2*%
X28410000Y-93000000D03*
%TO.P,J4,16*%
%TO.N,A3*%
X28410000Y-90460000D03*
%TO.P,J4,17*%
%TO.N,B0*%
X30950000Y-93000000D03*
%TO.P,J4,18*%
%TO.N,B1*%
X30950000Y-90460000D03*
%TO.P,J4,19*%
%TO.N,B2*%
X33490000Y-93000000D03*
%TO.P,J4,20*%
%TO.N,B3*%
X33490000Y-90460000D03*
%TO.P,J4,21*%
%TO.N,PC0*%
X36030000Y-93000000D03*
%TO.P,J4,22*%
%TO.N,PC1*%
X36030000Y-90460000D03*
%TO.P,J4,23*%
%TO.N,PC2*%
X38570000Y-93000000D03*
%TO.P,J4,24*%
%TO.N,PC3*%
X38570000Y-90460000D03*
%TO.P,J4,25*%
%TO.N,PC4*%
X41110000Y-93000000D03*
%TO.P,J4,26*%
%TO.N,PC5*%
X41110000Y-90460000D03*
%TO.P,J4,27*%
%TO.N,PC6*%
X43650000Y-93000000D03*
%TO.P,J4,28*%
%TO.N,PC7*%
X43650000Y-90460000D03*
%TO.P,J4,29*%
%TO.N,M0*%
X46190000Y-93000000D03*
%TO.P,J4,30*%
%TO.N,M1*%
X46190000Y-90460000D03*
%TO.P,J4,31*%
%TO.N,M2*%
X48730000Y-93000000D03*
%TO.P,J4,32*%
%TO.N,M3*%
X48730000Y-90460000D03*
%TO.P,J4,33*%
%TO.N,M4*%
X51270000Y-93000000D03*
%TO.P,J4,34*%
%TO.N,M5*%
X51270000Y-90460000D03*
%TO.P,J4,35*%
%TO.N,M6*%
X53810000Y-93000000D03*
%TO.P,J4,36*%
%TO.N,M7*%
X53810000Y-90460000D03*
%TO.P,J4,37*%
%TO.N,CF*%
X56350000Y-93000000D03*
%TO.P,J4,38*%
%TO.N,ZF*%
X56350000Y-90460000D03*
%TO.P,J4,39*%
%TO.N,SUB*%
X58890000Y-93000000D03*
%TO.P,J4,40*%
%TO.N,EO*%
X58890000Y-90460000D03*
%TO.P,J4,41*%
%TO.N,AI*%
X61430000Y-93000000D03*
%TO.P,J4,42*%
%TO.N,AO*%
X61430000Y-90460000D03*
%TO.P,J4,43*%
%TO.N,BI*%
X63970000Y-93000000D03*
%TO.P,J4,44*%
%TO.N,BO*%
X63970000Y-90460000D03*
%TO.P,J4,45*%
%TO.N,BA*%
X66510000Y-93000000D03*
%TO.P,J4,46*%
%TO.N,AB*%
X66510000Y-90460000D03*
%TO.P,J4,47*%
%TO.N,OI*%
X69050000Y-93000000D03*
%TO.P,J4,48*%
%TO.N,IO*%
X69050000Y-90460000D03*
%TO.P,J4,49*%
%TO.N,II*%
X71590000Y-93000000D03*
%TO.P,J4,50*%
%TO.N,PCE*%
X71590000Y-90460000D03*
%TO.P,J4,51*%
%TO.N,PCL*%
X74130000Y-93000000D03*
%TO.P,J4,52*%
%TO.N,FI*%
X74130000Y-90460000D03*
%TO.P,J4,53*%
%TO.N,HLT*%
X76670000Y-93000000D03*
%TO.P,J4,54*%
%TO.N,MAI*%
X76670000Y-90460000D03*
%TO.P,J4,55*%
%TO.N,MI*%
X79210000Y-93000000D03*
%TO.P,J4,56*%
%TO.N,MO*%
X79210000Y-90460000D03*
%TO.P,J4,57*%
%TO.N,WRL*%
X81750000Y-93000000D03*
%TO.P,J4,58*%
%TO.N,WRH*%
X81750000Y-90460000D03*
%TO.P,J4,59*%
%TO.N,ONE*%
X84290000Y-93000000D03*
%TO.P,J4,60*%
%TO.N,F0*%
X84290000Y-90460000D03*
%TO.P,J4,61*%
%TO.N,F1*%
X86830000Y-93000000D03*
%TO.P,J4,62*%
%TO.N,INP*%
X86830000Y-90460000D03*
%TO.P,J4,63*%
%TO.N,+5V*%
X89370000Y-93000000D03*
%TO.P,J4,64*%
%TO.N,GND*%
X89370000Y-90460000D03*
%TD*%
D12*
%TO.P,C2,1*%
%TO.N,+5V*%
X62000000Y-14000000D03*
D13*
%TO.P,C2,2*%
%TO.N,GND*%
X62000000Y-16000000D03*
%TD*%
%TO.P,R4,1*%
%TO.N,+5V*%
X76000000Y-14000000D03*
%TO.P,R4,2*%
%TO.N,BUS2#*%
X76000000Y-19080000D03*
%TD*%
%TO.P,R8,1*%
%TO.N,M2*%
X60000000Y-40000000D03*
%TO.P,R8,2*%
%TO.N,GND*%
X60000000Y-45080000D03*
%TD*%
D14*
%TO.P,TP3,1*%
%TO.N,BUS2#*%
X46000000Y-60000000D03*
%TD*%
%TO.P,TP6,1*%
%TO.N,RST*%
X70000000Y-60000000D03*
%TD*%
D13*
%TO.P,R9,1*%
%TO.N,M3*%
X65000000Y-40000000D03*
%TO.P,R9,2*%
%TO.N,GND*%
X65000000Y-45080000D03*
%TD*%
%TO.P,R6,1*%
%TO.N,M0*%
X50000000Y-40000000D03*
%TO.P,R6,2*%
%TO.N,GND*%
X50000000Y-45080000D03*
%TD*%
%TO.P,R5,1*%
%TO.N,+5V*%
X80000000Y-14000000D03*
%TO.P,R5,2*%
%TO.N,BUS3#*%
X80000000Y-19080000D03*
%TD*%
D15*
%TO.P,H2,1*%
%TO.N,N/C*%
X96000000Y-50000000D03*
%TD*%
D13*
%TO.P,R3,1*%
%TO.N,+5V*%
X72000000Y-14000000D03*
%TO.P,R3,2*%
%TO.N,BUS1#*%
X72000000Y-19080000D03*
%TD*%
D14*
%TO.P,TP5,1*%
%TO.N,CLK*%
X62000000Y-60000000D03*
%TD*%
D16*
%TO.P,J1,1*%
%TO.N,VBUS*%
X14000000Y-30000000D03*
D11*
%TO.P,J1,2*%
%TO.N,unconnected-(J1-D--Pad2)*%
X14000000Y-27500000D03*
%TO.P,J1,3*%
%TO.N,unconnected-(J1-D+-Pad3)*%
X12000000Y-27500000D03*
%TO.P,J1,4*%
%TO.N,GND*%
X12000000Y-30000000D03*
D17*
%TO.P,J1,SH*%
X9290000Y-34770000D03*
X9290000Y-22730000D03*
%TD*%
D18*
%TO.P,F1,1*%
%TO.N,VBUS*%
X26000000Y-16000000D03*
%TO.P,F1,2*%
%TO.N,+5V*%
X36200000Y-17900000D03*
%TD*%
D19*
%TO.P,J2,1*%
%TO.N,VBUS*%
X12000000Y-62000000D03*
D20*
%TO.P,J2,2*%
%TO.N,GND*%
X12000000Y-56920000D03*
%TD*%
D13*
%TO.P,R2,1*%
%TO.N,+5V*%
X68000000Y-14000000D03*
%TO.P,R2,2*%
%TO.N,BUS0#*%
X68000000Y-19080000D03*
%TD*%
%TO.P,C1,1*%
%TO.N,+5V*%
X57000000Y-14000000D03*
%TO.P,C1,2*%
%TO.N,GND*%
X57000000Y-16500000D03*
%TD*%
D15*
%TO.P,H1,1*%
%TO.N,N/C*%
X4000000Y-50000000D03*
%TD*%
D10*
%TO.P,J3,1*%
%TO.N,+5V*%
X10630000Y-7500000D03*
D11*
%TO.P,J3,2*%
X10630000Y-4960000D03*
%TO.P,J3,3*%
%TO.N,GND*%
X13170000Y-7500000D03*
%TO.P,J3,4*%
X13170000Y-4960000D03*
%TO.P,J3,5*%
%TO.N,CLK*%
X15710000Y-7500000D03*
%TO.P,J3,6*%
%TO.N,GND*%
X15710000Y-4960000D03*
%TO.P,J3,7*%
%TO.N,RST*%
X18250000Y-7500000D03*
%TO.P,J3,8*%
%TO.N,GND*%
X18250000Y-4960000D03*
%TO.P,J3,9*%
%TO.N,BUS0#*%
X20790000Y-7500000D03*
%TO.P,J3,10*%
%TO.N,BUS1#*%
X20790000Y-4960000D03*
%TO.P,J3,11*%
%TO.N,BUS2#*%
X23330000Y-7500000D03*
%TO.P,J3,12*%
%TO.N,BUS3#*%
X23330000Y-4960000D03*
%TO.P,J3,13*%
%TO.N,A0*%
X25870000Y-7500000D03*
%TO.P,J3,14*%
%TO.N,A1*%
X25870000Y-4960000D03*
%TO.P,J3,15*%
%TO.N,A2*%
X28410000Y-7500000D03*
%TO.P,J3,16*%
%TO.N,A3*%
X28410000Y-4960000D03*
%TO.P,J3,17*%
%TO.N,B0*%
X30950000Y-7500000D03*
%TO.P,J3,18*%
%TO.N,B1*%
X30950000Y-4960000D03*
%TO.P,J3,19*%
%TO.N,B2*%
X33490000Y-7500000D03*
%TO.P,J3,20*%
%TO.N,B3*%
X33490000Y-4960000D03*
%TO.P,J3,21*%
%TO.N,PC0*%
X36030000Y-7500000D03*
%TO.P,J3,22*%
%TO.N,PC1*%
X36030000Y-4960000D03*
%TO.P,J3,23*%
%TO.N,PC2*%
X38570000Y-7500000D03*
%TO.P,J3,24*%
%TO.N,PC3*%
X38570000Y-4960000D03*
%TO.P,J3,25*%
%TO.N,PC4*%
X41110000Y-7500000D03*
%TO.P,J3,26*%
%TO.N,PC5*%
X41110000Y-4960000D03*
%TO.P,J3,27*%
%TO.N,PC6*%
X43650000Y-7500000D03*
%TO.P,J3,28*%
%TO.N,PC7*%
X43650000Y-4960000D03*
%TO.P,J3,29*%
%TO.N,M0*%
X46190000Y-7500000D03*
%TO.P,J3,30*%
%TO.N,M1*%
X46190000Y-4960000D03*
%TO.P,J3,31*%
%TO.N,M2*%
X48730000Y-7500000D03*
%TO.P,J3,32*%
%TO.N,M3*%
X48730000Y-4960000D03*
%TO.P,J3,33*%
%TO.N,M4*%
X51270000Y-7500000D03*
%TO.P,J3,34*%
%TO.N,M5*%
X51270000Y-4960000D03*
%TO.P,J3,35*%
%TO.N,M6*%
X53810000Y-7500000D03*
%TO.P,J3,36*%
%TO.N,M7*%
X53810000Y-4960000D03*
%TO.P,J3,37*%
%TO.N,CF*%
X56350000Y-7500000D03*
%TO.P,J3,38*%
%TO.N,ZF*%
X56350000Y-4960000D03*
%TO.P,J3,39*%
%TO.N,SUB*%
X58890000Y-7500000D03*
%TO.P,J3,40*%
%TO.N,EO*%
X58890000Y-4960000D03*
%TO.P,J3,41*%
%TO.N,AI*%
X61430000Y-7500000D03*
%TO.P,J3,42*%
%TO.N,AO*%
X61430000Y-4960000D03*
%TO.P,J3,43*%
%TO.N,BI*%
X63970000Y-7500000D03*
%TO.P,J3,44*%
%TO.N,BO*%
X63970000Y-4960000D03*
%TO.P,J3,45*%
%TO.N,BA*%
X66510000Y-7500000D03*
%TO.P,J3,46*%
%TO.N,AB*%
X66510000Y-4960000D03*
%TO.P,J3,47*%
%TO.N,OI*%
X69050000Y-7500000D03*
%TO.P,J3,48*%
%TO.N,IO*%
X69050000Y-4960000D03*
%TO.P,J3,49*%
%TO.N,II*%
X71590000Y-7500000D03*
%TO.P,J3,50*%
%TO.N,PCE*%
X71590000Y-4960000D03*
%TO.P,J3,51*%
%TO.N,PCL*%
X74130000Y-7500000D03*
%TO.P,J3,52*%
%TO.N,FI*%
X74130000Y-4960000D03*
%TO.P,J3,53*%
%TO.N,HLT*%
X76670000Y-7500000D03*
%TO.P,J3,54*%
%TO.N,MAI*%
X76670000Y-4960000D03*
%TO.P,J3,55*%
%TO.N,MI*%
X79210000Y-7500000D03*
%TO.P,J3,56*%
%TO.N,MO*%
X79210000Y-4960000D03*
%TO.P,J3,57*%
%TO.N,WRL*%
X81750000Y-7500000D03*
%TO.P,J3,58*%
%TO.N,WRH*%
X81750000Y-4960000D03*
%TO.P,J3,59*%
%TO.N,ONE*%
X84290000Y-7500000D03*
%TO.P,J3,60*%
%TO.N,F0*%
X84290000Y-4960000D03*
%TO.P,J3,61*%
%TO.N,F1*%
X86830000Y-7500000D03*
%TO.P,J3,62*%
%TO.N,INP*%
X86830000Y-4960000D03*
%TO.P,J3,63*%
%TO.N,+5V*%
X89370000Y-7500000D03*
%TO.P,J3,64*%
%TO.N,GND*%
X89370000Y-4960000D03*
%TD*%
D13*
%TO.P,R13,1*%
%TO.N,M7*%
X85000000Y-40000000D03*
%TO.P,R13,2*%
%TO.N,GND*%
X85000000Y-45080000D03*
%TD*%
%TO.P,R11,1*%
%TO.N,M5*%
X75000000Y-40000000D03*
%TO.P,R11,2*%
%TO.N,GND*%
X75000000Y-45080000D03*
%TD*%
%TO.P,R7,1*%
%TO.N,M1*%
X55000000Y-40000000D03*
%TO.P,R7,2*%
%TO.N,GND*%
X55000000Y-45080000D03*
%TD*%
%TO.P,R12,1*%
%TO.N,M6*%
X80000000Y-40000000D03*
%TO.P,R12,2*%
%TO.N,GND*%
X80000000Y-45080000D03*
%TD*%
D14*
%TO.P,TP2,1*%
%TO.N,BUS1#*%
X38000000Y-60000000D03*
%TD*%
D21*
%TO.P,D1,1*%
%TO.N,GND*%
X50000000Y-21000000D03*
D22*
%TO.P,D1,2*%
%TO.N,Net-(D1-A)*%
X50000000Y-18460000D03*
%TD*%
D13*
%TO.P,R1,1*%
%TO.N,+5V*%
X46000000Y-14000000D03*
%TO.P,R1,2*%
%TO.N,Net-(D1-A)*%
X46000000Y-19080000D03*
%TD*%
D14*
%TO.P,TP4,1*%
%TO.N,BUS3#*%
X54000000Y-60000000D03*
%TD*%
D13*
%TO.P,R10,1*%
%TO.N,M4*%
X70000000Y-40000000D03*
%TO.P,R10,2*%
%TO.N,GND*%
X70000000Y-45080000D03*
%TD*%
D14*
%TO.P,TP1,1*%
%TO.N,BUS0#*%
X30000000Y-60000000D03*
%TD*%
D23*
%TO.N,+5V*%
X90000000Y-86000000D03*
X89370000Y-95500000D03*
X90000000Y-14000000D03*
%TO.N,AI*%
X61803100Y-46813300D03*
X60041300Y-46813300D03*
%TO.N,BUS0#*%
X69051700Y-12181100D03*
X20973700Y-57159100D03*
%TO.N,BUS1#*%
X20971200Y-59482000D03*
X70566800Y-12583900D03*
%TO.N,BUS2#*%
X22218700Y-60523000D03*
X74518300Y-12154800D03*
%TO.N,BUS3#*%
X78654400Y-57776000D03*
X23488700Y-61664000D03*
%TO.N,CLK*%
X15710000Y-63041500D03*
%TO.N,M1*%
X47642700Y-42847300D03*
%TO.N,M2*%
X48390800Y-41051700D03*
X60000000Y-10321800D03*
%TO.N,M3*%
X64382000Y-9898600D03*
%TO.N,M4*%
X52238000Y-42131100D03*
%TO.N,M5*%
X51778600Y-38105600D03*
%TO.N,M6*%
X78892700Y-10796300D03*
X53958600Y-88066300D03*
%TO.N,M7*%
X52792000Y-41339000D03*
%TO.N,PC3*%
X38397400Y-8921500D03*
%TO.N,PC4*%
X39291900Y-9432400D03*
%TO.N,RST*%
X17138700Y-63412200D03*
%TD*%
%TO.N,+5V*%
D24*
X90000000Y-86000000D02*
X92200000Y-86000000D01*
X89370000Y-95500000D02*
X92200000Y-95500000D01*
X92200000Y-95500000D02*
X92200000Y-14000000D01*
X90000000Y-14000000D02*
X92200000Y-14000000D01*
%TO.N,A0*%
D25*
X25870000Y-7997300D02*
X25870000Y-7500000D01*
X25870000Y-93000000D02*
X24758700Y-91888700D01*
X24758700Y-91888700D02*
X24758700Y-9108600D01*
X24758700Y-9108600D02*
X25870000Y-7997300D01*
%TO.N,A1*%
X27060600Y-89267400D02*
X25870000Y-90458000D01*
X25870000Y-4960000D02*
X27060600Y-6150600D01*
X27060600Y-6150600D02*
X27060600Y-89267400D01*
X25870000Y-90458000D02*
X25870000Y-90460000D01*
%TO.N,A2*%
X27281300Y-91871300D02*
X28410000Y-93000000D01*
X27422700Y-89402600D02*
X27281300Y-89544000D01*
X27281300Y-89544000D02*
X27281300Y-91871300D01*
X28410000Y-7500000D02*
X27422700Y-8487300D01*
X27422700Y-8487300D02*
X27422700Y-89402600D01*
%TO.N,A3*%
X28410000Y-34531800D02*
X29521200Y-33420600D01*
X28410000Y-90460000D02*
X28410000Y-34531800D01*
X29521200Y-33420600D02*
X29521200Y-6071200D01*
X29521200Y-6071200D02*
X28410000Y-4960000D01*
%TO.N,AB*%
X66526300Y-20100800D02*
X66878000Y-20452500D01*
X66878000Y-90092000D02*
X66510000Y-90460000D01*
X67667200Y-6117200D02*
X67667200Y-12005800D01*
X66878000Y-20452500D02*
X66878000Y-90092000D01*
X66510000Y-4960000D02*
X67667200Y-6117200D01*
X66526300Y-13146700D02*
X66526300Y-20100800D01*
X67667200Y-12005800D02*
X66526300Y-13146700D01*
%TO.N,AI*%
X60944400Y-22116400D02*
X61803100Y-22975100D01*
X60944400Y-7985600D02*
X60944400Y-22116400D01*
X60041300Y-91611300D02*
X60041300Y-46813300D01*
X61430000Y-93000000D02*
X60041300Y-91611300D01*
X61430000Y-7500000D02*
X60944400Y-7985600D01*
X61803100Y-22975100D02*
X61803100Y-46813300D01*
%TO.N,AO*%
X61430000Y-4960000D02*
X62531700Y-6061700D01*
X62531700Y-9995100D02*
X63290500Y-10753900D01*
X61430000Y-62442500D02*
X61430000Y-90460000D01*
X63290500Y-10753900D02*
X63290500Y-60582000D01*
X62531700Y-6061700D02*
X62531700Y-9995100D01*
X63290500Y-60582000D02*
X61430000Y-62442500D01*
%TO.N,B0*%
X29838700Y-84856700D02*
X29838700Y-91888700D01*
X31297300Y-7847300D02*
X31297300Y-83398100D01*
X31297300Y-83398100D02*
X29838700Y-84856700D01*
X29838700Y-91888700D02*
X30950000Y-93000000D01*
X30950000Y-7500000D02*
X31297300Y-7847300D01*
%TO.N,B1*%
X31908700Y-8833800D02*
X32056500Y-8686000D01*
X31908700Y-89501300D02*
X31908700Y-8833800D01*
X32056500Y-8686000D02*
X32056500Y-6066500D01*
X32056500Y-6066500D02*
X30950000Y-4960000D01*
X30950000Y-90460000D02*
X31908700Y-89501300D01*
%TO.N,B2*%
X33490000Y-7997300D02*
X33490000Y-7500000D01*
X32378700Y-91888700D02*
X32378700Y-9108600D01*
X32378700Y-9108600D02*
X33490000Y-7997300D01*
X33490000Y-93000000D02*
X32378700Y-91888700D01*
%TO.N,B3*%
X33490000Y-9792500D02*
X34656100Y-8626400D01*
X33490000Y-90460000D02*
X33490000Y-9792500D01*
X34656100Y-6126100D02*
X33490000Y-4960000D01*
X34656100Y-8626400D02*
X34656100Y-6126100D01*
%TO.N,BA*%
X65398700Y-91888700D02*
X66510000Y-93000000D01*
X66174600Y-20246400D02*
X66510000Y-20581800D01*
X66510000Y-67093700D02*
X65398700Y-68205000D01*
X66510000Y-20581800D02*
X66510000Y-67093700D01*
X66174600Y-7835400D02*
X66174600Y-20246400D01*
X65398700Y-68205000D02*
X65398700Y-91888700D01*
X66510000Y-7500000D02*
X66174600Y-7835400D01*
%TO.N,BI*%
X62861000Y-91891000D02*
X62861000Y-61756300D01*
X63647900Y-60969400D02*
X63647900Y-7822100D01*
X63970000Y-93000000D02*
X62861000Y-91891000D01*
X62861000Y-61756300D02*
X63647900Y-60969400D01*
X63647900Y-7822100D02*
X63970000Y-7500000D01*
%TO.N,BO*%
X65116100Y-23061600D02*
X65116100Y-6106100D01*
X64262300Y-59505900D02*
X66105000Y-57663200D01*
X64262300Y-90167700D02*
X64262300Y-59505900D01*
X65116100Y-6106100D02*
X63970000Y-4960000D01*
X66105000Y-57663200D02*
X66105000Y-24050500D01*
X66105000Y-24050500D02*
X65116100Y-23061600D01*
X63970000Y-90460000D02*
X64262300Y-90167700D01*
%TO.N,BUS0#*%
X19678700Y-58270400D02*
X20790000Y-57159100D01*
X19678700Y-91888700D02*
X19678700Y-58270400D01*
X68000000Y-19080000D02*
X69051700Y-18028300D01*
X69051700Y-18028300D02*
X69051700Y-12181100D01*
X20790000Y-93000000D02*
X19678700Y-91888700D01*
X20790000Y-57159100D02*
X20973700Y-57159100D01*
X20790000Y-7500000D02*
X20790000Y-57159100D01*
%TO.N,BUS1#*%
X72000000Y-19080000D02*
X70566800Y-17646800D01*
X20971200Y-59482000D02*
X21931500Y-58521700D01*
X20790000Y-90460000D02*
X20790000Y-59663200D01*
X70566800Y-17646800D02*
X70566800Y-12583900D01*
X20790000Y-59663200D02*
X20971200Y-59482000D01*
X21931500Y-6101500D02*
X20790000Y-4960000D01*
X21931500Y-58521700D02*
X21931500Y-6101500D01*
%TO.N,BUS2#*%
X23330000Y-59411700D02*
X22218700Y-60523000D01*
X23330000Y-7500000D02*
X23330000Y-59411700D01*
X22218700Y-60523000D02*
X22218700Y-91888700D01*
X76000000Y-19080000D02*
X74518300Y-17598300D01*
X74518300Y-17598300D02*
X74518300Y-12154800D01*
X22218700Y-91888700D02*
X23330000Y-93000000D01*
%TO.N,BUS3#*%
X23736100Y-61416600D02*
X23736100Y-9386400D01*
X23736100Y-9386400D02*
X24433100Y-8689400D01*
X24433100Y-8689400D02*
X24433100Y-6063100D01*
X80000000Y-19080000D02*
X81086300Y-20166300D01*
X81086300Y-40425600D02*
X78654400Y-42857500D01*
X23330000Y-90460000D02*
X23330000Y-61822700D01*
X23330000Y-61822700D02*
X23488700Y-61664000D01*
X81086300Y-20166300D02*
X81086300Y-40425600D01*
X23488700Y-61664000D02*
X23736100Y-61416600D01*
X78654400Y-42857500D02*
X78654400Y-57776000D01*
X24433100Y-6063100D02*
X23330000Y-4960000D01*
%TO.N,CF*%
X55937500Y-7912500D02*
X55937500Y-20389500D01*
X56087400Y-87681500D02*
X55195500Y-88573400D01*
X55937500Y-20389500D02*
X56087400Y-20539400D01*
X56087400Y-20539400D02*
X56087400Y-87681500D01*
X55195500Y-91845500D02*
X56350000Y-93000000D01*
X56350000Y-7500000D02*
X55937500Y-7912500D01*
X55195500Y-88573400D02*
X55195500Y-91845500D01*
%TO.N,CLK*%
X15710000Y-63041500D02*
X14598700Y-64152800D01*
X14598700Y-64152800D02*
X14598700Y-91888700D01*
X15710000Y-7500000D02*
X15710000Y-63041500D01*
X14598700Y-91888700D02*
X15710000Y-93000000D01*
%TO.N,EO*%
X60001200Y-6071200D02*
X58890000Y-4960000D01*
X60001200Y-8364300D02*
X60001200Y-6071200D01*
X58890000Y-90460000D02*
X58890000Y-9475500D01*
X58890000Y-9475500D02*
X60001200Y-8364300D01*
%TO.N,F0*%
X86065600Y-45546900D02*
X86065600Y-39578200D01*
X85436100Y-6106100D02*
X84290000Y-4960000D01*
X84290000Y-47322500D02*
X86065600Y-45546900D01*
X86065600Y-39578200D02*
X85436100Y-38948700D01*
X84290000Y-90460000D02*
X84290000Y-47322500D01*
X85436100Y-38948700D02*
X85436100Y-6106100D01*
%TO.N,F1*%
X86830000Y-93000000D02*
X85718700Y-91888700D01*
X85718700Y-91888700D02*
X85718700Y-46638600D01*
X86830000Y-45527300D02*
X86830000Y-7500000D01*
X85718700Y-46638600D02*
X86830000Y-45527300D01*
%TO.N,FI*%
X73811800Y-12816100D02*
X73811800Y-10741600D01*
X73909200Y-90239200D02*
X73909200Y-20649400D01*
X74130000Y-90460000D02*
X73909200Y-90239200D01*
X73811800Y-10741600D02*
X75241200Y-9312200D01*
X73909200Y-20649400D02*
X74166600Y-20392000D01*
X74166600Y-20392000D02*
X74166600Y-13170900D01*
X75241200Y-6071200D02*
X74130000Y-4960000D01*
X74166600Y-13170900D02*
X73811800Y-12816100D01*
X75241200Y-9312200D02*
X75241200Y-6071200D01*
%TO.N,GND*%
X9290000Y-22730000D02*
X9290000Y-30000000D01*
X9290000Y-30000000D02*
X9290000Y-34770000D01*
X12000000Y-30000000D02*
X9290000Y-30000000D01*
%TO.N,HLT*%
X75565300Y-46134700D02*
X75565300Y-91895300D01*
X76670000Y-7500000D02*
X77070700Y-7900700D01*
X75565300Y-91895300D02*
X76670000Y-93000000D01*
X77070700Y-20808000D02*
X76319800Y-21558900D01*
X76319800Y-21558900D02*
X76319800Y-45380200D01*
X77070700Y-7900700D02*
X77070700Y-20808000D01*
X76319800Y-45380200D02*
X75565300Y-46134700D01*
%TO.N,II*%
X72334700Y-20556800D02*
X72334700Y-87788000D01*
X71590000Y-12102600D02*
X73055200Y-13567800D01*
X72334700Y-87788000D02*
X70478700Y-89644000D01*
X71590000Y-7500000D02*
X71590000Y-12102600D01*
X73055200Y-13567800D02*
X73055200Y-19836300D01*
X70478700Y-89644000D02*
X70478700Y-91888700D01*
X70478700Y-91888700D02*
X71590000Y-93000000D01*
X73055200Y-19836300D02*
X72334700Y-20556800D01*
%TO.N,INP*%
X87941200Y-89348800D02*
X86830000Y-90460000D01*
X87941200Y-6071200D02*
X87941200Y-89348800D01*
X86830000Y-4960000D02*
X87941200Y-6071200D01*
%TO.N,IO*%
X70196100Y-6106100D02*
X70196100Y-12033100D01*
X70196100Y-12033100D02*
X69915100Y-12314100D01*
X71310100Y-29649700D02*
X71310100Y-88199900D01*
X69915100Y-28254700D02*
X71310100Y-29649700D01*
X69050000Y-4960000D02*
X70196100Y-6106100D01*
X69915100Y-12314100D02*
X69915100Y-28254700D01*
X71310100Y-88199900D02*
X69050000Y-90460000D01*
%TO.N,M0*%
X45083200Y-91893200D02*
X46190000Y-93000000D01*
X46190000Y-7500000D02*
X47629800Y-8939800D01*
X46952600Y-59148300D02*
X47278100Y-59473800D01*
X47278100Y-61472600D02*
X45083200Y-63667500D01*
X46952600Y-40677200D02*
X46952600Y-59148300D01*
X47278100Y-59473800D02*
X47278100Y-61472600D01*
X47629800Y-40000000D02*
X46952600Y-40677200D01*
X45083200Y-63667500D02*
X45083200Y-91893200D01*
X47629800Y-8939800D02*
X47629800Y-40000000D01*
X50000000Y-40000000D02*
X47629800Y-40000000D01*
%TO.N,M1*%
X55000000Y-4575900D02*
X55000000Y-40000000D01*
X46190000Y-63305800D02*
X47642700Y-61853100D01*
X46190000Y-4960000D02*
X47339100Y-3810900D01*
X46190000Y-90460000D02*
X46190000Y-63305800D01*
X47339100Y-3810900D02*
X54235000Y-3810900D01*
X47642700Y-61853100D02*
X47642700Y-42847300D01*
X54235000Y-3810900D02*
X55000000Y-4575900D01*
%TO.N,M2*%
X60000000Y-40000000D02*
X60000000Y-10321800D01*
X48390800Y-61849800D02*
X48390800Y-41051700D01*
X47620500Y-91890500D02*
X47620500Y-62620100D01*
X48730000Y-93000000D02*
X47620500Y-91890500D01*
X47620500Y-62620100D02*
X48390800Y-61849800D01*
%TO.N,M3*%
X47618700Y-8364200D02*
X48848300Y-9593800D01*
X64382000Y-9898600D02*
X64382000Y-39382000D01*
X48848300Y-9593800D02*
X48848300Y-34699300D01*
X51093600Y-88096400D02*
X48730000Y-90460000D01*
X51093600Y-36944600D02*
X51093600Y-88096400D01*
X48730000Y-4960000D02*
X47618700Y-6071300D01*
X47618700Y-6071300D02*
X47618700Y-8364200D01*
X64382000Y-39382000D02*
X65000000Y-40000000D01*
X48848300Y-34699300D02*
X51093600Y-36944600D01*
%TO.N,M4*%
X52404400Y-91865600D02*
X51270000Y-93000000D01*
X52018200Y-42350900D02*
X52018200Y-89232600D01*
X52443200Y-38505700D02*
X52087900Y-38861000D01*
X52087900Y-38861000D02*
X52087900Y-41981000D01*
X52087900Y-41981000D02*
X52238000Y-42131100D01*
X52443200Y-37705400D02*
X52443200Y-38505700D01*
X51933600Y-8163600D02*
X51933600Y-37195800D01*
X51270000Y-7500000D02*
X51933600Y-8163600D01*
X52404400Y-89618800D02*
X52404400Y-91865600D01*
X52018200Y-89232600D02*
X52404400Y-89618800D01*
X51933600Y-37195800D02*
X52443200Y-37705400D01*
X52238000Y-42131100D02*
X52018200Y-42350900D01*
%TO.N,M5*%
X51270000Y-90460000D02*
X51586200Y-90143800D01*
X51514200Y-37841200D02*
X51778600Y-38105600D01*
X50122000Y-15834300D02*
X51514200Y-17226500D01*
X51586200Y-90143800D02*
X51586200Y-38298000D01*
X51514200Y-17226500D02*
X51514200Y-37841200D01*
X51270000Y-4960000D02*
X50122000Y-6108000D01*
X50122000Y-6108000D02*
X50122000Y-15834300D01*
X51586200Y-38298000D02*
X51778600Y-38105600D01*
%TO.N,M6*%
X53810000Y-7500000D02*
X53810000Y-57744100D01*
X53810000Y-57744100D02*
X52721600Y-58832500D01*
X52721600Y-86829300D02*
X53958600Y-88066300D01*
X78892700Y-38892700D02*
X78892700Y-10796300D01*
X52721600Y-58832500D02*
X52721600Y-86829300D01*
X80000000Y-40000000D02*
X78892700Y-38892700D01*
%TO.N,M7*%
X52858600Y-41272400D02*
X52858600Y-37623400D01*
X52369900Y-58607600D02*
X52369900Y-89019900D01*
X52858600Y-37623400D02*
X52665600Y-37430400D01*
X52889700Y-41436700D02*
X52889700Y-58087800D01*
X52665600Y-6104400D02*
X53810000Y-4960000D01*
X52889700Y-58087800D02*
X52369900Y-58607600D01*
X52792000Y-41339000D02*
X52858600Y-41272400D01*
X52369900Y-89019900D02*
X53810000Y-90460000D01*
X52665600Y-37430400D02*
X52665600Y-6104400D01*
X52792000Y-41339000D02*
X52889700Y-41436700D01*
%TO.N,MAI*%
X77777500Y-6067500D02*
X76670000Y-4960000D01*
X77777500Y-20598500D02*
X77777500Y-6067500D01*
X77021700Y-21354300D02*
X77777500Y-20598500D01*
X76670000Y-90460000D02*
X77021700Y-90108300D01*
X77021700Y-90108300D02*
X77021700Y-21354300D01*
%TO.N,MI*%
X78002700Y-57506200D02*
X78002700Y-91792700D01*
X79210000Y-7500000D02*
X78241000Y-8469000D01*
X78241000Y-57267900D02*
X78002700Y-57506200D01*
X78002700Y-91792700D02*
X79210000Y-93000000D01*
X78241000Y-8469000D02*
X78241000Y-57267900D01*
%TO.N,MO*%
X81438000Y-45167100D02*
X81438000Y-13738000D01*
X80480000Y-12780000D02*
X80480000Y-6230000D01*
X81438000Y-13738000D02*
X80480000Y-12780000D01*
X79306100Y-90363900D02*
X79306100Y-47299000D01*
X79210000Y-90460000D02*
X79306100Y-90363900D01*
X79306100Y-47299000D02*
X81438000Y-45167100D01*
X80480000Y-6230000D02*
X79210000Y-4960000D01*
%TO.N,OI*%
X69050000Y-7500000D02*
X69050000Y-11149700D01*
X67942400Y-20844400D02*
X67942400Y-91892400D01*
X66944500Y-13255200D02*
X66944500Y-19846500D01*
X66944500Y-19846500D02*
X67942400Y-20844400D01*
X69050000Y-11149700D02*
X66944500Y-13255200D01*
X67942400Y-91892400D02*
X69050000Y-93000000D01*
%TO.N,ONE*%
X83178700Y-91888700D02*
X83178700Y-9108600D01*
X83178700Y-9108600D02*
X84290000Y-7997300D01*
X84290000Y-7997300D02*
X84290000Y-7500000D01*
X84290000Y-93000000D02*
X83178700Y-91888700D01*
%TO.N,PC0*%
X36030000Y-7997300D02*
X36030000Y-7500000D01*
X34918700Y-9108600D02*
X36030000Y-7997300D01*
X34918700Y-91888700D02*
X34918700Y-9108600D01*
X36030000Y-93000000D02*
X34918700Y-91888700D01*
%TO.N,PC1*%
X36030000Y-41887200D02*
X36030000Y-90460000D01*
X37286900Y-6216900D02*
X37286900Y-40630300D01*
X37286900Y-40630300D02*
X36030000Y-41887200D01*
X36030000Y-4960000D02*
X37286900Y-6216900D01*
%TO.N,PC2*%
X40295300Y-61220800D02*
X40295300Y-8946300D01*
X38570000Y-93000000D02*
X39943600Y-91626400D01*
X40295300Y-8946300D02*
X38849000Y-7500000D01*
X39943600Y-91626400D02*
X39943600Y-61572500D01*
X38849000Y-7500000D02*
X38570000Y-7500000D01*
X39943600Y-61572500D02*
X40295300Y-61220800D01*
%TO.N,PC3*%
X39943600Y-9098800D02*
X39943600Y-60900000D01*
X38570000Y-62273600D02*
X38570000Y-90460000D01*
X39569700Y-8724900D02*
X39943600Y-9098800D01*
X38594000Y-8724900D02*
X39569700Y-8724900D01*
X38397400Y-8921500D02*
X38594000Y-8724900D01*
X39943600Y-60900000D02*
X38570000Y-62273600D01*
%TO.N,PC4*%
X38070000Y-94120800D02*
X39989200Y-94120800D01*
X39291900Y-9432400D02*
X39291900Y-49904100D01*
X39291900Y-49904100D02*
X36672600Y-52523400D01*
X36672600Y-52523400D02*
X36672600Y-60792600D01*
X36672600Y-60792600D02*
X37300100Y-61420100D01*
X39989200Y-94120800D02*
X41110000Y-93000000D01*
X37300100Y-93350900D02*
X38070000Y-94120800D01*
X37300100Y-61420100D02*
X37300100Y-93350900D01*
%TO.N,PC5*%
X42276100Y-8626400D02*
X42276100Y-6126100D01*
X42276100Y-6126100D02*
X41110000Y-4960000D01*
X41110000Y-90460000D02*
X41110000Y-9792500D01*
X41110000Y-9792500D02*
X42276100Y-8626400D01*
%TO.N,PC6*%
X43650000Y-93000000D02*
X42538700Y-91888700D01*
X42538700Y-91888700D02*
X42538700Y-9108600D01*
X42538700Y-9108600D02*
X43650000Y-7997300D01*
X43650000Y-7997300D02*
X43650000Y-7500000D01*
%TO.N,PC7*%
X43650000Y-59418100D02*
X44774800Y-58293300D01*
X43650000Y-90460000D02*
X43650000Y-59418100D01*
X44774800Y-6084800D02*
X43650000Y-4960000D01*
X44774800Y-58293300D02*
X44774800Y-6084800D01*
%TO.N,PCE*%
X71590000Y-90460000D02*
X71590000Y-89962700D01*
X73463200Y-13462200D02*
X72815200Y-12814200D01*
X72815200Y-6185200D02*
X71590000Y-4960000D01*
X73111500Y-20452500D02*
X73463200Y-20100800D01*
X73463200Y-20100800D02*
X73463200Y-13462200D01*
X71590000Y-89962700D02*
X73111500Y-88441200D01*
X72815200Y-12814200D02*
X72815200Y-6185200D01*
X73111500Y-88441200D02*
X73111500Y-20452500D01*
%TO.N,PCL*%
X73814900Y-20246400D02*
X73814900Y-13316500D01*
X73444200Y-12945800D02*
X73444200Y-8185800D01*
X74130000Y-93000000D02*
X73017600Y-91887600D01*
X73518600Y-88778900D02*
X73518600Y-20542700D01*
X73518600Y-20542700D02*
X73814900Y-20246400D01*
X73017600Y-91887600D02*
X73017600Y-89279900D01*
X73444200Y-8185800D02*
X74130000Y-7500000D01*
X73017600Y-89279900D02*
X73518600Y-88778900D01*
X73814900Y-13316500D02*
X73444200Y-12945800D01*
%TO.N,RST*%
X17138700Y-63412200D02*
X17138700Y-91888700D01*
X18250000Y-7500000D02*
X17138700Y-8611300D01*
X17138700Y-8611300D02*
X17138700Y-63412200D01*
X17138700Y-91888700D02*
X18250000Y-93000000D01*
%TO.N,SUB*%
X57781900Y-18142300D02*
X58403400Y-17520800D01*
X58890000Y-93000000D02*
X57781900Y-91891900D01*
X58403400Y-17520800D02*
X58403400Y-7986600D01*
X57781900Y-91891900D02*
X57781900Y-18142300D01*
X58403400Y-7986600D02*
X58890000Y-7500000D01*
%TO.N,WRH*%
X82141400Y-9401100D02*
X82852800Y-8689700D01*
X82852800Y-6062800D02*
X81750000Y-4960000D01*
X82141400Y-90068600D02*
X82141400Y-9401100D01*
X82852800Y-8689700D02*
X82852800Y-6062800D01*
X81750000Y-90460000D02*
X82141400Y-90068600D01*
%TO.N,WRL*%
X81789700Y-7539700D02*
X81750000Y-7500000D01*
X80642900Y-46634400D02*
X81789700Y-45487600D01*
X81789700Y-45487600D02*
X81789700Y-7539700D01*
X81750000Y-93000000D02*
X80642900Y-91892900D01*
X80642900Y-91892900D02*
X80642900Y-46634400D01*
%TO.N,ZF*%
X56495400Y-90314600D02*
X56495400Y-18756300D01*
X58051700Y-17200000D02*
X58051700Y-11738800D01*
X57451700Y-11138800D02*
X57451700Y-6061700D01*
X58051700Y-11738800D02*
X57451700Y-11138800D01*
X57451700Y-6061700D02*
X56350000Y-4960000D01*
X56350000Y-90460000D02*
X56495400Y-90314600D01*
X56495400Y-18756300D02*
X58051700Y-17200000D01*
%TD*%
M02*
