%TF.GenerationSoftware,KiCad,Pcbnew,10.0.5*%
%TF.CreationDate,2026-09-29T00:06:52-04:00*%
%TF.ProjectId,hub,6875622e-6b69-4636-9164-5f7063625858,rev?*%
%TF.SameCoordinates,Original*%
%TF.FileFunction,AssemblyDrawing,Top*%
%FSLAX46Y46*%
G04 Gerber Fmt 4.6, Leading zero omitted, Abs format (unit mm)*
G04 Created by KiCad (PCBNEW 10.0.5) date 2026-09-29 00:06:52*
%MOMM*%
%LPD*%
G01*
G04 APERTURE LIST*
%ADD10C,0.150000*%
%ADD11C,0.120000*%
%ADD12C,0.100000*%
G04 APERTURE END LIST*
D10*
X70084819Y-17135238D02*
X70084819Y-17706666D01*
X70084819Y-17420952D02*
X69084819Y-17420952D01*
X69084819Y-17420952D02*
X69227676Y-17516190D01*
X69227676Y-17516190D02*
X69322914Y-17611428D01*
X69322914Y-17611428D02*
X69370533Y-17706666D01*
X69084819Y-16516190D02*
X69084819Y-16420952D01*
X69084819Y-16420952D02*
X69132438Y-16325714D01*
X69132438Y-16325714D02*
X69180057Y-16278095D01*
X69180057Y-16278095D02*
X69275295Y-16230476D01*
X69275295Y-16230476D02*
X69465771Y-16182857D01*
X69465771Y-16182857D02*
X69703866Y-16182857D01*
X69703866Y-16182857D02*
X69894342Y-16230476D01*
X69894342Y-16230476D02*
X69989580Y-16278095D01*
X69989580Y-16278095D02*
X70037200Y-16325714D01*
X70037200Y-16325714D02*
X70084819Y-16420952D01*
X70084819Y-16420952D02*
X70084819Y-16516190D01*
X70084819Y-16516190D02*
X70037200Y-16611428D01*
X70037200Y-16611428D02*
X69989580Y-16659047D01*
X69989580Y-16659047D02*
X69894342Y-16706666D01*
X69894342Y-16706666D02*
X69703866Y-16754285D01*
X69703866Y-16754285D02*
X69465771Y-16754285D01*
X69465771Y-16754285D02*
X69275295Y-16706666D01*
X69275295Y-16706666D02*
X69180057Y-16659047D01*
X69180057Y-16659047D02*
X69132438Y-16611428D01*
X69132438Y-16611428D02*
X69084819Y-16516190D01*
X70084819Y-15754285D02*
X69084819Y-15754285D01*
X69703866Y-15659047D02*
X70084819Y-15373333D01*
X69418152Y-15373333D02*
X69799104Y-15754285D01*
X74824819Y-16706666D02*
X74348628Y-17039999D01*
X74824819Y-17278094D02*
X73824819Y-17278094D01*
X73824819Y-17278094D02*
X73824819Y-16897142D01*
X73824819Y-16897142D02*
X73872438Y-16801904D01*
X73872438Y-16801904D02*
X73920057Y-16754285D01*
X73920057Y-16754285D02*
X74015295Y-16706666D01*
X74015295Y-16706666D02*
X74158152Y-16706666D01*
X74158152Y-16706666D02*
X74253390Y-16754285D01*
X74253390Y-16754285D02*
X74301009Y-16801904D01*
X74301009Y-16801904D02*
X74348628Y-16897142D01*
X74348628Y-16897142D02*
X74348628Y-17278094D01*
X73824819Y-16373332D02*
X73824819Y-15754285D01*
X73824819Y-15754285D02*
X74205771Y-16087618D01*
X74205771Y-16087618D02*
X74205771Y-15944761D01*
X74205771Y-15944761D02*
X74253390Y-15849523D01*
X74253390Y-15849523D02*
X74301009Y-15801904D01*
X74301009Y-15801904D02*
X74396247Y-15754285D01*
X74396247Y-15754285D02*
X74634342Y-15754285D01*
X74634342Y-15754285D02*
X74729580Y-15801904D01*
X74729580Y-15801904D02*
X74777200Y-15849523D01*
X74777200Y-15849523D02*
X74824819Y-15944761D01*
X74824819Y-15944761D02*
X74824819Y-16230475D01*
X74824819Y-16230475D02*
X74777200Y-16325713D01*
X74777200Y-16325713D02*
X74729580Y-16373332D01*
X44084819Y-16659047D02*
X44084819Y-17230475D01*
X44084819Y-16944761D02*
X43084819Y-16944761D01*
X43084819Y-16944761D02*
X43227676Y-17039999D01*
X43227676Y-17039999D02*
X43322914Y-17135237D01*
X43322914Y-17135237D02*
X43370533Y-17230475D01*
X44084819Y-16230475D02*
X43084819Y-16230475D01*
X43703866Y-16135237D02*
X44084819Y-15849523D01*
X43418152Y-15849523D02*
X43799104Y-16230475D01*
X48824819Y-16706666D02*
X48348628Y-17039999D01*
X48824819Y-17278094D02*
X47824819Y-17278094D01*
X47824819Y-17278094D02*
X47824819Y-16897142D01*
X47824819Y-16897142D02*
X47872438Y-16801904D01*
X47872438Y-16801904D02*
X47920057Y-16754285D01*
X47920057Y-16754285D02*
X48015295Y-16706666D01*
X48015295Y-16706666D02*
X48158152Y-16706666D01*
X48158152Y-16706666D02*
X48253390Y-16754285D01*
X48253390Y-16754285D02*
X48301009Y-16801904D01*
X48301009Y-16801904D02*
X48348628Y-16897142D01*
X48348628Y-16897142D02*
X48348628Y-17278094D01*
X48824819Y-15754285D02*
X48824819Y-16325713D01*
X48824819Y-16039999D02*
X47824819Y-16039999D01*
X47824819Y-16039999D02*
X47967676Y-16135237D01*
X47967676Y-16135237D02*
X48062914Y-16230475D01*
X48062914Y-16230475D02*
X48110533Y-16325713D01*
X3190476Y-54604819D02*
X3190476Y-53604819D01*
X3190476Y-53604819D02*
X3523809Y-54319104D01*
X3523809Y-54319104D02*
X3857142Y-53604819D01*
X3857142Y-53604819D02*
X3857142Y-54604819D01*
X4238095Y-53604819D02*
X4857142Y-53604819D01*
X4857142Y-53604819D02*
X4523809Y-53985771D01*
X4523809Y-53985771D02*
X4666666Y-53985771D01*
X4666666Y-53985771D02*
X4761904Y-54033390D01*
X4761904Y-54033390D02*
X4809523Y-54081009D01*
X4809523Y-54081009D02*
X4857142Y-54176247D01*
X4857142Y-54176247D02*
X4857142Y-54414342D01*
X4857142Y-54414342D02*
X4809523Y-54509580D01*
X4809523Y-54509580D02*
X4761904Y-54557200D01*
X4761904Y-54557200D02*
X4666666Y-54604819D01*
X4666666Y-54604819D02*
X4380952Y-54604819D01*
X4380952Y-54604819D02*
X4285714Y-54557200D01*
X4285714Y-54557200D02*
X4238095Y-54509580D01*
X3238095Y-50454819D02*
X3238095Y-49454819D01*
X3238095Y-49931009D02*
X3809523Y-49931009D01*
X3809523Y-50454819D02*
X3809523Y-49454819D01*
X4809523Y-50454819D02*
X4238095Y-50454819D01*
X4523809Y-50454819D02*
X4523809Y-49454819D01*
X4523809Y-49454819D02*
X4428571Y-49597676D01*
X4428571Y-49597676D02*
X4333333Y-49692914D01*
X4333333Y-49692914D02*
X4238095Y-49740533D01*
X58704819Y-16119047D02*
X58704819Y-16690475D01*
X58704819Y-16404761D02*
X57704819Y-16404761D01*
X57704819Y-16404761D02*
X57847676Y-16499999D01*
X57847676Y-16499999D02*
X57942914Y-16595237D01*
X57942914Y-16595237D02*
X57990533Y-16690475D01*
X57704819Y-15499999D02*
X57704819Y-15404761D01*
X57704819Y-15404761D02*
X57752438Y-15309523D01*
X57752438Y-15309523D02*
X57800057Y-15261904D01*
X57800057Y-15261904D02*
X57895295Y-15214285D01*
X57895295Y-15214285D02*
X58085771Y-15166666D01*
X58085771Y-15166666D02*
X58323866Y-15166666D01*
X58323866Y-15166666D02*
X58514342Y-15214285D01*
X58514342Y-15214285D02*
X58609580Y-15261904D01*
X58609580Y-15261904D02*
X58657200Y-15309523D01*
X58657200Y-15309523D02*
X58704819Y-15404761D01*
X58704819Y-15404761D02*
X58704819Y-15499999D01*
X58704819Y-15499999D02*
X58657200Y-15595237D01*
X58657200Y-15595237D02*
X58609580Y-15642856D01*
X58609580Y-15642856D02*
X58514342Y-15690475D01*
X58514342Y-15690475D02*
X58323866Y-15738094D01*
X58323866Y-15738094D02*
X58085771Y-15738094D01*
X58085771Y-15738094D02*
X57895295Y-15690475D01*
X57895295Y-15690475D02*
X57800057Y-15642856D01*
X57800057Y-15642856D02*
X57752438Y-15595237D01*
X57752438Y-15595237D02*
X57704819Y-15499999D01*
X57704819Y-14547618D02*
X57704819Y-14452380D01*
X57704819Y-14452380D02*
X57752438Y-14357142D01*
X57752438Y-14357142D02*
X57800057Y-14309523D01*
X57800057Y-14309523D02*
X57895295Y-14261904D01*
X57895295Y-14261904D02*
X58085771Y-14214285D01*
X58085771Y-14214285D02*
X58323866Y-14214285D01*
X58323866Y-14214285D02*
X58514342Y-14261904D01*
X58514342Y-14261904D02*
X58609580Y-14309523D01*
X58609580Y-14309523D02*
X58657200Y-14357142D01*
X58657200Y-14357142D02*
X58704819Y-14452380D01*
X58704819Y-14452380D02*
X58704819Y-14547618D01*
X58704819Y-14547618D02*
X58657200Y-14642856D01*
X58657200Y-14642856D02*
X58609580Y-14690475D01*
X58609580Y-14690475D02*
X58514342Y-14738094D01*
X58514342Y-14738094D02*
X58323866Y-14785713D01*
X58323866Y-14785713D02*
X58085771Y-14785713D01*
X58085771Y-14785713D02*
X57895295Y-14738094D01*
X57895295Y-14738094D02*
X57800057Y-14690475D01*
X57800057Y-14690475D02*
X57752438Y-14642856D01*
X57752438Y-14642856D02*
X57704819Y-14547618D01*
X58038152Y-13357142D02*
X58704819Y-13357142D01*
X58038152Y-13785713D02*
X58561961Y-13785713D01*
X58561961Y-13785713D02*
X58657200Y-13738094D01*
X58657200Y-13738094D02*
X58704819Y-13642856D01*
X58704819Y-13642856D02*
X58704819Y-13499999D01*
X58704819Y-13499999D02*
X58657200Y-13404761D01*
X58657200Y-13404761D02*
X58609580Y-13357142D01*
X62359580Y-15166666D02*
X62407200Y-15214285D01*
X62407200Y-15214285D02*
X62454819Y-15357142D01*
X62454819Y-15357142D02*
X62454819Y-15452380D01*
X62454819Y-15452380D02*
X62407200Y-15595237D01*
X62407200Y-15595237D02*
X62311961Y-15690475D01*
X62311961Y-15690475D02*
X62216723Y-15738094D01*
X62216723Y-15738094D02*
X62026247Y-15785713D01*
X62026247Y-15785713D02*
X61883390Y-15785713D01*
X61883390Y-15785713D02*
X61692914Y-15738094D01*
X61692914Y-15738094D02*
X61597676Y-15690475D01*
X61597676Y-15690475D02*
X61502438Y-15595237D01*
X61502438Y-15595237D02*
X61454819Y-15452380D01*
X61454819Y-15452380D02*
X61454819Y-15357142D01*
X61454819Y-15357142D02*
X61502438Y-15214285D01*
X61502438Y-15214285D02*
X61550057Y-15166666D01*
X61550057Y-14785713D02*
X61502438Y-14738094D01*
X61502438Y-14738094D02*
X61454819Y-14642856D01*
X61454819Y-14642856D02*
X61454819Y-14404761D01*
X61454819Y-14404761D02*
X61502438Y-14309523D01*
X61502438Y-14309523D02*
X61550057Y-14261904D01*
X61550057Y-14261904D02*
X61645295Y-14214285D01*
X61645295Y-14214285D02*
X61740533Y-14214285D01*
X61740533Y-14214285D02*
X61883390Y-14261904D01*
X61883390Y-14261904D02*
X62454819Y-14833332D01*
X62454819Y-14833332D02*
X62454819Y-14214285D01*
X52095238Y-57131009D02*
X52238095Y-57178628D01*
X52238095Y-57178628D02*
X52285714Y-57226247D01*
X52285714Y-57226247D02*
X52333333Y-57321485D01*
X52333333Y-57321485D02*
X52333333Y-57464342D01*
X52333333Y-57464342D02*
X52285714Y-57559580D01*
X52285714Y-57559580D02*
X52238095Y-57607200D01*
X52238095Y-57607200D02*
X52142857Y-57654819D01*
X52142857Y-57654819D02*
X51761905Y-57654819D01*
X51761905Y-57654819D02*
X51761905Y-56654819D01*
X51761905Y-56654819D02*
X52095238Y-56654819D01*
X52095238Y-56654819D02*
X52190476Y-56702438D01*
X52190476Y-56702438D02*
X52238095Y-56750057D01*
X52238095Y-56750057D02*
X52285714Y-56845295D01*
X52285714Y-56845295D02*
X52285714Y-56940533D01*
X52285714Y-56940533D02*
X52238095Y-57035771D01*
X52238095Y-57035771D02*
X52190476Y-57083390D01*
X52190476Y-57083390D02*
X52095238Y-57131009D01*
X52095238Y-57131009D02*
X51761905Y-57131009D01*
X52761905Y-56654819D02*
X52761905Y-57464342D01*
X52761905Y-57464342D02*
X52809524Y-57559580D01*
X52809524Y-57559580D02*
X52857143Y-57607200D01*
X52857143Y-57607200D02*
X52952381Y-57654819D01*
X52952381Y-57654819D02*
X53142857Y-57654819D01*
X53142857Y-57654819D02*
X53238095Y-57607200D01*
X53238095Y-57607200D02*
X53285714Y-57559580D01*
X53285714Y-57559580D02*
X53333333Y-57464342D01*
X53333333Y-57464342D02*
X53333333Y-56654819D01*
X53761905Y-57607200D02*
X53904762Y-57654819D01*
X53904762Y-57654819D02*
X54142857Y-57654819D01*
X54142857Y-57654819D02*
X54238095Y-57607200D01*
X54238095Y-57607200D02*
X54285714Y-57559580D01*
X54285714Y-57559580D02*
X54333333Y-57464342D01*
X54333333Y-57464342D02*
X54333333Y-57369104D01*
X54333333Y-57369104D02*
X54285714Y-57273866D01*
X54285714Y-57273866D02*
X54238095Y-57226247D01*
X54238095Y-57226247D02*
X54142857Y-57178628D01*
X54142857Y-57178628D02*
X53952381Y-57131009D01*
X53952381Y-57131009D02*
X53857143Y-57083390D01*
X53857143Y-57083390D02*
X53809524Y-57035771D01*
X53809524Y-57035771D02*
X53761905Y-56940533D01*
X53761905Y-56940533D02*
X53761905Y-56845295D01*
X53761905Y-56845295D02*
X53809524Y-56750057D01*
X53809524Y-56750057D02*
X53857143Y-56702438D01*
X53857143Y-56702438D02*
X53952381Y-56654819D01*
X53952381Y-56654819D02*
X54190476Y-56654819D01*
X54190476Y-56654819D02*
X54333333Y-56702438D01*
X54666667Y-56654819D02*
X55285714Y-56654819D01*
X55285714Y-56654819D02*
X54952381Y-57035771D01*
X54952381Y-57035771D02*
X55095238Y-57035771D01*
X55095238Y-57035771D02*
X55190476Y-57083390D01*
X55190476Y-57083390D02*
X55238095Y-57131009D01*
X55238095Y-57131009D02*
X55285714Y-57226247D01*
X55285714Y-57226247D02*
X55285714Y-57464342D01*
X55285714Y-57464342D02*
X55238095Y-57559580D01*
X55238095Y-57559580D02*
X55190476Y-57607200D01*
X55190476Y-57607200D02*
X55095238Y-57654819D01*
X55095238Y-57654819D02*
X54809524Y-57654819D01*
X54809524Y-57654819D02*
X54714286Y-57607200D01*
X54714286Y-57607200D02*
X54666667Y-57559580D01*
X55666667Y-56988152D02*
X56380952Y-56988152D01*
X55952381Y-56559580D02*
X55666667Y-57845295D01*
X56285714Y-57416723D02*
X55571429Y-57416723D01*
X56000000Y-57845295D02*
X56285714Y-56559580D01*
X53438095Y-61954819D02*
X54009523Y-61954819D01*
X53723809Y-62954819D02*
X53723809Y-61954819D01*
X54342857Y-62954819D02*
X54342857Y-61954819D01*
X54342857Y-61954819D02*
X54723809Y-61954819D01*
X54723809Y-61954819D02*
X54819047Y-62002438D01*
X54819047Y-62002438D02*
X54866666Y-62050057D01*
X54866666Y-62050057D02*
X54914285Y-62145295D01*
X54914285Y-62145295D02*
X54914285Y-62288152D01*
X54914285Y-62288152D02*
X54866666Y-62383390D01*
X54866666Y-62383390D02*
X54819047Y-62431009D01*
X54819047Y-62431009D02*
X54723809Y-62478628D01*
X54723809Y-62478628D02*
X54342857Y-62478628D01*
X55771428Y-62288152D02*
X55771428Y-62954819D01*
X55533333Y-61907200D02*
X55295238Y-62621485D01*
X55295238Y-62621485D02*
X55914285Y-62621485D01*
X95190476Y-54604819D02*
X95190476Y-53604819D01*
X95190476Y-53604819D02*
X95523809Y-54319104D01*
X95523809Y-54319104D02*
X95857142Y-53604819D01*
X95857142Y-53604819D02*
X95857142Y-54604819D01*
X96238095Y-53604819D02*
X96857142Y-53604819D01*
X96857142Y-53604819D02*
X96523809Y-53985771D01*
X96523809Y-53985771D02*
X96666666Y-53985771D01*
X96666666Y-53985771D02*
X96761904Y-54033390D01*
X96761904Y-54033390D02*
X96809523Y-54081009D01*
X96809523Y-54081009D02*
X96857142Y-54176247D01*
X96857142Y-54176247D02*
X96857142Y-54414342D01*
X96857142Y-54414342D02*
X96809523Y-54509580D01*
X96809523Y-54509580D02*
X96761904Y-54557200D01*
X96761904Y-54557200D02*
X96666666Y-54604819D01*
X96666666Y-54604819D02*
X96380952Y-54604819D01*
X96380952Y-54604819D02*
X96285714Y-54557200D01*
X96285714Y-54557200D02*
X96238095Y-54509580D01*
X95238095Y-50454819D02*
X95238095Y-49454819D01*
X95238095Y-49931009D02*
X95809523Y-49931009D01*
X95809523Y-50454819D02*
X95809523Y-49454819D01*
X96238095Y-49550057D02*
X96285714Y-49502438D01*
X96285714Y-49502438D02*
X96380952Y-49454819D01*
X96380952Y-49454819D02*
X96619047Y-49454819D01*
X96619047Y-49454819D02*
X96714285Y-49502438D01*
X96714285Y-49502438D02*
X96761904Y-49550057D01*
X96761904Y-49550057D02*
X96809523Y-49645295D01*
X96809523Y-49645295D02*
X96809523Y-49740533D01*
X96809523Y-49740533D02*
X96761904Y-49883390D01*
X96761904Y-49883390D02*
X96190476Y-50454819D01*
X96190476Y-50454819D02*
X96809523Y-50454819D01*
X66084819Y-17135238D02*
X66084819Y-17706666D01*
X66084819Y-17420952D02*
X65084819Y-17420952D01*
X65084819Y-17420952D02*
X65227676Y-17516190D01*
X65227676Y-17516190D02*
X65322914Y-17611428D01*
X65322914Y-17611428D02*
X65370533Y-17706666D01*
X65084819Y-16516190D02*
X65084819Y-16420952D01*
X65084819Y-16420952D02*
X65132438Y-16325714D01*
X65132438Y-16325714D02*
X65180057Y-16278095D01*
X65180057Y-16278095D02*
X65275295Y-16230476D01*
X65275295Y-16230476D02*
X65465771Y-16182857D01*
X65465771Y-16182857D02*
X65703866Y-16182857D01*
X65703866Y-16182857D02*
X65894342Y-16230476D01*
X65894342Y-16230476D02*
X65989580Y-16278095D01*
X65989580Y-16278095D02*
X66037200Y-16325714D01*
X66037200Y-16325714D02*
X66084819Y-16420952D01*
X66084819Y-16420952D02*
X66084819Y-16516190D01*
X66084819Y-16516190D02*
X66037200Y-16611428D01*
X66037200Y-16611428D02*
X65989580Y-16659047D01*
X65989580Y-16659047D02*
X65894342Y-16706666D01*
X65894342Y-16706666D02*
X65703866Y-16754285D01*
X65703866Y-16754285D02*
X65465771Y-16754285D01*
X65465771Y-16754285D02*
X65275295Y-16706666D01*
X65275295Y-16706666D02*
X65180057Y-16659047D01*
X65180057Y-16659047D02*
X65132438Y-16611428D01*
X65132438Y-16611428D02*
X65084819Y-16516190D01*
X66084819Y-15754285D02*
X65084819Y-15754285D01*
X65703866Y-15659047D02*
X66084819Y-15373333D01*
X65418152Y-15373333D02*
X65799104Y-15754285D01*
X70824819Y-16706666D02*
X70348628Y-17039999D01*
X70824819Y-17278094D02*
X69824819Y-17278094D01*
X69824819Y-17278094D02*
X69824819Y-16897142D01*
X69824819Y-16897142D02*
X69872438Y-16801904D01*
X69872438Y-16801904D02*
X69920057Y-16754285D01*
X69920057Y-16754285D02*
X70015295Y-16706666D01*
X70015295Y-16706666D02*
X70158152Y-16706666D01*
X70158152Y-16706666D02*
X70253390Y-16754285D01*
X70253390Y-16754285D02*
X70301009Y-16801904D01*
X70301009Y-16801904D02*
X70348628Y-16897142D01*
X70348628Y-16897142D02*
X70348628Y-17278094D01*
X69920057Y-16325713D02*
X69872438Y-16278094D01*
X69872438Y-16278094D02*
X69824819Y-16182856D01*
X69824819Y-16182856D02*
X69824819Y-15944761D01*
X69824819Y-15944761D02*
X69872438Y-15849523D01*
X69872438Y-15849523D02*
X69920057Y-15801904D01*
X69920057Y-15801904D02*
X70015295Y-15754285D01*
X70015295Y-15754285D02*
X70110533Y-15754285D01*
X70110533Y-15754285D02*
X70253390Y-15801904D01*
X70253390Y-15801904D02*
X70824819Y-16373332D01*
X70824819Y-16373332D02*
X70824819Y-15754285D01*
X61404761Y-57559580D02*
X61357142Y-57607200D01*
X61357142Y-57607200D02*
X61214285Y-57654819D01*
X61214285Y-57654819D02*
X61119047Y-57654819D01*
X61119047Y-57654819D02*
X60976190Y-57607200D01*
X60976190Y-57607200D02*
X60880952Y-57511961D01*
X60880952Y-57511961D02*
X60833333Y-57416723D01*
X60833333Y-57416723D02*
X60785714Y-57226247D01*
X60785714Y-57226247D02*
X60785714Y-57083390D01*
X60785714Y-57083390D02*
X60833333Y-56892914D01*
X60833333Y-56892914D02*
X60880952Y-56797676D01*
X60880952Y-56797676D02*
X60976190Y-56702438D01*
X60976190Y-56702438D02*
X61119047Y-56654819D01*
X61119047Y-56654819D02*
X61214285Y-56654819D01*
X61214285Y-56654819D02*
X61357142Y-56702438D01*
X61357142Y-56702438D02*
X61404761Y-56750057D01*
X62309523Y-57654819D02*
X61833333Y-57654819D01*
X61833333Y-57654819D02*
X61833333Y-56654819D01*
X62642857Y-57654819D02*
X62642857Y-56654819D01*
X63214285Y-57654819D02*
X62785714Y-57083390D01*
X63214285Y-56654819D02*
X62642857Y-57226247D01*
X61438095Y-61954819D02*
X62009523Y-61954819D01*
X61723809Y-62954819D02*
X61723809Y-61954819D01*
X62342857Y-62954819D02*
X62342857Y-61954819D01*
X62342857Y-61954819D02*
X62723809Y-61954819D01*
X62723809Y-61954819D02*
X62819047Y-62002438D01*
X62819047Y-62002438D02*
X62866666Y-62050057D01*
X62866666Y-62050057D02*
X62914285Y-62145295D01*
X62914285Y-62145295D02*
X62914285Y-62288152D01*
X62914285Y-62288152D02*
X62866666Y-62383390D01*
X62866666Y-62383390D02*
X62819047Y-62431009D01*
X62819047Y-62431009D02*
X62723809Y-62478628D01*
X62723809Y-62478628D02*
X62342857Y-62478628D01*
X63819047Y-61954819D02*
X63342857Y-61954819D01*
X63342857Y-61954819D02*
X63295238Y-62431009D01*
X63295238Y-62431009D02*
X63342857Y-62383390D01*
X63342857Y-62383390D02*
X63438095Y-62335771D01*
X63438095Y-62335771D02*
X63676190Y-62335771D01*
X63676190Y-62335771D02*
X63771428Y-62383390D01*
X63771428Y-62383390D02*
X63819047Y-62431009D01*
X63819047Y-62431009D02*
X63866666Y-62526247D01*
X63866666Y-62526247D02*
X63866666Y-62764342D01*
X63866666Y-62764342D02*
X63819047Y-62859580D01*
X63819047Y-62859580D02*
X63771428Y-62907200D01*
X63771428Y-62907200D02*
X63676190Y-62954819D01*
X63676190Y-62954819D02*
X63438095Y-62954819D01*
X63438095Y-62954819D02*
X63342857Y-62907200D01*
X63342857Y-62907200D02*
X63295238Y-62859580D01*
X53414819Y-20372857D02*
X53414819Y-20849047D01*
X53414819Y-20849047D02*
X52414819Y-20849047D01*
X52891009Y-20039523D02*
X52891009Y-19706190D01*
X53414819Y-19563333D02*
X53414819Y-20039523D01*
X53414819Y-20039523D02*
X52414819Y-20039523D01*
X52414819Y-20039523D02*
X52414819Y-19563333D01*
X53414819Y-19134761D02*
X52414819Y-19134761D01*
X52414819Y-19134761D02*
X52414819Y-18896666D01*
X52414819Y-18896666D02*
X52462438Y-18753809D01*
X52462438Y-18753809D02*
X52557676Y-18658571D01*
X52557676Y-18658571D02*
X52652914Y-18610952D01*
X52652914Y-18610952D02*
X52843390Y-18563333D01*
X52843390Y-18563333D02*
X52986247Y-18563333D01*
X52986247Y-18563333D02*
X53176723Y-18610952D01*
X53176723Y-18610952D02*
X53271961Y-18658571D01*
X53271961Y-18658571D02*
X53367200Y-18753809D01*
X53367200Y-18753809D02*
X53414819Y-18896666D01*
X53414819Y-18896666D02*
X53414819Y-19134761D01*
D11*
X50363855Y-20320475D02*
X49563855Y-20320475D01*
X49563855Y-20320475D02*
X49563855Y-20129999D01*
X49563855Y-20129999D02*
X49601950Y-20015713D01*
X49601950Y-20015713D02*
X49678140Y-19939523D01*
X49678140Y-19939523D02*
X49754331Y-19901428D01*
X49754331Y-19901428D02*
X49906712Y-19863332D01*
X49906712Y-19863332D02*
X50020998Y-19863332D01*
X50020998Y-19863332D02*
X50173379Y-19901428D01*
X50173379Y-19901428D02*
X50249569Y-19939523D01*
X50249569Y-19939523D02*
X50325760Y-20015713D01*
X50325760Y-20015713D02*
X50363855Y-20129999D01*
X50363855Y-20129999D02*
X50363855Y-20320475D01*
X50363855Y-19101428D02*
X50363855Y-19558571D01*
X50363855Y-19329999D02*
X49563855Y-19329999D01*
X49563855Y-19329999D02*
X49678140Y-19406190D01*
X49678140Y-19406190D02*
X49754331Y-19482380D01*
X49754331Y-19482380D02*
X49792426Y-19558571D01*
D10*
X82180057Y-44182856D02*
X82132438Y-44135237D01*
X82132438Y-44135237D02*
X82084819Y-44039999D01*
X82084819Y-44039999D02*
X82084819Y-43801904D01*
X82084819Y-43801904D02*
X82132438Y-43706666D01*
X82132438Y-43706666D02*
X82180057Y-43659047D01*
X82180057Y-43659047D02*
X82275295Y-43611428D01*
X82275295Y-43611428D02*
X82370533Y-43611428D01*
X82370533Y-43611428D02*
X82513390Y-43659047D01*
X82513390Y-43659047D02*
X83084819Y-44230475D01*
X83084819Y-44230475D02*
X83084819Y-43611428D01*
X82180057Y-43230475D02*
X82132438Y-43182856D01*
X82132438Y-43182856D02*
X82084819Y-43087618D01*
X82084819Y-43087618D02*
X82084819Y-42849523D01*
X82084819Y-42849523D02*
X82132438Y-42754285D01*
X82132438Y-42754285D02*
X82180057Y-42706666D01*
X82180057Y-42706666D02*
X82275295Y-42659047D01*
X82275295Y-42659047D02*
X82370533Y-42659047D01*
X82370533Y-42659047D02*
X82513390Y-42706666D01*
X82513390Y-42706666D02*
X83084819Y-43278094D01*
X83084819Y-43278094D02*
X83084819Y-42659047D01*
X82084819Y-42039999D02*
X82084819Y-41944761D01*
X82084819Y-41944761D02*
X82132438Y-41849523D01*
X82132438Y-41849523D02*
X82180057Y-41801904D01*
X82180057Y-41801904D02*
X82275295Y-41754285D01*
X82275295Y-41754285D02*
X82465771Y-41706666D01*
X82465771Y-41706666D02*
X82703866Y-41706666D01*
X82703866Y-41706666D02*
X82894342Y-41754285D01*
X82894342Y-41754285D02*
X82989580Y-41801904D01*
X82989580Y-41801904D02*
X83037200Y-41849523D01*
X83037200Y-41849523D02*
X83084819Y-41944761D01*
X83084819Y-41944761D02*
X83084819Y-42039999D01*
X83084819Y-42039999D02*
X83037200Y-42135237D01*
X83037200Y-42135237D02*
X82989580Y-42182856D01*
X82989580Y-42182856D02*
X82894342Y-42230475D01*
X82894342Y-42230475D02*
X82703866Y-42278094D01*
X82703866Y-42278094D02*
X82465771Y-42278094D01*
X82465771Y-42278094D02*
X82275295Y-42230475D01*
X82275295Y-42230475D02*
X82180057Y-42182856D01*
X82180057Y-42182856D02*
X82132438Y-42135237D01*
X82132438Y-42135237D02*
X82084819Y-42039999D01*
X83084819Y-41278094D02*
X82084819Y-41278094D01*
X82703866Y-41182856D02*
X83084819Y-40897142D01*
X82418152Y-40897142D02*
X82799104Y-41278094D01*
X87824819Y-43182857D02*
X87348628Y-43516190D01*
X87824819Y-43754285D02*
X86824819Y-43754285D01*
X86824819Y-43754285D02*
X86824819Y-43373333D01*
X86824819Y-43373333D02*
X86872438Y-43278095D01*
X86872438Y-43278095D02*
X86920057Y-43230476D01*
X86920057Y-43230476D02*
X87015295Y-43182857D01*
X87015295Y-43182857D02*
X87158152Y-43182857D01*
X87158152Y-43182857D02*
X87253390Y-43230476D01*
X87253390Y-43230476D02*
X87301009Y-43278095D01*
X87301009Y-43278095D02*
X87348628Y-43373333D01*
X87348628Y-43373333D02*
X87348628Y-43754285D01*
X87824819Y-42230476D02*
X87824819Y-42801904D01*
X87824819Y-42516190D02*
X86824819Y-42516190D01*
X86824819Y-42516190D02*
X86967676Y-42611428D01*
X86967676Y-42611428D02*
X87062914Y-42706666D01*
X87062914Y-42706666D02*
X87110533Y-42801904D01*
X86824819Y-41897142D02*
X86824819Y-41278095D01*
X86824819Y-41278095D02*
X87205771Y-41611428D01*
X87205771Y-41611428D02*
X87205771Y-41468571D01*
X87205771Y-41468571D02*
X87253390Y-41373333D01*
X87253390Y-41373333D02*
X87301009Y-41325714D01*
X87301009Y-41325714D02*
X87396247Y-41278095D01*
X87396247Y-41278095D02*
X87634342Y-41278095D01*
X87634342Y-41278095D02*
X87729580Y-41325714D01*
X87729580Y-41325714D02*
X87777200Y-41373333D01*
X87777200Y-41373333D02*
X87824819Y-41468571D01*
X87824819Y-41468571D02*
X87824819Y-41754285D01*
X87824819Y-41754285D02*
X87777200Y-41849523D01*
X87777200Y-41849523D02*
X87729580Y-41897142D01*
X72180057Y-44182856D02*
X72132438Y-44135237D01*
X72132438Y-44135237D02*
X72084819Y-44039999D01*
X72084819Y-44039999D02*
X72084819Y-43801904D01*
X72084819Y-43801904D02*
X72132438Y-43706666D01*
X72132438Y-43706666D02*
X72180057Y-43659047D01*
X72180057Y-43659047D02*
X72275295Y-43611428D01*
X72275295Y-43611428D02*
X72370533Y-43611428D01*
X72370533Y-43611428D02*
X72513390Y-43659047D01*
X72513390Y-43659047D02*
X73084819Y-44230475D01*
X73084819Y-44230475D02*
X73084819Y-43611428D01*
X72180057Y-43230475D02*
X72132438Y-43182856D01*
X72132438Y-43182856D02*
X72084819Y-43087618D01*
X72084819Y-43087618D02*
X72084819Y-42849523D01*
X72084819Y-42849523D02*
X72132438Y-42754285D01*
X72132438Y-42754285D02*
X72180057Y-42706666D01*
X72180057Y-42706666D02*
X72275295Y-42659047D01*
X72275295Y-42659047D02*
X72370533Y-42659047D01*
X72370533Y-42659047D02*
X72513390Y-42706666D01*
X72513390Y-42706666D02*
X73084819Y-43278094D01*
X73084819Y-43278094D02*
X73084819Y-42659047D01*
X72084819Y-42039999D02*
X72084819Y-41944761D01*
X72084819Y-41944761D02*
X72132438Y-41849523D01*
X72132438Y-41849523D02*
X72180057Y-41801904D01*
X72180057Y-41801904D02*
X72275295Y-41754285D01*
X72275295Y-41754285D02*
X72465771Y-41706666D01*
X72465771Y-41706666D02*
X72703866Y-41706666D01*
X72703866Y-41706666D02*
X72894342Y-41754285D01*
X72894342Y-41754285D02*
X72989580Y-41801904D01*
X72989580Y-41801904D02*
X73037200Y-41849523D01*
X73037200Y-41849523D02*
X73084819Y-41944761D01*
X73084819Y-41944761D02*
X73084819Y-42039999D01*
X73084819Y-42039999D02*
X73037200Y-42135237D01*
X73037200Y-42135237D02*
X72989580Y-42182856D01*
X72989580Y-42182856D02*
X72894342Y-42230475D01*
X72894342Y-42230475D02*
X72703866Y-42278094D01*
X72703866Y-42278094D02*
X72465771Y-42278094D01*
X72465771Y-42278094D02*
X72275295Y-42230475D01*
X72275295Y-42230475D02*
X72180057Y-42182856D01*
X72180057Y-42182856D02*
X72132438Y-42135237D01*
X72132438Y-42135237D02*
X72084819Y-42039999D01*
X73084819Y-41278094D02*
X72084819Y-41278094D01*
X72703866Y-41182856D02*
X73084819Y-40897142D01*
X72418152Y-40897142D02*
X72799104Y-41278094D01*
X77824819Y-43182857D02*
X77348628Y-43516190D01*
X77824819Y-43754285D02*
X76824819Y-43754285D01*
X76824819Y-43754285D02*
X76824819Y-43373333D01*
X76824819Y-43373333D02*
X76872438Y-43278095D01*
X76872438Y-43278095D02*
X76920057Y-43230476D01*
X76920057Y-43230476D02*
X77015295Y-43182857D01*
X77015295Y-43182857D02*
X77158152Y-43182857D01*
X77158152Y-43182857D02*
X77253390Y-43230476D01*
X77253390Y-43230476D02*
X77301009Y-43278095D01*
X77301009Y-43278095D02*
X77348628Y-43373333D01*
X77348628Y-43373333D02*
X77348628Y-43754285D01*
X77824819Y-42230476D02*
X77824819Y-42801904D01*
X77824819Y-42516190D02*
X76824819Y-42516190D01*
X76824819Y-42516190D02*
X76967676Y-42611428D01*
X76967676Y-42611428D02*
X77062914Y-42706666D01*
X77062914Y-42706666D02*
X77110533Y-42801904D01*
X77824819Y-41278095D02*
X77824819Y-41849523D01*
X77824819Y-41563809D02*
X76824819Y-41563809D01*
X76824819Y-41563809D02*
X76967676Y-41659047D01*
X76967676Y-41659047D02*
X77062914Y-41754285D01*
X77062914Y-41754285D02*
X77110533Y-41849523D01*
X52180057Y-44182856D02*
X52132438Y-44135237D01*
X52132438Y-44135237D02*
X52084819Y-44039999D01*
X52084819Y-44039999D02*
X52084819Y-43801904D01*
X52084819Y-43801904D02*
X52132438Y-43706666D01*
X52132438Y-43706666D02*
X52180057Y-43659047D01*
X52180057Y-43659047D02*
X52275295Y-43611428D01*
X52275295Y-43611428D02*
X52370533Y-43611428D01*
X52370533Y-43611428D02*
X52513390Y-43659047D01*
X52513390Y-43659047D02*
X53084819Y-44230475D01*
X53084819Y-44230475D02*
X53084819Y-43611428D01*
X52180057Y-43230475D02*
X52132438Y-43182856D01*
X52132438Y-43182856D02*
X52084819Y-43087618D01*
X52084819Y-43087618D02*
X52084819Y-42849523D01*
X52084819Y-42849523D02*
X52132438Y-42754285D01*
X52132438Y-42754285D02*
X52180057Y-42706666D01*
X52180057Y-42706666D02*
X52275295Y-42659047D01*
X52275295Y-42659047D02*
X52370533Y-42659047D01*
X52370533Y-42659047D02*
X52513390Y-42706666D01*
X52513390Y-42706666D02*
X53084819Y-43278094D01*
X53084819Y-43278094D02*
X53084819Y-42659047D01*
X52084819Y-42039999D02*
X52084819Y-41944761D01*
X52084819Y-41944761D02*
X52132438Y-41849523D01*
X52132438Y-41849523D02*
X52180057Y-41801904D01*
X52180057Y-41801904D02*
X52275295Y-41754285D01*
X52275295Y-41754285D02*
X52465771Y-41706666D01*
X52465771Y-41706666D02*
X52703866Y-41706666D01*
X52703866Y-41706666D02*
X52894342Y-41754285D01*
X52894342Y-41754285D02*
X52989580Y-41801904D01*
X52989580Y-41801904D02*
X53037200Y-41849523D01*
X53037200Y-41849523D02*
X53084819Y-41944761D01*
X53084819Y-41944761D02*
X53084819Y-42039999D01*
X53084819Y-42039999D02*
X53037200Y-42135237D01*
X53037200Y-42135237D02*
X52989580Y-42182856D01*
X52989580Y-42182856D02*
X52894342Y-42230475D01*
X52894342Y-42230475D02*
X52703866Y-42278094D01*
X52703866Y-42278094D02*
X52465771Y-42278094D01*
X52465771Y-42278094D02*
X52275295Y-42230475D01*
X52275295Y-42230475D02*
X52180057Y-42182856D01*
X52180057Y-42182856D02*
X52132438Y-42135237D01*
X52132438Y-42135237D02*
X52084819Y-42039999D01*
X53084819Y-41278094D02*
X52084819Y-41278094D01*
X52703866Y-41182856D02*
X53084819Y-40897142D01*
X52418152Y-40897142D02*
X52799104Y-41278094D01*
X57824819Y-42706666D02*
X57348628Y-43039999D01*
X57824819Y-43278094D02*
X56824819Y-43278094D01*
X56824819Y-43278094D02*
X56824819Y-42897142D01*
X56824819Y-42897142D02*
X56872438Y-42801904D01*
X56872438Y-42801904D02*
X56920057Y-42754285D01*
X56920057Y-42754285D02*
X57015295Y-42706666D01*
X57015295Y-42706666D02*
X57158152Y-42706666D01*
X57158152Y-42706666D02*
X57253390Y-42754285D01*
X57253390Y-42754285D02*
X57301009Y-42801904D01*
X57301009Y-42801904D02*
X57348628Y-42897142D01*
X57348628Y-42897142D02*
X57348628Y-43278094D01*
X56824819Y-42373332D02*
X56824819Y-41706666D01*
X56824819Y-41706666D02*
X57824819Y-42135237D01*
X36095238Y-57131009D02*
X36238095Y-57178628D01*
X36238095Y-57178628D02*
X36285714Y-57226247D01*
X36285714Y-57226247D02*
X36333333Y-57321485D01*
X36333333Y-57321485D02*
X36333333Y-57464342D01*
X36333333Y-57464342D02*
X36285714Y-57559580D01*
X36285714Y-57559580D02*
X36238095Y-57607200D01*
X36238095Y-57607200D02*
X36142857Y-57654819D01*
X36142857Y-57654819D02*
X35761905Y-57654819D01*
X35761905Y-57654819D02*
X35761905Y-56654819D01*
X35761905Y-56654819D02*
X36095238Y-56654819D01*
X36095238Y-56654819D02*
X36190476Y-56702438D01*
X36190476Y-56702438D02*
X36238095Y-56750057D01*
X36238095Y-56750057D02*
X36285714Y-56845295D01*
X36285714Y-56845295D02*
X36285714Y-56940533D01*
X36285714Y-56940533D02*
X36238095Y-57035771D01*
X36238095Y-57035771D02*
X36190476Y-57083390D01*
X36190476Y-57083390D02*
X36095238Y-57131009D01*
X36095238Y-57131009D02*
X35761905Y-57131009D01*
X36761905Y-56654819D02*
X36761905Y-57464342D01*
X36761905Y-57464342D02*
X36809524Y-57559580D01*
X36809524Y-57559580D02*
X36857143Y-57607200D01*
X36857143Y-57607200D02*
X36952381Y-57654819D01*
X36952381Y-57654819D02*
X37142857Y-57654819D01*
X37142857Y-57654819D02*
X37238095Y-57607200D01*
X37238095Y-57607200D02*
X37285714Y-57559580D01*
X37285714Y-57559580D02*
X37333333Y-57464342D01*
X37333333Y-57464342D02*
X37333333Y-56654819D01*
X37761905Y-57607200D02*
X37904762Y-57654819D01*
X37904762Y-57654819D02*
X38142857Y-57654819D01*
X38142857Y-57654819D02*
X38238095Y-57607200D01*
X38238095Y-57607200D02*
X38285714Y-57559580D01*
X38285714Y-57559580D02*
X38333333Y-57464342D01*
X38333333Y-57464342D02*
X38333333Y-57369104D01*
X38333333Y-57369104D02*
X38285714Y-57273866D01*
X38285714Y-57273866D02*
X38238095Y-57226247D01*
X38238095Y-57226247D02*
X38142857Y-57178628D01*
X38142857Y-57178628D02*
X37952381Y-57131009D01*
X37952381Y-57131009D02*
X37857143Y-57083390D01*
X37857143Y-57083390D02*
X37809524Y-57035771D01*
X37809524Y-57035771D02*
X37761905Y-56940533D01*
X37761905Y-56940533D02*
X37761905Y-56845295D01*
X37761905Y-56845295D02*
X37809524Y-56750057D01*
X37809524Y-56750057D02*
X37857143Y-56702438D01*
X37857143Y-56702438D02*
X37952381Y-56654819D01*
X37952381Y-56654819D02*
X38190476Y-56654819D01*
X38190476Y-56654819D02*
X38333333Y-56702438D01*
X39285714Y-57654819D02*
X38714286Y-57654819D01*
X39000000Y-57654819D02*
X39000000Y-56654819D01*
X39000000Y-56654819D02*
X38904762Y-56797676D01*
X38904762Y-56797676D02*
X38809524Y-56892914D01*
X38809524Y-56892914D02*
X38714286Y-56940533D01*
X39666667Y-56988152D02*
X40380952Y-56988152D01*
X39952381Y-56559580D02*
X39666667Y-57845295D01*
X40285714Y-57416723D02*
X39571429Y-57416723D01*
X40000000Y-57845295D02*
X40285714Y-56559580D01*
X37438095Y-61954819D02*
X38009523Y-61954819D01*
X37723809Y-62954819D02*
X37723809Y-61954819D01*
X38342857Y-62954819D02*
X38342857Y-61954819D01*
X38342857Y-61954819D02*
X38723809Y-61954819D01*
X38723809Y-61954819D02*
X38819047Y-62002438D01*
X38819047Y-62002438D02*
X38866666Y-62050057D01*
X38866666Y-62050057D02*
X38914285Y-62145295D01*
X38914285Y-62145295D02*
X38914285Y-62288152D01*
X38914285Y-62288152D02*
X38866666Y-62383390D01*
X38866666Y-62383390D02*
X38819047Y-62431009D01*
X38819047Y-62431009D02*
X38723809Y-62478628D01*
X38723809Y-62478628D02*
X38342857Y-62478628D01*
X39295238Y-62050057D02*
X39342857Y-62002438D01*
X39342857Y-62002438D02*
X39438095Y-61954819D01*
X39438095Y-61954819D02*
X39676190Y-61954819D01*
X39676190Y-61954819D02*
X39771428Y-62002438D01*
X39771428Y-62002438D02*
X39819047Y-62050057D01*
X39819047Y-62050057D02*
X39866666Y-62145295D01*
X39866666Y-62145295D02*
X39866666Y-62240533D01*
X39866666Y-62240533D02*
X39819047Y-62383390D01*
X39819047Y-62383390D02*
X39247619Y-62954819D01*
X39247619Y-62954819D02*
X39866666Y-62954819D01*
X44095238Y-57131009D02*
X44238095Y-57178628D01*
X44238095Y-57178628D02*
X44285714Y-57226247D01*
X44285714Y-57226247D02*
X44333333Y-57321485D01*
X44333333Y-57321485D02*
X44333333Y-57464342D01*
X44333333Y-57464342D02*
X44285714Y-57559580D01*
X44285714Y-57559580D02*
X44238095Y-57607200D01*
X44238095Y-57607200D02*
X44142857Y-57654819D01*
X44142857Y-57654819D02*
X43761905Y-57654819D01*
X43761905Y-57654819D02*
X43761905Y-56654819D01*
X43761905Y-56654819D02*
X44095238Y-56654819D01*
X44095238Y-56654819D02*
X44190476Y-56702438D01*
X44190476Y-56702438D02*
X44238095Y-56750057D01*
X44238095Y-56750057D02*
X44285714Y-56845295D01*
X44285714Y-56845295D02*
X44285714Y-56940533D01*
X44285714Y-56940533D02*
X44238095Y-57035771D01*
X44238095Y-57035771D02*
X44190476Y-57083390D01*
X44190476Y-57083390D02*
X44095238Y-57131009D01*
X44095238Y-57131009D02*
X43761905Y-57131009D01*
X44761905Y-56654819D02*
X44761905Y-57464342D01*
X44761905Y-57464342D02*
X44809524Y-57559580D01*
X44809524Y-57559580D02*
X44857143Y-57607200D01*
X44857143Y-57607200D02*
X44952381Y-57654819D01*
X44952381Y-57654819D02*
X45142857Y-57654819D01*
X45142857Y-57654819D02*
X45238095Y-57607200D01*
X45238095Y-57607200D02*
X45285714Y-57559580D01*
X45285714Y-57559580D02*
X45333333Y-57464342D01*
X45333333Y-57464342D02*
X45333333Y-56654819D01*
X45761905Y-57607200D02*
X45904762Y-57654819D01*
X45904762Y-57654819D02*
X46142857Y-57654819D01*
X46142857Y-57654819D02*
X46238095Y-57607200D01*
X46238095Y-57607200D02*
X46285714Y-57559580D01*
X46285714Y-57559580D02*
X46333333Y-57464342D01*
X46333333Y-57464342D02*
X46333333Y-57369104D01*
X46333333Y-57369104D02*
X46285714Y-57273866D01*
X46285714Y-57273866D02*
X46238095Y-57226247D01*
X46238095Y-57226247D02*
X46142857Y-57178628D01*
X46142857Y-57178628D02*
X45952381Y-57131009D01*
X45952381Y-57131009D02*
X45857143Y-57083390D01*
X45857143Y-57083390D02*
X45809524Y-57035771D01*
X45809524Y-57035771D02*
X45761905Y-56940533D01*
X45761905Y-56940533D02*
X45761905Y-56845295D01*
X45761905Y-56845295D02*
X45809524Y-56750057D01*
X45809524Y-56750057D02*
X45857143Y-56702438D01*
X45857143Y-56702438D02*
X45952381Y-56654819D01*
X45952381Y-56654819D02*
X46190476Y-56654819D01*
X46190476Y-56654819D02*
X46333333Y-56702438D01*
X46714286Y-56750057D02*
X46761905Y-56702438D01*
X46761905Y-56702438D02*
X46857143Y-56654819D01*
X46857143Y-56654819D02*
X47095238Y-56654819D01*
X47095238Y-56654819D02*
X47190476Y-56702438D01*
X47190476Y-56702438D02*
X47238095Y-56750057D01*
X47238095Y-56750057D02*
X47285714Y-56845295D01*
X47285714Y-56845295D02*
X47285714Y-56940533D01*
X47285714Y-56940533D02*
X47238095Y-57083390D01*
X47238095Y-57083390D02*
X46666667Y-57654819D01*
X46666667Y-57654819D02*
X47285714Y-57654819D01*
X47666667Y-56988152D02*
X48380952Y-56988152D01*
X47952381Y-56559580D02*
X47666667Y-57845295D01*
X48285714Y-57416723D02*
X47571429Y-57416723D01*
X48000000Y-57845295D02*
X48285714Y-56559580D01*
X45438095Y-61954819D02*
X46009523Y-61954819D01*
X45723809Y-62954819D02*
X45723809Y-61954819D01*
X46342857Y-62954819D02*
X46342857Y-61954819D01*
X46342857Y-61954819D02*
X46723809Y-61954819D01*
X46723809Y-61954819D02*
X46819047Y-62002438D01*
X46819047Y-62002438D02*
X46866666Y-62050057D01*
X46866666Y-62050057D02*
X46914285Y-62145295D01*
X46914285Y-62145295D02*
X46914285Y-62288152D01*
X46914285Y-62288152D02*
X46866666Y-62383390D01*
X46866666Y-62383390D02*
X46819047Y-62431009D01*
X46819047Y-62431009D02*
X46723809Y-62478628D01*
X46723809Y-62478628D02*
X46342857Y-62478628D01*
X47247619Y-61954819D02*
X47866666Y-61954819D01*
X47866666Y-61954819D02*
X47533333Y-62335771D01*
X47533333Y-62335771D02*
X47676190Y-62335771D01*
X47676190Y-62335771D02*
X47771428Y-62383390D01*
X47771428Y-62383390D02*
X47819047Y-62431009D01*
X47819047Y-62431009D02*
X47866666Y-62526247D01*
X47866666Y-62526247D02*
X47866666Y-62764342D01*
X47866666Y-62764342D02*
X47819047Y-62859580D01*
X47819047Y-62859580D02*
X47771428Y-62907200D01*
X47771428Y-62907200D02*
X47676190Y-62954819D01*
X47676190Y-62954819D02*
X47390476Y-62954819D01*
X47390476Y-62954819D02*
X47295238Y-62907200D01*
X47295238Y-62907200D02*
X47247619Y-62859580D01*
X62180057Y-44182856D02*
X62132438Y-44135237D01*
X62132438Y-44135237D02*
X62084819Y-44039999D01*
X62084819Y-44039999D02*
X62084819Y-43801904D01*
X62084819Y-43801904D02*
X62132438Y-43706666D01*
X62132438Y-43706666D02*
X62180057Y-43659047D01*
X62180057Y-43659047D02*
X62275295Y-43611428D01*
X62275295Y-43611428D02*
X62370533Y-43611428D01*
X62370533Y-43611428D02*
X62513390Y-43659047D01*
X62513390Y-43659047D02*
X63084819Y-44230475D01*
X63084819Y-44230475D02*
X63084819Y-43611428D01*
X62180057Y-43230475D02*
X62132438Y-43182856D01*
X62132438Y-43182856D02*
X62084819Y-43087618D01*
X62084819Y-43087618D02*
X62084819Y-42849523D01*
X62084819Y-42849523D02*
X62132438Y-42754285D01*
X62132438Y-42754285D02*
X62180057Y-42706666D01*
X62180057Y-42706666D02*
X62275295Y-42659047D01*
X62275295Y-42659047D02*
X62370533Y-42659047D01*
X62370533Y-42659047D02*
X62513390Y-42706666D01*
X62513390Y-42706666D02*
X63084819Y-43278094D01*
X63084819Y-43278094D02*
X63084819Y-42659047D01*
X62084819Y-42039999D02*
X62084819Y-41944761D01*
X62084819Y-41944761D02*
X62132438Y-41849523D01*
X62132438Y-41849523D02*
X62180057Y-41801904D01*
X62180057Y-41801904D02*
X62275295Y-41754285D01*
X62275295Y-41754285D02*
X62465771Y-41706666D01*
X62465771Y-41706666D02*
X62703866Y-41706666D01*
X62703866Y-41706666D02*
X62894342Y-41754285D01*
X62894342Y-41754285D02*
X62989580Y-41801904D01*
X62989580Y-41801904D02*
X63037200Y-41849523D01*
X63037200Y-41849523D02*
X63084819Y-41944761D01*
X63084819Y-41944761D02*
X63084819Y-42039999D01*
X63084819Y-42039999D02*
X63037200Y-42135237D01*
X63037200Y-42135237D02*
X62989580Y-42182856D01*
X62989580Y-42182856D02*
X62894342Y-42230475D01*
X62894342Y-42230475D02*
X62703866Y-42278094D01*
X62703866Y-42278094D02*
X62465771Y-42278094D01*
X62465771Y-42278094D02*
X62275295Y-42230475D01*
X62275295Y-42230475D02*
X62180057Y-42182856D01*
X62180057Y-42182856D02*
X62132438Y-42135237D01*
X62132438Y-42135237D02*
X62084819Y-42039999D01*
X63084819Y-41278094D02*
X62084819Y-41278094D01*
X62703866Y-41182856D02*
X63084819Y-40897142D01*
X62418152Y-40897142D02*
X62799104Y-41278094D01*
X67824819Y-42706666D02*
X67348628Y-43039999D01*
X67824819Y-43278094D02*
X66824819Y-43278094D01*
X66824819Y-43278094D02*
X66824819Y-42897142D01*
X66824819Y-42897142D02*
X66872438Y-42801904D01*
X66872438Y-42801904D02*
X66920057Y-42754285D01*
X66920057Y-42754285D02*
X67015295Y-42706666D01*
X67015295Y-42706666D02*
X67158152Y-42706666D01*
X67158152Y-42706666D02*
X67253390Y-42754285D01*
X67253390Y-42754285D02*
X67301009Y-42801904D01*
X67301009Y-42801904D02*
X67348628Y-42897142D01*
X67348628Y-42897142D02*
X67348628Y-43278094D01*
X67824819Y-42230475D02*
X67824819Y-42039999D01*
X67824819Y-42039999D02*
X67777200Y-41944761D01*
X67777200Y-41944761D02*
X67729580Y-41897142D01*
X67729580Y-41897142D02*
X67586723Y-41801904D01*
X67586723Y-41801904D02*
X67396247Y-41754285D01*
X67396247Y-41754285D02*
X67015295Y-41754285D01*
X67015295Y-41754285D02*
X66920057Y-41801904D01*
X66920057Y-41801904D02*
X66872438Y-41849523D01*
X66872438Y-41849523D02*
X66824819Y-41944761D01*
X66824819Y-41944761D02*
X66824819Y-42135237D01*
X66824819Y-42135237D02*
X66872438Y-42230475D01*
X66872438Y-42230475D02*
X66920057Y-42278094D01*
X66920057Y-42278094D02*
X67015295Y-42325713D01*
X67015295Y-42325713D02*
X67253390Y-42325713D01*
X67253390Y-42325713D02*
X67348628Y-42278094D01*
X67348628Y-42278094D02*
X67396247Y-42230475D01*
X67396247Y-42230475D02*
X67443866Y-42135237D01*
X67443866Y-42135237D02*
X67443866Y-41944761D01*
X67443866Y-41944761D02*
X67396247Y-41849523D01*
X67396247Y-41849523D02*
X67348628Y-41801904D01*
X67348628Y-41801904D02*
X67253390Y-41754285D01*
X69452380Y-57654819D02*
X69119047Y-57178628D01*
X68880952Y-57654819D02*
X68880952Y-56654819D01*
X68880952Y-56654819D02*
X69261904Y-56654819D01*
X69261904Y-56654819D02*
X69357142Y-56702438D01*
X69357142Y-56702438D02*
X69404761Y-56750057D01*
X69404761Y-56750057D02*
X69452380Y-56845295D01*
X69452380Y-56845295D02*
X69452380Y-56988152D01*
X69452380Y-56988152D02*
X69404761Y-57083390D01*
X69404761Y-57083390D02*
X69357142Y-57131009D01*
X69357142Y-57131009D02*
X69261904Y-57178628D01*
X69261904Y-57178628D02*
X68880952Y-57178628D01*
X69833333Y-57607200D02*
X69976190Y-57654819D01*
X69976190Y-57654819D02*
X70214285Y-57654819D01*
X70214285Y-57654819D02*
X70309523Y-57607200D01*
X70309523Y-57607200D02*
X70357142Y-57559580D01*
X70357142Y-57559580D02*
X70404761Y-57464342D01*
X70404761Y-57464342D02*
X70404761Y-57369104D01*
X70404761Y-57369104D02*
X70357142Y-57273866D01*
X70357142Y-57273866D02*
X70309523Y-57226247D01*
X70309523Y-57226247D02*
X70214285Y-57178628D01*
X70214285Y-57178628D02*
X70023809Y-57131009D01*
X70023809Y-57131009D02*
X69928571Y-57083390D01*
X69928571Y-57083390D02*
X69880952Y-57035771D01*
X69880952Y-57035771D02*
X69833333Y-56940533D01*
X69833333Y-56940533D02*
X69833333Y-56845295D01*
X69833333Y-56845295D02*
X69880952Y-56750057D01*
X69880952Y-56750057D02*
X69928571Y-56702438D01*
X69928571Y-56702438D02*
X70023809Y-56654819D01*
X70023809Y-56654819D02*
X70261904Y-56654819D01*
X70261904Y-56654819D02*
X70404761Y-56702438D01*
X70690476Y-56654819D02*
X71261904Y-56654819D01*
X70976190Y-57654819D02*
X70976190Y-56654819D01*
X69438095Y-61954819D02*
X70009523Y-61954819D01*
X69723809Y-62954819D02*
X69723809Y-61954819D01*
X70342857Y-62954819D02*
X70342857Y-61954819D01*
X70342857Y-61954819D02*
X70723809Y-61954819D01*
X70723809Y-61954819D02*
X70819047Y-62002438D01*
X70819047Y-62002438D02*
X70866666Y-62050057D01*
X70866666Y-62050057D02*
X70914285Y-62145295D01*
X70914285Y-62145295D02*
X70914285Y-62288152D01*
X70914285Y-62288152D02*
X70866666Y-62383390D01*
X70866666Y-62383390D02*
X70819047Y-62431009D01*
X70819047Y-62431009D02*
X70723809Y-62478628D01*
X70723809Y-62478628D02*
X70342857Y-62478628D01*
X71771428Y-61954819D02*
X71580952Y-61954819D01*
X71580952Y-61954819D02*
X71485714Y-62002438D01*
X71485714Y-62002438D02*
X71438095Y-62050057D01*
X71438095Y-62050057D02*
X71342857Y-62192914D01*
X71342857Y-62192914D02*
X71295238Y-62383390D01*
X71295238Y-62383390D02*
X71295238Y-62764342D01*
X71295238Y-62764342D02*
X71342857Y-62859580D01*
X71342857Y-62859580D02*
X71390476Y-62907200D01*
X71390476Y-62907200D02*
X71485714Y-62954819D01*
X71485714Y-62954819D02*
X71676190Y-62954819D01*
X71676190Y-62954819D02*
X71771428Y-62907200D01*
X71771428Y-62907200D02*
X71819047Y-62859580D01*
X71819047Y-62859580D02*
X71866666Y-62764342D01*
X71866666Y-62764342D02*
X71866666Y-62526247D01*
X71866666Y-62526247D02*
X71819047Y-62431009D01*
X71819047Y-62431009D02*
X71771428Y-62383390D01*
X71771428Y-62383390D02*
X71676190Y-62335771D01*
X71676190Y-62335771D02*
X71485714Y-62335771D01*
X71485714Y-62335771D02*
X71390476Y-62383390D01*
X71390476Y-62383390D02*
X71342857Y-62431009D01*
X71342857Y-62431009D02*
X71295238Y-62526247D01*
X30742857Y-21654819D02*
X30171429Y-21654819D01*
X30457143Y-21654819D02*
X30457143Y-20654819D01*
X30457143Y-20654819D02*
X30361905Y-20797676D01*
X30361905Y-20797676D02*
X30266667Y-20892914D01*
X30266667Y-20892914D02*
X30171429Y-20940533D01*
X31171429Y-21559580D02*
X31219048Y-21607200D01*
X31219048Y-21607200D02*
X31171429Y-21654819D01*
X31171429Y-21654819D02*
X31123810Y-21607200D01*
X31123810Y-21607200D02*
X31171429Y-21559580D01*
X31171429Y-21559580D02*
X31171429Y-21654819D01*
X32123809Y-20654819D02*
X31647619Y-20654819D01*
X31647619Y-20654819D02*
X31600000Y-21131009D01*
X31600000Y-21131009D02*
X31647619Y-21083390D01*
X31647619Y-21083390D02*
X31742857Y-21035771D01*
X31742857Y-21035771D02*
X31980952Y-21035771D01*
X31980952Y-21035771D02*
X32076190Y-21083390D01*
X32076190Y-21083390D02*
X32123809Y-21131009D01*
X32123809Y-21131009D02*
X32171428Y-21226247D01*
X32171428Y-21226247D02*
X32171428Y-21464342D01*
X32171428Y-21464342D02*
X32123809Y-21559580D01*
X32123809Y-21559580D02*
X32076190Y-21607200D01*
X32076190Y-21607200D02*
X31980952Y-21654819D01*
X31980952Y-21654819D02*
X31742857Y-21654819D01*
X31742857Y-21654819D02*
X31647619Y-21607200D01*
X31647619Y-21607200D02*
X31600000Y-21559580D01*
X32552381Y-21369104D02*
X33028571Y-21369104D01*
X32457143Y-21654819D02*
X32790476Y-20654819D01*
X32790476Y-20654819D02*
X33123809Y-21654819D01*
X31566666Y-16031009D02*
X31233333Y-16031009D01*
X31233333Y-16554819D02*
X31233333Y-15554819D01*
X31233333Y-15554819D02*
X31709523Y-15554819D01*
X32614285Y-16554819D02*
X32042857Y-16554819D01*
X32328571Y-16554819D02*
X32328571Y-15554819D01*
X32328571Y-15554819D02*
X32233333Y-15697676D01*
X32233333Y-15697676D02*
X32138095Y-15792914D01*
X32138095Y-15792914D02*
X32042857Y-15840533D01*
X9916666Y-51481009D02*
X10059523Y-51528628D01*
X10059523Y-51528628D02*
X10107142Y-51576247D01*
X10107142Y-51576247D02*
X10154761Y-51671485D01*
X10154761Y-51671485D02*
X10154761Y-51814342D01*
X10154761Y-51814342D02*
X10107142Y-51909580D01*
X10107142Y-51909580D02*
X10059523Y-51957200D01*
X10059523Y-51957200D02*
X9964285Y-52004819D01*
X9964285Y-52004819D02*
X9583333Y-52004819D01*
X9583333Y-52004819D02*
X9583333Y-51004819D01*
X9583333Y-51004819D02*
X9916666Y-51004819D01*
X9916666Y-51004819D02*
X10011904Y-51052438D01*
X10011904Y-51052438D02*
X10059523Y-51100057D01*
X10059523Y-51100057D02*
X10107142Y-51195295D01*
X10107142Y-51195295D02*
X10107142Y-51290533D01*
X10107142Y-51290533D02*
X10059523Y-51385771D01*
X10059523Y-51385771D02*
X10011904Y-51433390D01*
X10011904Y-51433390D02*
X9916666Y-51481009D01*
X9916666Y-51481009D02*
X9583333Y-51481009D01*
X10583333Y-51481009D02*
X10916666Y-51481009D01*
X11059523Y-52004819D02*
X10583333Y-52004819D01*
X10583333Y-52004819D02*
X10583333Y-51004819D01*
X10583333Y-51004819D02*
X11059523Y-51004819D01*
X11488095Y-52004819D02*
X11488095Y-51004819D01*
X11488095Y-51004819D02*
X12059523Y-52004819D01*
X12059523Y-52004819D02*
X12059523Y-51004819D01*
X13107142Y-51909580D02*
X13059523Y-51957200D01*
X13059523Y-51957200D02*
X12916666Y-52004819D01*
X12916666Y-52004819D02*
X12821428Y-52004819D01*
X12821428Y-52004819D02*
X12678571Y-51957200D01*
X12678571Y-51957200D02*
X12583333Y-51861961D01*
X12583333Y-51861961D02*
X12535714Y-51766723D01*
X12535714Y-51766723D02*
X12488095Y-51576247D01*
X12488095Y-51576247D02*
X12488095Y-51433390D01*
X12488095Y-51433390D02*
X12535714Y-51242914D01*
X12535714Y-51242914D02*
X12583333Y-51147676D01*
X12583333Y-51147676D02*
X12678571Y-51052438D01*
X12678571Y-51052438D02*
X12821428Y-51004819D01*
X12821428Y-51004819D02*
X12916666Y-51004819D01*
X12916666Y-51004819D02*
X13059523Y-51052438D01*
X13059523Y-51052438D02*
X13107142Y-51100057D01*
X13535714Y-52004819D02*
X13535714Y-51004819D01*
X13535714Y-51481009D02*
X14107142Y-51481009D01*
X14107142Y-52004819D02*
X14107142Y-51004819D01*
X15869047Y-51052438D02*
X15773809Y-51004819D01*
X15773809Y-51004819D02*
X15630952Y-51004819D01*
X15630952Y-51004819D02*
X15488095Y-51052438D01*
X15488095Y-51052438D02*
X15392857Y-51147676D01*
X15392857Y-51147676D02*
X15345238Y-51242914D01*
X15345238Y-51242914D02*
X15297619Y-51433390D01*
X15297619Y-51433390D02*
X15297619Y-51576247D01*
X15297619Y-51576247D02*
X15345238Y-51766723D01*
X15345238Y-51766723D02*
X15392857Y-51861961D01*
X15392857Y-51861961D02*
X15488095Y-51957200D01*
X15488095Y-51957200D02*
X15630952Y-52004819D01*
X15630952Y-52004819D02*
X15726190Y-52004819D01*
X15726190Y-52004819D02*
X15869047Y-51957200D01*
X15869047Y-51957200D02*
X15916666Y-51909580D01*
X15916666Y-51909580D02*
X15916666Y-51576247D01*
X15916666Y-51576247D02*
X15726190Y-51576247D01*
X16345238Y-52004819D02*
X16345238Y-51004819D01*
X16345238Y-51004819D02*
X16916666Y-52004819D01*
X16916666Y-52004819D02*
X16916666Y-51004819D01*
X17392857Y-52004819D02*
X17392857Y-51004819D01*
X17392857Y-51004819D02*
X17630952Y-51004819D01*
X17630952Y-51004819D02*
X17773809Y-51052438D01*
X17773809Y-51052438D02*
X17869047Y-51147676D01*
X17869047Y-51147676D02*
X17916666Y-51242914D01*
X17916666Y-51242914D02*
X17964285Y-51433390D01*
X17964285Y-51433390D02*
X17964285Y-51576247D01*
X17964285Y-51576247D02*
X17916666Y-51766723D01*
X17916666Y-51766723D02*
X17869047Y-51861961D01*
X17869047Y-51861961D02*
X17773809Y-51957200D01*
X17773809Y-51957200D02*
X17630952Y-52004819D01*
X17630952Y-52004819D02*
X17392857Y-52004819D01*
D11*
X13733333Y-44613855D02*
X13733333Y-45185283D01*
X13733333Y-45185283D02*
X13695238Y-45299569D01*
X13695238Y-45299569D02*
X13619047Y-45375760D01*
X13619047Y-45375760D02*
X13504762Y-45413855D01*
X13504762Y-45413855D02*
X13428571Y-45413855D01*
X14076190Y-44690045D02*
X14114286Y-44651950D01*
X14114286Y-44651950D02*
X14190476Y-44613855D01*
X14190476Y-44613855D02*
X14380952Y-44613855D01*
X14380952Y-44613855D02*
X14457143Y-44651950D01*
X14457143Y-44651950D02*
X14495238Y-44690045D01*
X14495238Y-44690045D02*
X14533333Y-44766236D01*
X14533333Y-44766236D02*
X14533333Y-44842426D01*
X14533333Y-44842426D02*
X14495238Y-44956712D01*
X14495238Y-44956712D02*
X14038095Y-45413855D01*
X14038095Y-45413855D02*
X14533333Y-45413855D01*
D10*
X9916666Y-32431009D02*
X10059523Y-32478628D01*
X10059523Y-32478628D02*
X10107142Y-32526247D01*
X10107142Y-32526247D02*
X10154761Y-32621485D01*
X10154761Y-32621485D02*
X10154761Y-32764342D01*
X10154761Y-32764342D02*
X10107142Y-32859580D01*
X10107142Y-32859580D02*
X10059523Y-32907200D01*
X10059523Y-32907200D02*
X9964285Y-32954819D01*
X9964285Y-32954819D02*
X9583333Y-32954819D01*
X9583333Y-32954819D02*
X9583333Y-31954819D01*
X9583333Y-31954819D02*
X9916666Y-31954819D01*
X9916666Y-31954819D02*
X10011904Y-32002438D01*
X10011904Y-32002438D02*
X10059523Y-32050057D01*
X10059523Y-32050057D02*
X10107142Y-32145295D01*
X10107142Y-32145295D02*
X10107142Y-32240533D01*
X10107142Y-32240533D02*
X10059523Y-32335771D01*
X10059523Y-32335771D02*
X10011904Y-32383390D01*
X10011904Y-32383390D02*
X9916666Y-32431009D01*
X9916666Y-32431009D02*
X9583333Y-32431009D01*
X10583333Y-32431009D02*
X10916666Y-32431009D01*
X11059523Y-32954819D02*
X10583333Y-32954819D01*
X10583333Y-32954819D02*
X10583333Y-31954819D01*
X10583333Y-31954819D02*
X11059523Y-31954819D01*
X11488095Y-32954819D02*
X11488095Y-31954819D01*
X11488095Y-31954819D02*
X12059523Y-32954819D01*
X12059523Y-32954819D02*
X12059523Y-31954819D01*
X13107142Y-32859580D02*
X13059523Y-32907200D01*
X13059523Y-32907200D02*
X12916666Y-32954819D01*
X12916666Y-32954819D02*
X12821428Y-32954819D01*
X12821428Y-32954819D02*
X12678571Y-32907200D01*
X12678571Y-32907200D02*
X12583333Y-32811961D01*
X12583333Y-32811961D02*
X12535714Y-32716723D01*
X12535714Y-32716723D02*
X12488095Y-32526247D01*
X12488095Y-32526247D02*
X12488095Y-32383390D01*
X12488095Y-32383390D02*
X12535714Y-32192914D01*
X12535714Y-32192914D02*
X12583333Y-32097676D01*
X12583333Y-32097676D02*
X12678571Y-32002438D01*
X12678571Y-32002438D02*
X12821428Y-31954819D01*
X12821428Y-31954819D02*
X12916666Y-31954819D01*
X12916666Y-31954819D02*
X13059523Y-32002438D01*
X13059523Y-32002438D02*
X13107142Y-32050057D01*
X13535714Y-32954819D02*
X13535714Y-31954819D01*
X13535714Y-32431009D02*
X14107142Y-32431009D01*
X14107142Y-32954819D02*
X14107142Y-31954819D01*
X15345238Y-32573866D02*
X16107143Y-32573866D01*
X15726190Y-32954819D02*
X15726190Y-32192914D01*
X17059523Y-31954819D02*
X16583333Y-31954819D01*
X16583333Y-31954819D02*
X16535714Y-32431009D01*
X16535714Y-32431009D02*
X16583333Y-32383390D01*
X16583333Y-32383390D02*
X16678571Y-32335771D01*
X16678571Y-32335771D02*
X16916666Y-32335771D01*
X16916666Y-32335771D02*
X17011904Y-32383390D01*
X17011904Y-32383390D02*
X17059523Y-32431009D01*
X17059523Y-32431009D02*
X17107142Y-32526247D01*
X17107142Y-32526247D02*
X17107142Y-32764342D01*
X17107142Y-32764342D02*
X17059523Y-32859580D01*
X17059523Y-32859580D02*
X17011904Y-32907200D01*
X17011904Y-32907200D02*
X16916666Y-32954819D01*
X16916666Y-32954819D02*
X16678571Y-32954819D01*
X16678571Y-32954819D02*
X16583333Y-32907200D01*
X16583333Y-32907200D02*
X16535714Y-32859580D01*
X17392857Y-31954819D02*
X17726190Y-32954819D01*
X17726190Y-32954819D02*
X18059523Y-31954819D01*
D11*
X13733333Y-25563855D02*
X13733333Y-26135283D01*
X13733333Y-26135283D02*
X13695238Y-26249569D01*
X13695238Y-26249569D02*
X13619047Y-26325760D01*
X13619047Y-26325760D02*
X13504762Y-26363855D01*
X13504762Y-26363855D02*
X13428571Y-26363855D01*
X14533333Y-26363855D02*
X14076190Y-26363855D01*
X14304762Y-26363855D02*
X14304762Y-25563855D01*
X14304762Y-25563855D02*
X14228571Y-25678140D01*
X14228571Y-25678140D02*
X14152381Y-25754331D01*
X14152381Y-25754331D02*
X14076190Y-25792426D01*
D10*
X28095238Y-57131009D02*
X28238095Y-57178628D01*
X28238095Y-57178628D02*
X28285714Y-57226247D01*
X28285714Y-57226247D02*
X28333333Y-57321485D01*
X28333333Y-57321485D02*
X28333333Y-57464342D01*
X28333333Y-57464342D02*
X28285714Y-57559580D01*
X28285714Y-57559580D02*
X28238095Y-57607200D01*
X28238095Y-57607200D02*
X28142857Y-57654819D01*
X28142857Y-57654819D02*
X27761905Y-57654819D01*
X27761905Y-57654819D02*
X27761905Y-56654819D01*
X27761905Y-56654819D02*
X28095238Y-56654819D01*
X28095238Y-56654819D02*
X28190476Y-56702438D01*
X28190476Y-56702438D02*
X28238095Y-56750057D01*
X28238095Y-56750057D02*
X28285714Y-56845295D01*
X28285714Y-56845295D02*
X28285714Y-56940533D01*
X28285714Y-56940533D02*
X28238095Y-57035771D01*
X28238095Y-57035771D02*
X28190476Y-57083390D01*
X28190476Y-57083390D02*
X28095238Y-57131009D01*
X28095238Y-57131009D02*
X27761905Y-57131009D01*
X28761905Y-56654819D02*
X28761905Y-57464342D01*
X28761905Y-57464342D02*
X28809524Y-57559580D01*
X28809524Y-57559580D02*
X28857143Y-57607200D01*
X28857143Y-57607200D02*
X28952381Y-57654819D01*
X28952381Y-57654819D02*
X29142857Y-57654819D01*
X29142857Y-57654819D02*
X29238095Y-57607200D01*
X29238095Y-57607200D02*
X29285714Y-57559580D01*
X29285714Y-57559580D02*
X29333333Y-57464342D01*
X29333333Y-57464342D02*
X29333333Y-56654819D01*
X29761905Y-57607200D02*
X29904762Y-57654819D01*
X29904762Y-57654819D02*
X30142857Y-57654819D01*
X30142857Y-57654819D02*
X30238095Y-57607200D01*
X30238095Y-57607200D02*
X30285714Y-57559580D01*
X30285714Y-57559580D02*
X30333333Y-57464342D01*
X30333333Y-57464342D02*
X30333333Y-57369104D01*
X30333333Y-57369104D02*
X30285714Y-57273866D01*
X30285714Y-57273866D02*
X30238095Y-57226247D01*
X30238095Y-57226247D02*
X30142857Y-57178628D01*
X30142857Y-57178628D02*
X29952381Y-57131009D01*
X29952381Y-57131009D02*
X29857143Y-57083390D01*
X29857143Y-57083390D02*
X29809524Y-57035771D01*
X29809524Y-57035771D02*
X29761905Y-56940533D01*
X29761905Y-56940533D02*
X29761905Y-56845295D01*
X29761905Y-56845295D02*
X29809524Y-56750057D01*
X29809524Y-56750057D02*
X29857143Y-56702438D01*
X29857143Y-56702438D02*
X29952381Y-56654819D01*
X29952381Y-56654819D02*
X30190476Y-56654819D01*
X30190476Y-56654819D02*
X30333333Y-56702438D01*
X30952381Y-56654819D02*
X31047619Y-56654819D01*
X31047619Y-56654819D02*
X31142857Y-56702438D01*
X31142857Y-56702438D02*
X31190476Y-56750057D01*
X31190476Y-56750057D02*
X31238095Y-56845295D01*
X31238095Y-56845295D02*
X31285714Y-57035771D01*
X31285714Y-57035771D02*
X31285714Y-57273866D01*
X31285714Y-57273866D02*
X31238095Y-57464342D01*
X31238095Y-57464342D02*
X31190476Y-57559580D01*
X31190476Y-57559580D02*
X31142857Y-57607200D01*
X31142857Y-57607200D02*
X31047619Y-57654819D01*
X31047619Y-57654819D02*
X30952381Y-57654819D01*
X30952381Y-57654819D02*
X30857143Y-57607200D01*
X30857143Y-57607200D02*
X30809524Y-57559580D01*
X30809524Y-57559580D02*
X30761905Y-57464342D01*
X30761905Y-57464342D02*
X30714286Y-57273866D01*
X30714286Y-57273866D02*
X30714286Y-57035771D01*
X30714286Y-57035771D02*
X30761905Y-56845295D01*
X30761905Y-56845295D02*
X30809524Y-56750057D01*
X30809524Y-56750057D02*
X30857143Y-56702438D01*
X30857143Y-56702438D02*
X30952381Y-56654819D01*
X31666667Y-56988152D02*
X32380952Y-56988152D01*
X31952381Y-56559580D02*
X31666667Y-57845295D01*
X32285714Y-57416723D02*
X31571429Y-57416723D01*
X32000000Y-57845295D02*
X32285714Y-56559580D01*
X29438095Y-61954819D02*
X30009523Y-61954819D01*
X29723809Y-62954819D02*
X29723809Y-61954819D01*
X30342857Y-62954819D02*
X30342857Y-61954819D01*
X30342857Y-61954819D02*
X30723809Y-61954819D01*
X30723809Y-61954819D02*
X30819047Y-62002438D01*
X30819047Y-62002438D02*
X30866666Y-62050057D01*
X30866666Y-62050057D02*
X30914285Y-62145295D01*
X30914285Y-62145295D02*
X30914285Y-62288152D01*
X30914285Y-62288152D02*
X30866666Y-62383390D01*
X30866666Y-62383390D02*
X30819047Y-62431009D01*
X30819047Y-62431009D02*
X30723809Y-62478628D01*
X30723809Y-62478628D02*
X30342857Y-62478628D01*
X31866666Y-62954819D02*
X31295238Y-62954819D01*
X31580952Y-62954819D02*
X31580952Y-61954819D01*
X31580952Y-61954819D02*
X31485714Y-62097676D01*
X31485714Y-62097676D02*
X31390476Y-62192914D01*
X31390476Y-62192914D02*
X31295238Y-62240533D01*
X47180057Y-44182856D02*
X47132438Y-44135237D01*
X47132438Y-44135237D02*
X47084819Y-44039999D01*
X47084819Y-44039999D02*
X47084819Y-43801904D01*
X47084819Y-43801904D02*
X47132438Y-43706666D01*
X47132438Y-43706666D02*
X47180057Y-43659047D01*
X47180057Y-43659047D02*
X47275295Y-43611428D01*
X47275295Y-43611428D02*
X47370533Y-43611428D01*
X47370533Y-43611428D02*
X47513390Y-43659047D01*
X47513390Y-43659047D02*
X48084819Y-44230475D01*
X48084819Y-44230475D02*
X48084819Y-43611428D01*
X47180057Y-43230475D02*
X47132438Y-43182856D01*
X47132438Y-43182856D02*
X47084819Y-43087618D01*
X47084819Y-43087618D02*
X47084819Y-42849523D01*
X47084819Y-42849523D02*
X47132438Y-42754285D01*
X47132438Y-42754285D02*
X47180057Y-42706666D01*
X47180057Y-42706666D02*
X47275295Y-42659047D01*
X47275295Y-42659047D02*
X47370533Y-42659047D01*
X47370533Y-42659047D02*
X47513390Y-42706666D01*
X47513390Y-42706666D02*
X48084819Y-43278094D01*
X48084819Y-43278094D02*
X48084819Y-42659047D01*
X47084819Y-42039999D02*
X47084819Y-41944761D01*
X47084819Y-41944761D02*
X47132438Y-41849523D01*
X47132438Y-41849523D02*
X47180057Y-41801904D01*
X47180057Y-41801904D02*
X47275295Y-41754285D01*
X47275295Y-41754285D02*
X47465771Y-41706666D01*
X47465771Y-41706666D02*
X47703866Y-41706666D01*
X47703866Y-41706666D02*
X47894342Y-41754285D01*
X47894342Y-41754285D02*
X47989580Y-41801904D01*
X47989580Y-41801904D02*
X48037200Y-41849523D01*
X48037200Y-41849523D02*
X48084819Y-41944761D01*
X48084819Y-41944761D02*
X48084819Y-42039999D01*
X48084819Y-42039999D02*
X48037200Y-42135237D01*
X48037200Y-42135237D02*
X47989580Y-42182856D01*
X47989580Y-42182856D02*
X47894342Y-42230475D01*
X47894342Y-42230475D02*
X47703866Y-42278094D01*
X47703866Y-42278094D02*
X47465771Y-42278094D01*
X47465771Y-42278094D02*
X47275295Y-42230475D01*
X47275295Y-42230475D02*
X47180057Y-42182856D01*
X47180057Y-42182856D02*
X47132438Y-42135237D01*
X47132438Y-42135237D02*
X47084819Y-42039999D01*
X48084819Y-41278094D02*
X47084819Y-41278094D01*
X47703866Y-41182856D02*
X48084819Y-40897142D01*
X47418152Y-40897142D02*
X47799104Y-41278094D01*
X52824819Y-42706666D02*
X52348628Y-43039999D01*
X52824819Y-43278094D02*
X51824819Y-43278094D01*
X51824819Y-43278094D02*
X51824819Y-42897142D01*
X51824819Y-42897142D02*
X51872438Y-42801904D01*
X51872438Y-42801904D02*
X51920057Y-42754285D01*
X51920057Y-42754285D02*
X52015295Y-42706666D01*
X52015295Y-42706666D02*
X52158152Y-42706666D01*
X52158152Y-42706666D02*
X52253390Y-42754285D01*
X52253390Y-42754285D02*
X52301009Y-42801904D01*
X52301009Y-42801904D02*
X52348628Y-42897142D01*
X52348628Y-42897142D02*
X52348628Y-43278094D01*
X51824819Y-41849523D02*
X51824819Y-42039999D01*
X51824819Y-42039999D02*
X51872438Y-42135237D01*
X51872438Y-42135237D02*
X51920057Y-42182856D01*
X51920057Y-42182856D02*
X52062914Y-42278094D01*
X52062914Y-42278094D02*
X52253390Y-42325713D01*
X52253390Y-42325713D02*
X52634342Y-42325713D01*
X52634342Y-42325713D02*
X52729580Y-42278094D01*
X52729580Y-42278094D02*
X52777200Y-42230475D01*
X52777200Y-42230475D02*
X52824819Y-42135237D01*
X52824819Y-42135237D02*
X52824819Y-41944761D01*
X52824819Y-41944761D02*
X52777200Y-41849523D01*
X52777200Y-41849523D02*
X52729580Y-41801904D01*
X52729580Y-41801904D02*
X52634342Y-41754285D01*
X52634342Y-41754285D02*
X52396247Y-41754285D01*
X52396247Y-41754285D02*
X52301009Y-41801904D01*
X52301009Y-41801904D02*
X52253390Y-41849523D01*
X52253390Y-41849523D02*
X52205771Y-41944761D01*
X52205771Y-41944761D02*
X52205771Y-42135237D01*
X52205771Y-42135237D02*
X52253390Y-42230475D01*
X52253390Y-42230475D02*
X52301009Y-42278094D01*
X52301009Y-42278094D02*
X52396247Y-42325713D01*
X74084819Y-17135238D02*
X74084819Y-17706666D01*
X74084819Y-17420952D02*
X73084819Y-17420952D01*
X73084819Y-17420952D02*
X73227676Y-17516190D01*
X73227676Y-17516190D02*
X73322914Y-17611428D01*
X73322914Y-17611428D02*
X73370533Y-17706666D01*
X73084819Y-16516190D02*
X73084819Y-16420952D01*
X73084819Y-16420952D02*
X73132438Y-16325714D01*
X73132438Y-16325714D02*
X73180057Y-16278095D01*
X73180057Y-16278095D02*
X73275295Y-16230476D01*
X73275295Y-16230476D02*
X73465771Y-16182857D01*
X73465771Y-16182857D02*
X73703866Y-16182857D01*
X73703866Y-16182857D02*
X73894342Y-16230476D01*
X73894342Y-16230476D02*
X73989580Y-16278095D01*
X73989580Y-16278095D02*
X74037200Y-16325714D01*
X74037200Y-16325714D02*
X74084819Y-16420952D01*
X74084819Y-16420952D02*
X74084819Y-16516190D01*
X74084819Y-16516190D02*
X74037200Y-16611428D01*
X74037200Y-16611428D02*
X73989580Y-16659047D01*
X73989580Y-16659047D02*
X73894342Y-16706666D01*
X73894342Y-16706666D02*
X73703866Y-16754285D01*
X73703866Y-16754285D02*
X73465771Y-16754285D01*
X73465771Y-16754285D02*
X73275295Y-16706666D01*
X73275295Y-16706666D02*
X73180057Y-16659047D01*
X73180057Y-16659047D02*
X73132438Y-16611428D01*
X73132438Y-16611428D02*
X73084819Y-16516190D01*
X74084819Y-15754285D02*
X73084819Y-15754285D01*
X73703866Y-15659047D02*
X74084819Y-15373333D01*
X73418152Y-15373333D02*
X73799104Y-15754285D01*
X78824819Y-16706666D02*
X78348628Y-17039999D01*
X78824819Y-17278094D02*
X77824819Y-17278094D01*
X77824819Y-17278094D02*
X77824819Y-16897142D01*
X77824819Y-16897142D02*
X77872438Y-16801904D01*
X77872438Y-16801904D02*
X77920057Y-16754285D01*
X77920057Y-16754285D02*
X78015295Y-16706666D01*
X78015295Y-16706666D02*
X78158152Y-16706666D01*
X78158152Y-16706666D02*
X78253390Y-16754285D01*
X78253390Y-16754285D02*
X78301009Y-16801904D01*
X78301009Y-16801904D02*
X78348628Y-16897142D01*
X78348628Y-16897142D02*
X78348628Y-17278094D01*
X78158152Y-15849523D02*
X78824819Y-15849523D01*
X77777200Y-16087618D02*
X78491485Y-16325713D01*
X78491485Y-16325713D02*
X78491485Y-15706666D01*
X54954819Y-16369047D02*
X54954819Y-16940475D01*
X54954819Y-16654761D02*
X53954819Y-16654761D01*
X53954819Y-16654761D02*
X54097676Y-16749999D01*
X54097676Y-16749999D02*
X54192914Y-16845237D01*
X54192914Y-16845237D02*
X54240533Y-16940475D01*
X53954819Y-15749999D02*
X53954819Y-15654761D01*
X53954819Y-15654761D02*
X54002438Y-15559523D01*
X54002438Y-15559523D02*
X54050057Y-15511904D01*
X54050057Y-15511904D02*
X54145295Y-15464285D01*
X54145295Y-15464285D02*
X54335771Y-15416666D01*
X54335771Y-15416666D02*
X54573866Y-15416666D01*
X54573866Y-15416666D02*
X54764342Y-15464285D01*
X54764342Y-15464285D02*
X54859580Y-15511904D01*
X54859580Y-15511904D02*
X54907200Y-15559523D01*
X54907200Y-15559523D02*
X54954819Y-15654761D01*
X54954819Y-15654761D02*
X54954819Y-15749999D01*
X54954819Y-15749999D02*
X54907200Y-15845237D01*
X54907200Y-15845237D02*
X54859580Y-15892856D01*
X54859580Y-15892856D02*
X54764342Y-15940475D01*
X54764342Y-15940475D02*
X54573866Y-15988094D01*
X54573866Y-15988094D02*
X54335771Y-15988094D01*
X54335771Y-15988094D02*
X54145295Y-15940475D01*
X54145295Y-15940475D02*
X54050057Y-15892856D01*
X54050057Y-15892856D02*
X54002438Y-15845237D01*
X54002438Y-15845237D02*
X53954819Y-15749999D01*
X53954819Y-14797618D02*
X53954819Y-14702380D01*
X53954819Y-14702380D02*
X54002438Y-14607142D01*
X54002438Y-14607142D02*
X54050057Y-14559523D01*
X54050057Y-14559523D02*
X54145295Y-14511904D01*
X54145295Y-14511904D02*
X54335771Y-14464285D01*
X54335771Y-14464285D02*
X54573866Y-14464285D01*
X54573866Y-14464285D02*
X54764342Y-14511904D01*
X54764342Y-14511904D02*
X54859580Y-14559523D01*
X54859580Y-14559523D02*
X54907200Y-14607142D01*
X54907200Y-14607142D02*
X54954819Y-14702380D01*
X54954819Y-14702380D02*
X54954819Y-14797618D01*
X54954819Y-14797618D02*
X54907200Y-14892856D01*
X54907200Y-14892856D02*
X54859580Y-14940475D01*
X54859580Y-14940475D02*
X54764342Y-14988094D01*
X54764342Y-14988094D02*
X54573866Y-15035713D01*
X54573866Y-15035713D02*
X54335771Y-15035713D01*
X54335771Y-15035713D02*
X54145295Y-14988094D01*
X54145295Y-14988094D02*
X54050057Y-14940475D01*
X54050057Y-14940475D02*
X54002438Y-14892856D01*
X54002438Y-14892856D02*
X53954819Y-14797618D01*
X54288152Y-14035713D02*
X54954819Y-14035713D01*
X54383390Y-14035713D02*
X54335771Y-13988094D01*
X54335771Y-13988094D02*
X54288152Y-13892856D01*
X54288152Y-13892856D02*
X54288152Y-13749999D01*
X54288152Y-13749999D02*
X54335771Y-13654761D01*
X54335771Y-13654761D02*
X54431009Y-13607142D01*
X54431009Y-13607142D02*
X54954819Y-13607142D01*
X57359580Y-15416666D02*
X57407200Y-15464285D01*
X57407200Y-15464285D02*
X57454819Y-15607142D01*
X57454819Y-15607142D02*
X57454819Y-15702380D01*
X57454819Y-15702380D02*
X57407200Y-15845237D01*
X57407200Y-15845237D02*
X57311961Y-15940475D01*
X57311961Y-15940475D02*
X57216723Y-15988094D01*
X57216723Y-15988094D02*
X57026247Y-16035713D01*
X57026247Y-16035713D02*
X56883390Y-16035713D01*
X56883390Y-16035713D02*
X56692914Y-15988094D01*
X56692914Y-15988094D02*
X56597676Y-15940475D01*
X56597676Y-15940475D02*
X56502438Y-15845237D01*
X56502438Y-15845237D02*
X56454819Y-15702380D01*
X56454819Y-15702380D02*
X56454819Y-15607142D01*
X56454819Y-15607142D02*
X56502438Y-15464285D01*
X56502438Y-15464285D02*
X56550057Y-15416666D01*
X57454819Y-14464285D02*
X57454819Y-15035713D01*
X57454819Y-14749999D02*
X56454819Y-14749999D01*
X56454819Y-14749999D02*
X56597676Y-14845237D01*
X56597676Y-14845237D02*
X56692914Y-14940475D01*
X56692914Y-14940475D02*
X56740533Y-15035713D01*
X67180057Y-44182856D02*
X67132438Y-44135237D01*
X67132438Y-44135237D02*
X67084819Y-44039999D01*
X67084819Y-44039999D02*
X67084819Y-43801904D01*
X67084819Y-43801904D02*
X67132438Y-43706666D01*
X67132438Y-43706666D02*
X67180057Y-43659047D01*
X67180057Y-43659047D02*
X67275295Y-43611428D01*
X67275295Y-43611428D02*
X67370533Y-43611428D01*
X67370533Y-43611428D02*
X67513390Y-43659047D01*
X67513390Y-43659047D02*
X68084819Y-44230475D01*
X68084819Y-44230475D02*
X68084819Y-43611428D01*
X67180057Y-43230475D02*
X67132438Y-43182856D01*
X67132438Y-43182856D02*
X67084819Y-43087618D01*
X67084819Y-43087618D02*
X67084819Y-42849523D01*
X67084819Y-42849523D02*
X67132438Y-42754285D01*
X67132438Y-42754285D02*
X67180057Y-42706666D01*
X67180057Y-42706666D02*
X67275295Y-42659047D01*
X67275295Y-42659047D02*
X67370533Y-42659047D01*
X67370533Y-42659047D02*
X67513390Y-42706666D01*
X67513390Y-42706666D02*
X68084819Y-43278094D01*
X68084819Y-43278094D02*
X68084819Y-42659047D01*
X67084819Y-42039999D02*
X67084819Y-41944761D01*
X67084819Y-41944761D02*
X67132438Y-41849523D01*
X67132438Y-41849523D02*
X67180057Y-41801904D01*
X67180057Y-41801904D02*
X67275295Y-41754285D01*
X67275295Y-41754285D02*
X67465771Y-41706666D01*
X67465771Y-41706666D02*
X67703866Y-41706666D01*
X67703866Y-41706666D02*
X67894342Y-41754285D01*
X67894342Y-41754285D02*
X67989580Y-41801904D01*
X67989580Y-41801904D02*
X68037200Y-41849523D01*
X68037200Y-41849523D02*
X68084819Y-41944761D01*
X68084819Y-41944761D02*
X68084819Y-42039999D01*
X68084819Y-42039999D02*
X68037200Y-42135237D01*
X68037200Y-42135237D02*
X67989580Y-42182856D01*
X67989580Y-42182856D02*
X67894342Y-42230475D01*
X67894342Y-42230475D02*
X67703866Y-42278094D01*
X67703866Y-42278094D02*
X67465771Y-42278094D01*
X67465771Y-42278094D02*
X67275295Y-42230475D01*
X67275295Y-42230475D02*
X67180057Y-42182856D01*
X67180057Y-42182856D02*
X67132438Y-42135237D01*
X67132438Y-42135237D02*
X67084819Y-42039999D01*
X68084819Y-41278094D02*
X67084819Y-41278094D01*
X67703866Y-41182856D02*
X68084819Y-40897142D01*
X67418152Y-40897142D02*
X67799104Y-41278094D01*
X72824819Y-43182857D02*
X72348628Y-43516190D01*
X72824819Y-43754285D02*
X71824819Y-43754285D01*
X71824819Y-43754285D02*
X71824819Y-43373333D01*
X71824819Y-43373333D02*
X71872438Y-43278095D01*
X71872438Y-43278095D02*
X71920057Y-43230476D01*
X71920057Y-43230476D02*
X72015295Y-43182857D01*
X72015295Y-43182857D02*
X72158152Y-43182857D01*
X72158152Y-43182857D02*
X72253390Y-43230476D01*
X72253390Y-43230476D02*
X72301009Y-43278095D01*
X72301009Y-43278095D02*
X72348628Y-43373333D01*
X72348628Y-43373333D02*
X72348628Y-43754285D01*
X72824819Y-42230476D02*
X72824819Y-42801904D01*
X72824819Y-42516190D02*
X71824819Y-42516190D01*
X71824819Y-42516190D02*
X71967676Y-42611428D01*
X71967676Y-42611428D02*
X72062914Y-42706666D01*
X72062914Y-42706666D02*
X72110533Y-42801904D01*
X71824819Y-41611428D02*
X71824819Y-41516190D01*
X71824819Y-41516190D02*
X71872438Y-41420952D01*
X71872438Y-41420952D02*
X71920057Y-41373333D01*
X71920057Y-41373333D02*
X72015295Y-41325714D01*
X72015295Y-41325714D02*
X72205771Y-41278095D01*
X72205771Y-41278095D02*
X72443866Y-41278095D01*
X72443866Y-41278095D02*
X72634342Y-41325714D01*
X72634342Y-41325714D02*
X72729580Y-41373333D01*
X72729580Y-41373333D02*
X72777200Y-41420952D01*
X72777200Y-41420952D02*
X72824819Y-41516190D01*
X72824819Y-41516190D02*
X72824819Y-41611428D01*
X72824819Y-41611428D02*
X72777200Y-41706666D01*
X72777200Y-41706666D02*
X72729580Y-41754285D01*
X72729580Y-41754285D02*
X72634342Y-41801904D01*
X72634342Y-41801904D02*
X72443866Y-41849523D01*
X72443866Y-41849523D02*
X72205771Y-41849523D01*
X72205771Y-41849523D02*
X72015295Y-41801904D01*
X72015295Y-41801904D02*
X71920057Y-41754285D01*
X71920057Y-41754285D02*
X71872438Y-41706666D01*
X71872438Y-41706666D02*
X71824819Y-41611428D01*
X78084819Y-17135238D02*
X78084819Y-17706666D01*
X78084819Y-17420952D02*
X77084819Y-17420952D01*
X77084819Y-17420952D02*
X77227676Y-17516190D01*
X77227676Y-17516190D02*
X77322914Y-17611428D01*
X77322914Y-17611428D02*
X77370533Y-17706666D01*
X77084819Y-16516190D02*
X77084819Y-16420952D01*
X77084819Y-16420952D02*
X77132438Y-16325714D01*
X77132438Y-16325714D02*
X77180057Y-16278095D01*
X77180057Y-16278095D02*
X77275295Y-16230476D01*
X77275295Y-16230476D02*
X77465771Y-16182857D01*
X77465771Y-16182857D02*
X77703866Y-16182857D01*
X77703866Y-16182857D02*
X77894342Y-16230476D01*
X77894342Y-16230476D02*
X77989580Y-16278095D01*
X77989580Y-16278095D02*
X78037200Y-16325714D01*
X78037200Y-16325714D02*
X78084819Y-16420952D01*
X78084819Y-16420952D02*
X78084819Y-16516190D01*
X78084819Y-16516190D02*
X78037200Y-16611428D01*
X78037200Y-16611428D02*
X77989580Y-16659047D01*
X77989580Y-16659047D02*
X77894342Y-16706666D01*
X77894342Y-16706666D02*
X77703866Y-16754285D01*
X77703866Y-16754285D02*
X77465771Y-16754285D01*
X77465771Y-16754285D02*
X77275295Y-16706666D01*
X77275295Y-16706666D02*
X77180057Y-16659047D01*
X77180057Y-16659047D02*
X77132438Y-16611428D01*
X77132438Y-16611428D02*
X77084819Y-16516190D01*
X78084819Y-15754285D02*
X77084819Y-15754285D01*
X77703866Y-15659047D02*
X78084819Y-15373333D01*
X77418152Y-15373333D02*
X77799104Y-15754285D01*
X82824819Y-16706666D02*
X82348628Y-17039999D01*
X82824819Y-17278094D02*
X81824819Y-17278094D01*
X81824819Y-17278094D02*
X81824819Y-16897142D01*
X81824819Y-16897142D02*
X81872438Y-16801904D01*
X81872438Y-16801904D02*
X81920057Y-16754285D01*
X81920057Y-16754285D02*
X82015295Y-16706666D01*
X82015295Y-16706666D02*
X82158152Y-16706666D01*
X82158152Y-16706666D02*
X82253390Y-16754285D01*
X82253390Y-16754285D02*
X82301009Y-16801904D01*
X82301009Y-16801904D02*
X82348628Y-16897142D01*
X82348628Y-16897142D02*
X82348628Y-17278094D01*
X81824819Y-15801904D02*
X81824819Y-16278094D01*
X81824819Y-16278094D02*
X82301009Y-16325713D01*
X82301009Y-16325713D02*
X82253390Y-16278094D01*
X82253390Y-16278094D02*
X82205771Y-16182856D01*
X82205771Y-16182856D02*
X82205771Y-15944761D01*
X82205771Y-15944761D02*
X82253390Y-15849523D01*
X82253390Y-15849523D02*
X82301009Y-15801904D01*
X82301009Y-15801904D02*
X82396247Y-15754285D01*
X82396247Y-15754285D02*
X82634342Y-15754285D01*
X82634342Y-15754285D02*
X82729580Y-15801904D01*
X82729580Y-15801904D02*
X82777200Y-15849523D01*
X82777200Y-15849523D02*
X82824819Y-15944761D01*
X82824819Y-15944761D02*
X82824819Y-16182856D01*
X82824819Y-16182856D02*
X82777200Y-16278094D01*
X82777200Y-16278094D02*
X82729580Y-16325713D01*
X77180057Y-44182856D02*
X77132438Y-44135237D01*
X77132438Y-44135237D02*
X77084819Y-44039999D01*
X77084819Y-44039999D02*
X77084819Y-43801904D01*
X77084819Y-43801904D02*
X77132438Y-43706666D01*
X77132438Y-43706666D02*
X77180057Y-43659047D01*
X77180057Y-43659047D02*
X77275295Y-43611428D01*
X77275295Y-43611428D02*
X77370533Y-43611428D01*
X77370533Y-43611428D02*
X77513390Y-43659047D01*
X77513390Y-43659047D02*
X78084819Y-44230475D01*
X78084819Y-44230475D02*
X78084819Y-43611428D01*
X77180057Y-43230475D02*
X77132438Y-43182856D01*
X77132438Y-43182856D02*
X77084819Y-43087618D01*
X77084819Y-43087618D02*
X77084819Y-42849523D01*
X77084819Y-42849523D02*
X77132438Y-42754285D01*
X77132438Y-42754285D02*
X77180057Y-42706666D01*
X77180057Y-42706666D02*
X77275295Y-42659047D01*
X77275295Y-42659047D02*
X77370533Y-42659047D01*
X77370533Y-42659047D02*
X77513390Y-42706666D01*
X77513390Y-42706666D02*
X78084819Y-43278094D01*
X78084819Y-43278094D02*
X78084819Y-42659047D01*
X77084819Y-42039999D02*
X77084819Y-41944761D01*
X77084819Y-41944761D02*
X77132438Y-41849523D01*
X77132438Y-41849523D02*
X77180057Y-41801904D01*
X77180057Y-41801904D02*
X77275295Y-41754285D01*
X77275295Y-41754285D02*
X77465771Y-41706666D01*
X77465771Y-41706666D02*
X77703866Y-41706666D01*
X77703866Y-41706666D02*
X77894342Y-41754285D01*
X77894342Y-41754285D02*
X77989580Y-41801904D01*
X77989580Y-41801904D02*
X78037200Y-41849523D01*
X78037200Y-41849523D02*
X78084819Y-41944761D01*
X78084819Y-41944761D02*
X78084819Y-42039999D01*
X78084819Y-42039999D02*
X78037200Y-42135237D01*
X78037200Y-42135237D02*
X77989580Y-42182856D01*
X77989580Y-42182856D02*
X77894342Y-42230475D01*
X77894342Y-42230475D02*
X77703866Y-42278094D01*
X77703866Y-42278094D02*
X77465771Y-42278094D01*
X77465771Y-42278094D02*
X77275295Y-42230475D01*
X77275295Y-42230475D02*
X77180057Y-42182856D01*
X77180057Y-42182856D02*
X77132438Y-42135237D01*
X77132438Y-42135237D02*
X77084819Y-42039999D01*
X78084819Y-41278094D02*
X77084819Y-41278094D01*
X77703866Y-41182856D02*
X78084819Y-40897142D01*
X77418152Y-40897142D02*
X77799104Y-41278094D01*
X82824819Y-43182857D02*
X82348628Y-43516190D01*
X82824819Y-43754285D02*
X81824819Y-43754285D01*
X81824819Y-43754285D02*
X81824819Y-43373333D01*
X81824819Y-43373333D02*
X81872438Y-43278095D01*
X81872438Y-43278095D02*
X81920057Y-43230476D01*
X81920057Y-43230476D02*
X82015295Y-43182857D01*
X82015295Y-43182857D02*
X82158152Y-43182857D01*
X82158152Y-43182857D02*
X82253390Y-43230476D01*
X82253390Y-43230476D02*
X82301009Y-43278095D01*
X82301009Y-43278095D02*
X82348628Y-43373333D01*
X82348628Y-43373333D02*
X82348628Y-43754285D01*
X82824819Y-42230476D02*
X82824819Y-42801904D01*
X82824819Y-42516190D02*
X81824819Y-42516190D01*
X81824819Y-42516190D02*
X81967676Y-42611428D01*
X81967676Y-42611428D02*
X82062914Y-42706666D01*
X82062914Y-42706666D02*
X82110533Y-42801904D01*
X81920057Y-41849523D02*
X81872438Y-41801904D01*
X81872438Y-41801904D02*
X81824819Y-41706666D01*
X81824819Y-41706666D02*
X81824819Y-41468571D01*
X81824819Y-41468571D02*
X81872438Y-41373333D01*
X81872438Y-41373333D02*
X81920057Y-41325714D01*
X81920057Y-41325714D02*
X82015295Y-41278095D01*
X82015295Y-41278095D02*
X82110533Y-41278095D01*
X82110533Y-41278095D02*
X82253390Y-41325714D01*
X82253390Y-41325714D02*
X82824819Y-41897142D01*
X82824819Y-41897142D02*
X82824819Y-41278095D01*
X57180057Y-44182856D02*
X57132438Y-44135237D01*
X57132438Y-44135237D02*
X57084819Y-44039999D01*
X57084819Y-44039999D02*
X57084819Y-43801904D01*
X57084819Y-43801904D02*
X57132438Y-43706666D01*
X57132438Y-43706666D02*
X57180057Y-43659047D01*
X57180057Y-43659047D02*
X57275295Y-43611428D01*
X57275295Y-43611428D02*
X57370533Y-43611428D01*
X57370533Y-43611428D02*
X57513390Y-43659047D01*
X57513390Y-43659047D02*
X58084819Y-44230475D01*
X58084819Y-44230475D02*
X58084819Y-43611428D01*
X57180057Y-43230475D02*
X57132438Y-43182856D01*
X57132438Y-43182856D02*
X57084819Y-43087618D01*
X57084819Y-43087618D02*
X57084819Y-42849523D01*
X57084819Y-42849523D02*
X57132438Y-42754285D01*
X57132438Y-42754285D02*
X57180057Y-42706666D01*
X57180057Y-42706666D02*
X57275295Y-42659047D01*
X57275295Y-42659047D02*
X57370533Y-42659047D01*
X57370533Y-42659047D02*
X57513390Y-42706666D01*
X57513390Y-42706666D02*
X58084819Y-43278094D01*
X58084819Y-43278094D02*
X58084819Y-42659047D01*
X57084819Y-42039999D02*
X57084819Y-41944761D01*
X57084819Y-41944761D02*
X57132438Y-41849523D01*
X57132438Y-41849523D02*
X57180057Y-41801904D01*
X57180057Y-41801904D02*
X57275295Y-41754285D01*
X57275295Y-41754285D02*
X57465771Y-41706666D01*
X57465771Y-41706666D02*
X57703866Y-41706666D01*
X57703866Y-41706666D02*
X57894342Y-41754285D01*
X57894342Y-41754285D02*
X57989580Y-41801904D01*
X57989580Y-41801904D02*
X58037200Y-41849523D01*
X58037200Y-41849523D02*
X58084819Y-41944761D01*
X58084819Y-41944761D02*
X58084819Y-42039999D01*
X58084819Y-42039999D02*
X58037200Y-42135237D01*
X58037200Y-42135237D02*
X57989580Y-42182856D01*
X57989580Y-42182856D02*
X57894342Y-42230475D01*
X57894342Y-42230475D02*
X57703866Y-42278094D01*
X57703866Y-42278094D02*
X57465771Y-42278094D01*
X57465771Y-42278094D02*
X57275295Y-42230475D01*
X57275295Y-42230475D02*
X57180057Y-42182856D01*
X57180057Y-42182856D02*
X57132438Y-42135237D01*
X57132438Y-42135237D02*
X57084819Y-42039999D01*
X58084819Y-41278094D02*
X57084819Y-41278094D01*
X57703866Y-41182856D02*
X58084819Y-40897142D01*
X57418152Y-40897142D02*
X57799104Y-41278094D01*
X62824819Y-42706666D02*
X62348628Y-43039999D01*
X62824819Y-43278094D02*
X61824819Y-43278094D01*
X61824819Y-43278094D02*
X61824819Y-42897142D01*
X61824819Y-42897142D02*
X61872438Y-42801904D01*
X61872438Y-42801904D02*
X61920057Y-42754285D01*
X61920057Y-42754285D02*
X62015295Y-42706666D01*
X62015295Y-42706666D02*
X62158152Y-42706666D01*
X62158152Y-42706666D02*
X62253390Y-42754285D01*
X62253390Y-42754285D02*
X62301009Y-42801904D01*
X62301009Y-42801904D02*
X62348628Y-42897142D01*
X62348628Y-42897142D02*
X62348628Y-43278094D01*
X62253390Y-42135237D02*
X62205771Y-42230475D01*
X62205771Y-42230475D02*
X62158152Y-42278094D01*
X62158152Y-42278094D02*
X62062914Y-42325713D01*
X62062914Y-42325713D02*
X62015295Y-42325713D01*
X62015295Y-42325713D02*
X61920057Y-42278094D01*
X61920057Y-42278094D02*
X61872438Y-42230475D01*
X61872438Y-42230475D02*
X61824819Y-42135237D01*
X61824819Y-42135237D02*
X61824819Y-41944761D01*
X61824819Y-41944761D02*
X61872438Y-41849523D01*
X61872438Y-41849523D02*
X61920057Y-41801904D01*
X61920057Y-41801904D02*
X62015295Y-41754285D01*
X62015295Y-41754285D02*
X62062914Y-41754285D01*
X62062914Y-41754285D02*
X62158152Y-41801904D01*
X62158152Y-41801904D02*
X62205771Y-41849523D01*
X62205771Y-41849523D02*
X62253390Y-41944761D01*
X62253390Y-41944761D02*
X62253390Y-42135237D01*
X62253390Y-42135237D02*
X62301009Y-42230475D01*
X62301009Y-42230475D02*
X62348628Y-42278094D01*
X62348628Y-42278094D02*
X62443866Y-42325713D01*
X62443866Y-42325713D02*
X62634342Y-42325713D01*
X62634342Y-42325713D02*
X62729580Y-42278094D01*
X62729580Y-42278094D02*
X62777200Y-42230475D01*
X62777200Y-42230475D02*
X62824819Y-42135237D01*
X62824819Y-42135237D02*
X62824819Y-41944761D01*
X62824819Y-41944761D02*
X62777200Y-41849523D01*
X62777200Y-41849523D02*
X62729580Y-41801904D01*
X62729580Y-41801904D02*
X62634342Y-41754285D01*
X62634342Y-41754285D02*
X62443866Y-41754285D01*
X62443866Y-41754285D02*
X62348628Y-41801904D01*
X62348628Y-41801904D02*
X62301009Y-41849523D01*
X62301009Y-41849523D02*
X62253390Y-41944761D01*
%TO.C,R3*%
D12*
X72000000Y-14000000D02*
X72000000Y-19080000D01*
X73250000Y-14000000D02*
G75*
G02*
X70750000Y-14000000I-1250000J0D01*
G01*
X70750000Y-14000000D02*
G75*
G02*
X73250000Y-14000000I1250000J0D01*
G01*
%TO.C,R1*%
X46000000Y-14000000D02*
X46000000Y-19080000D01*
X47250000Y-14000000D02*
G75*
G02*
X44750000Y-14000000I-1250000J0D01*
G01*
X44750000Y-14000000D02*
G75*
G02*
X47250000Y-14000000I1250000J0D01*
G01*
%TO.C,C2*%
X63087500Y-12866395D02*
X63087500Y-13366395D01*
X63337500Y-13116395D02*
X62837500Y-13116395D01*
X64500000Y-15000000D02*
G75*
G02*
X59500000Y-15000000I-2500000J0D01*
G01*
X59500000Y-15000000D02*
G75*
G02*
X64500000Y-15000000I2500000J0D01*
G01*
%TO.C,TP4*%
D11*
X52700000Y-59800000D02*
X52700000Y-60200000D01*
X52700000Y-60200000D02*
X55300000Y-60200000D01*
X55300000Y-59800000D02*
X52700000Y-59800000D01*
X55300000Y-60200000D02*
X55300000Y-59800000D01*
%TO.C,R2*%
D12*
X68000000Y-14000000D02*
X68000000Y-19080000D01*
X69250000Y-14000000D02*
G75*
G02*
X66750000Y-14000000I-1250000J0D01*
G01*
X66750000Y-14000000D02*
G75*
G02*
X69250000Y-14000000I1250000J0D01*
G01*
%TO.C,TP5*%
D11*
X60700000Y-59800000D02*
X60700000Y-60200000D01*
X60700000Y-60200000D02*
X63300000Y-60200000D01*
X63300000Y-59800000D02*
X60700000Y-59800000D01*
X63300000Y-60200000D02*
X63300000Y-59800000D01*
%TO.C,D1*%
D12*
X48833810Y-21230000D02*
X51166190Y-21230000D01*
X48833810Y-21230000D02*
G75*
G02*
X51166190Y-21230000I1166190J1500000D01*
G01*
X51500000Y-19730000D02*
G75*
G02*
X48500000Y-19730000I-1500000J0D01*
G01*
X48500000Y-19730000D02*
G75*
G02*
X51500000Y-19730000I1500000J0D01*
G01*
%TO.C,R13*%
X85000000Y-40000000D02*
X85000000Y-45080000D01*
X86250000Y-40000000D02*
G75*
G02*
X83750000Y-40000000I-1250000J0D01*
G01*
X83750000Y-40000000D02*
G75*
G02*
X86250000Y-40000000I1250000J0D01*
G01*
%TO.C,R11*%
X75000000Y-40000000D02*
X75000000Y-45080000D01*
X76250000Y-40000000D02*
G75*
G02*
X73750000Y-40000000I-1250000J0D01*
G01*
X73750000Y-40000000D02*
G75*
G02*
X76250000Y-40000000I1250000J0D01*
G01*
%TO.C,R7*%
X55000000Y-40000000D02*
X55000000Y-45080000D01*
X56250000Y-40000000D02*
G75*
G02*
X53750000Y-40000000I-1250000J0D01*
G01*
X53750000Y-40000000D02*
G75*
G02*
X56250000Y-40000000I1250000J0D01*
G01*
%TO.C,TP2*%
D11*
X36700000Y-59800000D02*
X36700000Y-60200000D01*
X36700000Y-60200000D02*
X39300000Y-60200000D01*
X39300000Y-59800000D02*
X36700000Y-59800000D01*
X39300000Y-60200000D02*
X39300000Y-59800000D01*
%TO.C,TP3*%
X44700000Y-59800000D02*
X44700000Y-60200000D01*
X44700000Y-60200000D02*
X47300000Y-60200000D01*
X47300000Y-59800000D02*
X44700000Y-59800000D01*
X47300000Y-60200000D02*
X47300000Y-59800000D01*
%TO.C,R9*%
D12*
X65000000Y-40000000D02*
X65000000Y-45080000D01*
X66250000Y-40000000D02*
G75*
G02*
X63750000Y-40000000I-1250000J0D01*
G01*
X63750000Y-40000000D02*
G75*
G02*
X66250000Y-40000000I1250000J0D01*
G01*
%TO.C,TP6*%
D11*
X68700000Y-59800000D02*
X68700000Y-60200000D01*
X68700000Y-60200000D02*
X71300000Y-60200000D01*
X71300000Y-59800000D02*
X68700000Y-59800000D01*
X71300000Y-60200000D02*
X71300000Y-59800000D01*
%TO.C,F1*%
D12*
X19400000Y-14300000D02*
X19400000Y-19600000D01*
X19400000Y-14300000D02*
X42800000Y-14300000D01*
X19400000Y-19600000D02*
X42800000Y-19600000D01*
X42800000Y-14300000D02*
X42800000Y-19600000D01*
%TO.C,J2*%
X16000000Y-45050000D02*
G75*
G02*
X12000000Y-45050000I-2000000J0D01*
G01*
X12000000Y-45050000D02*
G75*
G02*
X16000000Y-45050000I2000000J0D01*
G01*
X18850258Y-45050000D02*
G75*
G02*
X9149742Y-45050000I-4850258J0D01*
G01*
X9149742Y-45050000D02*
G75*
G02*
X18850258Y-45050000I4850258J0D01*
G01*
%TO.C,J1*%
X16000000Y-26000000D02*
G75*
G02*
X12000000Y-26000000I-2000000J0D01*
G01*
X12000000Y-26000000D02*
G75*
G02*
X16000000Y-26000000I2000000J0D01*
G01*
X18850258Y-26000000D02*
G75*
G02*
X9149742Y-26000000I-4850258J0D01*
G01*
X9149742Y-26000000D02*
G75*
G02*
X18850258Y-26000000I4850258J0D01*
G01*
%TO.C,TP1*%
D11*
X28700000Y-59800000D02*
X28700000Y-60200000D01*
X28700000Y-60200000D02*
X31300000Y-60200000D01*
X31300000Y-59800000D02*
X28700000Y-59800000D01*
X31300000Y-60200000D02*
X31300000Y-59800000D01*
%TO.C,R6*%
D12*
X50000000Y-40000000D02*
X50000000Y-45080000D01*
X51250000Y-40000000D02*
G75*
G02*
X48750000Y-40000000I-1250000J0D01*
G01*
X48750000Y-40000000D02*
G75*
G02*
X51250000Y-40000000I1250000J0D01*
G01*
%TO.C,R4*%
X76000000Y-14000000D02*
X76000000Y-19080000D01*
X77250000Y-14000000D02*
G75*
G02*
X74750000Y-14000000I-1250000J0D01*
G01*
X74750000Y-14000000D02*
G75*
G02*
X77250000Y-14000000I1250000J0D01*
G01*
%TO.C,C1*%
X55750000Y-12750000D02*
X58250000Y-12750000D01*
X58250000Y-17750000D01*
X55750000Y-17750000D01*
X55750000Y-12750000D01*
%TO.C,R10*%
X70000000Y-40000000D02*
X70000000Y-45080000D01*
X71250000Y-40000000D02*
G75*
G02*
X68750000Y-40000000I-1250000J0D01*
G01*
X68750000Y-40000000D02*
G75*
G02*
X71250000Y-40000000I1250000J0D01*
G01*
%TO.C,R5*%
X80000000Y-14000000D02*
X80000000Y-19080000D01*
X81250000Y-14000000D02*
G75*
G02*
X78750000Y-14000000I-1250000J0D01*
G01*
X78750000Y-14000000D02*
G75*
G02*
X81250000Y-14000000I1250000J0D01*
G01*
%TO.C,R12*%
X80000000Y-40000000D02*
X80000000Y-45080000D01*
X81250000Y-40000000D02*
G75*
G02*
X78750000Y-40000000I-1250000J0D01*
G01*
X78750000Y-40000000D02*
G75*
G02*
X81250000Y-40000000I1250000J0D01*
G01*
%TO.C,R8*%
X60000000Y-40000000D02*
X60000000Y-45080000D01*
X61250000Y-40000000D02*
G75*
G02*
X58750000Y-40000000I-1250000J0D01*
G01*
X58750000Y-40000000D02*
G75*
G02*
X61250000Y-40000000I1250000J0D01*
G01*
%TD*%
M02*
