%TF.GenerationSoftware,KiCad,Pcbnew,10.0.5*%
%TF.CreationDate,2026-09-11T08:53:43-04:00*%
%TF.ProjectId,hub,6875622e-6b69-4636-9164-5f7063625858,rev?*%
%TF.SameCoordinates,Original*%
%TF.FileFunction,Soldermask,Top*%
%TF.FilePolarity,Negative*%
%FSLAX46Y46*%
G04 Gerber Fmt 4.6, Leading zero omitted, Abs format (unit mm)*
G04 Created by KiCad (PCBNEW 10.0.5) date 2026-09-11 08:53:43*
%MOMM*%
%LPD*%
G01*
G04 APERTURE LIST*
G04 Aperture macros list*
%AMRoundRect*
0 Rectangle with rounded corners*
0 $1 Rounding radius*
0 $2 $3 $4 $5 $6 $7 $8 $9 X,Y pos of 4 corners*
0 Add a 4 corners polygon primitive as box body*
4,1,4,$2,$3,$4,$5,$6,$7,$8,$9,$2,$3,0*
0 Add four circle primitives for the rounded corners*
1,1,$1+$1,$2,$3*
1,1,$1+$1,$4,$5*
1,1,$1+$1,$6,$7*
1,1,$1+$1,$8,$9*
0 Add four rect primitives between the rounded corners*
20,1,$1+$1,$2,$3,$4,$5,0*
20,1,$1+$1,$4,$5,$6,$7,0*
20,1,$1+$1,$6,$7,$8,$9,0*
20,1,$1+$1,$8,$9,$2,$3,0*%
G04 Aperture macros list end*
%ADD10C,1.600000*%
%ADD11RoundRect,0.250000X0.600000X0.600000X-0.600000X0.600000X-0.600000X-0.600000X0.600000X-0.600000X0*%
%ADD12C,1.700000*%
%ADD13C,3.500000*%
%ADD14C,2.000000*%
%ADD15R,1.800000X1.800000*%
%ADD16C,1.800000*%
%ADD17RoundRect,0.250000X-0.550000X0.550000X-0.550000X-0.550000X0.550000X-0.550000X0.550000X0.550000X0*%
%ADD18C,6.400000*%
%ADD19RoundRect,0.250000X0.600000X-0.600000X0.600000X0.600000X-0.600000X0.600000X-0.600000X-0.600000X0*%
%ADD20C,1.560000*%
G04 APERTURE END LIST*
D10*
%TO.C,R7*%
X55000000Y-40000000D03*
X55000000Y-45080000D03*
%TD*%
D11*
%TO.C,J1*%
X14000000Y-30000000D03*
D12*
X14000000Y-27500000D03*
X12000000Y-27500000D03*
X12000000Y-30000000D03*
D13*
X9290000Y-34770000D03*
X9290000Y-22730000D03*
%TD*%
D10*
%TO.C,R9*%
X65000000Y-40000000D03*
X65000000Y-45080000D03*
%TD*%
%TO.C,R4*%
X76000000Y-14000000D03*
X76000000Y-19080000D03*
%TD*%
%TO.C,R11*%
X75000000Y-40000000D03*
X75000000Y-45080000D03*
%TD*%
%TO.C,C1*%
X57000000Y-14000000D03*
X57000000Y-16500000D03*
%TD*%
D14*
%TO.C,TP6*%
X70000000Y-60000000D03*
%TD*%
D15*
%TO.C,D1*%
X50000000Y-21000000D03*
D16*
X50000000Y-18460000D03*
%TD*%
D17*
%TO.C,C2*%
X62000000Y-14000000D03*
D10*
X62000000Y-16000000D03*
%TD*%
%TO.C,R1*%
X46000000Y-14000000D03*
X46000000Y-19080000D03*
%TD*%
D18*
%TO.C,H2*%
X96000000Y-50000000D03*
%TD*%
D10*
%TO.C,R5*%
X80000000Y-14000000D03*
X80000000Y-19080000D03*
%TD*%
D18*
%TO.C,H1*%
X4000000Y-50000000D03*
%TD*%
D10*
%TO.C,R13*%
X85000000Y-40000000D03*
X85000000Y-45080000D03*
%TD*%
D14*
%TO.C,TP3*%
X46000000Y-60000000D03*
%TD*%
D10*
%TO.C,R6*%
X50000000Y-40000000D03*
X50000000Y-45080000D03*
%TD*%
D14*
%TO.C,TP2*%
X38000000Y-60000000D03*
%TD*%
D19*
%TO.C,J2*%
X10630000Y-7500000D03*
D12*
X10630000Y-4960000D03*
X13170000Y-7500000D03*
X13170000Y-4960000D03*
X15710000Y-7500000D03*
X15710000Y-4960000D03*
X18250000Y-7500000D03*
X18250000Y-4960000D03*
X20790000Y-7500000D03*
X20790000Y-4960000D03*
X23330000Y-7500000D03*
X23330000Y-4960000D03*
X25870000Y-7500000D03*
X25870000Y-4960000D03*
X28410000Y-7500000D03*
X28410000Y-4960000D03*
X30950000Y-7500000D03*
X30950000Y-4960000D03*
X33490000Y-7500000D03*
X33490000Y-4960000D03*
X36030000Y-7500000D03*
X36030000Y-4960000D03*
X38570000Y-7500000D03*
X38570000Y-4960000D03*
X41110000Y-7500000D03*
X41110000Y-4960000D03*
X43650000Y-7500000D03*
X43650000Y-4960000D03*
X46190000Y-7500000D03*
X46190000Y-4960000D03*
X48730000Y-7500000D03*
X48730000Y-4960000D03*
X51270000Y-7500000D03*
X51270000Y-4960000D03*
X53810000Y-7500000D03*
X53810000Y-4960000D03*
X56350000Y-7500000D03*
X56350000Y-4960000D03*
X58890000Y-7500000D03*
X58890000Y-4960000D03*
X61430000Y-7500000D03*
X61430000Y-4960000D03*
X63970000Y-7500000D03*
X63970000Y-4960000D03*
X66510000Y-7500000D03*
X66510000Y-4960000D03*
X69050000Y-7500000D03*
X69050000Y-4960000D03*
X71590000Y-7500000D03*
X71590000Y-4960000D03*
X74130000Y-7500000D03*
X74130000Y-4960000D03*
X76670000Y-7500000D03*
X76670000Y-4960000D03*
X79210000Y-7500000D03*
X79210000Y-4960000D03*
X81750000Y-7500000D03*
X81750000Y-4960000D03*
X84290000Y-7500000D03*
X84290000Y-4960000D03*
X86830000Y-7500000D03*
X86830000Y-4960000D03*
X89370000Y-7500000D03*
X89370000Y-4960000D03*
%TD*%
D14*
%TO.C,TP1*%
X30000000Y-60000000D03*
%TD*%
D19*
%TO.C,J3*%
X10630000Y-93000000D03*
D12*
X10630000Y-90460000D03*
X13170000Y-93000000D03*
X13170000Y-90460000D03*
X15710000Y-93000000D03*
X15710000Y-90460000D03*
X18250000Y-93000000D03*
X18250000Y-90460000D03*
X20790000Y-93000000D03*
X20790000Y-90460000D03*
X23330000Y-93000000D03*
X23330000Y-90460000D03*
X25870000Y-93000000D03*
X25870000Y-90460000D03*
X28410000Y-93000000D03*
X28410000Y-90460000D03*
X30950000Y-93000000D03*
X30950000Y-90460000D03*
X33490000Y-93000000D03*
X33490000Y-90460000D03*
X36030000Y-93000000D03*
X36030000Y-90460000D03*
X38570000Y-93000000D03*
X38570000Y-90460000D03*
X41110000Y-93000000D03*
X41110000Y-90460000D03*
X43650000Y-93000000D03*
X43650000Y-90460000D03*
X46190000Y-93000000D03*
X46190000Y-90460000D03*
X48730000Y-93000000D03*
X48730000Y-90460000D03*
X51270000Y-93000000D03*
X51270000Y-90460000D03*
X53810000Y-93000000D03*
X53810000Y-90460000D03*
X56350000Y-93000000D03*
X56350000Y-90460000D03*
X58890000Y-93000000D03*
X58890000Y-90460000D03*
X61430000Y-93000000D03*
X61430000Y-90460000D03*
X63970000Y-93000000D03*
X63970000Y-90460000D03*
X66510000Y-93000000D03*
X66510000Y-90460000D03*
X69050000Y-93000000D03*
X69050000Y-90460000D03*
X71590000Y-93000000D03*
X71590000Y-90460000D03*
X74130000Y-93000000D03*
X74130000Y-90460000D03*
X76670000Y-93000000D03*
X76670000Y-90460000D03*
X79210000Y-93000000D03*
X79210000Y-90460000D03*
X81750000Y-93000000D03*
X81750000Y-90460000D03*
X84290000Y-93000000D03*
X84290000Y-90460000D03*
X86830000Y-93000000D03*
X86830000Y-90460000D03*
X89370000Y-93000000D03*
X89370000Y-90460000D03*
%TD*%
D10*
%TO.C,R2*%
X68000000Y-14000000D03*
X68000000Y-19080000D03*
%TD*%
%TO.C,R3*%
X72000000Y-14000000D03*
X72000000Y-19080000D03*
%TD*%
%TO.C,R10*%
X70000000Y-40000000D03*
X70000000Y-45080000D03*
%TD*%
%TO.C,R8*%
X60000000Y-40000000D03*
X60000000Y-45080000D03*
%TD*%
D14*
%TO.C,TP4*%
X54000000Y-60000000D03*
%TD*%
%TO.C,TP5*%
X62000000Y-60000000D03*
%TD*%
D20*
%TO.C,F1*%
X26000000Y-16000000D03*
X31100000Y-17900000D03*
%TD*%
D10*
%TO.C,R12*%
X80000000Y-40000000D03*
X80000000Y-45080000D03*
%TD*%
M02*
