%TF.GenerationSoftware,KiCad,Pcbnew,10.0.5*%
%TF.CreationDate,2026-09-28T19:53:21-04:00*%
%TF.ProjectId,hub,6875622e-6b69-4636-9164-5f7063625858,rev?*%
%TF.SameCoordinates,Original*%
%TF.FileFunction,Copper,L1,Top*%
%TF.FilePolarity,Positive*%
%FSLAX46Y46*%
G04 Gerber Fmt 4.6, Leading zero omitted, Abs format (unit mm)*
G04 Created by KiCad (PCBNEW 10.0.5) date 2026-09-28 19:53:21*
%MOMM*%
%LPD*%
G01*
G04 APERTURE LIST*
G04 Aperture macros list*
%AMRoundRect*
0 Rectangle with rounded corners*
0 $1 Rounding radius*
0 $2 $3 $4 $5 $6 $7 $8 $9 X,Y pos of 4 corners*
0 Add a 4 corners polygon primitive as box body*
4,1,4,$2,$3,$4,$5,$6,$7,$8,$9,$2,$3,0*
0 Add four circle primitives for the rounded corners*
1,1,$1+$1,$2,$3*
1,1,$1+$1,$4,$5*
1,1,$1+$1,$6,$7*
1,1,$1+$1,$8,$9*
0 Add four rect primitives between the rounded corners*
20,1,$1+$1,$2,$3,$4,$5,0*
20,1,$1+$1,$4,$5,$6,$7,0*
20,1,$1+$1,$6,$7,$8,$9,0*
20,1,$1+$1,$8,$9,$2,$3,0*%
G04 Aperture macros list end*
%TA.AperFunction,ComponentPad*%
%ADD10C,2.000000*%
%TD*%
%TA.AperFunction,ComponentPad*%
%ADD11C,1.600000*%
%TD*%
%TA.AperFunction,ComponentPad*%
%ADD12RoundRect,0.250000X0.600000X-0.600000X0.600000X0.600000X-0.600000X0.600000X-0.600000X-0.600000X0*%
%TD*%
%TA.AperFunction,ComponentPad*%
%ADD13C,1.700000*%
%TD*%
%TA.AperFunction,ComponentPad*%
%ADD14C,6.400000*%
%TD*%
%TA.AperFunction,ComponentPad*%
%ADD15RoundRect,0.250000X-0.550000X0.550000X-0.550000X-0.550000X0.550000X-0.550000X0.550000X0.550000X0*%
%TD*%
%TA.AperFunction,ComponentPad*%
%ADD16C,1.560000*%
%TD*%
%TA.AperFunction,ComponentPad*%
%ADD17R,1.800000X1.800000*%
%TD*%
%TA.AperFunction,ComponentPad*%
%ADD18C,1.800000*%
%TD*%
%TA.AperFunction,ComponentPad*%
%ADD19C,10.160000*%
%TD*%
%TA.AperFunction,ViaPad*%
%ADD20C,0.800000*%
%TD*%
%TA.AperFunction,Conductor*%
%ADD21C,0.800000*%
%TD*%
%TA.AperFunction,Conductor*%
%ADD22C,0.500000*%
%TD*%
%TA.AperFunction,Conductor*%
%ADD23C,0.200000*%
%TD*%
G04 APERTURE END LIST*
D10*
%TO.P,TP3,1*%
%TO.N,BUS2#*%
X46000000Y-60000000D03*
%TD*%
D11*
%TO.P,R13,1*%
%TO.N,M7*%
X85000000Y-40000000D03*
%TO.P,R13,2*%
%TO.N,GND*%
X85000000Y-45080000D03*
%TD*%
%TO.P,R6,1*%
%TO.N,M0*%
X50000000Y-40000000D03*
%TO.P,R6,2*%
%TO.N,GND*%
X50000000Y-45080000D03*
%TD*%
D12*
%TO.P,J3,1*%
%TO.N,+5V*%
X10630000Y-7500000D03*
D13*
%TO.P,J3,2*%
X10630000Y-4960000D03*
%TO.P,J3,3*%
%TO.N,GND*%
X13170000Y-7500000D03*
%TO.P,J3,4*%
X13170000Y-4960000D03*
%TO.P,J3,5*%
%TO.N,CLK*%
X15710000Y-7500000D03*
%TO.P,J3,6*%
%TO.N,GND*%
X15710000Y-4960000D03*
%TO.P,J3,7*%
%TO.N,RST*%
X18250000Y-7500000D03*
%TO.P,J3,8*%
%TO.N,GND*%
X18250000Y-4960000D03*
%TO.P,J3,9*%
%TO.N,BUS0#*%
X20790000Y-7500000D03*
%TO.P,J3,10*%
%TO.N,BUS1#*%
X20790000Y-4960000D03*
%TO.P,J3,11*%
%TO.N,BUS2#*%
X23330000Y-7500000D03*
%TO.P,J3,12*%
%TO.N,BUS3#*%
X23330000Y-4960000D03*
%TO.P,J3,13*%
%TO.N,A0*%
X25870000Y-7500000D03*
%TO.P,J3,14*%
%TO.N,A1*%
X25870000Y-4960000D03*
%TO.P,J3,15*%
%TO.N,A2*%
X28410000Y-7500000D03*
%TO.P,J3,16*%
%TO.N,A3*%
X28410000Y-4960000D03*
%TO.P,J3,17*%
%TO.N,B0*%
X30950000Y-7500000D03*
%TO.P,J3,18*%
%TO.N,B1*%
X30950000Y-4960000D03*
%TO.P,J3,19*%
%TO.N,B2*%
X33490000Y-7500000D03*
%TO.P,J3,20*%
%TO.N,B3*%
X33490000Y-4960000D03*
%TO.P,J3,21*%
%TO.N,PC0*%
X36030000Y-7500000D03*
%TO.P,J3,22*%
%TO.N,PC1*%
X36030000Y-4960000D03*
%TO.P,J3,23*%
%TO.N,PC2*%
X38570000Y-7500000D03*
%TO.P,J3,24*%
%TO.N,PC3*%
X38570000Y-4960000D03*
%TO.P,J3,25*%
%TO.N,PC4*%
X41110000Y-7500000D03*
%TO.P,J3,26*%
%TO.N,PC5*%
X41110000Y-4960000D03*
%TO.P,J3,27*%
%TO.N,PC6*%
X43650000Y-7500000D03*
%TO.P,J3,28*%
%TO.N,PC7*%
X43650000Y-4960000D03*
%TO.P,J3,29*%
%TO.N,M0*%
X46190000Y-7500000D03*
%TO.P,J3,30*%
%TO.N,M1*%
X46190000Y-4960000D03*
%TO.P,J3,31*%
%TO.N,M2*%
X48730000Y-7500000D03*
%TO.P,J3,32*%
%TO.N,M3*%
X48730000Y-4960000D03*
%TO.P,J3,33*%
%TO.N,M4*%
X51270000Y-7500000D03*
%TO.P,J3,34*%
%TO.N,M5*%
X51270000Y-4960000D03*
%TO.P,J3,35*%
%TO.N,M6*%
X53810000Y-7500000D03*
%TO.P,J3,36*%
%TO.N,M7*%
X53810000Y-4960000D03*
%TO.P,J3,37*%
%TO.N,CF*%
X56350000Y-7500000D03*
%TO.P,J3,38*%
%TO.N,ZF*%
X56350000Y-4960000D03*
%TO.P,J3,39*%
%TO.N,SUB*%
X58890000Y-7500000D03*
%TO.P,J3,40*%
%TO.N,EO*%
X58890000Y-4960000D03*
%TO.P,J3,41*%
%TO.N,AI*%
X61430000Y-7500000D03*
%TO.P,J3,42*%
%TO.N,AO*%
X61430000Y-4960000D03*
%TO.P,J3,43*%
%TO.N,BI*%
X63970000Y-7500000D03*
%TO.P,J3,44*%
%TO.N,BO*%
X63970000Y-4960000D03*
%TO.P,J3,45*%
%TO.N,BA*%
X66510000Y-7500000D03*
%TO.P,J3,46*%
%TO.N,AB*%
X66510000Y-4960000D03*
%TO.P,J3,47*%
%TO.N,OI*%
X69050000Y-7500000D03*
%TO.P,J3,48*%
%TO.N,IO*%
X69050000Y-4960000D03*
%TO.P,J3,49*%
%TO.N,II*%
X71590000Y-7500000D03*
%TO.P,J3,50*%
%TO.N,PCE*%
X71590000Y-4960000D03*
%TO.P,J3,51*%
%TO.N,PCL*%
X74130000Y-7500000D03*
%TO.P,J3,52*%
%TO.N,FI*%
X74130000Y-4960000D03*
%TO.P,J3,53*%
%TO.N,HLT*%
X76670000Y-7500000D03*
%TO.P,J3,54*%
%TO.N,MAI*%
X76670000Y-4960000D03*
%TO.P,J3,55*%
%TO.N,MI*%
X79210000Y-7500000D03*
%TO.P,J3,56*%
%TO.N,MO*%
X79210000Y-4960000D03*
%TO.P,J3,57*%
%TO.N,WRL*%
X81750000Y-7500000D03*
%TO.P,J3,58*%
%TO.N,WRH*%
X81750000Y-4960000D03*
%TO.P,J3,59*%
%TO.N,ONE*%
X84290000Y-7500000D03*
%TO.P,J3,60*%
%TO.N,F0*%
X84290000Y-4960000D03*
%TO.P,J3,61*%
%TO.N,F1*%
X86830000Y-7500000D03*
%TO.P,J3,62*%
%TO.N,INP*%
X86830000Y-4960000D03*
%TO.P,J3,63*%
%TO.N,+5V*%
X89370000Y-7500000D03*
%TO.P,J3,64*%
%TO.N,GND*%
X89370000Y-4960000D03*
%TD*%
D10*
%TO.P,TP6,1*%
%TO.N,RST*%
X70000000Y-60000000D03*
%TD*%
D11*
%TO.P,C1,1*%
%TO.N,+5V*%
X57000000Y-14000000D03*
%TO.P,C1,2*%
%TO.N,GND*%
X57000000Y-16500000D03*
%TD*%
%TO.P,R11,1*%
%TO.N,M5*%
X75000000Y-40000000D03*
%TO.P,R11,2*%
%TO.N,GND*%
X75000000Y-45080000D03*
%TD*%
%TO.P,R4,1*%
%TO.N,+5V*%
X76000000Y-14000000D03*
%TO.P,R4,2*%
%TO.N,BUS2#*%
X76000000Y-19080000D03*
%TD*%
D10*
%TO.P,TP1,1*%
%TO.N,BUS0#*%
X30000000Y-60000000D03*
%TD*%
D14*
%TO.P,H1,1*%
%TO.N,N/C*%
X4000000Y-50000000D03*
%TD*%
D11*
%TO.P,R2,1*%
%TO.N,+5V*%
X68000000Y-14000000D03*
%TO.P,R2,2*%
%TO.N,BUS0#*%
X68000000Y-19080000D03*
%TD*%
D10*
%TO.P,TP2,1*%
%TO.N,BUS1#*%
X38000000Y-60000000D03*
%TD*%
D15*
%TO.P,C2,1*%
%TO.N,+5V*%
X62000000Y-14000000D03*
D11*
%TO.P,C2,2*%
%TO.N,GND*%
X62000000Y-16000000D03*
%TD*%
%TO.P,R3,1*%
%TO.N,+5V*%
X72000000Y-14000000D03*
%TO.P,R3,2*%
%TO.N,BUS1#*%
X72000000Y-19080000D03*
%TD*%
D16*
%TO.P,F1,1*%
%TO.N,VBUS*%
X26000000Y-16000000D03*
%TO.P,F1,2*%
%TO.N,+5V*%
X36200000Y-17900000D03*
%TD*%
D12*
%TO.P,J4,1*%
%TO.N,+5V*%
X10630000Y-93000000D03*
D13*
%TO.P,J4,2*%
X10630000Y-90460000D03*
%TO.P,J4,3*%
%TO.N,GND*%
X13170000Y-93000000D03*
%TO.P,J4,4*%
X13170000Y-90460000D03*
%TO.P,J4,5*%
%TO.N,CLK*%
X15710000Y-93000000D03*
%TO.P,J4,6*%
%TO.N,GND*%
X15710000Y-90460000D03*
%TO.P,J4,7*%
%TO.N,RST*%
X18250000Y-93000000D03*
%TO.P,J4,8*%
%TO.N,GND*%
X18250000Y-90460000D03*
%TO.P,J4,9*%
%TO.N,BUS0#*%
X20790000Y-93000000D03*
%TO.P,J4,10*%
%TO.N,BUS1#*%
X20790000Y-90460000D03*
%TO.P,J4,11*%
%TO.N,BUS2#*%
X23330000Y-93000000D03*
%TO.P,J4,12*%
%TO.N,BUS3#*%
X23330000Y-90460000D03*
%TO.P,J4,13*%
%TO.N,A0*%
X25870000Y-93000000D03*
%TO.P,J4,14*%
%TO.N,A1*%
X25870000Y-90460000D03*
%TO.P,J4,15*%
%TO.N,A2*%
X28410000Y-93000000D03*
%TO.P,J4,16*%
%TO.N,A3*%
X28410000Y-90460000D03*
%TO.P,J4,17*%
%TO.N,B0*%
X30950000Y-93000000D03*
%TO.P,J4,18*%
%TO.N,B1*%
X30950000Y-90460000D03*
%TO.P,J4,19*%
%TO.N,B2*%
X33490000Y-93000000D03*
%TO.P,J4,20*%
%TO.N,B3*%
X33490000Y-90460000D03*
%TO.P,J4,21*%
%TO.N,PC0*%
X36030000Y-93000000D03*
%TO.P,J4,22*%
%TO.N,PC1*%
X36030000Y-90460000D03*
%TO.P,J4,23*%
%TO.N,PC2*%
X38570000Y-93000000D03*
%TO.P,J4,24*%
%TO.N,PC3*%
X38570000Y-90460000D03*
%TO.P,J4,25*%
%TO.N,PC4*%
X41110000Y-93000000D03*
%TO.P,J4,26*%
%TO.N,PC5*%
X41110000Y-90460000D03*
%TO.P,J4,27*%
%TO.N,PC6*%
X43650000Y-93000000D03*
%TO.P,J4,28*%
%TO.N,PC7*%
X43650000Y-90460000D03*
%TO.P,J4,29*%
%TO.N,M0*%
X46190000Y-93000000D03*
%TO.P,J4,30*%
%TO.N,M1*%
X46190000Y-90460000D03*
%TO.P,J4,31*%
%TO.N,M2*%
X48730000Y-93000000D03*
%TO.P,J4,32*%
%TO.N,M3*%
X48730000Y-90460000D03*
%TO.P,J4,33*%
%TO.N,M4*%
X51270000Y-93000000D03*
%TO.P,J4,34*%
%TO.N,M5*%
X51270000Y-90460000D03*
%TO.P,J4,35*%
%TO.N,M6*%
X53810000Y-93000000D03*
%TO.P,J4,36*%
%TO.N,M7*%
X53810000Y-90460000D03*
%TO.P,J4,37*%
%TO.N,CF*%
X56350000Y-93000000D03*
%TO.P,J4,38*%
%TO.N,ZF*%
X56350000Y-90460000D03*
%TO.P,J4,39*%
%TO.N,SUB*%
X58890000Y-93000000D03*
%TO.P,J4,40*%
%TO.N,EO*%
X58890000Y-90460000D03*
%TO.P,J4,41*%
%TO.N,AI*%
X61430000Y-93000000D03*
%TO.P,J4,42*%
%TO.N,AO*%
X61430000Y-90460000D03*
%TO.P,J4,43*%
%TO.N,BI*%
X63970000Y-93000000D03*
%TO.P,J4,44*%
%TO.N,BO*%
X63970000Y-90460000D03*
%TO.P,J4,45*%
%TO.N,BA*%
X66510000Y-93000000D03*
%TO.P,J4,46*%
%TO.N,AB*%
X66510000Y-90460000D03*
%TO.P,J4,47*%
%TO.N,OI*%
X69050000Y-93000000D03*
%TO.P,J4,48*%
%TO.N,IO*%
X69050000Y-90460000D03*
%TO.P,J4,49*%
%TO.N,II*%
X71590000Y-93000000D03*
%TO.P,J4,50*%
%TO.N,PCE*%
X71590000Y-90460000D03*
%TO.P,J4,51*%
%TO.N,PCL*%
X74130000Y-93000000D03*
%TO.P,J4,52*%
%TO.N,FI*%
X74130000Y-90460000D03*
%TO.P,J4,53*%
%TO.N,HLT*%
X76670000Y-93000000D03*
%TO.P,J4,54*%
%TO.N,MAI*%
X76670000Y-90460000D03*
%TO.P,J4,55*%
%TO.N,MI*%
X79210000Y-93000000D03*
%TO.P,J4,56*%
%TO.N,MO*%
X79210000Y-90460000D03*
%TO.P,J4,57*%
%TO.N,WRL*%
X81750000Y-93000000D03*
%TO.P,J4,58*%
%TO.N,WRH*%
X81750000Y-90460000D03*
%TO.P,J4,59*%
%TO.N,ONE*%
X84290000Y-93000000D03*
%TO.P,J4,60*%
%TO.N,F0*%
X84290000Y-90460000D03*
%TO.P,J4,61*%
%TO.N,F1*%
X86830000Y-93000000D03*
%TO.P,J4,62*%
%TO.N,INP*%
X86830000Y-90460000D03*
%TO.P,J4,63*%
%TO.N,+5V*%
X89370000Y-93000000D03*
%TO.P,J4,64*%
%TO.N,GND*%
X89370000Y-90460000D03*
%TD*%
D11*
%TO.P,R9,1*%
%TO.N,M3*%
X65000000Y-40000000D03*
%TO.P,R9,2*%
%TO.N,GND*%
X65000000Y-45080000D03*
%TD*%
D14*
%TO.P,H2,1*%
%TO.N,N/C*%
X96000000Y-50000000D03*
%TD*%
D11*
%TO.P,R5,1*%
%TO.N,+5V*%
X80000000Y-14000000D03*
%TO.P,R5,2*%
%TO.N,BUS3#*%
X80000000Y-19080000D03*
%TD*%
%TO.P,R10,1*%
%TO.N,M4*%
X70000000Y-40000000D03*
%TO.P,R10,2*%
%TO.N,GND*%
X70000000Y-45080000D03*
%TD*%
D10*
%TO.P,TP5,1*%
%TO.N,CLK*%
X62000000Y-60000000D03*
%TD*%
%TO.P,TP4,1*%
%TO.N,BUS3#*%
X54000000Y-60000000D03*
%TD*%
D11*
%TO.P,R12,1*%
%TO.N,M6*%
X80000000Y-40000000D03*
%TO.P,R12,2*%
%TO.N,GND*%
X80000000Y-45080000D03*
%TD*%
D17*
%TO.P,D1,1*%
%TO.N,GND*%
X50000000Y-21000000D03*
D18*
%TO.P,D1,2*%
%TO.N,Net-(D1-A)*%
X50000000Y-18460000D03*
%TD*%
D19*
%TO.P,J1,1*%
%TO.N,VBUS*%
X14000000Y-26000000D03*
%TD*%
D11*
%TO.P,R7,1*%
%TO.N,M1*%
X55000000Y-40000000D03*
%TO.P,R7,2*%
%TO.N,GND*%
X55000000Y-45080000D03*
%TD*%
%TO.P,R1,1*%
%TO.N,+5V*%
X46000000Y-14000000D03*
%TO.P,R1,2*%
%TO.N,Net-(D1-A)*%
X46000000Y-19080000D03*
%TD*%
D19*
%TO.P,J2,1*%
%TO.N,GND*%
X14000000Y-45050000D03*
%TD*%
D11*
%TO.P,R8,1*%
%TO.N,M2*%
X60000000Y-40000000D03*
%TO.P,R8,2*%
%TO.N,GND*%
X60000000Y-45080000D03*
%TD*%
D20*
%TO.N,+5V*%
X90000000Y-86000000D03*
X90000000Y-14000000D03*
X89370000Y-95500000D03*
%TO.N,BUS0#*%
X20253200Y-58985600D03*
X69053300Y-11555700D03*
%TO.N,BUS1#*%
X72000000Y-22804000D03*
X21997500Y-22784000D03*
X20791600Y-57776000D03*
%TO.N,BUS2#*%
X74573700Y-10791800D03*
X22218700Y-60523000D03*
%TO.N,BUS3#*%
X23488700Y-61664000D03*
X78654400Y-57776000D03*
%TO.N,CLK*%
X16821200Y-61664000D03*
%TO.N,M1*%
X54526700Y-10402000D03*
X55633900Y-87045900D03*
%TO.N,M2*%
X47930400Y-41051700D03*
X60000000Y-9750300D03*
%TO.N,M3*%
X64218200Y-9082900D03*
X48730000Y-42743000D03*
%TO.N,M4*%
X52255300Y-42225600D03*
%TO.N,M5*%
X51270000Y-39106700D03*
%TO.N,M6*%
X53810000Y-26672000D03*
%TO.N,M7*%
X53627700Y-37576800D03*
%TO.N,PC1*%
X36298500Y-10027300D03*
%TO.N,PC2*%
X36917800Y-8597300D03*
%TO.N,RST*%
X19417600Y-62789300D03*
X14532600Y-62789300D03*
%TO.N,SUB*%
X58873900Y-88728800D03*
%TD*%
%TO.N,+5V*%
D21*
X10630000Y-14000000D02*
X90000000Y-14000000D01*
D22*
X89370000Y-93000000D02*
X89370000Y-95500000D01*
X10630000Y-93000000D02*
X10630000Y-90460000D01*
X10630000Y-90460000D02*
X10630000Y-86000000D01*
X89370000Y-7500000D02*
X89370000Y-14000000D01*
D23*
X57000000Y-14000000D02*
X62000000Y-14000000D01*
D21*
X36200000Y-17900000D02*
X36200000Y-14000000D01*
D22*
X10630000Y-7500000D02*
X10630000Y-4960000D01*
X10630000Y-7500000D02*
X10630000Y-14000000D01*
D23*
X68000000Y-14000000D02*
X72000000Y-14000000D01*
D21*
X10630000Y-86000000D02*
X90000000Y-86000000D01*
%TO.N,BUS0#*%
D23*
X28985600Y-58985600D02*
X20253200Y-58985600D01*
X30000000Y-60000000D02*
X28985600Y-58985600D01*
X24845700Y-11555700D02*
X69053300Y-11555700D01*
X20790000Y-7500000D02*
X24845700Y-11555700D01*
%TO.N,BUS1#*%
X71980000Y-22784000D02*
X72000000Y-22804000D01*
X20791600Y-57776000D02*
X35776000Y-57776000D01*
X21997500Y-22784000D02*
X71980000Y-22784000D01*
X35776000Y-57776000D02*
X38000000Y-60000000D01*
%TO.N,BUS2#*%
X23330000Y-7500000D02*
X26883700Y-11053700D01*
X28436100Y-61286600D02*
X44713400Y-61286600D01*
X27672500Y-60523000D02*
X28436100Y-61286600D01*
X55058500Y-10791800D02*
X74573700Y-10791800D01*
X26883700Y-11053700D02*
X54796600Y-11053700D01*
X22218700Y-60523000D02*
X27672500Y-60523000D01*
X44713400Y-61286600D02*
X46000000Y-60000000D01*
X54796600Y-11053700D02*
X55058500Y-10791800D01*
%TO.N,BUS3#*%
X78654400Y-57776000D02*
X56224000Y-57776000D01*
X56224000Y-57776000D02*
X54000000Y-60000000D01*
X23488700Y-61664000D02*
X52336000Y-61664000D01*
X52336000Y-61664000D02*
X54000000Y-60000000D01*
%TO.N,CLK*%
X16821200Y-61664000D02*
X20865500Y-61664000D01*
X59649600Y-62350400D02*
X62000000Y-60000000D01*
X21551900Y-62350400D02*
X59649600Y-62350400D01*
X20865500Y-61664000D02*
X21551900Y-62350400D01*
%TO.N,GND*%
D22*
X89370000Y-4960000D02*
X89370000Y-2000000D01*
X50000000Y-45080000D02*
X91000000Y-45080000D01*
D23*
X62000000Y-16500000D02*
X62000000Y-16000000D01*
X65000000Y-45080000D02*
X60000000Y-45080000D01*
X70000000Y-45080000D02*
X75000000Y-45080000D01*
D22*
X13170000Y-4960000D02*
X13170000Y-2000000D01*
D23*
X80000000Y-45080000D02*
X85000000Y-45080000D01*
D22*
X13170000Y-93000000D02*
X13170000Y-90460000D01*
D23*
X75000000Y-45080000D02*
X80000000Y-45080000D01*
D21*
X14000000Y-45050000D02*
X3000000Y-45050000D01*
D23*
X65000000Y-45080000D02*
X70000000Y-45080000D01*
D21*
X3000000Y-45050000D02*
X3000000Y-2000000D01*
D22*
X91000000Y-2000000D02*
X91000000Y-97500000D01*
X3000000Y-2000000D02*
X91000000Y-2000000D01*
X13170000Y-97500000D02*
X91000000Y-97500000D01*
X57000000Y-16500000D02*
X57000000Y-22000000D01*
X50000000Y-21000000D02*
X50000000Y-22000000D01*
X13170000Y-93000000D02*
X13170000Y-97500000D01*
X13170000Y-90460000D02*
X18250000Y-90460000D01*
X50000000Y-22000000D02*
X91000000Y-22000000D01*
X13170000Y-7500000D02*
X13170000Y-4960000D01*
X62000000Y-16500000D02*
X62000000Y-22000000D01*
X13170000Y-4960000D02*
X18250000Y-4960000D01*
X89370000Y-90460000D02*
X91000000Y-90460000D01*
D23*
X55000000Y-45080000D02*
X60000000Y-45080000D01*
%TO.N,M1*%
X47460100Y-7804200D02*
X50057900Y-10402000D01*
X46190000Y-4960000D02*
X47460100Y-6230100D01*
X46190000Y-90460000D02*
X49604100Y-87045900D01*
X49604100Y-87045900D02*
X55633900Y-87045900D01*
X47460100Y-6230100D02*
X47460100Y-7804200D01*
X50057900Y-10402000D02*
X54526700Y-10402000D01*
%TO.N,M2*%
X60000000Y-40000000D02*
X58948300Y-41051700D01*
X50980300Y-9750300D02*
X60000000Y-9750300D01*
X48730000Y-7500000D02*
X50980300Y-9750300D01*
X58948300Y-41051700D02*
X47930400Y-41051700D01*
%TO.N,M3*%
X48730000Y-4960000D02*
X50000000Y-6230000D01*
X53818400Y-9082900D02*
X64218200Y-9082900D01*
X65000000Y-40000000D02*
X63476000Y-41524000D01*
X50000000Y-6230000D02*
X51584300Y-6230000D01*
X63476000Y-41524000D02*
X49949000Y-41524000D01*
X51584300Y-6230000D02*
X52540100Y-7185800D01*
X52540100Y-7185800D02*
X52540100Y-7804600D01*
X49949000Y-41524000D02*
X48730000Y-42743000D01*
X52540100Y-7804600D02*
X53818400Y-9082900D01*
%TO.N,M4*%
X67774400Y-42225600D02*
X52255300Y-42225600D01*
X70000000Y-40000000D02*
X67774400Y-42225600D01*
%TO.N,M5*%
X73915400Y-38915400D02*
X51461300Y-38915400D01*
X75000000Y-40000000D02*
X73915400Y-38915400D01*
X51461300Y-38915400D02*
X51270000Y-39106700D01*
%TO.N,M6*%
X80000000Y-40000000D02*
X66672000Y-26672000D01*
X66672000Y-26672000D02*
X53810000Y-26672000D01*
%TO.N,M7*%
X78722100Y-41079300D02*
X75219600Y-37576800D01*
X83920700Y-41079300D02*
X78722100Y-41079300D01*
X85000000Y-40000000D02*
X83920700Y-41079300D01*
X75219600Y-37576800D02*
X53627700Y-37576800D01*
%TO.N,Net-(D1-A)*%
X46620000Y-18460000D02*
X46000000Y-19080000D01*
X50000000Y-18460000D02*
X46620000Y-18460000D01*
%TO.N,PC1*%
X34928300Y-6061700D02*
X34928300Y-8657100D01*
X34928300Y-8657100D02*
X36298500Y-10027300D01*
X36030000Y-4960000D02*
X34928300Y-6061700D01*
%TO.N,PC2*%
X38570000Y-7500000D02*
X37472700Y-8597300D01*
X37472700Y-8597300D02*
X36917800Y-8597300D01*
%TO.N,RST*%
X70000000Y-60000000D02*
X67210700Y-62789300D01*
X67210700Y-62789300D02*
X19417600Y-62789300D01*
X19417600Y-62789300D02*
X14532600Y-62789300D01*
%TO.N,SUB*%
X62531700Y-89941500D02*
X62531700Y-90970800D01*
X58873900Y-88728800D02*
X61319000Y-88728800D01*
X62531700Y-90970800D02*
X61772500Y-91730000D01*
X61319000Y-88728800D02*
X62531700Y-89941500D01*
X61772500Y-91730000D02*
X60160000Y-91730000D01*
X60160000Y-91730000D02*
X58890000Y-93000000D01*
%TO.N,VBUS*%
D21*
X20000000Y-26000000D02*
X20000000Y-16000000D01*
X20000000Y-16000000D02*
X26000000Y-16000000D01*
X14000000Y-26000000D02*
X20000000Y-26000000D01*
%TD*%
M02*
