%TF.GenerationSoftware,KiCad,Pcbnew,10.0.5*%
%TF.CreationDate,2026-09-11T08:53:43-04:00*%
%TF.ProjectId,hub,6875622e-6b69-4636-9164-5f7063625858,rev?*%
%TF.SameCoordinates,Original*%
%TF.FileFunction,Copper,L1,Top*%
%TF.FilePolarity,Positive*%
%FSLAX46Y46*%
G04 Gerber Fmt 4.6, Leading zero omitted, Abs format (unit mm)*
G04 Created by KiCad (PCBNEW 10.0.5) date 2026-09-11 08:53:43*
%MOMM*%
%LPD*%
G01*
G04 APERTURE LIST*
G04 Aperture macros list*
%AMRoundRect*
0 Rectangle with rounded corners*
0 $1 Rounding radius*
0 $2 $3 $4 $5 $6 $7 $8 $9 X,Y pos of 4 corners*
0 Add a 4 corners polygon primitive as box body*
4,1,4,$2,$3,$4,$5,$6,$7,$8,$9,$2,$3,0*
0 Add four circle primitives for the rounded corners*
1,1,$1+$1,$2,$3*
1,1,$1+$1,$4,$5*
1,1,$1+$1,$6,$7*
1,1,$1+$1,$8,$9*
0 Add four rect primitives between the rounded corners*
20,1,$1+$1,$2,$3,$4,$5,0*
20,1,$1+$1,$4,$5,$6,$7,0*
20,1,$1+$1,$6,$7,$8,$9,0*
20,1,$1+$1,$8,$9,$2,$3,0*%
G04 Aperture macros list end*
%TA.AperFunction,ComponentPad*%
%ADD10C,1.600000*%
%TD*%
%TA.AperFunction,ComponentPad*%
%ADD11RoundRect,0.250000X0.600000X0.600000X-0.600000X0.600000X-0.600000X-0.600000X0.600000X-0.600000X0*%
%TD*%
%TA.AperFunction,ComponentPad*%
%ADD12C,1.700000*%
%TD*%
%TA.AperFunction,ComponentPad*%
%ADD13C,3.500000*%
%TD*%
%TA.AperFunction,ComponentPad*%
%ADD14C,2.000000*%
%TD*%
%TA.AperFunction,ComponentPad*%
%ADD15R,1.800000X1.800000*%
%TD*%
%TA.AperFunction,ComponentPad*%
%ADD16C,1.800000*%
%TD*%
%TA.AperFunction,ComponentPad*%
%ADD17RoundRect,0.250000X-0.550000X0.550000X-0.550000X-0.550000X0.550000X-0.550000X0.550000X0.550000X0*%
%TD*%
%TA.AperFunction,ComponentPad*%
%ADD18C,6.400000*%
%TD*%
%TA.AperFunction,ComponentPad*%
%ADD19RoundRect,0.250000X0.600000X-0.600000X0.600000X0.600000X-0.600000X0.600000X-0.600000X-0.600000X0*%
%TD*%
%TA.AperFunction,ComponentPad*%
%ADD20C,1.560000*%
%TD*%
%TA.AperFunction,ViaPad*%
%ADD21C,0.800000*%
%TD*%
%TA.AperFunction,ViaPad*%
%ADD22C,0.600000*%
%TD*%
%TA.AperFunction,Conductor*%
%ADD23C,0.500000*%
%TD*%
%TA.AperFunction,Conductor*%
%ADD24C,0.800000*%
%TD*%
%TA.AperFunction,Conductor*%
%ADD25C,0.200000*%
%TD*%
G04 APERTURE END LIST*
D10*
%TO.P,R7,1*%
%TO.N,M1*%
X55000000Y-40000000D03*
%TO.P,R7,2*%
%TO.N,GND*%
X55000000Y-45080000D03*
%TD*%
D11*
%TO.P,J1,1*%
%TO.N,VBUS*%
X14000000Y-30000000D03*
D12*
%TO.P,J1,2*%
%TO.N,unconnected-(J1-D--Pad2)*%
X14000000Y-27500000D03*
%TO.P,J1,3*%
%TO.N,unconnected-(J1-D+-Pad3)*%
X12000000Y-27500000D03*
%TO.P,J1,4*%
%TO.N,GND*%
X12000000Y-30000000D03*
D13*
%TO.P,J1,SH*%
X9290000Y-34770000D03*
X9290000Y-22730000D03*
%TD*%
D10*
%TO.P,R9,1*%
%TO.N,M3*%
X65000000Y-40000000D03*
%TO.P,R9,2*%
%TO.N,GND*%
X65000000Y-45080000D03*
%TD*%
%TO.P,R4,1*%
%TO.N,+5V*%
X76000000Y-14000000D03*
%TO.P,R4,2*%
%TO.N,BUS2#*%
X76000000Y-19080000D03*
%TD*%
%TO.P,R11,1*%
%TO.N,M5*%
X75000000Y-40000000D03*
%TO.P,R11,2*%
%TO.N,GND*%
X75000000Y-45080000D03*
%TD*%
%TO.P,C1,1*%
%TO.N,+5V*%
X57000000Y-14000000D03*
%TO.P,C1,2*%
%TO.N,GND*%
X57000000Y-16500000D03*
%TD*%
D14*
%TO.P,TP6,1*%
%TO.N,RST*%
X70000000Y-60000000D03*
%TD*%
D15*
%TO.P,D1,1*%
%TO.N,GND*%
X50000000Y-21000000D03*
D16*
%TO.P,D1,2*%
%TO.N,Net-(D1-A)*%
X50000000Y-18460000D03*
%TD*%
D17*
%TO.P,C2,1*%
%TO.N,+5V*%
X62000000Y-14000000D03*
D10*
%TO.P,C2,2*%
%TO.N,GND*%
X62000000Y-16000000D03*
%TD*%
%TO.P,R1,1*%
%TO.N,+5V*%
X46000000Y-14000000D03*
%TO.P,R1,2*%
%TO.N,Net-(D1-A)*%
X46000000Y-19080000D03*
%TD*%
D18*
%TO.P,H2,1*%
%TO.N,N/C*%
X96000000Y-50000000D03*
%TD*%
D10*
%TO.P,R5,1*%
%TO.N,+5V*%
X80000000Y-14000000D03*
%TO.P,R5,2*%
%TO.N,BUS3#*%
X80000000Y-19080000D03*
%TD*%
D18*
%TO.P,H1,1*%
%TO.N,N/C*%
X4000000Y-50000000D03*
%TD*%
D10*
%TO.P,R13,1*%
%TO.N,M7*%
X85000000Y-40000000D03*
%TO.P,R13,2*%
%TO.N,GND*%
X85000000Y-45080000D03*
%TD*%
D14*
%TO.P,TP3,1*%
%TO.N,BUS2#*%
X46000000Y-60000000D03*
%TD*%
D10*
%TO.P,R6,1*%
%TO.N,M0*%
X50000000Y-40000000D03*
%TO.P,R6,2*%
%TO.N,GND*%
X50000000Y-45080000D03*
%TD*%
D14*
%TO.P,TP2,1*%
%TO.N,BUS1#*%
X38000000Y-60000000D03*
%TD*%
D19*
%TO.P,J2,1*%
%TO.N,+5V*%
X10630000Y-7500000D03*
D12*
%TO.P,J2,2*%
X10630000Y-4960000D03*
%TO.P,J2,3*%
%TO.N,GND*%
X13170000Y-7500000D03*
%TO.P,J2,4*%
X13170000Y-4960000D03*
%TO.P,J2,5*%
%TO.N,CLK*%
X15710000Y-7500000D03*
%TO.P,J2,6*%
%TO.N,GND*%
X15710000Y-4960000D03*
%TO.P,J2,7*%
%TO.N,RST*%
X18250000Y-7500000D03*
%TO.P,J2,8*%
%TO.N,GND*%
X18250000Y-4960000D03*
%TO.P,J2,9*%
%TO.N,BUS0#*%
X20790000Y-7500000D03*
%TO.P,J2,10*%
%TO.N,BUS1#*%
X20790000Y-4960000D03*
%TO.P,J2,11*%
%TO.N,BUS2#*%
X23330000Y-7500000D03*
%TO.P,J2,12*%
%TO.N,BUS3#*%
X23330000Y-4960000D03*
%TO.P,J2,13*%
%TO.N,A0*%
X25870000Y-7500000D03*
%TO.P,J2,14*%
%TO.N,A1*%
X25870000Y-4960000D03*
%TO.P,J2,15*%
%TO.N,A2*%
X28410000Y-7500000D03*
%TO.P,J2,16*%
%TO.N,A3*%
X28410000Y-4960000D03*
%TO.P,J2,17*%
%TO.N,B0*%
X30950000Y-7500000D03*
%TO.P,J2,18*%
%TO.N,B1*%
X30950000Y-4960000D03*
%TO.P,J2,19*%
%TO.N,B2*%
X33490000Y-7500000D03*
%TO.P,J2,20*%
%TO.N,B3*%
X33490000Y-4960000D03*
%TO.P,J2,21*%
%TO.N,PC0*%
X36030000Y-7500000D03*
%TO.P,J2,22*%
%TO.N,PC1*%
X36030000Y-4960000D03*
%TO.P,J2,23*%
%TO.N,PC2*%
X38570000Y-7500000D03*
%TO.P,J2,24*%
%TO.N,PC3*%
X38570000Y-4960000D03*
%TO.P,J2,25*%
%TO.N,PC4*%
X41110000Y-7500000D03*
%TO.P,J2,26*%
%TO.N,PC5*%
X41110000Y-4960000D03*
%TO.P,J2,27*%
%TO.N,PC6*%
X43650000Y-7500000D03*
%TO.P,J2,28*%
%TO.N,PC7*%
X43650000Y-4960000D03*
%TO.P,J2,29*%
%TO.N,M0*%
X46190000Y-7500000D03*
%TO.P,J2,30*%
%TO.N,M1*%
X46190000Y-4960000D03*
%TO.P,J2,31*%
%TO.N,M2*%
X48730000Y-7500000D03*
%TO.P,J2,32*%
%TO.N,M3*%
X48730000Y-4960000D03*
%TO.P,J2,33*%
%TO.N,M4*%
X51270000Y-7500000D03*
%TO.P,J2,34*%
%TO.N,M5*%
X51270000Y-4960000D03*
%TO.P,J2,35*%
%TO.N,M6*%
X53810000Y-7500000D03*
%TO.P,J2,36*%
%TO.N,M7*%
X53810000Y-4960000D03*
%TO.P,J2,37*%
%TO.N,CF*%
X56350000Y-7500000D03*
%TO.P,J2,38*%
%TO.N,ZF*%
X56350000Y-4960000D03*
%TO.P,J2,39*%
%TO.N,SUB*%
X58890000Y-7500000D03*
%TO.P,J2,40*%
%TO.N,EO*%
X58890000Y-4960000D03*
%TO.P,J2,41*%
%TO.N,AI*%
X61430000Y-7500000D03*
%TO.P,J2,42*%
%TO.N,AO*%
X61430000Y-4960000D03*
%TO.P,J2,43*%
%TO.N,BI*%
X63970000Y-7500000D03*
%TO.P,J2,44*%
%TO.N,BO*%
X63970000Y-4960000D03*
%TO.P,J2,45*%
%TO.N,BA*%
X66510000Y-7500000D03*
%TO.P,J2,46*%
%TO.N,AB*%
X66510000Y-4960000D03*
%TO.P,J2,47*%
%TO.N,OI*%
X69050000Y-7500000D03*
%TO.P,J2,48*%
%TO.N,IO*%
X69050000Y-4960000D03*
%TO.P,J2,49*%
%TO.N,II*%
X71590000Y-7500000D03*
%TO.P,J2,50*%
%TO.N,PCE*%
X71590000Y-4960000D03*
%TO.P,J2,51*%
%TO.N,PCL*%
X74130000Y-7500000D03*
%TO.P,J2,52*%
%TO.N,FI*%
X74130000Y-4960000D03*
%TO.P,J2,53*%
%TO.N,HLT*%
X76670000Y-7500000D03*
%TO.P,J2,54*%
%TO.N,MAI*%
X76670000Y-4960000D03*
%TO.P,J2,55*%
%TO.N,MI*%
X79210000Y-7500000D03*
%TO.P,J2,56*%
%TO.N,MO*%
X79210000Y-4960000D03*
%TO.P,J2,57*%
%TO.N,WRL*%
X81750000Y-7500000D03*
%TO.P,J2,58*%
%TO.N,WRH*%
X81750000Y-4960000D03*
%TO.P,J2,59*%
%TO.N,ONE*%
X84290000Y-7500000D03*
%TO.P,J2,60*%
%TO.N,F0*%
X84290000Y-4960000D03*
%TO.P,J2,61*%
%TO.N,F1*%
X86830000Y-7500000D03*
%TO.P,J2,62*%
%TO.N,INP*%
X86830000Y-4960000D03*
%TO.P,J2,63*%
%TO.N,+5V*%
X89370000Y-7500000D03*
%TO.P,J2,64*%
%TO.N,GND*%
X89370000Y-4960000D03*
%TD*%
D14*
%TO.P,TP1,1*%
%TO.N,BUS0#*%
X30000000Y-60000000D03*
%TD*%
D19*
%TO.P,J3,1*%
%TO.N,+5V*%
X10630000Y-93000000D03*
D12*
%TO.P,J3,2*%
X10630000Y-90460000D03*
%TO.P,J3,3*%
%TO.N,GND*%
X13170000Y-93000000D03*
%TO.P,J3,4*%
X13170000Y-90460000D03*
%TO.P,J3,5*%
%TO.N,CLK*%
X15710000Y-93000000D03*
%TO.P,J3,6*%
%TO.N,GND*%
X15710000Y-90460000D03*
%TO.P,J3,7*%
%TO.N,RST*%
X18250000Y-93000000D03*
%TO.P,J3,8*%
%TO.N,GND*%
X18250000Y-90460000D03*
%TO.P,J3,9*%
%TO.N,BUS0#*%
X20790000Y-93000000D03*
%TO.P,J3,10*%
%TO.N,BUS1#*%
X20790000Y-90460000D03*
%TO.P,J3,11*%
%TO.N,BUS2#*%
X23330000Y-93000000D03*
%TO.P,J3,12*%
%TO.N,BUS3#*%
X23330000Y-90460000D03*
%TO.P,J3,13*%
%TO.N,A0*%
X25870000Y-93000000D03*
%TO.P,J3,14*%
%TO.N,A1*%
X25870000Y-90460000D03*
%TO.P,J3,15*%
%TO.N,A2*%
X28410000Y-93000000D03*
%TO.P,J3,16*%
%TO.N,A3*%
X28410000Y-90460000D03*
%TO.P,J3,17*%
%TO.N,B0*%
X30950000Y-93000000D03*
%TO.P,J3,18*%
%TO.N,B1*%
X30950000Y-90460000D03*
%TO.P,J3,19*%
%TO.N,B2*%
X33490000Y-93000000D03*
%TO.P,J3,20*%
%TO.N,B3*%
X33490000Y-90460000D03*
%TO.P,J3,21*%
%TO.N,PC0*%
X36030000Y-93000000D03*
%TO.P,J3,22*%
%TO.N,PC1*%
X36030000Y-90460000D03*
%TO.P,J3,23*%
%TO.N,PC2*%
X38570000Y-93000000D03*
%TO.P,J3,24*%
%TO.N,PC3*%
X38570000Y-90460000D03*
%TO.P,J3,25*%
%TO.N,PC4*%
X41110000Y-93000000D03*
%TO.P,J3,26*%
%TO.N,PC5*%
X41110000Y-90460000D03*
%TO.P,J3,27*%
%TO.N,PC6*%
X43650000Y-93000000D03*
%TO.P,J3,28*%
%TO.N,PC7*%
X43650000Y-90460000D03*
%TO.P,J3,29*%
%TO.N,M0*%
X46190000Y-93000000D03*
%TO.P,J3,30*%
%TO.N,M1*%
X46190000Y-90460000D03*
%TO.P,J3,31*%
%TO.N,M2*%
X48730000Y-93000000D03*
%TO.P,J3,32*%
%TO.N,M3*%
X48730000Y-90460000D03*
%TO.P,J3,33*%
%TO.N,M4*%
X51270000Y-93000000D03*
%TO.P,J3,34*%
%TO.N,M5*%
X51270000Y-90460000D03*
%TO.P,J3,35*%
%TO.N,M6*%
X53810000Y-93000000D03*
%TO.P,J3,36*%
%TO.N,M7*%
X53810000Y-90460000D03*
%TO.P,J3,37*%
%TO.N,CF*%
X56350000Y-93000000D03*
%TO.P,J3,38*%
%TO.N,ZF*%
X56350000Y-90460000D03*
%TO.P,J3,39*%
%TO.N,SUB*%
X58890000Y-93000000D03*
%TO.P,J3,40*%
%TO.N,EO*%
X58890000Y-90460000D03*
%TO.P,J3,41*%
%TO.N,AI*%
X61430000Y-93000000D03*
%TO.P,J3,42*%
%TO.N,AO*%
X61430000Y-90460000D03*
%TO.P,J3,43*%
%TO.N,BI*%
X63970000Y-93000000D03*
%TO.P,J3,44*%
%TO.N,BO*%
X63970000Y-90460000D03*
%TO.P,J3,45*%
%TO.N,BA*%
X66510000Y-93000000D03*
%TO.P,J3,46*%
%TO.N,AB*%
X66510000Y-90460000D03*
%TO.P,J3,47*%
%TO.N,OI*%
X69050000Y-93000000D03*
%TO.P,J3,48*%
%TO.N,IO*%
X69050000Y-90460000D03*
%TO.P,J3,49*%
%TO.N,II*%
X71590000Y-93000000D03*
%TO.P,J3,50*%
%TO.N,PCE*%
X71590000Y-90460000D03*
%TO.P,J3,51*%
%TO.N,PCL*%
X74130000Y-93000000D03*
%TO.P,J3,52*%
%TO.N,FI*%
X74130000Y-90460000D03*
%TO.P,J3,53*%
%TO.N,HLT*%
X76670000Y-93000000D03*
%TO.P,J3,54*%
%TO.N,MAI*%
X76670000Y-90460000D03*
%TO.P,J3,55*%
%TO.N,MI*%
X79210000Y-93000000D03*
%TO.P,J3,56*%
%TO.N,MO*%
X79210000Y-90460000D03*
%TO.P,J3,57*%
%TO.N,WRL*%
X81750000Y-93000000D03*
%TO.P,J3,58*%
%TO.N,WRH*%
X81750000Y-90460000D03*
%TO.P,J3,59*%
%TO.N,ONE*%
X84290000Y-93000000D03*
%TO.P,J3,60*%
%TO.N,F0*%
X84290000Y-90460000D03*
%TO.P,J3,61*%
%TO.N,F1*%
X86830000Y-93000000D03*
%TO.P,J3,62*%
%TO.N,INP*%
X86830000Y-90460000D03*
%TO.P,J3,63*%
%TO.N,+5V*%
X89370000Y-93000000D03*
%TO.P,J3,64*%
%TO.N,GND*%
X89370000Y-90460000D03*
%TD*%
D10*
%TO.P,R2,1*%
%TO.N,+5V*%
X68000000Y-14000000D03*
%TO.P,R2,2*%
%TO.N,BUS0#*%
X68000000Y-19080000D03*
%TD*%
%TO.P,R3,1*%
%TO.N,+5V*%
X72000000Y-14000000D03*
%TO.P,R3,2*%
%TO.N,BUS1#*%
X72000000Y-19080000D03*
%TD*%
%TO.P,R10,1*%
%TO.N,M4*%
X70000000Y-40000000D03*
%TO.P,R10,2*%
%TO.N,GND*%
X70000000Y-45080000D03*
%TD*%
%TO.P,R8,1*%
%TO.N,M2*%
X60000000Y-40000000D03*
%TO.P,R8,2*%
%TO.N,GND*%
X60000000Y-45080000D03*
%TD*%
D14*
%TO.P,TP4,1*%
%TO.N,BUS3#*%
X54000000Y-60000000D03*
%TD*%
%TO.P,TP5,1*%
%TO.N,CLK*%
X62000000Y-60000000D03*
%TD*%
D20*
%TO.P,F1,1*%
%TO.N,VBUS*%
X26000000Y-16000000D03*
%TO.P,F1,2*%
%TO.N,+5V*%
X31100000Y-17900000D03*
%TD*%
D10*
%TO.P,R12,1*%
%TO.N,M6*%
X80000000Y-40000000D03*
%TO.P,R12,2*%
%TO.N,GND*%
X80000000Y-45080000D03*
%TD*%
D21*
%TO.N,+5V*%
X90000000Y-86000000D03*
X90000000Y-14000000D03*
X89370000Y-95500000D03*
D22*
%TO.N,A3*%
X28816400Y-12023900D03*
%TO.N,BUS0#*%
X66915700Y-12935900D03*
X29642600Y-12935900D03*
%TO.N,BUS1#*%
X71056700Y-11179900D03*
X20790000Y-55890200D03*
%TO.N,BUS2#*%
X22669500Y-60960800D03*
X76103000Y-47191900D03*
%TO.N,BUS3#*%
X78697400Y-46707700D03*
X23487600Y-61782300D03*
%TO.N,CLK*%
X16821200Y-55062400D03*
%TO.N,M2*%
X54836300Y-38636900D03*
%TO.N,M3*%
X55109400Y-41762100D03*
X64637100Y-12334000D03*
%TO.N,M4*%
X66364000Y-11957900D03*
X68430600Y-88214000D03*
%TO.N,M5*%
X54861700Y-37696100D03*
%TO.N,M6*%
X54760200Y-32326200D03*
%TO.N,M7*%
X56930800Y-41793500D03*
%TO.N,PC4*%
X40395600Y-88995200D03*
%TO.N,PCL*%
X73621900Y-87551000D03*
%TO.N,RST*%
X19881500Y-64726700D03*
%TD*%
%TO.N,+5V*%
D23*
X10630000Y-7500000D02*
X10630000Y-4960000D01*
X10630000Y-93000000D02*
X10630000Y-90460000D01*
D24*
X31100000Y-17900000D02*
X31100000Y-14000000D01*
X10630000Y-86000000D02*
X90000000Y-86000000D01*
D23*
X89370000Y-7500000D02*
X89370000Y-14000000D01*
X10630000Y-7500000D02*
X10630000Y-14000000D01*
D24*
X10630000Y-14000000D02*
X90000000Y-14000000D01*
D23*
X89370000Y-93000000D02*
X89370000Y-95500000D01*
X10630000Y-90460000D02*
X10630000Y-86000000D01*
%TO.N,A3*%
D25*
X29511700Y-6061700D02*
X29511700Y-11328600D01*
X29511700Y-11328600D02*
X28816400Y-12023900D01*
X28410000Y-4960000D02*
X29511700Y-6061700D01*
%TO.N,BUS0#*%
X66915700Y-12935900D02*
X29642600Y-12935900D01*
X20790000Y-7500000D02*
X26225900Y-12935900D01*
X26225900Y-12935900D02*
X29642600Y-12935900D01*
%TO.N,BUS1#*%
X20790000Y-55890200D02*
X33890200Y-55890200D01*
X50976100Y-6230000D02*
X50000000Y-5253900D01*
X71056700Y-11179900D02*
X55897500Y-11179900D01*
X52540000Y-7184000D02*
X51586000Y-6230000D01*
X21937600Y-3812400D02*
X20790000Y-4960000D01*
X55897500Y-11179900D02*
X52540000Y-7822400D01*
X50000000Y-5253900D02*
X50000000Y-4643200D01*
X49169200Y-3812400D02*
X21937600Y-3812400D01*
X51586000Y-6230000D02*
X50976100Y-6230000D01*
X52540000Y-7822400D02*
X52540000Y-7184000D01*
X33890200Y-55890200D02*
X38000000Y-60000000D01*
X50000000Y-4643200D02*
X49169200Y-3812400D01*
%TO.N,BUS2#*%
X62553400Y-61283400D02*
X76103000Y-47733800D01*
X60391700Y-61283400D02*
X62553400Y-61283400D01*
X29190600Y-60960800D02*
X29570400Y-61340600D01*
X29570400Y-61340600D02*
X44659400Y-61340600D01*
X46000000Y-60000000D02*
X47262700Y-58737300D01*
X76103000Y-47733800D02*
X76103000Y-47191900D01*
X57845600Y-58737300D02*
X60391700Y-61283400D01*
X22669500Y-60960800D02*
X29190600Y-60960800D01*
X44659400Y-61340600D02*
X46000000Y-60000000D01*
X47262700Y-58737300D02*
X57845600Y-58737300D01*
%TO.N,BUS3#*%
X54000000Y-60000000D02*
X54000000Y-61602400D01*
X54000000Y-61602400D02*
X53820100Y-61782300D01*
X63736700Y-61668400D02*
X78697400Y-46707700D01*
X53820100Y-61782300D02*
X23487600Y-61782300D01*
X54066000Y-61668400D02*
X63736700Y-61668400D01*
X54000000Y-61602400D02*
X54066000Y-61668400D01*
%TO.N,CLK*%
X57062400Y-55062400D02*
X16821200Y-55062400D01*
X62000000Y-60000000D02*
X57062400Y-55062400D01*
%TO.N,GND*%
D23*
X13170000Y-7500000D02*
X13170000Y-4960000D01*
X50000000Y-45080000D02*
X91000000Y-45080000D01*
X13170000Y-90460000D02*
X18250000Y-90460000D01*
X91000000Y-2000000D02*
X91000000Y-97500000D01*
X9290000Y-2000000D02*
X91000000Y-2000000D01*
X62000000Y-16500000D02*
X62000000Y-22000000D01*
X89370000Y-4960000D02*
X89370000Y-2000000D01*
X50000000Y-21000000D02*
X50000000Y-22000000D01*
X13170000Y-93000000D02*
X13170000Y-90460000D01*
X12000000Y-30000000D02*
X9290000Y-30000000D01*
X57000000Y-16500000D02*
X57000000Y-22000000D01*
X13170000Y-4960000D02*
X13170000Y-2000000D01*
X13170000Y-93000000D02*
X13170000Y-97500000D01*
D25*
X62000000Y-16500000D02*
X62000000Y-16000000D01*
D23*
X50000000Y-22000000D02*
X91000000Y-22000000D01*
X13170000Y-4960000D02*
X18250000Y-4960000D01*
X9290000Y-34770000D02*
X9290000Y-2000000D01*
X89370000Y-90460000D02*
X91000000Y-90460000D01*
X13170000Y-97500000D02*
X91000000Y-97500000D01*
%TO.N,M2*%
D25*
X54836300Y-38636900D02*
X58636900Y-38636900D01*
X58636900Y-38636900D02*
X60000000Y-40000000D01*
%TO.N,M3*%
X50000000Y-7803300D02*
X50000000Y-6230000D01*
X54530700Y-12334000D02*
X50000000Y-7803300D01*
X63892200Y-41107800D02*
X55763700Y-41107800D01*
X50000000Y-6230000D02*
X48730000Y-4960000D01*
X55763700Y-41107800D02*
X55109400Y-41762100D01*
X65000000Y-40000000D02*
X63892200Y-41107800D01*
X64637100Y-12334000D02*
X54530700Y-12334000D01*
%TO.N,M4*%
X55080100Y-90155400D02*
X57021500Y-88214000D01*
X57021500Y-88214000D02*
X68430600Y-88214000D01*
X55463800Y-11693800D02*
X66099900Y-11693800D01*
X54124300Y-91730000D02*
X55080100Y-90774200D01*
X51270000Y-7500000D02*
X55463800Y-11693800D01*
X55080100Y-90774200D02*
X55080100Y-90155400D01*
X66099900Y-11693800D02*
X66364000Y-11957900D01*
X52540000Y-91730000D02*
X54124300Y-91730000D01*
X51270000Y-93000000D02*
X52540000Y-91730000D01*
%TO.N,M5*%
X72696100Y-37696100D02*
X54861700Y-37696100D01*
X75000000Y-40000000D02*
X72696100Y-37696100D01*
%TO.N,M6*%
X72326200Y-32326200D02*
X54760200Y-32326200D01*
X80000000Y-40000000D02*
X72326200Y-32326200D01*
%TO.N,M7*%
X83206500Y-41793500D02*
X85000000Y-40000000D01*
X56930800Y-41793500D02*
X83206500Y-41793500D01*
%TO.N,Net-(D1-A)*%
X46620000Y-18460000D02*
X46000000Y-19080000D01*
X50000000Y-18460000D02*
X46620000Y-18460000D01*
%TO.N,PC4*%
X41110000Y-93000000D02*
X40005000Y-91895000D01*
X40005000Y-89385800D02*
X40395600Y-88995200D01*
X40005000Y-91895000D02*
X40005000Y-89385800D01*
%TO.N,PCL*%
X72955200Y-88217700D02*
X72955200Y-91825200D01*
X72955200Y-91825200D02*
X74130000Y-93000000D01*
X73621900Y-87551000D02*
X72955200Y-88217700D01*
%TO.N,RST*%
X65273300Y-64726700D02*
X70000000Y-60000000D01*
X19881500Y-64726700D02*
X65273300Y-64726700D01*
%TO.N,VBUS*%
D24*
X20000000Y-16000000D02*
X26000000Y-16000000D01*
X14000000Y-30000000D02*
X20000000Y-30000000D01*
X20000000Y-30000000D02*
X20000000Y-16000000D01*
%TD*%
M02*
