%TF.GenerationSoftware,KiCad,Pcbnew,10.0.5*%
%TF.CreationDate,2026-09-29T00:42:18-04:00*%
%TF.ProjectId,hub,6875622e-6b69-4636-9164-5f7063625858,rev?*%
%TF.SameCoordinates,Original*%
%TF.FileFunction,Copper,L1,Top*%
%TF.FilePolarity,Positive*%
%FSLAX46Y46*%
G04 Gerber Fmt 4.6, Leading zero omitted, Abs format (unit mm)*
G04 Created by KiCad (PCBNEW 10.0.5) date 2026-09-29 00:42:18*
%MOMM*%
%LPD*%
G01*
G04 APERTURE LIST*
G04 Aperture macros list*
%AMRoundRect*
0 Rectangle with rounded corners*
0 $1 Rounding radius*
0 $2 $3 $4 $5 $6 $7 $8 $9 X,Y pos of 4 corners*
0 Add a 4 corners polygon primitive as box body*
4,1,4,$2,$3,$4,$5,$6,$7,$8,$9,$2,$3,0*
0 Add four circle primitives for the rounded corners*
1,1,$1+$1,$2,$3*
1,1,$1+$1,$4,$5*
1,1,$1+$1,$6,$7*
1,1,$1+$1,$8,$9*
0 Add four rect primitives between the rounded corners*
20,1,$1+$1,$2,$3,$4,$5,0*
20,1,$1+$1,$4,$5,$6,$7,0*
20,1,$1+$1,$6,$7,$8,$9,0*
20,1,$1+$1,$8,$9,$2,$3,0*%
G04 Aperture macros list end*
%TA.AperFunction,ComponentPad*%
%ADD10C,6.400000*%
%TD*%
%TA.AperFunction,ComponentPad*%
%ADD11C,1.600000*%
%TD*%
%TA.AperFunction,ComponentPad*%
%ADD12C,2.000000*%
%TD*%
%TA.AperFunction,ComponentPad*%
%ADD13RoundRect,0.250000X-0.550000X0.550000X-0.550000X-0.550000X0.550000X-0.550000X0.550000X0.550000X0*%
%TD*%
%TA.AperFunction,ComponentPad*%
%ADD14R,1.905000X2.000000*%
%TD*%
%TA.AperFunction,ComponentPad*%
%ADD15O,1.905000X2.000000*%
%TD*%
%TA.AperFunction,ComponentPad*%
%ADD16C,1.560000*%
%TD*%
%TA.AperFunction,ComponentPad*%
%ADD17R,1.800000X1.800000*%
%TD*%
%TA.AperFunction,ComponentPad*%
%ADD18C,1.800000*%
%TD*%
%TA.AperFunction,ComponentPad*%
%ADD19C,2.800000*%
%TD*%
%TA.AperFunction,ComponentPad*%
%ADD20RoundRect,0.249999X-0.850001X0.850001X-0.850001X-0.850001X0.850001X-0.850001X0.850001X0.850001X0*%
%TD*%
%TA.AperFunction,ComponentPad*%
%ADD21C,2.200000*%
%TD*%
%TA.AperFunction,ComponentPad*%
%ADD22RoundRect,0.250000X-1.350000X1.350000X-1.350000X-1.350000X1.350000X-1.350000X1.350000X1.350000X0*%
%TD*%
%TA.AperFunction,ComponentPad*%
%ADD23C,3.200000*%
%TD*%
%TA.AperFunction,ComponentPad*%
%ADD24RoundRect,0.250000X-0.600000X0.600000X-0.600000X-0.600000X0.600000X-0.600000X0.600000X0.600000X0*%
%TD*%
%TA.AperFunction,ComponentPad*%
%ADD25C,1.700000*%
%TD*%
%TA.AperFunction,ViaPad*%
%ADD26C,0.800000*%
%TD*%
%TA.AperFunction,Conductor*%
%ADD27C,0.500000*%
%TD*%
%TA.AperFunction,Conductor*%
%ADD28C,2.000000*%
%TD*%
%TA.AperFunction,Conductor*%
%ADD29C,0.200000*%
%TD*%
%TA.AperFunction,Conductor*%
%ADD30C,0.800000*%
%TD*%
%TA.AperFunction,Conductor*%
%ADD31C,1.200000*%
%TD*%
G04 APERTURE END LIST*
D10*
%TO.P,H2,1*%
%TO.N,N/C*%
X96000000Y-50000000D03*
%TD*%
D11*
%TO.P,R5,1*%
%TO.N,+5V*%
X80000000Y-14000000D03*
%TO.P,R5,2*%
%TO.N,BUS3#*%
X80000000Y-19080000D03*
%TD*%
D10*
%TO.P,H1,1*%
%TO.N,N/C*%
X4000000Y-50000000D03*
%TD*%
D11*
%TO.P,R13,1*%
%TO.N,M7*%
X85000000Y-40000000D03*
%TO.P,R13,2*%
%TO.N,GND*%
X85000000Y-45080000D03*
%TD*%
D12*
%TO.P,TP2,1*%
%TO.N,BUS1#*%
X38000000Y-60000000D03*
%TD*%
D13*
%TO.P,C2,1*%
%TO.N,+5V*%
X62000000Y-14000000D03*
D11*
%TO.P,C2,2*%
%TO.N,GND*%
X62000000Y-16000000D03*
%TD*%
%TO.P,R4,1*%
%TO.N,+5V*%
X76000000Y-14000000D03*
%TO.P,R4,2*%
%TO.N,BUS2#*%
X76000000Y-19080000D03*
%TD*%
D14*
%TO.P,Q1,1*%
%TO.N,GND*%
X33660000Y-34000000D03*
D15*
%TO.P,Q1,2*%
%TO.N,+5V*%
X36200000Y-34000000D03*
%TO.P,Q1,3*%
%TO.N,Net-(D2-A)*%
X38740000Y-34000000D03*
%TD*%
D16*
%TO.P,F1,1*%
%TO.N,VBUS*%
X26000000Y-16000000D03*
%TO.P,F1,2*%
%TO.N,+5V*%
X36200000Y-17900000D03*
%TD*%
D11*
%TO.P,R11,1*%
%TO.N,M5*%
X75000000Y-40000000D03*
%TO.P,R11,2*%
%TO.N,GND*%
X75000000Y-45080000D03*
%TD*%
%TO.P,R3,1*%
%TO.N,+5V*%
X72000000Y-14000000D03*
%TO.P,R3,2*%
%TO.N,BUS1#*%
X72000000Y-19080000D03*
%TD*%
%TO.P,R7,1*%
%TO.N,M1*%
X55000000Y-40000000D03*
%TO.P,R7,2*%
%TO.N,GND*%
X55000000Y-45080000D03*
%TD*%
D12*
%TO.P,TP4,1*%
%TO.N,BUS3#*%
X54000000Y-60000000D03*
%TD*%
%TO.P,TP1,1*%
%TO.N,BUS0#*%
X30000000Y-60000000D03*
%TD*%
D17*
%TO.P,D1,1*%
%TO.N,GND*%
X50000000Y-21000000D03*
D18*
%TO.P,D1,2*%
%TO.N,Net-(D1-A)*%
X50000000Y-18460000D03*
%TD*%
D11*
%TO.P,R2,1*%
%TO.N,+5V*%
X68000000Y-14000000D03*
%TO.P,R2,2*%
%TO.N,BUS0#*%
X68000000Y-19080000D03*
%TD*%
D12*
%TO.P,TP5,1*%
%TO.N,CLK*%
X62000000Y-60000000D03*
%TD*%
D11*
%TO.P,R9,1*%
%TO.N,M3*%
X65000000Y-40000000D03*
%TO.P,R9,2*%
%TO.N,GND*%
X65000000Y-45080000D03*
%TD*%
%TO.P,R6,1*%
%TO.N,M0*%
X50000000Y-40000000D03*
%TO.P,R6,2*%
%TO.N,GND*%
X50000000Y-45080000D03*
%TD*%
%TO.P,R14,1*%
%TO.N,Net-(D2-A)*%
X42000000Y-39970000D03*
%TO.P,R14,2*%
%TO.N,GND*%
X42000000Y-45050000D03*
%TD*%
%TO.P,R10,1*%
%TO.N,M4*%
X70000000Y-40000000D03*
%TO.P,R10,2*%
%TO.N,GND*%
X70000000Y-45080000D03*
%TD*%
D12*
%TO.P,TP6,1*%
%TO.N,RST*%
X70000000Y-60000000D03*
%TD*%
D11*
%TO.P,R12,1*%
%TO.N,M6*%
X80000000Y-40000000D03*
%TO.P,R12,2*%
%TO.N,GND*%
X80000000Y-45080000D03*
%TD*%
D19*
%TO.P,J1,1*%
%TO.N,VBUS*%
X11620000Y-26000000D03*
X14000000Y-23620000D03*
X14000000Y-28380000D03*
X16380000Y-26000000D03*
%TD*%
%TO.P,J2,1*%
%TO.N,GND*%
X11620000Y-45050000D03*
X14000000Y-42670000D03*
X14000000Y-47430000D03*
X16380000Y-45050000D03*
%TD*%
D11*
%TO.P,R8,1*%
%TO.N,M2*%
X60000000Y-40000000D03*
%TO.P,R8,2*%
%TO.N,GND*%
X60000000Y-45080000D03*
%TD*%
%TO.P,R1,1*%
%TO.N,+5V*%
X46000000Y-14000000D03*
%TO.P,R1,2*%
%TO.N,Net-(D1-A)*%
X46000000Y-19080000D03*
%TD*%
D12*
%TO.P,TP3,1*%
%TO.N,BUS2#*%
X46000000Y-60000000D03*
%TD*%
D11*
%TO.P,C1,1*%
%TO.N,+5V*%
X57000000Y-14000000D03*
%TO.P,C1,2*%
%TO.N,GND*%
X57000000Y-16500000D03*
%TD*%
D20*
%TO.P,D2,1*%
%TO.N,+5V*%
X46300000Y-29810000D03*
D21*
%TO.P,D2,2*%
%TO.N,Net-(D2-A)*%
X46300000Y-39970000D03*
%TD*%
D11*
%TO.P,C3,1*%
%TO.N,Net-(D2-A)*%
X38200000Y-42550000D03*
%TO.P,C3,2*%
%TO.N,GND*%
X38200000Y-45050000D03*
%TD*%
D22*
%TO.P,D3,1*%
%TO.N,+5V*%
X27500000Y-29810000D03*
D23*
%TO.P,D3,2*%
%TO.N,GND*%
X27500000Y-45050000D03*
%TD*%
D24*
%TO.P,J3,1*%
%TO.N,+5V*%
X10630000Y-4960000D03*
D25*
%TO.P,J3,2*%
X10630000Y-7500000D03*
%TO.P,J3,3*%
%TO.N,GND*%
X13170000Y-4960000D03*
%TO.P,J3,4*%
X13170000Y-7500000D03*
%TO.P,J3,5*%
X15710000Y-4960000D03*
%TO.P,J3,6*%
%TO.N,CLK*%
X15710000Y-7500000D03*
%TO.P,J3,7*%
%TO.N,GND*%
X18250000Y-4960000D03*
%TO.P,J3,8*%
%TO.N,RST*%
X18250000Y-7500000D03*
%TO.P,J3,9*%
%TO.N,BUS1#*%
X20790000Y-4960000D03*
%TO.P,J3,10*%
%TO.N,BUS0#*%
X20790000Y-7500000D03*
%TO.P,J3,11*%
%TO.N,BUS3#*%
X23330000Y-4960000D03*
%TO.P,J3,12*%
%TO.N,BUS2#*%
X23330000Y-7500000D03*
%TO.P,J3,13*%
%TO.N,A1*%
X25870000Y-4960000D03*
%TO.P,J3,14*%
%TO.N,A0*%
X25870000Y-7500000D03*
%TO.P,J3,15*%
%TO.N,A3*%
X28410000Y-4960000D03*
%TO.P,J3,16*%
%TO.N,A2*%
X28410000Y-7500000D03*
%TO.P,J3,17*%
%TO.N,B1*%
X30950000Y-4960000D03*
%TO.P,J3,18*%
%TO.N,B0*%
X30950000Y-7500000D03*
%TO.P,J3,19*%
%TO.N,B3*%
X33490000Y-4960000D03*
%TO.P,J3,20*%
%TO.N,B2*%
X33490000Y-7500000D03*
%TO.P,J3,21*%
%TO.N,PC1*%
X36030000Y-4960000D03*
%TO.P,J3,22*%
%TO.N,PC0*%
X36030000Y-7500000D03*
%TO.P,J3,23*%
%TO.N,PC3*%
X38570000Y-4960000D03*
%TO.P,J3,24*%
%TO.N,PC2*%
X38570000Y-7500000D03*
%TO.P,J3,25*%
%TO.N,PC5*%
X41110000Y-4960000D03*
%TO.P,J3,26*%
%TO.N,PC4*%
X41110000Y-7500000D03*
%TO.P,J3,27*%
%TO.N,PC7*%
X43650000Y-4960000D03*
%TO.P,J3,28*%
%TO.N,PC6*%
X43650000Y-7500000D03*
%TO.P,J3,29*%
%TO.N,M1*%
X46190000Y-4960000D03*
%TO.P,J3,30*%
%TO.N,M0*%
X46190000Y-7500000D03*
%TO.P,J3,31*%
%TO.N,M3*%
X48730000Y-4960000D03*
%TO.P,J3,32*%
%TO.N,M2*%
X48730000Y-7500000D03*
%TO.P,J3,33*%
%TO.N,M5*%
X51270000Y-4960000D03*
%TO.P,J3,34*%
%TO.N,M4*%
X51270000Y-7500000D03*
%TO.P,J3,35*%
%TO.N,M7*%
X53810000Y-4960000D03*
%TO.P,J3,36*%
%TO.N,M6*%
X53810000Y-7500000D03*
%TO.P,J3,37*%
%TO.N,ZF*%
X56350000Y-4960000D03*
%TO.P,J3,38*%
%TO.N,CF*%
X56350000Y-7500000D03*
%TO.P,J3,39*%
%TO.N,EO*%
X58890000Y-4960000D03*
%TO.P,J3,40*%
%TO.N,SUB*%
X58890000Y-7500000D03*
%TO.P,J3,41*%
%TO.N,AO*%
X61430000Y-4960000D03*
%TO.P,J3,42*%
%TO.N,AI*%
X61430000Y-7500000D03*
%TO.P,J3,43*%
%TO.N,BO*%
X63970000Y-4960000D03*
%TO.P,J3,44*%
%TO.N,BI*%
X63970000Y-7500000D03*
%TO.P,J3,45*%
%TO.N,AB*%
X66510000Y-4960000D03*
%TO.P,J3,46*%
%TO.N,BA*%
X66510000Y-7500000D03*
%TO.P,J3,47*%
%TO.N,IO*%
X69050000Y-4960000D03*
%TO.P,J3,48*%
%TO.N,OI*%
X69050000Y-7500000D03*
%TO.P,J3,49*%
%TO.N,PCE*%
X71590000Y-4960000D03*
%TO.P,J3,50*%
%TO.N,II*%
X71590000Y-7500000D03*
%TO.P,J3,51*%
%TO.N,FI*%
X74130000Y-4960000D03*
%TO.P,J3,52*%
%TO.N,PCL*%
X74130000Y-7500000D03*
%TO.P,J3,53*%
%TO.N,MAI*%
X76670000Y-4960000D03*
%TO.P,J3,54*%
%TO.N,HLT*%
X76670000Y-7500000D03*
%TO.P,J3,55*%
%TO.N,MO*%
X79210000Y-4960000D03*
%TO.P,J3,56*%
%TO.N,MI*%
X79210000Y-7500000D03*
%TO.P,J3,57*%
%TO.N,WRH*%
X81750000Y-4960000D03*
%TO.P,J3,58*%
%TO.N,WRL*%
X81750000Y-7500000D03*
%TO.P,J3,59*%
%TO.N,F0*%
X84290000Y-4960000D03*
%TO.P,J3,60*%
%TO.N,ONE*%
X84290000Y-7500000D03*
%TO.P,J3,61*%
%TO.N,INP*%
X86830000Y-4960000D03*
%TO.P,J3,62*%
%TO.N,F1*%
X86830000Y-7500000D03*
%TO.P,J3,63*%
%TO.N,GND*%
X89370000Y-4960000D03*
%TO.P,J3,64*%
%TO.N,+5V*%
X89370000Y-7500000D03*
%TD*%
D24*
%TO.P,J4,1*%
%TO.N,+5V*%
X10630000Y-90460000D03*
D25*
%TO.P,J4,2*%
X10630000Y-93000000D03*
%TO.P,J4,3*%
%TO.N,GND*%
X13170000Y-90460000D03*
%TO.P,J4,4*%
X13170000Y-93000000D03*
%TO.P,J4,5*%
X15710000Y-90460000D03*
%TO.P,J4,6*%
%TO.N,CLK*%
X15710000Y-93000000D03*
%TO.P,J4,7*%
%TO.N,GND*%
X18250000Y-90460000D03*
%TO.P,J4,8*%
%TO.N,RST*%
X18250000Y-93000000D03*
%TO.P,J4,9*%
%TO.N,BUS1#*%
X20790000Y-90460000D03*
%TO.P,J4,10*%
%TO.N,BUS0#*%
X20790000Y-93000000D03*
%TO.P,J4,11*%
%TO.N,BUS3#*%
X23330000Y-90460000D03*
%TO.P,J4,12*%
%TO.N,BUS2#*%
X23330000Y-93000000D03*
%TO.P,J4,13*%
%TO.N,A1*%
X25870000Y-90460000D03*
%TO.P,J4,14*%
%TO.N,A0*%
X25870000Y-93000000D03*
%TO.P,J4,15*%
%TO.N,A3*%
X28410000Y-90460000D03*
%TO.P,J4,16*%
%TO.N,A2*%
X28410000Y-93000000D03*
%TO.P,J4,17*%
%TO.N,B1*%
X30950000Y-90460000D03*
%TO.P,J4,18*%
%TO.N,B0*%
X30950000Y-93000000D03*
%TO.P,J4,19*%
%TO.N,B3*%
X33490000Y-90460000D03*
%TO.P,J4,20*%
%TO.N,B2*%
X33490000Y-93000000D03*
%TO.P,J4,21*%
%TO.N,PC1*%
X36030000Y-90460000D03*
%TO.P,J4,22*%
%TO.N,PC0*%
X36030000Y-93000000D03*
%TO.P,J4,23*%
%TO.N,PC3*%
X38570000Y-90460000D03*
%TO.P,J4,24*%
%TO.N,PC2*%
X38570000Y-93000000D03*
%TO.P,J4,25*%
%TO.N,PC5*%
X41110000Y-90460000D03*
%TO.P,J4,26*%
%TO.N,PC4*%
X41110000Y-93000000D03*
%TO.P,J4,27*%
%TO.N,PC7*%
X43650000Y-90460000D03*
%TO.P,J4,28*%
%TO.N,PC6*%
X43650000Y-93000000D03*
%TO.P,J4,29*%
%TO.N,M1*%
X46190000Y-90460000D03*
%TO.P,J4,30*%
%TO.N,M0*%
X46190000Y-93000000D03*
%TO.P,J4,31*%
%TO.N,M3*%
X48730000Y-90460000D03*
%TO.P,J4,32*%
%TO.N,M2*%
X48730000Y-93000000D03*
%TO.P,J4,33*%
%TO.N,M5*%
X51270000Y-90460000D03*
%TO.P,J4,34*%
%TO.N,M4*%
X51270000Y-93000000D03*
%TO.P,J4,35*%
%TO.N,M7*%
X53810000Y-90460000D03*
%TO.P,J4,36*%
%TO.N,M6*%
X53810000Y-93000000D03*
%TO.P,J4,37*%
%TO.N,ZF*%
X56350000Y-90460000D03*
%TO.P,J4,38*%
%TO.N,CF*%
X56350000Y-93000000D03*
%TO.P,J4,39*%
%TO.N,EO*%
X58890000Y-90460000D03*
%TO.P,J4,40*%
%TO.N,SUB*%
X58890000Y-93000000D03*
%TO.P,J4,41*%
%TO.N,AO*%
X61430000Y-90460000D03*
%TO.P,J4,42*%
%TO.N,AI*%
X61430000Y-93000000D03*
%TO.P,J4,43*%
%TO.N,BO*%
X63970000Y-90460000D03*
%TO.P,J4,44*%
%TO.N,BI*%
X63970000Y-93000000D03*
%TO.P,J4,45*%
%TO.N,AB*%
X66510000Y-90460000D03*
%TO.P,J4,46*%
%TO.N,BA*%
X66510000Y-93000000D03*
%TO.P,J4,47*%
%TO.N,IO*%
X69050000Y-90460000D03*
%TO.P,J4,48*%
%TO.N,OI*%
X69050000Y-93000000D03*
%TO.P,J4,49*%
%TO.N,PCE*%
X71590000Y-90460000D03*
%TO.P,J4,50*%
%TO.N,II*%
X71590000Y-93000000D03*
%TO.P,J4,51*%
%TO.N,FI*%
X74130000Y-90460000D03*
%TO.P,J4,52*%
%TO.N,PCL*%
X74130000Y-93000000D03*
%TO.P,J4,53*%
%TO.N,MAI*%
X76670000Y-90460000D03*
%TO.P,J4,54*%
%TO.N,HLT*%
X76670000Y-93000000D03*
%TO.P,J4,55*%
%TO.N,MO*%
X79210000Y-90460000D03*
%TO.P,J4,56*%
%TO.N,MI*%
X79210000Y-93000000D03*
%TO.P,J4,57*%
%TO.N,WRH*%
X81750000Y-90460000D03*
%TO.P,J4,58*%
%TO.N,WRL*%
X81750000Y-93000000D03*
%TO.P,J4,59*%
%TO.N,F0*%
X84290000Y-90460000D03*
%TO.P,J4,60*%
%TO.N,ONE*%
X84290000Y-93000000D03*
%TO.P,J4,61*%
%TO.N,INP*%
X86830000Y-90460000D03*
%TO.P,J4,62*%
%TO.N,F1*%
X86830000Y-93000000D03*
%TO.P,J4,63*%
%TO.N,GND*%
X89370000Y-90460000D03*
%TO.P,J4,64*%
%TO.N,+5V*%
X89370000Y-93000000D03*
%TD*%
D26*
%TO.N,+5V*%
X90000000Y-14000000D03*
X90000000Y-86000000D03*
X89370000Y-95500000D03*
%TO.N,BUS3#*%
X79253300Y-57776000D03*
X21997500Y-61664000D03*
%TO.N,M7*%
X56097600Y-38672300D03*
%TO.N,BUS1#*%
X71248300Y-11843100D03*
X19678700Y-60998100D03*
%TO.N,BUS2#*%
X74536200Y-10095500D03*
X23390200Y-58695400D03*
%TO.N,M5*%
X52824700Y-37072400D03*
%TO.N,M1*%
X53254400Y-88087600D03*
X54527700Y-9261100D03*
%TO.N,BUS0#*%
X20790000Y-60000000D03*
X68374300Y-11121600D03*
%TO.N,CLK*%
X14771100Y-57776000D03*
%TO.N,M3*%
X51457200Y-30560000D03*
%TO.N,M4*%
X52108900Y-29469800D03*
%TO.N,RST*%
X17138700Y-65552000D03*
%TO.N,M6*%
X53878700Y-26672000D03*
%TO.N,M2*%
X57156800Y-88235500D03*
X57827300Y-38720600D03*
X60000000Y-9521200D03*
%TO.N,B0*%
X35395000Y-88870500D03*
X35532100Y-9632700D03*
%TD*%
%TO.N,+5V*%
D27*
X89370000Y-7500000D02*
X89370000Y-14000000D01*
D28*
X36200000Y-29810000D02*
X27500000Y-29810000D01*
D27*
X10630000Y-93000000D02*
X10630000Y-90460000D01*
D29*
X76000000Y-14000000D02*
X80000000Y-14000000D01*
X62000000Y-14000000D02*
X57000000Y-14000000D01*
D27*
X10630000Y-7500000D02*
X10630000Y-4960000D01*
D30*
X10630000Y-86000000D02*
X90000000Y-86000000D01*
D29*
X36200000Y-14000000D02*
X46000000Y-14000000D01*
D27*
X89370000Y-93000000D02*
X89370000Y-95500000D01*
D30*
X36200000Y-17900000D02*
X36200000Y-14000000D01*
D27*
X10630000Y-7500000D02*
X10630000Y-14000000D01*
D29*
X68000000Y-14000000D02*
X72000000Y-14000000D01*
D30*
X10630000Y-14000000D02*
X90000000Y-14000000D01*
D28*
X36200000Y-17900000D02*
X36200000Y-34000000D01*
D27*
X10630000Y-90460000D02*
X10630000Y-86000000D01*
D30*
X36200000Y-29810000D02*
X46300000Y-29810000D01*
D29*
X72000000Y-14000000D02*
X76000000Y-14000000D01*
%TO.N,BUS3#*%
X21997500Y-61664000D02*
X52336000Y-61664000D01*
X54000000Y-60000000D02*
X55281800Y-61281800D01*
X55281800Y-61281800D02*
X64059400Y-61281800D01*
X64059400Y-61281800D02*
X67565200Y-57776000D01*
X67565200Y-57776000D02*
X79253300Y-57776000D01*
X52336000Y-61664000D02*
X54000000Y-60000000D01*
%TO.N,M7*%
X83557300Y-41442700D02*
X85000000Y-40000000D01*
X56097600Y-38672300D02*
X58867900Y-41442600D01*
X58867900Y-41442700D02*
X83557300Y-41442700D01*
X58867900Y-41442600D02*
X58867900Y-41442700D01*
%TO.N,GND*%
X38200000Y-45050000D02*
X42000000Y-45050000D01*
D27*
X89370000Y-90460000D02*
X91000000Y-90460000D01*
X13170000Y-93000000D02*
X13170000Y-90460000D01*
D29*
X70000000Y-45080000D02*
X75000000Y-45080000D01*
D28*
X16380000Y-45050000D02*
X42000000Y-45050000D01*
D29*
X60000000Y-45080000D02*
X65000000Y-45080000D01*
D31*
X14000000Y-47430000D02*
X11620000Y-45050000D01*
D27*
X13170000Y-4960000D02*
X13170000Y-2000000D01*
X91000000Y-2000000D02*
X91000000Y-97500000D01*
D31*
X11620000Y-45050000D02*
X14000000Y-42670000D01*
D27*
X62000000Y-16500000D02*
X62000000Y-22000000D01*
X13170000Y-4960000D02*
X18250000Y-4960000D01*
D29*
X75000000Y-45080000D02*
X80000000Y-45080000D01*
D28*
X33660000Y-34000000D02*
X33660000Y-45050000D01*
D27*
X13170000Y-97500000D02*
X91000000Y-97500000D01*
X50000000Y-22000000D02*
X91000000Y-22000000D01*
D31*
X14000000Y-42670000D02*
X16380000Y-45050000D01*
D27*
X57000000Y-16500000D02*
X57000000Y-22000000D01*
X89370000Y-4960000D02*
X89370000Y-2000000D01*
D30*
X3000000Y-45050000D02*
X3000000Y-2000000D01*
D27*
X50000000Y-21000000D02*
X50000000Y-22000000D01*
D29*
X80000000Y-45080000D02*
X85000000Y-45080000D01*
D31*
X16380000Y-45050000D02*
X14000000Y-47430000D01*
D30*
X11620000Y-45050000D02*
X3000000Y-45050000D01*
D29*
X55000000Y-45080000D02*
X60000000Y-45080000D01*
D27*
X50000000Y-45080000D02*
X91000000Y-45080000D01*
D29*
X62000000Y-16500000D02*
X62000000Y-16000000D01*
X65000000Y-45080000D02*
X70000000Y-45080000D01*
D27*
X13170000Y-93000000D02*
X13170000Y-97500000D01*
X13170000Y-7500000D02*
X13170000Y-4960000D01*
X13170000Y-90460000D02*
X18250000Y-90460000D01*
X3000000Y-2000000D02*
X91000000Y-2000000D01*
%TO.N,BUS1#*%
D29*
X36718000Y-61282000D02*
X22679500Y-61282000D01*
X22060500Y-7796900D02*
X24899700Y-10636100D01*
X22395600Y-60998100D02*
X19678700Y-60998100D01*
X38000000Y-60000000D02*
X36718000Y-61282000D01*
X24899700Y-10636100D02*
X64204900Y-10636100D01*
X64204900Y-10636100D02*
X64393800Y-10447200D01*
X20790000Y-4960000D02*
X22060500Y-6230500D01*
X22679500Y-61282000D02*
X22395600Y-60998100D01*
X64393800Y-10447200D02*
X69852400Y-10447200D01*
X22060500Y-6230500D02*
X22060500Y-7796900D01*
X69852400Y-10447200D02*
X71248300Y-11843100D01*
%TO.N,BUS2#*%
X26114400Y-10284400D02*
X64059300Y-10284400D01*
X44695400Y-58695400D02*
X23390200Y-58695400D01*
X23330000Y-7500000D02*
X26114400Y-10284400D01*
X46000000Y-60000000D02*
X44695400Y-58695400D01*
X64248200Y-10095500D02*
X74536200Y-10095500D01*
X64059300Y-10284400D02*
X64248200Y-10095500D01*
%TO.N,Net-(D2-A)*%
X39420000Y-42550000D02*
X42000000Y-39970000D01*
X38200000Y-42550000D02*
X39420000Y-42550000D01*
X46300000Y-39970000D02*
X42000000Y-39970000D01*
%TO.N,VBUS*%
D28*
X16380000Y-26000000D02*
X20000000Y-26000000D01*
X20000000Y-16000000D02*
X26000000Y-16000000D01*
D31*
X16380000Y-26000000D02*
X14000000Y-28380000D01*
X14000000Y-28380000D02*
X11620000Y-26000000D01*
D28*
X20000000Y-26000000D02*
X20000000Y-16000000D01*
D31*
X11620000Y-26000000D02*
X14000000Y-23620000D01*
X14000000Y-23620000D02*
X16380000Y-26000000D01*
%TO.N,M5*%
D29*
X60537600Y-37072400D02*
X52824700Y-37072400D01*
X75000000Y-40000000D02*
X73909000Y-41091000D01*
X73909000Y-41091000D02*
X64556200Y-41091000D01*
X64556200Y-41091000D02*
X60537600Y-37072400D01*
%TO.N,M1*%
X50000000Y-7823100D02*
X51438000Y-9261100D01*
X51438000Y-9261100D02*
X54527700Y-9261100D01*
X49044300Y-6230000D02*
X50000000Y-7185700D01*
X46190000Y-90460000D02*
X48562400Y-88087600D01*
X48562400Y-88087600D02*
X53254400Y-88087600D01*
X46190000Y-4960000D02*
X47460000Y-6230000D01*
X50000000Y-7185700D02*
X50000000Y-7823100D01*
X47460000Y-6230000D02*
X49044300Y-6230000D01*
%TO.N,BUS0#*%
X24411600Y-11121600D02*
X68374300Y-11121600D01*
X20790000Y-60000000D02*
X30000000Y-60000000D01*
X20790000Y-7500000D02*
X24411600Y-11121600D01*
%TO.N,Net-(D1-A)*%
X46620000Y-18460000D02*
X46000000Y-19080000D01*
X50000000Y-18460000D02*
X46620000Y-18460000D01*
%TO.N,CLK*%
X62000000Y-60000000D02*
X59776000Y-57776000D01*
X59776000Y-57776000D02*
X14771100Y-57776000D01*
%TO.N,M3*%
X65000000Y-40000000D02*
X55560000Y-30560000D01*
X55560000Y-30560000D02*
X51457200Y-30560000D01*
%TO.N,M4*%
X70000000Y-40000000D02*
X59469800Y-29469800D01*
X59469800Y-29469800D02*
X52108900Y-29469800D01*
%TO.N,RST*%
X17138700Y-65552000D02*
X64448000Y-65552000D01*
X64448000Y-65552000D02*
X70000000Y-60000000D01*
%TO.N,M6*%
X80000000Y-40000000D02*
X66672000Y-26672000D01*
X66672000Y-26672000D02*
X53878700Y-26672000D01*
%TO.N,M2*%
X48730000Y-7500000D02*
X51142800Y-9912800D01*
X50000000Y-91730000D02*
X48730000Y-93000000D01*
X59106700Y-40000000D02*
X57827300Y-38720600D01*
X55080000Y-90777600D02*
X54127600Y-91730000D01*
X54127600Y-91730000D02*
X50000000Y-91730000D01*
X55080000Y-90146700D02*
X55080000Y-90777600D01*
X60000000Y-40000000D02*
X59106700Y-40000000D01*
X56991200Y-88235500D02*
X55080000Y-90146700D01*
X51142800Y-9912800D02*
X54797600Y-9912800D01*
X54797600Y-9912800D02*
X55189100Y-9521300D01*
X55189100Y-9521200D02*
X60000000Y-9521200D01*
X57156800Y-88235500D02*
X56991200Y-88235500D01*
X55189100Y-9521300D02*
X55189100Y-9521200D01*
%TO.N,B0*%
X33082700Y-9632700D02*
X35532100Y-9632700D01*
X30950000Y-7500000D02*
X33082700Y-9632700D01*
X32220000Y-91730000D02*
X33804400Y-91730000D01*
X34760000Y-90774400D02*
X34760000Y-89505500D01*
X34760000Y-89505500D02*
X35395000Y-88870500D01*
X33804400Y-91730000D02*
X34760000Y-90774400D01*
X30950000Y-93000000D02*
X32220000Y-91730000D01*
%TD*%
M02*
