M48
; DRILL file KiCad 10.0.5 date 2026-09-14T17:44:58
; FORMAT={-:-/ absolute / metric / decimal}
; #@! TF.CreationDate,2026-09-14T17:44:58-04:00
; #@! TF.GenerationSoftware,Kicad,Pcbnew,10.0.5
; #@! TF.FileFunction,MixedPlating,1,2
FMAT,2
METRIC
; #@! TA.AperFunction,Plated,PTH,ViaDrill
T1C0.400
; #@! TA.AperFunction,Plated,PTH,ComponentDrill
T2C0.800
; #@! TA.AperFunction,Plated,PTH,ComponentDrill
T3C0.900
; #@! TA.AperFunction,Plated,PTH,ComponentDrill
T4C0.920
; #@! TA.AperFunction,Plated,PTH,ComponentDrill
T5C1.000
; #@! TA.AperFunction,Plated,PTH,ComponentDrill
T6C1.010
; #@! TA.AperFunction,Plated,PTH,ComponentDrill
T7C1.300
; #@! TA.AperFunction,Plated,PTH,ComponentDrill
T8C2.330
; #@! TA.AperFunction,Plated,PTH,ComponentDrill
T9C3.200
%
G90
G05
T1
X15.71Y-63.041
X17.139Y-63.412
X20.971Y-59.482
X20.974Y-57.159
X22.219Y-60.523
X23.489Y-61.664
X38.397Y-8.921
X39.292Y-9.432
X47.643Y-42.847
X48.391Y-41.052
X51.779Y-38.106
X52.238Y-42.131
X52.792Y-41.339
X53.959Y-88.066
X60.0Y-10.322
X60.041Y-46.813
X61.803Y-46.813
X64.382Y-9.899
X69.052Y-12.181
X70.567Y-12.584
X74.518Y-12.155
X78.654Y-57.776
X78.893Y-10.796
X89.37Y-95.5
X90.0Y-14.0
X90.0Y-86.0
T2
X46.0Y-14.0
X46.0Y-19.08
X50.0Y-40.0
X50.0Y-45.08
X55.0Y-40.0
X55.0Y-45.08
X57.0Y-14.0
X57.0Y-16.5
X60.0Y-40.0
X60.0Y-45.08
X62.0Y-14.0
X62.0Y-16.0
X65.0Y-40.0
X65.0Y-45.08
X68.0Y-14.0
X68.0Y-19.08
X70.0Y-40.0
X70.0Y-45.08
X72.0Y-14.0
X72.0Y-19.08
X75.0Y-40.0
X75.0Y-45.08
X76.0Y-14.0
X76.0Y-19.08
X80.0Y-14.0
X80.0Y-19.08
X80.0Y-40.0
X80.0Y-45.08
X85.0Y-40.0
X85.0Y-45.08
T3
X50.0Y-18.46
X50.0Y-21.0
T4
X12.0Y-27.5
X12.0Y-30.0
X14.0Y-27.5
X14.0Y-30.0
T5
X10.63Y-4.96
X10.63Y-7.5
X10.63Y-90.46
X10.63Y-93.0
X13.17Y-4.96
X13.17Y-7.5
X13.17Y-90.46
X13.17Y-93.0
X15.71Y-4.96
X15.71Y-7.5
X15.71Y-90.46
X15.71Y-93.0
X18.25Y-4.96
X18.25Y-7.5
X18.25Y-90.46
X18.25Y-93.0
X20.79Y-4.96
X20.79Y-7.5
X20.79Y-90.46
X20.79Y-93.0
X23.33Y-4.96
X23.33Y-7.5
X23.33Y-90.46
X23.33Y-93.0
X25.87Y-4.96
X25.87Y-7.5
X25.87Y-90.46
X25.87Y-93.0
X28.41Y-4.96
X28.41Y-7.5
X28.41Y-90.46
X28.41Y-93.0
X30.0Y-60.0
X30.95Y-4.96
X30.95Y-7.5
X30.95Y-90.46
X30.95Y-93.0
X33.49Y-4.96
X33.49Y-7.5
X33.49Y-90.46
X33.49Y-93.0
X36.03Y-4.96
X36.03Y-7.5
X36.03Y-90.46
X36.03Y-93.0
X38.0Y-60.0
X38.57Y-4.96
X38.57Y-7.5
X38.57Y-90.46
X38.57Y-93.0
X41.11Y-4.96
X41.11Y-7.5
X41.11Y-90.46
X41.11Y-93.0
X43.65Y-4.96
X43.65Y-7.5
X43.65Y-90.46
X43.65Y-93.0
X46.0Y-60.0
X46.19Y-4.96
X46.19Y-7.5
X46.19Y-90.46
X46.19Y-93.0
X48.73Y-4.96
X48.73Y-7.5
X48.73Y-90.46
X48.73Y-93.0
X51.27Y-4.96
X51.27Y-7.5
X51.27Y-90.46
X51.27Y-93.0
X53.81Y-4.96
X53.81Y-7.5
X53.81Y-90.46
X53.81Y-93.0
X54.0Y-60.0
X56.35Y-4.96
X56.35Y-7.5
X56.35Y-90.46
X56.35Y-93.0
X58.89Y-4.96
X58.89Y-7.5
X58.89Y-90.46
X58.89Y-93.0
X61.43Y-4.96
X61.43Y-7.5
X61.43Y-90.46
X61.43Y-93.0
X62.0Y-60.0
X63.97Y-4.96
X63.97Y-7.5
X63.97Y-90.46
X63.97Y-93.0
X66.51Y-4.96
X66.51Y-7.5
X66.51Y-90.46
X66.51Y-93.0
X69.05Y-4.96
X69.05Y-7.5
X69.05Y-90.46
X69.05Y-93.0
X70.0Y-60.0
X71.59Y-4.96
X71.59Y-7.5
X71.59Y-90.46
X71.59Y-93.0
X74.13Y-4.96
X74.13Y-7.5
X74.13Y-90.46
X74.13Y-93.0
X76.67Y-4.96
X76.67Y-7.5
X76.67Y-90.46
X76.67Y-93.0
X79.21Y-4.96
X79.21Y-7.5
X79.21Y-90.46
X79.21Y-93.0
X81.75Y-4.96
X81.75Y-7.5
X81.75Y-90.46
X81.75Y-93.0
X84.29Y-4.96
X84.29Y-7.5
X84.29Y-90.46
X84.29Y-93.0
X86.83Y-4.96
X86.83Y-7.5
X86.83Y-90.46
X86.83Y-93.0
X89.37Y-4.96
X89.37Y-7.5
X89.37Y-90.46
X89.37Y-93.0
T6
X26.0Y-16.0
X36.2Y-17.9
T7
X12.0Y-56.92
X12.0Y-62.0
T8
X9.29Y-22.73
X9.29Y-34.77
T9
X4.0Y-50.0
X96.0Y-50.0
M30
