M48
; DRILL file KiCad 10.0.5 date 2026-09-29T00:42:19
; FORMAT={-:-/ absolute / metric / decimal}
; #@! TF.CreationDate,2026-09-29T00:42:19-04:00
; #@! TF.GenerationSoftware,Kicad,Pcbnew,10.0.5
; #@! TF.FileFunction,MixedPlating,1,2
FMAT,2
METRIC
; #@! TA.AperFunction,Plated,PTH,ViaDrill
T1C0.400
; #@! TA.AperFunction,Plated,PTH,ComponentDrill
T2C0.800
; #@! TA.AperFunction,Plated,PTH,ComponentDrill
T3C0.900
; #@! TA.AperFunction,Plated,PTH,ComponentDrill
T4C1.000
; #@! TA.AperFunction,Plated,PTH,ComponentDrill
T5C1.010
; #@! TA.AperFunction,Plated,PTH,ComponentDrill
T6C1.100
; #@! TA.AperFunction,Plated,PTH,ComponentDrill
T7C1.600
; #@! TA.AperFunction,Plated,PTH,ComponentDrill
T8C3.200
%
G90
G05
T1
X14.771Y-57.776
X17.139Y-65.552
X19.679Y-60.998
X20.79Y-60.0
X21.997Y-61.664
X23.39Y-58.695
X35.395Y-88.87
X35.532Y-9.633
X51.457Y-30.56
X52.109Y-29.47
X52.825Y-37.072
X53.254Y-88.088
X53.879Y-26.672
X54.528Y-9.261
X56.098Y-38.672
X57.157Y-88.236
X57.827Y-38.721
X60.0Y-9.521
X68.374Y-11.122
X71.248Y-11.843
X74.536Y-10.095
X79.253Y-57.776
X89.37Y-95.5
X90.0Y-14.0
X90.0Y-86.0
T2
X38.2Y-42.55
X38.2Y-45.05
X42.0Y-39.97
X42.0Y-45.05
X46.0Y-14.0
X46.0Y-19.08
X50.0Y-40.0
X50.0Y-45.08
X55.0Y-40.0
X55.0Y-45.08
X57.0Y-14.0
X57.0Y-16.5
X60.0Y-40.0
X60.0Y-45.08
X62.0Y-14.0
X62.0Y-16.0
X65.0Y-40.0
X65.0Y-45.08
X68.0Y-14.0
X68.0Y-19.08
X70.0Y-40.0
X70.0Y-45.08
X72.0Y-14.0
X72.0Y-19.08
X75.0Y-40.0
X75.0Y-45.08
X76.0Y-14.0
X76.0Y-19.08
X80.0Y-14.0
X80.0Y-19.08
X80.0Y-40.0
X80.0Y-45.08
X85.0Y-40.0
X85.0Y-45.08
T3
X50.0Y-18.46
X50.0Y-21.0
T4
X10.63Y-4.96
X10.63Y-7.5
X10.63Y-90.46
X10.63Y-93.0
X13.17Y-4.96
X13.17Y-7.5
X13.17Y-90.46
X13.17Y-93.0
X15.71Y-4.96
X15.71Y-7.5
X15.71Y-90.46
X15.71Y-93.0
X18.25Y-4.96
X18.25Y-7.5
X18.25Y-90.46
X18.25Y-93.0
X20.79Y-4.96
X20.79Y-7.5
X20.79Y-90.46
X20.79Y-93.0
X23.33Y-4.96
X23.33Y-7.5
X23.33Y-90.46
X23.33Y-93.0
X25.87Y-4.96
X25.87Y-7.5
X25.87Y-90.46
X25.87Y-93.0
X28.41Y-4.96
X28.41Y-7.5
X28.41Y-90.46
X28.41Y-93.0
X30.0Y-60.0
X30.95Y-4.96
X30.95Y-7.5
X30.95Y-90.46
X30.95Y-93.0
X33.49Y-4.96
X33.49Y-7.5
X33.49Y-90.46
X33.49Y-93.0
X36.03Y-4.96
X36.03Y-7.5
X36.03Y-90.46
X36.03Y-93.0
X38.0Y-60.0
X38.57Y-4.96
X38.57Y-7.5
X38.57Y-90.46
X38.57Y-93.0
X41.11Y-4.96
X41.11Y-7.5
X41.11Y-90.46
X41.11Y-93.0
X43.65Y-4.96
X43.65Y-7.5
X43.65Y-90.46
X43.65Y-93.0
X46.0Y-60.0
X46.19Y-4.96
X46.19Y-7.5
X46.19Y-90.46
X46.19Y-93.0
X48.73Y-4.96
X48.73Y-7.5
X48.73Y-90.46
X48.73Y-93.0
X51.27Y-4.96
X51.27Y-7.5
X51.27Y-90.46
X51.27Y-93.0
X53.81Y-4.96
X53.81Y-7.5
X53.81Y-90.46
X53.81Y-93.0
X54.0Y-60.0
X56.35Y-4.96
X56.35Y-7.5
X56.35Y-90.46
X56.35Y-93.0
X58.89Y-4.96
X58.89Y-7.5
X58.89Y-90.46
X58.89Y-93.0
X61.43Y-4.96
X61.43Y-7.5
X61.43Y-90.46
X61.43Y-93.0
X62.0Y-60.0
X63.97Y-4.96
X63.97Y-7.5
X63.97Y-90.46
X63.97Y-93.0
X66.51Y-4.96
X66.51Y-7.5
X66.51Y-90.46
X66.51Y-93.0
X69.05Y-4.96
X69.05Y-7.5
X69.05Y-90.46
X69.05Y-93.0
X70.0Y-60.0
X71.59Y-4.96
X71.59Y-7.5
X71.59Y-90.46
X71.59Y-93.0
X74.13Y-4.96
X74.13Y-7.5
X74.13Y-90.46
X74.13Y-93.0
X76.67Y-4.96
X76.67Y-7.5
X76.67Y-90.46
X76.67Y-93.0
X79.21Y-4.96
X79.21Y-7.5
X79.21Y-90.46
X79.21Y-93.0
X81.75Y-4.96
X81.75Y-7.5
X81.75Y-90.46
X81.75Y-93.0
X84.29Y-4.96
X84.29Y-7.5
X84.29Y-90.46
X84.29Y-93.0
X86.83Y-4.96
X86.83Y-7.5
X86.83Y-90.46
X86.83Y-93.0
X89.37Y-4.96
X89.37Y-7.5
X89.37Y-90.46
X89.37Y-93.0
T5
X26.0Y-16.0
X36.2Y-17.9
T6
X33.66Y-34.0
X36.2Y-34.0
X38.74Y-34.0
X46.3Y-29.81
X46.3Y-39.97
T7
X11.62Y-26.0
X11.62Y-45.05
X14.0Y-23.62
X14.0Y-28.38
X14.0Y-42.67
X14.0Y-47.43
X16.38Y-26.0
X16.38Y-45.05
X27.5Y-29.81
X27.5Y-45.05
T8
X4.0Y-50.0
X96.0Y-50.0
M30
