M48
; DRILL file KiCad 10.0.5 date 2026-09-09T16:00:59
; FORMAT={-:-/ absolute / metric / decimal}
; #@! TF.CreationDate,2026-09-09T16:00:59-04:00
; #@! TF.GenerationSoftware,Kicad,Pcbnew,10.0.5
; #@! TF.FileFunction,MixedPlating,1,2
FMAT,2
METRIC
; #@! TA.AperFunction,Plated,PTH,ViaDrill
T1C0.400
; #@! TA.AperFunction,Plated,PTH,ComponentDrill
T2C0.800
; #@! TA.AperFunction,Plated,PTH,ComponentDrill
T3C0.900
; #@! TA.AperFunction,Plated,PTH,ComponentDrill
T4C1.000
; #@! TA.AperFunction,Plated,PTH,ComponentDrill
T5C3.200
%
G90
G05
T1
X3.405Y-11.316
X4.73Y-16.0
X12.35Y-19.0
X14.89Y-16.0
X18.0Y-11.0
X22.51Y-19.0
X25.05Y-16.0
X26.0Y-10.5
X32.67Y-19.0
X35.21Y-16.0
X42.83Y-19.0
X45.37Y-16.0
X46.986Y-3.603
X50.349Y-2.801
X52.99Y-19.0
X55.53Y-16.0
X57.95Y-14.965
X61.85Y-62.887
X63.15Y-19.0
X64.62Y-20.022
X65.69Y-16.0
X73.31Y-19.0
X75.85Y-16.0
X83.47Y-19.0
X86.01Y-16.0
X93.63Y-19.0
X94.877Y-3.603
X96.17Y-16.0
X103.79Y-19.0
X104.768Y-12.443
T2
X6.0Y-32.16
X6.0Y-52.48
X6.0Y-65.18
X8.54Y-22.0
X8.54Y-27.08
X8.54Y-32.16
X8.54Y-42.32
X8.54Y-47.4
X8.54Y-52.48
X8.54Y-65.18
X11.08Y-32.16
X11.08Y-52.48
X11.08Y-65.18
X16.16Y-32.16
X16.16Y-52.48
X16.16Y-77.88
X18.0Y-6.0
X18.0Y-8.5
X18.7Y-22.0
X18.7Y-27.08
X18.7Y-32.16
X18.7Y-42.32
X18.7Y-47.4
X18.7Y-52.48
X18.7Y-62.64
X18.7Y-67.72
X18.7Y-77.88
X21.24Y-32.16
X21.24Y-52.48
X21.24Y-77.88
X26.0Y-6.0
X26.0Y-8.0
X26.32Y-32.16
X26.32Y-52.48
X28.86Y-22.0
X28.86Y-27.08
X28.86Y-32.16
X28.86Y-42.32
X28.86Y-47.4
X28.86Y-52.48
X31.4Y-32.16
X31.4Y-52.48
X36.48Y-32.16
X36.48Y-52.48
X39.02Y-22.0
X39.02Y-27.08
X39.02Y-32.16
X39.02Y-42.32
X39.02Y-47.4
X39.02Y-52.48
X41.56Y-32.16
X41.56Y-52.48
X42.0Y-6.0
X42.0Y-11.08
X46.0Y-6.0
X46.0Y-11.08
X46.64Y-32.16
X46.64Y-52.48
X49.18Y-22.0
X49.18Y-27.08
X49.18Y-32.16
X49.18Y-42.32
X49.18Y-47.4
X49.18Y-52.48
X50.0Y-6.0
X50.0Y-11.08
X51.72Y-32.16
X51.72Y-52.48
X54.0Y-6.0
X54.0Y-11.08
X56.8Y-32.16
X56.8Y-52.48
X59.34Y-22.0
X59.34Y-27.08
X59.34Y-32.16
X59.34Y-42.32
X59.34Y-47.4
X59.34Y-52.48
X61.88Y-32.16
X61.88Y-52.48
X66.96Y-32.16
X66.96Y-52.48
X69.5Y-22.0
X69.5Y-27.08
X69.5Y-32.16
X69.5Y-42.32
X69.5Y-47.4
X69.5Y-52.48
X72.04Y-32.16
X72.04Y-52.48
X77.12Y-32.16
X77.12Y-52.48
X79.66Y-22.0
X79.66Y-27.08
X79.66Y-32.16
X79.66Y-42.32
X79.66Y-47.4
X79.66Y-52.48
X82.2Y-32.16
X82.2Y-52.48
X87.28Y-32.16
X87.28Y-52.48
X87.28Y-57.56
X87.28Y-62.64
X89.82Y-22.0
X89.82Y-27.08
X89.82Y-32.16
X89.82Y-42.32
X89.82Y-47.4
X89.82Y-52.48
X89.82Y-57.56
X89.82Y-62.64
X92.36Y-32.16
X92.36Y-52.48
X92.36Y-57.56
X92.36Y-62.64
X97.44Y-32.16
X97.44Y-52.48
X97.44Y-57.56
X97.44Y-62.64
X99.98Y-22.0
X99.98Y-27.08
X99.98Y-32.16
X99.98Y-42.32
X99.98Y-47.4
X99.98Y-52.48
X99.98Y-57.56
X99.98Y-62.64
X100.0Y-6.0
X100.0Y-11.08
X102.52Y-32.16
X102.52Y-52.48
X102.52Y-57.56
X102.52Y-62.64
T3
X17.43Y-72.8
X19.97Y-72.8
T4
X12.0Y-8.0
X12.0Y-10.54
X34.0Y-6.0
X34.0Y-8.54
X34.0Y-11.08
X34.0Y-13.62
X60.0Y-6.0
X67.0Y-6.0
X74.0Y-6.0
X81.0Y-6.0
X88.0Y-6.0
X95.0Y-6.0
T5
X4.0Y-4.0
X108.0Y-4.0
M30
