%TF.GenerationSoftware,KiCad,Pcbnew,10.0.5*%
%TF.CreationDate,2026-09-09T16:00:58-04:00*%
%TF.ProjectId,coupon,636f7570-6f6e-42e6-9b69-6361645f7063,rev?*%
%TF.SameCoordinates,Original*%
%TF.FileFunction,Other,User*%
%FSLAX46Y46*%
G04 Gerber Fmt 4.6, Leading zero omitted, Abs format (unit mm)*
G04 Created by KiCad (PCBNEW 10.0.5) date 2026-09-09 16:00:58*
%MOMM*%
%LPD*%
G01*
G04 APERTURE LIST*
%ADD10C,0.050000*%
G04 APERTURE END LIST*
%TO.C,Q4*%
D10*
X35470000Y-29430000D02*
X35470000Y-34170000D01*
X35470000Y-29430000D02*
X42570000Y-29430000D01*
X42570000Y-34170000D02*
X35470000Y-34170000D01*
X42570000Y-34170000D02*
X42570000Y-29430000D01*
%TO.C,TP6*%
X96800000Y-6000000D02*
G75*
G02*
X93200000Y-6000000I-1800000J0D01*
G01*
X93200000Y-6000000D02*
G75*
G02*
X96800000Y-6000000I1800000J0D01*
G01*
%TO.C,R1*%
X40500000Y-4500000D02*
X43500000Y-4500000D01*
X43500000Y-12130000D01*
X40500000Y-12130000D01*
X40500000Y-4500000D01*
%TO.C,Q24*%
X96430000Y-59910000D02*
X96430000Y-64650000D01*
X96430000Y-59910000D02*
X103530000Y-59910000D01*
X103530000Y-64650000D02*
X96430000Y-64650000D01*
X103530000Y-64650000D02*
X103530000Y-59910000D01*
%TO.C,Q19*%
X86270000Y-49750000D02*
X86270000Y-54490000D01*
X86270000Y-49750000D02*
X93370000Y-49750000D01*
X93370000Y-54490000D02*
X86270000Y-54490000D01*
X93370000Y-54490000D02*
X93370000Y-49750000D01*
%TO.C,Q1*%
X4990000Y-29430000D02*
X4990000Y-34170000D01*
X4990000Y-29430000D02*
X12090000Y-29430000D01*
X12090000Y-34170000D02*
X4990000Y-34170000D01*
X12090000Y-34170000D02*
X12090000Y-29430000D01*
%TO.C,Q12*%
X15150000Y-49750000D02*
X15150000Y-54490000D01*
X15150000Y-49750000D02*
X22250000Y-49750000D01*
X22250000Y-54490000D02*
X15150000Y-54490000D01*
X22250000Y-54490000D02*
X22250000Y-49750000D01*
%TO.C,R15*%
X98480000Y-20500000D02*
X101480000Y-20500000D01*
X101480000Y-28130000D01*
X98480000Y-28130000D01*
X98480000Y-20500000D01*
%TO.C,R23*%
X78160000Y-40820000D02*
X81160000Y-40820000D01*
X81160000Y-48450000D01*
X78160000Y-48450000D01*
X78160000Y-40820000D01*
%TO.C,TP1*%
X61800000Y-6000000D02*
G75*
G02*
X58200000Y-6000000I-1800000J0D01*
G01*
X58200000Y-6000000D02*
G75*
G02*
X61800000Y-6000000I1800000J0D01*
G01*
%TO.C,TP4*%
X82800000Y-6000000D02*
G75*
G02*
X79200000Y-6000000I-1800000J0D01*
G01*
X79200000Y-6000000D02*
G75*
G02*
X82800000Y-6000000I1800000J0D01*
G01*
%TO.C,TP2*%
X68800000Y-6000000D02*
G75*
G02*
X65200000Y-6000000I-1800000J0D01*
G01*
X65200000Y-6000000D02*
G75*
G02*
X68800000Y-6000000I1800000J0D01*
G01*
%TO.C,Q9*%
X86270000Y-29430000D02*
X86270000Y-34170000D01*
X86270000Y-29430000D02*
X93370000Y-29430000D01*
X93370000Y-34170000D02*
X86270000Y-34170000D01*
X93370000Y-34170000D02*
X93370000Y-29430000D01*
%TO.C,Q23*%
X96430000Y-54830000D02*
X96430000Y-59570000D01*
X96430000Y-54830000D02*
X103530000Y-54830000D01*
X103530000Y-59570000D02*
X96430000Y-59570000D01*
X103530000Y-59570000D02*
X103530000Y-54830000D01*
%TO.C,Q21*%
X86270000Y-59910000D02*
X86270000Y-64650000D01*
X86270000Y-59910000D02*
X93370000Y-59910000D01*
X93370000Y-64650000D02*
X86270000Y-64650000D01*
X93370000Y-64650000D02*
X93370000Y-59910000D01*
%TO.C,Q17*%
X65950000Y-49750000D02*
X65950000Y-54490000D01*
X65950000Y-49750000D02*
X73050000Y-49750000D01*
X73050000Y-54490000D02*
X65950000Y-54490000D01*
X73050000Y-54490000D02*
X73050000Y-49750000D01*
%TO.C,R3*%
X48500000Y-4500000D02*
X51500000Y-4500000D01*
X51500000Y-12130000D01*
X48500000Y-12130000D01*
X48500000Y-4500000D01*
%TO.C,R11*%
X57840000Y-20500000D02*
X60840000Y-20500000D01*
X60840000Y-28130000D01*
X57840000Y-28130000D01*
X57840000Y-20500000D01*
%TO.C,Q5*%
X45630000Y-29430000D02*
X45630000Y-34170000D01*
X45630000Y-29430000D02*
X52730000Y-29430000D01*
X52730000Y-34170000D02*
X45630000Y-34170000D01*
X52730000Y-34170000D02*
X52730000Y-29430000D01*
%TO.C,Q26*%
X15150000Y-75150000D02*
X15150000Y-79890000D01*
X15150000Y-75150000D02*
X22250000Y-75150000D01*
X22250000Y-79890000D02*
X15150000Y-79890000D01*
X22250000Y-79890000D02*
X22250000Y-75150000D01*
%TO.C,D1*%
X16280000Y-70590000D02*
X21120000Y-70590000D01*
X21120000Y-75010000D01*
X16280000Y-75010000D01*
X16280000Y-70590000D01*
%TO.C,J1*%
X10230000Y-6230000D02*
X13770000Y-6230000D01*
X13770000Y-12320000D01*
X10230000Y-12320000D01*
X10230000Y-6230000D01*
%TO.C,Q16*%
X55790000Y-49750000D02*
X55790000Y-54490000D01*
X55790000Y-49750000D02*
X62890000Y-49750000D01*
X62890000Y-54490000D02*
X55790000Y-54490000D01*
X62890000Y-54490000D02*
X62890000Y-49750000D01*
%TO.C,R24*%
X88320000Y-40820000D02*
X91320000Y-40820000D01*
X91320000Y-48450000D01*
X88320000Y-48450000D01*
X88320000Y-40820000D01*
%TO.C,R25*%
X98480000Y-40820000D02*
X101480000Y-40820000D01*
X101480000Y-48450000D01*
X98480000Y-48450000D01*
X98480000Y-40820000D01*
%TO.C,R22*%
X68000000Y-40820000D02*
X71000000Y-40820000D01*
X71000000Y-48450000D01*
X68000000Y-48450000D01*
X68000000Y-40820000D01*
%TO.C,Q14*%
X35470000Y-49750000D02*
X35470000Y-54490000D01*
X35470000Y-49750000D02*
X42570000Y-49750000D01*
X42570000Y-54490000D02*
X35470000Y-54490000D01*
X42570000Y-54490000D02*
X42570000Y-49750000D01*
%TO.C,Q15*%
X45630000Y-49750000D02*
X45630000Y-54490000D01*
X45630000Y-49750000D02*
X52730000Y-49750000D01*
X52730000Y-54490000D02*
X45630000Y-54490000D01*
X52730000Y-54490000D02*
X52730000Y-49750000D01*
%TO.C,R9*%
X37520000Y-20500000D02*
X40520000Y-20500000D01*
X40520000Y-28130000D01*
X37520000Y-28130000D01*
X37520000Y-20500000D01*
%TO.C,R2*%
X44500000Y-4500000D02*
X47500000Y-4500000D01*
X47500000Y-12130000D01*
X44500000Y-12130000D01*
X44500000Y-4500000D01*
%TO.C,Q8*%
X76110000Y-29430000D02*
X76110000Y-34170000D01*
X76110000Y-29430000D02*
X83210000Y-29430000D01*
X83210000Y-34170000D02*
X76110000Y-34170000D01*
X83210000Y-34170000D02*
X83210000Y-29430000D01*
%TO.C,R18*%
X27360000Y-40820000D02*
X30360000Y-40820000D01*
X30360000Y-48450000D01*
X27360000Y-48450000D01*
X27360000Y-40820000D01*
%TO.C,R10*%
X47680000Y-20500000D02*
X50680000Y-20500000D01*
X50680000Y-28130000D01*
X47680000Y-28130000D01*
X47680000Y-20500000D01*
%TO.C,Q7*%
X65950000Y-29430000D02*
X65950000Y-34170000D01*
X65950000Y-29430000D02*
X73050000Y-29430000D01*
X73050000Y-34170000D02*
X65950000Y-34170000D01*
X73050000Y-34170000D02*
X73050000Y-29430000D01*
%TO.C,Q18*%
X76110000Y-49750000D02*
X76110000Y-54490000D01*
X76110000Y-49750000D02*
X83210000Y-49750000D01*
X83210000Y-54490000D02*
X76110000Y-54490000D01*
X83210000Y-54490000D02*
X83210000Y-49750000D01*
%TO.C,R14*%
X88320000Y-20500000D02*
X91320000Y-20500000D01*
X91320000Y-28130000D01*
X88320000Y-28130000D01*
X88320000Y-20500000D01*
%TO.C,H1*%
X7450000Y-4000000D02*
G75*
G02*
X550000Y-4000000I-3450000J0D01*
G01*
X550000Y-4000000D02*
G75*
G02*
X7450000Y-4000000I3450000J0D01*
G01*
%TO.C,R4*%
X52500000Y-4500000D02*
X55500000Y-4500000D01*
X55500000Y-12130000D01*
X52500000Y-12130000D01*
X52500000Y-4500000D01*
%TO.C,C2*%
X28750000Y-7000000D02*
G75*
G02*
X23250000Y-7000000I-2750000J0D01*
G01*
X23250000Y-7000000D02*
G75*
G02*
X28750000Y-7000000I2750000J0D01*
G01*
%TO.C,Q20*%
X86270000Y-54830000D02*
X86270000Y-59570000D01*
X86270000Y-54830000D02*
X93370000Y-54830000D01*
X93370000Y-59570000D02*
X86270000Y-59570000D01*
X93370000Y-59570000D02*
X93370000Y-54830000D01*
%TO.C,R20*%
X47680000Y-40820000D02*
X50680000Y-40820000D01*
X50680000Y-48450000D01*
X47680000Y-48450000D01*
X47680000Y-40820000D01*
%TO.C,Q3*%
X25310000Y-29430000D02*
X25310000Y-34170000D01*
X25310000Y-29430000D02*
X32410000Y-29430000D01*
X32410000Y-34170000D02*
X25310000Y-34170000D01*
X32410000Y-34170000D02*
X32410000Y-29430000D01*
%TO.C,R21*%
X57840000Y-40820000D02*
X60840000Y-40820000D01*
X60840000Y-48450000D01*
X57840000Y-48450000D01*
X57840000Y-40820000D01*
%TO.C,Q2*%
X15150000Y-29430000D02*
X15150000Y-34170000D01*
X15150000Y-29430000D02*
X22250000Y-29430000D01*
X22250000Y-34170000D02*
X15150000Y-34170000D01*
X22250000Y-34170000D02*
X22250000Y-29430000D01*
%TO.C,Q13*%
X25310000Y-49750000D02*
X25310000Y-54490000D01*
X25310000Y-49750000D02*
X32410000Y-49750000D01*
X32410000Y-54490000D02*
X25310000Y-54490000D01*
X32410000Y-54490000D02*
X32410000Y-49750000D01*
%TO.C,Q6*%
X55790000Y-29430000D02*
X55790000Y-34170000D01*
X55790000Y-29430000D02*
X62890000Y-29430000D01*
X62890000Y-34170000D02*
X55790000Y-34170000D01*
X62890000Y-34170000D02*
X62890000Y-29430000D01*
%TO.C,Q22*%
X96430000Y-49750000D02*
X96430000Y-54490000D01*
X96430000Y-49750000D02*
X103530000Y-49750000D01*
X103530000Y-54490000D02*
X96430000Y-54490000D01*
X103530000Y-54490000D02*
X103530000Y-49750000D01*
%TO.C,J2*%
X32230000Y-4230000D02*
X35770000Y-4230000D01*
X35770000Y-15390000D01*
X32230000Y-15390000D01*
X32230000Y-4230000D01*
%TO.C,TP3*%
X75800000Y-6000000D02*
G75*
G02*
X72200000Y-6000000I-1800000J0D01*
G01*
X72200000Y-6000000D02*
G75*
G02*
X75800000Y-6000000I1800000J0D01*
G01*
%TO.C,R5*%
X98500000Y-4500000D02*
X101500000Y-4500000D01*
X101500000Y-12130000D01*
X98500000Y-12130000D01*
X98500000Y-4500000D01*
%TO.C,H2*%
X111450000Y-4000000D02*
G75*
G02*
X104550000Y-4000000I-3450000J0D01*
G01*
X104550000Y-4000000D02*
G75*
G02*
X111450000Y-4000000I3450000J0D01*
G01*
%TO.C,R12*%
X68000000Y-20500000D02*
X71000000Y-20500000D01*
X71000000Y-28130000D01*
X68000000Y-28130000D01*
X68000000Y-20500000D01*
%TO.C,R16*%
X7040000Y-40820000D02*
X10040000Y-40820000D01*
X10040000Y-48450000D01*
X7040000Y-48450000D01*
X7040000Y-40820000D01*
%TO.C,R19*%
X37520000Y-40820000D02*
X40520000Y-40820000D01*
X40520000Y-48450000D01*
X37520000Y-48450000D01*
X37520000Y-40820000D01*
%TO.C,R17*%
X17200000Y-40820000D02*
X20200000Y-40820000D01*
X20200000Y-48450000D01*
X17200000Y-48450000D01*
X17200000Y-40820000D01*
%TO.C,R26*%
X17200000Y-61140000D02*
X20200000Y-61140000D01*
X20200000Y-68770000D01*
X17200000Y-68770000D01*
X17200000Y-61140000D01*
%TO.C,TP5*%
X89800000Y-6000000D02*
G75*
G02*
X86200000Y-6000000I-1800000J0D01*
G01*
X86200000Y-6000000D02*
G75*
G02*
X89800000Y-6000000I1800000J0D01*
G01*
%TO.C,Q11*%
X4990000Y-49750000D02*
X4990000Y-54490000D01*
X4990000Y-49750000D02*
X12090000Y-49750000D01*
X12090000Y-54490000D02*
X4990000Y-54490000D01*
X12090000Y-54490000D02*
X12090000Y-49750000D01*
%TO.C,R7*%
X17200000Y-20500000D02*
X20200000Y-20500000D01*
X20200000Y-28130000D01*
X17200000Y-28130000D01*
X17200000Y-20500000D01*
%TO.C,Q10*%
X96430000Y-29430000D02*
X96430000Y-34170000D01*
X96430000Y-29430000D02*
X103530000Y-29430000D01*
X103530000Y-34170000D02*
X96430000Y-34170000D01*
X103530000Y-34170000D02*
X103530000Y-29430000D01*
%TO.C,Q25*%
X4990000Y-62450000D02*
X4990000Y-67190000D01*
X4990000Y-62450000D02*
X12090000Y-62450000D01*
X12090000Y-67190000D02*
X4990000Y-67190000D01*
X12090000Y-67190000D02*
X12090000Y-62450000D01*
%TO.C,R6*%
X7040000Y-20500000D02*
X10040000Y-20500000D01*
X10040000Y-28130000D01*
X7040000Y-28130000D01*
X7040000Y-20500000D01*
%TO.C,R13*%
X78160000Y-20500000D02*
X81160000Y-20500000D01*
X81160000Y-28130000D01*
X78160000Y-28130000D01*
X78160000Y-20500000D01*
%TO.C,R8*%
X27360000Y-20500000D02*
X30360000Y-20500000D01*
X30360000Y-28130000D01*
X27360000Y-28130000D01*
X27360000Y-20500000D01*
%TO.C,C1*%
X16500000Y-4500000D02*
X19500000Y-4500000D01*
X19500000Y-10000000D01*
X16500000Y-10000000D01*
X16500000Y-4500000D01*
%TD*%
M02*
