M48
; DRILL file KiCad 10.0.5 date 2026-09-09T10:34:45
; FORMAT={-:-/ absolute / metric / decimal}
; #@! TF.CreationDate,2026-09-09T10:34:45-04:00
; #@! TF.GenerationSoftware,Kicad,Pcbnew,10.0.5
; #@! TF.FileFunction,MixedPlating,1,2
FMAT,2
METRIC
; #@! TA.AperFunction,Plated,PTH,ViaDrill
T1C0.400
; #@! TA.AperFunction,Plated,PTH,ComponentDrill
T2C0.800
; #@! TA.AperFunction,Plated,PTH,ComponentDrill
T3C0.900
; #@! TA.AperFunction,Plated,PTH,ComponentDrill
T4C1.000
; #@! TA.AperFunction,Plated,PTH,ComponentDrill
T5C3.200
%
G90
G05
T1
X38.971Y-16.397
X50.702Y-40.867
T2
X6.0Y-28.16
X6.0Y-48.48
X6.0Y-61.18
X8.54Y-18.0
X8.54Y-23.08
X8.54Y-28.16
X8.54Y-38.32
X8.54Y-43.4
X8.54Y-48.48
X8.54Y-61.18
X11.08Y-28.16
X11.08Y-48.48
X11.08Y-61.18
X16.16Y-28.16
X16.16Y-48.48
X16.16Y-73.88
X18.0Y-6.0
X18.0Y-8.5
X18.7Y-18.0
X18.7Y-23.08
X18.7Y-28.16
X18.7Y-38.32
X18.7Y-43.4
X18.7Y-48.48
X18.7Y-58.64
X18.7Y-63.72
X18.7Y-73.88
X21.24Y-28.16
X21.24Y-48.48
X21.24Y-73.88
X26.0Y-6.0
X26.0Y-8.0
X26.32Y-28.16
X26.32Y-48.48
X28.86Y-18.0
X28.86Y-23.08
X28.86Y-28.16
X28.86Y-38.32
X28.86Y-43.4
X28.86Y-48.48
X31.4Y-28.16
X31.4Y-48.48
X36.48Y-28.16
X36.48Y-48.48
X39.02Y-18.0
X39.02Y-23.08
X39.02Y-28.16
X39.02Y-38.32
X39.02Y-43.4
X39.02Y-48.48
X41.56Y-28.16
X41.56Y-48.48
X42.0Y-6.0
X42.0Y-11.08
X46.0Y-6.0
X46.0Y-11.08
X46.64Y-28.16
X46.64Y-48.48
X49.18Y-18.0
X49.18Y-23.08
X49.18Y-28.16
X49.18Y-38.32
X49.18Y-43.4
X49.18Y-48.48
X50.0Y-6.0
X50.0Y-11.08
X51.72Y-28.16
X51.72Y-48.48
X54.0Y-6.0
X54.0Y-11.08
X56.8Y-28.16
X56.8Y-48.48
X59.34Y-18.0
X59.34Y-23.08
X59.34Y-28.16
X59.34Y-38.32
X59.34Y-43.4
X59.34Y-48.48
X61.88Y-28.16
X61.88Y-48.48
X66.96Y-28.16
X66.96Y-48.48
X69.5Y-18.0
X69.5Y-23.08
X69.5Y-28.16
X69.5Y-38.32
X69.5Y-43.4
X69.5Y-48.48
X72.04Y-28.16
X72.04Y-48.48
X77.12Y-28.16
X77.12Y-48.48
X79.66Y-18.0
X79.66Y-23.08
X79.66Y-28.16
X79.66Y-38.32
X79.66Y-43.4
X79.66Y-48.48
X82.2Y-28.16
X82.2Y-48.48
X87.28Y-28.16
X87.28Y-48.48
X87.28Y-53.56
X87.28Y-58.64
X89.82Y-18.0
X89.82Y-23.08
X89.82Y-28.16
X89.82Y-38.32
X89.82Y-43.4
X89.82Y-48.48
X89.82Y-53.56
X89.82Y-58.64
X92.36Y-28.16
X92.36Y-48.48
X92.36Y-53.56
X92.36Y-58.64
X97.44Y-28.16
X97.44Y-48.48
X97.44Y-53.56
X97.44Y-58.64
X99.98Y-18.0
X99.98Y-23.08
X99.98Y-28.16
X99.98Y-38.32
X99.98Y-43.4
X99.98Y-48.48
X99.98Y-53.56
X99.98Y-58.64
X100.0Y-6.0
X100.0Y-11.08
X102.52Y-28.16
X102.52Y-48.48
X102.52Y-53.56
X102.52Y-58.64
T3
X17.43Y-68.8
X19.97Y-68.8
T4
X12.0Y-8.0
X12.0Y-10.54
X34.0Y-6.0
X34.0Y-8.54
X34.0Y-11.08
X34.0Y-13.62
X60.0Y-6.0
X67.0Y-6.0
X74.0Y-6.0
X81.0Y-6.0
X88.0Y-6.0
X95.0Y-6.0
T5
X4.0Y-4.0
X108.0Y-4.0
M30
