%TF.GenerationSoftware,KiCad,Pcbnew,10.0.5*%
%TF.CreationDate,2026-09-09T10:34:45-04:00*%
%TF.ProjectId,coupon,636f7570-6f6e-42e6-9b69-6361645f7063,rev?*%
%TF.SameCoordinates,Original*%
%TF.FileFunction,Copper,L1,Top*%
%TF.FilePolarity,Positive*%
%FSLAX46Y46*%
G04 Gerber Fmt 4.6, Leading zero omitted, Abs format (unit mm)*
G04 Created by KiCad (PCBNEW 10.0.5) date 2026-09-09 10:34:45*
%MOMM*%
%LPD*%
G01*
G04 APERTURE LIST*
G04 Aperture macros list*
%AMRoundRect*
0 Rectangle with rounded corners*
0 $1 Rounding radius*
0 $2 $3 $4 $5 $6 $7 $8 $9 X,Y pos of 4 corners*
0 Add a 4 corners polygon primitive as box body*
4,1,4,$2,$3,$4,$5,$6,$7,$8,$9,$2,$3,0*
0 Add four circle primitives for the rounded corners*
1,1,$1+$1,$2,$3*
1,1,$1+$1,$4,$5*
1,1,$1+$1,$6,$7*
1,1,$1+$1,$8,$9*
0 Add four rect primitives between the rounded corners*
20,1,$1+$1,$2,$3,$4,$5,0*
20,1,$1+$1,$4,$5,$6,$7,0*
20,1,$1+$1,$6,$7,$8,$9,0*
20,1,$1+$1,$8,$9,$2,$3,0*%
G04 Aperture macros list end*
%TA.AperFunction,ComponentPad*%
%ADD10R,1.500000X1.500000*%
%TD*%
%TA.AperFunction,ComponentPad*%
%ADD11C,1.500000*%
%TD*%
%TA.AperFunction,ComponentPad*%
%ADD12C,1.600000*%
%TD*%
%TA.AperFunction,ComponentPad*%
%ADD13C,2.000000*%
%TD*%
%TA.AperFunction,ComponentPad*%
%ADD14R,1.700000X1.700000*%
%TD*%
%TA.AperFunction,ComponentPad*%
%ADD15C,1.700000*%
%TD*%
%TA.AperFunction,ComponentPad*%
%ADD16C,6.400000*%
%TD*%
%TA.AperFunction,ComponentPad*%
%ADD17R,1.800000X1.800000*%
%TD*%
%TA.AperFunction,ComponentPad*%
%ADD18C,1.800000*%
%TD*%
%TA.AperFunction,ComponentPad*%
%ADD19RoundRect,0.250000X-0.550000X0.550000X-0.550000X-0.550000X0.550000X-0.550000X0.550000X0.550000X0*%
%TD*%
%TA.AperFunction,ViaPad*%
%ADD20C,0.800000*%
%TD*%
%TA.AperFunction,Conductor*%
%ADD21C,0.300000*%
%TD*%
G04 APERTURE END LIST*
D10*
%TO.P,Q9,1*%
%TO.N,GND*%
X87280000Y-28160000D03*
D11*
%TO.P,Q9,2*%
%TO.N,TP_FO10*%
X89820000Y-28160000D03*
%TO.P,Q9,3*%
%TO.N,LOAD0*%
X92360000Y-28160000D03*
%TD*%
D10*
%TO.P,Q16,1*%
%TO.N,GND*%
X56800000Y-48480000D03*
D11*
%TO.P,Q16,2*%
%TO.N,TP_FO10*%
X59340000Y-48480000D03*
%TO.P,Q16,3*%
%TO.N,LOAD7*%
X61880000Y-48480000D03*
%TD*%
D10*
%TO.P,Q8,1*%
%TO.N,GND*%
X77120000Y-28160000D03*
D11*
%TO.P,Q8,2*%
%TO.N,TP_FO1*%
X79660000Y-28160000D03*
%TO.P,Q8,3*%
%TO.N,TP_FO10*%
X82200000Y-28160000D03*
%TD*%
D10*
%TO.P,Q21,1*%
%TO.N,GND*%
X87280000Y-58640000D03*
D11*
%TO.P,Q21,2*%
%TO.N,N3*%
X89820000Y-58640000D03*
%TO.P,Q21,3*%
%TO.N,Net-(Q20-S)*%
X92360000Y-58640000D03*
%TD*%
D10*
%TO.P,Q19,1*%
%TO.N,Net-(Q19-S)*%
X87280000Y-48480000D03*
D11*
%TO.P,Q19,2*%
%TO.N,N1*%
X89820000Y-48480000D03*
%TO.P,Q19,3*%
%TO.N,TP_NAND*%
X92360000Y-48480000D03*
%TD*%
D10*
%TO.P,Q10,1*%
%TO.N,GND*%
X97440000Y-28160000D03*
D11*
%TO.P,Q10,2*%
%TO.N,TP_FO10*%
X99980000Y-28160000D03*
%TO.P,Q10,3*%
%TO.N,LOAD1*%
X102520000Y-28160000D03*
%TD*%
D10*
%TO.P,Q6,1*%
%TO.N,GND*%
X56800000Y-28160000D03*
D11*
%TO.P,Q6,2*%
%TO.N,RING0*%
X59340000Y-28160000D03*
%TO.P,Q6,3*%
%TO.N,TP_RING*%
X61880000Y-28160000D03*
%TD*%
D10*
%TO.P,Q7,1*%
%TO.N,GND*%
X66960000Y-28160000D03*
D11*
%TO.P,Q7,2*%
%TO.N,IN*%
X69500000Y-28160000D03*
%TO.P,Q7,3*%
%TO.N,TP_FO1*%
X72040000Y-28160000D03*
%TD*%
D10*
%TO.P,Q5,1*%
%TO.N,GND*%
X46640000Y-28160000D03*
D11*
%TO.P,Q5,2*%
%TO.N,RING4*%
X49180000Y-28160000D03*
%TO.P,Q5,3*%
%TO.N,RING0*%
X51720000Y-28160000D03*
%TD*%
D12*
%TO.P,R17,1*%
%TO.N,+5V*%
X18700000Y-38320000D03*
%TO.P,R17,2*%
%TO.N,LOAD3*%
X18700000Y-43400000D03*
%TD*%
%TO.P,R13,1*%
%TO.N,+5V*%
X79660000Y-18000000D03*
%TO.P,R13,2*%
%TO.N,TP_FO10*%
X79660000Y-23080000D03*
%TD*%
D10*
%TO.P,Q3,1*%
%TO.N,GND*%
X26320000Y-28160000D03*
D11*
%TO.P,Q3,2*%
%TO.N,RING2*%
X28860000Y-28160000D03*
%TO.P,Q3,3*%
%TO.N,RING3*%
X31400000Y-28160000D03*
%TD*%
D13*
%TO.P,TP2,1*%
%TO.N,TP_FO1*%
X67000000Y-6000000D03*
%TD*%
D10*
%TO.P,Q25,1*%
%TO.N,GND*%
X6000000Y-61180000D03*
D11*
%TO.P,Q25,2*%
%TO.N,IN*%
X8540000Y-61180000D03*
%TO.P,Q25,3*%
%TO.N,TP_BUS*%
X11080000Y-61180000D03*
%TD*%
D14*
%TO.P,J2,1*%
%TO.N,IN*%
X34000000Y-6000000D03*
D15*
%TO.P,J2,2*%
%TO.N,N1*%
X34000000Y-8540000D03*
%TO.P,J2,3*%
%TO.N,N2*%
X34000000Y-11080000D03*
%TO.P,J2,4*%
%TO.N,N3*%
X34000000Y-13620000D03*
%TD*%
D10*
%TO.P,Q20,1*%
%TO.N,Net-(Q20-S)*%
X87280000Y-53560000D03*
D11*
%TO.P,Q20,2*%
%TO.N,N2*%
X89820000Y-53560000D03*
%TO.P,Q20,3*%
%TO.N,Net-(Q19-S)*%
X92360000Y-53560000D03*
%TD*%
D10*
%TO.P,Q14,1*%
%TO.N,GND*%
X36480000Y-48480000D03*
D11*
%TO.P,Q14,2*%
%TO.N,TP_FO10*%
X39020000Y-48480000D03*
%TO.P,Q14,3*%
%TO.N,LOAD5*%
X41560000Y-48480000D03*
%TD*%
D10*
%TO.P,Q26,1*%
%TO.N,GND*%
X16160000Y-73880000D03*
D11*
%TO.P,Q26,2*%
%TO.N,IN*%
X18700000Y-73880000D03*
%TO.P,Q26,3*%
%TO.N,Net-(D1-K)*%
X21240000Y-73880000D03*
%TD*%
D10*
%TO.P,Q4,1*%
%TO.N,GND*%
X36480000Y-28160000D03*
D11*
%TO.P,Q4,2*%
%TO.N,RING3*%
X39020000Y-28160000D03*
%TO.P,Q4,3*%
%TO.N,RING4*%
X41560000Y-28160000D03*
%TD*%
D12*
%TO.P,R21,1*%
%TO.N,+5V*%
X59340000Y-38320000D03*
%TO.P,R21,2*%
%TO.N,LOAD7*%
X59340000Y-43400000D03*
%TD*%
D16*
%TO.P,H1,1*%
%TO.N,N/C*%
X4000000Y-4000000D03*
%TD*%
D12*
%TO.P,R9,1*%
%TO.N,+5V*%
X39020000Y-18000000D03*
%TO.P,R9,2*%
%TO.N,RING4*%
X39020000Y-23080000D03*
%TD*%
D10*
%TO.P,Q13,1*%
%TO.N,GND*%
X26320000Y-48480000D03*
D11*
%TO.P,Q13,2*%
%TO.N,TP_FO10*%
X28860000Y-48480000D03*
%TO.P,Q13,3*%
%TO.N,LOAD4*%
X31400000Y-48480000D03*
%TD*%
D12*
%TO.P,R14,1*%
%TO.N,+5V*%
X89820000Y-18000000D03*
%TO.P,R14,2*%
%TO.N,LOAD0*%
X89820000Y-23080000D03*
%TD*%
%TO.P,R18,1*%
%TO.N,+5V*%
X28860000Y-38320000D03*
%TO.P,R18,2*%
%TO.N,LOAD4*%
X28860000Y-43400000D03*
%TD*%
%TO.P,R2,1*%
%TO.N,N1*%
X46000000Y-6000000D03*
%TO.P,R2,2*%
%TO.N,GND*%
X46000000Y-11080000D03*
%TD*%
%TO.P,R15,1*%
%TO.N,+5V*%
X99980000Y-18000000D03*
%TO.P,R15,2*%
%TO.N,LOAD1*%
X99980000Y-23080000D03*
%TD*%
D10*
%TO.P,Q12,1*%
%TO.N,GND*%
X16160000Y-48480000D03*
D11*
%TO.P,Q12,2*%
%TO.N,TP_FO10*%
X18700000Y-48480000D03*
%TO.P,Q12,3*%
%TO.N,LOAD3*%
X21240000Y-48480000D03*
%TD*%
D13*
%TO.P,TP6,1*%
%TO.N,TP_BUS*%
X95000000Y-6000000D03*
%TD*%
D12*
%TO.P,R10,1*%
%TO.N,+5V*%
X49180000Y-18000000D03*
%TO.P,R10,2*%
%TO.N,RING0*%
X49180000Y-23080000D03*
%TD*%
D10*
%TO.P,Q23,1*%
%TO.N,GND*%
X97440000Y-53560000D03*
D11*
%TO.P,Q23,2*%
%TO.N,N2*%
X99980000Y-53560000D03*
%TO.P,Q23,3*%
%TO.N,TP_NOR*%
X102520000Y-53560000D03*
%TD*%
D10*
%TO.P,Q1,1*%
%TO.N,GND*%
X6000000Y-28160000D03*
D11*
%TO.P,Q1,2*%
%TO.N,RING0*%
X8540000Y-28160000D03*
%TO.P,Q1,3*%
%TO.N,RING1*%
X11080000Y-28160000D03*
%TD*%
D10*
%TO.P,Q2,1*%
%TO.N,GND*%
X16160000Y-28160000D03*
D11*
%TO.P,Q2,2*%
%TO.N,RING1*%
X18700000Y-28160000D03*
%TO.P,Q2,3*%
%TO.N,RING2*%
X21240000Y-28160000D03*
%TD*%
D12*
%TO.P,R20,1*%
%TO.N,+5V*%
X49180000Y-38320000D03*
%TO.P,R20,2*%
%TO.N,LOAD6*%
X49180000Y-43400000D03*
%TD*%
D10*
%TO.P,Q24,1*%
%TO.N,GND*%
X97440000Y-58640000D03*
D11*
%TO.P,Q24,2*%
%TO.N,N3*%
X99980000Y-58640000D03*
%TO.P,Q24,3*%
%TO.N,TP_NOR*%
X102520000Y-58640000D03*
%TD*%
D12*
%TO.P,R25,1*%
%TO.N,+5V*%
X99980000Y-38320000D03*
%TO.P,R25,2*%
%TO.N,TP_NOR*%
X99980000Y-43400000D03*
%TD*%
D13*
%TO.P,TP1,1*%
%TO.N,TP_RING*%
X60000000Y-6000000D03*
%TD*%
D12*
%TO.P,R24,1*%
%TO.N,+5V*%
X89820000Y-38320000D03*
%TO.P,R24,2*%
%TO.N,TP_NAND*%
X89820000Y-43400000D03*
%TD*%
%TO.P,R22,1*%
%TO.N,+5V*%
X69500000Y-38320000D03*
%TO.P,R22,2*%
%TO.N,LOAD8*%
X69500000Y-43400000D03*
%TD*%
D10*
%TO.P,Q22,1*%
%TO.N,GND*%
X97440000Y-48480000D03*
D11*
%TO.P,Q22,2*%
%TO.N,N1*%
X99980000Y-48480000D03*
%TO.P,Q22,3*%
%TO.N,TP_NOR*%
X102520000Y-48480000D03*
%TD*%
D12*
%TO.P,R6,1*%
%TO.N,+5V*%
X8540000Y-18000000D03*
%TO.P,R6,2*%
%TO.N,RING1*%
X8540000Y-23080000D03*
%TD*%
D17*
%TO.P,D1,1*%
%TO.N,Net-(D1-K)*%
X17430000Y-68800000D03*
D18*
%TO.P,D1,2*%
%TO.N,Net-(D1-A)*%
X19970000Y-68800000D03*
%TD*%
D12*
%TO.P,R19,1*%
%TO.N,+5V*%
X39020000Y-38320000D03*
%TO.P,R19,2*%
%TO.N,LOAD5*%
X39020000Y-43400000D03*
%TD*%
D13*
%TO.P,TP4,1*%
%TO.N,TP_NAND*%
X81000000Y-6000000D03*
%TD*%
D12*
%TO.P,R12,1*%
%TO.N,+5V*%
X69500000Y-18000000D03*
%TO.P,R12,2*%
%TO.N,TP_FO1*%
X69500000Y-23080000D03*
%TD*%
D10*
%TO.P,Q18,1*%
%TO.N,GND*%
X77120000Y-48480000D03*
D11*
%TO.P,Q18,2*%
%TO.N,TP_FO10*%
X79660000Y-48480000D03*
%TO.P,Q18,3*%
%TO.N,LOAD9*%
X82200000Y-48480000D03*
%TD*%
D13*
%TO.P,TP3,1*%
%TO.N,TP_FO10*%
X74000000Y-6000000D03*
%TD*%
D14*
%TO.P,J1,1*%
%TO.N,+5V*%
X12000000Y-8000000D03*
D15*
%TO.P,J1,2*%
%TO.N,GND*%
X12000000Y-10540000D03*
%TD*%
D19*
%TO.P,C2,1*%
%TO.N,+5V*%
X26000000Y-6000000D03*
D12*
%TO.P,C2,2*%
%TO.N,GND*%
X26000000Y-8000000D03*
%TD*%
D16*
%TO.P,H2,1*%
%TO.N,N/C*%
X108000000Y-4000000D03*
%TD*%
D12*
%TO.P,R16,1*%
%TO.N,+5V*%
X8540000Y-38320000D03*
%TO.P,R16,2*%
%TO.N,LOAD2*%
X8540000Y-43400000D03*
%TD*%
%TO.P,R23,1*%
%TO.N,+5V*%
X79660000Y-38320000D03*
%TO.P,R23,2*%
%TO.N,LOAD9*%
X79660000Y-43400000D03*
%TD*%
%TO.P,R7,1*%
%TO.N,+5V*%
X18700000Y-18000000D03*
%TO.P,R7,2*%
%TO.N,RING2*%
X18700000Y-23080000D03*
%TD*%
%TO.P,R4,1*%
%TO.N,N3*%
X54000000Y-6000000D03*
%TO.P,R4,2*%
%TO.N,GND*%
X54000000Y-11080000D03*
%TD*%
%TO.P,C1,1*%
%TO.N,+5V*%
X18000000Y-6000000D03*
%TO.P,C1,2*%
%TO.N,GND*%
X18000000Y-8500000D03*
%TD*%
%TO.P,R5,1*%
%TO.N,+5V*%
X100000000Y-6000000D03*
%TO.P,R5,2*%
%TO.N,TP_BUS*%
X100000000Y-11080000D03*
%TD*%
%TO.P,R26,1*%
%TO.N,+5V*%
X18700000Y-58640000D03*
%TO.P,R26,2*%
%TO.N,Net-(D1-A)*%
X18700000Y-63720000D03*
%TD*%
D10*
%TO.P,Q15,1*%
%TO.N,GND*%
X46640000Y-48480000D03*
D11*
%TO.P,Q15,2*%
%TO.N,TP_FO10*%
X49180000Y-48480000D03*
%TO.P,Q15,3*%
%TO.N,LOAD6*%
X51720000Y-48480000D03*
%TD*%
D12*
%TO.P,R8,1*%
%TO.N,+5V*%
X28860000Y-18000000D03*
%TO.P,R8,2*%
%TO.N,RING3*%
X28860000Y-23080000D03*
%TD*%
D13*
%TO.P,TP5,1*%
%TO.N,TP_NOR*%
X88000000Y-6000000D03*
%TD*%
D12*
%TO.P,R11,1*%
%TO.N,+5V*%
X59340000Y-18000000D03*
%TO.P,R11,2*%
%TO.N,TP_RING*%
X59340000Y-23080000D03*
%TD*%
%TO.P,R3,1*%
%TO.N,N2*%
X50000000Y-6000000D03*
%TO.P,R3,2*%
%TO.N,GND*%
X50000000Y-11080000D03*
%TD*%
D10*
%TO.P,Q11,1*%
%TO.N,GND*%
X6000000Y-48480000D03*
D11*
%TO.P,Q11,2*%
%TO.N,TP_FO10*%
X8540000Y-48480000D03*
%TO.P,Q11,3*%
%TO.N,LOAD2*%
X11080000Y-48480000D03*
%TD*%
D10*
%TO.P,Q17,1*%
%TO.N,GND*%
X66960000Y-48480000D03*
D11*
%TO.P,Q17,2*%
%TO.N,TP_FO10*%
X69500000Y-48480000D03*
%TO.P,Q17,3*%
%TO.N,LOAD8*%
X72040000Y-48480000D03*
%TD*%
D12*
%TO.P,R1,1*%
%TO.N,IN*%
X42000000Y-6000000D03*
%TO.P,R1,2*%
%TO.N,GND*%
X42000000Y-11080000D03*
%TD*%
D20*
%TO.N,N1*%
X50702200Y-40867200D03*
%TO.N,TP_BUS*%
X38970700Y-16396700D03*
%TD*%
%TO.N,+5V*%
D21*
X19262200Y-7262200D02*
X19262200Y-17437800D01*
X17523700Y-57463700D02*
X17523700Y-47964400D01*
X39020000Y-18000000D02*
X37806600Y-19213400D01*
X37806600Y-19213400D02*
X37806600Y-37106600D01*
X21691900Y-49675300D02*
X24980200Y-46387000D01*
X100000000Y-6000000D02*
X101244600Y-7244600D01*
X19262200Y-17437800D02*
X18700000Y-18000000D01*
X101244600Y-7244600D02*
X101244600Y-16735400D01*
X24980200Y-46387000D02*
X24980200Y-42199800D01*
X7325200Y-37105200D02*
X8540000Y-38320000D01*
X20088300Y-48211300D02*
X20088300Y-48960700D01*
X8540000Y-18000000D02*
X7325200Y-19214800D01*
X17523700Y-47964400D02*
X18159800Y-47328300D01*
X37806600Y-37106600D02*
X39020000Y-38320000D01*
X18700000Y-58640000D02*
X17523700Y-57463700D01*
X24980200Y-42199800D02*
X28860000Y-38320000D01*
X20802900Y-49675300D02*
X21691900Y-49675300D01*
X18000000Y-6000000D02*
X19262200Y-7262200D01*
X20088300Y-48960700D02*
X20802900Y-49675300D01*
X7325200Y-19214800D02*
X7325200Y-37105200D01*
X18159800Y-47328300D02*
X19205300Y-47328300D01*
X19205300Y-47328300D02*
X20088300Y-48211300D01*
X101244600Y-16735400D02*
X99980000Y-18000000D01*
%TO.N,GND*%
X18000000Y-8500000D02*
X16160000Y-10340000D01*
X16160000Y-73880000D02*
X16160000Y-72728300D01*
X46000000Y-26368300D02*
X46640000Y-27008300D01*
X6000000Y-61180000D02*
X6000000Y-48480000D01*
X16160000Y-10340000D02*
X16160000Y-28160000D01*
X97440000Y-58640000D02*
X97440000Y-53560000D01*
X6000000Y-62568300D02*
X6000000Y-61180000D01*
X66960000Y-48480000D02*
X66960000Y-28160000D01*
X16160000Y-72728300D02*
X6000000Y-62568300D01*
X36480000Y-28160000D02*
X36480000Y-48480000D01*
X46640000Y-28160000D02*
X46640000Y-27008300D01*
X46000000Y-11080000D02*
X46000000Y-26368300D01*
X97440000Y-48480000D02*
X97440000Y-53560000D01*
%TO.N,IN*%
X34000000Y-7251700D02*
X33452400Y-7251700D01*
X27200200Y-13503900D02*
X27200200Y-24037100D01*
X12389500Y-57330500D02*
X8540000Y-61180000D01*
X27200200Y-24037100D02*
X12389500Y-38847800D01*
X12389500Y-38847800D02*
X12389500Y-57330500D01*
X34000000Y-6000000D02*
X34000000Y-7251700D01*
X33452400Y-7251700D02*
X27200200Y-13503900D01*
X18700000Y-73880000D02*
X8540000Y-63720000D01*
X8540000Y-63720000D02*
X8540000Y-61180000D01*
%TO.N,LOAD0*%
X89820000Y-23080000D02*
X92360000Y-25620000D01*
X92360000Y-25620000D02*
X92360000Y-28160000D01*
%TO.N,LOAD1*%
X102520000Y-25620000D02*
X102520000Y-28160000D01*
X99980000Y-23080000D02*
X102520000Y-25620000D01*
%TO.N,LOAD2*%
X11080000Y-45940000D02*
X8540000Y-43400000D01*
X11080000Y-48480000D02*
X11080000Y-45940000D01*
%TO.N,LOAD3*%
X21240000Y-48480000D02*
X21240000Y-45940000D01*
X21240000Y-45940000D02*
X18700000Y-43400000D01*
%TO.N,LOAD4*%
X31400000Y-45940000D02*
X31400000Y-48480000D01*
X28860000Y-43400000D02*
X31400000Y-45940000D01*
%TO.N,LOAD5*%
X41560000Y-48480000D02*
X41560000Y-45940000D01*
X41560000Y-45940000D02*
X39020000Y-43400000D01*
%TO.N,LOAD6*%
X51720000Y-48480000D02*
X51720000Y-45940000D01*
X51720000Y-45940000D02*
X49180000Y-43400000D01*
%TO.N,LOAD7*%
X61880000Y-45940000D02*
X59340000Y-43400000D01*
X61880000Y-48480000D02*
X61880000Y-45940000D01*
%TO.N,LOAD8*%
X69500000Y-43400000D02*
X72040000Y-45940000D01*
X72040000Y-45940000D02*
X72040000Y-48480000D01*
%TO.N,LOAD9*%
X79660000Y-43400000D02*
X82200000Y-45940000D01*
X82200000Y-45940000D02*
X82200000Y-48480000D01*
%TO.N,N1*%
X47265000Y-24550600D02*
X50386800Y-27672400D01*
X46000000Y-6000000D02*
X47265000Y-7265000D01*
X50386800Y-27672400D02*
X50386800Y-40551800D01*
X50386800Y-40551800D02*
X50702200Y-40867200D01*
X47265000Y-7265000D02*
X47265000Y-24550600D01*
%TO.N,N2*%
X89820000Y-53560000D02*
X87475600Y-51215600D01*
X78282600Y-47491500D02*
X70770000Y-39978900D01*
X78282600Y-48777800D02*
X78282600Y-47491500D01*
X87475600Y-51215600D02*
X80720400Y-51215600D01*
X60859900Y-4032100D02*
X51967900Y-4032100D01*
X65599800Y-22538300D02*
X65599800Y-8772000D01*
X80720400Y-51215600D02*
X78282600Y-48777800D01*
X70770000Y-39978900D02*
X70770000Y-27708500D01*
X51967900Y-4032100D02*
X50000000Y-6000000D01*
X65599800Y-8772000D02*
X60859900Y-4032100D01*
X70770000Y-27708500D02*
X65599800Y-22538300D01*
%TO.N,N3*%
X60633800Y-4586300D02*
X63108900Y-7061400D01*
X54000000Y-6000000D02*
X55413700Y-4586300D01*
X63108900Y-7061400D02*
X63108900Y-46721100D01*
X72682100Y-56294300D02*
X87474300Y-56294300D01*
X63108900Y-46721100D02*
X72682100Y-56294300D01*
X55413700Y-4586300D02*
X60633800Y-4586300D01*
X87474300Y-56294300D02*
X89820000Y-58640000D01*
%TO.N,Net-(D1-A)*%
X18700000Y-63720000D02*
X19970000Y-64990000D01*
X19970000Y-64990000D02*
X19970000Y-68800000D01*
%TO.N,Net-(D1-K)*%
X17430000Y-68800000D02*
X17430000Y-70101700D01*
X17430000Y-70101700D02*
X17461700Y-70101700D01*
X17461700Y-70101700D02*
X21240000Y-73880000D01*
%TO.N,Net-(Q19-S)*%
X92360000Y-53560000D02*
X88431700Y-49631700D01*
X87280000Y-48480000D02*
X88431700Y-48480000D01*
X88431700Y-49631700D02*
X88431700Y-48480000D01*
%TO.N,Net-(Q20-S)*%
X88431700Y-54711700D02*
X88431700Y-53560000D01*
X92360000Y-58640000D02*
X88431700Y-54711700D01*
X87280000Y-53560000D02*
X88431700Y-53560000D01*
%TO.N,RING0*%
X49180100Y-23080000D02*
X49180000Y-23080000D01*
X49180100Y-25620100D02*
X49180100Y-23080000D01*
X51720000Y-28160000D02*
X49180100Y-25620100D01*
%TO.N,RING1*%
X11080000Y-25620000D02*
X8540000Y-23080000D01*
X11080000Y-28160000D02*
X11080000Y-25620000D01*
%TO.N,RING2*%
X21240000Y-25620000D02*
X21240000Y-28160000D01*
X18700000Y-23080000D02*
X21240000Y-25620000D01*
%TO.N,RING3*%
X31400000Y-25620000D02*
X28860000Y-23080000D01*
X31400000Y-28160000D02*
X31400000Y-25620000D01*
%TO.N,RING4*%
X39020000Y-23080000D02*
X41560000Y-25620000D01*
X41560000Y-25620000D02*
X41560000Y-28160000D01*
%TO.N,TP_BUS*%
X36535000Y-18705400D02*
X38843700Y-16396700D01*
X23218500Y-37119800D02*
X24089200Y-37119800D01*
X14848900Y-57411100D02*
X14848900Y-45489400D01*
X24089200Y-37119800D02*
X36535000Y-24674000D01*
X95000000Y-6000000D02*
X95000000Y-6080000D01*
X95000000Y-6080000D02*
X100000000Y-11080000D01*
X14848900Y-45489400D02*
X23218500Y-37119800D01*
X36535000Y-24674000D02*
X36535000Y-18705400D01*
X38843700Y-16396700D02*
X38970700Y-16396700D01*
X11080000Y-61180000D02*
X14848900Y-57411100D01*
%TO.N,TP_FO1*%
X72040000Y-25620000D02*
X72040000Y-28160000D01*
X69500000Y-23080000D02*
X72040000Y-25620000D01*
X69500000Y-23080000D02*
X67000000Y-20580000D01*
X67000000Y-20580000D02*
X67000000Y-6000000D01*
%TO.N,TP_FO10*%
X20447000Y-50227000D02*
X27113000Y-50227000D01*
X79660000Y-48480000D02*
X79660000Y-47699900D01*
X78443900Y-46483800D02*
X78443900Y-31916100D01*
X79660000Y-47699900D02*
X78443900Y-46483800D01*
X74000000Y-6000000D02*
X74000000Y-17420000D01*
X79660000Y-23080000D02*
X82200000Y-25620000D01*
X18700000Y-48480000D02*
X20447000Y-50227000D01*
X74000000Y-17420000D02*
X79660000Y-23080000D01*
X82200000Y-25620000D02*
X82200000Y-28160000D01*
X27113000Y-50227000D02*
X28860000Y-48480000D01*
X78443900Y-31916100D02*
X82200000Y-28160000D01*
%TO.N,TP_NAND*%
X92360000Y-48480000D02*
X92360000Y-45940000D01*
X86035000Y-11035000D02*
X86035000Y-39615000D01*
X92360000Y-45940000D02*
X89820000Y-43400000D01*
X81000000Y-6000000D02*
X86035000Y-11035000D01*
X86035000Y-39615000D02*
X89820000Y-43400000D01*
%TO.N,TP_NOR*%
X96100200Y-14100200D02*
X96100200Y-39520200D01*
X102520000Y-53560000D02*
X102520000Y-48480000D01*
X102520000Y-45940000D02*
X102520000Y-48480000D01*
X88000000Y-6000000D02*
X96100200Y-14100200D01*
X102520000Y-58640000D02*
X102520000Y-53560000D01*
X99980000Y-43400000D02*
X102520000Y-45940000D01*
X96100200Y-39520200D02*
X99980000Y-43400000D01*
%TO.N,TP_RING*%
X61880000Y-25620000D02*
X59340000Y-23080000D01*
X60564800Y-21855200D02*
X59340000Y-23080000D01*
X61880000Y-28160000D02*
X61880000Y-25620000D01*
X60564800Y-6564800D02*
X60564800Y-21855200D01*
X60000000Y-6000000D02*
X60564800Y-6564800D01*
%TD*%
M02*
