%TF.GenerationSoftware,KiCad,Pcbnew,10.0.5*%
%TF.CreationDate,2026-09-09T10:50:04-04:00*%
%TF.ProjectId,hub,6875622e-6b69-4636-9164-5f7063625858,rev?*%
%TF.SameCoordinates,Original*%
%TF.FileFunction,Copper,L1,Top*%
%TF.FilePolarity,Positive*%
%FSLAX46Y46*%
G04 Gerber Fmt 4.6, Leading zero omitted, Abs format (unit mm)*
G04 Created by KiCad (PCBNEW 10.0.5) date 2026-09-09 10:50:04*
%MOMM*%
%LPD*%
G01*
G04 APERTURE LIST*
G04 Aperture macros list*
%AMRoundRect*
0 Rectangle with rounded corners*
0 $1 Rounding radius*
0 $2 $3 $4 $5 $6 $7 $8 $9 X,Y pos of 4 corners*
0 Add a 4 corners polygon primitive as box body*
4,1,4,$2,$3,$4,$5,$6,$7,$8,$9,$2,$3,0*
0 Add four circle primitives for the rounded corners*
1,1,$1+$1,$2,$3*
1,1,$1+$1,$4,$5*
1,1,$1+$1,$6,$7*
1,1,$1+$1,$8,$9*
0 Add four rect primitives between the rounded corners*
20,1,$1+$1,$2,$3,$4,$5,0*
20,1,$1+$1,$4,$5,$6,$7,0*
20,1,$1+$1,$6,$7,$8,$9,0*
20,1,$1+$1,$8,$9,$2,$3,0*%
G04 Aperture macros list end*
%TA.AperFunction,ComponentPad*%
%ADD10C,1.560000*%
%TD*%
%TA.AperFunction,ComponentPad*%
%ADD11C,1.600000*%
%TD*%
%TA.AperFunction,ComponentPad*%
%ADD12C,2.000000*%
%TD*%
%TA.AperFunction,ComponentPad*%
%ADD13RoundRect,0.250000X-0.600000X-0.600000X0.600000X-0.600000X0.600000X0.600000X-0.600000X0.600000X0*%
%TD*%
%TA.AperFunction,ComponentPad*%
%ADD14C,1.700000*%
%TD*%
%TA.AperFunction,ComponentPad*%
%ADD15C,6.400000*%
%TD*%
%TA.AperFunction,ComponentPad*%
%ADD16RoundRect,0.250000X0.600000X-0.600000X0.600000X0.600000X-0.600000X0.600000X-0.600000X-0.600000X0*%
%TD*%
%TA.AperFunction,ComponentPad*%
%ADD17C,3.500000*%
%TD*%
%TA.AperFunction,ComponentPad*%
%ADD18RoundRect,0.250000X-0.550000X0.550000X-0.550000X-0.550000X0.550000X-0.550000X0.550000X0.550000X0*%
%TD*%
%TA.AperFunction,ComponentPad*%
%ADD19R,1.800000X1.800000*%
%TD*%
%TA.AperFunction,ComponentPad*%
%ADD20C,1.800000*%
%TD*%
%TA.AperFunction,ViaPad*%
%ADD21C,0.800000*%
%TD*%
%TA.AperFunction,Conductor*%
%ADD22C,0.200000*%
%TD*%
G04 APERTURE END LIST*
D10*
%TO.P,F1,1*%
%TO.N,VBUS*%
X34000000Y-8000000D03*
%TO.P,F1,2*%
%TO.N,+5V*%
X39100000Y-9900000D03*
%TD*%
D11*
%TO.P,R1,1*%
%TO.N,+5V*%
X46000000Y-6000000D03*
%TO.P,R1,2*%
%TO.N,Net-(D1-A)*%
X46000000Y-11080000D03*
%TD*%
D12*
%TO.P,TP6,1*%
%TO.N,RST*%
X120000000Y-6000000D03*
%TD*%
%TO.P,TP3,1*%
%TO.N,BUS2#*%
X102000000Y-6000000D03*
%TD*%
D13*
%TO.P,J8,1*%
%TO.N,+5V*%
X102000000Y-22000000D03*
D14*
%TO.P,J8,2*%
X104540000Y-22000000D03*
%TO.P,J8,3*%
%TO.N,GND*%
X102000000Y-24540000D03*
%TO.P,J8,4*%
X104540000Y-24540000D03*
%TO.P,J8,5*%
%TO.N,CLK*%
X102000000Y-27080000D03*
%TO.P,J8,6*%
%TO.N,GND*%
X104540000Y-27080000D03*
%TO.P,J8,7*%
%TO.N,RST*%
X102000000Y-29620000D03*
%TO.P,J8,8*%
%TO.N,GND*%
X104540000Y-29620000D03*
%TO.P,J8,9*%
%TO.N,BUS0#*%
X102000000Y-32160000D03*
%TO.P,J8,10*%
%TO.N,BUS1#*%
X104540000Y-32160000D03*
%TO.P,J8,11*%
%TO.N,BUS2#*%
X102000000Y-34700000D03*
%TO.P,J8,12*%
%TO.N,BUS3#*%
X104540000Y-34700000D03*
%TO.P,J8,13*%
%TO.N,A0*%
X102000000Y-37240000D03*
%TO.P,J8,14*%
%TO.N,A1*%
X104540000Y-37240000D03*
%TO.P,J8,15*%
%TO.N,A2*%
X102000000Y-39780000D03*
%TO.P,J8,16*%
%TO.N,A3*%
X104540000Y-39780000D03*
%TO.P,J8,17*%
%TO.N,B0*%
X102000000Y-42320000D03*
%TO.P,J8,18*%
%TO.N,B1*%
X104540000Y-42320000D03*
%TO.P,J8,19*%
%TO.N,B2*%
X102000000Y-44860000D03*
%TO.P,J8,20*%
%TO.N,B3*%
X104540000Y-44860000D03*
%TO.P,J8,21*%
%TO.N,PC0*%
X102000000Y-47400000D03*
%TO.P,J8,22*%
%TO.N,PC1*%
X104540000Y-47400000D03*
%TO.P,J8,23*%
%TO.N,PC2*%
X102000000Y-49940000D03*
%TO.P,J8,24*%
%TO.N,PC3*%
X104540000Y-49940000D03*
%TO.P,J8,25*%
%TO.N,M0*%
X102000000Y-52480000D03*
%TO.P,J8,26*%
%TO.N,M1*%
X104540000Y-52480000D03*
%TO.P,J8,27*%
%TO.N,M2*%
X102000000Y-55020000D03*
%TO.P,J8,28*%
%TO.N,M3*%
X104540000Y-55020000D03*
%TO.P,J8,29*%
%TO.N,M4*%
X102000000Y-57560000D03*
%TO.P,J8,30*%
%TO.N,M5*%
X104540000Y-57560000D03*
%TO.P,J8,31*%
%TO.N,M6*%
X102000000Y-60100000D03*
%TO.P,J8,32*%
%TO.N,M7*%
X104540000Y-60100000D03*
%TO.P,J8,33*%
%TO.N,CF*%
X102000000Y-62640000D03*
%TO.P,J8,34*%
%TO.N,ZF*%
X104540000Y-62640000D03*
%TO.P,J8,35*%
%TO.N,SUB*%
X102000000Y-65180000D03*
%TO.P,J8,36*%
%TO.N,EO*%
X104540000Y-65180000D03*
%TO.P,J8,37*%
%TO.N,AI*%
X102000000Y-67720000D03*
%TO.P,J8,38*%
%TO.N,AO*%
X104540000Y-67720000D03*
%TO.P,J8,39*%
%TO.N,BI*%
X102000000Y-70260000D03*
%TO.P,J8,40*%
%TO.N,BA*%
X104540000Y-70260000D03*
%TO.P,J8,41*%
%TO.N,AB*%
X102000000Y-72800000D03*
%TO.P,J8,42*%
%TO.N,OI*%
X104540000Y-72800000D03*
%TO.P,J8,43*%
%TO.N,IO*%
X102000000Y-75340000D03*
%TO.P,J8,44*%
%TO.N,II*%
X104540000Y-75340000D03*
%TO.P,J8,45*%
%TO.N,PCE*%
X102000000Y-77880000D03*
%TO.P,J8,46*%
%TO.N,PCL*%
X104540000Y-77880000D03*
%TO.P,J8,47*%
%TO.N,FI*%
X102000000Y-80420000D03*
%TO.P,J8,48*%
%TO.N,HLT*%
X104540000Y-80420000D03*
%TO.P,J8,49*%
%TO.N,+5V*%
X102000000Y-82960000D03*
%TO.P,J8,50*%
%TO.N,GND*%
X104540000Y-82960000D03*
%TD*%
D11*
%TO.P,C1,1*%
%TO.N,+5V*%
X57000000Y-6000000D03*
%TO.P,C1,2*%
%TO.N,GND*%
X57000000Y-8500000D03*
%TD*%
D13*
%TO.P,J4,1*%
%TO.N,+5V*%
X42000000Y-22000000D03*
D14*
%TO.P,J4,2*%
X44540000Y-22000000D03*
%TO.P,J4,3*%
%TO.N,GND*%
X42000000Y-24540000D03*
%TO.P,J4,4*%
X44540000Y-24540000D03*
%TO.P,J4,5*%
%TO.N,CLK*%
X42000000Y-27080000D03*
%TO.P,J4,6*%
%TO.N,GND*%
X44540000Y-27080000D03*
%TO.P,J4,7*%
%TO.N,RST*%
X42000000Y-29620000D03*
%TO.P,J4,8*%
%TO.N,GND*%
X44540000Y-29620000D03*
%TO.P,J4,9*%
%TO.N,BUS0#*%
X42000000Y-32160000D03*
%TO.P,J4,10*%
%TO.N,BUS1#*%
X44540000Y-32160000D03*
%TO.P,J4,11*%
%TO.N,BUS2#*%
X42000000Y-34700000D03*
%TO.P,J4,12*%
%TO.N,BUS3#*%
X44540000Y-34700000D03*
%TO.P,J4,13*%
%TO.N,A0*%
X42000000Y-37240000D03*
%TO.P,J4,14*%
%TO.N,A1*%
X44540000Y-37240000D03*
%TO.P,J4,15*%
%TO.N,A2*%
X42000000Y-39780000D03*
%TO.P,J4,16*%
%TO.N,A3*%
X44540000Y-39780000D03*
%TO.P,J4,17*%
%TO.N,B0*%
X42000000Y-42320000D03*
%TO.P,J4,18*%
%TO.N,B1*%
X44540000Y-42320000D03*
%TO.P,J4,19*%
%TO.N,B2*%
X42000000Y-44860000D03*
%TO.P,J4,20*%
%TO.N,B3*%
X44540000Y-44860000D03*
%TO.P,J4,21*%
%TO.N,PC0*%
X42000000Y-47400000D03*
%TO.P,J4,22*%
%TO.N,PC1*%
X44540000Y-47400000D03*
%TO.P,J4,23*%
%TO.N,PC2*%
X42000000Y-49940000D03*
%TO.P,J4,24*%
%TO.N,PC3*%
X44540000Y-49940000D03*
%TO.P,J4,25*%
%TO.N,M0*%
X42000000Y-52480000D03*
%TO.P,J4,26*%
%TO.N,M1*%
X44540000Y-52480000D03*
%TO.P,J4,27*%
%TO.N,M2*%
X42000000Y-55020000D03*
%TO.P,J4,28*%
%TO.N,M3*%
X44540000Y-55020000D03*
%TO.P,J4,29*%
%TO.N,M4*%
X42000000Y-57560000D03*
%TO.P,J4,30*%
%TO.N,M5*%
X44540000Y-57560000D03*
%TO.P,J4,31*%
%TO.N,M6*%
X42000000Y-60100000D03*
%TO.P,J4,32*%
%TO.N,M7*%
X44540000Y-60100000D03*
%TO.P,J4,33*%
%TO.N,CF*%
X42000000Y-62640000D03*
%TO.P,J4,34*%
%TO.N,ZF*%
X44540000Y-62640000D03*
%TO.P,J4,35*%
%TO.N,SUB*%
X42000000Y-65180000D03*
%TO.P,J4,36*%
%TO.N,EO*%
X44540000Y-65180000D03*
%TO.P,J4,37*%
%TO.N,AI*%
X42000000Y-67720000D03*
%TO.P,J4,38*%
%TO.N,AO*%
X44540000Y-67720000D03*
%TO.P,J4,39*%
%TO.N,BI*%
X42000000Y-70260000D03*
%TO.P,J4,40*%
%TO.N,BA*%
X44540000Y-70260000D03*
%TO.P,J4,41*%
%TO.N,AB*%
X42000000Y-72800000D03*
%TO.P,J4,42*%
%TO.N,OI*%
X44540000Y-72800000D03*
%TO.P,J4,43*%
%TO.N,IO*%
X42000000Y-75340000D03*
%TO.P,J4,44*%
%TO.N,II*%
X44540000Y-75340000D03*
%TO.P,J4,45*%
%TO.N,PCE*%
X42000000Y-77880000D03*
%TO.P,J4,46*%
%TO.N,PCL*%
X44540000Y-77880000D03*
%TO.P,J4,47*%
%TO.N,FI*%
X42000000Y-80420000D03*
%TO.P,J4,48*%
%TO.N,HLT*%
X44540000Y-80420000D03*
%TO.P,J4,49*%
%TO.N,+5V*%
X42000000Y-82960000D03*
%TO.P,J4,50*%
%TO.N,GND*%
X44540000Y-82960000D03*
%TD*%
D15*
%TO.P,H3,1*%
%TO.N,N/C*%
X4000000Y-94000000D03*
%TD*%
D12*
%TO.P,TP2,1*%
%TO.N,BUS1#*%
X96000000Y-6000000D03*
%TD*%
%TO.P,TP4,1*%
%TO.N,BUS3#*%
X108000000Y-6000000D03*
%TD*%
D13*
%TO.P,J3,1*%
%TO.N,+5V*%
X27000000Y-22000000D03*
D14*
%TO.P,J3,2*%
X29540000Y-22000000D03*
%TO.P,J3,3*%
%TO.N,GND*%
X27000000Y-24540000D03*
%TO.P,J3,4*%
X29540000Y-24540000D03*
%TO.P,J3,5*%
%TO.N,CLK*%
X27000000Y-27080000D03*
%TO.P,J3,6*%
%TO.N,GND*%
X29540000Y-27080000D03*
%TO.P,J3,7*%
%TO.N,RST*%
X27000000Y-29620000D03*
%TO.P,J3,8*%
%TO.N,GND*%
X29540000Y-29620000D03*
%TO.P,J3,9*%
%TO.N,BUS0#*%
X27000000Y-32160000D03*
%TO.P,J3,10*%
%TO.N,BUS1#*%
X29540000Y-32160000D03*
%TO.P,J3,11*%
%TO.N,BUS2#*%
X27000000Y-34700000D03*
%TO.P,J3,12*%
%TO.N,BUS3#*%
X29540000Y-34700000D03*
%TO.P,J3,13*%
%TO.N,A0*%
X27000000Y-37240000D03*
%TO.P,J3,14*%
%TO.N,A1*%
X29540000Y-37240000D03*
%TO.P,J3,15*%
%TO.N,A2*%
X27000000Y-39780000D03*
%TO.P,J3,16*%
%TO.N,A3*%
X29540000Y-39780000D03*
%TO.P,J3,17*%
%TO.N,B0*%
X27000000Y-42320000D03*
%TO.P,J3,18*%
%TO.N,B1*%
X29540000Y-42320000D03*
%TO.P,J3,19*%
%TO.N,B2*%
X27000000Y-44860000D03*
%TO.P,J3,20*%
%TO.N,B3*%
X29540000Y-44860000D03*
%TO.P,J3,21*%
%TO.N,PC0*%
X27000000Y-47400000D03*
%TO.P,J3,22*%
%TO.N,PC1*%
X29540000Y-47400000D03*
%TO.P,J3,23*%
%TO.N,PC2*%
X27000000Y-49940000D03*
%TO.P,J3,24*%
%TO.N,PC3*%
X29540000Y-49940000D03*
%TO.P,J3,25*%
%TO.N,M0*%
X27000000Y-52480000D03*
%TO.P,J3,26*%
%TO.N,M1*%
X29540000Y-52480000D03*
%TO.P,J3,27*%
%TO.N,M2*%
X27000000Y-55020000D03*
%TO.P,J3,28*%
%TO.N,M3*%
X29540000Y-55020000D03*
%TO.P,J3,29*%
%TO.N,M4*%
X27000000Y-57560000D03*
%TO.P,J3,30*%
%TO.N,M5*%
X29540000Y-57560000D03*
%TO.P,J3,31*%
%TO.N,M6*%
X27000000Y-60100000D03*
%TO.P,J3,32*%
%TO.N,M7*%
X29540000Y-60100000D03*
%TO.P,J3,33*%
%TO.N,CF*%
X27000000Y-62640000D03*
%TO.P,J3,34*%
%TO.N,ZF*%
X29540000Y-62640000D03*
%TO.P,J3,35*%
%TO.N,SUB*%
X27000000Y-65180000D03*
%TO.P,J3,36*%
%TO.N,EO*%
X29540000Y-65180000D03*
%TO.P,J3,37*%
%TO.N,AI*%
X27000000Y-67720000D03*
%TO.P,J3,38*%
%TO.N,AO*%
X29540000Y-67720000D03*
%TO.P,J3,39*%
%TO.N,BI*%
X27000000Y-70260000D03*
%TO.P,J3,40*%
%TO.N,BA*%
X29540000Y-70260000D03*
%TO.P,J3,41*%
%TO.N,AB*%
X27000000Y-72800000D03*
%TO.P,J3,42*%
%TO.N,OI*%
X29540000Y-72800000D03*
%TO.P,J3,43*%
%TO.N,IO*%
X27000000Y-75340000D03*
%TO.P,J3,44*%
%TO.N,II*%
X29540000Y-75340000D03*
%TO.P,J3,45*%
%TO.N,PCE*%
X27000000Y-77880000D03*
%TO.P,J3,46*%
%TO.N,PCL*%
X29540000Y-77880000D03*
%TO.P,J3,47*%
%TO.N,FI*%
X27000000Y-80420000D03*
%TO.P,J3,48*%
%TO.N,HLT*%
X29540000Y-80420000D03*
%TO.P,J3,49*%
%TO.N,+5V*%
X27000000Y-82960000D03*
%TO.P,J3,50*%
%TO.N,GND*%
X29540000Y-82960000D03*
%TD*%
D11*
%TO.P,R3,1*%
%TO.N,+5V*%
X72000000Y-6000000D03*
%TO.P,R3,2*%
%TO.N,BUS1#*%
X72000000Y-11080000D03*
%TD*%
D13*
%TO.P,J2,1*%
%TO.N,+5V*%
X12000000Y-22000000D03*
D14*
%TO.P,J2,2*%
X14540000Y-22000000D03*
%TO.P,J2,3*%
%TO.N,GND*%
X12000000Y-24540000D03*
%TO.P,J2,4*%
X14540000Y-24540000D03*
%TO.P,J2,5*%
%TO.N,CLK*%
X12000000Y-27080000D03*
%TO.P,J2,6*%
%TO.N,GND*%
X14540000Y-27080000D03*
%TO.P,J2,7*%
%TO.N,RST*%
X12000000Y-29620000D03*
%TO.P,J2,8*%
%TO.N,GND*%
X14540000Y-29620000D03*
%TO.P,J2,9*%
%TO.N,BUS0#*%
X12000000Y-32160000D03*
%TO.P,J2,10*%
%TO.N,BUS1#*%
X14540000Y-32160000D03*
%TO.P,J2,11*%
%TO.N,BUS2#*%
X12000000Y-34700000D03*
%TO.P,J2,12*%
%TO.N,BUS3#*%
X14540000Y-34700000D03*
%TO.P,J2,13*%
%TO.N,A0*%
X12000000Y-37240000D03*
%TO.P,J2,14*%
%TO.N,A1*%
X14540000Y-37240000D03*
%TO.P,J2,15*%
%TO.N,A2*%
X12000000Y-39780000D03*
%TO.P,J2,16*%
%TO.N,A3*%
X14540000Y-39780000D03*
%TO.P,J2,17*%
%TO.N,B0*%
X12000000Y-42320000D03*
%TO.P,J2,18*%
%TO.N,B1*%
X14540000Y-42320000D03*
%TO.P,J2,19*%
%TO.N,B2*%
X12000000Y-44860000D03*
%TO.P,J2,20*%
%TO.N,B3*%
X14540000Y-44860000D03*
%TO.P,J2,21*%
%TO.N,PC0*%
X12000000Y-47400000D03*
%TO.P,J2,22*%
%TO.N,PC1*%
X14540000Y-47400000D03*
%TO.P,J2,23*%
%TO.N,PC2*%
X12000000Y-49940000D03*
%TO.P,J2,24*%
%TO.N,PC3*%
X14540000Y-49940000D03*
%TO.P,J2,25*%
%TO.N,M0*%
X12000000Y-52480000D03*
%TO.P,J2,26*%
%TO.N,M1*%
X14540000Y-52480000D03*
%TO.P,J2,27*%
%TO.N,M2*%
X12000000Y-55020000D03*
%TO.P,J2,28*%
%TO.N,M3*%
X14540000Y-55020000D03*
%TO.P,J2,29*%
%TO.N,M4*%
X12000000Y-57560000D03*
%TO.P,J2,30*%
%TO.N,M5*%
X14540000Y-57560000D03*
%TO.P,J2,31*%
%TO.N,M6*%
X12000000Y-60100000D03*
%TO.P,J2,32*%
%TO.N,M7*%
X14540000Y-60100000D03*
%TO.P,J2,33*%
%TO.N,CF*%
X12000000Y-62640000D03*
%TO.P,J2,34*%
%TO.N,ZF*%
X14540000Y-62640000D03*
%TO.P,J2,35*%
%TO.N,SUB*%
X12000000Y-65180000D03*
%TO.P,J2,36*%
%TO.N,EO*%
X14540000Y-65180000D03*
%TO.P,J2,37*%
%TO.N,AI*%
X12000000Y-67720000D03*
%TO.P,J2,38*%
%TO.N,AO*%
X14540000Y-67720000D03*
%TO.P,J2,39*%
%TO.N,BI*%
X12000000Y-70260000D03*
%TO.P,J2,40*%
%TO.N,BA*%
X14540000Y-70260000D03*
%TO.P,J2,41*%
%TO.N,AB*%
X12000000Y-72800000D03*
%TO.P,J2,42*%
%TO.N,OI*%
X14540000Y-72800000D03*
%TO.P,J2,43*%
%TO.N,IO*%
X12000000Y-75340000D03*
%TO.P,J2,44*%
%TO.N,II*%
X14540000Y-75340000D03*
%TO.P,J2,45*%
%TO.N,PCE*%
X12000000Y-77880000D03*
%TO.P,J2,46*%
%TO.N,PCL*%
X14540000Y-77880000D03*
%TO.P,J2,47*%
%TO.N,FI*%
X12000000Y-80420000D03*
%TO.P,J2,48*%
%TO.N,HLT*%
X14540000Y-80420000D03*
%TO.P,J2,49*%
%TO.N,+5V*%
X12000000Y-82960000D03*
%TO.P,J2,50*%
%TO.N,GND*%
X14540000Y-82960000D03*
%TD*%
D15*
%TO.P,H2,1*%
%TO.N,N/C*%
X126000000Y-4000000D03*
%TD*%
D13*
%TO.P,J5,1*%
%TO.N,+5V*%
X57000000Y-22000000D03*
D14*
%TO.P,J5,2*%
X59540000Y-22000000D03*
%TO.P,J5,3*%
%TO.N,GND*%
X57000000Y-24540000D03*
%TO.P,J5,4*%
X59540000Y-24540000D03*
%TO.P,J5,5*%
%TO.N,CLK*%
X57000000Y-27080000D03*
%TO.P,J5,6*%
%TO.N,GND*%
X59540000Y-27080000D03*
%TO.P,J5,7*%
%TO.N,RST*%
X57000000Y-29620000D03*
%TO.P,J5,8*%
%TO.N,GND*%
X59540000Y-29620000D03*
%TO.P,J5,9*%
%TO.N,BUS0#*%
X57000000Y-32160000D03*
%TO.P,J5,10*%
%TO.N,BUS1#*%
X59540000Y-32160000D03*
%TO.P,J5,11*%
%TO.N,BUS2#*%
X57000000Y-34700000D03*
%TO.P,J5,12*%
%TO.N,BUS3#*%
X59540000Y-34700000D03*
%TO.P,J5,13*%
%TO.N,A0*%
X57000000Y-37240000D03*
%TO.P,J5,14*%
%TO.N,A1*%
X59540000Y-37240000D03*
%TO.P,J5,15*%
%TO.N,A2*%
X57000000Y-39780000D03*
%TO.P,J5,16*%
%TO.N,A3*%
X59540000Y-39780000D03*
%TO.P,J5,17*%
%TO.N,B0*%
X57000000Y-42320000D03*
%TO.P,J5,18*%
%TO.N,B1*%
X59540000Y-42320000D03*
%TO.P,J5,19*%
%TO.N,B2*%
X57000000Y-44860000D03*
%TO.P,J5,20*%
%TO.N,B3*%
X59540000Y-44860000D03*
%TO.P,J5,21*%
%TO.N,PC0*%
X57000000Y-47400000D03*
%TO.P,J5,22*%
%TO.N,PC1*%
X59540000Y-47400000D03*
%TO.P,J5,23*%
%TO.N,PC2*%
X57000000Y-49940000D03*
%TO.P,J5,24*%
%TO.N,PC3*%
X59540000Y-49940000D03*
%TO.P,J5,25*%
%TO.N,M0*%
X57000000Y-52480000D03*
%TO.P,J5,26*%
%TO.N,M1*%
X59540000Y-52480000D03*
%TO.P,J5,27*%
%TO.N,M2*%
X57000000Y-55020000D03*
%TO.P,J5,28*%
%TO.N,M3*%
X59540000Y-55020000D03*
%TO.P,J5,29*%
%TO.N,M4*%
X57000000Y-57560000D03*
%TO.P,J5,30*%
%TO.N,M5*%
X59540000Y-57560000D03*
%TO.P,J5,31*%
%TO.N,M6*%
X57000000Y-60100000D03*
%TO.P,J5,32*%
%TO.N,M7*%
X59540000Y-60100000D03*
%TO.P,J5,33*%
%TO.N,CF*%
X57000000Y-62640000D03*
%TO.P,J5,34*%
%TO.N,ZF*%
X59540000Y-62640000D03*
%TO.P,J5,35*%
%TO.N,SUB*%
X57000000Y-65180000D03*
%TO.P,J5,36*%
%TO.N,EO*%
X59540000Y-65180000D03*
%TO.P,J5,37*%
%TO.N,AI*%
X57000000Y-67720000D03*
%TO.P,J5,38*%
%TO.N,AO*%
X59540000Y-67720000D03*
%TO.P,J5,39*%
%TO.N,BI*%
X57000000Y-70260000D03*
%TO.P,J5,40*%
%TO.N,BA*%
X59540000Y-70260000D03*
%TO.P,J5,41*%
%TO.N,AB*%
X57000000Y-72800000D03*
%TO.P,J5,42*%
%TO.N,OI*%
X59540000Y-72800000D03*
%TO.P,J5,43*%
%TO.N,IO*%
X57000000Y-75340000D03*
%TO.P,J5,44*%
%TO.N,II*%
X59540000Y-75340000D03*
%TO.P,J5,45*%
%TO.N,PCE*%
X57000000Y-77880000D03*
%TO.P,J5,46*%
%TO.N,PCL*%
X59540000Y-77880000D03*
%TO.P,J5,47*%
%TO.N,FI*%
X57000000Y-80420000D03*
%TO.P,J5,48*%
%TO.N,HLT*%
X59540000Y-80420000D03*
%TO.P,J5,49*%
%TO.N,+5V*%
X57000000Y-82960000D03*
%TO.P,J5,50*%
%TO.N,GND*%
X59540000Y-82960000D03*
%TD*%
D13*
%TO.P,J6,1*%
%TO.N,+5V*%
X72000000Y-22000000D03*
D14*
%TO.P,J6,2*%
X74540000Y-22000000D03*
%TO.P,J6,3*%
%TO.N,GND*%
X72000000Y-24540000D03*
%TO.P,J6,4*%
X74540000Y-24540000D03*
%TO.P,J6,5*%
%TO.N,CLK*%
X72000000Y-27080000D03*
%TO.P,J6,6*%
%TO.N,GND*%
X74540000Y-27080000D03*
%TO.P,J6,7*%
%TO.N,RST*%
X72000000Y-29620000D03*
%TO.P,J6,8*%
%TO.N,GND*%
X74540000Y-29620000D03*
%TO.P,J6,9*%
%TO.N,BUS0#*%
X72000000Y-32160000D03*
%TO.P,J6,10*%
%TO.N,BUS1#*%
X74540000Y-32160000D03*
%TO.P,J6,11*%
%TO.N,BUS2#*%
X72000000Y-34700000D03*
%TO.P,J6,12*%
%TO.N,BUS3#*%
X74540000Y-34700000D03*
%TO.P,J6,13*%
%TO.N,A0*%
X72000000Y-37240000D03*
%TO.P,J6,14*%
%TO.N,A1*%
X74540000Y-37240000D03*
%TO.P,J6,15*%
%TO.N,A2*%
X72000000Y-39780000D03*
%TO.P,J6,16*%
%TO.N,A3*%
X74540000Y-39780000D03*
%TO.P,J6,17*%
%TO.N,B0*%
X72000000Y-42320000D03*
%TO.P,J6,18*%
%TO.N,B1*%
X74540000Y-42320000D03*
%TO.P,J6,19*%
%TO.N,B2*%
X72000000Y-44860000D03*
%TO.P,J6,20*%
%TO.N,B3*%
X74540000Y-44860000D03*
%TO.P,J6,21*%
%TO.N,PC0*%
X72000000Y-47400000D03*
%TO.P,J6,22*%
%TO.N,PC1*%
X74540000Y-47400000D03*
%TO.P,J6,23*%
%TO.N,PC2*%
X72000000Y-49940000D03*
%TO.P,J6,24*%
%TO.N,PC3*%
X74540000Y-49940000D03*
%TO.P,J6,25*%
%TO.N,M0*%
X72000000Y-52480000D03*
%TO.P,J6,26*%
%TO.N,M1*%
X74540000Y-52480000D03*
%TO.P,J6,27*%
%TO.N,M2*%
X72000000Y-55020000D03*
%TO.P,J6,28*%
%TO.N,M3*%
X74540000Y-55020000D03*
%TO.P,J6,29*%
%TO.N,M4*%
X72000000Y-57560000D03*
%TO.P,J6,30*%
%TO.N,M5*%
X74540000Y-57560000D03*
%TO.P,J6,31*%
%TO.N,M6*%
X72000000Y-60100000D03*
%TO.P,J6,32*%
%TO.N,M7*%
X74540000Y-60100000D03*
%TO.P,J6,33*%
%TO.N,CF*%
X72000000Y-62640000D03*
%TO.P,J6,34*%
%TO.N,ZF*%
X74540000Y-62640000D03*
%TO.P,J6,35*%
%TO.N,SUB*%
X72000000Y-65180000D03*
%TO.P,J6,36*%
%TO.N,EO*%
X74540000Y-65180000D03*
%TO.P,J6,37*%
%TO.N,AI*%
X72000000Y-67720000D03*
%TO.P,J6,38*%
%TO.N,AO*%
X74540000Y-67720000D03*
%TO.P,J6,39*%
%TO.N,BI*%
X72000000Y-70260000D03*
%TO.P,J6,40*%
%TO.N,BA*%
X74540000Y-70260000D03*
%TO.P,J6,41*%
%TO.N,AB*%
X72000000Y-72800000D03*
%TO.P,J6,42*%
%TO.N,OI*%
X74540000Y-72800000D03*
%TO.P,J6,43*%
%TO.N,IO*%
X72000000Y-75340000D03*
%TO.P,J6,44*%
%TO.N,II*%
X74540000Y-75340000D03*
%TO.P,J6,45*%
%TO.N,PCE*%
X72000000Y-77880000D03*
%TO.P,J6,46*%
%TO.N,PCL*%
X74540000Y-77880000D03*
%TO.P,J6,47*%
%TO.N,FI*%
X72000000Y-80420000D03*
%TO.P,J6,48*%
%TO.N,HLT*%
X74540000Y-80420000D03*
%TO.P,J6,49*%
%TO.N,+5V*%
X72000000Y-82960000D03*
%TO.P,J6,50*%
%TO.N,GND*%
X74540000Y-82960000D03*
%TD*%
D16*
%TO.P,J1,1*%
%TO.N,VBUS*%
X18000000Y-14000000D03*
D14*
%TO.P,J1,2*%
%TO.N,unconnected-(J1-D--Pad2)*%
X20500000Y-14000000D03*
%TO.P,J1,3*%
%TO.N,unconnected-(J1-D+-Pad3)*%
X20500000Y-12000000D03*
%TO.P,J1,4*%
%TO.N,GND*%
X18000000Y-12000000D03*
D17*
%TO.P,J1,SH*%
X13230000Y-9290000D03*
X25270000Y-9290000D03*
%TD*%
D13*
%TO.P,J9,1*%
%TO.N,+5V*%
X117000000Y-22000000D03*
D14*
%TO.P,J9,2*%
X119540000Y-22000000D03*
%TO.P,J9,3*%
%TO.N,GND*%
X117000000Y-24540000D03*
%TO.P,J9,4*%
X119540000Y-24540000D03*
%TO.P,J9,5*%
%TO.N,CLK*%
X117000000Y-27080000D03*
%TO.P,J9,6*%
%TO.N,GND*%
X119540000Y-27080000D03*
%TO.P,J9,7*%
%TO.N,RST*%
X117000000Y-29620000D03*
%TO.P,J9,8*%
%TO.N,GND*%
X119540000Y-29620000D03*
%TO.P,J9,9*%
%TO.N,BUS0#*%
X117000000Y-32160000D03*
%TO.P,J9,10*%
%TO.N,BUS1#*%
X119540000Y-32160000D03*
%TO.P,J9,11*%
%TO.N,BUS2#*%
X117000000Y-34700000D03*
%TO.P,J9,12*%
%TO.N,BUS3#*%
X119540000Y-34700000D03*
%TO.P,J9,13*%
%TO.N,A0*%
X117000000Y-37240000D03*
%TO.P,J9,14*%
%TO.N,A1*%
X119540000Y-37240000D03*
%TO.P,J9,15*%
%TO.N,A2*%
X117000000Y-39780000D03*
%TO.P,J9,16*%
%TO.N,A3*%
X119540000Y-39780000D03*
%TO.P,J9,17*%
%TO.N,B0*%
X117000000Y-42320000D03*
%TO.P,J9,18*%
%TO.N,B1*%
X119540000Y-42320000D03*
%TO.P,J9,19*%
%TO.N,B2*%
X117000000Y-44860000D03*
%TO.P,J9,20*%
%TO.N,B3*%
X119540000Y-44860000D03*
%TO.P,J9,21*%
%TO.N,PC0*%
X117000000Y-47400000D03*
%TO.P,J9,22*%
%TO.N,PC1*%
X119540000Y-47400000D03*
%TO.P,J9,23*%
%TO.N,PC2*%
X117000000Y-49940000D03*
%TO.P,J9,24*%
%TO.N,PC3*%
X119540000Y-49940000D03*
%TO.P,J9,25*%
%TO.N,M0*%
X117000000Y-52480000D03*
%TO.P,J9,26*%
%TO.N,M1*%
X119540000Y-52480000D03*
%TO.P,J9,27*%
%TO.N,M2*%
X117000000Y-55020000D03*
%TO.P,J9,28*%
%TO.N,M3*%
X119540000Y-55020000D03*
%TO.P,J9,29*%
%TO.N,M4*%
X117000000Y-57560000D03*
%TO.P,J9,30*%
%TO.N,M5*%
X119540000Y-57560000D03*
%TO.P,J9,31*%
%TO.N,M6*%
X117000000Y-60100000D03*
%TO.P,J9,32*%
%TO.N,M7*%
X119540000Y-60100000D03*
%TO.P,J9,33*%
%TO.N,CF*%
X117000000Y-62640000D03*
%TO.P,J9,34*%
%TO.N,ZF*%
X119540000Y-62640000D03*
%TO.P,J9,35*%
%TO.N,SUB*%
X117000000Y-65180000D03*
%TO.P,J9,36*%
%TO.N,EO*%
X119540000Y-65180000D03*
%TO.P,J9,37*%
%TO.N,AI*%
X117000000Y-67720000D03*
%TO.P,J9,38*%
%TO.N,AO*%
X119540000Y-67720000D03*
%TO.P,J9,39*%
%TO.N,BI*%
X117000000Y-70260000D03*
%TO.P,J9,40*%
%TO.N,BA*%
X119540000Y-70260000D03*
%TO.P,J9,41*%
%TO.N,AB*%
X117000000Y-72800000D03*
%TO.P,J9,42*%
%TO.N,OI*%
X119540000Y-72800000D03*
%TO.P,J9,43*%
%TO.N,IO*%
X117000000Y-75340000D03*
%TO.P,J9,44*%
%TO.N,II*%
X119540000Y-75340000D03*
%TO.P,J9,45*%
%TO.N,PCE*%
X117000000Y-77880000D03*
%TO.P,J9,46*%
%TO.N,PCL*%
X119540000Y-77880000D03*
%TO.P,J9,47*%
%TO.N,FI*%
X117000000Y-80420000D03*
%TO.P,J9,48*%
%TO.N,HLT*%
X119540000Y-80420000D03*
%TO.P,J9,49*%
%TO.N,+5V*%
X117000000Y-82960000D03*
%TO.P,J9,50*%
%TO.N,GND*%
X119540000Y-82960000D03*
%TD*%
D12*
%TO.P,TP5,1*%
%TO.N,CLK*%
X114000000Y-6000000D03*
%TD*%
%TO.P,TP1,1*%
%TO.N,BUS0#*%
X90000000Y-6000000D03*
%TD*%
D13*
%TO.P,J7,1*%
%TO.N,+5V*%
X87000000Y-22000000D03*
D14*
%TO.P,J7,2*%
X89540000Y-22000000D03*
%TO.P,J7,3*%
%TO.N,GND*%
X87000000Y-24540000D03*
%TO.P,J7,4*%
X89540000Y-24540000D03*
%TO.P,J7,5*%
%TO.N,CLK*%
X87000000Y-27080000D03*
%TO.P,J7,6*%
%TO.N,GND*%
X89540000Y-27080000D03*
%TO.P,J7,7*%
%TO.N,RST*%
X87000000Y-29620000D03*
%TO.P,J7,8*%
%TO.N,GND*%
X89540000Y-29620000D03*
%TO.P,J7,9*%
%TO.N,BUS0#*%
X87000000Y-32160000D03*
%TO.P,J7,10*%
%TO.N,BUS1#*%
X89540000Y-32160000D03*
%TO.P,J7,11*%
%TO.N,BUS2#*%
X87000000Y-34700000D03*
%TO.P,J7,12*%
%TO.N,BUS3#*%
X89540000Y-34700000D03*
%TO.P,J7,13*%
%TO.N,A0*%
X87000000Y-37240000D03*
%TO.P,J7,14*%
%TO.N,A1*%
X89540000Y-37240000D03*
%TO.P,J7,15*%
%TO.N,A2*%
X87000000Y-39780000D03*
%TO.P,J7,16*%
%TO.N,A3*%
X89540000Y-39780000D03*
%TO.P,J7,17*%
%TO.N,B0*%
X87000000Y-42320000D03*
%TO.P,J7,18*%
%TO.N,B1*%
X89540000Y-42320000D03*
%TO.P,J7,19*%
%TO.N,B2*%
X87000000Y-44860000D03*
%TO.P,J7,20*%
%TO.N,B3*%
X89540000Y-44860000D03*
%TO.P,J7,21*%
%TO.N,PC0*%
X87000000Y-47400000D03*
%TO.P,J7,22*%
%TO.N,PC1*%
X89540000Y-47400000D03*
%TO.P,J7,23*%
%TO.N,PC2*%
X87000000Y-49940000D03*
%TO.P,J7,24*%
%TO.N,PC3*%
X89540000Y-49940000D03*
%TO.P,J7,25*%
%TO.N,M0*%
X87000000Y-52480000D03*
%TO.P,J7,26*%
%TO.N,M1*%
X89540000Y-52480000D03*
%TO.P,J7,27*%
%TO.N,M2*%
X87000000Y-55020000D03*
%TO.P,J7,28*%
%TO.N,M3*%
X89540000Y-55020000D03*
%TO.P,J7,29*%
%TO.N,M4*%
X87000000Y-57560000D03*
%TO.P,J7,30*%
%TO.N,M5*%
X89540000Y-57560000D03*
%TO.P,J7,31*%
%TO.N,M6*%
X87000000Y-60100000D03*
%TO.P,J7,32*%
%TO.N,M7*%
X89540000Y-60100000D03*
%TO.P,J7,33*%
%TO.N,CF*%
X87000000Y-62640000D03*
%TO.P,J7,34*%
%TO.N,ZF*%
X89540000Y-62640000D03*
%TO.P,J7,35*%
%TO.N,SUB*%
X87000000Y-65180000D03*
%TO.P,J7,36*%
%TO.N,EO*%
X89540000Y-65180000D03*
%TO.P,J7,37*%
%TO.N,AI*%
X87000000Y-67720000D03*
%TO.P,J7,38*%
%TO.N,AO*%
X89540000Y-67720000D03*
%TO.P,J7,39*%
%TO.N,BI*%
X87000000Y-70260000D03*
%TO.P,J7,40*%
%TO.N,BA*%
X89540000Y-70260000D03*
%TO.P,J7,41*%
%TO.N,AB*%
X87000000Y-72800000D03*
%TO.P,J7,42*%
%TO.N,OI*%
X89540000Y-72800000D03*
%TO.P,J7,43*%
%TO.N,IO*%
X87000000Y-75340000D03*
%TO.P,J7,44*%
%TO.N,II*%
X89540000Y-75340000D03*
%TO.P,J7,45*%
%TO.N,PCE*%
X87000000Y-77880000D03*
%TO.P,J7,46*%
%TO.N,PCL*%
X89540000Y-77880000D03*
%TO.P,J7,47*%
%TO.N,FI*%
X87000000Y-80420000D03*
%TO.P,J7,48*%
%TO.N,HLT*%
X89540000Y-80420000D03*
%TO.P,J7,49*%
%TO.N,+5V*%
X87000000Y-82960000D03*
%TO.P,J7,50*%
%TO.N,GND*%
X89540000Y-82960000D03*
%TD*%
D11*
%TO.P,R2,1*%
%TO.N,+5V*%
X68000000Y-6000000D03*
%TO.P,R2,2*%
%TO.N,BUS0#*%
X68000000Y-11080000D03*
%TD*%
D15*
%TO.P,H1,1*%
%TO.N,N/C*%
X4000000Y-4000000D03*
%TD*%
D18*
%TO.P,C2,1*%
%TO.N,+5V*%
X62000000Y-7000000D03*
D11*
%TO.P,C2,2*%
%TO.N,GND*%
X62000000Y-9000000D03*
%TD*%
D19*
%TO.P,D1,1*%
%TO.N,GND*%
X50000000Y-8000000D03*
D20*
%TO.P,D1,2*%
%TO.N,Net-(D1-A)*%
X50000000Y-5460000D03*
%TD*%
D11*
%TO.P,R4,1*%
%TO.N,+5V*%
X76000000Y-6000000D03*
%TO.P,R4,2*%
%TO.N,BUS2#*%
X76000000Y-11080000D03*
%TD*%
%TO.P,R5,1*%
%TO.N,+5V*%
X80000000Y-6000000D03*
%TO.P,R5,2*%
%TO.N,BUS3#*%
X80000000Y-11080000D03*
%TD*%
D15*
%TO.P,H4,1*%
%TO.N,N/C*%
X126000000Y-94000000D03*
%TD*%
D21*
%TO.N,M1*%
X57935400Y-51148200D03*
%TO.N,M6*%
X9470000Y-21504000D03*
X46319200Y-24669500D03*
%TD*%
%TO.N,+5V*%
D22*
X27000000Y-22000000D02*
X28111200Y-23111200D01*
X39100000Y-9900000D02*
X42000000Y-12800000D01*
X42000000Y-12800000D02*
X42000000Y-22000000D01*
X28111200Y-81848800D02*
X27000000Y-82960000D01*
X28111200Y-23111200D02*
X28111200Y-81848800D01*
%TO.N,AB*%
X103169000Y-71631400D02*
X102000000Y-72800000D01*
X117000000Y-72800000D02*
X115831000Y-71631400D01*
X115831000Y-71631400D02*
X103169000Y-71631400D01*
%TO.N,AO*%
X26510500Y-84066500D02*
X15979800Y-73535800D01*
X29839200Y-81690000D02*
X29250900Y-81690000D01*
X27514300Y-84066500D02*
X26510500Y-84066500D01*
X28270000Y-82670900D02*
X28270000Y-83310800D01*
X28270000Y-83310800D02*
X27514300Y-84066500D01*
X29540000Y-67720000D02*
X30675700Y-68855700D01*
X30675700Y-68855700D02*
X30675700Y-80853500D01*
X15979800Y-69159800D02*
X14540000Y-67720000D01*
X15979800Y-73535800D02*
X15979800Y-69159800D01*
X30675700Y-80853500D02*
X29839200Y-81690000D01*
X29250900Y-81690000D02*
X28270000Y-82670900D01*
%TO.N,B1*%
X88438300Y-41218300D02*
X75641700Y-41218300D01*
X74540000Y-42320000D02*
X73428800Y-43431200D01*
X60651200Y-43431200D02*
X59540000Y-42320000D01*
X75641700Y-41218300D02*
X74540000Y-42320000D01*
X103438000Y-41218300D02*
X90641700Y-41218300D01*
X73428800Y-43431200D02*
X60651200Y-43431200D01*
X104540000Y-42320000D02*
X103438000Y-41218300D01*
X90641700Y-41218300D02*
X89540000Y-42320000D01*
X89540000Y-42320000D02*
X88438300Y-41218300D01*
%TO.N,B2*%
X100889000Y-45971200D02*
X88111200Y-45971200D01*
X88111200Y-45971200D02*
X87000000Y-44860000D01*
X102000000Y-44860000D02*
X100889000Y-45971200D01*
%TO.N,B3*%
X14844400Y-28350000D02*
X22342200Y-20852200D01*
X14225700Y-28350000D02*
X14844400Y-28350000D01*
X30659000Y-21558100D02*
X30659000Y-43741000D01*
X14540000Y-44860000D02*
X13270000Y-43590000D01*
X13270100Y-29305600D02*
X14225700Y-28350000D01*
X12377600Y-30873700D02*
X13270100Y-29981200D01*
X10853800Y-31741300D02*
X11721400Y-30873700D01*
X13270000Y-42005600D02*
X12314400Y-41050000D01*
X12314400Y-41050000D02*
X11695500Y-41050000D01*
X13270100Y-29981200D02*
X13270100Y-29305600D01*
X74540000Y-44860000D02*
X73430800Y-45969200D01*
X13270000Y-43590000D02*
X13270000Y-42005600D01*
X29953100Y-20852200D02*
X30659000Y-21558100D01*
X73430800Y-45969200D02*
X60649200Y-45969200D01*
X22342200Y-20852200D02*
X29953100Y-20852200D01*
X11695500Y-41050000D02*
X10853800Y-40208300D01*
X60649200Y-45969200D02*
X59540000Y-44860000D01*
X30659000Y-43741000D02*
X29540000Y-44860000D01*
X11721400Y-30873700D02*
X12377600Y-30873700D01*
X10853800Y-40208300D02*
X10853800Y-31741300D01*
%TO.N,BUS0#*%
X68000000Y-30890000D02*
X58270000Y-30890000D01*
X72000000Y-32160000D02*
X70730000Y-30890000D01*
X68000000Y-11080000D02*
X68000000Y-30890000D01*
X27000000Y-32160000D02*
X25888700Y-31048700D01*
X13111300Y-31048700D02*
X12000000Y-32160000D01*
X58270000Y-30890000D02*
X57000000Y-32160000D01*
X70730000Y-30890000D02*
X68000000Y-30890000D01*
X25888700Y-31048700D02*
X13111300Y-31048700D01*
%TO.N,BUS1#*%
X73270000Y-12350000D02*
X73270000Y-30890000D01*
X72000000Y-11080000D02*
X73270000Y-12350000D01*
X73270000Y-30890000D02*
X74540000Y-32160000D01*
X96000000Y-25700000D02*
X89540000Y-32160000D01*
X96000000Y-6000000D02*
X96000000Y-25700000D01*
%TO.N,BUS2#*%
X55854900Y-35845100D02*
X55854900Y-37684700D01*
X56511900Y-38341700D02*
X68358300Y-38341700D01*
X103112000Y-33588500D02*
X102000000Y-34700000D01*
X55854900Y-37684700D02*
X56511900Y-38341700D01*
X102000000Y-6000000D02*
X103112000Y-7111500D01*
X76000000Y-32287900D02*
X74981800Y-33306100D01*
X103112000Y-7111500D02*
X103112000Y-33588500D01*
X57000000Y-34700000D02*
X55854900Y-35845100D01*
X76000000Y-11080000D02*
X76000000Y-32287900D01*
X74981800Y-33306100D02*
X73393900Y-33306100D01*
X73393900Y-33306100D02*
X72000000Y-34700000D01*
X68358300Y-38341700D02*
X72000000Y-34700000D01*
%TO.N,BUS3#*%
X108000000Y-6000000D02*
X108000000Y-31240000D01*
X108000000Y-31240000D02*
X104540000Y-34700000D01*
%TO.N,CF*%
X87000000Y-62640000D02*
X85898300Y-61538300D01*
X73101700Y-61538300D02*
X72000000Y-62640000D01*
X58108000Y-61532000D02*
X57000000Y-62640000D01*
X85898300Y-61538300D02*
X73101700Y-61538300D01*
X70892000Y-61532000D02*
X58108000Y-61532000D01*
X72000000Y-62640000D02*
X70892000Y-61532000D01*
%TO.N,CLK*%
X114000000Y-6000000D02*
X114000000Y-24080000D01*
X114000000Y-24080000D02*
X117000000Y-27080000D01*
%TO.N,EO*%
X75641700Y-64078300D02*
X74540000Y-65180000D01*
X58438300Y-64078300D02*
X59540000Y-65180000D01*
X89540000Y-65180000D02*
X90641700Y-64078300D01*
X90641700Y-64078300D02*
X103438000Y-64078300D01*
X60654100Y-66294100D02*
X59540000Y-65180000D01*
X29540000Y-65180000D02*
X30641700Y-64078300D01*
X105642000Y-64078300D02*
X104540000Y-65180000D01*
X89540000Y-65180000D02*
X88438300Y-64078300D01*
X119540000Y-65180000D02*
X118438000Y-64078300D01*
X73425900Y-66294100D02*
X60654100Y-66294100D01*
X88438300Y-64078300D02*
X75641700Y-64078300D01*
X103438000Y-64078300D02*
X104540000Y-65180000D01*
X44540000Y-65180000D02*
X45641700Y-64078300D01*
X43438300Y-64078300D02*
X44540000Y-65180000D01*
X74540000Y-65180000D02*
X73425900Y-66294100D01*
X118438000Y-64078300D02*
X105642000Y-64078300D01*
X45641700Y-64078300D02*
X58438300Y-64078300D01*
X30641700Y-64078300D02*
X43438300Y-64078300D01*
%TO.N,FI*%
X72000000Y-80420000D02*
X70826400Y-81593600D01*
X42000000Y-80420000D02*
X43163000Y-79257000D01*
X58173600Y-81593600D02*
X57000000Y-80420000D01*
X55837000Y-79257000D02*
X57000000Y-80420000D01*
X43163000Y-79257000D02*
X55837000Y-79257000D01*
X70826400Y-81593600D02*
X58173600Y-81593600D01*
%TO.N,GND*%
X59540000Y-24540000D02*
X59540000Y-27080000D01*
X120663000Y-30742900D02*
X119540000Y-29620000D01*
X14540000Y-24540000D02*
X14540000Y-27080000D01*
X74540000Y-29620000D02*
X74540000Y-27080000D01*
X74540000Y-82960000D02*
X73395300Y-84104700D01*
X29540000Y-24540000D02*
X29540000Y-27080000D01*
X120663000Y-81837100D02*
X120663000Y-30742900D01*
X44540000Y-29620000D02*
X44540000Y-27080000D01*
X119540000Y-27080000D02*
X119540000Y-29620000D01*
X13230000Y-23230000D02*
X14540000Y-24540000D01*
X60684700Y-84104700D02*
X59540000Y-82960000D01*
X104540000Y-29620000D02*
X104540000Y-27080000D01*
X62000000Y-22080000D02*
X59540000Y-24540000D01*
X74540000Y-24540000D02*
X74540000Y-27080000D01*
X89540000Y-24540000D02*
X89540000Y-27080000D01*
X119540000Y-24540000D02*
X119540000Y-27080000D01*
X104540000Y-24540000D02*
X104540000Y-27080000D01*
X89540000Y-29620000D02*
X89540000Y-27080000D01*
X119540000Y-82960000D02*
X120663000Y-81837100D01*
X62000000Y-9000000D02*
X62000000Y-22080000D01*
X44540000Y-24540000D02*
X44540000Y-27080000D01*
X59540000Y-29620000D02*
X59540000Y-27080000D01*
X29540000Y-27080000D02*
X29540000Y-29620000D01*
X13230000Y-9290000D02*
X13230000Y-23230000D01*
X73395300Y-84104700D02*
X60684700Y-84104700D01*
%TO.N,IO*%
X100846000Y-76493800D02*
X102000000Y-75340000D01*
X88153800Y-76493800D02*
X100846000Y-76493800D01*
X87000000Y-75340000D02*
X88153800Y-76493800D01*
%TO.N,M1*%
X59540000Y-52480000D02*
X58208200Y-51148200D01*
X58208200Y-51148200D02*
X57935400Y-51148200D01*
%TO.N,M3*%
X44540000Y-55020000D02*
X45651300Y-53908700D01*
X58428700Y-53908700D02*
X59540000Y-55020000D01*
X45651300Y-53908700D02*
X58428700Y-53908700D01*
%TO.N,M5*%
X30641700Y-56458300D02*
X43438300Y-56458300D01*
X74540000Y-57560000D02*
X73430700Y-56450700D01*
X60649300Y-56450700D02*
X59540000Y-57560000D01*
X73430700Y-56450700D02*
X60649300Y-56450700D01*
X29540000Y-57560000D02*
X30641700Y-56458300D01*
X43438300Y-56458300D02*
X44540000Y-57560000D01*
%TO.N,M6*%
X59225700Y-56290000D02*
X59836900Y-56290000D01*
X85840500Y-58940500D02*
X87000000Y-60100000D01*
X56826400Y-46298300D02*
X46319200Y-35791100D01*
X46319100Y-24669500D02*
X46319200Y-24669500D01*
X9470000Y-21504000D02*
X9470000Y-57570000D01*
X58270000Y-47030300D02*
X57538000Y-46298300D01*
X59836900Y-56290000D02*
X60651300Y-55475600D01*
X42690000Y-60100000D02*
X43799200Y-61209200D01*
X46319200Y-24669500D02*
X46319100Y-24669500D01*
X60651300Y-55475600D02*
X60651300Y-49467100D01*
X57000000Y-60100000D02*
X58270100Y-58829900D01*
X59847500Y-48663300D02*
X59172500Y-48663300D01*
X58270100Y-58829900D02*
X58270100Y-57245600D01*
X55890800Y-61209200D02*
X57000000Y-60100000D01*
X57538000Y-46298300D02*
X56826400Y-46298300D01*
X58270000Y-47760800D02*
X58270000Y-47030300D01*
X60651300Y-49467100D02*
X59847500Y-48663300D01*
X42000000Y-60100000D02*
X42690000Y-60100000D01*
X72000000Y-60100000D02*
X73159500Y-58940500D01*
X73159500Y-58940500D02*
X85840500Y-58940500D01*
X13101700Y-61201700D02*
X12000000Y-60100000D01*
X46319200Y-35791100D02*
X46319200Y-24669500D01*
X25898300Y-61201700D02*
X13101700Y-61201700D01*
X43799200Y-61209200D02*
X55890800Y-61209200D01*
X59172500Y-48663300D02*
X58270000Y-47760800D01*
X27000000Y-60100000D02*
X25898300Y-61201700D01*
X58270100Y-57245600D02*
X59225700Y-56290000D01*
X9470000Y-57570000D02*
X12000000Y-60100000D01*
%TO.N,Net-(D1-A)*%
X46000000Y-11080000D02*
X46000000Y-9460000D01*
X46000000Y-9460000D02*
X50000000Y-5460000D01*
%TO.N,PC0*%
X85866700Y-46266700D02*
X73930400Y-46266700D01*
X73930400Y-46266700D02*
X72797100Y-47400000D01*
X87000000Y-47400000D02*
X85866700Y-46266700D01*
X72797100Y-47400000D02*
X72000000Y-47400000D01*
%TO.N,PC1*%
X30713600Y-48573600D02*
X29540000Y-47400000D01*
X44540000Y-47400000D02*
X43366400Y-48573600D01*
X43366400Y-48573600D02*
X30713600Y-48573600D01*
%TO.N,PC3*%
X59540000Y-49940000D02*
X58438300Y-48838300D01*
X45641700Y-48838300D02*
X44540000Y-49940000D01*
X58438300Y-48838300D02*
X45641700Y-48838300D01*
%TO.N,PCE*%
X72000000Y-77880000D02*
X73111200Y-78991200D01*
X73111200Y-78991200D02*
X85888800Y-78991200D01*
X85888800Y-78991200D02*
X87000000Y-77880000D01*
%TO.N,RST*%
X120000000Y-6000000D02*
X118270000Y-7730000D01*
X118270000Y-28350000D02*
X117000000Y-29620000D01*
X118270000Y-7730000D02*
X118270000Y-28350000D01*
%TO.N,ZF*%
X30713600Y-61466400D02*
X29540000Y-62640000D01*
X44540000Y-62640000D02*
X43366400Y-61466400D01*
X43366400Y-61466400D02*
X30713600Y-61466400D01*
%TD*%
M02*
