%TF.GenerationSoftware,KiCad,Pcbnew,10.0.5*%
%TF.CreationDate,2026-09-09T10:50:04-04:00*%
%TF.ProjectId,hub,6875622e-6b69-4636-9164-5f7063625858,rev?*%
%TF.SameCoordinates,Original*%
%TF.FileFunction,Soldermask,Bot*%
%TF.FilePolarity,Negative*%
%FSLAX46Y46*%
G04 Gerber Fmt 4.6, Leading zero omitted, Abs format (unit mm)*
G04 Created by KiCad (PCBNEW 10.0.5) date 2026-09-09 10:50:04*
%MOMM*%
%LPD*%
G01*
G04 APERTURE LIST*
G04 Aperture macros list*
%AMRoundRect*
0 Rectangle with rounded corners*
0 $1 Rounding radius*
0 $2 $3 $4 $5 $6 $7 $8 $9 X,Y pos of 4 corners*
0 Add a 4 corners polygon primitive as box body*
4,1,4,$2,$3,$4,$5,$6,$7,$8,$9,$2,$3,0*
0 Add four circle primitives for the rounded corners*
1,1,$1+$1,$2,$3*
1,1,$1+$1,$4,$5*
1,1,$1+$1,$6,$7*
1,1,$1+$1,$8,$9*
0 Add four rect primitives between the rounded corners*
20,1,$1+$1,$2,$3,$4,$5,0*
20,1,$1+$1,$4,$5,$6,$7,0*
20,1,$1+$1,$6,$7,$8,$9,0*
20,1,$1+$1,$8,$9,$2,$3,0*%
G04 Aperture macros list end*
%ADD10C,1.560000*%
%ADD11C,1.600000*%
%ADD12C,2.000000*%
%ADD13RoundRect,0.250000X-0.600000X-0.600000X0.600000X-0.600000X0.600000X0.600000X-0.600000X0.600000X0*%
%ADD14C,1.700000*%
%ADD15C,6.400000*%
%ADD16RoundRect,0.250000X0.600000X-0.600000X0.600000X0.600000X-0.600000X0.600000X-0.600000X-0.600000X0*%
%ADD17C,3.500000*%
%ADD18RoundRect,0.250000X-0.550000X0.550000X-0.550000X-0.550000X0.550000X-0.550000X0.550000X0.550000X0*%
%ADD19R,1.800000X1.800000*%
%ADD20C,1.800000*%
G04 APERTURE END LIST*
D10*
%TO.C,F1*%
X34000000Y-8000000D03*
X39100000Y-9900000D03*
%TD*%
D11*
%TO.C,R1*%
X46000000Y-6000000D03*
X46000000Y-11080000D03*
%TD*%
D12*
%TO.C,TP6*%
X120000000Y-6000000D03*
%TD*%
%TO.C,TP3*%
X102000000Y-6000000D03*
%TD*%
D13*
%TO.C,J8*%
X102000000Y-22000000D03*
D14*
X104540000Y-22000000D03*
X102000000Y-24540000D03*
X104540000Y-24540000D03*
X102000000Y-27080000D03*
X104540000Y-27080000D03*
X102000000Y-29620000D03*
X104540000Y-29620000D03*
X102000000Y-32160000D03*
X104540000Y-32160000D03*
X102000000Y-34700000D03*
X104540000Y-34700000D03*
X102000000Y-37240000D03*
X104540000Y-37240000D03*
X102000000Y-39780000D03*
X104540000Y-39780000D03*
X102000000Y-42320000D03*
X104540000Y-42320000D03*
X102000000Y-44860000D03*
X104540000Y-44860000D03*
X102000000Y-47400000D03*
X104540000Y-47400000D03*
X102000000Y-49940000D03*
X104540000Y-49940000D03*
X102000000Y-52480000D03*
X104540000Y-52480000D03*
X102000000Y-55020000D03*
X104540000Y-55020000D03*
X102000000Y-57560000D03*
X104540000Y-57560000D03*
X102000000Y-60100000D03*
X104540000Y-60100000D03*
X102000000Y-62640000D03*
X104540000Y-62640000D03*
X102000000Y-65180000D03*
X104540000Y-65180000D03*
X102000000Y-67720000D03*
X104540000Y-67720000D03*
X102000000Y-70260000D03*
X104540000Y-70260000D03*
X102000000Y-72800000D03*
X104540000Y-72800000D03*
X102000000Y-75340000D03*
X104540000Y-75340000D03*
X102000000Y-77880000D03*
X104540000Y-77880000D03*
X102000000Y-80420000D03*
X104540000Y-80420000D03*
X102000000Y-82960000D03*
X104540000Y-82960000D03*
%TD*%
D11*
%TO.C,C1*%
X57000000Y-6000000D03*
X57000000Y-8500000D03*
%TD*%
D13*
%TO.C,J4*%
X42000000Y-22000000D03*
D14*
X44540000Y-22000000D03*
X42000000Y-24540000D03*
X44540000Y-24540000D03*
X42000000Y-27080000D03*
X44540000Y-27080000D03*
X42000000Y-29620000D03*
X44540000Y-29620000D03*
X42000000Y-32160000D03*
X44540000Y-32160000D03*
X42000000Y-34700000D03*
X44540000Y-34700000D03*
X42000000Y-37240000D03*
X44540000Y-37240000D03*
X42000000Y-39780000D03*
X44540000Y-39780000D03*
X42000000Y-42320000D03*
X44540000Y-42320000D03*
X42000000Y-44860000D03*
X44540000Y-44860000D03*
X42000000Y-47400000D03*
X44540000Y-47400000D03*
X42000000Y-49940000D03*
X44540000Y-49940000D03*
X42000000Y-52480000D03*
X44540000Y-52480000D03*
X42000000Y-55020000D03*
X44540000Y-55020000D03*
X42000000Y-57560000D03*
X44540000Y-57560000D03*
X42000000Y-60100000D03*
X44540000Y-60100000D03*
X42000000Y-62640000D03*
X44540000Y-62640000D03*
X42000000Y-65180000D03*
X44540000Y-65180000D03*
X42000000Y-67720000D03*
X44540000Y-67720000D03*
X42000000Y-70260000D03*
X44540000Y-70260000D03*
X42000000Y-72800000D03*
X44540000Y-72800000D03*
X42000000Y-75340000D03*
X44540000Y-75340000D03*
X42000000Y-77880000D03*
X44540000Y-77880000D03*
X42000000Y-80420000D03*
X44540000Y-80420000D03*
X42000000Y-82960000D03*
X44540000Y-82960000D03*
%TD*%
D15*
%TO.C,H3*%
X4000000Y-94000000D03*
%TD*%
D12*
%TO.C,TP2*%
X96000000Y-6000000D03*
%TD*%
%TO.C,TP4*%
X108000000Y-6000000D03*
%TD*%
D13*
%TO.C,J3*%
X27000000Y-22000000D03*
D14*
X29540000Y-22000000D03*
X27000000Y-24540000D03*
X29540000Y-24540000D03*
X27000000Y-27080000D03*
X29540000Y-27080000D03*
X27000000Y-29620000D03*
X29540000Y-29620000D03*
X27000000Y-32160000D03*
X29540000Y-32160000D03*
X27000000Y-34700000D03*
X29540000Y-34700000D03*
X27000000Y-37240000D03*
X29540000Y-37240000D03*
X27000000Y-39780000D03*
X29540000Y-39780000D03*
X27000000Y-42320000D03*
X29540000Y-42320000D03*
X27000000Y-44860000D03*
X29540000Y-44860000D03*
X27000000Y-47400000D03*
X29540000Y-47400000D03*
X27000000Y-49940000D03*
X29540000Y-49940000D03*
X27000000Y-52480000D03*
X29540000Y-52480000D03*
X27000000Y-55020000D03*
X29540000Y-55020000D03*
X27000000Y-57560000D03*
X29540000Y-57560000D03*
X27000000Y-60100000D03*
X29540000Y-60100000D03*
X27000000Y-62640000D03*
X29540000Y-62640000D03*
X27000000Y-65180000D03*
X29540000Y-65180000D03*
X27000000Y-67720000D03*
X29540000Y-67720000D03*
X27000000Y-70260000D03*
X29540000Y-70260000D03*
X27000000Y-72800000D03*
X29540000Y-72800000D03*
X27000000Y-75340000D03*
X29540000Y-75340000D03*
X27000000Y-77880000D03*
X29540000Y-77880000D03*
X27000000Y-80420000D03*
X29540000Y-80420000D03*
X27000000Y-82960000D03*
X29540000Y-82960000D03*
%TD*%
D11*
%TO.C,R3*%
X72000000Y-6000000D03*
X72000000Y-11080000D03*
%TD*%
D13*
%TO.C,J2*%
X12000000Y-22000000D03*
D14*
X14540000Y-22000000D03*
X12000000Y-24540000D03*
X14540000Y-24540000D03*
X12000000Y-27080000D03*
X14540000Y-27080000D03*
X12000000Y-29620000D03*
X14540000Y-29620000D03*
X12000000Y-32160000D03*
X14540000Y-32160000D03*
X12000000Y-34700000D03*
X14540000Y-34700000D03*
X12000000Y-37240000D03*
X14540000Y-37240000D03*
X12000000Y-39780000D03*
X14540000Y-39780000D03*
X12000000Y-42320000D03*
X14540000Y-42320000D03*
X12000000Y-44860000D03*
X14540000Y-44860000D03*
X12000000Y-47400000D03*
X14540000Y-47400000D03*
X12000000Y-49940000D03*
X14540000Y-49940000D03*
X12000000Y-52480000D03*
X14540000Y-52480000D03*
X12000000Y-55020000D03*
X14540000Y-55020000D03*
X12000000Y-57560000D03*
X14540000Y-57560000D03*
X12000000Y-60100000D03*
X14540000Y-60100000D03*
X12000000Y-62640000D03*
X14540000Y-62640000D03*
X12000000Y-65180000D03*
X14540000Y-65180000D03*
X12000000Y-67720000D03*
X14540000Y-67720000D03*
X12000000Y-70260000D03*
X14540000Y-70260000D03*
X12000000Y-72800000D03*
X14540000Y-72800000D03*
X12000000Y-75340000D03*
X14540000Y-75340000D03*
X12000000Y-77880000D03*
X14540000Y-77880000D03*
X12000000Y-80420000D03*
X14540000Y-80420000D03*
X12000000Y-82960000D03*
X14540000Y-82960000D03*
%TD*%
D15*
%TO.C,H2*%
X126000000Y-4000000D03*
%TD*%
D13*
%TO.C,J5*%
X57000000Y-22000000D03*
D14*
X59540000Y-22000000D03*
X57000000Y-24540000D03*
X59540000Y-24540000D03*
X57000000Y-27080000D03*
X59540000Y-27080000D03*
X57000000Y-29620000D03*
X59540000Y-29620000D03*
X57000000Y-32160000D03*
X59540000Y-32160000D03*
X57000000Y-34700000D03*
X59540000Y-34700000D03*
X57000000Y-37240000D03*
X59540000Y-37240000D03*
X57000000Y-39780000D03*
X59540000Y-39780000D03*
X57000000Y-42320000D03*
X59540000Y-42320000D03*
X57000000Y-44860000D03*
X59540000Y-44860000D03*
X57000000Y-47400000D03*
X59540000Y-47400000D03*
X57000000Y-49940000D03*
X59540000Y-49940000D03*
X57000000Y-52480000D03*
X59540000Y-52480000D03*
X57000000Y-55020000D03*
X59540000Y-55020000D03*
X57000000Y-57560000D03*
X59540000Y-57560000D03*
X57000000Y-60100000D03*
X59540000Y-60100000D03*
X57000000Y-62640000D03*
X59540000Y-62640000D03*
X57000000Y-65180000D03*
X59540000Y-65180000D03*
X57000000Y-67720000D03*
X59540000Y-67720000D03*
X57000000Y-70260000D03*
X59540000Y-70260000D03*
X57000000Y-72800000D03*
X59540000Y-72800000D03*
X57000000Y-75340000D03*
X59540000Y-75340000D03*
X57000000Y-77880000D03*
X59540000Y-77880000D03*
X57000000Y-80420000D03*
X59540000Y-80420000D03*
X57000000Y-82960000D03*
X59540000Y-82960000D03*
%TD*%
D13*
%TO.C,J6*%
X72000000Y-22000000D03*
D14*
X74540000Y-22000000D03*
X72000000Y-24540000D03*
X74540000Y-24540000D03*
X72000000Y-27080000D03*
X74540000Y-27080000D03*
X72000000Y-29620000D03*
X74540000Y-29620000D03*
X72000000Y-32160000D03*
X74540000Y-32160000D03*
X72000000Y-34700000D03*
X74540000Y-34700000D03*
X72000000Y-37240000D03*
X74540000Y-37240000D03*
X72000000Y-39780000D03*
X74540000Y-39780000D03*
X72000000Y-42320000D03*
X74540000Y-42320000D03*
X72000000Y-44860000D03*
X74540000Y-44860000D03*
X72000000Y-47400000D03*
X74540000Y-47400000D03*
X72000000Y-49940000D03*
X74540000Y-49940000D03*
X72000000Y-52480000D03*
X74540000Y-52480000D03*
X72000000Y-55020000D03*
X74540000Y-55020000D03*
X72000000Y-57560000D03*
X74540000Y-57560000D03*
X72000000Y-60100000D03*
X74540000Y-60100000D03*
X72000000Y-62640000D03*
X74540000Y-62640000D03*
X72000000Y-65180000D03*
X74540000Y-65180000D03*
X72000000Y-67720000D03*
X74540000Y-67720000D03*
X72000000Y-70260000D03*
X74540000Y-70260000D03*
X72000000Y-72800000D03*
X74540000Y-72800000D03*
X72000000Y-75340000D03*
X74540000Y-75340000D03*
X72000000Y-77880000D03*
X74540000Y-77880000D03*
X72000000Y-80420000D03*
X74540000Y-80420000D03*
X72000000Y-82960000D03*
X74540000Y-82960000D03*
%TD*%
D16*
%TO.C,J1*%
X18000000Y-14000000D03*
D14*
X20500000Y-14000000D03*
X20500000Y-12000000D03*
X18000000Y-12000000D03*
D17*
X13230000Y-9290000D03*
X25270000Y-9290000D03*
%TD*%
D13*
%TO.C,J9*%
X117000000Y-22000000D03*
D14*
X119540000Y-22000000D03*
X117000000Y-24540000D03*
X119540000Y-24540000D03*
X117000000Y-27080000D03*
X119540000Y-27080000D03*
X117000000Y-29620000D03*
X119540000Y-29620000D03*
X117000000Y-32160000D03*
X119540000Y-32160000D03*
X117000000Y-34700000D03*
X119540000Y-34700000D03*
X117000000Y-37240000D03*
X119540000Y-37240000D03*
X117000000Y-39780000D03*
X119540000Y-39780000D03*
X117000000Y-42320000D03*
X119540000Y-42320000D03*
X117000000Y-44860000D03*
X119540000Y-44860000D03*
X117000000Y-47400000D03*
X119540000Y-47400000D03*
X117000000Y-49940000D03*
X119540000Y-49940000D03*
X117000000Y-52480000D03*
X119540000Y-52480000D03*
X117000000Y-55020000D03*
X119540000Y-55020000D03*
X117000000Y-57560000D03*
X119540000Y-57560000D03*
X117000000Y-60100000D03*
X119540000Y-60100000D03*
X117000000Y-62640000D03*
X119540000Y-62640000D03*
X117000000Y-65180000D03*
X119540000Y-65180000D03*
X117000000Y-67720000D03*
X119540000Y-67720000D03*
X117000000Y-70260000D03*
X119540000Y-70260000D03*
X117000000Y-72800000D03*
X119540000Y-72800000D03*
X117000000Y-75340000D03*
X119540000Y-75340000D03*
X117000000Y-77880000D03*
X119540000Y-77880000D03*
X117000000Y-80420000D03*
X119540000Y-80420000D03*
X117000000Y-82960000D03*
X119540000Y-82960000D03*
%TD*%
D12*
%TO.C,TP5*%
X114000000Y-6000000D03*
%TD*%
%TO.C,TP1*%
X90000000Y-6000000D03*
%TD*%
D13*
%TO.C,J7*%
X87000000Y-22000000D03*
D14*
X89540000Y-22000000D03*
X87000000Y-24540000D03*
X89540000Y-24540000D03*
X87000000Y-27080000D03*
X89540000Y-27080000D03*
X87000000Y-29620000D03*
X89540000Y-29620000D03*
X87000000Y-32160000D03*
X89540000Y-32160000D03*
X87000000Y-34700000D03*
X89540000Y-34700000D03*
X87000000Y-37240000D03*
X89540000Y-37240000D03*
X87000000Y-39780000D03*
X89540000Y-39780000D03*
X87000000Y-42320000D03*
X89540000Y-42320000D03*
X87000000Y-44860000D03*
X89540000Y-44860000D03*
X87000000Y-47400000D03*
X89540000Y-47400000D03*
X87000000Y-49940000D03*
X89540000Y-49940000D03*
X87000000Y-52480000D03*
X89540000Y-52480000D03*
X87000000Y-55020000D03*
X89540000Y-55020000D03*
X87000000Y-57560000D03*
X89540000Y-57560000D03*
X87000000Y-60100000D03*
X89540000Y-60100000D03*
X87000000Y-62640000D03*
X89540000Y-62640000D03*
X87000000Y-65180000D03*
X89540000Y-65180000D03*
X87000000Y-67720000D03*
X89540000Y-67720000D03*
X87000000Y-70260000D03*
X89540000Y-70260000D03*
X87000000Y-72800000D03*
X89540000Y-72800000D03*
X87000000Y-75340000D03*
X89540000Y-75340000D03*
X87000000Y-77880000D03*
X89540000Y-77880000D03*
X87000000Y-80420000D03*
X89540000Y-80420000D03*
X87000000Y-82960000D03*
X89540000Y-82960000D03*
%TD*%
D11*
%TO.C,R2*%
X68000000Y-6000000D03*
X68000000Y-11080000D03*
%TD*%
D15*
%TO.C,H1*%
X4000000Y-4000000D03*
%TD*%
D18*
%TO.C,C2*%
X62000000Y-7000000D03*
D11*
X62000000Y-9000000D03*
%TD*%
D19*
%TO.C,D1*%
X50000000Y-8000000D03*
D20*
X50000000Y-5460000D03*
%TD*%
D11*
%TO.C,R4*%
X76000000Y-6000000D03*
X76000000Y-11080000D03*
%TD*%
%TO.C,R5*%
X80000000Y-6000000D03*
X80000000Y-11080000D03*
%TD*%
D15*
%TO.C,H4*%
X126000000Y-94000000D03*
%TD*%
M02*
