%TF.GenerationSoftware,KiCad,Pcbnew,10.0.5*%
%TF.CreationDate,2026-09-10T16:58:45-04:00*%
%TF.ProjectId,hub,6875622e-6b69-4636-9164-5f7063625858,rev?*%
%TF.SameCoordinates,Original*%
%TF.FileFunction,Copper,L1,Top*%
%TF.FilePolarity,Positive*%
%FSLAX46Y46*%
G04 Gerber Fmt 4.6, Leading zero omitted, Abs format (unit mm)*
G04 Created by KiCad (PCBNEW 10.0.5) date 2026-09-10 16:58:45*
%MOMM*%
%LPD*%
G01*
G04 APERTURE LIST*
G04 Aperture macros list*
%AMRoundRect*
0 Rectangle with rounded corners*
0 $1 Rounding radius*
0 $2 $3 $4 $5 $6 $7 $8 $9 X,Y pos of 4 corners*
0 Add a 4 corners polygon primitive as box body*
4,1,4,$2,$3,$4,$5,$6,$7,$8,$9,$2,$3,0*
0 Add four circle primitives for the rounded corners*
1,1,$1+$1,$2,$3*
1,1,$1+$1,$4,$5*
1,1,$1+$1,$6,$7*
1,1,$1+$1,$8,$9*
0 Add four rect primitives between the rounded corners*
20,1,$1+$1,$2,$3,$4,$5,0*
20,1,$1+$1,$4,$5,$6,$7,0*
20,1,$1+$1,$6,$7,$8,$9,0*
20,1,$1+$1,$8,$9,$2,$3,0*%
G04 Aperture macros list end*
%TA.AperFunction,ComponentPad*%
%ADD10C,2.000000*%
%TD*%
%TA.AperFunction,ComponentPad*%
%ADD11C,1.600000*%
%TD*%
%TA.AperFunction,ComponentPad*%
%ADD12RoundRect,0.250000X-0.600000X-0.600000X0.600000X-0.600000X0.600000X0.600000X-0.600000X0.600000X0*%
%TD*%
%TA.AperFunction,ComponentPad*%
%ADD13C,1.700000*%
%TD*%
%TA.AperFunction,ComponentPad*%
%ADD14C,6.400000*%
%TD*%
%TA.AperFunction,ComponentPad*%
%ADD15RoundRect,0.250000X0.600000X-0.600000X0.600000X0.600000X-0.600000X0.600000X-0.600000X-0.600000X0*%
%TD*%
%TA.AperFunction,ComponentPad*%
%ADD16C,3.500000*%
%TD*%
%TA.AperFunction,ComponentPad*%
%ADD17RoundRect,0.250000X-0.550000X0.550000X-0.550000X-0.550000X0.550000X-0.550000X0.550000X0.550000X0*%
%TD*%
%TA.AperFunction,ComponentPad*%
%ADD18C,1.560000*%
%TD*%
%TA.AperFunction,ComponentPad*%
%ADD19R,1.800000X1.800000*%
%TD*%
%TA.AperFunction,ComponentPad*%
%ADD20C,1.800000*%
%TD*%
%TA.AperFunction,ViaPad*%
%ADD21C,0.800000*%
%TD*%
%TA.AperFunction,Conductor*%
%ADD22C,0.200000*%
%TD*%
%TA.AperFunction,Conductor*%
%ADD23C,0.500000*%
%TD*%
%TA.AperFunction,Conductor*%
%ADD24C,0.800000*%
%TD*%
G04 APERTURE END LIST*
D10*
%TO.P,TP3,1*%
%TO.N,BUS2#*%
X132000000Y-7000000D03*
%TD*%
D11*
%TO.P,R9,1*%
%TO.N,M3*%
X98000000Y-6000000D03*
%TO.P,R9,2*%
%TO.N,GND*%
X98000000Y-11080000D03*
%TD*%
D12*
%TO.P,J6,1*%
%TO.N,+5V*%
X72000000Y-22000000D03*
D13*
%TO.P,J6,2*%
X74540000Y-22000000D03*
%TO.P,J6,3*%
%TO.N,GND*%
X72000000Y-24540000D03*
%TO.P,J6,4*%
X74540000Y-24540000D03*
%TO.P,J6,5*%
%TO.N,CLK*%
X72000000Y-27080000D03*
%TO.P,J6,6*%
%TO.N,GND*%
X74540000Y-27080000D03*
%TO.P,J6,7*%
%TO.N,RST*%
X72000000Y-29620000D03*
%TO.P,J6,8*%
%TO.N,GND*%
X74540000Y-29620000D03*
%TO.P,J6,9*%
%TO.N,BUS0#*%
X72000000Y-32160000D03*
%TO.P,J6,10*%
%TO.N,BUS1#*%
X74540000Y-32160000D03*
%TO.P,J6,11*%
%TO.N,BUS2#*%
X72000000Y-34700000D03*
%TO.P,J6,12*%
%TO.N,BUS3#*%
X74540000Y-34700000D03*
%TO.P,J6,13*%
%TO.N,A0*%
X72000000Y-37240000D03*
%TO.P,J6,14*%
%TO.N,A1*%
X74540000Y-37240000D03*
%TO.P,J6,15*%
%TO.N,A2*%
X72000000Y-39780000D03*
%TO.P,J6,16*%
%TO.N,A3*%
X74540000Y-39780000D03*
%TO.P,J6,17*%
%TO.N,B0*%
X72000000Y-42320000D03*
%TO.P,J6,18*%
%TO.N,B1*%
X74540000Y-42320000D03*
%TO.P,J6,19*%
%TO.N,B2*%
X72000000Y-44860000D03*
%TO.P,J6,20*%
%TO.N,B3*%
X74540000Y-44860000D03*
%TO.P,J6,21*%
%TO.N,PC0*%
X72000000Y-47400000D03*
%TO.P,J6,22*%
%TO.N,PC1*%
X74540000Y-47400000D03*
%TO.P,J6,23*%
%TO.N,PC2*%
X72000000Y-49940000D03*
%TO.P,J6,24*%
%TO.N,PC3*%
X74540000Y-49940000D03*
%TO.P,J6,25*%
%TO.N,PC4*%
X72000000Y-52480000D03*
%TO.P,J6,26*%
%TO.N,PC5*%
X74540000Y-52480000D03*
%TO.P,J6,27*%
%TO.N,PC6*%
X72000000Y-55020000D03*
%TO.P,J6,28*%
%TO.N,PC7*%
X74540000Y-55020000D03*
%TO.P,J6,29*%
%TO.N,M0*%
X72000000Y-57560000D03*
%TO.P,J6,30*%
%TO.N,M1*%
X74540000Y-57560000D03*
%TO.P,J6,31*%
%TO.N,M2*%
X72000000Y-60100000D03*
%TO.P,J6,32*%
%TO.N,M3*%
X74540000Y-60100000D03*
%TO.P,J6,33*%
%TO.N,M4*%
X72000000Y-62640000D03*
%TO.P,J6,34*%
%TO.N,M5*%
X74540000Y-62640000D03*
%TO.P,J6,35*%
%TO.N,M6*%
X72000000Y-65180000D03*
%TO.P,J6,36*%
%TO.N,M7*%
X74540000Y-65180000D03*
%TO.P,J6,37*%
%TO.N,CF*%
X72000000Y-67720000D03*
%TO.P,J6,38*%
%TO.N,ZF*%
X74540000Y-67720000D03*
%TO.P,J6,39*%
%TO.N,SUB*%
X72000000Y-70260000D03*
%TO.P,J6,40*%
%TO.N,EO*%
X74540000Y-70260000D03*
%TO.P,J6,41*%
%TO.N,AI*%
X72000000Y-72800000D03*
%TO.P,J6,42*%
%TO.N,AO*%
X74540000Y-72800000D03*
%TO.P,J6,43*%
%TO.N,BI*%
X72000000Y-75340000D03*
%TO.P,J6,44*%
%TO.N,BO*%
X74540000Y-75340000D03*
%TO.P,J6,45*%
%TO.N,BA*%
X72000000Y-77880000D03*
%TO.P,J6,46*%
%TO.N,AB*%
X74540000Y-77880000D03*
%TO.P,J6,47*%
%TO.N,OI*%
X72000000Y-80420000D03*
%TO.P,J6,48*%
%TO.N,IO*%
X74540000Y-80420000D03*
%TO.P,J6,49*%
%TO.N,II*%
X72000000Y-82960000D03*
%TO.P,J6,50*%
%TO.N,PCE*%
X74540000Y-82960000D03*
%TO.P,J6,51*%
%TO.N,PCL*%
X72000000Y-85500000D03*
%TO.P,J6,52*%
%TO.N,FI*%
X74540000Y-85500000D03*
%TO.P,J6,53*%
%TO.N,HLT*%
X72000000Y-88040000D03*
%TO.P,J6,54*%
%TO.N,MAI*%
X74540000Y-88040000D03*
%TO.P,J6,55*%
%TO.N,MI*%
X72000000Y-90580000D03*
%TO.P,J6,56*%
%TO.N,MO*%
X74540000Y-90580000D03*
%TO.P,J6,57*%
%TO.N,WRL*%
X72000000Y-93120000D03*
%TO.P,J6,58*%
%TO.N,WRH*%
X74540000Y-93120000D03*
%TO.P,J6,59*%
%TO.N,ONE*%
X72000000Y-95660000D03*
%TO.P,J6,60*%
%TO.N,F0*%
X74540000Y-95660000D03*
%TO.P,J6,61*%
%TO.N,F1*%
X72000000Y-98200000D03*
%TO.P,J6,62*%
%TO.N,INP*%
X74540000Y-98200000D03*
%TO.P,J6,63*%
%TO.N,+5V*%
X72000000Y-100740000D03*
%TO.P,J6,64*%
%TO.N,GND*%
X74540000Y-100740000D03*
%TD*%
D11*
%TO.P,R3,1*%
%TO.N,+5V*%
X72000000Y-6000000D03*
%TO.P,R3,2*%
%TO.N,BUS1#*%
X72000000Y-11080000D03*
%TD*%
D14*
%TO.P,H1,1*%
%TO.N,N/C*%
X4000000Y-4000000D03*
%TD*%
D11*
%TO.P,R12,1*%
%TO.N,M6*%
X110000000Y-6000000D03*
%TO.P,R12,2*%
%TO.N,GND*%
X110000000Y-11080000D03*
%TD*%
D12*
%TO.P,J3,1*%
%TO.N,+5V*%
X27000000Y-22000000D03*
D13*
%TO.P,J3,2*%
X29540000Y-22000000D03*
%TO.P,J3,3*%
%TO.N,GND*%
X27000000Y-24540000D03*
%TO.P,J3,4*%
X29540000Y-24540000D03*
%TO.P,J3,5*%
%TO.N,CLK*%
X27000000Y-27080000D03*
%TO.P,J3,6*%
%TO.N,GND*%
X29540000Y-27080000D03*
%TO.P,J3,7*%
%TO.N,RST*%
X27000000Y-29620000D03*
%TO.P,J3,8*%
%TO.N,GND*%
X29540000Y-29620000D03*
%TO.P,J3,9*%
%TO.N,BUS0#*%
X27000000Y-32160000D03*
%TO.P,J3,10*%
%TO.N,BUS1#*%
X29540000Y-32160000D03*
%TO.P,J3,11*%
%TO.N,BUS2#*%
X27000000Y-34700000D03*
%TO.P,J3,12*%
%TO.N,BUS3#*%
X29540000Y-34700000D03*
%TO.P,J3,13*%
%TO.N,A0*%
X27000000Y-37240000D03*
%TO.P,J3,14*%
%TO.N,A1*%
X29540000Y-37240000D03*
%TO.P,J3,15*%
%TO.N,A2*%
X27000000Y-39780000D03*
%TO.P,J3,16*%
%TO.N,A3*%
X29540000Y-39780000D03*
%TO.P,J3,17*%
%TO.N,B0*%
X27000000Y-42320000D03*
%TO.P,J3,18*%
%TO.N,B1*%
X29540000Y-42320000D03*
%TO.P,J3,19*%
%TO.N,B2*%
X27000000Y-44860000D03*
%TO.P,J3,20*%
%TO.N,B3*%
X29540000Y-44860000D03*
%TO.P,J3,21*%
%TO.N,PC0*%
X27000000Y-47400000D03*
%TO.P,J3,22*%
%TO.N,PC1*%
X29540000Y-47400000D03*
%TO.P,J3,23*%
%TO.N,PC2*%
X27000000Y-49940000D03*
%TO.P,J3,24*%
%TO.N,PC3*%
X29540000Y-49940000D03*
%TO.P,J3,25*%
%TO.N,PC4*%
X27000000Y-52480000D03*
%TO.P,J3,26*%
%TO.N,PC5*%
X29540000Y-52480000D03*
%TO.P,J3,27*%
%TO.N,PC6*%
X27000000Y-55020000D03*
%TO.P,J3,28*%
%TO.N,PC7*%
X29540000Y-55020000D03*
%TO.P,J3,29*%
%TO.N,M0*%
X27000000Y-57560000D03*
%TO.P,J3,30*%
%TO.N,M1*%
X29540000Y-57560000D03*
%TO.P,J3,31*%
%TO.N,M2*%
X27000000Y-60100000D03*
%TO.P,J3,32*%
%TO.N,M3*%
X29540000Y-60100000D03*
%TO.P,J3,33*%
%TO.N,M4*%
X27000000Y-62640000D03*
%TO.P,J3,34*%
%TO.N,M5*%
X29540000Y-62640000D03*
%TO.P,J3,35*%
%TO.N,M6*%
X27000000Y-65180000D03*
%TO.P,J3,36*%
%TO.N,M7*%
X29540000Y-65180000D03*
%TO.P,J3,37*%
%TO.N,CF*%
X27000000Y-67720000D03*
%TO.P,J3,38*%
%TO.N,ZF*%
X29540000Y-67720000D03*
%TO.P,J3,39*%
%TO.N,SUB*%
X27000000Y-70260000D03*
%TO.P,J3,40*%
%TO.N,EO*%
X29540000Y-70260000D03*
%TO.P,J3,41*%
%TO.N,AI*%
X27000000Y-72800000D03*
%TO.P,J3,42*%
%TO.N,AO*%
X29540000Y-72800000D03*
%TO.P,J3,43*%
%TO.N,BI*%
X27000000Y-75340000D03*
%TO.P,J3,44*%
%TO.N,BO*%
X29540000Y-75340000D03*
%TO.P,J3,45*%
%TO.N,BA*%
X27000000Y-77880000D03*
%TO.P,J3,46*%
%TO.N,AB*%
X29540000Y-77880000D03*
%TO.P,J3,47*%
%TO.N,OI*%
X27000000Y-80420000D03*
%TO.P,J3,48*%
%TO.N,IO*%
X29540000Y-80420000D03*
%TO.P,J3,49*%
%TO.N,II*%
X27000000Y-82960000D03*
%TO.P,J3,50*%
%TO.N,PCE*%
X29540000Y-82960000D03*
%TO.P,J3,51*%
%TO.N,PCL*%
X27000000Y-85500000D03*
%TO.P,J3,52*%
%TO.N,FI*%
X29540000Y-85500000D03*
%TO.P,J3,53*%
%TO.N,HLT*%
X27000000Y-88040000D03*
%TO.P,J3,54*%
%TO.N,MAI*%
X29540000Y-88040000D03*
%TO.P,J3,55*%
%TO.N,MI*%
X27000000Y-90580000D03*
%TO.P,J3,56*%
%TO.N,MO*%
X29540000Y-90580000D03*
%TO.P,J3,57*%
%TO.N,WRL*%
X27000000Y-93120000D03*
%TO.P,J3,58*%
%TO.N,WRH*%
X29540000Y-93120000D03*
%TO.P,J3,59*%
%TO.N,ONE*%
X27000000Y-95660000D03*
%TO.P,J3,60*%
%TO.N,F0*%
X29540000Y-95660000D03*
%TO.P,J3,61*%
%TO.N,F1*%
X27000000Y-98200000D03*
%TO.P,J3,62*%
%TO.N,INP*%
X29540000Y-98200000D03*
%TO.P,J3,63*%
%TO.N,+5V*%
X27000000Y-100740000D03*
%TO.P,J3,64*%
%TO.N,GND*%
X29540000Y-100740000D03*
%TD*%
D10*
%TO.P,TP4,1*%
%TO.N,BUS3#*%
X120000000Y-13000000D03*
%TD*%
D15*
%TO.P,J1,1*%
%TO.N,VBUS*%
X18000000Y-14000000D03*
D13*
%TO.P,J1,2*%
%TO.N,unconnected-(J1-D--Pad2)*%
X20500000Y-14000000D03*
%TO.P,J1,3*%
%TO.N,unconnected-(J1-D+-Pad3)*%
X20500000Y-12000000D03*
%TO.P,J1,4*%
%TO.N,GND*%
X18000000Y-12000000D03*
D16*
%TO.P,J1,SH*%
X13230000Y-9290000D03*
X25270000Y-9290000D03*
%TD*%
D11*
%TO.P,R11,1*%
%TO.N,M5*%
X106000000Y-6000000D03*
%TO.P,R11,2*%
%TO.N,GND*%
X106000000Y-11080000D03*
%TD*%
D10*
%TO.P,TP2,1*%
%TO.N,BUS1#*%
X126000000Y-7000000D03*
%TD*%
D12*
%TO.P,J8,1*%
%TO.N,+5V*%
X102000000Y-22000000D03*
D13*
%TO.P,J8,2*%
X104540000Y-22000000D03*
%TO.P,J8,3*%
%TO.N,GND*%
X102000000Y-24540000D03*
%TO.P,J8,4*%
X104540000Y-24540000D03*
%TO.P,J8,5*%
%TO.N,CLK*%
X102000000Y-27080000D03*
%TO.P,J8,6*%
%TO.N,GND*%
X104540000Y-27080000D03*
%TO.P,J8,7*%
%TO.N,RST*%
X102000000Y-29620000D03*
%TO.P,J8,8*%
%TO.N,GND*%
X104540000Y-29620000D03*
%TO.P,J8,9*%
%TO.N,BUS0#*%
X102000000Y-32160000D03*
%TO.P,J8,10*%
%TO.N,BUS1#*%
X104540000Y-32160000D03*
%TO.P,J8,11*%
%TO.N,BUS2#*%
X102000000Y-34700000D03*
%TO.P,J8,12*%
%TO.N,BUS3#*%
X104540000Y-34700000D03*
%TO.P,J8,13*%
%TO.N,A0*%
X102000000Y-37240000D03*
%TO.P,J8,14*%
%TO.N,A1*%
X104540000Y-37240000D03*
%TO.P,J8,15*%
%TO.N,A2*%
X102000000Y-39780000D03*
%TO.P,J8,16*%
%TO.N,A3*%
X104540000Y-39780000D03*
%TO.P,J8,17*%
%TO.N,B0*%
X102000000Y-42320000D03*
%TO.P,J8,18*%
%TO.N,B1*%
X104540000Y-42320000D03*
%TO.P,J8,19*%
%TO.N,B2*%
X102000000Y-44860000D03*
%TO.P,J8,20*%
%TO.N,B3*%
X104540000Y-44860000D03*
%TO.P,J8,21*%
%TO.N,PC0*%
X102000000Y-47400000D03*
%TO.P,J8,22*%
%TO.N,PC1*%
X104540000Y-47400000D03*
%TO.P,J8,23*%
%TO.N,PC2*%
X102000000Y-49940000D03*
%TO.P,J8,24*%
%TO.N,PC3*%
X104540000Y-49940000D03*
%TO.P,J8,25*%
%TO.N,PC4*%
X102000000Y-52480000D03*
%TO.P,J8,26*%
%TO.N,PC5*%
X104540000Y-52480000D03*
%TO.P,J8,27*%
%TO.N,PC6*%
X102000000Y-55020000D03*
%TO.P,J8,28*%
%TO.N,PC7*%
X104540000Y-55020000D03*
%TO.P,J8,29*%
%TO.N,M0*%
X102000000Y-57560000D03*
%TO.P,J8,30*%
%TO.N,M1*%
X104540000Y-57560000D03*
%TO.P,J8,31*%
%TO.N,M2*%
X102000000Y-60100000D03*
%TO.P,J8,32*%
%TO.N,M3*%
X104540000Y-60100000D03*
%TO.P,J8,33*%
%TO.N,M4*%
X102000000Y-62640000D03*
%TO.P,J8,34*%
%TO.N,M5*%
X104540000Y-62640000D03*
%TO.P,J8,35*%
%TO.N,M6*%
X102000000Y-65180000D03*
%TO.P,J8,36*%
%TO.N,M7*%
X104540000Y-65180000D03*
%TO.P,J8,37*%
%TO.N,CF*%
X102000000Y-67720000D03*
%TO.P,J8,38*%
%TO.N,ZF*%
X104540000Y-67720000D03*
%TO.P,J8,39*%
%TO.N,SUB*%
X102000000Y-70260000D03*
%TO.P,J8,40*%
%TO.N,EO*%
X104540000Y-70260000D03*
%TO.P,J8,41*%
%TO.N,AI*%
X102000000Y-72800000D03*
%TO.P,J8,42*%
%TO.N,AO*%
X104540000Y-72800000D03*
%TO.P,J8,43*%
%TO.N,BI*%
X102000000Y-75340000D03*
%TO.P,J8,44*%
%TO.N,BO*%
X104540000Y-75340000D03*
%TO.P,J8,45*%
%TO.N,BA*%
X102000000Y-77880000D03*
%TO.P,J8,46*%
%TO.N,AB*%
X104540000Y-77880000D03*
%TO.P,J8,47*%
%TO.N,OI*%
X102000000Y-80420000D03*
%TO.P,J8,48*%
%TO.N,IO*%
X104540000Y-80420000D03*
%TO.P,J8,49*%
%TO.N,II*%
X102000000Y-82960000D03*
%TO.P,J8,50*%
%TO.N,PCE*%
X104540000Y-82960000D03*
%TO.P,J8,51*%
%TO.N,PCL*%
X102000000Y-85500000D03*
%TO.P,J8,52*%
%TO.N,FI*%
X104540000Y-85500000D03*
%TO.P,J8,53*%
%TO.N,HLT*%
X102000000Y-88040000D03*
%TO.P,J8,54*%
%TO.N,MAI*%
X104540000Y-88040000D03*
%TO.P,J8,55*%
%TO.N,MI*%
X102000000Y-90580000D03*
%TO.P,J8,56*%
%TO.N,MO*%
X104540000Y-90580000D03*
%TO.P,J8,57*%
%TO.N,WRL*%
X102000000Y-93120000D03*
%TO.P,J8,58*%
%TO.N,WRH*%
X104540000Y-93120000D03*
%TO.P,J8,59*%
%TO.N,ONE*%
X102000000Y-95660000D03*
%TO.P,J8,60*%
%TO.N,F0*%
X104540000Y-95660000D03*
%TO.P,J8,61*%
%TO.N,F1*%
X102000000Y-98200000D03*
%TO.P,J8,62*%
%TO.N,INP*%
X104540000Y-98200000D03*
%TO.P,J8,63*%
%TO.N,+5V*%
X102000000Y-100740000D03*
%TO.P,J8,64*%
%TO.N,GND*%
X104540000Y-100740000D03*
%TD*%
D10*
%TO.P,TP1,1*%
%TO.N,BUS0#*%
X120000000Y-7000000D03*
%TD*%
D12*
%TO.P,J5,1*%
%TO.N,+5V*%
X57000000Y-22000000D03*
D13*
%TO.P,J5,2*%
X59540000Y-22000000D03*
%TO.P,J5,3*%
%TO.N,GND*%
X57000000Y-24540000D03*
%TO.P,J5,4*%
X59540000Y-24540000D03*
%TO.P,J5,5*%
%TO.N,CLK*%
X57000000Y-27080000D03*
%TO.P,J5,6*%
%TO.N,GND*%
X59540000Y-27080000D03*
%TO.P,J5,7*%
%TO.N,RST*%
X57000000Y-29620000D03*
%TO.P,J5,8*%
%TO.N,GND*%
X59540000Y-29620000D03*
%TO.P,J5,9*%
%TO.N,BUS0#*%
X57000000Y-32160000D03*
%TO.P,J5,10*%
%TO.N,BUS1#*%
X59540000Y-32160000D03*
%TO.P,J5,11*%
%TO.N,BUS2#*%
X57000000Y-34700000D03*
%TO.P,J5,12*%
%TO.N,BUS3#*%
X59540000Y-34700000D03*
%TO.P,J5,13*%
%TO.N,A0*%
X57000000Y-37240000D03*
%TO.P,J5,14*%
%TO.N,A1*%
X59540000Y-37240000D03*
%TO.P,J5,15*%
%TO.N,A2*%
X57000000Y-39780000D03*
%TO.P,J5,16*%
%TO.N,A3*%
X59540000Y-39780000D03*
%TO.P,J5,17*%
%TO.N,B0*%
X57000000Y-42320000D03*
%TO.P,J5,18*%
%TO.N,B1*%
X59540000Y-42320000D03*
%TO.P,J5,19*%
%TO.N,B2*%
X57000000Y-44860000D03*
%TO.P,J5,20*%
%TO.N,B3*%
X59540000Y-44860000D03*
%TO.P,J5,21*%
%TO.N,PC0*%
X57000000Y-47400000D03*
%TO.P,J5,22*%
%TO.N,PC1*%
X59540000Y-47400000D03*
%TO.P,J5,23*%
%TO.N,PC2*%
X57000000Y-49940000D03*
%TO.P,J5,24*%
%TO.N,PC3*%
X59540000Y-49940000D03*
%TO.P,J5,25*%
%TO.N,PC4*%
X57000000Y-52480000D03*
%TO.P,J5,26*%
%TO.N,PC5*%
X59540000Y-52480000D03*
%TO.P,J5,27*%
%TO.N,PC6*%
X57000000Y-55020000D03*
%TO.P,J5,28*%
%TO.N,PC7*%
X59540000Y-55020000D03*
%TO.P,J5,29*%
%TO.N,M0*%
X57000000Y-57560000D03*
%TO.P,J5,30*%
%TO.N,M1*%
X59540000Y-57560000D03*
%TO.P,J5,31*%
%TO.N,M2*%
X57000000Y-60100000D03*
%TO.P,J5,32*%
%TO.N,M3*%
X59540000Y-60100000D03*
%TO.P,J5,33*%
%TO.N,M4*%
X57000000Y-62640000D03*
%TO.P,J5,34*%
%TO.N,M5*%
X59540000Y-62640000D03*
%TO.P,J5,35*%
%TO.N,M6*%
X57000000Y-65180000D03*
%TO.P,J5,36*%
%TO.N,M7*%
X59540000Y-65180000D03*
%TO.P,J5,37*%
%TO.N,CF*%
X57000000Y-67720000D03*
%TO.P,J5,38*%
%TO.N,ZF*%
X59540000Y-67720000D03*
%TO.P,J5,39*%
%TO.N,SUB*%
X57000000Y-70260000D03*
%TO.P,J5,40*%
%TO.N,EO*%
X59540000Y-70260000D03*
%TO.P,J5,41*%
%TO.N,AI*%
X57000000Y-72800000D03*
%TO.P,J5,42*%
%TO.N,AO*%
X59540000Y-72800000D03*
%TO.P,J5,43*%
%TO.N,BI*%
X57000000Y-75340000D03*
%TO.P,J5,44*%
%TO.N,BO*%
X59540000Y-75340000D03*
%TO.P,J5,45*%
%TO.N,BA*%
X57000000Y-77880000D03*
%TO.P,J5,46*%
%TO.N,AB*%
X59540000Y-77880000D03*
%TO.P,J5,47*%
%TO.N,OI*%
X57000000Y-80420000D03*
%TO.P,J5,48*%
%TO.N,IO*%
X59540000Y-80420000D03*
%TO.P,J5,49*%
%TO.N,II*%
X57000000Y-82960000D03*
%TO.P,J5,50*%
%TO.N,PCE*%
X59540000Y-82960000D03*
%TO.P,J5,51*%
%TO.N,PCL*%
X57000000Y-85500000D03*
%TO.P,J5,52*%
%TO.N,FI*%
X59540000Y-85500000D03*
%TO.P,J5,53*%
%TO.N,HLT*%
X57000000Y-88040000D03*
%TO.P,J5,54*%
%TO.N,MAI*%
X59540000Y-88040000D03*
%TO.P,J5,55*%
%TO.N,MI*%
X57000000Y-90580000D03*
%TO.P,J5,56*%
%TO.N,MO*%
X59540000Y-90580000D03*
%TO.P,J5,57*%
%TO.N,WRL*%
X57000000Y-93120000D03*
%TO.P,J5,58*%
%TO.N,WRH*%
X59540000Y-93120000D03*
%TO.P,J5,59*%
%TO.N,ONE*%
X57000000Y-95660000D03*
%TO.P,J5,60*%
%TO.N,F0*%
X59540000Y-95660000D03*
%TO.P,J5,61*%
%TO.N,F1*%
X57000000Y-98200000D03*
%TO.P,J5,62*%
%TO.N,INP*%
X59540000Y-98200000D03*
%TO.P,J5,63*%
%TO.N,+5V*%
X57000000Y-100740000D03*
%TO.P,J5,64*%
%TO.N,GND*%
X59540000Y-100740000D03*
%TD*%
D11*
%TO.P,R5,1*%
%TO.N,+5V*%
X80000000Y-6000000D03*
%TO.P,R5,2*%
%TO.N,BUS3#*%
X80000000Y-11080000D03*
%TD*%
D12*
%TO.P,J4,1*%
%TO.N,+5V*%
X42000000Y-22000000D03*
D13*
%TO.P,J4,2*%
X44540000Y-22000000D03*
%TO.P,J4,3*%
%TO.N,GND*%
X42000000Y-24540000D03*
%TO.P,J4,4*%
X44540000Y-24540000D03*
%TO.P,J4,5*%
%TO.N,CLK*%
X42000000Y-27080000D03*
%TO.P,J4,6*%
%TO.N,GND*%
X44540000Y-27080000D03*
%TO.P,J4,7*%
%TO.N,RST*%
X42000000Y-29620000D03*
%TO.P,J4,8*%
%TO.N,GND*%
X44540000Y-29620000D03*
%TO.P,J4,9*%
%TO.N,BUS0#*%
X42000000Y-32160000D03*
%TO.P,J4,10*%
%TO.N,BUS1#*%
X44540000Y-32160000D03*
%TO.P,J4,11*%
%TO.N,BUS2#*%
X42000000Y-34700000D03*
%TO.P,J4,12*%
%TO.N,BUS3#*%
X44540000Y-34700000D03*
%TO.P,J4,13*%
%TO.N,A0*%
X42000000Y-37240000D03*
%TO.P,J4,14*%
%TO.N,A1*%
X44540000Y-37240000D03*
%TO.P,J4,15*%
%TO.N,A2*%
X42000000Y-39780000D03*
%TO.P,J4,16*%
%TO.N,A3*%
X44540000Y-39780000D03*
%TO.P,J4,17*%
%TO.N,B0*%
X42000000Y-42320000D03*
%TO.P,J4,18*%
%TO.N,B1*%
X44540000Y-42320000D03*
%TO.P,J4,19*%
%TO.N,B2*%
X42000000Y-44860000D03*
%TO.P,J4,20*%
%TO.N,B3*%
X44540000Y-44860000D03*
%TO.P,J4,21*%
%TO.N,PC0*%
X42000000Y-47400000D03*
%TO.P,J4,22*%
%TO.N,PC1*%
X44540000Y-47400000D03*
%TO.P,J4,23*%
%TO.N,PC2*%
X42000000Y-49940000D03*
%TO.P,J4,24*%
%TO.N,PC3*%
X44540000Y-49940000D03*
%TO.P,J4,25*%
%TO.N,PC4*%
X42000000Y-52480000D03*
%TO.P,J4,26*%
%TO.N,PC5*%
X44540000Y-52480000D03*
%TO.P,J4,27*%
%TO.N,PC6*%
X42000000Y-55020000D03*
%TO.P,J4,28*%
%TO.N,PC7*%
X44540000Y-55020000D03*
%TO.P,J4,29*%
%TO.N,M0*%
X42000000Y-57560000D03*
%TO.P,J4,30*%
%TO.N,M1*%
X44540000Y-57560000D03*
%TO.P,J4,31*%
%TO.N,M2*%
X42000000Y-60100000D03*
%TO.P,J4,32*%
%TO.N,M3*%
X44540000Y-60100000D03*
%TO.P,J4,33*%
%TO.N,M4*%
X42000000Y-62640000D03*
%TO.P,J4,34*%
%TO.N,M5*%
X44540000Y-62640000D03*
%TO.P,J4,35*%
%TO.N,M6*%
X42000000Y-65180000D03*
%TO.P,J4,36*%
%TO.N,M7*%
X44540000Y-65180000D03*
%TO.P,J4,37*%
%TO.N,CF*%
X42000000Y-67720000D03*
%TO.P,J4,38*%
%TO.N,ZF*%
X44540000Y-67720000D03*
%TO.P,J4,39*%
%TO.N,SUB*%
X42000000Y-70260000D03*
%TO.P,J4,40*%
%TO.N,EO*%
X44540000Y-70260000D03*
%TO.P,J4,41*%
%TO.N,AI*%
X42000000Y-72800000D03*
%TO.P,J4,42*%
%TO.N,AO*%
X44540000Y-72800000D03*
%TO.P,J4,43*%
%TO.N,BI*%
X42000000Y-75340000D03*
%TO.P,J4,44*%
%TO.N,BO*%
X44540000Y-75340000D03*
%TO.P,J4,45*%
%TO.N,BA*%
X42000000Y-77880000D03*
%TO.P,J4,46*%
%TO.N,AB*%
X44540000Y-77880000D03*
%TO.P,J4,47*%
%TO.N,OI*%
X42000000Y-80420000D03*
%TO.P,J4,48*%
%TO.N,IO*%
X44540000Y-80420000D03*
%TO.P,J4,49*%
%TO.N,II*%
X42000000Y-82960000D03*
%TO.P,J4,50*%
%TO.N,PCE*%
X44540000Y-82960000D03*
%TO.P,J4,51*%
%TO.N,PCL*%
X42000000Y-85500000D03*
%TO.P,J4,52*%
%TO.N,FI*%
X44540000Y-85500000D03*
%TO.P,J4,53*%
%TO.N,HLT*%
X42000000Y-88040000D03*
%TO.P,J4,54*%
%TO.N,MAI*%
X44540000Y-88040000D03*
%TO.P,J4,55*%
%TO.N,MI*%
X42000000Y-90580000D03*
%TO.P,J4,56*%
%TO.N,MO*%
X44540000Y-90580000D03*
%TO.P,J4,57*%
%TO.N,WRL*%
X42000000Y-93120000D03*
%TO.P,J4,58*%
%TO.N,WRH*%
X44540000Y-93120000D03*
%TO.P,J4,59*%
%TO.N,ONE*%
X42000000Y-95660000D03*
%TO.P,J4,60*%
%TO.N,F0*%
X44540000Y-95660000D03*
%TO.P,J4,61*%
%TO.N,F1*%
X42000000Y-98200000D03*
%TO.P,J4,62*%
%TO.N,INP*%
X44540000Y-98200000D03*
%TO.P,J4,63*%
%TO.N,+5V*%
X42000000Y-100740000D03*
%TO.P,J4,64*%
%TO.N,GND*%
X44540000Y-100740000D03*
%TD*%
D11*
%TO.P,R13,1*%
%TO.N,M7*%
X114000000Y-6000000D03*
%TO.P,R13,2*%
%TO.N,GND*%
X114000000Y-11080000D03*
%TD*%
D14*
%TO.P,H2,1*%
%TO.N,N/C*%
X138000000Y-4000000D03*
%TD*%
D17*
%TO.P,C2,1*%
%TO.N,+5V*%
X62000000Y-7000000D03*
D11*
%TO.P,C2,2*%
%TO.N,GND*%
X62000000Y-9000000D03*
%TD*%
%TO.P,R1,1*%
%TO.N,+5V*%
X46000000Y-6000000D03*
%TO.P,R1,2*%
%TO.N,Net-(D1-A)*%
X46000000Y-11080000D03*
%TD*%
%TO.P,R7,1*%
%TO.N,M1*%
X90000000Y-6000000D03*
%TO.P,R7,2*%
%TO.N,GND*%
X90000000Y-11080000D03*
%TD*%
%TO.P,R10,1*%
%TO.N,M4*%
X102000000Y-6000000D03*
%TO.P,R10,2*%
%TO.N,GND*%
X102000000Y-11080000D03*
%TD*%
%TO.P,C1,1*%
%TO.N,+5V*%
X57000000Y-6000000D03*
%TO.P,C1,2*%
%TO.N,GND*%
X57000000Y-8500000D03*
%TD*%
%TO.P,R4,1*%
%TO.N,+5V*%
X76000000Y-6000000D03*
%TO.P,R4,2*%
%TO.N,BUS2#*%
X76000000Y-11080000D03*
%TD*%
D12*
%TO.P,J9,1*%
%TO.N,+5V*%
X117000000Y-22000000D03*
D13*
%TO.P,J9,2*%
X119540000Y-22000000D03*
%TO.P,J9,3*%
%TO.N,GND*%
X117000000Y-24540000D03*
%TO.P,J9,4*%
X119540000Y-24540000D03*
%TO.P,J9,5*%
%TO.N,CLK*%
X117000000Y-27080000D03*
%TO.P,J9,6*%
%TO.N,GND*%
X119540000Y-27080000D03*
%TO.P,J9,7*%
%TO.N,RST*%
X117000000Y-29620000D03*
%TO.P,J9,8*%
%TO.N,GND*%
X119540000Y-29620000D03*
%TO.P,J9,9*%
%TO.N,BUS0#*%
X117000000Y-32160000D03*
%TO.P,J9,10*%
%TO.N,BUS1#*%
X119540000Y-32160000D03*
%TO.P,J9,11*%
%TO.N,BUS2#*%
X117000000Y-34700000D03*
%TO.P,J9,12*%
%TO.N,BUS3#*%
X119540000Y-34700000D03*
%TO.P,J9,13*%
%TO.N,A0*%
X117000000Y-37240000D03*
%TO.P,J9,14*%
%TO.N,A1*%
X119540000Y-37240000D03*
%TO.P,J9,15*%
%TO.N,A2*%
X117000000Y-39780000D03*
%TO.P,J9,16*%
%TO.N,A3*%
X119540000Y-39780000D03*
%TO.P,J9,17*%
%TO.N,B0*%
X117000000Y-42320000D03*
%TO.P,J9,18*%
%TO.N,B1*%
X119540000Y-42320000D03*
%TO.P,J9,19*%
%TO.N,B2*%
X117000000Y-44860000D03*
%TO.P,J9,20*%
%TO.N,B3*%
X119540000Y-44860000D03*
%TO.P,J9,21*%
%TO.N,PC0*%
X117000000Y-47400000D03*
%TO.P,J9,22*%
%TO.N,PC1*%
X119540000Y-47400000D03*
%TO.P,J9,23*%
%TO.N,PC2*%
X117000000Y-49940000D03*
%TO.P,J9,24*%
%TO.N,PC3*%
X119540000Y-49940000D03*
%TO.P,J9,25*%
%TO.N,PC4*%
X117000000Y-52480000D03*
%TO.P,J9,26*%
%TO.N,PC5*%
X119540000Y-52480000D03*
%TO.P,J9,27*%
%TO.N,PC6*%
X117000000Y-55020000D03*
%TO.P,J9,28*%
%TO.N,PC7*%
X119540000Y-55020000D03*
%TO.P,J9,29*%
%TO.N,M0*%
X117000000Y-57560000D03*
%TO.P,J9,30*%
%TO.N,M1*%
X119540000Y-57560000D03*
%TO.P,J9,31*%
%TO.N,M2*%
X117000000Y-60100000D03*
%TO.P,J9,32*%
%TO.N,M3*%
X119540000Y-60100000D03*
%TO.P,J9,33*%
%TO.N,M4*%
X117000000Y-62640000D03*
%TO.P,J9,34*%
%TO.N,M5*%
X119540000Y-62640000D03*
%TO.P,J9,35*%
%TO.N,M6*%
X117000000Y-65180000D03*
%TO.P,J9,36*%
%TO.N,M7*%
X119540000Y-65180000D03*
%TO.P,J9,37*%
%TO.N,CF*%
X117000000Y-67720000D03*
%TO.P,J9,38*%
%TO.N,ZF*%
X119540000Y-67720000D03*
%TO.P,J9,39*%
%TO.N,SUB*%
X117000000Y-70260000D03*
%TO.P,J9,40*%
%TO.N,EO*%
X119540000Y-70260000D03*
%TO.P,J9,41*%
%TO.N,AI*%
X117000000Y-72800000D03*
%TO.P,J9,42*%
%TO.N,AO*%
X119540000Y-72800000D03*
%TO.P,J9,43*%
%TO.N,BI*%
X117000000Y-75340000D03*
%TO.P,J9,44*%
%TO.N,BO*%
X119540000Y-75340000D03*
%TO.P,J9,45*%
%TO.N,BA*%
X117000000Y-77880000D03*
%TO.P,J9,46*%
%TO.N,AB*%
X119540000Y-77880000D03*
%TO.P,J9,47*%
%TO.N,OI*%
X117000000Y-80420000D03*
%TO.P,J9,48*%
%TO.N,IO*%
X119540000Y-80420000D03*
%TO.P,J9,49*%
%TO.N,II*%
X117000000Y-82960000D03*
%TO.P,J9,50*%
%TO.N,PCE*%
X119540000Y-82960000D03*
%TO.P,J9,51*%
%TO.N,PCL*%
X117000000Y-85500000D03*
%TO.P,J9,52*%
%TO.N,FI*%
X119540000Y-85500000D03*
%TO.P,J9,53*%
%TO.N,HLT*%
X117000000Y-88040000D03*
%TO.P,J9,54*%
%TO.N,MAI*%
X119540000Y-88040000D03*
%TO.P,J9,55*%
%TO.N,MI*%
X117000000Y-90580000D03*
%TO.P,J9,56*%
%TO.N,MO*%
X119540000Y-90580000D03*
%TO.P,J9,57*%
%TO.N,WRL*%
X117000000Y-93120000D03*
%TO.P,J9,58*%
%TO.N,WRH*%
X119540000Y-93120000D03*
%TO.P,J9,59*%
%TO.N,ONE*%
X117000000Y-95660000D03*
%TO.P,J9,60*%
%TO.N,F0*%
X119540000Y-95660000D03*
%TO.P,J9,61*%
%TO.N,F1*%
X117000000Y-98200000D03*
%TO.P,J9,62*%
%TO.N,INP*%
X119540000Y-98200000D03*
%TO.P,J9,63*%
%TO.N,+5V*%
X117000000Y-100740000D03*
%TO.P,J9,64*%
%TO.N,GND*%
X119540000Y-100740000D03*
%TD*%
D18*
%TO.P,F1,1*%
%TO.N,VBUS*%
X34000000Y-8000000D03*
%TO.P,F1,2*%
%TO.N,+5V*%
X39100000Y-9900000D03*
%TD*%
D19*
%TO.P,D1,1*%
%TO.N,GND*%
X50000000Y-8000000D03*
D20*
%TO.P,D1,2*%
%TO.N,Net-(D1-A)*%
X50000000Y-5460000D03*
%TD*%
D10*
%TO.P,TP6,1*%
%TO.N,RST*%
X132000000Y-13000000D03*
%TD*%
D11*
%TO.P,R8,1*%
%TO.N,M2*%
X94000000Y-6000000D03*
%TO.P,R8,2*%
%TO.N,GND*%
X94000000Y-11080000D03*
%TD*%
D10*
%TO.P,TP5,1*%
%TO.N,CLK*%
X126000000Y-13000000D03*
%TD*%
D12*
%TO.P,J2,1*%
%TO.N,+5V*%
X12000000Y-22000000D03*
D13*
%TO.P,J2,2*%
X14540000Y-22000000D03*
%TO.P,J2,3*%
%TO.N,GND*%
X12000000Y-24540000D03*
%TO.P,J2,4*%
X14540000Y-24540000D03*
%TO.P,J2,5*%
%TO.N,CLK*%
X12000000Y-27080000D03*
%TO.P,J2,6*%
%TO.N,GND*%
X14540000Y-27080000D03*
%TO.P,J2,7*%
%TO.N,RST*%
X12000000Y-29620000D03*
%TO.P,J2,8*%
%TO.N,GND*%
X14540000Y-29620000D03*
%TO.P,J2,9*%
%TO.N,BUS0#*%
X12000000Y-32160000D03*
%TO.P,J2,10*%
%TO.N,BUS1#*%
X14540000Y-32160000D03*
%TO.P,J2,11*%
%TO.N,BUS2#*%
X12000000Y-34700000D03*
%TO.P,J2,12*%
%TO.N,BUS3#*%
X14540000Y-34700000D03*
%TO.P,J2,13*%
%TO.N,A0*%
X12000000Y-37240000D03*
%TO.P,J2,14*%
%TO.N,A1*%
X14540000Y-37240000D03*
%TO.P,J2,15*%
%TO.N,A2*%
X12000000Y-39780000D03*
%TO.P,J2,16*%
%TO.N,A3*%
X14540000Y-39780000D03*
%TO.P,J2,17*%
%TO.N,B0*%
X12000000Y-42320000D03*
%TO.P,J2,18*%
%TO.N,B1*%
X14540000Y-42320000D03*
%TO.P,J2,19*%
%TO.N,B2*%
X12000000Y-44860000D03*
%TO.P,J2,20*%
%TO.N,B3*%
X14540000Y-44860000D03*
%TO.P,J2,21*%
%TO.N,PC0*%
X12000000Y-47400000D03*
%TO.P,J2,22*%
%TO.N,PC1*%
X14540000Y-47400000D03*
%TO.P,J2,23*%
%TO.N,PC2*%
X12000000Y-49940000D03*
%TO.P,J2,24*%
%TO.N,PC3*%
X14540000Y-49940000D03*
%TO.P,J2,25*%
%TO.N,PC4*%
X12000000Y-52480000D03*
%TO.P,J2,26*%
%TO.N,PC5*%
X14540000Y-52480000D03*
%TO.P,J2,27*%
%TO.N,PC6*%
X12000000Y-55020000D03*
%TO.P,J2,28*%
%TO.N,PC7*%
X14540000Y-55020000D03*
%TO.P,J2,29*%
%TO.N,M0*%
X12000000Y-57560000D03*
%TO.P,J2,30*%
%TO.N,M1*%
X14540000Y-57560000D03*
%TO.P,J2,31*%
%TO.N,M2*%
X12000000Y-60100000D03*
%TO.P,J2,32*%
%TO.N,M3*%
X14540000Y-60100000D03*
%TO.P,J2,33*%
%TO.N,M4*%
X12000000Y-62640000D03*
%TO.P,J2,34*%
%TO.N,M5*%
X14540000Y-62640000D03*
%TO.P,J2,35*%
%TO.N,M6*%
X12000000Y-65180000D03*
%TO.P,J2,36*%
%TO.N,M7*%
X14540000Y-65180000D03*
%TO.P,J2,37*%
%TO.N,CF*%
X12000000Y-67720000D03*
%TO.P,J2,38*%
%TO.N,ZF*%
X14540000Y-67720000D03*
%TO.P,J2,39*%
%TO.N,SUB*%
X12000000Y-70260000D03*
%TO.P,J2,40*%
%TO.N,EO*%
X14540000Y-70260000D03*
%TO.P,J2,41*%
%TO.N,AI*%
X12000000Y-72800000D03*
%TO.P,J2,42*%
%TO.N,AO*%
X14540000Y-72800000D03*
%TO.P,J2,43*%
%TO.N,BI*%
X12000000Y-75340000D03*
%TO.P,J2,44*%
%TO.N,BO*%
X14540000Y-75340000D03*
%TO.P,J2,45*%
%TO.N,BA*%
X12000000Y-77880000D03*
%TO.P,J2,46*%
%TO.N,AB*%
X14540000Y-77880000D03*
%TO.P,J2,47*%
%TO.N,OI*%
X12000000Y-80420000D03*
%TO.P,J2,48*%
%TO.N,IO*%
X14540000Y-80420000D03*
%TO.P,J2,49*%
%TO.N,II*%
X12000000Y-82960000D03*
%TO.P,J2,50*%
%TO.N,PCE*%
X14540000Y-82960000D03*
%TO.P,J2,51*%
%TO.N,PCL*%
X12000000Y-85500000D03*
%TO.P,J2,52*%
%TO.N,FI*%
X14540000Y-85500000D03*
%TO.P,J2,53*%
%TO.N,HLT*%
X12000000Y-88040000D03*
%TO.P,J2,54*%
%TO.N,MAI*%
X14540000Y-88040000D03*
%TO.P,J2,55*%
%TO.N,MI*%
X12000000Y-90580000D03*
%TO.P,J2,56*%
%TO.N,MO*%
X14540000Y-90580000D03*
%TO.P,J2,57*%
%TO.N,WRL*%
X12000000Y-93120000D03*
%TO.P,J2,58*%
%TO.N,WRH*%
X14540000Y-93120000D03*
%TO.P,J2,59*%
%TO.N,ONE*%
X12000000Y-95660000D03*
%TO.P,J2,60*%
%TO.N,F0*%
X14540000Y-95660000D03*
%TO.P,J2,61*%
%TO.N,F1*%
X12000000Y-98200000D03*
%TO.P,J2,62*%
%TO.N,INP*%
X14540000Y-98200000D03*
%TO.P,J2,63*%
%TO.N,+5V*%
X12000000Y-100740000D03*
%TO.P,J2,64*%
%TO.N,GND*%
X14540000Y-100740000D03*
%TD*%
D11*
%TO.P,R6,1*%
%TO.N,M0*%
X86000000Y-6000000D03*
%TO.P,R6,2*%
%TO.N,GND*%
X86000000Y-11080000D03*
%TD*%
D12*
%TO.P,J7,1*%
%TO.N,+5V*%
X87000000Y-22000000D03*
D13*
%TO.P,J7,2*%
X89540000Y-22000000D03*
%TO.P,J7,3*%
%TO.N,GND*%
X87000000Y-24540000D03*
%TO.P,J7,4*%
X89540000Y-24540000D03*
%TO.P,J7,5*%
%TO.N,CLK*%
X87000000Y-27080000D03*
%TO.P,J7,6*%
%TO.N,GND*%
X89540000Y-27080000D03*
%TO.P,J7,7*%
%TO.N,RST*%
X87000000Y-29620000D03*
%TO.P,J7,8*%
%TO.N,GND*%
X89540000Y-29620000D03*
%TO.P,J7,9*%
%TO.N,BUS0#*%
X87000000Y-32160000D03*
%TO.P,J7,10*%
%TO.N,BUS1#*%
X89540000Y-32160000D03*
%TO.P,J7,11*%
%TO.N,BUS2#*%
X87000000Y-34700000D03*
%TO.P,J7,12*%
%TO.N,BUS3#*%
X89540000Y-34700000D03*
%TO.P,J7,13*%
%TO.N,A0*%
X87000000Y-37240000D03*
%TO.P,J7,14*%
%TO.N,A1*%
X89540000Y-37240000D03*
%TO.P,J7,15*%
%TO.N,A2*%
X87000000Y-39780000D03*
%TO.P,J7,16*%
%TO.N,A3*%
X89540000Y-39780000D03*
%TO.P,J7,17*%
%TO.N,B0*%
X87000000Y-42320000D03*
%TO.P,J7,18*%
%TO.N,B1*%
X89540000Y-42320000D03*
%TO.P,J7,19*%
%TO.N,B2*%
X87000000Y-44860000D03*
%TO.P,J7,20*%
%TO.N,B3*%
X89540000Y-44860000D03*
%TO.P,J7,21*%
%TO.N,PC0*%
X87000000Y-47400000D03*
%TO.P,J7,22*%
%TO.N,PC1*%
X89540000Y-47400000D03*
%TO.P,J7,23*%
%TO.N,PC2*%
X87000000Y-49940000D03*
%TO.P,J7,24*%
%TO.N,PC3*%
X89540000Y-49940000D03*
%TO.P,J7,25*%
%TO.N,PC4*%
X87000000Y-52480000D03*
%TO.P,J7,26*%
%TO.N,PC5*%
X89540000Y-52480000D03*
%TO.P,J7,27*%
%TO.N,PC6*%
X87000000Y-55020000D03*
%TO.P,J7,28*%
%TO.N,PC7*%
X89540000Y-55020000D03*
%TO.P,J7,29*%
%TO.N,M0*%
X87000000Y-57560000D03*
%TO.P,J7,30*%
%TO.N,M1*%
X89540000Y-57560000D03*
%TO.P,J7,31*%
%TO.N,M2*%
X87000000Y-60100000D03*
%TO.P,J7,32*%
%TO.N,M3*%
X89540000Y-60100000D03*
%TO.P,J7,33*%
%TO.N,M4*%
X87000000Y-62640000D03*
%TO.P,J7,34*%
%TO.N,M5*%
X89540000Y-62640000D03*
%TO.P,J7,35*%
%TO.N,M6*%
X87000000Y-65180000D03*
%TO.P,J7,36*%
%TO.N,M7*%
X89540000Y-65180000D03*
%TO.P,J7,37*%
%TO.N,CF*%
X87000000Y-67720000D03*
%TO.P,J7,38*%
%TO.N,ZF*%
X89540000Y-67720000D03*
%TO.P,J7,39*%
%TO.N,SUB*%
X87000000Y-70260000D03*
%TO.P,J7,40*%
%TO.N,EO*%
X89540000Y-70260000D03*
%TO.P,J7,41*%
%TO.N,AI*%
X87000000Y-72800000D03*
%TO.P,J7,42*%
%TO.N,AO*%
X89540000Y-72800000D03*
%TO.P,J7,43*%
%TO.N,BI*%
X87000000Y-75340000D03*
%TO.P,J7,44*%
%TO.N,BO*%
X89540000Y-75340000D03*
%TO.P,J7,45*%
%TO.N,BA*%
X87000000Y-77880000D03*
%TO.P,J7,46*%
%TO.N,AB*%
X89540000Y-77880000D03*
%TO.P,J7,47*%
%TO.N,OI*%
X87000000Y-80420000D03*
%TO.P,J7,48*%
%TO.N,IO*%
X89540000Y-80420000D03*
%TO.P,J7,49*%
%TO.N,II*%
X87000000Y-82960000D03*
%TO.P,J7,50*%
%TO.N,PCE*%
X89540000Y-82960000D03*
%TO.P,J7,51*%
%TO.N,PCL*%
X87000000Y-85500000D03*
%TO.P,J7,52*%
%TO.N,FI*%
X89540000Y-85500000D03*
%TO.P,J7,53*%
%TO.N,HLT*%
X87000000Y-88040000D03*
%TO.P,J7,54*%
%TO.N,MAI*%
X89540000Y-88040000D03*
%TO.P,J7,55*%
%TO.N,MI*%
X87000000Y-90580000D03*
%TO.P,J7,56*%
%TO.N,MO*%
X89540000Y-90580000D03*
%TO.P,J7,57*%
%TO.N,WRL*%
X87000000Y-93120000D03*
%TO.P,J7,58*%
%TO.N,WRH*%
X89540000Y-93120000D03*
%TO.P,J7,59*%
%TO.N,ONE*%
X87000000Y-95660000D03*
%TO.P,J7,60*%
%TO.N,F0*%
X89540000Y-95660000D03*
%TO.P,J7,61*%
%TO.N,F1*%
X87000000Y-98200000D03*
%TO.P,J7,62*%
%TO.N,INP*%
X89540000Y-98200000D03*
%TO.P,J7,63*%
%TO.N,+5V*%
X87000000Y-100740000D03*
%TO.P,J7,64*%
%TO.N,GND*%
X89540000Y-100740000D03*
%TD*%
D14*
%TO.P,H3,1*%
%TO.N,N/C*%
X4000000Y-110740000D03*
%TD*%
%TO.P,H4,1*%
%TO.N,N/C*%
X138000000Y-110740000D03*
%TD*%
D11*
%TO.P,R2,1*%
%TO.N,+5V*%
X68000000Y-6000000D03*
%TO.P,R2,2*%
%TO.N,BUS0#*%
X68000000Y-11080000D03*
%TD*%
D21*
%TO.N,+5V*%
X6000000Y-104540000D03*
X6000000Y-22000000D03*
%TO.N,BUS3#*%
X98898500Y-34823700D03*
%TO.N,CLK*%
X106374100Y-27097400D03*
X90566000Y-28163300D03*
X75619900Y-25973400D03*
%TO.N,GND*%
X74540000Y-103240000D03*
X104540000Y-103240000D03*
X14540000Y-103240000D03*
X119540000Y-103240000D03*
X89540000Y-103240000D03*
X114000000Y-13600000D03*
X44540000Y-103240000D03*
X29540000Y-103240000D03*
X59540000Y-103240000D03*
%TO.N,M2*%
X106144800Y-60129400D03*
%TO.N,RST*%
X106155300Y-29326000D03*
%TD*%
%TO.N,+5V*%
D22*
X56665100Y-6669800D02*
X57000000Y-6334900D01*
X39100000Y-9900000D02*
X42100000Y-9900000D01*
X46000000Y-6000000D02*
X46669800Y-6669800D01*
D23*
X27000000Y-100740000D02*
X27000000Y-104540000D01*
D22*
X57000000Y-6334900D02*
X61334900Y-6334900D01*
D24*
X6000000Y-104540000D02*
X117000000Y-104540000D01*
D22*
X68000000Y-6000000D02*
X72000000Y-6000000D01*
X68000000Y-6000000D02*
X63000000Y-6000000D01*
X61334900Y-6334900D02*
X62000000Y-7000000D01*
X63000000Y-6000000D02*
X62000000Y-7000000D01*
D23*
X42000000Y-100740000D02*
X42000000Y-104540000D01*
X87000000Y-100740000D02*
X87000000Y-104540000D01*
D22*
X76000000Y-6000000D02*
X80000000Y-6000000D01*
D23*
X72000000Y-100740000D02*
X72000000Y-104540000D01*
X102000000Y-100740000D02*
X102000000Y-104540000D01*
X57000000Y-100740000D02*
X57000000Y-104540000D01*
D24*
X6000000Y-22000000D02*
X119540000Y-22000000D01*
D22*
X72000000Y-6000000D02*
X76000000Y-6000000D01*
X46669800Y-6669800D02*
X56665100Y-6669800D01*
D23*
X12000000Y-100740000D02*
X12000000Y-104540000D01*
D22*
X42100000Y-9900000D02*
X46000000Y-6000000D01*
X57000000Y-6000000D02*
X57000000Y-6334900D01*
D23*
X117000000Y-100740000D02*
X117000000Y-104540000D01*
%TO.N,A0*%
D22*
X102612500Y-37240000D02*
X103716500Y-38344000D01*
X87000000Y-37240000D02*
X87495300Y-37240000D01*
X72000000Y-37240000D02*
X72258500Y-37240000D01*
X28355500Y-38346600D02*
X30368000Y-38346600D01*
X91469600Y-37240000D02*
X102000000Y-37240000D01*
X42258500Y-37240000D02*
X43362500Y-38344000D01*
X31474600Y-37240000D02*
X42000000Y-37240000D01*
X57258500Y-37240000D02*
X58362500Y-38344000D01*
X102000000Y-37240000D02*
X102612500Y-37240000D01*
X57000000Y-37240000D02*
X57258500Y-37240000D01*
X15366900Y-38346000D02*
X16472900Y-37240000D01*
X16472900Y-37240000D02*
X27000000Y-37240000D01*
X87495300Y-37240000D02*
X88599300Y-38344000D01*
X105288000Y-38344000D02*
X106392000Y-37240000D01*
X13106000Y-38346000D02*
X15366900Y-38346000D01*
X46467600Y-37240000D02*
X57000000Y-37240000D01*
X43362500Y-38344000D02*
X45363600Y-38344000D01*
X61467600Y-37240000D02*
X72000000Y-37240000D01*
X42000000Y-37240000D02*
X42258500Y-37240000D01*
X72258500Y-37240000D02*
X73362500Y-38344000D01*
X76467600Y-37240000D02*
X87000000Y-37240000D01*
X12000000Y-37240000D02*
X13106000Y-38346000D01*
X27248900Y-37240000D02*
X28355500Y-38346600D01*
X58362500Y-38344000D02*
X60363600Y-38344000D01*
X90891800Y-37815800D02*
X90893800Y-37815800D01*
X106392000Y-37240000D02*
X117000000Y-37240000D01*
X60363600Y-38344000D02*
X61467600Y-37240000D01*
X90363600Y-38344000D02*
X90891800Y-37815800D01*
X90893800Y-37815800D02*
X91469600Y-37240000D01*
X88599300Y-38344000D02*
X90363600Y-38344000D01*
X75363600Y-38344000D02*
X76467600Y-37240000D01*
X30368000Y-38346600D02*
X31474600Y-37240000D01*
X73362500Y-38344000D02*
X75363600Y-38344000D01*
X103716500Y-38344000D02*
X105288000Y-38344000D01*
X27000000Y-37240000D02*
X27248900Y-37240000D01*
X45363600Y-38344000D02*
X46467600Y-37240000D01*
%TO.N,A1*%
X73198900Y-36135700D02*
X74303200Y-37240000D01*
X45644300Y-36135700D02*
X58196900Y-36135700D01*
X88438300Y-36138300D02*
X89540000Y-37240000D01*
X60644300Y-36135700D02*
X73198900Y-36135700D01*
X74540000Y-37240000D02*
X75641700Y-36138300D01*
X29291600Y-37240000D02*
X29540000Y-37240000D01*
X104540000Y-37240000D02*
X103427900Y-36127900D01*
X119540000Y-37240000D02*
X118428700Y-36128700D01*
X44540000Y-37240000D02*
X45644300Y-36135700D01*
X59540000Y-37240000D02*
X60644300Y-36135700D01*
X29540000Y-37240000D02*
X30644300Y-36135700D01*
X43196900Y-36135700D02*
X44301200Y-37240000D01*
X75641700Y-36138300D02*
X88438300Y-36138300D01*
X14540000Y-37240000D02*
X15643100Y-36136900D01*
X118428700Y-36128700D02*
X105651300Y-36128700D01*
X58196900Y-36135700D02*
X59301200Y-37240000D01*
X105651300Y-36128700D02*
X104540000Y-37240000D01*
X103427900Y-36127900D02*
X90652100Y-36127900D01*
X74303200Y-37240000D02*
X74540000Y-37240000D01*
X90652100Y-36127900D02*
X89540000Y-37240000D01*
X30644300Y-36135700D02*
X43196900Y-36135700D01*
X28188500Y-36136900D02*
X29291600Y-37240000D01*
X59301200Y-37240000D02*
X59540000Y-37240000D01*
X15643100Y-36136900D02*
X28188500Y-36136900D01*
X44301200Y-37240000D02*
X44540000Y-37240000D01*
%TO.N,A2*%
X72258500Y-39780000D02*
X73362500Y-40884000D01*
X76467600Y-39780000D02*
X87000000Y-39780000D01*
X61467600Y-39780000D02*
X72000000Y-39780000D01*
X90363600Y-40884000D02*
X91467600Y-39780000D01*
X60363600Y-40884000D02*
X61467600Y-39780000D01*
X88362500Y-40884000D02*
X90363600Y-40884000D01*
X42258500Y-39780000D02*
X43362500Y-40884000D01*
X30368000Y-40886600D02*
X31474600Y-39780000D01*
X105363600Y-40884000D02*
X106467600Y-39780000D01*
X45363600Y-40884000D02*
X46467600Y-39780000D01*
X58362500Y-40884000D02*
X60363600Y-40884000D01*
X91467600Y-39780000D02*
X102000000Y-39780000D01*
X102000000Y-39780000D02*
X102495300Y-39780000D01*
X43362500Y-40884000D02*
X45363600Y-40884000D01*
X27248900Y-39780000D02*
X28355500Y-40886600D01*
X72000000Y-39780000D02*
X72258500Y-39780000D01*
X27000000Y-39780000D02*
X27248900Y-39780000D01*
X57258500Y-39780000D02*
X58362500Y-40884000D01*
X42000000Y-39780000D02*
X42258500Y-39780000D01*
X16472900Y-39780000D02*
X27000000Y-39780000D01*
X87000000Y-39780000D02*
X87258500Y-39780000D01*
X28355500Y-40886600D02*
X30368000Y-40886600D01*
X13106000Y-40886000D02*
X15366900Y-40886000D01*
X87258500Y-39780000D02*
X88362500Y-40884000D01*
X106467600Y-39780000D02*
X117000000Y-39780000D01*
X73362500Y-40884000D02*
X75363600Y-40884000D01*
X15366900Y-40886000D02*
X16472900Y-39780000D01*
X75363600Y-40884000D02*
X76467600Y-39780000D01*
X102495300Y-39780000D02*
X103599300Y-40884000D01*
X103599300Y-40884000D02*
X105363600Y-40884000D01*
X31474600Y-39780000D02*
X42000000Y-39780000D01*
X12000000Y-39780000D02*
X13106000Y-40886000D01*
X46467600Y-39780000D02*
X57000000Y-39780000D01*
X57000000Y-39780000D02*
X57258500Y-39780000D01*
%TO.N,A3*%
X73196900Y-38675700D02*
X74301200Y-39780000D01*
X58196900Y-38675700D02*
X59301200Y-39780000D01*
X118373700Y-38613700D02*
X105706300Y-38613700D01*
X74540000Y-39780000D02*
X75644300Y-38675700D01*
X90665400Y-38654600D02*
X89540000Y-39780000D01*
X59301200Y-39780000D02*
X59540000Y-39780000D01*
X103414600Y-38654600D02*
X90665400Y-38654600D01*
X59540000Y-39780000D02*
X60644300Y-38675700D01*
X74301200Y-39780000D02*
X74540000Y-39780000D01*
X30644300Y-38675700D02*
X43196900Y-38675700D01*
X29540000Y-39780000D02*
X30644300Y-38675700D01*
X105706300Y-38613700D02*
X104540000Y-39780000D01*
X44301200Y-39780000D02*
X44540000Y-39780000D01*
X28188500Y-38676900D02*
X29291600Y-39780000D01*
X44540000Y-39780000D02*
X45644300Y-38675700D01*
X15643100Y-38676900D02*
X28188500Y-38676900D01*
X43196900Y-38675700D02*
X44301200Y-39780000D01*
X29291600Y-39780000D02*
X29540000Y-39780000D01*
X45644300Y-38675700D02*
X58196900Y-38675700D01*
X104540000Y-39780000D02*
X103414600Y-38654600D01*
X14540000Y-39780000D02*
X15643100Y-38676900D01*
X88396900Y-38675700D02*
X89501200Y-39780000D01*
X89501200Y-39780000D02*
X89540000Y-39780000D01*
X119540000Y-39780000D02*
X118373700Y-38613700D01*
X60644300Y-38675700D02*
X73196900Y-38675700D01*
X75644300Y-38675700D02*
X88396900Y-38675700D01*
%TO.N,AB*%
X90696900Y-76723100D02*
X103383100Y-76723100D01*
X56133100Y-76769400D02*
X55022500Y-77880000D01*
X43425200Y-76773200D02*
X44532000Y-77880000D01*
X114955300Y-77880000D02*
X116066500Y-78991200D01*
X55022500Y-77880000D02*
X44540000Y-77880000D01*
X75678100Y-79018100D02*
X88401900Y-79018100D01*
X88401900Y-79018100D02*
X89540000Y-77880000D01*
X104540000Y-77880000D02*
X114955300Y-77880000D01*
X118428800Y-78991200D02*
X119540000Y-77880000D01*
X30646800Y-76773200D02*
X43425200Y-76773200D01*
X29540000Y-77880000D02*
X30646800Y-76773200D01*
X116066500Y-78991200D02*
X118428800Y-78991200D01*
X58429400Y-76769400D02*
X56133100Y-76769400D01*
X103383100Y-76723100D02*
X104540000Y-77880000D01*
X89540000Y-77880000D02*
X90696900Y-76723100D01*
X44532000Y-77880000D02*
X44540000Y-77880000D01*
X59540000Y-77880000D02*
X58429400Y-76769400D01*
X74540000Y-77880000D02*
X75678100Y-79018100D01*
%TO.N,AI*%
X16472900Y-72800000D02*
X27000000Y-72800000D01*
X87000000Y-72800000D02*
X85896000Y-73904000D01*
X117000000Y-72800000D02*
X115896000Y-73904000D01*
X57141300Y-72800000D02*
X58245300Y-73904000D01*
X73568800Y-73904000D02*
X72464800Y-72800000D01*
X45363600Y-73904000D02*
X46467600Y-72800000D01*
X12000000Y-72800000D02*
X13106000Y-73906000D01*
X88568800Y-73904000D02*
X87464800Y-72800000D01*
X60363600Y-73904000D02*
X61467600Y-72800000D01*
X102495300Y-72800000D02*
X102000000Y-72800000D01*
X43362500Y-73904000D02*
X45363600Y-73904000D01*
X31474600Y-72800000D02*
X42000000Y-72800000D01*
X13106000Y-73906000D02*
X15366900Y-73906000D01*
X27248900Y-72800000D02*
X28355500Y-73906600D01*
X87464800Y-72800000D02*
X87000000Y-72800000D01*
X85896000Y-73904000D02*
X73568800Y-73904000D01*
X102000000Y-72800000D02*
X100896000Y-73904000D01*
X46467600Y-72800000D02*
X57000000Y-72800000D01*
X72464800Y-72800000D02*
X72000000Y-72800000D01*
X42258500Y-72800000D02*
X43362500Y-73904000D01*
X42000000Y-72800000D02*
X42258500Y-72800000D01*
X57000000Y-72800000D02*
X57141300Y-72800000D01*
X28355500Y-73906600D02*
X30368000Y-73906600D01*
X103599300Y-73904000D02*
X102495300Y-72800000D01*
X58245300Y-73904000D02*
X60363600Y-73904000D01*
X61467600Y-72800000D02*
X72000000Y-72800000D01*
X100896000Y-73904000D02*
X88568800Y-73904000D01*
X27000000Y-72800000D02*
X27248900Y-72800000D01*
X15366900Y-73906000D02*
X16472900Y-72800000D01*
X115896000Y-73904000D02*
X103599300Y-73904000D01*
X30368000Y-73906600D02*
X31474600Y-72800000D01*
%TO.N,AO*%
X58196900Y-71695700D02*
X59301200Y-72800000D01*
X90644600Y-71695400D02*
X103198600Y-71695400D01*
X89301200Y-72800000D02*
X89540000Y-72800000D01*
X60644300Y-71695700D02*
X73196900Y-71695700D01*
X103198600Y-71695400D02*
X104303200Y-72800000D01*
X45644300Y-71695700D02*
X58196900Y-71695700D01*
X74540000Y-72800000D02*
X75644300Y-71695700D01*
X44540000Y-72800000D02*
X45644300Y-71695700D01*
X14540000Y-72800000D02*
X15643100Y-71696900D01*
X43196900Y-71695700D02*
X44301200Y-72800000D01*
X30644300Y-71695700D02*
X43196900Y-71695700D01*
X118428700Y-71688700D02*
X119540000Y-72800000D01*
X104540000Y-72800000D02*
X105651300Y-71688700D01*
X44301200Y-72800000D02*
X44540000Y-72800000D01*
X59540000Y-72800000D02*
X60644300Y-71695700D01*
X29540000Y-72800000D02*
X30644300Y-71695700D01*
X75644300Y-71695700D02*
X88196900Y-71695700D01*
X74301200Y-72800000D02*
X74540000Y-72800000D01*
X73196900Y-71695700D02*
X74301200Y-72800000D01*
X59301200Y-72800000D02*
X59540000Y-72800000D01*
X88196900Y-71695700D02*
X89301200Y-72800000D01*
X28188500Y-71696900D02*
X29291600Y-72800000D01*
X105651300Y-71688700D02*
X118428700Y-71688700D01*
X104303200Y-72800000D02*
X104540000Y-72800000D01*
X89540000Y-72800000D02*
X90644600Y-71695400D01*
X15643100Y-71696900D02*
X28188500Y-71696900D01*
X29291600Y-72800000D02*
X29540000Y-72800000D01*
%TO.N,B0*%
X60363600Y-43424000D02*
X61467600Y-42320000D01*
X91467600Y-42320000D02*
X102000000Y-42320000D01*
X57258500Y-42320000D02*
X58362500Y-43424000D01*
X58362500Y-43424000D02*
X60363600Y-43424000D01*
X102495300Y-42320000D02*
X103599300Y-43424000D01*
X27248900Y-42320000D02*
X28355500Y-43426600D01*
X46467600Y-42320000D02*
X57000000Y-42320000D01*
X42258500Y-42320000D02*
X43362500Y-43424000D01*
X72258500Y-42320000D02*
X73362500Y-43424000D01*
X13106000Y-43426000D02*
X15366900Y-43426000D01*
X73362500Y-43424000D02*
X75363600Y-43424000D01*
X103599300Y-43424000D02*
X105363600Y-43424000D01*
X105363600Y-43424000D02*
X106467600Y-42320000D01*
X43362500Y-43424000D02*
X45363600Y-43424000D01*
X27000000Y-42320000D02*
X27248900Y-42320000D01*
X76467600Y-42320000D02*
X87000000Y-42320000D01*
X102000000Y-42320000D02*
X102495300Y-42320000D01*
X75363600Y-43424000D02*
X76467600Y-42320000D01*
X106467600Y-42320000D02*
X117000000Y-42320000D01*
X88362500Y-43424000D02*
X90363600Y-43424000D01*
X16472900Y-42320000D02*
X27000000Y-42320000D01*
X72000000Y-42320000D02*
X72258500Y-42320000D01*
X61467600Y-42320000D02*
X72000000Y-42320000D01*
X15366900Y-43426000D02*
X16472900Y-42320000D01*
X45363600Y-43424000D02*
X46467600Y-42320000D01*
X90363600Y-43424000D02*
X91467600Y-42320000D01*
X87258500Y-42320000D02*
X88362500Y-43424000D01*
X12000000Y-42320000D02*
X13106000Y-43426000D01*
X57000000Y-42320000D02*
X57258500Y-42320000D01*
X30368000Y-43426600D02*
X31474600Y-42320000D01*
X28355500Y-43426600D02*
X30368000Y-43426600D01*
X42000000Y-42320000D02*
X42258500Y-42320000D01*
X87000000Y-42320000D02*
X87258500Y-42320000D01*
X31474600Y-42320000D02*
X42000000Y-42320000D01*
%TO.N,B1*%
X45644300Y-41215700D02*
X58196900Y-41215700D01*
X58196900Y-41215700D02*
X59301200Y-42320000D01*
X59540000Y-42320000D02*
X60644300Y-41215700D01*
X15643100Y-41216900D02*
X28188500Y-41216900D01*
X30644300Y-41215700D02*
X43196900Y-41215700D01*
X73196900Y-41215700D02*
X74301200Y-42320000D01*
X104538000Y-42320000D02*
X104540000Y-42320000D01*
X89540000Y-42320000D02*
X90665400Y-41194600D01*
X44540000Y-42320000D02*
X45644300Y-41215700D01*
X28188500Y-41216900D02*
X29291600Y-42320000D01*
X29291600Y-42320000D02*
X29540000Y-42320000D01*
X118414600Y-41194600D02*
X105665400Y-41194600D01*
X29540000Y-42320000D02*
X30644300Y-41215700D01*
X119540000Y-42320000D02*
X118414600Y-41194600D01*
X88196900Y-41215700D02*
X89301200Y-42320000D01*
X43196900Y-41215700D02*
X44301200Y-42320000D01*
X59301200Y-42320000D02*
X59540000Y-42320000D01*
X90665400Y-41194600D02*
X103412600Y-41194600D01*
X103412600Y-41194600D02*
X104538000Y-42320000D01*
X89301200Y-42320000D02*
X89540000Y-42320000D01*
X75644300Y-41215700D02*
X88196900Y-41215700D01*
X74301200Y-42320000D02*
X74540000Y-42320000D01*
X105665400Y-41194600D02*
X104540000Y-42320000D01*
X44301200Y-42320000D02*
X44540000Y-42320000D01*
X14540000Y-42320000D02*
X15643100Y-41216900D01*
X74540000Y-42320000D02*
X75644300Y-41215700D01*
X60644300Y-41215700D02*
X73196900Y-41215700D01*
%TO.N,B2*%
X16472900Y-44860000D02*
X27000000Y-44860000D01*
X76467600Y-44860000D02*
X87000000Y-44860000D01*
X102000000Y-44860000D02*
X102495300Y-44860000D01*
X72258500Y-44860000D02*
X73362500Y-45964000D01*
X88245300Y-45964000D02*
X90363600Y-45964000D01*
X45363600Y-45964000D02*
X46467600Y-44860000D01*
X90363600Y-45964000D02*
X91467600Y-44860000D01*
X75363600Y-45964000D02*
X76467600Y-44860000D01*
X103599300Y-45964000D02*
X105363600Y-45964000D01*
X72000000Y-44860000D02*
X72258500Y-44860000D01*
X91467600Y-44860000D02*
X102000000Y-44860000D01*
X61467600Y-44860000D02*
X72000000Y-44860000D01*
X12000000Y-44860000D02*
X13106000Y-45966000D01*
X27248900Y-44860000D02*
X28355500Y-45966600D01*
X27000000Y-44860000D02*
X27248900Y-44860000D01*
X43362500Y-45964000D02*
X45363600Y-45964000D01*
X106467600Y-44860000D02*
X117000000Y-44860000D01*
X57000000Y-44860000D02*
X57258500Y-44860000D01*
X87141300Y-44860000D02*
X88245300Y-45964000D01*
X73362500Y-45964000D02*
X75363600Y-45964000D01*
X60363600Y-45964000D02*
X61467600Y-44860000D01*
X15366900Y-45966000D02*
X16472900Y-44860000D01*
X42258500Y-44860000D02*
X43362500Y-45964000D01*
X57258500Y-44860000D02*
X58362500Y-45964000D01*
X30368000Y-45966600D02*
X31474600Y-44860000D01*
X31474600Y-44860000D02*
X42000000Y-44860000D01*
X13106000Y-45966000D02*
X15366900Y-45966000D01*
X42000000Y-44860000D02*
X42258500Y-44860000D01*
X46467600Y-44860000D02*
X57000000Y-44860000D01*
X102495300Y-44860000D02*
X103599300Y-45964000D01*
X87000000Y-44860000D02*
X87141300Y-44860000D01*
X105363600Y-45964000D02*
X106467600Y-44860000D01*
X58362500Y-45964000D02*
X60363600Y-45964000D01*
X28355500Y-45966600D02*
X30368000Y-45966600D01*
%TO.N,B3*%
X30644300Y-43755700D02*
X43196900Y-43755700D01*
X29540000Y-44860000D02*
X30644300Y-43755700D01*
X73196900Y-43755700D02*
X74301200Y-44860000D01*
X45644300Y-43755700D02*
X58196900Y-43755700D01*
X104303200Y-44860000D02*
X104540000Y-44860000D01*
X15643100Y-43756900D02*
X28188500Y-43756900D01*
X104540000Y-44860000D02*
X105644700Y-43755300D01*
X118435300Y-43755300D02*
X119540000Y-44860000D01*
X103198900Y-43755700D02*
X104303200Y-44860000D01*
X88196900Y-43755700D02*
X89301200Y-44860000D01*
X59301200Y-44860000D02*
X59540000Y-44860000D01*
X90644300Y-43755700D02*
X103198900Y-43755700D01*
X59540000Y-44860000D02*
X60644300Y-43755700D01*
X14540000Y-44860000D02*
X15643100Y-43756900D01*
X74301200Y-44860000D02*
X74540000Y-44860000D01*
X44540000Y-44860000D02*
X45644300Y-43755700D01*
X58196900Y-43755700D02*
X59301200Y-44860000D01*
X43196900Y-43755700D02*
X44301200Y-44860000D01*
X105644700Y-43755300D02*
X118435300Y-43755300D01*
X28188500Y-43756900D02*
X29291600Y-44860000D01*
X29291600Y-44860000D02*
X29540000Y-44860000D01*
X89540000Y-44860000D02*
X90644300Y-43755700D01*
X75644300Y-43755700D02*
X88196900Y-43755700D01*
X74540000Y-44860000D02*
X75644300Y-43755700D01*
X60644300Y-43755700D02*
X73196900Y-43755700D01*
X89301200Y-44860000D02*
X89540000Y-44860000D01*
X44301200Y-44860000D02*
X44540000Y-44860000D01*
%TO.N,BA*%
X25898300Y-78981700D02*
X27000000Y-77880000D01*
X28101700Y-78981700D02*
X29996400Y-78981700D01*
X13101700Y-78981700D02*
X25898300Y-78981700D01*
X70888800Y-78991200D02*
X72000000Y-77880000D01*
X27000000Y-77880000D02*
X28101700Y-78981700D01*
X55888800Y-78991200D02*
X57000000Y-77880000D01*
X29996400Y-78981700D02*
X31098100Y-77880000D01*
X42495300Y-77880000D02*
X43606500Y-78991200D01*
X58111200Y-78991200D02*
X70888800Y-78991200D01*
X31098100Y-77880000D02*
X42000000Y-77880000D01*
X12000000Y-77880000D02*
X13101700Y-78981700D01*
X42000000Y-77880000D02*
X42495300Y-77880000D01*
X43606500Y-78991200D02*
X55888800Y-78991200D01*
X57000000Y-77880000D02*
X58111200Y-78991200D01*
%TO.N,BI*%
X43663900Y-76514600D02*
X42489300Y-75340000D01*
X73101700Y-76441700D02*
X85898300Y-76441700D01*
X85898300Y-76441700D02*
X87000000Y-75340000D01*
X13101700Y-76441700D02*
X25898300Y-76441700D01*
X72000000Y-75340000D02*
X73101700Y-76441700D01*
X29996400Y-76441700D02*
X28101700Y-76441700D01*
X55825400Y-76514600D02*
X43663900Y-76514600D01*
X31098100Y-75340000D02*
X29996400Y-76441700D01*
X42489300Y-75340000D02*
X42000000Y-75340000D01*
X57000000Y-75340000D02*
X55825400Y-76514600D01*
X25898300Y-76441700D02*
X27000000Y-75340000D01*
X12000000Y-75340000D02*
X13101700Y-76441700D01*
X42000000Y-75340000D02*
X31098100Y-75340000D01*
X28101700Y-76441700D02*
X27000000Y-75340000D01*
%TO.N,BO*%
X104540000Y-75340000D02*
X105651200Y-76451200D01*
X105651200Y-76451200D02*
X118428800Y-76451200D01*
X118428800Y-76451200D02*
X119540000Y-75340000D01*
X88081700Y-74235700D02*
X89186000Y-75340000D01*
X100024500Y-75340000D02*
X101128800Y-74235700D01*
X104186000Y-75340000D02*
X104540000Y-75340000D01*
X29291600Y-75340000D02*
X29540000Y-75340000D01*
X74186000Y-75340000D02*
X74540000Y-75340000D01*
X30644300Y-74235700D02*
X43196900Y-74235700D01*
X103081700Y-74235700D02*
X104186000Y-75340000D01*
X74540000Y-75340000D02*
X85024500Y-75340000D01*
X86128800Y-74235700D02*
X88081700Y-74235700D01*
X60644300Y-74235700D02*
X73081700Y-74235700D01*
X29540000Y-75340000D02*
X30644300Y-74235700D01*
X85024500Y-75340000D02*
X86128800Y-74235700D01*
X44301200Y-75340000D02*
X44540000Y-75340000D01*
X44540000Y-75340000D02*
X45653700Y-74226300D01*
X59540000Y-75340000D02*
X60644300Y-74235700D01*
X73081700Y-74235700D02*
X74186000Y-75340000D01*
X28188500Y-74236900D02*
X29291600Y-75340000D01*
X89186000Y-75340000D02*
X89540000Y-75340000D01*
X57956900Y-74226300D02*
X59070600Y-75340000D01*
X89540000Y-75340000D02*
X100024500Y-75340000D01*
X14540000Y-75340000D02*
X15643100Y-74236900D01*
X59070600Y-75340000D02*
X59540000Y-75340000D01*
X101128800Y-74235700D02*
X103081700Y-74235700D01*
X43196900Y-74235700D02*
X44301200Y-75340000D01*
X45653700Y-74226300D02*
X57956900Y-74226300D01*
X15643100Y-74236900D02*
X28188500Y-74236900D01*
%TO.N,BUS0#*%
X42000000Y-32160000D02*
X42258500Y-32160000D01*
X12000000Y-32160000D02*
X13106000Y-33266000D01*
X71525100Y-7554900D02*
X119445100Y-7554900D01*
X13106000Y-33266000D02*
X15366900Y-33266000D01*
X42258500Y-32160000D02*
X43362500Y-33264000D01*
X30368000Y-33266600D02*
X31474600Y-32160000D01*
X72000000Y-32160000D02*
X73171000Y-33331000D01*
X68000000Y-11080000D02*
X71525100Y-7554900D01*
X85829000Y-33331000D02*
X87000000Y-32160000D01*
X43362500Y-33264000D02*
X45363600Y-33264000D01*
X102000000Y-32160000D02*
X103159700Y-31000300D01*
X73171000Y-33331000D02*
X85829000Y-33331000D01*
X115840300Y-31000300D02*
X117000000Y-32160000D01*
X46467600Y-32160000D02*
X57000000Y-32160000D01*
X27000000Y-32160000D02*
X27248900Y-32160000D01*
X119445100Y-7554900D02*
X120000000Y-7000000D01*
X28355500Y-33266600D02*
X30368000Y-33266600D01*
X31474600Y-32160000D02*
X42000000Y-32160000D01*
X27248900Y-32160000D02*
X28355500Y-33266600D01*
X15366900Y-33266000D02*
X16472900Y-32160000D01*
X103159700Y-31000300D02*
X115840300Y-31000300D01*
X16472900Y-32160000D02*
X27000000Y-32160000D01*
X45363600Y-33264000D02*
X46467600Y-32160000D01*
%TO.N,BUS1#*%
X133262400Y-12485000D02*
X133262400Y-18437600D01*
X85024500Y-32160000D02*
X86129600Y-31054900D01*
X74540000Y-32160000D02*
X85024500Y-32160000D01*
X104540000Y-32467900D02*
X104232100Y-32467900D01*
X127777400Y-7000000D02*
X133262400Y-12485000D01*
X133262400Y-18437600D02*
X119540000Y-32160000D01*
X126000000Y-7000000D02*
X127777400Y-7000000D01*
X87825400Y-31054900D02*
X88930500Y-32160000D01*
X118390300Y-33309700D02*
X119540000Y-32160000D01*
X104540000Y-32467900D02*
X104540000Y-32160000D01*
X101107600Y-33312300D02*
X99955300Y-32160000D01*
X115263200Y-32467900D02*
X116105000Y-33309700D01*
X88930500Y-32160000D02*
X89540000Y-32160000D01*
X99955300Y-32160000D02*
X89540000Y-32160000D01*
X104232100Y-32467900D02*
X103387700Y-33312300D01*
X86129600Y-31054900D02*
X87825400Y-31054900D01*
X104540000Y-32467900D02*
X115263200Y-32467900D01*
X103387700Y-33312300D02*
X101107600Y-33312300D01*
X116105000Y-33309700D02*
X118390300Y-33309700D01*
%TO.N,BUS2#*%
X16472900Y-34700000D02*
X27000000Y-34700000D01*
X75466000Y-35701600D02*
X85998400Y-35701600D01*
X72495300Y-34700000D02*
X73599300Y-35804000D01*
X119873700Y-33430000D02*
X133621000Y-19682700D01*
X75363600Y-35804000D02*
X75466000Y-35701600D01*
X88117700Y-33582300D02*
X99468500Y-33582300D01*
X28355500Y-35806600D02*
X30368000Y-35806600D01*
X116998000Y-34700000D02*
X117000000Y-34700000D01*
X133621000Y-19682700D02*
X133621000Y-8621000D01*
X27248900Y-34700000D02*
X28355500Y-35806600D01*
X43362500Y-35804000D02*
X45363600Y-35804000D01*
X57258500Y-34700000D02*
X58362500Y-35804000D01*
X57000000Y-34700000D02*
X57258500Y-34700000D01*
X115842900Y-33544900D02*
X116998000Y-34700000D01*
X102803200Y-34700000D02*
X103958300Y-33544900D01*
X102000000Y-34700000D02*
X102803200Y-34700000D01*
X99468500Y-33582300D02*
X100586200Y-34700000D01*
X30368000Y-35806600D02*
X31474600Y-34700000D01*
X45363600Y-35804000D02*
X46467600Y-34700000D01*
X46467600Y-34700000D02*
X57000000Y-34700000D01*
X85998400Y-35701600D02*
X87000000Y-34700000D01*
X42258500Y-34700000D02*
X43362500Y-35804000D01*
X118834500Y-33430000D02*
X119873700Y-33430000D01*
X42000000Y-34700000D02*
X42258500Y-34700000D01*
X12000000Y-34700000D02*
X13106000Y-35806000D01*
X87000000Y-34700000D02*
X88117700Y-33582300D01*
X15366900Y-35806000D02*
X16472900Y-34700000D01*
X61467600Y-34700000D02*
X72000000Y-34700000D01*
X72000000Y-34700000D02*
X72495300Y-34700000D01*
X13106000Y-35806000D02*
X15366900Y-35806000D01*
X117564500Y-34700000D02*
X118834500Y-33430000D01*
X117000000Y-34700000D02*
X117564500Y-34700000D01*
X27000000Y-34700000D02*
X27248900Y-34700000D01*
X103958300Y-33544900D02*
X115842900Y-33544900D01*
X58362500Y-35804000D02*
X60363600Y-35804000D01*
X73599300Y-35804000D02*
X75363600Y-35804000D01*
X100586200Y-34700000D02*
X102000000Y-34700000D01*
X60363600Y-35804000D02*
X61467600Y-34700000D01*
X133621000Y-8621000D02*
X132000000Y-7000000D01*
X31474600Y-34700000D02*
X42000000Y-34700000D01*
%TO.N,BUS3#*%
X80000000Y-11080000D02*
X81118300Y-9961700D01*
X81118300Y-9961700D02*
X116961700Y-9961700D01*
X28188500Y-33596900D02*
X29291600Y-34700000D01*
X29540000Y-34700000D02*
X30644300Y-33595700D01*
X98774800Y-34700000D02*
X98898500Y-34823700D01*
X44301200Y-34700000D02*
X44540000Y-34700000D01*
X89540000Y-34700000D02*
X98774800Y-34700000D01*
X29291600Y-34700000D02*
X29540000Y-34700000D01*
X15643100Y-33596900D02*
X28188500Y-33596900D01*
X30644300Y-33595700D02*
X43196900Y-33595700D01*
X14540000Y-34700000D02*
X15643100Y-33596900D01*
X116961700Y-9961700D02*
X120000000Y-13000000D01*
X43196900Y-33595700D02*
X44301200Y-34700000D01*
%TO.N,CF*%
X27000000Y-67720000D02*
X27248900Y-67720000D01*
X31474600Y-67720000D02*
X42000000Y-67720000D01*
X88601300Y-68826000D02*
X90366900Y-68826000D01*
X73602700Y-68827400D02*
X75369100Y-68827400D01*
X61467600Y-67720000D02*
X72000000Y-67720000D01*
X115892000Y-66614000D02*
X116998000Y-67720000D01*
X60363600Y-68824000D02*
X61467600Y-67720000D01*
X90366900Y-68826000D02*
X91472900Y-67720000D01*
X87000000Y-67720000D02*
X87495300Y-67720000D01*
X43362500Y-68824000D02*
X45363600Y-68824000D01*
X46467600Y-67720000D02*
X57000000Y-67720000D01*
X72495300Y-67720000D02*
X73602700Y-68827400D01*
X12000000Y-67720000D02*
X13106000Y-68826000D01*
X58360500Y-68824000D02*
X60363600Y-68824000D01*
X116998000Y-67720000D02*
X117000000Y-67720000D01*
X30368000Y-68826600D02*
X31474600Y-67720000D01*
X42258500Y-67720000D02*
X43362500Y-68824000D01*
X57000000Y-67720000D02*
X57256500Y-67720000D01*
X27248900Y-67720000D02*
X28355500Y-68826600D01*
X45363600Y-68824000D02*
X46467600Y-67720000D01*
X76476500Y-67720000D02*
X87000000Y-67720000D01*
X103106000Y-66614000D02*
X115892000Y-66614000D01*
X87495300Y-67720000D02*
X88601300Y-68826000D01*
X16472900Y-67720000D02*
X27000000Y-67720000D01*
X102000000Y-67720000D02*
X103106000Y-66614000D01*
X42000000Y-67720000D02*
X42258500Y-67720000D01*
X28355500Y-68826600D02*
X30368000Y-68826600D01*
X91472900Y-67720000D02*
X102000000Y-67720000D01*
X57256500Y-67720000D02*
X58360500Y-68824000D01*
X15366900Y-68826000D02*
X16472900Y-67720000D01*
X72000000Y-67720000D02*
X72495300Y-67720000D01*
X75369100Y-68827400D02*
X76476500Y-67720000D01*
X13106000Y-68826000D02*
X15366900Y-68826000D01*
%TO.N,CLK*%
X87000000Y-27080000D02*
X85893500Y-25973500D01*
X85893500Y-25973500D02*
X75619900Y-25973500D01*
X75619900Y-25973500D02*
X75619900Y-25973400D01*
X100916700Y-28163300D02*
X90566000Y-28163300D01*
X106374100Y-27097400D02*
X116982600Y-27097400D01*
X116982600Y-27097400D02*
X117000000Y-27080000D01*
X102000000Y-27080000D02*
X100916700Y-28163300D01*
%TO.N,EO*%
X58194900Y-69155700D02*
X59299200Y-70260000D01*
X74540000Y-70260000D02*
X75641700Y-69158300D01*
X60644300Y-69155700D02*
X73433700Y-69155700D01*
X14540000Y-70260000D02*
X15643100Y-69156900D01*
X74538000Y-70260000D02*
X74540000Y-70260000D01*
X73433700Y-69155700D02*
X74538000Y-70260000D01*
X75641700Y-69158300D02*
X88436300Y-69158300D01*
X29291600Y-70260000D02*
X29540000Y-70260000D01*
X45644300Y-69155700D02*
X58194900Y-69155700D01*
X44301200Y-70260000D02*
X44540000Y-70260000D01*
X43196900Y-69155700D02*
X44301200Y-70260000D01*
X89538000Y-70260000D02*
X89540000Y-70260000D01*
X15643100Y-69156900D02*
X28188500Y-69156900D01*
X29540000Y-70260000D02*
X30644300Y-69155700D01*
X30644300Y-69155700D02*
X43196900Y-69155700D01*
X28188500Y-69156900D02*
X29291600Y-70260000D01*
X59299200Y-70260000D02*
X59540000Y-70260000D01*
X59540000Y-70260000D02*
X60644300Y-69155700D01*
X44540000Y-70260000D02*
X45644300Y-69155700D01*
X88436300Y-69158300D02*
X89538000Y-70260000D01*
%TO.N,F0*%
X101131600Y-94552900D02*
X102828600Y-94552900D01*
X74540000Y-95660000D02*
X85024500Y-95660000D01*
X30644300Y-94555700D02*
X43198900Y-94555700D01*
X15643100Y-94556900D02*
X28186500Y-94556900D01*
X59186000Y-95660000D02*
X59540000Y-95660000D01*
X89540000Y-95660000D02*
X100024500Y-95660000D01*
X28186500Y-94556900D02*
X29289600Y-95660000D01*
X58081700Y-94555700D02*
X59186000Y-95660000D01*
X103935700Y-95660000D02*
X104540000Y-95660000D01*
X14540000Y-95660000D02*
X15643100Y-94556900D01*
X88081700Y-94555700D02*
X89186000Y-95660000D01*
X45644300Y-94555700D02*
X58081700Y-94555700D01*
X100024500Y-95660000D02*
X101131600Y-94552900D01*
X105644700Y-94555300D02*
X118435300Y-94555300D01*
X104540000Y-95660000D02*
X105644700Y-94555300D01*
X43198900Y-94555700D02*
X44303200Y-95660000D01*
X44540000Y-95660000D02*
X45644300Y-94555700D01*
X44303200Y-95660000D02*
X44540000Y-95660000D01*
X29540000Y-95660000D02*
X30644300Y-94555700D01*
X89186000Y-95660000D02*
X89540000Y-95660000D01*
X85024500Y-95660000D02*
X86128800Y-94555700D01*
X102828600Y-94552900D02*
X103935700Y-95660000D01*
X118435300Y-94555300D02*
X119540000Y-95660000D01*
X86128800Y-94555700D02*
X88081700Y-94555700D01*
X29289600Y-95660000D02*
X29540000Y-95660000D01*
%TO.N,F1*%
X87000000Y-98200000D02*
X88135200Y-99335200D01*
X115850000Y-99350000D02*
X117000000Y-98200000D01*
X40898300Y-99301700D02*
X42000000Y-98200000D01*
X103150000Y-99350000D02*
X115850000Y-99350000D01*
X27000000Y-98200000D02*
X28101700Y-99301700D01*
X72000000Y-98200000D02*
X73111200Y-99311200D01*
X57000000Y-98200000D02*
X55898300Y-99301700D01*
X85888800Y-99311200D02*
X87000000Y-98200000D01*
X12000000Y-98200000D02*
X13101700Y-99301700D01*
X73111200Y-99311200D02*
X85888800Y-99311200D01*
X88135200Y-99335200D02*
X100864800Y-99335200D01*
X13101700Y-99301700D02*
X25898300Y-99301700D01*
X25898300Y-99301700D02*
X27000000Y-98200000D01*
X100864800Y-99335200D02*
X102000000Y-98200000D01*
X55898300Y-99301700D02*
X43101700Y-99301700D01*
X28101700Y-99301700D02*
X40898300Y-99301700D01*
X102000000Y-98200000D02*
X103150000Y-99350000D01*
X43101700Y-99301700D02*
X42000000Y-98200000D01*
%TO.N,FI*%
X44301200Y-85500000D02*
X44540000Y-85500000D01*
X90665400Y-84374600D02*
X89540000Y-85500000D01*
X14540000Y-85500000D02*
X15643100Y-84396900D01*
X60644300Y-84395700D02*
X73196900Y-84395700D01*
X30644300Y-84395700D02*
X43196900Y-84395700D01*
X104540000Y-85500000D02*
X103414600Y-84374600D01*
X88414600Y-84374600D02*
X89540000Y-85500000D01*
X59540000Y-85500000D02*
X60644300Y-84395700D01*
X73196900Y-84395700D02*
X74301200Y-85500000D01*
X45644300Y-84395700D02*
X58196900Y-84395700D01*
X103414600Y-84374600D02*
X90665400Y-84374600D01*
X58196900Y-84395700D02*
X59301200Y-85500000D01*
X74301200Y-85500000D02*
X74540000Y-85500000D01*
X44540000Y-85500000D02*
X45644300Y-84395700D01*
X59301200Y-85500000D02*
X59540000Y-85500000D01*
X29540000Y-85500000D02*
X30644300Y-84395700D01*
X29291600Y-85500000D02*
X29540000Y-85500000D01*
X15643100Y-84396900D02*
X28188500Y-84396900D01*
X75665400Y-84374600D02*
X88414600Y-84374600D01*
X28188500Y-84396900D02*
X29291600Y-85500000D01*
X43196900Y-84395700D02*
X44301200Y-85500000D01*
X74540000Y-85500000D02*
X75665400Y-84374600D01*
%TO.N,GND*%
D23*
X29540000Y-100740000D02*
X29540000Y-103240000D01*
X114000000Y-11080000D02*
X114000000Y-13600000D01*
X44540000Y-100740000D02*
X44540000Y-103240000D01*
D24*
X12000000Y-24540000D02*
X119540000Y-24540000D01*
D23*
X14540000Y-24540000D02*
X14540000Y-29620000D01*
X104540000Y-100740000D02*
X104540000Y-103240000D01*
X59540000Y-100740000D02*
X59540000Y-103240000D01*
X59540000Y-24540000D02*
X59540000Y-29620000D01*
X44540000Y-24540000D02*
X44540000Y-29620000D01*
X14540000Y-100740000D02*
X14540000Y-103240000D01*
X89540000Y-24540000D02*
X89540000Y-29620000D01*
X86000000Y-11080000D02*
X114000000Y-11080000D01*
X119540000Y-100740000D02*
X119540000Y-103240000D01*
X119540000Y-24540000D02*
X119540000Y-29620000D01*
X104540000Y-24540000D02*
X104540000Y-29620000D01*
X89540000Y-100740000D02*
X89540000Y-103240000D01*
X29540000Y-24540000D02*
X29540000Y-29620000D01*
X74540000Y-100740000D02*
X74540000Y-103240000D01*
X74540000Y-24540000D02*
X74540000Y-29620000D01*
%TO.N,HLT*%
D22*
X13101700Y-89141700D02*
X25898300Y-89141700D01*
X25898300Y-89141700D02*
X27000000Y-88040000D01*
X42603900Y-88040000D02*
X43711100Y-89147200D01*
X28104800Y-89144800D02*
X27000000Y-88040000D01*
X73104000Y-89144000D02*
X85896000Y-89144000D01*
X100896000Y-89144000D02*
X102000000Y-88040000D01*
X85896000Y-89144000D02*
X87000000Y-88040000D01*
X43711100Y-89147200D02*
X55892800Y-89147200D01*
X105363600Y-89144000D02*
X106467600Y-88040000D01*
X88104000Y-89144000D02*
X100896000Y-89144000D01*
X57000000Y-88040000D02*
X58104000Y-89144000D01*
X102000000Y-88040000D02*
X103104000Y-89144000D01*
X12000000Y-88040000D02*
X13101700Y-89141700D01*
X55892800Y-89147200D02*
X57000000Y-88040000D01*
X103104000Y-89144000D02*
X105363600Y-89144000D01*
X40895200Y-89144800D02*
X28104800Y-89144800D01*
X58104000Y-89144000D02*
X70896000Y-89144000D01*
X87000000Y-88040000D02*
X88104000Y-89144000D01*
X70896000Y-89144000D02*
X72000000Y-88040000D01*
X106467600Y-88040000D02*
X117000000Y-88040000D01*
X72000000Y-88040000D02*
X73104000Y-89144000D01*
X42000000Y-88040000D02*
X40895200Y-89144800D01*
X42000000Y-88040000D02*
X42603900Y-88040000D01*
%TO.N,II*%
X42258500Y-82960000D02*
X43362500Y-84064000D01*
X73362500Y-84064000D02*
X75363600Y-84064000D01*
X57000000Y-82960000D02*
X57258500Y-82960000D01*
X12000000Y-82960000D02*
X13106000Y-84066000D01*
X76467600Y-82960000D02*
X87000000Y-82960000D01*
X90280500Y-84069500D02*
X91390000Y-82960000D01*
X46467600Y-82960000D02*
X57000000Y-82960000D01*
X72258500Y-82960000D02*
X73362500Y-84064000D01*
X43362500Y-84064000D02*
X45363600Y-84064000D01*
X75363600Y-84064000D02*
X76467600Y-82960000D01*
X28355500Y-84066600D02*
X30368000Y-84066600D01*
X117000000Y-82960000D02*
X106390000Y-82960000D01*
X60363600Y-84064000D02*
X61467600Y-82960000D01*
X42000000Y-82960000D02*
X42258500Y-82960000D01*
X91390000Y-82960000D02*
X102000000Y-82960000D01*
X102612500Y-82960000D02*
X102000000Y-82960000D01*
X57258500Y-82960000D02*
X58362500Y-84064000D01*
X30368000Y-84066600D02*
X31474600Y-82960000D01*
X87982000Y-82960000D02*
X89091500Y-84069500D01*
X15366900Y-84066000D02*
X16472900Y-82960000D01*
X105286000Y-84064000D02*
X103716500Y-84064000D01*
X89091500Y-84069500D02*
X90280500Y-84069500D01*
X61467600Y-82960000D02*
X72000000Y-82960000D01*
X13106000Y-84066000D02*
X15366900Y-84066000D01*
X45363600Y-84064000D02*
X46467600Y-82960000D01*
X87000000Y-82960000D02*
X87982000Y-82960000D01*
X106390000Y-82960000D02*
X105286000Y-84064000D01*
X16472900Y-82960000D02*
X27000000Y-82960000D01*
X72000000Y-82960000D02*
X72258500Y-82960000D01*
X31474600Y-82960000D02*
X42000000Y-82960000D01*
X103716500Y-84064000D02*
X102612500Y-82960000D01*
X27000000Y-82960000D02*
X27248900Y-82960000D01*
X58362500Y-84064000D02*
X60363600Y-84064000D01*
X27248900Y-82960000D02*
X28355500Y-84066600D01*
%TO.N,INP*%
X70024500Y-98200000D02*
X71128800Y-97095700D01*
X59540000Y-98200000D02*
X70024500Y-98200000D01*
X118435700Y-97095700D02*
X105644300Y-97095700D01*
X30642800Y-97097200D02*
X43435200Y-97097200D01*
X71128800Y-97095700D02*
X73081700Y-97095700D01*
X119540000Y-98200000D02*
X118435700Y-97095700D01*
X44538000Y-98200000D02*
X44540000Y-98200000D01*
X73081700Y-97095700D02*
X74186000Y-98200000D01*
X105644300Y-97095700D02*
X104540000Y-98200000D01*
X29540000Y-98200000D02*
X30642800Y-97097200D01*
X43435200Y-97097200D02*
X44538000Y-98200000D01*
X74186000Y-98200000D02*
X74540000Y-98200000D01*
%TO.N,IO*%
X30644300Y-79315700D02*
X43433700Y-79315700D01*
X44538000Y-80420000D02*
X44540000Y-80420000D01*
X89540000Y-80420000D02*
X90641700Y-81521700D01*
X90641700Y-81521700D02*
X103438300Y-81521700D01*
X29540000Y-80420000D02*
X30644300Y-79315700D01*
X103438300Y-81521700D02*
X104540000Y-80420000D01*
X105654100Y-81534100D02*
X104540000Y-80420000D01*
X118425900Y-81534100D02*
X105654100Y-81534100D01*
X119540000Y-80420000D02*
X118425900Y-81534100D01*
X43433700Y-79315700D02*
X44538000Y-80420000D01*
%TO.N,M0*%
X43362500Y-58664000D02*
X45363600Y-58664000D01*
X42258500Y-57560000D02*
X43362500Y-58664000D01*
X87000000Y-57560000D02*
X88104500Y-58664500D01*
X103122700Y-58682700D02*
X115877300Y-58682700D01*
X58591600Y-58664300D02*
X57487300Y-57560000D01*
X88104500Y-58664500D02*
X100895500Y-58664500D01*
X30368000Y-58666600D02*
X31474600Y-57560000D01*
X115877300Y-58682700D02*
X117000000Y-57560000D01*
X70895700Y-58664300D02*
X58591600Y-58664300D01*
X27248900Y-57560000D02*
X28355500Y-58666600D01*
X102000000Y-57560000D02*
X103122700Y-58682700D01*
X27000000Y-57560000D02*
X27248900Y-57560000D01*
X16472900Y-57560000D02*
X27000000Y-57560000D01*
X45363600Y-58664000D02*
X46467600Y-57560000D01*
X15366900Y-58666000D02*
X16472900Y-57560000D01*
X31474600Y-57560000D02*
X42000000Y-57560000D01*
X46467600Y-57560000D02*
X57000000Y-57560000D01*
X42000000Y-57560000D02*
X42258500Y-57560000D01*
X28355500Y-58666600D02*
X30368000Y-58666600D01*
X12000000Y-57560000D02*
X13106000Y-58666000D01*
X13106000Y-58666000D02*
X15366900Y-58666000D01*
X100895500Y-58664500D02*
X102000000Y-57560000D01*
X57487300Y-57560000D02*
X57000000Y-57560000D01*
X72000000Y-57560000D02*
X70895700Y-58664300D01*
%TO.N,M1*%
X45644300Y-56455700D02*
X58435700Y-56455700D01*
X28188500Y-56456900D02*
X29291600Y-57560000D01*
X15643100Y-56456900D02*
X28188500Y-56456900D01*
X74540000Y-57560000D02*
X75664000Y-56436000D01*
X118428700Y-56448700D02*
X119540000Y-57560000D01*
X104303200Y-57560000D02*
X104540000Y-57560000D01*
X104540000Y-57560000D02*
X105651300Y-56448700D01*
X90664000Y-56436000D02*
X103179200Y-56436000D01*
X44301200Y-57560000D02*
X44540000Y-57560000D01*
X89493300Y-57560000D02*
X89540000Y-57560000D01*
X29540000Y-57560000D02*
X30644300Y-56455700D01*
X29291600Y-57560000D02*
X29540000Y-57560000D01*
X75664000Y-56436000D02*
X88369300Y-56436000D01*
X58435700Y-56455700D02*
X59540000Y-57560000D01*
X89540000Y-57560000D02*
X90664000Y-56436000D01*
X103179200Y-56436000D02*
X104303200Y-57560000D01*
X88369300Y-56436000D02*
X89493300Y-57560000D01*
X14540000Y-57560000D02*
X15643100Y-56456900D01*
X44540000Y-57560000D02*
X45644300Y-56455700D01*
X30644300Y-56455700D02*
X43196900Y-56455700D01*
X105651300Y-56448700D02*
X118428700Y-56448700D01*
X43196900Y-56455700D02*
X44301200Y-57560000D01*
%TO.N,M2*%
X12000000Y-60100000D02*
X13106000Y-61206000D01*
X42000000Y-60100000D02*
X42258500Y-60100000D01*
X42258500Y-60100000D02*
X43362500Y-61204000D01*
X43362500Y-61204000D02*
X45363600Y-61204000D01*
X16472900Y-60100000D02*
X27000000Y-60100000D01*
X46467600Y-60100000D02*
X57000000Y-60100000D01*
X30368000Y-61206600D02*
X31474600Y-60100000D01*
X71168100Y-60931900D02*
X72000000Y-60100000D01*
X116970600Y-60129400D02*
X117000000Y-60100000D01*
X106144800Y-60129400D02*
X116970600Y-60129400D01*
X45363600Y-61204000D02*
X46467600Y-60100000D01*
X15366900Y-61206000D02*
X16472900Y-60100000D01*
X60636300Y-60931900D02*
X71168100Y-60931900D01*
X13106000Y-61206000D02*
X15366900Y-61206000D01*
X27000000Y-60100000D02*
X27248900Y-60100000D01*
X60364000Y-61204200D02*
X60636300Y-60931900D01*
X58361900Y-61204200D02*
X60364000Y-61204200D01*
X28355500Y-61206600D02*
X30368000Y-61206600D01*
X27248900Y-60100000D02*
X28355500Y-61206600D01*
X57000000Y-60100000D02*
X57257700Y-60100000D01*
X57257700Y-60100000D02*
X58361900Y-61204200D01*
X31474600Y-60100000D02*
X42000000Y-60100000D01*
%TO.N,M3*%
X75682300Y-58957700D02*
X87793200Y-58957700D01*
X43196900Y-58995700D02*
X44301200Y-60100000D01*
X30644300Y-58995700D02*
X43196900Y-58995700D01*
X15643100Y-58996900D02*
X28188500Y-58996900D01*
X105652000Y-59100600D02*
X116023900Y-59100600D01*
X59540000Y-60100000D02*
X70024500Y-60100000D01*
X116023900Y-59100600D02*
X116159200Y-58965300D01*
X59185700Y-60100000D02*
X59540000Y-60100000D01*
X44301200Y-60100000D02*
X44540000Y-60100000D01*
X14540000Y-60100000D02*
X15643100Y-58996900D01*
X28188500Y-58996900D02*
X29291600Y-60100000D01*
X87793200Y-58957700D02*
X88935500Y-60100000D01*
X88935500Y-60100000D02*
X89540000Y-60100000D01*
X74540000Y-60100000D02*
X75682300Y-58957700D01*
X116159200Y-58965300D02*
X118405300Y-58965300D01*
X45644200Y-58995800D02*
X58081500Y-58995800D01*
X118405300Y-58965300D02*
X119540000Y-60100000D01*
X44540000Y-60100000D02*
X45644200Y-58995800D01*
X29291600Y-60100000D02*
X29540000Y-60100000D01*
X104540000Y-60100000D02*
X105537900Y-59102100D01*
X29540000Y-60100000D02*
X30644300Y-58995700D01*
X71128500Y-58996000D02*
X73436000Y-58996000D01*
X58081500Y-58995800D02*
X59185700Y-60100000D01*
X105537900Y-59102100D02*
X105650500Y-59102100D01*
X73436000Y-58996000D02*
X74540000Y-60100000D01*
X105650500Y-59102100D02*
X105652000Y-59100600D01*
X70024500Y-60100000D02*
X71128500Y-58996000D01*
%TO.N,M4*%
X12000000Y-62640000D02*
X13101700Y-63741700D01*
X42000000Y-62640000D02*
X31098100Y-62640000D01*
X31098100Y-62640000D02*
X29996400Y-63741700D01*
X42258500Y-62640000D02*
X42000000Y-62640000D01*
X102000000Y-62640000D02*
X103106000Y-61534000D01*
X73606500Y-63751200D02*
X85888800Y-63751200D01*
X103106000Y-61534000D02*
X115894000Y-61534000D01*
X43362500Y-63744000D02*
X42258500Y-62640000D01*
X13101700Y-63741700D02*
X25898300Y-63741700D01*
X25898300Y-63741700D02*
X27000000Y-62640000D01*
X28101700Y-63741700D02*
X27000000Y-62640000D01*
X72495300Y-62640000D02*
X73606500Y-63751200D01*
X55896000Y-63744000D02*
X43362500Y-63744000D01*
X115894000Y-61534000D02*
X117000000Y-62640000D01*
X29996400Y-63741700D02*
X28101700Y-63741700D01*
X85888800Y-63751200D02*
X87000000Y-62640000D01*
X57000000Y-62640000D02*
X55896000Y-63744000D01*
X72000000Y-62640000D02*
X72495300Y-62640000D01*
%TO.N,M5*%
X73428700Y-61528700D02*
X74540000Y-62640000D01*
X89540000Y-62640000D02*
X90644000Y-63744000D01*
X59300400Y-62640000D02*
X59540000Y-62640000D01*
X58196200Y-61535800D02*
X59300400Y-62640000D01*
X90644000Y-63744000D02*
X103436000Y-63744000D01*
X45644200Y-61535800D02*
X58196200Y-61535800D01*
X43196900Y-61535700D02*
X44301200Y-62640000D01*
X29540000Y-62640000D02*
X30644300Y-61535700D01*
X118428800Y-63751200D02*
X119540000Y-62640000D01*
X60651300Y-61528700D02*
X73428700Y-61528700D01*
X15643100Y-61536900D02*
X28188500Y-61536900D01*
X59540000Y-62640000D02*
X60651300Y-61528700D01*
X44301200Y-62640000D02*
X44540000Y-62640000D01*
X28188500Y-61536900D02*
X29291600Y-62640000D01*
X29291600Y-62640000D02*
X29540000Y-62640000D01*
X44540000Y-62640000D02*
X45644200Y-61535800D01*
X105651200Y-63751200D02*
X118428800Y-63751200D01*
X30644300Y-61535700D02*
X43196900Y-61535700D01*
X14540000Y-62640000D02*
X15643100Y-61536900D01*
X103436000Y-63744000D02*
X104540000Y-62640000D01*
X104540000Y-62640000D02*
X105651200Y-63751200D01*
%TO.N,M6*%
X42000000Y-65180000D02*
X43104000Y-66284000D01*
X46467600Y-65180000D02*
X57000000Y-65180000D01*
X12000000Y-65180000D02*
X13106000Y-66286000D01*
X57495300Y-65180000D02*
X58602700Y-66287400D01*
X45363600Y-66284000D02*
X46467600Y-65180000D01*
X72982000Y-65180000D02*
X74083700Y-66281700D01*
X28101700Y-66281700D02*
X27000000Y-65180000D01*
X42000000Y-65180000D02*
X40898300Y-66281700D01*
X74083700Y-66281700D02*
X85898300Y-66281700D01*
X58602700Y-66287400D02*
X60369100Y-66287400D01*
X72000000Y-65180000D02*
X72982000Y-65180000D01*
X57000000Y-65180000D02*
X57495300Y-65180000D01*
X60369100Y-66287400D02*
X61476500Y-65180000D01*
X85898300Y-66281700D02*
X87000000Y-65180000D01*
X100898300Y-66281700D02*
X88101700Y-66281700D01*
X13106000Y-66286000D02*
X25894000Y-66286000D01*
X25894000Y-66286000D02*
X27000000Y-65180000D01*
X61476500Y-65180000D02*
X72000000Y-65180000D01*
X88101700Y-66281700D02*
X87000000Y-65180000D01*
X43104000Y-66284000D02*
X45363600Y-66284000D01*
X40898300Y-66281700D02*
X28101700Y-66281700D01*
X102000000Y-65180000D02*
X100898300Y-66281700D01*
%TO.N,M7*%
X60644700Y-64075300D02*
X73433300Y-64075300D01*
X104540000Y-65180000D02*
X114955300Y-65180000D01*
X29540000Y-65180000D02*
X30644300Y-64075700D01*
X43196900Y-64075700D02*
X44301200Y-65180000D01*
X114955300Y-65180000D02*
X116066500Y-66291200D01*
X73433300Y-64075300D02*
X74538000Y-65180000D01*
X59540000Y-65180000D02*
X60644700Y-64075300D01*
X116066500Y-66291200D02*
X118428800Y-66291200D01*
X30644300Y-64075700D02*
X43196900Y-64075700D01*
X118428800Y-66291200D02*
X119540000Y-65180000D01*
X44301200Y-65180000D02*
X44540000Y-65180000D01*
X74538000Y-65180000D02*
X74540000Y-65180000D01*
%TO.N,MAI*%
X59540000Y-88040000D02*
X70024500Y-88040000D01*
X89303200Y-88040000D02*
X89540000Y-88040000D01*
X59186000Y-88040000D02*
X59540000Y-88040000D01*
X103081700Y-86935700D02*
X104186000Y-88040000D01*
X88198600Y-86935400D02*
X89303200Y-88040000D01*
X74186000Y-88040000D02*
X74540000Y-88040000D01*
X85024500Y-88040000D02*
X86129100Y-86935400D01*
X29540000Y-88040000D02*
X30644300Y-86935700D01*
X28186500Y-86936900D02*
X29289600Y-88040000D01*
X43081700Y-86935700D02*
X44186000Y-88040000D01*
X58081700Y-86935700D02*
X59186000Y-88040000D01*
X104186000Y-88040000D02*
X104540000Y-88040000D01*
X44540000Y-88040000D02*
X55024500Y-88040000D01*
X14540000Y-88040000D02*
X15643100Y-86936900D01*
X86129100Y-86935400D02*
X88198600Y-86935400D01*
X89540000Y-88040000D02*
X90644300Y-86935700D01*
X55024500Y-88040000D02*
X56128800Y-86935700D01*
X56128800Y-86935700D02*
X58081700Y-86935700D01*
X90644300Y-86935700D02*
X103081700Y-86935700D01*
X73081700Y-86935700D02*
X74186000Y-88040000D01*
X70024500Y-88040000D02*
X71128800Y-86935700D01*
X74540000Y-88040000D02*
X85024500Y-88040000D01*
X15643100Y-86936900D02*
X28186500Y-86936900D01*
X44186000Y-88040000D02*
X44540000Y-88040000D01*
X29289600Y-88040000D02*
X29540000Y-88040000D01*
X30644300Y-86935700D02*
X43081700Y-86935700D01*
X71128800Y-86935700D02*
X73081700Y-86935700D01*
%TO.N,MI*%
X72000000Y-90580000D02*
X72258500Y-90580000D01*
X103599300Y-91684000D02*
X105363600Y-91684000D01*
X106467600Y-90580000D02*
X117000000Y-90580000D01*
X76467600Y-90580000D02*
X87000000Y-90580000D01*
X13106000Y-91686000D02*
X15366900Y-91686000D01*
X57000000Y-90580000D02*
X57258500Y-90580000D01*
X105363600Y-91684000D02*
X106467600Y-90580000D01*
X87258500Y-90580000D02*
X88362500Y-91684000D01*
X15366900Y-91686000D02*
X16472900Y-90580000D01*
X88362500Y-91684000D02*
X90363600Y-91684000D01*
X57258500Y-90580000D02*
X58362500Y-91684000D01*
X75363600Y-91684000D02*
X76467600Y-90580000D01*
X42000000Y-90580000D02*
X42495300Y-90580000D01*
X91467600Y-90580000D02*
X102000000Y-90580000D01*
X102000000Y-90580000D02*
X102495300Y-90580000D01*
X90363600Y-91684000D02*
X91467600Y-90580000D01*
X16472900Y-90580000D02*
X27000000Y-90580000D01*
X43602200Y-91686900D02*
X45368500Y-91686900D01*
X61467600Y-90580000D02*
X72000000Y-90580000D01*
X87000000Y-90580000D02*
X87258500Y-90580000D01*
X45368500Y-91686900D02*
X46475400Y-90580000D01*
X72258500Y-90580000D02*
X73362500Y-91684000D01*
X60363600Y-91684000D02*
X61467600Y-90580000D01*
X73362500Y-91684000D02*
X75363600Y-91684000D01*
X12000000Y-90580000D02*
X13106000Y-91686000D01*
X42495300Y-90580000D02*
X43602200Y-91686900D01*
X46475400Y-90580000D02*
X57000000Y-90580000D01*
X102495300Y-90580000D02*
X103599300Y-91684000D01*
X58362500Y-91684000D02*
X60363600Y-91684000D01*
%TO.N,MO*%
X118435300Y-89475300D02*
X119540000Y-90580000D01*
X40024500Y-90580000D02*
X41127300Y-89477200D01*
X105644700Y-89475300D02*
X118435300Y-89475300D01*
X104540000Y-90580000D02*
X105644700Y-89475300D01*
X43437200Y-89477200D02*
X44540000Y-90580000D01*
X41127300Y-89477200D02*
X43437200Y-89477200D01*
X29540000Y-90580000D02*
X40024500Y-90580000D01*
%TO.N,OI*%
X57000000Y-80420000D02*
X57495300Y-80420000D01*
X40898300Y-81521700D02*
X28101700Y-81521700D01*
X70896000Y-81524000D02*
X72000000Y-80420000D01*
X87564500Y-80420000D02*
X87000000Y-80420000D01*
X43104000Y-81524000D02*
X55896000Y-81524000D01*
X42000000Y-80420000D02*
X40898300Y-81521700D01*
X116998000Y-80420000D02*
X117000000Y-80420000D01*
X57495300Y-80420000D02*
X58599300Y-81524000D01*
X102000000Y-80420000D02*
X100888700Y-79308700D01*
X100888700Y-79308700D02*
X88675800Y-79308700D01*
X13106000Y-81526000D02*
X25894000Y-81526000D01*
X74996400Y-81521700D02*
X76098100Y-80420000D01*
X25894000Y-81526000D02*
X27000000Y-80420000D01*
X58599300Y-81524000D02*
X70896000Y-81524000D01*
X73101700Y-81521700D02*
X74996400Y-81521700D01*
X103106500Y-79313500D02*
X115891500Y-79313500D01*
X42000000Y-80420000D02*
X43104000Y-81524000D01*
X88675800Y-79308700D02*
X87564500Y-80420000D01*
X28101700Y-81521700D02*
X27000000Y-80420000D01*
X55896000Y-81524000D02*
X57000000Y-80420000D01*
X115891500Y-79313500D02*
X116998000Y-80420000D01*
X102000000Y-80420000D02*
X103106500Y-79313500D01*
X72000000Y-80420000D02*
X73101700Y-81521700D01*
X76098100Y-80420000D02*
X87000000Y-80420000D01*
X12000000Y-80420000D02*
X13106000Y-81526000D01*
%TO.N,ONE*%
X102000000Y-95660000D02*
X103104000Y-96764000D01*
X25894000Y-96766000D02*
X27000000Y-95660000D01*
X70896000Y-96764000D02*
X72000000Y-95660000D01*
X13106000Y-96766000D02*
X25894000Y-96766000D01*
X87000000Y-95660000D02*
X85896000Y-96764000D01*
X105363600Y-96764000D02*
X106467600Y-95660000D01*
X57000000Y-95660000D02*
X58104000Y-96764000D01*
X102000000Y-95660000D02*
X100896000Y-96764000D01*
X100896000Y-96764000D02*
X88104000Y-96764000D01*
X31098100Y-95660000D02*
X42000000Y-95660000D01*
X73531600Y-96764000D02*
X72427600Y-95660000D01*
X88104000Y-96764000D02*
X87000000Y-95660000D01*
X72427600Y-95660000D02*
X72000000Y-95660000D01*
X43606500Y-96771200D02*
X55888800Y-96771200D01*
X58104000Y-96764000D02*
X70896000Y-96764000D01*
X55888800Y-96771200D02*
X57000000Y-95660000D01*
X85896000Y-96764000D02*
X73531600Y-96764000D01*
X27000000Y-95660000D02*
X28101700Y-96761700D01*
X42495300Y-95660000D02*
X43606500Y-96771200D01*
X106467600Y-95660000D02*
X117000000Y-95660000D01*
X29996400Y-96761700D02*
X31098100Y-95660000D01*
X28101700Y-96761700D02*
X29996400Y-96761700D01*
X103104000Y-96764000D02*
X105363600Y-96764000D01*
X42000000Y-95660000D02*
X42495300Y-95660000D01*
X12000000Y-95660000D02*
X13106000Y-96766000D01*
%TO.N,PC0*%
X58362500Y-48504000D02*
X60363600Y-48504000D01*
X28355500Y-48506600D02*
X30368000Y-48506600D01*
X102000000Y-47400000D02*
X91515600Y-47400000D01*
X27000000Y-47400000D02*
X27248900Y-47400000D01*
X105367800Y-48506600D02*
X103601900Y-48506600D01*
X42000000Y-47400000D02*
X42258500Y-47400000D01*
X12000000Y-47400000D02*
X13106000Y-48506000D01*
X103601900Y-48506600D02*
X102495300Y-47400000D01*
X72000000Y-47400000D02*
X72140500Y-47400000D01*
X27248900Y-47400000D02*
X28355500Y-48506600D01*
X88642000Y-48507200D02*
X87534800Y-47400000D01*
X57000000Y-47400000D02*
X57258500Y-47400000D01*
X73245300Y-48504800D02*
X85895200Y-48504800D01*
X90408400Y-48507200D02*
X88642000Y-48507200D01*
X30368000Y-48506600D02*
X31474600Y-47400000D01*
X61467600Y-47400000D02*
X72000000Y-47400000D01*
X45363600Y-48504000D02*
X46467600Y-47400000D01*
X72140500Y-47400000D02*
X73245300Y-48504800D01*
X87534800Y-47400000D02*
X87000000Y-47400000D01*
X46467600Y-47400000D02*
X57000000Y-47400000D01*
X106474400Y-47400000D02*
X105367800Y-48506600D01*
X57258500Y-47400000D02*
X58362500Y-48504000D01*
X117000000Y-47400000D02*
X106474400Y-47400000D01*
X85895200Y-48504800D02*
X87000000Y-47400000D01*
X102495300Y-47400000D02*
X102000000Y-47400000D01*
X31474600Y-47400000D02*
X42000000Y-47400000D01*
X42258500Y-47400000D02*
X43362500Y-48504000D01*
X15366900Y-48506000D02*
X16472900Y-47400000D01*
X16472900Y-47400000D02*
X27000000Y-47400000D01*
X13106000Y-48506000D02*
X15366900Y-48506000D01*
X91515600Y-47400000D02*
X90408400Y-48507200D01*
X60363600Y-48504000D02*
X61467600Y-47400000D01*
X43362500Y-48504000D02*
X45363600Y-48504000D01*
%TO.N,PC1*%
X60644300Y-46295700D02*
X73196900Y-46295700D01*
X45644300Y-46295700D02*
X58196900Y-46295700D01*
X28188500Y-46296900D02*
X29291600Y-47400000D01*
X29540000Y-47400000D02*
X30644300Y-46295700D01*
X104303200Y-47400000D02*
X104540000Y-47400000D01*
X87956900Y-46286300D02*
X89070600Y-47400000D01*
X15643100Y-46296900D02*
X28188500Y-46296900D01*
X89070600Y-47400000D02*
X89540000Y-47400000D01*
X58196900Y-46295700D02*
X59301200Y-47400000D01*
X59540000Y-47400000D02*
X60644300Y-46295700D01*
X43196900Y-46295700D02*
X44301200Y-47400000D01*
X74301200Y-47400000D02*
X74540000Y-47400000D01*
X118435300Y-46295300D02*
X119540000Y-47400000D01*
X73196900Y-46295700D02*
X74301200Y-47400000D01*
X75653700Y-46286300D02*
X87956900Y-46286300D01*
X59301200Y-47400000D02*
X59540000Y-47400000D01*
X103198900Y-46295700D02*
X104303200Y-47400000D01*
X44301200Y-47400000D02*
X44540000Y-47400000D01*
X104540000Y-47400000D02*
X105644700Y-46295300D01*
X14540000Y-47400000D02*
X15643100Y-46296900D01*
X44540000Y-47400000D02*
X45644300Y-46295700D01*
X90644300Y-46295700D02*
X103198900Y-46295700D01*
X105644700Y-46295300D02*
X118435300Y-46295300D01*
X89540000Y-47400000D02*
X90644300Y-46295700D01*
X30644300Y-46295700D02*
X43196900Y-46295700D01*
X29291600Y-47400000D02*
X29540000Y-47400000D01*
X74540000Y-47400000D02*
X75653700Y-46286300D01*
%TO.N,PC2*%
X46467600Y-49940000D02*
X57000000Y-49940000D01*
X76052000Y-50355600D02*
X87000000Y-50355600D01*
X57258500Y-49940000D02*
X58362500Y-51044000D01*
X27000000Y-49940000D02*
X27248900Y-49940000D01*
X15366900Y-51046000D02*
X16472900Y-49940000D01*
X42258500Y-49940000D02*
X43362500Y-51044000D01*
X57000000Y-49940000D02*
X57258500Y-49940000D01*
X28355500Y-51046600D02*
X30368000Y-51046600D01*
X102000000Y-49940000D02*
X102612500Y-49940000D01*
X87000000Y-50355600D02*
X87000000Y-49940000D01*
X75363600Y-51044000D02*
X76052000Y-50355600D01*
X12000000Y-49940000D02*
X13106000Y-51046000D01*
X73362500Y-51044000D02*
X75363600Y-51044000D01*
X106515600Y-49940000D02*
X117000000Y-49940000D01*
X58362500Y-51044000D02*
X60363600Y-51044000D01*
X105383900Y-51071700D02*
X106515600Y-49940000D01*
X87000000Y-50355600D02*
X87910900Y-50355600D01*
X31474600Y-49940000D02*
X42000000Y-49940000D01*
X90363600Y-51044000D02*
X91467600Y-49940000D01*
X13106000Y-51046000D02*
X15366900Y-51046000D01*
X43362500Y-51044000D02*
X45363600Y-51044000D01*
X72258500Y-49940000D02*
X73362500Y-51044000D01*
X91467600Y-49940000D02*
X102000000Y-49940000D01*
X42000000Y-49940000D02*
X42258500Y-49940000D01*
X103744200Y-51071700D02*
X105383900Y-51071700D01*
X30368000Y-51046600D02*
X31474600Y-49940000D01*
X87910900Y-50355600D02*
X88599300Y-51044000D01*
X16472900Y-49940000D02*
X27000000Y-49940000D01*
X72000000Y-49940000D02*
X72258500Y-49940000D01*
X88599300Y-51044000D02*
X90363600Y-51044000D01*
X45363600Y-51044000D02*
X46467600Y-49940000D01*
X102612500Y-49940000D02*
X103744200Y-51071700D01*
X61467600Y-49940000D02*
X72000000Y-49940000D01*
X27248900Y-49940000D02*
X28355500Y-51046600D01*
X60363600Y-51044000D02*
X61467600Y-49940000D01*
%TO.N,PC3*%
X44540000Y-49940000D02*
X45644300Y-48835700D01*
X58196900Y-48835700D02*
X59301200Y-49940000D01*
X59540000Y-49940000D02*
X60643900Y-48836100D01*
X14540000Y-49940000D02*
X15643100Y-48836900D01*
X89540000Y-49940000D02*
X90641700Y-48838300D01*
X59301200Y-49940000D02*
X59540000Y-49940000D01*
X44301200Y-49940000D02*
X44540000Y-49940000D01*
X85024500Y-49940000D02*
X86127200Y-48837300D01*
X88437300Y-48837300D02*
X89540000Y-49940000D01*
X104538000Y-49940000D02*
X104540000Y-49940000D01*
X43196900Y-48835700D02*
X44301200Y-49940000D01*
X104540000Y-49940000D02*
X105644700Y-48835300D01*
X15643100Y-48836900D02*
X28188500Y-48836900D01*
X60643900Y-48836100D02*
X73079300Y-48836100D01*
X74540000Y-49940000D02*
X85024500Y-49940000D01*
X103436300Y-48838300D02*
X104538000Y-49940000D01*
X86127200Y-48837300D02*
X88437300Y-48837300D01*
X28188500Y-48836900D02*
X29291600Y-49940000D01*
X90641700Y-48838300D02*
X103436300Y-48838300D01*
X74183200Y-49940000D02*
X74540000Y-49940000D01*
X105644700Y-48835300D02*
X118435300Y-48835300D01*
X45644300Y-48835700D02*
X58196900Y-48835700D01*
X29291600Y-49940000D02*
X29540000Y-49940000D01*
X73079300Y-48836100D02*
X74183200Y-49940000D01*
X30644300Y-48835700D02*
X43196900Y-48835700D01*
X118435300Y-48835300D02*
X119540000Y-49940000D01*
X29540000Y-49940000D02*
X30644300Y-48835700D01*
%TO.N,PC4*%
X12000000Y-52480000D02*
X13106000Y-53586000D01*
X27248900Y-52480000D02*
X28355500Y-53586600D01*
X58362500Y-53584000D02*
X60363600Y-53584000D01*
X72258500Y-52480000D02*
X73362500Y-53584000D01*
X73362500Y-53584000D02*
X75363600Y-53584000D01*
X75363600Y-53584000D02*
X76467600Y-52480000D01*
X88360500Y-53584000D02*
X90363600Y-53584000D01*
X102495300Y-52480000D02*
X103599300Y-53584000D01*
X106467600Y-52480000D02*
X117000000Y-52480000D01*
X57000000Y-52480000D02*
X57258500Y-52480000D01*
X42258500Y-52480000D02*
X43362500Y-53584000D01*
X61467600Y-52480000D02*
X72000000Y-52480000D01*
X105363600Y-53584000D02*
X106467600Y-52480000D01*
X102000000Y-52480000D02*
X102495300Y-52480000D01*
X28355500Y-53586600D02*
X30368000Y-53586600D01*
X42000000Y-52480000D02*
X42258500Y-52480000D01*
X90363600Y-53584000D02*
X91467600Y-52480000D01*
X72000000Y-52480000D02*
X72258500Y-52480000D01*
X45363600Y-53584000D02*
X46467600Y-52480000D01*
X91467600Y-52480000D02*
X102000000Y-52480000D01*
X16472900Y-52480000D02*
X27000000Y-52480000D01*
X46467600Y-52480000D02*
X57000000Y-52480000D01*
X31474600Y-52480000D02*
X42000000Y-52480000D01*
X87000000Y-52480000D02*
X87256500Y-52480000D01*
X103599300Y-53584000D02*
X105363600Y-53584000D01*
X27000000Y-52480000D02*
X27248900Y-52480000D01*
X87256500Y-52480000D02*
X88360500Y-53584000D01*
X76467600Y-52480000D02*
X87000000Y-52480000D01*
X57258500Y-52480000D02*
X58362500Y-53584000D01*
X13106000Y-53586000D02*
X15366900Y-53586000D01*
X15366900Y-53586000D02*
X16472900Y-52480000D01*
X30368000Y-53586600D02*
X31474600Y-52480000D01*
X60363600Y-53584000D02*
X61467600Y-52480000D01*
X43362500Y-53584000D02*
X45363600Y-53584000D01*
%TO.N,PC5*%
X75665400Y-51354600D02*
X88412600Y-51354600D01*
X43196900Y-51375700D02*
X44301200Y-52480000D01*
X118373700Y-51313700D02*
X105706300Y-51313700D01*
X105706300Y-51313700D02*
X104540000Y-52480000D01*
X29291600Y-52480000D02*
X29540000Y-52480000D01*
X15643100Y-51376900D02*
X28188500Y-51376900D01*
X90665400Y-51354600D02*
X89540000Y-52480000D01*
X14540000Y-52480000D02*
X15643100Y-51376900D01*
X104540000Y-52480000D02*
X103414600Y-51354600D01*
X58196900Y-51375700D02*
X59301200Y-52480000D01*
X60644300Y-51375700D02*
X73196900Y-51375700D01*
X89538000Y-52480000D02*
X89540000Y-52480000D01*
X74301200Y-52480000D02*
X74540000Y-52480000D01*
X28188500Y-51376900D02*
X29291600Y-52480000D01*
X59540000Y-52480000D02*
X60644300Y-51375700D01*
X73196900Y-51375700D02*
X74301200Y-52480000D01*
X74540000Y-52480000D02*
X75665400Y-51354600D01*
X45644300Y-51375700D02*
X58196900Y-51375700D01*
X119540000Y-52480000D02*
X118373700Y-51313700D01*
X103414600Y-51354600D02*
X90665400Y-51354600D01*
X29540000Y-52480000D02*
X30644300Y-51375700D01*
X30644300Y-51375700D02*
X43196900Y-51375700D01*
X44301200Y-52480000D02*
X44540000Y-52480000D01*
X44540000Y-52480000D02*
X45644300Y-51375700D01*
X88412600Y-51354600D02*
X89538000Y-52480000D01*
X59301200Y-52480000D02*
X59540000Y-52480000D01*
%TO.N,PC6*%
X13106000Y-56126000D02*
X15366900Y-56126000D01*
X15366900Y-56126000D02*
X16472900Y-55020000D01*
X42258500Y-55020000D02*
X43362500Y-56124000D01*
X102000000Y-55020000D02*
X102495300Y-55020000D01*
X27000000Y-55020000D02*
X27248900Y-55020000D01*
X73101700Y-56121700D02*
X72000000Y-55020000D01*
X43362500Y-56124000D02*
X45363600Y-56124000D01*
X70898300Y-56121700D02*
X72000000Y-55020000D01*
X12000000Y-55020000D02*
X13106000Y-56126000D01*
X57982000Y-55020000D02*
X59083700Y-56121700D01*
X57000000Y-55020000D02*
X57982000Y-55020000D01*
X59083700Y-56121700D02*
X70898300Y-56121700D01*
X103599300Y-56124000D02*
X105363600Y-56124000D01*
X90363600Y-56124000D02*
X88554600Y-56124000D01*
X76098100Y-55020000D02*
X74996400Y-56121700D01*
X91467600Y-55020000D02*
X90363600Y-56124000D01*
X88554600Y-56124000D02*
X87450600Y-55020000D01*
X42000000Y-55020000D02*
X42258500Y-55020000D01*
X27248900Y-55020000D02*
X28355500Y-56126600D01*
X16472900Y-55020000D02*
X27000000Y-55020000D01*
X28355500Y-56126600D02*
X30368000Y-56126600D01*
X31474600Y-55020000D02*
X42000000Y-55020000D01*
X105363600Y-56124000D02*
X106467600Y-55020000D01*
X102495300Y-55020000D02*
X103599300Y-56124000D01*
X74996400Y-56121700D02*
X73101700Y-56121700D01*
X102000000Y-55020000D02*
X91467600Y-55020000D01*
X45363600Y-56124000D02*
X46467600Y-55020000D01*
X87450600Y-55020000D02*
X87000000Y-55020000D01*
X30368000Y-56126600D02*
X31474600Y-55020000D01*
X46467600Y-55020000D02*
X57000000Y-55020000D01*
X87000000Y-55020000D02*
X76098100Y-55020000D01*
X106467600Y-55020000D02*
X117000000Y-55020000D01*
%TO.N,PC7*%
X103412600Y-53894600D02*
X104538000Y-55020000D01*
X59301200Y-55020000D02*
X59540000Y-55020000D01*
X89540000Y-55020000D02*
X90665400Y-53894600D01*
X74301200Y-55020000D02*
X74540000Y-55020000D01*
X58196900Y-53915700D02*
X59301200Y-55020000D01*
X29540000Y-55020000D02*
X30644300Y-53915700D01*
X29291600Y-55020000D02*
X29540000Y-55020000D01*
X119540000Y-55020000D02*
X118414600Y-53894600D01*
X28188500Y-53916900D02*
X29291600Y-55020000D01*
X43196900Y-53915700D02*
X44301200Y-55020000D01*
X74540000Y-55020000D02*
X75644300Y-53915700D01*
X90665400Y-53894600D02*
X103412600Y-53894600D01*
X89299200Y-55020000D02*
X89540000Y-55020000D01*
X60644300Y-53915700D02*
X73196900Y-53915700D01*
X15643100Y-53916900D02*
X28188500Y-53916900D01*
X14540000Y-55020000D02*
X15643100Y-53916900D01*
X30644300Y-53915700D02*
X43196900Y-53915700D01*
X88194900Y-53915700D02*
X89299200Y-55020000D01*
X44301200Y-55020000D02*
X44540000Y-55020000D01*
X75644300Y-53915700D02*
X88194900Y-53915700D01*
X59540000Y-55020000D02*
X60644300Y-53915700D01*
X44540000Y-55020000D02*
X45644300Y-53915700D01*
X105665400Y-53894600D02*
X104540000Y-55020000D01*
X45644300Y-53915700D02*
X58196900Y-53915700D01*
X73196900Y-53915700D02*
X74301200Y-55020000D01*
X118414600Y-53894600D02*
X105665400Y-53894600D01*
X104538000Y-55020000D02*
X104540000Y-55020000D01*
%TO.N,PCL*%
X87493300Y-85500000D02*
X88597300Y-86604000D01*
X55896000Y-86604000D02*
X43597300Y-86604000D01*
X16472900Y-85500000D02*
X27000000Y-85500000D01*
X13106000Y-86606000D02*
X15366900Y-86606000D01*
X43597300Y-86604000D02*
X42493300Y-85500000D01*
X73597300Y-86604000D02*
X72493300Y-85500000D01*
X57493300Y-85500000D02*
X57000000Y-85500000D01*
X72493300Y-85500000D02*
X72000000Y-85500000D01*
X85896000Y-86604000D02*
X73597300Y-86604000D01*
X117000000Y-85500000D02*
X115896000Y-86604000D01*
X27246900Y-85500000D02*
X28353500Y-86606600D01*
X42493300Y-85500000D02*
X42000000Y-85500000D01*
X30368000Y-86606600D02*
X31474600Y-85500000D01*
X58597300Y-86604000D02*
X57493300Y-85500000D01*
X70896000Y-86604000D02*
X58597300Y-86604000D01*
X31474600Y-85500000D02*
X42000000Y-85500000D01*
X57000000Y-85500000D02*
X55896000Y-86604000D01*
X27000000Y-85500000D02*
X27246900Y-85500000D01*
X91467600Y-85500000D02*
X102000000Y-85500000D01*
X87000000Y-85500000D02*
X87493300Y-85500000D01*
X103599300Y-86604000D02*
X102495300Y-85500000D01*
X15366900Y-86606000D02*
X16472900Y-85500000D01*
X87000000Y-85500000D02*
X85896000Y-86604000D01*
X88597300Y-86604000D02*
X90363600Y-86604000D01*
X115896000Y-86604000D02*
X103599300Y-86604000D01*
X28353500Y-86606600D02*
X30368000Y-86606600D01*
X90363600Y-86604000D02*
X91467600Y-85500000D01*
X12000000Y-85500000D02*
X13106000Y-86606000D01*
X102495300Y-85500000D02*
X102000000Y-85500000D01*
X72000000Y-85500000D02*
X70896000Y-86604000D01*
%TO.N,RST*%
X87000000Y-29620000D02*
X88117800Y-30737800D01*
X85896300Y-30723700D02*
X87000000Y-29620000D01*
X12000000Y-29620000D02*
X13101700Y-30721700D01*
X13101700Y-30721700D02*
X25898300Y-30721700D01*
X55898300Y-30721700D02*
X57000000Y-29620000D01*
X58101700Y-30721700D02*
X57000000Y-29620000D01*
X120000300Y-30724000D02*
X118104000Y-30724000D01*
X25898300Y-30721700D02*
X27000000Y-29620000D01*
X27000000Y-29620000D02*
X28101700Y-30721700D01*
X28101700Y-30721700D02*
X40898300Y-30721700D01*
X118104000Y-30724000D02*
X117000000Y-29620000D01*
X100882200Y-30737800D02*
X102000000Y-29620000D01*
X42000000Y-29620000D02*
X43101700Y-30721700D01*
X72000000Y-29620000D02*
X73103700Y-30723700D01*
X70898300Y-30721700D02*
X58101700Y-30721700D01*
X73103700Y-30723700D02*
X85896300Y-30723700D01*
X72000000Y-29620000D02*
X70898300Y-30721700D01*
X88117800Y-30737800D02*
X100882200Y-30737800D01*
X106155300Y-29326000D02*
X116706000Y-29326000D01*
X40898300Y-30721700D02*
X42000000Y-29620000D01*
X132000000Y-18724300D02*
X120000300Y-30724000D01*
X132000000Y-13000000D02*
X132000000Y-18724300D01*
X116706000Y-29326000D02*
X117000000Y-29620000D01*
X43101700Y-30721700D02*
X55898300Y-30721700D01*
%TO.N,SUB*%
X72258500Y-70260000D02*
X73362500Y-71364000D01*
X27248900Y-70260000D02*
X28355500Y-71366600D01*
X88362500Y-71364000D02*
X90365600Y-71364000D01*
X76467600Y-70260000D02*
X87000000Y-70260000D01*
X72000000Y-70260000D02*
X72258500Y-70260000D01*
X15366900Y-71366000D02*
X16472900Y-70260000D01*
X28355500Y-71366600D02*
X30368000Y-71366600D01*
X102000000Y-70260000D02*
X102495300Y-70260000D01*
X16472900Y-70260000D02*
X27000000Y-70260000D01*
X57000000Y-70260000D02*
X57258500Y-70260000D01*
X46467600Y-70260000D02*
X57000000Y-70260000D01*
X60363600Y-71364000D02*
X61467600Y-70260000D01*
X87258500Y-70260000D02*
X88362500Y-71364000D01*
X73362500Y-71364000D02*
X75363600Y-71364000D01*
X91469600Y-70260000D02*
X102000000Y-70260000D01*
X61467600Y-70260000D02*
X72000000Y-70260000D01*
X103599300Y-71364000D02*
X105363600Y-71364000D01*
X75363600Y-71364000D02*
X76467600Y-70260000D01*
X27000000Y-70260000D02*
X27248900Y-70260000D01*
X57258500Y-70260000D02*
X58362500Y-71364000D01*
X58362500Y-71364000D02*
X60363600Y-71364000D01*
X31474600Y-70260000D02*
X42000000Y-70260000D01*
X13106000Y-71366000D02*
X15366900Y-71366000D01*
X45363600Y-71364000D02*
X46467600Y-70260000D01*
X42258500Y-70260000D02*
X43362500Y-71364000D01*
X106467600Y-70260000D02*
X117000000Y-70260000D01*
X43362500Y-71364000D02*
X45363600Y-71364000D01*
X102495300Y-70260000D02*
X103599300Y-71364000D01*
X42000000Y-70260000D02*
X42258500Y-70260000D01*
X87000000Y-70260000D02*
X87258500Y-70260000D01*
X12000000Y-70260000D02*
X13106000Y-71366000D01*
X90365600Y-71364000D02*
X91469600Y-70260000D01*
X30368000Y-71366600D02*
X31474600Y-70260000D01*
X105363600Y-71364000D02*
X106467600Y-70260000D01*
%TO.N,WRH*%
X59301200Y-93120000D02*
X59540000Y-93120000D01*
X45644600Y-92015400D02*
X58196600Y-92015400D01*
X75644300Y-92015700D02*
X88196900Y-92015700D01*
X104303200Y-93120000D02*
X104540000Y-93120000D01*
X90644600Y-92015400D02*
X103198600Y-92015400D01*
X74301200Y-93120000D02*
X74540000Y-93120000D01*
X60644300Y-92015700D02*
X73196900Y-92015700D01*
X74540000Y-93120000D02*
X75644300Y-92015700D01*
X118435300Y-92015300D02*
X119540000Y-93120000D01*
X88196900Y-92015700D02*
X89301200Y-93120000D01*
X103198600Y-92015400D02*
X104303200Y-93120000D01*
X44540000Y-93120000D02*
X45644600Y-92015400D01*
X28436900Y-92016900D02*
X29540000Y-93120000D01*
X15643100Y-92016900D02*
X28436900Y-92016900D01*
X58196600Y-92015400D02*
X59301200Y-93120000D01*
X73196900Y-92015700D02*
X74301200Y-93120000D01*
X59540000Y-93120000D02*
X60644300Y-92015700D01*
X14540000Y-93120000D02*
X15643100Y-92016900D01*
X89540000Y-93120000D02*
X90644600Y-92015400D01*
X105644700Y-92015300D02*
X118435300Y-92015300D01*
X104540000Y-93120000D02*
X105644700Y-92015300D01*
X89301200Y-93120000D02*
X89540000Y-93120000D01*
%TO.N,WRL*%
X27246900Y-93120000D02*
X28353500Y-94226600D01*
X58599300Y-94224000D02*
X57495300Y-93120000D01*
X31474600Y-93120000D02*
X42000000Y-93120000D01*
X102000000Y-93120000D02*
X100896000Y-94224000D01*
X87493300Y-93120000D02*
X87000000Y-93120000D01*
X72000000Y-93120000D02*
X70896000Y-94224000D01*
X105363600Y-94224000D02*
X106467600Y-93120000D01*
X57495300Y-93120000D02*
X57000000Y-93120000D01*
X103104000Y-94224000D02*
X105363600Y-94224000D01*
X27000000Y-93120000D02*
X27246900Y-93120000D01*
X85896800Y-94223200D02*
X87000000Y-93120000D01*
X42000000Y-93120000D02*
X42491300Y-93120000D01*
X15366900Y-94226000D02*
X16472900Y-93120000D01*
X106467600Y-93120000D02*
X117000000Y-93120000D01*
X72000000Y-93120000D02*
X73103200Y-94223200D01*
X73103200Y-94223200D02*
X85896800Y-94223200D01*
X46467600Y-93120000D02*
X57000000Y-93120000D01*
X88597300Y-94224000D02*
X87493300Y-93120000D01*
X70896000Y-94224000D02*
X58599300Y-94224000D01*
X12000000Y-93120000D02*
X13106000Y-94226000D01*
X45363600Y-94224000D02*
X46467600Y-93120000D01*
X43595300Y-94224000D02*
X45363600Y-94224000D01*
X28353500Y-94226600D02*
X30368000Y-94226600D01*
X13106000Y-94226000D02*
X15366900Y-94226000D01*
X42491300Y-93120000D02*
X43595300Y-94224000D01*
X16472900Y-93120000D02*
X27000000Y-93120000D01*
X100896000Y-94224000D02*
X88597300Y-94224000D01*
X30368000Y-94226600D02*
X31474600Y-93120000D01*
X102000000Y-93120000D02*
X103104000Y-94224000D01*
%TO.N,ZF*%
X60641700Y-66618300D02*
X73438300Y-66618300D01*
X119540000Y-67720000D02*
X118428900Y-68831100D01*
X105651100Y-68831100D02*
X104540000Y-67720000D01*
X58436300Y-66618300D02*
X59538000Y-67720000D01*
X59538000Y-67720000D02*
X59540000Y-67720000D01*
X73438300Y-66618300D02*
X74540000Y-67720000D01*
X45641700Y-66618300D02*
X58436300Y-66618300D01*
X44540000Y-67720000D02*
X45641700Y-66618300D01*
X59540000Y-67720000D02*
X60641700Y-66618300D01*
X118428900Y-68831100D02*
X105651100Y-68831100D01*
%TD*%
M02*
