%TF.GenerationSoftware,KiCad,Pcbnew,10.0.5*%
%TF.CreationDate,2026-09-10T16:58:45-04:00*%
%TF.ProjectId,hub,6875622e-6b69-4636-9164-5f7063625858,rev?*%
%TF.SameCoordinates,Original*%
%TF.FileFunction,Legend,Top*%
%TF.FilePolarity,Positive*%
%FSLAX46Y46*%
G04 Gerber Fmt 4.6, Leading zero omitted, Abs format (unit mm)*
G04 Created by KiCad (PCBNEW 10.0.5) date 2026-09-10 16:58:45*
%MOMM*%
%LPD*%
G01*
G04 APERTURE LIST*
%ADD10C,0.150000*%
%ADD11C,0.250000*%
%ADD12C,0.120000*%
G04 APERTURE END LIST*
D10*
X118055826Y-11143247D02*
X118170112Y-11181342D01*
X118170112Y-11181342D02*
X118208207Y-11219438D01*
X118208207Y-11219438D02*
X118246303Y-11295628D01*
X118246303Y-11295628D02*
X118246303Y-11409914D01*
X118246303Y-11409914D02*
X118208207Y-11486104D01*
X118208207Y-11486104D02*
X118170112Y-11524200D01*
X118170112Y-11524200D02*
X118093922Y-11562295D01*
X118093922Y-11562295D02*
X117789160Y-11562295D01*
X117789160Y-11562295D02*
X117789160Y-10762295D01*
X117789160Y-10762295D02*
X118055826Y-10762295D01*
X118055826Y-10762295D02*
X118132017Y-10800390D01*
X118132017Y-10800390D02*
X118170112Y-10838485D01*
X118170112Y-10838485D02*
X118208207Y-10914676D01*
X118208207Y-10914676D02*
X118208207Y-10990866D01*
X118208207Y-10990866D02*
X118170112Y-11067057D01*
X118170112Y-11067057D02*
X118132017Y-11105152D01*
X118132017Y-11105152D02*
X118055826Y-11143247D01*
X118055826Y-11143247D02*
X117789160Y-11143247D01*
X118589160Y-10762295D02*
X118589160Y-11409914D01*
X118589160Y-11409914D02*
X118627255Y-11486104D01*
X118627255Y-11486104D02*
X118665350Y-11524200D01*
X118665350Y-11524200D02*
X118741541Y-11562295D01*
X118741541Y-11562295D02*
X118893922Y-11562295D01*
X118893922Y-11562295D02*
X118970112Y-11524200D01*
X118970112Y-11524200D02*
X119008207Y-11486104D01*
X119008207Y-11486104D02*
X119046303Y-11409914D01*
X119046303Y-11409914D02*
X119046303Y-10762295D01*
X119389159Y-11524200D02*
X119503445Y-11562295D01*
X119503445Y-11562295D02*
X119693921Y-11562295D01*
X119693921Y-11562295D02*
X119770112Y-11524200D01*
X119770112Y-11524200D02*
X119808207Y-11486104D01*
X119808207Y-11486104D02*
X119846302Y-11409914D01*
X119846302Y-11409914D02*
X119846302Y-11333723D01*
X119846302Y-11333723D02*
X119808207Y-11257533D01*
X119808207Y-11257533D02*
X119770112Y-11219438D01*
X119770112Y-11219438D02*
X119693921Y-11181342D01*
X119693921Y-11181342D02*
X119541540Y-11143247D01*
X119541540Y-11143247D02*
X119465350Y-11105152D01*
X119465350Y-11105152D02*
X119427255Y-11067057D01*
X119427255Y-11067057D02*
X119389159Y-10990866D01*
X119389159Y-10990866D02*
X119389159Y-10914676D01*
X119389159Y-10914676D02*
X119427255Y-10838485D01*
X119427255Y-10838485D02*
X119465350Y-10800390D01*
X119465350Y-10800390D02*
X119541540Y-10762295D01*
X119541540Y-10762295D02*
X119732017Y-10762295D01*
X119732017Y-10762295D02*
X119846302Y-10800390D01*
X120341541Y-10762295D02*
X120417731Y-10762295D01*
X120417731Y-10762295D02*
X120493922Y-10800390D01*
X120493922Y-10800390D02*
X120532017Y-10838485D01*
X120532017Y-10838485D02*
X120570112Y-10914676D01*
X120570112Y-10914676D02*
X120608207Y-11067057D01*
X120608207Y-11067057D02*
X120608207Y-11257533D01*
X120608207Y-11257533D02*
X120570112Y-11409914D01*
X120570112Y-11409914D02*
X120532017Y-11486104D01*
X120532017Y-11486104D02*
X120493922Y-11524200D01*
X120493922Y-11524200D02*
X120417731Y-11562295D01*
X120417731Y-11562295D02*
X120341541Y-11562295D01*
X120341541Y-11562295D02*
X120265350Y-11524200D01*
X120265350Y-11524200D02*
X120227255Y-11486104D01*
X120227255Y-11486104D02*
X120189160Y-11409914D01*
X120189160Y-11409914D02*
X120151064Y-11257533D01*
X120151064Y-11257533D02*
X120151064Y-11067057D01*
X120151064Y-11067057D02*
X120189160Y-10914676D01*
X120189160Y-10914676D02*
X120227255Y-10838485D01*
X120227255Y-10838485D02*
X120265350Y-10800390D01*
X120265350Y-10800390D02*
X120341541Y-10762295D01*
X118055826Y-17143247D02*
X118170112Y-17181342D01*
X118170112Y-17181342D02*
X118208207Y-17219438D01*
X118208207Y-17219438D02*
X118246303Y-17295628D01*
X118246303Y-17295628D02*
X118246303Y-17409914D01*
X118246303Y-17409914D02*
X118208207Y-17486104D01*
X118208207Y-17486104D02*
X118170112Y-17524200D01*
X118170112Y-17524200D02*
X118093922Y-17562295D01*
X118093922Y-17562295D02*
X117789160Y-17562295D01*
X117789160Y-17562295D02*
X117789160Y-16762295D01*
X117789160Y-16762295D02*
X118055826Y-16762295D01*
X118055826Y-16762295D02*
X118132017Y-16800390D01*
X118132017Y-16800390D02*
X118170112Y-16838485D01*
X118170112Y-16838485D02*
X118208207Y-16914676D01*
X118208207Y-16914676D02*
X118208207Y-16990866D01*
X118208207Y-16990866D02*
X118170112Y-17067057D01*
X118170112Y-17067057D02*
X118132017Y-17105152D01*
X118132017Y-17105152D02*
X118055826Y-17143247D01*
X118055826Y-17143247D02*
X117789160Y-17143247D01*
X118589160Y-16762295D02*
X118589160Y-17409914D01*
X118589160Y-17409914D02*
X118627255Y-17486104D01*
X118627255Y-17486104D02*
X118665350Y-17524200D01*
X118665350Y-17524200D02*
X118741541Y-17562295D01*
X118741541Y-17562295D02*
X118893922Y-17562295D01*
X118893922Y-17562295D02*
X118970112Y-17524200D01*
X118970112Y-17524200D02*
X119008207Y-17486104D01*
X119008207Y-17486104D02*
X119046303Y-17409914D01*
X119046303Y-17409914D02*
X119046303Y-16762295D01*
X119389159Y-17524200D02*
X119503445Y-17562295D01*
X119503445Y-17562295D02*
X119693921Y-17562295D01*
X119693921Y-17562295D02*
X119770112Y-17524200D01*
X119770112Y-17524200D02*
X119808207Y-17486104D01*
X119808207Y-17486104D02*
X119846302Y-17409914D01*
X119846302Y-17409914D02*
X119846302Y-17333723D01*
X119846302Y-17333723D02*
X119808207Y-17257533D01*
X119808207Y-17257533D02*
X119770112Y-17219438D01*
X119770112Y-17219438D02*
X119693921Y-17181342D01*
X119693921Y-17181342D02*
X119541540Y-17143247D01*
X119541540Y-17143247D02*
X119465350Y-17105152D01*
X119465350Y-17105152D02*
X119427255Y-17067057D01*
X119427255Y-17067057D02*
X119389159Y-16990866D01*
X119389159Y-16990866D02*
X119389159Y-16914676D01*
X119389159Y-16914676D02*
X119427255Y-16838485D01*
X119427255Y-16838485D02*
X119465350Y-16800390D01*
X119465350Y-16800390D02*
X119541540Y-16762295D01*
X119541540Y-16762295D02*
X119732017Y-16762295D01*
X119732017Y-16762295D02*
X119846302Y-16800390D01*
X120112969Y-16762295D02*
X120608207Y-16762295D01*
X120608207Y-16762295D02*
X120341541Y-17067057D01*
X120341541Y-17067057D02*
X120455826Y-17067057D01*
X120455826Y-17067057D02*
X120532017Y-17105152D01*
X120532017Y-17105152D02*
X120570112Y-17143247D01*
X120570112Y-17143247D02*
X120608207Y-17219438D01*
X120608207Y-17219438D02*
X120608207Y-17409914D01*
X120608207Y-17409914D02*
X120570112Y-17486104D01*
X120570112Y-17486104D02*
X120532017Y-17524200D01*
X120532017Y-17524200D02*
X120455826Y-17562295D01*
X120455826Y-17562295D02*
X120227255Y-17562295D01*
X120227255Y-17562295D02*
X120151064Y-17524200D01*
X120151064Y-17524200D02*
X120112969Y-17486104D01*
X124055826Y-11143247D02*
X124170112Y-11181342D01*
X124170112Y-11181342D02*
X124208207Y-11219438D01*
X124208207Y-11219438D02*
X124246303Y-11295628D01*
X124246303Y-11295628D02*
X124246303Y-11409914D01*
X124246303Y-11409914D02*
X124208207Y-11486104D01*
X124208207Y-11486104D02*
X124170112Y-11524200D01*
X124170112Y-11524200D02*
X124093922Y-11562295D01*
X124093922Y-11562295D02*
X123789160Y-11562295D01*
X123789160Y-11562295D02*
X123789160Y-10762295D01*
X123789160Y-10762295D02*
X124055826Y-10762295D01*
X124055826Y-10762295D02*
X124132017Y-10800390D01*
X124132017Y-10800390D02*
X124170112Y-10838485D01*
X124170112Y-10838485D02*
X124208207Y-10914676D01*
X124208207Y-10914676D02*
X124208207Y-10990866D01*
X124208207Y-10990866D02*
X124170112Y-11067057D01*
X124170112Y-11067057D02*
X124132017Y-11105152D01*
X124132017Y-11105152D02*
X124055826Y-11143247D01*
X124055826Y-11143247D02*
X123789160Y-11143247D01*
X124589160Y-10762295D02*
X124589160Y-11409914D01*
X124589160Y-11409914D02*
X124627255Y-11486104D01*
X124627255Y-11486104D02*
X124665350Y-11524200D01*
X124665350Y-11524200D02*
X124741541Y-11562295D01*
X124741541Y-11562295D02*
X124893922Y-11562295D01*
X124893922Y-11562295D02*
X124970112Y-11524200D01*
X124970112Y-11524200D02*
X125008207Y-11486104D01*
X125008207Y-11486104D02*
X125046303Y-11409914D01*
X125046303Y-11409914D02*
X125046303Y-10762295D01*
X125389159Y-11524200D02*
X125503445Y-11562295D01*
X125503445Y-11562295D02*
X125693921Y-11562295D01*
X125693921Y-11562295D02*
X125770112Y-11524200D01*
X125770112Y-11524200D02*
X125808207Y-11486104D01*
X125808207Y-11486104D02*
X125846302Y-11409914D01*
X125846302Y-11409914D02*
X125846302Y-11333723D01*
X125846302Y-11333723D02*
X125808207Y-11257533D01*
X125808207Y-11257533D02*
X125770112Y-11219438D01*
X125770112Y-11219438D02*
X125693921Y-11181342D01*
X125693921Y-11181342D02*
X125541540Y-11143247D01*
X125541540Y-11143247D02*
X125465350Y-11105152D01*
X125465350Y-11105152D02*
X125427255Y-11067057D01*
X125427255Y-11067057D02*
X125389159Y-10990866D01*
X125389159Y-10990866D02*
X125389159Y-10914676D01*
X125389159Y-10914676D02*
X125427255Y-10838485D01*
X125427255Y-10838485D02*
X125465350Y-10800390D01*
X125465350Y-10800390D02*
X125541540Y-10762295D01*
X125541540Y-10762295D02*
X125732017Y-10762295D01*
X125732017Y-10762295D02*
X125846302Y-10800390D01*
X126608207Y-11562295D02*
X126151064Y-11562295D01*
X126379636Y-11562295D02*
X126379636Y-10762295D01*
X126379636Y-10762295D02*
X126303445Y-10876580D01*
X126303445Y-10876580D02*
X126227255Y-10952771D01*
X126227255Y-10952771D02*
X126151064Y-10990866D01*
X124246303Y-17486104D02*
X124208207Y-17524200D01*
X124208207Y-17524200D02*
X124093922Y-17562295D01*
X124093922Y-17562295D02*
X124017731Y-17562295D01*
X124017731Y-17562295D02*
X123903445Y-17524200D01*
X123903445Y-17524200D02*
X123827255Y-17448009D01*
X123827255Y-17448009D02*
X123789160Y-17371819D01*
X123789160Y-17371819D02*
X123751064Y-17219438D01*
X123751064Y-17219438D02*
X123751064Y-17105152D01*
X123751064Y-17105152D02*
X123789160Y-16952771D01*
X123789160Y-16952771D02*
X123827255Y-16876580D01*
X123827255Y-16876580D02*
X123903445Y-16800390D01*
X123903445Y-16800390D02*
X124017731Y-16762295D01*
X124017731Y-16762295D02*
X124093922Y-16762295D01*
X124093922Y-16762295D02*
X124208207Y-16800390D01*
X124208207Y-16800390D02*
X124246303Y-16838485D01*
X124970112Y-17562295D02*
X124589160Y-17562295D01*
X124589160Y-17562295D02*
X124589160Y-16762295D01*
X125236779Y-17562295D02*
X125236779Y-16762295D01*
X125693922Y-17562295D02*
X125351064Y-17105152D01*
X125693922Y-16762295D02*
X125236779Y-17219438D01*
X130055826Y-11143247D02*
X130170112Y-11181342D01*
X130170112Y-11181342D02*
X130208207Y-11219438D01*
X130208207Y-11219438D02*
X130246303Y-11295628D01*
X130246303Y-11295628D02*
X130246303Y-11409914D01*
X130246303Y-11409914D02*
X130208207Y-11486104D01*
X130208207Y-11486104D02*
X130170112Y-11524200D01*
X130170112Y-11524200D02*
X130093922Y-11562295D01*
X130093922Y-11562295D02*
X129789160Y-11562295D01*
X129789160Y-11562295D02*
X129789160Y-10762295D01*
X129789160Y-10762295D02*
X130055826Y-10762295D01*
X130055826Y-10762295D02*
X130132017Y-10800390D01*
X130132017Y-10800390D02*
X130170112Y-10838485D01*
X130170112Y-10838485D02*
X130208207Y-10914676D01*
X130208207Y-10914676D02*
X130208207Y-10990866D01*
X130208207Y-10990866D02*
X130170112Y-11067057D01*
X130170112Y-11067057D02*
X130132017Y-11105152D01*
X130132017Y-11105152D02*
X130055826Y-11143247D01*
X130055826Y-11143247D02*
X129789160Y-11143247D01*
X130589160Y-10762295D02*
X130589160Y-11409914D01*
X130589160Y-11409914D02*
X130627255Y-11486104D01*
X130627255Y-11486104D02*
X130665350Y-11524200D01*
X130665350Y-11524200D02*
X130741541Y-11562295D01*
X130741541Y-11562295D02*
X130893922Y-11562295D01*
X130893922Y-11562295D02*
X130970112Y-11524200D01*
X130970112Y-11524200D02*
X131008207Y-11486104D01*
X131008207Y-11486104D02*
X131046303Y-11409914D01*
X131046303Y-11409914D02*
X131046303Y-10762295D01*
X131389159Y-11524200D02*
X131503445Y-11562295D01*
X131503445Y-11562295D02*
X131693921Y-11562295D01*
X131693921Y-11562295D02*
X131770112Y-11524200D01*
X131770112Y-11524200D02*
X131808207Y-11486104D01*
X131808207Y-11486104D02*
X131846302Y-11409914D01*
X131846302Y-11409914D02*
X131846302Y-11333723D01*
X131846302Y-11333723D02*
X131808207Y-11257533D01*
X131808207Y-11257533D02*
X131770112Y-11219438D01*
X131770112Y-11219438D02*
X131693921Y-11181342D01*
X131693921Y-11181342D02*
X131541540Y-11143247D01*
X131541540Y-11143247D02*
X131465350Y-11105152D01*
X131465350Y-11105152D02*
X131427255Y-11067057D01*
X131427255Y-11067057D02*
X131389159Y-10990866D01*
X131389159Y-10990866D02*
X131389159Y-10914676D01*
X131389159Y-10914676D02*
X131427255Y-10838485D01*
X131427255Y-10838485D02*
X131465350Y-10800390D01*
X131465350Y-10800390D02*
X131541540Y-10762295D01*
X131541540Y-10762295D02*
X131732017Y-10762295D01*
X131732017Y-10762295D02*
X131846302Y-10800390D01*
X132151064Y-10838485D02*
X132189160Y-10800390D01*
X132189160Y-10800390D02*
X132265350Y-10762295D01*
X132265350Y-10762295D02*
X132455826Y-10762295D01*
X132455826Y-10762295D02*
X132532017Y-10800390D01*
X132532017Y-10800390D02*
X132570112Y-10838485D01*
X132570112Y-10838485D02*
X132608207Y-10914676D01*
X132608207Y-10914676D02*
X132608207Y-10990866D01*
X132608207Y-10990866D02*
X132570112Y-11105152D01*
X132570112Y-11105152D02*
X132112969Y-11562295D01*
X132112969Y-11562295D02*
X132608207Y-11562295D01*
X130246303Y-17562295D02*
X129979636Y-17181342D01*
X129789160Y-17562295D02*
X129789160Y-16762295D01*
X129789160Y-16762295D02*
X130093922Y-16762295D01*
X130093922Y-16762295D02*
X130170112Y-16800390D01*
X130170112Y-16800390D02*
X130208207Y-16838485D01*
X130208207Y-16838485D02*
X130246303Y-16914676D01*
X130246303Y-16914676D02*
X130246303Y-17028961D01*
X130246303Y-17028961D02*
X130208207Y-17105152D01*
X130208207Y-17105152D02*
X130170112Y-17143247D01*
X130170112Y-17143247D02*
X130093922Y-17181342D01*
X130093922Y-17181342D02*
X129789160Y-17181342D01*
X130551064Y-17524200D02*
X130665350Y-17562295D01*
X130665350Y-17562295D02*
X130855826Y-17562295D01*
X130855826Y-17562295D02*
X130932017Y-17524200D01*
X130932017Y-17524200D02*
X130970112Y-17486104D01*
X130970112Y-17486104D02*
X131008207Y-17409914D01*
X131008207Y-17409914D02*
X131008207Y-17333723D01*
X131008207Y-17333723D02*
X130970112Y-17257533D01*
X130970112Y-17257533D02*
X130932017Y-17219438D01*
X130932017Y-17219438D02*
X130855826Y-17181342D01*
X130855826Y-17181342D02*
X130703445Y-17143247D01*
X130703445Y-17143247D02*
X130627255Y-17105152D01*
X130627255Y-17105152D02*
X130589160Y-17067057D01*
X130589160Y-17067057D02*
X130551064Y-16990866D01*
X130551064Y-16990866D02*
X130551064Y-16914676D01*
X130551064Y-16914676D02*
X130589160Y-16838485D01*
X130589160Y-16838485D02*
X130627255Y-16800390D01*
X130627255Y-16800390D02*
X130703445Y-16762295D01*
X130703445Y-16762295D02*
X130893922Y-16762295D01*
X130893922Y-16762295D02*
X131008207Y-16800390D01*
X131236779Y-16762295D02*
X131693922Y-16762295D01*
X131465350Y-17562295D02*
X131465350Y-16762295D01*
X32241541Y-3454819D02*
X32908207Y-3454819D01*
X32908207Y-3454819D02*
X32479636Y-4454819D01*
X33765350Y-3454819D02*
X33289160Y-3454819D01*
X33289160Y-3454819D02*
X33241541Y-3931009D01*
X33241541Y-3931009D02*
X33289160Y-3883390D01*
X33289160Y-3883390D02*
X33384398Y-3835771D01*
X33384398Y-3835771D02*
X33622493Y-3835771D01*
X33622493Y-3835771D02*
X33717731Y-3883390D01*
X33717731Y-3883390D02*
X33765350Y-3931009D01*
X33765350Y-3931009D02*
X33812969Y-4026247D01*
X33812969Y-4026247D02*
X33812969Y-4264342D01*
X33812969Y-4264342D02*
X33765350Y-4359580D01*
X33765350Y-4359580D02*
X33717731Y-4407200D01*
X33717731Y-4407200D02*
X33622493Y-4454819D01*
X33622493Y-4454819D02*
X33384398Y-4454819D01*
X33384398Y-4454819D02*
X33289160Y-4407200D01*
X33289160Y-4407200D02*
X33241541Y-4359580D01*
X34432017Y-3454819D02*
X34527255Y-3454819D01*
X34527255Y-3454819D02*
X34622493Y-3502438D01*
X34622493Y-3502438D02*
X34670112Y-3550057D01*
X34670112Y-3550057D02*
X34717731Y-3645295D01*
X34717731Y-3645295D02*
X34765350Y-3835771D01*
X34765350Y-3835771D02*
X34765350Y-4073866D01*
X34765350Y-4073866D02*
X34717731Y-4264342D01*
X34717731Y-4264342D02*
X34670112Y-4359580D01*
X34670112Y-4359580D02*
X34622493Y-4407200D01*
X34622493Y-4407200D02*
X34527255Y-4454819D01*
X34527255Y-4454819D02*
X34432017Y-4454819D01*
X34432017Y-4454819D02*
X34336779Y-4407200D01*
X34336779Y-4407200D02*
X34289160Y-4359580D01*
X34289160Y-4359580D02*
X34241541Y-4264342D01*
X34241541Y-4264342D02*
X34193922Y-4073866D01*
X34193922Y-4073866D02*
X34193922Y-3835771D01*
X34193922Y-3835771D02*
X34241541Y-3645295D01*
X34241541Y-3645295D02*
X34289160Y-3550057D01*
X34289160Y-3550057D02*
X34336779Y-3502438D01*
X34336779Y-3502438D02*
X34432017Y-3454819D01*
X35193922Y-4454819D02*
X35193922Y-3788152D01*
X35193922Y-3883390D02*
X35241541Y-3835771D01*
X35241541Y-3835771D02*
X35336779Y-3788152D01*
X35336779Y-3788152D02*
X35479636Y-3788152D01*
X35479636Y-3788152D02*
X35574874Y-3835771D01*
X35574874Y-3835771D02*
X35622493Y-3931009D01*
X35622493Y-3931009D02*
X35622493Y-4454819D01*
X35622493Y-3931009D02*
X35670112Y-3835771D01*
X35670112Y-3835771D02*
X35765350Y-3788152D01*
X35765350Y-3788152D02*
X35908207Y-3788152D01*
X35908207Y-3788152D02*
X36003446Y-3835771D01*
X36003446Y-3835771D02*
X36051065Y-3931009D01*
X36051065Y-3931009D02*
X36051065Y-4454819D01*
X36479636Y-4169104D02*
X36955826Y-4169104D01*
X36384398Y-4454819D02*
X36717731Y-3454819D01*
X36717731Y-3454819D02*
X37051064Y-4454819D01*
X53336779Y-7454819D02*
X53336779Y-6454819D01*
X53336779Y-6454819D02*
X53717731Y-6454819D01*
X53717731Y-6454819D02*
X53812969Y-6502438D01*
X53812969Y-6502438D02*
X53860588Y-6550057D01*
X53860588Y-6550057D02*
X53908207Y-6645295D01*
X53908207Y-6645295D02*
X53908207Y-6788152D01*
X53908207Y-6788152D02*
X53860588Y-6883390D01*
X53860588Y-6883390D02*
X53812969Y-6931009D01*
X53812969Y-6931009D02*
X53717731Y-6978628D01*
X53717731Y-6978628D02*
X53336779Y-6978628D01*
X54241541Y-6454819D02*
X54479636Y-7454819D01*
X54479636Y-7454819D02*
X54670112Y-6740533D01*
X54670112Y-6740533D02*
X54860588Y-7454819D01*
X54860588Y-7454819D02*
X55098684Y-6454819D01*
X56051064Y-7454819D02*
X55717731Y-6978628D01*
X55479636Y-7454819D02*
X55479636Y-6454819D01*
X55479636Y-6454819D02*
X55860588Y-6454819D01*
X55860588Y-6454819D02*
X55955826Y-6502438D01*
X55955826Y-6502438D02*
X56003445Y-6550057D01*
X56003445Y-6550057D02*
X56051064Y-6645295D01*
X56051064Y-6645295D02*
X56051064Y-6788152D01*
X56051064Y-6788152D02*
X56003445Y-6883390D01*
X56003445Y-6883390D02*
X55955826Y-6931009D01*
X55955826Y-6931009D02*
X55860588Y-6978628D01*
X55860588Y-6978628D02*
X55479636Y-6978628D01*
X66670112Y-2931009D02*
X66812969Y-2978628D01*
X66812969Y-2978628D02*
X66860588Y-3026247D01*
X66860588Y-3026247D02*
X66908207Y-3121485D01*
X66908207Y-3121485D02*
X66908207Y-3264342D01*
X66908207Y-3264342D02*
X66860588Y-3359580D01*
X66860588Y-3359580D02*
X66812969Y-3407200D01*
X66812969Y-3407200D02*
X66717731Y-3454819D01*
X66717731Y-3454819D02*
X66336779Y-3454819D01*
X66336779Y-3454819D02*
X66336779Y-2454819D01*
X66336779Y-2454819D02*
X66670112Y-2454819D01*
X66670112Y-2454819D02*
X66765350Y-2502438D01*
X66765350Y-2502438D02*
X66812969Y-2550057D01*
X66812969Y-2550057D02*
X66860588Y-2645295D01*
X66860588Y-2645295D02*
X66860588Y-2740533D01*
X66860588Y-2740533D02*
X66812969Y-2835771D01*
X66812969Y-2835771D02*
X66765350Y-2883390D01*
X66765350Y-2883390D02*
X66670112Y-2931009D01*
X66670112Y-2931009D02*
X66336779Y-2931009D01*
X67336779Y-2454819D02*
X67336779Y-3264342D01*
X67336779Y-3264342D02*
X67384398Y-3359580D01*
X67384398Y-3359580D02*
X67432017Y-3407200D01*
X67432017Y-3407200D02*
X67527255Y-3454819D01*
X67527255Y-3454819D02*
X67717731Y-3454819D01*
X67717731Y-3454819D02*
X67812969Y-3407200D01*
X67812969Y-3407200D02*
X67860588Y-3359580D01*
X67860588Y-3359580D02*
X67908207Y-3264342D01*
X67908207Y-3264342D02*
X67908207Y-2454819D01*
X68336779Y-3407200D02*
X68479636Y-3454819D01*
X68479636Y-3454819D02*
X68717731Y-3454819D01*
X68717731Y-3454819D02*
X68812969Y-3407200D01*
X68812969Y-3407200D02*
X68860588Y-3359580D01*
X68860588Y-3359580D02*
X68908207Y-3264342D01*
X68908207Y-3264342D02*
X68908207Y-3169104D01*
X68908207Y-3169104D02*
X68860588Y-3073866D01*
X68860588Y-3073866D02*
X68812969Y-3026247D01*
X68812969Y-3026247D02*
X68717731Y-2978628D01*
X68717731Y-2978628D02*
X68527255Y-2931009D01*
X68527255Y-2931009D02*
X68432017Y-2883390D01*
X68432017Y-2883390D02*
X68384398Y-2835771D01*
X68384398Y-2835771D02*
X68336779Y-2740533D01*
X68336779Y-2740533D02*
X68336779Y-2645295D01*
X68336779Y-2645295D02*
X68384398Y-2550057D01*
X68384398Y-2550057D02*
X68432017Y-2502438D01*
X68432017Y-2502438D02*
X68527255Y-2454819D01*
X68527255Y-2454819D02*
X68765350Y-2454819D01*
X68765350Y-2454819D02*
X68908207Y-2502438D01*
X70098684Y-3454819D02*
X70098684Y-2454819D01*
X70098684Y-2454819D02*
X70479636Y-2454819D01*
X70479636Y-2454819D02*
X70574874Y-2502438D01*
X70574874Y-2502438D02*
X70622493Y-2550057D01*
X70622493Y-2550057D02*
X70670112Y-2645295D01*
X70670112Y-2645295D02*
X70670112Y-2788152D01*
X70670112Y-2788152D02*
X70622493Y-2883390D01*
X70622493Y-2883390D02*
X70574874Y-2931009D01*
X70574874Y-2931009D02*
X70479636Y-2978628D01*
X70479636Y-2978628D02*
X70098684Y-2978628D01*
X71098684Y-2454819D02*
X71098684Y-3264342D01*
X71098684Y-3264342D02*
X71146303Y-3359580D01*
X71146303Y-3359580D02*
X71193922Y-3407200D01*
X71193922Y-3407200D02*
X71289160Y-3454819D01*
X71289160Y-3454819D02*
X71479636Y-3454819D01*
X71479636Y-3454819D02*
X71574874Y-3407200D01*
X71574874Y-3407200D02*
X71622493Y-3359580D01*
X71622493Y-3359580D02*
X71670112Y-3264342D01*
X71670112Y-3264342D02*
X71670112Y-2454819D01*
X72622493Y-3454819D02*
X72146303Y-3454819D01*
X72146303Y-3454819D02*
X72146303Y-2454819D01*
X73432017Y-3454819D02*
X72955827Y-3454819D01*
X72955827Y-3454819D02*
X72955827Y-2454819D01*
X73765351Y-3073866D02*
X74527256Y-3073866D01*
X75003446Y-2454819D02*
X75003446Y-3264342D01*
X75003446Y-3264342D02*
X75051065Y-3359580D01*
X75051065Y-3359580D02*
X75098684Y-3407200D01*
X75098684Y-3407200D02*
X75193922Y-3454819D01*
X75193922Y-3454819D02*
X75384398Y-3454819D01*
X75384398Y-3454819D02*
X75479636Y-3407200D01*
X75479636Y-3407200D02*
X75527255Y-3359580D01*
X75527255Y-3359580D02*
X75574874Y-3264342D01*
X75574874Y-3264342D02*
X75574874Y-2454819D01*
X76051065Y-3454819D02*
X76051065Y-2454819D01*
X76051065Y-2454819D02*
X76432017Y-2454819D01*
X76432017Y-2454819D02*
X76527255Y-2502438D01*
X76527255Y-2502438D02*
X76574874Y-2550057D01*
X76574874Y-2550057D02*
X76622493Y-2645295D01*
X76622493Y-2645295D02*
X76622493Y-2788152D01*
X76622493Y-2788152D02*
X76574874Y-2883390D01*
X76574874Y-2883390D02*
X76527255Y-2931009D01*
X76527255Y-2931009D02*
X76432017Y-2978628D01*
X76432017Y-2978628D02*
X76051065Y-2978628D01*
X77003446Y-3407200D02*
X77146303Y-3454819D01*
X77146303Y-3454819D02*
X77384398Y-3454819D01*
X77384398Y-3454819D02*
X77479636Y-3407200D01*
X77479636Y-3407200D02*
X77527255Y-3359580D01*
X77527255Y-3359580D02*
X77574874Y-3264342D01*
X77574874Y-3264342D02*
X77574874Y-3169104D01*
X77574874Y-3169104D02*
X77527255Y-3073866D01*
X77527255Y-3073866D02*
X77479636Y-3026247D01*
X77479636Y-3026247D02*
X77384398Y-2978628D01*
X77384398Y-2978628D02*
X77193922Y-2931009D01*
X77193922Y-2931009D02*
X77098684Y-2883390D01*
X77098684Y-2883390D02*
X77051065Y-2835771D01*
X77051065Y-2835771D02*
X77003446Y-2740533D01*
X77003446Y-2740533D02*
X77003446Y-2645295D01*
X77003446Y-2645295D02*
X77051065Y-2550057D01*
X77051065Y-2550057D02*
X77098684Y-2502438D01*
X77098684Y-2502438D02*
X77193922Y-2454819D01*
X77193922Y-2454819D02*
X77432017Y-2454819D01*
X77432017Y-2454819D02*
X77574874Y-2502438D01*
X84336779Y-3454819D02*
X84336779Y-2454819D01*
X84336779Y-2454819D02*
X84670112Y-3169104D01*
X84670112Y-3169104D02*
X85003445Y-2454819D01*
X85003445Y-2454819D02*
X85003445Y-3454819D01*
X86241541Y-3454819D02*
X86241541Y-2454819D01*
X86241541Y-2454819D02*
X86622493Y-2454819D01*
X86622493Y-2454819D02*
X86717731Y-2502438D01*
X86717731Y-2502438D02*
X86765350Y-2550057D01*
X86765350Y-2550057D02*
X86812969Y-2645295D01*
X86812969Y-2645295D02*
X86812969Y-2788152D01*
X86812969Y-2788152D02*
X86765350Y-2883390D01*
X86765350Y-2883390D02*
X86717731Y-2931009D01*
X86717731Y-2931009D02*
X86622493Y-2978628D01*
X86622493Y-2978628D02*
X86241541Y-2978628D01*
X87241541Y-2454819D02*
X87241541Y-3264342D01*
X87241541Y-3264342D02*
X87289160Y-3359580D01*
X87289160Y-3359580D02*
X87336779Y-3407200D01*
X87336779Y-3407200D02*
X87432017Y-3454819D01*
X87432017Y-3454819D02*
X87622493Y-3454819D01*
X87622493Y-3454819D02*
X87717731Y-3407200D01*
X87717731Y-3407200D02*
X87765350Y-3359580D01*
X87765350Y-3359580D02*
X87812969Y-3264342D01*
X87812969Y-3264342D02*
X87812969Y-2454819D01*
X88765350Y-3454819D02*
X88289160Y-3454819D01*
X88289160Y-3454819D02*
X88289160Y-2454819D01*
X89574874Y-3454819D02*
X89098684Y-3454819D01*
X89098684Y-3454819D02*
X89098684Y-2454819D01*
X89908208Y-3073866D02*
X90670113Y-3073866D01*
X91146303Y-3454819D02*
X91146303Y-2454819D01*
X91146303Y-2454819D02*
X91384398Y-2454819D01*
X91384398Y-2454819D02*
X91527255Y-2502438D01*
X91527255Y-2502438D02*
X91622493Y-2597676D01*
X91622493Y-2597676D02*
X91670112Y-2692914D01*
X91670112Y-2692914D02*
X91717731Y-2883390D01*
X91717731Y-2883390D02*
X91717731Y-3026247D01*
X91717731Y-3026247D02*
X91670112Y-3216723D01*
X91670112Y-3216723D02*
X91622493Y-3311961D01*
X91622493Y-3311961D02*
X91527255Y-3407200D01*
X91527255Y-3407200D02*
X91384398Y-3454819D01*
X91384398Y-3454819D02*
X91146303Y-3454819D01*
X92336779Y-2454819D02*
X92527255Y-2454819D01*
X92527255Y-2454819D02*
X92622493Y-2502438D01*
X92622493Y-2502438D02*
X92717731Y-2597676D01*
X92717731Y-2597676D02*
X92765350Y-2788152D01*
X92765350Y-2788152D02*
X92765350Y-3121485D01*
X92765350Y-3121485D02*
X92717731Y-3311961D01*
X92717731Y-3311961D02*
X92622493Y-3407200D01*
X92622493Y-3407200D02*
X92527255Y-3454819D01*
X92527255Y-3454819D02*
X92336779Y-3454819D01*
X92336779Y-3454819D02*
X92241541Y-3407200D01*
X92241541Y-3407200D02*
X92146303Y-3311961D01*
X92146303Y-3311961D02*
X92098684Y-3121485D01*
X92098684Y-3121485D02*
X92098684Y-2788152D01*
X92098684Y-2788152D02*
X92146303Y-2597676D01*
X92146303Y-2597676D02*
X92241541Y-2502438D01*
X92241541Y-2502438D02*
X92336779Y-2454819D01*
X93098684Y-2454819D02*
X93336779Y-3454819D01*
X93336779Y-3454819D02*
X93527255Y-2740533D01*
X93527255Y-2740533D02*
X93717731Y-3454819D01*
X93717731Y-3454819D02*
X93955827Y-2454819D01*
X94336779Y-3454819D02*
X94336779Y-2454819D01*
X94336779Y-2454819D02*
X94908207Y-3454819D01*
X94908207Y-3454819D02*
X94908207Y-2454819D01*
X95336779Y-3407200D02*
X95479636Y-3454819D01*
X95479636Y-3454819D02*
X95717731Y-3454819D01*
X95717731Y-3454819D02*
X95812969Y-3407200D01*
X95812969Y-3407200D02*
X95860588Y-3359580D01*
X95860588Y-3359580D02*
X95908207Y-3264342D01*
X95908207Y-3264342D02*
X95908207Y-3169104D01*
X95908207Y-3169104D02*
X95860588Y-3073866D01*
X95860588Y-3073866D02*
X95812969Y-3026247D01*
X95812969Y-3026247D02*
X95717731Y-2978628D01*
X95717731Y-2978628D02*
X95527255Y-2931009D01*
X95527255Y-2931009D02*
X95432017Y-2883390D01*
X95432017Y-2883390D02*
X95384398Y-2835771D01*
X95384398Y-2835771D02*
X95336779Y-2740533D01*
X95336779Y-2740533D02*
X95336779Y-2645295D01*
X95336779Y-2645295D02*
X95384398Y-2550057D01*
X95384398Y-2550057D02*
X95432017Y-2502438D01*
X95432017Y-2502438D02*
X95527255Y-2454819D01*
X95527255Y-2454819D02*
X95765350Y-2454819D01*
X95765350Y-2454819D02*
X95908207Y-2502438D01*
X97622493Y-3454819D02*
X97051065Y-3454819D01*
X97336779Y-3454819D02*
X97336779Y-2454819D01*
X97336779Y-2454819D02*
X97241541Y-2597676D01*
X97241541Y-2597676D02*
X97146303Y-2692914D01*
X97146303Y-2692914D02*
X97051065Y-2740533D01*
X98051065Y-3454819D02*
X98051065Y-2454819D01*
X98051065Y-2454819D02*
X98384398Y-3169104D01*
X98384398Y-3169104D02*
X98717731Y-2454819D01*
X98717731Y-2454819D02*
X98717731Y-3454819D01*
X99574874Y-3407200D02*
X99479636Y-3454819D01*
X99479636Y-3454819D02*
X99289160Y-3454819D01*
X99289160Y-3454819D02*
X99193922Y-3407200D01*
X99193922Y-3407200D02*
X99146303Y-3311961D01*
X99146303Y-3311961D02*
X99146303Y-2931009D01*
X99146303Y-2931009D02*
X99193922Y-2835771D01*
X99193922Y-2835771D02*
X99289160Y-2788152D01*
X99289160Y-2788152D02*
X99479636Y-2788152D01*
X99479636Y-2788152D02*
X99574874Y-2835771D01*
X99574874Y-2835771D02*
X99622493Y-2931009D01*
X99622493Y-2931009D02*
X99622493Y-3026247D01*
X99622493Y-3026247D02*
X99146303Y-3121485D01*
X100479636Y-2788152D02*
X100479636Y-3597676D01*
X100479636Y-3597676D02*
X100432017Y-3692914D01*
X100432017Y-3692914D02*
X100384398Y-3740533D01*
X100384398Y-3740533D02*
X100289160Y-3788152D01*
X100289160Y-3788152D02*
X100146303Y-3788152D01*
X100146303Y-3788152D02*
X100051065Y-3740533D01*
X100479636Y-3407200D02*
X100384398Y-3454819D01*
X100384398Y-3454819D02*
X100193922Y-3454819D01*
X100193922Y-3454819D02*
X100098684Y-3407200D01*
X100098684Y-3407200D02*
X100051065Y-3359580D01*
X100051065Y-3359580D02*
X100003446Y-3264342D01*
X100003446Y-3264342D02*
X100003446Y-2978628D01*
X100003446Y-2978628D02*
X100051065Y-2883390D01*
X100051065Y-2883390D02*
X100098684Y-2835771D01*
X100098684Y-2835771D02*
X100193922Y-2788152D01*
X100193922Y-2788152D02*
X100384398Y-2788152D01*
X100384398Y-2788152D02*
X100479636Y-2835771D01*
X9327255Y-107490200D02*
X9498684Y-107547342D01*
X9498684Y-107547342D02*
X9784398Y-107547342D01*
X9784398Y-107547342D02*
X9898684Y-107490200D01*
X9898684Y-107490200D02*
X9955826Y-107433057D01*
X9955826Y-107433057D02*
X10012969Y-107318771D01*
X10012969Y-107318771D02*
X10012969Y-107204485D01*
X10012969Y-107204485D02*
X9955826Y-107090200D01*
X9955826Y-107090200D02*
X9898684Y-107033057D01*
X9898684Y-107033057D02*
X9784398Y-106975914D01*
X9784398Y-106975914D02*
X9555826Y-106918771D01*
X9555826Y-106918771D02*
X9441541Y-106861628D01*
X9441541Y-106861628D02*
X9384398Y-106804485D01*
X9384398Y-106804485D02*
X9327255Y-106690200D01*
X9327255Y-106690200D02*
X9327255Y-106575914D01*
X9327255Y-106575914D02*
X9384398Y-106461628D01*
X9384398Y-106461628D02*
X9441541Y-106404485D01*
X9441541Y-106404485D02*
X9555826Y-106347342D01*
X9555826Y-106347342D02*
X9841541Y-106347342D01*
X9841541Y-106347342D02*
X10012969Y-106404485D01*
X11098683Y-107547342D02*
X10527255Y-107547342D01*
X10527255Y-107547342D02*
X10527255Y-106347342D01*
X11727255Y-106347342D02*
X11955827Y-106347342D01*
X11955827Y-106347342D02*
X12070112Y-106404485D01*
X12070112Y-106404485D02*
X12184398Y-106518771D01*
X12184398Y-106518771D02*
X12241541Y-106747342D01*
X12241541Y-106747342D02*
X12241541Y-107147342D01*
X12241541Y-107147342D02*
X12184398Y-107375914D01*
X12184398Y-107375914D02*
X12070112Y-107490200D01*
X12070112Y-107490200D02*
X11955827Y-107547342D01*
X11955827Y-107547342D02*
X11727255Y-107547342D01*
X11727255Y-107547342D02*
X11612970Y-107490200D01*
X11612970Y-107490200D02*
X11498684Y-107375914D01*
X11498684Y-107375914D02*
X11441541Y-107147342D01*
X11441541Y-107147342D02*
X11441541Y-106747342D01*
X11441541Y-106747342D02*
X11498684Y-106518771D01*
X11498684Y-106518771D02*
X11612970Y-106404485D01*
X11612970Y-106404485D02*
X11727255Y-106347342D01*
X12584398Y-106347342D02*
X13270113Y-106347342D01*
X12927255Y-107547342D02*
X12927255Y-106347342D01*
X15212970Y-107547342D02*
X14527256Y-107547342D01*
X14870113Y-107547342D02*
X14870113Y-106347342D01*
X14870113Y-106347342D02*
X14755827Y-106518771D01*
X14755827Y-106518771D02*
X14641542Y-106633057D01*
X14641542Y-106633057D02*
X14527256Y-106690200D01*
X24327255Y-107490200D02*
X24498684Y-107547342D01*
X24498684Y-107547342D02*
X24784398Y-107547342D01*
X24784398Y-107547342D02*
X24898684Y-107490200D01*
X24898684Y-107490200D02*
X24955826Y-107433057D01*
X24955826Y-107433057D02*
X25012969Y-107318771D01*
X25012969Y-107318771D02*
X25012969Y-107204485D01*
X25012969Y-107204485D02*
X24955826Y-107090200D01*
X24955826Y-107090200D02*
X24898684Y-107033057D01*
X24898684Y-107033057D02*
X24784398Y-106975914D01*
X24784398Y-106975914D02*
X24555826Y-106918771D01*
X24555826Y-106918771D02*
X24441541Y-106861628D01*
X24441541Y-106861628D02*
X24384398Y-106804485D01*
X24384398Y-106804485D02*
X24327255Y-106690200D01*
X24327255Y-106690200D02*
X24327255Y-106575914D01*
X24327255Y-106575914D02*
X24384398Y-106461628D01*
X24384398Y-106461628D02*
X24441541Y-106404485D01*
X24441541Y-106404485D02*
X24555826Y-106347342D01*
X24555826Y-106347342D02*
X24841541Y-106347342D01*
X24841541Y-106347342D02*
X25012969Y-106404485D01*
X26098683Y-107547342D02*
X25527255Y-107547342D01*
X25527255Y-107547342D02*
X25527255Y-106347342D01*
X26727255Y-106347342D02*
X26955827Y-106347342D01*
X26955827Y-106347342D02*
X27070112Y-106404485D01*
X27070112Y-106404485D02*
X27184398Y-106518771D01*
X27184398Y-106518771D02*
X27241541Y-106747342D01*
X27241541Y-106747342D02*
X27241541Y-107147342D01*
X27241541Y-107147342D02*
X27184398Y-107375914D01*
X27184398Y-107375914D02*
X27070112Y-107490200D01*
X27070112Y-107490200D02*
X26955827Y-107547342D01*
X26955827Y-107547342D02*
X26727255Y-107547342D01*
X26727255Y-107547342D02*
X26612970Y-107490200D01*
X26612970Y-107490200D02*
X26498684Y-107375914D01*
X26498684Y-107375914D02*
X26441541Y-107147342D01*
X26441541Y-107147342D02*
X26441541Y-106747342D01*
X26441541Y-106747342D02*
X26498684Y-106518771D01*
X26498684Y-106518771D02*
X26612970Y-106404485D01*
X26612970Y-106404485D02*
X26727255Y-106347342D01*
X27584398Y-106347342D02*
X28270113Y-106347342D01*
X27927255Y-107547342D02*
X27927255Y-106347342D01*
X29527256Y-106461628D02*
X29584399Y-106404485D01*
X29584399Y-106404485D02*
X29698685Y-106347342D01*
X29698685Y-106347342D02*
X29984399Y-106347342D01*
X29984399Y-106347342D02*
X30098685Y-106404485D01*
X30098685Y-106404485D02*
X30155827Y-106461628D01*
X30155827Y-106461628D02*
X30212970Y-106575914D01*
X30212970Y-106575914D02*
X30212970Y-106690200D01*
X30212970Y-106690200D02*
X30155827Y-106861628D01*
X30155827Y-106861628D02*
X29470113Y-107547342D01*
X29470113Y-107547342D02*
X30212970Y-107547342D01*
X39327255Y-107490200D02*
X39498684Y-107547342D01*
X39498684Y-107547342D02*
X39784398Y-107547342D01*
X39784398Y-107547342D02*
X39898684Y-107490200D01*
X39898684Y-107490200D02*
X39955826Y-107433057D01*
X39955826Y-107433057D02*
X40012969Y-107318771D01*
X40012969Y-107318771D02*
X40012969Y-107204485D01*
X40012969Y-107204485D02*
X39955826Y-107090200D01*
X39955826Y-107090200D02*
X39898684Y-107033057D01*
X39898684Y-107033057D02*
X39784398Y-106975914D01*
X39784398Y-106975914D02*
X39555826Y-106918771D01*
X39555826Y-106918771D02*
X39441541Y-106861628D01*
X39441541Y-106861628D02*
X39384398Y-106804485D01*
X39384398Y-106804485D02*
X39327255Y-106690200D01*
X39327255Y-106690200D02*
X39327255Y-106575914D01*
X39327255Y-106575914D02*
X39384398Y-106461628D01*
X39384398Y-106461628D02*
X39441541Y-106404485D01*
X39441541Y-106404485D02*
X39555826Y-106347342D01*
X39555826Y-106347342D02*
X39841541Y-106347342D01*
X39841541Y-106347342D02*
X40012969Y-106404485D01*
X41098683Y-107547342D02*
X40527255Y-107547342D01*
X40527255Y-107547342D02*
X40527255Y-106347342D01*
X41727255Y-106347342D02*
X41955827Y-106347342D01*
X41955827Y-106347342D02*
X42070112Y-106404485D01*
X42070112Y-106404485D02*
X42184398Y-106518771D01*
X42184398Y-106518771D02*
X42241541Y-106747342D01*
X42241541Y-106747342D02*
X42241541Y-107147342D01*
X42241541Y-107147342D02*
X42184398Y-107375914D01*
X42184398Y-107375914D02*
X42070112Y-107490200D01*
X42070112Y-107490200D02*
X41955827Y-107547342D01*
X41955827Y-107547342D02*
X41727255Y-107547342D01*
X41727255Y-107547342D02*
X41612970Y-107490200D01*
X41612970Y-107490200D02*
X41498684Y-107375914D01*
X41498684Y-107375914D02*
X41441541Y-107147342D01*
X41441541Y-107147342D02*
X41441541Y-106747342D01*
X41441541Y-106747342D02*
X41498684Y-106518771D01*
X41498684Y-106518771D02*
X41612970Y-106404485D01*
X41612970Y-106404485D02*
X41727255Y-106347342D01*
X42584398Y-106347342D02*
X43270113Y-106347342D01*
X42927255Y-107547342D02*
X42927255Y-106347342D01*
X44470113Y-106347342D02*
X45212970Y-106347342D01*
X45212970Y-106347342D02*
X44812970Y-106804485D01*
X44812970Y-106804485D02*
X44984399Y-106804485D01*
X44984399Y-106804485D02*
X45098685Y-106861628D01*
X45098685Y-106861628D02*
X45155827Y-106918771D01*
X45155827Y-106918771D02*
X45212970Y-107033057D01*
X45212970Y-107033057D02*
X45212970Y-107318771D01*
X45212970Y-107318771D02*
X45155827Y-107433057D01*
X45155827Y-107433057D02*
X45098685Y-107490200D01*
X45098685Y-107490200D02*
X44984399Y-107547342D01*
X44984399Y-107547342D02*
X44641542Y-107547342D01*
X44641542Y-107547342D02*
X44527256Y-107490200D01*
X44527256Y-107490200D02*
X44470113Y-107433057D01*
X54327255Y-107490200D02*
X54498684Y-107547342D01*
X54498684Y-107547342D02*
X54784398Y-107547342D01*
X54784398Y-107547342D02*
X54898684Y-107490200D01*
X54898684Y-107490200D02*
X54955826Y-107433057D01*
X54955826Y-107433057D02*
X55012969Y-107318771D01*
X55012969Y-107318771D02*
X55012969Y-107204485D01*
X55012969Y-107204485D02*
X54955826Y-107090200D01*
X54955826Y-107090200D02*
X54898684Y-107033057D01*
X54898684Y-107033057D02*
X54784398Y-106975914D01*
X54784398Y-106975914D02*
X54555826Y-106918771D01*
X54555826Y-106918771D02*
X54441541Y-106861628D01*
X54441541Y-106861628D02*
X54384398Y-106804485D01*
X54384398Y-106804485D02*
X54327255Y-106690200D01*
X54327255Y-106690200D02*
X54327255Y-106575914D01*
X54327255Y-106575914D02*
X54384398Y-106461628D01*
X54384398Y-106461628D02*
X54441541Y-106404485D01*
X54441541Y-106404485D02*
X54555826Y-106347342D01*
X54555826Y-106347342D02*
X54841541Y-106347342D01*
X54841541Y-106347342D02*
X55012969Y-106404485D01*
X56098683Y-107547342D02*
X55527255Y-107547342D01*
X55527255Y-107547342D02*
X55527255Y-106347342D01*
X56727255Y-106347342D02*
X56955827Y-106347342D01*
X56955827Y-106347342D02*
X57070112Y-106404485D01*
X57070112Y-106404485D02*
X57184398Y-106518771D01*
X57184398Y-106518771D02*
X57241541Y-106747342D01*
X57241541Y-106747342D02*
X57241541Y-107147342D01*
X57241541Y-107147342D02*
X57184398Y-107375914D01*
X57184398Y-107375914D02*
X57070112Y-107490200D01*
X57070112Y-107490200D02*
X56955827Y-107547342D01*
X56955827Y-107547342D02*
X56727255Y-107547342D01*
X56727255Y-107547342D02*
X56612970Y-107490200D01*
X56612970Y-107490200D02*
X56498684Y-107375914D01*
X56498684Y-107375914D02*
X56441541Y-107147342D01*
X56441541Y-107147342D02*
X56441541Y-106747342D01*
X56441541Y-106747342D02*
X56498684Y-106518771D01*
X56498684Y-106518771D02*
X56612970Y-106404485D01*
X56612970Y-106404485D02*
X56727255Y-106347342D01*
X57584398Y-106347342D02*
X58270113Y-106347342D01*
X57927255Y-107547342D02*
X57927255Y-106347342D01*
X60098685Y-106747342D02*
X60098685Y-107547342D01*
X59812970Y-106290200D02*
X59527256Y-107147342D01*
X59527256Y-107147342D02*
X60270113Y-107147342D01*
X69327255Y-107490200D02*
X69498684Y-107547342D01*
X69498684Y-107547342D02*
X69784398Y-107547342D01*
X69784398Y-107547342D02*
X69898684Y-107490200D01*
X69898684Y-107490200D02*
X69955826Y-107433057D01*
X69955826Y-107433057D02*
X70012969Y-107318771D01*
X70012969Y-107318771D02*
X70012969Y-107204485D01*
X70012969Y-107204485D02*
X69955826Y-107090200D01*
X69955826Y-107090200D02*
X69898684Y-107033057D01*
X69898684Y-107033057D02*
X69784398Y-106975914D01*
X69784398Y-106975914D02*
X69555826Y-106918771D01*
X69555826Y-106918771D02*
X69441541Y-106861628D01*
X69441541Y-106861628D02*
X69384398Y-106804485D01*
X69384398Y-106804485D02*
X69327255Y-106690200D01*
X69327255Y-106690200D02*
X69327255Y-106575914D01*
X69327255Y-106575914D02*
X69384398Y-106461628D01*
X69384398Y-106461628D02*
X69441541Y-106404485D01*
X69441541Y-106404485D02*
X69555826Y-106347342D01*
X69555826Y-106347342D02*
X69841541Y-106347342D01*
X69841541Y-106347342D02*
X70012969Y-106404485D01*
X71098683Y-107547342D02*
X70527255Y-107547342D01*
X70527255Y-107547342D02*
X70527255Y-106347342D01*
X71727255Y-106347342D02*
X71955827Y-106347342D01*
X71955827Y-106347342D02*
X72070112Y-106404485D01*
X72070112Y-106404485D02*
X72184398Y-106518771D01*
X72184398Y-106518771D02*
X72241541Y-106747342D01*
X72241541Y-106747342D02*
X72241541Y-107147342D01*
X72241541Y-107147342D02*
X72184398Y-107375914D01*
X72184398Y-107375914D02*
X72070112Y-107490200D01*
X72070112Y-107490200D02*
X71955827Y-107547342D01*
X71955827Y-107547342D02*
X71727255Y-107547342D01*
X71727255Y-107547342D02*
X71612970Y-107490200D01*
X71612970Y-107490200D02*
X71498684Y-107375914D01*
X71498684Y-107375914D02*
X71441541Y-107147342D01*
X71441541Y-107147342D02*
X71441541Y-106747342D01*
X71441541Y-106747342D02*
X71498684Y-106518771D01*
X71498684Y-106518771D02*
X71612970Y-106404485D01*
X71612970Y-106404485D02*
X71727255Y-106347342D01*
X72584398Y-106347342D02*
X73270113Y-106347342D01*
X72927255Y-107547342D02*
X72927255Y-106347342D01*
X75155827Y-106347342D02*
X74584399Y-106347342D01*
X74584399Y-106347342D02*
X74527256Y-106918771D01*
X74527256Y-106918771D02*
X74584399Y-106861628D01*
X74584399Y-106861628D02*
X74698685Y-106804485D01*
X74698685Y-106804485D02*
X74984399Y-106804485D01*
X74984399Y-106804485D02*
X75098685Y-106861628D01*
X75098685Y-106861628D02*
X75155827Y-106918771D01*
X75155827Y-106918771D02*
X75212970Y-107033057D01*
X75212970Y-107033057D02*
X75212970Y-107318771D01*
X75212970Y-107318771D02*
X75155827Y-107433057D01*
X75155827Y-107433057D02*
X75098685Y-107490200D01*
X75098685Y-107490200D02*
X74984399Y-107547342D01*
X74984399Y-107547342D02*
X74698685Y-107547342D01*
X74698685Y-107547342D02*
X74584399Y-107490200D01*
X74584399Y-107490200D02*
X74527256Y-107433057D01*
X84327255Y-107490200D02*
X84498684Y-107547342D01*
X84498684Y-107547342D02*
X84784398Y-107547342D01*
X84784398Y-107547342D02*
X84898684Y-107490200D01*
X84898684Y-107490200D02*
X84955826Y-107433057D01*
X84955826Y-107433057D02*
X85012969Y-107318771D01*
X85012969Y-107318771D02*
X85012969Y-107204485D01*
X85012969Y-107204485D02*
X84955826Y-107090200D01*
X84955826Y-107090200D02*
X84898684Y-107033057D01*
X84898684Y-107033057D02*
X84784398Y-106975914D01*
X84784398Y-106975914D02*
X84555826Y-106918771D01*
X84555826Y-106918771D02*
X84441541Y-106861628D01*
X84441541Y-106861628D02*
X84384398Y-106804485D01*
X84384398Y-106804485D02*
X84327255Y-106690200D01*
X84327255Y-106690200D02*
X84327255Y-106575914D01*
X84327255Y-106575914D02*
X84384398Y-106461628D01*
X84384398Y-106461628D02*
X84441541Y-106404485D01*
X84441541Y-106404485D02*
X84555826Y-106347342D01*
X84555826Y-106347342D02*
X84841541Y-106347342D01*
X84841541Y-106347342D02*
X85012969Y-106404485D01*
X86098683Y-107547342D02*
X85527255Y-107547342D01*
X85527255Y-107547342D02*
X85527255Y-106347342D01*
X86727255Y-106347342D02*
X86955827Y-106347342D01*
X86955827Y-106347342D02*
X87070112Y-106404485D01*
X87070112Y-106404485D02*
X87184398Y-106518771D01*
X87184398Y-106518771D02*
X87241541Y-106747342D01*
X87241541Y-106747342D02*
X87241541Y-107147342D01*
X87241541Y-107147342D02*
X87184398Y-107375914D01*
X87184398Y-107375914D02*
X87070112Y-107490200D01*
X87070112Y-107490200D02*
X86955827Y-107547342D01*
X86955827Y-107547342D02*
X86727255Y-107547342D01*
X86727255Y-107547342D02*
X86612970Y-107490200D01*
X86612970Y-107490200D02*
X86498684Y-107375914D01*
X86498684Y-107375914D02*
X86441541Y-107147342D01*
X86441541Y-107147342D02*
X86441541Y-106747342D01*
X86441541Y-106747342D02*
X86498684Y-106518771D01*
X86498684Y-106518771D02*
X86612970Y-106404485D01*
X86612970Y-106404485D02*
X86727255Y-106347342D01*
X87584398Y-106347342D02*
X88270113Y-106347342D01*
X87927255Y-107547342D02*
X87927255Y-106347342D01*
X90098685Y-106347342D02*
X89870113Y-106347342D01*
X89870113Y-106347342D02*
X89755827Y-106404485D01*
X89755827Y-106404485D02*
X89698685Y-106461628D01*
X89698685Y-106461628D02*
X89584399Y-106633057D01*
X89584399Y-106633057D02*
X89527256Y-106861628D01*
X89527256Y-106861628D02*
X89527256Y-107318771D01*
X89527256Y-107318771D02*
X89584399Y-107433057D01*
X89584399Y-107433057D02*
X89641542Y-107490200D01*
X89641542Y-107490200D02*
X89755827Y-107547342D01*
X89755827Y-107547342D02*
X89984399Y-107547342D01*
X89984399Y-107547342D02*
X90098685Y-107490200D01*
X90098685Y-107490200D02*
X90155827Y-107433057D01*
X90155827Y-107433057D02*
X90212970Y-107318771D01*
X90212970Y-107318771D02*
X90212970Y-107033057D01*
X90212970Y-107033057D02*
X90155827Y-106918771D01*
X90155827Y-106918771D02*
X90098685Y-106861628D01*
X90098685Y-106861628D02*
X89984399Y-106804485D01*
X89984399Y-106804485D02*
X89755827Y-106804485D01*
X89755827Y-106804485D02*
X89641542Y-106861628D01*
X89641542Y-106861628D02*
X89584399Y-106918771D01*
X89584399Y-106918771D02*
X89527256Y-107033057D01*
X99327255Y-107490200D02*
X99498684Y-107547342D01*
X99498684Y-107547342D02*
X99784398Y-107547342D01*
X99784398Y-107547342D02*
X99898684Y-107490200D01*
X99898684Y-107490200D02*
X99955826Y-107433057D01*
X99955826Y-107433057D02*
X100012969Y-107318771D01*
X100012969Y-107318771D02*
X100012969Y-107204485D01*
X100012969Y-107204485D02*
X99955826Y-107090200D01*
X99955826Y-107090200D02*
X99898684Y-107033057D01*
X99898684Y-107033057D02*
X99784398Y-106975914D01*
X99784398Y-106975914D02*
X99555826Y-106918771D01*
X99555826Y-106918771D02*
X99441541Y-106861628D01*
X99441541Y-106861628D02*
X99384398Y-106804485D01*
X99384398Y-106804485D02*
X99327255Y-106690200D01*
X99327255Y-106690200D02*
X99327255Y-106575914D01*
X99327255Y-106575914D02*
X99384398Y-106461628D01*
X99384398Y-106461628D02*
X99441541Y-106404485D01*
X99441541Y-106404485D02*
X99555826Y-106347342D01*
X99555826Y-106347342D02*
X99841541Y-106347342D01*
X99841541Y-106347342D02*
X100012969Y-106404485D01*
X101098683Y-107547342D02*
X100527255Y-107547342D01*
X100527255Y-107547342D02*
X100527255Y-106347342D01*
X101727255Y-106347342D02*
X101955827Y-106347342D01*
X101955827Y-106347342D02*
X102070112Y-106404485D01*
X102070112Y-106404485D02*
X102184398Y-106518771D01*
X102184398Y-106518771D02*
X102241541Y-106747342D01*
X102241541Y-106747342D02*
X102241541Y-107147342D01*
X102241541Y-107147342D02*
X102184398Y-107375914D01*
X102184398Y-107375914D02*
X102070112Y-107490200D01*
X102070112Y-107490200D02*
X101955827Y-107547342D01*
X101955827Y-107547342D02*
X101727255Y-107547342D01*
X101727255Y-107547342D02*
X101612970Y-107490200D01*
X101612970Y-107490200D02*
X101498684Y-107375914D01*
X101498684Y-107375914D02*
X101441541Y-107147342D01*
X101441541Y-107147342D02*
X101441541Y-106747342D01*
X101441541Y-106747342D02*
X101498684Y-106518771D01*
X101498684Y-106518771D02*
X101612970Y-106404485D01*
X101612970Y-106404485D02*
X101727255Y-106347342D01*
X102584398Y-106347342D02*
X103270113Y-106347342D01*
X102927255Y-107547342D02*
X102927255Y-106347342D01*
X104470113Y-106347342D02*
X105270113Y-106347342D01*
X105270113Y-106347342D02*
X104755827Y-107547342D01*
X114327255Y-107490200D02*
X114498684Y-107547342D01*
X114498684Y-107547342D02*
X114784398Y-107547342D01*
X114784398Y-107547342D02*
X114898684Y-107490200D01*
X114898684Y-107490200D02*
X114955826Y-107433057D01*
X114955826Y-107433057D02*
X115012969Y-107318771D01*
X115012969Y-107318771D02*
X115012969Y-107204485D01*
X115012969Y-107204485D02*
X114955826Y-107090200D01*
X114955826Y-107090200D02*
X114898684Y-107033057D01*
X114898684Y-107033057D02*
X114784398Y-106975914D01*
X114784398Y-106975914D02*
X114555826Y-106918771D01*
X114555826Y-106918771D02*
X114441541Y-106861628D01*
X114441541Y-106861628D02*
X114384398Y-106804485D01*
X114384398Y-106804485D02*
X114327255Y-106690200D01*
X114327255Y-106690200D02*
X114327255Y-106575914D01*
X114327255Y-106575914D02*
X114384398Y-106461628D01*
X114384398Y-106461628D02*
X114441541Y-106404485D01*
X114441541Y-106404485D02*
X114555826Y-106347342D01*
X114555826Y-106347342D02*
X114841541Y-106347342D01*
X114841541Y-106347342D02*
X115012969Y-106404485D01*
X116098683Y-107547342D02*
X115527255Y-107547342D01*
X115527255Y-107547342D02*
X115527255Y-106347342D01*
X116727255Y-106347342D02*
X116955827Y-106347342D01*
X116955827Y-106347342D02*
X117070112Y-106404485D01*
X117070112Y-106404485D02*
X117184398Y-106518771D01*
X117184398Y-106518771D02*
X117241541Y-106747342D01*
X117241541Y-106747342D02*
X117241541Y-107147342D01*
X117241541Y-107147342D02*
X117184398Y-107375914D01*
X117184398Y-107375914D02*
X117070112Y-107490200D01*
X117070112Y-107490200D02*
X116955827Y-107547342D01*
X116955827Y-107547342D02*
X116727255Y-107547342D01*
X116727255Y-107547342D02*
X116612970Y-107490200D01*
X116612970Y-107490200D02*
X116498684Y-107375914D01*
X116498684Y-107375914D02*
X116441541Y-107147342D01*
X116441541Y-107147342D02*
X116441541Y-106747342D01*
X116441541Y-106747342D02*
X116498684Y-106518771D01*
X116498684Y-106518771D02*
X116612970Y-106404485D01*
X116612970Y-106404485D02*
X116727255Y-106347342D01*
X117584398Y-106347342D02*
X118270113Y-106347342D01*
X117927255Y-107547342D02*
X117927255Y-106347342D01*
X119755827Y-106861628D02*
X119641542Y-106804485D01*
X119641542Y-106804485D02*
X119584399Y-106747342D01*
X119584399Y-106747342D02*
X119527256Y-106633057D01*
X119527256Y-106633057D02*
X119527256Y-106575914D01*
X119527256Y-106575914D02*
X119584399Y-106461628D01*
X119584399Y-106461628D02*
X119641542Y-106404485D01*
X119641542Y-106404485D02*
X119755827Y-106347342D01*
X119755827Y-106347342D02*
X119984399Y-106347342D01*
X119984399Y-106347342D02*
X120098685Y-106404485D01*
X120098685Y-106404485D02*
X120155827Y-106461628D01*
X120155827Y-106461628D02*
X120212970Y-106575914D01*
X120212970Y-106575914D02*
X120212970Y-106633057D01*
X120212970Y-106633057D02*
X120155827Y-106747342D01*
X120155827Y-106747342D02*
X120098685Y-106804485D01*
X120098685Y-106804485D02*
X119984399Y-106861628D01*
X119984399Y-106861628D02*
X119755827Y-106861628D01*
X119755827Y-106861628D02*
X119641542Y-106918771D01*
X119641542Y-106918771D02*
X119584399Y-106975914D01*
X119584399Y-106975914D02*
X119527256Y-107090200D01*
X119527256Y-107090200D02*
X119527256Y-107318771D01*
X119527256Y-107318771D02*
X119584399Y-107433057D01*
X119584399Y-107433057D02*
X119641542Y-107490200D01*
X119641542Y-107490200D02*
X119755827Y-107547342D01*
X119755827Y-107547342D02*
X119984399Y-107547342D01*
X119984399Y-107547342D02*
X120098685Y-107490200D01*
X120098685Y-107490200D02*
X120155827Y-107433057D01*
X120155827Y-107433057D02*
X120212970Y-107318771D01*
X120212970Y-107318771D02*
X120212970Y-107090200D01*
X120212970Y-107090200D02*
X120155827Y-106975914D01*
X120155827Y-106975914D02*
X120098685Y-106918771D01*
X120098685Y-106918771D02*
X119984399Y-106861628D01*
D11*
X98521615Y-112220928D02*
X98521615Y-110720928D01*
X98521615Y-110720928D02*
X99378758Y-112220928D01*
X99378758Y-112220928D02*
X99378758Y-110720928D01*
X100093044Y-112220928D02*
X100093044Y-110720928D01*
X101307330Y-111435214D02*
X101521616Y-111506642D01*
X101521616Y-111506642D02*
X101593045Y-111578071D01*
X101593045Y-111578071D02*
X101664473Y-111720928D01*
X101664473Y-111720928D02*
X101664473Y-111935214D01*
X101664473Y-111935214D02*
X101593045Y-112078071D01*
X101593045Y-112078071D02*
X101521616Y-112149500D01*
X101521616Y-112149500D02*
X101378759Y-112220928D01*
X101378759Y-112220928D02*
X100807330Y-112220928D01*
X100807330Y-112220928D02*
X100807330Y-110720928D01*
X100807330Y-110720928D02*
X101307330Y-110720928D01*
X101307330Y-110720928D02*
X101450188Y-110792357D01*
X101450188Y-110792357D02*
X101521616Y-110863785D01*
X101521616Y-110863785D02*
X101593045Y-111006642D01*
X101593045Y-111006642D02*
X101593045Y-111149500D01*
X101593045Y-111149500D02*
X101521616Y-111292357D01*
X101521616Y-111292357D02*
X101450188Y-111363785D01*
X101450188Y-111363785D02*
X101307330Y-111435214D01*
X101307330Y-111435214D02*
X100807330Y-111435214D01*
X102807330Y-111435214D02*
X103021616Y-111506642D01*
X103021616Y-111506642D02*
X103093045Y-111578071D01*
X103093045Y-111578071D02*
X103164473Y-111720928D01*
X103164473Y-111720928D02*
X103164473Y-111935214D01*
X103164473Y-111935214D02*
X103093045Y-112078071D01*
X103093045Y-112078071D02*
X103021616Y-112149500D01*
X103021616Y-112149500D02*
X102878759Y-112220928D01*
X102878759Y-112220928D02*
X102307330Y-112220928D01*
X102307330Y-112220928D02*
X102307330Y-110720928D01*
X102307330Y-110720928D02*
X102807330Y-110720928D01*
X102807330Y-110720928D02*
X102950188Y-110792357D01*
X102950188Y-110792357D02*
X103021616Y-110863785D01*
X103021616Y-110863785D02*
X103093045Y-111006642D01*
X103093045Y-111006642D02*
X103093045Y-111149500D01*
X103093045Y-111149500D02*
X103021616Y-111292357D01*
X103021616Y-111292357D02*
X102950188Y-111363785D01*
X102950188Y-111363785D02*
X102807330Y-111435214D01*
X102807330Y-111435214D02*
X102307330Y-111435214D01*
X104521616Y-112220928D02*
X103807330Y-112220928D01*
X103807330Y-112220928D02*
X103807330Y-110720928D01*
X105021616Y-111435214D02*
X105521616Y-111435214D01*
X105735902Y-112220928D02*
X105021616Y-112220928D01*
X105021616Y-112220928D02*
X105021616Y-110720928D01*
X105021616Y-110720928D02*
X105735902Y-110720928D01*
X108021616Y-111435214D02*
X108235902Y-111506642D01*
X108235902Y-111506642D02*
X108307331Y-111578071D01*
X108307331Y-111578071D02*
X108378759Y-111720928D01*
X108378759Y-111720928D02*
X108378759Y-111935214D01*
X108378759Y-111935214D02*
X108307331Y-112078071D01*
X108307331Y-112078071D02*
X108235902Y-112149500D01*
X108235902Y-112149500D02*
X108093045Y-112220928D01*
X108093045Y-112220928D02*
X107521616Y-112220928D01*
X107521616Y-112220928D02*
X107521616Y-110720928D01*
X107521616Y-110720928D02*
X108021616Y-110720928D01*
X108021616Y-110720928D02*
X108164474Y-110792357D01*
X108164474Y-110792357D02*
X108235902Y-110863785D01*
X108235902Y-110863785D02*
X108307331Y-111006642D01*
X108307331Y-111006642D02*
X108307331Y-111149500D01*
X108307331Y-111149500D02*
X108235902Y-111292357D01*
X108235902Y-111292357D02*
X108164474Y-111363785D01*
X108164474Y-111363785D02*
X108021616Y-111435214D01*
X108021616Y-111435214D02*
X107521616Y-111435214D01*
X109021616Y-110720928D02*
X109021616Y-111935214D01*
X109021616Y-111935214D02*
X109093045Y-112078071D01*
X109093045Y-112078071D02*
X109164474Y-112149500D01*
X109164474Y-112149500D02*
X109307331Y-112220928D01*
X109307331Y-112220928D02*
X109593045Y-112220928D01*
X109593045Y-112220928D02*
X109735902Y-112149500D01*
X109735902Y-112149500D02*
X109807331Y-112078071D01*
X109807331Y-112078071D02*
X109878759Y-111935214D01*
X109878759Y-111935214D02*
X109878759Y-110720928D01*
X110521617Y-112149500D02*
X110735903Y-112220928D01*
X110735903Y-112220928D02*
X111093045Y-112220928D01*
X111093045Y-112220928D02*
X111235903Y-112149500D01*
X111235903Y-112149500D02*
X111307331Y-112078071D01*
X111307331Y-112078071D02*
X111378760Y-111935214D01*
X111378760Y-111935214D02*
X111378760Y-111792357D01*
X111378760Y-111792357D02*
X111307331Y-111649500D01*
X111307331Y-111649500D02*
X111235903Y-111578071D01*
X111235903Y-111578071D02*
X111093045Y-111506642D01*
X111093045Y-111506642D02*
X110807331Y-111435214D01*
X110807331Y-111435214D02*
X110664474Y-111363785D01*
X110664474Y-111363785D02*
X110593045Y-111292357D01*
X110593045Y-111292357D02*
X110521617Y-111149500D01*
X110521617Y-111149500D02*
X110521617Y-111006642D01*
X110521617Y-111006642D02*
X110593045Y-110863785D01*
X110593045Y-110863785D02*
X110664474Y-110792357D01*
X110664474Y-110792357D02*
X110807331Y-110720928D01*
X110807331Y-110720928D02*
X111164474Y-110720928D01*
X111164474Y-110720928D02*
X111378760Y-110792357D01*
X113164473Y-112220928D02*
X113164473Y-110720928D01*
X113164473Y-111435214D02*
X114021616Y-111435214D01*
X114021616Y-112220928D02*
X114021616Y-110720928D01*
X114735902Y-110720928D02*
X114735902Y-111935214D01*
X114735902Y-111935214D02*
X114807331Y-112078071D01*
X114807331Y-112078071D02*
X114878760Y-112149500D01*
X114878760Y-112149500D02*
X115021617Y-112220928D01*
X115021617Y-112220928D02*
X115307331Y-112220928D01*
X115307331Y-112220928D02*
X115450188Y-112149500D01*
X115450188Y-112149500D02*
X115521617Y-112078071D01*
X115521617Y-112078071D02*
X115593045Y-111935214D01*
X115593045Y-111935214D02*
X115593045Y-110720928D01*
X116807331Y-111435214D02*
X117021617Y-111506642D01*
X117021617Y-111506642D02*
X117093046Y-111578071D01*
X117093046Y-111578071D02*
X117164474Y-111720928D01*
X117164474Y-111720928D02*
X117164474Y-111935214D01*
X117164474Y-111935214D02*
X117093046Y-112078071D01*
X117093046Y-112078071D02*
X117021617Y-112149500D01*
X117021617Y-112149500D02*
X116878760Y-112220928D01*
X116878760Y-112220928D02*
X116307331Y-112220928D01*
X116307331Y-112220928D02*
X116307331Y-110720928D01*
X116307331Y-110720928D02*
X116807331Y-110720928D01*
X116807331Y-110720928D02*
X116950189Y-110792357D01*
X116950189Y-110792357D02*
X117021617Y-110863785D01*
X117021617Y-110863785D02*
X117093046Y-111006642D01*
X117093046Y-111006642D02*
X117093046Y-111149500D01*
X117093046Y-111149500D02*
X117021617Y-111292357D01*
X117021617Y-111292357D02*
X116950189Y-111363785D01*
X116950189Y-111363785D02*
X116807331Y-111435214D01*
X116807331Y-111435214D02*
X116307331Y-111435214D01*
D10*
X131438095Y-8954819D02*
X132009523Y-8954819D01*
X131723809Y-9954819D02*
X131723809Y-8954819D01*
X132342857Y-9954819D02*
X132342857Y-8954819D01*
X132342857Y-8954819D02*
X132723809Y-8954819D01*
X132723809Y-8954819D02*
X132819047Y-9002438D01*
X132819047Y-9002438D02*
X132866666Y-9050057D01*
X132866666Y-9050057D02*
X132914285Y-9145295D01*
X132914285Y-9145295D02*
X132914285Y-9288152D01*
X132914285Y-9288152D02*
X132866666Y-9383390D01*
X132866666Y-9383390D02*
X132819047Y-9431009D01*
X132819047Y-9431009D02*
X132723809Y-9478628D01*
X132723809Y-9478628D02*
X132342857Y-9478628D01*
X133247619Y-8954819D02*
X133866666Y-8954819D01*
X133866666Y-8954819D02*
X133533333Y-9335771D01*
X133533333Y-9335771D02*
X133676190Y-9335771D01*
X133676190Y-9335771D02*
X133771428Y-9383390D01*
X133771428Y-9383390D02*
X133819047Y-9431009D01*
X133819047Y-9431009D02*
X133866666Y-9526247D01*
X133866666Y-9526247D02*
X133866666Y-9764342D01*
X133866666Y-9764342D02*
X133819047Y-9859580D01*
X133819047Y-9859580D02*
X133771428Y-9907200D01*
X133771428Y-9907200D02*
X133676190Y-9954819D01*
X133676190Y-9954819D02*
X133390476Y-9954819D01*
X133390476Y-9954819D02*
X133295238Y-9907200D01*
X133295238Y-9907200D02*
X133247619Y-9859580D01*
X100824819Y-8706666D02*
X100348628Y-9039999D01*
X100824819Y-9278094D02*
X99824819Y-9278094D01*
X99824819Y-9278094D02*
X99824819Y-8897142D01*
X99824819Y-8897142D02*
X99872438Y-8801904D01*
X99872438Y-8801904D02*
X99920057Y-8754285D01*
X99920057Y-8754285D02*
X100015295Y-8706666D01*
X100015295Y-8706666D02*
X100158152Y-8706666D01*
X100158152Y-8706666D02*
X100253390Y-8754285D01*
X100253390Y-8754285D02*
X100301009Y-8801904D01*
X100301009Y-8801904D02*
X100348628Y-8897142D01*
X100348628Y-8897142D02*
X100348628Y-9278094D01*
X100824819Y-8230475D02*
X100824819Y-8039999D01*
X100824819Y-8039999D02*
X100777200Y-7944761D01*
X100777200Y-7944761D02*
X100729580Y-7897142D01*
X100729580Y-7897142D02*
X100586723Y-7801904D01*
X100586723Y-7801904D02*
X100396247Y-7754285D01*
X100396247Y-7754285D02*
X100015295Y-7754285D01*
X100015295Y-7754285D02*
X99920057Y-7801904D01*
X99920057Y-7801904D02*
X99872438Y-7849523D01*
X99872438Y-7849523D02*
X99824819Y-7944761D01*
X99824819Y-7944761D02*
X99824819Y-8135237D01*
X99824819Y-8135237D02*
X99872438Y-8230475D01*
X99872438Y-8230475D02*
X99920057Y-8278094D01*
X99920057Y-8278094D02*
X100015295Y-8325713D01*
X100015295Y-8325713D02*
X100253390Y-8325713D01*
X100253390Y-8325713D02*
X100348628Y-8278094D01*
X100348628Y-8278094D02*
X100396247Y-8230475D01*
X100396247Y-8230475D02*
X100443866Y-8135237D01*
X100443866Y-8135237D02*
X100443866Y-7944761D01*
X100443866Y-7944761D02*
X100396247Y-7849523D01*
X100396247Y-7849523D02*
X100348628Y-7801904D01*
X100348628Y-7801904D02*
X100253390Y-7754285D01*
X72936666Y-15354819D02*
X72936666Y-16069104D01*
X72936666Y-16069104D02*
X72889047Y-16211961D01*
X72889047Y-16211961D02*
X72793809Y-16307200D01*
X72793809Y-16307200D02*
X72650952Y-16354819D01*
X72650952Y-16354819D02*
X72555714Y-16354819D01*
X73841428Y-15354819D02*
X73650952Y-15354819D01*
X73650952Y-15354819D02*
X73555714Y-15402438D01*
X73555714Y-15402438D02*
X73508095Y-15450057D01*
X73508095Y-15450057D02*
X73412857Y-15592914D01*
X73412857Y-15592914D02*
X73365238Y-15783390D01*
X73365238Y-15783390D02*
X73365238Y-16164342D01*
X73365238Y-16164342D02*
X73412857Y-16259580D01*
X73412857Y-16259580D02*
X73460476Y-16307200D01*
X73460476Y-16307200D02*
X73555714Y-16354819D01*
X73555714Y-16354819D02*
X73746190Y-16354819D01*
X73746190Y-16354819D02*
X73841428Y-16307200D01*
X73841428Y-16307200D02*
X73889047Y-16259580D01*
X73889047Y-16259580D02*
X73936666Y-16164342D01*
X73936666Y-16164342D02*
X73936666Y-15926247D01*
X73936666Y-15926247D02*
X73889047Y-15831009D01*
X73889047Y-15831009D02*
X73841428Y-15783390D01*
X73841428Y-15783390D02*
X73746190Y-15735771D01*
X73746190Y-15735771D02*
X73555714Y-15735771D01*
X73555714Y-15735771D02*
X73460476Y-15783390D01*
X73460476Y-15783390D02*
X73412857Y-15831009D01*
X73412857Y-15831009D02*
X73365238Y-15926247D01*
X74824819Y-8706666D02*
X74348628Y-9039999D01*
X74824819Y-9278094D02*
X73824819Y-9278094D01*
X73824819Y-9278094D02*
X73824819Y-8897142D01*
X73824819Y-8897142D02*
X73872438Y-8801904D01*
X73872438Y-8801904D02*
X73920057Y-8754285D01*
X73920057Y-8754285D02*
X74015295Y-8706666D01*
X74015295Y-8706666D02*
X74158152Y-8706666D01*
X74158152Y-8706666D02*
X74253390Y-8754285D01*
X74253390Y-8754285D02*
X74301009Y-8801904D01*
X74301009Y-8801904D02*
X74348628Y-8897142D01*
X74348628Y-8897142D02*
X74348628Y-9278094D01*
X73824819Y-8373332D02*
X73824819Y-7754285D01*
X73824819Y-7754285D02*
X74205771Y-8087618D01*
X74205771Y-8087618D02*
X74205771Y-7944761D01*
X74205771Y-7944761D02*
X74253390Y-7849523D01*
X74253390Y-7849523D02*
X74301009Y-7801904D01*
X74301009Y-7801904D02*
X74396247Y-7754285D01*
X74396247Y-7754285D02*
X74634342Y-7754285D01*
X74634342Y-7754285D02*
X74729580Y-7801904D01*
X74729580Y-7801904D02*
X74777200Y-7849523D01*
X74777200Y-7849523D02*
X74824819Y-7944761D01*
X74824819Y-7944761D02*
X74824819Y-8230475D01*
X74824819Y-8230475D02*
X74777200Y-8325713D01*
X74777200Y-8325713D02*
X74729580Y-8373332D01*
X3238095Y-304819D02*
X3238095Y695180D01*
X3238095Y218990D02*
X3809523Y218990D01*
X3809523Y-304819D02*
X3809523Y695180D01*
X4809523Y-304819D02*
X4238095Y-304819D01*
X4523809Y-304819D02*
X4523809Y695180D01*
X4523809Y695180D02*
X4428571Y552323D01*
X4428571Y552323D02*
X4333333Y457085D01*
X4333333Y457085D02*
X4238095Y409466D01*
X112824819Y-9182857D02*
X112348628Y-9516190D01*
X112824819Y-9754285D02*
X111824819Y-9754285D01*
X111824819Y-9754285D02*
X111824819Y-9373333D01*
X111824819Y-9373333D02*
X111872438Y-9278095D01*
X111872438Y-9278095D02*
X111920057Y-9230476D01*
X111920057Y-9230476D02*
X112015295Y-9182857D01*
X112015295Y-9182857D02*
X112158152Y-9182857D01*
X112158152Y-9182857D02*
X112253390Y-9230476D01*
X112253390Y-9230476D02*
X112301009Y-9278095D01*
X112301009Y-9278095D02*
X112348628Y-9373333D01*
X112348628Y-9373333D02*
X112348628Y-9754285D01*
X112824819Y-8230476D02*
X112824819Y-8801904D01*
X112824819Y-8516190D02*
X111824819Y-8516190D01*
X111824819Y-8516190D02*
X111967676Y-8611428D01*
X111967676Y-8611428D02*
X112062914Y-8706666D01*
X112062914Y-8706666D02*
X112110533Y-8801904D01*
X111920057Y-7849523D02*
X111872438Y-7801904D01*
X111872438Y-7801904D02*
X111824819Y-7706666D01*
X111824819Y-7706666D02*
X111824819Y-7468571D01*
X111824819Y-7468571D02*
X111872438Y-7373333D01*
X111872438Y-7373333D02*
X111920057Y-7325714D01*
X111920057Y-7325714D02*
X112015295Y-7278095D01*
X112015295Y-7278095D02*
X112110533Y-7278095D01*
X112110533Y-7278095D02*
X112253390Y-7325714D01*
X112253390Y-7325714D02*
X112824819Y-7897142D01*
X112824819Y-7897142D02*
X112824819Y-7278095D01*
X27936666Y-15354819D02*
X27936666Y-16069104D01*
X27936666Y-16069104D02*
X27889047Y-16211961D01*
X27889047Y-16211961D02*
X27793809Y-16307200D01*
X27793809Y-16307200D02*
X27650952Y-16354819D01*
X27650952Y-16354819D02*
X27555714Y-16354819D01*
X28317619Y-15354819D02*
X28936666Y-15354819D01*
X28936666Y-15354819D02*
X28603333Y-15735771D01*
X28603333Y-15735771D02*
X28746190Y-15735771D01*
X28746190Y-15735771D02*
X28841428Y-15783390D01*
X28841428Y-15783390D02*
X28889047Y-15831009D01*
X28889047Y-15831009D02*
X28936666Y-15926247D01*
X28936666Y-15926247D02*
X28936666Y-16164342D01*
X28936666Y-16164342D02*
X28889047Y-16259580D01*
X28889047Y-16259580D02*
X28841428Y-16307200D01*
X28841428Y-16307200D02*
X28746190Y-16354819D01*
X28746190Y-16354819D02*
X28460476Y-16354819D01*
X28460476Y-16354819D02*
X28365238Y-16307200D01*
X28365238Y-16307200D02*
X28317619Y-16259580D01*
X119438095Y-14954819D02*
X120009523Y-14954819D01*
X119723809Y-15954819D02*
X119723809Y-14954819D01*
X120342857Y-15954819D02*
X120342857Y-14954819D01*
X120342857Y-14954819D02*
X120723809Y-14954819D01*
X120723809Y-14954819D02*
X120819047Y-15002438D01*
X120819047Y-15002438D02*
X120866666Y-15050057D01*
X120866666Y-15050057D02*
X120914285Y-15145295D01*
X120914285Y-15145295D02*
X120914285Y-15288152D01*
X120914285Y-15288152D02*
X120866666Y-15383390D01*
X120866666Y-15383390D02*
X120819047Y-15431009D01*
X120819047Y-15431009D02*
X120723809Y-15478628D01*
X120723809Y-15478628D02*
X120342857Y-15478628D01*
X121771428Y-15288152D02*
X121771428Y-15954819D01*
X121533333Y-14907200D02*
X121295238Y-15621485D01*
X121295238Y-15621485D02*
X121914285Y-15621485D01*
X9684819Y-7573333D02*
X10399104Y-7573333D01*
X10399104Y-7573333D02*
X10541961Y-7620952D01*
X10541961Y-7620952D02*
X10637200Y-7716190D01*
X10637200Y-7716190D02*
X10684819Y-7859047D01*
X10684819Y-7859047D02*
X10684819Y-7954285D01*
X10684819Y-6573333D02*
X10684819Y-7144761D01*
X10684819Y-6859047D02*
X9684819Y-6859047D01*
X9684819Y-6859047D02*
X9827676Y-6954285D01*
X9827676Y-6954285D02*
X9922914Y-7049523D01*
X9922914Y-7049523D02*
X9970533Y-7144761D01*
X108824819Y-9182857D02*
X108348628Y-9516190D01*
X108824819Y-9754285D02*
X107824819Y-9754285D01*
X107824819Y-9754285D02*
X107824819Y-9373333D01*
X107824819Y-9373333D02*
X107872438Y-9278095D01*
X107872438Y-9278095D02*
X107920057Y-9230476D01*
X107920057Y-9230476D02*
X108015295Y-9182857D01*
X108015295Y-9182857D02*
X108158152Y-9182857D01*
X108158152Y-9182857D02*
X108253390Y-9230476D01*
X108253390Y-9230476D02*
X108301009Y-9278095D01*
X108301009Y-9278095D02*
X108348628Y-9373333D01*
X108348628Y-9373333D02*
X108348628Y-9754285D01*
X108824819Y-8230476D02*
X108824819Y-8801904D01*
X108824819Y-8516190D02*
X107824819Y-8516190D01*
X107824819Y-8516190D02*
X107967676Y-8611428D01*
X107967676Y-8611428D02*
X108062914Y-8706666D01*
X108062914Y-8706666D02*
X108110533Y-8801904D01*
X108824819Y-7278095D02*
X108824819Y-7849523D01*
X108824819Y-7563809D02*
X107824819Y-7563809D01*
X107824819Y-7563809D02*
X107967676Y-7659047D01*
X107967676Y-7659047D02*
X108062914Y-7754285D01*
X108062914Y-7754285D02*
X108110533Y-7849523D01*
X125438095Y-8954819D02*
X126009523Y-8954819D01*
X125723809Y-9954819D02*
X125723809Y-8954819D01*
X126342857Y-9954819D02*
X126342857Y-8954819D01*
X126342857Y-8954819D02*
X126723809Y-8954819D01*
X126723809Y-8954819D02*
X126819047Y-9002438D01*
X126819047Y-9002438D02*
X126866666Y-9050057D01*
X126866666Y-9050057D02*
X126914285Y-9145295D01*
X126914285Y-9145295D02*
X126914285Y-9288152D01*
X126914285Y-9288152D02*
X126866666Y-9383390D01*
X126866666Y-9383390D02*
X126819047Y-9431009D01*
X126819047Y-9431009D02*
X126723809Y-9478628D01*
X126723809Y-9478628D02*
X126342857Y-9478628D01*
X127295238Y-9050057D02*
X127342857Y-9002438D01*
X127342857Y-9002438D02*
X127438095Y-8954819D01*
X127438095Y-8954819D02*
X127676190Y-8954819D01*
X127676190Y-8954819D02*
X127771428Y-9002438D01*
X127771428Y-9002438D02*
X127819047Y-9050057D01*
X127819047Y-9050057D02*
X127866666Y-9145295D01*
X127866666Y-9145295D02*
X127866666Y-9240533D01*
X127866666Y-9240533D02*
X127819047Y-9383390D01*
X127819047Y-9383390D02*
X127247619Y-9954819D01*
X127247619Y-9954819D02*
X127866666Y-9954819D01*
X102936666Y-15354819D02*
X102936666Y-16069104D01*
X102936666Y-16069104D02*
X102889047Y-16211961D01*
X102889047Y-16211961D02*
X102793809Y-16307200D01*
X102793809Y-16307200D02*
X102650952Y-16354819D01*
X102650952Y-16354819D02*
X102555714Y-16354819D01*
X103555714Y-15783390D02*
X103460476Y-15735771D01*
X103460476Y-15735771D02*
X103412857Y-15688152D01*
X103412857Y-15688152D02*
X103365238Y-15592914D01*
X103365238Y-15592914D02*
X103365238Y-15545295D01*
X103365238Y-15545295D02*
X103412857Y-15450057D01*
X103412857Y-15450057D02*
X103460476Y-15402438D01*
X103460476Y-15402438D02*
X103555714Y-15354819D01*
X103555714Y-15354819D02*
X103746190Y-15354819D01*
X103746190Y-15354819D02*
X103841428Y-15402438D01*
X103841428Y-15402438D02*
X103889047Y-15450057D01*
X103889047Y-15450057D02*
X103936666Y-15545295D01*
X103936666Y-15545295D02*
X103936666Y-15592914D01*
X103936666Y-15592914D02*
X103889047Y-15688152D01*
X103889047Y-15688152D02*
X103841428Y-15735771D01*
X103841428Y-15735771D02*
X103746190Y-15783390D01*
X103746190Y-15783390D02*
X103555714Y-15783390D01*
X103555714Y-15783390D02*
X103460476Y-15831009D01*
X103460476Y-15831009D02*
X103412857Y-15878628D01*
X103412857Y-15878628D02*
X103365238Y-15973866D01*
X103365238Y-15973866D02*
X103365238Y-16164342D01*
X103365238Y-16164342D02*
X103412857Y-16259580D01*
X103412857Y-16259580D02*
X103460476Y-16307200D01*
X103460476Y-16307200D02*
X103555714Y-16354819D01*
X103555714Y-16354819D02*
X103746190Y-16354819D01*
X103746190Y-16354819D02*
X103841428Y-16307200D01*
X103841428Y-16307200D02*
X103889047Y-16259580D01*
X103889047Y-16259580D02*
X103936666Y-16164342D01*
X103936666Y-16164342D02*
X103936666Y-15973866D01*
X103936666Y-15973866D02*
X103889047Y-15878628D01*
X103889047Y-15878628D02*
X103841428Y-15831009D01*
X103841428Y-15831009D02*
X103746190Y-15783390D01*
X119438095Y-8954819D02*
X120009523Y-8954819D01*
X119723809Y-9954819D02*
X119723809Y-8954819D01*
X120342857Y-9954819D02*
X120342857Y-8954819D01*
X120342857Y-8954819D02*
X120723809Y-8954819D01*
X120723809Y-8954819D02*
X120819047Y-9002438D01*
X120819047Y-9002438D02*
X120866666Y-9050057D01*
X120866666Y-9050057D02*
X120914285Y-9145295D01*
X120914285Y-9145295D02*
X120914285Y-9288152D01*
X120914285Y-9288152D02*
X120866666Y-9383390D01*
X120866666Y-9383390D02*
X120819047Y-9431009D01*
X120819047Y-9431009D02*
X120723809Y-9478628D01*
X120723809Y-9478628D02*
X120342857Y-9478628D01*
X121866666Y-9954819D02*
X121295238Y-9954819D01*
X121580952Y-9954819D02*
X121580952Y-8954819D01*
X121580952Y-8954819D02*
X121485714Y-9097676D01*
X121485714Y-9097676D02*
X121390476Y-9192914D01*
X121390476Y-9192914D02*
X121295238Y-9240533D01*
X57936666Y-15354819D02*
X57936666Y-16069104D01*
X57936666Y-16069104D02*
X57889047Y-16211961D01*
X57889047Y-16211961D02*
X57793809Y-16307200D01*
X57793809Y-16307200D02*
X57650952Y-16354819D01*
X57650952Y-16354819D02*
X57555714Y-16354819D01*
X58889047Y-15354819D02*
X58412857Y-15354819D01*
X58412857Y-15354819D02*
X58365238Y-15831009D01*
X58365238Y-15831009D02*
X58412857Y-15783390D01*
X58412857Y-15783390D02*
X58508095Y-15735771D01*
X58508095Y-15735771D02*
X58746190Y-15735771D01*
X58746190Y-15735771D02*
X58841428Y-15783390D01*
X58841428Y-15783390D02*
X58889047Y-15831009D01*
X58889047Y-15831009D02*
X58936666Y-15926247D01*
X58936666Y-15926247D02*
X58936666Y-16164342D01*
X58936666Y-16164342D02*
X58889047Y-16259580D01*
X58889047Y-16259580D02*
X58841428Y-16307200D01*
X58841428Y-16307200D02*
X58746190Y-16354819D01*
X58746190Y-16354819D02*
X58508095Y-16354819D01*
X58508095Y-16354819D02*
X58412857Y-16307200D01*
X58412857Y-16307200D02*
X58365238Y-16259580D01*
X82824819Y-8706666D02*
X82348628Y-9039999D01*
X82824819Y-9278094D02*
X81824819Y-9278094D01*
X81824819Y-9278094D02*
X81824819Y-8897142D01*
X81824819Y-8897142D02*
X81872438Y-8801904D01*
X81872438Y-8801904D02*
X81920057Y-8754285D01*
X81920057Y-8754285D02*
X82015295Y-8706666D01*
X82015295Y-8706666D02*
X82158152Y-8706666D01*
X82158152Y-8706666D02*
X82253390Y-8754285D01*
X82253390Y-8754285D02*
X82301009Y-8801904D01*
X82301009Y-8801904D02*
X82348628Y-8897142D01*
X82348628Y-8897142D02*
X82348628Y-9278094D01*
X81824819Y-7801904D02*
X81824819Y-8278094D01*
X81824819Y-8278094D02*
X82301009Y-8325713D01*
X82301009Y-8325713D02*
X82253390Y-8278094D01*
X82253390Y-8278094D02*
X82205771Y-8182856D01*
X82205771Y-8182856D02*
X82205771Y-7944761D01*
X82205771Y-7944761D02*
X82253390Y-7849523D01*
X82253390Y-7849523D02*
X82301009Y-7801904D01*
X82301009Y-7801904D02*
X82396247Y-7754285D01*
X82396247Y-7754285D02*
X82634342Y-7754285D01*
X82634342Y-7754285D02*
X82729580Y-7801904D01*
X82729580Y-7801904D02*
X82777200Y-7849523D01*
X82777200Y-7849523D02*
X82824819Y-7944761D01*
X82824819Y-7944761D02*
X82824819Y-8182856D01*
X82824819Y-8182856D02*
X82777200Y-8278094D01*
X82777200Y-8278094D02*
X82729580Y-8325713D01*
X42936666Y-15354819D02*
X42936666Y-16069104D01*
X42936666Y-16069104D02*
X42889047Y-16211961D01*
X42889047Y-16211961D02*
X42793809Y-16307200D01*
X42793809Y-16307200D02*
X42650952Y-16354819D01*
X42650952Y-16354819D02*
X42555714Y-16354819D01*
X43841428Y-15688152D02*
X43841428Y-16354819D01*
X43603333Y-15307200D02*
X43365238Y-16021485D01*
X43365238Y-16021485D02*
X43984285Y-16021485D01*
X116824819Y-9182857D02*
X116348628Y-9516190D01*
X116824819Y-9754285D02*
X115824819Y-9754285D01*
X115824819Y-9754285D02*
X115824819Y-9373333D01*
X115824819Y-9373333D02*
X115872438Y-9278095D01*
X115872438Y-9278095D02*
X115920057Y-9230476D01*
X115920057Y-9230476D02*
X116015295Y-9182857D01*
X116015295Y-9182857D02*
X116158152Y-9182857D01*
X116158152Y-9182857D02*
X116253390Y-9230476D01*
X116253390Y-9230476D02*
X116301009Y-9278095D01*
X116301009Y-9278095D02*
X116348628Y-9373333D01*
X116348628Y-9373333D02*
X116348628Y-9754285D01*
X116824819Y-8230476D02*
X116824819Y-8801904D01*
X116824819Y-8516190D02*
X115824819Y-8516190D01*
X115824819Y-8516190D02*
X115967676Y-8611428D01*
X115967676Y-8611428D02*
X116062914Y-8706666D01*
X116062914Y-8706666D02*
X116110533Y-8801904D01*
X115824819Y-7897142D02*
X115824819Y-7278095D01*
X115824819Y-7278095D02*
X116205771Y-7611428D01*
X116205771Y-7611428D02*
X116205771Y-7468571D01*
X116205771Y-7468571D02*
X116253390Y-7373333D01*
X116253390Y-7373333D02*
X116301009Y-7325714D01*
X116301009Y-7325714D02*
X116396247Y-7278095D01*
X116396247Y-7278095D02*
X116634342Y-7278095D01*
X116634342Y-7278095D02*
X116729580Y-7325714D01*
X116729580Y-7325714D02*
X116777200Y-7373333D01*
X116777200Y-7373333D02*
X116824819Y-7468571D01*
X116824819Y-7468571D02*
X116824819Y-7754285D01*
X116824819Y-7754285D02*
X116777200Y-7849523D01*
X116777200Y-7849523D02*
X116729580Y-7897142D01*
X137238095Y-304819D02*
X137238095Y695180D01*
X137238095Y218990D02*
X137809523Y218990D01*
X137809523Y-304819D02*
X137809523Y695180D01*
X138238095Y599942D02*
X138285714Y647561D01*
X138285714Y647561D02*
X138380952Y695180D01*
X138380952Y695180D02*
X138619047Y695180D01*
X138619047Y695180D02*
X138714285Y647561D01*
X138714285Y647561D02*
X138761904Y599942D01*
X138761904Y599942D02*
X138809523Y504704D01*
X138809523Y504704D02*
X138809523Y409466D01*
X138809523Y409466D02*
X138761904Y266609D01*
X138761904Y266609D02*
X138190476Y-304819D01*
X138190476Y-304819D02*
X138809523Y-304819D01*
X66109580Y-8166666D02*
X66157200Y-8214285D01*
X66157200Y-8214285D02*
X66204819Y-8357142D01*
X66204819Y-8357142D02*
X66204819Y-8452380D01*
X66204819Y-8452380D02*
X66157200Y-8595237D01*
X66157200Y-8595237D02*
X66061961Y-8690475D01*
X66061961Y-8690475D02*
X65966723Y-8738094D01*
X65966723Y-8738094D02*
X65776247Y-8785713D01*
X65776247Y-8785713D02*
X65633390Y-8785713D01*
X65633390Y-8785713D02*
X65442914Y-8738094D01*
X65442914Y-8738094D02*
X65347676Y-8690475D01*
X65347676Y-8690475D02*
X65252438Y-8595237D01*
X65252438Y-8595237D02*
X65204819Y-8452380D01*
X65204819Y-8452380D02*
X65204819Y-8357142D01*
X65204819Y-8357142D02*
X65252438Y-8214285D01*
X65252438Y-8214285D02*
X65300057Y-8166666D01*
X65300057Y-7785713D02*
X65252438Y-7738094D01*
X65252438Y-7738094D02*
X65204819Y-7642856D01*
X65204819Y-7642856D02*
X65204819Y-7404761D01*
X65204819Y-7404761D02*
X65252438Y-7309523D01*
X65252438Y-7309523D02*
X65300057Y-7261904D01*
X65300057Y-7261904D02*
X65395295Y-7214285D01*
X65395295Y-7214285D02*
X65490533Y-7214285D01*
X65490533Y-7214285D02*
X65633390Y-7261904D01*
X65633390Y-7261904D02*
X66204819Y-7833332D01*
X66204819Y-7833332D02*
X66204819Y-7214285D01*
X48824819Y-8706666D02*
X48348628Y-9039999D01*
X48824819Y-9278094D02*
X47824819Y-9278094D01*
X47824819Y-9278094D02*
X47824819Y-8897142D01*
X47824819Y-8897142D02*
X47872438Y-8801904D01*
X47872438Y-8801904D02*
X47920057Y-8754285D01*
X47920057Y-8754285D02*
X48015295Y-8706666D01*
X48015295Y-8706666D02*
X48158152Y-8706666D01*
X48158152Y-8706666D02*
X48253390Y-8754285D01*
X48253390Y-8754285D02*
X48301009Y-8801904D01*
X48301009Y-8801904D02*
X48348628Y-8897142D01*
X48348628Y-8897142D02*
X48348628Y-9278094D01*
X48824819Y-7754285D02*
X48824819Y-8325713D01*
X48824819Y-8039999D02*
X47824819Y-8039999D01*
X47824819Y-8039999D02*
X47967676Y-8135237D01*
X47967676Y-8135237D02*
X48062914Y-8230475D01*
X48062914Y-8230475D02*
X48110533Y-8325713D01*
X92824819Y-8706666D02*
X92348628Y-9039999D01*
X92824819Y-9278094D02*
X91824819Y-9278094D01*
X91824819Y-9278094D02*
X91824819Y-8897142D01*
X91824819Y-8897142D02*
X91872438Y-8801904D01*
X91872438Y-8801904D02*
X91920057Y-8754285D01*
X91920057Y-8754285D02*
X92015295Y-8706666D01*
X92015295Y-8706666D02*
X92158152Y-8706666D01*
X92158152Y-8706666D02*
X92253390Y-8754285D01*
X92253390Y-8754285D02*
X92301009Y-8801904D01*
X92301009Y-8801904D02*
X92348628Y-8897142D01*
X92348628Y-8897142D02*
X92348628Y-9278094D01*
X91824819Y-8373332D02*
X91824819Y-7706666D01*
X91824819Y-7706666D02*
X92824819Y-8135237D01*
X104824819Y-9182857D02*
X104348628Y-9516190D01*
X104824819Y-9754285D02*
X103824819Y-9754285D01*
X103824819Y-9754285D02*
X103824819Y-9373333D01*
X103824819Y-9373333D02*
X103872438Y-9278095D01*
X103872438Y-9278095D02*
X103920057Y-9230476D01*
X103920057Y-9230476D02*
X104015295Y-9182857D01*
X104015295Y-9182857D02*
X104158152Y-9182857D01*
X104158152Y-9182857D02*
X104253390Y-9230476D01*
X104253390Y-9230476D02*
X104301009Y-9278095D01*
X104301009Y-9278095D02*
X104348628Y-9373333D01*
X104348628Y-9373333D02*
X104348628Y-9754285D01*
X104824819Y-8230476D02*
X104824819Y-8801904D01*
X104824819Y-8516190D02*
X103824819Y-8516190D01*
X103824819Y-8516190D02*
X103967676Y-8611428D01*
X103967676Y-8611428D02*
X104062914Y-8706666D01*
X104062914Y-8706666D02*
X104110533Y-8801904D01*
X103824819Y-7611428D02*
X103824819Y-7516190D01*
X103824819Y-7516190D02*
X103872438Y-7420952D01*
X103872438Y-7420952D02*
X103920057Y-7373333D01*
X103920057Y-7373333D02*
X104015295Y-7325714D01*
X104015295Y-7325714D02*
X104205771Y-7278095D01*
X104205771Y-7278095D02*
X104443866Y-7278095D01*
X104443866Y-7278095D02*
X104634342Y-7325714D01*
X104634342Y-7325714D02*
X104729580Y-7373333D01*
X104729580Y-7373333D02*
X104777200Y-7420952D01*
X104777200Y-7420952D02*
X104824819Y-7516190D01*
X104824819Y-7516190D02*
X104824819Y-7611428D01*
X104824819Y-7611428D02*
X104777200Y-7706666D01*
X104777200Y-7706666D02*
X104729580Y-7754285D01*
X104729580Y-7754285D02*
X104634342Y-7801904D01*
X104634342Y-7801904D02*
X104443866Y-7849523D01*
X104443866Y-7849523D02*
X104205771Y-7849523D01*
X104205771Y-7849523D02*
X104015295Y-7801904D01*
X104015295Y-7801904D02*
X103920057Y-7754285D01*
X103920057Y-7754285D02*
X103872438Y-7706666D01*
X103872438Y-7706666D02*
X103824819Y-7611428D01*
X59859580Y-7416666D02*
X59907200Y-7464285D01*
X59907200Y-7464285D02*
X59954819Y-7607142D01*
X59954819Y-7607142D02*
X59954819Y-7702380D01*
X59954819Y-7702380D02*
X59907200Y-7845237D01*
X59907200Y-7845237D02*
X59811961Y-7940475D01*
X59811961Y-7940475D02*
X59716723Y-7988094D01*
X59716723Y-7988094D02*
X59526247Y-8035713D01*
X59526247Y-8035713D02*
X59383390Y-8035713D01*
X59383390Y-8035713D02*
X59192914Y-7988094D01*
X59192914Y-7988094D02*
X59097676Y-7940475D01*
X59097676Y-7940475D02*
X59002438Y-7845237D01*
X59002438Y-7845237D02*
X58954819Y-7702380D01*
X58954819Y-7702380D02*
X58954819Y-7607142D01*
X58954819Y-7607142D02*
X59002438Y-7464285D01*
X59002438Y-7464285D02*
X59050057Y-7416666D01*
X59954819Y-6464285D02*
X59954819Y-7035713D01*
X59954819Y-6749999D02*
X58954819Y-6749999D01*
X58954819Y-6749999D02*
X59097676Y-6845237D01*
X59097676Y-6845237D02*
X59192914Y-6940475D01*
X59192914Y-6940475D02*
X59240533Y-7035713D01*
X78824819Y-8706666D02*
X78348628Y-9039999D01*
X78824819Y-9278094D02*
X77824819Y-9278094D01*
X77824819Y-9278094D02*
X77824819Y-8897142D01*
X77824819Y-8897142D02*
X77872438Y-8801904D01*
X77872438Y-8801904D02*
X77920057Y-8754285D01*
X77920057Y-8754285D02*
X78015295Y-8706666D01*
X78015295Y-8706666D02*
X78158152Y-8706666D01*
X78158152Y-8706666D02*
X78253390Y-8754285D01*
X78253390Y-8754285D02*
X78301009Y-8801904D01*
X78301009Y-8801904D02*
X78348628Y-8897142D01*
X78348628Y-8897142D02*
X78348628Y-9278094D01*
X78158152Y-7849523D02*
X78824819Y-7849523D01*
X77777200Y-8087618D02*
X78491485Y-8325713D01*
X78491485Y-8325713D02*
X78491485Y-7706666D01*
X117936666Y-15354819D02*
X117936666Y-16069104D01*
X117936666Y-16069104D02*
X117889047Y-16211961D01*
X117889047Y-16211961D02*
X117793809Y-16307200D01*
X117793809Y-16307200D02*
X117650952Y-16354819D01*
X117650952Y-16354819D02*
X117555714Y-16354819D01*
X118460476Y-16354819D02*
X118650952Y-16354819D01*
X118650952Y-16354819D02*
X118746190Y-16307200D01*
X118746190Y-16307200D02*
X118793809Y-16259580D01*
X118793809Y-16259580D02*
X118889047Y-16116723D01*
X118889047Y-16116723D02*
X118936666Y-15926247D01*
X118936666Y-15926247D02*
X118936666Y-15545295D01*
X118936666Y-15545295D02*
X118889047Y-15450057D01*
X118889047Y-15450057D02*
X118841428Y-15402438D01*
X118841428Y-15402438D02*
X118746190Y-15354819D01*
X118746190Y-15354819D02*
X118555714Y-15354819D01*
X118555714Y-15354819D02*
X118460476Y-15402438D01*
X118460476Y-15402438D02*
X118412857Y-15450057D01*
X118412857Y-15450057D02*
X118365238Y-15545295D01*
X118365238Y-15545295D02*
X118365238Y-15783390D01*
X118365238Y-15783390D02*
X118412857Y-15878628D01*
X118412857Y-15878628D02*
X118460476Y-15926247D01*
X118460476Y-15926247D02*
X118555714Y-15973866D01*
X118555714Y-15973866D02*
X118746190Y-15973866D01*
X118746190Y-15973866D02*
X118841428Y-15926247D01*
X118841428Y-15926247D02*
X118889047Y-15878628D01*
X118889047Y-15878628D02*
X118936666Y-15783390D01*
X36206666Y-5391009D02*
X35873333Y-5391009D01*
X35873333Y-5914819D02*
X35873333Y-4914819D01*
X35873333Y-4914819D02*
X36349523Y-4914819D01*
X37254285Y-5914819D02*
X36682857Y-5914819D01*
X36968571Y-5914819D02*
X36968571Y-4914819D01*
X36968571Y-4914819D02*
X36873333Y-5057676D01*
X36873333Y-5057676D02*
X36778095Y-5152914D01*
X36778095Y-5152914D02*
X36682857Y-5200533D01*
X47494819Y-7468094D02*
X46494819Y-7468094D01*
X46494819Y-7468094D02*
X46494819Y-7229999D01*
X46494819Y-7229999D02*
X46542438Y-7087142D01*
X46542438Y-7087142D02*
X46637676Y-6991904D01*
X46637676Y-6991904D02*
X46732914Y-6944285D01*
X46732914Y-6944285D02*
X46923390Y-6896666D01*
X46923390Y-6896666D02*
X47066247Y-6896666D01*
X47066247Y-6896666D02*
X47256723Y-6944285D01*
X47256723Y-6944285D02*
X47351961Y-6991904D01*
X47351961Y-6991904D02*
X47447200Y-7087142D01*
X47447200Y-7087142D02*
X47494819Y-7229999D01*
X47494819Y-7229999D02*
X47494819Y-7468094D01*
X47494819Y-5944285D02*
X47494819Y-6515713D01*
X47494819Y-6229999D02*
X46494819Y-6229999D01*
X46494819Y-6229999D02*
X46637676Y-6325237D01*
X46637676Y-6325237D02*
X46732914Y-6420475D01*
X46732914Y-6420475D02*
X46780533Y-6515713D01*
X131438095Y-14954819D02*
X132009523Y-14954819D01*
X131723809Y-15954819D02*
X131723809Y-14954819D01*
X132342857Y-15954819D02*
X132342857Y-14954819D01*
X132342857Y-14954819D02*
X132723809Y-14954819D01*
X132723809Y-14954819D02*
X132819047Y-15002438D01*
X132819047Y-15002438D02*
X132866666Y-15050057D01*
X132866666Y-15050057D02*
X132914285Y-15145295D01*
X132914285Y-15145295D02*
X132914285Y-15288152D01*
X132914285Y-15288152D02*
X132866666Y-15383390D01*
X132866666Y-15383390D02*
X132819047Y-15431009D01*
X132819047Y-15431009D02*
X132723809Y-15478628D01*
X132723809Y-15478628D02*
X132342857Y-15478628D01*
X133771428Y-14954819D02*
X133580952Y-14954819D01*
X133580952Y-14954819D02*
X133485714Y-15002438D01*
X133485714Y-15002438D02*
X133438095Y-15050057D01*
X133438095Y-15050057D02*
X133342857Y-15192914D01*
X133342857Y-15192914D02*
X133295238Y-15383390D01*
X133295238Y-15383390D02*
X133295238Y-15764342D01*
X133295238Y-15764342D02*
X133342857Y-15859580D01*
X133342857Y-15859580D02*
X133390476Y-15907200D01*
X133390476Y-15907200D02*
X133485714Y-15954819D01*
X133485714Y-15954819D02*
X133676190Y-15954819D01*
X133676190Y-15954819D02*
X133771428Y-15907200D01*
X133771428Y-15907200D02*
X133819047Y-15859580D01*
X133819047Y-15859580D02*
X133866666Y-15764342D01*
X133866666Y-15764342D02*
X133866666Y-15526247D01*
X133866666Y-15526247D02*
X133819047Y-15431009D01*
X133819047Y-15431009D02*
X133771428Y-15383390D01*
X133771428Y-15383390D02*
X133676190Y-15335771D01*
X133676190Y-15335771D02*
X133485714Y-15335771D01*
X133485714Y-15335771D02*
X133390476Y-15383390D01*
X133390476Y-15383390D02*
X133342857Y-15431009D01*
X133342857Y-15431009D02*
X133295238Y-15526247D01*
X96824819Y-8706666D02*
X96348628Y-9039999D01*
X96824819Y-9278094D02*
X95824819Y-9278094D01*
X95824819Y-9278094D02*
X95824819Y-8897142D01*
X95824819Y-8897142D02*
X95872438Y-8801904D01*
X95872438Y-8801904D02*
X95920057Y-8754285D01*
X95920057Y-8754285D02*
X96015295Y-8706666D01*
X96015295Y-8706666D02*
X96158152Y-8706666D01*
X96158152Y-8706666D02*
X96253390Y-8754285D01*
X96253390Y-8754285D02*
X96301009Y-8801904D01*
X96301009Y-8801904D02*
X96348628Y-8897142D01*
X96348628Y-8897142D02*
X96348628Y-9278094D01*
X96253390Y-8135237D02*
X96205771Y-8230475D01*
X96205771Y-8230475D02*
X96158152Y-8278094D01*
X96158152Y-8278094D02*
X96062914Y-8325713D01*
X96062914Y-8325713D02*
X96015295Y-8325713D01*
X96015295Y-8325713D02*
X95920057Y-8278094D01*
X95920057Y-8278094D02*
X95872438Y-8230475D01*
X95872438Y-8230475D02*
X95824819Y-8135237D01*
X95824819Y-8135237D02*
X95824819Y-7944761D01*
X95824819Y-7944761D02*
X95872438Y-7849523D01*
X95872438Y-7849523D02*
X95920057Y-7801904D01*
X95920057Y-7801904D02*
X96015295Y-7754285D01*
X96015295Y-7754285D02*
X96062914Y-7754285D01*
X96062914Y-7754285D02*
X96158152Y-7801904D01*
X96158152Y-7801904D02*
X96205771Y-7849523D01*
X96205771Y-7849523D02*
X96253390Y-7944761D01*
X96253390Y-7944761D02*
X96253390Y-8135237D01*
X96253390Y-8135237D02*
X96301009Y-8230475D01*
X96301009Y-8230475D02*
X96348628Y-8278094D01*
X96348628Y-8278094D02*
X96443866Y-8325713D01*
X96443866Y-8325713D02*
X96634342Y-8325713D01*
X96634342Y-8325713D02*
X96729580Y-8278094D01*
X96729580Y-8278094D02*
X96777200Y-8230475D01*
X96777200Y-8230475D02*
X96824819Y-8135237D01*
X96824819Y-8135237D02*
X96824819Y-7944761D01*
X96824819Y-7944761D02*
X96777200Y-7849523D01*
X96777200Y-7849523D02*
X96729580Y-7801904D01*
X96729580Y-7801904D02*
X96634342Y-7754285D01*
X96634342Y-7754285D02*
X96443866Y-7754285D01*
X96443866Y-7754285D02*
X96348628Y-7801904D01*
X96348628Y-7801904D02*
X96301009Y-7849523D01*
X96301009Y-7849523D02*
X96253390Y-7944761D01*
X125438095Y-14954819D02*
X126009523Y-14954819D01*
X125723809Y-15954819D02*
X125723809Y-14954819D01*
X126342857Y-15954819D02*
X126342857Y-14954819D01*
X126342857Y-14954819D02*
X126723809Y-14954819D01*
X126723809Y-14954819D02*
X126819047Y-15002438D01*
X126819047Y-15002438D02*
X126866666Y-15050057D01*
X126866666Y-15050057D02*
X126914285Y-15145295D01*
X126914285Y-15145295D02*
X126914285Y-15288152D01*
X126914285Y-15288152D02*
X126866666Y-15383390D01*
X126866666Y-15383390D02*
X126819047Y-15431009D01*
X126819047Y-15431009D02*
X126723809Y-15478628D01*
X126723809Y-15478628D02*
X126342857Y-15478628D01*
X127819047Y-14954819D02*
X127342857Y-14954819D01*
X127342857Y-14954819D02*
X127295238Y-15431009D01*
X127295238Y-15431009D02*
X127342857Y-15383390D01*
X127342857Y-15383390D02*
X127438095Y-15335771D01*
X127438095Y-15335771D02*
X127676190Y-15335771D01*
X127676190Y-15335771D02*
X127771428Y-15383390D01*
X127771428Y-15383390D02*
X127819047Y-15431009D01*
X127819047Y-15431009D02*
X127866666Y-15526247D01*
X127866666Y-15526247D02*
X127866666Y-15764342D01*
X127866666Y-15764342D02*
X127819047Y-15859580D01*
X127819047Y-15859580D02*
X127771428Y-15907200D01*
X127771428Y-15907200D02*
X127676190Y-15954819D01*
X127676190Y-15954819D02*
X127438095Y-15954819D01*
X127438095Y-15954819D02*
X127342857Y-15907200D01*
X127342857Y-15907200D02*
X127295238Y-15859580D01*
X12936666Y-15354819D02*
X12936666Y-16069104D01*
X12936666Y-16069104D02*
X12889047Y-16211961D01*
X12889047Y-16211961D02*
X12793809Y-16307200D01*
X12793809Y-16307200D02*
X12650952Y-16354819D01*
X12650952Y-16354819D02*
X12555714Y-16354819D01*
X13365238Y-15450057D02*
X13412857Y-15402438D01*
X13412857Y-15402438D02*
X13508095Y-15354819D01*
X13508095Y-15354819D02*
X13746190Y-15354819D01*
X13746190Y-15354819D02*
X13841428Y-15402438D01*
X13841428Y-15402438D02*
X13889047Y-15450057D01*
X13889047Y-15450057D02*
X13936666Y-15545295D01*
X13936666Y-15545295D02*
X13936666Y-15640533D01*
X13936666Y-15640533D02*
X13889047Y-15783390D01*
X13889047Y-15783390D02*
X13317619Y-16354819D01*
X13317619Y-16354819D02*
X13936666Y-16354819D01*
X88824819Y-8706666D02*
X88348628Y-9039999D01*
X88824819Y-9278094D02*
X87824819Y-9278094D01*
X87824819Y-9278094D02*
X87824819Y-8897142D01*
X87824819Y-8897142D02*
X87872438Y-8801904D01*
X87872438Y-8801904D02*
X87920057Y-8754285D01*
X87920057Y-8754285D02*
X88015295Y-8706666D01*
X88015295Y-8706666D02*
X88158152Y-8706666D01*
X88158152Y-8706666D02*
X88253390Y-8754285D01*
X88253390Y-8754285D02*
X88301009Y-8801904D01*
X88301009Y-8801904D02*
X88348628Y-8897142D01*
X88348628Y-8897142D02*
X88348628Y-9278094D01*
X87824819Y-7849523D02*
X87824819Y-8039999D01*
X87824819Y-8039999D02*
X87872438Y-8135237D01*
X87872438Y-8135237D02*
X87920057Y-8182856D01*
X87920057Y-8182856D02*
X88062914Y-8278094D01*
X88062914Y-8278094D02*
X88253390Y-8325713D01*
X88253390Y-8325713D02*
X88634342Y-8325713D01*
X88634342Y-8325713D02*
X88729580Y-8278094D01*
X88729580Y-8278094D02*
X88777200Y-8230475D01*
X88777200Y-8230475D02*
X88824819Y-8135237D01*
X88824819Y-8135237D02*
X88824819Y-7944761D01*
X88824819Y-7944761D02*
X88777200Y-7849523D01*
X88777200Y-7849523D02*
X88729580Y-7801904D01*
X88729580Y-7801904D02*
X88634342Y-7754285D01*
X88634342Y-7754285D02*
X88396247Y-7754285D01*
X88396247Y-7754285D02*
X88301009Y-7801904D01*
X88301009Y-7801904D02*
X88253390Y-7849523D01*
X88253390Y-7849523D02*
X88205771Y-7944761D01*
X88205771Y-7944761D02*
X88205771Y-8135237D01*
X88205771Y-8135237D02*
X88253390Y-8230475D01*
X88253390Y-8230475D02*
X88301009Y-8278094D01*
X88301009Y-8278094D02*
X88396247Y-8325713D01*
X87936666Y-15354819D02*
X87936666Y-16069104D01*
X87936666Y-16069104D02*
X87889047Y-16211961D01*
X87889047Y-16211961D02*
X87793809Y-16307200D01*
X87793809Y-16307200D02*
X87650952Y-16354819D01*
X87650952Y-16354819D02*
X87555714Y-16354819D01*
X88317619Y-15354819D02*
X88984285Y-15354819D01*
X88984285Y-15354819D02*
X88555714Y-16354819D01*
X3238095Y-107044819D02*
X3238095Y-106044819D01*
X3238095Y-106521009D02*
X3809523Y-106521009D01*
X3809523Y-107044819D02*
X3809523Y-106044819D01*
X4190476Y-106044819D02*
X4809523Y-106044819D01*
X4809523Y-106044819D02*
X4476190Y-106425771D01*
X4476190Y-106425771D02*
X4619047Y-106425771D01*
X4619047Y-106425771D02*
X4714285Y-106473390D01*
X4714285Y-106473390D02*
X4761904Y-106521009D01*
X4761904Y-106521009D02*
X4809523Y-106616247D01*
X4809523Y-106616247D02*
X4809523Y-106854342D01*
X4809523Y-106854342D02*
X4761904Y-106949580D01*
X4761904Y-106949580D02*
X4714285Y-106997200D01*
X4714285Y-106997200D02*
X4619047Y-107044819D01*
X4619047Y-107044819D02*
X4333333Y-107044819D01*
X4333333Y-107044819D02*
X4238095Y-106997200D01*
X4238095Y-106997200D02*
X4190476Y-106949580D01*
X137238095Y-107044819D02*
X137238095Y-106044819D01*
X137238095Y-106521009D02*
X137809523Y-106521009D01*
X137809523Y-107044819D02*
X137809523Y-106044819D01*
X138714285Y-106378152D02*
X138714285Y-107044819D01*
X138476190Y-105997200D02*
X138238095Y-106711485D01*
X138238095Y-106711485D02*
X138857142Y-106711485D01*
X70824819Y-8706666D02*
X70348628Y-9039999D01*
X70824819Y-9278094D02*
X69824819Y-9278094D01*
X69824819Y-9278094D02*
X69824819Y-8897142D01*
X69824819Y-8897142D02*
X69872438Y-8801904D01*
X69872438Y-8801904D02*
X69920057Y-8754285D01*
X69920057Y-8754285D02*
X70015295Y-8706666D01*
X70015295Y-8706666D02*
X70158152Y-8706666D01*
X70158152Y-8706666D02*
X70253390Y-8754285D01*
X70253390Y-8754285D02*
X70301009Y-8801904D01*
X70301009Y-8801904D02*
X70348628Y-8897142D01*
X70348628Y-8897142D02*
X70348628Y-9278094D01*
X69920057Y-8325713D02*
X69872438Y-8278094D01*
X69872438Y-8278094D02*
X69824819Y-8182856D01*
X69824819Y-8182856D02*
X69824819Y-7944761D01*
X69824819Y-7944761D02*
X69872438Y-7849523D01*
X69872438Y-7849523D02*
X69920057Y-7801904D01*
X69920057Y-7801904D02*
X70015295Y-7754285D01*
X70015295Y-7754285D02*
X70110533Y-7754285D01*
X70110533Y-7754285D02*
X70253390Y-7801904D01*
X70253390Y-7801904D02*
X70824819Y-8373332D01*
X70824819Y-8373332D02*
X70824819Y-7754285D01*
%TO.C,TP3*%
D12*
X133500000Y-7000000D02*
G75*
G02*
X130500000Y-7000000I-1500000J0D01*
G01*
X130500000Y-7000000D02*
G75*
G02*
X133500000Y-7000000I1500000J0D01*
G01*
%TO.C,R9*%
X98000000Y-7370000D02*
X98000000Y-9980000D01*
X99370000Y-6000000D02*
G75*
G02*
X96630000Y-6000000I-1370000J0D01*
G01*
X96630000Y-6000000D02*
G75*
G02*
X99370000Y-6000000I1370000J0D01*
G01*
%TO.C,J6*%
X67320000Y-21500000D02*
X67320000Y-22500000D01*
X67320000Y-22500000D02*
X68320000Y-22000000D01*
X68320000Y-22000000D02*
X67320000Y-21500000D01*
X68710000Y-16790000D02*
X77830000Y-16790000D01*
X68710000Y-59320000D02*
X70020000Y-59320000D01*
X68710000Y-105950000D02*
X68710000Y-16790000D01*
X70020000Y-18090000D02*
X76520000Y-18090000D01*
X70020000Y-59320000D02*
X70020000Y-18090000D01*
X70020000Y-63420000D02*
X68710000Y-63420000D01*
X70020000Y-104650000D02*
X70020000Y-63420000D01*
X76520000Y-18090000D02*
X76520000Y-104650000D01*
X76520000Y-104650000D02*
X70020000Y-104650000D01*
X77830000Y-16790000D02*
X77830000Y-105950000D01*
X77830000Y-105950000D02*
X68710000Y-105950000D01*
%TO.C,R3*%
X72000000Y-7370000D02*
X72000000Y-9980000D01*
X73370000Y-6000000D02*
G75*
G02*
X70630000Y-6000000I-1370000J0D01*
G01*
X70630000Y-6000000D02*
G75*
G02*
X73370000Y-6000000I1370000J0D01*
G01*
%TO.C,R12*%
X110000000Y-7370000D02*
X110000000Y-9980000D01*
X111370000Y-6000000D02*
G75*
G02*
X108630000Y-6000000I-1370000J0D01*
G01*
X108630000Y-6000000D02*
G75*
G02*
X111370000Y-6000000I1370000J0D01*
G01*
%TO.C,J3*%
X22320000Y-21500000D02*
X22320000Y-22500000D01*
X22320000Y-22500000D02*
X23320000Y-22000000D01*
X23320000Y-22000000D02*
X22320000Y-21500000D01*
X23710000Y-16790000D02*
X32830000Y-16790000D01*
X23710000Y-59320000D02*
X25020000Y-59320000D01*
X23710000Y-105950000D02*
X23710000Y-16790000D01*
X25020000Y-18090000D02*
X31520000Y-18090000D01*
X25020000Y-59320000D02*
X25020000Y-18090000D01*
X25020000Y-63420000D02*
X23710000Y-63420000D01*
X25020000Y-104650000D02*
X25020000Y-63420000D01*
X31520000Y-18090000D02*
X31520000Y-104650000D01*
X31520000Y-104650000D02*
X25020000Y-104650000D01*
X32830000Y-16790000D02*
X32830000Y-105950000D01*
X32830000Y-105950000D02*
X23710000Y-105950000D01*
%TO.C,TP4*%
X121500000Y-13000000D02*
G75*
G02*
X118500000Y-13000000I-1500000J0D01*
G01*
X118500000Y-13000000D02*
G75*
G02*
X121500000Y-13000000I1500000J0D01*
G01*
%TO.C,J1*%
X13090000Y1120000D02*
X25410000Y1120000D01*
X13090000Y-7240000D02*
X13090000Y1120000D01*
X13090000Y-11340000D02*
X13090000Y-15600000D01*
X13090000Y-15600000D02*
X25410000Y-15600000D01*
X17500000Y-16320000D02*
X18500000Y-16320000D01*
X18000000Y-15820000D02*
X17500000Y-16320000D01*
X18500000Y-16320000D02*
X18000000Y-15820000D01*
X25410000Y1120000D02*
X25410000Y-7240000D01*
X25410000Y-15600000D02*
X25410000Y-11340000D01*
%TO.C,R11*%
X106000000Y-7370000D02*
X106000000Y-9980000D01*
X107370000Y-6000000D02*
G75*
G02*
X104630000Y-6000000I-1370000J0D01*
G01*
X104630000Y-6000000D02*
G75*
G02*
X107370000Y-6000000I1370000J0D01*
G01*
%TO.C,TP2*%
X127500000Y-7000000D02*
G75*
G02*
X124500000Y-7000000I-1500000J0D01*
G01*
X124500000Y-7000000D02*
G75*
G02*
X127500000Y-7000000I1500000J0D01*
G01*
%TO.C,J8*%
X97320000Y-21500000D02*
X97320000Y-22500000D01*
X97320000Y-22500000D02*
X98320000Y-22000000D01*
X98320000Y-22000000D02*
X97320000Y-21500000D01*
X98710000Y-16790000D02*
X107830000Y-16790000D01*
X98710000Y-59320000D02*
X100020000Y-59320000D01*
X98710000Y-105950000D02*
X98710000Y-16790000D01*
X100020000Y-18090000D02*
X106520000Y-18090000D01*
X100020000Y-59320000D02*
X100020000Y-18090000D01*
X100020000Y-63420000D02*
X98710000Y-63420000D01*
X100020000Y-104650000D02*
X100020000Y-63420000D01*
X106520000Y-18090000D02*
X106520000Y-104650000D01*
X106520000Y-104650000D02*
X100020000Y-104650000D01*
X107830000Y-16790000D02*
X107830000Y-105950000D01*
X107830000Y-105950000D02*
X98710000Y-105950000D01*
%TO.C,TP1*%
X121500000Y-7000000D02*
G75*
G02*
X118500000Y-7000000I-1500000J0D01*
G01*
X118500000Y-7000000D02*
G75*
G02*
X121500000Y-7000000I1500000J0D01*
G01*
%TO.C,J5*%
X52320000Y-21500000D02*
X52320000Y-22500000D01*
X52320000Y-22500000D02*
X53320000Y-22000000D01*
X53320000Y-22000000D02*
X52320000Y-21500000D01*
X53710000Y-16790000D02*
X62830000Y-16790000D01*
X53710000Y-59320000D02*
X55020000Y-59320000D01*
X53710000Y-105950000D02*
X53710000Y-16790000D01*
X55020000Y-18090000D02*
X61520000Y-18090000D01*
X55020000Y-59320000D02*
X55020000Y-18090000D01*
X55020000Y-63420000D02*
X53710000Y-63420000D01*
X55020000Y-104650000D02*
X55020000Y-63420000D01*
X61520000Y-18090000D02*
X61520000Y-104650000D01*
X61520000Y-104650000D02*
X55020000Y-104650000D01*
X62830000Y-16790000D02*
X62830000Y-105950000D01*
X62830000Y-105950000D02*
X53710000Y-105950000D01*
%TO.C,R5*%
X80000000Y-7370000D02*
X80000000Y-9980000D01*
X81370000Y-6000000D02*
G75*
G02*
X78630000Y-6000000I-1370000J0D01*
G01*
X78630000Y-6000000D02*
G75*
G02*
X81370000Y-6000000I1370000J0D01*
G01*
%TO.C,J4*%
X37320000Y-21500000D02*
X37320000Y-22500000D01*
X37320000Y-22500000D02*
X38320000Y-22000000D01*
X38320000Y-22000000D02*
X37320000Y-21500000D01*
X38710000Y-16790000D02*
X47830000Y-16790000D01*
X38710000Y-59320000D02*
X40020000Y-59320000D01*
X38710000Y-105950000D02*
X38710000Y-16790000D01*
X40020000Y-18090000D02*
X46520000Y-18090000D01*
X40020000Y-59320000D02*
X40020000Y-18090000D01*
X40020000Y-63420000D02*
X38710000Y-63420000D01*
X40020000Y-104650000D02*
X40020000Y-63420000D01*
X46520000Y-18090000D02*
X46520000Y-104650000D01*
X46520000Y-104650000D02*
X40020000Y-104650000D01*
X47830000Y-16790000D02*
X47830000Y-105950000D01*
X47830000Y-105950000D02*
X38710000Y-105950000D01*
%TO.C,R13*%
X114000000Y-7370000D02*
X114000000Y-9980000D01*
X115370000Y-6000000D02*
G75*
G02*
X112630000Y-6000000I-1370000J0D01*
G01*
X112630000Y-6000000D02*
G75*
G02*
X115370000Y-6000000I1370000J0D01*
G01*
%TO.C,C2*%
X60960000Y-8000000D02*
X59420000Y-8000000D01*
X60960000Y-8040000D02*
X59420000Y-8040000D01*
X60960000Y-8080000D02*
X59421000Y-8080000D01*
X60960000Y-8120000D02*
X59423000Y-8120000D01*
X60960000Y-8160000D02*
X59425000Y-8160000D01*
X60960000Y-8200000D02*
X59428000Y-8200000D01*
X60960000Y-8240000D02*
X59431000Y-8240000D01*
X60960000Y-8280000D02*
X59435000Y-8280000D01*
X60960000Y-8320000D02*
X59440000Y-8320000D01*
X60960000Y-8360000D02*
X59445000Y-8360000D01*
X60960000Y-8400000D02*
X59451000Y-8400000D01*
X60960000Y-8440000D02*
X59457000Y-8440000D01*
X60960000Y-8480000D02*
X59464000Y-8480000D01*
X60960000Y-8520000D02*
X59472000Y-8520000D01*
X60960000Y-8560000D02*
X59481000Y-8560000D01*
X60960000Y-8600000D02*
X59490000Y-8600000D01*
X60960000Y-8640000D02*
X59499000Y-8640000D01*
X60960000Y-8680000D02*
X59510000Y-8680000D01*
X60960000Y-8720000D02*
X59521000Y-8720000D01*
X60960000Y-8760000D02*
X59533000Y-8760000D01*
X60960000Y-8800000D02*
X59545000Y-8800000D01*
X60960000Y-8840000D02*
X59558000Y-8840000D01*
X60960000Y-8880000D02*
X59572000Y-8880000D01*
X60960000Y-8920000D02*
X59587000Y-8920000D01*
X60960000Y-8960000D02*
X59602000Y-8960000D01*
X60960000Y-9000000D02*
X59618000Y-9000000D01*
X60960000Y-9040000D02*
X59635000Y-9040000D01*
X60960000Y-9080000D02*
X59653000Y-9080000D01*
X60960000Y-9120000D02*
X59671000Y-9120000D01*
X60960000Y-9160000D02*
X59691000Y-9160000D01*
X60960000Y-9200000D02*
X59711000Y-9200000D01*
X60960000Y-9240000D02*
X59732000Y-9240000D01*
X60960000Y-9280000D02*
X59754000Y-9280000D01*
X60960000Y-9320000D02*
X59777000Y-9320000D01*
X60960000Y-9360000D02*
X59801000Y-9360000D01*
X60960000Y-9400000D02*
X59825000Y-9400000D01*
X60960000Y-9440000D02*
X59851000Y-9440000D01*
X60960000Y-9480000D02*
X59878000Y-9480000D01*
X60960000Y-9520000D02*
X59906000Y-9520000D01*
X60960000Y-9560000D02*
X59935000Y-9560000D01*
X60960000Y-9600000D02*
X59965000Y-9600000D01*
X60960000Y-9640000D02*
X59997000Y-9640000D01*
X60960000Y-9680000D02*
X60030000Y-9680000D01*
X60960000Y-9720000D02*
X60064000Y-9720000D01*
X60960000Y-9760000D02*
X60099000Y-9760000D01*
X60960000Y-9800000D02*
X60136000Y-9800000D01*
X60960000Y-9840000D02*
X60175000Y-9840000D01*
X60960000Y-9880000D02*
X60215000Y-9880000D01*
X60960000Y-9920000D02*
X60257000Y-9920000D01*
X60960000Y-9960000D02*
X60301000Y-9960000D01*
X60960000Y-10000000D02*
X60348000Y-10000000D01*
X62283000Y-10600000D02*
X61717000Y-10600000D01*
X62517000Y-10560000D02*
X61483000Y-10560000D01*
X62677000Y-10520000D02*
X61323000Y-10520000D01*
X62805000Y-10480000D02*
X61195000Y-10480000D01*
X62914000Y-10440000D02*
X61086000Y-10440000D01*
X63011000Y-10400000D02*
X60989000Y-10400000D01*
X63098000Y-10360000D02*
X60902000Y-10360000D01*
X63177000Y-10320000D02*
X60823000Y-10320000D01*
X63251000Y-10280000D02*
X60749000Y-10280000D01*
X63319000Y-10240000D02*
X60681000Y-10240000D01*
X63383000Y-10200000D02*
X60617000Y-10200000D01*
X63443000Y-10160000D02*
X60557000Y-10160000D01*
X63475000Y-5195225D02*
X63475000Y-5695225D01*
X63499000Y-10120000D02*
X60501000Y-10120000D01*
X63553000Y-10080000D02*
X60447000Y-10080000D01*
X63604000Y-10040000D02*
X60396000Y-10040000D01*
X63652000Y-10000000D02*
X63040000Y-10000000D01*
X63699000Y-9960000D02*
X63040000Y-9960000D01*
X63725000Y-5445225D02*
X63225000Y-5445225D01*
X63743000Y-9920000D02*
X63040000Y-9920000D01*
X63785000Y-9880000D02*
X63040000Y-9880000D01*
X63825000Y-9840000D02*
X63040000Y-9840000D01*
X63864000Y-9800000D02*
X63040000Y-9800000D01*
X63901000Y-9760000D02*
X63040000Y-9760000D01*
X63936000Y-9720000D02*
X63040000Y-9720000D01*
X63970000Y-9680000D02*
X63040000Y-9680000D01*
X64003000Y-9640000D02*
X63040000Y-9640000D01*
X64035000Y-9600000D02*
X63040000Y-9600000D01*
X64065000Y-9560000D02*
X63040000Y-9560000D01*
X64094000Y-9520000D02*
X63040000Y-9520000D01*
X64122000Y-9480000D02*
X63040000Y-9480000D01*
X64149000Y-9440000D02*
X63040000Y-9440000D01*
X64175000Y-9400000D02*
X63040000Y-9400000D01*
X64199000Y-9360000D02*
X63040000Y-9360000D01*
X64223000Y-9320000D02*
X63040000Y-9320000D01*
X64246000Y-9280000D02*
X63040000Y-9280000D01*
X64268000Y-9240000D02*
X63040000Y-9240000D01*
X64289000Y-9200000D02*
X63040000Y-9200000D01*
X64309000Y-9160000D02*
X63040000Y-9160000D01*
X64329000Y-9120000D02*
X63040000Y-9120000D01*
X64347000Y-9080000D02*
X63040000Y-9080000D01*
X64365000Y-9040000D02*
X63040000Y-9040000D01*
X64382000Y-9000000D02*
X63040000Y-9000000D01*
X64398000Y-8960000D02*
X63040000Y-8960000D01*
X64413000Y-8920000D02*
X63040000Y-8920000D01*
X64428000Y-8880000D02*
X63040000Y-8880000D01*
X64442000Y-8840000D02*
X63040000Y-8840000D01*
X64455000Y-8800000D02*
X63040000Y-8800000D01*
X64467000Y-8760000D02*
X63040000Y-8760000D01*
X64479000Y-8720000D02*
X63040000Y-8720000D01*
X64490000Y-8680000D02*
X63040000Y-8680000D01*
X64501000Y-8640000D02*
X63040000Y-8640000D01*
X64510000Y-8600000D02*
X63040000Y-8600000D01*
X64519000Y-8560000D02*
X63040000Y-8560000D01*
X64528000Y-8520000D02*
X63040000Y-8520000D01*
X64536000Y-8480000D02*
X63040000Y-8480000D01*
X64543000Y-8440000D02*
X63040000Y-8440000D01*
X64549000Y-8400000D02*
X63040000Y-8400000D01*
X64555000Y-8360000D02*
X63040000Y-8360000D01*
X64560000Y-8320000D02*
X63040000Y-8320000D01*
X64565000Y-8280000D02*
X63040000Y-8280000D01*
X64569000Y-8240000D02*
X63040000Y-8240000D01*
X64572000Y-8200000D02*
X63040000Y-8200000D01*
X64575000Y-8160000D02*
X63040000Y-8160000D01*
X64577000Y-8120000D02*
X63040000Y-8120000D01*
X64579000Y-8080000D02*
X63040000Y-8080000D01*
X64580000Y-8000000D02*
X63040000Y-8000000D01*
X64580000Y-8040000D02*
X63040000Y-8040000D01*
X64620000Y-8000000D02*
G75*
G02*
X59380000Y-8000000I-2620000J0D01*
G01*
X59380000Y-8000000D02*
G75*
G02*
X64620000Y-8000000I2620000J0D01*
G01*
%TO.C,R1*%
X46000000Y-7370000D02*
X46000000Y-9980000D01*
X47370000Y-6000000D02*
G75*
G02*
X44630000Y-6000000I-1370000J0D01*
G01*
X44630000Y-6000000D02*
G75*
G02*
X47370000Y-6000000I1370000J0D01*
G01*
%TO.C,R7*%
X90000000Y-7370000D02*
X90000000Y-9980000D01*
X91370000Y-6000000D02*
G75*
G02*
X88630000Y-6000000I-1370000J0D01*
G01*
X88630000Y-6000000D02*
G75*
G02*
X91370000Y-6000000I1370000J0D01*
G01*
%TO.C,R10*%
X102000000Y-7370000D02*
X102000000Y-9980000D01*
X103370000Y-6000000D02*
G75*
G02*
X100630000Y-6000000I-1370000J0D01*
G01*
X100630000Y-6000000D02*
G75*
G02*
X103370000Y-6000000I1370000J0D01*
G01*
%TO.C,C1*%
X55630000Y-4630000D02*
X58370000Y-4630000D01*
X55630000Y-9870000D02*
X55630000Y-4630000D01*
X58370000Y-4630000D02*
X58370000Y-9870000D01*
X58370000Y-9870000D02*
X55630000Y-9870000D01*
%TO.C,R4*%
X76000000Y-7370000D02*
X76000000Y-9980000D01*
X77370000Y-6000000D02*
G75*
G02*
X74630000Y-6000000I-1370000J0D01*
G01*
X74630000Y-6000000D02*
G75*
G02*
X77370000Y-6000000I1370000J0D01*
G01*
%TO.C,J9*%
X112320000Y-21500000D02*
X112320000Y-22500000D01*
X112320000Y-22500000D02*
X113320000Y-22000000D01*
X113320000Y-22000000D02*
X112320000Y-21500000D01*
X113710000Y-16790000D02*
X122830000Y-16790000D01*
X113710000Y-59320000D02*
X115020000Y-59320000D01*
X113710000Y-105950000D02*
X113710000Y-16790000D01*
X115020000Y-18090000D02*
X121520000Y-18090000D01*
X115020000Y-59320000D02*
X115020000Y-18090000D01*
X115020000Y-63420000D02*
X113710000Y-63420000D01*
X115020000Y-104650000D02*
X115020000Y-63420000D01*
X121520000Y-18090000D02*
X121520000Y-104650000D01*
X121520000Y-104650000D02*
X115020000Y-104650000D01*
X122830000Y-16790000D02*
X122830000Y-105950000D01*
X122830000Y-105950000D02*
X113710000Y-105950000D01*
%TO.C,F1*%
X30650000Y-6400000D02*
X30650000Y-11500000D01*
X30650000Y-6400000D02*
X42450000Y-6400000D01*
X30650000Y-11500000D02*
X42450000Y-11500000D01*
X42450000Y-6400000D02*
X42450000Y-11500000D01*
%TO.C,D1*%
X48764000Y-8290000D02*
X48920000Y-8290000D01*
X51080000Y-8290000D02*
X51236000Y-8290000D01*
X48764484Y-8290000D02*
G75*
G02*
X48920000Y-5058563I1235516J1560000D01*
G01*
X48920000Y-7770961D02*
G75*
G02*
X48920000Y-5689039I1080000J1040961D01*
G01*
X51080000Y-5058563D02*
G75*
G02*
X51235516Y-8290000I-1080000J-1671437D01*
G01*
X51080000Y-5689039D02*
G75*
G02*
X51080000Y-7770961I-1080000J-1040961D01*
G01*
%TO.C,TP6*%
X133500000Y-13000000D02*
G75*
G02*
X130500000Y-13000000I-1500000J0D01*
G01*
X130500000Y-13000000D02*
G75*
G02*
X133500000Y-13000000I1500000J0D01*
G01*
%TO.C,R8*%
X94000000Y-7370000D02*
X94000000Y-9980000D01*
X95370000Y-6000000D02*
G75*
G02*
X92630000Y-6000000I-1370000J0D01*
G01*
X92630000Y-6000000D02*
G75*
G02*
X95370000Y-6000000I1370000J0D01*
G01*
%TO.C,TP5*%
X127500000Y-13000000D02*
G75*
G02*
X124500000Y-13000000I-1500000J0D01*
G01*
X124500000Y-13000000D02*
G75*
G02*
X127500000Y-13000000I1500000J0D01*
G01*
%TO.C,J2*%
X7320000Y-21500000D02*
X7320000Y-22500000D01*
X7320000Y-22500000D02*
X8320000Y-22000000D01*
X8320000Y-22000000D02*
X7320000Y-21500000D01*
X8710000Y-16790000D02*
X17830000Y-16790000D01*
X8710000Y-59320000D02*
X10020000Y-59320000D01*
X8710000Y-105950000D02*
X8710000Y-16790000D01*
X10020000Y-18090000D02*
X16520000Y-18090000D01*
X10020000Y-59320000D02*
X10020000Y-18090000D01*
X10020000Y-63420000D02*
X8710000Y-63420000D01*
X10020000Y-104650000D02*
X10020000Y-63420000D01*
X16520000Y-18090000D02*
X16520000Y-104650000D01*
X16520000Y-104650000D02*
X10020000Y-104650000D01*
X17830000Y-16790000D02*
X17830000Y-105950000D01*
X17830000Y-105950000D02*
X8710000Y-105950000D01*
%TO.C,R6*%
X86000000Y-7370000D02*
X86000000Y-9980000D01*
X87370000Y-6000000D02*
G75*
G02*
X84630000Y-6000000I-1370000J0D01*
G01*
X84630000Y-6000000D02*
G75*
G02*
X87370000Y-6000000I1370000J0D01*
G01*
%TO.C,J7*%
X82320000Y-21500000D02*
X82320000Y-22500000D01*
X82320000Y-22500000D02*
X83320000Y-22000000D01*
X83320000Y-22000000D02*
X82320000Y-21500000D01*
X83710000Y-16790000D02*
X92830000Y-16790000D01*
X83710000Y-59320000D02*
X85020000Y-59320000D01*
X83710000Y-105950000D02*
X83710000Y-16790000D01*
X85020000Y-18090000D02*
X91520000Y-18090000D01*
X85020000Y-59320000D02*
X85020000Y-18090000D01*
X85020000Y-63420000D02*
X83710000Y-63420000D01*
X85020000Y-104650000D02*
X85020000Y-63420000D01*
X91520000Y-18090000D02*
X91520000Y-104650000D01*
X91520000Y-104650000D02*
X85020000Y-104650000D01*
X92830000Y-16790000D02*
X92830000Y-105950000D01*
X92830000Y-105950000D02*
X83710000Y-105950000D01*
%TO.C,R2*%
X68000000Y-7370000D02*
X68000000Y-9980000D01*
X69370000Y-6000000D02*
G75*
G02*
X66630000Y-6000000I-1370000J0D01*
G01*
X66630000Y-6000000D02*
G75*
G02*
X69370000Y-6000000I1370000J0D01*
G01*
%TD*%
M02*
