M48
; DRILL file KiCad 10.0.5 date 2026-09-09T10:50:05
; FORMAT={-:-/ absolute / metric / decimal}
; #@! TF.CreationDate,2026-09-09T10:50:05-04:00
; #@! TF.GenerationSoftware,Kicad,Pcbnew,10.0.5
; #@! TF.FileFunction,MixedPlating,1,2
FMAT,2
METRIC
; #@! TA.AperFunction,Plated,PTH,ViaDrill
T1C0.400
; #@! TA.AperFunction,Plated,PTH,ComponentDrill
T2C0.800
; #@! TA.AperFunction,Plated,PTH,ComponentDrill
T3C0.900
; #@! TA.AperFunction,Plated,PTH,ComponentDrill
T4C0.920
; #@! TA.AperFunction,Plated,PTH,ComponentDrill
T5C1.000
; #@! TA.AperFunction,Plated,PTH,ComponentDrill
T6C1.010
; #@! TA.AperFunction,Plated,PTH,ComponentDrill
T7C2.330
; #@! TA.AperFunction,Plated,PTH,ComponentDrill
T8C3.200
%
G90
G05
T1
X9.47Y-21.504
X46.319Y-24.669
X57.935Y-51.148
T2
X46.0Y-6.0
X46.0Y-11.08
X57.0Y-6.0
X57.0Y-8.5
X62.0Y-7.0
X62.0Y-9.0
X68.0Y-6.0
X68.0Y-11.08
X72.0Y-6.0
X72.0Y-11.08
X76.0Y-6.0
X76.0Y-11.08
X80.0Y-6.0
X80.0Y-11.08
T3
X50.0Y-5.46
X50.0Y-8.0
T4
X18.0Y-12.0
X18.0Y-14.0
X20.5Y-12.0
X20.5Y-14.0
T5
X12.0Y-22.0
X12.0Y-24.54
X12.0Y-27.08
X12.0Y-29.62
X12.0Y-32.16
X12.0Y-34.7
X12.0Y-37.24
X12.0Y-39.78
X12.0Y-42.32
X12.0Y-44.86
X12.0Y-47.4
X12.0Y-49.94
X12.0Y-52.48
X12.0Y-55.02
X12.0Y-57.56
X12.0Y-60.1
X12.0Y-62.64
X12.0Y-65.18
X12.0Y-67.72
X12.0Y-70.26
X12.0Y-72.8
X12.0Y-75.34
X12.0Y-77.88
X12.0Y-80.42
X12.0Y-82.96
X14.54Y-22.0
X14.54Y-24.54
X14.54Y-27.08
X14.54Y-29.62
X14.54Y-32.16
X14.54Y-34.7
X14.54Y-37.24
X14.54Y-39.78
X14.54Y-42.32
X14.54Y-44.86
X14.54Y-47.4
X14.54Y-49.94
X14.54Y-52.48
X14.54Y-55.02
X14.54Y-57.56
X14.54Y-60.1
X14.54Y-62.64
X14.54Y-65.18
X14.54Y-67.72
X14.54Y-70.26
X14.54Y-72.8
X14.54Y-75.34
X14.54Y-77.88
X14.54Y-80.42
X14.54Y-82.96
X27.0Y-22.0
X27.0Y-24.54
X27.0Y-27.08
X27.0Y-29.62
X27.0Y-32.16
X27.0Y-34.7
X27.0Y-37.24
X27.0Y-39.78
X27.0Y-42.32
X27.0Y-44.86
X27.0Y-47.4
X27.0Y-49.94
X27.0Y-52.48
X27.0Y-55.02
X27.0Y-57.56
X27.0Y-60.1
X27.0Y-62.64
X27.0Y-65.18
X27.0Y-67.72
X27.0Y-70.26
X27.0Y-72.8
X27.0Y-75.34
X27.0Y-77.88
X27.0Y-80.42
X27.0Y-82.96
X29.54Y-22.0
X29.54Y-24.54
X29.54Y-27.08
X29.54Y-29.62
X29.54Y-32.16
X29.54Y-34.7
X29.54Y-37.24
X29.54Y-39.78
X29.54Y-42.32
X29.54Y-44.86
X29.54Y-47.4
X29.54Y-49.94
X29.54Y-52.48
X29.54Y-55.02
X29.54Y-57.56
X29.54Y-60.1
X29.54Y-62.64
X29.54Y-65.18
X29.54Y-67.72
X29.54Y-70.26
X29.54Y-72.8
X29.54Y-75.34
X29.54Y-77.88
X29.54Y-80.42
X29.54Y-82.96
X42.0Y-22.0
X42.0Y-24.54
X42.0Y-27.08
X42.0Y-29.62
X42.0Y-32.16
X42.0Y-34.7
X42.0Y-37.24
X42.0Y-39.78
X42.0Y-42.32
X42.0Y-44.86
X42.0Y-47.4
X42.0Y-49.94
X42.0Y-52.48
X42.0Y-55.02
X42.0Y-57.56
X42.0Y-60.1
X42.0Y-62.64
X42.0Y-65.18
X42.0Y-67.72
X42.0Y-70.26
X42.0Y-72.8
X42.0Y-75.34
X42.0Y-77.88
X42.0Y-80.42
X42.0Y-82.96
X44.54Y-22.0
X44.54Y-24.54
X44.54Y-27.08
X44.54Y-29.62
X44.54Y-32.16
X44.54Y-34.7
X44.54Y-37.24
X44.54Y-39.78
X44.54Y-42.32
X44.54Y-44.86
X44.54Y-47.4
X44.54Y-49.94
X44.54Y-52.48
X44.54Y-55.02
X44.54Y-57.56
X44.54Y-60.1
X44.54Y-62.64
X44.54Y-65.18
X44.54Y-67.72
X44.54Y-70.26
X44.54Y-72.8
X44.54Y-75.34
X44.54Y-77.88
X44.54Y-80.42
X44.54Y-82.96
X57.0Y-22.0
X57.0Y-24.54
X57.0Y-27.08
X57.0Y-29.62
X57.0Y-32.16
X57.0Y-34.7
X57.0Y-37.24
X57.0Y-39.78
X57.0Y-42.32
X57.0Y-44.86
X57.0Y-47.4
X57.0Y-49.94
X57.0Y-52.48
X57.0Y-55.02
X57.0Y-57.56
X57.0Y-60.1
X57.0Y-62.64
X57.0Y-65.18
X57.0Y-67.72
X57.0Y-70.26
X57.0Y-72.8
X57.0Y-75.34
X57.0Y-77.88
X57.0Y-80.42
X57.0Y-82.96
X59.54Y-22.0
X59.54Y-24.54
X59.54Y-27.08
X59.54Y-29.62
X59.54Y-32.16
X59.54Y-34.7
X59.54Y-37.24
X59.54Y-39.78
X59.54Y-42.32
X59.54Y-44.86
X59.54Y-47.4
X59.54Y-49.94
X59.54Y-52.48
X59.54Y-55.02
X59.54Y-57.56
X59.54Y-60.1
X59.54Y-62.64
X59.54Y-65.18
X59.54Y-67.72
X59.54Y-70.26
X59.54Y-72.8
X59.54Y-75.34
X59.54Y-77.88
X59.54Y-80.42
X59.54Y-82.96
X72.0Y-22.0
X72.0Y-24.54
X72.0Y-27.08
X72.0Y-29.62
X72.0Y-32.16
X72.0Y-34.7
X72.0Y-37.24
X72.0Y-39.78
X72.0Y-42.32
X72.0Y-44.86
X72.0Y-47.4
X72.0Y-49.94
X72.0Y-52.48
X72.0Y-55.02
X72.0Y-57.56
X72.0Y-60.1
X72.0Y-62.64
X72.0Y-65.18
X72.0Y-67.72
X72.0Y-70.26
X72.0Y-72.8
X72.0Y-75.34
X72.0Y-77.88
X72.0Y-80.42
X72.0Y-82.96
X74.54Y-22.0
X74.54Y-24.54
X74.54Y-27.08
X74.54Y-29.62
X74.54Y-32.16
X74.54Y-34.7
X74.54Y-37.24
X74.54Y-39.78
X74.54Y-42.32
X74.54Y-44.86
X74.54Y-47.4
X74.54Y-49.94
X74.54Y-52.48
X74.54Y-55.02
X74.54Y-57.56
X74.54Y-60.1
X74.54Y-62.64
X74.54Y-65.18
X74.54Y-67.72
X74.54Y-70.26
X74.54Y-72.8
X74.54Y-75.34
X74.54Y-77.88
X74.54Y-80.42
X74.54Y-82.96
X87.0Y-22.0
X87.0Y-24.54
X87.0Y-27.08
X87.0Y-29.62
X87.0Y-32.16
X87.0Y-34.7
X87.0Y-37.24
X87.0Y-39.78
X87.0Y-42.32
X87.0Y-44.86
X87.0Y-47.4
X87.0Y-49.94
X87.0Y-52.48
X87.0Y-55.02
X87.0Y-57.56
X87.0Y-60.1
X87.0Y-62.64
X87.0Y-65.18
X87.0Y-67.72
X87.0Y-70.26
X87.0Y-72.8
X87.0Y-75.34
X87.0Y-77.88
X87.0Y-80.42
X87.0Y-82.96
X89.54Y-22.0
X89.54Y-24.54
X89.54Y-27.08
X89.54Y-29.62
X89.54Y-32.16
X89.54Y-34.7
X89.54Y-37.24
X89.54Y-39.78
X89.54Y-42.32
X89.54Y-44.86
X89.54Y-47.4
X89.54Y-49.94
X89.54Y-52.48
X89.54Y-55.02
X89.54Y-57.56
X89.54Y-60.1
X89.54Y-62.64
X89.54Y-65.18
X89.54Y-67.72
X89.54Y-70.26
X89.54Y-72.8
X89.54Y-75.34
X89.54Y-77.88
X89.54Y-80.42
X89.54Y-82.96
X90.0Y-6.0
X96.0Y-6.0
X102.0Y-6.0
X102.0Y-22.0
X102.0Y-24.54
X102.0Y-27.08
X102.0Y-29.62
X102.0Y-32.16
X102.0Y-34.7
X102.0Y-37.24
X102.0Y-39.78
X102.0Y-42.32
X102.0Y-44.86
X102.0Y-47.4
X102.0Y-49.94
X102.0Y-52.48
X102.0Y-55.02
X102.0Y-57.56
X102.0Y-60.1
X102.0Y-62.64
X102.0Y-65.18
X102.0Y-67.72
X102.0Y-70.26
X102.0Y-72.8
X102.0Y-75.34
X102.0Y-77.88
X102.0Y-80.42
X102.0Y-82.96
X104.54Y-22.0
X104.54Y-24.54
X104.54Y-27.08
X104.54Y-29.62
X104.54Y-32.16
X104.54Y-34.7
X104.54Y-37.24
X104.54Y-39.78
X104.54Y-42.32
X104.54Y-44.86
X104.54Y-47.4
X104.54Y-49.94
X104.54Y-52.48
X104.54Y-55.02
X104.54Y-57.56
X104.54Y-60.1
X104.54Y-62.64
X104.54Y-65.18
X104.54Y-67.72
X104.54Y-70.26
X104.54Y-72.8
X104.54Y-75.34
X104.54Y-77.88
X104.54Y-80.42
X104.54Y-82.96
X108.0Y-6.0
X114.0Y-6.0
X117.0Y-22.0
X117.0Y-24.54
X117.0Y-27.08
X117.0Y-29.62
X117.0Y-32.16
X117.0Y-34.7
X117.0Y-37.24
X117.0Y-39.78
X117.0Y-42.32
X117.0Y-44.86
X117.0Y-47.4
X117.0Y-49.94
X117.0Y-52.48
X117.0Y-55.02
X117.0Y-57.56
X117.0Y-60.1
X117.0Y-62.64
X117.0Y-65.18
X117.0Y-67.72
X117.0Y-70.26
X117.0Y-72.8
X117.0Y-75.34
X117.0Y-77.88
X117.0Y-80.42
X117.0Y-82.96
X119.54Y-22.0
X119.54Y-24.54
X119.54Y-27.08
X119.54Y-29.62
X119.54Y-32.16
X119.54Y-34.7
X119.54Y-37.24
X119.54Y-39.78
X119.54Y-42.32
X119.54Y-44.86
X119.54Y-47.4
X119.54Y-49.94
X119.54Y-52.48
X119.54Y-55.02
X119.54Y-57.56
X119.54Y-60.1
X119.54Y-62.64
X119.54Y-65.18
X119.54Y-67.72
X119.54Y-70.26
X119.54Y-72.8
X119.54Y-75.34
X119.54Y-77.88
X119.54Y-80.42
X119.54Y-82.96
X120.0Y-6.0
T6
X34.0Y-8.0
X39.1Y-9.9
T7
X13.23Y-9.29
X25.27Y-9.29
T8
X4.0Y-4.0
X4.0Y-94.0
X126.0Y-4.0
X126.0Y-94.0
M30
