%TF.GenerationSoftware,KiCad,Pcbnew,10.0.5*%
%TF.CreationDate,2026-09-11T06:44:13-04:00*%
%TF.ProjectId,panelb,70616e65-6c62-42e6-9b69-6361645f7063,rev?*%
%TF.SameCoordinates,Original*%
%TF.FileFunction,Other,User*%
%FSLAX46Y46*%
G04 Gerber Fmt 4.6, Leading zero omitted, Abs format (unit mm)*
G04 Created by KiCad (PCBNEW 10.0.5) date 2026-09-11 06:44:13*
%MOMM*%
%LPD*%
G01*
G04 APERTURE LIST*
%ADD10C,0.050000*%
G04 APERTURE END LIST*
%TO.C,SW2*%
D10*
X83260000Y-71330000D02*
X93540000Y-71330000D01*
X93540000Y-94460000D01*
X83260000Y-94460000D01*
X83260000Y-71330000D01*
%TO.C,D6*%
X24690000Y-33900000D02*
X29110000Y-33900000D01*
X29110000Y-38740000D01*
X24690000Y-38740000D01*
X24690000Y-33900000D01*
%TO.C,R47*%
X79090000Y-87900000D02*
X82090000Y-87900000D01*
X82090000Y-95530000D01*
X79090000Y-95530000D01*
X79090000Y-87900000D01*
%TO.C,R58*%
X64500000Y-57500000D02*
X67500000Y-57500000D01*
X67500000Y-65130000D01*
X64500000Y-65130000D01*
X64500000Y-57500000D01*
%TO.C,R16*%
X61260000Y-29740000D02*
X68890000Y-29740000D01*
X68890000Y-32740000D01*
X61260000Y-32740000D01*
X61260000Y-29740000D01*
%TO.C,R24*%
X15180000Y-52600000D02*
X22810000Y-52600000D01*
X22810000Y-55600000D01*
X15180000Y-55600000D01*
X15180000Y-52600000D01*
%TO.C,D5*%
X24690000Y-18660000D02*
X29110000Y-18660000D01*
X29110000Y-23500000D01*
X24690000Y-23500000D01*
X24690000Y-18660000D01*
%TO.C,Q2*%
X7990000Y-39305000D02*
X7990000Y-44045000D01*
X7990000Y-39305000D02*
X15090000Y-39305000D01*
X15090000Y-44045000D02*
X7990000Y-44045000D01*
X15090000Y-44045000D02*
X15090000Y-39305000D01*
%TO.C,R6*%
X22860000Y-29740000D02*
X30490000Y-29740000D01*
X30490000Y-32740000D01*
X22860000Y-32740000D01*
X22860000Y-29740000D01*
%TO.C,R28*%
X30540000Y-52600000D02*
X38170000Y-52600000D01*
X38170000Y-55600000D01*
X30540000Y-55600000D01*
X30540000Y-52600000D01*
%TO.C,R31*%
X45900000Y-47520000D02*
X53530000Y-47520000D01*
X53530000Y-50520000D01*
X45900000Y-50520000D01*
X45900000Y-47520000D01*
%TO.C,Q8*%
X31030000Y-40025000D02*
X31030000Y-44765000D01*
X31030000Y-40025000D02*
X38130000Y-40025000D01*
X38130000Y-44765000D02*
X31030000Y-44765000D01*
X38130000Y-44765000D02*
X38130000Y-40025000D01*
%TO.C,R39*%
X48370000Y-87900000D02*
X51370000Y-87900000D01*
X51370000Y-95530000D01*
X48370000Y-95530000D01*
X48370000Y-87900000D01*
%TO.C,R21*%
X7500000Y-47520000D02*
X15130000Y-47520000D01*
X15130000Y-50520000D01*
X7500000Y-50520000D01*
X7500000Y-47520000D01*
%TO.C,R54*%
X30500000Y-57500000D02*
X33500000Y-57500000D01*
X33500000Y-65130000D01*
X30500000Y-65130000D01*
X30500000Y-57500000D01*
%TO.C,R11*%
X45900000Y-14500000D02*
X53530000Y-14500000D01*
X53530000Y-17500000D01*
X45900000Y-17500000D01*
X45900000Y-14500000D01*
%TO.C,Q1*%
X7990000Y-24065000D02*
X7990000Y-28805000D01*
X7990000Y-24065000D02*
X15090000Y-24065000D01*
X15090000Y-28805000D02*
X7990000Y-28805000D01*
X15090000Y-28805000D02*
X15090000Y-24065000D01*
%TO.C,C2*%
X97750000Y-27000000D02*
G75*
G02*
X92250000Y-27000000I-2750000J0D01*
G01*
X92250000Y-27000000D02*
G75*
G02*
X97750000Y-27000000I2750000J0D01*
G01*
%TO.C,D4*%
X17010000Y-33900000D02*
X21430000Y-33900000D01*
X21430000Y-38740000D01*
X17010000Y-38740000D01*
X17010000Y-33900000D01*
%TO.C,R14*%
X53580000Y-29740000D02*
X61210000Y-29740000D01*
X61210000Y-32740000D01*
X53580000Y-32740000D01*
X53580000Y-29740000D01*
%TO.C,R49*%
X73090000Y-80200000D02*
X76090000Y-80200000D01*
X76090000Y-87830000D01*
X73090000Y-87830000D01*
X73090000Y-80200000D01*
%TO.C,R61*%
X84500000Y-57500000D02*
X87500000Y-57500000D01*
X87500000Y-65130000D01*
X84500000Y-65130000D01*
X84500000Y-57500000D01*
%TO.C,Q12*%
X46390000Y-40025000D02*
X46390000Y-44765000D01*
X46390000Y-40025000D02*
X53490000Y-40025000D01*
X53490000Y-44765000D02*
X46390000Y-44765000D01*
X53490000Y-44765000D02*
X53490000Y-40025000D01*
%TO.C,R23*%
X15180000Y-47520000D02*
X22810000Y-47520000D01*
X22810000Y-50520000D01*
X15180000Y-50520000D01*
X15180000Y-47520000D01*
%TO.C,R60*%
X79500000Y-57500000D02*
X82500000Y-57500000D01*
X82500000Y-65130000D01*
X79500000Y-65130000D01*
X79500000Y-57500000D01*
%TO.C,SW4*%
X50500000Y-59500000D02*
X50750000Y-59500000D01*
X50500000Y-59750000D02*
X50500000Y-59500000D01*
X50500000Y-66750000D02*
X50500000Y-59750000D01*
X50500000Y-66750000D02*
X50500000Y-67000000D01*
X50500000Y-67000000D02*
X50750000Y-67000000D01*
X50750000Y-59500000D02*
X59750000Y-59500000D01*
X59750000Y-59500000D02*
X60000000Y-59500000D01*
X59750000Y-67000000D02*
X50750000Y-67000000D01*
X59750000Y-67000000D02*
X60000000Y-67000000D01*
X60000000Y-59500000D02*
X60000000Y-59750000D01*
X60000000Y-59750000D02*
X60000000Y-66750000D01*
X60000000Y-67000000D02*
X60000000Y-66750000D01*
%TO.C,D12*%
X47730000Y-33900000D02*
X52150000Y-33900000D01*
X52150000Y-38740000D01*
X47730000Y-38740000D01*
X47730000Y-33900000D01*
%TO.C,D13*%
X55410000Y-18660000D02*
X59830000Y-18660000D01*
X59830000Y-23500000D01*
X55410000Y-23500000D01*
X55410000Y-18660000D01*
%TO.C,R52*%
X67090000Y-80200000D02*
X70090000Y-80200000D01*
X70090000Y-87830000D01*
X67090000Y-87830000D01*
X67090000Y-80200000D01*
%TO.C,C3*%
X29750000Y-60000000D02*
G75*
G02*
X24250000Y-60000000I-2750000J0D01*
G01*
X24250000Y-60000000D02*
G75*
G02*
X29750000Y-60000000I2750000J0D01*
G01*
%TO.C,R10*%
X38220000Y-29740000D02*
X45850000Y-29740000D01*
X45850000Y-32740000D01*
X38220000Y-32740000D01*
X38220000Y-29740000D01*
%TO.C,Q5*%
X23350000Y-24065000D02*
X23350000Y-28805000D01*
X23350000Y-24065000D02*
X30450000Y-24065000D01*
X30450000Y-28805000D02*
X23350000Y-28805000D01*
X30450000Y-28805000D02*
X30450000Y-24065000D01*
%TO.C,R50*%
X73090000Y-87900000D02*
X76090000Y-87900000D01*
X76090000Y-95530000D01*
X73090000Y-95530000D01*
X73090000Y-87900000D01*
%TO.C,R22*%
X7500000Y-52600000D02*
X15130000Y-52600000D01*
X15130000Y-55600000D01*
X7500000Y-55600000D01*
X7500000Y-52600000D01*
%TO.C,R37*%
X48370000Y-72500000D02*
X51370000Y-72500000D01*
X51370000Y-80130000D01*
X48370000Y-80130000D01*
X48370000Y-72500000D01*
%TO.C,D9*%
X40050000Y-18660000D02*
X44470000Y-18660000D01*
X44470000Y-23500000D01*
X40050000Y-23500000D01*
X40050000Y-18660000D01*
%TO.C,R46*%
X79090000Y-80200000D02*
X82090000Y-80200000D01*
X82090000Y-87830000D01*
X79090000Y-87830000D01*
X79090000Y-80200000D01*
%TO.C,Q7*%
X31030000Y-24785000D02*
X31030000Y-29525000D01*
X31030000Y-24785000D02*
X38130000Y-24785000D01*
X38130000Y-29525000D02*
X31030000Y-29525000D01*
X38130000Y-29525000D02*
X38130000Y-24785000D01*
%TO.C,D17*%
X20950000Y-66750000D02*
X30670000Y-66750000D01*
X30670000Y-69250000D01*
X20950000Y-69250000D01*
X20950000Y-66750000D01*
%TO.C,R38*%
X48370000Y-80200000D02*
X51370000Y-80200000D01*
X51370000Y-87830000D01*
X48370000Y-87830000D01*
X48370000Y-80200000D01*
%TO.C,R8*%
X30540000Y-29740000D02*
X38170000Y-29740000D01*
X38170000Y-32740000D01*
X30540000Y-32740000D01*
X30540000Y-29740000D01*
%TO.C,R15*%
X61260000Y-14500000D02*
X68890000Y-14500000D01*
X68890000Y-17500000D01*
X61260000Y-17500000D01*
X61260000Y-14500000D01*
%TO.C,D10*%
X40050000Y-33900000D02*
X44470000Y-33900000D01*
X44470000Y-38740000D01*
X40050000Y-38740000D01*
X40050000Y-33900000D01*
%TO.C,R27*%
X30540000Y-47520000D02*
X38170000Y-47520000D01*
X38170000Y-50520000D01*
X30540000Y-50520000D01*
X30540000Y-47520000D01*
%TO.C,R26*%
X22860000Y-52600000D02*
X30490000Y-52600000D01*
X30490000Y-55600000D01*
X22860000Y-55600000D01*
X22860000Y-52600000D01*
%TO.C,Q9*%
X38710000Y-24065000D02*
X38710000Y-28805000D01*
X38710000Y-24065000D02*
X45810000Y-24065000D01*
X45810000Y-28805000D02*
X38710000Y-28805000D01*
X45810000Y-28805000D02*
X45810000Y-24065000D01*
%TO.C,R40*%
X42370000Y-72500000D02*
X45370000Y-72500000D01*
X45370000Y-80130000D01*
X42370000Y-80130000D01*
X42370000Y-72500000D01*
%TO.C,Q6*%
X23350000Y-39305000D02*
X23350000Y-44045000D01*
X23350000Y-39305000D02*
X30450000Y-39305000D01*
X30450000Y-44045000D02*
X23350000Y-44045000D01*
X30450000Y-44045000D02*
X30450000Y-39305000D01*
%TO.C,Q15*%
X61750000Y-24785000D02*
X61750000Y-29525000D01*
X61750000Y-24785000D02*
X68850000Y-24785000D01*
X68850000Y-29525000D02*
X61750000Y-29525000D01*
X68850000Y-29525000D02*
X68850000Y-24785000D01*
%TO.C,R3*%
X15180000Y-14500000D02*
X22810000Y-14500000D01*
X22810000Y-17500000D01*
X15180000Y-17500000D01*
X15180000Y-14500000D01*
%TO.C,D7*%
X32370000Y-18660000D02*
X36790000Y-18660000D01*
X36790000Y-23500000D01*
X32370000Y-23500000D01*
X32370000Y-18660000D01*
%TO.C,R56*%
X40500000Y-57500000D02*
X43500000Y-57500000D01*
X43500000Y-65130000D01*
X40500000Y-65130000D01*
X40500000Y-57500000D01*
%TO.C,Q4*%
X15670000Y-40025000D02*
X15670000Y-44765000D01*
X15670000Y-40025000D02*
X22770000Y-40025000D01*
X22770000Y-44765000D02*
X15670000Y-44765000D01*
X22770000Y-44765000D02*
X22770000Y-40025000D01*
%TO.C,D11*%
X47730000Y-18660000D02*
X52150000Y-18660000D01*
X52150000Y-23500000D01*
X47730000Y-23500000D01*
X47730000Y-18660000D01*
%TO.C,H1*%
X7450000Y-50000000D02*
G75*
G02*
X550000Y-50000000I-3450000J0D01*
G01*
X550000Y-50000000D02*
G75*
G02*
X7450000Y-50000000I3450000J0D01*
G01*
%TO.C,R20*%
X68940000Y-39265000D02*
X76570000Y-39265000D01*
X76570000Y-42265000D01*
X68940000Y-42265000D01*
X68940000Y-39265000D01*
%TO.C,R5*%
X22860000Y-14500000D02*
X30490000Y-14500000D01*
X30490000Y-17500000D01*
X22860000Y-17500000D01*
X22860000Y-14500000D01*
%TO.C,R1*%
X7500000Y-14500000D02*
X15130000Y-14500000D01*
X15130000Y-17500000D01*
X7500000Y-17500000D01*
X7500000Y-14500000D01*
%TO.C,R62*%
X89500000Y-57500000D02*
X92500000Y-57500000D01*
X92500000Y-65130000D01*
X89500000Y-65130000D01*
X89500000Y-57500000D01*
%TO.C,R36*%
X61260000Y-52600000D02*
X68890000Y-52600000D01*
X68890000Y-55600000D01*
X61260000Y-55600000D01*
X61260000Y-52600000D01*
%TO.C,R30*%
X38220000Y-52600000D02*
X45850000Y-52600000D01*
X45850000Y-55600000D01*
X38220000Y-55600000D01*
X38220000Y-52600000D01*
%TO.C,R2*%
X7500000Y-29740000D02*
X15130000Y-29740000D01*
X15130000Y-32740000D01*
X7500000Y-32740000D01*
X7500000Y-29740000D01*
%TO.C,Q18*%
X69430000Y-25970000D02*
X69430000Y-30710000D01*
X69430000Y-25970000D02*
X76530000Y-25970000D01*
X76530000Y-30710000D02*
X69430000Y-30710000D01*
X76530000Y-30710000D02*
X76530000Y-25970000D01*
%TO.C,Q14*%
X54070000Y-39305000D02*
X54070000Y-44045000D01*
X54070000Y-39305000D02*
X61170000Y-39305000D01*
X61170000Y-44045000D02*
X54070000Y-44045000D01*
X61170000Y-44045000D02*
X61170000Y-39305000D01*
%TO.C,D16*%
X63090000Y-33900000D02*
X67510000Y-33900000D01*
X67510000Y-38740000D01*
X63090000Y-38740000D01*
X63090000Y-33900000D01*
%TO.C,R41*%
X42370000Y-80200000D02*
X45370000Y-80200000D01*
X45370000Y-87830000D01*
X42370000Y-87830000D01*
X42370000Y-80200000D01*
%TO.C,R42*%
X42370000Y-87900000D02*
X45370000Y-87900000D01*
X45370000Y-95530000D01*
X42370000Y-95530000D01*
X42370000Y-87900000D01*
%TO.C,D3*%
X17010000Y-18660000D02*
X21430000Y-18660000D01*
X21430000Y-23500000D01*
X17010000Y-23500000D01*
X17010000Y-18660000D01*
%TO.C,R9*%
X38220000Y-14500000D02*
X45850000Y-14500000D01*
X45850000Y-17500000D01*
X38220000Y-17500000D01*
X38220000Y-14500000D01*
%TO.C,R45*%
X79090000Y-72500000D02*
X82090000Y-72500000D01*
X82090000Y-80130000D01*
X79090000Y-80130000D01*
X79090000Y-72500000D01*
%TO.C,J1*%
X5030000Y-1280000D02*
X94970000Y-1280000D01*
X94970000Y-11180000D01*
X5030000Y-11180000D01*
X5030000Y-1280000D01*
%TO.C,R53*%
X20500000Y-57500000D02*
X23500000Y-57500000D01*
X23500000Y-65130000D01*
X20500000Y-65130000D01*
X20500000Y-57500000D01*
%TO.C,R43*%
X36370000Y-72500000D02*
X39370000Y-72500000D01*
X39370000Y-80130000D01*
X36370000Y-80130000D01*
X36370000Y-72500000D01*
%TO.C,R44*%
X36370000Y-80200000D02*
X39370000Y-80200000D01*
X39370000Y-87830000D01*
X36370000Y-87830000D01*
X36370000Y-80200000D01*
%TO.C,C4*%
X73750000Y-60000000D02*
G75*
G02*
X68250000Y-60000000I-2750000J0D01*
G01*
X68250000Y-60000000D02*
G75*
G02*
X73750000Y-60000000I2750000J0D01*
G01*
%TO.C,D8*%
X32370000Y-33900000D02*
X36790000Y-33900000D01*
X36790000Y-38740000D01*
X32370000Y-38740000D01*
X32370000Y-33900000D01*
%TO.C,R48*%
X73090000Y-72500000D02*
X76090000Y-72500000D01*
X76090000Y-80130000D01*
X73090000Y-80130000D01*
X73090000Y-72500000D01*
%TO.C,Q19*%
X69430000Y-34225000D02*
X69430000Y-38965000D01*
X69430000Y-34225000D02*
X76530000Y-34225000D01*
X76530000Y-38965000D02*
X69430000Y-38965000D01*
X76530000Y-38965000D02*
X76530000Y-34225000D01*
%TO.C,SW3*%
X6500000Y-59500000D02*
X6750000Y-59500000D01*
X6500000Y-59750000D02*
X6500000Y-59500000D01*
X6500000Y-66750000D02*
X6500000Y-59750000D01*
X6500000Y-66750000D02*
X6500000Y-67000000D01*
X6500000Y-67000000D02*
X6750000Y-67000000D01*
X6750000Y-59500000D02*
X15750000Y-59500000D01*
X15750000Y-59500000D02*
X16000000Y-59500000D01*
X15750000Y-67000000D02*
X6750000Y-67000000D01*
X15750000Y-67000000D02*
X16000000Y-67000000D01*
X16000000Y-59500000D02*
X16000000Y-59750000D01*
X16000000Y-59750000D02*
X16000000Y-66750000D01*
X16000000Y-67000000D02*
X16000000Y-66750000D01*
%TO.C,R32*%
X45900000Y-52600000D02*
X53530000Y-52600000D01*
X53530000Y-55600000D01*
X45900000Y-55600000D01*
X45900000Y-52600000D01*
%TO.C,D2*%
X9330000Y-33900000D02*
X13750000Y-33900000D01*
X13750000Y-38740000D01*
X9330000Y-38740000D01*
X9330000Y-33900000D01*
%TO.C,R57*%
X45500000Y-57500000D02*
X48500000Y-57500000D01*
X48500000Y-65130000D01*
X45500000Y-65130000D01*
X45500000Y-57500000D01*
%TO.C,R34*%
X53580000Y-52600000D02*
X61210000Y-52600000D01*
X61210000Y-55600000D01*
X53580000Y-55600000D01*
X53580000Y-52600000D01*
%TO.C,D14*%
X55410000Y-33900000D02*
X59830000Y-33900000D01*
X59830000Y-38740000D01*
X55410000Y-38740000D01*
X55410000Y-33900000D01*
%TO.C,C1*%
X93500000Y-15000000D02*
X96500000Y-15000000D01*
X96500000Y-20500000D01*
X93500000Y-20500000D01*
X93500000Y-15000000D01*
%TO.C,D1*%
X9330000Y-18660000D02*
X13750000Y-18660000D01*
X13750000Y-23500000D01*
X9330000Y-23500000D01*
X9330000Y-18660000D01*
%TO.C,R12*%
X45900000Y-29740000D02*
X53530000Y-29740000D01*
X53530000Y-32740000D01*
X45900000Y-32740000D01*
X45900000Y-29740000D01*
%TO.C,R55*%
X35500000Y-57500000D02*
X38500000Y-57500000D01*
X38500000Y-65130000D01*
X35500000Y-65130000D01*
X35500000Y-57500000D01*
%TO.C,R17*%
X68940000Y-14500000D02*
X76570000Y-14500000D01*
X76570000Y-17500000D01*
X68940000Y-17500000D01*
X68940000Y-14500000D01*
%TO.C,D15*%
X63090000Y-18660000D02*
X67510000Y-18660000D01*
X67510000Y-23500000D01*
X63090000Y-23500000D01*
X63090000Y-18660000D01*
%TO.C,R25*%
X22860000Y-47520000D02*
X30490000Y-47520000D01*
X30490000Y-50520000D01*
X22860000Y-50520000D01*
X22860000Y-47520000D01*
%TO.C,R29*%
X38220000Y-47520000D02*
X45850000Y-47520000D01*
X45850000Y-50520000D01*
X38220000Y-50520000D01*
X38220000Y-47520000D01*
%TO.C,Q16*%
X61750000Y-40025000D02*
X61750000Y-44765000D01*
X61750000Y-40025000D02*
X68850000Y-40025000D01*
X68850000Y-44765000D02*
X61750000Y-44765000D01*
X68850000Y-44765000D02*
X68850000Y-40025000D01*
%TO.C,R7*%
X30540000Y-14500000D02*
X38170000Y-14500000D01*
X38170000Y-17500000D01*
X30540000Y-17500000D01*
X30540000Y-14500000D01*
%TO.C,R13*%
X53580000Y-14500000D02*
X61210000Y-14500000D01*
X61210000Y-17500000D01*
X53580000Y-17500000D01*
X53580000Y-14500000D01*
%TO.C,Q3*%
X15670000Y-24785000D02*
X15670000Y-29525000D01*
X15670000Y-24785000D02*
X22770000Y-24785000D01*
X22770000Y-29525000D02*
X15670000Y-29525000D01*
X22770000Y-29525000D02*
X22770000Y-24785000D01*
%TO.C,R35*%
X61260000Y-47520000D02*
X68890000Y-47520000D01*
X68890000Y-50520000D01*
X61260000Y-50520000D01*
X61260000Y-47520000D01*
%TO.C,Q20*%
X69430000Y-42480000D02*
X69430000Y-47220000D01*
X69430000Y-42480000D02*
X76530000Y-42480000D01*
X76530000Y-47220000D02*
X69430000Y-47220000D01*
X76530000Y-47220000D02*
X76530000Y-42480000D01*
%TO.C,Q13*%
X54070000Y-24065000D02*
X54070000Y-28805000D01*
X54070000Y-24065000D02*
X61170000Y-24065000D01*
X61170000Y-28805000D02*
X54070000Y-28805000D01*
X61170000Y-28805000D02*
X61170000Y-24065000D01*
%TO.C,R59*%
X74500000Y-57500000D02*
X77500000Y-57500000D01*
X77500000Y-65130000D01*
X74500000Y-65130000D01*
X74500000Y-57500000D01*
%TO.C,D18*%
X64950000Y-66750000D02*
X74670000Y-66750000D01*
X74670000Y-69250000D01*
X64950000Y-69250000D01*
X64950000Y-66750000D01*
%TO.C,R18*%
X68940000Y-22755000D02*
X76570000Y-22755000D01*
X76570000Y-25755000D01*
X68940000Y-25755000D01*
X68940000Y-22755000D01*
%TO.C,H2*%
X99450000Y-50000000D02*
G75*
G02*
X92550000Y-50000000I-3450000J0D01*
G01*
X92550000Y-50000000D02*
G75*
G02*
X99450000Y-50000000I3450000J0D01*
G01*
%TO.C,Q17*%
X69430000Y-17715000D02*
X69430000Y-22455000D01*
X69430000Y-17715000D02*
X76530000Y-17715000D01*
X76530000Y-22455000D02*
X69430000Y-22455000D01*
X76530000Y-22455000D02*
X76530000Y-17715000D01*
%TO.C,R51*%
X67090000Y-72500000D02*
X70090000Y-72500000D01*
X70090000Y-80130000D01*
X67090000Y-80130000D01*
X67090000Y-72500000D01*
%TO.C,R33*%
X53580000Y-47520000D02*
X61210000Y-47520000D01*
X61210000Y-50520000D01*
X53580000Y-50520000D01*
X53580000Y-47520000D01*
%TO.C,R4*%
X15180000Y-29740000D02*
X22810000Y-29740000D01*
X22810000Y-32740000D01*
X15180000Y-32740000D01*
X15180000Y-29740000D01*
%TO.C,SW1*%
X52540000Y-71330000D02*
X62820000Y-71330000D01*
X62820000Y-94460000D01*
X52540000Y-94460000D01*
X52540000Y-71330000D01*
%TO.C,Q11*%
X46390000Y-24785000D02*
X46390000Y-29525000D01*
X46390000Y-24785000D02*
X53490000Y-24785000D01*
X53490000Y-29525000D02*
X46390000Y-29525000D01*
X53490000Y-29525000D02*
X53490000Y-24785000D01*
%TO.C,Q10*%
X38710000Y-39305000D02*
X38710000Y-44045000D01*
X38710000Y-39305000D02*
X45810000Y-39305000D01*
X45810000Y-44045000D02*
X38710000Y-44045000D01*
X45810000Y-44045000D02*
X45810000Y-39305000D01*
%TO.C,R19*%
X68940000Y-31010000D02*
X76570000Y-31010000D01*
X76570000Y-34010000D01*
X68940000Y-34010000D01*
X68940000Y-31010000D01*
%TD*%
M02*
