%TF.GenerationSoftware,KiCad,Pcbnew,10.0.5*%
%TF.CreationDate,2026-09-11T06:44:13-04:00*%
%TF.ProjectId,panelb,70616e65-6c62-42e6-9b69-6361645f7063,rev?*%
%TF.SameCoordinates,Original*%
%TF.FileFunction,Copper,L1,Top*%
%TF.FilePolarity,Positive*%
%FSLAX46Y46*%
G04 Gerber Fmt 4.6, Leading zero omitted, Abs format (unit mm)*
G04 Created by KiCad (PCBNEW 10.0.5) date 2026-09-11 06:44:13*
%MOMM*%
%LPD*%
G01*
G04 APERTURE LIST*
G04 Aperture macros list*
%AMRoundRect*
0 Rectangle with rounded corners*
0 $1 Rounding radius*
0 $2 $3 $4 $5 $6 $7 $8 $9 X,Y pos of 4 corners*
0 Add a 4 corners polygon primitive as box body*
4,1,4,$2,$3,$4,$5,$6,$7,$8,$9,$2,$3,0*
0 Add four circle primitives for the rounded corners*
1,1,$1+$1,$2,$3*
1,1,$1+$1,$4,$5*
1,1,$1+$1,$6,$7*
1,1,$1+$1,$8,$9*
0 Add four rect primitives between the rounded corners*
20,1,$1+$1,$2,$3,$4,$5,0*
20,1,$1+$1,$4,$5,$6,$7,0*
20,1,$1+$1,$6,$7,$8,$9,0*
20,1,$1+$1,$8,$9,$2,$3,0*%
G04 Aperture macros list end*
%TA.AperFunction,ComponentPad*%
%ADD10RoundRect,0.250000X-0.550000X-0.550000X0.550000X-0.550000X0.550000X0.550000X-0.550000X0.550000X0*%
%TD*%
%TA.AperFunction,ComponentPad*%
%ADD11C,1.600000*%
%TD*%
%TA.AperFunction,ComponentPad*%
%ADD12R,1.800000X1.800000*%
%TD*%
%TA.AperFunction,ComponentPad*%
%ADD13C,1.800000*%
%TD*%
%TA.AperFunction,ComponentPad*%
%ADD14R,1.500000X1.500000*%
%TD*%
%TA.AperFunction,ComponentPad*%
%ADD15C,1.500000*%
%TD*%
%TA.AperFunction,ComponentPad*%
%ADD16RoundRect,0.250000X-0.550000X0.550000X-0.550000X-0.550000X0.550000X-0.550000X0.550000X0.550000X0*%
%TD*%
%TA.AperFunction,ComponentPad*%
%ADD17C,2.000000*%
%TD*%
%TA.AperFunction,ComponentPad*%
%ADD18C,6.400000*%
%TD*%
%TA.AperFunction,ComponentPad*%
%ADD19RoundRect,0.250000X0.600000X-0.600000X0.600000X0.600000X-0.600000X0.600000X-0.600000X-0.600000X0*%
%TD*%
%TA.AperFunction,ComponentPad*%
%ADD20C,1.700000*%
%TD*%
%TA.AperFunction,ViaPad*%
%ADD21C,0.800000*%
%TD*%
%TA.AperFunction,ViaPad*%
%ADD22C,0.600000*%
%TD*%
%TA.AperFunction,Conductor*%
%ADD23C,0.800000*%
%TD*%
%TA.AperFunction,Conductor*%
%ADD24C,0.500000*%
%TD*%
%TA.AperFunction,Conductor*%
%ADD25C,0.200000*%
%TD*%
G04 APERTURE END LIST*
D10*
%TO.P,SW2,1*%
%TO.N,Net-(R45-Pad2)*%
X84590000Y-74000000D03*
D11*
%TO.P,SW2,2*%
%TO.N,Net-(R46-Pad2)*%
X84590000Y-76540000D03*
%TO.P,SW2,3*%
%TO.N,Net-(R47-Pad2)*%
X84590000Y-79080000D03*
%TO.P,SW2,4*%
%TO.N,Net-(R48-Pad2)*%
X84590000Y-81620000D03*
%TO.P,SW2,5*%
%TO.N,Net-(R49-Pad2)*%
X84590000Y-84160000D03*
%TO.P,SW2,6*%
%TO.N,Net-(R50-Pad2)*%
X84590000Y-86700000D03*
%TO.P,SW2,7*%
%TO.N,Net-(R51-Pad2)*%
X84590000Y-89240000D03*
%TO.P,SW2,8*%
%TO.N,Net-(R52-Pad2)*%
X84590000Y-91780000D03*
%TO.P,SW2,9*%
%TO.N,+5V*%
X92210000Y-91780000D03*
%TO.P,SW2,10*%
X92210000Y-89240000D03*
%TO.P,SW2,11*%
X92210000Y-86700000D03*
%TO.P,SW2,12*%
X92210000Y-84160000D03*
%TO.P,SW2,13*%
X92210000Y-81620000D03*
%TO.P,SW2,14*%
X92210000Y-79080000D03*
%TO.P,SW2,15*%
X92210000Y-76540000D03*
%TO.P,SW2,16*%
X92210000Y-74000000D03*
%TD*%
D12*
%TO.P,D6,1*%
%TO.N,Net-(D6-K)*%
X26900000Y-37590000D03*
D13*
%TO.P,D6,2*%
%TO.N,Net-(D6-A)*%
X26900000Y-35050000D03*
%TD*%
D11*
%TO.P,R47,1*%
%TO.N,WRL*%
X80590000Y-89400000D03*
%TO.P,R47,2*%
%TO.N,Net-(R47-Pad2)*%
X80590000Y-94480000D03*
%TD*%
%TO.P,R58,1*%
%TO.N,Net-(R58-Pad1)*%
X66000000Y-59000000D03*
%TO.P,R58,2*%
%TO.N,Net-(C4-Pad1)*%
X66000000Y-64080000D03*
%TD*%
%TO.P,R16,1*%
%TO.N,+5V*%
X62760000Y-31240000D03*
%TO.P,R16,2*%
%TO.N,Net-(D16-A)*%
X67840000Y-31240000D03*
%TD*%
%TO.P,R24,1*%
%TO.N,PCE*%
X16680000Y-54100000D03*
%TO.P,R24,2*%
%TO.N,GND*%
X21760000Y-54100000D03*
%TD*%
D12*
%TO.P,D5,1*%
%TO.N,Net-(D5-K)*%
X26900000Y-22350000D03*
D13*
%TO.P,D5,2*%
%TO.N,Net-(D5-A)*%
X26900000Y-19810000D03*
%TD*%
D14*
%TO.P,Q2,1*%
%TO.N,GND*%
X9000000Y-42035000D03*
D15*
%TO.P,Q2,2*%
%TO.N,MI*%
X11540000Y-42035000D03*
%TO.P,Q2,3*%
%TO.N,Net-(D2-K)*%
X14080000Y-42035000D03*
%TD*%
D11*
%TO.P,R6,1*%
%TO.N,Net-(D6-A)*%
X24360000Y-31240000D03*
%TO.P,R6,2*%
%TO.N,+5V*%
X29440000Y-31240000D03*
%TD*%
%TO.P,R28,1*%
%TO.N,MAI*%
X32040000Y-54100000D03*
%TO.P,R28,2*%
%TO.N,GND*%
X37120000Y-54100000D03*
%TD*%
%TO.P,R31,1*%
%TO.N,WRL*%
X47400000Y-49020000D03*
%TO.P,R31,2*%
%TO.N,GND*%
X52480000Y-49020000D03*
%TD*%
D14*
%TO.P,Q8,1*%
%TO.N,GND*%
X37120000Y-42035000D03*
D15*
%TO.P,Q8,2*%
%TO.N,WRH*%
X34580000Y-42035000D03*
%TO.P,Q8,3*%
%TO.N,Net-(D8-K)*%
X32040000Y-42035000D03*
%TD*%
D11*
%TO.P,R39,1*%
%TO.N,II*%
X49870000Y-89400000D03*
%TO.P,R39,2*%
%TO.N,Net-(R39-Pad2)*%
X49870000Y-94480000D03*
%TD*%
%TO.P,R21,1*%
%TO.N,GND*%
X9000000Y-49020000D03*
%TO.P,R21,2*%
%TO.N,OI*%
X14080000Y-49020000D03*
%TD*%
%TO.P,R54,1*%
%TO.N,Net-(C3-Pad1)*%
X32000000Y-59000000D03*
%TO.P,R54,2*%
%TO.N,GND*%
X32000000Y-64080000D03*
%TD*%
%TO.P,R11,1*%
%TO.N,+5V*%
X47400000Y-16000000D03*
%TO.P,R11,2*%
%TO.N,Net-(D11-A)*%
X52480000Y-16000000D03*
%TD*%
D14*
%TO.P,Q1,1*%
%TO.N,GND*%
X9000000Y-26795000D03*
D15*
%TO.P,Q1,2*%
%TO.N,OI*%
X11540000Y-26795000D03*
%TO.P,Q1,3*%
%TO.N,Net-(D1-K)*%
X14080000Y-26795000D03*
%TD*%
D16*
%TO.P,C2,1*%
%TO.N,+5V*%
X95000000Y-26000000D03*
D11*
%TO.P,C2,2*%
%TO.N,GND*%
X95000000Y-28000000D03*
%TD*%
D12*
%TO.P,D4,1*%
%TO.N,Net-(D4-K)*%
X19220000Y-37590000D03*
D13*
%TO.P,D4,2*%
%TO.N,Net-(D4-A)*%
X19220000Y-35050000D03*
%TD*%
D11*
%TO.P,R14,1*%
%TO.N,Net-(D14-A)*%
X55080000Y-31240000D03*
%TO.P,R14,2*%
%TO.N,+5V*%
X60160000Y-31240000D03*
%TD*%
%TO.P,R49,1*%
%TO.N,ONE*%
X74590000Y-81700000D03*
%TO.P,R49,2*%
%TO.N,Net-(R49-Pad2)*%
X74590000Y-86780000D03*
%TD*%
%TO.P,R61,1*%
%TO.N,RST_S2*%
X86000000Y-59000000D03*
%TO.P,R61,2*%
%TO.N,RST_N*%
X86000000Y-64080000D03*
%TD*%
D14*
%TO.P,Q12,1*%
%TO.N,GND*%
X52480000Y-42035000D03*
D15*
%TO.P,Q12,2*%
%TO.N,F0*%
X49940000Y-42035000D03*
%TO.P,Q12,3*%
%TO.N,Net-(D12-K)*%
X47400000Y-42035000D03*
%TD*%
D11*
%TO.P,R23,1*%
%TO.N,II*%
X16680000Y-49020000D03*
%TO.P,R23,2*%
%TO.N,GND*%
X21760000Y-49020000D03*
%TD*%
%TO.P,R60,1*%
%TO.N,Net-(C4-Pad1)*%
X81000000Y-59000000D03*
%TO.P,R60,2*%
%TO.N,RST_N*%
X81000000Y-64080000D03*
%TD*%
D17*
%TO.P,SW4,1*%
%TO.N,+5V*%
X52000000Y-61000000D03*
X58500000Y-61000000D03*
%TO.P,SW4,2*%
%TO.N,Net-(R58-Pad1)*%
X52000000Y-65500000D03*
X58500000Y-65500000D03*
%TD*%
D12*
%TO.P,D12,1*%
%TO.N,Net-(D12-K)*%
X49940000Y-37590000D03*
D13*
%TO.P,D12,2*%
%TO.N,Net-(D12-A)*%
X49940000Y-35050000D03*
%TD*%
D12*
%TO.P,D13,1*%
%TO.N,Net-(D13-K)*%
X57620000Y-22350000D03*
D13*
%TO.P,D13,2*%
%TO.N,Net-(D13-A)*%
X57620000Y-19810000D03*
%TD*%
D11*
%TO.P,R52,1*%
%TO.N,INP*%
X68590000Y-81700000D03*
%TO.P,R52,2*%
%TO.N,Net-(R52-Pad2)*%
X68590000Y-86780000D03*
%TD*%
D16*
%TO.P,C3,1*%
%TO.N,Net-(C3-Pad1)*%
X27000000Y-59000000D03*
D11*
%TO.P,C3,2*%
%TO.N,GND*%
X27000000Y-61000000D03*
%TD*%
%TO.P,R10,1*%
%TO.N,Net-(D10-A)*%
X39720000Y-31240000D03*
%TO.P,R10,2*%
%TO.N,+5V*%
X44800000Y-31240000D03*
%TD*%
D14*
%TO.P,Q5,1*%
%TO.N,GND*%
X24360000Y-26795000D03*
D15*
%TO.P,Q5,2*%
%TO.N,II*%
X26900000Y-26795000D03*
%TO.P,Q5,3*%
%TO.N,Net-(D5-K)*%
X29440000Y-26795000D03*
%TD*%
D11*
%TO.P,R50,1*%
%TO.N,F0*%
X74590000Y-89400000D03*
%TO.P,R50,2*%
%TO.N,Net-(R50-Pad2)*%
X74590000Y-94480000D03*
%TD*%
%TO.P,R22,1*%
%TO.N,GND*%
X9000000Y-54100000D03*
%TO.P,R22,2*%
%TO.N,IO*%
X14080000Y-54100000D03*
%TD*%
%TO.P,R37,1*%
%TO.N,OI*%
X49870000Y-74000000D03*
%TO.P,R37,2*%
%TO.N,Net-(R37-Pad2)*%
X49870000Y-79080000D03*
%TD*%
D12*
%TO.P,D9,1*%
%TO.N,Net-(D9-K)*%
X42260000Y-22350000D03*
D13*
%TO.P,D9,2*%
%TO.N,Net-(D9-A)*%
X42260000Y-19810000D03*
%TD*%
D11*
%TO.P,R46,1*%
%TO.N,MO*%
X80590000Y-81700000D03*
%TO.P,R46,2*%
%TO.N,Net-(R46-Pad2)*%
X80590000Y-86780000D03*
%TD*%
D14*
%TO.P,Q7,1*%
%TO.N,GND*%
X37120000Y-26795000D03*
D15*
%TO.P,Q7,2*%
%TO.N,PCE*%
X34580000Y-26795000D03*
%TO.P,Q7,3*%
%TO.N,Net-(D7-K)*%
X32040000Y-26795000D03*
%TD*%
D10*
%TO.P,D17,1*%
%TO.N,CLK*%
X22000000Y-68000000D03*
D11*
%TO.P,D17,2*%
%TO.N,Net-(D17-A)*%
X29620000Y-68000000D03*
%TD*%
%TO.P,R38,1*%
%TO.N,IO*%
X49870000Y-81700000D03*
%TO.P,R38,2*%
%TO.N,Net-(R38-Pad2)*%
X49870000Y-86780000D03*
%TD*%
%TO.P,R8,1*%
%TO.N,+5V*%
X32040000Y-31240000D03*
%TO.P,R8,2*%
%TO.N,Net-(D8-A)*%
X37120000Y-31240000D03*
%TD*%
%TO.P,R15,1*%
%TO.N,+5V*%
X62760000Y-16000000D03*
%TO.P,R15,2*%
%TO.N,Net-(D15-A)*%
X67840000Y-16000000D03*
%TD*%
D12*
%TO.P,D10,1*%
%TO.N,Net-(D10-K)*%
X42260000Y-37590000D03*
D13*
%TO.P,D10,2*%
%TO.N,Net-(D10-A)*%
X42260000Y-35050000D03*
%TD*%
D11*
%TO.P,R27,1*%
%TO.N,HLT*%
X32040000Y-49020000D03*
%TO.P,R27,2*%
%TO.N,GND*%
X37120000Y-49020000D03*
%TD*%
%TO.P,R26,1*%
%TO.N,GND*%
X24360000Y-54100000D03*
%TO.P,R26,2*%
%TO.N,FI*%
X29440000Y-54100000D03*
%TD*%
D14*
%TO.P,Q9,1*%
%TO.N,GND*%
X39720000Y-26795000D03*
D15*
%TO.P,Q9,2*%
%TO.N,PCL*%
X42260000Y-26795000D03*
%TO.P,Q9,3*%
%TO.N,Net-(D9-K)*%
X44800000Y-26795000D03*
%TD*%
D11*
%TO.P,R40,1*%
%TO.N,PCE*%
X43870000Y-74000000D03*
%TO.P,R40,2*%
%TO.N,Net-(R40-Pad2)*%
X43870000Y-79080000D03*
%TD*%
D14*
%TO.P,Q6,1*%
%TO.N,GND*%
X24360000Y-42035000D03*
D15*
%TO.P,Q6,2*%
%TO.N,WRL*%
X26900000Y-42035000D03*
%TO.P,Q6,3*%
%TO.N,Net-(D6-K)*%
X29440000Y-42035000D03*
%TD*%
D14*
%TO.P,Q15,1*%
%TO.N,GND*%
X67840000Y-26795000D03*
D15*
%TO.P,Q15,2*%
%TO.N,MAI*%
X65300000Y-26795000D03*
%TO.P,Q15,3*%
%TO.N,Net-(D15-K)*%
X62760000Y-26795000D03*
%TD*%
D11*
%TO.P,R3,1*%
%TO.N,+5V*%
X16680000Y-16000000D03*
%TO.P,R3,2*%
%TO.N,Net-(D3-A)*%
X21760000Y-16000000D03*
%TD*%
D12*
%TO.P,D7,1*%
%TO.N,Net-(D7-K)*%
X34580000Y-22350000D03*
D13*
%TO.P,D7,2*%
%TO.N,Net-(D7-A)*%
X34580000Y-19810000D03*
%TD*%
D11*
%TO.P,R56,1*%
%TO.N,CLK_S2*%
X42000000Y-59000000D03*
%TO.P,R56,2*%
%TO.N,CLK_N*%
X42000000Y-64080000D03*
%TD*%
D14*
%TO.P,Q4,1*%
%TO.N,GND*%
X21760000Y-42035000D03*
D15*
%TO.P,Q4,2*%
%TO.N,MO*%
X19220000Y-42035000D03*
%TO.P,Q4,3*%
%TO.N,Net-(D4-K)*%
X16680000Y-42035000D03*
%TD*%
D12*
%TO.P,D11,1*%
%TO.N,Net-(D11-K)*%
X49940000Y-22350000D03*
D13*
%TO.P,D11,2*%
%TO.N,Net-(D11-A)*%
X49940000Y-19810000D03*
%TD*%
D18*
%TO.P,H1,1*%
%TO.N,N/C*%
X4000000Y-50000000D03*
%TD*%
D11*
%TO.P,R20,1*%
%TO.N,RST_S2*%
X70440000Y-40765000D03*
%TO.P,R20,2*%
%TO.N,+5V*%
X75520000Y-40765000D03*
%TD*%
%TO.P,R5,1*%
%TO.N,Net-(D5-A)*%
X24360000Y-16000000D03*
%TO.P,R5,2*%
%TO.N,+5V*%
X29440000Y-16000000D03*
%TD*%
%TO.P,R1,1*%
%TO.N,Net-(D1-A)*%
X9000000Y-16000000D03*
%TO.P,R1,2*%
%TO.N,+5V*%
X14080000Y-16000000D03*
%TD*%
%TO.P,R62,1*%
%TO.N,RST_S2*%
X91000000Y-59000000D03*
%TO.P,R62,2*%
%TO.N,Net-(D18-A)*%
X91000000Y-64080000D03*
%TD*%
%TO.P,R36,1*%
%TO.N,INP*%
X62760000Y-54100000D03*
%TO.P,R36,2*%
%TO.N,GND*%
X67840000Y-54100000D03*
%TD*%
%TO.P,R30,1*%
%TO.N,GND*%
X39720000Y-54100000D03*
%TO.P,R30,2*%
%TO.N,MO*%
X44800000Y-54100000D03*
%TD*%
%TO.P,R2,1*%
%TO.N,Net-(D2-A)*%
X9000000Y-31240000D03*
%TO.P,R2,2*%
%TO.N,+5V*%
X14080000Y-31240000D03*
%TD*%
D14*
%TO.P,Q18,1*%
%TO.N,GND*%
X70440000Y-28700000D03*
D15*
%TO.P,Q18,2*%
%TO.N,CLK_S1*%
X72980000Y-28700000D03*
%TO.P,Q18,3*%
%TO.N,CLK_S2*%
X75520000Y-28700000D03*
%TD*%
D14*
%TO.P,Q14,1*%
%TO.N,GND*%
X55080000Y-42035000D03*
D15*
%TO.P,Q14,2*%
%TO.N,F1*%
X57620000Y-42035000D03*
%TO.P,Q14,3*%
%TO.N,Net-(D14-K)*%
X60160000Y-42035000D03*
%TD*%
D12*
%TO.P,D16,1*%
%TO.N,Net-(D16-K)*%
X65300000Y-37590000D03*
D13*
%TO.P,D16,2*%
%TO.N,Net-(D16-A)*%
X65300000Y-35050000D03*
%TD*%
D11*
%TO.P,R41,1*%
%TO.N,PCL*%
X43870000Y-81700000D03*
%TO.P,R41,2*%
%TO.N,Net-(R41-Pad2)*%
X43870000Y-86780000D03*
%TD*%
%TO.P,R42,1*%
%TO.N,FI*%
X43870000Y-89400000D03*
%TO.P,R42,2*%
%TO.N,Net-(R42-Pad2)*%
X43870000Y-94480000D03*
%TD*%
D12*
%TO.P,D3,1*%
%TO.N,Net-(D3-K)*%
X19220000Y-22350000D03*
D13*
%TO.P,D3,2*%
%TO.N,Net-(D3-A)*%
X19220000Y-19810000D03*
%TD*%
D11*
%TO.P,R9,1*%
%TO.N,Net-(D9-A)*%
X39720000Y-16000000D03*
%TO.P,R9,2*%
%TO.N,+5V*%
X44800000Y-16000000D03*
%TD*%
%TO.P,R45,1*%
%TO.N,MI*%
X80590000Y-74000000D03*
%TO.P,R45,2*%
%TO.N,Net-(R45-Pad2)*%
X80590000Y-79080000D03*
%TD*%
D19*
%TO.P,J1,1*%
%TO.N,+5V*%
X10630000Y-7500000D03*
D20*
%TO.P,J1,2*%
X10630000Y-4960000D03*
%TO.P,J1,3*%
%TO.N,GND*%
X13170000Y-7500000D03*
%TO.P,J1,4*%
X13170000Y-4960000D03*
%TO.P,J1,5*%
%TO.N,CLK*%
X15710000Y-7500000D03*
%TO.P,J1,6*%
%TO.N,GND*%
X15710000Y-4960000D03*
%TO.P,J1,7*%
%TO.N,RST*%
X18250000Y-7500000D03*
%TO.P,J1,8*%
%TO.N,GND*%
X18250000Y-4960000D03*
%TO.P,J1,9*%
%TO.N,unconnected-(J1-Pin_9-Pad9)*%
X20790000Y-7500000D03*
%TO.P,J1,10*%
%TO.N,unconnected-(J1-Pin_10-Pad10)*%
X20790000Y-4960000D03*
%TO.P,J1,11*%
%TO.N,unconnected-(J1-Pin_11-Pad11)*%
X23330000Y-7500000D03*
%TO.P,J1,12*%
%TO.N,unconnected-(J1-Pin_12-Pad12)*%
X23330000Y-4960000D03*
%TO.P,J1,13*%
%TO.N,unconnected-(J1-Pin_13-Pad13)*%
X25870000Y-7500000D03*
%TO.P,J1,14*%
%TO.N,unconnected-(J1-Pin_14-Pad14)*%
X25870000Y-4960000D03*
%TO.P,J1,15*%
%TO.N,unconnected-(J1-Pin_15-Pad15)*%
X28410000Y-7500000D03*
%TO.P,J1,16*%
%TO.N,unconnected-(J1-Pin_16-Pad16)*%
X28410000Y-4960000D03*
%TO.P,J1,17*%
%TO.N,unconnected-(J1-Pin_17-Pad17)*%
X30950000Y-7500000D03*
%TO.P,J1,18*%
%TO.N,unconnected-(J1-Pin_18-Pad18)*%
X30950000Y-4960000D03*
%TO.P,J1,19*%
%TO.N,unconnected-(J1-Pin_19-Pad19)*%
X33490000Y-7500000D03*
%TO.P,J1,20*%
%TO.N,unconnected-(J1-Pin_20-Pad20)*%
X33490000Y-4960000D03*
%TO.P,J1,21*%
%TO.N,unconnected-(J1-Pin_21-Pad21)*%
X36030000Y-7500000D03*
%TO.P,J1,22*%
%TO.N,unconnected-(J1-Pin_22-Pad22)*%
X36030000Y-4960000D03*
%TO.P,J1,23*%
%TO.N,unconnected-(J1-Pin_23-Pad23)*%
X38570000Y-7500000D03*
%TO.P,J1,24*%
%TO.N,unconnected-(J1-Pin_24-Pad24)*%
X38570000Y-4960000D03*
%TO.P,J1,25*%
%TO.N,unconnected-(J1-Pin_25-Pad25)*%
X41110000Y-7500000D03*
%TO.P,J1,26*%
%TO.N,unconnected-(J1-Pin_26-Pad26)*%
X41110000Y-4960000D03*
%TO.P,J1,27*%
%TO.N,unconnected-(J1-Pin_27-Pad27)*%
X43650000Y-7500000D03*
%TO.P,J1,28*%
%TO.N,unconnected-(J1-Pin_28-Pad28)*%
X43650000Y-4960000D03*
%TO.P,J1,29*%
%TO.N,unconnected-(J1-Pin_29-Pad29)*%
X46190000Y-7500000D03*
%TO.P,J1,30*%
%TO.N,unconnected-(J1-Pin_30-Pad30)*%
X46190000Y-4960000D03*
%TO.P,J1,31*%
%TO.N,unconnected-(J1-Pin_31-Pad31)*%
X48730000Y-7500000D03*
%TO.P,J1,32*%
%TO.N,unconnected-(J1-Pin_32-Pad32)*%
X48730000Y-4960000D03*
%TO.P,J1,33*%
%TO.N,unconnected-(J1-Pin_33-Pad33)*%
X51270000Y-7500000D03*
%TO.P,J1,34*%
%TO.N,unconnected-(J1-Pin_34-Pad34)*%
X51270000Y-4960000D03*
%TO.P,J1,35*%
%TO.N,unconnected-(J1-Pin_35-Pad35)*%
X53810000Y-7500000D03*
%TO.P,J1,36*%
%TO.N,unconnected-(J1-Pin_36-Pad36)*%
X53810000Y-4960000D03*
%TO.P,J1,37*%
%TO.N,unconnected-(J1-Pin_37-Pad37)*%
X56350000Y-7500000D03*
%TO.P,J1,38*%
%TO.N,unconnected-(J1-Pin_38-Pad38)*%
X56350000Y-4960000D03*
%TO.P,J1,39*%
%TO.N,unconnected-(J1-Pin_39-Pad39)*%
X58890000Y-7500000D03*
%TO.P,J1,40*%
%TO.N,unconnected-(J1-Pin_40-Pad40)*%
X58890000Y-4960000D03*
%TO.P,J1,41*%
%TO.N,unconnected-(J1-Pin_41-Pad41)*%
X61430000Y-7500000D03*
%TO.P,J1,42*%
%TO.N,unconnected-(J1-Pin_42-Pad42)*%
X61430000Y-4960000D03*
%TO.P,J1,43*%
%TO.N,unconnected-(J1-Pin_43-Pad43)*%
X63970000Y-7500000D03*
%TO.P,J1,44*%
%TO.N,unconnected-(J1-Pin_44-Pad44)*%
X63970000Y-4960000D03*
%TO.P,J1,45*%
%TO.N,unconnected-(J1-Pin_45-Pad45)*%
X66510000Y-7500000D03*
%TO.P,J1,46*%
%TO.N,unconnected-(J1-Pin_46-Pad46)*%
X66510000Y-4960000D03*
%TO.P,J1,47*%
%TO.N,OI*%
X69050000Y-7500000D03*
%TO.P,J1,48*%
%TO.N,IO*%
X69050000Y-4960000D03*
%TO.P,J1,49*%
%TO.N,II*%
X71590000Y-7500000D03*
%TO.P,J1,50*%
%TO.N,PCE*%
X71590000Y-4960000D03*
%TO.P,J1,51*%
%TO.N,PCL*%
X74130000Y-7500000D03*
%TO.P,J1,52*%
%TO.N,FI*%
X74130000Y-4960000D03*
%TO.P,J1,53*%
%TO.N,HLT*%
X76670000Y-7500000D03*
%TO.P,J1,54*%
%TO.N,MAI*%
X76670000Y-4960000D03*
%TO.P,J1,55*%
%TO.N,MI*%
X79210000Y-7500000D03*
%TO.P,J1,56*%
%TO.N,MO*%
X79210000Y-4960000D03*
%TO.P,J1,57*%
%TO.N,WRL*%
X81750000Y-7500000D03*
%TO.P,J1,58*%
%TO.N,WRH*%
X81750000Y-4960000D03*
%TO.P,J1,59*%
%TO.N,ONE*%
X84290000Y-7500000D03*
%TO.P,J1,60*%
%TO.N,F0*%
X84290000Y-4960000D03*
%TO.P,J1,61*%
%TO.N,F1*%
X86830000Y-7500000D03*
%TO.P,J1,62*%
%TO.N,INP*%
X86830000Y-4960000D03*
%TO.P,J1,63*%
%TO.N,+5V*%
X89370000Y-7500000D03*
%TO.P,J1,64*%
%TO.N,GND*%
X89370000Y-4960000D03*
%TD*%
D11*
%TO.P,R53,1*%
%TO.N,Net-(R53-Pad1)*%
X22000000Y-59000000D03*
%TO.P,R53,2*%
%TO.N,Net-(C3-Pad1)*%
X22000000Y-64080000D03*
%TD*%
%TO.P,R43,1*%
%TO.N,HLT*%
X37870000Y-74000000D03*
%TO.P,R43,2*%
%TO.N,Net-(R43-Pad2)*%
X37870000Y-79080000D03*
%TD*%
%TO.P,R44,1*%
%TO.N,MAI*%
X37870000Y-81700000D03*
%TO.P,R44,2*%
%TO.N,Net-(R44-Pad2)*%
X37870000Y-86780000D03*
%TD*%
D16*
%TO.P,C4,1*%
%TO.N,Net-(C4-Pad1)*%
X71000000Y-59000000D03*
D11*
%TO.P,C4,2*%
%TO.N,GND*%
X71000000Y-61000000D03*
%TD*%
D12*
%TO.P,D8,1*%
%TO.N,Net-(D8-K)*%
X34580000Y-37590000D03*
D13*
%TO.P,D8,2*%
%TO.N,Net-(D8-A)*%
X34580000Y-35050000D03*
%TD*%
D11*
%TO.P,R48,1*%
%TO.N,WRH*%
X74590000Y-74000000D03*
%TO.P,R48,2*%
%TO.N,Net-(R48-Pad2)*%
X74590000Y-79080000D03*
%TD*%
D14*
%TO.P,Q19,1*%
%TO.N,GND*%
X70440000Y-36955000D03*
D15*
%TO.P,Q19,2*%
%TO.N,RST_N*%
X72980000Y-36955000D03*
%TO.P,Q19,3*%
%TO.N,RST_S1*%
X75520000Y-36955000D03*
%TD*%
D17*
%TO.P,SW3,1*%
%TO.N,+5V*%
X8000000Y-61000000D03*
X14500000Y-61000000D03*
%TO.P,SW3,2*%
%TO.N,Net-(R53-Pad1)*%
X8000000Y-65500000D03*
X14500000Y-65500000D03*
%TD*%
D11*
%TO.P,R32,1*%
%TO.N,WRH*%
X47400000Y-54100000D03*
%TO.P,R32,2*%
%TO.N,GND*%
X52480000Y-54100000D03*
%TD*%
D12*
%TO.P,D2,1*%
%TO.N,Net-(D2-K)*%
X11540000Y-37590000D03*
D13*
%TO.P,D2,2*%
%TO.N,Net-(D2-A)*%
X11540000Y-35050000D03*
%TD*%
D11*
%TO.P,R57,1*%
%TO.N,CLK_S2*%
X47000000Y-59000000D03*
%TO.P,R57,2*%
%TO.N,Net-(D17-A)*%
X47000000Y-64080000D03*
%TD*%
%TO.P,R34,1*%
%TO.N,GND*%
X55080000Y-54100000D03*
%TO.P,R34,2*%
%TO.N,F0*%
X60160000Y-54100000D03*
%TD*%
D12*
%TO.P,D14,1*%
%TO.N,Net-(D14-K)*%
X57620000Y-37590000D03*
D13*
%TO.P,D14,2*%
%TO.N,Net-(D14-A)*%
X57620000Y-35050000D03*
%TD*%
D11*
%TO.P,C1,1*%
%TO.N,+5V*%
X95000000Y-16500000D03*
%TO.P,C1,2*%
%TO.N,GND*%
X95000000Y-19000000D03*
%TD*%
D12*
%TO.P,D1,1*%
%TO.N,Net-(D1-K)*%
X11540000Y-22350000D03*
D13*
%TO.P,D1,2*%
%TO.N,Net-(D1-A)*%
X11540000Y-19810000D03*
%TD*%
D11*
%TO.P,R12,1*%
%TO.N,+5V*%
X47400000Y-31240000D03*
%TO.P,R12,2*%
%TO.N,Net-(D12-A)*%
X52480000Y-31240000D03*
%TD*%
%TO.P,R55,1*%
%TO.N,Net-(C3-Pad1)*%
X37000000Y-59000000D03*
%TO.P,R55,2*%
%TO.N,CLK_N*%
X37000000Y-64080000D03*
%TD*%
%TO.P,R17,1*%
%TO.N,CLK_S1*%
X70440000Y-16000000D03*
%TO.P,R17,2*%
%TO.N,+5V*%
X75520000Y-16000000D03*
%TD*%
D12*
%TO.P,D15,1*%
%TO.N,Net-(D15-K)*%
X65300000Y-22350000D03*
D13*
%TO.P,D15,2*%
%TO.N,Net-(D15-A)*%
X65300000Y-19810000D03*
%TD*%
D11*
%TO.P,R25,1*%
%TO.N,GND*%
X24360000Y-49020000D03*
%TO.P,R25,2*%
%TO.N,PCL*%
X29440000Y-49020000D03*
%TD*%
%TO.P,R29,1*%
%TO.N,GND*%
X39720000Y-49020000D03*
%TO.P,R29,2*%
%TO.N,MI*%
X44800000Y-49020000D03*
%TD*%
D14*
%TO.P,Q16,1*%
%TO.N,GND*%
X67840000Y-42035000D03*
D15*
%TO.P,Q16,2*%
%TO.N,INP*%
X65300000Y-42035000D03*
%TO.P,Q16,3*%
%TO.N,Net-(D16-K)*%
X62760000Y-42035000D03*
%TD*%
D11*
%TO.P,R7,1*%
%TO.N,+5V*%
X32040000Y-16000000D03*
%TO.P,R7,2*%
%TO.N,Net-(D7-A)*%
X37120000Y-16000000D03*
%TD*%
%TO.P,R13,1*%
%TO.N,Net-(D13-A)*%
X55080000Y-16000000D03*
%TO.P,R13,2*%
%TO.N,+5V*%
X60160000Y-16000000D03*
%TD*%
D14*
%TO.P,Q3,1*%
%TO.N,GND*%
X21760000Y-26795000D03*
D15*
%TO.P,Q3,2*%
%TO.N,IO*%
X19220000Y-26795000D03*
%TO.P,Q3,3*%
%TO.N,Net-(D3-K)*%
X16680000Y-26795000D03*
%TD*%
D11*
%TO.P,R35,1*%
%TO.N,F1*%
X62760000Y-49020000D03*
%TO.P,R35,2*%
%TO.N,GND*%
X67840000Y-49020000D03*
%TD*%
D14*
%TO.P,Q20,1*%
%TO.N,GND*%
X70440000Y-45210000D03*
D15*
%TO.P,Q20,2*%
%TO.N,RST_S1*%
X72980000Y-45210000D03*
%TO.P,Q20,3*%
%TO.N,RST_S2*%
X75520000Y-45210000D03*
%TD*%
D14*
%TO.P,Q13,1*%
%TO.N,GND*%
X55080000Y-26795000D03*
D15*
%TO.P,Q13,2*%
%TO.N,HLT*%
X57620000Y-26795000D03*
%TO.P,Q13,3*%
%TO.N,Net-(D13-K)*%
X60160000Y-26795000D03*
%TD*%
D11*
%TO.P,R59,1*%
%TO.N,Net-(C4-Pad1)*%
X76000000Y-59000000D03*
%TO.P,R59,2*%
%TO.N,GND*%
X76000000Y-64080000D03*
%TD*%
D10*
%TO.P,D18,1*%
%TO.N,RST*%
X66000000Y-68000000D03*
D11*
%TO.P,D18,2*%
%TO.N,Net-(D18-A)*%
X73620000Y-68000000D03*
%TD*%
%TO.P,R18,1*%
%TO.N,CLK_S2*%
X70440000Y-24255000D03*
%TO.P,R18,2*%
%TO.N,+5V*%
X75520000Y-24255000D03*
%TD*%
D18*
%TO.P,H2,1*%
%TO.N,N/C*%
X96000000Y-50000000D03*
%TD*%
D14*
%TO.P,Q17,1*%
%TO.N,GND*%
X70440000Y-20445000D03*
D15*
%TO.P,Q17,2*%
%TO.N,CLK_N*%
X72980000Y-20445000D03*
%TO.P,Q17,3*%
%TO.N,CLK_S1*%
X75520000Y-20445000D03*
%TD*%
D11*
%TO.P,R51,1*%
%TO.N,F1*%
X68590000Y-74000000D03*
%TO.P,R51,2*%
%TO.N,Net-(R51-Pad2)*%
X68590000Y-79080000D03*
%TD*%
%TO.P,R33,1*%
%TO.N,GND*%
X55080000Y-49020000D03*
%TO.P,R33,2*%
%TO.N,ONE*%
X60160000Y-49020000D03*
%TD*%
%TO.P,R4,1*%
%TO.N,+5V*%
X16680000Y-31240000D03*
%TO.P,R4,2*%
%TO.N,Net-(D4-A)*%
X21760000Y-31240000D03*
%TD*%
D10*
%TO.P,SW1,1*%
%TO.N,Net-(R37-Pad2)*%
X53870000Y-74000000D03*
D11*
%TO.P,SW1,2*%
%TO.N,Net-(R38-Pad2)*%
X53870000Y-76540000D03*
%TO.P,SW1,3*%
%TO.N,Net-(R39-Pad2)*%
X53870000Y-79080000D03*
%TO.P,SW1,4*%
%TO.N,Net-(R40-Pad2)*%
X53870000Y-81620000D03*
%TO.P,SW1,5*%
%TO.N,Net-(R41-Pad2)*%
X53870000Y-84160000D03*
%TO.P,SW1,6*%
%TO.N,Net-(R42-Pad2)*%
X53870000Y-86700000D03*
%TO.P,SW1,7*%
%TO.N,Net-(R43-Pad2)*%
X53870000Y-89240000D03*
%TO.P,SW1,8*%
%TO.N,Net-(R44-Pad2)*%
X53870000Y-91780000D03*
%TO.P,SW1,9*%
%TO.N,+5V*%
X61490000Y-91780000D03*
%TO.P,SW1,10*%
X61490000Y-89240000D03*
%TO.P,SW1,11*%
X61490000Y-86700000D03*
%TO.P,SW1,12*%
X61490000Y-84160000D03*
%TO.P,SW1,13*%
X61490000Y-81620000D03*
%TO.P,SW1,14*%
X61490000Y-79080000D03*
%TO.P,SW1,15*%
X61490000Y-76540000D03*
%TO.P,SW1,16*%
X61490000Y-74000000D03*
%TD*%
D14*
%TO.P,Q11,1*%
%TO.N,GND*%
X52480000Y-26795000D03*
D15*
%TO.P,Q11,2*%
%TO.N,FI*%
X49940000Y-26795000D03*
%TO.P,Q11,3*%
%TO.N,Net-(D11-K)*%
X47400000Y-26795000D03*
%TD*%
D14*
%TO.P,Q10,1*%
%TO.N,GND*%
X39720000Y-42035000D03*
D15*
%TO.P,Q10,2*%
%TO.N,ONE*%
X42260000Y-42035000D03*
%TO.P,Q10,3*%
%TO.N,Net-(D10-K)*%
X44800000Y-42035000D03*
%TD*%
D11*
%TO.P,R19,1*%
%TO.N,RST_S1*%
X70440000Y-32510000D03*
%TO.P,R19,2*%
%TO.N,+5V*%
X75520000Y-32510000D03*
%TD*%
D21*
%TO.N,+5V*%
X10630000Y-14000000D03*
X46130000Y-14000000D03*
X15410000Y-14000000D03*
X76850000Y-14000000D03*
X89370000Y-14000000D03*
X30770000Y-14000000D03*
X61490000Y-14000000D03*
X92210000Y-14000000D03*
D22*
%TO.N,CLK_N*%
X52257600Y-40310600D03*
%TO.N,CLK_S2*%
X60137300Y-43626700D03*
%TO.N,F0*%
X82155100Y-36078600D03*
%TO.N,F1*%
X83777900Y-15553100D03*
%TO.N,FI*%
X32511600Y-60616400D03*
X34652500Y-40124400D03*
X64020000Y-15547100D03*
D21*
%TO.N,GND*%
X89370000Y-2460000D03*
X69170000Y-12500000D03*
X38450000Y-12500000D03*
X95000000Y-30500000D03*
X23090000Y-12500000D03*
X53810000Y-12500000D03*
X18250000Y-2460000D03*
X95000000Y-21500000D03*
X7730000Y-12500000D03*
D22*
%TO.N,HLT*%
X73406000Y-15263000D03*
%TO.N,II*%
X64880600Y-14868100D03*
X36186700Y-61175600D03*
%TO.N,INP*%
X83205900Y-16871700D03*
%TO.N,IO*%
X57525800Y-16176200D03*
%TO.N,MAI*%
X35527400Y-56683800D03*
X37654800Y-43644400D03*
%TO.N,MI*%
X39195800Y-51004800D03*
%TO.N,ONE*%
X82691300Y-15021700D03*
X64146400Y-51901100D03*
%TO.N,PCE*%
X20520400Y-40487500D03*
X56407400Y-18075000D03*
%TO.N,RST*%
X49119300Y-51566000D03*
%TO.N,WRL*%
X81518200Y-55890200D03*
%TD*%
%TO.N,+5V*%
D23*
X76850000Y-14000000D02*
X98000000Y-14000000D01*
D24*
X98000000Y-26000000D02*
X95000000Y-26000000D01*
D23*
X10630000Y-14000000D02*
X15410000Y-14000000D01*
X15410000Y-14000000D02*
X76850000Y-14000000D01*
D24*
X98000000Y-14000000D02*
X98000000Y-26000000D01*
D25*
X8000000Y-61000000D02*
X14500000Y-61000000D01*
D24*
X95000000Y-14000000D02*
X95000000Y-16500000D01*
X10630000Y-7500000D02*
X10630000Y-4960000D01*
D25*
X58500000Y-61000000D02*
X52000000Y-61000000D01*
%TO.N,CLK_N*%
X57707200Y-33261700D02*
X52257600Y-38711300D01*
X61583900Y-31319900D02*
X59642100Y-33261700D01*
X72980000Y-20445000D02*
X71742200Y-21682800D01*
X37000000Y-64080000D02*
X42000000Y-64080000D01*
X63799600Y-29757600D02*
X62705100Y-29757600D01*
X62705100Y-29757600D02*
X61583900Y-30878800D01*
X66337400Y-25838900D02*
X66337400Y-27219800D01*
X66337400Y-27219800D02*
X63799600Y-29757600D01*
X70493500Y-21682800D02*
X66337400Y-25838900D01*
X59642100Y-33261700D02*
X57707200Y-33261700D01*
X61583900Y-30878800D02*
X61583900Y-31319900D01*
X52257600Y-38711300D02*
X52257600Y-40310600D01*
X71742200Y-21682800D02*
X70493500Y-21682800D01*
%TO.N,CLK_S2*%
X63054100Y-40307700D02*
X61583900Y-41777900D01*
X70702000Y-24255000D02*
X75147000Y-28700000D01*
X75147000Y-29913100D02*
X64752400Y-40307700D01*
X61583900Y-42180100D02*
X60137300Y-43626700D01*
X61583900Y-41777900D02*
X61583900Y-42180100D01*
X75147000Y-28700000D02*
X75147000Y-29913100D01*
X64752400Y-40307700D02*
X63054100Y-40307700D01*
X70440000Y-24255000D02*
X70702000Y-24255000D01*
X75147000Y-28700000D02*
X75520000Y-28700000D01*
%TO.N,F0*%
X60160000Y-54100000D02*
X61233900Y-55173900D01*
X82010500Y-35934000D02*
X82155100Y-36078600D01*
X71976200Y-46376400D02*
X71976200Y-36506200D01*
X72548400Y-35934000D02*
X82010500Y-35934000D01*
X60160000Y-52255000D02*
X60160000Y-54100000D01*
X71976200Y-36506200D02*
X72548400Y-35934000D01*
X61233900Y-55173900D02*
X63178700Y-55173900D01*
X63178700Y-55173900D02*
X71976200Y-46376400D01*
X49940000Y-42035000D02*
X60160000Y-52255000D01*
%TO.N,F1*%
X57620000Y-42035000D02*
X62760000Y-47175000D01*
X69171800Y-27711000D02*
X64149800Y-32733000D01*
X70268500Y-22912800D02*
X69171800Y-24009500D01*
X83292800Y-15553100D02*
X75933100Y-22912800D01*
X69171800Y-24009500D02*
X69171800Y-27711000D01*
X64149800Y-34549400D02*
X57620000Y-41079200D01*
X83777900Y-15553100D02*
X83292800Y-15553100D01*
X64149800Y-32733000D02*
X64149800Y-34549400D01*
X75933100Y-22912800D02*
X70268500Y-22912800D01*
X62760000Y-47175000D02*
X62760000Y-49020000D01*
X57620000Y-41079200D02*
X57620000Y-42035000D01*
%TO.N,FI*%
X29440000Y-54100000D02*
X29440000Y-57936400D01*
X29440000Y-57936400D02*
X32120000Y-60616400D01*
X64020000Y-15547100D02*
X64020000Y-16272800D01*
X49940000Y-26795000D02*
X47349500Y-29385500D01*
X45134600Y-29385500D02*
X34652500Y-39867600D01*
X55655000Y-21080000D02*
X49940000Y-26795000D01*
X34652500Y-39867600D02*
X34652500Y-40124400D01*
X64020000Y-16272800D02*
X59212800Y-21080000D01*
X47349500Y-29385500D02*
X45134600Y-29385500D01*
X59212800Y-21080000D02*
X55655000Y-21080000D01*
X32120000Y-60616400D02*
X32511600Y-60616400D01*
%TO.N,GND*%
D24*
X13170000Y-7500000D02*
X13170000Y-12500000D01*
X71000000Y-61000000D02*
X76000000Y-64080000D01*
X95000000Y-28000000D02*
X95000000Y-30500000D01*
X95000000Y-19000000D02*
X95000000Y-21500000D01*
D23*
X7730000Y-12500000D02*
X69170000Y-12500000D01*
D24*
X13170000Y-7500000D02*
X13170000Y-4960000D01*
X18250000Y-4960000D02*
X18250000Y-2460000D01*
X89370000Y-4960000D02*
X89370000Y-2460000D01*
X27000000Y-61000000D02*
X32000000Y-64080000D01*
X13170000Y-4960000D02*
X18250000Y-4960000D01*
%TO.N,HLT*%
D25*
X32040000Y-49020000D02*
X25878300Y-42858300D01*
X25878300Y-42858300D02*
X25878300Y-41634700D01*
X67649300Y-21019700D02*
X63395300Y-21019700D01*
X52162300Y-30000400D02*
X54414600Y-30000400D01*
X73406000Y-15263000D02*
X67649300Y-21019700D01*
X63395300Y-21019700D02*
X57620000Y-26795000D01*
X26836900Y-40676100D02*
X41486600Y-40676100D01*
X41486600Y-40676100D02*
X52162300Y-30000400D01*
X54414600Y-30000400D02*
X57620000Y-26795000D01*
X25878300Y-41634700D02*
X26836900Y-40676100D01*
%TO.N,II*%
X64880600Y-14868100D02*
X64880600Y-14868200D01*
X29037500Y-24657500D02*
X26900000Y-26795000D01*
X13282200Y-38876300D02*
X10529100Y-41629400D01*
X32154700Y-61175600D02*
X36186700Y-61175600D01*
X59614200Y-14868200D02*
X57079000Y-17403400D01*
X27323000Y-56343900D02*
X32154700Y-61175600D01*
X16680000Y-49020000D02*
X19290700Y-51630700D01*
X35052500Y-24657500D02*
X29037500Y-24657500D01*
X26900000Y-26795000D02*
X23506700Y-30188300D01*
X19290700Y-51630700D02*
X23389200Y-51630700D01*
X23389200Y-51630700D02*
X27323000Y-55564500D01*
X57079000Y-17403400D02*
X42306600Y-17403400D01*
X10529100Y-41629400D02*
X10529100Y-42869100D01*
X10529100Y-42869100D02*
X16680000Y-49020000D01*
X23506700Y-30188300D02*
X21324400Y-30188300D01*
X27323000Y-55564500D02*
X27323000Y-56343900D01*
X21324400Y-30188300D02*
X13282200Y-38230500D01*
X64880600Y-14868200D02*
X59614200Y-14868200D01*
X13282200Y-38230500D02*
X13282200Y-38876300D01*
X42306600Y-17403400D02*
X35052500Y-24657500D01*
%TO.N,INP*%
X65300000Y-51560000D02*
X62760000Y-54100000D01*
X83205900Y-16871700D02*
X83205900Y-22887700D01*
X71624500Y-37698000D02*
X68664600Y-40657900D01*
X66677100Y-40657900D02*
X65300000Y-42035000D01*
X83205900Y-22887700D02*
X71624500Y-34469100D01*
X65300000Y-42035000D02*
X65300000Y-51560000D01*
X71624500Y-34469100D02*
X71624500Y-37698000D01*
X68664600Y-40657900D02*
X66677100Y-40657900D01*
%TO.N,IO*%
X56650300Y-17051700D02*
X39288300Y-17051700D01*
X57525800Y-16176200D02*
X56650300Y-17051700D01*
X19220000Y-31166600D02*
X12922900Y-37463700D01*
X14080000Y-54100000D02*
X14080000Y-54524400D01*
X10168200Y-50188200D02*
X14080000Y-54100000D01*
X32174700Y-72619100D02*
X40789100Y-72619100D01*
X10168200Y-41182800D02*
X10168200Y-50188200D01*
X12922900Y-37463700D02*
X12922900Y-38428100D01*
X35259900Y-21080100D02*
X24934900Y-21080100D01*
X39288300Y-17051700D02*
X35259900Y-21080100D01*
X14080000Y-54524400D02*
X32174700Y-72619100D01*
X19220000Y-26795000D02*
X19220000Y-31166600D01*
X12922900Y-38428100D02*
X10168200Y-41182800D01*
X40789100Y-72619100D02*
X49870000Y-81700000D01*
X24934900Y-21080100D02*
X19220000Y-26795000D01*
%TO.N,MAI*%
X49282000Y-40423900D02*
X60357600Y-29348300D01*
X60357600Y-29348300D02*
X62746700Y-29348300D01*
X32040000Y-54100000D02*
X34623800Y-56683800D01*
X40866100Y-41946400D02*
X42388600Y-40423900D01*
X42388600Y-40423900D02*
X49282000Y-40423900D01*
X34623800Y-56683800D02*
X35527400Y-56683800D01*
X40054300Y-43644400D02*
X40866100Y-42832600D01*
X62746700Y-29348300D02*
X65300000Y-26795000D01*
X40866100Y-42832600D02*
X40866100Y-41946400D01*
X37654800Y-43644400D02*
X40054300Y-43644400D01*
%TO.N,MI*%
X80590000Y-74000000D02*
X75939700Y-69349700D01*
X20509800Y-51004800D02*
X11540000Y-42035000D01*
X52505200Y-62751000D02*
X51447500Y-62751000D01*
X59103900Y-69349700D02*
X52505200Y-62751000D01*
X39195800Y-51004800D02*
X20509800Y-51004800D01*
X51447500Y-62751000D02*
X49535100Y-60838600D01*
X49535100Y-53755100D02*
X44800000Y-49020000D01*
X49535100Y-60838600D02*
X49535100Y-53755100D01*
X75939700Y-69349700D02*
X59103900Y-69349700D01*
%TO.N,MO*%
X51324500Y-63629400D02*
X48437000Y-60741900D01*
X80590000Y-81700000D02*
X71838300Y-72948300D01*
X27477000Y-50292000D02*
X19220000Y-42035000D01*
X48437000Y-57737000D02*
X44800000Y-54100000D01*
X40992000Y-50292000D02*
X27477000Y-50292000D01*
X71838300Y-72948300D02*
X61638400Y-72948300D01*
X52319500Y-63629400D02*
X51324500Y-63629400D01*
X61638400Y-72948300D02*
X52319500Y-63629400D01*
X48437000Y-60741900D02*
X48437000Y-57737000D01*
X44800000Y-54100000D02*
X40992000Y-50292000D01*
%TO.N,Net-(C3-Pad1)*%
X32000000Y-59000000D02*
X37000000Y-59000000D01*
%TO.N,Net-(C4-Pad1)*%
X66000000Y-64080000D02*
X71000000Y-59080000D01*
X76000000Y-59000000D02*
X81000000Y-59000000D01*
X71000000Y-59080000D02*
X71000000Y-59000000D01*
%TO.N,Net-(D5-A)*%
X24360000Y-17270000D02*
X24360000Y-16000000D01*
X26900000Y-19810000D02*
X24360000Y-17270000D01*
%TO.N,Net-(D8-A)*%
X34580000Y-35050000D02*
X37120000Y-32510000D01*
X37120000Y-32510000D02*
X37120000Y-31240000D01*
%TO.N,Net-(D11-K)*%
X49940000Y-23501700D02*
X47400000Y-26041700D01*
X47400000Y-26041700D02*
X47400000Y-26795000D01*
X49940000Y-22350000D02*
X49940000Y-23501700D01*
%TO.N,Net-(D15-K)*%
X65300000Y-22350000D02*
X65300000Y-23501700D01*
X65300000Y-23501700D02*
X62760000Y-26041700D01*
X62760000Y-26041700D02*
X62760000Y-26795000D01*
%TO.N,Net-(D16-A)*%
X65300000Y-35050000D02*
X67840000Y-32510000D01*
X67840000Y-32510000D02*
X67840000Y-31240000D01*
%TO.N,Net-(D17-A)*%
X29620000Y-68000000D02*
X43080000Y-68000000D01*
X43080000Y-68000000D02*
X47000000Y-64080000D01*
%TO.N,Net-(D18-A)*%
X73620000Y-68000000D02*
X87080000Y-68000000D01*
X87080000Y-68000000D02*
X91000000Y-64080000D01*
%TO.N,Net-(R40-Pad2)*%
X53870000Y-81620000D02*
X52738200Y-82751800D01*
X47541800Y-82751800D02*
X43870000Y-79080000D01*
X52738200Y-82751800D02*
X47541800Y-82751800D01*
%TO.N,Net-(R41-Pad2)*%
X46490000Y-84160000D02*
X53870000Y-84160000D01*
X43870000Y-86780000D02*
X46490000Y-84160000D01*
%TO.N,Net-(R42-Pad2)*%
X54980800Y-87810800D02*
X53870000Y-86700000D01*
X54980800Y-92161400D02*
X54980800Y-87810800D01*
X53718400Y-93423800D02*
X54980800Y-92161400D01*
X44926200Y-93423800D02*
X53718400Y-93423800D01*
X43870000Y-94480000D02*
X44926200Y-93423800D01*
%TO.N,Net-(R43-Pad2)*%
X42204000Y-83414000D02*
X42204000Y-86628800D01*
X37870000Y-79080000D02*
X42204000Y-83414000D01*
X43665200Y-88090000D02*
X52720000Y-88090000D01*
X52720000Y-88090000D02*
X53870000Y-89240000D01*
X42204000Y-86628800D02*
X43665200Y-88090000D01*
%TO.N,Net-(R44-Pad2)*%
X37870000Y-86780000D02*
X42870000Y-91780000D01*
X42870000Y-91780000D02*
X53870000Y-91780000D01*
%TO.N,Net-(R45-Pad2)*%
X80590000Y-78000000D02*
X84590000Y-74000000D01*
X80590000Y-79080000D02*
X80590000Y-78000000D01*
%TO.N,Net-(R46-Pad2)*%
X84870100Y-85430000D02*
X85649800Y-84650300D01*
X85649800Y-84650300D02*
X85649800Y-77599800D01*
X80590000Y-86780000D02*
X81940000Y-85430000D01*
X85649800Y-77599800D02*
X84590000Y-76540000D01*
X81940000Y-85430000D02*
X84870100Y-85430000D01*
%TO.N,Net-(R48-Pad2)*%
X78261700Y-82751700D02*
X74590000Y-79080000D01*
X83458300Y-82751700D02*
X78261700Y-82751700D01*
X84590000Y-81620000D02*
X83458300Y-82751700D01*
%TO.N,Net-(R49-Pad2)*%
X77210000Y-84160000D02*
X84590000Y-84160000D01*
X74590000Y-86780000D02*
X77210000Y-84160000D01*
%TO.N,Net-(R50-Pad2)*%
X77034500Y-94480000D02*
X84590000Y-86924500D01*
X74590000Y-94480000D02*
X77034500Y-94480000D01*
X84590000Y-86924500D02*
X84590000Y-86700000D01*
%TO.N,Net-(R51-Pad2)*%
X72363500Y-82853500D02*
X72363500Y-93779900D01*
X68590000Y-79080000D02*
X72363500Y-82853500D01*
X83293500Y-89240000D02*
X84590000Y-89240000D01*
X77001800Y-95531700D02*
X83293500Y-89240000D01*
X72363500Y-93779900D02*
X74115300Y-95531700D01*
X74115300Y-95531700D02*
X77001800Y-95531700D01*
%TO.N,Net-(R53-Pad1)*%
X14500000Y-65500000D02*
X8000000Y-65500000D01*
%TO.N,Net-(R58-Pad1)*%
X66000000Y-59000000D02*
X59500000Y-65500000D01*
X59500000Y-65500000D02*
X58500000Y-65500000D01*
%TO.N,OI*%
X32025600Y-62142700D02*
X46557800Y-62142700D01*
X22557900Y-57497900D02*
X27380800Y-57497900D01*
X14080000Y-49020000D02*
X22557900Y-57497900D01*
X10343900Y-25598900D02*
X11540000Y-26795000D01*
X49870000Y-65454900D02*
X49870000Y-74000000D01*
X10547100Y-13151700D02*
X9971400Y-13727400D01*
X69050000Y-7500000D02*
X69858200Y-8308200D01*
X27380800Y-57497900D02*
X32025600Y-62142700D01*
X10343900Y-14943900D02*
X10343900Y-25598900D01*
X69468600Y-13151700D02*
X10547100Y-13151700D01*
X46557800Y-62142700D02*
X49870000Y-65454900D01*
X69858200Y-12762100D02*
X69468600Y-13151700D01*
X9971400Y-13727400D02*
X9971400Y-14571400D01*
X9971400Y-14571400D02*
X10343900Y-14943900D01*
X69858200Y-8308200D02*
X69858200Y-12762100D01*
%TO.N,ONE*%
X66726000Y-29659500D02*
X66726000Y-25958000D01*
X74250100Y-20674800D02*
X74250100Y-20290100D01*
X56564100Y-41031200D02*
X56564100Y-45424100D01*
X43263800Y-41031200D02*
X56564100Y-41031200D01*
X59238600Y-37146900D02*
X66726000Y-29659500D01*
X56564100Y-41031200D02*
X59238600Y-38356700D01*
X63041100Y-51901100D02*
X64146400Y-51901100D01*
X72406500Y-22518400D02*
X74250100Y-20674800D01*
X66726000Y-25958000D02*
X70165600Y-22518400D01*
X59238600Y-38356700D02*
X59238600Y-37146900D01*
X60160000Y-49020000D02*
X63041100Y-51901100D01*
X42260000Y-42035000D02*
X43263800Y-41031200D01*
X56564100Y-45424100D02*
X60160000Y-49020000D01*
X70165600Y-22518400D02*
X72406500Y-22518400D01*
X74250100Y-20290100D02*
X79518500Y-15021700D01*
X79518500Y-15021700D02*
X82691300Y-15021700D01*
%TO.N,PCE*%
X20520400Y-38627300D02*
X20520400Y-40487500D01*
X29237700Y-69133900D02*
X16680000Y-56576200D01*
X49565500Y-18075000D02*
X43054600Y-24585900D01*
X16680000Y-56576200D02*
X16680000Y-54100000D01*
X34580000Y-26795000D02*
X32392900Y-28982100D01*
X39003900Y-69133900D02*
X29237700Y-69133900D01*
X30165600Y-28982100D02*
X20520400Y-38627300D01*
X43870000Y-74000000D02*
X39003900Y-69133900D01*
X36789100Y-24585900D02*
X34580000Y-26795000D01*
X43054600Y-24585900D02*
X36789100Y-24585900D01*
X32392900Y-28982100D02*
X30165600Y-28982100D01*
X56407400Y-18075000D02*
X49565500Y-18075000D01*
%TO.N,PCL*%
X42260000Y-26795000D02*
X39404800Y-29650200D01*
X25505100Y-41339900D02*
X25505100Y-45085100D01*
X25505100Y-45085100D02*
X29440000Y-49020000D01*
X39404800Y-29650200D02*
X37194800Y-29650200D01*
X37194800Y-29650200D02*
X25505100Y-41339900D01*
%TO.N,RST*%
X53037800Y-62375900D02*
X51582900Y-62375900D01*
X51582900Y-62375900D02*
X50722300Y-61515300D01*
X58661900Y-68000000D02*
X53037800Y-62375900D01*
X66000000Y-68000000D02*
X58661900Y-68000000D01*
X50722300Y-53169000D02*
X49119300Y-51566000D01*
X50722300Y-61515300D02*
X50722300Y-53169000D01*
%TO.N,RST_N*%
X84930000Y-63010000D02*
X86000000Y-64080000D01*
X74250100Y-46409300D02*
X82070000Y-54229200D01*
X72980000Y-36955000D02*
X74250100Y-38225100D01*
X82070000Y-54229200D02*
X82070000Y-63010000D01*
X74250100Y-38225100D02*
X74250100Y-46409300D01*
X82070000Y-63010000D02*
X84930000Y-63010000D01*
X82070000Y-63010000D02*
X81000000Y-64080000D01*
%TO.N,RST_S2*%
X86000000Y-59000000D02*
X91000000Y-59000000D01*
X86000000Y-55690000D02*
X75520000Y-45210000D01*
X86000000Y-59000000D02*
X86000000Y-55690000D01*
%TO.N,WRH*%
X52359500Y-63102700D02*
X51295100Y-63102700D01*
X59309900Y-70053100D02*
X52359500Y-63102700D01*
X46645000Y-54100000D02*
X47400000Y-54100000D01*
X70643100Y-70053100D02*
X59309900Y-70053100D01*
X34580000Y-42035000D02*
X46645000Y-54100000D01*
X51295100Y-63102700D02*
X49138800Y-60946400D01*
X74590000Y-74000000D02*
X70643100Y-70053100D01*
X49138800Y-60946400D02*
X49138800Y-55838800D01*
X49138800Y-55838800D02*
X47400000Y-54100000D01*
%TO.N,WRL*%
X38716500Y-45525200D02*
X43905200Y-45525200D01*
X36115900Y-42924600D02*
X38716500Y-45525200D01*
X43905200Y-45525200D02*
X47400000Y-49020000D01*
X26900000Y-42035000D02*
X27907200Y-41027800D01*
X27907200Y-41027800D02*
X34993400Y-41027800D01*
X60463000Y-55890200D02*
X81518200Y-55890200D01*
X56132800Y-51560000D02*
X60463000Y-55890200D01*
X36115900Y-42150300D02*
X36115900Y-42924600D01*
X47400000Y-49020000D02*
X49940000Y-51560000D01*
X34993400Y-41027800D02*
X36115900Y-42150300D01*
X49940000Y-51560000D02*
X56132800Y-51560000D01*
%TD*%
M02*
