%TF.GenerationSoftware,KiCad,Pcbnew,10.0.5*%
%TF.CreationDate,2026-10-01T13:33:22-04:00*%
%TF.ProjectId,panelb,70616e65-6c62-42e6-9b69-6361645f7063,rev?*%
%TF.SameCoordinates,Original*%
%TF.FileFunction,Legend,Top*%
%TF.FilePolarity,Positive*%
%FSLAX46Y46*%
G04 Gerber Fmt 4.6, Leading zero omitted, Abs format (unit mm)*
G04 Created by KiCad (PCBNEW 10.0.5) date 2026-10-01 13:33:22*
%MOMM*%
%LPD*%
G01*
G04 APERTURE LIST*
%ADD10C,0.150000*%
%ADD11C,0.250000*%
%ADD12C,0.120000*%
G04 APERTURE END LIST*
D10*
X8590588Y-5414819D02*
X8019160Y-5414819D01*
X8304874Y-5414819D02*
X8304874Y-4414819D01*
X8304874Y-4414819D02*
X8209636Y-4557676D01*
X8209636Y-4557676D02*
X8114398Y-4652914D01*
X8114398Y-4652914D02*
X8019160Y-4700533D01*
X8019160Y-7050057D02*
X8066779Y-7002438D01*
X8066779Y-7002438D02*
X8162017Y-6954819D01*
X8162017Y-6954819D02*
X8400112Y-6954819D01*
X8400112Y-6954819D02*
X8495350Y-7002438D01*
X8495350Y-7002438D02*
X8542969Y-7050057D01*
X8542969Y-7050057D02*
X8590588Y-7145295D01*
X8590588Y-7145295D02*
X8590588Y-7240533D01*
X8590588Y-7240533D02*
X8542969Y-7383390D01*
X8542969Y-7383390D02*
X7971541Y-7954819D01*
X7971541Y-7954819D02*
X8590588Y-7954819D01*
X10408207Y-58759580D02*
X10360588Y-58807200D01*
X10360588Y-58807200D02*
X10217731Y-58854819D01*
X10217731Y-58854819D02*
X10122493Y-58854819D01*
X10122493Y-58854819D02*
X9979636Y-58807200D01*
X9979636Y-58807200D02*
X9884398Y-58711961D01*
X9884398Y-58711961D02*
X9836779Y-58616723D01*
X9836779Y-58616723D02*
X9789160Y-58426247D01*
X9789160Y-58426247D02*
X9789160Y-58283390D01*
X9789160Y-58283390D02*
X9836779Y-58092914D01*
X9836779Y-58092914D02*
X9884398Y-57997676D01*
X9884398Y-57997676D02*
X9979636Y-57902438D01*
X9979636Y-57902438D02*
X10122493Y-57854819D01*
X10122493Y-57854819D02*
X10217731Y-57854819D01*
X10217731Y-57854819D02*
X10360588Y-57902438D01*
X10360588Y-57902438D02*
X10408207Y-57950057D01*
X11312969Y-58854819D02*
X10836779Y-58854819D01*
X10836779Y-58854819D02*
X10836779Y-57854819D01*
X11646303Y-58854819D02*
X11646303Y-57854819D01*
X12217731Y-58854819D02*
X11789160Y-58283390D01*
X12217731Y-57854819D02*
X11646303Y-58426247D01*
X14467255Y-21154819D02*
X14657731Y-21154819D01*
X14657731Y-21154819D02*
X14752969Y-21202438D01*
X14752969Y-21202438D02*
X14848207Y-21297676D01*
X14848207Y-21297676D02*
X14895826Y-21488152D01*
X14895826Y-21488152D02*
X14895826Y-21821485D01*
X14895826Y-21821485D02*
X14848207Y-22011961D01*
X14848207Y-22011961D02*
X14752969Y-22107200D01*
X14752969Y-22107200D02*
X14657731Y-22154819D01*
X14657731Y-22154819D02*
X14467255Y-22154819D01*
X14467255Y-22154819D02*
X14372017Y-22107200D01*
X14372017Y-22107200D02*
X14276779Y-22011961D01*
X14276779Y-22011961D02*
X14229160Y-21821485D01*
X14229160Y-21821485D02*
X14229160Y-21488152D01*
X14229160Y-21488152D02*
X14276779Y-21297676D01*
X14276779Y-21297676D02*
X14372017Y-21202438D01*
X14372017Y-21202438D02*
X14467255Y-21154819D01*
X15324398Y-22154819D02*
X15324398Y-21154819D01*
X14276779Y-37394819D02*
X14276779Y-36394819D01*
X14276779Y-36394819D02*
X14610112Y-37109104D01*
X14610112Y-37109104D02*
X14943445Y-36394819D01*
X14943445Y-36394819D02*
X14943445Y-37394819D01*
X15419636Y-37394819D02*
X15419636Y-36394819D01*
X21956779Y-22154819D02*
X21956779Y-21154819D01*
X22623445Y-21154819D02*
X22813921Y-21154819D01*
X22813921Y-21154819D02*
X22909159Y-21202438D01*
X22909159Y-21202438D02*
X23004397Y-21297676D01*
X23004397Y-21297676D02*
X23052016Y-21488152D01*
X23052016Y-21488152D02*
X23052016Y-21821485D01*
X23052016Y-21821485D02*
X23004397Y-22011961D01*
X23004397Y-22011961D02*
X22909159Y-22107200D01*
X22909159Y-22107200D02*
X22813921Y-22154819D01*
X22813921Y-22154819D02*
X22623445Y-22154819D01*
X22623445Y-22154819D02*
X22528207Y-22107200D01*
X22528207Y-22107200D02*
X22432969Y-22011961D01*
X22432969Y-22011961D02*
X22385350Y-21821485D01*
X22385350Y-21821485D02*
X22385350Y-21488152D01*
X22385350Y-21488152D02*
X22432969Y-21297676D01*
X22432969Y-21297676D02*
X22528207Y-21202438D01*
X22528207Y-21202438D02*
X22623445Y-21154819D01*
X21956779Y-37394819D02*
X21956779Y-36394819D01*
X21956779Y-36394819D02*
X22290112Y-37109104D01*
X22290112Y-37109104D02*
X22623445Y-36394819D01*
X22623445Y-36394819D02*
X22623445Y-37394819D01*
X23290112Y-36394819D02*
X23480588Y-36394819D01*
X23480588Y-36394819D02*
X23575826Y-36442438D01*
X23575826Y-36442438D02*
X23671064Y-36537676D01*
X23671064Y-36537676D02*
X23718683Y-36728152D01*
X23718683Y-36728152D02*
X23718683Y-37061485D01*
X23718683Y-37061485D02*
X23671064Y-37251961D01*
X23671064Y-37251961D02*
X23575826Y-37347200D01*
X23575826Y-37347200D02*
X23480588Y-37394819D01*
X23480588Y-37394819D02*
X23290112Y-37394819D01*
X23290112Y-37394819D02*
X23194874Y-37347200D01*
X23194874Y-37347200D02*
X23099636Y-37251961D01*
X23099636Y-37251961D02*
X23052017Y-37061485D01*
X23052017Y-37061485D02*
X23052017Y-36728152D01*
X23052017Y-36728152D02*
X23099636Y-36537676D01*
X23099636Y-36537676D02*
X23194874Y-36442438D01*
X23194874Y-36442438D02*
X23290112Y-36394819D01*
X29441541Y-36394819D02*
X29679636Y-37394819D01*
X29679636Y-37394819D02*
X29870112Y-36680533D01*
X29870112Y-36680533D02*
X30060588Y-37394819D01*
X30060588Y-37394819D02*
X30298684Y-36394819D01*
X31251064Y-37394819D02*
X30917731Y-36918628D01*
X30679636Y-37394819D02*
X30679636Y-36394819D01*
X30679636Y-36394819D02*
X31060588Y-36394819D01*
X31060588Y-36394819D02*
X31155826Y-36442438D01*
X31155826Y-36442438D02*
X31203445Y-36490057D01*
X31203445Y-36490057D02*
X31251064Y-36585295D01*
X31251064Y-36585295D02*
X31251064Y-36728152D01*
X31251064Y-36728152D02*
X31203445Y-36823390D01*
X31203445Y-36823390D02*
X31155826Y-36871009D01*
X31155826Y-36871009D02*
X31060588Y-36918628D01*
X31060588Y-36918628D02*
X30679636Y-36918628D01*
X32155826Y-37394819D02*
X31679636Y-37394819D01*
X31679636Y-37394819D02*
X31679636Y-36394819D01*
X29636779Y-22154819D02*
X29636779Y-21154819D01*
X30112969Y-22154819D02*
X30112969Y-21154819D01*
X37216779Y-22154819D02*
X37216779Y-21154819D01*
X37216779Y-21154819D02*
X37597731Y-21154819D01*
X37597731Y-21154819D02*
X37692969Y-21202438D01*
X37692969Y-21202438D02*
X37740588Y-21250057D01*
X37740588Y-21250057D02*
X37788207Y-21345295D01*
X37788207Y-21345295D02*
X37788207Y-21488152D01*
X37788207Y-21488152D02*
X37740588Y-21583390D01*
X37740588Y-21583390D02*
X37692969Y-21631009D01*
X37692969Y-21631009D02*
X37597731Y-21678628D01*
X37597731Y-21678628D02*
X37216779Y-21678628D01*
X38788207Y-22059580D02*
X38740588Y-22107200D01*
X38740588Y-22107200D02*
X38597731Y-22154819D01*
X38597731Y-22154819D02*
X38502493Y-22154819D01*
X38502493Y-22154819D02*
X38359636Y-22107200D01*
X38359636Y-22107200D02*
X38264398Y-22011961D01*
X38264398Y-22011961D02*
X38216779Y-21916723D01*
X38216779Y-21916723D02*
X38169160Y-21726247D01*
X38169160Y-21726247D02*
X38169160Y-21583390D01*
X38169160Y-21583390D02*
X38216779Y-21392914D01*
X38216779Y-21392914D02*
X38264398Y-21297676D01*
X38264398Y-21297676D02*
X38359636Y-21202438D01*
X38359636Y-21202438D02*
X38502493Y-21154819D01*
X38502493Y-21154819D02*
X38597731Y-21154819D01*
X38597731Y-21154819D02*
X38740588Y-21202438D01*
X38740588Y-21202438D02*
X38788207Y-21250057D01*
X39216779Y-21631009D02*
X39550112Y-21631009D01*
X39692969Y-22154819D02*
X39216779Y-22154819D01*
X39216779Y-22154819D02*
X39216779Y-21154819D01*
X39216779Y-21154819D02*
X39692969Y-21154819D01*
X38397255Y-69854819D02*
X38587731Y-69854819D01*
X38587731Y-69854819D02*
X38682969Y-69902438D01*
X38682969Y-69902438D02*
X38778207Y-69997676D01*
X38778207Y-69997676D02*
X38825826Y-70188152D01*
X38825826Y-70188152D02*
X38825826Y-70521485D01*
X38825826Y-70521485D02*
X38778207Y-70711961D01*
X38778207Y-70711961D02*
X38682969Y-70807200D01*
X38682969Y-70807200D02*
X38587731Y-70854819D01*
X38587731Y-70854819D02*
X38397255Y-70854819D01*
X38397255Y-70854819D02*
X38302017Y-70807200D01*
X38302017Y-70807200D02*
X38206779Y-70711961D01*
X38206779Y-70711961D02*
X38159160Y-70521485D01*
X38159160Y-70521485D02*
X38159160Y-70188152D01*
X38159160Y-70188152D02*
X38206779Y-69997676D01*
X38206779Y-69997676D02*
X38302017Y-69902438D01*
X38302017Y-69902438D02*
X38397255Y-69854819D01*
X39254398Y-70854819D02*
X39254398Y-69854819D01*
X40492493Y-70854819D02*
X40492493Y-69854819D01*
X41159159Y-69854819D02*
X41349635Y-69854819D01*
X41349635Y-69854819D02*
X41444873Y-69902438D01*
X41444873Y-69902438D02*
X41540111Y-69997676D01*
X41540111Y-69997676D02*
X41587730Y-70188152D01*
X41587730Y-70188152D02*
X41587730Y-70521485D01*
X41587730Y-70521485D02*
X41540111Y-70711961D01*
X41540111Y-70711961D02*
X41444873Y-70807200D01*
X41444873Y-70807200D02*
X41349635Y-70854819D01*
X41349635Y-70854819D02*
X41159159Y-70854819D01*
X41159159Y-70854819D02*
X41063921Y-70807200D01*
X41063921Y-70807200D02*
X40968683Y-70711961D01*
X40968683Y-70711961D02*
X40921064Y-70521485D01*
X40921064Y-70521485D02*
X40921064Y-70188152D01*
X40921064Y-70188152D02*
X40968683Y-69997676D01*
X40968683Y-69997676D02*
X41063921Y-69902438D01*
X41063921Y-69902438D02*
X41159159Y-69854819D01*
X42778207Y-70854819D02*
X42778207Y-69854819D01*
X43254397Y-70854819D02*
X43254397Y-69854819D01*
X44492492Y-70854819D02*
X44492492Y-69854819D01*
X44492492Y-69854819D02*
X44873444Y-69854819D01*
X44873444Y-69854819D02*
X44968682Y-69902438D01*
X44968682Y-69902438D02*
X45016301Y-69950057D01*
X45016301Y-69950057D02*
X45063920Y-70045295D01*
X45063920Y-70045295D02*
X45063920Y-70188152D01*
X45063920Y-70188152D02*
X45016301Y-70283390D01*
X45016301Y-70283390D02*
X44968682Y-70331009D01*
X44968682Y-70331009D02*
X44873444Y-70378628D01*
X44873444Y-70378628D02*
X44492492Y-70378628D01*
X46063920Y-70759580D02*
X46016301Y-70807200D01*
X46016301Y-70807200D02*
X45873444Y-70854819D01*
X45873444Y-70854819D02*
X45778206Y-70854819D01*
X45778206Y-70854819D02*
X45635349Y-70807200D01*
X45635349Y-70807200D02*
X45540111Y-70711961D01*
X45540111Y-70711961D02*
X45492492Y-70616723D01*
X45492492Y-70616723D02*
X45444873Y-70426247D01*
X45444873Y-70426247D02*
X45444873Y-70283390D01*
X45444873Y-70283390D02*
X45492492Y-70092914D01*
X45492492Y-70092914D02*
X45540111Y-69997676D01*
X45540111Y-69997676D02*
X45635349Y-69902438D01*
X45635349Y-69902438D02*
X45778206Y-69854819D01*
X45778206Y-69854819D02*
X45873444Y-69854819D01*
X45873444Y-69854819D02*
X46016301Y-69902438D01*
X46016301Y-69902438D02*
X46063920Y-69950057D01*
X46492492Y-70331009D02*
X46825825Y-70331009D01*
X46968682Y-70854819D02*
X46492492Y-70854819D01*
X46492492Y-70854819D02*
X46492492Y-69854819D01*
X46492492Y-69854819D02*
X46968682Y-69854819D01*
X48159159Y-70854819D02*
X48159159Y-69854819D01*
X48159159Y-69854819D02*
X48540111Y-69854819D01*
X48540111Y-69854819D02*
X48635349Y-69902438D01*
X48635349Y-69902438D02*
X48682968Y-69950057D01*
X48682968Y-69950057D02*
X48730587Y-70045295D01*
X48730587Y-70045295D02*
X48730587Y-70188152D01*
X48730587Y-70188152D02*
X48682968Y-70283390D01*
X48682968Y-70283390D02*
X48635349Y-70331009D01*
X48635349Y-70331009D02*
X48540111Y-70378628D01*
X48540111Y-70378628D02*
X48159159Y-70378628D01*
X49730587Y-70759580D02*
X49682968Y-70807200D01*
X49682968Y-70807200D02*
X49540111Y-70854819D01*
X49540111Y-70854819D02*
X49444873Y-70854819D01*
X49444873Y-70854819D02*
X49302016Y-70807200D01*
X49302016Y-70807200D02*
X49206778Y-70711961D01*
X49206778Y-70711961D02*
X49159159Y-70616723D01*
X49159159Y-70616723D02*
X49111540Y-70426247D01*
X49111540Y-70426247D02*
X49111540Y-70283390D01*
X49111540Y-70283390D02*
X49159159Y-70092914D01*
X49159159Y-70092914D02*
X49206778Y-69997676D01*
X49206778Y-69997676D02*
X49302016Y-69902438D01*
X49302016Y-69902438D02*
X49444873Y-69854819D01*
X49444873Y-69854819D02*
X49540111Y-69854819D01*
X49540111Y-69854819D02*
X49682968Y-69902438D01*
X49682968Y-69902438D02*
X49730587Y-69950057D01*
X50635349Y-70854819D02*
X50159159Y-70854819D01*
X50159159Y-70854819D02*
X50159159Y-69854819D01*
X52063921Y-70331009D02*
X51730588Y-70331009D01*
X51730588Y-70854819D02*
X51730588Y-69854819D01*
X51730588Y-69854819D02*
X52206778Y-69854819D01*
X52587731Y-70854819D02*
X52587731Y-69854819D01*
X53825826Y-70854819D02*
X53825826Y-69854819D01*
X53825826Y-70331009D02*
X54397254Y-70331009D01*
X54397254Y-70854819D02*
X54397254Y-69854819D01*
X55349635Y-70854819D02*
X54873445Y-70854819D01*
X54873445Y-70854819D02*
X54873445Y-69854819D01*
X55540112Y-69854819D02*
X56111540Y-69854819D01*
X55825826Y-70854819D02*
X55825826Y-69854819D01*
X57206779Y-70854819D02*
X57206779Y-69854819D01*
X57206779Y-69854819D02*
X57540112Y-70569104D01*
X57540112Y-70569104D02*
X57873445Y-69854819D01*
X57873445Y-69854819D02*
X57873445Y-70854819D01*
X58302017Y-70569104D02*
X58778207Y-70569104D01*
X58206779Y-70854819D02*
X58540112Y-69854819D01*
X58540112Y-69854819D02*
X58873445Y-70854819D01*
X59206779Y-70854819D02*
X59206779Y-69854819D01*
X44987255Y-36394819D02*
X45177731Y-36394819D01*
X45177731Y-36394819D02*
X45272969Y-36442438D01*
X45272969Y-36442438D02*
X45368207Y-36537676D01*
X45368207Y-36537676D02*
X45415826Y-36728152D01*
X45415826Y-36728152D02*
X45415826Y-37061485D01*
X45415826Y-37061485D02*
X45368207Y-37251961D01*
X45368207Y-37251961D02*
X45272969Y-37347200D01*
X45272969Y-37347200D02*
X45177731Y-37394819D01*
X45177731Y-37394819D02*
X44987255Y-37394819D01*
X44987255Y-37394819D02*
X44892017Y-37347200D01*
X44892017Y-37347200D02*
X44796779Y-37251961D01*
X44796779Y-37251961D02*
X44749160Y-37061485D01*
X44749160Y-37061485D02*
X44749160Y-36728152D01*
X44749160Y-36728152D02*
X44796779Y-36537676D01*
X44796779Y-36537676D02*
X44892017Y-36442438D01*
X44892017Y-36442438D02*
X44987255Y-36394819D01*
X45844398Y-37394819D02*
X45844398Y-36394819D01*
X45844398Y-36394819D02*
X46415826Y-37394819D01*
X46415826Y-37394819D02*
X46415826Y-36394819D01*
X46892017Y-36871009D02*
X47225350Y-36871009D01*
X47368207Y-37394819D02*
X46892017Y-37394819D01*
X46892017Y-37394819D02*
X46892017Y-36394819D01*
X46892017Y-36394819D02*
X47368207Y-36394819D01*
X44996779Y-22154819D02*
X44996779Y-21154819D01*
X44996779Y-21154819D02*
X45377731Y-21154819D01*
X45377731Y-21154819D02*
X45472969Y-21202438D01*
X45472969Y-21202438D02*
X45520588Y-21250057D01*
X45520588Y-21250057D02*
X45568207Y-21345295D01*
X45568207Y-21345295D02*
X45568207Y-21488152D01*
X45568207Y-21488152D02*
X45520588Y-21583390D01*
X45520588Y-21583390D02*
X45472969Y-21631009D01*
X45472969Y-21631009D02*
X45377731Y-21678628D01*
X45377731Y-21678628D02*
X44996779Y-21678628D01*
X46568207Y-22059580D02*
X46520588Y-22107200D01*
X46520588Y-22107200D02*
X46377731Y-22154819D01*
X46377731Y-22154819D02*
X46282493Y-22154819D01*
X46282493Y-22154819D02*
X46139636Y-22107200D01*
X46139636Y-22107200D02*
X46044398Y-22011961D01*
X46044398Y-22011961D02*
X45996779Y-21916723D01*
X45996779Y-21916723D02*
X45949160Y-21726247D01*
X45949160Y-21726247D02*
X45949160Y-21583390D01*
X45949160Y-21583390D02*
X45996779Y-21392914D01*
X45996779Y-21392914D02*
X46044398Y-21297676D01*
X46044398Y-21297676D02*
X46139636Y-21202438D01*
X46139636Y-21202438D02*
X46282493Y-21154819D01*
X46282493Y-21154819D02*
X46377731Y-21154819D01*
X46377731Y-21154819D02*
X46520588Y-21202438D01*
X46520588Y-21202438D02*
X46568207Y-21250057D01*
X47472969Y-22154819D02*
X46996779Y-22154819D01*
X46996779Y-22154819D02*
X46996779Y-21154819D01*
X53010112Y-21631009D02*
X52676779Y-21631009D01*
X52676779Y-22154819D02*
X52676779Y-21154819D01*
X52676779Y-21154819D02*
X53152969Y-21154819D01*
X53533922Y-22154819D02*
X53533922Y-21154819D01*
X53010112Y-36871009D02*
X52676779Y-36871009D01*
X52676779Y-37394819D02*
X52676779Y-36394819D01*
X52676779Y-36394819D02*
X53152969Y-36394819D01*
X53724398Y-36394819D02*
X53819636Y-36394819D01*
X53819636Y-36394819D02*
X53914874Y-36442438D01*
X53914874Y-36442438D02*
X53962493Y-36490057D01*
X53962493Y-36490057D02*
X54010112Y-36585295D01*
X54010112Y-36585295D02*
X54057731Y-36775771D01*
X54057731Y-36775771D02*
X54057731Y-37013866D01*
X54057731Y-37013866D02*
X54010112Y-37204342D01*
X54010112Y-37204342D02*
X53962493Y-37299580D01*
X53962493Y-37299580D02*
X53914874Y-37347200D01*
X53914874Y-37347200D02*
X53819636Y-37394819D01*
X53819636Y-37394819D02*
X53724398Y-37394819D01*
X53724398Y-37394819D02*
X53629160Y-37347200D01*
X53629160Y-37347200D02*
X53581541Y-37299580D01*
X53581541Y-37299580D02*
X53533922Y-37204342D01*
X53533922Y-37204342D02*
X53486303Y-37013866D01*
X53486303Y-37013866D02*
X53486303Y-36775771D01*
X53486303Y-36775771D02*
X53533922Y-36585295D01*
X53533922Y-36585295D02*
X53581541Y-36490057D01*
X53581541Y-36490057D02*
X53629160Y-36442438D01*
X53629160Y-36442438D02*
X53724398Y-36394819D01*
X54408207Y-58854819D02*
X54074874Y-58378628D01*
X53836779Y-58854819D02*
X53836779Y-57854819D01*
X53836779Y-57854819D02*
X54217731Y-57854819D01*
X54217731Y-57854819D02*
X54312969Y-57902438D01*
X54312969Y-57902438D02*
X54360588Y-57950057D01*
X54360588Y-57950057D02*
X54408207Y-58045295D01*
X54408207Y-58045295D02*
X54408207Y-58188152D01*
X54408207Y-58188152D02*
X54360588Y-58283390D01*
X54360588Y-58283390D02*
X54312969Y-58331009D01*
X54312969Y-58331009D02*
X54217731Y-58378628D01*
X54217731Y-58378628D02*
X53836779Y-58378628D01*
X54789160Y-58807200D02*
X54932017Y-58854819D01*
X54932017Y-58854819D02*
X55170112Y-58854819D01*
X55170112Y-58854819D02*
X55265350Y-58807200D01*
X55265350Y-58807200D02*
X55312969Y-58759580D01*
X55312969Y-58759580D02*
X55360588Y-58664342D01*
X55360588Y-58664342D02*
X55360588Y-58569104D01*
X55360588Y-58569104D02*
X55312969Y-58473866D01*
X55312969Y-58473866D02*
X55265350Y-58426247D01*
X55265350Y-58426247D02*
X55170112Y-58378628D01*
X55170112Y-58378628D02*
X54979636Y-58331009D01*
X54979636Y-58331009D02*
X54884398Y-58283390D01*
X54884398Y-58283390D02*
X54836779Y-58235771D01*
X54836779Y-58235771D02*
X54789160Y-58140533D01*
X54789160Y-58140533D02*
X54789160Y-58045295D01*
X54789160Y-58045295D02*
X54836779Y-57950057D01*
X54836779Y-57950057D02*
X54884398Y-57902438D01*
X54884398Y-57902438D02*
X54979636Y-57854819D01*
X54979636Y-57854819D02*
X55217731Y-57854819D01*
X55217731Y-57854819D02*
X55360588Y-57902438D01*
X55646303Y-57854819D02*
X56217731Y-57854819D01*
X55932017Y-58854819D02*
X55932017Y-57854819D01*
X55897255Y-94834819D02*
X56087731Y-94834819D01*
X56087731Y-94834819D02*
X56182969Y-94882438D01*
X56182969Y-94882438D02*
X56278207Y-94977676D01*
X56278207Y-94977676D02*
X56325826Y-95168152D01*
X56325826Y-95168152D02*
X56325826Y-95501485D01*
X56325826Y-95501485D02*
X56278207Y-95691961D01*
X56278207Y-95691961D02*
X56182969Y-95787200D01*
X56182969Y-95787200D02*
X56087731Y-95834819D01*
X56087731Y-95834819D02*
X55897255Y-95834819D01*
X55897255Y-95834819D02*
X55802017Y-95787200D01*
X55802017Y-95787200D02*
X55706779Y-95691961D01*
X55706779Y-95691961D02*
X55659160Y-95501485D01*
X55659160Y-95501485D02*
X55659160Y-95168152D01*
X55659160Y-95168152D02*
X55706779Y-94977676D01*
X55706779Y-94977676D02*
X55802017Y-94882438D01*
X55802017Y-94882438D02*
X55897255Y-94834819D01*
X56754398Y-95834819D02*
X56754398Y-94834819D01*
X56754398Y-94834819D02*
X57325826Y-95834819D01*
X57325826Y-95834819D02*
X57325826Y-94834819D01*
X58563922Y-95168152D02*
X59325827Y-95453866D01*
X59325827Y-95453866D02*
X58563922Y-95739580D01*
X60356779Y-22154819D02*
X60356779Y-21154819D01*
X60356779Y-21631009D02*
X60928207Y-21631009D01*
X60928207Y-22154819D02*
X60928207Y-21154819D01*
X61880588Y-22154819D02*
X61404398Y-22154819D01*
X61404398Y-22154819D02*
X61404398Y-21154819D01*
X62071065Y-21154819D02*
X62642493Y-21154819D01*
X62356779Y-22154819D02*
X62356779Y-21154819D01*
X60690112Y-36871009D02*
X60356779Y-36871009D01*
X60356779Y-37394819D02*
X60356779Y-36394819D01*
X60356779Y-36394819D02*
X60832969Y-36394819D01*
X61737731Y-37394819D02*
X61166303Y-37394819D01*
X61452017Y-37394819D02*
X61452017Y-36394819D01*
X61452017Y-36394819D02*
X61356779Y-36537676D01*
X61356779Y-36537676D02*
X61261541Y-36632914D01*
X61261541Y-36632914D02*
X61166303Y-36680533D01*
X63597255Y-73054819D02*
X63787731Y-73054819D01*
X63787731Y-73054819D02*
X63882969Y-73102438D01*
X63882969Y-73102438D02*
X63978207Y-73197676D01*
X63978207Y-73197676D02*
X64025826Y-73388152D01*
X64025826Y-73388152D02*
X64025826Y-73721485D01*
X64025826Y-73721485D02*
X63978207Y-73911961D01*
X63978207Y-73911961D02*
X63882969Y-74007200D01*
X63882969Y-74007200D02*
X63787731Y-74054819D01*
X63787731Y-74054819D02*
X63597255Y-74054819D01*
X63597255Y-74054819D02*
X63502017Y-74007200D01*
X63502017Y-74007200D02*
X63406779Y-73911961D01*
X63406779Y-73911961D02*
X63359160Y-73721485D01*
X63359160Y-73721485D02*
X63359160Y-73388152D01*
X63359160Y-73388152D02*
X63406779Y-73197676D01*
X63406779Y-73197676D02*
X63502017Y-73102438D01*
X63502017Y-73102438D02*
X63597255Y-73054819D01*
X64454398Y-74054819D02*
X64454398Y-73054819D01*
X63406779Y-76594819D02*
X63406779Y-75594819D01*
X64073445Y-75594819D02*
X64263921Y-75594819D01*
X64263921Y-75594819D02*
X64359159Y-75642438D01*
X64359159Y-75642438D02*
X64454397Y-75737676D01*
X64454397Y-75737676D02*
X64502016Y-75928152D01*
X64502016Y-75928152D02*
X64502016Y-76261485D01*
X64502016Y-76261485D02*
X64454397Y-76451961D01*
X64454397Y-76451961D02*
X64359159Y-76547200D01*
X64359159Y-76547200D02*
X64263921Y-76594819D01*
X64263921Y-76594819D02*
X64073445Y-76594819D01*
X64073445Y-76594819D02*
X63978207Y-76547200D01*
X63978207Y-76547200D02*
X63882969Y-76451961D01*
X63882969Y-76451961D02*
X63835350Y-76261485D01*
X63835350Y-76261485D02*
X63835350Y-75928152D01*
X63835350Y-75928152D02*
X63882969Y-75737676D01*
X63882969Y-75737676D02*
X63978207Y-75642438D01*
X63978207Y-75642438D02*
X64073445Y-75594819D01*
X63406779Y-79134819D02*
X63406779Y-78134819D01*
X63882969Y-79134819D02*
X63882969Y-78134819D01*
X63406779Y-81674819D02*
X63406779Y-80674819D01*
X63406779Y-80674819D02*
X63787731Y-80674819D01*
X63787731Y-80674819D02*
X63882969Y-80722438D01*
X63882969Y-80722438D02*
X63930588Y-80770057D01*
X63930588Y-80770057D02*
X63978207Y-80865295D01*
X63978207Y-80865295D02*
X63978207Y-81008152D01*
X63978207Y-81008152D02*
X63930588Y-81103390D01*
X63930588Y-81103390D02*
X63882969Y-81151009D01*
X63882969Y-81151009D02*
X63787731Y-81198628D01*
X63787731Y-81198628D02*
X63406779Y-81198628D01*
X64978207Y-81579580D02*
X64930588Y-81627200D01*
X64930588Y-81627200D02*
X64787731Y-81674819D01*
X64787731Y-81674819D02*
X64692493Y-81674819D01*
X64692493Y-81674819D02*
X64549636Y-81627200D01*
X64549636Y-81627200D02*
X64454398Y-81531961D01*
X64454398Y-81531961D02*
X64406779Y-81436723D01*
X64406779Y-81436723D02*
X64359160Y-81246247D01*
X64359160Y-81246247D02*
X64359160Y-81103390D01*
X64359160Y-81103390D02*
X64406779Y-80912914D01*
X64406779Y-80912914D02*
X64454398Y-80817676D01*
X64454398Y-80817676D02*
X64549636Y-80722438D01*
X64549636Y-80722438D02*
X64692493Y-80674819D01*
X64692493Y-80674819D02*
X64787731Y-80674819D01*
X64787731Y-80674819D02*
X64930588Y-80722438D01*
X64930588Y-80722438D02*
X64978207Y-80770057D01*
X65406779Y-81151009D02*
X65740112Y-81151009D01*
X65882969Y-81674819D02*
X65406779Y-81674819D01*
X65406779Y-81674819D02*
X65406779Y-80674819D01*
X65406779Y-80674819D02*
X65882969Y-80674819D01*
X63406779Y-84214819D02*
X63406779Y-83214819D01*
X63406779Y-83214819D02*
X63787731Y-83214819D01*
X63787731Y-83214819D02*
X63882969Y-83262438D01*
X63882969Y-83262438D02*
X63930588Y-83310057D01*
X63930588Y-83310057D02*
X63978207Y-83405295D01*
X63978207Y-83405295D02*
X63978207Y-83548152D01*
X63978207Y-83548152D02*
X63930588Y-83643390D01*
X63930588Y-83643390D02*
X63882969Y-83691009D01*
X63882969Y-83691009D02*
X63787731Y-83738628D01*
X63787731Y-83738628D02*
X63406779Y-83738628D01*
X64978207Y-84119580D02*
X64930588Y-84167200D01*
X64930588Y-84167200D02*
X64787731Y-84214819D01*
X64787731Y-84214819D02*
X64692493Y-84214819D01*
X64692493Y-84214819D02*
X64549636Y-84167200D01*
X64549636Y-84167200D02*
X64454398Y-84071961D01*
X64454398Y-84071961D02*
X64406779Y-83976723D01*
X64406779Y-83976723D02*
X64359160Y-83786247D01*
X64359160Y-83786247D02*
X64359160Y-83643390D01*
X64359160Y-83643390D02*
X64406779Y-83452914D01*
X64406779Y-83452914D02*
X64454398Y-83357676D01*
X64454398Y-83357676D02*
X64549636Y-83262438D01*
X64549636Y-83262438D02*
X64692493Y-83214819D01*
X64692493Y-83214819D02*
X64787731Y-83214819D01*
X64787731Y-83214819D02*
X64930588Y-83262438D01*
X64930588Y-83262438D02*
X64978207Y-83310057D01*
X65882969Y-84214819D02*
X65406779Y-84214819D01*
X65406779Y-84214819D02*
X65406779Y-83214819D01*
X63740112Y-86231009D02*
X63406779Y-86231009D01*
X63406779Y-86754819D02*
X63406779Y-85754819D01*
X63406779Y-85754819D02*
X63882969Y-85754819D01*
X64263922Y-86754819D02*
X64263922Y-85754819D01*
X63406779Y-89294819D02*
X63406779Y-88294819D01*
X63406779Y-88771009D02*
X63978207Y-88771009D01*
X63978207Y-89294819D02*
X63978207Y-88294819D01*
X64930588Y-89294819D02*
X64454398Y-89294819D01*
X64454398Y-89294819D02*
X64454398Y-88294819D01*
X65121065Y-88294819D02*
X65692493Y-88294819D01*
X65406779Y-89294819D02*
X65406779Y-88294819D01*
X63406779Y-91834819D02*
X63406779Y-90834819D01*
X63406779Y-90834819D02*
X63740112Y-91549104D01*
X63740112Y-91549104D02*
X64073445Y-90834819D01*
X64073445Y-90834819D02*
X64073445Y-91834819D01*
X64502017Y-91549104D02*
X64978207Y-91549104D01*
X64406779Y-91834819D02*
X64740112Y-90834819D01*
X64740112Y-90834819D02*
X65073445Y-91834819D01*
X65406779Y-91834819D02*
X65406779Y-90834819D01*
X68926779Y-70854819D02*
X68926779Y-69854819D01*
X68926779Y-69854819D02*
X69260112Y-70569104D01*
X69260112Y-70569104D02*
X69593445Y-69854819D01*
X69593445Y-69854819D02*
X69593445Y-70854819D01*
X70069636Y-70854819D02*
X70069636Y-69854819D01*
X71307731Y-70854819D02*
X71307731Y-69854819D01*
X71307731Y-69854819D02*
X71641064Y-70569104D01*
X71641064Y-70569104D02*
X71974397Y-69854819D01*
X71974397Y-69854819D02*
X71974397Y-70854819D01*
X72641064Y-69854819D02*
X72831540Y-69854819D01*
X72831540Y-69854819D02*
X72926778Y-69902438D01*
X72926778Y-69902438D02*
X73022016Y-69997676D01*
X73022016Y-69997676D02*
X73069635Y-70188152D01*
X73069635Y-70188152D02*
X73069635Y-70521485D01*
X73069635Y-70521485D02*
X73022016Y-70711961D01*
X73022016Y-70711961D02*
X72926778Y-70807200D01*
X72926778Y-70807200D02*
X72831540Y-70854819D01*
X72831540Y-70854819D02*
X72641064Y-70854819D01*
X72641064Y-70854819D02*
X72545826Y-70807200D01*
X72545826Y-70807200D02*
X72450588Y-70711961D01*
X72450588Y-70711961D02*
X72402969Y-70521485D01*
X72402969Y-70521485D02*
X72402969Y-70188152D01*
X72402969Y-70188152D02*
X72450588Y-69997676D01*
X72450588Y-69997676D02*
X72545826Y-69902438D01*
X72545826Y-69902438D02*
X72641064Y-69854819D01*
X74164874Y-69854819D02*
X74402969Y-70854819D01*
X74402969Y-70854819D02*
X74593445Y-70140533D01*
X74593445Y-70140533D02*
X74783921Y-70854819D01*
X74783921Y-70854819D02*
X75022017Y-69854819D01*
X75974397Y-70854819D02*
X75641064Y-70378628D01*
X75402969Y-70854819D02*
X75402969Y-69854819D01*
X75402969Y-69854819D02*
X75783921Y-69854819D01*
X75783921Y-69854819D02*
X75879159Y-69902438D01*
X75879159Y-69902438D02*
X75926778Y-69950057D01*
X75926778Y-69950057D02*
X75974397Y-70045295D01*
X75974397Y-70045295D02*
X75974397Y-70188152D01*
X75974397Y-70188152D02*
X75926778Y-70283390D01*
X75926778Y-70283390D02*
X75879159Y-70331009D01*
X75879159Y-70331009D02*
X75783921Y-70378628D01*
X75783921Y-70378628D02*
X75402969Y-70378628D01*
X76879159Y-70854819D02*
X76402969Y-70854819D01*
X76402969Y-70854819D02*
X76402969Y-69854819D01*
X77879160Y-69854819D02*
X78117255Y-70854819D01*
X78117255Y-70854819D02*
X78307731Y-70140533D01*
X78307731Y-70140533D02*
X78498207Y-70854819D01*
X78498207Y-70854819D02*
X78736303Y-69854819D01*
X79688683Y-70854819D02*
X79355350Y-70378628D01*
X79117255Y-70854819D02*
X79117255Y-69854819D01*
X79117255Y-69854819D02*
X79498207Y-69854819D01*
X79498207Y-69854819D02*
X79593445Y-69902438D01*
X79593445Y-69902438D02*
X79641064Y-69950057D01*
X79641064Y-69950057D02*
X79688683Y-70045295D01*
X79688683Y-70045295D02*
X79688683Y-70188152D01*
X79688683Y-70188152D02*
X79641064Y-70283390D01*
X79641064Y-70283390D02*
X79593445Y-70331009D01*
X79593445Y-70331009D02*
X79498207Y-70378628D01*
X79498207Y-70378628D02*
X79117255Y-70378628D01*
X80117255Y-70854819D02*
X80117255Y-69854819D01*
X80117255Y-70331009D02*
X80688683Y-70331009D01*
X80688683Y-70854819D02*
X80688683Y-69854819D01*
X82117255Y-69854819D02*
X82307731Y-69854819D01*
X82307731Y-69854819D02*
X82402969Y-69902438D01*
X82402969Y-69902438D02*
X82498207Y-69997676D01*
X82498207Y-69997676D02*
X82545826Y-70188152D01*
X82545826Y-70188152D02*
X82545826Y-70521485D01*
X82545826Y-70521485D02*
X82498207Y-70711961D01*
X82498207Y-70711961D02*
X82402969Y-70807200D01*
X82402969Y-70807200D02*
X82307731Y-70854819D01*
X82307731Y-70854819D02*
X82117255Y-70854819D01*
X82117255Y-70854819D02*
X82022017Y-70807200D01*
X82022017Y-70807200D02*
X81926779Y-70711961D01*
X81926779Y-70711961D02*
X81879160Y-70521485D01*
X81879160Y-70521485D02*
X81879160Y-70188152D01*
X81879160Y-70188152D02*
X81926779Y-69997676D01*
X81926779Y-69997676D02*
X82022017Y-69902438D01*
X82022017Y-69902438D02*
X82117255Y-69854819D01*
X82974398Y-70854819D02*
X82974398Y-69854819D01*
X82974398Y-69854819D02*
X83545826Y-70854819D01*
X83545826Y-70854819D02*
X83545826Y-69854819D01*
X84022017Y-70331009D02*
X84355350Y-70331009D01*
X84498207Y-70854819D02*
X84022017Y-70854819D01*
X84022017Y-70854819D02*
X84022017Y-69854819D01*
X84022017Y-69854819D02*
X84498207Y-69854819D01*
X86022017Y-70331009D02*
X85688684Y-70331009D01*
X85688684Y-70854819D02*
X85688684Y-69854819D01*
X85688684Y-69854819D02*
X86164874Y-69854819D01*
X86736303Y-69854819D02*
X86831541Y-69854819D01*
X86831541Y-69854819D02*
X86926779Y-69902438D01*
X86926779Y-69902438D02*
X86974398Y-69950057D01*
X86974398Y-69950057D02*
X87022017Y-70045295D01*
X87022017Y-70045295D02*
X87069636Y-70235771D01*
X87069636Y-70235771D02*
X87069636Y-70473866D01*
X87069636Y-70473866D02*
X87022017Y-70664342D01*
X87022017Y-70664342D02*
X86974398Y-70759580D01*
X86974398Y-70759580D02*
X86926779Y-70807200D01*
X86926779Y-70807200D02*
X86831541Y-70854819D01*
X86831541Y-70854819D02*
X86736303Y-70854819D01*
X86736303Y-70854819D02*
X86641065Y-70807200D01*
X86641065Y-70807200D02*
X86593446Y-70759580D01*
X86593446Y-70759580D02*
X86545827Y-70664342D01*
X86545827Y-70664342D02*
X86498208Y-70473866D01*
X86498208Y-70473866D02*
X86498208Y-70235771D01*
X86498208Y-70235771D02*
X86545827Y-70045295D01*
X86545827Y-70045295D02*
X86593446Y-69950057D01*
X86593446Y-69950057D02*
X86641065Y-69902438D01*
X86641065Y-69902438D02*
X86736303Y-69854819D01*
X88593446Y-70331009D02*
X88260113Y-70331009D01*
X88260113Y-70854819D02*
X88260113Y-69854819D01*
X88260113Y-69854819D02*
X88736303Y-69854819D01*
X89641065Y-70854819D02*
X89069637Y-70854819D01*
X89355351Y-70854819D02*
X89355351Y-69854819D01*
X89355351Y-69854819D02*
X89260113Y-69997676D01*
X89260113Y-69997676D02*
X89164875Y-70092914D01*
X89164875Y-70092914D02*
X89069637Y-70140533D01*
X90831542Y-70854819D02*
X90831542Y-69854819D01*
X91307732Y-70854819D02*
X91307732Y-69854819D01*
X91307732Y-69854819D02*
X91879160Y-70854819D01*
X91879160Y-70854819D02*
X91879160Y-69854819D01*
X92355351Y-70854819D02*
X92355351Y-69854819D01*
X92355351Y-69854819D02*
X92736303Y-69854819D01*
X92736303Y-69854819D02*
X92831541Y-69902438D01*
X92831541Y-69902438D02*
X92879160Y-69950057D01*
X92879160Y-69950057D02*
X92926779Y-70045295D01*
X92926779Y-70045295D02*
X92926779Y-70188152D01*
X92926779Y-70188152D02*
X92879160Y-70283390D01*
X92879160Y-70283390D02*
X92831541Y-70331009D01*
X92831541Y-70331009D02*
X92736303Y-70378628D01*
X92736303Y-70378628D02*
X92355351Y-70378628D01*
X86617255Y-94834819D02*
X86807731Y-94834819D01*
X86807731Y-94834819D02*
X86902969Y-94882438D01*
X86902969Y-94882438D02*
X86998207Y-94977676D01*
X86998207Y-94977676D02*
X87045826Y-95168152D01*
X87045826Y-95168152D02*
X87045826Y-95501485D01*
X87045826Y-95501485D02*
X86998207Y-95691961D01*
X86998207Y-95691961D02*
X86902969Y-95787200D01*
X86902969Y-95787200D02*
X86807731Y-95834819D01*
X86807731Y-95834819D02*
X86617255Y-95834819D01*
X86617255Y-95834819D02*
X86522017Y-95787200D01*
X86522017Y-95787200D02*
X86426779Y-95691961D01*
X86426779Y-95691961D02*
X86379160Y-95501485D01*
X86379160Y-95501485D02*
X86379160Y-95168152D01*
X86379160Y-95168152D02*
X86426779Y-94977676D01*
X86426779Y-94977676D02*
X86522017Y-94882438D01*
X86522017Y-94882438D02*
X86617255Y-94834819D01*
X87474398Y-95834819D02*
X87474398Y-94834819D01*
X87474398Y-94834819D02*
X88045826Y-95834819D01*
X88045826Y-95834819D02*
X88045826Y-94834819D01*
X89283922Y-95168152D02*
X90045827Y-95453866D01*
X90045827Y-95453866D02*
X89283922Y-95739580D01*
X91635350Y-4414819D02*
X91444874Y-4414819D01*
X91444874Y-4414819D02*
X91349636Y-4462438D01*
X91349636Y-4462438D02*
X91302017Y-4510057D01*
X91302017Y-4510057D02*
X91206779Y-4652914D01*
X91206779Y-4652914D02*
X91159160Y-4843390D01*
X91159160Y-4843390D02*
X91159160Y-5224342D01*
X91159160Y-5224342D02*
X91206779Y-5319580D01*
X91206779Y-5319580D02*
X91254398Y-5367200D01*
X91254398Y-5367200D02*
X91349636Y-5414819D01*
X91349636Y-5414819D02*
X91540112Y-5414819D01*
X91540112Y-5414819D02*
X91635350Y-5367200D01*
X91635350Y-5367200D02*
X91682969Y-5319580D01*
X91682969Y-5319580D02*
X91730588Y-5224342D01*
X91730588Y-5224342D02*
X91730588Y-4986247D01*
X91730588Y-4986247D02*
X91682969Y-4891009D01*
X91682969Y-4891009D02*
X91635350Y-4843390D01*
X91635350Y-4843390D02*
X91540112Y-4795771D01*
X91540112Y-4795771D02*
X91349636Y-4795771D01*
X91349636Y-4795771D02*
X91254398Y-4843390D01*
X91254398Y-4843390D02*
X91206779Y-4891009D01*
X91206779Y-4891009D02*
X91159160Y-4986247D01*
X92063922Y-4414819D02*
X92682969Y-4414819D01*
X92682969Y-4414819D02*
X92349636Y-4795771D01*
X92349636Y-4795771D02*
X92492493Y-4795771D01*
X92492493Y-4795771D02*
X92587731Y-4843390D01*
X92587731Y-4843390D02*
X92635350Y-4891009D01*
X92635350Y-4891009D02*
X92682969Y-4986247D01*
X92682969Y-4986247D02*
X92682969Y-5224342D01*
X92682969Y-5224342D02*
X92635350Y-5319580D01*
X92635350Y-5319580D02*
X92587731Y-5367200D01*
X92587731Y-5367200D02*
X92492493Y-5414819D01*
X92492493Y-5414819D02*
X92206779Y-5414819D01*
X92206779Y-5414819D02*
X92111541Y-5367200D01*
X92111541Y-5367200D02*
X92063922Y-5319580D01*
X91635350Y-6954819D02*
X91444874Y-6954819D01*
X91444874Y-6954819D02*
X91349636Y-7002438D01*
X91349636Y-7002438D02*
X91302017Y-7050057D01*
X91302017Y-7050057D02*
X91206779Y-7192914D01*
X91206779Y-7192914D02*
X91159160Y-7383390D01*
X91159160Y-7383390D02*
X91159160Y-7764342D01*
X91159160Y-7764342D02*
X91206779Y-7859580D01*
X91206779Y-7859580D02*
X91254398Y-7907200D01*
X91254398Y-7907200D02*
X91349636Y-7954819D01*
X91349636Y-7954819D02*
X91540112Y-7954819D01*
X91540112Y-7954819D02*
X91635350Y-7907200D01*
X91635350Y-7907200D02*
X91682969Y-7859580D01*
X91682969Y-7859580D02*
X91730588Y-7764342D01*
X91730588Y-7764342D02*
X91730588Y-7526247D01*
X91730588Y-7526247D02*
X91682969Y-7431009D01*
X91682969Y-7431009D02*
X91635350Y-7383390D01*
X91635350Y-7383390D02*
X91540112Y-7335771D01*
X91540112Y-7335771D02*
X91349636Y-7335771D01*
X91349636Y-7335771D02*
X91254398Y-7383390D01*
X91254398Y-7383390D02*
X91206779Y-7431009D01*
X91206779Y-7431009D02*
X91159160Y-7526247D01*
X92587731Y-7288152D02*
X92587731Y-7954819D01*
X92349636Y-6907200D02*
X92111541Y-7621485D01*
X92111541Y-7621485D02*
X92730588Y-7621485D01*
X94126779Y-74054819D02*
X94126779Y-73054819D01*
X94126779Y-73054819D02*
X94460112Y-73769104D01*
X94460112Y-73769104D02*
X94793445Y-73054819D01*
X94793445Y-73054819D02*
X94793445Y-74054819D01*
X95269636Y-74054819D02*
X95269636Y-73054819D01*
X94126779Y-76594819D02*
X94126779Y-75594819D01*
X94126779Y-75594819D02*
X94460112Y-76309104D01*
X94460112Y-76309104D02*
X94793445Y-75594819D01*
X94793445Y-75594819D02*
X94793445Y-76594819D01*
X95460112Y-75594819D02*
X95650588Y-75594819D01*
X95650588Y-75594819D02*
X95745826Y-75642438D01*
X95745826Y-75642438D02*
X95841064Y-75737676D01*
X95841064Y-75737676D02*
X95888683Y-75928152D01*
X95888683Y-75928152D02*
X95888683Y-76261485D01*
X95888683Y-76261485D02*
X95841064Y-76451961D01*
X95841064Y-76451961D02*
X95745826Y-76547200D01*
X95745826Y-76547200D02*
X95650588Y-76594819D01*
X95650588Y-76594819D02*
X95460112Y-76594819D01*
X95460112Y-76594819D02*
X95364874Y-76547200D01*
X95364874Y-76547200D02*
X95269636Y-76451961D01*
X95269636Y-76451961D02*
X95222017Y-76261485D01*
X95222017Y-76261485D02*
X95222017Y-75928152D01*
X95222017Y-75928152D02*
X95269636Y-75737676D01*
X95269636Y-75737676D02*
X95364874Y-75642438D01*
X95364874Y-75642438D02*
X95460112Y-75594819D01*
X94031541Y-78134819D02*
X94269636Y-79134819D01*
X94269636Y-79134819D02*
X94460112Y-78420533D01*
X94460112Y-78420533D02*
X94650588Y-79134819D01*
X94650588Y-79134819D02*
X94888684Y-78134819D01*
X95841064Y-79134819D02*
X95507731Y-78658628D01*
X95269636Y-79134819D02*
X95269636Y-78134819D01*
X95269636Y-78134819D02*
X95650588Y-78134819D01*
X95650588Y-78134819D02*
X95745826Y-78182438D01*
X95745826Y-78182438D02*
X95793445Y-78230057D01*
X95793445Y-78230057D02*
X95841064Y-78325295D01*
X95841064Y-78325295D02*
X95841064Y-78468152D01*
X95841064Y-78468152D02*
X95793445Y-78563390D01*
X95793445Y-78563390D02*
X95745826Y-78611009D01*
X95745826Y-78611009D02*
X95650588Y-78658628D01*
X95650588Y-78658628D02*
X95269636Y-78658628D01*
X96745826Y-79134819D02*
X96269636Y-79134819D01*
X96269636Y-79134819D02*
X96269636Y-78134819D01*
X94031541Y-80674819D02*
X94269636Y-81674819D01*
X94269636Y-81674819D02*
X94460112Y-80960533D01*
X94460112Y-80960533D02*
X94650588Y-81674819D01*
X94650588Y-81674819D02*
X94888684Y-80674819D01*
X95841064Y-81674819D02*
X95507731Y-81198628D01*
X95269636Y-81674819D02*
X95269636Y-80674819D01*
X95269636Y-80674819D02*
X95650588Y-80674819D01*
X95650588Y-80674819D02*
X95745826Y-80722438D01*
X95745826Y-80722438D02*
X95793445Y-80770057D01*
X95793445Y-80770057D02*
X95841064Y-80865295D01*
X95841064Y-80865295D02*
X95841064Y-81008152D01*
X95841064Y-81008152D02*
X95793445Y-81103390D01*
X95793445Y-81103390D02*
X95745826Y-81151009D01*
X95745826Y-81151009D02*
X95650588Y-81198628D01*
X95650588Y-81198628D02*
X95269636Y-81198628D01*
X96269636Y-81674819D02*
X96269636Y-80674819D01*
X96269636Y-81151009D02*
X96841064Y-81151009D01*
X96841064Y-81674819D02*
X96841064Y-80674819D01*
X94317255Y-83214819D02*
X94507731Y-83214819D01*
X94507731Y-83214819D02*
X94602969Y-83262438D01*
X94602969Y-83262438D02*
X94698207Y-83357676D01*
X94698207Y-83357676D02*
X94745826Y-83548152D01*
X94745826Y-83548152D02*
X94745826Y-83881485D01*
X94745826Y-83881485D02*
X94698207Y-84071961D01*
X94698207Y-84071961D02*
X94602969Y-84167200D01*
X94602969Y-84167200D02*
X94507731Y-84214819D01*
X94507731Y-84214819D02*
X94317255Y-84214819D01*
X94317255Y-84214819D02*
X94222017Y-84167200D01*
X94222017Y-84167200D02*
X94126779Y-84071961D01*
X94126779Y-84071961D02*
X94079160Y-83881485D01*
X94079160Y-83881485D02*
X94079160Y-83548152D01*
X94079160Y-83548152D02*
X94126779Y-83357676D01*
X94126779Y-83357676D02*
X94222017Y-83262438D01*
X94222017Y-83262438D02*
X94317255Y-83214819D01*
X95174398Y-84214819D02*
X95174398Y-83214819D01*
X95174398Y-83214819D02*
X95745826Y-84214819D01*
X95745826Y-84214819D02*
X95745826Y-83214819D01*
X96222017Y-83691009D02*
X96555350Y-83691009D01*
X96698207Y-84214819D02*
X96222017Y-84214819D01*
X96222017Y-84214819D02*
X96222017Y-83214819D01*
X96222017Y-83214819D02*
X96698207Y-83214819D01*
X94460112Y-86231009D02*
X94126779Y-86231009D01*
X94126779Y-86754819D02*
X94126779Y-85754819D01*
X94126779Y-85754819D02*
X94602969Y-85754819D01*
X95174398Y-85754819D02*
X95269636Y-85754819D01*
X95269636Y-85754819D02*
X95364874Y-85802438D01*
X95364874Y-85802438D02*
X95412493Y-85850057D01*
X95412493Y-85850057D02*
X95460112Y-85945295D01*
X95460112Y-85945295D02*
X95507731Y-86135771D01*
X95507731Y-86135771D02*
X95507731Y-86373866D01*
X95507731Y-86373866D02*
X95460112Y-86564342D01*
X95460112Y-86564342D02*
X95412493Y-86659580D01*
X95412493Y-86659580D02*
X95364874Y-86707200D01*
X95364874Y-86707200D02*
X95269636Y-86754819D01*
X95269636Y-86754819D02*
X95174398Y-86754819D01*
X95174398Y-86754819D02*
X95079160Y-86707200D01*
X95079160Y-86707200D02*
X95031541Y-86659580D01*
X95031541Y-86659580D02*
X94983922Y-86564342D01*
X94983922Y-86564342D02*
X94936303Y-86373866D01*
X94936303Y-86373866D02*
X94936303Y-86135771D01*
X94936303Y-86135771D02*
X94983922Y-85945295D01*
X94983922Y-85945295D02*
X95031541Y-85850057D01*
X95031541Y-85850057D02*
X95079160Y-85802438D01*
X95079160Y-85802438D02*
X95174398Y-85754819D01*
X94460112Y-88771009D02*
X94126779Y-88771009D01*
X94126779Y-89294819D02*
X94126779Y-88294819D01*
X94126779Y-88294819D02*
X94602969Y-88294819D01*
X95507731Y-89294819D02*
X94936303Y-89294819D01*
X95222017Y-89294819D02*
X95222017Y-88294819D01*
X95222017Y-88294819D02*
X95126779Y-88437676D01*
X95126779Y-88437676D02*
X95031541Y-88532914D01*
X95031541Y-88532914D02*
X94936303Y-88580533D01*
X94126779Y-91834819D02*
X94126779Y-90834819D01*
X94602969Y-91834819D02*
X94602969Y-90834819D01*
X94602969Y-90834819D02*
X95174397Y-91834819D01*
X95174397Y-91834819D02*
X95174397Y-90834819D01*
X95650588Y-91834819D02*
X95650588Y-90834819D01*
X95650588Y-90834819D02*
X96031540Y-90834819D01*
X96031540Y-90834819D02*
X96126778Y-90882438D01*
X96126778Y-90882438D02*
X96174397Y-90930057D01*
X96174397Y-90930057D02*
X96222016Y-91025295D01*
X96222016Y-91025295D02*
X96222016Y-91168152D01*
X96222016Y-91168152D02*
X96174397Y-91263390D01*
X96174397Y-91263390D02*
X96126778Y-91311009D01*
X96126778Y-91311009D02*
X96031540Y-91358628D01*
X96031540Y-91358628D02*
X95650588Y-91358628D01*
X36834819Y-38392380D02*
X37834819Y-38154285D01*
X37834819Y-38154285D02*
X37120533Y-37963809D01*
X37120533Y-37963809D02*
X37834819Y-37773333D01*
X37834819Y-37773333D02*
X36834819Y-37535238D01*
X37834819Y-36582857D02*
X37358628Y-36916190D01*
X37834819Y-37154285D02*
X36834819Y-37154285D01*
X36834819Y-37154285D02*
X36834819Y-36773333D01*
X36834819Y-36773333D02*
X36882438Y-36678095D01*
X36882438Y-36678095D02*
X36930057Y-36630476D01*
X36930057Y-36630476D02*
X37025295Y-36582857D01*
X37025295Y-36582857D02*
X37168152Y-36582857D01*
X37168152Y-36582857D02*
X37263390Y-36630476D01*
X37263390Y-36630476D02*
X37311009Y-36678095D01*
X37311009Y-36678095D02*
X37358628Y-36773333D01*
X37358628Y-36773333D02*
X37358628Y-37154285D01*
X37834819Y-36154285D02*
X36834819Y-36154285D01*
X37311009Y-36154285D02*
X37311009Y-35582857D01*
X37834819Y-35582857D02*
X36834819Y-35582857D01*
X68554819Y-22699999D02*
X67554819Y-22699999D01*
X67554819Y-22699999D02*
X68269104Y-22366666D01*
X68269104Y-22366666D02*
X67554819Y-22033333D01*
X67554819Y-22033333D02*
X68554819Y-22033333D01*
X68269104Y-21604761D02*
X68269104Y-21128571D01*
X68554819Y-21699999D02*
X67554819Y-21366666D01*
X67554819Y-21366666D02*
X68554819Y-21033333D01*
X68554819Y-20699999D02*
X67554819Y-20699999D01*
X68554819Y-37963808D02*
X67554819Y-37963808D01*
X68554819Y-37487618D02*
X67554819Y-37487618D01*
X67554819Y-37487618D02*
X68554819Y-36916190D01*
X68554819Y-36916190D02*
X67554819Y-36916190D01*
X68554819Y-36439999D02*
X67554819Y-36439999D01*
X67554819Y-36439999D02*
X67554819Y-36059047D01*
X67554819Y-36059047D02*
X67602438Y-35963809D01*
X67602438Y-35963809D02*
X67650057Y-35916190D01*
X67650057Y-35916190D02*
X67745295Y-35868571D01*
X67745295Y-35868571D02*
X67888152Y-35868571D01*
X67888152Y-35868571D02*
X67983390Y-35916190D01*
X67983390Y-35916190D02*
X68031009Y-35963809D01*
X68031009Y-35963809D02*
X68078628Y-36059047D01*
X68078628Y-36059047D02*
X68078628Y-36439999D01*
D11*
X9521615Y-98880928D02*
X9521615Y-97380928D01*
X9521615Y-97380928D02*
X10378758Y-98880928D01*
X10378758Y-98880928D02*
X10378758Y-97380928D01*
X11093044Y-98880928D02*
X11093044Y-97380928D01*
X12307330Y-98095214D02*
X12521616Y-98166642D01*
X12521616Y-98166642D02*
X12593045Y-98238071D01*
X12593045Y-98238071D02*
X12664473Y-98380928D01*
X12664473Y-98380928D02*
X12664473Y-98595214D01*
X12664473Y-98595214D02*
X12593045Y-98738071D01*
X12593045Y-98738071D02*
X12521616Y-98809500D01*
X12521616Y-98809500D02*
X12378759Y-98880928D01*
X12378759Y-98880928D02*
X11807330Y-98880928D01*
X11807330Y-98880928D02*
X11807330Y-97380928D01*
X11807330Y-97380928D02*
X12307330Y-97380928D01*
X12307330Y-97380928D02*
X12450188Y-97452357D01*
X12450188Y-97452357D02*
X12521616Y-97523785D01*
X12521616Y-97523785D02*
X12593045Y-97666642D01*
X12593045Y-97666642D02*
X12593045Y-97809500D01*
X12593045Y-97809500D02*
X12521616Y-97952357D01*
X12521616Y-97952357D02*
X12450188Y-98023785D01*
X12450188Y-98023785D02*
X12307330Y-98095214D01*
X12307330Y-98095214D02*
X11807330Y-98095214D01*
X13807330Y-98095214D02*
X14021616Y-98166642D01*
X14021616Y-98166642D02*
X14093045Y-98238071D01*
X14093045Y-98238071D02*
X14164473Y-98380928D01*
X14164473Y-98380928D02*
X14164473Y-98595214D01*
X14164473Y-98595214D02*
X14093045Y-98738071D01*
X14093045Y-98738071D02*
X14021616Y-98809500D01*
X14021616Y-98809500D02*
X13878759Y-98880928D01*
X13878759Y-98880928D02*
X13307330Y-98880928D01*
X13307330Y-98880928D02*
X13307330Y-97380928D01*
X13307330Y-97380928D02*
X13807330Y-97380928D01*
X13807330Y-97380928D02*
X13950188Y-97452357D01*
X13950188Y-97452357D02*
X14021616Y-97523785D01*
X14021616Y-97523785D02*
X14093045Y-97666642D01*
X14093045Y-97666642D02*
X14093045Y-97809500D01*
X14093045Y-97809500D02*
X14021616Y-97952357D01*
X14021616Y-97952357D02*
X13950188Y-98023785D01*
X13950188Y-98023785D02*
X13807330Y-98095214D01*
X13807330Y-98095214D02*
X13307330Y-98095214D01*
X15521616Y-98880928D02*
X14807330Y-98880928D01*
X14807330Y-98880928D02*
X14807330Y-97380928D01*
X16021616Y-98095214D02*
X16521616Y-98095214D01*
X16735902Y-98880928D02*
X16021616Y-98880928D01*
X16021616Y-98880928D02*
X16021616Y-97380928D01*
X16021616Y-97380928D02*
X16735902Y-97380928D01*
X19664473Y-98880928D02*
X19664473Y-97380928D01*
X19664473Y-97380928D02*
X20235902Y-97380928D01*
X20235902Y-97380928D02*
X20378759Y-97452357D01*
X20378759Y-97452357D02*
X20450188Y-97523785D01*
X20450188Y-97523785D02*
X20521616Y-97666642D01*
X20521616Y-97666642D02*
X20521616Y-97880928D01*
X20521616Y-97880928D02*
X20450188Y-98023785D01*
X20450188Y-98023785D02*
X20378759Y-98095214D01*
X20378759Y-98095214D02*
X20235902Y-98166642D01*
X20235902Y-98166642D02*
X19664473Y-98166642D01*
X21093045Y-98452357D02*
X21807331Y-98452357D01*
X20950188Y-98880928D02*
X21450188Y-97380928D01*
X21450188Y-97380928D02*
X21950188Y-98880928D01*
X22450187Y-98880928D02*
X22450187Y-97380928D01*
X22450187Y-97380928D02*
X23307330Y-98880928D01*
X23307330Y-98880928D02*
X23307330Y-97380928D01*
X24021616Y-98095214D02*
X24521616Y-98095214D01*
X24735902Y-98880928D02*
X24021616Y-98880928D01*
X24021616Y-98880928D02*
X24021616Y-97380928D01*
X24021616Y-97380928D02*
X24735902Y-97380928D01*
X26093045Y-98880928D02*
X25378759Y-98880928D01*
X25378759Y-98880928D02*
X25378759Y-97380928D01*
X28235902Y-98095214D02*
X28450188Y-98166642D01*
X28450188Y-98166642D02*
X28521617Y-98238071D01*
X28521617Y-98238071D02*
X28593045Y-98380928D01*
X28593045Y-98380928D02*
X28593045Y-98595214D01*
X28593045Y-98595214D02*
X28521617Y-98738071D01*
X28521617Y-98738071D02*
X28450188Y-98809500D01*
X28450188Y-98809500D02*
X28307331Y-98880928D01*
X28307331Y-98880928D02*
X27735902Y-98880928D01*
X27735902Y-98880928D02*
X27735902Y-97380928D01*
X27735902Y-97380928D02*
X28235902Y-97380928D01*
X28235902Y-97380928D02*
X28378760Y-97452357D01*
X28378760Y-97452357D02*
X28450188Y-97523785D01*
X28450188Y-97523785D02*
X28521617Y-97666642D01*
X28521617Y-97666642D02*
X28521617Y-97809500D01*
X28521617Y-97809500D02*
X28450188Y-97952357D01*
X28450188Y-97952357D02*
X28378760Y-98023785D01*
X28378760Y-98023785D02*
X28235902Y-98095214D01*
X28235902Y-98095214D02*
X27735902Y-98095214D01*
X32235902Y-98880928D02*
X31521616Y-98880928D01*
X31521616Y-98880928D02*
X31521616Y-97380928D01*
X32735902Y-98095214D02*
X33235902Y-98095214D01*
X33450188Y-98880928D02*
X32735902Y-98880928D01*
X32735902Y-98880928D02*
X32735902Y-97380928D01*
X32735902Y-97380928D02*
X33450188Y-97380928D01*
X33878760Y-97380928D02*
X34378760Y-98880928D01*
X34378760Y-98880928D02*
X34878760Y-97380928D01*
X35378759Y-98095214D02*
X35878759Y-98095214D01*
X36093045Y-98880928D02*
X35378759Y-98880928D01*
X35378759Y-98880928D02*
X35378759Y-97380928D01*
X35378759Y-97380928D02*
X36093045Y-97380928D01*
X37450188Y-98880928D02*
X36735902Y-98880928D01*
X36735902Y-98880928D02*
X36735902Y-97380928D01*
X37878760Y-98809500D02*
X38093046Y-98880928D01*
X38093046Y-98880928D02*
X38450188Y-98880928D01*
X38450188Y-98880928D02*
X38593046Y-98809500D01*
X38593046Y-98809500D02*
X38664474Y-98738071D01*
X38664474Y-98738071D02*
X38735903Y-98595214D01*
X38735903Y-98595214D02*
X38735903Y-98452357D01*
X38735903Y-98452357D02*
X38664474Y-98309500D01*
X38664474Y-98309500D02*
X38593046Y-98238071D01*
X38593046Y-98238071D02*
X38450188Y-98166642D01*
X38450188Y-98166642D02*
X38164474Y-98095214D01*
X38164474Y-98095214D02*
X38021617Y-98023785D01*
X38021617Y-98023785D02*
X37950188Y-97952357D01*
X37950188Y-97952357D02*
X37878760Y-97809500D01*
X37878760Y-97809500D02*
X37878760Y-97666642D01*
X37878760Y-97666642D02*
X37950188Y-97523785D01*
X37950188Y-97523785D02*
X38021617Y-97452357D01*
X38021617Y-97452357D02*
X38164474Y-97380928D01*
X38164474Y-97380928D02*
X38521617Y-97380928D01*
X38521617Y-97380928D02*
X38735903Y-97452357D01*
X40450188Y-97523785D02*
X40521616Y-97452357D01*
X40521616Y-97452357D02*
X40664474Y-97380928D01*
X40664474Y-97380928D02*
X41021616Y-97380928D01*
X41021616Y-97380928D02*
X41164474Y-97452357D01*
X41164474Y-97452357D02*
X41235902Y-97523785D01*
X41235902Y-97523785D02*
X41307331Y-97666642D01*
X41307331Y-97666642D02*
X41307331Y-97809500D01*
X41307331Y-97809500D02*
X41235902Y-98023785D01*
X41235902Y-98023785D02*
X40378759Y-98880928D01*
X40378759Y-98880928D02*
X41307331Y-98880928D01*
D10*
X3238095Y-46304819D02*
X3238095Y-45304819D01*
X3238095Y-45781009D02*
X3809523Y-45781009D01*
X3809523Y-46304819D02*
X3809523Y-45304819D01*
X4809523Y-46304819D02*
X4238095Y-46304819D01*
X4523809Y-46304819D02*
X4523809Y-45304819D01*
X4523809Y-45304819D02*
X4428571Y-45447676D01*
X4428571Y-45447676D02*
X4333333Y-45542914D01*
X4333333Y-45542914D02*
X4238095Y-45590533D01*
X95238095Y-46304819D02*
X95238095Y-45304819D01*
X95238095Y-45781009D02*
X95809523Y-45781009D01*
X95809523Y-46304819D02*
X95809523Y-45304819D01*
X96238095Y-45400057D02*
X96285714Y-45352438D01*
X96285714Y-45352438D02*
X96380952Y-45304819D01*
X96380952Y-45304819D02*
X96619047Y-45304819D01*
X96619047Y-45304819D02*
X96714285Y-45352438D01*
X96714285Y-45352438D02*
X96761904Y-45400057D01*
X96761904Y-45400057D02*
X96809523Y-45495295D01*
X96809523Y-45495295D02*
X96809523Y-45590533D01*
X96809523Y-45590533D02*
X96761904Y-45733390D01*
X96761904Y-45733390D02*
X96190476Y-46304819D01*
X96190476Y-46304819D02*
X96809523Y-46304819D01*
%TO.C,SW2*%
D12*
X83210000Y-71340000D02*
X83210000Y-72723000D01*
X83210000Y-71340000D02*
X84593000Y-71340000D01*
X83450000Y-71580000D02*
X83450000Y-94200000D01*
X83450000Y-71580000D02*
X93350000Y-71580000D01*
X83450000Y-94200000D02*
X93350000Y-94200000D01*
X87723333Y-73365000D02*
X87723333Y-74635000D01*
X87723333Y-75905000D02*
X87723333Y-77175000D01*
X87723333Y-78445000D02*
X87723333Y-79715000D01*
X87723333Y-80985000D02*
X87723333Y-82255000D01*
X87723333Y-83525000D02*
X87723333Y-84795000D01*
X87723333Y-86065000D02*
X87723333Y-87335000D01*
X87723333Y-88605000D02*
X87723333Y-89875000D01*
X87723333Y-91145000D02*
X87723333Y-92415000D01*
X93350000Y-71580000D02*
X93350000Y-94200000D01*
X86370000Y-73365000D02*
X87723333Y-73365000D01*
X87723333Y-74635000D01*
X86370000Y-74635000D01*
X86370000Y-73365000D01*
G36*
X86370000Y-73365000D02*
G01*
X87723333Y-73365000D01*
X87723333Y-74635000D01*
X86370000Y-74635000D01*
X86370000Y-73365000D01*
G37*
X86370000Y-73365000D02*
X90430000Y-73365000D01*
X90430000Y-74635000D01*
X86370000Y-74635000D01*
X86370000Y-73365000D01*
X86370000Y-75905000D02*
X87723333Y-75905000D01*
X87723333Y-77175000D01*
X86370000Y-77175000D01*
X86370000Y-75905000D01*
G36*
X86370000Y-75905000D02*
G01*
X87723333Y-75905000D01*
X87723333Y-77175000D01*
X86370000Y-77175000D01*
X86370000Y-75905000D01*
G37*
X86370000Y-75905000D02*
X90430000Y-75905000D01*
X90430000Y-77175000D01*
X86370000Y-77175000D01*
X86370000Y-75905000D01*
X86370000Y-78445000D02*
X87723333Y-78445000D01*
X87723333Y-79715000D01*
X86370000Y-79715000D01*
X86370000Y-78445000D01*
G36*
X86370000Y-78445000D02*
G01*
X87723333Y-78445000D01*
X87723333Y-79715000D01*
X86370000Y-79715000D01*
X86370000Y-78445000D01*
G37*
X86370000Y-78445000D02*
X90430000Y-78445000D01*
X90430000Y-79715000D01*
X86370000Y-79715000D01*
X86370000Y-78445000D01*
X86370000Y-80985000D02*
X87723333Y-80985000D01*
X87723333Y-82255000D01*
X86370000Y-82255000D01*
X86370000Y-80985000D01*
G36*
X86370000Y-80985000D02*
G01*
X87723333Y-80985000D01*
X87723333Y-82255000D01*
X86370000Y-82255000D01*
X86370000Y-80985000D01*
G37*
X86370000Y-80985000D02*
X90430000Y-80985000D01*
X90430000Y-82255000D01*
X86370000Y-82255000D01*
X86370000Y-80985000D01*
X86370000Y-83525000D02*
X87723333Y-83525000D01*
X87723333Y-84795000D01*
X86370000Y-84795000D01*
X86370000Y-83525000D01*
G36*
X86370000Y-83525000D02*
G01*
X87723333Y-83525000D01*
X87723333Y-84795000D01*
X86370000Y-84795000D01*
X86370000Y-83525000D01*
G37*
X86370000Y-83525000D02*
X90430000Y-83525000D01*
X90430000Y-84795000D01*
X86370000Y-84795000D01*
X86370000Y-83525000D01*
X86370000Y-86065000D02*
X87723333Y-86065000D01*
X87723333Y-87335000D01*
X86370000Y-87335000D01*
X86370000Y-86065000D01*
G36*
X86370000Y-86065000D02*
G01*
X87723333Y-86065000D01*
X87723333Y-87335000D01*
X86370000Y-87335000D01*
X86370000Y-86065000D01*
G37*
X86370000Y-86065000D02*
X90430000Y-86065000D01*
X90430000Y-87335000D01*
X86370000Y-87335000D01*
X86370000Y-86065000D01*
X86370000Y-88605000D02*
X87723333Y-88605000D01*
X87723333Y-89875000D01*
X86370000Y-89875000D01*
X86370000Y-88605000D01*
G36*
X86370000Y-88605000D02*
G01*
X87723333Y-88605000D01*
X87723333Y-89875000D01*
X86370000Y-89875000D01*
X86370000Y-88605000D01*
G37*
X86370000Y-88605000D02*
X90430000Y-88605000D01*
X90430000Y-89875000D01*
X86370000Y-89875000D01*
X86370000Y-88605000D01*
X86370000Y-91145000D02*
X87723333Y-91145000D01*
X87723333Y-92415000D01*
X86370000Y-92415000D01*
X86370000Y-91145000D01*
G36*
X86370000Y-91145000D02*
G01*
X87723333Y-91145000D01*
X87723333Y-92415000D01*
X86370000Y-92415000D01*
X86370000Y-91145000D01*
G37*
X86370000Y-91145000D02*
X90430000Y-91145000D01*
X90430000Y-92415000D01*
X86370000Y-92415000D01*
X86370000Y-91145000D01*
%TO.C,D6*%
X25664000Y-37880000D02*
X25820000Y-37880000D01*
X27980000Y-37880000D02*
X28136000Y-37880000D01*
X25664484Y-37880000D02*
G75*
G02*
X25820000Y-34648563I1235516J1560000D01*
G01*
X25820000Y-37360961D02*
G75*
G02*
X25820000Y-35279039I1080000J1040961D01*
G01*
X27980000Y-34648563D02*
G75*
G02*
X28135516Y-37880000I-1080000J-1671437D01*
G01*
X27980000Y-35279039D02*
G75*
G02*
X27980000Y-37360961I-1080000J-1040961D01*
G01*
%TO.C,R47*%
X80590000Y-90770000D02*
X80590000Y-93380000D01*
X81960000Y-89400000D02*
G75*
G02*
X79220000Y-89400000I-1370000J0D01*
G01*
X79220000Y-89400000D02*
G75*
G02*
X81960000Y-89400000I1370000J0D01*
G01*
%TO.C,R58*%
X66000000Y-60370000D02*
X66000000Y-62980000D01*
X67370000Y-59000000D02*
G75*
G02*
X64630000Y-59000000I-1370000J0D01*
G01*
X64630000Y-59000000D02*
G75*
G02*
X67370000Y-59000000I1370000J0D01*
G01*
%TO.C,R16*%
X64130000Y-31240000D02*
X66740000Y-31240000D01*
X64130000Y-31240000D02*
G75*
G02*
X61390000Y-31240000I-1370000J0D01*
G01*
X61390000Y-31240000D02*
G75*
G02*
X64130000Y-31240000I1370000J0D01*
G01*
%TO.C,R24*%
X18050000Y-54100000D02*
X20660000Y-54100000D01*
X18050000Y-54100000D02*
G75*
G02*
X15310000Y-54100000I-1370000J0D01*
G01*
X15310000Y-54100000D02*
G75*
G02*
X18050000Y-54100000I1370000J0D01*
G01*
%TO.C,D5*%
X25664000Y-22640000D02*
X25820000Y-22640000D01*
X27980000Y-22640000D02*
X28136000Y-22640000D01*
X25664484Y-22640000D02*
G75*
G02*
X25820000Y-19408563I1235516J1560000D01*
G01*
X25820000Y-22120961D02*
G75*
G02*
X25820000Y-20039039I1080000J1040961D01*
G01*
X27980000Y-19408563D02*
G75*
G02*
X28135516Y-22640000I-1080000J-1671437D01*
G01*
X27980000Y-20039039D02*
G75*
G02*
X27980000Y-22120961I-1080000J-1040961D01*
G01*
%TO.C,Q2*%
X9740000Y-43885000D02*
X13340000Y-43885000D01*
X9183600Y-40936193D02*
G75*
G02*
X11540000Y-39435000I2356400J-1098807D01*
G01*
X9740000Y-43885000D02*
G75*
G02*
X9215816Y-43157795I1800000J1850000D01*
G01*
X11540000Y-39435000D02*
G75*
G02*
X13896400Y-40936193I0J-2600000D01*
G01*
X13864184Y-43157795D02*
G75*
G02*
X13340000Y-43885000I-2324184J1122795D01*
G01*
%TO.C,R6*%
X25730000Y-31240000D02*
X28340000Y-31240000D01*
X25730000Y-31240000D02*
G75*
G02*
X22990000Y-31240000I-1370000J0D01*
G01*
X22990000Y-31240000D02*
G75*
G02*
X25730000Y-31240000I1370000J0D01*
G01*
%TO.C,R28*%
X33410000Y-54100000D02*
X36020000Y-54100000D01*
X33410000Y-54100000D02*
G75*
G02*
X30670000Y-54100000I-1370000J0D01*
G01*
X30670000Y-54100000D02*
G75*
G02*
X33410000Y-54100000I1370000J0D01*
G01*
%TO.C,R31*%
X48770000Y-49020000D02*
X51380000Y-49020000D01*
X48770000Y-49020000D02*
G75*
G02*
X46030000Y-49020000I-1370000J0D01*
G01*
X46030000Y-49020000D02*
G75*
G02*
X48770000Y-49020000I1370000J0D01*
G01*
%TO.C,Q8*%
X36380000Y-40185000D02*
X32780000Y-40185000D01*
X32255816Y-40912205D02*
G75*
G02*
X32780000Y-40185000I2324184J-1122795D01*
G01*
X34580000Y-44635000D02*
G75*
G02*
X32223600Y-43133807I0J2600000D01*
G01*
X36380000Y-40185000D02*
G75*
G02*
X36904184Y-40912205I-1800000J-1850000D01*
G01*
X36936400Y-43133807D02*
G75*
G02*
X34580000Y-44635000I-2356400J1098807D01*
G01*
%TO.C,R39*%
X49870000Y-90770000D02*
X49870000Y-93380000D01*
X51240000Y-89400000D02*
G75*
G02*
X48500000Y-89400000I-1370000J0D01*
G01*
X48500000Y-89400000D02*
G75*
G02*
X51240000Y-89400000I1370000J0D01*
G01*
%TO.C,R21*%
X10370000Y-49020000D02*
X12980000Y-49020000D01*
X10370000Y-49020000D02*
G75*
G02*
X7630000Y-49020000I-1370000J0D01*
G01*
X7630000Y-49020000D02*
G75*
G02*
X10370000Y-49020000I1370000J0D01*
G01*
%TO.C,R54*%
X32000000Y-60370000D02*
X32000000Y-62980000D01*
X33370000Y-59000000D02*
G75*
G02*
X30630000Y-59000000I-1370000J0D01*
G01*
X30630000Y-59000000D02*
G75*
G02*
X33370000Y-59000000I1370000J0D01*
G01*
%TO.C,R11*%
X48770000Y-16000000D02*
X51380000Y-16000000D01*
X48770000Y-16000000D02*
G75*
G02*
X46030000Y-16000000I-1370000J0D01*
G01*
X46030000Y-16000000D02*
G75*
G02*
X48770000Y-16000000I1370000J0D01*
G01*
%TO.C,Q1*%
X9740000Y-28645000D02*
X13340000Y-28645000D01*
X9183600Y-25696193D02*
G75*
G02*
X11540000Y-24195000I2356400J-1098807D01*
G01*
X9740000Y-28645000D02*
G75*
G02*
X9215816Y-27917795I1800000J1850000D01*
G01*
X11540000Y-24195000D02*
G75*
G02*
X13896400Y-25696193I0J-2600000D01*
G01*
X13864184Y-27917795D02*
G75*
G02*
X13340000Y-28645000I-2324184J1122795D01*
G01*
%TO.C,C2*%
X93960000Y-27000000D02*
X92420000Y-27000000D01*
X93960000Y-27040000D02*
X92420000Y-27040000D01*
X93960000Y-27080000D02*
X92421000Y-27080000D01*
X93960000Y-27120000D02*
X92423000Y-27120000D01*
X93960000Y-27160000D02*
X92425000Y-27160000D01*
X93960000Y-27200000D02*
X92428000Y-27200000D01*
X93960000Y-27240000D02*
X92431000Y-27240000D01*
X93960000Y-27280000D02*
X92435000Y-27280000D01*
X93960000Y-27320000D02*
X92440000Y-27320000D01*
X93960000Y-27360000D02*
X92445000Y-27360000D01*
X93960000Y-27400000D02*
X92451000Y-27400000D01*
X93960000Y-27440000D02*
X92457000Y-27440000D01*
X93960000Y-27480000D02*
X92464000Y-27480000D01*
X93960000Y-27520000D02*
X92472000Y-27520000D01*
X93960000Y-27560000D02*
X92481000Y-27560000D01*
X93960000Y-27600000D02*
X92490000Y-27600000D01*
X93960000Y-27640000D02*
X92499000Y-27640000D01*
X93960000Y-27680000D02*
X92510000Y-27680000D01*
X93960000Y-27720000D02*
X92521000Y-27720000D01*
X93960000Y-27760000D02*
X92533000Y-27760000D01*
X93960000Y-27800000D02*
X92545000Y-27800000D01*
X93960000Y-27840000D02*
X92558000Y-27840000D01*
X93960000Y-27880000D02*
X92572000Y-27880000D01*
X93960000Y-27920000D02*
X92587000Y-27920000D01*
X93960000Y-27960000D02*
X92602000Y-27960000D01*
X93960000Y-28000000D02*
X92618000Y-28000000D01*
X93960000Y-28040000D02*
X92635000Y-28040000D01*
X93960000Y-28080000D02*
X92653000Y-28080000D01*
X93960000Y-28120000D02*
X92671000Y-28120000D01*
X93960000Y-28160000D02*
X92691000Y-28160000D01*
X93960000Y-28200000D02*
X92711000Y-28200000D01*
X93960000Y-28240000D02*
X92732000Y-28240000D01*
X93960000Y-28280000D02*
X92754000Y-28280000D01*
X93960000Y-28320000D02*
X92777000Y-28320000D01*
X93960000Y-28360000D02*
X92801000Y-28360000D01*
X93960000Y-28400000D02*
X92825000Y-28400000D01*
X93960000Y-28440000D02*
X92851000Y-28440000D01*
X93960000Y-28480000D02*
X92878000Y-28480000D01*
X93960000Y-28520000D02*
X92906000Y-28520000D01*
X93960000Y-28560000D02*
X92935000Y-28560000D01*
X93960000Y-28600000D02*
X92965000Y-28600000D01*
X93960000Y-28640000D02*
X92997000Y-28640000D01*
X93960000Y-28680000D02*
X93030000Y-28680000D01*
X93960000Y-28720000D02*
X93064000Y-28720000D01*
X93960000Y-28760000D02*
X93099000Y-28760000D01*
X93960000Y-28800000D02*
X93136000Y-28800000D01*
X93960000Y-28840000D02*
X93175000Y-28840000D01*
X93960000Y-28880000D02*
X93215000Y-28880000D01*
X93960000Y-28920000D02*
X93257000Y-28920000D01*
X93960000Y-28960000D02*
X93301000Y-28960000D01*
X93960000Y-29000000D02*
X93348000Y-29000000D01*
X95283000Y-29600000D02*
X94717000Y-29600000D01*
X95517000Y-29560000D02*
X94483000Y-29560000D01*
X95677000Y-29520000D02*
X94323000Y-29520000D01*
X95805000Y-29480000D02*
X94195000Y-29480000D01*
X95914000Y-29440000D02*
X94086000Y-29440000D01*
X96011000Y-29400000D02*
X93989000Y-29400000D01*
X96098000Y-29360000D02*
X93902000Y-29360000D01*
X96177000Y-29320000D02*
X93823000Y-29320000D01*
X96251000Y-29280000D02*
X93749000Y-29280000D01*
X96319000Y-29240000D02*
X93681000Y-29240000D01*
X96383000Y-29200000D02*
X93617000Y-29200000D01*
X96443000Y-29160000D02*
X93557000Y-29160000D01*
X96475000Y-24195225D02*
X96475000Y-24695225D01*
X96499000Y-29120000D02*
X93501000Y-29120000D01*
X96553000Y-29080000D02*
X93447000Y-29080000D01*
X96604000Y-29040000D02*
X93396000Y-29040000D01*
X96652000Y-29000000D02*
X96040000Y-29000000D01*
X96699000Y-28960000D02*
X96040000Y-28960000D01*
X96725000Y-24445225D02*
X96225000Y-24445225D01*
X96743000Y-28920000D02*
X96040000Y-28920000D01*
X96785000Y-28880000D02*
X96040000Y-28880000D01*
X96825000Y-28840000D02*
X96040000Y-28840000D01*
X96864000Y-28800000D02*
X96040000Y-28800000D01*
X96901000Y-28760000D02*
X96040000Y-28760000D01*
X96936000Y-28720000D02*
X96040000Y-28720000D01*
X96970000Y-28680000D02*
X96040000Y-28680000D01*
X97003000Y-28640000D02*
X96040000Y-28640000D01*
X97035000Y-28600000D02*
X96040000Y-28600000D01*
X97065000Y-28560000D02*
X96040000Y-28560000D01*
X97094000Y-28520000D02*
X96040000Y-28520000D01*
X97122000Y-28480000D02*
X96040000Y-28480000D01*
X97149000Y-28440000D02*
X96040000Y-28440000D01*
X97175000Y-28400000D02*
X96040000Y-28400000D01*
X97199000Y-28360000D02*
X96040000Y-28360000D01*
X97223000Y-28320000D02*
X96040000Y-28320000D01*
X97246000Y-28280000D02*
X96040000Y-28280000D01*
X97268000Y-28240000D02*
X96040000Y-28240000D01*
X97289000Y-28200000D02*
X96040000Y-28200000D01*
X97309000Y-28160000D02*
X96040000Y-28160000D01*
X97329000Y-28120000D02*
X96040000Y-28120000D01*
X97347000Y-28080000D02*
X96040000Y-28080000D01*
X97365000Y-28040000D02*
X96040000Y-28040000D01*
X97382000Y-28000000D02*
X96040000Y-28000000D01*
X97398000Y-27960000D02*
X96040000Y-27960000D01*
X97413000Y-27920000D02*
X96040000Y-27920000D01*
X97428000Y-27880000D02*
X96040000Y-27880000D01*
X97442000Y-27840000D02*
X96040000Y-27840000D01*
X97455000Y-27800000D02*
X96040000Y-27800000D01*
X97467000Y-27760000D02*
X96040000Y-27760000D01*
X97479000Y-27720000D02*
X96040000Y-27720000D01*
X97490000Y-27680000D02*
X96040000Y-27680000D01*
X97501000Y-27640000D02*
X96040000Y-27640000D01*
X97510000Y-27600000D02*
X96040000Y-27600000D01*
X97519000Y-27560000D02*
X96040000Y-27560000D01*
X97528000Y-27520000D02*
X96040000Y-27520000D01*
X97536000Y-27480000D02*
X96040000Y-27480000D01*
X97543000Y-27440000D02*
X96040000Y-27440000D01*
X97549000Y-27400000D02*
X96040000Y-27400000D01*
X97555000Y-27360000D02*
X96040000Y-27360000D01*
X97560000Y-27320000D02*
X96040000Y-27320000D01*
X97565000Y-27280000D02*
X96040000Y-27280000D01*
X97569000Y-27240000D02*
X96040000Y-27240000D01*
X97572000Y-27200000D02*
X96040000Y-27200000D01*
X97575000Y-27160000D02*
X96040000Y-27160000D01*
X97577000Y-27120000D02*
X96040000Y-27120000D01*
X97579000Y-27080000D02*
X96040000Y-27080000D01*
X97580000Y-27000000D02*
X96040000Y-27000000D01*
X97580000Y-27040000D02*
X96040000Y-27040000D01*
X97620000Y-27000000D02*
G75*
G02*
X92380000Y-27000000I-2620000J0D01*
G01*
X92380000Y-27000000D02*
G75*
G02*
X97620000Y-27000000I2620000J0D01*
G01*
%TO.C,D4*%
X17984000Y-37880000D02*
X18140000Y-37880000D01*
X20300000Y-37880000D02*
X20456000Y-37880000D01*
X17984484Y-37880000D02*
G75*
G02*
X18140000Y-34648563I1235516J1560000D01*
G01*
X18140000Y-37360961D02*
G75*
G02*
X18140000Y-35279039I1080000J1040961D01*
G01*
X20300000Y-34648563D02*
G75*
G02*
X20455516Y-37880000I-1080000J-1671437D01*
G01*
X20300000Y-35279039D02*
G75*
G02*
X20300000Y-37360961I-1080000J-1040961D01*
G01*
%TO.C,R14*%
X56450000Y-31240000D02*
X59060000Y-31240000D01*
X56450000Y-31240000D02*
G75*
G02*
X53710000Y-31240000I-1370000J0D01*
G01*
X53710000Y-31240000D02*
G75*
G02*
X56450000Y-31240000I1370000J0D01*
G01*
%TO.C,R49*%
X74590000Y-83070000D02*
X74590000Y-85680000D01*
X75960000Y-81700000D02*
G75*
G02*
X73220000Y-81700000I-1370000J0D01*
G01*
X73220000Y-81700000D02*
G75*
G02*
X75960000Y-81700000I1370000J0D01*
G01*
%TO.C,R61*%
X86000000Y-60370000D02*
X86000000Y-62980000D01*
X87370000Y-59000000D02*
G75*
G02*
X84630000Y-59000000I-1370000J0D01*
G01*
X84630000Y-59000000D02*
G75*
G02*
X87370000Y-59000000I1370000J0D01*
G01*
%TO.C,Q12*%
X51740000Y-40185000D02*
X48140000Y-40185000D01*
X47615816Y-40912205D02*
G75*
G02*
X48140000Y-40185000I2324184J-1122795D01*
G01*
X49940000Y-44635000D02*
G75*
G02*
X47583600Y-43133807I0J2600000D01*
G01*
X51740000Y-40185000D02*
G75*
G02*
X52264184Y-40912205I-1800000J-1850000D01*
G01*
X52296400Y-43133807D02*
G75*
G02*
X49940000Y-44635000I-2356400J1098807D01*
G01*
%TO.C,R23*%
X18050000Y-49020000D02*
X20660000Y-49020000D01*
X18050000Y-49020000D02*
G75*
G02*
X15310000Y-49020000I-1370000J0D01*
G01*
X15310000Y-49020000D02*
G75*
G02*
X18050000Y-49020000I1370000J0D01*
G01*
%TO.C,R60*%
X81000000Y-60370000D02*
X81000000Y-62980000D01*
X82370000Y-59000000D02*
G75*
G02*
X79630000Y-59000000I-1370000J0D01*
G01*
X79630000Y-59000000D02*
G75*
G02*
X82370000Y-59000000I1370000J0D01*
G01*
%TO.C,SW4*%
X51750000Y-62500000D02*
X51750000Y-64000000D01*
X53000000Y-66500000D02*
X57500000Y-66500000D01*
X57500000Y-60000000D02*
X53000000Y-60000000D01*
X58750000Y-64000000D02*
X58750000Y-62500000D01*
%TO.C,D12*%
X48704000Y-37880000D02*
X48860000Y-37880000D01*
X51020000Y-37880000D02*
X51176000Y-37880000D01*
X48704484Y-37880000D02*
G75*
G02*
X48860000Y-34648563I1235516J1560000D01*
G01*
X48860000Y-37360961D02*
G75*
G02*
X48860000Y-35279039I1080000J1040961D01*
G01*
X51020000Y-34648563D02*
G75*
G02*
X51175516Y-37880000I-1080000J-1671437D01*
G01*
X51020000Y-35279039D02*
G75*
G02*
X51020000Y-37360961I-1080000J-1040961D01*
G01*
%TO.C,D13*%
X56384000Y-22640000D02*
X56540000Y-22640000D01*
X58700000Y-22640000D02*
X58856000Y-22640000D01*
X56384484Y-22640000D02*
G75*
G02*
X56540000Y-19408563I1235516J1560000D01*
G01*
X56540000Y-22120961D02*
G75*
G02*
X56540000Y-20039039I1080000J1040961D01*
G01*
X58700000Y-19408563D02*
G75*
G02*
X58855516Y-22640000I-1080000J-1671437D01*
G01*
X58700000Y-20039039D02*
G75*
G02*
X58700000Y-22120961I-1080000J-1040961D01*
G01*
%TO.C,R52*%
X68590000Y-83070000D02*
X68590000Y-85680000D01*
X69960000Y-81700000D02*
G75*
G02*
X67220000Y-81700000I-1370000J0D01*
G01*
X67220000Y-81700000D02*
G75*
G02*
X69960000Y-81700000I1370000J0D01*
G01*
%TO.C,C3*%
X25960000Y-60000000D02*
X24420000Y-60000000D01*
X25960000Y-60040000D02*
X24420000Y-60040000D01*
X25960000Y-60080000D02*
X24421000Y-60080000D01*
X25960000Y-60120000D02*
X24423000Y-60120000D01*
X25960000Y-60160000D02*
X24425000Y-60160000D01*
X25960000Y-60200000D02*
X24428000Y-60200000D01*
X25960000Y-60240000D02*
X24431000Y-60240000D01*
X25960000Y-60280000D02*
X24435000Y-60280000D01*
X25960000Y-60320000D02*
X24440000Y-60320000D01*
X25960000Y-60360000D02*
X24445000Y-60360000D01*
X25960000Y-60400000D02*
X24451000Y-60400000D01*
X25960000Y-60440000D02*
X24457000Y-60440000D01*
X25960000Y-60480000D02*
X24464000Y-60480000D01*
X25960000Y-60520000D02*
X24472000Y-60520000D01*
X25960000Y-60560000D02*
X24481000Y-60560000D01*
X25960000Y-60600000D02*
X24490000Y-60600000D01*
X25960000Y-60640000D02*
X24499000Y-60640000D01*
X25960000Y-60680000D02*
X24510000Y-60680000D01*
X25960000Y-60720000D02*
X24521000Y-60720000D01*
X25960000Y-60760000D02*
X24533000Y-60760000D01*
X25960000Y-60800000D02*
X24545000Y-60800000D01*
X25960000Y-60840000D02*
X24558000Y-60840000D01*
X25960000Y-60880000D02*
X24572000Y-60880000D01*
X25960000Y-60920000D02*
X24587000Y-60920000D01*
X25960000Y-60960000D02*
X24602000Y-60960000D01*
X25960000Y-61000000D02*
X24618000Y-61000000D01*
X25960000Y-61040000D02*
X24635000Y-61040000D01*
X25960000Y-61080000D02*
X24653000Y-61080000D01*
X25960000Y-61120000D02*
X24671000Y-61120000D01*
X25960000Y-61160000D02*
X24691000Y-61160000D01*
X25960000Y-61200000D02*
X24711000Y-61200000D01*
X25960000Y-61240000D02*
X24732000Y-61240000D01*
X25960000Y-61280000D02*
X24754000Y-61280000D01*
X25960000Y-61320000D02*
X24777000Y-61320000D01*
X25960000Y-61360000D02*
X24801000Y-61360000D01*
X25960000Y-61400000D02*
X24825000Y-61400000D01*
X25960000Y-61440000D02*
X24851000Y-61440000D01*
X25960000Y-61480000D02*
X24878000Y-61480000D01*
X25960000Y-61520000D02*
X24906000Y-61520000D01*
X25960000Y-61560000D02*
X24935000Y-61560000D01*
X25960000Y-61600000D02*
X24965000Y-61600000D01*
X25960000Y-61640000D02*
X24997000Y-61640000D01*
X25960000Y-61680000D02*
X25030000Y-61680000D01*
X25960000Y-61720000D02*
X25064000Y-61720000D01*
X25960000Y-61760000D02*
X25099000Y-61760000D01*
X25960000Y-61800000D02*
X25136000Y-61800000D01*
X25960000Y-61840000D02*
X25175000Y-61840000D01*
X25960000Y-61880000D02*
X25215000Y-61880000D01*
X25960000Y-61920000D02*
X25257000Y-61920000D01*
X25960000Y-61960000D02*
X25301000Y-61960000D01*
X25960000Y-62000000D02*
X25348000Y-62000000D01*
X27283000Y-62600000D02*
X26717000Y-62600000D01*
X27517000Y-62560000D02*
X26483000Y-62560000D01*
X27677000Y-62520000D02*
X26323000Y-62520000D01*
X27805000Y-62480000D02*
X26195000Y-62480000D01*
X27914000Y-62440000D02*
X26086000Y-62440000D01*
X28011000Y-62400000D02*
X25989000Y-62400000D01*
X28098000Y-62360000D02*
X25902000Y-62360000D01*
X28177000Y-62320000D02*
X25823000Y-62320000D01*
X28251000Y-62280000D02*
X25749000Y-62280000D01*
X28319000Y-62240000D02*
X25681000Y-62240000D01*
X28383000Y-62200000D02*
X25617000Y-62200000D01*
X28443000Y-62160000D02*
X25557000Y-62160000D01*
X28475000Y-57195225D02*
X28475000Y-57695225D01*
X28499000Y-62120000D02*
X25501000Y-62120000D01*
X28553000Y-62080000D02*
X25447000Y-62080000D01*
X28604000Y-62040000D02*
X25396000Y-62040000D01*
X28652000Y-62000000D02*
X28040000Y-62000000D01*
X28699000Y-61960000D02*
X28040000Y-61960000D01*
X28725000Y-57445225D02*
X28225000Y-57445225D01*
X28743000Y-61920000D02*
X28040000Y-61920000D01*
X28785000Y-61880000D02*
X28040000Y-61880000D01*
X28825000Y-61840000D02*
X28040000Y-61840000D01*
X28864000Y-61800000D02*
X28040000Y-61800000D01*
X28901000Y-61760000D02*
X28040000Y-61760000D01*
X28936000Y-61720000D02*
X28040000Y-61720000D01*
X28970000Y-61680000D02*
X28040000Y-61680000D01*
X29003000Y-61640000D02*
X28040000Y-61640000D01*
X29035000Y-61600000D02*
X28040000Y-61600000D01*
X29065000Y-61560000D02*
X28040000Y-61560000D01*
X29094000Y-61520000D02*
X28040000Y-61520000D01*
X29122000Y-61480000D02*
X28040000Y-61480000D01*
X29149000Y-61440000D02*
X28040000Y-61440000D01*
X29175000Y-61400000D02*
X28040000Y-61400000D01*
X29199000Y-61360000D02*
X28040000Y-61360000D01*
X29223000Y-61320000D02*
X28040000Y-61320000D01*
X29246000Y-61280000D02*
X28040000Y-61280000D01*
X29268000Y-61240000D02*
X28040000Y-61240000D01*
X29289000Y-61200000D02*
X28040000Y-61200000D01*
X29309000Y-61160000D02*
X28040000Y-61160000D01*
X29329000Y-61120000D02*
X28040000Y-61120000D01*
X29347000Y-61080000D02*
X28040000Y-61080000D01*
X29365000Y-61040000D02*
X28040000Y-61040000D01*
X29382000Y-61000000D02*
X28040000Y-61000000D01*
X29398000Y-60960000D02*
X28040000Y-60960000D01*
X29413000Y-60920000D02*
X28040000Y-60920000D01*
X29428000Y-60880000D02*
X28040000Y-60880000D01*
X29442000Y-60840000D02*
X28040000Y-60840000D01*
X29455000Y-60800000D02*
X28040000Y-60800000D01*
X29467000Y-60760000D02*
X28040000Y-60760000D01*
X29479000Y-60720000D02*
X28040000Y-60720000D01*
X29490000Y-60680000D02*
X28040000Y-60680000D01*
X29501000Y-60640000D02*
X28040000Y-60640000D01*
X29510000Y-60600000D02*
X28040000Y-60600000D01*
X29519000Y-60560000D02*
X28040000Y-60560000D01*
X29528000Y-60520000D02*
X28040000Y-60520000D01*
X29536000Y-60480000D02*
X28040000Y-60480000D01*
X29543000Y-60440000D02*
X28040000Y-60440000D01*
X29549000Y-60400000D02*
X28040000Y-60400000D01*
X29555000Y-60360000D02*
X28040000Y-60360000D01*
X29560000Y-60320000D02*
X28040000Y-60320000D01*
X29565000Y-60280000D02*
X28040000Y-60280000D01*
X29569000Y-60240000D02*
X28040000Y-60240000D01*
X29572000Y-60200000D02*
X28040000Y-60200000D01*
X29575000Y-60160000D02*
X28040000Y-60160000D01*
X29577000Y-60120000D02*
X28040000Y-60120000D01*
X29579000Y-60080000D02*
X28040000Y-60080000D01*
X29580000Y-60000000D02*
X28040000Y-60000000D01*
X29580000Y-60040000D02*
X28040000Y-60040000D01*
X29620000Y-60000000D02*
G75*
G02*
X24380000Y-60000000I-2620000J0D01*
G01*
X24380000Y-60000000D02*
G75*
G02*
X29620000Y-60000000I2620000J0D01*
G01*
%TO.C,R10*%
X41090000Y-31240000D02*
X43700000Y-31240000D01*
X41090000Y-31240000D02*
G75*
G02*
X38350000Y-31240000I-1370000J0D01*
G01*
X38350000Y-31240000D02*
G75*
G02*
X41090000Y-31240000I1370000J0D01*
G01*
%TO.C,Q5*%
X25100000Y-28645000D02*
X28700000Y-28645000D01*
X24543600Y-25696193D02*
G75*
G02*
X26900000Y-24195000I2356400J-1098807D01*
G01*
X25100000Y-28645000D02*
G75*
G02*
X24575816Y-27917795I1800000J1850000D01*
G01*
X26900000Y-24195000D02*
G75*
G02*
X29256400Y-25696193I0J-2600000D01*
G01*
X29224184Y-27917795D02*
G75*
G02*
X28700000Y-28645000I-2324184J1122795D01*
G01*
%TO.C,R50*%
X74590000Y-90770000D02*
X74590000Y-93380000D01*
X75960000Y-89400000D02*
G75*
G02*
X73220000Y-89400000I-1370000J0D01*
G01*
X73220000Y-89400000D02*
G75*
G02*
X75960000Y-89400000I1370000J0D01*
G01*
%TO.C,R22*%
X10370000Y-54100000D02*
X12980000Y-54100000D01*
X10370000Y-54100000D02*
G75*
G02*
X7630000Y-54100000I-1370000J0D01*
G01*
X7630000Y-54100000D02*
G75*
G02*
X10370000Y-54100000I1370000J0D01*
G01*
%TO.C,R37*%
X49870000Y-75370000D02*
X49870000Y-77980000D01*
X51240000Y-74000000D02*
G75*
G02*
X48500000Y-74000000I-1370000J0D01*
G01*
X48500000Y-74000000D02*
G75*
G02*
X51240000Y-74000000I1370000J0D01*
G01*
%TO.C,D9*%
X41024000Y-22640000D02*
X41180000Y-22640000D01*
X43340000Y-22640000D02*
X43496000Y-22640000D01*
X41024484Y-22640000D02*
G75*
G02*
X41180000Y-19408563I1235516J1560000D01*
G01*
X41180000Y-22120961D02*
G75*
G02*
X41180000Y-20039039I1080000J1040961D01*
G01*
X43340000Y-19408563D02*
G75*
G02*
X43495516Y-22640000I-1080000J-1671437D01*
G01*
X43340000Y-20039039D02*
G75*
G02*
X43340000Y-22120961I-1080000J-1040961D01*
G01*
%TO.C,R46*%
X80590000Y-83070000D02*
X80590000Y-85680000D01*
X81960000Y-81700000D02*
G75*
G02*
X79220000Y-81700000I-1370000J0D01*
G01*
X79220000Y-81700000D02*
G75*
G02*
X81960000Y-81700000I1370000J0D01*
G01*
%TO.C,Q7*%
X36380000Y-24945000D02*
X32780000Y-24945000D01*
X32255816Y-25672205D02*
G75*
G02*
X32780000Y-24945000I2324184J-1122795D01*
G01*
X34580000Y-29395000D02*
G75*
G02*
X32223600Y-27893807I0J2600000D01*
G01*
X36380000Y-24945000D02*
G75*
G02*
X36904184Y-25672205I-1800000J-1850000D01*
G01*
X36936400Y-27893807D02*
G75*
G02*
X34580000Y-29395000I-2356400J1098807D01*
G01*
%TO.C,D17*%
X23040000Y-68000000D02*
X23690000Y-68000000D01*
X24290000Y-66880000D02*
X24290000Y-69120000D01*
X24410000Y-66880000D02*
X24410000Y-69120000D01*
X24530000Y-66880000D02*
X24530000Y-69120000D01*
X28580000Y-68000000D02*
X27930000Y-68000000D01*
X23690000Y-66880000D02*
X27930000Y-66880000D01*
X27930000Y-69120000D01*
X23690000Y-69120000D01*
X23690000Y-66880000D01*
%TO.C,R38*%
X49870000Y-83070000D02*
X49870000Y-85680000D01*
X51240000Y-81700000D02*
G75*
G02*
X48500000Y-81700000I-1370000J0D01*
G01*
X48500000Y-81700000D02*
G75*
G02*
X51240000Y-81700000I1370000J0D01*
G01*
%TO.C,R8*%
X33410000Y-31240000D02*
X36020000Y-31240000D01*
X33410000Y-31240000D02*
G75*
G02*
X30670000Y-31240000I-1370000J0D01*
G01*
X30670000Y-31240000D02*
G75*
G02*
X33410000Y-31240000I1370000J0D01*
G01*
%TO.C,R15*%
X64130000Y-16000000D02*
X66740000Y-16000000D01*
X64130000Y-16000000D02*
G75*
G02*
X61390000Y-16000000I-1370000J0D01*
G01*
X61390000Y-16000000D02*
G75*
G02*
X64130000Y-16000000I1370000J0D01*
G01*
%TO.C,D10*%
X41024000Y-37880000D02*
X41180000Y-37880000D01*
X43340000Y-37880000D02*
X43496000Y-37880000D01*
X41024484Y-37880000D02*
G75*
G02*
X41180000Y-34648563I1235516J1560000D01*
G01*
X41180000Y-37360961D02*
G75*
G02*
X41180000Y-35279039I1080000J1040961D01*
G01*
X43340000Y-34648563D02*
G75*
G02*
X43495516Y-37880000I-1080000J-1671437D01*
G01*
X43340000Y-35279039D02*
G75*
G02*
X43340000Y-37360961I-1080000J-1040961D01*
G01*
%TO.C,R27*%
X33410000Y-49020000D02*
X36020000Y-49020000D01*
X33410000Y-49020000D02*
G75*
G02*
X30670000Y-49020000I-1370000J0D01*
G01*
X30670000Y-49020000D02*
G75*
G02*
X33410000Y-49020000I1370000J0D01*
G01*
%TO.C,R26*%
X25730000Y-54100000D02*
X28340000Y-54100000D01*
X25730000Y-54100000D02*
G75*
G02*
X22990000Y-54100000I-1370000J0D01*
G01*
X22990000Y-54100000D02*
G75*
G02*
X25730000Y-54100000I1370000J0D01*
G01*
%TO.C,Q9*%
X40460000Y-28645000D02*
X44060000Y-28645000D01*
X39903600Y-25696193D02*
G75*
G02*
X42260000Y-24195000I2356400J-1098807D01*
G01*
X40460000Y-28645000D02*
G75*
G02*
X39935816Y-27917795I1800000J1850000D01*
G01*
X42260000Y-24195000D02*
G75*
G02*
X44616400Y-25696193I0J-2600000D01*
G01*
X44584184Y-27917795D02*
G75*
G02*
X44060000Y-28645000I-2324184J1122795D01*
G01*
%TO.C,R40*%
X43870000Y-75370000D02*
X43870000Y-77980000D01*
X45240000Y-74000000D02*
G75*
G02*
X42500000Y-74000000I-1370000J0D01*
G01*
X42500000Y-74000000D02*
G75*
G02*
X45240000Y-74000000I1370000J0D01*
G01*
%TO.C,Q6*%
X25100000Y-43885000D02*
X28700000Y-43885000D01*
X24543600Y-40936193D02*
G75*
G02*
X26900000Y-39435000I2356400J-1098807D01*
G01*
X25100000Y-43885000D02*
G75*
G02*
X24575816Y-43157795I1800000J1850000D01*
G01*
X26900000Y-39435000D02*
G75*
G02*
X29256400Y-40936193I0J-2600000D01*
G01*
X29224184Y-43157795D02*
G75*
G02*
X28700000Y-43885000I-2324184J1122795D01*
G01*
%TO.C,Q15*%
X67100000Y-24945000D02*
X63500000Y-24945000D01*
X62975816Y-25672205D02*
G75*
G02*
X63500000Y-24945000I2324184J-1122795D01*
G01*
X65300000Y-29395000D02*
G75*
G02*
X62943600Y-27893807I0J2600000D01*
G01*
X67100000Y-24945000D02*
G75*
G02*
X67624184Y-25672205I-1800000J-1850000D01*
G01*
X67656400Y-27893807D02*
G75*
G02*
X65300000Y-29395000I-2356400J1098807D01*
G01*
%TO.C,R3*%
X18050000Y-16000000D02*
X20660000Y-16000000D01*
X18050000Y-16000000D02*
G75*
G02*
X15310000Y-16000000I-1370000J0D01*
G01*
X15310000Y-16000000D02*
G75*
G02*
X18050000Y-16000000I1370000J0D01*
G01*
%TO.C,D7*%
X33344000Y-22640000D02*
X33500000Y-22640000D01*
X35660000Y-22640000D02*
X35816000Y-22640000D01*
X33344484Y-22640000D02*
G75*
G02*
X33500000Y-19408563I1235516J1560000D01*
G01*
X33500000Y-22120961D02*
G75*
G02*
X33500000Y-20039039I1080000J1040961D01*
G01*
X35660000Y-19408563D02*
G75*
G02*
X35815516Y-22640000I-1080000J-1671437D01*
G01*
X35660000Y-20039039D02*
G75*
G02*
X35660000Y-22120961I-1080000J-1040961D01*
G01*
%TO.C,R56*%
X42000000Y-60370000D02*
X42000000Y-62980000D01*
X43370000Y-59000000D02*
G75*
G02*
X40630000Y-59000000I-1370000J0D01*
G01*
X40630000Y-59000000D02*
G75*
G02*
X43370000Y-59000000I1370000J0D01*
G01*
%TO.C,Q4*%
X21020000Y-40185000D02*
X17420000Y-40185000D01*
X16895816Y-40912205D02*
G75*
G02*
X17420000Y-40185000I2324184J-1122795D01*
G01*
X19220000Y-44635000D02*
G75*
G02*
X16863600Y-43133807I0J2600000D01*
G01*
X21020000Y-40185000D02*
G75*
G02*
X21544184Y-40912205I-1800000J-1850000D01*
G01*
X21576400Y-43133807D02*
G75*
G02*
X19220000Y-44635000I-2356400J1098807D01*
G01*
%TO.C,D11*%
X48704000Y-22640000D02*
X48860000Y-22640000D01*
X51020000Y-22640000D02*
X51176000Y-22640000D01*
X48704484Y-22640000D02*
G75*
G02*
X48860000Y-19408563I1235516J1560000D01*
G01*
X48860000Y-22120961D02*
G75*
G02*
X48860000Y-20039039I1080000J1040961D01*
G01*
X51020000Y-19408563D02*
G75*
G02*
X51175516Y-22640000I-1080000J-1671437D01*
G01*
X51020000Y-20039039D02*
G75*
G02*
X51020000Y-22120961I-1080000J-1040961D01*
G01*
%TO.C,R20*%
X71810000Y-40765000D02*
X74420000Y-40765000D01*
X71810000Y-40765000D02*
G75*
G02*
X69070000Y-40765000I-1370000J0D01*
G01*
X69070000Y-40765000D02*
G75*
G02*
X71810000Y-40765000I1370000J0D01*
G01*
%TO.C,R5*%
X25730000Y-16000000D02*
X28340000Y-16000000D01*
X25730000Y-16000000D02*
G75*
G02*
X22990000Y-16000000I-1370000J0D01*
G01*
X22990000Y-16000000D02*
G75*
G02*
X25730000Y-16000000I1370000J0D01*
G01*
%TO.C,R1*%
X10370000Y-16000000D02*
X12980000Y-16000000D01*
X10370000Y-16000000D02*
G75*
G02*
X7630000Y-16000000I-1370000J0D01*
G01*
X7630000Y-16000000D02*
G75*
G02*
X10370000Y-16000000I1370000J0D01*
G01*
%TO.C,R62*%
X91000000Y-60370000D02*
X91000000Y-62980000D01*
X92370000Y-59000000D02*
G75*
G02*
X89630000Y-59000000I-1370000J0D01*
G01*
X89630000Y-59000000D02*
G75*
G02*
X92370000Y-59000000I1370000J0D01*
G01*
%TO.C,R36*%
X64130000Y-54100000D02*
X66740000Y-54100000D01*
X64130000Y-54100000D02*
G75*
G02*
X61390000Y-54100000I-1370000J0D01*
G01*
X61390000Y-54100000D02*
G75*
G02*
X64130000Y-54100000I1370000J0D01*
G01*
%TO.C,R30*%
X41090000Y-54100000D02*
X43700000Y-54100000D01*
X41090000Y-54100000D02*
G75*
G02*
X38350000Y-54100000I-1370000J0D01*
G01*
X38350000Y-54100000D02*
G75*
G02*
X41090000Y-54100000I1370000J0D01*
G01*
%TO.C,R2*%
X10370000Y-31240000D02*
X12980000Y-31240000D01*
X10370000Y-31240000D02*
G75*
G02*
X7630000Y-31240000I-1370000J0D01*
G01*
X7630000Y-31240000D02*
G75*
G02*
X10370000Y-31240000I1370000J0D01*
G01*
%TO.C,Q18*%
X71180000Y-30550000D02*
X74780000Y-30550000D01*
X70623600Y-27601193D02*
G75*
G02*
X72980000Y-26100000I2356400J-1098807D01*
G01*
X71180000Y-30550000D02*
G75*
G02*
X70655816Y-29822795I1800000J1850000D01*
G01*
X72980000Y-26100000D02*
G75*
G02*
X75336400Y-27601193I0J-2600000D01*
G01*
X75304184Y-29822795D02*
G75*
G02*
X74780000Y-30550000I-2324184J1122795D01*
G01*
%TO.C,Q14*%
X55820000Y-43885000D02*
X59420000Y-43885000D01*
X55263600Y-40936193D02*
G75*
G02*
X57620000Y-39435000I2356400J-1098807D01*
G01*
X55820000Y-43885000D02*
G75*
G02*
X55295816Y-43157795I1800000J1850000D01*
G01*
X57620000Y-39435000D02*
G75*
G02*
X59976400Y-40936193I0J-2600000D01*
G01*
X59944184Y-43157795D02*
G75*
G02*
X59420000Y-43885000I-2324184J1122795D01*
G01*
%TO.C,D16*%
X64064000Y-37880000D02*
X64220000Y-37880000D01*
X66380000Y-37880000D02*
X66536000Y-37880000D01*
X64064484Y-37880000D02*
G75*
G02*
X64220000Y-34648563I1235516J1560000D01*
G01*
X64220000Y-37360961D02*
G75*
G02*
X64220000Y-35279039I1080000J1040961D01*
G01*
X66380000Y-34648563D02*
G75*
G02*
X66535516Y-37880000I-1080000J-1671437D01*
G01*
X66380000Y-35279039D02*
G75*
G02*
X66380000Y-37360961I-1080000J-1040961D01*
G01*
%TO.C,R41*%
X43870000Y-83070000D02*
X43870000Y-85680000D01*
X45240000Y-81700000D02*
G75*
G02*
X42500000Y-81700000I-1370000J0D01*
G01*
X42500000Y-81700000D02*
G75*
G02*
X45240000Y-81700000I1370000J0D01*
G01*
%TO.C,R42*%
X43870000Y-90770000D02*
X43870000Y-93380000D01*
X45240000Y-89400000D02*
G75*
G02*
X42500000Y-89400000I-1370000J0D01*
G01*
X42500000Y-89400000D02*
G75*
G02*
X45240000Y-89400000I1370000J0D01*
G01*
%TO.C,D3*%
X17984000Y-22640000D02*
X18140000Y-22640000D01*
X20300000Y-22640000D02*
X20456000Y-22640000D01*
X17984484Y-22640000D02*
G75*
G02*
X18140000Y-19408563I1235516J1560000D01*
G01*
X18140000Y-22120961D02*
G75*
G02*
X18140000Y-20039039I1080000J1040961D01*
G01*
X20300000Y-19408563D02*
G75*
G02*
X20455516Y-22640000I-1080000J-1671437D01*
G01*
X20300000Y-20039039D02*
G75*
G02*
X20300000Y-22120961I-1080000J-1040961D01*
G01*
%TO.C,R9*%
X41090000Y-16000000D02*
X43700000Y-16000000D01*
X41090000Y-16000000D02*
G75*
G02*
X38350000Y-16000000I-1370000J0D01*
G01*
X38350000Y-16000000D02*
G75*
G02*
X41090000Y-16000000I1370000J0D01*
G01*
%TO.C,R45*%
X80590000Y-75370000D02*
X80590000Y-77980000D01*
X81960000Y-74000000D02*
G75*
G02*
X79220000Y-74000000I-1370000J0D01*
G01*
X79220000Y-74000000D02*
G75*
G02*
X81960000Y-74000000I1370000J0D01*
G01*
%TO.C,R53*%
X22000000Y-60370000D02*
X22000000Y-62980000D01*
X23370000Y-59000000D02*
G75*
G02*
X20630000Y-59000000I-1370000J0D01*
G01*
X20630000Y-59000000D02*
G75*
G02*
X23370000Y-59000000I1370000J0D01*
G01*
%TO.C,R43*%
X37870000Y-75370000D02*
X37870000Y-77980000D01*
X39240000Y-74000000D02*
G75*
G02*
X36500000Y-74000000I-1370000J0D01*
G01*
X36500000Y-74000000D02*
G75*
G02*
X39240000Y-74000000I1370000J0D01*
G01*
%TO.C,R44*%
X37870000Y-83070000D02*
X37870000Y-85680000D01*
X39240000Y-81700000D02*
G75*
G02*
X36500000Y-81700000I-1370000J0D01*
G01*
X36500000Y-81700000D02*
G75*
G02*
X39240000Y-81700000I1370000J0D01*
G01*
%TO.C,C4*%
X69960000Y-60000000D02*
X68420000Y-60000000D01*
X69960000Y-60040000D02*
X68420000Y-60040000D01*
X69960000Y-60080000D02*
X68421000Y-60080000D01*
X69960000Y-60120000D02*
X68423000Y-60120000D01*
X69960000Y-60160000D02*
X68425000Y-60160000D01*
X69960000Y-60200000D02*
X68428000Y-60200000D01*
X69960000Y-60240000D02*
X68431000Y-60240000D01*
X69960000Y-60280000D02*
X68435000Y-60280000D01*
X69960000Y-60320000D02*
X68440000Y-60320000D01*
X69960000Y-60360000D02*
X68445000Y-60360000D01*
X69960000Y-60400000D02*
X68451000Y-60400000D01*
X69960000Y-60440000D02*
X68457000Y-60440000D01*
X69960000Y-60480000D02*
X68464000Y-60480000D01*
X69960000Y-60520000D02*
X68472000Y-60520000D01*
X69960000Y-60560000D02*
X68481000Y-60560000D01*
X69960000Y-60600000D02*
X68490000Y-60600000D01*
X69960000Y-60640000D02*
X68499000Y-60640000D01*
X69960000Y-60680000D02*
X68510000Y-60680000D01*
X69960000Y-60720000D02*
X68521000Y-60720000D01*
X69960000Y-60760000D02*
X68533000Y-60760000D01*
X69960000Y-60800000D02*
X68545000Y-60800000D01*
X69960000Y-60840000D02*
X68558000Y-60840000D01*
X69960000Y-60880000D02*
X68572000Y-60880000D01*
X69960000Y-60920000D02*
X68587000Y-60920000D01*
X69960000Y-60960000D02*
X68602000Y-60960000D01*
X69960000Y-61000000D02*
X68618000Y-61000000D01*
X69960000Y-61040000D02*
X68635000Y-61040000D01*
X69960000Y-61080000D02*
X68653000Y-61080000D01*
X69960000Y-61120000D02*
X68671000Y-61120000D01*
X69960000Y-61160000D02*
X68691000Y-61160000D01*
X69960000Y-61200000D02*
X68711000Y-61200000D01*
X69960000Y-61240000D02*
X68732000Y-61240000D01*
X69960000Y-61280000D02*
X68754000Y-61280000D01*
X69960000Y-61320000D02*
X68777000Y-61320000D01*
X69960000Y-61360000D02*
X68801000Y-61360000D01*
X69960000Y-61400000D02*
X68825000Y-61400000D01*
X69960000Y-61440000D02*
X68851000Y-61440000D01*
X69960000Y-61480000D02*
X68878000Y-61480000D01*
X69960000Y-61520000D02*
X68906000Y-61520000D01*
X69960000Y-61560000D02*
X68935000Y-61560000D01*
X69960000Y-61600000D02*
X68965000Y-61600000D01*
X69960000Y-61640000D02*
X68997000Y-61640000D01*
X69960000Y-61680000D02*
X69030000Y-61680000D01*
X69960000Y-61720000D02*
X69064000Y-61720000D01*
X69960000Y-61760000D02*
X69099000Y-61760000D01*
X69960000Y-61800000D02*
X69136000Y-61800000D01*
X69960000Y-61840000D02*
X69175000Y-61840000D01*
X69960000Y-61880000D02*
X69215000Y-61880000D01*
X69960000Y-61920000D02*
X69257000Y-61920000D01*
X69960000Y-61960000D02*
X69301000Y-61960000D01*
X69960000Y-62000000D02*
X69348000Y-62000000D01*
X71283000Y-62600000D02*
X70717000Y-62600000D01*
X71517000Y-62560000D02*
X70483000Y-62560000D01*
X71677000Y-62520000D02*
X70323000Y-62520000D01*
X71805000Y-62480000D02*
X70195000Y-62480000D01*
X71914000Y-62440000D02*
X70086000Y-62440000D01*
X72011000Y-62400000D02*
X69989000Y-62400000D01*
X72098000Y-62360000D02*
X69902000Y-62360000D01*
X72177000Y-62320000D02*
X69823000Y-62320000D01*
X72251000Y-62280000D02*
X69749000Y-62280000D01*
X72319000Y-62240000D02*
X69681000Y-62240000D01*
X72383000Y-62200000D02*
X69617000Y-62200000D01*
X72443000Y-62160000D02*
X69557000Y-62160000D01*
X72475000Y-57195225D02*
X72475000Y-57695225D01*
X72499000Y-62120000D02*
X69501000Y-62120000D01*
X72553000Y-62080000D02*
X69447000Y-62080000D01*
X72604000Y-62040000D02*
X69396000Y-62040000D01*
X72652000Y-62000000D02*
X72040000Y-62000000D01*
X72699000Y-61960000D02*
X72040000Y-61960000D01*
X72725000Y-57445225D02*
X72225000Y-57445225D01*
X72743000Y-61920000D02*
X72040000Y-61920000D01*
X72785000Y-61880000D02*
X72040000Y-61880000D01*
X72825000Y-61840000D02*
X72040000Y-61840000D01*
X72864000Y-61800000D02*
X72040000Y-61800000D01*
X72901000Y-61760000D02*
X72040000Y-61760000D01*
X72936000Y-61720000D02*
X72040000Y-61720000D01*
X72970000Y-61680000D02*
X72040000Y-61680000D01*
X73003000Y-61640000D02*
X72040000Y-61640000D01*
X73035000Y-61600000D02*
X72040000Y-61600000D01*
X73065000Y-61560000D02*
X72040000Y-61560000D01*
X73094000Y-61520000D02*
X72040000Y-61520000D01*
X73122000Y-61480000D02*
X72040000Y-61480000D01*
X73149000Y-61440000D02*
X72040000Y-61440000D01*
X73175000Y-61400000D02*
X72040000Y-61400000D01*
X73199000Y-61360000D02*
X72040000Y-61360000D01*
X73223000Y-61320000D02*
X72040000Y-61320000D01*
X73246000Y-61280000D02*
X72040000Y-61280000D01*
X73268000Y-61240000D02*
X72040000Y-61240000D01*
X73289000Y-61200000D02*
X72040000Y-61200000D01*
X73309000Y-61160000D02*
X72040000Y-61160000D01*
X73329000Y-61120000D02*
X72040000Y-61120000D01*
X73347000Y-61080000D02*
X72040000Y-61080000D01*
X73365000Y-61040000D02*
X72040000Y-61040000D01*
X73382000Y-61000000D02*
X72040000Y-61000000D01*
X73398000Y-60960000D02*
X72040000Y-60960000D01*
X73413000Y-60920000D02*
X72040000Y-60920000D01*
X73428000Y-60880000D02*
X72040000Y-60880000D01*
X73442000Y-60840000D02*
X72040000Y-60840000D01*
X73455000Y-60800000D02*
X72040000Y-60800000D01*
X73467000Y-60760000D02*
X72040000Y-60760000D01*
X73479000Y-60720000D02*
X72040000Y-60720000D01*
X73490000Y-60680000D02*
X72040000Y-60680000D01*
X73501000Y-60640000D02*
X72040000Y-60640000D01*
X73510000Y-60600000D02*
X72040000Y-60600000D01*
X73519000Y-60560000D02*
X72040000Y-60560000D01*
X73528000Y-60520000D02*
X72040000Y-60520000D01*
X73536000Y-60480000D02*
X72040000Y-60480000D01*
X73543000Y-60440000D02*
X72040000Y-60440000D01*
X73549000Y-60400000D02*
X72040000Y-60400000D01*
X73555000Y-60360000D02*
X72040000Y-60360000D01*
X73560000Y-60320000D02*
X72040000Y-60320000D01*
X73565000Y-60280000D02*
X72040000Y-60280000D01*
X73569000Y-60240000D02*
X72040000Y-60240000D01*
X73572000Y-60200000D02*
X72040000Y-60200000D01*
X73575000Y-60160000D02*
X72040000Y-60160000D01*
X73577000Y-60120000D02*
X72040000Y-60120000D01*
X73579000Y-60080000D02*
X72040000Y-60080000D01*
X73580000Y-60000000D02*
X72040000Y-60000000D01*
X73580000Y-60040000D02*
X72040000Y-60040000D01*
X73620000Y-60000000D02*
G75*
G02*
X68380000Y-60000000I-2620000J0D01*
G01*
X68380000Y-60000000D02*
G75*
G02*
X73620000Y-60000000I2620000J0D01*
G01*
%TO.C,D8*%
X33344000Y-37880000D02*
X33500000Y-37880000D01*
X35660000Y-37880000D02*
X35816000Y-37880000D01*
X33344484Y-37880000D02*
G75*
G02*
X33500000Y-34648563I1235516J1560000D01*
G01*
X33500000Y-37360961D02*
G75*
G02*
X33500000Y-35279039I1080000J1040961D01*
G01*
X35660000Y-34648563D02*
G75*
G02*
X35815516Y-37880000I-1080000J-1671437D01*
G01*
X35660000Y-35279039D02*
G75*
G02*
X35660000Y-37360961I-1080000J-1040961D01*
G01*
%TO.C,R48*%
X74590000Y-75370000D02*
X74590000Y-77980000D01*
X75960000Y-74000000D02*
G75*
G02*
X73220000Y-74000000I-1370000J0D01*
G01*
X73220000Y-74000000D02*
G75*
G02*
X75960000Y-74000000I1370000J0D01*
G01*
%TO.C,Q19*%
X71180000Y-38805000D02*
X74780000Y-38805000D01*
X70623600Y-35856193D02*
G75*
G02*
X72980000Y-34355000I2356400J-1098807D01*
G01*
X71180000Y-38805000D02*
G75*
G02*
X70655816Y-38077795I1800000J1850000D01*
G01*
X72980000Y-34355000D02*
G75*
G02*
X75336400Y-35856193I0J-2600000D01*
G01*
X75304184Y-38077795D02*
G75*
G02*
X74780000Y-38805000I-2324184J1122795D01*
G01*
%TO.C,SW3*%
X7750000Y-62500000D02*
X7750000Y-64000000D01*
X9000000Y-66500000D02*
X13500000Y-66500000D01*
X13500000Y-60000000D02*
X9000000Y-60000000D01*
X14750000Y-64000000D02*
X14750000Y-62500000D01*
%TO.C,R32*%
X48770000Y-54100000D02*
X51380000Y-54100000D01*
X48770000Y-54100000D02*
G75*
G02*
X46030000Y-54100000I-1370000J0D01*
G01*
X46030000Y-54100000D02*
G75*
G02*
X48770000Y-54100000I1370000J0D01*
G01*
%TO.C,D2*%
X10304000Y-37880000D02*
X10460000Y-37880000D01*
X12620000Y-37880000D02*
X12776000Y-37880000D01*
X10304484Y-37880000D02*
G75*
G02*
X10460000Y-34648563I1235516J1560000D01*
G01*
X10460000Y-37360961D02*
G75*
G02*
X10460000Y-35279039I1080000J1040961D01*
G01*
X12620000Y-34648563D02*
G75*
G02*
X12775516Y-37880000I-1080000J-1671437D01*
G01*
X12620000Y-35279039D02*
G75*
G02*
X12620000Y-37360961I-1080000J-1040961D01*
G01*
%TO.C,R57*%
X47000000Y-60370000D02*
X47000000Y-62980000D01*
X48370000Y-59000000D02*
G75*
G02*
X45630000Y-59000000I-1370000J0D01*
G01*
X45630000Y-59000000D02*
G75*
G02*
X48370000Y-59000000I1370000J0D01*
G01*
%TO.C,R34*%
X56450000Y-54100000D02*
X59060000Y-54100000D01*
X56450000Y-54100000D02*
G75*
G02*
X53710000Y-54100000I-1370000J0D01*
G01*
X53710000Y-54100000D02*
G75*
G02*
X56450000Y-54100000I1370000J0D01*
G01*
%TO.C,D14*%
X56384000Y-37880000D02*
X56540000Y-37880000D01*
X58700000Y-37880000D02*
X58856000Y-37880000D01*
X56384484Y-37880000D02*
G75*
G02*
X56540000Y-34648563I1235516J1560000D01*
G01*
X56540000Y-37360961D02*
G75*
G02*
X56540000Y-35279039I1080000J1040961D01*
G01*
X58700000Y-34648563D02*
G75*
G02*
X58855516Y-37880000I-1080000J-1671437D01*
G01*
X58700000Y-35279039D02*
G75*
G02*
X58700000Y-37360961I-1080000J-1040961D01*
G01*
%TO.C,C1*%
X93630000Y-15130000D02*
X96370000Y-15130000D01*
X93630000Y-20370000D02*
X93630000Y-15130000D01*
X96370000Y-15130000D02*
X96370000Y-20370000D01*
X96370000Y-20370000D02*
X93630000Y-20370000D01*
%TO.C,D1*%
X10304000Y-22640000D02*
X10460000Y-22640000D01*
X12620000Y-22640000D02*
X12776000Y-22640000D01*
X10304484Y-22640000D02*
G75*
G02*
X10460000Y-19408563I1235516J1560000D01*
G01*
X10460000Y-22120961D02*
G75*
G02*
X10460000Y-20039039I1080000J1040961D01*
G01*
X12620000Y-19408563D02*
G75*
G02*
X12775516Y-22640000I-1080000J-1671437D01*
G01*
X12620000Y-20039039D02*
G75*
G02*
X12620000Y-22120961I-1080000J-1040961D01*
G01*
%TO.C,R12*%
X48770000Y-31240000D02*
X51380000Y-31240000D01*
X48770000Y-31240000D02*
G75*
G02*
X46030000Y-31240000I-1370000J0D01*
G01*
X46030000Y-31240000D02*
G75*
G02*
X48770000Y-31240000I1370000J0D01*
G01*
%TO.C,R55*%
X37000000Y-60370000D02*
X37000000Y-62980000D01*
X38370000Y-59000000D02*
G75*
G02*
X35630000Y-59000000I-1370000J0D01*
G01*
X35630000Y-59000000D02*
G75*
G02*
X38370000Y-59000000I1370000J0D01*
G01*
%TO.C,R17*%
X71810000Y-16000000D02*
X74420000Y-16000000D01*
X71810000Y-16000000D02*
G75*
G02*
X69070000Y-16000000I-1370000J0D01*
G01*
X69070000Y-16000000D02*
G75*
G02*
X71810000Y-16000000I1370000J0D01*
G01*
%TO.C,D15*%
X64064000Y-22640000D02*
X64220000Y-22640000D01*
X66380000Y-22640000D02*
X66536000Y-22640000D01*
X64064484Y-22640000D02*
G75*
G02*
X64220000Y-19408563I1235516J1560000D01*
G01*
X64220000Y-22120961D02*
G75*
G02*
X64220000Y-20039039I1080000J1040961D01*
G01*
X66380000Y-19408563D02*
G75*
G02*
X66535516Y-22640000I-1080000J-1671437D01*
G01*
X66380000Y-20039039D02*
G75*
G02*
X66380000Y-22120961I-1080000J-1040961D01*
G01*
%TO.C,R25*%
X25730000Y-49020000D02*
X28340000Y-49020000D01*
X25730000Y-49020000D02*
G75*
G02*
X22990000Y-49020000I-1370000J0D01*
G01*
X22990000Y-49020000D02*
G75*
G02*
X25730000Y-49020000I1370000J0D01*
G01*
%TO.C,R29*%
X41090000Y-49020000D02*
X43700000Y-49020000D01*
X41090000Y-49020000D02*
G75*
G02*
X38350000Y-49020000I-1370000J0D01*
G01*
X38350000Y-49020000D02*
G75*
G02*
X41090000Y-49020000I1370000J0D01*
G01*
%TO.C,Q16*%
X67100000Y-40185000D02*
X63500000Y-40185000D01*
X62975816Y-40912205D02*
G75*
G02*
X63500000Y-40185000I2324184J-1122795D01*
G01*
X65300000Y-44635000D02*
G75*
G02*
X62943600Y-43133807I0J2600000D01*
G01*
X67100000Y-40185000D02*
G75*
G02*
X67624184Y-40912205I-1800000J-1850000D01*
G01*
X67656400Y-43133807D02*
G75*
G02*
X65300000Y-44635000I-2356400J1098807D01*
G01*
%TO.C,R7*%
X33410000Y-16000000D02*
X36020000Y-16000000D01*
X33410000Y-16000000D02*
G75*
G02*
X30670000Y-16000000I-1370000J0D01*
G01*
X30670000Y-16000000D02*
G75*
G02*
X33410000Y-16000000I1370000J0D01*
G01*
%TO.C,R13*%
X56450000Y-16000000D02*
X59060000Y-16000000D01*
X56450000Y-16000000D02*
G75*
G02*
X53710000Y-16000000I-1370000J0D01*
G01*
X53710000Y-16000000D02*
G75*
G02*
X56450000Y-16000000I1370000J0D01*
G01*
%TO.C,Q3*%
X21020000Y-24945000D02*
X17420000Y-24945000D01*
X16895816Y-25672205D02*
G75*
G02*
X17420000Y-24945000I2324184J-1122795D01*
G01*
X19220000Y-29395000D02*
G75*
G02*
X16863600Y-27893807I0J2600000D01*
G01*
X21020000Y-24945000D02*
G75*
G02*
X21544184Y-25672205I-1800000J-1850000D01*
G01*
X21576400Y-27893807D02*
G75*
G02*
X19220000Y-29395000I-2356400J1098807D01*
G01*
%TO.C,R35*%
X64130000Y-49020000D02*
X66740000Y-49020000D01*
X64130000Y-49020000D02*
G75*
G02*
X61390000Y-49020000I-1370000J0D01*
G01*
X61390000Y-49020000D02*
G75*
G02*
X64130000Y-49020000I1370000J0D01*
G01*
%TO.C,Q20*%
X71180000Y-47060000D02*
X74780000Y-47060000D01*
X70623600Y-44111193D02*
G75*
G02*
X72980000Y-42610000I2356400J-1098807D01*
G01*
X71180000Y-47060000D02*
G75*
G02*
X70655816Y-46332795I1800000J1850000D01*
G01*
X72980000Y-42610000D02*
G75*
G02*
X75336400Y-44111193I0J-2600000D01*
G01*
X75304184Y-46332795D02*
G75*
G02*
X74780000Y-47060000I-2324184J1122795D01*
G01*
%TO.C,Q13*%
X55820000Y-28645000D02*
X59420000Y-28645000D01*
X55263600Y-25696193D02*
G75*
G02*
X57620000Y-24195000I2356400J-1098807D01*
G01*
X55820000Y-28645000D02*
G75*
G02*
X55295816Y-27917795I1800000J1850000D01*
G01*
X57620000Y-24195000D02*
G75*
G02*
X59976400Y-25696193I0J-2600000D01*
G01*
X59944184Y-27917795D02*
G75*
G02*
X59420000Y-28645000I-2324184J1122795D01*
G01*
%TO.C,R59*%
X76000000Y-60370000D02*
X76000000Y-62980000D01*
X77370000Y-59000000D02*
G75*
G02*
X74630000Y-59000000I-1370000J0D01*
G01*
X74630000Y-59000000D02*
G75*
G02*
X77370000Y-59000000I1370000J0D01*
G01*
%TO.C,D18*%
X67040000Y-68000000D02*
X67690000Y-68000000D01*
X68290000Y-66880000D02*
X68290000Y-69120000D01*
X68410000Y-66880000D02*
X68410000Y-69120000D01*
X68530000Y-66880000D02*
X68530000Y-69120000D01*
X72580000Y-68000000D02*
X71930000Y-68000000D01*
X67690000Y-66880000D02*
X71930000Y-66880000D01*
X71930000Y-69120000D01*
X67690000Y-69120000D01*
X67690000Y-66880000D01*
%TO.C,R18*%
X71810000Y-24255000D02*
X74420000Y-24255000D01*
X71810000Y-24255000D02*
G75*
G02*
X69070000Y-24255000I-1370000J0D01*
G01*
X69070000Y-24255000D02*
G75*
G02*
X71810000Y-24255000I1370000J0D01*
G01*
%TO.C,Q17*%
X71180000Y-22295000D02*
X74780000Y-22295000D01*
X70623600Y-19346193D02*
G75*
G02*
X72980000Y-17845000I2356400J-1098807D01*
G01*
X71180000Y-22295000D02*
G75*
G02*
X70655816Y-21567795I1800000J1850000D01*
G01*
X72980000Y-17845000D02*
G75*
G02*
X75336400Y-19346193I0J-2600000D01*
G01*
X75304184Y-21567795D02*
G75*
G02*
X74780000Y-22295000I-2324184J1122795D01*
G01*
%TO.C,R51*%
X68590000Y-75370000D02*
X68590000Y-77980000D01*
X69960000Y-74000000D02*
G75*
G02*
X67220000Y-74000000I-1370000J0D01*
G01*
X67220000Y-74000000D02*
G75*
G02*
X69960000Y-74000000I1370000J0D01*
G01*
%TO.C,R33*%
X56450000Y-49020000D02*
X59060000Y-49020000D01*
X56450000Y-49020000D02*
G75*
G02*
X53710000Y-49020000I-1370000J0D01*
G01*
X53710000Y-49020000D02*
G75*
G02*
X56450000Y-49020000I1370000J0D01*
G01*
%TO.C,R4*%
X18050000Y-31240000D02*
X20660000Y-31240000D01*
X18050000Y-31240000D02*
G75*
G02*
X15310000Y-31240000I-1370000J0D01*
G01*
X15310000Y-31240000D02*
G75*
G02*
X18050000Y-31240000I1370000J0D01*
G01*
%TO.C,SW1*%
X52490000Y-71340000D02*
X52490000Y-72723000D01*
X52490000Y-71340000D02*
X53873000Y-71340000D01*
X52730000Y-71580000D02*
X52730000Y-94200000D01*
X52730000Y-71580000D02*
X62630000Y-71580000D01*
X52730000Y-94200000D02*
X62630000Y-94200000D01*
X57003333Y-73365000D02*
X57003333Y-74635000D01*
X57003333Y-75905000D02*
X57003333Y-77175000D01*
X57003333Y-78445000D02*
X57003333Y-79715000D01*
X57003333Y-80985000D02*
X57003333Y-82255000D01*
X57003333Y-83525000D02*
X57003333Y-84795000D01*
X57003333Y-86065000D02*
X57003333Y-87335000D01*
X57003333Y-88605000D02*
X57003333Y-89875000D01*
X57003333Y-91145000D02*
X57003333Y-92415000D01*
X62630000Y-71580000D02*
X62630000Y-94200000D01*
X55650000Y-73365000D02*
X57003333Y-73365000D01*
X57003333Y-74635000D01*
X55650000Y-74635000D01*
X55650000Y-73365000D01*
G36*
X55650000Y-73365000D02*
G01*
X57003333Y-73365000D01*
X57003333Y-74635000D01*
X55650000Y-74635000D01*
X55650000Y-73365000D01*
G37*
X55650000Y-73365000D02*
X59710000Y-73365000D01*
X59710000Y-74635000D01*
X55650000Y-74635000D01*
X55650000Y-73365000D01*
X55650000Y-75905000D02*
X57003333Y-75905000D01*
X57003333Y-77175000D01*
X55650000Y-77175000D01*
X55650000Y-75905000D01*
G36*
X55650000Y-75905000D02*
G01*
X57003333Y-75905000D01*
X57003333Y-77175000D01*
X55650000Y-77175000D01*
X55650000Y-75905000D01*
G37*
X55650000Y-75905000D02*
X59710000Y-75905000D01*
X59710000Y-77175000D01*
X55650000Y-77175000D01*
X55650000Y-75905000D01*
X55650000Y-78445000D02*
X57003333Y-78445000D01*
X57003333Y-79715000D01*
X55650000Y-79715000D01*
X55650000Y-78445000D01*
G36*
X55650000Y-78445000D02*
G01*
X57003333Y-78445000D01*
X57003333Y-79715000D01*
X55650000Y-79715000D01*
X55650000Y-78445000D01*
G37*
X55650000Y-78445000D02*
X59710000Y-78445000D01*
X59710000Y-79715000D01*
X55650000Y-79715000D01*
X55650000Y-78445000D01*
X55650000Y-80985000D02*
X57003333Y-80985000D01*
X57003333Y-82255000D01*
X55650000Y-82255000D01*
X55650000Y-80985000D01*
G36*
X55650000Y-80985000D02*
G01*
X57003333Y-80985000D01*
X57003333Y-82255000D01*
X55650000Y-82255000D01*
X55650000Y-80985000D01*
G37*
X55650000Y-80985000D02*
X59710000Y-80985000D01*
X59710000Y-82255000D01*
X55650000Y-82255000D01*
X55650000Y-80985000D01*
X55650000Y-83525000D02*
X57003333Y-83525000D01*
X57003333Y-84795000D01*
X55650000Y-84795000D01*
X55650000Y-83525000D01*
G36*
X55650000Y-83525000D02*
G01*
X57003333Y-83525000D01*
X57003333Y-84795000D01*
X55650000Y-84795000D01*
X55650000Y-83525000D01*
G37*
X55650000Y-83525000D02*
X59710000Y-83525000D01*
X59710000Y-84795000D01*
X55650000Y-84795000D01*
X55650000Y-83525000D01*
X55650000Y-86065000D02*
X57003333Y-86065000D01*
X57003333Y-87335000D01*
X55650000Y-87335000D01*
X55650000Y-86065000D01*
G36*
X55650000Y-86065000D02*
G01*
X57003333Y-86065000D01*
X57003333Y-87335000D01*
X55650000Y-87335000D01*
X55650000Y-86065000D01*
G37*
X55650000Y-86065000D02*
X59710000Y-86065000D01*
X59710000Y-87335000D01*
X55650000Y-87335000D01*
X55650000Y-86065000D01*
X55650000Y-88605000D02*
X57003333Y-88605000D01*
X57003333Y-89875000D01*
X55650000Y-89875000D01*
X55650000Y-88605000D01*
G36*
X55650000Y-88605000D02*
G01*
X57003333Y-88605000D01*
X57003333Y-89875000D01*
X55650000Y-89875000D01*
X55650000Y-88605000D01*
G37*
X55650000Y-88605000D02*
X59710000Y-88605000D01*
X59710000Y-89875000D01*
X55650000Y-89875000D01*
X55650000Y-88605000D01*
X55650000Y-91145000D02*
X57003333Y-91145000D01*
X57003333Y-92415000D01*
X55650000Y-92415000D01*
X55650000Y-91145000D01*
G36*
X55650000Y-91145000D02*
G01*
X57003333Y-91145000D01*
X57003333Y-92415000D01*
X55650000Y-92415000D01*
X55650000Y-91145000D01*
G37*
X55650000Y-91145000D02*
X59710000Y-91145000D01*
X59710000Y-92415000D01*
X55650000Y-92415000D01*
X55650000Y-91145000D01*
%TO.C,Q11*%
X51740000Y-24945000D02*
X48140000Y-24945000D01*
X47615816Y-25672205D02*
G75*
G02*
X48140000Y-24945000I2324184J-1122795D01*
G01*
X49940000Y-29395000D02*
G75*
G02*
X47583600Y-27893807I0J2600000D01*
G01*
X51740000Y-24945000D02*
G75*
G02*
X52264184Y-25672205I-1800000J-1850000D01*
G01*
X52296400Y-27893807D02*
G75*
G02*
X49940000Y-29395000I-2356400J1098807D01*
G01*
%TO.C,Q10*%
X40460000Y-43885000D02*
X44060000Y-43885000D01*
X39903600Y-40936193D02*
G75*
G02*
X42260000Y-39435000I2356400J-1098807D01*
G01*
X40460000Y-43885000D02*
G75*
G02*
X39935816Y-43157795I1800000J1850000D01*
G01*
X42260000Y-39435000D02*
G75*
G02*
X44616400Y-40936193I0J-2600000D01*
G01*
X44584184Y-43157795D02*
G75*
G02*
X44060000Y-43885000I-2324184J1122795D01*
G01*
%TO.C,R19*%
X71810000Y-32510000D02*
X74420000Y-32510000D01*
X71810000Y-32510000D02*
G75*
G02*
X69070000Y-32510000I-1370000J0D01*
G01*
X69070000Y-32510000D02*
G75*
G02*
X71810000Y-32510000I1370000J0D01*
G01*
%TD*%
M02*
