%TF.GenerationSoftware,KiCad,Pcbnew,10.0.5*%
%TF.CreationDate,2026-10-01T11:25:25-04:00*%
%TF.ProjectId,panelb,70616e65-6c62-42e6-9b69-6361645f7063,rev?*%
%TF.SameCoordinates,Original*%
%TF.FileFunction,Legend,Bot*%
%TF.FilePolarity,Positive*%
%FSLAX46Y46*%
G04 Gerber Fmt 4.6, Leading zero omitted, Abs format (unit mm)*
G04 Created by KiCad (PCBNEW 10.0.5) date 2026-10-01 11:25:25*
%MOMM*%
%LPD*%
G01*
G04 APERTURE LIST*
%ADD10C,0.150000*%
%ADD11C,0.120000*%
G04 APERTURE END LIST*
D10*
X51493220Y-12654819D02*
X51493220Y-11654819D01*
X51493220Y-11654819D02*
X50921792Y-12654819D01*
X50921792Y-12654819D02*
X50921792Y-11654819D01*
X50255125Y-11654819D02*
X50064649Y-11654819D01*
X50064649Y-11654819D02*
X49969411Y-11702438D01*
X49969411Y-11702438D02*
X49874173Y-11797676D01*
X49874173Y-11797676D02*
X49826554Y-11988152D01*
X49826554Y-11988152D02*
X49826554Y-12321485D01*
X49826554Y-12321485D02*
X49874173Y-12511961D01*
X49874173Y-12511961D02*
X49969411Y-12607200D01*
X49969411Y-12607200D02*
X50064649Y-12654819D01*
X50064649Y-12654819D02*
X50255125Y-12654819D01*
X50255125Y-12654819D02*
X50350363Y-12607200D01*
X50350363Y-12607200D02*
X50445601Y-12511961D01*
X50445601Y-12511961D02*
X50493220Y-12321485D01*
X50493220Y-12321485D02*
X50493220Y-11988152D01*
X50493220Y-11988152D02*
X50445601Y-11797676D01*
X50445601Y-11797676D02*
X50350363Y-11702438D01*
X50350363Y-11702438D02*
X50255125Y-11654819D01*
X49540839Y-11654819D02*
X48969411Y-11654819D01*
X49255125Y-12654819D02*
X49255125Y-11654819D01*
X48064649Y-12559580D02*
X48112268Y-12607200D01*
X48112268Y-12607200D02*
X48255125Y-12654819D01*
X48255125Y-12654819D02*
X48350363Y-12654819D01*
X48350363Y-12654819D02*
X48493220Y-12607200D01*
X48493220Y-12607200D02*
X48588458Y-12511961D01*
X48588458Y-12511961D02*
X48636077Y-12416723D01*
X48636077Y-12416723D02*
X48683696Y-12226247D01*
X48683696Y-12226247D02*
X48683696Y-12083390D01*
X48683696Y-12083390D02*
X48636077Y-11892914D01*
X48636077Y-11892914D02*
X48588458Y-11797676D01*
X48588458Y-11797676D02*
X48493220Y-11702438D01*
X48493220Y-11702438D02*
X48350363Y-11654819D01*
X48350363Y-11654819D02*
X48255125Y-11654819D01*
X48255125Y-11654819D02*
X48112268Y-11702438D01*
X48112268Y-11702438D02*
X48064649Y-11750057D01*
X47636077Y-12654819D02*
X47636077Y-11654819D01*
X47636077Y-12131009D02*
X47064649Y-12131009D01*
X47064649Y-12654819D02*
X47064649Y-11654819D01*
X45969410Y-11654819D02*
X45397982Y-11654819D01*
X45683696Y-12654819D02*
X45683696Y-11654819D01*
X44874172Y-11654819D02*
X44683696Y-11654819D01*
X44683696Y-11654819D02*
X44588458Y-11702438D01*
X44588458Y-11702438D02*
X44493220Y-11797676D01*
X44493220Y-11797676D02*
X44445601Y-11988152D01*
X44445601Y-11988152D02*
X44445601Y-12321485D01*
X44445601Y-12321485D02*
X44493220Y-12511961D01*
X44493220Y-12511961D02*
X44588458Y-12607200D01*
X44588458Y-12607200D02*
X44683696Y-12654819D01*
X44683696Y-12654819D02*
X44874172Y-12654819D01*
X44874172Y-12654819D02*
X44969410Y-12607200D01*
X44969410Y-12607200D02*
X45064648Y-12511961D01*
X45064648Y-12511961D02*
X45112267Y-12321485D01*
X45112267Y-12321485D02*
X45112267Y-11988152D01*
X45112267Y-11988152D02*
X45064648Y-11797676D01*
X45064648Y-11797676D02*
X44969410Y-11702438D01*
X44969410Y-11702438D02*
X44874172Y-11654819D01*
X43397981Y-11654819D02*
X42826553Y-11654819D01*
X43112267Y-12654819D02*
X43112267Y-11654819D01*
X42302743Y-11654819D02*
X42112267Y-11654819D01*
X42112267Y-11654819D02*
X42017029Y-11702438D01*
X42017029Y-11702438D02*
X41921791Y-11797676D01*
X41921791Y-11797676D02*
X41874172Y-11988152D01*
X41874172Y-11988152D02*
X41874172Y-12321485D01*
X41874172Y-12321485D02*
X41921791Y-12511961D01*
X41921791Y-12511961D02*
X42017029Y-12607200D01*
X42017029Y-12607200D02*
X42112267Y-12654819D01*
X42112267Y-12654819D02*
X42302743Y-12654819D01*
X42302743Y-12654819D02*
X42397981Y-12607200D01*
X42397981Y-12607200D02*
X42493219Y-12511961D01*
X42493219Y-12511961D02*
X42540838Y-12321485D01*
X42540838Y-12321485D02*
X42540838Y-11988152D01*
X42540838Y-11988152D02*
X42493219Y-11797676D01*
X42493219Y-11797676D02*
X42397981Y-11702438D01*
X42397981Y-11702438D02*
X42302743Y-11654819D01*
X41445600Y-12654819D02*
X41445600Y-11654819D01*
X41445600Y-11654819D02*
X41064648Y-11654819D01*
X41064648Y-11654819D02*
X40969410Y-11702438D01*
X40969410Y-11702438D02*
X40921791Y-11750057D01*
X40921791Y-11750057D02*
X40874172Y-11845295D01*
X40874172Y-11845295D02*
X40874172Y-11988152D01*
X40874172Y-11988152D02*
X40921791Y-12083390D01*
X40921791Y-12083390D02*
X40969410Y-12131009D01*
X40969410Y-12131009D02*
X41064648Y-12178628D01*
X41064648Y-12178628D02*
X41445600Y-12178628D01*
X66293220Y-12654819D02*
X66293220Y-11654819D01*
X66293220Y-12131009D02*
X65721792Y-12131009D01*
X65721792Y-12654819D02*
X65721792Y-11654819D01*
X65245601Y-12131009D02*
X64912268Y-12131009D01*
X64769411Y-12654819D02*
X65245601Y-12654819D01*
X65245601Y-12654819D02*
X65245601Y-11654819D01*
X65245601Y-11654819D02*
X64769411Y-11654819D01*
X64388458Y-12369104D02*
X63912268Y-12369104D01*
X64483696Y-12654819D02*
X64150363Y-11654819D01*
X64150363Y-11654819D02*
X63817030Y-12654819D01*
X63483696Y-12654819D02*
X63483696Y-11654819D01*
X63483696Y-11654819D02*
X63245601Y-11654819D01*
X63245601Y-11654819D02*
X63102744Y-11702438D01*
X63102744Y-11702438D02*
X63007506Y-11797676D01*
X63007506Y-11797676D02*
X62959887Y-11892914D01*
X62959887Y-11892914D02*
X62912268Y-12083390D01*
X62912268Y-12083390D02*
X62912268Y-12226247D01*
X62912268Y-12226247D02*
X62959887Y-12416723D01*
X62959887Y-12416723D02*
X63007506Y-12511961D01*
X63007506Y-12511961D02*
X63102744Y-12607200D01*
X63102744Y-12607200D02*
X63245601Y-12654819D01*
X63245601Y-12654819D02*
X63483696Y-12654819D01*
X62483696Y-12131009D02*
X62150363Y-12131009D01*
X62007506Y-12654819D02*
X62483696Y-12654819D01*
X62483696Y-12654819D02*
X62483696Y-11654819D01*
X62483696Y-11654819D02*
X62007506Y-11654819D01*
X61007506Y-12654819D02*
X61340839Y-12178628D01*
X61578934Y-12654819D02*
X61578934Y-11654819D01*
X61578934Y-11654819D02*
X61197982Y-11654819D01*
X61197982Y-11654819D02*
X61102744Y-11702438D01*
X61102744Y-11702438D02*
X61055125Y-11750057D01*
X61055125Y-11750057D02*
X61007506Y-11845295D01*
X61007506Y-11845295D02*
X61007506Y-11988152D01*
X61007506Y-11988152D02*
X61055125Y-12083390D01*
X61055125Y-12083390D02*
X61102744Y-12131009D01*
X61102744Y-12131009D02*
X61197982Y-12178628D01*
X61197982Y-12178628D02*
X61578934Y-12178628D01*
X59817029Y-12654819D02*
X59817029Y-11654819D01*
X59817029Y-12131009D02*
X59245601Y-12131009D01*
X59245601Y-12654819D02*
X59245601Y-11654819D01*
X58769410Y-12131009D02*
X58436077Y-12131009D01*
X58293220Y-12654819D02*
X58769410Y-12654819D01*
X58769410Y-12654819D02*
X58769410Y-11654819D01*
X58769410Y-11654819D02*
X58293220Y-11654819D01*
X57293220Y-12654819D02*
X57626553Y-12178628D01*
X57864648Y-12654819D02*
X57864648Y-11654819D01*
X57864648Y-11654819D02*
X57483696Y-11654819D01*
X57483696Y-11654819D02*
X57388458Y-11702438D01*
X57388458Y-11702438D02*
X57340839Y-11750057D01*
X57340839Y-11750057D02*
X57293220Y-11845295D01*
X57293220Y-11845295D02*
X57293220Y-11988152D01*
X57293220Y-11988152D02*
X57340839Y-12083390D01*
X57340839Y-12083390D02*
X57388458Y-12131009D01*
X57388458Y-12131009D02*
X57483696Y-12178628D01*
X57483696Y-12178628D02*
X57864648Y-12178628D01*
X56864648Y-12131009D02*
X56531315Y-12131009D01*
X56388458Y-12654819D02*
X56864648Y-12654819D01*
X56864648Y-12654819D02*
X56864648Y-11654819D01*
X56864648Y-11654819D02*
X56388458Y-11654819D01*
%TO.C,J1*%
D11*
X5420000Y-1670000D02*
X5420000Y-10790000D01*
X5420000Y-10790000D02*
X94580000Y-10790000D01*
X6720000Y-2980000D02*
X6720000Y-9480000D01*
X6720000Y-9480000D02*
X93280000Y-9480000D01*
X10130000Y-280000D02*
X11130000Y-280000D01*
X10630000Y-1280000D02*
X10130000Y-280000D01*
X11130000Y-280000D02*
X10630000Y-1280000D01*
X47950000Y-1670000D02*
X47950000Y-2980000D01*
X47950000Y-2980000D02*
X6720000Y-2980000D01*
X52050000Y-2980000D02*
X52050000Y-1670000D01*
X93280000Y-2980000D02*
X52050000Y-2980000D01*
X93280000Y-9480000D02*
X93280000Y-2980000D01*
X94580000Y-1670000D02*
X5420000Y-1670000D01*
X94580000Y-10790000D02*
X94580000Y-1670000D01*
%TD*%
M02*
