%TF.GenerationSoftware,KiCad,Pcbnew,10.0.5*%
%TF.CreationDate,2026-09-11T06:44:13-04:00*%
%TF.ProjectId,panelb,70616e65-6c62-42e6-9b69-6361645f7063,rev?*%
%TF.SameCoordinates,Original*%
%TF.FileFunction,Soldermask,Bot*%
%TF.FilePolarity,Negative*%
%FSLAX46Y46*%
G04 Gerber Fmt 4.6, Leading zero omitted, Abs format (unit mm)*
G04 Created by KiCad (PCBNEW 10.0.5) date 2026-09-11 06:44:13*
%MOMM*%
%LPD*%
G01*
G04 APERTURE LIST*
G04 Aperture macros list*
%AMRoundRect*
0 Rectangle with rounded corners*
0 $1 Rounding radius*
0 $2 $3 $4 $5 $6 $7 $8 $9 X,Y pos of 4 corners*
0 Add a 4 corners polygon primitive as box body*
4,1,4,$2,$3,$4,$5,$6,$7,$8,$9,$2,$3,0*
0 Add four circle primitives for the rounded corners*
1,1,$1+$1,$2,$3*
1,1,$1+$1,$4,$5*
1,1,$1+$1,$6,$7*
1,1,$1+$1,$8,$9*
0 Add four rect primitives between the rounded corners*
20,1,$1+$1,$2,$3,$4,$5,0*
20,1,$1+$1,$4,$5,$6,$7,0*
20,1,$1+$1,$6,$7,$8,$9,0*
20,1,$1+$1,$8,$9,$2,$3,0*%
G04 Aperture macros list end*
%ADD10RoundRect,0.250000X-0.550000X-0.550000X0.550000X-0.550000X0.550000X0.550000X-0.550000X0.550000X0*%
%ADD11C,1.600000*%
%ADD12R,1.800000X1.800000*%
%ADD13C,1.800000*%
%ADD14R,1.500000X1.500000*%
%ADD15C,1.500000*%
%ADD16RoundRect,0.250000X-0.550000X0.550000X-0.550000X-0.550000X0.550000X-0.550000X0.550000X0.550000X0*%
%ADD17C,2.000000*%
%ADD18C,6.400000*%
%ADD19RoundRect,0.250000X0.600000X-0.600000X0.600000X0.600000X-0.600000X0.600000X-0.600000X-0.600000X0*%
%ADD20C,1.700000*%
G04 APERTURE END LIST*
D10*
%TO.C,SW2*%
X84590000Y-74000000D03*
D11*
X84590000Y-76540000D03*
X84590000Y-79080000D03*
X84590000Y-81620000D03*
X84590000Y-84160000D03*
X84590000Y-86700000D03*
X84590000Y-89240000D03*
X84590000Y-91780000D03*
X92210000Y-91780000D03*
X92210000Y-89240000D03*
X92210000Y-86700000D03*
X92210000Y-84160000D03*
X92210000Y-81620000D03*
X92210000Y-79080000D03*
X92210000Y-76540000D03*
X92210000Y-74000000D03*
%TD*%
D12*
%TO.C,D6*%
X26900000Y-37590000D03*
D13*
X26900000Y-35050000D03*
%TD*%
D11*
%TO.C,R47*%
X80590000Y-89400000D03*
X80590000Y-94480000D03*
%TD*%
%TO.C,R58*%
X66000000Y-59000000D03*
X66000000Y-64080000D03*
%TD*%
%TO.C,R16*%
X62760000Y-31240000D03*
X67840000Y-31240000D03*
%TD*%
%TO.C,R24*%
X16680000Y-54100000D03*
X21760000Y-54100000D03*
%TD*%
D12*
%TO.C,D5*%
X26900000Y-22350000D03*
D13*
X26900000Y-19810000D03*
%TD*%
D14*
%TO.C,Q2*%
X9000000Y-42035000D03*
D15*
X11540000Y-42035000D03*
X14080000Y-42035000D03*
%TD*%
D11*
%TO.C,R6*%
X24360000Y-31240000D03*
X29440000Y-31240000D03*
%TD*%
%TO.C,R28*%
X32040000Y-54100000D03*
X37120000Y-54100000D03*
%TD*%
%TO.C,R31*%
X47400000Y-49020000D03*
X52480000Y-49020000D03*
%TD*%
D14*
%TO.C,Q8*%
X37120000Y-42035000D03*
D15*
X34580000Y-42035000D03*
X32040000Y-42035000D03*
%TD*%
D11*
%TO.C,R39*%
X49870000Y-89400000D03*
X49870000Y-94480000D03*
%TD*%
%TO.C,R21*%
X9000000Y-49020000D03*
X14080000Y-49020000D03*
%TD*%
%TO.C,R54*%
X32000000Y-59000000D03*
X32000000Y-64080000D03*
%TD*%
%TO.C,R11*%
X47400000Y-16000000D03*
X52480000Y-16000000D03*
%TD*%
D14*
%TO.C,Q1*%
X9000000Y-26795000D03*
D15*
X11540000Y-26795000D03*
X14080000Y-26795000D03*
%TD*%
D16*
%TO.C,C2*%
X95000000Y-26000000D03*
D11*
X95000000Y-28000000D03*
%TD*%
D12*
%TO.C,D4*%
X19220000Y-37590000D03*
D13*
X19220000Y-35050000D03*
%TD*%
D11*
%TO.C,R14*%
X55080000Y-31240000D03*
X60160000Y-31240000D03*
%TD*%
%TO.C,R49*%
X74590000Y-81700000D03*
X74590000Y-86780000D03*
%TD*%
%TO.C,R61*%
X86000000Y-59000000D03*
X86000000Y-64080000D03*
%TD*%
D14*
%TO.C,Q12*%
X52480000Y-42035000D03*
D15*
X49940000Y-42035000D03*
X47400000Y-42035000D03*
%TD*%
D11*
%TO.C,R23*%
X16680000Y-49020000D03*
X21760000Y-49020000D03*
%TD*%
%TO.C,R60*%
X81000000Y-59000000D03*
X81000000Y-64080000D03*
%TD*%
D17*
%TO.C,SW4*%
X52000000Y-61000000D03*
X58500000Y-61000000D03*
X52000000Y-65500000D03*
X58500000Y-65500000D03*
%TD*%
D12*
%TO.C,D12*%
X49940000Y-37590000D03*
D13*
X49940000Y-35050000D03*
%TD*%
D12*
%TO.C,D13*%
X57620000Y-22350000D03*
D13*
X57620000Y-19810000D03*
%TD*%
D11*
%TO.C,R52*%
X68590000Y-81700000D03*
X68590000Y-86780000D03*
%TD*%
D16*
%TO.C,C3*%
X27000000Y-59000000D03*
D11*
X27000000Y-61000000D03*
%TD*%
%TO.C,R10*%
X39720000Y-31240000D03*
X44800000Y-31240000D03*
%TD*%
D14*
%TO.C,Q5*%
X24360000Y-26795000D03*
D15*
X26900000Y-26795000D03*
X29440000Y-26795000D03*
%TD*%
D11*
%TO.C,R50*%
X74590000Y-89400000D03*
X74590000Y-94480000D03*
%TD*%
%TO.C,R22*%
X9000000Y-54100000D03*
X14080000Y-54100000D03*
%TD*%
%TO.C,R37*%
X49870000Y-74000000D03*
X49870000Y-79080000D03*
%TD*%
D12*
%TO.C,D9*%
X42260000Y-22350000D03*
D13*
X42260000Y-19810000D03*
%TD*%
D11*
%TO.C,R46*%
X80590000Y-81700000D03*
X80590000Y-86780000D03*
%TD*%
D14*
%TO.C,Q7*%
X37120000Y-26795000D03*
D15*
X34580000Y-26795000D03*
X32040000Y-26795000D03*
%TD*%
D10*
%TO.C,D17*%
X22000000Y-68000000D03*
D11*
X29620000Y-68000000D03*
%TD*%
%TO.C,R38*%
X49870000Y-81700000D03*
X49870000Y-86780000D03*
%TD*%
%TO.C,R8*%
X32040000Y-31240000D03*
X37120000Y-31240000D03*
%TD*%
%TO.C,R15*%
X62760000Y-16000000D03*
X67840000Y-16000000D03*
%TD*%
D12*
%TO.C,D10*%
X42260000Y-37590000D03*
D13*
X42260000Y-35050000D03*
%TD*%
D11*
%TO.C,R27*%
X32040000Y-49020000D03*
X37120000Y-49020000D03*
%TD*%
%TO.C,R26*%
X24360000Y-54100000D03*
X29440000Y-54100000D03*
%TD*%
D14*
%TO.C,Q9*%
X39720000Y-26795000D03*
D15*
X42260000Y-26795000D03*
X44800000Y-26795000D03*
%TD*%
D11*
%TO.C,R40*%
X43870000Y-74000000D03*
X43870000Y-79080000D03*
%TD*%
D14*
%TO.C,Q6*%
X24360000Y-42035000D03*
D15*
X26900000Y-42035000D03*
X29440000Y-42035000D03*
%TD*%
D14*
%TO.C,Q15*%
X67840000Y-26795000D03*
D15*
X65300000Y-26795000D03*
X62760000Y-26795000D03*
%TD*%
D11*
%TO.C,R3*%
X16680000Y-16000000D03*
X21760000Y-16000000D03*
%TD*%
D12*
%TO.C,D7*%
X34580000Y-22350000D03*
D13*
X34580000Y-19810000D03*
%TD*%
D11*
%TO.C,R56*%
X42000000Y-59000000D03*
X42000000Y-64080000D03*
%TD*%
D14*
%TO.C,Q4*%
X21760000Y-42035000D03*
D15*
X19220000Y-42035000D03*
X16680000Y-42035000D03*
%TD*%
D12*
%TO.C,D11*%
X49940000Y-22350000D03*
D13*
X49940000Y-19810000D03*
%TD*%
D18*
%TO.C,H1*%
X4000000Y-50000000D03*
%TD*%
D11*
%TO.C,R20*%
X70440000Y-40765000D03*
X75520000Y-40765000D03*
%TD*%
%TO.C,R5*%
X24360000Y-16000000D03*
X29440000Y-16000000D03*
%TD*%
%TO.C,R1*%
X9000000Y-16000000D03*
X14080000Y-16000000D03*
%TD*%
%TO.C,R62*%
X91000000Y-59000000D03*
X91000000Y-64080000D03*
%TD*%
%TO.C,R36*%
X62760000Y-54100000D03*
X67840000Y-54100000D03*
%TD*%
%TO.C,R30*%
X39720000Y-54100000D03*
X44800000Y-54100000D03*
%TD*%
%TO.C,R2*%
X9000000Y-31240000D03*
X14080000Y-31240000D03*
%TD*%
D14*
%TO.C,Q18*%
X70440000Y-28700000D03*
D15*
X72980000Y-28700000D03*
X75520000Y-28700000D03*
%TD*%
D14*
%TO.C,Q14*%
X55080000Y-42035000D03*
D15*
X57620000Y-42035000D03*
X60160000Y-42035000D03*
%TD*%
D12*
%TO.C,D16*%
X65300000Y-37590000D03*
D13*
X65300000Y-35050000D03*
%TD*%
D11*
%TO.C,R41*%
X43870000Y-81700000D03*
X43870000Y-86780000D03*
%TD*%
%TO.C,R42*%
X43870000Y-89400000D03*
X43870000Y-94480000D03*
%TD*%
D12*
%TO.C,D3*%
X19220000Y-22350000D03*
D13*
X19220000Y-19810000D03*
%TD*%
D11*
%TO.C,R9*%
X39720000Y-16000000D03*
X44800000Y-16000000D03*
%TD*%
%TO.C,R45*%
X80590000Y-74000000D03*
X80590000Y-79080000D03*
%TD*%
D19*
%TO.C,J1*%
X10630000Y-7500000D03*
D20*
X10630000Y-4960000D03*
X13170000Y-7500000D03*
X13170000Y-4960000D03*
X15710000Y-7500000D03*
X15710000Y-4960000D03*
X18250000Y-7500000D03*
X18250000Y-4960000D03*
X20790000Y-7500000D03*
X20790000Y-4960000D03*
X23330000Y-7500000D03*
X23330000Y-4960000D03*
X25870000Y-7500000D03*
X25870000Y-4960000D03*
X28410000Y-7500000D03*
X28410000Y-4960000D03*
X30950000Y-7500000D03*
X30950000Y-4960000D03*
X33490000Y-7500000D03*
X33490000Y-4960000D03*
X36030000Y-7500000D03*
X36030000Y-4960000D03*
X38570000Y-7500000D03*
X38570000Y-4960000D03*
X41110000Y-7500000D03*
X41110000Y-4960000D03*
X43650000Y-7500000D03*
X43650000Y-4960000D03*
X46190000Y-7500000D03*
X46190000Y-4960000D03*
X48730000Y-7500000D03*
X48730000Y-4960000D03*
X51270000Y-7500000D03*
X51270000Y-4960000D03*
X53810000Y-7500000D03*
X53810000Y-4960000D03*
X56350000Y-7500000D03*
X56350000Y-4960000D03*
X58890000Y-7500000D03*
X58890000Y-4960000D03*
X61430000Y-7500000D03*
X61430000Y-4960000D03*
X63970000Y-7500000D03*
X63970000Y-4960000D03*
X66510000Y-7500000D03*
X66510000Y-4960000D03*
X69050000Y-7500000D03*
X69050000Y-4960000D03*
X71590000Y-7500000D03*
X71590000Y-4960000D03*
X74130000Y-7500000D03*
X74130000Y-4960000D03*
X76670000Y-7500000D03*
X76670000Y-4960000D03*
X79210000Y-7500000D03*
X79210000Y-4960000D03*
X81750000Y-7500000D03*
X81750000Y-4960000D03*
X84290000Y-7500000D03*
X84290000Y-4960000D03*
X86830000Y-7500000D03*
X86830000Y-4960000D03*
X89370000Y-7500000D03*
X89370000Y-4960000D03*
%TD*%
D11*
%TO.C,R53*%
X22000000Y-59000000D03*
X22000000Y-64080000D03*
%TD*%
%TO.C,R43*%
X37870000Y-74000000D03*
X37870000Y-79080000D03*
%TD*%
%TO.C,R44*%
X37870000Y-81700000D03*
X37870000Y-86780000D03*
%TD*%
D16*
%TO.C,C4*%
X71000000Y-59000000D03*
D11*
X71000000Y-61000000D03*
%TD*%
D12*
%TO.C,D8*%
X34580000Y-37590000D03*
D13*
X34580000Y-35050000D03*
%TD*%
D11*
%TO.C,R48*%
X74590000Y-74000000D03*
X74590000Y-79080000D03*
%TD*%
D14*
%TO.C,Q19*%
X70440000Y-36955000D03*
D15*
X72980000Y-36955000D03*
X75520000Y-36955000D03*
%TD*%
D17*
%TO.C,SW3*%
X8000000Y-61000000D03*
X14500000Y-61000000D03*
X8000000Y-65500000D03*
X14500000Y-65500000D03*
%TD*%
D11*
%TO.C,R32*%
X47400000Y-54100000D03*
X52480000Y-54100000D03*
%TD*%
D12*
%TO.C,D2*%
X11540000Y-37590000D03*
D13*
X11540000Y-35050000D03*
%TD*%
D11*
%TO.C,R57*%
X47000000Y-59000000D03*
X47000000Y-64080000D03*
%TD*%
%TO.C,R34*%
X55080000Y-54100000D03*
X60160000Y-54100000D03*
%TD*%
D12*
%TO.C,D14*%
X57620000Y-37590000D03*
D13*
X57620000Y-35050000D03*
%TD*%
D11*
%TO.C,C1*%
X95000000Y-16500000D03*
X95000000Y-19000000D03*
%TD*%
D12*
%TO.C,D1*%
X11540000Y-22350000D03*
D13*
X11540000Y-19810000D03*
%TD*%
D11*
%TO.C,R12*%
X47400000Y-31240000D03*
X52480000Y-31240000D03*
%TD*%
%TO.C,R55*%
X37000000Y-59000000D03*
X37000000Y-64080000D03*
%TD*%
%TO.C,R17*%
X70440000Y-16000000D03*
X75520000Y-16000000D03*
%TD*%
D12*
%TO.C,D15*%
X65300000Y-22350000D03*
D13*
X65300000Y-19810000D03*
%TD*%
D11*
%TO.C,R25*%
X24360000Y-49020000D03*
X29440000Y-49020000D03*
%TD*%
%TO.C,R29*%
X39720000Y-49020000D03*
X44800000Y-49020000D03*
%TD*%
D14*
%TO.C,Q16*%
X67840000Y-42035000D03*
D15*
X65300000Y-42035000D03*
X62760000Y-42035000D03*
%TD*%
D11*
%TO.C,R7*%
X32040000Y-16000000D03*
X37120000Y-16000000D03*
%TD*%
%TO.C,R13*%
X55080000Y-16000000D03*
X60160000Y-16000000D03*
%TD*%
D14*
%TO.C,Q3*%
X21760000Y-26795000D03*
D15*
X19220000Y-26795000D03*
X16680000Y-26795000D03*
%TD*%
D11*
%TO.C,R35*%
X62760000Y-49020000D03*
X67840000Y-49020000D03*
%TD*%
D14*
%TO.C,Q20*%
X70440000Y-45210000D03*
D15*
X72980000Y-45210000D03*
X75520000Y-45210000D03*
%TD*%
D14*
%TO.C,Q13*%
X55080000Y-26795000D03*
D15*
X57620000Y-26795000D03*
X60160000Y-26795000D03*
%TD*%
D11*
%TO.C,R59*%
X76000000Y-59000000D03*
X76000000Y-64080000D03*
%TD*%
D10*
%TO.C,D18*%
X66000000Y-68000000D03*
D11*
X73620000Y-68000000D03*
%TD*%
%TO.C,R18*%
X70440000Y-24255000D03*
X75520000Y-24255000D03*
%TD*%
D18*
%TO.C,H2*%
X96000000Y-50000000D03*
%TD*%
D14*
%TO.C,Q17*%
X70440000Y-20445000D03*
D15*
X72980000Y-20445000D03*
X75520000Y-20445000D03*
%TD*%
D11*
%TO.C,R51*%
X68590000Y-74000000D03*
X68590000Y-79080000D03*
%TD*%
%TO.C,R33*%
X55080000Y-49020000D03*
X60160000Y-49020000D03*
%TD*%
%TO.C,R4*%
X16680000Y-31240000D03*
X21760000Y-31240000D03*
%TD*%
D10*
%TO.C,SW1*%
X53870000Y-74000000D03*
D11*
X53870000Y-76540000D03*
X53870000Y-79080000D03*
X53870000Y-81620000D03*
X53870000Y-84160000D03*
X53870000Y-86700000D03*
X53870000Y-89240000D03*
X53870000Y-91780000D03*
X61490000Y-91780000D03*
X61490000Y-89240000D03*
X61490000Y-86700000D03*
X61490000Y-84160000D03*
X61490000Y-81620000D03*
X61490000Y-79080000D03*
X61490000Y-76540000D03*
X61490000Y-74000000D03*
%TD*%
D14*
%TO.C,Q11*%
X52480000Y-26795000D03*
D15*
X49940000Y-26795000D03*
X47400000Y-26795000D03*
%TD*%
D14*
%TO.C,Q10*%
X39720000Y-42035000D03*
D15*
X42260000Y-42035000D03*
X44800000Y-42035000D03*
%TD*%
D11*
%TO.C,R19*%
X70440000Y-32510000D03*
X75520000Y-32510000D03*
%TD*%
M02*
