%TF.GenerationSoftware,KiCad,Pcbnew,10.0.5*%
%TF.CreationDate,2026-09-09T14:19:17-04:00*%
%TF.ProjectId,panel,70616e65-6c2e-46b6-9963-61645f706362,rev?*%
%TF.SameCoordinates,Original*%
%TF.FileFunction,Other,User*%
%FSLAX46Y46*%
G04 Gerber Fmt 4.6, Leading zero omitted, Abs format (unit mm)*
G04 Created by KiCad (PCBNEW 10.0.5) date 2026-09-09 14:19:17*
%MOMM*%
%LPD*%
G01*
G04 APERTURE LIST*
%ADD10C,0.050000*%
G04 APERTURE END LIST*
%TO.C,R116*%
D10*
X89240000Y-141500000D02*
X92240000Y-141500000D01*
X92240000Y-149130000D01*
X89240000Y-149130000D01*
X89240000Y-141500000D01*
%TO.C,R57*%
X158500000Y-196500000D02*
X161500000Y-196500000D01*
X161500000Y-204130000D01*
X158500000Y-204130000D01*
X158500000Y-196500000D01*
%TO.C,D32*%
X88320000Y-100150000D02*
X93160000Y-100150000D01*
X93160000Y-104570000D01*
X88320000Y-104570000D01*
X88320000Y-100150000D01*
%TO.C,R27*%
X173500000Y-136500000D02*
X176500000Y-136500000D01*
X176500000Y-144130000D01*
X173500000Y-144130000D01*
X173500000Y-136500000D01*
%TO.C,R70*%
X173500000Y-205500000D02*
X176500000Y-205500000D01*
X176500000Y-213130000D01*
X173500000Y-213130000D01*
X173500000Y-205500000D01*
%TO.C,R99*%
X74000000Y-90700000D02*
X77000000Y-90700000D01*
X77000000Y-98330000D01*
X74000000Y-98330000D01*
X74000000Y-90700000D01*
%TO.C,R63*%
X138500000Y-205500000D02*
X141500000Y-205500000D01*
X141500000Y-213130000D01*
X138500000Y-213130000D01*
X138500000Y-205500000D01*
%TO.C,R33*%
X138500000Y-178500000D02*
X141500000Y-178500000D01*
X141500000Y-186130000D01*
X138500000Y-186130000D01*
X138500000Y-178500000D01*
%TO.C,R67*%
X158500000Y-205500000D02*
X161500000Y-205500000D01*
X161500000Y-213130000D01*
X158500000Y-213130000D01*
X158500000Y-205500000D01*
%TO.C,Q42*%
X26230000Y-155510000D02*
X26230000Y-160250000D01*
X26230000Y-155510000D02*
X33330000Y-155510000D01*
X33330000Y-160250000D02*
X26230000Y-160250000D01*
X33330000Y-160250000D02*
X33330000Y-155510000D01*
%TO.C,R34*%
X143500000Y-178500000D02*
X146500000Y-178500000D01*
X146500000Y-186130000D01*
X143500000Y-186130000D01*
X143500000Y-178500000D01*
%TO.C,D36*%
X27360000Y-125550000D02*
X32200000Y-125550000D01*
X32200000Y-129970000D01*
X27360000Y-129970000D01*
X27360000Y-125550000D01*
%TO.C,Q18*%
X26230000Y-79310000D02*
X26230000Y-84050000D01*
X26230000Y-79310000D02*
X33330000Y-79310000D01*
X33330000Y-84050000D02*
X26230000Y-84050000D01*
X33330000Y-84050000D02*
X33330000Y-79310000D01*
%TO.C,R72*%
X28280000Y-14500000D02*
X31280000Y-14500000D01*
X31280000Y-22130000D01*
X28280000Y-22130000D01*
X28280000Y-14500000D01*
%TO.C,R71*%
X13040000Y-14500000D02*
X16040000Y-14500000D01*
X16040000Y-22130000D01*
X13040000Y-22130000D01*
X13040000Y-14500000D01*
%TO.C,R65*%
X148500000Y-205500000D02*
X151500000Y-205500000D01*
X151500000Y-213130000D01*
X148500000Y-213130000D01*
X148500000Y-205500000D01*
%TO.C,Q12*%
X56710000Y-53910000D02*
X56710000Y-58650000D01*
X56710000Y-53910000D02*
X63810000Y-53910000D01*
X63810000Y-58650000D02*
X56710000Y-58650000D01*
X63810000Y-58650000D02*
X63810000Y-53910000D01*
%TO.C,R92*%
X89240000Y-65300000D02*
X92240000Y-65300000D01*
X92240000Y-72930000D01*
X89240000Y-72930000D01*
X89240000Y-65300000D01*
%TO.C,Q30*%
X87190000Y-104710000D02*
X87190000Y-109450000D01*
X87190000Y-104710000D02*
X94290000Y-104710000D01*
X94290000Y-109450000D02*
X87190000Y-109450000D01*
X94290000Y-109450000D02*
X94290000Y-104710000D01*
%TO.C,R45*%
X148500000Y-187500000D02*
X151500000Y-187500000D01*
X151500000Y-195130000D01*
X148500000Y-195130000D01*
X148500000Y-187500000D01*
%TO.C,R40*%
X173500000Y-178500000D02*
X176500000Y-178500000D01*
X176500000Y-186130000D01*
X173500000Y-186130000D01*
X173500000Y-178500000D01*
%TO.C,D34*%
X118800000Y-100150000D02*
X123640000Y-100150000D01*
X123640000Y-104570000D01*
X118800000Y-104570000D01*
X118800000Y-100150000D01*
%TO.C,R42*%
X183500000Y-178500000D02*
X186500000Y-178500000D01*
X186500000Y-186130000D01*
X183500000Y-186130000D01*
X183500000Y-178500000D01*
%TO.C,R101*%
X104480000Y-90700000D02*
X107480000Y-90700000D01*
X107480000Y-98330000D01*
X104480000Y-98330000D01*
X104480000Y-90700000D01*
%TO.C,Q39*%
X102430000Y-130110000D02*
X102430000Y-134850000D01*
X102430000Y-130110000D02*
X109530000Y-130110000D01*
X109530000Y-134850000D02*
X102430000Y-134850000D01*
X109530000Y-134850000D02*
X109530000Y-130110000D01*
%TO.C,Q49*%
X41470000Y-170750000D02*
X41470000Y-175490000D01*
X41470000Y-170750000D02*
X48570000Y-170750000D01*
X48570000Y-175490000D02*
X41470000Y-175490000D01*
X48570000Y-175490000D02*
X48570000Y-170750000D01*
%TO.C,D16*%
X88320000Y-49350000D02*
X93160000Y-49350000D01*
X93160000Y-53770000D01*
X88320000Y-53770000D01*
X88320000Y-49350000D01*
%TO.C,R83*%
X74000000Y-39900000D02*
X77000000Y-39900000D01*
X77000000Y-47530000D01*
X74000000Y-47530000D01*
X74000000Y-39900000D01*
%TO.C,Q6*%
X87190000Y-28510000D02*
X87190000Y-33250000D01*
X87190000Y-28510000D02*
X94290000Y-28510000D01*
X94290000Y-33250000D02*
X87190000Y-33250000D01*
X94290000Y-33250000D02*
X94290000Y-28510000D01*
%TO.C,R78*%
X119720000Y-14500000D02*
X122720000Y-14500000D01*
X122720000Y-22130000D01*
X119720000Y-22130000D01*
X119720000Y-14500000D01*
%TO.C,R90*%
X58760000Y-65300000D02*
X61760000Y-65300000D01*
X61760000Y-72930000D01*
X58760000Y-72930000D01*
X58760000Y-65300000D01*
%TO.C,R105*%
X43520000Y-116100000D02*
X46520000Y-116100000D01*
X46520000Y-123730000D01*
X43520000Y-123730000D01*
X43520000Y-116100000D01*
%TO.C,R53*%
X138500000Y-196500000D02*
X141500000Y-196500000D01*
X141500000Y-204130000D01*
X138500000Y-204130000D01*
X138500000Y-196500000D01*
%TO.C,D31*%
X73080000Y-100150000D02*
X77920000Y-100150000D01*
X77920000Y-104570000D01*
X73080000Y-104570000D01*
X73080000Y-100150000D01*
%TO.C,R22*%
X164500000Y-92500000D02*
X167500000Y-92500000D01*
X167500000Y-100130000D01*
X164500000Y-100130000D01*
X164500000Y-92500000D01*
%TO.C,D4*%
X27360000Y-23950000D02*
X32200000Y-23950000D01*
X32200000Y-28370000D01*
X27360000Y-28370000D01*
X27360000Y-23950000D01*
%TO.C,Q5*%
X71950000Y-28510000D02*
X71950000Y-33250000D01*
X71950000Y-28510000D02*
X79050000Y-28510000D01*
X79050000Y-33250000D02*
X71950000Y-33250000D01*
X79050000Y-33250000D02*
X79050000Y-28510000D01*
%TO.C,R46*%
X153500000Y-187500000D02*
X156500000Y-187500000D01*
X156500000Y-195130000D01*
X153500000Y-195130000D01*
X153500000Y-187500000D01*
%TO.C,R111*%
X13040000Y-141500000D02*
X16040000Y-141500000D01*
X16040000Y-149130000D01*
X13040000Y-149130000D01*
X13040000Y-141500000D01*
%TO.C,R54*%
X143500000Y-196500000D02*
X146500000Y-196500000D01*
X146500000Y-204130000D01*
X143500000Y-204130000D01*
X143500000Y-196500000D01*
%TO.C,Q20*%
X56710000Y-79310000D02*
X56710000Y-84050000D01*
X56710000Y-79310000D02*
X63810000Y-79310000D01*
X63810000Y-84050000D02*
X56710000Y-84050000D01*
X63810000Y-84050000D02*
X63810000Y-79310000D01*
%TO.C,D13*%
X42600000Y-49350000D02*
X47440000Y-49350000D01*
X47440000Y-53770000D01*
X42600000Y-53770000D01*
X42600000Y-49350000D01*
%TO.C,D27*%
X12120000Y-100150000D02*
X16960000Y-100150000D01*
X16960000Y-104570000D01*
X12120000Y-104570000D01*
X12120000Y-100150000D01*
%TO.C,R77*%
X104480000Y-14500000D02*
X107480000Y-14500000D01*
X107480000Y-22130000D01*
X104480000Y-22130000D01*
X104480000Y-14500000D01*
%TO.C,R4*%
X164500000Y-16500000D02*
X167500000Y-16500000D01*
X167500000Y-24130000D01*
X164500000Y-24130000D01*
X164500000Y-16500000D01*
%TO.C,D8*%
X88320000Y-23950000D02*
X93160000Y-23950000D01*
X93160000Y-28370000D01*
X88320000Y-28370000D01*
X88320000Y-23950000D01*
%TO.C,R62*%
X183500000Y-196500000D02*
X186500000Y-196500000D01*
X186500000Y-204130000D01*
X183500000Y-204130000D01*
X183500000Y-196500000D01*
%TO.C,R103*%
X13040000Y-116100000D02*
X16040000Y-116100000D01*
X16040000Y-123730000D01*
X13040000Y-123730000D01*
X13040000Y-116100000D01*
%TO.C,SW4*%
X142670000Y-111330000D02*
X152950000Y-111330000D01*
X152950000Y-124290000D01*
X142670000Y-124290000D01*
X142670000Y-111330000D01*
%TO.C,R117*%
X104480000Y-141500000D02*
X107480000Y-141500000D01*
X107480000Y-149130000D01*
X104480000Y-149130000D01*
X104480000Y-141500000D01*
%TO.C,D14*%
X57840000Y-49350000D02*
X62680000Y-49350000D01*
X62680000Y-53770000D01*
X57840000Y-53770000D01*
X57840000Y-49350000D01*
%TO.C,D15*%
X73080000Y-49350000D02*
X77920000Y-49350000D01*
X77920000Y-53770000D01*
X73080000Y-53770000D01*
X73080000Y-49350000D01*
%TO.C,R49*%
X168500000Y-187500000D02*
X171500000Y-187500000D01*
X171500000Y-195130000D01*
X168500000Y-195130000D01*
X168500000Y-187500000D01*
%TO.C,R68*%
X163500000Y-205500000D02*
X166500000Y-205500000D01*
X166500000Y-213130000D01*
X163500000Y-213130000D01*
X163500000Y-205500000D01*
%TO.C,D10*%
X118800000Y-23950000D02*
X123640000Y-23950000D01*
X123640000Y-28370000D01*
X118800000Y-28370000D01*
X118800000Y-23950000D01*
%TO.C,R36*%
X153500000Y-178500000D02*
X156500000Y-178500000D01*
X156500000Y-186130000D01*
X153500000Y-186130000D01*
X153500000Y-178500000D01*
%TO.C,Q2*%
X26230000Y-28510000D02*
X26230000Y-33250000D01*
X26230000Y-28510000D02*
X33330000Y-28510000D01*
X33330000Y-33250000D02*
X26230000Y-33250000D01*
X33330000Y-33250000D02*
X33330000Y-28510000D01*
%TO.C,D39*%
X73080000Y-125550000D02*
X77920000Y-125550000D01*
X77920000Y-129970000D01*
X73080000Y-129970000D01*
X73080000Y-125550000D01*
%TO.C,Q45*%
X71950000Y-150430000D02*
X71950000Y-155170000D01*
X71950000Y-150430000D02*
X79050000Y-150430000D01*
X79050000Y-155170000D02*
X71950000Y-155170000D01*
X79050000Y-155170000D02*
X79050000Y-150430000D01*
%TO.C,R80*%
X28280000Y-39900000D02*
X31280000Y-39900000D01*
X31280000Y-47530000D01*
X28280000Y-47530000D01*
X28280000Y-39900000D01*
%TO.C,SW5*%
X134500000Y-138500000D02*
X134750000Y-138500000D01*
X134500000Y-138750000D02*
X134500000Y-138500000D01*
X134500000Y-145750000D02*
X134500000Y-138750000D01*
X134500000Y-145750000D02*
X134500000Y-146000000D01*
X134500000Y-146000000D02*
X134750000Y-146000000D01*
X134750000Y-138500000D02*
X143750000Y-138500000D01*
X143750000Y-138500000D02*
X144000000Y-138500000D01*
X143750000Y-146000000D02*
X134750000Y-146000000D01*
X143750000Y-146000000D02*
X144000000Y-146000000D01*
X144000000Y-138500000D02*
X144000000Y-138750000D01*
X144000000Y-138750000D02*
X144000000Y-145750000D01*
X144000000Y-146000000D02*
X144000000Y-145750000D01*
%TO.C,R91*%
X74000000Y-65300000D02*
X77000000Y-65300000D01*
X77000000Y-72930000D01*
X74000000Y-72930000D01*
X74000000Y-65300000D01*
%TO.C,R81*%
X43520000Y-39900000D02*
X46520000Y-39900000D01*
X46520000Y-47530000D01*
X43520000Y-47530000D01*
X43520000Y-39900000D01*
%TO.C,D30*%
X57840000Y-100150000D02*
X62680000Y-100150000D01*
X62680000Y-104570000D01*
X57840000Y-104570000D01*
X57840000Y-100150000D01*
%TO.C,R115*%
X74000000Y-141500000D02*
X77000000Y-141500000D01*
X77000000Y-149130000D01*
X74000000Y-149130000D01*
X74000000Y-141500000D01*
%TO.C,R25*%
X163500000Y-136500000D02*
X166500000Y-136500000D01*
X166500000Y-144130000D01*
X163500000Y-144130000D01*
X163500000Y-136500000D01*
%TO.C,R82*%
X58760000Y-39900000D02*
X61760000Y-39900000D01*
X61760000Y-47530000D01*
X58760000Y-47530000D01*
X58760000Y-39900000D01*
%TO.C,Q3*%
X41470000Y-28510000D02*
X41470000Y-33250000D01*
X41470000Y-28510000D02*
X48570000Y-28510000D01*
X48570000Y-33250000D02*
X41470000Y-33250000D01*
X48570000Y-33250000D02*
X48570000Y-28510000D01*
%TO.C,R66*%
X153500000Y-205500000D02*
X156500000Y-205500000D01*
X156500000Y-213130000D01*
X153500000Y-213130000D01*
X153500000Y-205500000D01*
%TO.C,R20*%
X164500000Y-84500000D02*
X167500000Y-84500000D01*
X167500000Y-92130000D01*
X164500000Y-92130000D01*
X164500000Y-84500000D01*
%TO.C,R2*%
X164500000Y-8500000D02*
X167500000Y-8500000D01*
X167500000Y-16130000D01*
X164500000Y-16130000D01*
X164500000Y-8500000D01*
%TO.C,D3*%
X12120000Y-23950000D02*
X16960000Y-23950000D01*
X16960000Y-28370000D01*
X12120000Y-28370000D01*
X12120000Y-23950000D01*
%TO.C,R38*%
X163500000Y-178500000D02*
X166500000Y-178500000D01*
X166500000Y-186130000D01*
X163500000Y-186130000D01*
X163500000Y-178500000D01*
%TO.C,R52*%
X183500000Y-187500000D02*
X186500000Y-187500000D01*
X186500000Y-195130000D01*
X183500000Y-195130000D01*
X183500000Y-187500000D01*
%TO.C,D21*%
X42600000Y-74750000D02*
X47440000Y-74750000D01*
X47440000Y-79170000D01*
X42600000Y-79170000D01*
X42600000Y-74750000D01*
%TO.C,Q14*%
X87190000Y-53910000D02*
X87190000Y-58650000D01*
X87190000Y-53910000D02*
X94290000Y-53910000D01*
X94290000Y-58650000D02*
X87190000Y-58650000D01*
X94290000Y-58650000D02*
X94290000Y-53910000D01*
%TO.C,D37*%
X42600000Y-125550000D02*
X47440000Y-125550000D01*
X47440000Y-129970000D01*
X42600000Y-129970000D01*
X42600000Y-125550000D01*
%TO.C,H1*%
X7450000Y-4000000D02*
G75*
G02*
X550000Y-4000000I-3450000J0D01*
G01*
X550000Y-4000000D02*
G75*
G02*
X7450000Y-4000000I3450000J0D01*
G01*
%TO.C,R47*%
X158500000Y-187500000D02*
X161500000Y-187500000D01*
X161500000Y-195130000D01*
X158500000Y-195130000D01*
X158500000Y-187500000D01*
%TO.C,D26*%
X118800000Y-74750000D02*
X123640000Y-74750000D01*
X123640000Y-79170000D01*
X118800000Y-79170000D01*
X118800000Y-74750000D01*
%TO.C,D20*%
X27360000Y-74750000D02*
X32200000Y-74750000D01*
X32200000Y-79170000D01*
X27360000Y-79170000D01*
X27360000Y-74750000D01*
%TO.C,R75*%
X74000000Y-14500000D02*
X77000000Y-14500000D01*
X77000000Y-22130000D01*
X74000000Y-22130000D01*
X74000000Y-14500000D01*
%TO.C,Q29*%
X71950000Y-104710000D02*
X71950000Y-109450000D01*
X71950000Y-104710000D02*
X79050000Y-104710000D01*
X79050000Y-109450000D02*
X71950000Y-109450000D01*
X79050000Y-109450000D02*
X79050000Y-104710000D01*
%TO.C,Q23*%
X102430000Y-79310000D02*
X102430000Y-84050000D01*
X102430000Y-79310000D02*
X109530000Y-79310000D01*
X109530000Y-84050000D02*
X102430000Y-84050000D01*
X109530000Y-84050000D02*
X109530000Y-79310000D01*
%TO.C,R8*%
X164500000Y-32500000D02*
X167500000Y-32500000D01*
X167500000Y-40130000D01*
X164500000Y-40130000D01*
X164500000Y-32500000D01*
%TO.C,C4*%
X157750000Y-159000000D02*
G75*
G02*
X152250000Y-159000000I-2750000J0D01*
G01*
X152250000Y-159000000D02*
G75*
G02*
X157750000Y-159000000I2750000J0D01*
G01*
%TO.C,Q11*%
X41470000Y-53910000D02*
X41470000Y-58650000D01*
X41470000Y-53910000D02*
X48570000Y-53910000D01*
X48570000Y-58650000D02*
X41470000Y-58650000D01*
X48570000Y-58650000D02*
X48570000Y-53910000D01*
%TO.C,H3*%
X7450000Y-218000000D02*
G75*
G02*
X550000Y-218000000I-3450000J0D01*
G01*
X550000Y-218000000D02*
G75*
G02*
X7450000Y-218000000I3450000J0D01*
G01*
%TO.C,R37*%
X158500000Y-178500000D02*
X161500000Y-178500000D01*
X161500000Y-186130000D01*
X158500000Y-186130000D01*
X158500000Y-178500000D01*
%TO.C,R16*%
X164500000Y-66500000D02*
X167500000Y-66500000D01*
X167500000Y-74130000D01*
X164500000Y-74130000D01*
X164500000Y-66500000D01*
%TO.C,D33*%
X103560000Y-100150000D02*
X108400000Y-100150000D01*
X108400000Y-104570000D01*
X103560000Y-104570000D01*
X103560000Y-100150000D01*
%TO.C,D23*%
X73080000Y-74750000D02*
X77920000Y-74750000D01*
X77920000Y-79170000D01*
X73080000Y-79170000D01*
X73080000Y-74750000D01*
%TO.C,R110*%
X119720000Y-116100000D02*
X122720000Y-116100000D01*
X122720000Y-123730000D01*
X119720000Y-123730000D01*
X119720000Y-116100000D01*
%TO.C,R79*%
X13040000Y-39900000D02*
X16040000Y-39900000D01*
X16040000Y-47530000D01*
X13040000Y-47530000D01*
X13040000Y-39900000D01*
%TO.C,R12*%
X164500000Y-50500000D02*
X167500000Y-50500000D01*
X167500000Y-58130000D01*
X164500000Y-58130000D01*
X164500000Y-50500000D01*
%TO.C,SW2*%
X142670000Y-43330000D02*
X152950000Y-43330000D01*
X152950000Y-66460000D01*
X142670000Y-66460000D01*
X142670000Y-43330000D01*
%TO.C,R74*%
X58760000Y-14500000D02*
X61760000Y-14500000D01*
X61760000Y-22130000D01*
X58760000Y-22130000D01*
X58760000Y-14500000D01*
%TO.C,D9*%
X103560000Y-23950000D02*
X108400000Y-23950000D01*
X108400000Y-28370000D01*
X103560000Y-28370000D01*
X103560000Y-23950000D01*
%TO.C,R26*%
X168500000Y-136500000D02*
X171500000Y-136500000D01*
X171500000Y-144130000D01*
X168500000Y-144130000D01*
X168500000Y-136500000D01*
%TO.C,D18*%
X118800000Y-49350000D02*
X123640000Y-49350000D01*
X123640000Y-53770000D01*
X118800000Y-53770000D01*
X118800000Y-49350000D01*
%TO.C,SW3*%
X142670000Y-77330000D02*
X152950000Y-77330000D01*
X152950000Y-100460000D01*
X142670000Y-100460000D01*
X142670000Y-77330000D01*
%TO.C,R58*%
X163500000Y-196500000D02*
X166500000Y-196500000D01*
X166500000Y-204130000D01*
X163500000Y-204130000D01*
X163500000Y-196500000D01*
%TO.C,R100*%
X89240000Y-90700000D02*
X92240000Y-90700000D01*
X92240000Y-98330000D01*
X89240000Y-98330000D01*
X89240000Y-90700000D01*
%TO.C,Q32*%
X117670000Y-104710000D02*
X117670000Y-109450000D01*
X117670000Y-104710000D02*
X124770000Y-104710000D01*
X124770000Y-109450000D02*
X117670000Y-109450000D01*
X124770000Y-109450000D02*
X124770000Y-104710000D01*
%TO.C,Q35*%
X41470000Y-130110000D02*
X41470000Y-134850000D01*
X41470000Y-130110000D02*
X48570000Y-130110000D01*
X48570000Y-134850000D02*
X41470000Y-134850000D01*
X48570000Y-134850000D02*
X48570000Y-130110000D01*
%TO.C,R96*%
X28280000Y-90700000D02*
X31280000Y-90700000D01*
X31280000Y-98330000D01*
X28280000Y-98330000D01*
X28280000Y-90700000D01*
%TO.C,Q41*%
X10990000Y-155510000D02*
X10990000Y-160250000D01*
X10990000Y-155510000D02*
X18090000Y-155510000D01*
X18090000Y-160250000D02*
X10990000Y-160250000D01*
X18090000Y-160250000D02*
X18090000Y-155510000D01*
%TO.C,R31*%
X168500000Y-156500000D02*
X171500000Y-156500000D01*
X171500000Y-164130000D01*
X168500000Y-164130000D01*
X168500000Y-156500000D01*
%TO.C,Q33*%
X10990000Y-130110000D02*
X10990000Y-134850000D01*
X10990000Y-130110000D02*
X18090000Y-130110000D01*
X18090000Y-134850000D02*
X10990000Y-134850000D01*
X18090000Y-134850000D02*
X18090000Y-130110000D01*
%TO.C,D22*%
X57840000Y-74750000D02*
X62680000Y-74750000D01*
X62680000Y-79170000D01*
X57840000Y-79170000D01*
X57840000Y-74750000D01*
%TO.C,R86*%
X119720000Y-39900000D02*
X122720000Y-39900000D01*
X122720000Y-47530000D01*
X119720000Y-47530000D01*
X119720000Y-39900000D01*
%TO.C,R120*%
X58760000Y-161820000D02*
X61760000Y-161820000D01*
X61760000Y-169450000D01*
X58760000Y-169450000D01*
X58760000Y-161820000D01*
%TO.C,D6*%
X57840000Y-23950000D02*
X62680000Y-23950000D01*
X62680000Y-28370000D01*
X57840000Y-28370000D01*
X57840000Y-23950000D01*
%TO.C,D2*%
X148950000Y-165750000D02*
X158670000Y-165750000D01*
X158670000Y-168250000D01*
X148950000Y-168250000D01*
X148950000Y-165750000D01*
%TO.C,H4*%
X189450000Y-218000000D02*
G75*
G02*
X182550000Y-218000000I-3450000J0D01*
G01*
X182550000Y-218000000D02*
G75*
G02*
X189450000Y-218000000I3450000J0D01*
G01*
%TO.C,Q15*%
X102430000Y-53910000D02*
X102430000Y-58650000D01*
X102430000Y-53910000D02*
X109530000Y-53910000D01*
X109530000Y-58650000D02*
X102430000Y-58650000D01*
X109530000Y-58650000D02*
X109530000Y-53910000D01*
%TO.C,Q44*%
X56710000Y-150430000D02*
X56710000Y-155170000D01*
X56710000Y-150430000D02*
X63810000Y-150430000D01*
X63810000Y-155170000D02*
X56710000Y-155170000D01*
X63810000Y-155170000D02*
X63810000Y-150430000D01*
%TO.C,R56*%
X153500000Y-196500000D02*
X156500000Y-196500000D01*
X156500000Y-204130000D01*
X153500000Y-204130000D01*
X153500000Y-196500000D01*
%TO.C,R119*%
X43520000Y-161820000D02*
X46520000Y-161820000D01*
X46520000Y-169450000D01*
X43520000Y-169450000D01*
X43520000Y-161820000D01*
%TO.C,C2*%
X20750000Y-201000000D02*
G75*
G02*
X15250000Y-201000000I-2750000J0D01*
G01*
X15250000Y-201000000D02*
G75*
G02*
X20750000Y-201000000I2750000J0D01*
G01*
%TO.C,D40*%
X88320000Y-125550000D02*
X93160000Y-125550000D01*
X93160000Y-129970000D01*
X88320000Y-129970000D01*
X88320000Y-125550000D01*
%TO.C,Q28*%
X56710000Y-104710000D02*
X56710000Y-109450000D01*
X56710000Y-104710000D02*
X63810000Y-104710000D01*
X63810000Y-109450000D02*
X56710000Y-109450000D01*
X63810000Y-109450000D02*
X63810000Y-104710000D01*
%TO.C,Q40*%
X117670000Y-130110000D02*
X117670000Y-134850000D01*
X117670000Y-130110000D02*
X124770000Y-130110000D01*
X124770000Y-134850000D02*
X117670000Y-134850000D01*
X124770000Y-134850000D02*
X124770000Y-130110000D01*
%TO.C,R88*%
X28280000Y-65300000D02*
X31280000Y-65300000D01*
X31280000Y-72930000D01*
X28280000Y-72930000D01*
X28280000Y-65300000D01*
%TO.C,R35*%
X148500000Y-178500000D02*
X151500000Y-178500000D01*
X151500000Y-186130000D01*
X148500000Y-186130000D01*
X148500000Y-178500000D01*
%TO.C,R32*%
X173500000Y-156500000D02*
X176500000Y-156500000D01*
X176500000Y-164130000D01*
X173500000Y-164130000D01*
X173500000Y-156500000D01*
%TO.C,R85*%
X104480000Y-39900000D02*
X107480000Y-39900000D01*
X107480000Y-47530000D01*
X104480000Y-47530000D01*
X104480000Y-39900000D01*
%TO.C,D38*%
X57840000Y-125550000D02*
X62680000Y-125550000D01*
X62680000Y-129970000D01*
X57840000Y-129970000D01*
X57840000Y-125550000D01*
%TO.C,D41*%
X103560000Y-125550000D02*
X108400000Y-125550000D01*
X108400000Y-129970000D01*
X103560000Y-129970000D01*
X103560000Y-125550000D01*
%TO.C,R76*%
X89240000Y-14500000D02*
X92240000Y-14500000D01*
X92240000Y-22130000D01*
X89240000Y-22130000D01*
X89240000Y-14500000D01*
%TO.C,J1*%
X44400000Y-207780000D02*
X116560000Y-207780000D01*
X116560000Y-217680000D01*
X44400000Y-217680000D01*
X44400000Y-207780000D01*
%TO.C,Q25*%
X10990000Y-104710000D02*
X10990000Y-109450000D01*
X10990000Y-104710000D02*
X18090000Y-104710000D01*
X18090000Y-109450000D02*
X10990000Y-109450000D01*
X18090000Y-109450000D02*
X18090000Y-104710000D01*
%TO.C,Q4*%
X56710000Y-28510000D02*
X56710000Y-33250000D01*
X56710000Y-28510000D02*
X63810000Y-28510000D01*
X63810000Y-33250000D02*
X56710000Y-33250000D01*
X63810000Y-33250000D02*
X63810000Y-28510000D01*
%TO.C,R106*%
X58760000Y-116100000D02*
X61760000Y-116100000D01*
X61760000Y-123730000D01*
X58760000Y-123730000D01*
X58760000Y-116100000D01*
%TO.C,Q34*%
X26230000Y-130110000D02*
X26230000Y-134850000D01*
X26230000Y-130110000D02*
X33330000Y-130110000D01*
X33330000Y-134850000D02*
X26230000Y-134850000D01*
X33330000Y-134850000D02*
X33330000Y-130110000D01*
%TO.C,D44*%
X27360000Y-150950000D02*
X32200000Y-150950000D01*
X32200000Y-155370000D01*
X27360000Y-155370000D01*
X27360000Y-150950000D01*
%TO.C,R108*%
X89240000Y-116100000D02*
X92240000Y-116100000D01*
X92240000Y-123730000D01*
X89240000Y-123730000D01*
X89240000Y-116100000D01*
%TO.C,Q50*%
X56710000Y-170750000D02*
X56710000Y-175490000D01*
X56710000Y-170750000D02*
X63810000Y-170750000D01*
X63810000Y-175490000D02*
X56710000Y-175490000D01*
X63810000Y-175490000D02*
X63810000Y-170750000D01*
%TO.C,R64*%
X143500000Y-205500000D02*
X146500000Y-205500000D01*
X146500000Y-213130000D01*
X143500000Y-213130000D01*
X143500000Y-205500000D01*
%TO.C,R18*%
X164500000Y-76500000D02*
X167500000Y-76500000D01*
X167500000Y-84130000D01*
X164500000Y-84130000D01*
X164500000Y-76500000D01*
%TO.C,D43*%
X12120000Y-150950000D02*
X16960000Y-150950000D01*
X16960000Y-155370000D01*
X12120000Y-155370000D01*
X12120000Y-150950000D01*
%TO.C,Q13*%
X71950000Y-53910000D02*
X71950000Y-58650000D01*
X71950000Y-53910000D02*
X79050000Y-53910000D01*
X79050000Y-58650000D02*
X71950000Y-58650000D01*
X79050000Y-58650000D02*
X79050000Y-53910000D01*
%TO.C,R7*%
X158500000Y-32500000D02*
X161500000Y-32500000D01*
X161500000Y-40130000D01*
X158500000Y-40130000D01*
X158500000Y-32500000D01*
%TO.C,SW6*%
X134500000Y-158500000D02*
X134750000Y-158500000D01*
X134500000Y-158750000D02*
X134500000Y-158500000D01*
X134500000Y-165750000D02*
X134500000Y-158750000D01*
X134500000Y-165750000D02*
X134500000Y-166000000D01*
X134500000Y-166000000D02*
X134750000Y-166000000D01*
X134750000Y-158500000D02*
X143750000Y-158500000D01*
X143750000Y-158500000D02*
X144000000Y-158500000D01*
X143750000Y-166000000D02*
X134750000Y-166000000D01*
X143750000Y-166000000D02*
X144000000Y-166000000D01*
X144000000Y-158500000D02*
X144000000Y-158750000D01*
X144000000Y-158750000D02*
X144000000Y-165750000D01*
X144000000Y-166000000D02*
X144000000Y-165750000D01*
%TO.C,D1*%
X148950000Y-145750000D02*
X158670000Y-145750000D01*
X158670000Y-148250000D01*
X148950000Y-148250000D01*
X148950000Y-145750000D01*
%TO.C,Q1*%
X10990000Y-28510000D02*
X10990000Y-33250000D01*
X10990000Y-28510000D02*
X18090000Y-28510000D01*
X18090000Y-33250000D02*
X10990000Y-33250000D01*
X18090000Y-33250000D02*
X18090000Y-28510000D01*
%TO.C,R23*%
X148500000Y-136500000D02*
X151500000Y-136500000D01*
X151500000Y-144130000D01*
X148500000Y-144130000D01*
X148500000Y-136500000D01*
%TO.C,Q7*%
X102430000Y-28510000D02*
X102430000Y-33250000D01*
X102430000Y-28510000D02*
X109530000Y-28510000D01*
X109530000Y-33250000D02*
X102430000Y-33250000D01*
X109530000Y-33250000D02*
X109530000Y-28510000D01*
%TO.C,R15*%
X158500000Y-66500000D02*
X161500000Y-66500000D01*
X161500000Y-74130000D01*
X158500000Y-74130000D01*
X158500000Y-66500000D01*
%TO.C,Q27*%
X41470000Y-104710000D02*
X41470000Y-109450000D01*
X41470000Y-104710000D02*
X48570000Y-104710000D01*
X48570000Y-109450000D02*
X41470000Y-109450000D01*
X48570000Y-109450000D02*
X48570000Y-104710000D01*
%TO.C,D11*%
X12120000Y-49350000D02*
X16960000Y-49350000D01*
X16960000Y-53770000D01*
X12120000Y-53770000D01*
X12120000Y-49350000D01*
%TO.C,R3*%
X158500000Y-16500000D02*
X161500000Y-16500000D01*
X161500000Y-24130000D01*
X158500000Y-24130000D01*
X158500000Y-16500000D01*
%TO.C,D25*%
X103560000Y-74750000D02*
X108400000Y-74750000D01*
X108400000Y-79170000D01*
X103560000Y-79170000D01*
X103560000Y-74750000D01*
%TO.C,Q21*%
X71950000Y-79310000D02*
X71950000Y-84050000D01*
X71950000Y-79310000D02*
X79050000Y-79310000D01*
X79050000Y-84050000D02*
X71950000Y-84050000D01*
X79050000Y-84050000D02*
X79050000Y-79310000D01*
%TO.C,Q46*%
X87190000Y-150430000D02*
X87190000Y-155170000D01*
X87190000Y-150430000D02*
X94290000Y-150430000D01*
X94290000Y-155170000D02*
X87190000Y-155170000D01*
X94290000Y-155170000D02*
X94290000Y-150430000D01*
%TO.C,R17*%
X158500000Y-76500000D02*
X161500000Y-76500000D01*
X161500000Y-84130000D01*
X158500000Y-84130000D01*
X158500000Y-76500000D01*
%TO.C,R114*%
X58760000Y-141500000D02*
X61760000Y-141500000D01*
X61760000Y-149130000D01*
X58760000Y-149130000D01*
X58760000Y-141500000D01*
%TO.C,R93*%
X104480000Y-65300000D02*
X107480000Y-65300000D01*
X107480000Y-72930000D01*
X104480000Y-72930000D01*
X104480000Y-65300000D01*
%TO.C,D28*%
X27360000Y-100150000D02*
X32200000Y-100150000D01*
X32200000Y-104570000D01*
X27360000Y-104570000D01*
X27360000Y-100150000D01*
%TO.C,R59*%
X168500000Y-196500000D02*
X171500000Y-196500000D01*
X171500000Y-204130000D01*
X168500000Y-204130000D01*
X168500000Y-196500000D01*
%TO.C,R95*%
X13040000Y-90700000D02*
X16040000Y-90700000D01*
X16040000Y-98330000D01*
X13040000Y-98330000D01*
X13040000Y-90700000D01*
%TO.C,C3*%
X157750000Y-139000000D02*
G75*
G02*
X152250000Y-139000000I-2750000J0D01*
G01*
X152250000Y-139000000D02*
G75*
G02*
X157750000Y-139000000I2750000J0D01*
G01*
%TO.C,D17*%
X103560000Y-49350000D02*
X108400000Y-49350000D01*
X108400000Y-53770000D01*
X103560000Y-53770000D01*
X103560000Y-49350000D01*
%TO.C,Q9*%
X10990000Y-53910000D02*
X10990000Y-58650000D01*
X10990000Y-53910000D02*
X18090000Y-53910000D01*
X18090000Y-58650000D02*
X10990000Y-58650000D01*
X18090000Y-58650000D02*
X18090000Y-53910000D01*
%TO.C,R102*%
X119720000Y-90700000D02*
X122720000Y-90700000D01*
X122720000Y-98330000D01*
X119720000Y-98330000D01*
X119720000Y-90700000D01*
%TO.C,R11*%
X158500000Y-50500000D02*
X161500000Y-50500000D01*
X161500000Y-58130000D01*
X158500000Y-58130000D01*
X158500000Y-50500000D01*
%TO.C,R104*%
X28280000Y-116100000D02*
X31280000Y-116100000D01*
X31280000Y-123730000D01*
X28280000Y-123730000D01*
X28280000Y-116100000D01*
%TO.C,R113*%
X43520000Y-141500000D02*
X46520000Y-141500000D01*
X46520000Y-149130000D01*
X43520000Y-149130000D01*
X43520000Y-141500000D01*
%TO.C,R9*%
X158500000Y-42500000D02*
X161500000Y-42500000D01*
X161500000Y-50130000D01*
X158500000Y-50130000D01*
X158500000Y-42500000D01*
%TO.C,R29*%
X158500000Y-156500000D02*
X161500000Y-156500000D01*
X161500000Y-164130000D01*
X158500000Y-164130000D01*
X158500000Y-156500000D01*
%TO.C,R30*%
X163500000Y-156500000D02*
X166500000Y-156500000D01*
X166500000Y-164130000D01*
X163500000Y-164130000D01*
X163500000Y-156500000D01*
%TO.C,R51*%
X178500000Y-187500000D02*
X181500000Y-187500000D01*
X181500000Y-195130000D01*
X178500000Y-195130000D01*
X178500000Y-187500000D01*
%TO.C,Q36*%
X56710000Y-130110000D02*
X56710000Y-134850000D01*
X56710000Y-130110000D02*
X63810000Y-130110000D01*
X63810000Y-134850000D02*
X56710000Y-134850000D01*
X63810000Y-134850000D02*
X63810000Y-130110000D01*
%TO.C,Q43*%
X41470000Y-150430000D02*
X41470000Y-155170000D01*
X41470000Y-150430000D02*
X48570000Y-150430000D01*
X48570000Y-155170000D02*
X41470000Y-155170000D01*
X48570000Y-155170000D02*
X48570000Y-150430000D01*
%TO.C,H2*%
X189450000Y-4000000D02*
G75*
G02*
X182550000Y-4000000I-3450000J0D01*
G01*
X182550000Y-4000000D02*
G75*
G02*
X189450000Y-4000000I3450000J0D01*
G01*
%TO.C,R41*%
X178500000Y-178500000D02*
X181500000Y-178500000D01*
X181500000Y-186130000D01*
X178500000Y-186130000D01*
X178500000Y-178500000D01*
%TO.C,R118*%
X119720000Y-141500000D02*
X122720000Y-141500000D01*
X122720000Y-149130000D01*
X119720000Y-149130000D01*
X119720000Y-141500000D01*
%TO.C,D42*%
X118800000Y-125550000D02*
X123640000Y-125550000D01*
X123640000Y-129970000D01*
X118800000Y-129970000D01*
X118800000Y-125550000D01*
%TO.C,R69*%
X168500000Y-205500000D02*
X171500000Y-205500000D01*
X171500000Y-213130000D01*
X168500000Y-213130000D01*
X168500000Y-205500000D01*
%TO.C,R39*%
X168500000Y-178500000D02*
X171500000Y-178500000D01*
X171500000Y-186130000D01*
X168500000Y-186130000D01*
X168500000Y-178500000D01*
%TO.C,R10*%
X164500000Y-42500000D02*
X167500000Y-42500000D01*
X167500000Y-50130000D01*
X164500000Y-50130000D01*
X164500000Y-42500000D01*
%TO.C,Q31*%
X102430000Y-104710000D02*
X102430000Y-109450000D01*
X102430000Y-104710000D02*
X109530000Y-104710000D01*
X109530000Y-109450000D02*
X102430000Y-109450000D01*
X109530000Y-109450000D02*
X109530000Y-104710000D01*
%TO.C,R109*%
X104480000Y-116100000D02*
X107480000Y-116100000D01*
X107480000Y-123730000D01*
X104480000Y-123730000D01*
X104480000Y-116100000D01*
%TO.C,Q22*%
X87190000Y-79310000D02*
X87190000Y-84050000D01*
X87190000Y-79310000D02*
X94290000Y-79310000D01*
X94290000Y-84050000D02*
X87190000Y-84050000D01*
X94290000Y-84050000D02*
X94290000Y-79310000D01*
%TO.C,R94*%
X119720000Y-65300000D02*
X122720000Y-65300000D01*
X122720000Y-72930000D01*
X119720000Y-72930000D01*
X119720000Y-65300000D01*
%TO.C,D5*%
X42600000Y-23950000D02*
X47440000Y-23950000D01*
X47440000Y-28370000D01*
X42600000Y-28370000D01*
X42600000Y-23950000D01*
%TO.C,R84*%
X89240000Y-39900000D02*
X92240000Y-39900000D01*
X92240000Y-47530000D01*
X89240000Y-47530000D01*
X89240000Y-39900000D01*
%TO.C,R89*%
X43520000Y-65300000D02*
X46520000Y-65300000D01*
X46520000Y-72930000D01*
X43520000Y-72930000D01*
X43520000Y-65300000D01*
%TO.C,R21*%
X158500000Y-92500000D02*
X161500000Y-92500000D01*
X161500000Y-100130000D01*
X158500000Y-100130000D01*
X158500000Y-92500000D01*
%TO.C,D7*%
X73080000Y-23950000D02*
X77920000Y-23950000D01*
X77920000Y-28370000D01*
X73080000Y-28370000D01*
X73080000Y-23950000D01*
%TO.C,C1*%
X10500000Y-198500000D02*
X13500000Y-198500000D01*
X13500000Y-204000000D01*
X10500000Y-204000000D01*
X10500000Y-198500000D01*
%TO.C,D24*%
X88320000Y-74750000D02*
X93160000Y-74750000D01*
X93160000Y-79170000D01*
X88320000Y-79170000D01*
X88320000Y-74750000D01*
%TO.C,Q26*%
X26230000Y-104710000D02*
X26230000Y-109450000D01*
X26230000Y-104710000D02*
X33330000Y-104710000D01*
X33330000Y-109450000D02*
X26230000Y-109450000D01*
X33330000Y-109450000D02*
X33330000Y-104710000D01*
%TO.C,R24*%
X158500000Y-136500000D02*
X161500000Y-136500000D01*
X161500000Y-144130000D01*
X158500000Y-144130000D01*
X158500000Y-136500000D01*
%TO.C,Q47*%
X102430000Y-150430000D02*
X102430000Y-155170000D01*
X102430000Y-150430000D02*
X109530000Y-150430000D01*
X109530000Y-155170000D02*
X102430000Y-155170000D01*
X109530000Y-155170000D02*
X109530000Y-150430000D01*
%TO.C,Q16*%
X117670000Y-53910000D02*
X117670000Y-58650000D01*
X117670000Y-53910000D02*
X124770000Y-53910000D01*
X124770000Y-58650000D02*
X117670000Y-58650000D01*
X124770000Y-58650000D02*
X124770000Y-53910000D01*
%TO.C,R48*%
X163500000Y-187500000D02*
X166500000Y-187500000D01*
X166500000Y-195130000D01*
X163500000Y-195130000D01*
X163500000Y-187500000D01*
%TO.C,Q10*%
X26230000Y-53910000D02*
X26230000Y-58650000D01*
X26230000Y-53910000D02*
X33330000Y-53910000D01*
X33330000Y-58650000D02*
X26230000Y-58650000D01*
X33330000Y-58650000D02*
X33330000Y-53910000D01*
%TO.C,R98*%
X58760000Y-90700000D02*
X61760000Y-90700000D01*
X61760000Y-98330000D01*
X58760000Y-98330000D01*
X58760000Y-90700000D01*
%TO.C,R50*%
X173500000Y-187500000D02*
X176500000Y-187500000D01*
X176500000Y-195130000D01*
X173500000Y-195130000D01*
X173500000Y-187500000D01*
%TO.C,R55*%
X148500000Y-196500000D02*
X151500000Y-196500000D01*
X151500000Y-204130000D01*
X148500000Y-204130000D01*
X148500000Y-196500000D01*
%TO.C,R44*%
X143500000Y-187500000D02*
X146500000Y-187500000D01*
X146500000Y-195130000D01*
X143500000Y-195130000D01*
X143500000Y-187500000D01*
%TO.C,Q37*%
X71950000Y-130110000D02*
X71950000Y-134850000D01*
X71950000Y-130110000D02*
X79050000Y-130110000D01*
X79050000Y-134850000D02*
X71950000Y-134850000D01*
X79050000Y-134850000D02*
X79050000Y-130110000D01*
%TO.C,R28*%
X148500000Y-156500000D02*
X151500000Y-156500000D01*
X151500000Y-164130000D01*
X148500000Y-164130000D01*
X148500000Y-156500000D01*
%TO.C,R87*%
X13040000Y-65300000D02*
X16040000Y-65300000D01*
X16040000Y-72930000D01*
X13040000Y-72930000D01*
X13040000Y-65300000D01*
%TO.C,Q48*%
X117670000Y-150430000D02*
X117670000Y-155170000D01*
X117670000Y-150430000D02*
X124770000Y-150430000D01*
X124770000Y-155170000D02*
X117670000Y-155170000D01*
X124770000Y-155170000D02*
X124770000Y-150430000D01*
%TO.C,D29*%
X42600000Y-100150000D02*
X47440000Y-100150000D01*
X47440000Y-104570000D01*
X42600000Y-104570000D01*
X42600000Y-100150000D01*
%TO.C,D19*%
X12120000Y-74750000D02*
X16960000Y-74750000D01*
X16960000Y-79170000D01*
X12120000Y-79170000D01*
X12120000Y-74750000D01*
%TO.C,Q8*%
X117670000Y-28510000D02*
X117670000Y-33250000D01*
X117670000Y-28510000D02*
X124770000Y-28510000D01*
X124770000Y-33250000D02*
X117670000Y-33250000D01*
X124770000Y-33250000D02*
X124770000Y-28510000D01*
%TO.C,R97*%
X43520000Y-90700000D02*
X46520000Y-90700000D01*
X46520000Y-98330000D01*
X43520000Y-98330000D01*
X43520000Y-90700000D01*
%TO.C,R5*%
X158500000Y-24500000D02*
X161500000Y-24500000D01*
X161500000Y-32130000D01*
X158500000Y-32130000D01*
X158500000Y-24500000D01*
%TO.C,R1*%
X158500000Y-8500000D02*
X161500000Y-8500000D01*
X161500000Y-16130000D01*
X158500000Y-16130000D01*
X158500000Y-8500000D01*
%TO.C,R107*%
X74000000Y-116100000D02*
X77000000Y-116100000D01*
X77000000Y-123730000D01*
X74000000Y-123730000D01*
X74000000Y-116100000D01*
%TO.C,D12*%
X27360000Y-49350000D02*
X32200000Y-49350000D01*
X32200000Y-53770000D01*
X27360000Y-53770000D01*
X27360000Y-49350000D01*
%TO.C,D35*%
X12120000Y-125550000D02*
X16960000Y-125550000D01*
X16960000Y-129970000D01*
X12120000Y-129970000D01*
X12120000Y-125550000D01*
%TO.C,R43*%
X138500000Y-187500000D02*
X141500000Y-187500000D01*
X141500000Y-195130000D01*
X138500000Y-195130000D01*
X138500000Y-187500000D01*
%TO.C,R60*%
X173500000Y-196500000D02*
X176500000Y-196500000D01*
X176500000Y-204130000D01*
X173500000Y-204130000D01*
X173500000Y-196500000D01*
%TO.C,R61*%
X178500000Y-196500000D02*
X181500000Y-196500000D01*
X181500000Y-204130000D01*
X178500000Y-204130000D01*
X178500000Y-196500000D01*
%TO.C,R19*%
X158500000Y-84500000D02*
X161500000Y-84500000D01*
X161500000Y-92130000D01*
X158500000Y-92130000D01*
X158500000Y-84500000D01*
%TO.C,Q24*%
X117670000Y-79310000D02*
X117670000Y-84050000D01*
X117670000Y-79310000D02*
X124770000Y-79310000D01*
X124770000Y-84050000D02*
X117670000Y-84050000D01*
X124770000Y-84050000D02*
X124770000Y-79310000D01*
%TO.C,SW1*%
X142670000Y-9330000D02*
X152950000Y-9330000D01*
X152950000Y-32460000D01*
X142670000Y-32460000D01*
X142670000Y-9330000D01*
%TO.C,Q38*%
X87190000Y-130110000D02*
X87190000Y-134850000D01*
X87190000Y-130110000D02*
X94290000Y-130110000D01*
X94290000Y-134850000D02*
X87190000Y-134850000D01*
X94290000Y-134850000D02*
X94290000Y-130110000D01*
%TO.C,R73*%
X43520000Y-14500000D02*
X46520000Y-14500000D01*
X46520000Y-22130000D01*
X43520000Y-22130000D01*
X43520000Y-14500000D01*
%TO.C,R13*%
X158500000Y-58500000D02*
X161500000Y-58500000D01*
X161500000Y-66130000D01*
X158500000Y-66130000D01*
X158500000Y-58500000D01*
%TO.C,R112*%
X28280000Y-141500000D02*
X31280000Y-141500000D01*
X31280000Y-149130000D01*
X28280000Y-149130000D01*
X28280000Y-141500000D01*
%TO.C,R6*%
X164500000Y-24500000D02*
X167500000Y-24500000D01*
X167500000Y-32130000D01*
X164500000Y-32130000D01*
X164500000Y-24500000D01*
%TO.C,R14*%
X164500000Y-58500000D02*
X167500000Y-58500000D01*
X167500000Y-66130000D01*
X164500000Y-66130000D01*
X164500000Y-58500000D01*
%TO.C,Q19*%
X41470000Y-79310000D02*
X41470000Y-84050000D01*
X41470000Y-79310000D02*
X48570000Y-79310000D01*
X48570000Y-84050000D02*
X41470000Y-84050000D01*
X48570000Y-84050000D02*
X48570000Y-79310000D01*
%TO.C,Q17*%
X10990000Y-79310000D02*
X10990000Y-84050000D01*
X10990000Y-79310000D02*
X18090000Y-79310000D01*
X18090000Y-84050000D02*
X10990000Y-84050000D01*
X18090000Y-84050000D02*
X18090000Y-79310000D01*
%TD*%
M02*
