M48
; DRILL file KiCad 10.0.5 date 2026-09-09T14:19:17
; FORMAT={-:-/ absolute / metric / decimal}
; #@! TF.CreationDate,2026-09-09T14:19:17-04:00
; #@! TF.GenerationSoftware,Kicad,Pcbnew,10.0.5
; #@! TF.FileFunction,MixedPlating,1,2
FMAT,2
METRIC
; #@! TA.AperFunction,Plated,PTH,ViaDrill
T1C0.400
; #@! TA.AperFunction,Plated,PTH,ComponentDrill
T2C0.800
; #@! TA.AperFunction,Plated,PTH,ComponentDrill
T3C0.900
; #@! TA.AperFunction,Plated,PTH,ComponentDrill
T4C1.000
; #@! TA.AperFunction,Plated,PTH,ComponentDrill
T5C1.100
; #@! TA.AperFunction,Plated,PTH,ComponentDrill
T6C3.200
%
G90
G05
T1
X10.73Y-10.0
X13.769Y-208.212
X18.35Y-13.0
X21.694Y-180.437
X25.656Y-180.437
X25.656Y-204.244
X25.97Y-10.0
X29.619Y-180.437
X30.05Y-176.698
X30.101Y-175.066
X30.483Y-179.584
X33.59Y-13.0
X41.21Y-10.0
X44.616Y-80.364
X48.022Y-189.427
X48.83Y-13.0
X52.595Y-177.995
X56.45Y-10.0
X57.768Y-61.651
X58.087Y-148.31
X60.329Y-176.371
X64.07Y-13.0
X65.352Y-207.885
X65.791Y-152.662
X71.446Y-183.571
X71.69Y-10.0
X73.32Y-148.694
X76.651Y-200.049
X77.286Y-208.387
X77.404Y-159.947
X77.711Y-154.886
X78.608Y-168.533
X79.31Y-13.0
X80.327Y-207.978
X80.538Y-181.369
X80.694Y-206.826
X83.008Y-188.373
X83.008Y-191.415
X83.368Y-177.411
X83.615Y-216.424
X84.756Y-193.253
X85.052Y-179.176
X85.094Y-221.147
X85.217Y-174.683
X85.363Y-144.726
X85.588Y-162.338
X85.785Y-184.405
X86.077Y-178.885
X86.266Y-175.284
X86.38Y-216.471
X86.93Y-10.0
X88.323Y-197.503
X88.845Y-154.84
X89.056Y-217.995
X89.056Y-178.594
X89.07Y-220.18
X89.877Y-183.81
X91.734Y-187.397
X92.026Y-183.895
X93.019Y-172.361
X94.077Y-184.472
X94.55Y-13.0
X94.603Y-191.749
X96.139Y-188.058
X96.37Y-177.048
X97.066Y-193.469
X100.944Y-219.145
X102.17Y-10.0
X104.317Y-204.48
X105.632Y-199.809
X107.863Y-198.801
X108.86Y-196.113
X108.86Y-197.403
X109.083Y-175.985
X109.704Y-210.556
X109.79Y-13.0
X110.3Y-178.226
X112.929Y-209.583
X114.182Y-205.598
X115.954Y-190.773
X116.673Y-207.376
X117.41Y-10.0
X119.16Y-201.05
X119.654Y-187.19
X120.756Y-221.125
X120.758Y-188.216
X121.645Y-197.596
X124.681Y-217.03
X124.719Y-192.267
X124.814Y-204.069
X125.03Y-13.0
X125.853Y-168.533
X125.988Y-38.785
X125.99Y-37.593
X125.99Y-89.175
X126.282Y-28.602
X126.68Y-30.347
X127.234Y-62.85
X127.528Y-186.134
X127.942Y-64.052
X128.229Y-77.272
X128.681Y-201.461
X129.208Y-184.995
X129.734Y-191.632
X130.097Y-178.834
X132.644Y-173.486
X132.644Y-200.54
X135.094Y-186.906
X135.688Y-196.311
X137.494Y-179.431
X144.586Y-159.378
X147.64Y-157.769
X148.494Y-220.135
X148.529Y-155.585
X149.436Y-215.941
X151.418Y-153.954
X152.261Y-155.616
X154.196Y-204.356
X156.142Y-202.218
X156.44Y-97.811
X156.54Y-206.552
X157.2Y-160.0
X158.469Y-139.384
X160.0Y-145.28
X163.215Y-85.208
X171.717Y-175.148
X172.465Y-175.931
X172.856Y-183.833
X173.665Y-183.015
X173.84Y-160.598
X188.363Y-148.694
T2
X12.0Y-31.24
X12.0Y-56.64
X12.0Y-82.04
X12.0Y-107.44
X12.0Y-132.84
X12.0Y-158.24
X12.0Y-200.0
X12.0Y-202.5
X14.54Y-16.0
X14.54Y-21.08
X14.54Y-31.24
X14.54Y-41.4
X14.54Y-46.48
X14.54Y-56.64
X14.54Y-66.8
X14.54Y-71.88
X14.54Y-82.04
X14.54Y-92.2
X14.54Y-97.28
X14.54Y-107.44
X14.54Y-117.6
X14.54Y-122.68
X14.54Y-132.84
X14.54Y-143.0
X14.54Y-148.08
X14.54Y-158.24
X17.08Y-31.24
X17.08Y-56.64
X17.08Y-82.04
X17.08Y-107.44
X17.08Y-132.84
X17.08Y-158.24
X18.0Y-200.0
X18.0Y-202.0
X27.24Y-31.24
X27.24Y-56.64
X27.24Y-82.04
X27.24Y-107.44
X27.24Y-132.84
X27.24Y-158.24
X29.78Y-16.0
X29.78Y-21.08
X29.78Y-31.24
X29.78Y-41.4
X29.78Y-46.48
X29.78Y-56.64
X29.78Y-66.8
X29.78Y-71.88
X29.78Y-82.04
X29.78Y-92.2
X29.78Y-97.28
X29.78Y-107.44
X29.78Y-117.6
X29.78Y-122.68
X29.78Y-132.84
X29.78Y-143.0
X29.78Y-148.08
X29.78Y-158.24
X32.32Y-31.24
X32.32Y-56.64
X32.32Y-82.04
X32.32Y-107.44
X32.32Y-132.84
X32.32Y-158.24
X42.48Y-31.24
X42.48Y-56.64
X42.48Y-82.04
X42.48Y-107.44
X42.48Y-132.84
X42.48Y-153.16
X42.48Y-173.48
X45.02Y-16.0
X45.02Y-21.08
X45.02Y-31.24
X45.02Y-41.4
X45.02Y-46.48
X45.02Y-56.64
X45.02Y-66.8
X45.02Y-71.88
X45.02Y-82.04
X45.02Y-92.2
X45.02Y-97.28
X45.02Y-107.44
X45.02Y-117.6
X45.02Y-122.68
X45.02Y-132.84
X45.02Y-143.0
X45.02Y-148.08
X45.02Y-153.16
X45.02Y-163.32
X45.02Y-168.4
X45.02Y-173.48
X47.56Y-31.24
X47.56Y-56.64
X47.56Y-82.04
X47.56Y-107.44
X47.56Y-132.84
X47.56Y-153.16
X47.56Y-173.48
X57.72Y-31.24
X57.72Y-56.64
X57.72Y-82.04
X57.72Y-107.44
X57.72Y-132.84
X57.72Y-153.16
X57.72Y-173.48
X60.26Y-16.0
X60.26Y-21.08
X60.26Y-31.24
X60.26Y-41.4
X60.26Y-46.48
X60.26Y-56.64
X60.26Y-66.8
X60.26Y-71.88
X60.26Y-82.04
X60.26Y-92.2
X60.26Y-97.28
X60.26Y-107.44
X60.26Y-117.6
X60.26Y-122.68
X60.26Y-132.84
X60.26Y-143.0
X60.26Y-148.08
X60.26Y-153.16
X60.26Y-163.32
X60.26Y-168.4
X60.26Y-173.48
X62.8Y-31.24
X62.8Y-56.64
X62.8Y-82.04
X62.8Y-107.44
X62.8Y-132.84
X62.8Y-153.16
X62.8Y-173.48
X72.96Y-31.24
X72.96Y-56.64
X72.96Y-82.04
X72.96Y-107.44
X72.96Y-132.84
X72.96Y-153.16
X75.5Y-16.0
X75.5Y-21.08
X75.5Y-31.24
X75.5Y-41.4
X75.5Y-46.48
X75.5Y-56.64
X75.5Y-66.8
X75.5Y-71.88
X75.5Y-82.04
X75.5Y-92.2
X75.5Y-97.28
X75.5Y-107.44
X75.5Y-117.6
X75.5Y-122.68
X75.5Y-132.84
X75.5Y-143.0
X75.5Y-148.08
X75.5Y-153.16
X78.04Y-31.24
X78.04Y-56.64
X78.04Y-82.04
X78.04Y-107.44
X78.04Y-132.84
X78.04Y-153.16
X88.2Y-31.24
X88.2Y-56.64
X88.2Y-82.04
X88.2Y-107.44
X88.2Y-132.84
X88.2Y-153.16
X90.74Y-16.0
X90.74Y-21.08
X90.74Y-31.24
X90.74Y-41.4
X90.74Y-46.48
X90.74Y-56.64
X90.74Y-66.8
X90.74Y-71.88
X90.74Y-82.04
X90.74Y-92.2
X90.74Y-97.28
X90.74Y-107.44
X90.74Y-117.6
X90.74Y-122.68
X90.74Y-132.84
X90.74Y-143.0
X90.74Y-148.08
X90.74Y-153.16
X93.28Y-31.24
X93.28Y-56.64
X93.28Y-82.04
X93.28Y-107.44
X93.28Y-132.84
X93.28Y-153.16
X103.44Y-31.24
X103.44Y-56.64
X103.44Y-82.04
X103.44Y-107.44
X103.44Y-132.84
X103.44Y-153.16
X105.98Y-16.0
X105.98Y-21.08
X105.98Y-31.24
X105.98Y-41.4
X105.98Y-46.48
X105.98Y-56.64
X105.98Y-66.8
X105.98Y-71.88
X105.98Y-82.04
X105.98Y-92.2
X105.98Y-97.28
X105.98Y-107.44
X105.98Y-117.6
X105.98Y-122.68
X105.98Y-132.84
X105.98Y-143.0
X105.98Y-148.08
X105.98Y-153.16
X108.52Y-31.24
X108.52Y-56.64
X108.52Y-82.04
X108.52Y-107.44
X108.52Y-132.84
X108.52Y-153.16
X118.68Y-31.24
X118.68Y-56.64
X118.68Y-82.04
X118.68Y-107.44
X118.68Y-132.84
X118.68Y-153.16
X121.22Y-16.0
X121.22Y-21.08
X121.22Y-31.24
X121.22Y-41.4
X121.22Y-46.48
X121.22Y-56.64
X121.22Y-66.8
X121.22Y-71.88
X121.22Y-82.04
X121.22Y-92.2
X121.22Y-97.28
X121.22Y-107.44
X121.22Y-117.6
X121.22Y-122.68
X121.22Y-132.84
X121.22Y-143.0
X121.22Y-148.08
X121.22Y-153.16
X123.76Y-31.24
X123.76Y-56.64
X123.76Y-82.04
X123.76Y-107.44
X123.76Y-132.84
X123.76Y-153.16
X140.0Y-180.0
X140.0Y-185.08
X140.0Y-189.0
X140.0Y-194.08
X140.0Y-198.0
X140.0Y-203.08
X140.0Y-207.0
X140.0Y-212.08
X144.0Y-12.0
X144.0Y-14.54
X144.0Y-17.08
X144.0Y-19.62
X144.0Y-22.16
X144.0Y-24.7
X144.0Y-27.24
X144.0Y-29.78
X144.0Y-46.0
X144.0Y-48.54
X144.0Y-51.08
X144.0Y-53.62
X144.0Y-56.16
X144.0Y-58.7
X144.0Y-61.24
X144.0Y-63.78
X144.0Y-80.0
X144.0Y-82.54
X144.0Y-85.08
X144.0Y-87.62
X144.0Y-90.16
X144.0Y-92.7
X144.0Y-95.24
X144.0Y-97.78
X144.0Y-114.0
X144.0Y-116.54
X144.0Y-119.08
X144.0Y-121.62
X145.0Y-180.0
X145.0Y-185.08
X145.0Y-189.0
X145.0Y-194.08
X145.0Y-198.0
X145.0Y-203.08
X145.0Y-207.0
X145.0Y-212.08
X150.0Y-138.0
X150.0Y-143.08
X150.0Y-147.0
X150.0Y-158.0
X150.0Y-163.08
X150.0Y-167.0
X150.0Y-180.0
X150.0Y-185.08
X150.0Y-189.0
X150.0Y-194.08
X150.0Y-198.0
X150.0Y-203.08
X150.0Y-207.0
X150.0Y-212.08
X151.62Y-12.0
X151.62Y-14.54
X151.62Y-17.08
X151.62Y-19.62
X151.62Y-22.16
X151.62Y-24.7
X151.62Y-27.24
X151.62Y-29.78
X151.62Y-46.0
X151.62Y-48.54
X151.62Y-51.08
X151.62Y-53.62
X151.62Y-56.16
X151.62Y-58.7
X151.62Y-61.24
X151.62Y-63.78
X151.62Y-80.0
X151.62Y-82.54
X151.62Y-85.08
X151.62Y-87.62
X151.62Y-90.16
X151.62Y-92.7
X151.62Y-95.24
X151.62Y-97.78
X151.62Y-114.0
X151.62Y-116.54
X151.62Y-119.08
X151.62Y-121.62
X155.0Y-138.0
X155.0Y-140.0
X155.0Y-158.0
X155.0Y-160.0
X155.0Y-180.0
X155.0Y-185.08
X155.0Y-189.0
X155.0Y-194.08
X155.0Y-198.0
X155.0Y-203.08
X155.0Y-207.0
X155.0Y-212.08
X157.62Y-147.0
X157.62Y-167.0
X160.0Y-10.0
X160.0Y-15.08
X160.0Y-18.0
X160.0Y-23.08
X160.0Y-26.0
X160.0Y-31.08
X160.0Y-34.0
X160.0Y-39.08
X160.0Y-44.0
X160.0Y-49.08
X160.0Y-52.0
X160.0Y-57.08
X160.0Y-60.0
X160.0Y-65.08
X160.0Y-68.0
X160.0Y-73.08
X160.0Y-78.0
X160.0Y-83.08
X160.0Y-86.0
X160.0Y-91.08
X160.0Y-94.0
X160.0Y-99.08
X160.0Y-138.0
X160.0Y-143.08
X160.0Y-158.0
X160.0Y-163.08
X160.0Y-180.0
X160.0Y-185.08
X160.0Y-189.0
X160.0Y-194.08
X160.0Y-198.0
X160.0Y-203.08
X160.0Y-207.0
X160.0Y-212.08
X165.0Y-138.0
X165.0Y-143.08
X165.0Y-158.0
X165.0Y-163.08
X165.0Y-180.0
X165.0Y-185.08
X165.0Y-189.0
X165.0Y-194.08
X165.0Y-198.0
X165.0Y-203.08
X165.0Y-207.0
X165.0Y-212.08
X166.0Y-10.0
X166.0Y-15.08
X166.0Y-18.0
X166.0Y-23.08
X166.0Y-26.0
X166.0Y-31.08
X166.0Y-34.0
X166.0Y-39.08
X166.0Y-44.0
X166.0Y-49.08
X166.0Y-52.0
X166.0Y-57.08
X166.0Y-60.0
X166.0Y-65.08
X166.0Y-68.0
X166.0Y-73.08
X166.0Y-78.0
X166.0Y-83.08
X166.0Y-86.0
X166.0Y-91.08
X166.0Y-94.0
X166.0Y-99.08
X170.0Y-138.0
X170.0Y-143.08
X170.0Y-158.0
X170.0Y-163.08
X170.0Y-180.0
X170.0Y-185.08
X170.0Y-189.0
X170.0Y-194.08
X170.0Y-198.0
X170.0Y-203.08
X170.0Y-207.0
X170.0Y-212.08
X175.0Y-138.0
X175.0Y-143.08
X175.0Y-158.0
X175.0Y-163.08
X175.0Y-180.0
X175.0Y-185.08
X175.0Y-189.0
X175.0Y-194.08
X175.0Y-198.0
X175.0Y-203.08
X175.0Y-207.0
X175.0Y-212.08
X180.0Y-180.0
X180.0Y-185.08
X180.0Y-189.0
X180.0Y-194.08
X180.0Y-198.0
X180.0Y-203.08
X185.0Y-180.0
X185.0Y-185.08
X185.0Y-189.0
X185.0Y-194.08
X185.0Y-198.0
X185.0Y-203.08
T3
X13.27Y-26.16
X13.27Y-51.56
X13.27Y-76.96
X13.27Y-102.36
X13.27Y-127.76
X13.27Y-153.16
X15.81Y-26.16
X15.81Y-51.56
X15.81Y-76.96
X15.81Y-102.36
X15.81Y-127.76
X15.81Y-153.16
X28.51Y-26.16
X28.51Y-51.56
X28.51Y-76.96
X28.51Y-102.36
X28.51Y-127.76
X28.51Y-153.16
X31.05Y-26.16
X31.05Y-51.56
X31.05Y-76.96
X31.05Y-102.36
X31.05Y-127.76
X31.05Y-153.16
X43.75Y-26.16
X43.75Y-51.56
X43.75Y-76.96
X43.75Y-102.36
X43.75Y-127.76
X46.29Y-26.16
X46.29Y-51.56
X46.29Y-76.96
X46.29Y-102.36
X46.29Y-127.76
X58.99Y-26.16
X58.99Y-51.56
X58.99Y-76.96
X58.99Y-102.36
X58.99Y-127.76
X61.53Y-26.16
X61.53Y-51.56
X61.53Y-76.96
X61.53Y-102.36
X61.53Y-127.76
X74.23Y-26.16
X74.23Y-51.56
X74.23Y-76.96
X74.23Y-102.36
X74.23Y-127.76
X76.77Y-26.16
X76.77Y-51.56
X76.77Y-76.96
X76.77Y-102.36
X76.77Y-127.76
X89.47Y-26.16
X89.47Y-51.56
X89.47Y-76.96
X89.47Y-102.36
X89.47Y-127.76
X92.01Y-26.16
X92.01Y-51.56
X92.01Y-76.96
X92.01Y-102.36
X92.01Y-127.76
X104.71Y-26.16
X104.71Y-51.56
X104.71Y-76.96
X104.71Y-102.36
X104.71Y-127.76
X107.25Y-26.16
X107.25Y-51.56
X107.25Y-76.96
X107.25Y-102.36
X107.25Y-127.76
X119.95Y-26.16
X119.95Y-51.56
X119.95Y-76.96
X119.95Y-102.36
X119.95Y-127.76
X122.49Y-26.16
X122.49Y-51.56
X122.49Y-76.96
X122.49Y-102.36
X122.49Y-127.76
T4
X50.0Y-211.46
X50.0Y-214.0
X52.54Y-211.46
X52.54Y-214.0
X55.08Y-211.46
X55.08Y-214.0
X57.62Y-211.46
X57.62Y-214.0
X60.16Y-211.46
X60.16Y-214.0
X62.7Y-211.46
X62.7Y-214.0
X65.24Y-211.46
X65.24Y-214.0
X67.78Y-211.46
X67.78Y-214.0
X70.32Y-211.46
X70.32Y-214.0
X72.86Y-211.46
X72.86Y-214.0
X75.4Y-211.46
X75.4Y-214.0
X77.94Y-211.46
X77.94Y-214.0
X80.48Y-211.46
X80.48Y-214.0
X83.02Y-211.46
X83.02Y-214.0
X85.56Y-211.46
X85.56Y-214.0
X88.1Y-211.46
X88.1Y-214.0
X90.64Y-211.46
X90.64Y-214.0
X93.18Y-211.46
X93.18Y-214.0
X95.72Y-211.46
X95.72Y-214.0
X98.26Y-211.46
X98.26Y-214.0
X100.8Y-211.46
X100.8Y-214.0
X103.34Y-211.46
X103.34Y-214.0
X105.88Y-211.46
X105.88Y-214.0
X108.42Y-211.46
X108.42Y-214.0
X110.96Y-211.46
X110.96Y-214.0
T5
X136.0Y-140.0
X136.0Y-144.5
X136.0Y-160.0
X136.0Y-164.5
X142.5Y-140.0
X142.5Y-144.5
X142.5Y-160.0
X142.5Y-164.5
T6
X4.0Y-4.0
X4.0Y-218.0
X186.0Y-4.0
X186.0Y-218.0
M30
