%TF.GenerationSoftware,KiCad,Pcbnew,10.0.5*%
%TF.CreationDate,2026-09-09T20:03:39-04:00*%
%TF.ProjectId,panel,70616e65-6c2e-46b6-9963-61645f706362,rev?*%
%TF.SameCoordinates,Original*%
%TF.FileFunction,Copper,L1,Top*%
%TF.FilePolarity,Positive*%
%FSLAX46Y46*%
G04 Gerber Fmt 4.6, Leading zero omitted, Abs format (unit mm)*
G04 Created by KiCad (PCBNEW 10.0.5) date 2026-09-09 20:03:39*
%MOMM*%
%LPD*%
G01*
G04 APERTURE LIST*
G04 Aperture macros list*
%AMRoundRect*
0 Rectangle with rounded corners*
0 $1 Rounding radius*
0 $2 $3 $4 $5 $6 $7 $8 $9 X,Y pos of 4 corners*
0 Add a 4 corners polygon primitive as box body*
4,1,4,$2,$3,$4,$5,$6,$7,$8,$9,$2,$3,0*
0 Add four circle primitives for the rounded corners*
1,1,$1+$1,$2,$3*
1,1,$1+$1,$4,$5*
1,1,$1+$1,$6,$7*
1,1,$1+$1,$8,$9*
0 Add four rect primitives between the rounded corners*
20,1,$1+$1,$2,$3,$4,$5,0*
20,1,$1+$1,$4,$5,$6,$7,0*
20,1,$1+$1,$6,$7,$8,$9,0*
20,1,$1+$1,$8,$9,$2,$3,0*%
G04 Aperture macros list end*
%TA.AperFunction,ComponentPad*%
%ADD10C,1.600000*%
%TD*%
%TA.AperFunction,ComponentPad*%
%ADD11R,1.800000X1.800000*%
%TD*%
%TA.AperFunction,ComponentPad*%
%ADD12C,1.800000*%
%TD*%
%TA.AperFunction,ComponentPad*%
%ADD13RoundRect,0.250000X-0.550000X-0.550000X0.550000X-0.550000X0.550000X0.550000X-0.550000X0.550000X0*%
%TD*%
%TA.AperFunction,ComponentPad*%
%ADD14R,1.500000X1.500000*%
%TD*%
%TA.AperFunction,ComponentPad*%
%ADD15C,1.500000*%
%TD*%
%TA.AperFunction,ComponentPad*%
%ADD16RoundRect,0.250000X-0.550000X0.550000X-0.550000X-0.550000X0.550000X-0.550000X0.550000X0.550000X0*%
%TD*%
%TA.AperFunction,ComponentPad*%
%ADD17RoundRect,0.250000X0.600000X-0.600000X0.600000X0.600000X-0.600000X0.600000X-0.600000X-0.600000X0*%
%TD*%
%TA.AperFunction,ComponentPad*%
%ADD18C,1.700000*%
%TD*%
%TA.AperFunction,ComponentPad*%
%ADD19C,6.400000*%
%TD*%
%TA.AperFunction,ComponentPad*%
%ADD20C,2.000000*%
%TD*%
%TA.AperFunction,ViaPad*%
%ADD21C,0.800000*%
%TD*%
%TA.AperFunction,Conductor*%
%ADD22C,0.250000*%
%TD*%
%TA.AperFunction,Conductor*%
%ADD23C,0.500000*%
%TD*%
%TA.AperFunction,Conductor*%
%ADD24C,0.800000*%
%TD*%
G04 APERTURE END LIST*
D10*
%TO.P,R25,1*%
%TO.N,Net-(C3-Pad1)*%
X165000000Y-138000000D03*
%TO.P,R25,2*%
%TO.N,CLK_N*%
X165000000Y-143080000D03*
%TD*%
%TO.P,R24,1*%
%TO.N,Net-(C3-Pad1)*%
X160000000Y-138000000D03*
%TO.P,R24,2*%
%TO.N,GND*%
X160000000Y-143080000D03*
%TD*%
%TO.P,R7,1*%
%TO.N,Net-(R7-Pad1)*%
X160000000Y-34000000D03*
%TO.P,R7,2*%
%TO.N,B2*%
X160000000Y-39080000D03*
%TD*%
D11*
%TO.P,D31,1*%
%TO.N,Net-(D31-K)*%
X74230000Y-102360000D03*
D12*
%TO.P,D31,2*%
%TO.N,Net-(D31-A)*%
X76770000Y-102360000D03*
%TD*%
D13*
%TO.P,SW1,1*%
%TO.N,+5V*%
X144000000Y-12000000D03*
D10*
%TO.P,SW1,2*%
X144000000Y-14540000D03*
%TO.P,SW1,3*%
X144000000Y-17080000D03*
%TO.P,SW1,4*%
X144000000Y-19620000D03*
%TO.P,SW1,5*%
X144000000Y-22160000D03*
%TO.P,SW1,6*%
X144000000Y-24700000D03*
%TO.P,SW1,7*%
X144000000Y-27240000D03*
%TO.P,SW1,8*%
X144000000Y-29780000D03*
%TO.P,SW1,9*%
%TO.N,Net-(R8-Pad1)*%
X151620000Y-29780000D03*
%TO.P,SW1,10*%
%TO.N,Net-(R7-Pad1)*%
X151620000Y-27240000D03*
%TO.P,SW1,11*%
%TO.N,Net-(R6-Pad1)*%
X151620000Y-24700000D03*
%TO.P,SW1,12*%
%TO.N,Net-(R5-Pad1)*%
X151620000Y-22160000D03*
%TO.P,SW1,13*%
%TO.N,Net-(R4-Pad1)*%
X151620000Y-19620000D03*
%TO.P,SW1,14*%
%TO.N,Net-(R3-Pad1)*%
X151620000Y-17080000D03*
%TO.P,SW1,15*%
%TO.N,Net-(R2-Pad1)*%
X151620000Y-14540000D03*
%TO.P,SW1,16*%
%TO.N,Net-(R1-Pad1)*%
X151620000Y-12000000D03*
%TD*%
%TO.P,R27,1*%
%TO.N,CLK_S2*%
X175000000Y-138000000D03*
%TO.P,R27,2*%
%TO.N,Net-(D1-A)*%
X175000000Y-143080000D03*
%TD*%
D11*
%TO.P,D40,1*%
%TO.N,Net-(D40-K)*%
X89470000Y-127760000D03*
D12*
%TO.P,D40,2*%
%TO.N,Net-(D40-A)*%
X92010000Y-127760000D03*
%TD*%
D14*
%TO.P,Q11,1*%
%TO.N,GND*%
X42480000Y-56640000D03*
D15*
%TO.P,Q11,2*%
%TO.N,D1*%
X45020000Y-56640000D03*
%TO.P,Q11,3*%
%TO.N,Net-(D13-K)*%
X47560000Y-56640000D03*
%TD*%
D10*
%TO.P,R40,1*%
%TO.N,B3*%
X182000000Y-178000000D03*
%TO.P,R40,2*%
%TO.N,GND*%
X182000000Y-183080000D03*
%TD*%
D14*
%TO.P,Q31,1*%
%TO.N,GND*%
X103440000Y-107440000D03*
D15*
%TO.P,Q31,2*%
%TO.N,AI*%
X105980000Y-107440000D03*
%TO.P,Q31,3*%
%TO.N,Net-(D33-K)*%
X108520000Y-107440000D03*
%TD*%
D10*
%TO.P,R15,1*%
%TO.N,Net-(R15-Pad1)*%
X160000000Y-68000000D03*
%TO.P,R15,2*%
%TO.N,AB*%
X160000000Y-73080000D03*
%TD*%
%TO.P,R115,1*%
%TO.N,+5V*%
X75500000Y-143000000D03*
%TO.P,R115,2*%
%TO.N,D2*%
X75500000Y-148080000D03*
%TD*%
D11*
%TO.P,D17,1*%
%TO.N,Net-(D17-K)*%
X104710000Y-51560000D03*
D12*
%TO.P,D17,2*%
%TO.N,Net-(D17-A)*%
X107250000Y-51560000D03*
%TD*%
D10*
%TO.P,R76,1*%
%TO.N,+5V*%
X90740000Y-16000000D03*
%TO.P,R76,2*%
%TO.N,Net-(D8-A)*%
X90740000Y-21080000D03*
%TD*%
%TO.P,R35,1*%
%TO.N,A2*%
X152000000Y-178000000D03*
%TO.P,R35,2*%
%TO.N,GND*%
X152000000Y-183080000D03*
%TD*%
%TO.P,R75,1*%
%TO.N,+5V*%
X75500000Y-16000000D03*
%TO.P,R75,2*%
%TO.N,Net-(D7-A)*%
X75500000Y-21080000D03*
%TD*%
D13*
%TO.P,SW2,1*%
%TO.N,+5V*%
X144000000Y-46000000D03*
D10*
%TO.P,SW2,2*%
X144000000Y-48540000D03*
%TO.P,SW2,3*%
X144000000Y-51080000D03*
%TO.P,SW2,4*%
X144000000Y-53620000D03*
%TO.P,SW2,5*%
X144000000Y-56160000D03*
%TO.P,SW2,6*%
X144000000Y-58700000D03*
%TO.P,SW2,7*%
X144000000Y-61240000D03*
%TO.P,SW2,8*%
X144000000Y-63780000D03*
%TO.P,SW2,9*%
%TO.N,Net-(R16-Pad1)*%
X151620000Y-63780000D03*
%TO.P,SW2,10*%
%TO.N,Net-(R15-Pad1)*%
X151620000Y-61240000D03*
%TO.P,SW2,11*%
%TO.N,Net-(R14-Pad1)*%
X151620000Y-58700000D03*
%TO.P,SW2,12*%
%TO.N,Net-(R13-Pad1)*%
X151620000Y-56160000D03*
%TO.P,SW2,13*%
%TO.N,Net-(R12-Pad1)*%
X151620000Y-53620000D03*
%TO.P,SW2,14*%
%TO.N,Net-(R11-Pad1)*%
X151620000Y-51080000D03*
%TO.P,SW2,15*%
%TO.N,Net-(R10-Pad1)*%
X151620000Y-48540000D03*
%TO.P,SW2,16*%
%TO.N,Net-(R9-Pad1)*%
X151620000Y-46000000D03*
%TD*%
D14*
%TO.P,Q19,1*%
%TO.N,GND*%
X42480000Y-82040000D03*
D15*
%TO.P,Q19,2*%
%TO.N,M5*%
X45020000Y-82040000D03*
%TO.P,Q19,3*%
%TO.N,Net-(D21-K)*%
X47560000Y-82040000D03*
%TD*%
D11*
%TO.P,D10,1*%
%TO.N,Net-(D10-K)*%
X119950000Y-26160000D03*
D12*
%TO.P,D10,2*%
%TO.N,Net-(D10-A)*%
X122490000Y-26160000D03*
%TD*%
D14*
%TO.P,Q26,1*%
%TO.N,GND*%
X27240000Y-107440000D03*
D15*
%TO.P,Q26,2*%
%TO.N,ZF*%
X29780000Y-107440000D03*
%TO.P,Q26,3*%
%TO.N,Net-(D28-K)*%
X32320000Y-107440000D03*
%TD*%
D10*
%TO.P,R3,1*%
%TO.N,Net-(R3-Pad1)*%
X160000000Y-18000000D03*
%TO.P,R3,2*%
%TO.N,A2*%
X160000000Y-23080000D03*
%TD*%
%TO.P,R118,1*%
%TO.N,+5V*%
X121220000Y-143000000D03*
%TO.P,R118,2*%
%TO.N,CLK_S2*%
X121220000Y-148080000D03*
%TD*%
%TO.P,R90,1*%
%TO.N,+5V*%
X60260000Y-66800000D03*
%TO.P,R90,2*%
%TO.N,Net-(D22-A)*%
X60260000Y-71880000D03*
%TD*%
%TO.P,R85,1*%
%TO.N,+5V*%
X105980000Y-41400000D03*
%TO.P,R85,2*%
%TO.N,Net-(D17-A)*%
X105980000Y-46480000D03*
%TD*%
D11*
%TO.P,D26,1*%
%TO.N,Net-(D26-K)*%
X119950000Y-76960000D03*
D12*
%TO.P,D26,2*%
%TO.N,Net-(D26-A)*%
X122490000Y-76960000D03*
%TD*%
D11*
%TO.P,D9,1*%
%TO.N,Net-(D9-K)*%
X104710000Y-26160000D03*
D12*
%TO.P,D9,2*%
%TO.N,Net-(D9-A)*%
X107250000Y-26160000D03*
%TD*%
D16*
%TO.P,C2,1*%
%TO.N,+5V*%
X18000000Y-200000000D03*
D10*
%TO.P,C2,2*%
%TO.N,GND*%
X18000000Y-202000000D03*
%TD*%
%TO.P,R97,1*%
%TO.N,+5V*%
X45020000Y-92200000D03*
%TO.P,R97,2*%
%TO.N,Net-(D29-A)*%
X45020000Y-97280000D03*
%TD*%
D14*
%TO.P,Q14,1*%
%TO.N,GND*%
X88200000Y-56640000D03*
D15*
%TO.P,Q14,2*%
%TO.N,PC2*%
X90740000Y-56640000D03*
%TO.P,Q14,3*%
%TO.N,Net-(D16-K)*%
X93280000Y-56640000D03*
%TD*%
D14*
%TO.P,Q1,1*%
%TO.N,GND*%
X12000000Y-31240000D03*
D15*
%TO.P,Q1,2*%
%TO.N,A3*%
X14540000Y-31240000D03*
%TO.P,Q1,3*%
%TO.N,Net-(D3-K)*%
X17080000Y-31240000D03*
%TD*%
D10*
%TO.P,R9,1*%
%TO.N,Net-(R9-Pad1)*%
X160000000Y-44000000D03*
%TO.P,R9,2*%
%TO.N,SUB*%
X160000000Y-49080000D03*
%TD*%
%TO.P,R34,1*%
%TO.N,A1*%
X146000000Y-178000000D03*
%TO.P,R34,2*%
%TO.N,GND*%
X146000000Y-183080000D03*
%TD*%
%TO.P,R33,1*%
%TO.N,A0*%
X140000000Y-178000000D03*
%TO.P,R33,2*%
%TO.N,GND*%
X140000000Y-183080000D03*
%TD*%
D17*
%TO.P,J1,1*%
%TO.N,+5V*%
X50000000Y-214000000D03*
D18*
%TO.P,J1,2*%
X50000000Y-211460000D03*
%TO.P,J1,3*%
%TO.N,GND*%
X52540000Y-214000000D03*
%TO.P,J1,4*%
X52540000Y-211460000D03*
%TO.P,J1,5*%
%TO.N,CLK*%
X55080000Y-214000000D03*
%TO.P,J1,6*%
%TO.N,GND*%
X55080000Y-211460000D03*
%TO.P,J1,7*%
%TO.N,RST*%
X57620000Y-214000000D03*
%TO.P,J1,8*%
%TO.N,GND*%
X57620000Y-211460000D03*
%TO.P,J1,9*%
%TO.N,BUS0#*%
X60160000Y-214000000D03*
%TO.P,J1,10*%
%TO.N,BUS1#*%
X60160000Y-211460000D03*
%TO.P,J1,11*%
%TO.N,BUS2#*%
X62700000Y-214000000D03*
%TO.P,J1,12*%
%TO.N,BUS3#*%
X62700000Y-211460000D03*
%TO.P,J1,13*%
%TO.N,A0*%
X65240000Y-214000000D03*
%TO.P,J1,14*%
%TO.N,A1*%
X65240000Y-211460000D03*
%TO.P,J1,15*%
%TO.N,A2*%
X67780000Y-214000000D03*
%TO.P,J1,16*%
%TO.N,A3*%
X67780000Y-211460000D03*
%TO.P,J1,17*%
%TO.N,B0*%
X70320000Y-214000000D03*
%TO.P,J1,18*%
%TO.N,B1*%
X70320000Y-211460000D03*
%TO.P,J1,19*%
%TO.N,B2*%
X72860000Y-214000000D03*
%TO.P,J1,20*%
%TO.N,B3*%
X72860000Y-211460000D03*
%TO.P,J1,21*%
%TO.N,PC0*%
X75400000Y-214000000D03*
%TO.P,J1,22*%
%TO.N,PC1*%
X75400000Y-211460000D03*
%TO.P,J1,23*%
%TO.N,PC2*%
X77940000Y-214000000D03*
%TO.P,J1,24*%
%TO.N,PC3*%
X77940000Y-211460000D03*
%TO.P,J1,25*%
%TO.N,M0*%
X80480000Y-214000000D03*
%TO.P,J1,26*%
%TO.N,M1*%
X80480000Y-211460000D03*
%TO.P,J1,27*%
%TO.N,M2*%
X83020000Y-214000000D03*
%TO.P,J1,28*%
%TO.N,M3*%
X83020000Y-211460000D03*
%TO.P,J1,29*%
%TO.N,M4*%
X85560000Y-214000000D03*
%TO.P,J1,30*%
%TO.N,M5*%
X85560000Y-211460000D03*
%TO.P,J1,31*%
%TO.N,M6*%
X88100000Y-214000000D03*
%TO.P,J1,32*%
%TO.N,M7*%
X88100000Y-211460000D03*
%TO.P,J1,33*%
%TO.N,CF*%
X90640000Y-214000000D03*
%TO.P,J1,34*%
%TO.N,ZF*%
X90640000Y-211460000D03*
%TO.P,J1,35*%
%TO.N,SUB*%
X93180000Y-214000000D03*
%TO.P,J1,36*%
%TO.N,EO*%
X93180000Y-211460000D03*
%TO.P,J1,37*%
%TO.N,AI*%
X95720000Y-214000000D03*
%TO.P,J1,38*%
%TO.N,AO*%
X95720000Y-211460000D03*
%TO.P,J1,39*%
%TO.N,BI*%
X98260000Y-214000000D03*
%TO.P,J1,40*%
%TO.N,BA*%
X98260000Y-211460000D03*
%TO.P,J1,41*%
%TO.N,AB*%
X100800000Y-214000000D03*
%TO.P,J1,42*%
%TO.N,OI*%
X100800000Y-211460000D03*
%TO.P,J1,43*%
%TO.N,IO*%
X103340000Y-214000000D03*
%TO.P,J1,44*%
%TO.N,II*%
X103340000Y-211460000D03*
%TO.P,J1,45*%
%TO.N,PCE*%
X105880000Y-214000000D03*
%TO.P,J1,46*%
%TO.N,PCL*%
X105880000Y-211460000D03*
%TO.P,J1,47*%
%TO.N,FI*%
X108420000Y-214000000D03*
%TO.P,J1,48*%
%TO.N,HLT*%
X108420000Y-211460000D03*
%TO.P,J1,49*%
%TO.N,+5V*%
X110960000Y-214000000D03*
%TO.P,J1,50*%
%TO.N,GND*%
X110960000Y-211460000D03*
%TD*%
D10*
%TO.P,R103,1*%
%TO.N,+5V*%
X14540000Y-117600000D03*
%TO.P,R103,2*%
%TO.N,Net-(D35-A)*%
X14540000Y-122680000D03*
%TD*%
%TO.P,R84,1*%
%TO.N,+5V*%
X90740000Y-41400000D03*
%TO.P,R84,2*%
%TO.N,Net-(D16-A)*%
X90740000Y-46480000D03*
%TD*%
D11*
%TO.P,D34,1*%
%TO.N,Net-(D34-K)*%
X119950000Y-102360000D03*
D12*
%TO.P,D34,2*%
%TO.N,Net-(D34-A)*%
X122490000Y-102360000D03*
%TD*%
D14*
%TO.P,Q24,1*%
%TO.N,GND*%
X118680000Y-82040000D03*
D15*
%TO.P,Q24,2*%
%TO.N,M0*%
X121220000Y-82040000D03*
%TO.P,Q24,3*%
%TO.N,Net-(D26-K)*%
X123760000Y-82040000D03*
%TD*%
D10*
%TO.P,R43,1*%
%TO.N,AI*%
X140000000Y-188000000D03*
%TO.P,R43,2*%
%TO.N,GND*%
X140000000Y-193080000D03*
%TD*%
D11*
%TO.P,D43,1*%
%TO.N,Net-(D43-K)*%
X13270000Y-153160000D03*
D12*
%TO.P,D43,2*%
%TO.N,Net-(D43-A)*%
X15810000Y-153160000D03*
%TD*%
D10*
%TO.P,R109,1*%
%TO.N,+5V*%
X105980000Y-117600000D03*
%TO.P,R109,2*%
%TO.N,Net-(D41-A)*%
X105980000Y-122680000D03*
%TD*%
%TO.P,R39,1*%
%TO.N,B2*%
X176000000Y-178000000D03*
%TO.P,R39,2*%
%TO.N,GND*%
X176000000Y-183080000D03*
%TD*%
%TO.P,R108,1*%
%TO.N,+5V*%
X90740000Y-117600000D03*
%TO.P,R108,2*%
%TO.N,Net-(D40-A)*%
X90740000Y-122680000D03*
%TD*%
%TO.P,R14,1*%
%TO.N,Net-(R14-Pad1)*%
X166000000Y-60000000D03*
%TO.P,R14,2*%
%TO.N,BA*%
X166000000Y-65080000D03*
%TD*%
%TO.P,R46,1*%
%TO.N,BA*%
X158000000Y-188000000D03*
%TO.P,R46,2*%
%TO.N,GND*%
X158000000Y-193080000D03*
%TD*%
%TO.P,R92,1*%
%TO.N,+5V*%
X90740000Y-66800000D03*
%TO.P,R92,2*%
%TO.N,Net-(D24-A)*%
X90740000Y-71880000D03*
%TD*%
%TO.P,R54,1*%
%TO.N,HLT*%
X146000000Y-198000000D03*
%TO.P,R54,2*%
%TO.N,GND*%
X146000000Y-203080000D03*
%TD*%
%TO.P,R2,1*%
%TO.N,Net-(R2-Pad1)*%
X166000000Y-10000000D03*
%TO.P,R2,2*%
%TO.N,A1*%
X166000000Y-15080000D03*
%TD*%
%TO.P,R42,1*%
%TO.N,EO*%
X194000000Y-178000000D03*
%TO.P,R42,2*%
%TO.N,GND*%
X194000000Y-183080000D03*
%TD*%
%TO.P,R89,1*%
%TO.N,+5V*%
X45020000Y-66800000D03*
%TO.P,R89,2*%
%TO.N,Net-(D21-A)*%
X45020000Y-71880000D03*
%TD*%
%TO.P,R66,1*%
%TO.N,M7*%
X158000000Y-208000000D03*
%TO.P,R66,2*%
%TO.N,GND*%
X158000000Y-213080000D03*
%TD*%
%TO.P,R79,1*%
%TO.N,+5V*%
X14540000Y-41400000D03*
%TO.P,R79,2*%
%TO.N,Net-(D11-A)*%
X14540000Y-46480000D03*
%TD*%
%TO.P,R65,1*%
%TO.N,M6*%
X152000000Y-208000000D03*
%TO.P,R65,2*%
%TO.N,GND*%
X152000000Y-213080000D03*
%TD*%
D13*
%TO.P,D1,1*%
%TO.N,CLK*%
X150000000Y-147000000D03*
D10*
%TO.P,D1,2*%
%TO.N,Net-(D1-A)*%
X157620000Y-147000000D03*
%TD*%
%TO.P,R64,1*%
%TO.N,M5*%
X146000000Y-208000000D03*
%TO.P,R64,2*%
%TO.N,GND*%
X146000000Y-213080000D03*
%TD*%
D14*
%TO.P,Q43,1*%
%TO.N,GND*%
X42480000Y-153160000D03*
D15*
%TO.P,Q43,2*%
%TO.N,BUS0#*%
X45020000Y-153160000D03*
%TO.P,Q43,3*%
%TO.N,D0*%
X47560000Y-153160000D03*
%TD*%
D10*
%TO.P,R107,1*%
%TO.N,+5V*%
X75500000Y-117600000D03*
%TO.P,R107,2*%
%TO.N,Net-(D39-A)*%
X75500000Y-122680000D03*
%TD*%
D14*
%TO.P,Q37,1*%
%TO.N,GND*%
X72960000Y-132840000D03*
D15*
%TO.P,Q37,2*%
%TO.N,IO*%
X75500000Y-132840000D03*
%TO.P,Q37,3*%
%TO.N,Net-(D39-K)*%
X78040000Y-132840000D03*
%TD*%
D14*
%TO.P,Q6,1*%
%TO.N,GND*%
X88200000Y-31240000D03*
D15*
%TO.P,Q6,2*%
%TO.N,B2*%
X90740000Y-31240000D03*
%TO.P,Q6,3*%
%TO.N,Net-(D8-K)*%
X93280000Y-31240000D03*
%TD*%
D10*
%TO.P,R68,1*%
%TO.N,ZF*%
X170000000Y-208000000D03*
%TO.P,R68,2*%
%TO.N,GND*%
X170000000Y-213080000D03*
%TD*%
%TO.P,R1,1*%
%TO.N,Net-(R1-Pad1)*%
X160000000Y-10000000D03*
%TO.P,R1,2*%
%TO.N,A0*%
X160000000Y-15080000D03*
%TD*%
%TO.P,R19,1*%
%TO.N,Net-(R19-Pad1)*%
X160000000Y-86000000D03*
%TO.P,R19,2*%
%TO.N,PCE*%
X160000000Y-91080000D03*
%TD*%
D11*
%TO.P,D11,1*%
%TO.N,Net-(D11-K)*%
X13270000Y-51560000D03*
D12*
%TO.P,D11,2*%
%TO.N,Net-(D11-A)*%
X15810000Y-51560000D03*
%TD*%
D11*
%TO.P,D32,1*%
%TO.N,Net-(D32-K)*%
X89470000Y-102360000D03*
D12*
%TO.P,D32,2*%
%TO.N,Net-(D32-A)*%
X92010000Y-102360000D03*
%TD*%
D11*
%TO.P,D18,1*%
%TO.N,Net-(D18-K)*%
X119950000Y-51560000D03*
D12*
%TO.P,D18,2*%
%TO.N,Net-(D18-A)*%
X122490000Y-51560000D03*
%TD*%
D13*
%TO.P,SW3,1*%
%TO.N,+5V*%
X144000000Y-80000000D03*
D10*
%TO.P,SW3,2*%
X144000000Y-82540000D03*
%TO.P,SW3,3*%
X144000000Y-85080000D03*
%TO.P,SW3,4*%
X144000000Y-87620000D03*
%TO.P,SW3,5*%
X144000000Y-90160000D03*
%TO.P,SW3,6*%
X144000000Y-92700000D03*
%TO.P,SW3,7*%
X144000000Y-95240000D03*
%TO.P,SW3,8*%
X144000000Y-97780000D03*
%TO.P,SW3,9*%
%TO.N,unconnected-(SW3-Pad9)*%
X151620000Y-97780000D03*
%TO.P,SW3,10*%
%TO.N,unconnected-(SW3-Pad10)*%
X151620000Y-95240000D03*
%TO.P,SW3,11*%
%TO.N,Net-(R22-Pad1)*%
X151620000Y-92700000D03*
%TO.P,SW3,12*%
%TO.N,Net-(R21-Pad1)*%
X151620000Y-90160000D03*
%TO.P,SW3,13*%
%TO.N,Net-(R20-Pad1)*%
X151620000Y-87620000D03*
%TO.P,SW3,14*%
%TO.N,Net-(R19-Pad1)*%
X151620000Y-85080000D03*
%TO.P,SW3,15*%
%TO.N,Net-(R18-Pad1)*%
X151620000Y-82540000D03*
%TO.P,SW3,16*%
%TO.N,Net-(R17-Pad1)*%
X151620000Y-80000000D03*
%TD*%
D19*
%TO.P,H4,1*%
%TO.N,N/C*%
X196000000Y-218000000D03*
%TD*%
D10*
%TO.P,R5,1*%
%TO.N,Net-(R5-Pad1)*%
X160000000Y-26000000D03*
%TO.P,R5,2*%
%TO.N,B0*%
X160000000Y-31080000D03*
%TD*%
%TO.P,R71,1*%
%TO.N,+5V*%
X14540000Y-16000000D03*
%TO.P,R71,2*%
%TO.N,Net-(D3-A)*%
X14540000Y-21080000D03*
%TD*%
%TO.P,R13,1*%
%TO.N,Net-(R13-Pad1)*%
X160000000Y-60000000D03*
%TO.P,R13,2*%
%TO.N,BI*%
X160000000Y-65080000D03*
%TD*%
%TO.P,R8,1*%
%TO.N,Net-(R8-Pad1)*%
X166000000Y-34000000D03*
%TO.P,R8,2*%
%TO.N,B3*%
X166000000Y-39080000D03*
%TD*%
D11*
%TO.P,D24,1*%
%TO.N,Net-(D24-K)*%
X89470000Y-76960000D03*
D12*
%TO.P,D24,2*%
%TO.N,Net-(D24-A)*%
X92010000Y-76960000D03*
%TD*%
D10*
%TO.P,R4,1*%
%TO.N,Net-(R4-Pad1)*%
X166000000Y-18000000D03*
%TO.P,R4,2*%
%TO.N,A3*%
X166000000Y-23080000D03*
%TD*%
%TO.P,R77,1*%
%TO.N,+5V*%
X105980000Y-16000000D03*
%TO.P,R77,2*%
%TO.N,Net-(D9-A)*%
X105980000Y-21080000D03*
%TD*%
%TO.P,C1,1*%
%TO.N,+5V*%
X12000000Y-200000000D03*
%TO.P,C1,2*%
%TO.N,GND*%
X12000000Y-202500000D03*
%TD*%
%TO.P,R16,1*%
%TO.N,Net-(R16-Pad1)*%
X166000000Y-68000000D03*
%TO.P,R16,2*%
%TO.N,OI*%
X166000000Y-73080000D03*
%TD*%
D14*
%TO.P,Q48,1*%
%TO.N,GND*%
X118680000Y-153160000D03*
D15*
%TO.P,Q48,2*%
%TO.N,CLK_S1*%
X121220000Y-153160000D03*
%TO.P,Q48,3*%
%TO.N,CLK_S2*%
X123760000Y-153160000D03*
%TD*%
D10*
%TO.P,R56,1*%
%TO.N,PC1*%
X158000000Y-198000000D03*
%TO.P,R56,2*%
%TO.N,GND*%
X158000000Y-203080000D03*
%TD*%
%TO.P,R29,1*%
%TO.N,Net-(C4-Pad1)*%
X160000000Y-158000000D03*
%TO.P,R29,2*%
%TO.N,GND*%
X160000000Y-163080000D03*
%TD*%
D11*
%TO.P,D6,1*%
%TO.N,Net-(D6-K)*%
X58990000Y-26160000D03*
D12*
%TO.P,D6,2*%
%TO.N,Net-(D6-A)*%
X61530000Y-26160000D03*
%TD*%
D10*
%TO.P,R53,1*%
%TO.N,FI*%
X140000000Y-198000000D03*
%TO.P,R53,2*%
%TO.N,GND*%
X140000000Y-203080000D03*
%TD*%
%TO.P,R37,1*%
%TO.N,B0*%
X164000000Y-178000000D03*
%TO.P,R37,2*%
%TO.N,GND*%
X164000000Y-183080000D03*
%TD*%
%TO.P,R11,1*%
%TO.N,Net-(R11-Pad1)*%
X160000000Y-52000000D03*
%TO.P,R11,2*%
%TO.N,AI*%
X160000000Y-57080000D03*
%TD*%
D14*
%TO.P,Q28,1*%
%TO.N,GND*%
X57720000Y-107440000D03*
D15*
%TO.P,Q28,2*%
%TO.N,RST*%
X60260000Y-107440000D03*
%TO.P,Q28,3*%
%TO.N,Net-(D30-K)*%
X62800000Y-107440000D03*
%TD*%
D10*
%TO.P,R62,1*%
%TO.N,M3*%
X194000000Y-198000000D03*
%TO.P,R62,2*%
%TO.N,GND*%
X194000000Y-203080000D03*
%TD*%
D11*
%TO.P,D23,1*%
%TO.N,Net-(D23-K)*%
X74230000Y-76960000D03*
D12*
%TO.P,D23,2*%
%TO.N,Net-(D23-A)*%
X76770000Y-76960000D03*
%TD*%
D10*
%TO.P,R23,1*%
%TO.N,Net-(R23-Pad1)*%
X150000000Y-138000000D03*
%TO.P,R23,2*%
%TO.N,Net-(C3-Pad1)*%
X150000000Y-143080000D03*
%TD*%
%TO.P,R41,1*%
%TO.N,SUB*%
X188000000Y-178000000D03*
%TO.P,R41,2*%
%TO.N,GND*%
X188000000Y-183080000D03*
%TD*%
%TO.P,R69,1*%
%TO.N,CLK*%
X176000000Y-208000000D03*
%TO.P,R69,2*%
%TO.N,GND*%
X176000000Y-213080000D03*
%TD*%
%TO.P,R49,1*%
%TO.N,IO*%
X176000000Y-188000000D03*
%TO.P,R49,2*%
%TO.N,GND*%
X176000000Y-193080000D03*
%TD*%
D14*
%TO.P,Q10,1*%
%TO.N,GND*%
X27240000Y-56640000D03*
D15*
%TO.P,Q10,2*%
%TO.N,D2*%
X29780000Y-56640000D03*
%TO.P,Q10,3*%
%TO.N,Net-(D12-K)*%
X32320000Y-56640000D03*
%TD*%
D11*
%TO.P,D22,1*%
%TO.N,Net-(D22-K)*%
X58990000Y-76960000D03*
D12*
%TO.P,D22,2*%
%TO.N,Net-(D22-A)*%
X61530000Y-76960000D03*
%TD*%
D10*
%TO.P,R104,1*%
%TO.N,+5V*%
X29780000Y-117600000D03*
%TO.P,R104,2*%
%TO.N,Net-(D36-A)*%
X29780000Y-122680000D03*
%TD*%
D11*
%TO.P,D36,1*%
%TO.N,Net-(D36-K)*%
X28510000Y-127760000D03*
D12*
%TO.P,D36,2*%
%TO.N,Net-(D36-A)*%
X31050000Y-127760000D03*
%TD*%
D10*
%TO.P,R114,1*%
%TO.N,+5V*%
X60260000Y-143000000D03*
%TO.P,R114,2*%
%TO.N,D1*%
X60260000Y-148080000D03*
%TD*%
D14*
%TO.P,Q42,1*%
%TO.N,GND*%
X27240000Y-158240000D03*
D15*
%TO.P,Q42,2*%
%TO.N,HLT*%
X29780000Y-158240000D03*
%TO.P,Q42,3*%
%TO.N,Net-(D44-K)*%
X32320000Y-158240000D03*
%TD*%
D10*
%TO.P,R18,1*%
%TO.N,Net-(R18-Pad1)*%
X166000000Y-78000000D03*
%TO.P,R18,2*%
%TO.N,II*%
X166000000Y-83080000D03*
%TD*%
D11*
%TO.P,D15,1*%
%TO.N,Net-(D15-K)*%
X74230000Y-51560000D03*
D12*
%TO.P,D15,2*%
%TO.N,Net-(D15-A)*%
X76770000Y-51560000D03*
%TD*%
D14*
%TO.P,Q3,1*%
%TO.N,GND*%
X42480000Y-31240000D03*
D15*
%TO.P,Q3,2*%
%TO.N,A1*%
X45020000Y-31240000D03*
%TO.P,Q3,3*%
%TO.N,Net-(D5-K)*%
X47560000Y-31240000D03*
%TD*%
D10*
%TO.P,R32,1*%
%TO.N,RST_S2*%
X175000000Y-158000000D03*
%TO.P,R32,2*%
%TO.N,Net-(D2-A)*%
X175000000Y-163080000D03*
%TD*%
D11*
%TO.P,D41,1*%
%TO.N,Net-(D41-K)*%
X104710000Y-127760000D03*
D12*
%TO.P,D41,2*%
%TO.N,Net-(D41-A)*%
X107250000Y-127760000D03*
%TD*%
D14*
%TO.P,Q7,1*%
%TO.N,GND*%
X103440000Y-31240000D03*
D15*
%TO.P,Q7,2*%
%TO.N,B1*%
X105980000Y-31240000D03*
%TO.P,Q7,3*%
%TO.N,Net-(D9-K)*%
X108520000Y-31240000D03*
%TD*%
D10*
%TO.P,R57,1*%
%TO.N,PC2*%
X164000000Y-198000000D03*
%TO.P,R57,2*%
%TO.N,GND*%
X164000000Y-203080000D03*
%TD*%
%TO.P,R70,1*%
%TO.N,RST*%
X182000000Y-208000000D03*
%TO.P,R70,2*%
%TO.N,GND*%
X182000000Y-213080000D03*
%TD*%
%TO.P,R120,1*%
%TO.N,+5V*%
X60260000Y-163320000D03*
%TO.P,R120,2*%
%TO.N,RST_S2*%
X60260000Y-168400000D03*
%TD*%
D14*
%TO.P,Q5,1*%
%TO.N,GND*%
X72960000Y-31240000D03*
D15*
%TO.P,Q5,2*%
%TO.N,B3*%
X75500000Y-31240000D03*
%TO.P,Q5,3*%
%TO.N,Net-(D7-K)*%
X78040000Y-31240000D03*
%TD*%
D11*
%TO.P,D5,1*%
%TO.N,Net-(D5-K)*%
X43750000Y-26160000D03*
D12*
%TO.P,D5,2*%
%TO.N,Net-(D5-A)*%
X46290000Y-26160000D03*
%TD*%
D10*
%TO.P,R58,1*%
%TO.N,PC3*%
X170000000Y-198000000D03*
%TO.P,R58,2*%
%TO.N,GND*%
X170000000Y-203080000D03*
%TD*%
D11*
%TO.P,D25,1*%
%TO.N,Net-(D25-K)*%
X104710000Y-76960000D03*
D12*
%TO.P,D25,2*%
%TO.N,Net-(D25-A)*%
X107250000Y-76960000D03*
%TD*%
D10*
%TO.P,R12,1*%
%TO.N,Net-(R12-Pad1)*%
X166000000Y-52000000D03*
%TO.P,R12,2*%
%TO.N,AO*%
X166000000Y-57080000D03*
%TD*%
D14*
%TO.P,Q21,1*%
%TO.N,GND*%
X72960000Y-82040000D03*
D15*
%TO.P,Q21,2*%
%TO.N,M3*%
X75500000Y-82040000D03*
%TO.P,Q21,3*%
%TO.N,Net-(D23-K)*%
X78040000Y-82040000D03*
%TD*%
D10*
%TO.P,R82,1*%
%TO.N,+5V*%
X60260000Y-41400000D03*
%TO.P,R82,2*%
%TO.N,Net-(D14-A)*%
X60260000Y-46480000D03*
%TD*%
D11*
%TO.P,D21,1*%
%TO.N,Net-(D21-K)*%
X43750000Y-76960000D03*
D12*
%TO.P,D21,2*%
%TO.N,Net-(D21-A)*%
X46290000Y-76960000D03*
%TD*%
D14*
%TO.P,Q18,1*%
%TO.N,GND*%
X27240000Y-82040000D03*
D15*
%TO.P,Q18,2*%
%TO.N,M6*%
X29780000Y-82040000D03*
%TO.P,Q18,3*%
%TO.N,Net-(D20-K)*%
X32320000Y-82040000D03*
%TD*%
D14*
%TO.P,Q12,1*%
%TO.N,GND*%
X57720000Y-56640000D03*
D15*
%TO.P,Q12,2*%
%TO.N,D0*%
X60260000Y-56640000D03*
%TO.P,Q12,3*%
%TO.N,Net-(D14-K)*%
X62800000Y-56640000D03*
%TD*%
D10*
%TO.P,R30,1*%
%TO.N,Net-(C4-Pad1)*%
X165000000Y-158000000D03*
%TO.P,R30,2*%
%TO.N,RST_N*%
X165000000Y-163080000D03*
%TD*%
D14*
%TO.P,Q30,1*%
%TO.N,GND*%
X88200000Y-107440000D03*
D15*
%TO.P,Q30,2*%
%TO.N,EO*%
X90740000Y-107440000D03*
%TO.P,Q30,3*%
%TO.N,Net-(D32-K)*%
X93280000Y-107440000D03*
%TD*%
D20*
%TO.P,SW5,1*%
%TO.N,+5V*%
X136000000Y-140000000D03*
X142500000Y-140000000D03*
%TO.P,SW5,2*%
%TO.N,Net-(R23-Pad1)*%
X136000000Y-144500000D03*
X142500000Y-144500000D03*
%TD*%
D10*
%TO.P,R91,1*%
%TO.N,+5V*%
X75500000Y-66800000D03*
%TO.P,R91,2*%
%TO.N,Net-(D23-A)*%
X75500000Y-71880000D03*
%TD*%
%TO.P,R38,1*%
%TO.N,B1*%
X170000000Y-178000000D03*
%TO.P,R38,2*%
%TO.N,GND*%
X170000000Y-183080000D03*
%TD*%
D14*
%TO.P,Q23,1*%
%TO.N,GND*%
X103440000Y-82040000D03*
D15*
%TO.P,Q23,2*%
%TO.N,M1*%
X105980000Y-82040000D03*
%TO.P,Q23,3*%
%TO.N,Net-(D25-K)*%
X108520000Y-82040000D03*
%TD*%
D11*
%TO.P,D38,1*%
%TO.N,Net-(D38-K)*%
X58990000Y-127760000D03*
D12*
%TO.P,D38,2*%
%TO.N,Net-(D38-A)*%
X61530000Y-127760000D03*
%TD*%
D14*
%TO.P,Q9,1*%
%TO.N,GND*%
X12000000Y-56640000D03*
D15*
%TO.P,Q9,2*%
%TO.N,D3*%
X14540000Y-56640000D03*
%TO.P,Q9,3*%
%TO.N,Net-(D11-K)*%
X17080000Y-56640000D03*
%TD*%
D11*
%TO.P,D33,1*%
%TO.N,Net-(D33-K)*%
X104710000Y-102360000D03*
D12*
%TO.P,D33,2*%
%TO.N,Net-(D33-A)*%
X107250000Y-102360000D03*
%TD*%
D14*
%TO.P,Q38,1*%
%TO.N,GND*%
X88200000Y-132840000D03*
D15*
%TO.P,Q38,2*%
%TO.N,II*%
X90740000Y-132840000D03*
%TO.P,Q38,3*%
%TO.N,Net-(D40-K)*%
X93280000Y-132840000D03*
%TD*%
D14*
%TO.P,Q20,1*%
%TO.N,GND*%
X57720000Y-82040000D03*
D15*
%TO.P,Q20,2*%
%TO.N,M4*%
X60260000Y-82040000D03*
%TO.P,Q20,3*%
%TO.N,Net-(D22-K)*%
X62800000Y-82040000D03*
%TD*%
D14*
%TO.P,Q41,1*%
%TO.N,GND*%
X12000000Y-158240000D03*
D15*
%TO.P,Q41,2*%
%TO.N,FI*%
X14540000Y-158240000D03*
%TO.P,Q41,3*%
%TO.N,Net-(D43-K)*%
X17080000Y-158240000D03*
%TD*%
D11*
%TO.P,D14,1*%
%TO.N,Net-(D14-K)*%
X58990000Y-51560000D03*
D12*
%TO.P,D14,2*%
%TO.N,Net-(D14-A)*%
X61530000Y-51560000D03*
%TD*%
D14*
%TO.P,Q29,1*%
%TO.N,GND*%
X72960000Y-107440000D03*
D15*
%TO.P,Q29,2*%
%TO.N,SUB*%
X75500000Y-107440000D03*
%TO.P,Q29,3*%
%TO.N,Net-(D31-K)*%
X78040000Y-107440000D03*
%TD*%
D13*
%TO.P,D2,1*%
%TO.N,RST*%
X150000000Y-167000000D03*
D10*
%TO.P,D2,2*%
%TO.N,Net-(D2-A)*%
X157620000Y-167000000D03*
%TD*%
%TO.P,R51,1*%
%TO.N,PCE*%
X188000000Y-188000000D03*
%TO.P,R51,2*%
%TO.N,GND*%
X188000000Y-193080000D03*
%TD*%
D16*
%TO.P,C4,1*%
%TO.N,Net-(C4-Pad1)*%
X155000000Y-158000000D03*
D10*
%TO.P,C4,2*%
%TO.N,GND*%
X155000000Y-160000000D03*
%TD*%
%TO.P,R59,1*%
%TO.N,M0*%
X176000000Y-198000000D03*
%TO.P,R59,2*%
%TO.N,GND*%
X176000000Y-203080000D03*
%TD*%
%TO.P,R98,1*%
%TO.N,+5V*%
X60260000Y-92200000D03*
%TO.P,R98,2*%
%TO.N,Net-(D30-A)*%
X60260000Y-97280000D03*
%TD*%
D19*
%TO.P,H1,1*%
%TO.N,N/C*%
X4000000Y-4000000D03*
%TD*%
D11*
%TO.P,D4,1*%
%TO.N,Net-(D4-K)*%
X28510000Y-26160000D03*
D12*
%TO.P,D4,2*%
%TO.N,Net-(D4-A)*%
X31050000Y-26160000D03*
%TD*%
D10*
%TO.P,R45,1*%
%TO.N,BI*%
X152000000Y-188000000D03*
%TO.P,R45,2*%
%TO.N,GND*%
X152000000Y-193080000D03*
%TD*%
%TO.P,R55,1*%
%TO.N,PC0*%
X152000000Y-198000000D03*
%TO.P,R55,2*%
%TO.N,GND*%
X152000000Y-203080000D03*
%TD*%
D14*
%TO.P,Q13,1*%
%TO.N,GND*%
X72960000Y-56640000D03*
D15*
%TO.P,Q13,2*%
%TO.N,PC3*%
X75500000Y-56640000D03*
%TO.P,Q13,3*%
%TO.N,Net-(D15-K)*%
X78040000Y-56640000D03*
%TD*%
D10*
%TO.P,R63,1*%
%TO.N,M4*%
X140000000Y-208000000D03*
%TO.P,R63,2*%
%TO.N,GND*%
X140000000Y-213080000D03*
%TD*%
D11*
%TO.P,D39,1*%
%TO.N,Net-(D39-K)*%
X74230000Y-127760000D03*
D12*
%TO.P,D39,2*%
%TO.N,Net-(D39-A)*%
X76770000Y-127760000D03*
%TD*%
D10*
%TO.P,R86,1*%
%TO.N,+5V*%
X121220000Y-41400000D03*
%TO.P,R86,2*%
%TO.N,Net-(D18-A)*%
X121220000Y-46480000D03*
%TD*%
D14*
%TO.P,Q32,1*%
%TO.N,GND*%
X118680000Y-107440000D03*
D15*
%TO.P,Q32,2*%
%TO.N,AO*%
X121220000Y-107440000D03*
%TO.P,Q32,3*%
%TO.N,Net-(D34-K)*%
X123760000Y-107440000D03*
%TD*%
D10*
%TO.P,R72,1*%
%TO.N,+5V*%
X29780000Y-16000000D03*
%TO.P,R72,2*%
%TO.N,Net-(D4-A)*%
X29780000Y-21080000D03*
%TD*%
D14*
%TO.P,Q2,1*%
%TO.N,GND*%
X27240000Y-31240000D03*
D15*
%TO.P,Q2,2*%
%TO.N,A2*%
X29780000Y-31240000D03*
%TO.P,Q2,3*%
%TO.N,Net-(D4-K)*%
X32320000Y-31240000D03*
%TD*%
D11*
%TO.P,D12,1*%
%TO.N,Net-(D12-K)*%
X28510000Y-51560000D03*
D12*
%TO.P,D12,2*%
%TO.N,Net-(D12-A)*%
X31050000Y-51560000D03*
%TD*%
D10*
%TO.P,R99,1*%
%TO.N,+5V*%
X75500000Y-92200000D03*
%TO.P,R99,2*%
%TO.N,Net-(D31-A)*%
X75500000Y-97280000D03*
%TD*%
%TO.P,R105,1*%
%TO.N,+5V*%
X45020000Y-117600000D03*
%TO.P,R105,2*%
%TO.N,Net-(D37-A)*%
X45020000Y-122680000D03*
%TD*%
%TO.P,R28,1*%
%TO.N,Net-(R28-Pad1)*%
X150000000Y-158000000D03*
%TO.P,R28,2*%
%TO.N,Net-(C4-Pad1)*%
X150000000Y-163080000D03*
%TD*%
%TO.P,R26,1*%
%TO.N,CLK_S2*%
X170000000Y-138000000D03*
%TO.P,R26,2*%
%TO.N,CLK_N*%
X170000000Y-143080000D03*
%TD*%
%TO.P,R52,1*%
%TO.N,PCL*%
X194000000Y-188000000D03*
%TO.P,R52,2*%
%TO.N,GND*%
X194000000Y-193080000D03*
%TD*%
D14*
%TO.P,Q40,1*%
%TO.N,GND*%
X118680000Y-132840000D03*
D15*
%TO.P,Q40,2*%
%TO.N,PCL*%
X121220000Y-132840000D03*
%TO.P,Q40,3*%
%TO.N,Net-(D42-K)*%
X123760000Y-132840000D03*
%TD*%
D14*
%TO.P,Q36,1*%
%TO.N,GND*%
X57720000Y-132840000D03*
D15*
%TO.P,Q36,2*%
%TO.N,OI*%
X60260000Y-132840000D03*
%TO.P,Q36,3*%
%TO.N,Net-(D38-K)*%
X62800000Y-132840000D03*
%TD*%
D14*
%TO.P,Q49,1*%
%TO.N,GND*%
X42480000Y-173480000D03*
D15*
%TO.P,Q49,2*%
%TO.N,RST_N*%
X45020000Y-173480000D03*
%TO.P,Q49,3*%
%TO.N,RST_S1*%
X47560000Y-173480000D03*
%TD*%
D10*
%TO.P,R113,1*%
%TO.N,+5V*%
X45020000Y-143000000D03*
%TO.P,R113,2*%
%TO.N,D0*%
X45020000Y-148080000D03*
%TD*%
%TO.P,R119,1*%
%TO.N,+5V*%
X45020000Y-163320000D03*
%TO.P,R119,2*%
%TO.N,RST_S1*%
X45020000Y-168400000D03*
%TD*%
%TO.P,R74,1*%
%TO.N,+5V*%
X60260000Y-16000000D03*
%TO.P,R74,2*%
%TO.N,Net-(D6-A)*%
X60260000Y-21080000D03*
%TD*%
%TO.P,R78,1*%
%TO.N,+5V*%
X121220000Y-16000000D03*
%TO.P,R78,2*%
%TO.N,Net-(D10-A)*%
X121220000Y-21080000D03*
%TD*%
%TO.P,R31,1*%
%TO.N,RST_S2*%
X170000000Y-158000000D03*
%TO.P,R31,2*%
%TO.N,RST_N*%
X170000000Y-163080000D03*
%TD*%
D11*
%TO.P,D30,1*%
%TO.N,Net-(D30-K)*%
X58990000Y-102360000D03*
D12*
%TO.P,D30,2*%
%TO.N,Net-(D30-A)*%
X61530000Y-102360000D03*
%TD*%
D10*
%TO.P,R47,1*%
%TO.N,AB*%
X164000000Y-188000000D03*
%TO.P,R47,2*%
%TO.N,GND*%
X164000000Y-193080000D03*
%TD*%
%TO.P,R80,1*%
%TO.N,+5V*%
X29780000Y-41400000D03*
%TO.P,R80,2*%
%TO.N,Net-(D12-A)*%
X29780000Y-46480000D03*
%TD*%
D11*
%TO.P,D7,1*%
%TO.N,Net-(D7-K)*%
X74230000Y-26160000D03*
D12*
%TO.P,D7,2*%
%TO.N,Net-(D7-A)*%
X76770000Y-26160000D03*
%TD*%
D13*
%TO.P,SW4,1*%
%TO.N,GND*%
X144000000Y-114000000D03*
D10*
%TO.P,SW4,2*%
X144000000Y-116540000D03*
%TO.P,SW4,3*%
X144000000Y-119080000D03*
%TO.P,SW4,4*%
X144000000Y-121620000D03*
%TO.P,SW4,5*%
%TO.N,BUS3#*%
X151620000Y-121620000D03*
%TO.P,SW4,6*%
%TO.N,BUS2#*%
X151620000Y-119080000D03*
%TO.P,SW4,7*%
%TO.N,BUS1#*%
X151620000Y-116540000D03*
%TO.P,SW4,8*%
%TO.N,BUS0#*%
X151620000Y-114000000D03*
%TD*%
D19*
%TO.P,H2,1*%
%TO.N,N/C*%
X196000000Y-4000000D03*
%TD*%
D11*
%TO.P,D8,1*%
%TO.N,Net-(D8-K)*%
X89470000Y-26160000D03*
D12*
%TO.P,D8,2*%
%TO.N,Net-(D8-A)*%
X92010000Y-26160000D03*
%TD*%
D10*
%TO.P,R111,1*%
%TO.N,+5V*%
X14540000Y-143000000D03*
%TO.P,R111,2*%
%TO.N,Net-(D43-A)*%
X14540000Y-148080000D03*
%TD*%
D20*
%TO.P,SW6,1*%
%TO.N,+5V*%
X136000000Y-160000000D03*
X142500000Y-160000000D03*
%TO.P,SW6,2*%
%TO.N,Net-(R28-Pad1)*%
X136000000Y-164500000D03*
X142500000Y-164500000D03*
%TD*%
D10*
%TO.P,R117,1*%
%TO.N,+5V*%
X105980000Y-143000000D03*
%TO.P,R117,2*%
%TO.N,CLK_S1*%
X105980000Y-148080000D03*
%TD*%
%TO.P,R93,1*%
%TO.N,+5V*%
X105980000Y-66800000D03*
%TO.P,R93,2*%
%TO.N,Net-(D25-A)*%
X105980000Y-71880000D03*
%TD*%
%TO.P,R22,1*%
%TO.N,Net-(R22-Pad1)*%
X166000000Y-94000000D03*
%TO.P,R22,2*%
%TO.N,HLT*%
X166000000Y-99080000D03*
%TD*%
D14*
%TO.P,Q8,1*%
%TO.N,GND*%
X118680000Y-31240000D03*
D15*
%TO.P,Q8,2*%
%TO.N,B0*%
X121220000Y-31240000D03*
%TO.P,Q8,3*%
%TO.N,Net-(D10-K)*%
X123760000Y-31240000D03*
%TD*%
D14*
%TO.P,Q25,1*%
%TO.N,GND*%
X12000000Y-107440000D03*
D15*
%TO.P,Q25,2*%
%TO.N,CF*%
X14540000Y-107440000D03*
%TO.P,Q25,3*%
%TO.N,Net-(D27-K)*%
X17080000Y-107440000D03*
%TD*%
D14*
%TO.P,Q27,1*%
%TO.N,GND*%
X42480000Y-107440000D03*
D15*
%TO.P,Q27,2*%
%TO.N,CLK*%
X45020000Y-107440000D03*
%TO.P,Q27,3*%
%TO.N,Net-(D29-K)*%
X47560000Y-107440000D03*
%TD*%
D11*
%TO.P,D37,1*%
%TO.N,Net-(D37-K)*%
X43750000Y-127760000D03*
D12*
%TO.P,D37,2*%
%TO.N,Net-(D37-A)*%
X46290000Y-127760000D03*
%TD*%
D14*
%TO.P,Q50,1*%
%TO.N,GND*%
X57720000Y-173480000D03*
D15*
%TO.P,Q50,2*%
%TO.N,RST_S1*%
X60260000Y-173480000D03*
%TO.P,Q50,3*%
%TO.N,RST_S2*%
X62800000Y-173480000D03*
%TD*%
D14*
%TO.P,Q15,1*%
%TO.N,GND*%
X103440000Y-56640000D03*
D15*
%TO.P,Q15,2*%
%TO.N,PC1*%
X105980000Y-56640000D03*
%TO.P,Q15,3*%
%TO.N,Net-(D17-K)*%
X108520000Y-56640000D03*
%TD*%
D11*
%TO.P,D3,1*%
%TO.N,Net-(D3-K)*%
X13270000Y-26160000D03*
D12*
%TO.P,D3,2*%
%TO.N,Net-(D3-A)*%
X15810000Y-26160000D03*
%TD*%
D14*
%TO.P,Q17,1*%
%TO.N,GND*%
X12000000Y-82040000D03*
D15*
%TO.P,Q17,2*%
%TO.N,M7*%
X14540000Y-82040000D03*
%TO.P,Q17,3*%
%TO.N,Net-(D19-K)*%
X17080000Y-82040000D03*
%TD*%
D14*
%TO.P,Q44,1*%
%TO.N,GND*%
X57720000Y-153160000D03*
D15*
%TO.P,Q44,2*%
%TO.N,BUS1#*%
X60260000Y-153160000D03*
%TO.P,Q44,3*%
%TO.N,D1*%
X62800000Y-153160000D03*
%TD*%
D10*
%TO.P,R21,1*%
%TO.N,Net-(R21-Pad1)*%
X160000000Y-94000000D03*
%TO.P,R21,2*%
%TO.N,FI*%
X160000000Y-99080000D03*
%TD*%
D14*
%TO.P,Q16,1*%
%TO.N,GND*%
X118680000Y-56640000D03*
D15*
%TO.P,Q16,2*%
%TO.N,PC0*%
X121220000Y-56640000D03*
%TO.P,Q16,3*%
%TO.N,Net-(D18-K)*%
X123760000Y-56640000D03*
%TD*%
D16*
%TO.P,C3,1*%
%TO.N,Net-(C3-Pad1)*%
X155000000Y-138000000D03*
D10*
%TO.P,C3,2*%
%TO.N,GND*%
X155000000Y-140000000D03*
%TD*%
D14*
%TO.P,Q46,1*%
%TO.N,GND*%
X88200000Y-153160000D03*
D15*
%TO.P,Q46,2*%
%TO.N,BUS3#*%
X90740000Y-153160000D03*
%TO.P,Q46,3*%
%TO.N,D3*%
X93280000Y-153160000D03*
%TD*%
D10*
%TO.P,R6,1*%
%TO.N,Net-(R6-Pad1)*%
X166000000Y-26000000D03*
%TO.P,R6,2*%
%TO.N,B1*%
X166000000Y-31080000D03*
%TD*%
%TO.P,R106,1*%
%TO.N,+5V*%
X60260000Y-117600000D03*
%TO.P,R106,2*%
%TO.N,Net-(D38-A)*%
X60260000Y-122680000D03*
%TD*%
D14*
%TO.P,Q45,1*%
%TO.N,GND*%
X72960000Y-153160000D03*
D15*
%TO.P,Q45,2*%
%TO.N,BUS2#*%
X75500000Y-153160000D03*
%TO.P,Q45,3*%
%TO.N,D2*%
X78040000Y-153160000D03*
%TD*%
D11*
%TO.P,D42,1*%
%TO.N,Net-(D42-K)*%
X119950000Y-127760000D03*
D12*
%TO.P,D42,2*%
%TO.N,Net-(D42-A)*%
X122490000Y-127760000D03*
%TD*%
D14*
%TO.P,Q35,1*%
%TO.N,GND*%
X42480000Y-132840000D03*
D15*
%TO.P,Q35,2*%
%TO.N,AB*%
X45020000Y-132840000D03*
%TO.P,Q35,3*%
%TO.N,Net-(D37-K)*%
X47560000Y-132840000D03*
%TD*%
D10*
%TO.P,R87,1*%
%TO.N,+5V*%
X14540000Y-66800000D03*
%TO.P,R87,2*%
%TO.N,Net-(D19-A)*%
X14540000Y-71880000D03*
%TD*%
D14*
%TO.P,Q34,1*%
%TO.N,GND*%
X27240000Y-132840000D03*
D15*
%TO.P,Q34,2*%
%TO.N,BA*%
X29780000Y-132840000D03*
%TO.P,Q34,3*%
%TO.N,Net-(D36-K)*%
X32320000Y-132840000D03*
%TD*%
D10*
%TO.P,R88,1*%
%TO.N,+5V*%
X29780000Y-66800000D03*
%TO.P,R88,2*%
%TO.N,Net-(D20-A)*%
X29780000Y-71880000D03*
%TD*%
%TO.P,R50,1*%
%TO.N,II*%
X182000000Y-188000000D03*
%TO.P,R50,2*%
%TO.N,GND*%
X182000000Y-193080000D03*
%TD*%
D14*
%TO.P,Q39,1*%
%TO.N,GND*%
X103440000Y-132840000D03*
D15*
%TO.P,Q39,2*%
%TO.N,PCE*%
X105980000Y-132840000D03*
%TO.P,Q39,3*%
%TO.N,Net-(D41-K)*%
X108520000Y-132840000D03*
%TD*%
D11*
%TO.P,D28,1*%
%TO.N,Net-(D28-K)*%
X28510000Y-102360000D03*
D12*
%TO.P,D28,2*%
%TO.N,Net-(D28-A)*%
X31050000Y-102360000D03*
%TD*%
D11*
%TO.P,D20,1*%
%TO.N,Net-(D20-K)*%
X28510000Y-76960000D03*
D12*
%TO.P,D20,2*%
%TO.N,Net-(D20-A)*%
X31050000Y-76960000D03*
%TD*%
D11*
%TO.P,D35,1*%
%TO.N,Net-(D35-K)*%
X13270000Y-127760000D03*
D12*
%TO.P,D35,2*%
%TO.N,Net-(D35-A)*%
X15810000Y-127760000D03*
%TD*%
D14*
%TO.P,Q33,1*%
%TO.N,GND*%
X12000000Y-132840000D03*
D15*
%TO.P,Q33,2*%
%TO.N,BI*%
X14540000Y-132840000D03*
%TO.P,Q33,3*%
%TO.N,Net-(D35-K)*%
X17080000Y-132840000D03*
%TD*%
D10*
%TO.P,R17,1*%
%TO.N,Net-(R17-Pad1)*%
X160000000Y-78000000D03*
%TO.P,R17,2*%
%TO.N,IO*%
X160000000Y-83080000D03*
%TD*%
D14*
%TO.P,Q4,1*%
%TO.N,GND*%
X57720000Y-31240000D03*
D15*
%TO.P,Q4,2*%
%TO.N,A0*%
X60260000Y-31240000D03*
%TO.P,Q4,3*%
%TO.N,Net-(D6-K)*%
X62800000Y-31240000D03*
%TD*%
D11*
%TO.P,D16,1*%
%TO.N,Net-(D16-K)*%
X89470000Y-51560000D03*
D12*
%TO.P,D16,2*%
%TO.N,Net-(D16-A)*%
X92010000Y-51560000D03*
%TD*%
D11*
%TO.P,D44,1*%
%TO.N,Net-(D44-K)*%
X28510000Y-153160000D03*
D12*
%TO.P,D44,2*%
%TO.N,Net-(D44-A)*%
X31050000Y-153160000D03*
%TD*%
D10*
%TO.P,R36,1*%
%TO.N,A3*%
X158000000Y-178000000D03*
%TO.P,R36,2*%
%TO.N,GND*%
X158000000Y-183080000D03*
%TD*%
%TO.P,R60,1*%
%TO.N,M1*%
X182000000Y-198000000D03*
%TO.P,R60,2*%
%TO.N,GND*%
X182000000Y-203080000D03*
%TD*%
%TO.P,R95,1*%
%TO.N,+5V*%
X14540000Y-92200000D03*
%TO.P,R95,2*%
%TO.N,Net-(D27-A)*%
X14540000Y-97280000D03*
%TD*%
D14*
%TO.P,Q22,1*%
%TO.N,GND*%
X88200000Y-82040000D03*
D15*
%TO.P,Q22,2*%
%TO.N,M2*%
X90740000Y-82040000D03*
%TO.P,Q22,3*%
%TO.N,Net-(D24-K)*%
X93280000Y-82040000D03*
%TD*%
D10*
%TO.P,R83,1*%
%TO.N,+5V*%
X75500000Y-41400000D03*
%TO.P,R83,2*%
%TO.N,Net-(D15-A)*%
X75500000Y-46480000D03*
%TD*%
%TO.P,R73,1*%
%TO.N,+5V*%
X45020000Y-16000000D03*
%TO.P,R73,2*%
%TO.N,Net-(D5-A)*%
X45020000Y-21080000D03*
%TD*%
%TO.P,R100,1*%
%TO.N,+5V*%
X90740000Y-92200000D03*
%TO.P,R100,2*%
%TO.N,Net-(D32-A)*%
X90740000Y-97280000D03*
%TD*%
D11*
%TO.P,D27,1*%
%TO.N,Net-(D27-K)*%
X13270000Y-102360000D03*
D12*
%TO.P,D27,2*%
%TO.N,Net-(D27-A)*%
X15810000Y-102360000D03*
%TD*%
D11*
%TO.P,D29,1*%
%TO.N,Net-(D29-K)*%
X43750000Y-102360000D03*
D12*
%TO.P,D29,2*%
%TO.N,Net-(D29-A)*%
X46290000Y-102360000D03*
%TD*%
D14*
%TO.P,Q47,1*%
%TO.N,GND*%
X103440000Y-153160000D03*
D15*
%TO.P,Q47,2*%
%TO.N,CLK_N*%
X105980000Y-153160000D03*
%TO.P,Q47,3*%
%TO.N,CLK_S1*%
X108520000Y-153160000D03*
%TD*%
D10*
%TO.P,R110,1*%
%TO.N,+5V*%
X121220000Y-117600000D03*
%TO.P,R110,2*%
%TO.N,Net-(D42-A)*%
X121220000Y-122680000D03*
%TD*%
%TO.P,R44,1*%
%TO.N,AO*%
X146000000Y-188000000D03*
%TO.P,R44,2*%
%TO.N,GND*%
X146000000Y-193080000D03*
%TD*%
%TO.P,R20,1*%
%TO.N,Net-(R20-Pad1)*%
X166000000Y-86000000D03*
%TO.P,R20,2*%
%TO.N,PCL*%
X166000000Y-91080000D03*
%TD*%
%TO.P,R101,1*%
%TO.N,+5V*%
X105980000Y-92200000D03*
%TO.P,R101,2*%
%TO.N,Net-(D33-A)*%
X105980000Y-97280000D03*
%TD*%
%TO.P,R96,1*%
%TO.N,+5V*%
X29780000Y-92200000D03*
%TO.P,R96,2*%
%TO.N,Net-(D28-A)*%
X29780000Y-97280000D03*
%TD*%
D19*
%TO.P,H3,1*%
%TO.N,N/C*%
X4000000Y-218000000D03*
%TD*%
D10*
%TO.P,R61,1*%
%TO.N,M2*%
X188000000Y-198000000D03*
%TO.P,R61,2*%
%TO.N,GND*%
X188000000Y-203080000D03*
%TD*%
%TO.P,R102,1*%
%TO.N,+5V*%
X121220000Y-92200000D03*
%TO.P,R102,2*%
%TO.N,Net-(D34-A)*%
X121220000Y-97280000D03*
%TD*%
%TO.P,R48,1*%
%TO.N,OI*%
X170000000Y-188000000D03*
%TO.P,R48,2*%
%TO.N,GND*%
X170000000Y-193080000D03*
%TD*%
D11*
%TO.P,D19,1*%
%TO.N,Net-(D19-K)*%
X13270000Y-76960000D03*
D12*
%TO.P,D19,2*%
%TO.N,Net-(D19-A)*%
X15810000Y-76960000D03*
%TD*%
D10*
%TO.P,R116,1*%
%TO.N,+5V*%
X90740000Y-143000000D03*
%TO.P,R116,2*%
%TO.N,D3*%
X90740000Y-148080000D03*
%TD*%
%TO.P,R112,1*%
%TO.N,+5V*%
X29780000Y-143000000D03*
%TO.P,R112,2*%
%TO.N,Net-(D44-A)*%
X29780000Y-148080000D03*
%TD*%
%TO.P,R81,1*%
%TO.N,+5V*%
X45020000Y-41400000D03*
%TO.P,R81,2*%
%TO.N,Net-(D13-A)*%
X45020000Y-46480000D03*
%TD*%
%TO.P,R94,1*%
%TO.N,+5V*%
X121220000Y-66800000D03*
%TO.P,R94,2*%
%TO.N,Net-(D26-A)*%
X121220000Y-71880000D03*
%TD*%
%TO.P,R67,1*%
%TO.N,CF*%
X164000000Y-208000000D03*
%TO.P,R67,2*%
%TO.N,GND*%
X164000000Y-213080000D03*
%TD*%
D11*
%TO.P,D13,1*%
%TO.N,Net-(D13-K)*%
X43750000Y-51560000D03*
D12*
%TO.P,D13,2*%
%TO.N,Net-(D13-A)*%
X46290000Y-51560000D03*
%TD*%
D10*
%TO.P,R10,1*%
%TO.N,Net-(R10-Pad1)*%
X166000000Y-44000000D03*
%TO.P,R10,2*%
%TO.N,EO*%
X166000000Y-49080000D03*
%TD*%
D21*
%TO.N,+5V*%
X94550000Y-13000000D03*
X109790000Y-13000000D03*
X79310000Y-13000000D03*
X64070000Y-13000000D03*
X125030000Y-13000000D03*
X33590000Y-13000000D03*
X18350000Y-13000000D03*
X109860000Y-216410900D03*
X48830000Y-13000000D03*
%TO.N,A0*%
X70854500Y-206973600D03*
%TO.N,A2*%
X151236000Y-181772800D03*
X47243800Y-14005500D03*
%TO.N,AB*%
X167224900Y-150683700D03*
X103079300Y-155970900D03*
X162230100Y-182200500D03*
X67189500Y-156230400D03*
%TO.N,AI*%
X98017600Y-189235300D03*
X126189800Y-63426900D03*
X105443000Y-186726400D03*
X105003700Y-190086200D03*
%TO.N,AO*%
X105221900Y-209614900D03*
X131764800Y-75129200D03*
X113460300Y-193723100D03*
%TO.N,B0*%
X79898100Y-208261600D03*
X133163800Y-203078500D03*
X133860600Y-176192300D03*
X126218100Y-30092300D03*
%TO.N,B1*%
X126444000Y-31291900D03*
%TO.N,B2*%
X81587500Y-173709400D03*
X126444000Y-39259700D03*
%TO.N,B3*%
X81238900Y-171284500D03*
X178309800Y-174766600D03*
%TO.N,BA*%
X57312400Y-176150200D03*
X31428500Y-170781200D03*
X53441900Y-177643700D03*
X97753900Y-193293300D03*
X98603000Y-175370400D03*
X168593500Y-180564800D03*
%TO.N,BI*%
X100421900Y-191652900D03*
X158413300Y-181513600D03*
X58630000Y-190708700D03*
X94881600Y-181558700D03*
X54436000Y-178752200D03*
X15920500Y-170781200D03*
X151256500Y-190850100D03*
%TO.N,BUS0#*%
X139849600Y-156310000D03*
X58255800Y-166377300D03*
%TO.N,BUS1#*%
X141172800Y-166903400D03*
X62165000Y-169166700D03*
%TO.N,BUS2#*%
X139843400Y-165733100D03*
X73367500Y-202909900D03*
X78678300Y-167167100D03*
%TO.N,BUS3#*%
X89963200Y-185718300D03*
X140458200Y-150704900D03*
%TO.N,CF*%
X90140000Y-217747900D03*
X29331500Y-206650700D03*
%TO.N,CLK*%
X133559300Y-215932500D03*
X137305500Y-150691200D03*
%TO.N,D3*%
X47411200Y-83538300D03*
X42639200Y-83941500D03*
X65033400Y-147355100D03*
%TO.N,EO*%
X94051900Y-171939900D03*
X178569000Y-175962900D03*
%TO.N,FI*%
X131959300Y-122955200D03*
X121692000Y-198299900D03*
X107014100Y-219633200D03*
X15204000Y-214621700D03*
%TO.N,GND*%
X71690000Y-10000000D03*
X41210000Y-10000000D03*
X117410000Y-10000000D03*
X18000000Y-204500000D03*
X180000000Y-183080000D03*
X137000000Y-211460000D03*
X56450000Y-10000000D03*
X102170000Y-10000000D03*
X10730000Y-10000000D03*
X25970000Y-10000000D03*
X86930000Y-10000000D03*
X12000000Y-205000000D03*
X52540000Y-216500000D03*
X113460000Y-211460000D03*
%TO.N,HLT*%
X33111900Y-206162800D03*
X105367000Y-218011700D03*
X131693200Y-124151600D03*
X121712400Y-197291000D03*
%TO.N,II*%
X168493200Y-173259200D03*
X108760100Y-173259200D03*
X170583700Y-181311800D03*
X98230700Y-173259200D03*
%TO.N,IO*%
X97081000Y-156776400D03*
X162130500Y-150855300D03*
X78507100Y-156593700D03*
X161340600Y-180243200D03*
%TO.N,M0*%
X109944900Y-196909800D03*
X82625400Y-203123100D03*
%TO.N,M1*%
X102710000Y-206650700D03*
%TO.N,M4*%
X89386300Y-208144900D03*
%TO.N,M5*%
X64929800Y-150853700D03*
X85186100Y-154785000D03*
%TO.N,Net-(D1-A)*%
X173780500Y-147305500D03*
%TO.N,Net-(D2-A)*%
X172964000Y-167269200D03*
%TO.N,OI*%
X102599800Y-188065200D03*
X167758300Y-184030200D03*
X162488200Y-180353200D03*
X99076500Y-165527600D03*
%TO.N,PC0*%
X132493200Y-201930100D03*
%TO.N,PC1*%
X102712800Y-200897800D03*
%TO.N,PC2*%
X87135800Y-199640300D03*
X148220000Y-197609600D03*
X86080700Y-206439200D03*
%TO.N,PCE*%
X109761900Y-175029000D03*
X162651900Y-175029000D03*
%TO.N,PCL*%
X131347500Y-88853200D03*
X114218300Y-195622200D03*
%TO.N,RST*%
X150434900Y-175554500D03*
X66476000Y-186723200D03*
X180040000Y-193951700D03*
X180578400Y-202193100D03*
%TO.N,RST_N*%
X58324700Y-175415900D03*
%TO.N,SUB*%
X90474900Y-174478000D03*
X82492100Y-174488900D03*
X168890000Y-55331700D03*
%TO.N,ZF*%
X41469600Y-218148500D03*
X173930200Y-211623200D03*
X92984300Y-217745500D03*
%TD*%
%TO.N,+5V*%
D22*
X144000000Y-46000000D02*
X144000000Y-56160000D01*
X144000000Y-58700000D02*
X144000000Y-61240000D01*
X142500000Y-147600500D02*
X142500000Y-160000000D01*
X18658700Y-199341300D02*
X18658700Y-147118700D01*
X110960000Y-215310900D02*
X109860000Y-216410900D01*
X144000000Y-51080000D02*
X144000000Y-48540000D01*
X141140100Y-146240600D02*
X142500000Y-147600500D01*
X144000000Y-24700000D02*
X144000000Y-22160000D01*
X144000000Y-82540000D02*
X144000000Y-85080000D01*
D23*
X144000000Y-12000000D02*
X144000000Y-29780000D01*
D22*
X144000000Y-48540000D02*
X144000000Y-46000000D01*
X144000000Y-27240000D02*
X144000000Y-24700000D01*
D23*
X144000000Y-46000000D02*
X144000000Y-63780000D01*
D24*
X18350000Y-13000000D02*
X125030000Y-13000000D01*
D22*
X18658700Y-147118700D02*
X14540000Y-143000000D01*
X141140100Y-141359900D02*
X141140100Y-146240600D01*
D23*
X144000000Y-80000000D02*
X144000000Y-97780000D01*
D22*
X144000000Y-56160000D02*
X144000000Y-58700000D01*
X144000000Y-19620000D02*
X144000000Y-17080000D01*
X144000000Y-14540000D02*
X144000000Y-12000000D01*
X110960000Y-214000000D02*
X110960000Y-215310900D01*
X18000000Y-200000000D02*
X18658700Y-199341300D01*
X144000000Y-95240000D02*
X144000000Y-92700000D01*
D23*
X144000000Y-12000000D02*
X144000000Y-80000000D01*
D22*
X50000000Y-211460000D02*
X50000000Y-214000000D01*
X142500000Y-140000000D02*
X141140100Y-141359900D01*
X144000000Y-90160000D02*
X144000000Y-87620000D01*
%TO.N,A0*%
X151223800Y-25970000D02*
X146204000Y-30989800D01*
X154141600Y-20938400D02*
X154141600Y-23781200D01*
X146204000Y-109879100D02*
X139090000Y-116993100D01*
X71087600Y-42067600D02*
X60260000Y-31240000D01*
X76660000Y-147405000D02*
X71087600Y-141832600D01*
X139090000Y-177090000D02*
X140000000Y-178000000D01*
X70854500Y-206973600D02*
X70854500Y-153303400D01*
X71087600Y-141832600D02*
X71087600Y-42067600D01*
X139090000Y-116993100D02*
X139090000Y-177090000D01*
X154141600Y-23781200D02*
X151952800Y-25970000D01*
X74391900Y-149766000D02*
X75502800Y-149766000D01*
X160000000Y-15080000D02*
X154141600Y-20938400D01*
X75502800Y-149766000D02*
X76660000Y-148608800D01*
X151952800Y-25970000D02*
X151223800Y-25970000D01*
X70854500Y-153303400D02*
X74391900Y-149766000D01*
X76660000Y-148608800D02*
X76660000Y-147405000D01*
X146204000Y-30989800D02*
X146204000Y-109879100D01*
%TO.N,A1*%
X153361400Y-115188100D02*
X153174300Y-115001000D01*
X161177800Y-34978200D02*
X153174300Y-42981700D01*
X146000000Y-178000000D02*
X146000000Y-144377100D01*
X166000000Y-15080000D02*
X158873300Y-22206700D01*
X152223200Y-138153900D02*
X152223200Y-137515100D01*
X158873300Y-22206700D02*
X158873300Y-28095300D01*
X153361400Y-115188100D02*
X153174300Y-115001000D01*
X161177800Y-30399800D02*
X161177800Y-34978200D01*
X158873300Y-28095300D02*
X161177800Y-30399800D01*
X152223200Y-137515100D02*
X153361400Y-136376900D01*
X153361400Y-136376900D02*
X153361400Y-115188100D01*
X153174300Y-42981700D02*
X153174300Y-115001000D01*
X146000000Y-144377100D02*
X152223200Y-138153900D01*
%TO.N,A2*%
X148833700Y-174980900D02*
X148833700Y-142182200D01*
X161629500Y-35165300D02*
X161629500Y-24709500D01*
X35397600Y-29739700D02*
X35397600Y-28325500D01*
X151236000Y-181772800D02*
X152000000Y-181008800D01*
X161629500Y-24709500D02*
X160000000Y-23080000D01*
X154186600Y-136829300D02*
X154186600Y-42610300D01*
X35397600Y-28325500D02*
X47243800Y-16479300D01*
X148833700Y-142182200D02*
X154186600Y-136829300D01*
X29780000Y-31240000D02*
X30856700Y-32316700D01*
X152000000Y-181008800D02*
X152000000Y-178000000D01*
X151852800Y-178000000D02*
X148833700Y-174980900D01*
X154186600Y-42610300D02*
X158187700Y-38609200D01*
X47243800Y-16479300D02*
X47243800Y-14005500D01*
X152000000Y-178000000D02*
X151852800Y-178000000D01*
X30856700Y-32316700D02*
X32820600Y-32316700D01*
X158187700Y-38609200D02*
X158187700Y-38607100D01*
X158187700Y-38607100D02*
X161629500Y-35165300D01*
X32820600Y-32316700D02*
X35397600Y-29739700D01*
%TO.N,A3*%
X157943500Y-139197900D02*
X161157400Y-142411800D01*
X158639400Y-51314100D02*
X157943500Y-52010000D01*
X161157400Y-142411800D02*
X161157400Y-150160400D01*
X163184900Y-25895100D02*
X163184900Y-34248700D01*
X158639400Y-38794200D02*
X158639400Y-51314100D01*
X161157400Y-151548600D02*
X161157400Y-165357700D01*
X157943500Y-52010000D02*
X157943500Y-139197900D01*
X161157400Y-165357700D02*
X158000000Y-168515100D01*
X158000000Y-168515100D02*
X158000000Y-178000000D01*
X160952100Y-151343300D02*
X161157400Y-151548600D01*
X160952100Y-150365700D02*
X160952100Y-151343300D01*
X163184900Y-34248700D02*
X158639400Y-38794200D01*
X166000000Y-23080000D02*
X163184900Y-25895100D01*
X161157400Y-150160400D02*
X160952100Y-150365700D01*
%TO.N,AB*%
X164360100Y-77440100D02*
X164360100Y-95846600D01*
X104276800Y-190387300D02*
X104276800Y-160319400D01*
X104365500Y-190476000D02*
X104276800Y-190387300D01*
X167224900Y-150780400D02*
X167224900Y-150683700D01*
X167184800Y-177245800D02*
X162230100Y-182200500D01*
X103079300Y-159121900D02*
X103079300Y-155970900D01*
X167184800Y-150780400D02*
X167224900Y-150780400D01*
X64326300Y-156230400D02*
X61530000Y-153434100D01*
X104365500Y-206316700D02*
X104365500Y-190476000D01*
X61530000Y-152526600D02*
X45020000Y-136016600D01*
X167184800Y-98671300D02*
X167184800Y-150780400D01*
X164360100Y-95846600D02*
X167184800Y-98671300D01*
X100800000Y-214000000D02*
X102017800Y-212782200D01*
X167184800Y-150780400D02*
X167184800Y-177245800D01*
X160000000Y-73080000D02*
X164360100Y-77440100D01*
X102017800Y-212782200D02*
X102017800Y-208664400D01*
X45020000Y-136016600D02*
X45020000Y-132840000D01*
X104276800Y-160319400D02*
X103079300Y-159121900D01*
X67189500Y-156230400D02*
X64326300Y-156230400D01*
X61530000Y-153434100D02*
X61530000Y-152526600D01*
X102017800Y-208664400D02*
X104365500Y-206316700D01*
%TO.N,AI*%
X108981300Y-108538400D02*
X107078400Y-108538400D01*
X110318300Y-107201400D02*
X108981300Y-108538400D01*
X104534000Y-131424200D02*
X103428300Y-130318500D01*
X95720000Y-213124100D02*
X95720100Y-213124100D01*
X96896700Y-190356200D02*
X98017600Y-189235300D01*
X126189800Y-63426900D02*
X110318300Y-79298400D01*
X105443000Y-186726400D02*
X105003700Y-187165700D01*
X95720100Y-213124100D02*
X96896700Y-211947500D01*
X104534000Y-159213400D02*
X104534000Y-131424200D01*
X95720000Y-214000000D02*
X95720000Y-213124100D01*
X105443000Y-160122400D02*
X104534000Y-159213400D01*
X96896700Y-211947500D02*
X96896700Y-190356200D01*
X103428300Y-109991700D02*
X105980000Y-107440000D01*
X110318300Y-79298400D02*
X110318300Y-107201400D01*
X103428300Y-130318500D02*
X103428300Y-109991700D01*
X107078400Y-108538400D02*
X105980000Y-107440000D01*
X105443000Y-186726400D02*
X105443000Y-160122400D01*
X105003700Y-187165700D02*
X105003700Y-190086200D01*
%TO.N,AO*%
X113460300Y-193723100D02*
X113460300Y-201376500D01*
X124893300Y-107894600D02*
X124893300Y-82000700D01*
X122318600Y-108538600D02*
X124249300Y-108538600D01*
X124893300Y-82000700D02*
X131764800Y-75129200D01*
X113460300Y-193723100D02*
X113460300Y-115199700D01*
X121220000Y-107440000D02*
X122318600Y-108538600D01*
X124249300Y-108538600D02*
X124893300Y-107894600D01*
X113460300Y-115199700D02*
X121220000Y-107440000D01*
X113460300Y-201376500D02*
X105221900Y-209614900D01*
%TO.N,B0*%
X71536500Y-215216500D02*
X73338800Y-215216500D01*
X133860600Y-176192300D02*
X133860600Y-37637100D01*
X79209900Y-211906700D02*
X79209900Y-208949800D01*
X133860600Y-37637100D02*
X126315900Y-30092400D01*
X79209900Y-208949800D02*
X79898100Y-208261600D01*
X133420200Y-176632700D02*
X133860600Y-176192300D01*
X133420200Y-202822100D02*
X133420200Y-176632700D01*
X78386600Y-212730000D02*
X79209900Y-211906700D01*
X126315900Y-30092400D02*
X126218100Y-30092400D01*
X126218100Y-30092400D02*
X126218100Y-30092300D01*
X74223300Y-214332000D02*
X74223300Y-213467400D01*
X70320000Y-214000000D02*
X71536500Y-215216500D01*
X133163800Y-203078500D02*
X133420200Y-202822100D01*
X74960700Y-212730000D02*
X78386600Y-212730000D01*
X121220000Y-31240000D02*
X122367600Y-30092400D01*
X73338800Y-215216500D02*
X74223300Y-214332000D01*
X122367600Y-30092400D02*
X126218100Y-30092400D01*
X74223300Y-213467400D02*
X74960700Y-212730000D01*
%TO.N,B1*%
X164421600Y-53087300D02*
X164686200Y-53351900D01*
X119756700Y-31350800D02*
X119756700Y-30354600D01*
X171821400Y-179821400D02*
X170000000Y-178000000D01*
X177162800Y-175286000D02*
X177162800Y-178492300D01*
X119565400Y-30163300D02*
X107056700Y-30163300D01*
X166466800Y-66873300D02*
X177131400Y-77537900D01*
X164686200Y-53351900D02*
X164873300Y-53539000D01*
X164421600Y-32658400D02*
X164421600Y-53087300D01*
X177162800Y-178492300D02*
X175833700Y-179821400D01*
X107056700Y-30163300D02*
X105980000Y-31240000D01*
X175833700Y-179821400D02*
X171821400Y-179821400D01*
X177131400Y-77537900D02*
X177131400Y-175254600D01*
X119756700Y-30354600D02*
X119565400Y-30163300D01*
X120722600Y-32316700D02*
X119756700Y-31350800D01*
X177131400Y-175254600D02*
X177162800Y-175286000D01*
X164873300Y-53539000D02*
X164873300Y-65546700D01*
X166199900Y-66873300D02*
X166466800Y-66873300D01*
X126444000Y-31291900D02*
X125419200Y-32316700D01*
X164873300Y-65546700D02*
X166199900Y-66873300D01*
X164686200Y-53351900D02*
X164873300Y-53539000D01*
X166000000Y-31080000D02*
X164421600Y-32658400D01*
X125419200Y-32316700D02*
X120722600Y-32316700D01*
%TO.N,B2*%
X168725700Y-170725700D02*
X176000000Y-178000000D01*
X160000000Y-39080000D02*
X163000100Y-42080100D01*
X163000100Y-42080100D02*
X163000100Y-68440200D01*
X163000100Y-68440200D02*
X168725600Y-74165700D01*
X168725600Y-170725700D02*
X168725700Y-170725700D01*
X168725600Y-74165700D02*
X168725600Y-170725700D01*
X90740000Y-31240000D02*
X98759700Y-39259700D01*
X74130000Y-181166900D02*
X81587500Y-173709400D01*
X72860000Y-214000000D02*
X74130000Y-212730000D01*
X98759700Y-39259700D02*
X126444000Y-39259700D01*
X74130000Y-212730000D02*
X74130000Y-181166900D01*
%TO.N,B3*%
X166000000Y-39080000D02*
X164873300Y-40206700D01*
X178309800Y-65930700D02*
X178309800Y-174766600D01*
X74423300Y-130215400D02*
X72960000Y-128752100D01*
X72960000Y-109402100D02*
X74036700Y-108325400D01*
X74036700Y-106554600D02*
X71883300Y-104401200D01*
X74408900Y-151498700D02*
X77111700Y-148795900D01*
X72960000Y-128752100D02*
X72960000Y-109402100D01*
X72860000Y-211460000D02*
X72640800Y-211240800D01*
X74036700Y-108325400D02*
X74036700Y-106554600D01*
X74408900Y-164454500D02*
X74408900Y-151498700D01*
X182000000Y-174766600D02*
X182000000Y-178000000D01*
X76661500Y-135524200D02*
X74423300Y-133286000D01*
X77111700Y-148795900D02*
X77111700Y-146992700D01*
X76847100Y-146728100D02*
X76661500Y-146542500D01*
X178309800Y-174766600D02*
X182000000Y-174766600D01*
X164873300Y-52494200D02*
X178309800Y-65930700D01*
X71883300Y-34856700D02*
X75500000Y-31240000D01*
X164873300Y-40206700D02*
X164873300Y-52494200D01*
X74423300Y-133286000D02*
X74423300Y-130215400D01*
X77111700Y-146992700D02*
X76847100Y-146728100D01*
X72640800Y-179882600D02*
X81238900Y-171284500D01*
X81238900Y-171284500D02*
X74408900Y-164454500D01*
X76661500Y-146542500D02*
X76661500Y-135524200D01*
X72640800Y-211240800D02*
X72640800Y-179882600D01*
X71883300Y-104401200D02*
X71883300Y-34856700D01*
X76847100Y-146728100D02*
X76661500Y-146542500D01*
%TO.N,BA*%
X33405100Y-136465100D02*
X33405100Y-168804600D01*
X166000000Y-65080000D02*
X177583100Y-76663100D01*
X53441900Y-177643700D02*
X54935400Y-176150200D01*
X177583100Y-76663100D02*
X177583100Y-175067500D01*
X177614500Y-175098900D02*
X177614500Y-178679400D01*
X98770000Y-192277200D02*
X97753900Y-193293300D01*
X98770000Y-186472100D02*
X98770000Y-192277200D01*
X94752400Y-182454500D02*
X98770000Y-186472100D01*
X98603000Y-176343900D02*
X94108200Y-180838700D01*
X33405100Y-168804600D02*
X31428500Y-170781200D01*
X29780000Y-132840000D02*
X33405100Y-136465100D01*
X175729100Y-180564800D02*
X168593500Y-180564800D01*
X94108200Y-181890000D02*
X94672700Y-182454500D01*
X177614500Y-178679400D02*
X175729100Y-180564800D01*
X98260000Y-211460000D02*
X97753900Y-210953900D01*
X54935400Y-176150200D02*
X57312400Y-176150200D01*
X177583100Y-175067500D02*
X177614500Y-175098900D01*
X94108200Y-180838700D02*
X94108200Y-181890000D01*
X94672700Y-182454500D02*
X94752400Y-182454500D01*
X97753900Y-210953900D02*
X97753900Y-193293300D01*
X98603000Y-175370400D02*
X98603000Y-176343900D01*
%TO.N,BI*%
X161403800Y-150552800D02*
X161403800Y-151156200D01*
X161403800Y-151156200D02*
X161609100Y-151361500D01*
X152000000Y-188000000D02*
X151256500Y-188743500D01*
X100421900Y-191652900D02*
X100022600Y-191652900D01*
X158403600Y-138787200D02*
X161609100Y-141992700D01*
X13382400Y-133997600D02*
X13382400Y-144157200D01*
X160000000Y-65080000D02*
X158403600Y-66676400D01*
X151256500Y-188743500D02*
X151256500Y-190850100D01*
X99623300Y-212636700D02*
X98260000Y-214000000D01*
X161609100Y-141992700D02*
X161609100Y-150347500D01*
X54436000Y-186514700D02*
X54436000Y-178752200D01*
X100022600Y-191652900D02*
X99623300Y-192052200D01*
X158403600Y-66676400D02*
X158403600Y-138787200D01*
X99623300Y-192052200D02*
X99623300Y-212636700D01*
X161609100Y-165770000D02*
X161158900Y-166220200D01*
X161158900Y-166220200D02*
X161158900Y-178768000D01*
X13382400Y-144157200D02*
X18181100Y-148955900D01*
X18181100Y-148955900D02*
X18181100Y-168520600D01*
X100022600Y-186699700D02*
X94881600Y-181558700D01*
X100022600Y-191652900D02*
X100022600Y-186699700D01*
X14540000Y-132840000D02*
X13382400Y-133997600D01*
X161609100Y-151361500D02*
X161609100Y-165770000D01*
X58630000Y-190708700D02*
X54436000Y-186514700D01*
X161609100Y-150347500D02*
X161403800Y-150552800D01*
X161158900Y-178768000D02*
X158413300Y-181513600D01*
X18181100Y-168520600D02*
X15920500Y-170781200D01*
%TO.N,BUS0#*%
X58237300Y-166377300D02*
X58255800Y-166377300D01*
X58837600Y-208110500D02*
X43891200Y-193164100D01*
X60160000Y-214000000D02*
X58837600Y-212677600D01*
X139573300Y-156033700D02*
X139849600Y-156310000D01*
X43891200Y-154288800D02*
X45020000Y-153160000D01*
X58837600Y-212677600D02*
X58837600Y-208110500D01*
X43891200Y-193164100D02*
X43891200Y-154288800D01*
X151620000Y-114000000D02*
X146270000Y-119350000D01*
X146270000Y-119350000D02*
X146270000Y-121175400D01*
X45020000Y-153160000D02*
X58237300Y-166377300D01*
X139573300Y-127872100D02*
X139573300Y-156033700D01*
X146270000Y-121175400D02*
X139573300Y-127872100D01*
%TO.N,BUS1#*%
X141228300Y-159062500D02*
X141172800Y-159118000D01*
X140499700Y-128609100D02*
X140499700Y-146239000D01*
X151620000Y-116540000D02*
X149447300Y-118712700D01*
X61434300Y-154334300D02*
X60260000Y-153160000D01*
X140499700Y-146239000D02*
X140652000Y-146391300D01*
X141228300Y-148223200D02*
X141228300Y-159062500D01*
X140499700Y-146239000D02*
X140652000Y-146391300D01*
X61434300Y-169166700D02*
X61434300Y-154334300D01*
X149447300Y-118712700D02*
X149447300Y-119661500D01*
X60160000Y-211460000D02*
X61434300Y-210185700D01*
X140652000Y-147646900D02*
X141228300Y-148223200D01*
X61434300Y-210185700D02*
X61434300Y-169166700D01*
X140652000Y-146391300D02*
X140652000Y-147646900D01*
X61434300Y-169166700D02*
X62165000Y-169166700D01*
X141172800Y-159118000D02*
X141172800Y-166903400D01*
X149447300Y-119661500D02*
X140499700Y-128609100D01*
%TO.N,BUS2#*%
X139843400Y-166653900D02*
X139843400Y-165733100D01*
X150470500Y-136665900D02*
X151202300Y-137397700D01*
X73367500Y-180444600D02*
X81985000Y-171827100D01*
X141560200Y-167630200D02*
X140819700Y-167630200D01*
X144365400Y-145279800D02*
X144365400Y-164825000D01*
X150470500Y-120229500D02*
X150470500Y-136665900D01*
X73367500Y-202909900D02*
X73367500Y-180444600D01*
X151620000Y-119080000D02*
X150470500Y-120229500D01*
X144365400Y-164825000D02*
X141560200Y-167630200D01*
X81985000Y-171827100D02*
X81985000Y-170473800D01*
X140819700Y-167630200D02*
X139843400Y-166653900D01*
X75500000Y-163988800D02*
X75500000Y-153160000D01*
X151202300Y-138442900D02*
X144365400Y-145279800D01*
X151202300Y-137397700D02*
X151202300Y-138442900D01*
X78678300Y-167167100D02*
X75500000Y-163988800D01*
X81985000Y-170473800D02*
X78678300Y-167167100D01*
%TO.N,BUS3#*%
X90740000Y-153160000D02*
X89748200Y-154151800D01*
X151620000Y-121620000D02*
X152780400Y-120459600D01*
X152062100Y-115372600D02*
X151189900Y-115372600D01*
X140036400Y-128123700D02*
X140036400Y-150283100D01*
X140036400Y-150283100D02*
X140458200Y-150704900D01*
X151189900Y-115372600D02*
X146946700Y-119615800D01*
X152780400Y-120459600D02*
X152780400Y-116090900D01*
X152780400Y-116090900D02*
X152062100Y-115372600D01*
X89748200Y-185503300D02*
X89963200Y-185718300D01*
X146946700Y-121213400D02*
X140036400Y-128123700D01*
X89748200Y-154151800D02*
X89748200Y-185503300D01*
X146946700Y-119615800D02*
X146946700Y-121213400D01*
%TO.N,CF*%
X19784200Y-197103400D02*
X19784200Y-112684200D01*
X19784200Y-112684200D02*
X14540000Y-107440000D01*
X90640000Y-217247900D02*
X90140000Y-217747900D01*
X90640000Y-214000000D02*
X90640000Y-217247900D01*
X29331500Y-206650700D02*
X19784200Y-197103400D01*
%TO.N,CLK*%
X51144300Y-217227000D02*
X41366600Y-207449300D01*
X41366600Y-207449300D02*
X41366600Y-111093400D01*
X133559300Y-215932500D02*
X134010900Y-215480900D01*
X137367900Y-179043000D02*
X137367900Y-150753600D01*
X134010900Y-215480900D02*
X134010900Y-182400000D01*
X55080000Y-215042200D02*
X52895200Y-217227000D01*
X134010900Y-182400000D02*
X137367900Y-179043000D01*
X137367900Y-150753600D02*
X137305500Y-150691200D01*
X41366600Y-111093400D02*
X45020000Y-107440000D01*
X52895200Y-217227000D02*
X51144300Y-217227000D01*
X55080000Y-214000000D02*
X55080000Y-215042200D01*
%TO.N,CLK_S1*%
X105980000Y-148080000D02*
X108520000Y-150620000D01*
X108520000Y-150620000D02*
X108520000Y-153160000D01*
%TO.N,CLK_S2*%
X123760000Y-150620000D02*
X121220000Y-148080000D01*
X123760000Y-153160000D02*
X123760000Y-150620000D01*
%TO.N,D0*%
X43943300Y-82486000D02*
X43943300Y-81177800D01*
X46483300Y-56562400D02*
X46483300Y-57090400D01*
X47119000Y-57726100D02*
X59173900Y-57726100D01*
X59173900Y-57726100D02*
X60260000Y-56640000D01*
X44507300Y-55560300D02*
X45481200Y-55560300D01*
X45020000Y-150620000D02*
X45020000Y-148080000D01*
X46483300Y-57090400D02*
X47119000Y-57726100D01*
X42492600Y-114030200D02*
X48636700Y-107886100D01*
X48636700Y-107886100D02*
X48636700Y-87179400D01*
X47560000Y-153160000D02*
X45020000Y-150620000D01*
X42487000Y-79721500D02*
X42487000Y-65603600D01*
X42492600Y-128764700D02*
X42492600Y-114030200D01*
X43943300Y-81177800D02*
X42487000Y-79721500D01*
X45481200Y-55560300D02*
X46483300Y-56562400D01*
X45020000Y-148080000D02*
X43618300Y-146678300D01*
X43618300Y-146678300D02*
X43618300Y-129890400D01*
X42487000Y-65603600D02*
X43750000Y-64340600D01*
X48636700Y-87179400D02*
X43943300Y-82486000D01*
X43750000Y-56317600D02*
X44507300Y-55560300D01*
X43618300Y-129890400D02*
X42492600Y-128764700D01*
X43750000Y-64340600D02*
X43750000Y-56317600D01*
%TO.N,D1*%
X62800000Y-153160000D02*
X63713100Y-153160000D01*
X65760100Y-151113000D02*
X65760100Y-117808000D01*
X62800000Y-150620000D02*
X60260000Y-148080000D01*
X65760100Y-117808000D02*
X56643300Y-108691200D01*
X56643300Y-68263300D02*
X45020000Y-56640000D01*
X63713100Y-153160000D02*
X65760100Y-151113000D01*
X56643300Y-108691200D02*
X56643300Y-68263300D01*
X62800000Y-153160000D02*
X62800000Y-150620000D01*
%TO.N,D2*%
X45020000Y-50560900D02*
X45020000Y-52090100D01*
X29780000Y-56640000D02*
X30900200Y-57760200D01*
X33342300Y-57760200D02*
X40811400Y-50291100D01*
X61630200Y-56479300D02*
X61630200Y-72096100D01*
X70448700Y-80914600D02*
X70448700Y-143028700D01*
X59992600Y-54841700D02*
X61630200Y-56479300D01*
X30900200Y-57760200D02*
X33342300Y-57760200D01*
X45020000Y-52090100D02*
X47771600Y-54841700D01*
X40811400Y-50291100D02*
X44750200Y-50291100D01*
X61630200Y-72096100D02*
X70448700Y-80914600D01*
X44750200Y-50291100D02*
X45020000Y-50560900D01*
X47771600Y-54841700D02*
X59992600Y-54841700D01*
X70448700Y-143028700D02*
X75500000Y-148080000D01*
%TO.N,D3*%
X93280000Y-150620000D02*
X93280000Y-153160000D01*
X16076000Y-58176000D02*
X14540000Y-56640000D01*
X58885600Y-133212200D02*
X65033400Y-139360000D01*
X90740000Y-148080000D02*
X93280000Y-150620000D01*
X17693700Y-58176000D02*
X16076000Y-58176000D01*
X33959100Y-75483700D02*
X33959100Y-74441400D01*
X42639200Y-83941500D02*
X42416900Y-83941500D01*
X54437700Y-90564800D02*
X54437700Y-127047900D01*
X58885600Y-131495800D02*
X58885600Y-133212200D01*
X42416900Y-83941500D02*
X33959100Y-75483700D01*
X54437700Y-127047900D02*
X58885600Y-131495800D01*
X47411200Y-83538300D02*
X54437700Y-90564800D01*
X65033400Y-139360000D02*
X65033400Y-147355100D01*
X33959100Y-74441400D02*
X17693700Y-58176000D01*
%TO.N,EO*%
X87123300Y-111056700D02*
X87123300Y-146336100D01*
X166000000Y-49080000D02*
X194000000Y-77080000D01*
X192829100Y-179170900D02*
X181564100Y-179170900D01*
X93180000Y-172811800D02*
X93180000Y-211460000D01*
X87123300Y-146336100D02*
X92010000Y-151222800D01*
X92010000Y-151222800D02*
X92010000Y-169898000D01*
X90740000Y-107440000D02*
X87123300Y-111056700D01*
X194000000Y-178000000D02*
X192829100Y-179170900D01*
X92010000Y-169898000D02*
X94051900Y-171939900D01*
X181564100Y-179170900D02*
X178569000Y-176175800D01*
X94051900Y-171939900D02*
X93180000Y-172811800D01*
X194000000Y-77080000D02*
X194000000Y-178000000D01*
X178569000Y-176175800D02*
X178569000Y-175962900D01*
%TO.N,FI*%
X132419900Y-187667800D02*
X121787800Y-198299900D01*
X131959400Y-123390100D02*
X132419900Y-123850600D01*
X121787800Y-198299900D02*
X121692000Y-198299900D01*
X108420000Y-214000000D02*
X109690000Y-212730000D01*
X131959300Y-123390100D02*
X131959400Y-123390100D01*
X131959300Y-122955200D02*
X131959300Y-123390100D01*
X108420000Y-218227300D02*
X108420000Y-214000000D01*
X14540000Y-158240000D02*
X14540000Y-213957700D01*
X107014100Y-219633200D02*
X108420000Y-218227300D01*
X132419900Y-123850600D02*
X132419900Y-187667800D01*
X109690000Y-212730000D02*
X109690000Y-210301900D01*
X109690000Y-210301900D02*
X121692000Y-198299900D01*
X14540000Y-213957700D02*
X15204000Y-214621700D01*
%TO.N,GND*%
D23*
X110960000Y-211460000D02*
X113460000Y-211460000D01*
X137000000Y-183080000D02*
X137000000Y-213080000D01*
X137000000Y-213080000D02*
X182000000Y-213080000D01*
X137000000Y-203080000D02*
X194000000Y-203080000D01*
X137000000Y-183080000D02*
X194000000Y-183080000D01*
X52540000Y-214000000D02*
X52540000Y-216500000D01*
X137000000Y-193080000D02*
X194000000Y-193080000D01*
D24*
X10730000Y-10000000D02*
X117410000Y-10000000D01*
D23*
X52540000Y-214000000D02*
X52540000Y-211460000D01*
X155000000Y-140000000D02*
X160000000Y-143080000D01*
X144000000Y-114000000D02*
X144000000Y-121620000D01*
X52540000Y-211460000D02*
X57620000Y-211460000D01*
X155000000Y-160000000D02*
X160000000Y-163080000D01*
X12000000Y-202500000D02*
X12000000Y-205000000D01*
X18000000Y-202000000D02*
X18000000Y-204500000D01*
%TO.N,HLT*%
D22*
X131693200Y-187310200D02*
X121712400Y-197291000D01*
X108420000Y-211460000D02*
X107150000Y-212730000D01*
X29780000Y-202830900D02*
X29780000Y-158240000D01*
X107150000Y-216228700D02*
X105367000Y-218011700D01*
X131693200Y-124151600D02*
X131693200Y-187310200D01*
X33111900Y-206162800D02*
X29780000Y-202830900D01*
X107150000Y-212730000D02*
X107150000Y-216228700D01*
X121586700Y-197291000D02*
X121712400Y-197291000D01*
X108420000Y-211460000D02*
X108420000Y-210457700D01*
X108420000Y-210457700D02*
X121586700Y-197291000D01*
%TO.N,II*%
X170583700Y-181311800D02*
X168308600Y-181311800D01*
X105641500Y-190476100D02*
X108760100Y-187357500D01*
X167866700Y-180869900D02*
X167866700Y-173354800D01*
X108760100Y-187357500D02*
X108760100Y-173259200D01*
X98230700Y-140330700D02*
X90740000Y-132840000D01*
X167866700Y-173354800D02*
X167962300Y-173259200D01*
X98230700Y-173259200D02*
X98230700Y-140330700D01*
X167962300Y-85042300D02*
X166000000Y-83080000D01*
X168493200Y-173259200D02*
X167962300Y-173259200D01*
X168308600Y-181311800D02*
X167866700Y-180869900D01*
X103340000Y-209651100D02*
X105641500Y-207349600D01*
X103340000Y-211460000D02*
X103340000Y-209651100D01*
X105641500Y-207349600D02*
X105641500Y-190476100D01*
X167962300Y-173259200D02*
X167962300Y-85042300D01*
%TO.N,IO*%
X93656500Y-182077100D02*
X94539100Y-182959700D01*
X158856900Y-138576400D02*
X158856900Y-84223100D01*
X161340600Y-180243200D02*
X161620400Y-179963400D01*
X95238800Y-215187900D02*
X102152100Y-215187900D01*
X158856900Y-84223100D02*
X160000000Y-83080000D01*
X75500000Y-132840000D02*
X79116700Y-136456700D01*
X162060800Y-150853700D02*
X162060800Y-141780300D01*
X79116700Y-136456700D02*
X79116700Y-155984100D01*
X79116700Y-155984100D02*
X78507100Y-156593700D01*
X161620400Y-166397500D02*
X162060800Y-165957100D01*
X162060800Y-141780300D02*
X158856900Y-138576400D01*
X94539200Y-214488300D02*
X95238800Y-215187900D01*
X162130500Y-150853700D02*
X162130500Y-150855300D01*
X94539100Y-182959700D02*
X94539200Y-182959700D01*
X94539200Y-182959700D02*
X94539200Y-214488300D01*
X162060800Y-150853700D02*
X162130500Y-150853700D01*
X97081000Y-176953900D02*
X93656500Y-180378400D01*
X93656500Y-180378400D02*
X93656500Y-182077100D01*
X97081000Y-156776400D02*
X97081000Y-176953900D01*
X161620400Y-179963400D02*
X161620400Y-166397500D01*
X102152100Y-215187900D02*
X103340000Y-214000000D01*
X162060800Y-165957100D02*
X162060800Y-150853700D01*
%TO.N,M0*%
X81843300Y-212636700D02*
X81843300Y-203905200D01*
X81843300Y-203905200D02*
X82625400Y-203123100D01*
X121220000Y-82040000D02*
X111760800Y-91499200D01*
X111760800Y-195093900D02*
X109944900Y-196909800D01*
X80480000Y-214000000D02*
X81843300Y-212636700D01*
X111760800Y-91499200D02*
X111760800Y-195093900D01*
%TO.N,M1*%
X102553800Y-186991500D02*
X103825100Y-188262800D01*
X105980000Y-82040000D02*
X102089500Y-85930500D01*
X103892800Y-190642100D02*
X103892800Y-205467900D01*
X103825100Y-190574400D02*
X103892800Y-190642100D01*
X102089500Y-85930500D02*
X102089500Y-186805900D01*
X102089500Y-186805900D02*
X102275100Y-186991500D01*
X102275100Y-186991500D02*
X102553800Y-186991500D01*
X103892800Y-205467900D02*
X102710000Y-206650700D01*
X103825100Y-188262800D02*
X103825100Y-190574400D01*
X102089500Y-186805900D02*
X102275100Y-186991500D01*
%TO.N,M2*%
X84291500Y-212728500D02*
X83020000Y-214000000D01*
X84291500Y-88488500D02*
X84291500Y-212728500D01*
X90740000Y-82040000D02*
X84291500Y-88488500D01*
%TO.N,M3*%
X83020000Y-211460000D02*
X83677800Y-210802200D01*
X83412500Y-169957700D02*
X83412500Y-89952500D01*
X83413200Y-169958400D02*
X83412500Y-169957700D01*
X83677800Y-210802200D02*
X83677800Y-170223000D01*
X83412500Y-89952500D02*
X75500000Y-82040000D01*
X83677800Y-170223000D02*
X83413200Y-169958400D01*
X83413200Y-169958400D02*
X83412500Y-169957700D01*
%TO.N,M4*%
X74449000Y-215216500D02*
X84343500Y-215216500D01*
X69050000Y-90830000D02*
X69050000Y-214449400D01*
X60260000Y-82040000D02*
X69050000Y-90830000D01*
X73997300Y-215668200D02*
X74261900Y-215403600D01*
X70268800Y-215668200D02*
X73997300Y-215668200D01*
X69050000Y-214449400D02*
X70268800Y-215668200D01*
X85560000Y-214000000D02*
X86736700Y-212823300D01*
X84343500Y-215216500D02*
X85560000Y-214000000D01*
X74261900Y-215403600D02*
X74449000Y-215216500D01*
X86736700Y-210794500D02*
X89386300Y-208144900D01*
X74261900Y-215403600D02*
X74449000Y-215216500D01*
X86736700Y-212823300D02*
X86736700Y-210794500D01*
%TO.N,M5*%
X45020000Y-82040000D02*
X45020000Y-82174700D01*
X52903900Y-138827800D02*
X64929800Y-150853700D01*
X52903900Y-90058600D02*
X52903900Y-138827800D01*
X45020000Y-82174700D02*
X52903900Y-90058600D01*
X85186100Y-211086100D02*
X85560000Y-211460000D01*
X85186100Y-154785000D02*
X85186100Y-211086100D01*
%TO.N,M6*%
X50979000Y-217701600D02*
X37738100Y-204460700D01*
X88100000Y-214000000D02*
X84398400Y-217701600D01*
X84398400Y-217701600D02*
X50979000Y-217701600D01*
X37738100Y-89998100D02*
X29780000Y-82040000D01*
X37738100Y-204460700D02*
X37738100Y-89998100D01*
%TO.N,M7*%
X30856700Y-107880000D02*
X37286400Y-114309700D01*
X89292900Y-212652900D02*
X88100000Y-211460000D01*
X26414800Y-102552000D02*
X30856700Y-106993900D01*
X26414800Y-93914800D02*
X26414800Y-102552000D01*
X37286400Y-204649400D02*
X50821800Y-218184800D01*
X89292900Y-214513400D02*
X89292900Y-212652900D01*
X30856700Y-106993900D02*
X30856700Y-107880000D01*
X14540000Y-82040000D02*
X26414800Y-93914800D01*
X85621500Y-218184800D02*
X89292900Y-214513400D01*
X50821800Y-218184800D02*
X85621500Y-218184800D01*
X37286400Y-114309700D02*
X37286400Y-204649400D01*
%TO.N,Net-(C3-Pad1)*%
X155000000Y-138000000D02*
X150000000Y-143000000D01*
X150000000Y-143000000D02*
X150000000Y-143080000D01*
%TO.N,Net-(C4-Pad1)*%
X150000000Y-163080000D02*
X155000000Y-158080000D01*
X155000000Y-158080000D02*
X155000000Y-158000000D01*
%TO.N,Net-(D1-A)*%
X173780500Y-144299500D02*
X173780500Y-147305500D01*
X175000000Y-143080000D02*
X173780500Y-144299500D01*
%TO.N,Net-(D2-A)*%
X172964000Y-165116000D02*
X172964000Y-167269200D01*
X175000000Y-163080000D02*
X172964000Y-165116000D01*
%TO.N,Net-(D3-A)*%
X15810000Y-22350000D02*
X14540000Y-21080000D01*
X15810000Y-26160000D02*
X15810000Y-22350000D01*
%TO.N,Net-(D3-K)*%
X13270000Y-26160000D02*
X13270000Y-27430000D01*
X13270000Y-27430000D02*
X17080000Y-31240000D01*
%TO.N,Net-(D4-A)*%
X31050000Y-22350000D02*
X31050000Y-26160000D01*
X29780000Y-21080000D02*
X31050000Y-22350000D01*
%TO.N,Net-(D4-K)*%
X28510000Y-27430000D02*
X32320000Y-31240000D01*
X28510000Y-26160000D02*
X28510000Y-27430000D01*
%TO.N,Net-(D5-A)*%
X46290000Y-22350000D02*
X46290000Y-26160000D01*
X45020000Y-21080000D02*
X46290000Y-22350000D01*
%TO.N,Net-(D5-K)*%
X47560000Y-31196700D02*
X43750000Y-27386700D01*
X43750000Y-26160000D02*
X43750000Y-27386700D01*
X47560000Y-31240000D02*
X47560000Y-31196700D01*
%TO.N,Net-(D6-A)*%
X61530000Y-26160000D02*
X61530000Y-22350000D01*
X61530000Y-22350000D02*
X60260000Y-21080000D01*
%TO.N,Net-(D6-K)*%
X58990000Y-26160000D02*
X58990000Y-27386700D01*
X62800000Y-31240000D02*
X62800000Y-31196700D01*
X62800000Y-31196700D02*
X58990000Y-27386700D01*
%TO.N,Net-(D7-A)*%
X76770000Y-22350000D02*
X75500000Y-21080000D01*
X76770000Y-26160000D02*
X76770000Y-22350000D01*
%TO.N,Net-(D7-K)*%
X78040000Y-31240000D02*
X78040000Y-31196700D01*
X78040000Y-31196700D02*
X74230000Y-27386700D01*
X74230000Y-26160000D02*
X74230000Y-27386700D01*
%TO.N,Net-(D8-A)*%
X92010000Y-22350000D02*
X90740000Y-21080000D01*
X92010000Y-26160000D02*
X92010000Y-22350000D01*
%TO.N,Net-(D8-K)*%
X89470000Y-26160000D02*
X89470000Y-27430000D01*
X89470000Y-27430000D02*
X93280000Y-31240000D01*
%TO.N,Net-(D9-A)*%
X107250000Y-26160000D02*
X107250000Y-22350000D01*
X107250000Y-22350000D02*
X105980000Y-21080000D01*
%TO.N,Net-(D10-A)*%
X122490000Y-22350000D02*
X121220000Y-21080000D01*
X122490000Y-26160000D02*
X122490000Y-22350000D01*
%TO.N,Net-(D11-A)*%
X15810000Y-47750000D02*
X14540000Y-46480000D01*
X15810000Y-51560000D02*
X15810000Y-47750000D01*
%TO.N,Net-(D11-K)*%
X13270000Y-52830000D02*
X17080000Y-56640000D01*
X13270000Y-51560000D02*
X13270000Y-52830000D01*
%TO.N,Net-(D12-A)*%
X31050000Y-51560000D02*
X31050000Y-47750000D01*
X31050000Y-47750000D02*
X29780000Y-46480000D01*
%TO.N,Net-(D12-K)*%
X28510000Y-51560000D02*
X28510000Y-52830000D01*
X28510000Y-52830000D02*
X32320000Y-56640000D01*
%TO.N,Net-(D13-A)*%
X46290000Y-47750000D02*
X45020000Y-46480000D01*
X46290000Y-51560000D02*
X46290000Y-47750000D01*
%TO.N,Net-(D13-K)*%
X43750000Y-52830000D02*
X43750000Y-51560000D01*
X47560000Y-56640000D02*
X43750000Y-52830000D01*
%TO.N,Net-(D14-A)*%
X61530000Y-51560000D02*
X61530000Y-47750000D01*
X61530000Y-47750000D02*
X60260000Y-46480000D01*
%TO.N,Net-(D14-K)*%
X62800000Y-56640000D02*
X62800000Y-56596700D01*
X62800000Y-56596700D02*
X58990000Y-52786700D01*
X58990000Y-51560000D02*
X58990000Y-52786700D01*
%TO.N,Net-(D15-A)*%
X76770000Y-47750000D02*
X76770000Y-51560000D01*
X75500000Y-46480000D02*
X76770000Y-47750000D01*
%TO.N,Net-(D16-A)*%
X92010000Y-51560000D02*
X92010000Y-47750000D01*
X92010000Y-47750000D02*
X90740000Y-46480000D01*
%TO.N,Net-(D16-K)*%
X89470000Y-51560000D02*
X89470000Y-52786700D01*
X93280000Y-56640000D02*
X93280000Y-56596700D01*
X93280000Y-56596700D02*
X89470000Y-52786700D01*
%TO.N,Net-(D17-A)*%
X107250000Y-47750000D02*
X105980000Y-46480000D01*
X107250000Y-51560000D02*
X107250000Y-47750000D01*
%TO.N,Net-(D17-K)*%
X104710000Y-52830000D02*
X108520000Y-56640000D01*
X104710000Y-51560000D02*
X104710000Y-52830000D01*
%TO.N,Net-(D18-A)*%
X122490000Y-47750000D02*
X121220000Y-46480000D01*
X122490000Y-51560000D02*
X122490000Y-47750000D01*
%TO.N,Net-(D18-K)*%
X123760000Y-56640000D02*
X123760000Y-56596700D01*
X119950000Y-51560000D02*
X119950000Y-52786700D01*
X123760000Y-56596700D02*
X119950000Y-52786700D01*
%TO.N,Net-(D19-A)*%
X15810000Y-73150000D02*
X14540000Y-71880000D01*
X15810000Y-76960000D02*
X15810000Y-73150000D01*
%TO.N,Net-(D19-K)*%
X13270000Y-76960000D02*
X13270000Y-78230000D01*
X13270000Y-78230000D02*
X17080000Y-82040000D01*
%TO.N,Net-(D20-K)*%
X32320000Y-82040000D02*
X32320000Y-81996700D01*
X32320000Y-81996700D02*
X28510000Y-78186700D01*
X28510000Y-76960000D02*
X28510000Y-78186700D01*
%TO.N,Net-(D21-A)*%
X46290000Y-76960000D02*
X46290000Y-73150000D01*
X46290000Y-73150000D02*
X45020000Y-71880000D01*
%TO.N,Net-(D21-K)*%
X43750000Y-76960000D02*
X43750000Y-78186700D01*
X47560000Y-81996700D02*
X43750000Y-78186700D01*
X47560000Y-82040000D02*
X47560000Y-81996700D01*
%TO.N,Net-(D22-A)*%
X61530000Y-73150000D02*
X61530000Y-76960000D01*
X60260000Y-71880000D02*
X61530000Y-73150000D01*
%TO.N,Net-(D22-K)*%
X62800000Y-82040000D02*
X58990000Y-78230000D01*
X58990000Y-78230000D02*
X58990000Y-76960000D01*
%TO.N,Net-(D23-A)*%
X76770000Y-76960000D02*
X76770000Y-73150000D01*
X76770000Y-73150000D02*
X75500000Y-71880000D01*
%TO.N,Net-(D23-K)*%
X74230000Y-76960000D02*
X74230000Y-78230000D01*
X74230000Y-78230000D02*
X78040000Y-82040000D01*
%TO.N,Net-(D24-A)*%
X90740000Y-71880000D02*
X90740000Y-75690000D01*
X90740000Y-75690000D02*
X92010000Y-76960000D01*
%TO.N,Net-(D24-K)*%
X89470000Y-76960000D02*
X89470000Y-78186700D01*
X93280000Y-82040000D02*
X93280000Y-81996700D01*
X93280000Y-81996700D02*
X89470000Y-78186700D01*
%TO.N,Net-(D25-A)*%
X107250000Y-73150000D02*
X105980000Y-71880000D01*
X107250000Y-76960000D02*
X107250000Y-73150000D01*
%TO.N,Net-(D25-K)*%
X104710000Y-76960000D02*
X104710000Y-78186700D01*
X108520000Y-81996700D02*
X104710000Y-78186700D01*
X108520000Y-82040000D02*
X108520000Y-81996700D01*
%TO.N,Net-(D26-A)*%
X121220000Y-71880000D02*
X122490000Y-73150000D01*
X122490000Y-73150000D02*
X122490000Y-76960000D01*
%TO.N,Net-(D26-K)*%
X119950000Y-78230000D02*
X123760000Y-82040000D01*
X119950000Y-76960000D02*
X119950000Y-78230000D01*
%TO.N,Net-(D27-A)*%
X15810000Y-102360000D02*
X15810000Y-98550000D01*
X15810000Y-98550000D02*
X14540000Y-97280000D01*
%TO.N,Net-(D27-K)*%
X17080000Y-107396700D02*
X13270000Y-103586700D01*
X17080000Y-107440000D02*
X17080000Y-107396700D01*
X13270000Y-102360000D02*
X13270000Y-103586700D01*
%TO.N,Net-(D28-A)*%
X31050000Y-98550000D02*
X31050000Y-102360000D01*
X29780000Y-97280000D02*
X31050000Y-98550000D01*
%TO.N,Net-(D28-K)*%
X32320000Y-107440000D02*
X32320000Y-107396700D01*
X32320000Y-107396700D02*
X28510000Y-103586700D01*
X28510000Y-102360000D02*
X28510000Y-103586700D01*
%TO.N,Net-(D29-A)*%
X46290000Y-98550000D02*
X45020000Y-97280000D01*
X46290000Y-102360000D02*
X46290000Y-98550000D01*
%TO.N,Net-(D29-K)*%
X47560000Y-107440000D02*
X43750000Y-103630000D01*
X43750000Y-103630000D02*
X43750000Y-102360000D01*
%TO.N,Net-(D30-A)*%
X61530000Y-102360000D02*
X61530000Y-98550000D01*
X61530000Y-98550000D02*
X60260000Y-97280000D01*
%TO.N,Net-(D30-K)*%
X62800000Y-107440000D02*
X58990000Y-103630000D01*
X58990000Y-103630000D02*
X58990000Y-102360000D01*
%TO.N,Net-(D31-A)*%
X75500000Y-97280000D02*
X76770000Y-98550000D01*
X76770000Y-98550000D02*
X76770000Y-102360000D01*
%TO.N,Net-(D31-K)*%
X74230000Y-103586700D02*
X78040000Y-107396700D01*
X78040000Y-107396700D02*
X78040000Y-107440000D01*
X74230000Y-102360000D02*
X74230000Y-103586700D01*
%TO.N,Net-(D32-A)*%
X92010000Y-98550000D02*
X92010000Y-102360000D01*
X90740000Y-97280000D02*
X92010000Y-98550000D01*
%TO.N,Net-(D33-A)*%
X107250000Y-98550000D02*
X107250000Y-102360000D01*
X105980000Y-97280000D02*
X107250000Y-98550000D01*
%TO.N,Net-(D33-K)*%
X108520000Y-107440000D02*
X108520000Y-107396700D01*
X108520000Y-107396700D02*
X104710000Y-103586700D01*
X104710000Y-102360000D02*
X104710000Y-103586700D01*
%TO.N,Net-(D34-A)*%
X122490000Y-98550000D02*
X122490000Y-102360000D01*
X121220000Y-97280000D02*
X122490000Y-98550000D01*
%TO.N,Net-(D34-K)*%
X119950000Y-103630000D02*
X123760000Y-107440000D01*
X119950000Y-102360000D02*
X119950000Y-103630000D01*
%TO.N,Net-(D35-A)*%
X15810000Y-123950000D02*
X14540000Y-122680000D01*
X15810000Y-127760000D02*
X15810000Y-123950000D01*
%TO.N,Net-(D35-K)*%
X13270000Y-129030000D02*
X17080000Y-132840000D01*
X13270000Y-127760000D02*
X13270000Y-129030000D01*
%TO.N,Net-(D36-A)*%
X29780000Y-122680000D02*
X31050000Y-123950000D01*
X31050000Y-123950000D02*
X31050000Y-127760000D01*
%TO.N,Net-(D36-K)*%
X28510000Y-127760000D02*
X28510000Y-128986700D01*
X32320000Y-132840000D02*
X32320000Y-132796700D01*
X32320000Y-132796700D02*
X28510000Y-128986700D01*
%TO.N,Net-(D37-A)*%
X45020000Y-122680000D02*
X46290000Y-123950000D01*
X46290000Y-123950000D02*
X46290000Y-127760000D01*
%TO.N,Net-(D37-K)*%
X43750000Y-127760000D02*
X43750000Y-129030000D01*
X43750000Y-129030000D02*
X47560000Y-132840000D01*
%TO.N,Net-(D38-A)*%
X60260000Y-122680000D02*
X61530000Y-123950000D01*
X61530000Y-123950000D02*
X61530000Y-127760000D01*
%TO.N,Net-(D38-K)*%
X62800000Y-132840000D02*
X58990000Y-129030000D01*
X58990000Y-129030000D02*
X58990000Y-127760000D01*
%TO.N,Net-(D39-A)*%
X76770000Y-123950000D02*
X76770000Y-127760000D01*
X75500000Y-122680000D02*
X76770000Y-123950000D01*
%TO.N,Net-(D39-K)*%
X74230000Y-127760000D02*
X74230000Y-129030000D01*
X74230000Y-129030000D02*
X78040000Y-132840000D01*
%TO.N,Net-(D40-A)*%
X92010000Y-127760000D02*
X92010000Y-123950000D01*
X92010000Y-123950000D02*
X90740000Y-122680000D01*
%TO.N,Net-(D40-K)*%
X89470000Y-127760000D02*
X89470000Y-128986700D01*
X93280000Y-132796700D02*
X89470000Y-128986700D01*
X93280000Y-132840000D02*
X93280000Y-132796700D01*
%TO.N,Net-(D41-A)*%
X107250000Y-123950000D02*
X105980000Y-122680000D01*
X107250000Y-127760000D02*
X107250000Y-123950000D01*
%TO.N,Net-(D41-K)*%
X104710000Y-129030000D02*
X108520000Y-132840000D01*
X104710000Y-127760000D02*
X104710000Y-129030000D01*
%TO.N,Net-(D42-A)*%
X122490000Y-123950000D02*
X122490000Y-127760000D01*
X121220000Y-122680000D02*
X122490000Y-123950000D01*
%TO.N,Net-(D43-A)*%
X15810000Y-149350000D02*
X15810000Y-153160000D01*
X14540000Y-148080000D02*
X15810000Y-149350000D01*
%TO.N,Net-(D43-K)*%
X17080000Y-158240000D02*
X17080000Y-158196700D01*
X17080000Y-158196700D02*
X13270000Y-154386700D01*
X13270000Y-153160000D02*
X13270000Y-154386700D01*
%TO.N,Net-(D44-A)*%
X31050000Y-149350000D02*
X29780000Y-148080000D01*
X31050000Y-153160000D02*
X31050000Y-149350000D01*
%TO.N,Net-(D44-K)*%
X32320000Y-158196700D02*
X28510000Y-154386700D01*
X32320000Y-158240000D02*
X32320000Y-158196700D01*
X28510000Y-153160000D02*
X28510000Y-154386700D01*
%TO.N,Net-(R7-Pad1)*%
X158380000Y-34000000D02*
X160000000Y-34000000D01*
X151620000Y-27240000D02*
X158380000Y-34000000D01*
%TO.N,Net-(R23-Pad1)*%
X142500000Y-144500000D02*
X143500000Y-144500000D01*
X143500000Y-144500000D02*
X150000000Y-138000000D01*
%TO.N,OI*%
X164837600Y-71917600D02*
X159526200Y-71917600D01*
X103439600Y-201245900D02*
X103019700Y-201665800D01*
X102599800Y-189987900D02*
X103439600Y-190827700D01*
X167758300Y-184030200D02*
X167758300Y-185758300D01*
X163407700Y-176748500D02*
X162488200Y-177668000D01*
X166000000Y-73080000D02*
X164837600Y-71917600D01*
X101148600Y-167599700D02*
X99076500Y-165527600D01*
X158864400Y-72579400D02*
X158864400Y-75270900D01*
X158864400Y-75270900D02*
X163407700Y-79814200D01*
X159526200Y-71917600D02*
X158864400Y-72579400D01*
X101148600Y-201665800D02*
X101148600Y-211111400D01*
X103019700Y-201665800D02*
X101148600Y-201665800D01*
X102599800Y-188065200D02*
X102599800Y-189987900D01*
X163407700Y-79814200D02*
X163407700Y-176748500D01*
X162488200Y-177668000D02*
X162488200Y-180353200D01*
X167758300Y-185758300D02*
X170000000Y-188000000D01*
X103439600Y-190827700D02*
X103439600Y-201245900D01*
X101148600Y-201665800D02*
X101148600Y-167599700D01*
X101148600Y-211111400D02*
X100800000Y-211460000D01*
%TO.N,PC0*%
X132896700Y-201526600D02*
X132493200Y-201930100D01*
X132896700Y-68316700D02*
X132896700Y-201526600D01*
X121220000Y-56640000D02*
X132896700Y-68316700D01*
%TO.N,PC1*%
X102712800Y-200897800D02*
X101600300Y-199785300D01*
X101600300Y-61019700D02*
X105980000Y-56640000D01*
X101600300Y-199785300D02*
X101600300Y-61019700D01*
%TO.N,PC2*%
X86608200Y-199640300D02*
X86080700Y-200167800D01*
X164000000Y-198000000D02*
X162873300Y-199126700D01*
X86080700Y-200167800D02*
X86080700Y-206439200D01*
X86608200Y-199640300D02*
X86608200Y-98701000D01*
X149737100Y-199126700D02*
X148220000Y-197609600D01*
X94387700Y-60287700D02*
X90740000Y-56640000D01*
X162873300Y-199126700D02*
X149737100Y-199126700D01*
X94387700Y-90921500D02*
X94387700Y-60287700D01*
X87135800Y-199640300D02*
X86608200Y-199640300D01*
X86608200Y-98701000D02*
X94387700Y-90921500D01*
%TO.N,PC3*%
X83226100Y-170410100D02*
X82845900Y-170029900D01*
X83226100Y-200978600D02*
X83226100Y-170410100D01*
X73003300Y-59136700D02*
X75500000Y-56640000D01*
X74070800Y-87017900D02*
X74070800Y-79694700D01*
X82845900Y-95793000D02*
X74070800Y-87017900D01*
X82845900Y-170029900D02*
X82845900Y-95793000D01*
X74070800Y-79694700D02*
X73003300Y-78627200D01*
X73003300Y-78627200D02*
X73003300Y-59136700D01*
X77940000Y-206264700D02*
X83226100Y-200978600D01*
X77940000Y-211460000D02*
X77940000Y-206264700D01*
%TO.N,PCE*%
X104472000Y-209336900D02*
X106144800Y-207664100D01*
X104472000Y-209892600D02*
X104472000Y-209336900D01*
X109597100Y-175029000D02*
X109761900Y-175029000D01*
X109597100Y-175029000D02*
X109597100Y-136457100D01*
X109597100Y-136457100D02*
X105980000Y-132840000D01*
X104693300Y-210113900D02*
X104472000Y-209892600D01*
X106144800Y-199682300D02*
X109597100Y-196230000D01*
X162651900Y-175029000D02*
X162857200Y-174823700D01*
X104693300Y-212813300D02*
X104693300Y-210113900D01*
X106144800Y-207664100D02*
X106144800Y-199682300D01*
X162857200Y-93937200D02*
X160000000Y-91080000D01*
X105880000Y-214000000D02*
X104693300Y-212813300D01*
X162857200Y-174823700D02*
X162857200Y-93937200D01*
X109597100Y-196230000D02*
X109597100Y-175029000D01*
%TO.N,PCL*%
X114218300Y-195622200D02*
X114218300Y-139841700D01*
X131347500Y-88853200D02*
X131170600Y-89030100D01*
X131170600Y-89030100D02*
X131170600Y-122889400D01*
X131170600Y-122889400D02*
X121220000Y-132840000D01*
X114218300Y-203121700D02*
X114218300Y-195622200D01*
X114218300Y-139841700D02*
X121220000Y-132840000D01*
X105880000Y-211460000D02*
X114218300Y-203121700D01*
%TO.N,RST*%
X150434900Y-175554500D02*
X150000000Y-175119600D01*
X60260000Y-107440000D02*
X67981200Y-115161200D01*
X67981200Y-185218000D02*
X66476000Y-186723200D01*
X180578400Y-194490100D02*
X180040000Y-193951700D01*
X65732000Y-215186900D02*
X58806900Y-215186900D01*
X66476000Y-214442900D02*
X65732000Y-215186900D01*
X150000000Y-175119600D02*
X150000000Y-167000000D01*
X67981200Y-115161200D02*
X67981200Y-185218000D01*
X66476000Y-186723200D02*
X66476000Y-214442900D01*
X180578400Y-202193100D02*
X180578400Y-194490100D01*
X58806900Y-215186900D02*
X57620000Y-214000000D01*
%TO.N,RST_N*%
X45020000Y-173480000D02*
X46955900Y-175415900D01*
X46955900Y-175415900D02*
X58324700Y-175415900D01*
%TO.N,RST_S1*%
X47560000Y-172368700D02*
X47560000Y-173480000D01*
X47560000Y-170940000D02*
X47560000Y-172368700D01*
X45020000Y-168400000D02*
X47560000Y-170940000D01*
X47560000Y-172368700D02*
X59148700Y-172368700D01*
X59148700Y-172368700D02*
X60260000Y-173480000D01*
%TO.N,SUB*%
X93180000Y-213230200D02*
X93180000Y-214000000D01*
X82324200Y-114264200D02*
X75500000Y-107440000D01*
X82774400Y-174206600D02*
X82774400Y-170597200D01*
X188000000Y-74441700D02*
X168890000Y-55331700D01*
X82492100Y-174488900D02*
X82774400Y-174206600D01*
X90474900Y-174478000D02*
X91989500Y-175992600D01*
X82774400Y-170597200D02*
X82324200Y-170147000D01*
X188000000Y-178000000D02*
X188000000Y-74441700D01*
X82324200Y-170147000D02*
X82324200Y-114264200D01*
X91989500Y-175992600D02*
X91989500Y-212039700D01*
X91989500Y-212039700D02*
X93180000Y-213230200D01*
%TO.N,ZF*%
X90640000Y-211460000D02*
X91941900Y-212761900D01*
X34327500Y-211006400D02*
X34327500Y-112626200D01*
X41469600Y-218148500D02*
X34327500Y-211006400D01*
X29780000Y-108078700D02*
X29780000Y-107440000D01*
X91941900Y-212761900D02*
X91941900Y-216703100D01*
X170000000Y-208000000D02*
X173623200Y-211623200D01*
X34327500Y-112626200D02*
X29780000Y-108078700D01*
X173623200Y-211623200D02*
X173930200Y-211623200D01*
X91941900Y-216703100D02*
X92984300Y-217745500D01*
%TD*%
M02*
