%TF.GenerationSoftware,KiCad,Pcbnew,10.0.5*%
%TF.CreationDate,2026-09-11T05:48:21-04:00*%
%TF.ProjectId,alu2,616c7532-2e6b-4696-9361-645f70636258,rev?*%
%TF.SameCoordinates,Original*%
%TF.FileFunction,Other,User*%
%FSLAX46Y46*%
G04 Gerber Fmt 4.6, Leading zero omitted, Abs format (unit mm)*
G04 Created by KiCad (PCBNEW 10.0.5) date 2026-09-11 05:48:21*
%MOMM*%
%LPD*%
G01*
G04 APERTURE LIST*
%ADD10C,0.050000*%
G04 APERTURE END LIST*
%TO.C,Q10*%
D10*
X15670000Y-17800000D02*
X15670000Y-22540000D01*
X15670000Y-17800000D02*
X22770000Y-17800000D01*
X22770000Y-22540000D02*
X15670000Y-22540000D01*
X22770000Y-22540000D02*
X22770000Y-17800000D01*
%TO.C,Q21*%
X23350000Y-31050000D02*
X23350000Y-35790000D01*
X23350000Y-31050000D02*
X30450000Y-31050000D01*
X30450000Y-35790000D02*
X23350000Y-35790000D01*
X30450000Y-35790000D02*
X30450000Y-31050000D01*
%TO.C,Q59*%
X54070000Y-25970000D02*
X54070000Y-30710000D01*
X54070000Y-25970000D02*
X61170000Y-25970000D01*
X61170000Y-30710000D02*
X54070000Y-30710000D01*
X61170000Y-30710000D02*
X61170000Y-25970000D01*
%TO.C,C2*%
X97750000Y-27000000D02*
G75*
G02*
X92250000Y-27000000I-2750000J0D01*
G01*
X92250000Y-27000000D02*
G75*
G02*
X97750000Y-27000000I2750000J0D01*
G01*
%TO.C,Q50*%
X46390000Y-36215000D02*
X46390000Y-40955000D01*
X46390000Y-36215000D02*
X53490000Y-36215000D01*
X53490000Y-40955000D02*
X46390000Y-40955000D01*
X53490000Y-40955000D02*
X53490000Y-36215000D01*
%TO.C,R19*%
X30540000Y-41170000D02*
X38170000Y-41170000D01*
X38170000Y-44170000D01*
X30540000Y-44170000D01*
X30540000Y-41170000D01*
%TO.C,R40*%
X61260000Y-14500000D02*
X68890000Y-14500000D01*
X68890000Y-17500000D01*
X61260000Y-17500000D01*
X61260000Y-14500000D01*
%TO.C,Q62*%
X54070000Y-47560000D02*
X54070000Y-52300000D01*
X54070000Y-47560000D02*
X61170000Y-47560000D01*
X61170000Y-52300000D02*
X54070000Y-52300000D01*
X61170000Y-52300000D02*
X61170000Y-47560000D01*
%TO.C,R8*%
X15180000Y-27835000D02*
X22810000Y-27835000D01*
X22810000Y-30835000D01*
X15180000Y-30835000D01*
X15180000Y-27835000D01*
%TO.C,Q6*%
X7990000Y-55815000D02*
X7990000Y-60555000D01*
X7990000Y-55815000D02*
X15090000Y-55815000D01*
X15090000Y-60555000D02*
X7990000Y-60555000D01*
X15090000Y-60555000D02*
X15090000Y-55815000D01*
%TO.C,R14*%
X22860000Y-41170000D02*
X30490000Y-41170000D01*
X30490000Y-44170000D01*
X22860000Y-44170000D01*
X22860000Y-41170000D01*
%TO.C,H2*%
X99450000Y-50000000D02*
G75*
G02*
X92550000Y-50000000I-3450000J0D01*
G01*
X92550000Y-50000000D02*
G75*
G02*
X99450000Y-50000000I3450000J0D01*
G01*
%TO.C,Q28*%
X31030000Y-17800000D02*
X31030000Y-22540000D01*
X31030000Y-17800000D02*
X38130000Y-17800000D01*
X38130000Y-22540000D02*
X31030000Y-22540000D01*
X38130000Y-22540000D02*
X38130000Y-17800000D01*
%TO.C,Q49*%
X46390000Y-31135000D02*
X46390000Y-35875000D01*
X46390000Y-31135000D02*
X53490000Y-31135000D01*
X53490000Y-35875000D02*
X46390000Y-35875000D01*
X53490000Y-35875000D02*
X53490000Y-31135000D01*
%TO.C,Q65*%
X54070000Y-65975000D02*
X54070000Y-70715000D01*
X54070000Y-65975000D02*
X61170000Y-65975000D01*
X61170000Y-70715000D02*
X54070000Y-70715000D01*
X61170000Y-70715000D02*
X61170000Y-65975000D01*
%TO.C,J3*%
X74400000Y-88780000D02*
X90690000Y-88780000D01*
X90690000Y-98680000D01*
X74400000Y-98680000D01*
X74400000Y-88780000D01*
%TO.C,Q46*%
X38710000Y-74230000D02*
X38710000Y-78970000D01*
X38710000Y-74230000D02*
X45810000Y-74230000D01*
X45810000Y-78970000D02*
X38710000Y-78970000D01*
X45810000Y-78970000D02*
X45810000Y-74230000D01*
%TO.C,J1*%
X5030000Y-1280000D02*
X94970000Y-1280000D01*
X94970000Y-11180000D01*
X5030000Y-11180000D01*
X5030000Y-1280000D01*
%TO.C,Q60*%
X54070000Y-31050000D02*
X54070000Y-35790000D01*
X54070000Y-31050000D02*
X61170000Y-31050000D01*
X61170000Y-35790000D02*
X54070000Y-35790000D01*
X61170000Y-35790000D02*
X61170000Y-31050000D01*
%TO.C,Q15*%
X15670000Y-49550000D02*
X15670000Y-54290000D01*
X15670000Y-49550000D02*
X22770000Y-49550000D01*
X22770000Y-54290000D02*
X15670000Y-54290000D01*
X22770000Y-54290000D02*
X22770000Y-49550000D01*
%TO.C,Q37*%
X31030000Y-79395000D02*
X31030000Y-84135000D01*
X31030000Y-79395000D02*
X38130000Y-79395000D01*
X38130000Y-84135000D02*
X31030000Y-84135000D01*
X38130000Y-84135000D02*
X38130000Y-79395000D01*
%TO.C,Q64*%
X54070000Y-60895000D02*
X54070000Y-65635000D01*
X54070000Y-60895000D02*
X61170000Y-60895000D01*
X61170000Y-65635000D02*
X54070000Y-65635000D01*
X61170000Y-65635000D02*
X61170000Y-60895000D01*
%TO.C,Q48*%
X46390000Y-22880000D02*
X46390000Y-27620000D01*
X46390000Y-22880000D02*
X53490000Y-22880000D01*
X53490000Y-27620000D02*
X46390000Y-27620000D01*
X53490000Y-27620000D02*
X53490000Y-22880000D01*
%TO.C,C1*%
X93500000Y-15000000D02*
X96500000Y-15000000D01*
X96500000Y-20500000D01*
X93500000Y-20500000D01*
X93500000Y-15000000D01*
%TO.C,Q4*%
X7990000Y-39305000D02*
X7990000Y-44045000D01*
X7990000Y-39305000D02*
X15090000Y-39305000D01*
X15090000Y-44045000D02*
X7990000Y-44045000D01*
X15090000Y-44045000D02*
X15090000Y-39305000D01*
%TO.C,R23*%
X38220000Y-14500000D02*
X45850000Y-14500000D01*
X45850000Y-17500000D01*
X38220000Y-17500000D01*
X38220000Y-14500000D01*
%TO.C,R26*%
X38220000Y-49425000D02*
X45850000Y-49425000D01*
X45850000Y-52425000D01*
X38220000Y-52425000D01*
X38220000Y-49425000D01*
%TO.C,Q45*%
X38710000Y-69150000D02*
X38710000Y-73890000D01*
X38710000Y-69150000D02*
X45810000Y-69150000D01*
X45810000Y-73890000D02*
X38710000Y-73890000D01*
X45810000Y-73890000D02*
X45810000Y-69150000D01*
%TO.C,Q34*%
X31030000Y-60980000D02*
X31030000Y-65720000D01*
X31030000Y-60980000D02*
X38130000Y-60980000D01*
X38130000Y-65720000D02*
X31030000Y-65720000D01*
X38130000Y-65720000D02*
X38130000Y-60980000D01*
%TO.C,Q41*%
X38710000Y-36130000D02*
X38710000Y-40870000D01*
X38710000Y-36130000D02*
X45810000Y-36130000D01*
X45810000Y-40870000D02*
X38710000Y-40870000D01*
X45810000Y-40870000D02*
X45810000Y-36130000D01*
%TO.C,R33*%
X45900000Y-67840000D02*
X53530000Y-67840000D01*
X53530000Y-70840000D01*
X45900000Y-70840000D01*
X45900000Y-67840000D01*
%TO.C,Q40*%
X38710000Y-31050000D02*
X38710000Y-35790000D01*
X38710000Y-31050000D02*
X45810000Y-31050000D01*
X45810000Y-35790000D02*
X38710000Y-35790000D01*
X45810000Y-35790000D02*
X45810000Y-31050000D01*
%TO.C,R2*%
X7500000Y-22755000D02*
X15130000Y-22755000D01*
X15130000Y-25755000D01*
X7500000Y-25755000D01*
X7500000Y-22755000D01*
%TO.C,R16*%
X22860000Y-62760000D02*
X30490000Y-62760000D01*
X30490000Y-65760000D01*
X22860000Y-65760000D01*
X22860000Y-62760000D01*
%TO.C,R9*%
X15180000Y-41170000D02*
X22810000Y-41170000D01*
X22810000Y-44170000D01*
X15180000Y-44170000D01*
X15180000Y-41170000D01*
%TO.C,R21*%
X30540000Y-57680000D02*
X38170000Y-57680000D01*
X38170000Y-60680000D01*
X30540000Y-60680000D01*
X30540000Y-57680000D01*
%TO.C,Q2*%
X7990000Y-25970000D02*
X7990000Y-30710000D01*
X7990000Y-25970000D02*
X15090000Y-25970000D01*
X15090000Y-30710000D02*
X7990000Y-30710000D01*
X15090000Y-30710000D02*
X15090000Y-25970000D01*
%TO.C,Q53*%
X46390000Y-57805000D02*
X46390000Y-62545000D01*
X46390000Y-57805000D02*
X53490000Y-57805000D01*
X53490000Y-62545000D02*
X46390000Y-62545000D01*
X53490000Y-62545000D02*
X53490000Y-57805000D01*
%TO.C,Q25*%
X23350000Y-57720000D02*
X23350000Y-62460000D01*
X23350000Y-57720000D02*
X30450000Y-57720000D01*
X30450000Y-62460000D02*
X23350000Y-62460000D01*
X30450000Y-62460000D02*
X30450000Y-57720000D01*
%TO.C,D1*%
X63090000Y-18660000D02*
X67510000Y-18660000D01*
X67510000Y-23500000D01*
X63090000Y-23500000D01*
X63090000Y-18660000D01*
%TO.C,Q18*%
X15670000Y-71140000D02*
X15670000Y-75880000D01*
X15670000Y-71140000D02*
X22770000Y-71140000D01*
X22770000Y-75880000D02*
X15670000Y-75880000D01*
X22770000Y-75880000D02*
X22770000Y-71140000D01*
%TO.C,Q16*%
X15670000Y-57805000D02*
X15670000Y-62545000D01*
X15670000Y-57805000D02*
X22770000Y-57805000D01*
X22770000Y-62545000D02*
X15670000Y-62545000D01*
X22770000Y-62545000D02*
X22770000Y-57805000D01*
%TO.C,J2*%
X8400000Y-88780000D02*
X24690000Y-88780000D01*
X24690000Y-98680000D01*
X8400000Y-98680000D01*
X8400000Y-88780000D01*
%TO.C,R18*%
X30540000Y-27835000D02*
X38170000Y-27835000D01*
X38170000Y-30835000D01*
X30540000Y-30835000D01*
X30540000Y-27835000D01*
%TO.C,Q30*%
X31030000Y-31135000D02*
X31030000Y-35875000D01*
X31030000Y-31135000D02*
X38130000Y-31135000D01*
X38130000Y-35875000D02*
X31030000Y-35875000D01*
X38130000Y-35875000D02*
X38130000Y-31135000D01*
%TO.C,Q61*%
X54070000Y-39305000D02*
X54070000Y-44045000D01*
X54070000Y-39305000D02*
X61170000Y-39305000D01*
X61170000Y-44045000D02*
X54070000Y-44045000D01*
X61170000Y-44045000D02*
X61170000Y-39305000D01*
%TO.C,R10*%
X15180000Y-54505000D02*
X22810000Y-54505000D01*
X22810000Y-57505000D01*
X15180000Y-57505000D01*
X15180000Y-54505000D01*
%TO.C,Q57*%
X46390000Y-81300000D02*
X46390000Y-86040000D01*
X46390000Y-81300000D02*
X53490000Y-81300000D01*
X53490000Y-86040000D02*
X46390000Y-86040000D01*
X53490000Y-86040000D02*
X53490000Y-81300000D01*
%TO.C,R25*%
X38220000Y-41170000D02*
X45850000Y-41170000D01*
X45850000Y-44170000D01*
X38220000Y-44170000D01*
X38220000Y-41170000D01*
%TO.C,R36*%
X53580000Y-36090000D02*
X61210000Y-36090000D01*
X61210000Y-39090000D01*
X53580000Y-39090000D01*
X53580000Y-36090000D01*
%TO.C,R35*%
X53580000Y-22755000D02*
X61210000Y-22755000D01*
X61210000Y-25755000D01*
X53580000Y-25755000D01*
X53580000Y-22755000D01*
%TO.C,Q31*%
X31030000Y-36215000D02*
X31030000Y-40955000D01*
X31030000Y-36215000D02*
X38130000Y-36215000D01*
X38130000Y-40955000D02*
X31030000Y-40955000D01*
X38130000Y-40955000D02*
X38130000Y-36215000D01*
%TO.C,Q1*%
X7990000Y-17715000D02*
X7990000Y-22455000D01*
X7990000Y-17715000D02*
X15090000Y-17715000D01*
X15090000Y-22455000D02*
X7990000Y-22455000D01*
X15090000Y-22455000D02*
X15090000Y-17715000D01*
%TO.C,Q42*%
X38710000Y-44385000D02*
X38710000Y-49125000D01*
X38710000Y-44385000D02*
X45810000Y-44385000D01*
X45810000Y-49125000D02*
X38710000Y-49125000D01*
X45810000Y-49125000D02*
X45810000Y-44385000D01*
%TO.C,Q22*%
X23350000Y-36130000D02*
X23350000Y-40870000D01*
X23350000Y-36130000D02*
X30450000Y-36130000D01*
X30450000Y-40870000D02*
X23350000Y-40870000D01*
X30450000Y-40870000D02*
X30450000Y-36130000D01*
%TO.C,Q58*%
X54070000Y-17715000D02*
X54070000Y-22455000D01*
X54070000Y-17715000D02*
X61170000Y-17715000D01*
X61170000Y-22455000D02*
X54070000Y-22455000D01*
X61170000Y-22455000D02*
X61170000Y-17715000D01*
%TO.C,Q35*%
X31030000Y-66060000D02*
X31030000Y-70800000D01*
X31030000Y-66060000D02*
X38130000Y-66060000D01*
X38130000Y-70800000D02*
X31030000Y-70800000D01*
X38130000Y-70800000D02*
X38130000Y-66060000D01*
%TO.C,R30*%
X45900000Y-27835000D02*
X53530000Y-27835000D01*
X53530000Y-30835000D01*
X45900000Y-30835000D01*
X45900000Y-27835000D01*
%TO.C,R20*%
X30540000Y-49425000D02*
X38170000Y-49425000D01*
X38170000Y-52425000D01*
X30540000Y-52425000D01*
X30540000Y-49425000D01*
%TO.C,Q52*%
X46390000Y-49550000D02*
X46390000Y-54290000D01*
X46390000Y-49550000D02*
X53490000Y-49550000D01*
X53490000Y-54290000D02*
X46390000Y-54290000D01*
X53490000Y-54290000D02*
X53490000Y-49550000D01*
%TO.C,R17*%
X30540000Y-14500000D02*
X38170000Y-14500000D01*
X38170000Y-17500000D01*
X30540000Y-17500000D01*
X30540000Y-14500000D01*
%TO.C,R15*%
X22860000Y-49425000D02*
X30490000Y-49425000D01*
X30490000Y-52425000D01*
X22860000Y-52425000D01*
X22860000Y-49425000D01*
%TO.C,Q32*%
X31030000Y-44470000D02*
X31030000Y-49210000D01*
X31030000Y-44470000D02*
X38130000Y-44470000D01*
X38130000Y-49210000D02*
X31030000Y-49210000D01*
X38130000Y-49210000D02*
X38130000Y-44470000D01*
%TO.C,Q26*%
X23350000Y-65975000D02*
X23350000Y-70715000D01*
X23350000Y-65975000D02*
X30450000Y-65975000D01*
X30450000Y-70715000D02*
X23350000Y-70715000D01*
X30450000Y-70715000D02*
X30450000Y-65975000D01*
%TO.C,R13*%
X22860000Y-27835000D02*
X30490000Y-27835000D01*
X30490000Y-30835000D01*
X22860000Y-30835000D01*
X22860000Y-27835000D01*
%TO.C,Q19*%
X23350000Y-17715000D02*
X23350000Y-22455000D01*
X23350000Y-17715000D02*
X30450000Y-17715000D01*
X30450000Y-22455000D02*
X23350000Y-22455000D01*
X30450000Y-22455000D02*
X30450000Y-17715000D01*
%TO.C,Q36*%
X31030000Y-74315000D02*
X31030000Y-79055000D01*
X31030000Y-74315000D02*
X38130000Y-74315000D01*
X38130000Y-79055000D02*
X31030000Y-79055000D01*
X38130000Y-79055000D02*
X38130000Y-74315000D01*
%TO.C,Q63*%
X54070000Y-52640000D02*
X54070000Y-57380000D01*
X54070000Y-52640000D02*
X61170000Y-52640000D01*
X61170000Y-57380000D02*
X54070000Y-57380000D01*
X61170000Y-57380000D02*
X61170000Y-52640000D01*
%TO.C,Q9*%
X7990000Y-74230000D02*
X7990000Y-78970000D01*
X7990000Y-74230000D02*
X15090000Y-74230000D01*
X15090000Y-78970000D02*
X7990000Y-78970000D01*
X15090000Y-78970000D02*
X15090000Y-74230000D01*
%TO.C,Q47*%
X46390000Y-17800000D02*
X46390000Y-22540000D01*
X46390000Y-17800000D02*
X53490000Y-17800000D01*
X53490000Y-22540000D02*
X46390000Y-22540000D01*
X53490000Y-22540000D02*
X53490000Y-17800000D01*
%TO.C,Q11*%
X15670000Y-22880000D02*
X15670000Y-27620000D01*
X15670000Y-22880000D02*
X22770000Y-22880000D01*
X22770000Y-27620000D02*
X15670000Y-27620000D01*
X22770000Y-27620000D02*
X22770000Y-22880000D01*
%TO.C,Q39*%
X38710000Y-22795000D02*
X38710000Y-27535000D01*
X38710000Y-22795000D02*
X45810000Y-22795000D01*
X45810000Y-27535000D02*
X38710000Y-27535000D01*
X45810000Y-27535000D02*
X45810000Y-22795000D01*
%TO.C,Q67*%
X54070000Y-79310000D02*
X54070000Y-84050000D01*
X54070000Y-79310000D02*
X61170000Y-79310000D01*
X61170000Y-84050000D02*
X54070000Y-84050000D01*
X61170000Y-84050000D02*
X61170000Y-79310000D01*
%TO.C,Q17*%
X15670000Y-66060000D02*
X15670000Y-70800000D01*
X15670000Y-66060000D02*
X22770000Y-66060000D01*
X22770000Y-70800000D02*
X15670000Y-70800000D01*
X22770000Y-70800000D02*
X22770000Y-66060000D01*
%TO.C,R4*%
X7500000Y-44345000D02*
X15130000Y-44345000D01*
X15130000Y-47345000D01*
X7500000Y-47345000D01*
X7500000Y-44345000D01*
%TO.C,Q51*%
X46390000Y-44470000D02*
X46390000Y-49210000D01*
X46390000Y-44470000D02*
X53490000Y-44470000D01*
X53490000Y-49210000D02*
X46390000Y-49210000D01*
X53490000Y-49210000D02*
X53490000Y-44470000D01*
%TO.C,R31*%
X45900000Y-41170000D02*
X53530000Y-41170000D01*
X53530000Y-44170000D01*
X45900000Y-44170000D01*
X45900000Y-41170000D01*
%TO.C,R11*%
X15180000Y-62760000D02*
X22810000Y-62760000D01*
X22810000Y-65760000D01*
X15180000Y-65760000D01*
X15180000Y-62760000D01*
%TO.C,R12*%
X22860000Y-14500000D02*
X30490000Y-14500000D01*
X30490000Y-17500000D01*
X22860000Y-17500000D01*
X22860000Y-14500000D01*
%TO.C,Q12*%
X15670000Y-31135000D02*
X15670000Y-35875000D01*
X15670000Y-31135000D02*
X22770000Y-31135000D01*
X22770000Y-35875000D02*
X15670000Y-35875000D01*
X22770000Y-35875000D02*
X22770000Y-31135000D01*
%TO.C,Q29*%
X31030000Y-22880000D02*
X31030000Y-27620000D01*
X31030000Y-22880000D02*
X38130000Y-22880000D01*
X38130000Y-27620000D02*
X31030000Y-27620000D01*
X38130000Y-27620000D02*
X38130000Y-22880000D01*
%TO.C,Q5*%
X7990000Y-47560000D02*
X7990000Y-52300000D01*
X7990000Y-47560000D02*
X15090000Y-47560000D01*
X15090000Y-52300000D02*
X7990000Y-52300000D01*
X15090000Y-52300000D02*
X15090000Y-47560000D01*
%TO.C,Q3*%
X7990000Y-34225000D02*
X7990000Y-38965000D01*
X7990000Y-34225000D02*
X15090000Y-34225000D01*
X15090000Y-38965000D02*
X7990000Y-38965000D01*
X15090000Y-38965000D02*
X15090000Y-34225000D01*
%TO.C,Q54*%
X46390000Y-62885000D02*
X46390000Y-67625000D01*
X46390000Y-62885000D02*
X53490000Y-62885000D01*
X53490000Y-67625000D02*
X46390000Y-67625000D01*
X53490000Y-67625000D02*
X53490000Y-62885000D01*
%TO.C,Q55*%
X46390000Y-71140000D02*
X46390000Y-75880000D01*
X46390000Y-71140000D02*
X53490000Y-71140000D01*
X53490000Y-75880000D02*
X46390000Y-75880000D01*
X53490000Y-75880000D02*
X53490000Y-71140000D01*
%TO.C,Q7*%
X7990000Y-60895000D02*
X7990000Y-65635000D01*
X7990000Y-60895000D02*
X15090000Y-60895000D01*
X15090000Y-65635000D02*
X7990000Y-65635000D01*
X15090000Y-65635000D02*
X15090000Y-60895000D01*
%TO.C,R27*%
X38220000Y-57680000D02*
X45850000Y-57680000D01*
X45850000Y-60680000D01*
X38220000Y-60680000D01*
X38220000Y-57680000D01*
%TO.C,R38*%
X53580000Y-57680000D02*
X61210000Y-57680000D01*
X61210000Y-60680000D01*
X53580000Y-60680000D01*
X53580000Y-57680000D01*
%TO.C,R7*%
X15180000Y-14500000D02*
X22810000Y-14500000D01*
X22810000Y-17500000D01*
X15180000Y-17500000D01*
X15180000Y-14500000D01*
%TO.C,Q14*%
X15670000Y-44470000D02*
X15670000Y-49210000D01*
X15670000Y-44470000D02*
X22770000Y-44470000D01*
X22770000Y-49210000D02*
X15670000Y-49210000D01*
X22770000Y-49210000D02*
X22770000Y-44470000D01*
%TO.C,R24*%
X38220000Y-27835000D02*
X45850000Y-27835000D01*
X45850000Y-30835000D01*
X38220000Y-30835000D01*
X38220000Y-27835000D01*
%TO.C,R22*%
X30540000Y-71015000D02*
X38170000Y-71015000D01*
X38170000Y-74015000D01*
X30540000Y-74015000D01*
X30540000Y-71015000D01*
%TO.C,Q56*%
X46390000Y-76220000D02*
X46390000Y-80960000D01*
X46390000Y-76220000D02*
X53490000Y-76220000D01*
X53490000Y-80960000D02*
X46390000Y-80960000D01*
X53490000Y-80960000D02*
X53490000Y-76220000D01*
%TO.C,R6*%
X7500000Y-65935000D02*
X15130000Y-65935000D01*
X15130000Y-68935000D01*
X7500000Y-68935000D01*
X7500000Y-65935000D01*
%TO.C,Q13*%
X15670000Y-36215000D02*
X15670000Y-40955000D01*
X15670000Y-36215000D02*
X22770000Y-36215000D01*
X22770000Y-40955000D02*
X15670000Y-40955000D01*
X22770000Y-40955000D02*
X22770000Y-36215000D01*
%TO.C,R28*%
X38220000Y-65935000D02*
X45850000Y-65935000D01*
X45850000Y-68935000D01*
X38220000Y-68935000D01*
X38220000Y-65935000D01*
%TO.C,Q38*%
X38710000Y-17715000D02*
X38710000Y-22455000D01*
X38710000Y-17715000D02*
X45810000Y-17715000D01*
X45810000Y-22455000D02*
X38710000Y-22455000D01*
X45810000Y-22455000D02*
X45810000Y-17715000D01*
%TO.C,R37*%
X53580000Y-44345000D02*
X61210000Y-44345000D01*
X61210000Y-47345000D01*
X53580000Y-47345000D01*
X53580000Y-44345000D01*
%TO.C,R34*%
X53580000Y-14500000D02*
X61210000Y-14500000D01*
X61210000Y-17500000D01*
X53580000Y-17500000D01*
X53580000Y-14500000D01*
%TO.C,R5*%
X7500000Y-52600000D02*
X15130000Y-52600000D01*
X15130000Y-55600000D01*
X7500000Y-55600000D01*
X7500000Y-52600000D01*
%TO.C,Q24*%
X23350000Y-52640000D02*
X23350000Y-57380000D01*
X23350000Y-52640000D02*
X30450000Y-52640000D01*
X30450000Y-57380000D02*
X23350000Y-57380000D01*
X30450000Y-57380000D02*
X30450000Y-52640000D01*
%TO.C,R32*%
X45900000Y-54505000D02*
X53530000Y-54505000D01*
X53530000Y-57505000D01*
X45900000Y-57505000D01*
X45900000Y-54505000D01*
%TO.C,R39*%
X53580000Y-71015000D02*
X61210000Y-71015000D01*
X61210000Y-74015000D01*
X53580000Y-74015000D01*
X53580000Y-71015000D01*
%TO.C,Q33*%
X31030000Y-52725000D02*
X31030000Y-57465000D01*
X31030000Y-52725000D02*
X38130000Y-52725000D01*
X38130000Y-57465000D02*
X31030000Y-57465000D01*
X38130000Y-57465000D02*
X38130000Y-52725000D01*
%TO.C,Q8*%
X7990000Y-69150000D02*
X7990000Y-73890000D01*
X7990000Y-69150000D02*
X15090000Y-69150000D01*
X15090000Y-73890000D02*
X7990000Y-73890000D01*
X15090000Y-73890000D02*
X15090000Y-69150000D01*
%TO.C,R29*%
X45900000Y-14500000D02*
X53530000Y-14500000D01*
X53530000Y-17500000D01*
X45900000Y-17500000D01*
X45900000Y-14500000D01*
%TO.C,H1*%
X7450000Y-50000000D02*
G75*
G02*
X550000Y-50000000I-3450000J0D01*
G01*
X550000Y-50000000D02*
G75*
G02*
X7450000Y-50000000I3450000J0D01*
G01*
%TO.C,Q43*%
X38710000Y-52640000D02*
X38710000Y-57380000D01*
X38710000Y-52640000D02*
X45810000Y-52640000D01*
X45810000Y-57380000D02*
X38710000Y-57380000D01*
X45810000Y-57380000D02*
X45810000Y-52640000D01*
%TO.C,Q66*%
X54070000Y-74230000D02*
X54070000Y-78970000D01*
X54070000Y-74230000D02*
X61170000Y-74230000D01*
X61170000Y-78970000D02*
X54070000Y-78970000D01*
X61170000Y-78970000D02*
X61170000Y-74230000D01*
%TO.C,Q23*%
X23350000Y-44385000D02*
X23350000Y-49125000D01*
X23350000Y-44385000D02*
X30450000Y-44385000D01*
X30450000Y-49125000D02*
X23350000Y-49125000D01*
X30450000Y-49125000D02*
X30450000Y-44385000D01*
%TO.C,R1*%
X7500000Y-14500000D02*
X15130000Y-14500000D01*
X15130000Y-17500000D01*
X7500000Y-17500000D01*
X7500000Y-14500000D01*
%TO.C,Q27*%
X23350000Y-71055000D02*
X23350000Y-75795000D01*
X23350000Y-71055000D02*
X30450000Y-71055000D01*
X30450000Y-75795000D02*
X23350000Y-75795000D01*
X30450000Y-75795000D02*
X30450000Y-71055000D01*
%TO.C,Q20*%
X23350000Y-22795000D02*
X23350000Y-27535000D01*
X23350000Y-22795000D02*
X30450000Y-22795000D01*
X30450000Y-27535000D02*
X23350000Y-27535000D01*
X30450000Y-27535000D02*
X30450000Y-22795000D01*
%TO.C,R3*%
X7500000Y-31010000D02*
X15130000Y-31010000D01*
X15130000Y-34010000D01*
X7500000Y-34010000D01*
X7500000Y-31010000D01*
%TO.C,Q44*%
X38710000Y-60895000D02*
X38710000Y-65635000D01*
X38710000Y-60895000D02*
X45810000Y-60895000D01*
X45810000Y-65635000D02*
X38710000Y-65635000D01*
X45810000Y-65635000D02*
X45810000Y-60895000D01*
%TO.C,Q68*%
X61750000Y-24785000D02*
X61750000Y-29525000D01*
X61750000Y-24785000D02*
X68850000Y-24785000D01*
X68850000Y-29525000D02*
X61750000Y-29525000D01*
X68850000Y-29525000D02*
X68850000Y-24785000D01*
%TD*%
M02*
