%TF.GenerationSoftware,KiCad,Pcbnew,10.0.5*%
%TF.CreationDate,2026-09-11T05:07:24-04:00*%
%TF.ProjectId,reg2,72656732-2e6b-4696-9361-645f70636258,rev?*%
%TF.SameCoordinates,Original*%
%TF.FileFunction,Legend,Top*%
%TF.FilePolarity,Positive*%
%FSLAX46Y46*%
G04 Gerber Fmt 4.6, Leading zero omitted, Abs format (unit mm)*
G04 Created by KiCad (PCBNEW 10.0.5) date 2026-09-11 05:07:24*
%MOMM*%
%LPD*%
G01*
G04 APERTURE LIST*
%ADD10C,0.150000*%
%ADD11C,0.250000*%
%ADD12C,0.120000*%
G04 APERTURE END LIST*
D10*
X75821541Y-79682295D02*
X75973922Y-79682295D01*
X75973922Y-79682295D02*
X76050112Y-79720390D01*
X76050112Y-79720390D02*
X76126303Y-79796580D01*
X76126303Y-79796580D02*
X76164398Y-79948961D01*
X76164398Y-79948961D02*
X76164398Y-80215628D01*
X76164398Y-80215628D02*
X76126303Y-80368009D01*
X76126303Y-80368009D02*
X76050112Y-80444200D01*
X76050112Y-80444200D02*
X75973922Y-80482295D01*
X75973922Y-80482295D02*
X75821541Y-80482295D01*
X75821541Y-80482295D02*
X75745350Y-80444200D01*
X75745350Y-80444200D02*
X75669160Y-80368009D01*
X75669160Y-80368009D02*
X75631064Y-80215628D01*
X75631064Y-80215628D02*
X75631064Y-79948961D01*
X75631064Y-79948961D02*
X75669160Y-79796580D01*
X75669160Y-79796580D02*
X75745350Y-79720390D01*
X75745350Y-79720390D02*
X75821541Y-79682295D01*
X76507255Y-79682295D02*
X76507255Y-80329914D01*
X76507255Y-80329914D02*
X76545350Y-80406104D01*
X76545350Y-80406104D02*
X76583445Y-80444200D01*
X76583445Y-80444200D02*
X76659636Y-80482295D01*
X76659636Y-80482295D02*
X76812017Y-80482295D01*
X76812017Y-80482295D02*
X76888207Y-80444200D01*
X76888207Y-80444200D02*
X76926302Y-80406104D01*
X76926302Y-80406104D02*
X76964398Y-80329914D01*
X76964398Y-80329914D02*
X76964398Y-79682295D01*
X77231064Y-79682295D02*
X77688207Y-79682295D01*
X77459635Y-80482295D02*
X77459635Y-79682295D01*
X77916778Y-79758485D02*
X77954874Y-79720390D01*
X77954874Y-79720390D02*
X78031064Y-79682295D01*
X78031064Y-79682295D02*
X78221540Y-79682295D01*
X78221540Y-79682295D02*
X78297731Y-79720390D01*
X78297731Y-79720390D02*
X78335826Y-79758485D01*
X78335826Y-79758485D02*
X78373921Y-79834676D01*
X78373921Y-79834676D02*
X78373921Y-79910866D01*
X78373921Y-79910866D02*
X78335826Y-80025152D01*
X78335826Y-80025152D02*
X77878683Y-80482295D01*
X77878683Y-80482295D02*
X78373921Y-80482295D01*
X83311064Y-21833723D02*
X83692017Y-21833723D01*
X83234874Y-22062295D02*
X83501541Y-21262295D01*
X83501541Y-21262295D02*
X83768207Y-22062295D01*
X83996778Y-21338485D02*
X84034874Y-21300390D01*
X84034874Y-21300390D02*
X84111064Y-21262295D01*
X84111064Y-21262295D02*
X84301540Y-21262295D01*
X84301540Y-21262295D02*
X84377731Y-21300390D01*
X84377731Y-21300390D02*
X84415826Y-21338485D01*
X84415826Y-21338485D02*
X84453921Y-21414676D01*
X84453921Y-21414676D02*
X84453921Y-21490866D01*
X84453921Y-21490866D02*
X84415826Y-21605152D01*
X84415826Y-21605152D02*
X83958683Y-22062295D01*
X83958683Y-22062295D02*
X84453921Y-22062295D01*
X83615826Y-36883247D02*
X83730112Y-36921342D01*
X83730112Y-36921342D02*
X83768207Y-36959438D01*
X83768207Y-36959438D02*
X83806303Y-37035628D01*
X83806303Y-37035628D02*
X83806303Y-37149914D01*
X83806303Y-37149914D02*
X83768207Y-37226104D01*
X83768207Y-37226104D02*
X83730112Y-37264200D01*
X83730112Y-37264200D02*
X83653922Y-37302295D01*
X83653922Y-37302295D02*
X83349160Y-37302295D01*
X83349160Y-37302295D02*
X83349160Y-36502295D01*
X83349160Y-36502295D02*
X83615826Y-36502295D01*
X83615826Y-36502295D02*
X83692017Y-36540390D01*
X83692017Y-36540390D02*
X83730112Y-36578485D01*
X83730112Y-36578485D02*
X83768207Y-36654676D01*
X83768207Y-36654676D02*
X83768207Y-36730866D01*
X83768207Y-36730866D02*
X83730112Y-36807057D01*
X83730112Y-36807057D02*
X83692017Y-36845152D01*
X83692017Y-36845152D02*
X83615826Y-36883247D01*
X83615826Y-36883247D02*
X83349160Y-36883247D01*
X84111064Y-36578485D02*
X84149160Y-36540390D01*
X84149160Y-36540390D02*
X84225350Y-36502295D01*
X84225350Y-36502295D02*
X84415826Y-36502295D01*
X84415826Y-36502295D02*
X84492017Y-36540390D01*
X84492017Y-36540390D02*
X84530112Y-36578485D01*
X84530112Y-36578485D02*
X84568207Y-36654676D01*
X84568207Y-36654676D02*
X84568207Y-36730866D01*
X84568207Y-36730866D02*
X84530112Y-36845152D01*
X84530112Y-36845152D02*
X84072969Y-37302295D01*
X84072969Y-37302295D02*
X84568207Y-37302295D01*
X4490588Y-8854819D02*
X3919160Y-8854819D01*
X4204874Y-8854819D02*
X4204874Y-7854819D01*
X4204874Y-7854819D02*
X4109636Y-7997676D01*
X4109636Y-7997676D02*
X4014398Y-8092914D01*
X4014398Y-8092914D02*
X3919160Y-8140533D01*
D11*
X29521615Y-98880928D02*
X29521615Y-97380928D01*
X29521615Y-97380928D02*
X30378758Y-98880928D01*
X30378758Y-98880928D02*
X30378758Y-97380928D01*
X31093044Y-98880928D02*
X31093044Y-97380928D01*
X32307330Y-98095214D02*
X32521616Y-98166642D01*
X32521616Y-98166642D02*
X32593045Y-98238071D01*
X32593045Y-98238071D02*
X32664473Y-98380928D01*
X32664473Y-98380928D02*
X32664473Y-98595214D01*
X32664473Y-98595214D02*
X32593045Y-98738071D01*
X32593045Y-98738071D02*
X32521616Y-98809500D01*
X32521616Y-98809500D02*
X32378759Y-98880928D01*
X32378759Y-98880928D02*
X31807330Y-98880928D01*
X31807330Y-98880928D02*
X31807330Y-97380928D01*
X31807330Y-97380928D02*
X32307330Y-97380928D01*
X32307330Y-97380928D02*
X32450188Y-97452357D01*
X32450188Y-97452357D02*
X32521616Y-97523785D01*
X32521616Y-97523785D02*
X32593045Y-97666642D01*
X32593045Y-97666642D02*
X32593045Y-97809500D01*
X32593045Y-97809500D02*
X32521616Y-97952357D01*
X32521616Y-97952357D02*
X32450188Y-98023785D01*
X32450188Y-98023785D02*
X32307330Y-98095214D01*
X32307330Y-98095214D02*
X31807330Y-98095214D01*
X33807330Y-98095214D02*
X34021616Y-98166642D01*
X34021616Y-98166642D02*
X34093045Y-98238071D01*
X34093045Y-98238071D02*
X34164473Y-98380928D01*
X34164473Y-98380928D02*
X34164473Y-98595214D01*
X34164473Y-98595214D02*
X34093045Y-98738071D01*
X34093045Y-98738071D02*
X34021616Y-98809500D01*
X34021616Y-98809500D02*
X33878759Y-98880928D01*
X33878759Y-98880928D02*
X33307330Y-98880928D01*
X33307330Y-98880928D02*
X33307330Y-97380928D01*
X33307330Y-97380928D02*
X33807330Y-97380928D01*
X33807330Y-97380928D02*
X33950188Y-97452357D01*
X33950188Y-97452357D02*
X34021616Y-97523785D01*
X34021616Y-97523785D02*
X34093045Y-97666642D01*
X34093045Y-97666642D02*
X34093045Y-97809500D01*
X34093045Y-97809500D02*
X34021616Y-97952357D01*
X34021616Y-97952357D02*
X33950188Y-98023785D01*
X33950188Y-98023785D02*
X33807330Y-98095214D01*
X33807330Y-98095214D02*
X33307330Y-98095214D01*
X35521616Y-98880928D02*
X34807330Y-98880928D01*
X34807330Y-98880928D02*
X34807330Y-97380928D01*
X36021616Y-98095214D02*
X36521616Y-98095214D01*
X36735902Y-98880928D02*
X36021616Y-98880928D01*
X36021616Y-98880928D02*
X36021616Y-97380928D01*
X36021616Y-97380928D02*
X36735902Y-97380928D01*
X40521616Y-98880928D02*
X40021616Y-98166642D01*
X39664473Y-98880928D02*
X39664473Y-97380928D01*
X39664473Y-97380928D02*
X40235902Y-97380928D01*
X40235902Y-97380928D02*
X40378759Y-97452357D01*
X40378759Y-97452357D02*
X40450188Y-97523785D01*
X40450188Y-97523785D02*
X40521616Y-97666642D01*
X40521616Y-97666642D02*
X40521616Y-97880928D01*
X40521616Y-97880928D02*
X40450188Y-98023785D01*
X40450188Y-98023785D02*
X40378759Y-98095214D01*
X40378759Y-98095214D02*
X40235902Y-98166642D01*
X40235902Y-98166642D02*
X39664473Y-98166642D01*
X41164473Y-98095214D02*
X41664473Y-98095214D01*
X41878759Y-98880928D02*
X41164473Y-98880928D01*
X41164473Y-98880928D02*
X41164473Y-97380928D01*
X41164473Y-97380928D02*
X41878759Y-97380928D01*
X43307331Y-97452357D02*
X43164474Y-97380928D01*
X43164474Y-97380928D02*
X42950188Y-97380928D01*
X42950188Y-97380928D02*
X42735902Y-97452357D01*
X42735902Y-97452357D02*
X42593045Y-97595214D01*
X42593045Y-97595214D02*
X42521616Y-97738071D01*
X42521616Y-97738071D02*
X42450188Y-98023785D01*
X42450188Y-98023785D02*
X42450188Y-98238071D01*
X42450188Y-98238071D02*
X42521616Y-98523785D01*
X42521616Y-98523785D02*
X42593045Y-98666642D01*
X42593045Y-98666642D02*
X42735902Y-98809500D01*
X42735902Y-98809500D02*
X42950188Y-98880928D01*
X42950188Y-98880928D02*
X43093045Y-98880928D01*
X43093045Y-98880928D02*
X43307331Y-98809500D01*
X43307331Y-98809500D02*
X43378759Y-98738071D01*
X43378759Y-98738071D02*
X43378759Y-98238071D01*
X43378759Y-98238071D02*
X43093045Y-98238071D01*
X44021616Y-98880928D02*
X44021616Y-97380928D01*
X44664474Y-98809500D02*
X44878760Y-98880928D01*
X44878760Y-98880928D02*
X45235902Y-98880928D01*
X45235902Y-98880928D02*
X45378760Y-98809500D01*
X45378760Y-98809500D02*
X45450188Y-98738071D01*
X45450188Y-98738071D02*
X45521617Y-98595214D01*
X45521617Y-98595214D02*
X45521617Y-98452357D01*
X45521617Y-98452357D02*
X45450188Y-98309500D01*
X45450188Y-98309500D02*
X45378760Y-98238071D01*
X45378760Y-98238071D02*
X45235902Y-98166642D01*
X45235902Y-98166642D02*
X44950188Y-98095214D01*
X44950188Y-98095214D02*
X44807331Y-98023785D01*
X44807331Y-98023785D02*
X44735902Y-97952357D01*
X44735902Y-97952357D02*
X44664474Y-97809500D01*
X44664474Y-97809500D02*
X44664474Y-97666642D01*
X44664474Y-97666642D02*
X44735902Y-97523785D01*
X44735902Y-97523785D02*
X44807331Y-97452357D01*
X44807331Y-97452357D02*
X44950188Y-97380928D01*
X44950188Y-97380928D02*
X45307331Y-97380928D01*
X45307331Y-97380928D02*
X45521617Y-97452357D01*
X45950188Y-97380928D02*
X46807331Y-97380928D01*
X46378759Y-98880928D02*
X46378759Y-97380928D01*
X47307330Y-98095214D02*
X47807330Y-98095214D01*
X48021616Y-98880928D02*
X47307330Y-98880928D01*
X47307330Y-98880928D02*
X47307330Y-97380928D01*
X47307330Y-97380928D02*
X48021616Y-97380928D01*
X49521616Y-98880928D02*
X49021616Y-98166642D01*
X48664473Y-98880928D02*
X48664473Y-97380928D01*
X48664473Y-97380928D02*
X49235902Y-97380928D01*
X49235902Y-97380928D02*
X49378759Y-97452357D01*
X49378759Y-97452357D02*
X49450188Y-97523785D01*
X49450188Y-97523785D02*
X49521616Y-97666642D01*
X49521616Y-97666642D02*
X49521616Y-97880928D01*
X49521616Y-97880928D02*
X49450188Y-98023785D01*
X49450188Y-98023785D02*
X49378759Y-98095214D01*
X49378759Y-98095214D02*
X49235902Y-98166642D01*
X49235902Y-98166642D02*
X48664473Y-98166642D01*
X51807330Y-98095214D02*
X52021616Y-98166642D01*
X52021616Y-98166642D02*
X52093045Y-98238071D01*
X52093045Y-98238071D02*
X52164473Y-98380928D01*
X52164473Y-98380928D02*
X52164473Y-98595214D01*
X52164473Y-98595214D02*
X52093045Y-98738071D01*
X52093045Y-98738071D02*
X52021616Y-98809500D01*
X52021616Y-98809500D02*
X51878759Y-98880928D01*
X51878759Y-98880928D02*
X51307330Y-98880928D01*
X51307330Y-98880928D02*
X51307330Y-97380928D01*
X51307330Y-97380928D02*
X51807330Y-97380928D01*
X51807330Y-97380928D02*
X51950188Y-97452357D01*
X51950188Y-97452357D02*
X52021616Y-97523785D01*
X52021616Y-97523785D02*
X52093045Y-97666642D01*
X52093045Y-97666642D02*
X52093045Y-97809500D01*
X52093045Y-97809500D02*
X52021616Y-97952357D01*
X52021616Y-97952357D02*
X51950188Y-98023785D01*
X51950188Y-98023785D02*
X51807330Y-98095214D01*
X51807330Y-98095214D02*
X51307330Y-98095214D01*
X52807330Y-98880928D02*
X52807330Y-97380928D01*
X53307331Y-97380928D02*
X54164474Y-97380928D01*
X53735902Y-98880928D02*
X53735902Y-97380928D01*
X55735902Y-97523785D02*
X55807330Y-97452357D01*
X55807330Y-97452357D02*
X55950188Y-97380928D01*
X55950188Y-97380928D02*
X56307330Y-97380928D01*
X56307330Y-97380928D02*
X56450188Y-97452357D01*
X56450188Y-97452357D02*
X56521616Y-97523785D01*
X56521616Y-97523785D02*
X56593045Y-97666642D01*
X56593045Y-97666642D02*
X56593045Y-97809500D01*
X56593045Y-97809500D02*
X56521616Y-98023785D01*
X56521616Y-98023785D02*
X55664473Y-98880928D01*
X55664473Y-98880928D02*
X56593045Y-98880928D01*
D10*
X99109580Y-27166666D02*
X99157200Y-27214285D01*
X99157200Y-27214285D02*
X99204819Y-27357142D01*
X99204819Y-27357142D02*
X99204819Y-27452380D01*
X99204819Y-27452380D02*
X99157200Y-27595237D01*
X99157200Y-27595237D02*
X99061961Y-27690475D01*
X99061961Y-27690475D02*
X98966723Y-27738094D01*
X98966723Y-27738094D02*
X98776247Y-27785713D01*
X98776247Y-27785713D02*
X98633390Y-27785713D01*
X98633390Y-27785713D02*
X98442914Y-27738094D01*
X98442914Y-27738094D02*
X98347676Y-27690475D01*
X98347676Y-27690475D02*
X98252438Y-27595237D01*
X98252438Y-27595237D02*
X98204819Y-27452380D01*
X98204819Y-27452380D02*
X98204819Y-27357142D01*
X98204819Y-27357142D02*
X98252438Y-27214285D01*
X98252438Y-27214285D02*
X98300057Y-27166666D01*
X98300057Y-26785713D02*
X98252438Y-26738094D01*
X98252438Y-26738094D02*
X98204819Y-26642856D01*
X98204819Y-26642856D02*
X98204819Y-26404761D01*
X98204819Y-26404761D02*
X98252438Y-26309523D01*
X98252438Y-26309523D02*
X98300057Y-26261904D01*
X98300057Y-26261904D02*
X98395295Y-26214285D01*
X98395295Y-26214285D02*
X98490533Y-26214285D01*
X98490533Y-26214285D02*
X98633390Y-26261904D01*
X98633390Y-26261904D02*
X99204819Y-26833332D01*
X99204819Y-26833332D02*
X99204819Y-26214285D01*
X97859580Y-17916666D02*
X97907200Y-17964285D01*
X97907200Y-17964285D02*
X97954819Y-18107142D01*
X97954819Y-18107142D02*
X97954819Y-18202380D01*
X97954819Y-18202380D02*
X97907200Y-18345237D01*
X97907200Y-18345237D02*
X97811961Y-18440475D01*
X97811961Y-18440475D02*
X97716723Y-18488094D01*
X97716723Y-18488094D02*
X97526247Y-18535713D01*
X97526247Y-18535713D02*
X97383390Y-18535713D01*
X97383390Y-18535713D02*
X97192914Y-18488094D01*
X97192914Y-18488094D02*
X97097676Y-18440475D01*
X97097676Y-18440475D02*
X97002438Y-18345237D01*
X97002438Y-18345237D02*
X96954819Y-18202380D01*
X96954819Y-18202380D02*
X96954819Y-18107142D01*
X96954819Y-18107142D02*
X97002438Y-17964285D01*
X97002438Y-17964285D02*
X97050057Y-17916666D01*
X97954819Y-16964285D02*
X97954819Y-17535713D01*
X97954819Y-17249999D02*
X96954819Y-17249999D01*
X96954819Y-17249999D02*
X97097676Y-17345237D01*
X97097676Y-17345237D02*
X97192914Y-17440475D01*
X97192914Y-17440475D02*
X97240533Y-17535713D01*
X3238095Y-46304819D02*
X3238095Y-45304819D01*
X3238095Y-45781009D02*
X3809523Y-45781009D01*
X3809523Y-46304819D02*
X3809523Y-45304819D01*
X4809523Y-46304819D02*
X4238095Y-46304819D01*
X4523809Y-46304819D02*
X4523809Y-45304819D01*
X4523809Y-45304819D02*
X4428571Y-45447676D01*
X4428571Y-45447676D02*
X4333333Y-45542914D01*
X4333333Y-45542914D02*
X4238095Y-45590533D01*
X95238095Y-46304819D02*
X95238095Y-45304819D01*
X95238095Y-45781009D02*
X95809523Y-45781009D01*
X95809523Y-46304819D02*
X95809523Y-45304819D01*
X96238095Y-45400057D02*
X96285714Y-45352438D01*
X96285714Y-45352438D02*
X96380952Y-45304819D01*
X96380952Y-45304819D02*
X96619047Y-45304819D01*
X96619047Y-45304819D02*
X96714285Y-45352438D01*
X96714285Y-45352438D02*
X96761904Y-45400057D01*
X96761904Y-45400057D02*
X96809523Y-45495295D01*
X96809523Y-45495295D02*
X96809523Y-45590533D01*
X96809523Y-45590533D02*
X96761904Y-45733390D01*
X96761904Y-45733390D02*
X96190476Y-46304819D01*
X96190476Y-46304819D02*
X96809523Y-46304819D01*
%TO.C,Q67*%
D12*
X55820000Y-27375000D02*
X59420000Y-27375000D01*
X55263600Y-24426193D02*
G75*
G02*
X57620000Y-22925000I2356400J-1098807D01*
G01*
X55820000Y-27375000D02*
G75*
G02*
X55295816Y-26647795I1800000J1850000D01*
G01*
X57620000Y-22925000D02*
G75*
G02*
X59976400Y-24426193I0J-2600000D01*
G01*
X59944184Y-26647795D02*
G75*
G02*
X59420000Y-27375000I-2324184J1122795D01*
G01*
%TO.C,R13*%
X25730000Y-16000000D02*
X28340000Y-16000000D01*
X25730000Y-16000000D02*
G75*
G02*
X22990000Y-16000000I-1370000J0D01*
G01*
X22990000Y-16000000D02*
G75*
G02*
X25730000Y-16000000I1370000J0D01*
G01*
%TO.C,R25*%
X41090000Y-34415000D02*
X43700000Y-34415000D01*
X41090000Y-34415000D02*
G75*
G02*
X38350000Y-34415000I-1370000J0D01*
G01*
X38350000Y-34415000D02*
G75*
G02*
X41090000Y-34415000I1370000J0D01*
G01*
%TO.C,R47*%
X64130000Y-77595000D02*
X66740000Y-77595000D01*
X64130000Y-77595000D02*
G75*
G02*
X61390000Y-77595000I-1370000J0D01*
G01*
X61390000Y-77595000D02*
G75*
G02*
X64130000Y-77595000I1370000J0D01*
G01*
%TO.C,Q62*%
X51740000Y-57965000D02*
X48140000Y-57965000D01*
X47615816Y-58692205D02*
G75*
G02*
X48140000Y-57965000I2324184J-1122795D01*
G01*
X49940000Y-62415000D02*
G75*
G02*
X47583600Y-60913807I0J2600000D01*
G01*
X51740000Y-57965000D02*
G75*
G02*
X52264184Y-58692205I-1800000J-1850000D01*
G01*
X52296400Y-60913807D02*
G75*
G02*
X49940000Y-62415000I-2356400J1098807D01*
G01*
%TO.C,C2*%
X93960000Y-27000000D02*
X92420000Y-27000000D01*
X93960000Y-27040000D02*
X92420000Y-27040000D01*
X93960000Y-27080000D02*
X92421000Y-27080000D01*
X93960000Y-27120000D02*
X92423000Y-27120000D01*
X93960000Y-27160000D02*
X92425000Y-27160000D01*
X93960000Y-27200000D02*
X92428000Y-27200000D01*
X93960000Y-27240000D02*
X92431000Y-27240000D01*
X93960000Y-27280000D02*
X92435000Y-27280000D01*
X93960000Y-27320000D02*
X92440000Y-27320000D01*
X93960000Y-27360000D02*
X92445000Y-27360000D01*
X93960000Y-27400000D02*
X92451000Y-27400000D01*
X93960000Y-27440000D02*
X92457000Y-27440000D01*
X93960000Y-27480000D02*
X92464000Y-27480000D01*
X93960000Y-27520000D02*
X92472000Y-27520000D01*
X93960000Y-27560000D02*
X92481000Y-27560000D01*
X93960000Y-27600000D02*
X92490000Y-27600000D01*
X93960000Y-27640000D02*
X92499000Y-27640000D01*
X93960000Y-27680000D02*
X92510000Y-27680000D01*
X93960000Y-27720000D02*
X92521000Y-27720000D01*
X93960000Y-27760000D02*
X92533000Y-27760000D01*
X93960000Y-27800000D02*
X92545000Y-27800000D01*
X93960000Y-27840000D02*
X92558000Y-27840000D01*
X93960000Y-27880000D02*
X92572000Y-27880000D01*
X93960000Y-27920000D02*
X92587000Y-27920000D01*
X93960000Y-27960000D02*
X92602000Y-27960000D01*
X93960000Y-28000000D02*
X92618000Y-28000000D01*
X93960000Y-28040000D02*
X92635000Y-28040000D01*
X93960000Y-28080000D02*
X92653000Y-28080000D01*
X93960000Y-28120000D02*
X92671000Y-28120000D01*
X93960000Y-28160000D02*
X92691000Y-28160000D01*
X93960000Y-28200000D02*
X92711000Y-28200000D01*
X93960000Y-28240000D02*
X92732000Y-28240000D01*
X93960000Y-28280000D02*
X92754000Y-28280000D01*
X93960000Y-28320000D02*
X92777000Y-28320000D01*
X93960000Y-28360000D02*
X92801000Y-28360000D01*
X93960000Y-28400000D02*
X92825000Y-28400000D01*
X93960000Y-28440000D02*
X92851000Y-28440000D01*
X93960000Y-28480000D02*
X92878000Y-28480000D01*
X93960000Y-28520000D02*
X92906000Y-28520000D01*
X93960000Y-28560000D02*
X92935000Y-28560000D01*
X93960000Y-28600000D02*
X92965000Y-28600000D01*
X93960000Y-28640000D02*
X92997000Y-28640000D01*
X93960000Y-28680000D02*
X93030000Y-28680000D01*
X93960000Y-28720000D02*
X93064000Y-28720000D01*
X93960000Y-28760000D02*
X93099000Y-28760000D01*
X93960000Y-28800000D02*
X93136000Y-28800000D01*
X93960000Y-28840000D02*
X93175000Y-28840000D01*
X93960000Y-28880000D02*
X93215000Y-28880000D01*
X93960000Y-28920000D02*
X93257000Y-28920000D01*
X93960000Y-28960000D02*
X93301000Y-28960000D01*
X93960000Y-29000000D02*
X93348000Y-29000000D01*
X95283000Y-29600000D02*
X94717000Y-29600000D01*
X95517000Y-29560000D02*
X94483000Y-29560000D01*
X95677000Y-29520000D02*
X94323000Y-29520000D01*
X95805000Y-29480000D02*
X94195000Y-29480000D01*
X95914000Y-29440000D02*
X94086000Y-29440000D01*
X96011000Y-29400000D02*
X93989000Y-29400000D01*
X96098000Y-29360000D02*
X93902000Y-29360000D01*
X96177000Y-29320000D02*
X93823000Y-29320000D01*
X96251000Y-29280000D02*
X93749000Y-29280000D01*
X96319000Y-29240000D02*
X93681000Y-29240000D01*
X96383000Y-29200000D02*
X93617000Y-29200000D01*
X96443000Y-29160000D02*
X93557000Y-29160000D01*
X96475000Y-24195225D02*
X96475000Y-24695225D01*
X96499000Y-29120000D02*
X93501000Y-29120000D01*
X96553000Y-29080000D02*
X93447000Y-29080000D01*
X96604000Y-29040000D02*
X93396000Y-29040000D01*
X96652000Y-29000000D02*
X96040000Y-29000000D01*
X96699000Y-28960000D02*
X96040000Y-28960000D01*
X96725000Y-24445225D02*
X96225000Y-24445225D01*
X96743000Y-28920000D02*
X96040000Y-28920000D01*
X96785000Y-28880000D02*
X96040000Y-28880000D01*
X96825000Y-28840000D02*
X96040000Y-28840000D01*
X96864000Y-28800000D02*
X96040000Y-28800000D01*
X96901000Y-28760000D02*
X96040000Y-28760000D01*
X96936000Y-28720000D02*
X96040000Y-28720000D01*
X96970000Y-28680000D02*
X96040000Y-28680000D01*
X97003000Y-28640000D02*
X96040000Y-28640000D01*
X97035000Y-28600000D02*
X96040000Y-28600000D01*
X97065000Y-28560000D02*
X96040000Y-28560000D01*
X97094000Y-28520000D02*
X96040000Y-28520000D01*
X97122000Y-28480000D02*
X96040000Y-28480000D01*
X97149000Y-28440000D02*
X96040000Y-28440000D01*
X97175000Y-28400000D02*
X96040000Y-28400000D01*
X97199000Y-28360000D02*
X96040000Y-28360000D01*
X97223000Y-28320000D02*
X96040000Y-28320000D01*
X97246000Y-28280000D02*
X96040000Y-28280000D01*
X97268000Y-28240000D02*
X96040000Y-28240000D01*
X97289000Y-28200000D02*
X96040000Y-28200000D01*
X97309000Y-28160000D02*
X96040000Y-28160000D01*
X97329000Y-28120000D02*
X96040000Y-28120000D01*
X97347000Y-28080000D02*
X96040000Y-28080000D01*
X97365000Y-28040000D02*
X96040000Y-28040000D01*
X97382000Y-28000000D02*
X96040000Y-28000000D01*
X97398000Y-27960000D02*
X96040000Y-27960000D01*
X97413000Y-27920000D02*
X96040000Y-27920000D01*
X97428000Y-27880000D02*
X96040000Y-27880000D01*
X97442000Y-27840000D02*
X96040000Y-27840000D01*
X97455000Y-27800000D02*
X96040000Y-27800000D01*
X97467000Y-27760000D02*
X96040000Y-27760000D01*
X97479000Y-27720000D02*
X96040000Y-27720000D01*
X97490000Y-27680000D02*
X96040000Y-27680000D01*
X97501000Y-27640000D02*
X96040000Y-27640000D01*
X97510000Y-27600000D02*
X96040000Y-27600000D01*
X97519000Y-27560000D02*
X96040000Y-27560000D01*
X97528000Y-27520000D02*
X96040000Y-27520000D01*
X97536000Y-27480000D02*
X96040000Y-27480000D01*
X97543000Y-27440000D02*
X96040000Y-27440000D01*
X97549000Y-27400000D02*
X96040000Y-27400000D01*
X97555000Y-27360000D02*
X96040000Y-27360000D01*
X97560000Y-27320000D02*
X96040000Y-27320000D01*
X97565000Y-27280000D02*
X96040000Y-27280000D01*
X97569000Y-27240000D02*
X96040000Y-27240000D01*
X97572000Y-27200000D02*
X96040000Y-27200000D01*
X97575000Y-27160000D02*
X96040000Y-27160000D01*
X97577000Y-27120000D02*
X96040000Y-27120000D01*
X97579000Y-27080000D02*
X96040000Y-27080000D01*
X97580000Y-27000000D02*
X96040000Y-27000000D01*
X97580000Y-27040000D02*
X96040000Y-27040000D01*
X97620000Y-27000000D02*
G75*
G02*
X92380000Y-27000000I-2620000J0D01*
G01*
X92380000Y-27000000D02*
G75*
G02*
X97620000Y-27000000I2620000J0D01*
G01*
%TO.C,R43*%
X64130000Y-29335000D02*
X66740000Y-29335000D01*
X64130000Y-29335000D02*
G75*
G02*
X61390000Y-29335000I-1370000J0D01*
G01*
X61390000Y-29335000D02*
G75*
G02*
X64130000Y-29335000I1370000J0D01*
G01*
%TO.C,Q98*%
X82460000Y-24945000D02*
X78860000Y-24945000D01*
X78335816Y-25672205D02*
G75*
G02*
X78860000Y-24945000I2324184J-1122795D01*
G01*
X80660000Y-29395000D02*
G75*
G02*
X78303600Y-27893807I0J2600000D01*
G01*
X82460000Y-24945000D02*
G75*
G02*
X82984184Y-25672205I-1800000J-1850000D01*
G01*
X83016400Y-27893807D02*
G75*
G02*
X80660000Y-29395000I-2356400J1098807D01*
G01*
%TO.C,R54*%
X79490000Y-31240000D02*
X82100000Y-31240000D01*
X79490000Y-31240000D02*
G75*
G02*
X76750000Y-31240000I-1370000J0D01*
G01*
X76750000Y-31240000D02*
G75*
G02*
X79490000Y-31240000I1370000J0D01*
G01*
%TO.C,C1*%
X93630000Y-15130000D02*
X96370000Y-15130000D01*
X93630000Y-20370000D02*
X93630000Y-15130000D01*
X96370000Y-15130000D02*
X96370000Y-20370000D01*
X96370000Y-20370000D02*
X93630000Y-20370000D01*
%TO.C,R21*%
X33410000Y-42670000D02*
X36020000Y-42670000D01*
X33410000Y-42670000D02*
G75*
G02*
X30670000Y-42670000I-1370000J0D01*
G01*
X30670000Y-42670000D02*
G75*
G02*
X33410000Y-42670000I1370000J0D01*
G01*
%TO.C,Q33*%
X25100000Y-88970000D02*
X28700000Y-88970000D01*
X24543600Y-86021193D02*
G75*
G02*
X26900000Y-84520000I2356400J-1098807D01*
G01*
X25100000Y-88970000D02*
G75*
G02*
X24575816Y-88242795I1800000J1850000D01*
G01*
X26900000Y-84520000D02*
G75*
G02*
X29256400Y-86021193I0J-2600000D01*
G01*
X29224184Y-88242795D02*
G75*
G02*
X28700000Y-88970000I-2324184J1122795D01*
G01*
%TO.C,Q80*%
X67100000Y-36375000D02*
X63500000Y-36375000D01*
X62975816Y-37102205D02*
G75*
G02*
X63500000Y-36375000I2324184J-1122795D01*
G01*
X65300000Y-40825000D02*
G75*
G02*
X62943600Y-39323807I0J2600000D01*
G01*
X67100000Y-36375000D02*
G75*
G02*
X67624184Y-37102205I-1800000J-1850000D01*
G01*
X67656400Y-39323807D02*
G75*
G02*
X65300000Y-40825000I-2356400J1098807D01*
G01*
%TO.C,Q7*%
X9740000Y-65475000D02*
X13340000Y-65475000D01*
X9183600Y-62526193D02*
G75*
G02*
X11540000Y-61025000I2356400J-1098807D01*
G01*
X9740000Y-65475000D02*
G75*
G02*
X9215816Y-64747795I1800000J1850000D01*
G01*
X11540000Y-61025000D02*
G75*
G02*
X13896400Y-62526193I0J-2600000D01*
G01*
X13864184Y-64747795D02*
G75*
G02*
X13340000Y-65475000I-2324184J1122795D01*
G01*
%TO.C,Q48*%
X40460000Y-48965000D02*
X44060000Y-48965000D01*
X39903600Y-46016193D02*
G75*
G02*
X42260000Y-44515000I2356400J-1098807D01*
G01*
X40460000Y-48965000D02*
G75*
G02*
X39935816Y-48237795I1800000J1850000D01*
G01*
X42260000Y-44515000D02*
G75*
G02*
X44616400Y-46016193I0J-2600000D01*
G01*
X44584184Y-48237795D02*
G75*
G02*
X44060000Y-48965000I-2324184J1122795D01*
G01*
%TO.C,R30*%
X48770000Y-16000000D02*
X51380000Y-16000000D01*
X48770000Y-16000000D02*
G75*
G02*
X46030000Y-16000000I-1370000J0D01*
G01*
X46030000Y-16000000D02*
G75*
G02*
X48770000Y-16000000I1370000J0D01*
G01*
%TO.C,Q63*%
X51740000Y-66220000D02*
X48140000Y-66220000D01*
X47615816Y-66947205D02*
G75*
G02*
X48140000Y-66220000I2324184J-1122795D01*
G01*
X49940000Y-70670000D02*
G75*
G02*
X47583600Y-69168807I0J2600000D01*
G01*
X51740000Y-66220000D02*
G75*
G02*
X52264184Y-66947205I-1800000J-1850000D01*
G01*
X52296400Y-69168807D02*
G75*
G02*
X49940000Y-70670000I-2356400J1098807D01*
G01*
%TO.C,Q64*%
X51740000Y-71300000D02*
X48140000Y-71300000D01*
X47615816Y-72027205D02*
G75*
G02*
X48140000Y-71300000I2324184J-1122795D01*
G01*
X49940000Y-75750000D02*
G75*
G02*
X47583600Y-74248807I0J2600000D01*
G01*
X51740000Y-71300000D02*
G75*
G02*
X52264184Y-72027205I-1800000J-1850000D01*
G01*
X52296400Y-74248807D02*
G75*
G02*
X49940000Y-75750000I-2356400J1098807D01*
G01*
%TO.C,Q59*%
X51740000Y-39550000D02*
X48140000Y-39550000D01*
X47615816Y-40277205D02*
G75*
G02*
X48140000Y-39550000I2324184J-1122795D01*
G01*
X49940000Y-44000000D02*
G75*
G02*
X47583600Y-42498807I0J2600000D01*
G01*
X51740000Y-39550000D02*
G75*
G02*
X52264184Y-40277205I-1800000J-1850000D01*
G01*
X52296400Y-42498807D02*
G75*
G02*
X49940000Y-44000000I-2356400J1098807D01*
G01*
%TO.C,Q19*%
X21020000Y-71300000D02*
X17420000Y-71300000D01*
X16895816Y-72027205D02*
G75*
G02*
X17420000Y-71300000I2324184J-1122795D01*
G01*
X19220000Y-75750000D02*
G75*
G02*
X16863600Y-74248807I0J2600000D01*
G01*
X21020000Y-71300000D02*
G75*
G02*
X21544184Y-72027205I-1800000J-1850000D01*
G01*
X21576400Y-74248807D02*
G75*
G02*
X19220000Y-75750000I-2356400J1098807D01*
G01*
%TO.C,Q44*%
X40460000Y-22295000D02*
X44060000Y-22295000D01*
X39903600Y-19346193D02*
G75*
G02*
X42260000Y-17845000I2356400J-1098807D01*
G01*
X40460000Y-22295000D02*
G75*
G02*
X39935816Y-21567795I1800000J1850000D01*
G01*
X42260000Y-17845000D02*
G75*
G02*
X44616400Y-19346193I0J-2600000D01*
G01*
X44584184Y-21567795D02*
G75*
G02*
X44060000Y-22295000I-2324184J1122795D01*
G01*
%TO.C,D3*%
X79424000Y-37880000D02*
X79580000Y-37880000D01*
X81740000Y-37880000D02*
X81896000Y-37880000D01*
X79424484Y-37880000D02*
G75*
G02*
X79580000Y-34648563I1235516J1560000D01*
G01*
X79580000Y-37360961D02*
G75*
G02*
X79580000Y-35279039I1080000J1040961D01*
G01*
X81740000Y-34648563D02*
G75*
G02*
X81895516Y-37880000I-1080000J-1671437D01*
G01*
X81740000Y-35279039D02*
G75*
G02*
X81740000Y-37360961I-1080000J-1040961D01*
G01*
%TO.C,Q94*%
X71180000Y-62300000D02*
X74780000Y-62300000D01*
X70623600Y-59351193D02*
G75*
G02*
X72980000Y-57850000I2356400J-1098807D01*
G01*
X71180000Y-62300000D02*
G75*
G02*
X70655816Y-61572795I1800000J1850000D01*
G01*
X72980000Y-57850000D02*
G75*
G02*
X75336400Y-59351193I0J-2600000D01*
G01*
X75304184Y-61572795D02*
G75*
G02*
X74780000Y-62300000I-2324184J1122795D01*
G01*
%TO.C,Q4*%
X9740000Y-43885000D02*
X13340000Y-43885000D01*
X9183600Y-40936193D02*
G75*
G02*
X11540000Y-39435000I2356400J-1098807D01*
G01*
X9740000Y-43885000D02*
G75*
G02*
X9215816Y-43157795I1800000J1850000D01*
G01*
X11540000Y-39435000D02*
G75*
G02*
X13896400Y-40936193I0J-2600000D01*
G01*
X13864184Y-43157795D02*
G75*
G02*
X13340000Y-43885000I-2324184J1122795D01*
G01*
%TO.C,Q13*%
X21020000Y-31295000D02*
X17420000Y-31295000D01*
X16895816Y-32022205D02*
G75*
G02*
X17420000Y-31295000I2324184J-1122795D01*
G01*
X19220000Y-35745000D02*
G75*
G02*
X16863600Y-34243807I0J2600000D01*
G01*
X21020000Y-31295000D02*
G75*
G02*
X21544184Y-32022205I-1800000J-1850000D01*
G01*
X21576400Y-34243807D02*
G75*
G02*
X19220000Y-35745000I-2356400J1098807D01*
G01*
%TO.C,Q14*%
X21020000Y-36375000D02*
X17420000Y-36375000D01*
X16895816Y-37102205D02*
G75*
G02*
X17420000Y-36375000I2324184J-1122795D01*
G01*
X19220000Y-40825000D02*
G75*
G02*
X16863600Y-39323807I0J2600000D01*
G01*
X21020000Y-36375000D02*
G75*
G02*
X21544184Y-37102205I-1800000J-1850000D01*
G01*
X21576400Y-39323807D02*
G75*
G02*
X19220000Y-40825000I-2356400J1098807D01*
G01*
%TO.C,Q82*%
X67100000Y-52885000D02*
X63500000Y-52885000D01*
X62975816Y-53612205D02*
G75*
G02*
X63500000Y-52885000I2324184J-1122795D01*
G01*
X65300000Y-57335000D02*
G75*
G02*
X62943600Y-55833807I0J2600000D01*
G01*
X67100000Y-52885000D02*
G75*
G02*
X67624184Y-53612205I-1800000J-1850000D01*
G01*
X67656400Y-55833807D02*
G75*
G02*
X65300000Y-57335000I-2356400J1098807D01*
G01*
%TO.C,R48*%
X71810000Y-16000000D02*
X74420000Y-16000000D01*
X71810000Y-16000000D02*
G75*
G02*
X69070000Y-16000000I-1370000J0D01*
G01*
X69070000Y-16000000D02*
G75*
G02*
X71810000Y-16000000I1370000J0D01*
G01*
%TO.C,Q71*%
X55820000Y-54045000D02*
X59420000Y-54045000D01*
X55263600Y-51096193D02*
G75*
G02*
X57620000Y-49595000I2356400J-1098807D01*
G01*
X55820000Y-54045000D02*
G75*
G02*
X55295816Y-53317795I1800000J1850000D01*
G01*
X57620000Y-49595000D02*
G75*
G02*
X59976400Y-51096193I0J-2600000D01*
G01*
X59944184Y-53317795D02*
G75*
G02*
X59420000Y-54045000I-2324184J1122795D01*
G01*
%TO.C,R52*%
X71810000Y-74420000D02*
X74420000Y-74420000D01*
X71810000Y-74420000D02*
G75*
G02*
X69070000Y-74420000I-1370000J0D01*
G01*
X69070000Y-74420000D02*
G75*
G02*
X71810000Y-74420000I1370000J0D01*
G01*
%TO.C,Q66*%
X55820000Y-22295000D02*
X59420000Y-22295000D01*
X55263600Y-19346193D02*
G75*
G02*
X57620000Y-17845000I2356400J-1098807D01*
G01*
X55820000Y-22295000D02*
G75*
G02*
X55295816Y-21567795I1800000J1850000D01*
G01*
X57620000Y-17845000D02*
G75*
G02*
X59976400Y-19346193I0J-2600000D01*
G01*
X59944184Y-21567795D02*
G75*
G02*
X59420000Y-22295000I-2324184J1122795D01*
G01*
%TO.C,Q38*%
X36380000Y-44630000D02*
X32780000Y-44630000D01*
X32255816Y-45357205D02*
G75*
G02*
X32780000Y-44630000I2324184J-1122795D01*
G01*
X34580000Y-49080000D02*
G75*
G02*
X32223600Y-47578807I0J2600000D01*
G01*
X36380000Y-44630000D02*
G75*
G02*
X36904184Y-45357205I-1800000J-1850000D01*
G01*
X36936400Y-47578807D02*
G75*
G02*
X34580000Y-49080000I-2356400J1098807D01*
G01*
%TO.C,Q32*%
X25100000Y-83890000D02*
X28700000Y-83890000D01*
X24543600Y-80941193D02*
G75*
G02*
X26900000Y-79440000I2356400J-1098807D01*
G01*
X25100000Y-83890000D02*
G75*
G02*
X24575816Y-83162795I1800000J1850000D01*
G01*
X26900000Y-79440000D02*
G75*
G02*
X29256400Y-80941193I0J-2600000D01*
G01*
X29224184Y-83162795D02*
G75*
G02*
X28700000Y-83890000I-2324184J1122795D01*
G01*
%TO.C,R16*%
X25730000Y-50925000D02*
X28340000Y-50925000D01*
X25730000Y-50925000D02*
G75*
G02*
X22990000Y-50925000I-1370000J0D01*
G01*
X22990000Y-50925000D02*
G75*
G02*
X25730000Y-50925000I1370000J0D01*
G01*
%TO.C,R11*%
X18050000Y-69340000D02*
X20660000Y-69340000D01*
X18050000Y-69340000D02*
G75*
G02*
X15310000Y-69340000I-1370000J0D01*
G01*
X15310000Y-69340000D02*
G75*
G02*
X18050000Y-69340000I1370000J0D01*
G01*
%TO.C,R34*%
X48770000Y-64260000D02*
X51380000Y-64260000D01*
X48770000Y-64260000D02*
G75*
G02*
X46030000Y-64260000I-1370000J0D01*
G01*
X46030000Y-64260000D02*
G75*
G02*
X48770000Y-64260000I1370000J0D01*
G01*
%TO.C,Q10*%
X9740000Y-83890000D02*
X13340000Y-83890000D01*
X9183600Y-80941193D02*
G75*
G02*
X11540000Y-79440000I2356400J-1098807D01*
G01*
X9740000Y-83890000D02*
G75*
G02*
X9215816Y-83162795I1800000J1850000D01*
G01*
X11540000Y-79440000D02*
G75*
G02*
X13896400Y-80941193I0J-2600000D01*
G01*
X13864184Y-83162795D02*
G75*
G02*
X13340000Y-83890000I-2324184J1122795D01*
G01*
%TO.C,Q84*%
X67100000Y-66220000D02*
X63500000Y-66220000D01*
X62975816Y-66947205D02*
G75*
G02*
X63500000Y-66220000I2324184J-1122795D01*
G01*
X65300000Y-70670000D02*
G75*
G02*
X62943600Y-69168807I0J2600000D01*
G01*
X67100000Y-66220000D02*
G75*
G02*
X67624184Y-66947205I-1800000J-1850000D01*
G01*
X67656400Y-69168807D02*
G75*
G02*
X65300000Y-70670000I-2356400J1098807D01*
G01*
%TO.C,R24*%
X41090000Y-16000000D02*
X43700000Y-16000000D01*
X41090000Y-16000000D02*
G75*
G02*
X38350000Y-16000000I-1370000J0D01*
G01*
X38350000Y-16000000D02*
G75*
G02*
X41090000Y-16000000I1370000J0D01*
G01*
%TO.C,Q73*%
X55820000Y-70555000D02*
X59420000Y-70555000D01*
X55263600Y-67606193D02*
G75*
G02*
X57620000Y-66105000I2356400J-1098807D01*
G01*
X55820000Y-70555000D02*
G75*
G02*
X55295816Y-69827795I1800000J1850000D01*
G01*
X57620000Y-66105000D02*
G75*
G02*
X59976400Y-67606193I0J-2600000D01*
G01*
X59944184Y-69827795D02*
G75*
G02*
X59420000Y-70555000I-2324184J1122795D01*
G01*
%TO.C,Q27*%
X25100000Y-48965000D02*
X28700000Y-48965000D01*
X24543600Y-46016193D02*
G75*
G02*
X26900000Y-44515000I2356400J-1098807D01*
G01*
X25100000Y-48965000D02*
G75*
G02*
X24575816Y-48237795I1800000J1850000D01*
G01*
X26900000Y-44515000D02*
G75*
G02*
X29256400Y-46016193I0J-2600000D01*
G01*
X29224184Y-48237795D02*
G75*
G02*
X28700000Y-48965000I-2324184J1122795D01*
G01*
%TO.C,Q42*%
X36380000Y-71300000D02*
X32780000Y-71300000D01*
X32255816Y-72027205D02*
G75*
G02*
X32780000Y-71300000I2324184J-1122795D01*
G01*
X34580000Y-75750000D02*
G75*
G02*
X32223600Y-74248807I0J2600000D01*
G01*
X36380000Y-71300000D02*
G75*
G02*
X36904184Y-72027205I-1800000J-1850000D01*
G01*
X36936400Y-74248807D02*
G75*
G02*
X34580000Y-75750000I-2356400J1098807D01*
G01*
%TO.C,Q8*%
X9740000Y-70555000D02*
X13340000Y-70555000D01*
X9183600Y-67606193D02*
G75*
G02*
X11540000Y-66105000I2356400J-1098807D01*
G01*
X9740000Y-70555000D02*
G75*
G02*
X9215816Y-69827795I1800000J1850000D01*
G01*
X11540000Y-66105000D02*
G75*
G02*
X13896400Y-67606193I0J-2600000D01*
G01*
X13864184Y-69827795D02*
G75*
G02*
X13340000Y-70555000I-2324184J1122795D01*
G01*
%TO.C,Q61*%
X51740000Y-52885000D02*
X48140000Y-52885000D01*
X47615816Y-53612205D02*
G75*
G02*
X48140000Y-52885000I2324184J-1122795D01*
G01*
X49940000Y-57335000D02*
G75*
G02*
X47583600Y-55833807I0J2600000D01*
G01*
X51740000Y-52885000D02*
G75*
G02*
X52264184Y-53612205I-1800000J-1850000D01*
G01*
X52296400Y-55833807D02*
G75*
G02*
X49940000Y-57335000I-2356400J1098807D01*
G01*
%TO.C,R4*%
X10370000Y-50925000D02*
X12980000Y-50925000D01*
X10370000Y-50925000D02*
G75*
G02*
X7630000Y-50925000I-1370000J0D01*
G01*
X7630000Y-50925000D02*
G75*
G02*
X10370000Y-50925000I1370000J0D01*
G01*
%TO.C,Q90*%
X71180000Y-35630000D02*
X74780000Y-35630000D01*
X70623600Y-32681193D02*
G75*
G02*
X72980000Y-31180000I2356400J-1098807D01*
G01*
X71180000Y-35630000D02*
G75*
G02*
X70655816Y-34902795I1800000J1850000D01*
G01*
X72980000Y-31180000D02*
G75*
G02*
X75336400Y-32681193I0J-2600000D01*
G01*
X75304184Y-34902795D02*
G75*
G02*
X74780000Y-35630000I-2324184J1122795D01*
G01*
%TO.C,Q28*%
X25100000Y-57220000D02*
X28700000Y-57220000D01*
X24543600Y-54271193D02*
G75*
G02*
X26900000Y-52770000I2356400J-1098807D01*
G01*
X25100000Y-57220000D02*
G75*
G02*
X24575816Y-56492795I1800000J1850000D01*
G01*
X26900000Y-52770000D02*
G75*
G02*
X29256400Y-54271193I0J-2600000D01*
G01*
X29224184Y-56492795D02*
G75*
G02*
X28700000Y-57220000I-2324184J1122795D01*
G01*
%TO.C,Q6*%
X9740000Y-57220000D02*
X13340000Y-57220000D01*
X9183600Y-54271193D02*
G75*
G02*
X11540000Y-52770000I2356400J-1098807D01*
G01*
X9740000Y-57220000D02*
G75*
G02*
X9215816Y-56492795I1800000J1850000D01*
G01*
X11540000Y-52770000D02*
G75*
G02*
X13896400Y-54271193I0J-2600000D01*
G01*
X13864184Y-56492795D02*
G75*
G02*
X13340000Y-57220000I-2324184J1122795D01*
G01*
%TO.C,Q41*%
X36380000Y-63045000D02*
X32780000Y-63045000D01*
X32255816Y-63772205D02*
G75*
G02*
X32780000Y-63045000I2324184J-1122795D01*
G01*
X34580000Y-67495000D02*
G75*
G02*
X32223600Y-65993807I0J2600000D01*
G01*
X36380000Y-63045000D02*
G75*
G02*
X36904184Y-63772205I-1800000J-1850000D01*
G01*
X36936400Y-65993807D02*
G75*
G02*
X34580000Y-67495000I-2356400J1098807D01*
G01*
%TO.C,R36*%
X56450000Y-16000000D02*
X59060000Y-16000000D01*
X56450000Y-16000000D02*
G75*
G02*
X53710000Y-16000000I-1370000J0D01*
G01*
X53710000Y-16000000D02*
G75*
G02*
X56450000Y-16000000I1370000J0D01*
G01*
%TO.C,Q97*%
X71180000Y-87065000D02*
X74780000Y-87065000D01*
X70623600Y-84116193D02*
G75*
G02*
X72980000Y-82615000I2356400J-1098807D01*
G01*
X71180000Y-87065000D02*
G75*
G02*
X70655816Y-86337795I1800000J1850000D01*
G01*
X72980000Y-82615000D02*
G75*
G02*
X75336400Y-84116193I0J-2600000D01*
G01*
X75304184Y-86337795D02*
G75*
G02*
X74780000Y-87065000I-2324184J1122795D01*
G01*
%TO.C,Q56*%
X51740000Y-17960000D02*
X48140000Y-17960000D01*
X47615816Y-18687205D02*
G75*
G02*
X48140000Y-17960000I2324184J-1122795D01*
G01*
X49940000Y-22410000D02*
G75*
G02*
X47583600Y-20908807I0J2600000D01*
G01*
X51740000Y-17960000D02*
G75*
G02*
X52264184Y-18687205I-1800000J-1850000D01*
G01*
X52296400Y-20908807D02*
G75*
G02*
X49940000Y-22410000I-2356400J1098807D01*
G01*
%TO.C,R15*%
X25730000Y-42670000D02*
X28340000Y-42670000D01*
X25730000Y-42670000D02*
G75*
G02*
X22990000Y-42670000I-1370000J0D01*
G01*
X22990000Y-42670000D02*
G75*
G02*
X25730000Y-42670000I1370000J0D01*
G01*
%TO.C,Q58*%
X51740000Y-31295000D02*
X48140000Y-31295000D01*
X47615816Y-32022205D02*
G75*
G02*
X48140000Y-31295000I2324184J-1122795D01*
G01*
X49940000Y-35745000D02*
G75*
G02*
X47583600Y-34243807I0J2600000D01*
G01*
X51740000Y-31295000D02*
G75*
G02*
X52264184Y-32022205I-1800000J-1850000D01*
G01*
X52296400Y-34243807D02*
G75*
G02*
X49940000Y-35745000I-2356400J1098807D01*
G01*
%TO.C,R3*%
X10370000Y-37590000D02*
X12980000Y-37590000D01*
X10370000Y-37590000D02*
G75*
G02*
X7630000Y-37590000I-1370000J0D01*
G01*
X7630000Y-37590000D02*
G75*
G02*
X10370000Y-37590000I1370000J0D01*
G01*
%TO.C,R37*%
X56450000Y-29335000D02*
X59060000Y-29335000D01*
X56450000Y-29335000D02*
G75*
G02*
X53710000Y-29335000I-1370000J0D01*
G01*
X53710000Y-29335000D02*
G75*
G02*
X56450000Y-29335000I1370000J0D01*
G01*
%TO.C,Q92*%
X71180000Y-48965000D02*
X74780000Y-48965000D01*
X70623600Y-46016193D02*
G75*
G02*
X72980000Y-44515000I2356400J-1098807D01*
G01*
X71180000Y-48965000D02*
G75*
G02*
X70655816Y-48237795I1800000J1850000D01*
G01*
X72980000Y-44515000D02*
G75*
G02*
X75336400Y-46016193I0J-2600000D01*
G01*
X75304184Y-48237795D02*
G75*
G02*
X74780000Y-48965000I-2324184J1122795D01*
G01*
%TO.C,R35*%
X48770000Y-77595000D02*
X51380000Y-77595000D01*
X48770000Y-77595000D02*
G75*
G02*
X46030000Y-77595000I-1370000J0D01*
G01*
X46030000Y-77595000D02*
G75*
G02*
X48770000Y-77595000I1370000J0D01*
G01*
%TO.C,Q46*%
X40460000Y-32455000D02*
X44060000Y-32455000D01*
X39903600Y-29506193D02*
G75*
G02*
X42260000Y-28005000I2356400J-1098807D01*
G01*
X40460000Y-32455000D02*
G75*
G02*
X39935816Y-31727795I1800000J1850000D01*
G01*
X42260000Y-28005000D02*
G75*
G02*
X44616400Y-29506193I0J-2600000D01*
G01*
X44584184Y-31727795D02*
G75*
G02*
X44060000Y-32455000I-2324184J1122795D01*
G01*
%TO.C,Q93*%
X71180000Y-54045000D02*
X74780000Y-54045000D01*
X70623600Y-51096193D02*
G75*
G02*
X72980000Y-49595000I2356400J-1098807D01*
G01*
X71180000Y-54045000D02*
G75*
G02*
X70655816Y-53317795I1800000J1850000D01*
G01*
X72980000Y-49595000D02*
G75*
G02*
X75336400Y-51096193I0J-2600000D01*
G01*
X75304184Y-53317795D02*
G75*
G02*
X74780000Y-54045000I-2324184J1122795D01*
G01*
%TO.C,Q88*%
X71180000Y-22295000D02*
X74780000Y-22295000D01*
X70623600Y-19346193D02*
G75*
G02*
X72980000Y-17845000I2356400J-1098807D01*
G01*
X71180000Y-22295000D02*
G75*
G02*
X70655816Y-21567795I1800000J1850000D01*
G01*
X72980000Y-17845000D02*
G75*
G02*
X75336400Y-19346193I0J-2600000D01*
G01*
X75304184Y-21567795D02*
G75*
G02*
X74780000Y-22295000I-2324184J1122795D01*
G01*
%TO.C,D2*%
X79424000Y-22640000D02*
X79580000Y-22640000D01*
X81740000Y-22640000D02*
X81896000Y-22640000D01*
X79424484Y-22640000D02*
G75*
G02*
X79580000Y-19408563I1235516J1560000D01*
G01*
X79580000Y-22120961D02*
G75*
G02*
X79580000Y-20039039I1080000J1040961D01*
G01*
X81740000Y-19408563D02*
G75*
G02*
X81895516Y-22640000I-1080000J-1671437D01*
G01*
X81740000Y-20039039D02*
G75*
G02*
X81740000Y-22120961I-1080000J-1040961D01*
G01*
%TO.C,R7*%
X18050000Y-16000000D02*
X20660000Y-16000000D01*
X18050000Y-16000000D02*
G75*
G02*
X15310000Y-16000000I-1370000J0D01*
G01*
X15310000Y-16000000D02*
G75*
G02*
X18050000Y-16000000I1370000J0D01*
G01*
%TO.C,Q31*%
X25100000Y-75635000D02*
X28700000Y-75635000D01*
X24543600Y-72686193D02*
G75*
G02*
X26900000Y-71185000I2356400J-1098807D01*
G01*
X25100000Y-75635000D02*
G75*
G02*
X24575816Y-74907795I1800000J1850000D01*
G01*
X26900000Y-71185000D02*
G75*
G02*
X29256400Y-72686193I0J-2600000D01*
G01*
X29224184Y-74907795D02*
G75*
G02*
X28700000Y-75635000I-2324184J1122795D01*
G01*
%TO.C,J1*%
X5420000Y-1670000D02*
X94580000Y-1670000D01*
X5420000Y-10790000D02*
X5420000Y-1670000D01*
X6720000Y-2980000D02*
X93280000Y-2980000D01*
X6720000Y-9480000D02*
X6720000Y-2980000D01*
X10130000Y-12180000D02*
X11130000Y-12180000D01*
X10630000Y-11180000D02*
X10130000Y-12180000D01*
X11130000Y-12180000D02*
X10630000Y-11180000D01*
X47950000Y-9480000D02*
X6720000Y-9480000D01*
X47950000Y-10790000D02*
X47950000Y-9480000D01*
X52050000Y-9480000D02*
X52050000Y-10790000D01*
X93280000Y-2980000D02*
X93280000Y-9480000D01*
X93280000Y-9480000D02*
X52050000Y-9480000D01*
X94580000Y-1670000D02*
X94580000Y-10790000D01*
X94580000Y-10790000D02*
X5420000Y-10790000D01*
%TO.C,Q54*%
X40460000Y-88970000D02*
X44060000Y-88970000D01*
X39903600Y-86021193D02*
G75*
G02*
X42260000Y-84520000I2356400J-1098807D01*
G01*
X40460000Y-88970000D02*
G75*
G02*
X39935816Y-88242795I1800000J1850000D01*
G01*
X42260000Y-84520000D02*
G75*
G02*
X44616400Y-86021193I0J-2600000D01*
G01*
X44584184Y-88242795D02*
G75*
G02*
X44060000Y-88970000I-2324184J1122795D01*
G01*
%TO.C,R50*%
X71810000Y-42670000D02*
X74420000Y-42670000D01*
X71810000Y-42670000D02*
G75*
G02*
X69070000Y-42670000I-1370000J0D01*
G01*
X69070000Y-42670000D02*
G75*
G02*
X71810000Y-42670000I1370000J0D01*
G01*
%TO.C,Q45*%
X40460000Y-27375000D02*
X44060000Y-27375000D01*
X39903600Y-24426193D02*
G75*
G02*
X42260000Y-22925000I2356400J-1098807D01*
G01*
X40460000Y-27375000D02*
G75*
G02*
X39935816Y-26647795I1800000J1850000D01*
G01*
X42260000Y-22925000D02*
G75*
G02*
X44616400Y-24426193I0J-2600000D01*
G01*
X44584184Y-26647795D02*
G75*
G02*
X44060000Y-27375000I-2324184J1122795D01*
G01*
%TO.C,Q70*%
X55820000Y-48965000D02*
X59420000Y-48965000D01*
X55263600Y-46016193D02*
G75*
G02*
X57620000Y-44515000I2356400J-1098807D01*
G01*
X55820000Y-48965000D02*
G75*
G02*
X55295816Y-48237795I1800000J1850000D01*
G01*
X57620000Y-44515000D02*
G75*
G02*
X59976400Y-46016193I0J-2600000D01*
G01*
X59944184Y-48237795D02*
G75*
G02*
X59420000Y-48965000I-2324184J1122795D01*
G01*
%TO.C,R46*%
X64130000Y-64260000D02*
X66740000Y-64260000D01*
X64130000Y-64260000D02*
G75*
G02*
X61390000Y-64260000I-1370000J0D01*
G01*
X61390000Y-64260000D02*
G75*
G02*
X64130000Y-64260000I1370000J0D01*
G01*
%TO.C,Q76*%
X55820000Y-88970000D02*
X59420000Y-88970000D01*
X55263600Y-86021193D02*
G75*
G02*
X57620000Y-84520000I2356400J-1098807D01*
G01*
X55820000Y-88970000D02*
G75*
G02*
X55295816Y-88242795I1800000J1850000D01*
G01*
X57620000Y-84520000D02*
G75*
G02*
X59976400Y-86021193I0J-2600000D01*
G01*
X59944184Y-88242795D02*
G75*
G02*
X59420000Y-88970000I-2324184J1122795D01*
G01*
%TO.C,Q20*%
X21020000Y-76380000D02*
X17420000Y-76380000D01*
X16895816Y-77107205D02*
G75*
G02*
X17420000Y-76380000I2324184J-1122795D01*
G01*
X19220000Y-80830000D02*
G75*
G02*
X16863600Y-79328807I0J2600000D01*
G01*
X21020000Y-76380000D02*
G75*
G02*
X21544184Y-77107205I-1800000J-1850000D01*
G01*
X21576400Y-79328807D02*
G75*
G02*
X19220000Y-80830000I-2356400J1098807D01*
G01*
%TO.C,R19*%
X33410000Y-16000000D02*
X36020000Y-16000000D01*
X33410000Y-16000000D02*
G75*
G02*
X30670000Y-16000000I-1370000J0D01*
G01*
X30670000Y-16000000D02*
G75*
G02*
X33410000Y-16000000I1370000J0D01*
G01*
%TO.C,R53*%
X79490000Y-16000000D02*
X82100000Y-16000000D01*
X79490000Y-16000000D02*
G75*
G02*
X76750000Y-16000000I-1370000J0D01*
G01*
X76750000Y-16000000D02*
G75*
G02*
X79490000Y-16000000I1370000J0D01*
G01*
%TO.C,R12*%
X18050000Y-82675000D02*
X20660000Y-82675000D01*
X18050000Y-82675000D02*
G75*
G02*
X15310000Y-82675000I-1370000J0D01*
G01*
X15310000Y-82675000D02*
G75*
G02*
X18050000Y-82675000I1370000J0D01*
G01*
%TO.C,R51*%
X71810000Y-56005000D02*
X74420000Y-56005000D01*
X71810000Y-56005000D02*
G75*
G02*
X69070000Y-56005000I-1370000J0D01*
G01*
X69070000Y-56005000D02*
G75*
G02*
X71810000Y-56005000I1370000J0D01*
G01*
%TO.C,Q12*%
X21020000Y-23040000D02*
X17420000Y-23040000D01*
X16895816Y-23767205D02*
G75*
G02*
X17420000Y-23040000I2324184J-1122795D01*
G01*
X19220000Y-27490000D02*
G75*
G02*
X16863600Y-25988807I0J2600000D01*
G01*
X21020000Y-23040000D02*
G75*
G02*
X21544184Y-23767205I-1800000J-1850000D01*
G01*
X21576400Y-25988807D02*
G75*
G02*
X19220000Y-27490000I-2356400J1098807D01*
G01*
%TO.C,D1*%
X71744000Y-81060000D02*
X71900000Y-81060000D01*
X74060000Y-81060000D02*
X74216000Y-81060000D01*
X71744484Y-81060000D02*
G75*
G02*
X71900000Y-77828563I1235516J1560000D01*
G01*
X71900000Y-80540961D02*
G75*
G02*
X71900000Y-78459039I1080000J1040961D01*
G01*
X74060000Y-77828563D02*
G75*
G02*
X74215516Y-81060000I-1080000J-1671437D01*
G01*
X74060000Y-78459039D02*
G75*
G02*
X74060000Y-80540961I-1080000J-1040961D01*
G01*
%TO.C,Q75*%
X55820000Y-83890000D02*
X59420000Y-83890000D01*
X55263600Y-80941193D02*
G75*
G02*
X57620000Y-79440000I2356400J-1098807D01*
G01*
X55820000Y-83890000D02*
G75*
G02*
X55295816Y-83162795I1800000J1850000D01*
G01*
X57620000Y-79440000D02*
G75*
G02*
X59976400Y-80941193I0J-2600000D01*
G01*
X59944184Y-83162795D02*
G75*
G02*
X59420000Y-83890000I-2324184J1122795D01*
G01*
%TO.C,R33*%
X48770000Y-50925000D02*
X51380000Y-50925000D01*
X48770000Y-50925000D02*
G75*
G02*
X46030000Y-50925000I-1370000J0D01*
G01*
X46030000Y-50925000D02*
G75*
G02*
X48770000Y-50925000I1370000J0D01*
G01*
%TO.C,Q35*%
X36380000Y-23040000D02*
X32780000Y-23040000D01*
X32255816Y-23767205D02*
G75*
G02*
X32780000Y-23040000I2324184J-1122795D01*
G01*
X34580000Y-27490000D02*
G75*
G02*
X32223600Y-25988807I0J2600000D01*
G01*
X36380000Y-23040000D02*
G75*
G02*
X36904184Y-23767205I-1800000J-1850000D01*
G01*
X36936400Y-25988807D02*
G75*
G02*
X34580000Y-27490000I-2356400J1098807D01*
G01*
%TO.C,Q22*%
X21020000Y-89715000D02*
X17420000Y-89715000D01*
X16895816Y-90442205D02*
G75*
G02*
X17420000Y-89715000I2324184J-1122795D01*
G01*
X19220000Y-94165000D02*
G75*
G02*
X16863600Y-92663807I0J2600000D01*
G01*
X21020000Y-89715000D02*
G75*
G02*
X21544184Y-90442205I-1800000J-1850000D01*
G01*
X21576400Y-92663807D02*
G75*
G02*
X19220000Y-94165000I-2356400J1098807D01*
G01*
%TO.C,Q72*%
X55820000Y-62300000D02*
X59420000Y-62300000D01*
X55263600Y-59351193D02*
G75*
G02*
X57620000Y-57850000I2356400J-1098807D01*
G01*
X55820000Y-62300000D02*
G75*
G02*
X55295816Y-61572795I1800000J1850000D01*
G01*
X57620000Y-57850000D02*
G75*
G02*
X59976400Y-59351193I0J-2600000D01*
G01*
X59944184Y-61572795D02*
G75*
G02*
X59420000Y-62300000I-2324184J1122795D01*
G01*
%TO.C,R27*%
X41090000Y-56005000D02*
X43700000Y-56005000D01*
X41090000Y-56005000D02*
G75*
G02*
X38350000Y-56005000I-1370000J0D01*
G01*
X38350000Y-56005000D02*
G75*
G02*
X41090000Y-56005000I1370000J0D01*
G01*
%TO.C,Q83*%
X67100000Y-57965000D02*
X63500000Y-57965000D01*
X62975816Y-58692205D02*
G75*
G02*
X63500000Y-57965000I2324184J-1122795D01*
G01*
X65300000Y-62415000D02*
G75*
G02*
X62943600Y-60913807I0J2600000D01*
G01*
X67100000Y-57965000D02*
G75*
G02*
X67624184Y-58692205I-1800000J-1850000D01*
G01*
X67656400Y-60913807D02*
G75*
G02*
X65300000Y-62415000I-2356400J1098807D01*
G01*
%TO.C,Q36*%
X36380000Y-31295000D02*
X32780000Y-31295000D01*
X32255816Y-32022205D02*
G75*
G02*
X32780000Y-31295000I2324184J-1122795D01*
G01*
X34580000Y-35745000D02*
G75*
G02*
X32223600Y-34243807I0J2600000D01*
G01*
X36380000Y-31295000D02*
G75*
G02*
X36904184Y-32022205I-1800000J-1850000D01*
G01*
X36936400Y-34243807D02*
G75*
G02*
X34580000Y-35745000I-2356400J1098807D01*
G01*
%TO.C,R17*%
X25730000Y-64260000D02*
X28340000Y-64260000D01*
X25730000Y-64260000D02*
G75*
G02*
X22990000Y-64260000I-1370000J0D01*
G01*
X22990000Y-64260000D02*
G75*
G02*
X25730000Y-64260000I1370000J0D01*
G01*
%TO.C,Q5*%
X9740000Y-48965000D02*
X13340000Y-48965000D01*
X9183600Y-46016193D02*
G75*
G02*
X11540000Y-44515000I2356400J-1098807D01*
G01*
X9740000Y-48965000D02*
G75*
G02*
X9215816Y-48237795I1800000J1850000D01*
G01*
X11540000Y-44515000D02*
G75*
G02*
X13896400Y-46016193I0J-2600000D01*
G01*
X13864184Y-48237795D02*
G75*
G02*
X13340000Y-48965000I-2324184J1122795D01*
G01*
%TO.C,Q52*%
X40460000Y-75635000D02*
X44060000Y-75635000D01*
X39903600Y-72686193D02*
G75*
G02*
X42260000Y-71185000I2356400J-1098807D01*
G01*
X40460000Y-75635000D02*
G75*
G02*
X39935816Y-74907795I1800000J1850000D01*
G01*
X42260000Y-71185000D02*
G75*
G02*
X44616400Y-72686193I0J-2600000D01*
G01*
X44584184Y-74907795D02*
G75*
G02*
X44060000Y-75635000I-2324184J1122795D01*
G01*
%TO.C,R38*%
X56450000Y-42670000D02*
X59060000Y-42670000D01*
X56450000Y-42670000D02*
G75*
G02*
X53710000Y-42670000I-1370000J0D01*
G01*
X53710000Y-42670000D02*
G75*
G02*
X56450000Y-42670000I1370000J0D01*
G01*
%TO.C,R32*%
X48770000Y-37590000D02*
X51380000Y-37590000D01*
X48770000Y-37590000D02*
G75*
G02*
X46030000Y-37590000I-1370000J0D01*
G01*
X46030000Y-37590000D02*
G75*
G02*
X48770000Y-37590000I1370000J0D01*
G01*
%TO.C,Q43*%
X36380000Y-76380000D02*
X32780000Y-76380000D01*
X32255816Y-77107205D02*
G75*
G02*
X32780000Y-76380000I2324184J-1122795D01*
G01*
X34580000Y-80830000D02*
G75*
G02*
X32223600Y-79328807I0J2600000D01*
G01*
X36380000Y-76380000D02*
G75*
G02*
X36904184Y-77107205I-1800000J-1850000D01*
G01*
X36936400Y-79328807D02*
G75*
G02*
X34580000Y-80830000I-2356400J1098807D01*
G01*
%TO.C,Q86*%
X67100000Y-79555000D02*
X63500000Y-79555000D01*
X62975816Y-80282205D02*
G75*
G02*
X63500000Y-79555000I2324184J-1122795D01*
G01*
X65300000Y-84005000D02*
G75*
G02*
X62943600Y-82503807I0J2600000D01*
G01*
X67100000Y-79555000D02*
G75*
G02*
X67624184Y-80282205I-1800000J-1850000D01*
G01*
X67656400Y-82503807D02*
G75*
G02*
X65300000Y-84005000I-2356400J1098807D01*
G01*
%TO.C,R42*%
X64130000Y-16000000D02*
X66740000Y-16000000D01*
X64130000Y-16000000D02*
G75*
G02*
X61390000Y-16000000I-1370000J0D01*
G01*
X61390000Y-16000000D02*
G75*
G02*
X64130000Y-16000000I1370000J0D01*
G01*
%TO.C,Q39*%
X36380000Y-49710000D02*
X32780000Y-49710000D01*
X32255816Y-50437205D02*
G75*
G02*
X32780000Y-49710000I2324184J-1122795D01*
G01*
X34580000Y-54160000D02*
G75*
G02*
X32223600Y-52658807I0J2600000D01*
G01*
X36380000Y-49710000D02*
G75*
G02*
X36904184Y-50437205I-1800000J-1850000D01*
G01*
X36936400Y-52658807D02*
G75*
G02*
X34580000Y-54160000I-2356400J1098807D01*
G01*
%TO.C,R8*%
X18050000Y-29335000D02*
X20660000Y-29335000D01*
X18050000Y-29335000D02*
G75*
G02*
X15310000Y-29335000I-1370000J0D01*
G01*
X15310000Y-29335000D02*
G75*
G02*
X18050000Y-29335000I1370000J0D01*
G01*
%TO.C,Q95*%
X71180000Y-67380000D02*
X74780000Y-67380000D01*
X70623600Y-64431193D02*
G75*
G02*
X72980000Y-62930000I2356400J-1098807D01*
G01*
X71180000Y-67380000D02*
G75*
G02*
X70655816Y-66652795I1800000J1850000D01*
G01*
X72980000Y-62930000D02*
G75*
G02*
X75336400Y-64431193I0J-2600000D01*
G01*
X75304184Y-66652795D02*
G75*
G02*
X74780000Y-67380000I-2324184J1122795D01*
G01*
%TO.C,R23*%
X33410000Y-69340000D02*
X36020000Y-69340000D01*
X33410000Y-69340000D02*
G75*
G02*
X30670000Y-69340000I-1370000J0D01*
G01*
X30670000Y-69340000D02*
G75*
G02*
X33410000Y-69340000I1370000J0D01*
G01*
%TO.C,R39*%
X56450000Y-56005000D02*
X59060000Y-56005000D01*
X56450000Y-56005000D02*
G75*
G02*
X53710000Y-56005000I-1370000J0D01*
G01*
X53710000Y-56005000D02*
G75*
G02*
X56450000Y-56005000I1370000J0D01*
G01*
%TO.C,R2*%
X10370000Y-24255000D02*
X12980000Y-24255000D01*
X10370000Y-24255000D02*
G75*
G02*
X7630000Y-24255000I-1370000J0D01*
G01*
X7630000Y-24255000D02*
G75*
G02*
X10370000Y-24255000I1370000J0D01*
G01*
%TO.C,Q47*%
X40460000Y-40710000D02*
X44060000Y-40710000D01*
X39903600Y-37761193D02*
G75*
G02*
X42260000Y-36260000I2356400J-1098807D01*
G01*
X40460000Y-40710000D02*
G75*
G02*
X39935816Y-39982795I1800000J1850000D01*
G01*
X42260000Y-36260000D02*
G75*
G02*
X44616400Y-37761193I0J-2600000D01*
G01*
X44584184Y-39982795D02*
G75*
G02*
X44060000Y-40710000I-2324184J1122795D01*
G01*
%TO.C,R26*%
X41090000Y-42670000D02*
X43700000Y-42670000D01*
X41090000Y-42670000D02*
G75*
G02*
X38350000Y-42670000I-1370000J0D01*
G01*
X38350000Y-42670000D02*
G75*
G02*
X41090000Y-42670000I1370000J0D01*
G01*
%TO.C,Q34*%
X36380000Y-17960000D02*
X32780000Y-17960000D01*
X32255816Y-18687205D02*
G75*
G02*
X32780000Y-17960000I2324184J-1122795D01*
G01*
X34580000Y-22410000D02*
G75*
G02*
X32223600Y-20908807I0J2600000D01*
G01*
X36380000Y-17960000D02*
G75*
G02*
X36904184Y-18687205I-1800000J-1850000D01*
G01*
X36936400Y-20908807D02*
G75*
G02*
X34580000Y-22410000I-2356400J1098807D01*
G01*
%TO.C,R49*%
X71810000Y-29335000D02*
X74420000Y-29335000D01*
X71810000Y-29335000D02*
G75*
G02*
X69070000Y-29335000I-1370000J0D01*
G01*
X69070000Y-29335000D02*
G75*
G02*
X71810000Y-29335000I1370000J0D01*
G01*
%TO.C,Q11*%
X21020000Y-17960000D02*
X17420000Y-17960000D01*
X16895816Y-18687205D02*
G75*
G02*
X17420000Y-17960000I2324184J-1122795D01*
G01*
X19220000Y-22410000D02*
G75*
G02*
X16863600Y-20908807I0J2600000D01*
G01*
X21020000Y-17960000D02*
G75*
G02*
X21544184Y-18687205I-1800000J-1850000D01*
G01*
X21576400Y-20908807D02*
G75*
G02*
X19220000Y-22410000I-2356400J1098807D01*
G01*
%TO.C,Q85*%
X67100000Y-71300000D02*
X63500000Y-71300000D01*
X62975816Y-72027205D02*
G75*
G02*
X63500000Y-71300000I2324184J-1122795D01*
G01*
X65300000Y-75750000D02*
G75*
G02*
X62943600Y-74248807I0J2600000D01*
G01*
X67100000Y-71300000D02*
G75*
G02*
X67624184Y-72027205I-1800000J-1850000D01*
G01*
X67656400Y-74248807D02*
G75*
G02*
X65300000Y-75750000I-2356400J1098807D01*
G01*
%TO.C,Q53*%
X40460000Y-80715000D02*
X44060000Y-80715000D01*
X39903600Y-77766193D02*
G75*
G02*
X42260000Y-76265000I2356400J-1098807D01*
G01*
X40460000Y-80715000D02*
G75*
G02*
X39935816Y-79987795I1800000J1850000D01*
G01*
X42260000Y-76265000D02*
G75*
G02*
X44616400Y-77766193I0J-2600000D01*
G01*
X44584184Y-79987795D02*
G75*
G02*
X44060000Y-80715000I-2324184J1122795D01*
G01*
%TO.C,Q89*%
X71180000Y-27375000D02*
X74780000Y-27375000D01*
X70623600Y-24426193D02*
G75*
G02*
X72980000Y-22925000I2356400J-1098807D01*
G01*
X71180000Y-27375000D02*
G75*
G02*
X70655816Y-26647795I1800000J1850000D01*
G01*
X72980000Y-22925000D02*
G75*
G02*
X75336400Y-24426193I0J-2600000D01*
G01*
X75304184Y-26647795D02*
G75*
G02*
X74780000Y-27375000I-2324184J1122795D01*
G01*
%TO.C,R1*%
X10370000Y-16000000D02*
X12980000Y-16000000D01*
X10370000Y-16000000D02*
G75*
G02*
X7630000Y-16000000I-1370000J0D01*
G01*
X7630000Y-16000000D02*
G75*
G02*
X10370000Y-16000000I1370000J0D01*
G01*
%TO.C,Q2*%
X9740000Y-30550000D02*
X13340000Y-30550000D01*
X9183600Y-27601193D02*
G75*
G02*
X11540000Y-26100000I2356400J-1098807D01*
G01*
X9740000Y-30550000D02*
G75*
G02*
X9215816Y-29822795I1800000J1850000D01*
G01*
X11540000Y-26100000D02*
G75*
G02*
X13896400Y-27601193I0J-2600000D01*
G01*
X13864184Y-29822795D02*
G75*
G02*
X13340000Y-30550000I-2324184J1122795D01*
G01*
%TO.C,Q77*%
X67100000Y-17960000D02*
X63500000Y-17960000D01*
X62975816Y-18687205D02*
G75*
G02*
X63500000Y-17960000I2324184J-1122795D01*
G01*
X65300000Y-22410000D02*
G75*
G02*
X62943600Y-20908807I0J2600000D01*
G01*
X67100000Y-17960000D02*
G75*
G02*
X67624184Y-18687205I-1800000J-1850000D01*
G01*
X67656400Y-20908807D02*
G75*
G02*
X65300000Y-22410000I-2356400J1098807D01*
G01*
%TO.C,R28*%
X41090000Y-69340000D02*
X43700000Y-69340000D01*
X41090000Y-69340000D02*
G75*
G02*
X38350000Y-69340000I-1370000J0D01*
G01*
X38350000Y-69340000D02*
G75*
G02*
X41090000Y-69340000I1370000J0D01*
G01*
%TO.C,Q99*%
X82460000Y-40185000D02*
X78860000Y-40185000D01*
X78335816Y-40912205D02*
G75*
G02*
X78860000Y-40185000I2324184J-1122795D01*
G01*
X80660000Y-44635000D02*
G75*
G02*
X78303600Y-43133807I0J2600000D01*
G01*
X82460000Y-40185000D02*
G75*
G02*
X82984184Y-40912205I-1800000J-1850000D01*
G01*
X83016400Y-43133807D02*
G75*
G02*
X80660000Y-44635000I-2356400J1098807D01*
G01*
%TO.C,Q17*%
X21020000Y-54790000D02*
X17420000Y-54790000D01*
X16895816Y-55517205D02*
G75*
G02*
X17420000Y-54790000I2324184J-1122795D01*
G01*
X19220000Y-59240000D02*
G75*
G02*
X16863600Y-57738807I0J2600000D01*
G01*
X21020000Y-54790000D02*
G75*
G02*
X21544184Y-55517205I-1800000J-1850000D01*
G01*
X21576400Y-57738807D02*
G75*
G02*
X19220000Y-59240000I-2356400J1098807D01*
G01*
%TO.C,Q69*%
X55820000Y-40710000D02*
X59420000Y-40710000D01*
X55263600Y-37761193D02*
G75*
G02*
X57620000Y-36260000I2356400J-1098807D01*
G01*
X55820000Y-40710000D02*
G75*
G02*
X55295816Y-39982795I1800000J1850000D01*
G01*
X57620000Y-36260000D02*
G75*
G02*
X59976400Y-37761193I0J-2600000D01*
G01*
X59944184Y-39982795D02*
G75*
G02*
X59420000Y-40710000I-2324184J1122795D01*
G01*
%TO.C,R20*%
X33410000Y-29335000D02*
X36020000Y-29335000D01*
X33410000Y-29335000D02*
G75*
G02*
X30670000Y-29335000I-1370000J0D01*
G01*
X30670000Y-29335000D02*
G75*
G02*
X33410000Y-29335000I1370000J0D01*
G01*
%TO.C,Q29*%
X25100000Y-62300000D02*
X28700000Y-62300000D01*
X24543600Y-59351193D02*
G75*
G02*
X26900000Y-57850000I2356400J-1098807D01*
G01*
X25100000Y-62300000D02*
G75*
G02*
X24575816Y-61572795I1800000J1850000D01*
G01*
X26900000Y-57850000D02*
G75*
G02*
X29256400Y-59351193I0J-2600000D01*
G01*
X29224184Y-61572795D02*
G75*
G02*
X28700000Y-62300000I-2324184J1122795D01*
G01*
%TO.C,R29*%
X41090000Y-82675000D02*
X43700000Y-82675000D01*
X41090000Y-82675000D02*
G75*
G02*
X38350000Y-82675000I-1370000J0D01*
G01*
X38350000Y-82675000D02*
G75*
G02*
X41090000Y-82675000I1370000J0D01*
G01*
%TO.C,Q40*%
X36380000Y-57965000D02*
X32780000Y-57965000D01*
X32255816Y-58692205D02*
G75*
G02*
X32780000Y-57965000I2324184J-1122795D01*
G01*
X34580000Y-62415000D02*
G75*
G02*
X32223600Y-60913807I0J2600000D01*
G01*
X36380000Y-57965000D02*
G75*
G02*
X36904184Y-58692205I-1800000J-1850000D01*
G01*
X36936400Y-60913807D02*
G75*
G02*
X34580000Y-62415000I-2356400J1098807D01*
G01*
%TO.C,R31*%
X48770000Y-24255000D02*
X51380000Y-24255000D01*
X48770000Y-24255000D02*
G75*
G02*
X46030000Y-24255000I-1370000J0D01*
G01*
X46030000Y-24255000D02*
G75*
G02*
X48770000Y-24255000I1370000J0D01*
G01*
%TO.C,Q26*%
X25100000Y-40710000D02*
X28700000Y-40710000D01*
X24543600Y-37761193D02*
G75*
G02*
X26900000Y-36260000I2356400J-1098807D01*
G01*
X25100000Y-40710000D02*
G75*
G02*
X24575816Y-39982795I1800000J1850000D01*
G01*
X26900000Y-36260000D02*
G75*
G02*
X29256400Y-37761193I0J-2600000D01*
G01*
X29224184Y-39982795D02*
G75*
G02*
X28700000Y-40710000I-2324184J1122795D01*
G01*
%TO.C,R14*%
X25730000Y-29335000D02*
X28340000Y-29335000D01*
X25730000Y-29335000D02*
G75*
G02*
X22990000Y-29335000I-1370000J0D01*
G01*
X22990000Y-29335000D02*
G75*
G02*
X25730000Y-29335000I1370000J0D01*
G01*
%TO.C,R18*%
X25730000Y-77595000D02*
X28340000Y-77595000D01*
X25730000Y-77595000D02*
G75*
G02*
X22990000Y-77595000I-1370000J0D01*
G01*
X22990000Y-77595000D02*
G75*
G02*
X25730000Y-77595000I1370000J0D01*
G01*
%TO.C,Q78*%
X67100000Y-23040000D02*
X63500000Y-23040000D01*
X62975816Y-23767205D02*
G75*
G02*
X63500000Y-23040000I2324184J-1122795D01*
G01*
X65300000Y-27490000D02*
G75*
G02*
X62943600Y-25988807I0J2600000D01*
G01*
X67100000Y-23040000D02*
G75*
G02*
X67624184Y-23767205I-1800000J-1850000D01*
G01*
X67656400Y-25988807D02*
G75*
G02*
X65300000Y-27490000I-2356400J1098807D01*
G01*
%TO.C,Q65*%
X51740000Y-79555000D02*
X48140000Y-79555000D01*
X47615816Y-80282205D02*
G75*
G02*
X48140000Y-79555000I2324184J-1122795D01*
G01*
X49940000Y-84005000D02*
G75*
G02*
X47583600Y-82503807I0J2600000D01*
G01*
X51740000Y-79555000D02*
G75*
G02*
X52264184Y-80282205I-1800000J-1850000D01*
G01*
X52296400Y-82503807D02*
G75*
G02*
X49940000Y-84005000I-2356400J1098807D01*
G01*
%TO.C,Q25*%
X25100000Y-35630000D02*
X28700000Y-35630000D01*
X24543600Y-32681193D02*
G75*
G02*
X26900000Y-31180000I2356400J-1098807D01*
G01*
X25100000Y-35630000D02*
G75*
G02*
X24575816Y-34902795I1800000J1850000D01*
G01*
X26900000Y-31180000D02*
G75*
G02*
X29256400Y-32681193I0J-2600000D01*
G01*
X29224184Y-34902795D02*
G75*
G02*
X28700000Y-35630000I-2324184J1122795D01*
G01*
%TO.C,R45*%
X64130000Y-50925000D02*
X66740000Y-50925000D01*
X64130000Y-50925000D02*
G75*
G02*
X61390000Y-50925000I-1370000J0D01*
G01*
X61390000Y-50925000D02*
G75*
G02*
X64130000Y-50925000I1370000J0D01*
G01*
%TO.C,Q50*%
X40460000Y-62300000D02*
X44060000Y-62300000D01*
X39903600Y-59351193D02*
G75*
G02*
X42260000Y-57850000I2356400J-1098807D01*
G01*
X40460000Y-62300000D02*
G75*
G02*
X39935816Y-61572795I1800000J1850000D01*
G01*
X42260000Y-57850000D02*
G75*
G02*
X44616400Y-59351193I0J-2600000D01*
G01*
X44584184Y-61572795D02*
G75*
G02*
X44060000Y-62300000I-2324184J1122795D01*
G01*
%TO.C,Q16*%
X21020000Y-49710000D02*
X17420000Y-49710000D01*
X16895816Y-50437205D02*
G75*
G02*
X17420000Y-49710000I2324184J-1122795D01*
G01*
X19220000Y-54160000D02*
G75*
G02*
X16863600Y-52658807I0J2600000D01*
G01*
X21020000Y-49710000D02*
G75*
G02*
X21544184Y-50437205I-1800000J-1850000D01*
G01*
X21576400Y-52658807D02*
G75*
G02*
X19220000Y-54160000I-2356400J1098807D01*
G01*
%TO.C,Q57*%
X51740000Y-26215000D02*
X48140000Y-26215000D01*
X47615816Y-26942205D02*
G75*
G02*
X48140000Y-26215000I2324184J-1122795D01*
G01*
X49940000Y-30665000D02*
G75*
G02*
X47583600Y-29163807I0J2600000D01*
G01*
X51740000Y-26215000D02*
G75*
G02*
X52264184Y-26942205I-1800000J-1850000D01*
G01*
X52296400Y-29163807D02*
G75*
G02*
X49940000Y-30665000I-2356400J1098807D01*
G01*
%TO.C,Q23*%
X25100000Y-22295000D02*
X28700000Y-22295000D01*
X24543600Y-19346193D02*
G75*
G02*
X26900000Y-17845000I2356400J-1098807D01*
G01*
X25100000Y-22295000D02*
G75*
G02*
X24575816Y-21567795I1800000J1850000D01*
G01*
X26900000Y-17845000D02*
G75*
G02*
X29256400Y-19346193I0J-2600000D01*
G01*
X29224184Y-21567795D02*
G75*
G02*
X28700000Y-22295000I-2324184J1122795D01*
G01*
%TO.C,Q60*%
X51740000Y-44630000D02*
X48140000Y-44630000D01*
X47615816Y-45357205D02*
G75*
G02*
X48140000Y-44630000I2324184J-1122795D01*
G01*
X49940000Y-49080000D02*
G75*
G02*
X47583600Y-47578807I0J2600000D01*
G01*
X51740000Y-44630000D02*
G75*
G02*
X52264184Y-45357205I-1800000J-1850000D01*
G01*
X52296400Y-47578807D02*
G75*
G02*
X49940000Y-49080000I-2356400J1098807D01*
G01*
%TO.C,Q21*%
X21020000Y-84635000D02*
X17420000Y-84635000D01*
X16895816Y-85362205D02*
G75*
G02*
X17420000Y-84635000I2324184J-1122795D01*
G01*
X19220000Y-89085000D02*
G75*
G02*
X16863600Y-87583807I0J2600000D01*
G01*
X21020000Y-84635000D02*
G75*
G02*
X21544184Y-85362205I-1800000J-1850000D01*
G01*
X21576400Y-87583807D02*
G75*
G02*
X19220000Y-89085000I-2356400J1098807D01*
G01*
%TO.C,Q37*%
X36380000Y-36375000D02*
X32780000Y-36375000D01*
X32255816Y-37102205D02*
G75*
G02*
X32780000Y-36375000I2324184J-1122795D01*
G01*
X34580000Y-40825000D02*
G75*
G02*
X32223600Y-39323807I0J2600000D01*
G01*
X36380000Y-36375000D02*
G75*
G02*
X36904184Y-37102205I-1800000J-1850000D01*
G01*
X36936400Y-39323807D02*
G75*
G02*
X34580000Y-40825000I-2356400J1098807D01*
G01*
%TO.C,Q96*%
X71180000Y-72460000D02*
X74780000Y-72460000D01*
X70623600Y-69511193D02*
G75*
G02*
X72980000Y-68010000I2356400J-1098807D01*
G01*
X71180000Y-72460000D02*
G75*
G02*
X70655816Y-71732795I1800000J1850000D01*
G01*
X72980000Y-68010000D02*
G75*
G02*
X75336400Y-69511193I0J-2600000D01*
G01*
X75304184Y-71732795D02*
G75*
G02*
X74780000Y-72460000I-2324184J1122795D01*
G01*
%TO.C,Q1*%
X9740000Y-22295000D02*
X13340000Y-22295000D01*
X9183600Y-19346193D02*
G75*
G02*
X11540000Y-17845000I2356400J-1098807D01*
G01*
X9740000Y-22295000D02*
G75*
G02*
X9215816Y-21567795I1800000J1850000D01*
G01*
X11540000Y-17845000D02*
G75*
G02*
X13896400Y-19346193I0J-2600000D01*
G01*
X13864184Y-21567795D02*
G75*
G02*
X13340000Y-22295000I-2324184J1122795D01*
G01*
%TO.C,Q74*%
X55820000Y-75635000D02*
X59420000Y-75635000D01*
X55263600Y-72686193D02*
G75*
G02*
X57620000Y-71185000I2356400J-1098807D01*
G01*
X55820000Y-75635000D02*
G75*
G02*
X55295816Y-74907795I1800000J1850000D01*
G01*
X57620000Y-71185000D02*
G75*
G02*
X59976400Y-72686193I0J-2600000D01*
G01*
X59944184Y-74907795D02*
G75*
G02*
X59420000Y-75635000I-2324184J1122795D01*
G01*
%TO.C,Q18*%
X21020000Y-63045000D02*
X17420000Y-63045000D01*
X16895816Y-63772205D02*
G75*
G02*
X17420000Y-63045000I2324184J-1122795D01*
G01*
X19220000Y-67495000D02*
G75*
G02*
X16863600Y-65993807I0J2600000D01*
G01*
X21020000Y-63045000D02*
G75*
G02*
X21544184Y-63772205I-1800000J-1850000D01*
G01*
X21576400Y-65993807D02*
G75*
G02*
X19220000Y-67495000I-2356400J1098807D01*
G01*
%TO.C,Q79*%
X67100000Y-31295000D02*
X63500000Y-31295000D01*
X62975816Y-32022205D02*
G75*
G02*
X63500000Y-31295000I2324184J-1122795D01*
G01*
X65300000Y-35745000D02*
G75*
G02*
X62943600Y-34243807I0J2600000D01*
G01*
X67100000Y-31295000D02*
G75*
G02*
X67624184Y-32022205I-1800000J-1850000D01*
G01*
X67656400Y-34243807D02*
G75*
G02*
X65300000Y-35745000I-2356400J1098807D01*
G01*
%TO.C,R22*%
X33410000Y-56005000D02*
X36020000Y-56005000D01*
X33410000Y-56005000D02*
G75*
G02*
X30670000Y-56005000I-1370000J0D01*
G01*
X30670000Y-56005000D02*
G75*
G02*
X33410000Y-56005000I1370000J0D01*
G01*
%TO.C,Q68*%
X55820000Y-35630000D02*
X59420000Y-35630000D01*
X55263600Y-32681193D02*
G75*
G02*
X57620000Y-31180000I2356400J-1098807D01*
G01*
X55820000Y-35630000D02*
G75*
G02*
X55295816Y-34902795I1800000J1850000D01*
G01*
X57620000Y-31180000D02*
G75*
G02*
X59976400Y-32681193I0J-2600000D01*
G01*
X59944184Y-34902795D02*
G75*
G02*
X59420000Y-35630000I-2324184J1122795D01*
G01*
%TO.C,Q15*%
X21020000Y-44630000D02*
X17420000Y-44630000D01*
X16895816Y-45357205D02*
G75*
G02*
X17420000Y-44630000I2324184J-1122795D01*
G01*
X19220000Y-49080000D02*
G75*
G02*
X16863600Y-47578807I0J2600000D01*
G01*
X21020000Y-44630000D02*
G75*
G02*
X21544184Y-45357205I-1800000J-1850000D01*
G01*
X21576400Y-47578807D02*
G75*
G02*
X19220000Y-49080000I-2356400J1098807D01*
G01*
%TO.C,R6*%
X10370000Y-72515000D02*
X12980000Y-72515000D01*
X10370000Y-72515000D02*
G75*
G02*
X7630000Y-72515000I-1370000J0D01*
G01*
X7630000Y-72515000D02*
G75*
G02*
X10370000Y-72515000I1370000J0D01*
G01*
%TO.C,Q3*%
X9740000Y-35630000D02*
X13340000Y-35630000D01*
X9183600Y-32681193D02*
G75*
G02*
X11540000Y-31180000I2356400J-1098807D01*
G01*
X9740000Y-35630000D02*
G75*
G02*
X9215816Y-34902795I1800000J1850000D01*
G01*
X11540000Y-31180000D02*
G75*
G02*
X13896400Y-32681193I0J-2600000D01*
G01*
X13864184Y-34902795D02*
G75*
G02*
X13340000Y-35630000I-2324184J1122795D01*
G01*
%TO.C,R41*%
X56450000Y-77595000D02*
X59060000Y-77595000D01*
X56450000Y-77595000D02*
G75*
G02*
X53710000Y-77595000I-1370000J0D01*
G01*
X53710000Y-77595000D02*
G75*
G02*
X56450000Y-77595000I1370000J0D01*
G01*
%TO.C,Q24*%
X25100000Y-27375000D02*
X28700000Y-27375000D01*
X24543600Y-24426193D02*
G75*
G02*
X26900000Y-22925000I2356400J-1098807D01*
G01*
X25100000Y-27375000D02*
G75*
G02*
X24575816Y-26647795I1800000J1850000D01*
G01*
X26900000Y-22925000D02*
G75*
G02*
X29256400Y-24426193I0J-2600000D01*
G01*
X29224184Y-26647795D02*
G75*
G02*
X28700000Y-27375000I-2324184J1122795D01*
G01*
%TO.C,Q81*%
X67100000Y-44630000D02*
X63500000Y-44630000D01*
X62975816Y-45357205D02*
G75*
G02*
X63500000Y-44630000I2324184J-1122795D01*
G01*
X65300000Y-49080000D02*
G75*
G02*
X62943600Y-47578807I0J2600000D01*
G01*
X67100000Y-44630000D02*
G75*
G02*
X67624184Y-45357205I-1800000J-1850000D01*
G01*
X67656400Y-47578807D02*
G75*
G02*
X65300000Y-49080000I-2356400J1098807D01*
G01*
%TO.C,Q87*%
X67100000Y-84635000D02*
X63500000Y-84635000D01*
X62975816Y-85362205D02*
G75*
G02*
X63500000Y-84635000I2324184J-1122795D01*
G01*
X65300000Y-89085000D02*
G75*
G02*
X62943600Y-87583807I0J2600000D01*
G01*
X67100000Y-84635000D02*
G75*
G02*
X67624184Y-85362205I-1800000J-1850000D01*
G01*
X67656400Y-87583807D02*
G75*
G02*
X65300000Y-89085000I-2356400J1098807D01*
G01*
%TO.C,R40*%
X56450000Y-64260000D02*
X59060000Y-64260000D01*
X56450000Y-64260000D02*
G75*
G02*
X53710000Y-64260000I-1370000J0D01*
G01*
X53710000Y-64260000D02*
G75*
G02*
X56450000Y-64260000I1370000J0D01*
G01*
%TO.C,R44*%
X64130000Y-42670000D02*
X66740000Y-42670000D01*
X64130000Y-42670000D02*
G75*
G02*
X61390000Y-42670000I-1370000J0D01*
G01*
X61390000Y-42670000D02*
G75*
G02*
X64130000Y-42670000I1370000J0D01*
G01*
%TO.C,Q49*%
X40460000Y-54045000D02*
X44060000Y-54045000D01*
X39903600Y-51096193D02*
G75*
G02*
X42260000Y-49595000I2356400J-1098807D01*
G01*
X40460000Y-54045000D02*
G75*
G02*
X39935816Y-53317795I1800000J1850000D01*
G01*
X42260000Y-49595000D02*
G75*
G02*
X44616400Y-51096193I0J-2600000D01*
G01*
X44584184Y-53317795D02*
G75*
G02*
X44060000Y-54045000I-2324184J1122795D01*
G01*
%TO.C,Q9*%
X9740000Y-78810000D02*
X13340000Y-78810000D01*
X9183600Y-75861193D02*
G75*
G02*
X11540000Y-74360000I2356400J-1098807D01*
G01*
X9740000Y-78810000D02*
G75*
G02*
X9215816Y-78082795I1800000J1850000D01*
G01*
X11540000Y-74360000D02*
G75*
G02*
X13896400Y-75861193I0J-2600000D01*
G01*
X13864184Y-78082795D02*
G75*
G02*
X13340000Y-78810000I-2324184J1122795D01*
G01*
%TO.C,Q51*%
X40460000Y-67380000D02*
X44060000Y-67380000D01*
X39903600Y-64431193D02*
G75*
G02*
X42260000Y-62930000I2356400J-1098807D01*
G01*
X40460000Y-67380000D02*
G75*
G02*
X39935816Y-66652795I1800000J1850000D01*
G01*
X42260000Y-62930000D02*
G75*
G02*
X44616400Y-64431193I0J-2600000D01*
G01*
X44584184Y-66652795D02*
G75*
G02*
X44060000Y-67380000I-2324184J1122795D01*
G01*
%TO.C,Q91*%
X71180000Y-40710000D02*
X74780000Y-40710000D01*
X70623600Y-37761193D02*
G75*
G02*
X72980000Y-36260000I2356400J-1098807D01*
G01*
X71180000Y-40710000D02*
G75*
G02*
X70655816Y-39982795I1800000J1850000D01*
G01*
X72980000Y-36260000D02*
G75*
G02*
X75336400Y-37761193I0J-2600000D01*
G01*
X75304184Y-39982795D02*
G75*
G02*
X74780000Y-40710000I-2324184J1122795D01*
G01*
%TO.C,Q30*%
X25100000Y-70555000D02*
X28700000Y-70555000D01*
X24543600Y-67606193D02*
G75*
G02*
X26900000Y-66105000I2356400J-1098807D01*
G01*
X25100000Y-70555000D02*
G75*
G02*
X24575816Y-69827795I1800000J1850000D01*
G01*
X26900000Y-66105000D02*
G75*
G02*
X29256400Y-67606193I0J-2600000D01*
G01*
X29224184Y-69827795D02*
G75*
G02*
X28700000Y-70555000I-2324184J1122795D01*
G01*
%TO.C,Q55*%
X40460000Y-94050000D02*
X44060000Y-94050000D01*
X39903600Y-91101193D02*
G75*
G02*
X42260000Y-89600000I2356400J-1098807D01*
G01*
X40460000Y-94050000D02*
G75*
G02*
X39935816Y-93322795I1800000J1850000D01*
G01*
X42260000Y-89600000D02*
G75*
G02*
X44616400Y-91101193I0J-2600000D01*
G01*
X44584184Y-93322795D02*
G75*
G02*
X44060000Y-94050000I-2324184J1122795D01*
G01*
%TO.C,R9*%
X18050000Y-42670000D02*
X20660000Y-42670000D01*
X18050000Y-42670000D02*
G75*
G02*
X15310000Y-42670000I-1370000J0D01*
G01*
X15310000Y-42670000D02*
G75*
G02*
X18050000Y-42670000I1370000J0D01*
G01*
%TO.C,R5*%
X10370000Y-59180000D02*
X12980000Y-59180000D01*
X10370000Y-59180000D02*
G75*
G02*
X7630000Y-59180000I-1370000J0D01*
G01*
X7630000Y-59180000D02*
G75*
G02*
X10370000Y-59180000I1370000J0D01*
G01*
%TO.C,R10*%
X18050000Y-61085000D02*
X20660000Y-61085000D01*
X18050000Y-61085000D02*
G75*
G02*
X15310000Y-61085000I-1370000J0D01*
G01*
X15310000Y-61085000D02*
G75*
G02*
X18050000Y-61085000I1370000J0D01*
G01*
%TD*%
M02*
