%TF.GenerationSoftware,KiCad,Pcbnew,10.0.5*%
%TF.CreationDate,2026-09-11T05:07:24-04:00*%
%TF.ProjectId,reg2,72656732-2e6b-4696-9361-645f70636258,rev?*%
%TF.SameCoordinates,Original*%
%TF.FileFunction,Copper,L1,Top*%
%TF.FilePolarity,Positive*%
%FSLAX46Y46*%
G04 Gerber Fmt 4.6, Leading zero omitted, Abs format (unit mm)*
G04 Created by KiCad (PCBNEW 10.0.5) date 2026-09-11 05:07:24*
%MOMM*%
%LPD*%
G01*
G04 APERTURE LIST*
G04 Aperture macros list*
%AMRoundRect*
0 Rectangle with rounded corners*
0 $1 Rounding radius*
0 $2 $3 $4 $5 $6 $7 $8 $9 X,Y pos of 4 corners*
0 Add a 4 corners polygon primitive as box body*
4,1,4,$2,$3,$4,$5,$6,$7,$8,$9,$2,$3,0*
0 Add four circle primitives for the rounded corners*
1,1,$1+$1,$2,$3*
1,1,$1+$1,$4,$5*
1,1,$1+$1,$6,$7*
1,1,$1+$1,$8,$9*
0 Add four rect primitives between the rounded corners*
20,1,$1+$1,$2,$3,$4,$5,0*
20,1,$1+$1,$4,$5,$6,$7,0*
20,1,$1+$1,$6,$7,$8,$9,0*
20,1,$1+$1,$8,$9,$2,$3,0*%
G04 Aperture macros list end*
%TA.AperFunction,ComponentPad*%
%ADD10R,1.500000X1.500000*%
%TD*%
%TA.AperFunction,ComponentPad*%
%ADD11C,1.500000*%
%TD*%
%TA.AperFunction,ComponentPad*%
%ADD12C,1.600000*%
%TD*%
%TA.AperFunction,ComponentPad*%
%ADD13RoundRect,0.250000X-0.550000X0.550000X-0.550000X-0.550000X0.550000X-0.550000X0.550000X0.550000X0*%
%TD*%
%TA.AperFunction,ComponentPad*%
%ADD14C,6.400000*%
%TD*%
%TA.AperFunction,ComponentPad*%
%ADD15R,1.800000X1.800000*%
%TD*%
%TA.AperFunction,ComponentPad*%
%ADD16C,1.800000*%
%TD*%
%TA.AperFunction,ComponentPad*%
%ADD17RoundRect,0.250000X0.600000X-0.600000X0.600000X0.600000X-0.600000X0.600000X-0.600000X-0.600000X0*%
%TD*%
%TA.AperFunction,ComponentPad*%
%ADD18C,1.700000*%
%TD*%
%TA.AperFunction,ViaPad*%
%ADD19C,0.800000*%
%TD*%
%TA.AperFunction,Conductor*%
%ADD20C,0.500000*%
%TD*%
%TA.AperFunction,Conductor*%
%ADD21C,0.800000*%
%TD*%
%TA.AperFunction,Conductor*%
%ADD22C,0.200000*%
%TD*%
G04 APERTURE END LIST*
D10*
%TO.P,Q67,1*%
%TO.N,GND*%
X55080000Y-25525000D03*
D11*
%TO.P,Q67,2*%
%TO.N,D2*%
X57620000Y-25525000D03*
%TO.P,Q67,3*%
%TO.N,Net-(Q66-S)*%
X60160000Y-25525000D03*
%TD*%
D12*
%TO.P,R13,1*%
%TO.N,A2_mq*%
X24360000Y-16000000D03*
%TO.P,R13,2*%
%TO.N,+5V*%
X29440000Y-16000000D03*
%TD*%
%TO.P,R25,1*%
%TO.N,B2_dn*%
X39720000Y-34415000D03*
%TO.P,R25,2*%
%TO.N,+5V*%
X44800000Y-34415000D03*
%TD*%
%TO.P,R47,1*%
%TO.N,+5V*%
X62760000Y-77595000D03*
%TO.P,R47,2*%
%TO.N,OUT2*%
X67840000Y-77595000D03*
%TD*%
D10*
%TO.P,Q62,1*%
%TO.N,GND*%
X52480000Y-59815000D03*
D11*
%TO.P,Q62,2*%
%TO.N,B2_qn*%
X49940000Y-59815000D03*
%TO.P,Q62,3*%
%TO.N,Net-(Q61-S)*%
X47400000Y-59815000D03*
%TD*%
D13*
%TO.P,C2,1*%
%TO.N,+5V*%
X95000000Y-26000000D03*
D12*
%TO.P,C2,2*%
%TO.N,GND*%
X95000000Y-28000000D03*
%TD*%
%TO.P,R43,1*%
%TO.N,+5V*%
X62760000Y-29335000D03*
%TO.P,R43,2*%
%TO.N,OUT2_mqn*%
X67840000Y-29335000D03*
%TD*%
D10*
%TO.P,Q98,1*%
%TO.N,GND*%
X83200000Y-26795000D03*
D11*
%TO.P,Q98,2*%
%TO.N,A2*%
X80660000Y-26795000D03*
%TO.P,Q98,3*%
%TO.N,Net-(D2-K)*%
X78120000Y-26795000D03*
%TD*%
D12*
%TO.P,R54,1*%
%TO.N,+5V*%
X78120000Y-31240000D03*
%TO.P,R54,2*%
%TO.N,Net-(D3-A)*%
X83200000Y-31240000D03*
%TD*%
%TO.P,C1,1*%
%TO.N,+5V*%
X95000000Y-16500000D03*
%TO.P,C1,2*%
%TO.N,GND*%
X95000000Y-19000000D03*
%TD*%
%TO.P,R21,1*%
%TO.N,+5V*%
X32040000Y-42670000D03*
%TO.P,R21,2*%
%TO.N,DB2_1*%
X37120000Y-42670000D03*
%TD*%
D10*
%TO.P,Q33,1*%
%TO.N,GND*%
X24360000Y-87120000D03*
D11*
%TO.P,Q33,2*%
%TO.N,A2_qn*%
X26900000Y-87120000D03*
%TO.P,Q33,3*%
%TO.N,Net-(Q32-S)*%
X29440000Y-87120000D03*
%TD*%
D10*
%TO.P,Q80,1*%
%TO.N,GND*%
X67840000Y-38225000D03*
D11*
%TO.P,Q80,2*%
%TO.N,OUT2_m2*%
X65300000Y-38225000D03*
%TO.P,Q80,3*%
%TO.N,Net-(Q79-S)*%
X62760000Y-38225000D03*
%TD*%
D14*
%TO.P,H1,1*%
%TO.N,N/C*%
X4000000Y-50000000D03*
%TD*%
D10*
%TO.P,Q7,1*%
%TO.N,GND*%
X9000000Y-63625000D03*
D11*
%TO.P,Q7,2*%
%TO.N,AI*%
X11540000Y-63625000D03*
%TO.P,Q7,3*%
%TO.N,HOLDA*%
X14080000Y-63625000D03*
%TD*%
D10*
%TO.P,Q48,1*%
%TO.N,Net-(Q48-S)*%
X39720000Y-47115000D03*
D11*
%TO.P,Q48,2*%
%TO.N,DB2*%
X42260000Y-47115000D03*
%TO.P,Q48,3*%
%TO.N,B2_m1*%
X44800000Y-47115000D03*
%TD*%
D12*
%TO.P,R30,1*%
%TO.N,+5V*%
X47400000Y-16000000D03*
%TO.P,R30,2*%
%TO.N,B2_mqi*%
X52480000Y-16000000D03*
%TD*%
D10*
%TO.P,Q63,1*%
%TO.N,Net-(Q63-S)*%
X52480000Y-68070000D03*
D11*
%TO.P,Q63,2*%
%TO.N,B2*%
X49940000Y-68070000D03*
%TO.P,Q63,3*%
%TO.N,B2_qn*%
X47400000Y-68070000D03*
%TD*%
D10*
%TO.P,Q64,1*%
%TO.N,GND*%
X52480000Y-73150000D03*
D11*
%TO.P,Q64,2*%
%TO.N,B2_sb*%
X49940000Y-73150000D03*
%TO.P,Q64,3*%
%TO.N,Net-(Q63-S)*%
X47400000Y-73150000D03*
%TD*%
D10*
%TO.P,Q59,1*%
%TO.N,Net-(Q59-S)*%
X52480000Y-41400000D03*
D11*
%TO.P,Q59,2*%
%TO.N,PH2*%
X49940000Y-41400000D03*
%TO.P,Q59,3*%
%TO.N,B2_sb*%
X47400000Y-41400000D03*
%TD*%
D10*
%TO.P,Q19,1*%
%TO.N,Net-(Q19-S)*%
X21760000Y-73150000D03*
D11*
%TO.P,Q19,2*%
%TO.N,DA2*%
X19220000Y-73150000D03*
%TO.P,Q19,3*%
%TO.N,A2_m1*%
X16680000Y-73150000D03*
%TD*%
D10*
%TO.P,Q44,1*%
%TO.N,Net-(Q44-S)*%
X39720000Y-20445000D03*
D11*
%TO.P,Q44,2*%
%TO.N,DB2_1*%
X42260000Y-20445000D03*
%TO.P,Q44,3*%
%TO.N,DB2*%
X44800000Y-20445000D03*
%TD*%
D15*
%TO.P,D3,1*%
%TO.N,Net-(D3-K)*%
X80660000Y-37590000D03*
D16*
%TO.P,D3,2*%
%TO.N,Net-(D3-A)*%
X80660000Y-35050000D03*
%TD*%
D10*
%TO.P,Q94,1*%
%TO.N,Net-(Q94-S)*%
X70440000Y-60450000D03*
D11*
%TO.P,Q94,2*%
%TO.N,AON2*%
X72980000Y-60450000D03*
%TO.P,Q94,3*%
%TO.N,BD2*%
X75520000Y-60450000D03*
%TD*%
D10*
%TO.P,Q4,1*%
%TO.N,GND*%
X9000000Y-42035000D03*
D11*
%TO.P,Q4,2*%
%TO.N,CLKN*%
X11540000Y-42035000D03*
%TO.P,Q4,3*%
%TO.N,PH2*%
X14080000Y-42035000D03*
%TD*%
D10*
%TO.P,Q13,1*%
%TO.N,Net-(Q13-S)*%
X21760000Y-33145000D03*
D11*
%TO.P,Q13,2*%
%TO.N,HOLDA*%
X19220000Y-33145000D03*
%TO.P,Q13,3*%
%TO.N,DA2_3*%
X16680000Y-33145000D03*
%TD*%
D10*
%TO.P,Q14,1*%
%TO.N,GND*%
X21760000Y-38225000D03*
D11*
%TO.P,Q14,2*%
%TO.N,A2*%
X19220000Y-38225000D03*
%TO.P,Q14,3*%
%TO.N,Net-(Q13-S)*%
X16680000Y-38225000D03*
%TD*%
D10*
%TO.P,Q82,1*%
%TO.N,Net-(Q82-S)*%
X67840000Y-54735000D03*
D11*
%TO.P,Q82,2*%
%TO.N,OUT2_mq*%
X65300000Y-54735000D03*
%TO.P,Q82,3*%
%TO.N,OUT2_sa*%
X62760000Y-54735000D03*
%TD*%
D12*
%TO.P,R48,1*%
%TO.N,OUT2_qn*%
X70440000Y-16000000D03*
%TO.P,R48,2*%
%TO.N,+5V*%
X75520000Y-16000000D03*
%TD*%
D10*
%TO.P,Q71,1*%
%TO.N,GND*%
X55080000Y-52195000D03*
D11*
%TO.P,Q71,2*%
%TO.N,DO2_2*%
X57620000Y-52195000D03*
%TO.P,Q71,3*%
%TO.N,Net-(Q70-S)*%
X60160000Y-52195000D03*
%TD*%
D12*
%TO.P,R52,1*%
%TO.N,Net-(D1-A)*%
X70440000Y-74420000D03*
%TO.P,R52,2*%
%TO.N,+5V*%
X75520000Y-74420000D03*
%TD*%
D10*
%TO.P,Q66,1*%
%TO.N,Net-(Q66-S)*%
X55080000Y-20445000D03*
D11*
%TO.P,Q66,2*%
%TO.N,OI*%
X57620000Y-20445000D03*
%TO.P,Q66,3*%
%TO.N,DO2_1*%
X60160000Y-20445000D03*
%TD*%
D10*
%TO.P,Q38,1*%
%TO.N,Net-(Q38-S)*%
X37120000Y-46480000D03*
D11*
%TO.P,Q38,2*%
%TO.N,BI*%
X34580000Y-46480000D03*
%TO.P,Q38,3*%
%TO.N,DB2_1*%
X32040000Y-46480000D03*
%TD*%
D10*
%TO.P,Q32,1*%
%TO.N,Net-(Q32-S)*%
X24360000Y-82040000D03*
D11*
%TO.P,Q32,2*%
%TO.N,A2_sa*%
X26900000Y-82040000D03*
%TO.P,Q32,3*%
%TO.N,A2*%
X29440000Y-82040000D03*
%TD*%
D12*
%TO.P,R16,1*%
%TO.N,A2_sa*%
X24360000Y-50925000D03*
%TO.P,R16,2*%
%TO.N,+5V*%
X29440000Y-50925000D03*
%TD*%
%TO.P,R11,1*%
%TO.N,+5V*%
X16680000Y-69340000D03*
%TO.P,R11,2*%
%TO.N,A2_m1*%
X21760000Y-69340000D03*
%TD*%
%TO.P,R34,1*%
%TO.N,+5V*%
X47400000Y-64260000D03*
%TO.P,R34,2*%
%TO.N,B2_qn*%
X52480000Y-64260000D03*
%TD*%
D10*
%TO.P,Q10,1*%
%TO.N,GND*%
X9000000Y-82040000D03*
D11*
%TO.P,Q10,2*%
%TO.N,D2*%
X11540000Y-82040000D03*
%TO.P,Q10,3*%
%TO.N,Net-(Q10-D)*%
X14080000Y-82040000D03*
%TD*%
D10*
%TO.P,Q84,1*%
%TO.N,Net-(Q84-S)*%
X67840000Y-68070000D03*
D11*
%TO.P,Q84,2*%
%TO.N,PH2*%
X65300000Y-68070000D03*
%TO.P,Q84,3*%
%TO.N,OUT2_sb*%
X62760000Y-68070000D03*
%TD*%
D12*
%TO.P,R24,1*%
%TO.N,DB2*%
X39720000Y-16000000D03*
%TO.P,R24,2*%
%TO.N,+5V*%
X44800000Y-16000000D03*
%TD*%
D10*
%TO.P,Q73,1*%
%TO.N,Net-(Q73-S)*%
X55080000Y-68705000D03*
D11*
%TO.P,Q73,2*%
%TO.N,DO2*%
X57620000Y-68705000D03*
%TO.P,Q73,3*%
%TO.N,OUT2_m1*%
X60160000Y-68705000D03*
%TD*%
D10*
%TO.P,Q27,1*%
%TO.N,GND*%
X24360000Y-47115000D03*
D11*
%TO.P,Q27,2*%
%TO.N,A2_mq*%
X26900000Y-47115000D03*
%TO.P,Q27,3*%
%TO.N,A2_mqi*%
X29440000Y-47115000D03*
%TD*%
D10*
%TO.P,Q42,1*%
%TO.N,Net-(Q42-S)*%
X37120000Y-73150000D03*
D11*
%TO.P,Q42,2*%
%TO.N,HOLDB*%
X34580000Y-73150000D03*
%TO.P,Q42,3*%
%TO.N,DB2_3*%
X32040000Y-73150000D03*
%TD*%
D10*
%TO.P,Q8,1*%
%TO.N,GND*%
X9000000Y-68705000D03*
D11*
%TO.P,Q8,2*%
%TO.N,AB*%
X11540000Y-68705000D03*
%TO.P,Q8,3*%
%TO.N,HOLDA*%
X14080000Y-68705000D03*
%TD*%
D10*
%TO.P,Q61,1*%
%TO.N,Net-(Q61-S)*%
X52480000Y-54735000D03*
D11*
%TO.P,Q61,2*%
%TO.N,B2_sa*%
X49940000Y-54735000D03*
%TO.P,Q61,3*%
%TO.N,B2*%
X47400000Y-54735000D03*
%TD*%
D12*
%TO.P,R4,1*%
%TO.N,D2*%
X9000000Y-50925000D03*
%TO.P,R4,2*%
%TO.N,+5V*%
X14080000Y-50925000D03*
%TD*%
D10*
%TO.P,Q90,1*%
%TO.N,Net-(Q90-S)*%
X70440000Y-33780000D03*
D11*
%TO.P,Q90,2*%
%TO.N,AO*%
X72980000Y-33780000D03*
%TO.P,Q90,3*%
%TO.N,AON2*%
X75520000Y-33780000D03*
%TD*%
D10*
%TO.P,Q28,1*%
%TO.N,Net-(Q28-S)*%
X24360000Y-55370000D03*
D11*
%TO.P,Q28,2*%
%TO.N,A2_mq*%
X26900000Y-55370000D03*
%TO.P,Q28,3*%
%TO.N,A2_sa*%
X29440000Y-55370000D03*
%TD*%
D10*
%TO.P,Q6,1*%
%TO.N,GND*%
X9000000Y-55370000D03*
D11*
%TO.P,Q6,2*%
%TO.N,BUS2#*%
X11540000Y-55370000D03*
%TO.P,Q6,3*%
%TO.N,D2*%
X14080000Y-55370000D03*
%TD*%
D10*
%TO.P,Q41,1*%
%TO.N,GND*%
X37120000Y-64895000D03*
D11*
%TO.P,Q41,2*%
%TO.N,A2*%
X34580000Y-64895000D03*
%TO.P,Q41,3*%
%TO.N,Net-(Q40-S)*%
X32040000Y-64895000D03*
%TD*%
D12*
%TO.P,R36,1*%
%TO.N,DO2_1*%
X55080000Y-16000000D03*
%TO.P,R36,2*%
%TO.N,+5V*%
X60160000Y-16000000D03*
%TD*%
D10*
%TO.P,Q97,1*%
%TO.N,GND*%
X70440000Y-85215000D03*
D11*
%TO.P,Q97,2*%
%TO.N,OUT2*%
X72980000Y-85215000D03*
%TO.P,Q97,3*%
%TO.N,Net-(D1-K)*%
X75520000Y-85215000D03*
%TD*%
D10*
%TO.P,Q56,1*%
%TO.N,GND*%
X52480000Y-19810000D03*
D11*
%TO.P,Q56,2*%
%TO.N,B2_mq*%
X49940000Y-19810000D03*
%TO.P,Q56,3*%
%TO.N,B2_mqi*%
X47400000Y-19810000D03*
%TD*%
D12*
%TO.P,R15,1*%
%TO.N,A2_mqi*%
X24360000Y-42670000D03*
%TO.P,R15,2*%
%TO.N,+5V*%
X29440000Y-42670000D03*
%TD*%
D10*
%TO.P,Q58,1*%
%TO.N,GND*%
X52480000Y-33145000D03*
D11*
%TO.P,Q58,2*%
%TO.N,PH2*%
X49940000Y-33145000D03*
%TO.P,Q58,3*%
%TO.N,Net-(Q57-S)*%
X47400000Y-33145000D03*
%TD*%
D12*
%TO.P,R3,1*%
%TO.N,PH2*%
X9000000Y-37590000D03*
%TO.P,R3,2*%
%TO.N,+5V*%
X14080000Y-37590000D03*
%TD*%
%TO.P,R37,1*%
%TO.N,DO2_2*%
X55080000Y-29335000D03*
%TO.P,R37,2*%
%TO.N,+5V*%
X60160000Y-29335000D03*
%TD*%
D10*
%TO.P,Q92,1*%
%TO.N,Net-(Q92-S)*%
X70440000Y-47115000D03*
D11*
%TO.P,Q92,2*%
%TO.N,BO*%
X72980000Y-47115000D03*
%TO.P,Q92,3*%
%TO.N,BON2*%
X75520000Y-47115000D03*
%TD*%
D12*
%TO.P,R35,1*%
%TO.N,+5V*%
X47400000Y-77595000D03*
%TO.P,R35,2*%
%TO.N,OIN*%
X52480000Y-77595000D03*
%TD*%
D10*
%TO.P,Q46,1*%
%TO.N,GND*%
X39720000Y-30605000D03*
D11*
%TO.P,Q46,2*%
%TO.N,DB2_3*%
X42260000Y-30605000D03*
%TO.P,Q46,3*%
%TO.N,Net-(Q45-S)*%
X44800000Y-30605000D03*
%TD*%
D14*
%TO.P,H2,1*%
%TO.N,N/C*%
X96000000Y-50000000D03*
%TD*%
D10*
%TO.P,Q93,1*%
%TO.N,GND*%
X70440000Y-52195000D03*
D11*
%TO.P,Q93,2*%
%TO.N,B2*%
X72980000Y-52195000D03*
%TO.P,Q93,3*%
%TO.N,Net-(Q92-S)*%
X75520000Y-52195000D03*
%TD*%
D10*
%TO.P,Q88,1*%
%TO.N,Net-(Q88-S)*%
X70440000Y-20445000D03*
D11*
%TO.P,Q88,2*%
%TO.N,OUT2*%
X72980000Y-20445000D03*
%TO.P,Q88,3*%
%TO.N,OUT2_qn*%
X75520000Y-20445000D03*
%TD*%
D15*
%TO.P,D2,1*%
%TO.N,Net-(D2-K)*%
X80660000Y-22350000D03*
D16*
%TO.P,D2,2*%
%TO.N,Net-(D2-A)*%
X80660000Y-19810000D03*
%TD*%
D12*
%TO.P,R7,1*%
%TO.N,+5V*%
X16680000Y-16000000D03*
%TO.P,R7,2*%
%TO.N,DA2_2*%
X21760000Y-16000000D03*
%TD*%
D10*
%TO.P,Q31,1*%
%TO.N,GND*%
X24360000Y-73785000D03*
D11*
%TO.P,Q31,2*%
%TO.N,A2_mqi*%
X26900000Y-73785000D03*
%TO.P,Q31,3*%
%TO.N,Net-(Q30-S)*%
X29440000Y-73785000D03*
%TD*%
D17*
%TO.P,J1,1*%
%TO.N,+5V*%
X10630000Y-7500000D03*
D18*
%TO.P,J1,2*%
X10630000Y-4960000D03*
%TO.P,J1,3*%
%TO.N,GND*%
X13170000Y-7500000D03*
%TO.P,J1,4*%
X13170000Y-4960000D03*
%TO.P,J1,5*%
%TO.N,CLK*%
X15710000Y-7500000D03*
%TO.P,J1,6*%
%TO.N,GND*%
X15710000Y-4960000D03*
%TO.P,J1,7*%
%TO.N,unconnected-(J1-Pin_7-Pad7)*%
X18250000Y-7500000D03*
%TO.P,J1,8*%
%TO.N,GND*%
X18250000Y-4960000D03*
%TO.P,J1,9*%
%TO.N,unconnected-(J1-Pin_9-Pad9)*%
X20790000Y-7500000D03*
%TO.P,J1,10*%
%TO.N,unconnected-(J1-Pin_10-Pad10)*%
X20790000Y-4960000D03*
%TO.P,J1,11*%
%TO.N,BUS2#*%
X23330000Y-7500000D03*
%TO.P,J1,12*%
%TO.N,unconnected-(J1-Pin_12-Pad12)*%
X23330000Y-4960000D03*
%TO.P,J1,13*%
%TO.N,unconnected-(J1-Pin_13-Pad13)*%
X25870000Y-7500000D03*
%TO.P,J1,14*%
%TO.N,unconnected-(J1-Pin_14-Pad14)*%
X25870000Y-4960000D03*
%TO.P,J1,15*%
%TO.N,A2*%
X28410000Y-7500000D03*
%TO.P,J1,16*%
%TO.N,unconnected-(J1-Pin_16-Pad16)*%
X28410000Y-4960000D03*
%TO.P,J1,17*%
%TO.N,unconnected-(J1-Pin_17-Pad17)*%
X30950000Y-7500000D03*
%TO.P,J1,18*%
%TO.N,unconnected-(J1-Pin_18-Pad18)*%
X30950000Y-4960000D03*
%TO.P,J1,19*%
%TO.N,B2*%
X33490000Y-7500000D03*
%TO.P,J1,20*%
%TO.N,unconnected-(J1-Pin_20-Pad20)*%
X33490000Y-4960000D03*
%TO.P,J1,21*%
%TO.N,unconnected-(J1-Pin_21-Pad21)*%
X36030000Y-7500000D03*
%TO.P,J1,22*%
%TO.N,unconnected-(J1-Pin_22-Pad22)*%
X36030000Y-4960000D03*
%TO.P,J1,23*%
%TO.N,unconnected-(J1-Pin_23-Pad23)*%
X38570000Y-7500000D03*
%TO.P,J1,24*%
%TO.N,unconnected-(J1-Pin_24-Pad24)*%
X38570000Y-4960000D03*
%TO.P,J1,25*%
%TO.N,unconnected-(J1-Pin_25-Pad25)*%
X41110000Y-7500000D03*
%TO.P,J1,26*%
%TO.N,unconnected-(J1-Pin_26-Pad26)*%
X41110000Y-4960000D03*
%TO.P,J1,27*%
%TO.N,unconnected-(J1-Pin_27-Pad27)*%
X43650000Y-7500000D03*
%TO.P,J1,28*%
%TO.N,unconnected-(J1-Pin_28-Pad28)*%
X43650000Y-4960000D03*
%TO.P,J1,29*%
%TO.N,unconnected-(J1-Pin_29-Pad29)*%
X46190000Y-7500000D03*
%TO.P,J1,30*%
%TO.N,unconnected-(J1-Pin_30-Pad30)*%
X46190000Y-4960000D03*
%TO.P,J1,31*%
%TO.N,unconnected-(J1-Pin_31-Pad31)*%
X48730000Y-7500000D03*
%TO.P,J1,32*%
%TO.N,unconnected-(J1-Pin_32-Pad32)*%
X48730000Y-4960000D03*
%TO.P,J1,33*%
%TO.N,unconnected-(J1-Pin_33-Pad33)*%
X51270000Y-7500000D03*
%TO.P,J1,34*%
%TO.N,unconnected-(J1-Pin_34-Pad34)*%
X51270000Y-4960000D03*
%TO.P,J1,35*%
%TO.N,unconnected-(J1-Pin_35-Pad35)*%
X53810000Y-7500000D03*
%TO.P,J1,36*%
%TO.N,unconnected-(J1-Pin_36-Pad36)*%
X53810000Y-4960000D03*
%TO.P,J1,37*%
%TO.N,unconnected-(J1-Pin_37-Pad37)*%
X56350000Y-7500000D03*
%TO.P,J1,38*%
%TO.N,unconnected-(J1-Pin_38-Pad38)*%
X56350000Y-4960000D03*
%TO.P,J1,39*%
%TO.N,unconnected-(J1-Pin_39-Pad39)*%
X58890000Y-7500000D03*
%TO.P,J1,40*%
%TO.N,unconnected-(J1-Pin_40-Pad40)*%
X58890000Y-4960000D03*
%TO.P,J1,41*%
%TO.N,AI*%
X61430000Y-7500000D03*
%TO.P,J1,42*%
%TO.N,AO*%
X61430000Y-4960000D03*
%TO.P,J1,43*%
%TO.N,BI*%
X63970000Y-7500000D03*
%TO.P,J1,44*%
%TO.N,BO*%
X63970000Y-4960000D03*
%TO.P,J1,45*%
%TO.N,BA*%
X66510000Y-7500000D03*
%TO.P,J1,46*%
%TO.N,AB*%
X66510000Y-4960000D03*
%TO.P,J1,47*%
%TO.N,OI*%
X69050000Y-7500000D03*
%TO.P,J1,48*%
%TO.N,unconnected-(J1-Pin_48-Pad48)*%
X69050000Y-4960000D03*
%TO.P,J1,49*%
%TO.N,unconnected-(J1-Pin_49-Pad49)*%
X71590000Y-7500000D03*
%TO.P,J1,50*%
%TO.N,unconnected-(J1-Pin_50-Pad50)*%
X71590000Y-4960000D03*
%TO.P,J1,51*%
%TO.N,unconnected-(J1-Pin_51-Pad51)*%
X74130000Y-7500000D03*
%TO.P,J1,52*%
%TO.N,unconnected-(J1-Pin_52-Pad52)*%
X74130000Y-4960000D03*
%TO.P,J1,53*%
%TO.N,unconnected-(J1-Pin_53-Pad53)*%
X76670000Y-7500000D03*
%TO.P,J1,54*%
%TO.N,unconnected-(J1-Pin_54-Pad54)*%
X76670000Y-4960000D03*
%TO.P,J1,55*%
%TO.N,unconnected-(J1-Pin_55-Pad55)*%
X79210000Y-7500000D03*
%TO.P,J1,56*%
%TO.N,unconnected-(J1-Pin_56-Pad56)*%
X79210000Y-4960000D03*
%TO.P,J1,57*%
%TO.N,unconnected-(J1-Pin_57-Pad57)*%
X81750000Y-7500000D03*
%TO.P,J1,58*%
%TO.N,unconnected-(J1-Pin_58-Pad58)*%
X81750000Y-4960000D03*
%TO.P,J1,59*%
%TO.N,unconnected-(J1-Pin_59-Pad59)*%
X84290000Y-7500000D03*
%TO.P,J1,60*%
%TO.N,unconnected-(J1-Pin_60-Pad60)*%
X84290000Y-4960000D03*
%TO.P,J1,61*%
%TO.N,unconnected-(J1-Pin_61-Pad61)*%
X86830000Y-7500000D03*
%TO.P,J1,62*%
%TO.N,unconnected-(J1-Pin_62-Pad62)*%
X86830000Y-4960000D03*
%TO.P,J1,63*%
%TO.N,+5V*%
X89370000Y-7500000D03*
%TO.P,J1,64*%
%TO.N,GND*%
X89370000Y-4960000D03*
%TD*%
D10*
%TO.P,Q54,1*%
%TO.N,Net-(Q54-S)*%
X39720000Y-87120000D03*
D11*
%TO.P,Q54,2*%
%TO.N,B2_mq*%
X42260000Y-87120000D03*
%TO.P,Q54,3*%
%TO.N,B2_mqn*%
X44800000Y-87120000D03*
%TD*%
D12*
%TO.P,R50,1*%
%TO.N,BON2*%
X70440000Y-42670000D03*
%TO.P,R50,2*%
%TO.N,+5V*%
X75520000Y-42670000D03*
%TD*%
D10*
%TO.P,Q45,1*%
%TO.N,Net-(Q45-S)*%
X39720000Y-25525000D03*
D11*
%TO.P,Q45,2*%
%TO.N,DB2_2*%
X42260000Y-25525000D03*
%TO.P,Q45,3*%
%TO.N,Net-(Q44-S)*%
X44800000Y-25525000D03*
%TD*%
D10*
%TO.P,Q70,1*%
%TO.N,Net-(Q70-S)*%
X55080000Y-47115000D03*
D11*
%TO.P,Q70,2*%
%TO.N,DO2_1*%
X57620000Y-47115000D03*
%TO.P,Q70,3*%
%TO.N,DO2*%
X60160000Y-47115000D03*
%TD*%
D12*
%TO.P,R46,1*%
%TO.N,+5V*%
X62760000Y-64260000D03*
%TO.P,R46,2*%
%TO.N,OUT2_sb*%
X67840000Y-64260000D03*
%TD*%
D10*
%TO.P,Q76,1*%
%TO.N,GND*%
X55080000Y-87120000D03*
D11*
%TO.P,Q76,2*%
%TO.N,OUT2_dn*%
X57620000Y-87120000D03*
%TO.P,Q76,3*%
%TO.N,Net-(Q75-S)*%
X60160000Y-87120000D03*
%TD*%
D10*
%TO.P,Q20,1*%
%TO.N,GND*%
X21760000Y-78230000D03*
D11*
%TO.P,Q20,2*%
%TO.N,PH1*%
X19220000Y-78230000D03*
%TO.P,Q20,3*%
%TO.N,Net-(Q19-S)*%
X16680000Y-78230000D03*
%TD*%
D12*
%TO.P,R19,1*%
%TO.N,+5V*%
X32040000Y-16000000D03*
%TO.P,R19,2*%
%TO.N,A2_qn*%
X37120000Y-16000000D03*
%TD*%
%TO.P,R53,1*%
%TO.N,+5V*%
X78120000Y-16000000D03*
%TO.P,R53,2*%
%TO.N,Net-(D2-A)*%
X83200000Y-16000000D03*
%TD*%
%TO.P,R12,1*%
%TO.N,+5V*%
X16680000Y-82675000D03*
%TO.P,R12,2*%
%TO.N,A2_m2*%
X21760000Y-82675000D03*
%TD*%
%TO.P,R51,1*%
%TO.N,BD2*%
X70440000Y-56005000D03*
%TO.P,R51,2*%
%TO.N,+5V*%
X75520000Y-56005000D03*
%TD*%
D10*
%TO.P,Q12,1*%
%TO.N,GND*%
X21760000Y-24890000D03*
D11*
%TO.P,Q12,2*%
%TO.N,B2*%
X19220000Y-24890000D03*
%TO.P,Q12,3*%
%TO.N,Net-(Q11-S)*%
X16680000Y-24890000D03*
%TD*%
D15*
%TO.P,D1,1*%
%TO.N,Net-(D1-K)*%
X72980000Y-80770000D03*
D16*
%TO.P,D1,2*%
%TO.N,Net-(D1-A)*%
X72980000Y-78230000D03*
%TD*%
D10*
%TO.P,Q75,1*%
%TO.N,Net-(Q75-S)*%
X55080000Y-82040000D03*
D11*
%TO.P,Q75,2*%
%TO.N,PH1*%
X57620000Y-82040000D03*
%TO.P,Q75,3*%
%TO.N,OUT2_m2*%
X60160000Y-82040000D03*
%TD*%
D12*
%TO.P,R33,1*%
%TO.N,+5V*%
X47400000Y-50925000D03*
%TO.P,R33,2*%
%TO.N,B2*%
X52480000Y-50925000D03*
%TD*%
D10*
%TO.P,Q35,1*%
%TO.N,GND*%
X37120000Y-24890000D03*
D11*
%TO.P,Q35,2*%
%TO.N,A2_sb*%
X34580000Y-24890000D03*
%TO.P,Q35,3*%
%TO.N,Net-(Q34-S)*%
X32040000Y-24890000D03*
%TD*%
D10*
%TO.P,Q22,1*%
%TO.N,GND*%
X21760000Y-91565000D03*
D11*
%TO.P,Q22,2*%
%TO.N,A2_dn*%
X19220000Y-91565000D03*
%TO.P,Q22,3*%
%TO.N,Net-(Q21-S)*%
X16680000Y-91565000D03*
%TD*%
D10*
%TO.P,Q72,1*%
%TO.N,GND*%
X55080000Y-60450000D03*
D11*
%TO.P,Q72,2*%
%TO.N,DO2*%
X57620000Y-60450000D03*
%TO.P,Q72,3*%
%TO.N,OUT2_dn*%
X60160000Y-60450000D03*
%TD*%
D12*
%TO.P,R27,1*%
%TO.N,B2_m2*%
X39720000Y-56005000D03*
%TO.P,R27,2*%
%TO.N,+5V*%
X44800000Y-56005000D03*
%TD*%
D10*
%TO.P,Q83,1*%
%TO.N,GND*%
X67840000Y-59815000D03*
D11*
%TO.P,Q83,2*%
%TO.N,PH2*%
X65300000Y-59815000D03*
%TO.P,Q83,3*%
%TO.N,Net-(Q82-S)*%
X62760000Y-59815000D03*
%TD*%
D10*
%TO.P,Q36,1*%
%TO.N,GND*%
X37120000Y-33145000D03*
D11*
%TO.P,Q36,2*%
%TO.N,BI*%
X34580000Y-33145000D03*
%TO.P,Q36,3*%
%TO.N,HOLDB*%
X32040000Y-33145000D03*
%TD*%
D12*
%TO.P,R17,1*%
%TO.N,A2_sb*%
X24360000Y-64260000D03*
%TO.P,R17,2*%
%TO.N,+5V*%
X29440000Y-64260000D03*
%TD*%
D10*
%TO.P,Q5,1*%
%TO.N,GND*%
X9000000Y-47115000D03*
D11*
%TO.P,Q5,2*%
%TO.N,PH1*%
X11540000Y-47115000D03*
%TO.P,Q5,3*%
%TO.N,PH2*%
X14080000Y-47115000D03*
%TD*%
D10*
%TO.P,Q52,1*%
%TO.N,Net-(Q52-S)*%
X39720000Y-73785000D03*
D11*
%TO.P,Q52,2*%
%TO.N,B2_m1*%
X42260000Y-73785000D03*
%TO.P,Q52,3*%
%TO.N,B2_mq*%
X44800000Y-73785000D03*
%TD*%
D12*
%TO.P,R38,1*%
%TO.N,DO2*%
X55080000Y-42670000D03*
%TO.P,R38,2*%
%TO.N,+5V*%
X60160000Y-42670000D03*
%TD*%
%TO.P,R32,1*%
%TO.N,+5V*%
X47400000Y-37590000D03*
%TO.P,R32,2*%
%TO.N,B2_sb*%
X52480000Y-37590000D03*
%TD*%
D10*
%TO.P,Q43,1*%
%TO.N,GND*%
X37120000Y-78230000D03*
D11*
%TO.P,Q43,2*%
%TO.N,B2*%
X34580000Y-78230000D03*
%TO.P,Q43,3*%
%TO.N,Net-(Q42-S)*%
X32040000Y-78230000D03*
%TD*%
D10*
%TO.P,Q86,1*%
%TO.N,Net-(Q86-S)*%
X67840000Y-81405000D03*
D11*
%TO.P,Q86,2*%
%TO.N,OUT2_sa*%
X65300000Y-81405000D03*
%TO.P,Q86,3*%
%TO.N,OUT2*%
X62760000Y-81405000D03*
%TD*%
D12*
%TO.P,R42,1*%
%TO.N,+5V*%
X62760000Y-16000000D03*
%TO.P,R42,2*%
%TO.N,OUT2_mq*%
X67840000Y-16000000D03*
%TD*%
D10*
%TO.P,Q39,1*%
%TO.N,GND*%
X37120000Y-51560000D03*
D11*
%TO.P,Q39,2*%
%TO.N,D2*%
X34580000Y-51560000D03*
%TO.P,Q39,3*%
%TO.N,Net-(Q38-S)*%
X32040000Y-51560000D03*
%TD*%
D12*
%TO.P,R8,1*%
%TO.N,+5V*%
X16680000Y-29335000D03*
%TO.P,R8,2*%
%TO.N,DA2_3*%
X21760000Y-29335000D03*
%TD*%
D10*
%TO.P,Q95,1*%
%TO.N,GND*%
X70440000Y-65530000D03*
D11*
%TO.P,Q95,2*%
%TO.N,BON2*%
X72980000Y-65530000D03*
%TO.P,Q95,3*%
%TO.N,Net-(Q94-S)*%
X75520000Y-65530000D03*
%TD*%
D12*
%TO.P,R23,1*%
%TO.N,+5V*%
X32040000Y-69340000D03*
%TO.P,R23,2*%
%TO.N,DB2_3*%
X37120000Y-69340000D03*
%TD*%
%TO.P,R39,1*%
%TO.N,OUT2_dn*%
X55080000Y-56005000D03*
%TO.P,R39,2*%
%TO.N,+5V*%
X60160000Y-56005000D03*
%TD*%
%TO.P,R2,1*%
%TO.N,PH1*%
X9000000Y-24255000D03*
%TO.P,R2,2*%
%TO.N,+5V*%
X14080000Y-24255000D03*
%TD*%
D10*
%TO.P,Q47,1*%
%TO.N,GND*%
X39720000Y-38860000D03*
D11*
%TO.P,Q47,2*%
%TO.N,DB2*%
X42260000Y-38860000D03*
%TO.P,Q47,3*%
%TO.N,B2_dn*%
X44800000Y-38860000D03*
%TD*%
D12*
%TO.P,R26,1*%
%TO.N,B2_m1*%
X39720000Y-42670000D03*
%TO.P,R26,2*%
%TO.N,+5V*%
X44800000Y-42670000D03*
%TD*%
D10*
%TO.P,Q34,1*%
%TO.N,Net-(Q34-S)*%
X37120000Y-19810000D03*
D11*
%TO.P,Q34,2*%
%TO.N,A2*%
X34580000Y-19810000D03*
%TO.P,Q34,3*%
%TO.N,A2_qn*%
X32040000Y-19810000D03*
%TD*%
D12*
%TO.P,R49,1*%
%TO.N,AON2*%
X70440000Y-29335000D03*
%TO.P,R49,2*%
%TO.N,+5V*%
X75520000Y-29335000D03*
%TD*%
D10*
%TO.P,Q11,1*%
%TO.N,Net-(Q11-S)*%
X21760000Y-19810000D03*
D11*
%TO.P,Q11,2*%
%TO.N,AB*%
X19220000Y-19810000D03*
%TO.P,Q11,3*%
%TO.N,DA2_2*%
X16680000Y-19810000D03*
%TD*%
D10*
%TO.P,Q85,1*%
%TO.N,GND*%
X67840000Y-73150000D03*
D11*
%TO.P,Q85,2*%
%TO.N,OUT2_mqi*%
X65300000Y-73150000D03*
%TO.P,Q85,3*%
%TO.N,Net-(Q84-S)*%
X62760000Y-73150000D03*
%TD*%
D10*
%TO.P,Q53,1*%
%TO.N,GND*%
X39720000Y-78865000D03*
D11*
%TO.P,Q53,2*%
%TO.N,B2_mqn*%
X42260000Y-78865000D03*
%TO.P,Q53,3*%
%TO.N,Net-(Q52-S)*%
X44800000Y-78865000D03*
%TD*%
D10*
%TO.P,Q89,1*%
%TO.N,GND*%
X70440000Y-25525000D03*
D11*
%TO.P,Q89,2*%
%TO.N,OUT2_sb*%
X72980000Y-25525000D03*
%TO.P,Q89,3*%
%TO.N,Net-(Q88-S)*%
X75520000Y-25525000D03*
%TD*%
D12*
%TO.P,R1,1*%
%TO.N,CLKN*%
X9000000Y-16000000D03*
%TO.P,R1,2*%
%TO.N,+5V*%
X14080000Y-16000000D03*
%TD*%
D10*
%TO.P,Q2,1*%
%TO.N,GND*%
X9000000Y-28700000D03*
D11*
%TO.P,Q2,2*%
%TO.N,CLK*%
X11540000Y-28700000D03*
%TO.P,Q2,3*%
%TO.N,PH1*%
X14080000Y-28700000D03*
%TD*%
D10*
%TO.P,Q77,1*%
%TO.N,Net-(Q77-S)*%
X67840000Y-19810000D03*
D11*
%TO.P,Q77,2*%
%TO.N,OUT2_m1*%
X65300000Y-19810000D03*
%TO.P,Q77,3*%
%TO.N,OUT2_mq*%
X62760000Y-19810000D03*
%TD*%
D12*
%TO.P,R28,1*%
%TO.N,B2_mq*%
X39720000Y-69340000D03*
%TO.P,R28,2*%
%TO.N,+5V*%
X44800000Y-69340000D03*
%TD*%
D10*
%TO.P,Q99,1*%
%TO.N,GND*%
X83200000Y-42035000D03*
D11*
%TO.P,Q99,2*%
%TO.N,B2*%
X80660000Y-42035000D03*
%TO.P,Q99,3*%
%TO.N,Net-(D3-K)*%
X78120000Y-42035000D03*
%TD*%
D10*
%TO.P,Q17,1*%
%TO.N,GND*%
X21760000Y-56640000D03*
D11*
%TO.P,Q17,2*%
%TO.N,DA2_3*%
X19220000Y-56640000D03*
%TO.P,Q17,3*%
%TO.N,Net-(Q16-S)*%
X16680000Y-56640000D03*
%TD*%
D10*
%TO.P,Q69,1*%
%TO.N,GND*%
X55080000Y-38860000D03*
D11*
%TO.P,Q69,2*%
%TO.N,OUT2*%
X57620000Y-38860000D03*
%TO.P,Q69,3*%
%TO.N,Net-(Q68-S)*%
X60160000Y-38860000D03*
%TD*%
D12*
%TO.P,R20,1*%
%TO.N,+5V*%
X32040000Y-29335000D03*
%TO.P,R20,2*%
%TO.N,HOLDB*%
X37120000Y-29335000D03*
%TD*%
D10*
%TO.P,Q29,1*%
%TO.N,GND*%
X24360000Y-60450000D03*
D11*
%TO.P,Q29,2*%
%TO.N,PH2*%
X26900000Y-60450000D03*
%TO.P,Q29,3*%
%TO.N,Net-(Q28-S)*%
X29440000Y-60450000D03*
%TD*%
D12*
%TO.P,R29,1*%
%TO.N,B2_mqn*%
X39720000Y-82675000D03*
%TO.P,R29,2*%
%TO.N,+5V*%
X44800000Y-82675000D03*
%TD*%
D10*
%TO.P,Q40,1*%
%TO.N,Net-(Q40-S)*%
X37120000Y-59815000D03*
D11*
%TO.P,Q40,2*%
%TO.N,BA*%
X34580000Y-59815000D03*
%TO.P,Q40,3*%
%TO.N,DB2_2*%
X32040000Y-59815000D03*
%TD*%
D12*
%TO.P,R31,1*%
%TO.N,+5V*%
X47400000Y-24255000D03*
%TO.P,R31,2*%
%TO.N,B2_sa*%
X52480000Y-24255000D03*
%TD*%
D10*
%TO.P,Q26,1*%
%TO.N,GND*%
X24360000Y-38860000D03*
D11*
%TO.P,Q26,2*%
%TO.N,A2_m2*%
X26900000Y-38860000D03*
%TO.P,Q26,3*%
%TO.N,Net-(Q25-S)*%
X29440000Y-38860000D03*
%TD*%
D12*
%TO.P,R14,1*%
%TO.N,A2_mqn*%
X24360000Y-29335000D03*
%TO.P,R14,2*%
%TO.N,+5V*%
X29440000Y-29335000D03*
%TD*%
%TO.P,R18,1*%
%TO.N,A2*%
X24360000Y-77595000D03*
%TO.P,R18,2*%
%TO.N,+5V*%
X29440000Y-77595000D03*
%TD*%
D10*
%TO.P,Q78,1*%
%TO.N,GND*%
X67840000Y-24890000D03*
D11*
%TO.P,Q78,2*%
%TO.N,OUT2_mqn*%
X65300000Y-24890000D03*
%TO.P,Q78,3*%
%TO.N,Net-(Q77-S)*%
X62760000Y-24890000D03*
%TD*%
D10*
%TO.P,Q65,1*%
%TO.N,GND*%
X52480000Y-81405000D03*
D11*
%TO.P,Q65,2*%
%TO.N,OI*%
X49940000Y-81405000D03*
%TO.P,Q65,3*%
%TO.N,OIN*%
X47400000Y-81405000D03*
%TD*%
D10*
%TO.P,Q25,1*%
%TO.N,Net-(Q25-S)*%
X24360000Y-33780000D03*
D11*
%TO.P,Q25,2*%
%TO.N,A2_mq*%
X26900000Y-33780000D03*
%TO.P,Q25,3*%
%TO.N,A2_mqn*%
X29440000Y-33780000D03*
%TD*%
D12*
%TO.P,R45,1*%
%TO.N,+5V*%
X62760000Y-50925000D03*
%TO.P,R45,2*%
%TO.N,OUT2_sa*%
X67840000Y-50925000D03*
%TD*%
D10*
%TO.P,Q50,1*%
%TO.N,Net-(Q50-S)*%
X39720000Y-60450000D03*
D11*
%TO.P,Q50,2*%
%TO.N,PH1*%
X42260000Y-60450000D03*
%TO.P,Q50,3*%
%TO.N,B2_m2*%
X44800000Y-60450000D03*
%TD*%
D10*
%TO.P,Q16,1*%
%TO.N,Net-(Q16-S)*%
X21760000Y-51560000D03*
D11*
%TO.P,Q16,2*%
%TO.N,DA2_2*%
X19220000Y-51560000D03*
%TO.P,Q16,3*%
%TO.N,Net-(Q15-S)*%
X16680000Y-51560000D03*
%TD*%
D10*
%TO.P,Q57,1*%
%TO.N,Net-(Q57-S)*%
X52480000Y-28065000D03*
D11*
%TO.P,Q57,2*%
%TO.N,B2_mq*%
X49940000Y-28065000D03*
%TO.P,Q57,3*%
%TO.N,B2_sa*%
X47400000Y-28065000D03*
%TD*%
D10*
%TO.P,Q23,1*%
%TO.N,Net-(Q23-S)*%
X24360000Y-20445000D03*
D11*
%TO.P,Q23,2*%
%TO.N,A2_m1*%
X26900000Y-20445000D03*
%TO.P,Q23,3*%
%TO.N,A2_mq*%
X29440000Y-20445000D03*
%TD*%
D10*
%TO.P,Q60,1*%
%TO.N,GND*%
X52480000Y-46480000D03*
D11*
%TO.P,Q60,2*%
%TO.N,B2_mqi*%
X49940000Y-46480000D03*
%TO.P,Q60,3*%
%TO.N,Net-(Q59-S)*%
X47400000Y-46480000D03*
%TD*%
D10*
%TO.P,Q21,1*%
%TO.N,Net-(Q21-S)*%
X21760000Y-86485000D03*
D11*
%TO.P,Q21,2*%
%TO.N,PH1*%
X19220000Y-86485000D03*
%TO.P,Q21,3*%
%TO.N,A2_m2*%
X16680000Y-86485000D03*
%TD*%
D10*
%TO.P,Q37,1*%
%TO.N,GND*%
X37120000Y-38225000D03*
D11*
%TO.P,Q37,2*%
%TO.N,BA*%
X34580000Y-38225000D03*
%TO.P,Q37,3*%
%TO.N,HOLDB*%
X32040000Y-38225000D03*
%TD*%
D10*
%TO.P,Q96,1*%
%TO.N,GND*%
X70440000Y-70610000D03*
D11*
%TO.P,Q96,2*%
%TO.N,BD2*%
X72980000Y-70610000D03*
%TO.P,Q96,3*%
%TO.N,BUS2#*%
X75520000Y-70610000D03*
%TD*%
D10*
%TO.P,Q1,1*%
%TO.N,GND*%
X9000000Y-20445000D03*
D11*
%TO.P,Q1,2*%
%TO.N,CLK*%
X11540000Y-20445000D03*
%TO.P,Q1,3*%
%TO.N,CLKN*%
X14080000Y-20445000D03*
%TD*%
D10*
%TO.P,Q74,1*%
%TO.N,GND*%
X55080000Y-73785000D03*
D11*
%TO.P,Q74,2*%
%TO.N,PH1*%
X57620000Y-73785000D03*
%TO.P,Q74,3*%
%TO.N,Net-(Q73-S)*%
X60160000Y-73785000D03*
%TD*%
D10*
%TO.P,Q18,1*%
%TO.N,GND*%
X21760000Y-64895000D03*
D11*
%TO.P,Q18,2*%
%TO.N,DA2*%
X19220000Y-64895000D03*
%TO.P,Q18,3*%
%TO.N,A2_dn*%
X16680000Y-64895000D03*
%TD*%
D10*
%TO.P,Q79,1*%
%TO.N,Net-(Q79-S)*%
X67840000Y-33145000D03*
D11*
%TO.P,Q79,2*%
%TO.N,OUT2_mq*%
X65300000Y-33145000D03*
%TO.P,Q79,3*%
%TO.N,OUT2_mqn*%
X62760000Y-33145000D03*
%TD*%
D12*
%TO.P,R22,1*%
%TO.N,+5V*%
X32040000Y-56005000D03*
%TO.P,R22,2*%
%TO.N,DB2_2*%
X37120000Y-56005000D03*
%TD*%
D10*
%TO.P,Q68,1*%
%TO.N,Net-(Q68-S)*%
X55080000Y-33780000D03*
D11*
%TO.P,Q68,2*%
%TO.N,OIN*%
X57620000Y-33780000D03*
%TO.P,Q68,3*%
%TO.N,DO2_2*%
X60160000Y-33780000D03*
%TD*%
D10*
%TO.P,Q15,1*%
%TO.N,Net-(Q15-S)*%
X21760000Y-46480000D03*
D11*
%TO.P,Q15,2*%
%TO.N,DA2_1*%
X19220000Y-46480000D03*
%TO.P,Q15,3*%
%TO.N,DA2*%
X16680000Y-46480000D03*
%TD*%
D12*
%TO.P,R6,1*%
%TO.N,DA2_1*%
X9000000Y-72515000D03*
%TO.P,R6,2*%
%TO.N,+5V*%
X14080000Y-72515000D03*
%TD*%
D10*
%TO.P,Q3,1*%
%TO.N,GND*%
X9000000Y-33780000D03*
D11*
%TO.P,Q3,2*%
%TO.N,PH2*%
X11540000Y-33780000D03*
%TO.P,Q3,3*%
%TO.N,PH1*%
X14080000Y-33780000D03*
%TD*%
D12*
%TO.P,R41,1*%
%TO.N,OUT2_m2*%
X55080000Y-77595000D03*
%TO.P,R41,2*%
%TO.N,+5V*%
X60160000Y-77595000D03*
%TD*%
D10*
%TO.P,Q24,1*%
%TO.N,GND*%
X24360000Y-25525000D03*
D11*
%TO.P,Q24,2*%
%TO.N,A2_mqn*%
X26900000Y-25525000D03*
%TO.P,Q24,3*%
%TO.N,Net-(Q23-S)*%
X29440000Y-25525000D03*
%TD*%
D10*
%TO.P,Q81,1*%
%TO.N,GND*%
X67840000Y-46480000D03*
D11*
%TO.P,Q81,2*%
%TO.N,OUT2_mq*%
X65300000Y-46480000D03*
%TO.P,Q81,3*%
%TO.N,OUT2_mqi*%
X62760000Y-46480000D03*
%TD*%
D10*
%TO.P,Q87,1*%
%TO.N,GND*%
X67840000Y-86485000D03*
D11*
%TO.P,Q87,2*%
%TO.N,OUT2_qn*%
X65300000Y-86485000D03*
%TO.P,Q87,3*%
%TO.N,Net-(Q86-S)*%
X62760000Y-86485000D03*
%TD*%
D12*
%TO.P,R40,1*%
%TO.N,OUT2_m1*%
X55080000Y-64260000D03*
%TO.P,R40,2*%
%TO.N,+5V*%
X60160000Y-64260000D03*
%TD*%
%TO.P,R44,1*%
%TO.N,+5V*%
X62760000Y-42670000D03*
%TO.P,R44,2*%
%TO.N,OUT2_mqi*%
X67840000Y-42670000D03*
%TD*%
D10*
%TO.P,Q49,1*%
%TO.N,GND*%
X39720000Y-52195000D03*
D11*
%TO.P,Q49,2*%
%TO.N,PH1*%
X42260000Y-52195000D03*
%TO.P,Q49,3*%
%TO.N,Net-(Q48-S)*%
X44800000Y-52195000D03*
%TD*%
D10*
%TO.P,Q9,1*%
%TO.N,Net-(Q10-D)*%
X9000000Y-76960000D03*
D11*
%TO.P,Q9,2*%
%TO.N,AI*%
X11540000Y-76960000D03*
%TO.P,Q9,3*%
%TO.N,DA2_1*%
X14080000Y-76960000D03*
%TD*%
D10*
%TO.P,Q51,1*%
%TO.N,GND*%
X39720000Y-65530000D03*
D11*
%TO.P,Q51,2*%
%TO.N,B2_dn*%
X42260000Y-65530000D03*
%TO.P,Q51,3*%
%TO.N,Net-(Q50-S)*%
X44800000Y-65530000D03*
%TD*%
D10*
%TO.P,Q91,1*%
%TO.N,GND*%
X70440000Y-38860000D03*
D11*
%TO.P,Q91,2*%
%TO.N,A2*%
X72980000Y-38860000D03*
%TO.P,Q91,3*%
%TO.N,Net-(Q90-S)*%
X75520000Y-38860000D03*
%TD*%
D10*
%TO.P,Q30,1*%
%TO.N,Net-(Q30-S)*%
X24360000Y-68705000D03*
D11*
%TO.P,Q30,2*%
%TO.N,PH2*%
X26900000Y-68705000D03*
%TO.P,Q30,3*%
%TO.N,A2_sb*%
X29440000Y-68705000D03*
%TD*%
D10*
%TO.P,Q55,1*%
%TO.N,GND*%
X39720000Y-92200000D03*
D11*
%TO.P,Q55,2*%
%TO.N,B2_m2*%
X42260000Y-92200000D03*
%TO.P,Q55,3*%
%TO.N,Net-(Q54-S)*%
X44800000Y-92200000D03*
%TD*%
D12*
%TO.P,R9,1*%
%TO.N,+5V*%
X16680000Y-42670000D03*
%TO.P,R9,2*%
%TO.N,DA2*%
X21760000Y-42670000D03*
%TD*%
%TO.P,R5,1*%
%TO.N,HOLDA*%
X9000000Y-59180000D03*
%TO.P,R5,2*%
%TO.N,+5V*%
X14080000Y-59180000D03*
%TD*%
%TO.P,R10,1*%
%TO.N,+5V*%
X16680000Y-61085000D03*
%TO.P,R10,2*%
%TO.N,A2_dn*%
X21760000Y-61085000D03*
%TD*%
D19*
%TO.N,GND*%
X84530000Y-12500000D03*
X69170000Y-12500000D03*
X38450000Y-12500000D03*
X89370000Y-2460000D03*
X18250000Y-2460000D03*
X95000000Y-21500000D03*
X95000000Y-30500000D03*
X7730000Y-12500000D03*
X53810000Y-12500000D03*
X23090000Y-12500000D03*
%TO.N,+5V*%
X76850000Y-14000000D03*
X10630000Y-14000000D03*
X15410000Y-14000000D03*
X89370000Y-14000000D03*
X61490000Y-14000000D03*
X46130000Y-14000000D03*
X30770000Y-14000000D03*
%TO.N,A2*%
X19943100Y-58368100D03*
%TO.N,AI*%
X77715000Y-84992000D03*
%TO.N,DB2*%
X43725900Y-23876100D03*
%TO.N,B2*%
X35107300Y-48785500D03*
X35340600Y-58692700D03*
%TO.N,PH2*%
X14014300Y-53614900D03*
%TO.N,A2_m1*%
X21318000Y-35855500D03*
%TO.N,OI*%
X48877300Y-65616000D03*
X54724500Y-50653400D03*
%TO.N,OUT2_sb*%
X72254000Y-58194500D03*
%TO.N,OUT2_m1*%
X64494000Y-62536500D03*
%TO.N,HOLDB*%
X33008300Y-74473800D03*
%TO.N,DB2_3*%
X41004000Y-67066000D03*
X41538200Y-43181600D03*
%TO.N,AB*%
X23993800Y-10939400D03*
X10955400Y-37624700D03*
%TO.N,Net-(Q92-S)*%
X74748800Y-50075500D03*
%TO.N,OIN*%
X51605400Y-39708900D03*
%TO.N,BA*%
X33517900Y-10949500D03*
%TO.N,A2_sb*%
X26810000Y-35294000D03*
%TO.N,B2_m2*%
X47218000Y-70413800D03*
%TO.N,DA2_1*%
X12879100Y-52796200D03*
X11250100Y-61737900D03*
%TD*%
%TO.N,GND*%
D20*
X89370000Y-4960000D02*
X89370000Y-2460000D01*
X18250000Y-4960000D02*
X18250000Y-2460000D01*
X13170000Y-4960000D02*
X18250000Y-4960000D01*
D21*
X7730000Y-12500000D02*
X84530000Y-12500000D01*
D20*
X95000000Y-19000000D02*
X95000000Y-21500000D01*
X13170000Y-7500000D02*
X13170000Y-4960000D01*
X13170000Y-7500000D02*
X13170000Y-12500000D01*
X95000000Y-28000000D02*
X95000000Y-30500000D01*
%TO.N,D2*%
D22*
X13749100Y-52927900D02*
X12886000Y-53791000D01*
X12886000Y-53791000D02*
X12886000Y-54176000D01*
X38221100Y-47918900D02*
X34580000Y-51560000D01*
X17950100Y-51768100D02*
X16790300Y-52927900D01*
X24930200Y-49834800D02*
X19526900Y-49834800D01*
X40866100Y-25462700D02*
X40866100Y-26350200D01*
X27695200Y-52599800D02*
X24930200Y-49834800D01*
X19526900Y-49834800D02*
X17950100Y-51411600D01*
X34580000Y-51560000D02*
X33540200Y-52599800D01*
X17950100Y-51411600D02*
X17950100Y-51768100D01*
X38221100Y-28995200D02*
X38221100Y-47918900D01*
X43146500Y-23182300D02*
X40866100Y-25462700D01*
X12886000Y-53791000D02*
X11866000Y-53791000D01*
X55277300Y-23182300D02*
X43146500Y-23182300D01*
X40866100Y-26350200D02*
X38221100Y-28995200D01*
X16790300Y-52927900D02*
X13749100Y-52927900D01*
X11866000Y-53791000D02*
X9000000Y-50925000D01*
X12886000Y-54176000D02*
X14080000Y-55370000D01*
X33540200Y-52599800D02*
X27695200Y-52599800D01*
X57620000Y-25525000D02*
X55277300Y-23182300D01*
%TO.N,Net-(Q66-S)*%
X56081700Y-21446700D02*
X60160000Y-25525000D01*
X56081700Y-20445000D02*
X56081700Y-21446700D01*
X55080000Y-20445000D02*
X56081700Y-20445000D01*
%TO.N,A2_mq*%
X28170000Y-19810000D02*
X28170000Y-20445000D01*
X28170000Y-20445000D02*
X28170000Y-32510000D01*
X24360000Y-16000000D02*
X28170000Y-19810000D01*
X29440000Y-20445000D02*
X28170000Y-20445000D01*
X28170000Y-32510000D02*
X26900000Y-33780000D01*
%TO.N,+5V*%
D21*
X76850000Y-14000000D02*
X98000000Y-14000000D01*
D20*
X98000000Y-14000000D02*
X98000000Y-26000000D01*
D21*
X15410000Y-14000000D02*
X76850000Y-14000000D01*
D20*
X95000000Y-14000000D02*
X95000000Y-16500000D01*
D21*
X10630000Y-14000000D02*
X15410000Y-14000000D01*
D20*
X10630000Y-7500000D02*
X10630000Y-4960000D01*
X98000000Y-26000000D02*
X95000000Y-26000000D01*
%TO.N,OUT2*%
D22*
X67740900Y-77694000D02*
X66471000Y-77694000D01*
X72980000Y-85215000D02*
X72980000Y-82933100D01*
X72980000Y-82933100D02*
X67741000Y-77694000D01*
X61413100Y-33069200D02*
X64698100Y-29784200D01*
X67741000Y-77694000D02*
X67740900Y-77694000D01*
X64698100Y-29784200D02*
X64807400Y-29784200D01*
X57620000Y-38860000D02*
X61413100Y-35066900D01*
X61413100Y-35066900D02*
X61413100Y-33069200D01*
X69185200Y-24239800D02*
X72980000Y-20445000D01*
X67741000Y-77694000D02*
X67840000Y-77595000D01*
X66471000Y-77694000D02*
X62760000Y-81405000D01*
X64807400Y-29784200D02*
X69185200Y-25406400D01*
X69185200Y-25406400D02*
X69185200Y-24239800D01*
%TO.N,B2_qn*%
X47472200Y-68070000D02*
X51282200Y-64260000D01*
X47400000Y-68070000D02*
X47472200Y-68070000D01*
X51282200Y-61157200D02*
X49940000Y-59815000D01*
X52480000Y-64260000D02*
X51282200Y-64260000D01*
X51282200Y-64260000D02*
X51282200Y-61157200D01*
%TO.N,Net-(Q61-S)*%
X51478300Y-54735000D02*
X51478300Y-55736700D01*
X51478300Y-55736700D02*
X47400000Y-59815000D01*
X52480000Y-54735000D02*
X51478300Y-54735000D01*
%TO.N,OUT2_mqn*%
X67840000Y-29335000D02*
X66570000Y-29335000D01*
X66570000Y-29335000D02*
X62760000Y-33145000D01*
%TO.N,A2*%
X32029300Y-31223400D02*
X30676200Y-32576500D01*
X20268800Y-39273800D02*
X19220000Y-38225000D01*
X23505700Y-37858300D02*
X23358300Y-38005700D01*
X25192300Y-59405500D02*
X25506100Y-59719300D01*
X25361700Y-38005700D02*
X25214300Y-37858300D01*
X32644000Y-31223400D02*
X32029300Y-31223400D01*
X79120200Y-22587700D02*
X79120200Y-25255200D01*
X30676200Y-39041900D02*
X29855100Y-39863000D01*
X25361700Y-38754400D02*
X25361700Y-38005700D01*
X24995000Y-77595000D02*
X24360000Y-77595000D01*
X71476500Y-14944000D02*
X79120200Y-22587700D01*
X30676200Y-32576500D02*
X30676200Y-39041900D01*
X23358300Y-38539700D02*
X22624200Y-39273800D01*
X26470300Y-39863000D02*
X25361700Y-38754400D01*
X23358300Y-38005700D02*
X23358300Y-38539700D01*
X25506100Y-59719300D02*
X25506100Y-61855800D01*
X35590600Y-18799400D02*
X38044500Y-18799400D01*
X79120200Y-25255200D02*
X80660000Y-26795000D01*
X33513100Y-65961900D02*
X34580000Y-64895000D01*
X34580000Y-19810000D02*
X35590600Y-18799400D01*
X38130800Y-18885700D02*
X38130800Y-25736600D01*
X25506100Y-61855800D02*
X29612200Y-65961900D01*
X25214300Y-37858300D02*
X23505700Y-37858300D01*
X38130800Y-25736600D02*
X32644000Y-31223400D01*
X29612200Y-65961900D02*
X33513100Y-65961900D01*
X38991600Y-18885700D02*
X42933300Y-14944000D01*
X29855100Y-39863000D02*
X26470300Y-39863000D01*
X19943100Y-58368100D02*
X20980500Y-59405500D01*
X72980000Y-38860000D02*
X80660000Y-31180000D01*
X38044500Y-18799400D02*
X38130800Y-18885700D01*
X29440000Y-82040000D02*
X24995000Y-77595000D01*
X80660000Y-31180000D02*
X80660000Y-26795000D01*
X38130800Y-18885700D02*
X38991600Y-18885700D01*
X42933300Y-14944000D02*
X71476500Y-14944000D01*
X22624200Y-39273800D02*
X20268800Y-39273800D01*
X20980500Y-59405500D02*
X25192300Y-59405500D01*
%TO.N,DB2_1*%
X31038300Y-32711700D02*
X32051300Y-31698700D01*
X31625100Y-34146700D02*
X31038300Y-33559900D01*
X32051300Y-31698700D02*
X32724700Y-31698700D01*
X35922200Y-42597800D02*
X32040000Y-46480000D01*
X38600400Y-24104600D02*
X42260000Y-20445000D01*
X37120000Y-42670000D02*
X37047800Y-42597800D01*
X37047800Y-42597800D02*
X35922200Y-42597800D01*
X35922200Y-42597800D02*
X35922200Y-38147600D01*
X32724700Y-31698700D02*
X38600400Y-25823000D01*
X38600400Y-25823000D02*
X38600400Y-24104600D01*
X35922200Y-38147600D02*
X31921300Y-34146700D01*
X31921300Y-34146700D02*
X31625100Y-34146700D01*
X31038300Y-33559900D02*
X31038300Y-32711700D01*
%TO.N,A2_qn*%
X35850000Y-16000000D02*
X37120000Y-16000000D01*
X32040000Y-19810000D02*
X35850000Y-16000000D01*
%TO.N,Net-(Q32-S)*%
X24360000Y-82040000D02*
X25361700Y-82040000D01*
X25361700Y-82040000D02*
X25361700Y-83041700D01*
X25361700Y-83041700D02*
X29440000Y-87120000D01*
%TO.N,OUT2_m2*%
X55715000Y-77595000D02*
X55080000Y-77595000D01*
X60160000Y-82040000D02*
X55715000Y-77595000D01*
%TO.N,Net-(Q79-S)*%
X66838300Y-34146700D02*
X62760000Y-38225000D01*
X67840000Y-33145000D02*
X66838300Y-33145000D01*
X66838300Y-33145000D02*
X66838300Y-34146700D01*
%TO.N,AI*%
X26557400Y-80224800D02*
X28170100Y-81837500D01*
X14804800Y-80224800D02*
X26557400Y-80224800D01*
X41261600Y-89784900D02*
X43261700Y-91785000D01*
X43261700Y-92082200D02*
X44381200Y-93201700D01*
X43261700Y-91785000D02*
X43261700Y-92082200D01*
X11540000Y-76960000D02*
X14804800Y-80224800D01*
X44381200Y-93201700D02*
X69505300Y-93201700D01*
X35685300Y-89784900D02*
X41261600Y-89784900D01*
X28170100Y-81837500D02*
X28170100Y-82269700D01*
X28170100Y-82269700D02*
X35685300Y-89784900D01*
X69505300Y-93201700D02*
X77715000Y-84992000D01*
%TO.N,HOLDA*%
X8217200Y-46005200D02*
X7532800Y-46689600D01*
X15629800Y-36735200D02*
X15629800Y-41970800D01*
X14080000Y-63625000D02*
X9635000Y-59180000D01*
X11595400Y-46005200D02*
X8217200Y-46005200D01*
X15629800Y-41970800D02*
X11595400Y-46005200D01*
X7532800Y-57712800D02*
X9000000Y-59180000D01*
X19220000Y-33145000D02*
X15629800Y-36735200D01*
X7532800Y-46689600D02*
X7532800Y-57712800D01*
X9635000Y-59180000D02*
X9000000Y-59180000D01*
%TO.N,Net-(Q48-S)*%
X40721700Y-47115000D02*
X40721700Y-48116700D01*
X39720000Y-47115000D02*
X40721700Y-47115000D01*
X40721700Y-48116700D02*
X44800000Y-52195000D01*
%TO.N,DB2*%
X42260000Y-38860000D02*
X43725900Y-37394100D01*
X43725900Y-37394100D02*
X43725900Y-23876100D01*
%TO.N,B2_m1*%
X44165000Y-47115000D02*
X44800000Y-47115000D01*
X39720000Y-42670000D02*
X44165000Y-47115000D01*
%TO.N,Net-(Q63-S)*%
X52480000Y-69071700D02*
X48401700Y-73150000D01*
X48401700Y-73150000D02*
X47400000Y-73150000D01*
X52480000Y-68070000D02*
X52480000Y-69071700D01*
%TO.N,B2*%
X36474800Y-58692600D02*
X35340600Y-58692600D01*
X35340600Y-58692600D02*
X35340600Y-58692700D01*
X50181900Y-68070000D02*
X53780100Y-64471800D01*
X19220000Y-24890000D02*
X22849000Y-28519000D01*
X72759800Y-52195000D02*
X72980000Y-52195000D01*
X18200200Y-38684500D02*
X21134000Y-41618300D01*
X25761700Y-41618300D02*
X32928900Y-48785500D01*
X22849000Y-28519000D02*
X22849000Y-33912000D01*
X47400000Y-54735000D02*
X39469700Y-54735000D01*
X67771100Y-61742200D02*
X68909500Y-60603800D01*
X39469700Y-54735000D02*
X38668300Y-55536400D01*
X22612100Y-34148900D02*
X21865600Y-34148900D01*
X80660000Y-45085900D02*
X80660000Y-42035000D01*
X49940000Y-68070000D02*
X50181900Y-68070000D01*
X51210000Y-50925000D02*
X47400000Y-54735000D01*
X38668300Y-55536400D02*
X38668300Y-56499100D01*
X22849000Y-33912000D02*
X22612100Y-34148900D01*
X53780100Y-64471800D02*
X53780100Y-63998500D01*
X52480000Y-50925000D02*
X51210000Y-50925000D01*
X53780100Y-63998500D02*
X56036400Y-61742200D01*
X21134000Y-41618300D02*
X25761700Y-41618300D01*
X68909500Y-60603800D02*
X68909500Y-56045300D01*
X72980000Y-52195000D02*
X73550900Y-52195000D01*
X73550900Y-52195000D02*
X80660000Y-45085900D01*
X18200200Y-37814300D02*
X18200200Y-38684500D01*
X32928900Y-48785500D02*
X35107300Y-48785500D01*
X38668300Y-56499100D02*
X36474800Y-58692600D01*
X68909500Y-56045300D02*
X72759800Y-52195000D01*
X56036400Y-61742200D02*
X67771100Y-61742200D01*
X21865600Y-34148900D02*
X18200200Y-37814300D01*
%TO.N,B2_sb*%
X51210000Y-37590000D02*
X52480000Y-37590000D01*
X47400000Y-41400000D02*
X51210000Y-37590000D01*
%TO.N,Net-(Q59-S)*%
X49524700Y-40397600D02*
X48588100Y-41334200D01*
X51478300Y-41400000D02*
X50475900Y-40397600D01*
X48588100Y-41334200D02*
X48588100Y-45291900D01*
X50475900Y-40397600D02*
X49524700Y-40397600D01*
X52480000Y-41400000D02*
X51478300Y-41400000D01*
X48588100Y-45291900D02*
X47400000Y-46480000D01*
%TO.N,PH2*%
X49940000Y-44560100D02*
X49940000Y-41400000D01*
X65300000Y-59641200D02*
X60426400Y-54767600D01*
X25311400Y-58861400D02*
X21357900Y-58861400D01*
X48938300Y-45561800D02*
X49940000Y-44560100D01*
X44304800Y-54133000D02*
X39539300Y-54133000D01*
X11540000Y-33780000D02*
X9000000Y-36320000D01*
X16307900Y-57716400D02*
X15629000Y-57037500D01*
X53670200Y-48677500D02*
X48938300Y-48677500D01*
X21357900Y-58861300D02*
X20213000Y-57716400D01*
X36888600Y-57758700D02*
X35187400Y-57758700D01*
X20213000Y-57716400D02*
X16307900Y-57716400D01*
X15629000Y-57037500D02*
X15629000Y-55229600D01*
X38237400Y-55434900D02*
X38237400Y-56409900D01*
X48106000Y-48677500D02*
X46191700Y-50591800D01*
X65300000Y-59815000D02*
X65300000Y-59641200D01*
X48938300Y-48677500D02*
X48938300Y-45561800D01*
X33310000Y-60035100D02*
X31886500Y-61458600D01*
X39539300Y-54133000D02*
X38237400Y-55434900D01*
X58776000Y-54767600D02*
X56618300Y-52609900D01*
X21357900Y-58861400D02*
X21357900Y-58861300D01*
X35187400Y-57758700D02*
X33310000Y-59636100D01*
X26900000Y-60450000D02*
X25311400Y-58861400D01*
X46191700Y-52246100D02*
X44304800Y-54133000D01*
X38237400Y-56409900D02*
X36888600Y-57758700D01*
X56618300Y-52609900D02*
X56618300Y-51625600D01*
X48938300Y-48677500D02*
X48106000Y-48677500D01*
X56618300Y-51625600D02*
X53670200Y-48677500D01*
X15629000Y-55229600D02*
X14014300Y-53614900D01*
X27908600Y-61458600D02*
X26900000Y-60450000D01*
X31886500Y-61458600D02*
X27908600Y-61458600D01*
X13445000Y-42035000D02*
X14080000Y-42035000D01*
X46191700Y-50591800D02*
X46191700Y-52246100D01*
X9000000Y-36320000D02*
X9000000Y-37590000D01*
X60426400Y-54767600D02*
X58776000Y-54767600D01*
X9000000Y-37590000D02*
X13445000Y-42035000D01*
X33310000Y-59636100D02*
X33310000Y-60035100D01*
%TO.N,Net-(Q19-S)*%
X21760000Y-73150000D02*
X20758300Y-73150000D01*
X20758300Y-74151700D02*
X16680000Y-78230000D01*
X20758300Y-73150000D02*
X20758300Y-74151700D01*
%TO.N,DA2*%
X20490000Y-42670000D02*
X21760000Y-42670000D01*
X16680000Y-46480000D02*
X20490000Y-42670000D01*
%TO.N,A2_m1*%
X21476300Y-35855500D02*
X23267600Y-34064200D01*
X16680000Y-73150000D02*
X20490000Y-69340000D01*
X21318000Y-35855500D02*
X21476300Y-35855500D01*
X23267600Y-34064200D02*
X23267600Y-24077400D01*
X20490000Y-69340000D02*
X21760000Y-69340000D01*
X23267600Y-24077400D02*
X26900000Y-20445000D01*
%TO.N,AON2*%
X75520000Y-33780000D02*
X71075000Y-29335000D01*
X71075000Y-29335000D02*
X70440000Y-29335000D01*
%TO.N,BD2*%
X74250000Y-59268900D02*
X70986100Y-56005000D01*
X75520000Y-60450000D02*
X74250000Y-60450000D01*
X74250000Y-69340000D02*
X72980000Y-70610000D01*
X74250000Y-60450000D02*
X74250000Y-69340000D01*
X70986100Y-56005000D02*
X70440000Y-56005000D01*
X74250000Y-60450000D02*
X74250000Y-59268900D01*
%TO.N,CLKN*%
X9635000Y-16000000D02*
X14080000Y-20445000D01*
X9000000Y-16000000D02*
X9635000Y-16000000D01*
X12806400Y-31063500D02*
X10007800Y-33862100D01*
X13143800Y-31063500D02*
X12806400Y-31063500D01*
X14080000Y-20445000D02*
X15177900Y-21542900D01*
X15177900Y-29029400D02*
X13143800Y-31063500D01*
X15177900Y-21542900D02*
X15177900Y-29029400D01*
X10007800Y-33862100D02*
X10007800Y-34769800D01*
X7947500Y-38442500D02*
X11540000Y-42035000D01*
X10007800Y-34769800D02*
X7947500Y-36830100D01*
X7947500Y-36830100D02*
X7947500Y-38442500D01*
%TO.N,Net-(Q13-S)*%
X20758300Y-33145000D02*
X20758300Y-34146700D01*
X21760000Y-33145000D02*
X20758300Y-33145000D01*
X20758300Y-34146700D02*
X16680000Y-38225000D01*
%TO.N,DA2_3*%
X16680000Y-33145000D02*
X20490000Y-29335000D01*
X20490000Y-29335000D02*
X21760000Y-29335000D01*
%TO.N,Net-(Q82-S)*%
X66838300Y-56738400D02*
X66838300Y-59701300D01*
X63775800Y-60830800D02*
X62760000Y-59815000D01*
X67840000Y-55736700D02*
X66838300Y-56738400D01*
X67840000Y-54735000D02*
X67840000Y-55736700D01*
X65708800Y-60830800D02*
X63775800Y-60830800D01*
X66838300Y-59701300D02*
X65708800Y-60830800D01*
%TO.N,OUT2_sa*%
X66570000Y-50925000D02*
X67840000Y-50925000D01*
X62760000Y-54735000D02*
X66570000Y-50925000D01*
%TO.N,OUT2_qn*%
X66303200Y-87488200D02*
X65300000Y-86485000D01*
X75520000Y-20445000D02*
X76583500Y-21508500D01*
X70440000Y-16000000D02*
X71075000Y-16000000D01*
X76583500Y-21508500D02*
X76583500Y-34209000D01*
X71978300Y-38440400D02*
X71978300Y-39274900D01*
X72163300Y-87488200D02*
X66303200Y-87488200D01*
X71075000Y-16000000D02*
X75520000Y-20445000D01*
X78516900Y-37858300D02*
X82078400Y-41419800D01*
X76583500Y-34209000D02*
X73202500Y-37590000D01*
X75101800Y-37858300D02*
X78516900Y-37858300D01*
X73202500Y-37590000D02*
X72828700Y-37590000D01*
X82078400Y-69704800D02*
X74503500Y-77279700D01*
X74254000Y-38706100D02*
X75101800Y-37858300D01*
X72581700Y-39878300D02*
X73448200Y-39878300D01*
X74503500Y-77279700D02*
X74503500Y-85148000D01*
X74254000Y-39072500D02*
X74254000Y-38706100D01*
X73448200Y-39878300D02*
X74254000Y-39072500D01*
X71978300Y-39274900D02*
X72581700Y-39878300D01*
X74503500Y-85148000D02*
X72163300Y-87488200D01*
X82078400Y-41419800D02*
X82078400Y-69704800D01*
X72828700Y-37590000D02*
X71978300Y-38440400D01*
%TO.N,DO2_2*%
X55715000Y-29335000D02*
X55080000Y-29335000D01*
X60160000Y-33780000D02*
X55715000Y-29335000D01*
%TO.N,Net-(Q70-S)*%
X56081700Y-48116700D02*
X60160000Y-52195000D01*
X56081700Y-47115000D02*
X56081700Y-48116700D01*
X55080000Y-47115000D02*
X56081700Y-47115000D01*
%TO.N,OI*%
X54724500Y-50653400D02*
X53765400Y-51612500D01*
X53765400Y-55374300D02*
X50627300Y-58512400D01*
X48877300Y-59456500D02*
X48877300Y-65616000D01*
X50627300Y-58512400D02*
X49821400Y-58512400D01*
X53765400Y-51612500D02*
X53765400Y-55374300D01*
X49821400Y-58512400D02*
X48877300Y-59456500D01*
%TO.N,DO2_1*%
X60160000Y-20445000D02*
X55715000Y-16000000D01*
X55715000Y-16000000D02*
X55080000Y-16000000D01*
%TO.N,Net-(Q38-S)*%
X37120000Y-47694400D02*
X37120000Y-47481700D01*
X34162800Y-49437200D02*
X35377200Y-49437200D01*
X32040000Y-51560000D02*
X34162800Y-49437200D01*
X37120000Y-46480000D02*
X37120000Y-47481700D01*
X35377200Y-49437200D02*
X37120000Y-47694400D01*
%TO.N,A2_sa*%
X29440000Y-55370000D02*
X24995000Y-50925000D01*
X24995000Y-50925000D02*
X24360000Y-50925000D01*
%TO.N,Net-(Q10-D)*%
X10001700Y-77961700D02*
X14080000Y-82040000D01*
X9000000Y-76960000D02*
X10001700Y-76960000D01*
X10001700Y-76960000D02*
X10001700Y-77961700D01*
%TO.N,Net-(Q84-S)*%
X66838300Y-68070000D02*
X66838300Y-69071700D01*
X66838300Y-69071700D02*
X62760000Y-73150000D01*
X67840000Y-68070000D02*
X66838300Y-68070000D01*
%TO.N,OUT2_sb*%
X70809300Y-58194600D02*
X72254000Y-58194600D01*
X62760000Y-68070000D02*
X66570000Y-64260000D01*
X67840000Y-64260000D02*
X69328900Y-62771100D01*
X66570000Y-64260000D02*
X67840000Y-64260000D01*
X72254000Y-58194600D02*
X72254000Y-58194500D01*
X69328900Y-59675000D02*
X70809300Y-58194600D01*
X69328900Y-62771100D02*
X69328900Y-59675000D01*
%TO.N,Net-(Q73-S)*%
X56081700Y-68705000D02*
X56081700Y-69706700D01*
X55080000Y-68705000D02*
X56081700Y-68705000D01*
X56081700Y-69706700D02*
X60160000Y-73785000D01*
%TO.N,DO2*%
X55080000Y-42670000D02*
X55715000Y-42670000D01*
X55715000Y-42670000D02*
X60160000Y-47115000D01*
%TO.N,OUT2_m1*%
X61460100Y-64064500D02*
X62988100Y-62536500D01*
X55715000Y-64260000D02*
X55080000Y-64260000D01*
X58706900Y-67251800D02*
X55715000Y-64260000D01*
X60160000Y-68705000D02*
X58706900Y-67251800D01*
X58706900Y-67251800D02*
X61460100Y-64498600D01*
X61460100Y-64498600D02*
X61460100Y-64064500D01*
X62988100Y-62536500D02*
X64494000Y-62536500D01*
%TO.N,A2_mqi*%
X24995000Y-42670000D02*
X24360000Y-42670000D01*
X29440000Y-47115000D02*
X24995000Y-42670000D01*
%TO.N,Net-(Q42-S)*%
X36118300Y-74151700D02*
X32040000Y-78230000D01*
X36118300Y-73150000D02*
X36118300Y-74151700D01*
X37120000Y-73150000D02*
X36118300Y-73150000D01*
%TO.N,HOLDB*%
X35850000Y-29335000D02*
X37120000Y-29335000D01*
X34580000Y-73150000D02*
X33256200Y-74473800D01*
X32040000Y-33145000D02*
X35850000Y-29335000D01*
X33256200Y-74473800D02*
X33008300Y-74473800D01*
%TO.N,DB2_3*%
X37120000Y-69340000D02*
X35850000Y-69340000D01*
X39394000Y-67066000D02*
X37120000Y-69340000D01*
X41004000Y-67066000D02*
X39394000Y-67066000D01*
X41175700Y-42819100D02*
X41175700Y-31689300D01*
X41175700Y-31689300D02*
X42260000Y-30605000D01*
X35850000Y-69340000D02*
X32040000Y-73150000D01*
X41538200Y-43181600D02*
X41175700Y-42819100D01*
%TO.N,AB*%
X19220000Y-19810000D02*
X15619400Y-23410600D01*
X25276900Y-9656300D02*
X23993800Y-10939400D01*
X12766300Y-32647000D02*
X12766300Y-35813800D01*
X12766300Y-35813800D02*
X10955400Y-37624700D01*
X60848300Y-9656200D02*
X25276900Y-9656200D01*
X65240000Y-6230000D02*
X63655700Y-6230000D01*
X62700000Y-7804500D02*
X60848300Y-9656200D01*
X62700000Y-7185700D02*
X62700000Y-7804500D01*
X66510000Y-4960000D02*
X65240000Y-6230000D01*
X15619400Y-29793900D02*
X12766300Y-32647000D01*
X15619400Y-23410600D02*
X15619400Y-29793900D01*
X25276900Y-9656200D02*
X25276900Y-9656300D01*
X63655700Y-6230000D02*
X62700000Y-7185700D01*
%TO.N,B2_sa*%
X47400000Y-28065000D02*
X51210000Y-24255000D01*
X51210000Y-24255000D02*
X52480000Y-24255000D01*
%TO.N,Net-(Q90-S)*%
X72417000Y-40230000D02*
X74150000Y-40230000D01*
X70440000Y-34781700D02*
X71626600Y-35968300D01*
X71626600Y-39439600D02*
X72417000Y-40230000D01*
X74150000Y-40230000D02*
X75520000Y-38860000D01*
X70440000Y-33780000D02*
X70440000Y-34781700D01*
X71626600Y-35968300D02*
X71626600Y-39439600D01*
%TO.N,Net-(Q28-S)*%
X25361700Y-56371700D02*
X29440000Y-60450000D01*
X24360000Y-55370000D02*
X25361700Y-55370000D01*
X25361700Y-55370000D02*
X25361700Y-56371700D01*
%TO.N,BUS2#*%
X15574800Y-63130000D02*
X11540100Y-59095300D01*
X15574800Y-65299700D02*
X15574800Y-63130000D01*
X17979900Y-67704800D02*
X15574800Y-65299700D01*
X41114600Y-86633100D02*
X33918900Y-79437400D01*
X61701600Y-81026200D02*
X61701600Y-82033200D01*
X23309800Y-69384400D02*
X21630200Y-67704800D01*
X75520000Y-70610000D02*
X75520000Y-70889700D01*
X11540100Y-59095300D02*
X11540100Y-55370000D01*
X25361700Y-75108300D02*
X25361700Y-72902800D01*
X21630200Y-67704800D02*
X17979900Y-67704800D01*
X75520000Y-70889700D02*
X69866400Y-76543300D01*
X61701600Y-82033200D02*
X57951800Y-85783000D01*
X11540100Y-55370000D02*
X11540000Y-55370000D01*
X41114600Y-87435400D02*
X41114600Y-86633100D01*
X23309800Y-70850900D02*
X23309800Y-69384400D01*
X69866400Y-76543300D02*
X66184500Y-76543300D01*
X50588700Y-85783000D02*
X48220500Y-88151200D01*
X25361700Y-72902800D02*
X23309800Y-70850900D01*
X33918900Y-79437400D02*
X29690800Y-79437400D01*
X29690800Y-79437400D02*
X25361700Y-75108300D01*
X66184500Y-76543300D02*
X61701600Y-81026200D01*
X48220500Y-88151200D02*
X41830400Y-88151200D01*
X57951800Y-85783000D02*
X50588700Y-85783000D01*
X41830400Y-88151200D02*
X41114600Y-87435400D01*
%TO.N,Net-(Q40-S)*%
X32040000Y-63893300D02*
X32040000Y-64895000D01*
X36118300Y-59815000D02*
X32040000Y-63893300D01*
X37120000Y-59815000D02*
X36118300Y-59815000D01*
%TO.N,B2_mq*%
X72344200Y-40654500D02*
X80735400Y-40654500D01*
X81719800Y-41638900D02*
X81719800Y-62993700D01*
X81719800Y-62993700D02*
X74518300Y-70195200D01*
X50924300Y-39993500D02*
X51318400Y-40387600D01*
X53586400Y-37998600D02*
X52601500Y-38983500D01*
X45861700Y-83518300D02*
X45861700Y-75198400D01*
X51361400Y-38983500D02*
X50924300Y-39420600D01*
X49940000Y-28065000D02*
X46366700Y-31638300D01*
X45861700Y-75198400D02*
X45861700Y-74846700D01*
X47295800Y-34529500D02*
X50977100Y-34529500D01*
X50977100Y-34529500D02*
X53586400Y-37138800D01*
X80735400Y-40654500D02*
X81719800Y-41638900D01*
X74518300Y-70195200D02*
X74518300Y-70541900D01*
X72659700Y-72400500D02*
X70490000Y-72400500D01*
X50924300Y-39420600D02*
X50924300Y-39993500D01*
X72077300Y-40387600D02*
X72344200Y-40654500D01*
X46366700Y-33600400D02*
X47295800Y-34529500D01*
X53586400Y-37138800D02*
X53586400Y-37998600D01*
X42260000Y-87120000D02*
X45861700Y-83518300D01*
X51318400Y-40387600D02*
X72077300Y-40387600D01*
X74518300Y-70541900D02*
X72659700Y-72400500D01*
X67692100Y-75198400D02*
X45861700Y-75198400D01*
X70490000Y-72400500D02*
X67692100Y-75198400D01*
X44165000Y-73785000D02*
X44800000Y-73785000D01*
X46366700Y-31638300D02*
X46366700Y-33600400D01*
X39720000Y-69340000D02*
X44165000Y-73785000D01*
X45861700Y-74846700D02*
X44800000Y-73785000D01*
X52601500Y-38983500D02*
X51361400Y-38983500D01*
%TO.N,Net-(Q57-S)*%
X51478300Y-29066700D02*
X47400000Y-33145000D01*
X52480000Y-28065000D02*
X51478300Y-28065000D01*
X51478300Y-28065000D02*
X51478300Y-29066700D01*
%TO.N,Net-(Q92-S)*%
X74402200Y-50075500D02*
X74748800Y-50075500D01*
X70440000Y-47115000D02*
X71441700Y-47115000D01*
X71441700Y-47115000D02*
X74402200Y-50075500D01*
%TO.N,BON2*%
X71075000Y-42670000D02*
X70440000Y-42670000D01*
X75520000Y-47115000D02*
X71075000Y-42670000D01*
%TO.N,OIN*%
X51210000Y-77595000D02*
X52480000Y-77595000D01*
X52445700Y-39708900D02*
X51605400Y-39708900D01*
X57620000Y-33780000D02*
X54078300Y-37321700D01*
X54078300Y-38076300D02*
X52445700Y-39708900D01*
X47400000Y-81405000D02*
X51210000Y-77595000D01*
X54078300Y-37321700D02*
X54078300Y-38076300D01*
%TO.N,Net-(Q88-S)*%
X70440000Y-20445000D02*
X71441700Y-20445000D01*
X71441700Y-20445000D02*
X72499600Y-19387100D01*
X72499600Y-19387100D02*
X73339300Y-19387100D01*
X73339300Y-19387100D02*
X74250000Y-20297800D01*
X74250000Y-24255000D02*
X75520000Y-25525000D01*
X74250000Y-20297800D02*
X74250000Y-24255000D01*
%TO.N,DA2_2*%
X20490000Y-16000000D02*
X21760000Y-16000000D01*
X16680000Y-19810000D02*
X20490000Y-16000000D01*
%TO.N,Net-(Q30-S)*%
X24360000Y-68705000D02*
X25361700Y-68705000D01*
X25361700Y-69706700D02*
X29440000Y-73785000D01*
X25361700Y-68705000D02*
X25361700Y-69706700D01*
%TO.N,BA*%
X66510000Y-7500000D02*
X63060500Y-10949500D01*
X63060500Y-10949500D02*
X33517900Y-10949500D01*
%TO.N,Net-(Q54-S)*%
X40721700Y-88121700D02*
X44800000Y-92200000D01*
X40721700Y-87120000D02*
X40721700Y-88121700D01*
X39720000Y-87120000D02*
X40721700Y-87120000D01*
%TO.N,DB2_2*%
X38622100Y-54502900D02*
X38622100Y-29162900D01*
X37120000Y-56005000D02*
X38622100Y-54502900D01*
X35850000Y-56005000D02*
X37120000Y-56005000D01*
X32040000Y-59815000D02*
X35850000Y-56005000D01*
X38622100Y-29162900D02*
X42260000Y-25525000D01*
%TO.N,OUT2_dn*%
X60160000Y-60450000D02*
X55715000Y-56005000D01*
X55715000Y-56005000D02*
X55080000Y-56005000D01*
%TO.N,PH1*%
X45807700Y-63997700D02*
X45807700Y-66558200D01*
X56558300Y-74846700D02*
X57620000Y-73785000D01*
X41464600Y-66341400D02*
X41681400Y-66558200D01*
X7917200Y-50506900D02*
X7917200Y-51718300D01*
X19220000Y-78230000D02*
X18167000Y-79283000D01*
X45807700Y-66558200D02*
X45861000Y-66611500D01*
X10535000Y-54336100D02*
X11923900Y-54336100D01*
X12810100Y-55222300D02*
X12810100Y-55602900D01*
X12810100Y-55602900D02*
X17054700Y-59847500D01*
X45861000Y-66611500D02*
X45861000Y-73039700D01*
X45861000Y-73039700D02*
X47668000Y-74846700D01*
X9635000Y-24255000D02*
X9000000Y-24255000D01*
X11923900Y-54336100D02*
X12810100Y-55222300D01*
X47668000Y-74846700D02*
X56558300Y-74846700D01*
X40764500Y-66341400D02*
X41464600Y-66341400D01*
X7917200Y-51718300D02*
X10535000Y-54336100D01*
X40574200Y-66531700D02*
X40764500Y-66341400D01*
X11540000Y-47115000D02*
X11309100Y-47115000D01*
X17054700Y-59847500D02*
X22017700Y-59847500D01*
X28568100Y-66531700D02*
X40574200Y-66531700D01*
X14080000Y-28700000D02*
X9635000Y-24255000D01*
X18167000Y-79283000D02*
X16277100Y-79283000D01*
X11309100Y-47115000D02*
X7917200Y-50506900D01*
X41681400Y-66558200D02*
X45807700Y-66558200D01*
X15148700Y-78154600D02*
X15148700Y-63277000D01*
X15148700Y-63277000D02*
X10535000Y-58663300D01*
X22017700Y-59847500D02*
X23085000Y-60914800D01*
X42260000Y-60450000D02*
X45807700Y-63997700D01*
X16277100Y-79283000D02*
X15148700Y-78154600D01*
X23085000Y-61048600D02*
X28568100Y-66531700D01*
X23085000Y-60914800D02*
X23085000Y-61048600D01*
X10535000Y-58663300D02*
X10535000Y-54336100D01*
%TO.N,A2_m2*%
X20490000Y-82675000D02*
X21760000Y-82675000D01*
X16680000Y-86485000D02*
X20490000Y-82675000D01*
%TO.N,Net-(Q11-S)*%
X21760000Y-19810000D02*
X20758300Y-19810000D01*
X20758300Y-20811700D02*
X16680000Y-24890000D01*
X20758300Y-19810000D02*
X20758300Y-20811700D01*
%TO.N,A2_sb*%
X29440000Y-68705000D02*
X24995000Y-64260000D01*
X32508500Y-30386700D02*
X34580000Y-28315200D01*
X24995000Y-64260000D02*
X24360000Y-64260000D01*
X26810000Y-35294000D02*
X28438300Y-33665700D01*
X28438300Y-33364200D02*
X31415800Y-30386700D01*
X28438300Y-33665700D02*
X28438300Y-33364200D01*
X31415800Y-30386700D02*
X32508500Y-30386700D01*
X34580000Y-28315200D02*
X34580000Y-24890000D01*
%TO.N,Net-(Q34-S)*%
X37120000Y-19810000D02*
X36118300Y-19810000D01*
X36118300Y-20811700D02*
X32040000Y-24890000D01*
X36118300Y-19810000D02*
X36118300Y-20811700D01*
%TO.N,A2_dn*%
X16680000Y-64895000D02*
X20490000Y-61085000D01*
X20490000Y-61085000D02*
X21760000Y-61085000D01*
%TO.N,Net-(Q21-S)*%
X21760000Y-86485000D02*
X20758300Y-86485000D01*
X20758300Y-86485000D02*
X20758300Y-87486700D01*
X20758300Y-87486700D02*
X16680000Y-91565000D01*
%TO.N,B2_m2*%
X46212700Y-61862700D02*
X46212700Y-69408500D01*
X40355000Y-56005000D02*
X44800000Y-60450000D01*
X46212700Y-69408500D02*
X47218000Y-70413800D01*
X39720000Y-56005000D02*
X40355000Y-56005000D01*
X44800000Y-60450000D02*
X46212700Y-61862700D01*
%TO.N,OUT2_mqi*%
X66570000Y-42670000D02*
X67840000Y-42670000D01*
X62760000Y-46480000D02*
X66570000Y-42670000D01*
%TO.N,Net-(Q77-S)*%
X66838300Y-20811700D02*
X62760000Y-24890000D01*
X66838300Y-19810000D02*
X66838300Y-20811700D01*
X67840000Y-19810000D02*
X66838300Y-19810000D01*
%TO.N,Net-(Q16-S)*%
X20758300Y-52561700D02*
X16680000Y-56640000D01*
X21760000Y-51560000D02*
X20758300Y-51560000D01*
X20758300Y-51560000D02*
X20758300Y-52561700D01*
%TO.N,Net-(Q68-S)*%
X58643000Y-34754700D02*
X56605600Y-36792100D01*
X56605600Y-39308400D02*
X57195400Y-39898200D01*
X59121800Y-39898200D02*
X60160000Y-38860000D01*
X55080000Y-33780000D02*
X56081700Y-33780000D01*
X57087400Y-32774300D02*
X58058400Y-32774300D01*
X57195400Y-39898200D02*
X59121800Y-39898200D01*
X58058400Y-32774300D02*
X58643000Y-33358900D01*
X58643000Y-33358900D02*
X58643000Y-34754700D01*
X56605600Y-36792100D02*
X56605600Y-39308400D01*
X56081700Y-33780000D02*
X57087400Y-32774300D01*
%TO.N,Net-(Q25-S)*%
X25361700Y-34781700D02*
X29440000Y-38860000D01*
X24360000Y-33780000D02*
X25361700Y-33780000D01*
X25361700Y-33780000D02*
X25361700Y-34781700D01*
%TO.N,Net-(Q50-S)*%
X40721700Y-61451700D02*
X44800000Y-65530000D01*
X39720000Y-60450000D02*
X40721700Y-60450000D01*
X40721700Y-60450000D02*
X40721700Y-61451700D01*
%TO.N,Net-(Q15-S)*%
X16680000Y-51560000D02*
X20758300Y-47481700D01*
X21760000Y-46480000D02*
X20758300Y-46480000D01*
X20758300Y-47481700D02*
X20758300Y-46480000D01*
%TO.N,DA2_1*%
X14250200Y-52303200D02*
X13372100Y-52303200D01*
X14080000Y-76960000D02*
X9635000Y-72515000D01*
X19220000Y-46480000D02*
X19220000Y-47333400D01*
X11250100Y-61737900D02*
X10491200Y-62496800D01*
X19220000Y-47333400D02*
X14250200Y-52303200D01*
X10491200Y-62496800D02*
X10491200Y-71658800D01*
X10491200Y-71658800D02*
X9635000Y-72515000D01*
X13372100Y-52303200D02*
X12879100Y-52796200D01*
X9635000Y-72515000D02*
X9000000Y-72515000D01*
%TD*%
M02*
