%TF.GenerationSoftware,KiCad,Pcbnew,10.0.5*%
%TF.CreationDate,2026-09-14T00:26:45-04:00*%
%TF.ProjectId,sequencer,73657175-656e-4636-9572-2e6b69636164,rev?*%
%TF.SameCoordinates,Original*%
%TF.FileFunction,Soldermask,Top*%
%TF.FilePolarity,Negative*%
%FSLAX46Y46*%
G04 Gerber Fmt 4.6, Leading zero omitted, Abs format (unit mm)*
G04 Created by KiCad (PCBNEW 10.0.5) date 2026-09-14 00:26:45*
%MOMM*%
%LPD*%
G01*
G04 APERTURE LIST*
G04 Aperture macros list*
%AMRoundRect*
0 Rectangle with rounded corners*
0 $1 Rounding radius*
0 $2 $3 $4 $5 $6 $7 $8 $9 X,Y pos of 4 corners*
0 Add a 4 corners polygon primitive as box body*
4,1,4,$2,$3,$4,$5,$6,$7,$8,$9,$2,$3,0*
0 Add four circle primitives for the rounded corners*
1,1,$1+$1,$2,$3*
1,1,$1+$1,$4,$5*
1,1,$1+$1,$6,$7*
1,1,$1+$1,$8,$9*
0 Add four rect primitives between the rounded corners*
20,1,$1+$1,$2,$3,$4,$5,0*
20,1,$1+$1,$4,$5,$6,$7,0*
20,1,$1+$1,$6,$7,$8,$9,0*
20,1,$1+$1,$8,$9,$2,$3,0*%
G04 Aperture macros list end*
%ADD10RoundRect,0.250000X-0.550000X0.550000X-0.550000X-0.550000X0.550000X-0.550000X0.550000X0.550000X0*%
%ADD11C,1.600000*%
%ADD12R,1.500000X1.500000*%
%ADD13C,1.500000*%
%ADD14C,6.400000*%
%ADD15R,1.800000X1.800000*%
%ADD16C,1.800000*%
%ADD17RoundRect,0.250000X0.600000X-0.600000X0.600000X0.600000X-0.600000X0.600000X-0.600000X-0.600000X0*%
%ADD18C,1.700000*%
%ADD19RoundRect,0.250000X0.550000X-0.550000X0.550000X0.550000X-0.550000X0.550000X-0.550000X-0.550000X0*%
G04 APERTURE END LIST*
D10*
%TO.C,D698*%
X187470000Y-61560000D03*
D11*
X187470000Y-64100000D03*
%TD*%
D10*
%TO.C,D1016*%
X223030000Y-41240000D03*
D11*
X223030000Y-43780000D03*
%TD*%
D10*
%TO.C,D750*%
X192550000Y-92040000D03*
D11*
X192550000Y-94580000D03*
%TD*%
D10*
%TO.C,D387*%
X151910000Y-117440000D03*
D11*
X151910000Y-119980000D03*
%TD*%
D10*
%TO.C,D862*%
X205250000Y-76800000D03*
D11*
X205250000Y-79340000D03*
%TD*%
D12*
%TO.C,Q488*%
X196160000Y-175160000D03*
D13*
X198700000Y-175160000D03*
X201240000Y-175160000D03*
%TD*%
D12*
%TO.C,Q131*%
X37120000Y-106170000D03*
D13*
X34580000Y-106170000D03*
X32040000Y-106170000D03*
%TD*%
D10*
%TO.C,D1015*%
X223030000Y-36160000D03*
D11*
X223030000Y-38700000D03*
%TD*%
D12*
%TO.C,Q553*%
X83200000Y-241170000D03*
D13*
X80660000Y-241170000D03*
X78120000Y-241170000D03*
%TD*%
D12*
%TO.C,Q341*%
X196160000Y-228500000D03*
D13*
X198700000Y-228500000D03*
X201240000Y-228500000D03*
%TD*%
D12*
%TO.C,Q353*%
X211520000Y-230405000D03*
D13*
X214060000Y-230405000D03*
X216600000Y-230405000D03*
%TD*%
D10*
%TO.C,D86*%
X118890000Y-107280000D03*
D11*
X118890000Y-109820000D03*
%TD*%
D10*
%TO.C,D385*%
X151910000Y-107280000D03*
D11*
X151910000Y-109820000D03*
%TD*%
D10*
%TO.C,D408*%
X154450000Y-107280000D03*
D11*
X154450000Y-109820000D03*
%TD*%
%TO.C,R240*%
X119360000Y-170715000D03*
X124440000Y-170715000D03*
%TD*%
D10*
%TO.C,D793*%
X197630000Y-76800000D03*
D11*
X197630000Y-79340000D03*
%TD*%
%TO.C,R131*%
X47400000Y-104265000D03*
X52480000Y-104265000D03*
%TD*%
D10*
%TO.C,D337*%
X146830000Y-97120000D03*
D11*
X146830000Y-99660000D03*
%TD*%
D10*
%TO.C,D642*%
X179850000Y-127600000D03*
D11*
X179850000Y-130140000D03*
%TD*%
D12*
%TO.C,Q147*%
X37120000Y-216025000D03*
D13*
X34580000Y-216025000D03*
X32040000Y-216025000D03*
%TD*%
D12*
%TO.C,Q73*%
X21760000Y-153160000D03*
D13*
X19220000Y-153160000D03*
X16680000Y-153160000D03*
%TD*%
D10*
%TO.C,D852*%
X205250000Y-26000000D03*
D11*
X205250000Y-28540000D03*
%TD*%
D12*
%TO.C,Q438*%
X134720000Y-198655000D03*
D13*
X137260000Y-198655000D03*
X139800000Y-198655000D03*
%TD*%
D10*
%TO.C,D292*%
X141750000Y-102200000D03*
D11*
X141750000Y-104740000D03*
%TD*%
D10*
%TO.C,D537*%
X169690000Y-61560000D03*
D11*
X169690000Y-64100000D03*
%TD*%
D10*
%TO.C,D914*%
X210330000Y-107280000D03*
D11*
X210330000Y-109820000D03*
%TD*%
D10*
%TO.C,D547*%
X169690000Y-112360000D03*
D11*
X169690000Y-114900000D03*
%TD*%
D10*
%TO.C,D591*%
X174770000Y-102200000D03*
D11*
X174770000Y-104740000D03*
%TD*%
D10*
%TO.C,D588*%
X174770000Y-86960000D03*
D11*
X174770000Y-89500000D03*
%TD*%
D12*
%TO.C,Q257*%
X104000000Y-211990000D03*
D13*
X106540000Y-211990000D03*
X109080000Y-211990000D03*
%TD*%
D11*
%TO.C,R3*%
X227300000Y-36160000D03*
X232380000Y-36160000D03*
%TD*%
D12*
%TO.C,Q542*%
X85800000Y-28445000D03*
D13*
X88340000Y-28445000D03*
X90880000Y-28445000D03*
%TD*%
D10*
%TO.C,D145*%
X126510000Y-56480000D03*
D11*
X126510000Y-59020000D03*
%TD*%
D10*
%TO.C,D155*%
X126510000Y-107280000D03*
D11*
X126510000Y-109820000D03*
%TD*%
D12*
%TO.C,Q236*%
X55080000Y-123950000D03*
D13*
X57620000Y-123950000D03*
X60160000Y-123950000D03*
%TD*%
D10*
%TO.C,D866*%
X205250000Y-97120000D03*
D11*
X205250000Y-99660000D03*
%TD*%
D12*
%TO.C,Q24*%
X9000000Y-55370000D03*
D13*
X11540000Y-55370000D03*
X14080000Y-55370000D03*
%TD*%
D10*
%TO.C,D632*%
X179850000Y-76800000D03*
D11*
X179850000Y-79340000D03*
%TD*%
D10*
%TO.C,D950*%
X215410000Y-56480000D03*
D11*
X215410000Y-59020000D03*
%TD*%
D10*
%TO.C,D676*%
X184930000Y-66640000D03*
D11*
X184930000Y-69180000D03*
%TD*%
D12*
%TO.C,Q521*%
X98560000Y-85595000D03*
D13*
X96020000Y-85595000D03*
X93480000Y-85595000D03*
%TD*%
D10*
%TO.C,D358*%
X149370000Y-86960000D03*
D11*
X149370000Y-89500000D03*
%TD*%
D12*
%TO.C,Q343*%
X196160000Y-241835000D03*
D13*
X198700000Y-241835000D03*
X201240000Y-241835000D03*
%TD*%
D10*
%TO.C,D865*%
X205250000Y-92040000D03*
D11*
X205250000Y-94580000D03*
%TD*%
D10*
%TO.C,D832*%
X202710000Y-41240000D03*
D11*
X202710000Y-43780000D03*
%TD*%
D12*
%TO.C,Q119*%
X37120000Y-19810000D03*
D13*
X34580000Y-19810000D03*
X32040000Y-19810000D03*
%TD*%
D11*
%TO.C,R52*%
X16680000Y-16000000D03*
X21760000Y-16000000D03*
%TD*%
D14*
%TO.C,H4*%
X241000000Y-251000000D03*
%TD*%
D10*
%TO.C,D159*%
X126510000Y-127600000D03*
D11*
X126510000Y-130140000D03*
%TD*%
D10*
%TO.C,D603*%
X177310000Y-46320000D03*
D11*
X177310000Y-48860000D03*
%TD*%
D12*
%TO.C,Q452*%
X150080000Y-175160000D03*
D13*
X152620000Y-175160000D03*
X155160000Y-175160000D03*
%TD*%
D12*
%TO.C,Q482*%
X193560000Y-174525000D03*
D13*
X191020000Y-174525000D03*
X188480000Y-174525000D03*
%TD*%
D10*
%TO.C,D837*%
X202710000Y-66640000D03*
D11*
X202710000Y-69180000D03*
%TD*%
D10*
%TO.C,D201*%
X131590000Y-107280000D03*
D11*
X131590000Y-109820000D03*
%TD*%
%TO.C,R215*%
X219200000Y-178970000D03*
X224280000Y-178970000D03*
%TD*%
D10*
%TO.C,D250*%
X136670000Y-122520000D03*
D11*
X136670000Y-125060000D03*
%TD*%
D10*
%TO.C,D256*%
X139210000Y-36160000D03*
D11*
X139210000Y-38700000D03*
%TD*%
D10*
%TO.C,D468*%
X162070000Y-61560000D03*
D11*
X162070000Y-64100000D03*
%TD*%
%TO.C,R321*%
X85800000Y-48765000D03*
X90880000Y-48765000D03*
%TD*%
D10*
%TO.C,D622*%
X179850000Y-26000000D03*
D11*
X179850000Y-28540000D03*
%TD*%
%TO.C,R315*%
X85800000Y-32255000D03*
X90880000Y-32255000D03*
%TD*%
%TO.C,R138*%
X47400000Y-197610000D03*
X52480000Y-197610000D03*
%TD*%
D10*
%TO.C,D695*%
X187470000Y-46320000D03*
D11*
X187470000Y-48860000D03*
%TD*%
D10*
%TO.C,D178*%
X129050000Y-107280000D03*
D11*
X129050000Y-109820000D03*
%TD*%
D10*
%TO.C,D32*%
X113810000Y-66640000D03*
D11*
X113810000Y-69180000D03*
%TD*%
D10*
%TO.C,D990*%
X220490000Y-26000000D03*
D11*
X220490000Y-28540000D03*
%TD*%
D10*
%TO.C,D943*%
X212870000Y-137760000D03*
D11*
X212870000Y-140300000D03*
%TD*%
%TO.C,R147*%
X55080000Y-96010000D03*
X60160000Y-96010000D03*
%TD*%
D10*
%TO.C,D592*%
X174770000Y-107280000D03*
D11*
X174770000Y-109820000D03*
%TD*%
D12*
%TO.C,Q18*%
X226880000Y-241835000D03*
D13*
X229420000Y-241835000D03*
X231960000Y-241835000D03*
%TD*%
D10*
%TO.C,D969*%
X217950000Y-36160000D03*
D11*
X217950000Y-38700000D03*
%TD*%
D10*
%TO.C,D330*%
X146830000Y-61560000D03*
D11*
X146830000Y-64100000D03*
%TD*%
D12*
%TO.C,Q220*%
X55080000Y-20445000D03*
D13*
X57620000Y-20445000D03*
X60160000Y-20445000D03*
%TD*%
D11*
%TO.C,R133*%
X47400000Y-130935000D03*
X52480000Y-130935000D03*
%TD*%
%TO.C,R38*%
X9000000Y-64260000D03*
X14080000Y-64260000D03*
%TD*%
D10*
%TO.C,D683*%
X184930000Y-102200000D03*
D11*
X184930000Y-104740000D03*
%TD*%
D12*
%TO.C,Q100*%
X24360000Y-118870000D03*
D13*
X26900000Y-118870000D03*
X29440000Y-118870000D03*
%TD*%
D10*
%TO.C,D689*%
X184930000Y-132680000D03*
D11*
X184930000Y-135220000D03*
%TD*%
D10*
%TO.C,D140*%
X126510000Y-31080000D03*
D11*
X126510000Y-33620000D03*
%TD*%
D10*
%TO.C,D610*%
X177310000Y-81880000D03*
D11*
X177310000Y-84420000D03*
%TD*%
%TO.C,R135*%
X47400000Y-157605000D03*
X52480000Y-157605000D03*
%TD*%
%TO.C,R199*%
X188480000Y-192305000D03*
X193560000Y-192305000D03*
%TD*%
D10*
%TO.C,D132*%
X123970000Y-107280000D03*
D11*
X123970000Y-109820000D03*
%TD*%
D10*
%TO.C,D13*%
X111270000Y-86960000D03*
D11*
X111270000Y-89500000D03*
%TD*%
D12*
%TO.C,Q84*%
X21760000Y-228090000D03*
D13*
X19220000Y-228090000D03*
X16680000Y-228090000D03*
%TD*%
D12*
%TO.C,Q299*%
X162840000Y-196115000D03*
D13*
X160300000Y-196115000D03*
X157760000Y-196115000D03*
%TD*%
D10*
%TO.C,D198*%
X131590000Y-92040000D03*
D11*
X131590000Y-94580000D03*
%TD*%
D10*
%TO.C,D174*%
X129050000Y-86960000D03*
D11*
X129050000Y-89500000D03*
%TD*%
D12*
%TO.C,Q538*%
X83200000Y-44320000D03*
D13*
X80660000Y-44320000D03*
X78120000Y-44320000D03*
%TD*%
D10*
%TO.C,D116*%
X123970000Y-26000000D03*
D11*
X123970000Y-28540000D03*
%TD*%
D10*
%TO.C,D436*%
X156990000Y-132680000D03*
D11*
X156990000Y-135220000D03*
%TD*%
D10*
%TO.C,D402*%
X154450000Y-76800000D03*
D11*
X154450000Y-79340000D03*
%TD*%
D10*
%TO.C,D910*%
X210330000Y-86960000D03*
D11*
X210330000Y-89500000D03*
%TD*%
D10*
%TO.C,D815*%
X200170000Y-71720000D03*
D11*
X200170000Y-74260000D03*
%TD*%
D10*
%TO.C,D104*%
X121430000Y-81880000D03*
D11*
X121430000Y-84420000D03*
%TD*%
D12*
%TO.C,Q377*%
X67840000Y-163700000D03*
D13*
X65300000Y-163700000D03*
X62760000Y-163700000D03*
%TD*%
D12*
%TO.C,Q535*%
X98560000Y-143380000D03*
D13*
X96020000Y-143380000D03*
X93480000Y-143380000D03*
%TD*%
D10*
%TO.C,D680*%
X184930000Y-86960000D03*
D11*
X184930000Y-89500000D03*
%TD*%
%TO.C,R339*%
X70440000Y-134490000D03*
X75520000Y-134490000D03*
%TD*%
D10*
%TO.C,D819*%
X200170000Y-92040000D03*
D11*
X200170000Y-94580000D03*
%TD*%
D10*
%TO.C,D703*%
X187470000Y-86960000D03*
D11*
X187470000Y-89500000D03*
%TD*%
D12*
%TO.C,Q424*%
X132120000Y-166270000D03*
D13*
X129580000Y-166270000D03*
X127040000Y-166270000D03*
%TD*%
D10*
%TO.C,D1014*%
X223030000Y-31080000D03*
D11*
X223030000Y-33620000D03*
%TD*%
D10*
%TO.C,D127*%
X123970000Y-81880000D03*
D11*
X123970000Y-84420000D03*
%TD*%
D10*
%TO.C,D133*%
X123970000Y-112360000D03*
D11*
X123970000Y-114900000D03*
%TD*%
D12*
%TO.C,Q273*%
X132120000Y-211355000D03*
D13*
X129580000Y-211355000D03*
X127040000Y-211355000D03*
%TD*%
D10*
%TO.C,D984*%
X217950000Y-112360000D03*
D11*
X217950000Y-114900000D03*
%TD*%
D12*
%TO.C,Q192*%
X52480000Y-54735000D03*
D13*
X49940000Y-54735000D03*
X47400000Y-54735000D03*
%TD*%
D12*
%TO.C,Q170*%
X39720000Y-140460000D03*
D13*
X42260000Y-140460000D03*
X44800000Y-140460000D03*
%TD*%
D12*
%TO.C,Q289*%
X147480000Y-238025000D03*
D13*
X144940000Y-238025000D03*
X142400000Y-238025000D03*
%TD*%
D10*
%TO.C,D343*%
X146830000Y-127600000D03*
D11*
X146830000Y-130140000D03*
%TD*%
D10*
%TO.C,D650*%
X182390000Y-51400000D03*
D11*
X182390000Y-53940000D03*
%TD*%
D10*
%TO.C,D745*%
X192550000Y-66640000D03*
D11*
X192550000Y-69180000D03*
%TD*%
D12*
%TO.C,Q399*%
X104000000Y-180240000D03*
D13*
X106540000Y-180240000D03*
X109080000Y-180240000D03*
%TD*%
D10*
%TO.C,D36*%
X113810000Y-86960000D03*
D11*
X113810000Y-89500000D03*
%TD*%
%TO.C,R127*%
X47400000Y-50925000D03*
X52480000Y-50925000D03*
%TD*%
D10*
%TO.C,D499*%
X164610000Y-102200000D03*
D11*
X164610000Y-104740000D03*
%TD*%
D10*
%TO.C,D452*%
X159530000Y-97120000D03*
D11*
X159530000Y-99660000D03*
%TD*%
D10*
%TO.C,D939*%
X212870000Y-117440000D03*
D11*
X212870000Y-119980000D03*
%TD*%
D10*
%TO.C,D549*%
X169690000Y-122520000D03*
D11*
X169690000Y-125060000D03*
%TD*%
D10*
%TO.C,D872*%
X205250000Y-127600000D03*
D11*
X205250000Y-130140000D03*
%TD*%
D12*
%TO.C,Q568*%
X85800000Y-166240000D03*
D13*
X88340000Y-166240000D03*
X90880000Y-166240000D03*
%TD*%
D10*
%TO.C,D226*%
X134130000Y-117440000D03*
D11*
X134130000Y-119980000D03*
%TD*%
D10*
%TO.C,D237*%
X136670000Y-56480000D03*
D11*
X136670000Y-59020000D03*
%TD*%
D15*
%TO.C,D1046*%
X80660000Y-63370000D03*
D16*
X80660000Y-60830000D03*
%TD*%
D11*
%TO.C,R129*%
X47400000Y-82675000D03*
X52480000Y-82675000D03*
%TD*%
D12*
%TO.C,Q60*%
X21760000Y-68070000D03*
D13*
X19220000Y-68070000D03*
X16680000Y-68070000D03*
%TD*%
D11*
%TO.C,R232*%
X70440000Y-70355000D03*
X75520000Y-70355000D03*
%TD*%
%TO.C,R96*%
X32040000Y-115695000D03*
X37120000Y-115695000D03*
%TD*%
D12*
%TO.C,Q543*%
X98560000Y-176400000D03*
D13*
X96020000Y-176400000D03*
X93480000Y-176400000D03*
%TD*%
D12*
%TO.C,Q223*%
X55080000Y-38860000D03*
D13*
X57620000Y-38860000D03*
X60160000Y-38860000D03*
%TD*%
D10*
%TO.C,D151*%
X126510000Y-86960000D03*
D11*
X126510000Y-89500000D03*
%TD*%
D10*
%TO.C,D81*%
X118890000Y-81880000D03*
D11*
X118890000Y-84420000D03*
%TD*%
%TO.C,R92*%
X32040000Y-72515000D03*
X37120000Y-72515000D03*
%TD*%
D10*
%TO.C,D467*%
X162070000Y-56480000D03*
D11*
X162070000Y-59020000D03*
%TD*%
D10*
%TO.C,D697*%
X187470000Y-56480000D03*
D11*
X187470000Y-59020000D03*
%TD*%
D12*
%TO.C,Q354*%
X211520000Y-238660000D03*
D13*
X214060000Y-238660000D03*
X216600000Y-238660000D03*
%TD*%
D12*
%TO.C,Q563*%
X85800000Y-131315000D03*
D13*
X88340000Y-131315000D03*
X90880000Y-131315000D03*
%TD*%
D12*
%TO.C,Q305*%
X162840000Y-236120000D03*
D13*
X160300000Y-236120000D03*
X157760000Y-236120000D03*
%TD*%
D10*
%TO.C,D541*%
X169690000Y-81880000D03*
D11*
X169690000Y-84420000D03*
%TD*%
D12*
%TO.C,Q56*%
X21760000Y-41400000D03*
D13*
X19220000Y-41400000D03*
X16680000Y-41400000D03*
%TD*%
D12*
%TO.C,Q293*%
X150080000Y-210085000D03*
D13*
X152620000Y-210085000D03*
X155160000Y-210085000D03*
%TD*%
D12*
%TO.C,Q208*%
X52480000Y-161415000D03*
D13*
X49940000Y-161415000D03*
X47400000Y-161415000D03*
%TD*%
D11*
%TO.C,R121*%
X39720000Y-202690000D03*
X44800000Y-202690000D03*
%TD*%
D10*
%TO.C,D466*%
X162070000Y-51400000D03*
D11*
X162070000Y-53940000D03*
%TD*%
D10*
%TO.C,D563*%
X172230000Y-76800000D03*
D11*
X172230000Y-79340000D03*
%TD*%
D12*
%TO.C,Q111*%
X24360000Y-193800000D03*
D13*
X26900000Y-193800000D03*
X29440000Y-193800000D03*
%TD*%
D10*
%TO.C,D884*%
X207790000Y-71720000D03*
D11*
X207790000Y-74260000D03*
%TD*%
D12*
%TO.C,Q153*%
X39720000Y-25525000D03*
D13*
X42260000Y-25525000D03*
X44800000Y-25525000D03*
%TD*%
D12*
%TO.C,Q33*%
X9000000Y-116965000D03*
D13*
X11540000Y-116965000D03*
X14080000Y-116965000D03*
%TD*%
D12*
%TO.C,Q496*%
X208920000Y-187860000D03*
D13*
X206380000Y-187860000D03*
X203840000Y-187860000D03*
%TD*%
D10*
%TO.C,D297*%
X141750000Y-127600000D03*
D11*
X141750000Y-130140000D03*
%TD*%
D10*
%TO.C,D762*%
X195090000Y-36160000D03*
D11*
X195090000Y-38700000D03*
%TD*%
D10*
%TO.C,D115*%
X121430000Y-137760000D03*
D11*
X121430000Y-140300000D03*
%TD*%
%TO.C,R228*%
X62760000Y-213230000D03*
X67840000Y-213230000D03*
%TD*%
D10*
%TO.C,D917*%
X210330000Y-122520000D03*
D11*
X210330000Y-125060000D03*
%TD*%
D10*
%TO.C,D528*%
X167150000Y-132680000D03*
D11*
X167150000Y-135220000D03*
%TD*%
%TO.C,R282*%
X93480000Y-40510000D03*
X98560000Y-40510000D03*
%TD*%
D10*
%TO.C,D503*%
X164610000Y-122520000D03*
D11*
X164610000Y-125060000D03*
%TD*%
%TO.C,R25*%
X78120000Y-202435000D03*
X83200000Y-202435000D03*
%TD*%
%TO.C,R165*%
X111680000Y-234215000D03*
X116760000Y-234215000D03*
%TD*%
D10*
%TO.C,D891*%
X207790000Y-107280000D03*
D11*
X207790000Y-109820000D03*
%TD*%
D10*
%TO.C,D286*%
X141750000Y-71720000D03*
D11*
X141750000Y-74260000D03*
%TD*%
D15*
%TO.C,D1047*%
X80660000Y-78610000D03*
D16*
X80660000Y-76070000D03*
%TD*%
D10*
%TO.C,D582*%
X174770000Y-56480000D03*
D11*
X174770000Y-59020000D03*
%TD*%
D12*
%TO.C,Q4*%
X83200000Y-219580000D03*
D13*
X80660000Y-219580000D03*
X78120000Y-219580000D03*
%TD*%
D11*
%TO.C,R51*%
X9000000Y-237615000D03*
X14080000Y-237615000D03*
%TD*%
D10*
%TO.C,D190*%
X131590000Y-51400000D03*
D11*
X131590000Y-53940000D03*
%TD*%
D10*
%TO.C,D20*%
X111270000Y-122520000D03*
D11*
X111270000Y-125060000D03*
%TD*%
D10*
%TO.C,D572*%
X172230000Y-122520000D03*
D11*
X172230000Y-125060000D03*
%TD*%
D12*
%TO.C,Q517*%
X98560000Y-69085000D03*
D13*
X96020000Y-69085000D03*
X93480000Y-69085000D03*
%TD*%
D12*
%TO.C,Q14*%
X226880000Y-218340000D03*
D13*
X229420000Y-218340000D03*
X231960000Y-218340000D03*
%TD*%
D10*
%TO.C,D50*%
X116350000Y-41240000D03*
D11*
X116350000Y-43780000D03*
%TD*%
D10*
%TO.C,D460*%
X159530000Y-137760000D03*
D11*
X159530000Y-140300000D03*
%TD*%
D10*
%TO.C,D945*%
X215410000Y-31080000D03*
D11*
X215410000Y-33620000D03*
%TD*%
%TO.C,R252*%
X150080000Y-165635000D03*
X155160000Y-165635000D03*
%TD*%
%TO.C,R189*%
X173120000Y-192305000D03*
X178200000Y-192305000D03*
%TD*%
D12*
%TO.C,Q290*%
X147480000Y-243105000D03*
D13*
X144940000Y-243105000D03*
X142400000Y-243105000D03*
%TD*%
D10*
%TO.C,D447*%
X159530000Y-71720000D03*
D11*
X159530000Y-74260000D03*
%TD*%
%TO.C,R74*%
X24360000Y-82675000D03*
X29440000Y-82675000D03*
%TD*%
D12*
%TO.C,Q45*%
X9000000Y-196975000D03*
D13*
X11540000Y-196975000D03*
X14080000Y-196975000D03*
%TD*%
D10*
%TO.C,D829*%
X202710000Y-26000000D03*
D11*
X202710000Y-28540000D03*
%TD*%
D12*
%TO.C,Q112*%
X24360000Y-202055000D03*
D13*
X26900000Y-202055000D03*
X29440000Y-202055000D03*
%TD*%
D10*
%TO.C,D248*%
X136670000Y-112360000D03*
D11*
X136670000Y-114900000D03*
%TD*%
D10*
%TO.C,D696*%
X187470000Y-51400000D03*
D11*
X187470000Y-53940000D03*
%TD*%
D10*
%TO.C,D417*%
X156990000Y-36160000D03*
D11*
X156990000Y-38700000D03*
%TD*%
D12*
%TO.C,Q26*%
X9000000Y-68705000D03*
D13*
X11540000Y-68705000D03*
X14080000Y-68705000D03*
%TD*%
D10*
%TO.C,D654*%
X182390000Y-71720000D03*
D11*
X182390000Y-74260000D03*
%TD*%
D10*
%TO.C,D336*%
X146830000Y-92040000D03*
D11*
X146830000Y-94580000D03*
%TD*%
D10*
%TO.C,D215*%
X134130000Y-61560000D03*
D11*
X134130000Y-64100000D03*
%TD*%
D10*
%TO.C,D340*%
X146830000Y-112360000D03*
D11*
X146830000Y-114900000D03*
%TD*%
D10*
%TO.C,D964*%
X215410000Y-127600000D03*
D11*
X215410000Y-130140000D03*
%TD*%
D10*
%TO.C,D885*%
X207790000Y-76800000D03*
D11*
X207790000Y-79340000D03*
%TD*%
D10*
%TO.C,D469*%
X162070000Y-66640000D03*
D11*
X162070000Y-69180000D03*
%TD*%
D10*
%TO.C,D268*%
X139210000Y-97120000D03*
D11*
X139210000Y-99660000D03*
%TD*%
D10*
%TO.C,D437*%
X156990000Y-137760000D03*
D11*
X156990000Y-140300000D03*
%TD*%
D10*
%TO.C,D976*%
X217950000Y-71720000D03*
D11*
X217950000Y-74260000D03*
%TD*%
D10*
%TO.C,D767*%
X195090000Y-61560000D03*
D11*
X195090000Y-64100000D03*
%TD*%
D10*
%TO.C,D1002*%
X220490000Y-86960000D03*
D11*
X220490000Y-89500000D03*
%TD*%
%TO.C,R18*%
X227300000Y-112360000D03*
X232380000Y-112360000D03*
%TD*%
D10*
%TO.C,D64*%
X116350000Y-112360000D03*
D11*
X116350000Y-114900000D03*
%TD*%
D12*
%TO.C,Q471*%
X178200000Y-182780000D03*
D13*
X175660000Y-182780000D03*
X173120000Y-182780000D03*
%TD*%
D10*
%TO.C,D362*%
X149370000Y-107280000D03*
D11*
X149370000Y-109820000D03*
%TD*%
%TO.C,R97*%
X32040000Y-123950000D03*
X37120000Y-123950000D03*
%TD*%
%TO.C,R85*%
X24360000Y-219200000D03*
X29440000Y-219200000D03*
%TD*%
%TO.C,R79*%
X24360000Y-139190000D03*
X29440000Y-139190000D03*
%TD*%
D12*
%TO.C,Q70*%
X21760000Y-134745000D03*
D13*
X19220000Y-134745000D03*
X16680000Y-134745000D03*
%TD*%
D10*
%TO.C,D960*%
X215410000Y-107280000D03*
D11*
X215410000Y-109820000D03*
%TD*%
D10*
%TO.C,D544*%
X169690000Y-97120000D03*
D11*
X169690000Y-99660000D03*
%TD*%
D15*
%TO.C,D1036*%
X72980000Y-95120000D03*
D16*
X72980000Y-92580000D03*
%TD*%
D12*
%TO.C,Q238*%
X55080000Y-140460000D03*
D13*
X57620000Y-140460000D03*
X60160000Y-140460000D03*
%TD*%
D10*
%TO.C,D677*%
X184930000Y-71720000D03*
D11*
X184930000Y-74260000D03*
%TD*%
D10*
%TO.C,D484*%
X164610000Y-26000000D03*
D11*
X164610000Y-28540000D03*
%TD*%
D10*
%TO.C,D871*%
X205250000Y-122520000D03*
D11*
X205250000Y-125060000D03*
%TD*%
%TO.C,R115*%
X39720000Y-122680000D03*
X44800000Y-122680000D03*
%TD*%
D10*
%TO.C,D275*%
X139210000Y-132680000D03*
D11*
X139210000Y-135220000D03*
%TD*%
D12*
%TO.C,Q303*%
X162840000Y-222785000D03*
D13*
X160300000Y-222785000D03*
X157760000Y-222785000D03*
%TD*%
D12*
%TO.C,Q22*%
X9000000Y-42035000D03*
D13*
X11540000Y-42035000D03*
X14080000Y-42035000D03*
%TD*%
D10*
%TO.C,D19*%
X111270000Y-117440000D03*
D11*
X111270000Y-119980000D03*
%TD*%
D10*
%TO.C,D682*%
X184930000Y-97120000D03*
D11*
X184930000Y-99660000D03*
%TD*%
%TO.C,R322*%
X93480000Y-205610000D03*
X98560000Y-205610000D03*
%TD*%
D12*
%TO.C,Q309*%
X165440000Y-210085000D03*
D13*
X167980000Y-210085000D03*
X170520000Y-210085000D03*
%TD*%
D12*
%TO.C,Q337*%
X196160000Y-201830000D03*
D13*
X198700000Y-201830000D03*
X201240000Y-201830000D03*
%TD*%
D10*
%TO.C,D263*%
X139210000Y-71720000D03*
D11*
X139210000Y-74260000D03*
%TD*%
%TO.C,R211*%
X211520000Y-220880000D03*
X216600000Y-220880000D03*
%TD*%
D12*
%TO.C,Q105*%
X24360000Y-156970000D03*
D13*
X26900000Y-156970000D03*
X29440000Y-156970000D03*
%TD*%
D10*
%TO.C,D740*%
X192550000Y-41240000D03*
D11*
X192550000Y-43780000D03*
%TD*%
D10*
%TO.C,D60*%
X116350000Y-92040000D03*
D11*
X116350000Y-94580000D03*
%TD*%
D10*
%TO.C,D765*%
X195090000Y-51400000D03*
D11*
X195090000Y-53940000D03*
%TD*%
D12*
%TO.C,Q570*%
X85800000Y-179575000D03*
D13*
X88340000Y-179575000D03*
X90880000Y-179575000D03*
%TD*%
D10*
%TO.C,D14*%
X111270000Y-92040000D03*
D11*
X111270000Y-94580000D03*
%TD*%
%TO.C,R337*%
X70440000Y-104010000D03*
X75520000Y-104010000D03*
%TD*%
D10*
%TO.C,D589*%
X174770000Y-92040000D03*
D11*
X174770000Y-94580000D03*
%TD*%
D10*
%TO.C,D9*%
X111270000Y-66640000D03*
D11*
X111270000Y-69180000D03*
%TD*%
D12*
%TO.C,Q560*%
X85800000Y-112900000D03*
D13*
X88340000Y-112900000D03*
X90880000Y-112900000D03*
%TD*%
D10*
%TO.C,D101*%
X121430000Y-66640000D03*
D11*
X121430000Y-69180000D03*
%TD*%
D10*
%TO.C,D641*%
X179850000Y-122520000D03*
D11*
X179850000Y-125060000D03*
%TD*%
D10*
%TO.C,D523*%
X167150000Y-107280000D03*
D11*
X167150000Y-109820000D03*
%TD*%
%TO.C,R39*%
X9000000Y-82675000D03*
X14080000Y-82675000D03*
%TD*%
%TO.C,R286*%
X93480000Y-57020000D03*
X98560000Y-57020000D03*
%TD*%
D12*
%TO.C,Q232*%
X55080000Y-100455000D03*
D13*
X57620000Y-100455000D03*
X60160000Y-100455000D03*
%TD*%
D12*
%TO.C,Q151*%
X37120000Y-242695000D03*
D13*
X34580000Y-242695000D03*
X32040000Y-242695000D03*
%TD*%
D10*
%TO.C,D715*%
X190010000Y-31080000D03*
D11*
X190010000Y-33620000D03*
%TD*%
D10*
%TO.C,D516*%
X167150000Y-71720000D03*
D11*
X167150000Y-74260000D03*
%TD*%
D12*
%TO.C,Q295*%
X150080000Y-223420000D03*
D13*
X152620000Y-223420000D03*
X155160000Y-223420000D03*
%TD*%
D12*
%TO.C,Q17*%
X226880000Y-236755000D03*
D13*
X229420000Y-236755000D03*
X231960000Y-236755000D03*
%TD*%
D12*
%TO.C,Q38*%
X9000000Y-148715000D03*
D13*
X11540000Y-148715000D03*
X14080000Y-148715000D03*
%TD*%
D12*
%TO.C,Q248*%
X55080000Y-207135000D03*
D13*
X57620000Y-207135000D03*
X60160000Y-207135000D03*
%TD*%
D12*
%TO.C,Q296*%
X150080000Y-228500000D03*
D13*
X152620000Y-228500000D03*
X155160000Y-228500000D03*
%TD*%
D12*
%TO.C,Q330*%
X193560000Y-209450000D03*
D13*
X191020000Y-209450000D03*
X188480000Y-209450000D03*
%TD*%
D11*
%TO.C,R222*%
X62760000Y-138300000D03*
X67840000Y-138300000D03*
%TD*%
D12*
%TO.C,Q152*%
X39720000Y-20445000D03*
D13*
X42260000Y-20445000D03*
X44800000Y-20445000D03*
%TD*%
D12*
%TO.C,Q288*%
X147480000Y-229770000D03*
D13*
X144940000Y-229770000D03*
X142400000Y-229770000D03*
%TD*%
D11*
%TO.C,R182*%
X157760000Y-192305000D03*
X162840000Y-192305000D03*
%TD*%
D10*
%TO.C,D857*%
X205250000Y-51400000D03*
D11*
X205250000Y-53940000D03*
%TD*%
D10*
%TO.C,D638*%
X179850000Y-107280000D03*
D11*
X179850000Y-109820000D03*
%TD*%
D12*
%TO.C,Q161*%
X39720000Y-78865000D03*
D13*
X42260000Y-78865000D03*
X44800000Y-78865000D03*
%TD*%
D10*
%TO.C,D639*%
X179850000Y-112360000D03*
D11*
X179850000Y-114900000D03*
%TD*%
D10*
%TO.C,D982*%
X217950000Y-102200000D03*
D11*
X217950000Y-104740000D03*
%TD*%
D12*
%TO.C,Q458*%
X162840000Y-174525000D03*
D13*
X160300000Y-174525000D03*
X157760000Y-174525000D03*
%TD*%
D11*
%TO.C,R196*%
X180800000Y-208815000D03*
X185880000Y-208815000D03*
%TD*%
D10*
%TO.C,D994*%
X220490000Y-46320000D03*
D11*
X220490000Y-48860000D03*
%TD*%
D10*
%TO.C,D475*%
X162070000Y-97120000D03*
D11*
X162070000Y-99660000D03*
%TD*%
D12*
%TO.C,Q499*%
X211520000Y-161825000D03*
D13*
X214060000Y-161825000D03*
X216600000Y-161825000D03*
%TD*%
D10*
%TO.C,D176*%
X129050000Y-97120000D03*
D11*
X129050000Y-99660000D03*
%TD*%
D10*
%TO.C,D365*%
X149370000Y-122520000D03*
D11*
X149370000Y-125060000D03*
%TD*%
D12*
%TO.C,Q476*%
X180800000Y-175160000D03*
D13*
X183340000Y-175160000D03*
X185880000Y-175160000D03*
%TD*%
D11*
%TO.C,R86*%
X24360000Y-232535000D03*
X29440000Y-232535000D03*
%TD*%
D10*
%TO.C,D139*%
X126510000Y-26000000D03*
D11*
X126510000Y-28540000D03*
%TD*%
D10*
%TO.C,D658*%
X182390000Y-92040000D03*
D11*
X182390000Y-94580000D03*
%TD*%
D12*
%TO.C,Q455*%
X162840000Y-156110000D03*
D13*
X160300000Y-156110000D03*
X157760000Y-156110000D03*
%TD*%
D10*
%TO.C,D773*%
X195090000Y-92040000D03*
D11*
X195090000Y-94580000D03*
%TD*%
D10*
%TO.C,D836*%
X202710000Y-61560000D03*
D11*
X202710000Y-64100000D03*
%TD*%
D10*
%TO.C,D266*%
X139210000Y-86960000D03*
D11*
X139210000Y-89500000D03*
%TD*%
D10*
%TO.C,D1001*%
X220490000Y-81880000D03*
D11*
X220490000Y-84420000D03*
%TD*%
%TO.C,R168*%
X119360000Y-234215000D03*
X124440000Y-234215000D03*
%TD*%
D12*
%TO.C,Q397*%
X104000000Y-166905000D03*
D13*
X106540000Y-166905000D03*
X109080000Y-166905000D03*
%TD*%
D10*
%TO.C,D1024*%
X223030000Y-81880000D03*
D11*
X223030000Y-84420000D03*
%TD*%
D10*
%TO.C,D1013*%
X223030000Y-26000000D03*
D11*
X223030000Y-28540000D03*
%TD*%
%TO.C,R40*%
X9000000Y-90930000D03*
X14080000Y-90930000D03*
%TD*%
D10*
%TO.C,D44*%
X113810000Y-127600000D03*
D11*
X113810000Y-130140000D03*
%TD*%
D10*
%TO.C,D326*%
X146830000Y-41240000D03*
D11*
X146830000Y-43780000D03*
%TD*%
D10*
%TO.C,D758*%
X192550000Y-132680000D03*
D11*
X192550000Y-135220000D03*
%TD*%
%TO.C,R312*%
X93480000Y-164335000D03*
X98560000Y-164335000D03*
%TD*%
D12*
%TO.C,Q557*%
X85800000Y-91310000D03*
D13*
X88340000Y-91310000D03*
X90880000Y-91310000D03*
%TD*%
D12*
%TO.C,Q524*%
X67840000Y-93850000D03*
D13*
X65300000Y-93850000D03*
X62760000Y-93850000D03*
%TD*%
D12*
%TO.C,Q379*%
X67840000Y-177035000D03*
D13*
X65300000Y-177035000D03*
X62760000Y-177035000D03*
%TD*%
D10*
%TO.C,D432*%
X156990000Y-112360000D03*
D11*
X156990000Y-114900000D03*
%TD*%
D10*
%TO.C,D493*%
X164610000Y-71720000D03*
D11*
X164610000Y-74260000D03*
%TD*%
%TO.C,R256*%
X157760000Y-178970000D03*
X162840000Y-178970000D03*
%TD*%
D10*
%TO.C,D623*%
X179850000Y-31080000D03*
D11*
X179850000Y-33620000D03*
%TD*%
D12*
%TO.C,Q27*%
X9000000Y-73785000D03*
D13*
X11540000Y-73785000D03*
X14080000Y-73785000D03*
%TD*%
D10*
%TO.C,D972*%
X217950000Y-51400000D03*
D11*
X217950000Y-53940000D03*
%TD*%
D12*
%TO.C,Q564*%
X85800000Y-139570000D03*
D13*
X88340000Y-139570000D03*
X90880000Y-139570000D03*
%TD*%
D11*
%TO.C,R72*%
X24360000Y-56005000D03*
X29440000Y-56005000D03*
%TD*%
D12*
%TO.C,Q294*%
X150080000Y-215165000D03*
D13*
X152620000Y-215165000D03*
X155160000Y-215165000D03*
%TD*%
D12*
%TO.C,Q444*%
X147480000Y-179605000D03*
D13*
X144940000Y-179605000D03*
X142400000Y-179605000D03*
%TD*%
D10*
%TO.C,D925*%
X212870000Y-46320000D03*
D11*
X212870000Y-48860000D03*
%TD*%
D10*
%TO.C,D1034*%
X223030000Y-132680000D03*
D11*
X223030000Y-135220000D03*
%TD*%
D10*
%TO.C,D328*%
X146830000Y-51400000D03*
D11*
X146830000Y-53940000D03*
%TD*%
D10*
%TO.C,D787*%
X197630000Y-46320000D03*
D11*
X197630000Y-48860000D03*
%TD*%
D10*
%TO.C,D596*%
X174770000Y-127600000D03*
D11*
X174770000Y-130140000D03*
%TD*%
D10*
%TO.C,D539*%
X169690000Y-71720000D03*
D11*
X169690000Y-74260000D03*
%TD*%
D10*
%TO.C,D388*%
X151910000Y-122520000D03*
D11*
X151910000Y-125060000D03*
%TD*%
D12*
%TO.C,Q101*%
X24360000Y-127125000D03*
D13*
X26900000Y-127125000D03*
X29440000Y-127125000D03*
%TD*%
D10*
%TO.C,D617*%
X177310000Y-117440000D03*
D11*
X177310000Y-119980000D03*
%TD*%
D12*
%TO.C,Q89*%
X24360000Y-47115000D03*
D13*
X26900000Y-47115000D03*
X29440000Y-47115000D03*
%TD*%
D10*
%TO.C,D701*%
X187470000Y-76800000D03*
D11*
X187470000Y-79340000D03*
%TD*%
D10*
%TO.C,D940*%
X212870000Y-122520000D03*
D11*
X212870000Y-125060000D03*
%TD*%
D12*
%TO.C,Q491*%
X208920000Y-156110000D03*
D13*
X206380000Y-156110000D03*
X203840000Y-156110000D03*
%TD*%
D10*
%TO.C,D766*%
X195090000Y-56480000D03*
D11*
X195090000Y-59020000D03*
%TD*%
%TO.C,R42*%
X9000000Y-112520000D03*
X14080000Y-112520000D03*
%TD*%
%TO.C,R184*%
X157760000Y-218975000D03*
X162840000Y-218975000D03*
%TD*%
%TO.C,R305*%
X78120000Y-24000000D03*
X83200000Y-24000000D03*
%TD*%
D10*
%TO.C,D868*%
X205250000Y-107280000D03*
D11*
X205250000Y-109820000D03*
%TD*%
D14*
%TO.C,H3*%
X4000000Y-251000000D03*
%TD*%
D12*
%TO.C,Q240*%
X55080000Y-153795000D03*
D13*
X57620000Y-153795000D03*
X60160000Y-153795000D03*
%TD*%
D10*
%TO.C,D56*%
X116350000Y-71720000D03*
D11*
X116350000Y-74260000D03*
%TD*%
D10*
%TO.C,D668*%
X184930000Y-26000000D03*
D11*
X184930000Y-28540000D03*
%TD*%
D12*
%TO.C,Q209*%
X52480000Y-166495000D03*
D13*
X49940000Y-166495000D03*
X47400000Y-166495000D03*
%TD*%
D12*
%TO.C,Q575*%
X70440000Y-114805000D03*
D13*
X72980000Y-114805000D03*
X75520000Y-114805000D03*
%TD*%
D12*
%TO.C,Q559*%
X85800000Y-104645000D03*
D13*
X88340000Y-104645000D03*
X90880000Y-104645000D03*
%TD*%
D10*
%TO.C,D100*%
X121430000Y-61560000D03*
D11*
X121430000Y-64100000D03*
%TD*%
D10*
%TO.C,D228*%
X134130000Y-127600000D03*
D11*
X134130000Y-130140000D03*
%TD*%
D10*
%TO.C,D958*%
X215410000Y-97120000D03*
D11*
X215410000Y-99660000D03*
%TD*%
%TO.C,R253*%
X150080000Y-178970000D03*
X155160000Y-178970000D03*
%TD*%
D10*
%TO.C,D75*%
X118890000Y-51400000D03*
D11*
X118890000Y-53940000D03*
%TD*%
D17*
%TO.C,J2*%
X115000000Y-10000000D03*
D18*
X115000000Y-7460000D03*
X117540000Y-10000000D03*
X117540000Y-7460000D03*
X120080000Y-10000000D03*
X120080000Y-7460000D03*
X122620000Y-10000000D03*
X122620000Y-7460000D03*
X125160000Y-10000000D03*
X125160000Y-7460000D03*
X127700000Y-10000000D03*
X127700000Y-7460000D03*
%TD*%
D10*
%TO.C,D46*%
X113810000Y-137760000D03*
D11*
X113810000Y-140300000D03*
%TD*%
D10*
%TO.C,D319*%
X144290000Y-122520000D03*
D11*
X144290000Y-125060000D03*
%TD*%
D12*
%TO.C,Q396*%
X104000000Y-161825000D03*
D13*
X106540000Y-161825000D03*
X109080000Y-161825000D03*
%TD*%
D10*
%TO.C,D124*%
X123970000Y-66640000D03*
D11*
X123970000Y-69180000D03*
%TD*%
D10*
%TO.C,D864*%
X205250000Y-86960000D03*
D11*
X205250000Y-89500000D03*
%TD*%
%TO.C,R95*%
X32040000Y-102360000D03*
X37120000Y-102360000D03*
%TD*%
%TO.C,R75*%
X24360000Y-101090000D03*
X29440000Y-101090000D03*
%TD*%
D10*
%TO.C,D764*%
X195090000Y-46320000D03*
D11*
X195090000Y-48860000D03*
%TD*%
D10*
%TO.C,D314*%
X144290000Y-97120000D03*
D11*
X144290000Y-99660000D03*
%TD*%
D12*
%TO.C,Q426*%
X132120000Y-179605000D03*
D13*
X129580000Y-179605000D03*
X127040000Y-179605000D03*
%TD*%
D12*
%TO.C,Q23*%
X9000000Y-47115000D03*
D13*
X11540000Y-47115000D03*
X14080000Y-47115000D03*
%TD*%
D10*
%TO.C,D659*%
X182390000Y-97120000D03*
D11*
X182390000Y-99660000D03*
%TD*%
D10*
%TO.C,D52*%
X116350000Y-51400000D03*
D11*
X116350000Y-53940000D03*
%TD*%
D12*
%TO.C,Q91*%
X24360000Y-60450000D03*
D13*
X26900000Y-60450000D03*
X29440000Y-60450000D03*
%TD*%
D10*
%TO.C,D401*%
X154450000Y-71720000D03*
D11*
X154450000Y-74260000D03*
%TD*%
D10*
%TO.C,D288*%
X141750000Y-81880000D03*
D11*
X141750000Y-84420000D03*
%TD*%
D10*
%TO.C,D896*%
X207790000Y-132680000D03*
D11*
X207790000Y-135220000D03*
%TD*%
%TO.C,R308*%
X93480000Y-147825000D03*
X98560000Y-147825000D03*
%TD*%
D10*
%TO.C,D424*%
X156990000Y-71720000D03*
D11*
X156990000Y-74260000D03*
%TD*%
D12*
%TO.C,Q365*%
X224280000Y-214530000D03*
D13*
X221740000Y-214530000D03*
X219200000Y-214530000D03*
%TD*%
D10*
%TO.C,D150*%
X126510000Y-81880000D03*
D11*
X126510000Y-84420000D03*
%TD*%
D10*
%TO.C,D951*%
X215410000Y-61560000D03*
D11*
X215410000Y-64100000D03*
%TD*%
D12*
%TO.C,Q49*%
X9000000Y-220470000D03*
D13*
X11540000Y-220470000D03*
X14080000Y-220470000D03*
%TD*%
D12*
%TO.C,Q110*%
X24360000Y-188720000D03*
D13*
X26900000Y-188720000D03*
X29440000Y-188720000D03*
%TD*%
D10*
%TO.C,D915*%
X210330000Y-112360000D03*
D11*
X210330000Y-114900000D03*
%TD*%
D10*
%TO.C,D760*%
X195090000Y-26000000D03*
D11*
X195090000Y-28540000D03*
%TD*%
D10*
%TO.C,D125*%
X123970000Y-71720000D03*
D11*
X123970000Y-74260000D03*
%TD*%
D12*
%TO.C,Q453*%
X150080000Y-183415000D03*
D13*
X152620000Y-183415000D03*
X155160000Y-183415000D03*
%TD*%
D12*
%TO.C,Q390*%
X70440000Y-61465000D03*
D13*
X72980000Y-61465000D03*
X75520000Y-61465000D03*
%TD*%
D10*
%TO.C,D221*%
X134130000Y-92040000D03*
D11*
X134130000Y-94580000D03*
%TD*%
D12*
%TO.C,Q529*%
X98560000Y-118615000D03*
D13*
X96020000Y-118615000D03*
X93480000Y-118615000D03*
%TD*%
D10*
%TO.C,D373*%
X151910000Y-46320000D03*
D11*
X151910000Y-48860000D03*
%TD*%
D10*
%TO.C,D810*%
X200170000Y-46320000D03*
D11*
X200170000Y-48860000D03*
%TD*%
D10*
%TO.C,D902*%
X210330000Y-46320000D03*
D11*
X210330000Y-48860000D03*
%TD*%
D12*
%TO.C,Q576*%
X70440000Y-130045000D03*
D13*
X72980000Y-130045000D03*
X75520000Y-130045000D03*
%TD*%
D10*
%TO.C,D890*%
X207790000Y-102200000D03*
D11*
X207790000Y-104740000D03*
%TD*%
D10*
%TO.C,D304*%
X144290000Y-46320000D03*
D11*
X144290000Y-48860000D03*
%TD*%
D10*
%TO.C,D128*%
X123970000Y-86960000D03*
D11*
X123970000Y-89500000D03*
%TD*%
D10*
%TO.C,D929*%
X212870000Y-66640000D03*
D11*
X212870000Y-69180000D03*
%TD*%
D10*
%TO.C,D723*%
X190010000Y-71720000D03*
D11*
X190010000Y-74260000D03*
%TD*%
D12*
%TO.C,Q217*%
X52480000Y-219835000D03*
D13*
X49940000Y-219835000D03*
X47400000Y-219835000D03*
%TD*%
D12*
%TO.C,Q454*%
X150080000Y-188495000D03*
D13*
X152620000Y-188495000D03*
X155160000Y-188495000D03*
%TD*%
D12*
%TO.C,Q239*%
X55080000Y-145540000D03*
D13*
X57620000Y-145540000D03*
X60160000Y-145540000D03*
%TD*%
D10*
%TO.C,D254*%
X139210000Y-26000000D03*
D11*
X139210000Y-28540000D03*
%TD*%
D10*
%TO.C,D527*%
X167150000Y-127600000D03*
D11*
X167150000Y-130140000D03*
%TD*%
D12*
%TO.C,Q402*%
X104000000Y-198655000D03*
D13*
X106540000Y-198655000D03*
X109080000Y-198655000D03*
%TD*%
D10*
%TO.C,D317*%
X144290000Y-112360000D03*
D11*
X144290000Y-114900000D03*
%TD*%
%TO.C,R124*%
X47400000Y-16000000D03*
X52480000Y-16000000D03*
%TD*%
%TO.C,R250*%
X142400000Y-189130000D03*
X147480000Y-189130000D03*
%TD*%
D10*
%TO.C,D849*%
X202710000Y-127600000D03*
D11*
X202710000Y-130140000D03*
%TD*%
D12*
%TO.C,Q451*%
X150080000Y-170080000D03*
D13*
X152620000Y-170080000D03*
X155160000Y-170080000D03*
%TD*%
D15*
%TO.C,D1038*%
X72980000Y-125600000D03*
D16*
X72980000Y-123060000D03*
%TD*%
D12*
%TO.C,Q359*%
X224280000Y-174525000D03*
D13*
X221740000Y-174525000D03*
X219200000Y-174525000D03*
%TD*%
D12*
%TO.C,Q324*%
X180800000Y-221515000D03*
D13*
X183340000Y-221515000D03*
X185880000Y-221515000D03*
%TD*%
D11*
%TO.C,R302*%
X93480000Y-123060000D03*
X98560000Y-123060000D03*
%TD*%
D12*
%TO.C,Q221*%
X55080000Y-25525000D03*
D13*
X57620000Y-25525000D03*
X60160000Y-25525000D03*
%TD*%
D12*
%TO.C,Q363*%
X224280000Y-201195000D03*
D13*
X221740000Y-201195000D03*
X219200000Y-201195000D03*
%TD*%
D10*
%TO.C,D461*%
X162070000Y-26000000D03*
D11*
X162070000Y-28540000D03*
%TD*%
D12*
%TO.C,Q384*%
X67840000Y-208785000D03*
D13*
X65300000Y-208785000D03*
X62760000Y-208785000D03*
%TD*%
D10*
%TO.C,D464*%
X162070000Y-41240000D03*
D11*
X162070000Y-43780000D03*
%TD*%
D10*
%TO.C,D255*%
X139210000Y-31080000D03*
D11*
X139210000Y-33620000D03*
%TD*%
D10*
%TO.C,D188*%
X131590000Y-41240000D03*
D11*
X131590000Y-43780000D03*
%TD*%
D10*
%TO.C,D566*%
X172230000Y-92040000D03*
D11*
X172230000Y-94580000D03*
%TD*%
%TO.C,R351*%
X78120000Y-133220000D03*
X83200000Y-133220000D03*
%TD*%
%TO.C,R353*%
X78120000Y-163700000D03*
X83200000Y-163700000D03*
%TD*%
D10*
%TO.C,D399*%
X154450000Y-61560000D03*
D11*
X154450000Y-64100000D03*
%TD*%
D10*
%TO.C,D936*%
X212870000Y-102200000D03*
D11*
X212870000Y-104740000D03*
%TD*%
D10*
%TO.C,D860*%
X205250000Y-66640000D03*
D11*
X205250000Y-69180000D03*
%TD*%
D15*
%TO.C,D1050*%
X80660000Y-124330000D03*
D16*
X80660000Y-121790000D03*
%TD*%
D10*
%TO.C,D301*%
X144290000Y-31080000D03*
D11*
X144290000Y-33620000D03*
%TD*%
D10*
%TO.C,D889*%
X207790000Y-97120000D03*
D11*
X207790000Y-99660000D03*
%TD*%
D12*
%TO.C,Q307*%
X165440000Y-196750000D03*
D13*
X167980000Y-196750000D03*
X170520000Y-196750000D03*
%TD*%
D12*
%TO.C,Q265*%
X116760000Y-238025000D03*
D13*
X114220000Y-238025000D03*
X111680000Y-238025000D03*
%TD*%
D10*
%TO.C,D359*%
X149370000Y-92040000D03*
D11*
X149370000Y-94580000D03*
%TD*%
D10*
%TO.C,D433*%
X156990000Y-117440000D03*
D11*
X156990000Y-119980000D03*
%TD*%
D10*
%TO.C,D944*%
X215410000Y-26000000D03*
D11*
X215410000Y-28540000D03*
%TD*%
D10*
%TO.C,D997*%
X220490000Y-61560000D03*
D11*
X220490000Y-64100000D03*
%TD*%
D10*
%TO.C,D349*%
X149370000Y-41240000D03*
D11*
X149370000Y-43780000D03*
%TD*%
D10*
%TO.C,D278*%
X141750000Y-31080000D03*
D11*
X141750000Y-33620000D03*
%TD*%
D10*
%TO.C,D501*%
X164610000Y-112360000D03*
D11*
X164610000Y-114900000D03*
%TD*%
D10*
%TO.C,D786*%
X197630000Y-41240000D03*
D11*
X197630000Y-43780000D03*
%TD*%
D12*
%TO.C,Q548*%
X85800000Y-44955000D03*
D13*
X88340000Y-44955000D03*
X90880000Y-44955000D03*
%TD*%
D11*
%TO.C,R54*%
X16680000Y-37590000D03*
X21760000Y-37590000D03*
%TD*%
%TO.C,R44*%
X9000000Y-139190000D03*
X14080000Y-139190000D03*
%TD*%
D10*
%TO.C,D678*%
X184930000Y-76800000D03*
D11*
X184930000Y-79340000D03*
%TD*%
D10*
%TO.C,D934*%
X212870000Y-92040000D03*
D11*
X212870000Y-94580000D03*
%TD*%
%TO.C,R103*%
X32040000Y-193800000D03*
X37120000Y-193800000D03*
%TD*%
D12*
%TO.C,Q1*%
X83200000Y-197990000D03*
D13*
X80660000Y-197990000D03*
X78120000Y-197990000D03*
%TD*%
D11*
%TO.C,R299*%
X70440000Y-24000000D03*
X75520000Y-24000000D03*
%TD*%
D12*
%TO.C,Q31*%
X9000000Y-103630000D03*
D13*
X11540000Y-103630000D03*
X14080000Y-103630000D03*
%TD*%
D12*
%TO.C,Q336*%
X196160000Y-196750000D03*
D13*
X198700000Y-196750000D03*
X201240000Y-196750000D03*
%TD*%
D12*
%TO.C,Q541*%
X98560000Y-168145000D03*
D13*
X96020000Y-168145000D03*
X93480000Y-168145000D03*
%TD*%
D10*
%TO.C,D219*%
X134130000Y-81880000D03*
D11*
X134130000Y-84420000D03*
%TD*%
%TO.C,R8*%
X227300000Y-61560000D03*
X232380000Y-61560000D03*
%TD*%
%TO.C,R94*%
X32040000Y-94105000D03*
X37120000Y-94105000D03*
%TD*%
D10*
%TO.C,D168*%
X129050000Y-56480000D03*
D11*
X129050000Y-59020000D03*
%TD*%
D10*
%TO.C,D1005*%
X220490000Y-102200000D03*
D11*
X220490000Y-104740000D03*
%TD*%
D12*
%TO.C,Q264*%
X116760000Y-229770000D03*
D13*
X114220000Y-229770000D03*
X111680000Y-229770000D03*
%TD*%
D12*
%TO.C,Q408*%
X116760000Y-179605000D03*
D13*
X114220000Y-179605000D03*
X111680000Y-179605000D03*
%TD*%
D10*
%TO.C,D679*%
X184930000Y-81880000D03*
D11*
X184930000Y-84420000D03*
%TD*%
D10*
%TO.C,D905*%
X210330000Y-61560000D03*
D11*
X210330000Y-64100000D03*
%TD*%
D12*
%TO.C,Q253*%
X55080000Y-238885000D03*
D13*
X57620000Y-238885000D03*
X60160000Y-238885000D03*
%TD*%
D10*
%TO.C,D162*%
X129050000Y-26000000D03*
D11*
X129050000Y-28540000D03*
%TD*%
%TO.C,R53*%
X16680000Y-24255000D03*
X21760000Y-24255000D03*
%TD*%
D10*
%TO.C,D497*%
X164610000Y-92040000D03*
D11*
X164610000Y-94580000D03*
%TD*%
%TO.C,R177*%
X142400000Y-234215000D03*
X147480000Y-234215000D03*
%TD*%
D10*
%TO.C,D673*%
X184930000Y-51400000D03*
D11*
X184930000Y-53940000D03*
%TD*%
D12*
%TO.C,Q479*%
X193560000Y-156110000D03*
D13*
X191020000Y-156110000D03*
X188480000Y-156110000D03*
%TD*%
D12*
%TO.C,Q473*%
X180800000Y-156745000D03*
D13*
X183340000Y-156745000D03*
X185880000Y-156745000D03*
%TD*%
D10*
%TO.C,D792*%
X197630000Y-71720000D03*
D11*
X197630000Y-74260000D03*
%TD*%
D10*
%TO.C,D734*%
X190010000Y-127600000D03*
D11*
X190010000Y-130140000D03*
%TD*%
%TO.C,R325*%
X85800000Y-65275000D03*
X90880000Y-65275000D03*
%TD*%
D10*
%TO.C,D87*%
X118890000Y-112360000D03*
D11*
X118890000Y-114900000D03*
%TD*%
D10*
%TO.C,D35*%
X113810000Y-81880000D03*
D11*
X113810000Y-84420000D03*
%TD*%
D10*
%TO.C,D879*%
X207790000Y-46320000D03*
D11*
X207790000Y-48860000D03*
%TD*%
D10*
%TO.C,D742*%
X192550000Y-51400000D03*
D11*
X192550000Y-53940000D03*
%TD*%
D10*
%TO.C,D720*%
X190010000Y-56480000D03*
D11*
X190010000Y-59020000D03*
%TD*%
D10*
%TO.C,D946*%
X215410000Y-36160000D03*
D11*
X215410000Y-38700000D03*
%TD*%
D12*
%TO.C,Q333*%
X193560000Y-227865000D03*
D13*
X191020000Y-227865000D03*
X188480000Y-227865000D03*
%TD*%
D10*
%TO.C,D664*%
X182390000Y-122520000D03*
D11*
X182390000Y-125060000D03*
%TD*%
D12*
%TO.C,Q556*%
X85800000Y-83055000D03*
D13*
X88340000Y-83055000D03*
X90880000Y-83055000D03*
%TD*%
D10*
%TO.C,D529*%
X167150000Y-137760000D03*
D11*
X167150000Y-140300000D03*
%TD*%
D12*
%TO.C,Q40*%
X9000000Y-162050000D03*
D13*
X11540000Y-162050000D03*
X14080000Y-162050000D03*
%TD*%
D10*
%TO.C,D690*%
X184930000Y-137760000D03*
D11*
X184930000Y-140300000D03*
%TD*%
D10*
%TO.C,D825*%
X200170000Y-122520000D03*
D11*
X200170000Y-125060000D03*
%TD*%
D10*
%TO.C,D799*%
X197630000Y-107280000D03*
D11*
X197630000Y-109820000D03*
%TD*%
D12*
%TO.C,Q106*%
X24360000Y-162050000D03*
D13*
X26900000Y-162050000D03*
X29440000Y-162050000D03*
%TD*%
D12*
%TO.C,Q193*%
X52480000Y-59815000D03*
D13*
X49940000Y-59815000D03*
X47400000Y-59815000D03*
%TD*%
D12*
%TO.C,Q140*%
X37120000Y-170940000D03*
D13*
X34580000Y-170940000D03*
X32040000Y-170940000D03*
%TD*%
D11*
%TO.C,R111*%
X39720000Y-69340000D03*
X44800000Y-69340000D03*
%TD*%
D10*
%TO.C,D260*%
X139210000Y-56480000D03*
D11*
X139210000Y-59020000D03*
%TD*%
%TO.C,R330*%
X85800000Y-121790000D03*
X90880000Y-121790000D03*
%TD*%
%TO.C,R146*%
X55080000Y-82675000D03*
X60160000Y-82675000D03*
%TD*%
D10*
%TO.C,D533*%
X169690000Y-41240000D03*
D11*
X169690000Y-43780000D03*
%TD*%
D10*
%TO.C,D771*%
X195090000Y-81880000D03*
D11*
X195090000Y-84420000D03*
%TD*%
D12*
%TO.C,Q29*%
X9000000Y-87120000D03*
D13*
X11540000Y-87120000D03*
X14080000Y-87120000D03*
%TD*%
D12*
%TO.C,Q279*%
X134720000Y-211990000D03*
D13*
X137260000Y-211990000D03*
X139800000Y-211990000D03*
%TD*%
D10*
%TO.C,D655*%
X182390000Y-76800000D03*
D11*
X182390000Y-79340000D03*
%TD*%
%TO.C,R328*%
X85800000Y-95120000D03*
X90880000Y-95120000D03*
%TD*%
%TO.C,R226*%
X62760000Y-181480000D03*
X67840000Y-181480000D03*
%TD*%
D10*
%TO.C,D649*%
X182390000Y-46320000D03*
D11*
X182390000Y-48860000D03*
%TD*%
D10*
%TO.C,D666*%
X182390000Y-132680000D03*
D11*
X182390000Y-135220000D03*
%TD*%
D10*
%TO.C,D66*%
X116350000Y-122520000D03*
D11*
X116350000Y-125060000D03*
%TD*%
D10*
%TO.C,D546*%
X169690000Y-107280000D03*
D11*
X169690000Y-109820000D03*
%TD*%
D10*
%TO.C,D17*%
X111270000Y-107280000D03*
D11*
X111270000Y-109820000D03*
%TD*%
D10*
%TO.C,D505*%
X164610000Y-132680000D03*
D11*
X164610000Y-135220000D03*
%TD*%
D10*
%TO.C,D876*%
X207790000Y-31080000D03*
D11*
X207790000Y-33620000D03*
%TD*%
D10*
%TO.C,D631*%
X179850000Y-71720000D03*
D11*
X179850000Y-74260000D03*
%TD*%
%TO.C,R309*%
X78120000Y-40510000D03*
X83200000Y-40510000D03*
%TD*%
D10*
%TO.C,D33*%
X113810000Y-71720000D03*
D11*
X113810000Y-74260000D03*
%TD*%
D10*
%TO.C,D430*%
X156990000Y-102200000D03*
D11*
X156990000Y-104740000D03*
%TD*%
D10*
%TO.C,D30*%
X113810000Y-56480000D03*
D11*
X113810000Y-59020000D03*
%TD*%
%TO.C,R288*%
X93480000Y-65275000D03*
X98560000Y-65275000D03*
%TD*%
D12*
%TO.C,Q350*%
X211520000Y-211990000D03*
D13*
X214060000Y-211990000D03*
X216600000Y-211990000D03*
%TD*%
D10*
%TO.C,D908*%
X210330000Y-76800000D03*
D11*
X210330000Y-79340000D03*
%TD*%
D12*
%TO.C,Q539*%
X98560000Y-159890000D03*
D13*
X96020000Y-159890000D03*
X93480000Y-159890000D03*
%TD*%
D10*
%TO.C,D711*%
X187470000Y-127600000D03*
D11*
X187470000Y-130140000D03*
%TD*%
D12*
%TO.C,Q378*%
X67840000Y-171955000D03*
D13*
X65300000Y-171955000D03*
X62760000Y-171955000D03*
%TD*%
D12*
%TO.C,Q175*%
X39720000Y-172210000D03*
D13*
X42260000Y-172210000D03*
X44800000Y-172210000D03*
%TD*%
D10*
%TO.C,D768*%
X195090000Y-66640000D03*
D11*
X195090000Y-69180000D03*
%TD*%
%TO.C,R174*%
X134720000Y-234215000D03*
X139800000Y-234215000D03*
%TD*%
D10*
%TO.C,D854*%
X205250000Y-36160000D03*
D11*
X205250000Y-38700000D03*
%TD*%
D10*
%TO.C,D817*%
X200170000Y-81880000D03*
D11*
X200170000Y-84420000D03*
%TD*%
D10*
%TO.C,D996*%
X220490000Y-56480000D03*
D11*
X220490000Y-59020000D03*
%TD*%
%TO.C,R114*%
X39720000Y-114425000D03*
X44800000Y-114425000D03*
%TD*%
D10*
%TO.C,D217*%
X134130000Y-71720000D03*
D11*
X134130000Y-74260000D03*
%TD*%
D10*
%TO.C,D625*%
X179850000Y-41240000D03*
D11*
X179850000Y-43780000D03*
%TD*%
%TO.C,R346*%
X78120000Y-57020000D03*
X83200000Y-57020000D03*
%TD*%
D12*
%TO.C,Q588*%
X83200000Y-128775000D03*
D13*
X80660000Y-128775000D03*
X78120000Y-128775000D03*
%TD*%
D10*
%TO.C,D897*%
X207790000Y-137760000D03*
D11*
X207790000Y-140300000D03*
%TD*%
D10*
%TO.C,D559*%
X172230000Y-56480000D03*
D11*
X172230000Y-59020000D03*
%TD*%
%TO.C,R169*%
X127040000Y-207545000D03*
X132120000Y-207545000D03*
%TD*%
D10*
%TO.C,D4*%
X111270000Y-41240000D03*
D11*
X111270000Y-43780000D03*
%TD*%
%TO.C,R191*%
X173120000Y-218975000D03*
X178200000Y-218975000D03*
%TD*%
D10*
%TO.C,D346*%
X149370000Y-26000000D03*
D11*
X149370000Y-28540000D03*
%TD*%
D12*
%TO.C,Q252*%
X55080000Y-233805000D03*
D13*
X57620000Y-233805000D03*
X60160000Y-233805000D03*
%TD*%
D11*
%TO.C,R59*%
X16680000Y-104265000D03*
X21760000Y-104265000D03*
%TD*%
D12*
%TO.C,Q51*%
X9000000Y-233805000D03*
D13*
X11540000Y-233805000D03*
X14080000Y-233805000D03*
%TD*%
D12*
%TO.C,Q5*%
X83200000Y-227835000D03*
D13*
X80660000Y-227835000D03*
X78120000Y-227835000D03*
%TD*%
D10*
%TO.C,D90*%
X118890000Y-127600000D03*
D11*
X118890000Y-130140000D03*
%TD*%
D12*
%TO.C,Q255*%
X67840000Y-115440000D03*
D13*
X65300000Y-115440000D03*
X62760000Y-115440000D03*
%TD*%
D11*
%TO.C,R11*%
X227300000Y-76800000D03*
X232380000Y-76800000D03*
%TD*%
%TO.C,R164*%
X111680000Y-220880000D03*
X116760000Y-220880000D03*
%TD*%
D10*
%TO.C,D1019*%
X223030000Y-56480000D03*
D11*
X223030000Y-59020000D03*
%TD*%
D12*
%TO.C,Q286*%
X147480000Y-216435000D03*
D13*
X144940000Y-216435000D03*
X142400000Y-216435000D03*
%TD*%
D10*
%TO.C,D685*%
X184930000Y-112360000D03*
D11*
X184930000Y-114900000D03*
%TD*%
%TO.C,R49*%
X9000000Y-205865000D03*
X14080000Y-205865000D03*
%TD*%
D12*
%TO.C,Q125*%
X37120000Y-62990000D03*
D13*
X34580000Y-62990000D03*
X32040000Y-62990000D03*
%TD*%
D10*
%TO.C,D449*%
X159530000Y-81880000D03*
D11*
X159530000Y-84420000D03*
%TD*%
%TO.C,R57*%
X16680000Y-82675000D03*
X21760000Y-82675000D03*
%TD*%
D10*
%TO.C,D448*%
X159530000Y-76800000D03*
D11*
X159530000Y-79340000D03*
%TD*%
D10*
%TO.C,D826*%
X200170000Y-127600000D03*
D11*
X200170000Y-130140000D03*
%TD*%
D10*
%TO.C,D751*%
X192550000Y-97120000D03*
D11*
X192550000Y-99660000D03*
%TD*%
D12*
%TO.C,Q224*%
X55080000Y-47115000D03*
D13*
X57620000Y-47115000D03*
X60160000Y-47115000D03*
%TD*%
D10*
%TO.C,D502*%
X164610000Y-117440000D03*
D11*
X164610000Y-119980000D03*
%TD*%
%TO.C,R181*%
X150080000Y-232310000D03*
X155160000Y-232310000D03*
%TD*%
D10*
%TO.C,D59*%
X116350000Y-86960000D03*
D11*
X116350000Y-89500000D03*
%TD*%
D12*
%TO.C,Q502*%
X211520000Y-180240000D03*
D13*
X214060000Y-180240000D03*
X216600000Y-180240000D03*
%TD*%
D10*
%TO.C,D875*%
X207790000Y-26000000D03*
D11*
X207790000Y-28540000D03*
%TD*%
D12*
%TO.C,Q97*%
X24360000Y-97280000D03*
D13*
X26900000Y-97280000D03*
X29440000Y-97280000D03*
%TD*%
D12*
%TO.C,Q39*%
X9000000Y-153795000D03*
D13*
X11540000Y-153795000D03*
X14080000Y-153795000D03*
%TD*%
D12*
%TO.C,Q83*%
X21760000Y-223010000D03*
D13*
X19220000Y-223010000D03*
X16680000Y-223010000D03*
%TD*%
D10*
%TO.C,D109*%
X121430000Y-107280000D03*
D11*
X121430000Y-109820000D03*
%TD*%
%TO.C,R285*%
X62760000Y-48765000D03*
X67840000Y-48765000D03*
%TD*%
D10*
%TO.C,D229*%
X134130000Y-132680000D03*
D11*
X134130000Y-135220000D03*
%TD*%
D10*
%TO.C,D220*%
X134130000Y-86960000D03*
D11*
X134130000Y-89500000D03*
%TD*%
D10*
%TO.C,D311*%
X144290000Y-81880000D03*
D11*
X144290000Y-84420000D03*
%TD*%
D12*
%TO.C,Q425*%
X132120000Y-174525000D03*
D13*
X129580000Y-174525000D03*
X127040000Y-174525000D03*
%TD*%
D10*
%TO.C,D511*%
X167150000Y-46320000D03*
D11*
X167150000Y-48860000D03*
%TD*%
D10*
%TO.C,D444*%
X159530000Y-56480000D03*
D11*
X159530000Y-59020000D03*
%TD*%
D10*
%TO.C,D775*%
X195090000Y-102200000D03*
D11*
X195090000Y-104740000D03*
%TD*%
D10*
%TO.C,D471*%
X162070000Y-76800000D03*
D11*
X162070000Y-79340000D03*
%TD*%
D10*
%TO.C,D439*%
X159530000Y-31080000D03*
D11*
X159530000Y-33620000D03*
%TD*%
D10*
%TO.C,D316*%
X144290000Y-107280000D03*
D11*
X144290000Y-109820000D03*
%TD*%
D10*
%TO.C,D948*%
X215410000Y-46320000D03*
D11*
X215410000Y-48860000D03*
%TD*%
D10*
%TO.C,D149*%
X126510000Y-76800000D03*
D11*
X126510000Y-79340000D03*
%TD*%
D10*
%TO.C,D230*%
X134130000Y-137760000D03*
D11*
X134130000Y-140300000D03*
%TD*%
%TO.C,R248*%
X142400000Y-152300000D03*
X147480000Y-152300000D03*
%TD*%
D10*
%TO.C,D693*%
X187470000Y-36160000D03*
D11*
X187470000Y-38700000D03*
%TD*%
D10*
%TO.C,D88*%
X118890000Y-117440000D03*
D11*
X118890000Y-119980000D03*
%TD*%
D10*
%TO.C,D979*%
X217950000Y-86960000D03*
D11*
X217950000Y-89500000D03*
%TD*%
D12*
%TO.C,Q86*%
X24360000Y-25525000D03*
D13*
X26900000Y-25525000D03*
X29440000Y-25525000D03*
%TD*%
D11*
%TO.C,R230*%
X62760000Y-234820000D03*
X67840000Y-234820000D03*
%TD*%
D12*
%TO.C,Q243*%
X55080000Y-172210000D03*
D13*
X57620000Y-172210000D03*
X60160000Y-172210000D03*
%TD*%
D10*
%TO.C,D635*%
X179850000Y-92040000D03*
D11*
X179850000Y-94580000D03*
%TD*%
D10*
%TO.C,D558*%
X172230000Y-51400000D03*
D11*
X172230000Y-53940000D03*
%TD*%
D10*
%TO.C,D216*%
X134130000Y-66640000D03*
D11*
X134130000Y-69180000D03*
%TD*%
D12*
%TO.C,Q417*%
X119360000Y-180240000D03*
D13*
X121900000Y-180240000D03*
X124440000Y-180240000D03*
%TD*%
D10*
%TO.C,D963*%
X215410000Y-122520000D03*
D11*
X215410000Y-125060000D03*
%TD*%
D12*
%TO.C,Q533*%
X98560000Y-135125000D03*
D13*
X96020000Y-135125000D03*
X93480000Y-135125000D03*
%TD*%
D10*
%TO.C,D995*%
X220490000Y-51400000D03*
D11*
X220490000Y-53940000D03*
%TD*%
D10*
%TO.C,D791*%
X197630000Y-66640000D03*
D11*
X197630000Y-69180000D03*
%TD*%
D10*
%TO.C,D422*%
X156990000Y-61560000D03*
D11*
X156990000Y-64100000D03*
%TD*%
D10*
%TO.C,D561*%
X172230000Y-66640000D03*
D11*
X172230000Y-69180000D03*
%TD*%
D12*
%TO.C,Q281*%
X134720000Y-225325000D03*
D13*
X137260000Y-225325000D03*
X139800000Y-225325000D03*
%TD*%
D12*
%TO.C,Q182*%
X39720000Y-220470000D03*
D13*
X42260000Y-220470000D03*
X44800000Y-220470000D03*
%TD*%
D10*
%TO.C,D222*%
X134130000Y-97120000D03*
D11*
X134130000Y-99660000D03*
%TD*%
%TO.C,R100*%
X32040000Y-153795000D03*
X37120000Y-153795000D03*
%TD*%
D10*
%TO.C,D966*%
X215410000Y-137760000D03*
D11*
X215410000Y-140300000D03*
%TD*%
D12*
%TO.C,Q516*%
X67840000Y-60830000D03*
D13*
X65300000Y-60830000D03*
X62760000Y-60830000D03*
%TD*%
D12*
%TO.C,Q352*%
X211520000Y-225325000D03*
D13*
X214060000Y-225325000D03*
X216600000Y-225325000D03*
%TD*%
D10*
%TO.C,D97*%
X121430000Y-46320000D03*
D11*
X121430000Y-48860000D03*
%TD*%
D12*
%TO.C,Q592*%
X83200000Y-189735000D03*
D13*
X80660000Y-189735000D03*
X78120000Y-189735000D03*
%TD*%
D12*
%TO.C,Q392*%
X70440000Y-74800000D03*
D13*
X72980000Y-74800000D03*
X75520000Y-74800000D03*
%TD*%
D10*
%TO.C,D472*%
X162070000Y-81880000D03*
D11*
X162070000Y-84420000D03*
%TD*%
D12*
%TO.C,Q32*%
X9000000Y-108710000D03*
D13*
X11540000Y-108710000D03*
X14080000Y-108710000D03*
%TD*%
D11*
%TO.C,R270*%
X196160000Y-165635000D03*
X201240000Y-165635000D03*
%TD*%
D12*
%TO.C,Q489*%
X196160000Y-183415000D03*
D13*
X198700000Y-183415000D03*
X201240000Y-183415000D03*
%TD*%
D11*
%TO.C,R235*%
X104000000Y-189130000D03*
X109080000Y-189130000D03*
%TD*%
D10*
%TO.C,D455*%
X159530000Y-112360000D03*
D11*
X159530000Y-114900000D03*
%TD*%
D10*
%TO.C,D724*%
X190010000Y-76800000D03*
D11*
X190010000Y-79340000D03*
%TD*%
D10*
%TO.C,D27*%
X113810000Y-41240000D03*
D11*
X113810000Y-43780000D03*
%TD*%
D10*
%TO.C,D753*%
X192550000Y-107280000D03*
D11*
X192550000Y-109820000D03*
%TD*%
D10*
%TO.C,D604*%
X177310000Y-51400000D03*
D11*
X177310000Y-53940000D03*
%TD*%
D10*
%TO.C,D756*%
X192550000Y-122520000D03*
D11*
X192550000Y-125060000D03*
%TD*%
D10*
%TO.C,D800*%
X197630000Y-112360000D03*
D11*
X197630000Y-114900000D03*
%TD*%
%TO.C,R313*%
X85800000Y-24000000D03*
X90880000Y-24000000D03*
%TD*%
D12*
%TO.C,Q95*%
X24360000Y-87120000D03*
D13*
X26900000Y-87120000D03*
X29440000Y-87120000D03*
%TD*%
D10*
%TO.C,D839*%
X202710000Y-76800000D03*
D11*
X202710000Y-79340000D03*
%TD*%
D12*
%TO.C,Q118*%
X24360000Y-242060000D03*
D13*
X26900000Y-242060000D03*
X29440000Y-242060000D03*
%TD*%
D12*
%TO.C,Q320*%
X178200000Y-244375000D03*
D13*
X175660000Y-244375000D03*
X173120000Y-244375000D03*
%TD*%
D12*
%TO.C,Q96*%
X24360000Y-92200000D03*
D13*
X26900000Y-92200000D03*
X29440000Y-92200000D03*
%TD*%
D12*
%TO.C,Q531*%
X98560000Y-126870000D03*
D13*
X96020000Y-126870000D03*
X93480000Y-126870000D03*
%TD*%
D10*
%TO.C,D458*%
X159530000Y-127600000D03*
D11*
X159530000Y-130140000D03*
%TD*%
D12*
%TO.C,Q259*%
X104000000Y-228500000D03*
D13*
X106540000Y-228500000D03*
X109080000Y-228500000D03*
%TD*%
D10*
%TO.C,D877*%
X207790000Y-36160000D03*
D11*
X207790000Y-38700000D03*
%TD*%
D12*
%TO.C,Q165*%
X39720000Y-105535000D03*
D13*
X42260000Y-105535000D03*
X44800000Y-105535000D03*
%TD*%
D10*
%TO.C,D79*%
X118890000Y-71720000D03*
D11*
X118890000Y-74260000D03*
%TD*%
D10*
%TO.C,D465*%
X162070000Y-46320000D03*
D11*
X162070000Y-48860000D03*
%TD*%
D10*
%TO.C,D779*%
X195090000Y-122520000D03*
D11*
X195090000Y-125060000D03*
%TD*%
D12*
%TO.C,Q498*%
X211520000Y-156745000D03*
D13*
X214060000Y-156745000D03*
X216600000Y-156745000D03*
%TD*%
D10*
%TO.C,D483*%
X162070000Y-137760000D03*
D11*
X162070000Y-140300000D03*
%TD*%
D12*
%TO.C,Q525*%
X98560000Y-102105000D03*
D13*
X96020000Y-102105000D03*
X93480000Y-102105000D03*
%TD*%
D10*
%TO.C,D578*%
X174770000Y-36160000D03*
D11*
X174770000Y-38700000D03*
%TD*%
D10*
%TO.C,D813*%
X200170000Y-61560000D03*
D11*
X200170000Y-64100000D03*
%TD*%
%TO.C,R161*%
X104000000Y-224055000D03*
X109080000Y-224055000D03*
%TD*%
D12*
%TO.C,Q213*%
X52480000Y-193165000D03*
D13*
X49940000Y-193165000D03*
X47400000Y-193165000D03*
%TD*%
D10*
%TO.C,D495*%
X164610000Y-81880000D03*
D11*
X164610000Y-84420000D03*
%TD*%
D12*
%TO.C,Q472*%
X178200000Y-187860000D03*
D13*
X175660000Y-187860000D03*
X173120000Y-187860000D03*
%TD*%
D12*
%TO.C,Q497*%
X208920000Y-192940000D03*
D13*
X206380000Y-192940000D03*
X203840000Y-192940000D03*
%TD*%
D11*
%TO.C,R56*%
X16680000Y-64260000D03*
X21760000Y-64260000D03*
%TD*%
D10*
%TO.C,D280*%
X141750000Y-41240000D03*
D11*
X141750000Y-43780000D03*
%TD*%
D10*
%TO.C,D818*%
X200170000Y-86960000D03*
D11*
X200170000Y-89500000D03*
%TD*%
D12*
%TO.C,Q562*%
X85800000Y-126235000D03*
D13*
X88340000Y-126235000D03*
X90880000Y-126235000D03*
%TD*%
D11*
%TO.C,R259*%
X165440000Y-178970000D03*
X170520000Y-178970000D03*
%TD*%
D12*
%TO.C,Q441*%
X147480000Y-161190000D03*
D13*
X144940000Y-161190000D03*
X142400000Y-161190000D03*
%TD*%
D11*
%TO.C,R281*%
X62760000Y-32255000D03*
X67840000Y-32255000D03*
%TD*%
D10*
%TO.C,D714*%
X190010000Y-26000000D03*
D11*
X190010000Y-28540000D03*
%TD*%
D12*
%TO.C,Q406*%
X116760000Y-166270000D03*
D13*
X114220000Y-166270000D03*
X111680000Y-166270000D03*
%TD*%
D11*
%TO.C,R71*%
X24360000Y-42670000D03*
X29440000Y-42670000D03*
%TD*%
%TO.C,R283*%
X62760000Y-40510000D03*
X67840000Y-40510000D03*
%TD*%
D10*
%TO.C,D386*%
X151910000Y-112360000D03*
D11*
X151910000Y-114900000D03*
%TD*%
%TO.C,R150*%
X55080000Y-136015000D03*
X60160000Y-136015000D03*
%TD*%
D10*
%TO.C,D719*%
X190010000Y-51400000D03*
D11*
X190010000Y-53940000D03*
%TD*%
D10*
%TO.C,D699*%
X187470000Y-66640000D03*
D11*
X187470000Y-69180000D03*
%TD*%
D10*
%TO.C,D574*%
X172230000Y-132680000D03*
D11*
X172230000Y-135220000D03*
%TD*%
D12*
%TO.C,Q431*%
X134720000Y-156745000D03*
D13*
X137260000Y-156745000D03*
X139800000Y-156745000D03*
%TD*%
D10*
%TO.C,D887*%
X207790000Y-86960000D03*
D11*
X207790000Y-89500000D03*
%TD*%
D10*
%TO.C,D7*%
X111270000Y-56480000D03*
D11*
X111270000Y-59020000D03*
%TD*%
D10*
%TO.C,D717*%
X190010000Y-41240000D03*
D11*
X190010000Y-43780000D03*
%TD*%
%TO.C,R219*%
X219200000Y-232310000D03*
X224280000Y-232310000D03*
%TD*%
%TO.C,R301*%
X70440000Y-32255000D03*
X75520000Y-32255000D03*
%TD*%
D10*
%TO.C,D84*%
X118890000Y-97120000D03*
D11*
X118890000Y-99660000D03*
%TD*%
D15*
%TO.C,D1054*%
X80660000Y-185290000D03*
D16*
X80660000Y-182750000D03*
%TD*%
D12*
%TO.C,Q180*%
X39720000Y-207135000D03*
D13*
X42260000Y-207135000D03*
X44800000Y-207135000D03*
%TD*%
D11*
%TO.C,R13*%
X227300000Y-86960000D03*
X232380000Y-86960000D03*
%TD*%
D12*
%TO.C,Q189*%
X52480000Y-33145000D03*
D13*
X49940000Y-33145000D03*
X47400000Y-33145000D03*
%TD*%
D10*
%TO.C,D609*%
X177310000Y-76800000D03*
D11*
X177310000Y-79340000D03*
%TD*%
D12*
%TO.C,Q361*%
X224280000Y-187860000D03*
D13*
X221740000Y-187860000D03*
X219200000Y-187860000D03*
%TD*%
D11*
%TO.C,R137*%
X47400000Y-184275000D03*
X52480000Y-184275000D03*
%TD*%
D12*
%TO.C,Q228*%
X55080000Y-73785000D03*
D13*
X57620000Y-73785000D03*
X60160000Y-73785000D03*
%TD*%
D10*
%TO.C,D812*%
X200170000Y-56480000D03*
D11*
X200170000Y-59020000D03*
%TD*%
D10*
%TO.C,D986*%
X217950000Y-122520000D03*
D11*
X217950000Y-125060000D03*
%TD*%
D12*
%TO.C,Q154*%
X39720000Y-33780000D03*
D13*
X42260000Y-33780000D03*
X44800000Y-33780000D03*
%TD*%
D10*
%TO.C,D236*%
X136670000Y-51400000D03*
D11*
X136670000Y-53940000D03*
%TD*%
D10*
%TO.C,D675*%
X184930000Y-61560000D03*
D11*
X184930000Y-64100000D03*
%TD*%
D12*
%TO.C,Q71*%
X21760000Y-139825000D03*
D13*
X19220000Y-139825000D03*
X16680000Y-139825000D03*
%TD*%
D12*
%TO.C,Q401*%
X104000000Y-193575000D03*
D13*
X106540000Y-193575000D03*
X109080000Y-193575000D03*
%TD*%
D10*
%TO.C,D331*%
X146830000Y-66640000D03*
D11*
X146830000Y-69180000D03*
%TD*%
%TO.C,R202*%
X188480000Y-232310000D03*
X193560000Y-232310000D03*
%TD*%
D10*
%TO.C,D749*%
X192550000Y-86960000D03*
D11*
X192550000Y-89500000D03*
%TD*%
D10*
%TO.C,D415*%
X156990000Y-26000000D03*
D11*
X156990000Y-28540000D03*
%TD*%
D10*
%TO.C,D249*%
X136670000Y-117440000D03*
D11*
X136670000Y-119980000D03*
%TD*%
D12*
%TO.C,Q555*%
X85800000Y-77975000D03*
D13*
X88340000Y-77975000D03*
X90880000Y-77975000D03*
%TD*%
D12*
%TO.C,Q376*%
X67840000Y-158620000D03*
D13*
X65300000Y-158620000D03*
X62760000Y-158620000D03*
%TD*%
D12*
%TO.C,Q422*%
X132120000Y-156110000D03*
D13*
X129580000Y-156110000D03*
X127040000Y-156110000D03*
%TD*%
D11*
%TO.C,R224*%
X62760000Y-154810000D03*
X67840000Y-154810000D03*
%TD*%
D10*
%TO.C,D118*%
X123970000Y-36160000D03*
D11*
X123970000Y-38700000D03*
%TD*%
D10*
%TO.C,D482*%
X162070000Y-132680000D03*
D11*
X162070000Y-135220000D03*
%TD*%
D10*
%TO.C,D313*%
X144290000Y-92040000D03*
D11*
X144290000Y-94580000D03*
%TD*%
D12*
%TO.C,Q3*%
X83200000Y-214500000D03*
D13*
X80660000Y-214500000D03*
X78120000Y-214500000D03*
%TD*%
D10*
%TO.C,D481*%
X162070000Y-127600000D03*
D11*
X162070000Y-130140000D03*
%TD*%
D10*
%TO.C,D262*%
X139210000Y-66640000D03*
D11*
X139210000Y-69180000D03*
%TD*%
D12*
%TO.C,Q8*%
X226880000Y-175160000D03*
D13*
X229420000Y-175160000D03*
X231960000Y-175160000D03*
%TD*%
D10*
%TO.C,D382*%
X151910000Y-92040000D03*
D11*
X151910000Y-94580000D03*
%TD*%
D10*
%TO.C,D874*%
X205250000Y-137760000D03*
D11*
X205250000Y-140300000D03*
%TD*%
%TO.C,R65*%
X16680000Y-184275000D03*
X21760000Y-184275000D03*
%TD*%
D10*
%TO.C,D488*%
X164610000Y-46320000D03*
D11*
X164610000Y-48860000D03*
%TD*%
%TO.C,R298*%
X93480000Y-106550000D03*
X98560000Y-106550000D03*
%TD*%
D12*
%TO.C,Q481*%
X193560000Y-169445000D03*
D13*
X191020000Y-169445000D03*
X188480000Y-169445000D03*
%TD*%
D10*
%TO.C,D65*%
X116350000Y-117440000D03*
D11*
X116350000Y-119980000D03*
%TD*%
%TO.C,R58*%
X16680000Y-90930000D03*
X21760000Y-90930000D03*
%TD*%
%TO.C,R14*%
X227300000Y-92040000D03*
X232380000Y-92040000D03*
%TD*%
D12*
%TO.C,Q436*%
X134720000Y-185320000D03*
D13*
X137260000Y-185320000D03*
X139800000Y-185320000D03*
%TD*%
D10*
%TO.C,D538*%
X169690000Y-66640000D03*
D11*
X169690000Y-69180000D03*
%TD*%
D12*
%TO.C,Q227*%
X55080000Y-65530000D03*
D13*
X57620000Y-65530000D03*
X60160000Y-65530000D03*
%TD*%
D10*
%TO.C,D526*%
X167150000Y-122520000D03*
D11*
X167150000Y-125060000D03*
%TD*%
D10*
%TO.C,D598*%
X174770000Y-137760000D03*
D11*
X174770000Y-140300000D03*
%TD*%
D12*
%TO.C,Q167*%
X39720000Y-118870000D03*
D13*
X42260000Y-118870000D03*
X44800000Y-118870000D03*
%TD*%
D12*
%TO.C,Q162*%
X39720000Y-87120000D03*
D13*
X42260000Y-87120000D03*
X44800000Y-87120000D03*
%TD*%
D10*
%TO.C,D956*%
X215410000Y-86960000D03*
D11*
X215410000Y-89500000D03*
%TD*%
D12*
%TO.C,Q102*%
X24360000Y-135380000D03*
D13*
X26900000Y-135380000D03*
X29440000Y-135380000D03*
%TD*%
D10*
%TO.C,D667*%
X182390000Y-137760000D03*
D11*
X182390000Y-140300000D03*
%TD*%
%TO.C,R244*%
X127040000Y-189130000D03*
X132120000Y-189130000D03*
%TD*%
D10*
%TO.C,D941*%
X212870000Y-127600000D03*
D11*
X212870000Y-130140000D03*
%TD*%
D10*
%TO.C,D822*%
X200170000Y-107280000D03*
D11*
X200170000Y-109820000D03*
%TD*%
D10*
%TO.C,D348*%
X149370000Y-36160000D03*
D11*
X149370000Y-38700000D03*
%TD*%
D10*
%TO.C,D70*%
X118890000Y-26000000D03*
D11*
X118890000Y-28540000D03*
%TD*%
D10*
%TO.C,D244*%
X136670000Y-92040000D03*
D11*
X136670000Y-94580000D03*
%TD*%
D12*
%TO.C,Q565*%
X85800000Y-144650000D03*
D13*
X88340000Y-144650000D03*
X90880000Y-144650000D03*
%TD*%
D11*
%TO.C,R109*%
X39720000Y-47750000D03*
X44800000Y-47750000D03*
%TD*%
%TO.C,R130*%
X47400000Y-90930000D03*
X52480000Y-90930000D03*
%TD*%
D12*
%TO.C,Q61*%
X21760000Y-73150000D03*
D13*
X19220000Y-73150000D03*
X16680000Y-73150000D03*
%TD*%
D10*
%TO.C,D494*%
X164610000Y-76800000D03*
D11*
X164610000Y-79340000D03*
%TD*%
D12*
%TO.C,Q335*%
X193560000Y-241200000D03*
D13*
X191020000Y-241200000D03*
X188480000Y-241200000D03*
%TD*%
D10*
%TO.C,D323*%
X146830000Y-26000000D03*
D11*
X146830000Y-28540000D03*
%TD*%
D12*
%TO.C,Q495*%
X208920000Y-182780000D03*
D13*
X206380000Y-182780000D03*
X203840000Y-182780000D03*
%TD*%
D11*
%TO.C,R293*%
X62760000Y-81785000D03*
X67840000Y-81785000D03*
%TD*%
D10*
%TO.C,D42*%
X113810000Y-117440000D03*
D11*
X113810000Y-119980000D03*
%TD*%
D12*
%TO.C,Q59*%
X21760000Y-59815000D03*
D13*
X19220000Y-59815000D03*
X16680000Y-59815000D03*
%TD*%
D11*
%TO.C,R99*%
X32040000Y-145540000D03*
X37120000Y-145540000D03*
%TD*%
D10*
%TO.C,D95*%
X121430000Y-36160000D03*
D11*
X121430000Y-38700000D03*
%TD*%
D10*
%TO.C,D318*%
X144290000Y-117440000D03*
D11*
X144290000Y-119980000D03*
%TD*%
D10*
%TO.C,D93*%
X121430000Y-26000000D03*
D11*
X121430000Y-28540000D03*
%TD*%
D10*
%TO.C,D107*%
X121430000Y-97120000D03*
D11*
X121430000Y-99660000D03*
%TD*%
D10*
%TO.C,D305*%
X144290000Y-51400000D03*
D11*
X144290000Y-53940000D03*
%TD*%
D12*
%TO.C,Q250*%
X55080000Y-220470000D03*
D13*
X57620000Y-220470000D03*
X60160000Y-220470000D03*
%TD*%
D11*
%TO.C,R117*%
X39720000Y-149350000D03*
X44800000Y-149350000D03*
%TD*%
D10*
%TO.C,D1004*%
X220490000Y-97120000D03*
D11*
X220490000Y-99660000D03*
%TD*%
D10*
%TO.C,D938*%
X212870000Y-112360000D03*
D11*
X212870000Y-114900000D03*
%TD*%
D12*
%TO.C,Q207*%
X52480000Y-153160000D03*
D13*
X49940000Y-153160000D03*
X47400000Y-153160000D03*
%TD*%
D12*
%TO.C,Q326*%
X180800000Y-234850000D03*
D13*
X183340000Y-234850000D03*
X185880000Y-234850000D03*
%TD*%
D12*
%TO.C,Q68*%
X21760000Y-121410000D03*
D13*
X19220000Y-121410000D03*
X16680000Y-121410000D03*
%TD*%
D12*
%TO.C,Q282*%
X134720000Y-230405000D03*
D13*
X137260000Y-230405000D03*
X139800000Y-230405000D03*
%TD*%
D10*
%TO.C,D496*%
X164610000Y-86960000D03*
D11*
X164610000Y-89500000D03*
%TD*%
D10*
%TO.C,D554*%
X172230000Y-31080000D03*
D11*
X172230000Y-33620000D03*
%TD*%
D10*
%TO.C,D48*%
X116350000Y-31080000D03*
D11*
X116350000Y-33620000D03*
%TD*%
D10*
%TO.C,D577*%
X174770000Y-31080000D03*
D11*
X174770000Y-33620000D03*
%TD*%
D12*
%TO.C,Q163*%
X39720000Y-92200000D03*
D13*
X42260000Y-92200000D03*
X44800000Y-92200000D03*
%TD*%
D10*
%TO.C,D135*%
X123970000Y-122520000D03*
D11*
X123970000Y-125060000D03*
%TD*%
D10*
%TO.C,D257*%
X139210000Y-41240000D03*
D11*
X139210000Y-43780000D03*
%TD*%
D10*
%TO.C,D225*%
X134130000Y-112360000D03*
D11*
X134130000Y-114900000D03*
%TD*%
D10*
%TO.C,D736*%
X190010000Y-137760000D03*
D11*
X190010000Y-140300000D03*
%TD*%
D12*
%TO.C,Q77*%
X21760000Y-179830000D03*
D13*
X19220000Y-179830000D03*
X16680000Y-179830000D03*
%TD*%
D11*
%TO.C,R208*%
X203840000Y-210720000D03*
X208920000Y-210720000D03*
%TD*%
D12*
%TO.C,Q437*%
X134720000Y-193575000D03*
D13*
X137260000Y-193575000D03*
X139800000Y-193575000D03*
%TD*%
D11*
%TO.C,R300*%
X93480000Y-114805000D03*
X98560000Y-114805000D03*
%TD*%
D12*
%TO.C,Q419*%
X119360000Y-193575000D03*
D13*
X121900000Y-193575000D03*
X124440000Y-193575000D03*
%TD*%
D10*
%TO.C,D2*%
X111270000Y-31080000D03*
D11*
X111270000Y-33620000D03*
%TD*%
D12*
%TO.C,Q63*%
X21760000Y-86485000D03*
D13*
X19220000Y-86485000D03*
X16680000Y-86485000D03*
%TD*%
D10*
%TO.C,D186*%
X131590000Y-31080000D03*
D11*
X131590000Y-33620000D03*
%TD*%
D12*
%TO.C,Q184*%
X39720000Y-233805000D03*
D13*
X42260000Y-233805000D03*
X44800000Y-233805000D03*
%TD*%
D10*
%TO.C,D629*%
X179850000Y-61560000D03*
D11*
X179850000Y-64100000D03*
%TD*%
D12*
%TO.C,Q530*%
X70440000Y-36700000D03*
D13*
X72980000Y-36700000D03*
X75520000Y-36700000D03*
%TD*%
D12*
%TO.C,Q231*%
X55080000Y-92200000D03*
D13*
X57620000Y-92200000D03*
X60160000Y-92200000D03*
%TD*%
D10*
%TO.C,D1031*%
X223030000Y-117440000D03*
D11*
X223030000Y-119980000D03*
%TD*%
D12*
%TO.C,Q371*%
X226880000Y-161825000D03*
D13*
X229420000Y-161825000D03*
X231960000Y-161825000D03*
%TD*%
D11*
%TO.C,R1*%
X227300000Y-26000000D03*
X232380000Y-26000000D03*
%TD*%
D10*
%TO.C,D869*%
X205250000Y-112360000D03*
D11*
X205250000Y-114900000D03*
%TD*%
D12*
%TO.C,Q561*%
X85800000Y-117980000D03*
D13*
X88340000Y-117980000D03*
X90880000Y-117980000D03*
%TD*%
D11*
%TO.C,R70*%
X24360000Y-34415000D03*
X29440000Y-34415000D03*
%TD*%
D12*
%TO.C,Q134*%
X37120000Y-127760000D03*
D13*
X34580000Y-127760000D03*
X32040000Y-127760000D03*
%TD*%
D11*
%TO.C,R28*%
X226880000Y-165635000D03*
X231960000Y-165635000D03*
%TD*%
D10*
%TO.C,D486*%
X164610000Y-36160000D03*
D11*
X164610000Y-38700000D03*
%TD*%
D10*
%TO.C,D25*%
X113810000Y-31080000D03*
D11*
X113810000Y-33620000D03*
%TD*%
D10*
%TO.C,D429*%
X156990000Y-97120000D03*
D11*
X156990000Y-99660000D03*
%TD*%
%TO.C,R30*%
X226880000Y-187225000D03*
X231960000Y-187225000D03*
%TD*%
D10*
%TO.C,D8*%
X111270000Y-61560000D03*
D11*
X111270000Y-64100000D03*
%TD*%
D10*
%TO.C,D10*%
X111270000Y-71720000D03*
D11*
X111270000Y-74260000D03*
%TD*%
D12*
%TO.C,Q428*%
X132120000Y-192940000D03*
D13*
X129580000Y-192940000D03*
X127040000Y-192940000D03*
%TD*%
D10*
%TO.C,D360*%
X149370000Y-97120000D03*
D11*
X149370000Y-99660000D03*
%TD*%
D10*
%TO.C,D370*%
X151910000Y-31080000D03*
D11*
X151910000Y-33620000D03*
%TD*%
%TO.C,R149*%
X55080000Y-127760000D03*
X60160000Y-127760000D03*
%TD*%
%TO.C,R255*%
X157760000Y-165635000D03*
X162840000Y-165635000D03*
%TD*%
D10*
%TO.C,D821*%
X200170000Y-102200000D03*
D11*
X200170000Y-104740000D03*
%TD*%
D10*
%TO.C,D912*%
X210330000Y-97120000D03*
D11*
X210330000Y-99660000D03*
%TD*%
%TO.C,R187*%
X165440000Y-205640000D03*
X170520000Y-205640000D03*
%TD*%
D10*
%TO.C,D1012*%
X220490000Y-137760000D03*
D11*
X220490000Y-140300000D03*
%TD*%
%TO.C,R23*%
X227300000Y-137760000D03*
X232380000Y-137760000D03*
%TD*%
D10*
%TO.C,D709*%
X187470000Y-117440000D03*
D11*
X187470000Y-119980000D03*
%TD*%
D12*
%TO.C,Q446*%
X147480000Y-192940000D03*
D13*
X144940000Y-192940000D03*
X142400000Y-192940000D03*
%TD*%
D12*
%TO.C,Q285*%
X147480000Y-211355000D03*
D13*
X144940000Y-211355000D03*
X142400000Y-211355000D03*
%TD*%
D12*
%TO.C,Q584*%
X83200000Y-67815000D03*
D13*
X80660000Y-67815000D03*
X78120000Y-67815000D03*
%TD*%
D12*
%TO.C,Q103*%
X24360000Y-143635000D03*
D13*
X26900000Y-143635000D03*
X29440000Y-143635000D03*
%TD*%
D12*
%TO.C,Q574*%
X70440000Y-99565000D03*
D13*
X72980000Y-99565000D03*
X75520000Y-99565000D03*
%TD*%
D11*
%TO.C,R175*%
X142400000Y-207545000D03*
X147480000Y-207545000D03*
%TD*%
%TO.C,R163*%
X111680000Y-207545000D03*
X116760000Y-207545000D03*
%TD*%
D10*
%TO.C,D96*%
X121430000Y-41240000D03*
D11*
X121430000Y-43780000D03*
%TD*%
%TO.C,R268*%
X188480000Y-178970000D03*
X193560000Y-178970000D03*
%TD*%
D10*
%TO.C,D309*%
X144290000Y-71720000D03*
D11*
X144290000Y-74260000D03*
%TD*%
D10*
%TO.C,D380*%
X151910000Y-81880000D03*
D11*
X151910000Y-84420000D03*
%TD*%
D10*
%TO.C,D708*%
X187470000Y-112360000D03*
D11*
X187470000Y-114900000D03*
%TD*%
D10*
%TO.C,D156*%
X126510000Y-112360000D03*
D11*
X126510000Y-114900000D03*
%TD*%
D10*
%TO.C,D774*%
X195090000Y-97120000D03*
D11*
X195090000Y-99660000D03*
%TD*%
D10*
%TO.C,D259*%
X139210000Y-51400000D03*
D11*
X139210000Y-53940000D03*
%TD*%
D10*
%TO.C,D692*%
X187470000Y-31080000D03*
D11*
X187470000Y-33620000D03*
%TD*%
D10*
%TO.C,D769*%
X195090000Y-71720000D03*
D11*
X195090000Y-74260000D03*
%TD*%
D10*
%TO.C,D181*%
X129050000Y-122520000D03*
D11*
X129050000Y-125060000D03*
%TD*%
D12*
%TO.C,Q127*%
X37120000Y-76325000D03*
D13*
X34580000Y-76325000D03*
X32040000Y-76325000D03*
%TD*%
D10*
%TO.C,D928*%
X212870000Y-61560000D03*
D11*
X212870000Y-64100000D03*
%TD*%
D10*
%TO.C,D619*%
X177310000Y-127600000D03*
D11*
X177310000Y-130140000D03*
%TD*%
D19*
%TO.C,C2*%
X231200000Y-10500000D03*
D11*
X231200000Y-8500000D03*
%TD*%
D10*
%TO.C,D434*%
X156990000Y-122520000D03*
D11*
X156990000Y-125060000D03*
%TD*%
%TO.C,R154*%
X55080000Y-194435000D03*
X60160000Y-194435000D03*
%TD*%
D10*
%TO.C,D209*%
X134130000Y-31080000D03*
D11*
X134130000Y-33620000D03*
%TD*%
%TO.C,R254*%
X157760000Y-152300000D03*
X162840000Y-152300000D03*
%TD*%
D10*
%TO.C,D153*%
X126510000Y-97120000D03*
D11*
X126510000Y-99660000D03*
%TD*%
D12*
%TO.C,Q503*%
X211520000Y-185320000D03*
D13*
X214060000Y-185320000D03*
X216600000Y-185320000D03*
%TD*%
D10*
%TO.C,D672*%
X184930000Y-46320000D03*
D11*
X184930000Y-48860000D03*
%TD*%
D10*
%TO.C,D409*%
X154450000Y-112360000D03*
D11*
X154450000Y-114900000D03*
%TD*%
D12*
%TO.C,Q205*%
X52480000Y-139825000D03*
D13*
X49940000Y-139825000D03*
X47400000Y-139825000D03*
%TD*%
D10*
%TO.C,D550*%
X169690000Y-127600000D03*
D11*
X169690000Y-130140000D03*
%TD*%
D10*
%TO.C,D274*%
X139210000Y-127600000D03*
D11*
X139210000Y-130140000D03*
%TD*%
D12*
%TO.C,Q355*%
X211520000Y-243740000D03*
D13*
X214060000Y-243740000D03*
X216600000Y-243740000D03*
%TD*%
D10*
%TO.C,D662*%
X182390000Y-112360000D03*
D11*
X182390000Y-114900000D03*
%TD*%
D10*
%TO.C,D122*%
X123970000Y-56480000D03*
D11*
X123970000Y-59020000D03*
%TD*%
D10*
%TO.C,D564*%
X172230000Y-81880000D03*
D11*
X172230000Y-84420000D03*
%TD*%
D10*
%TO.C,D18*%
X111270000Y-112360000D03*
D11*
X111270000Y-114900000D03*
%TD*%
%TO.C,R153*%
X55080000Y-176020000D03*
X60160000Y-176020000D03*
%TD*%
D10*
%TO.C,D894*%
X207790000Y-122520000D03*
D11*
X207790000Y-125060000D03*
%TD*%
%TO.C,R216*%
X219200000Y-192305000D03*
X224280000Y-192305000D03*
%TD*%
D10*
%TO.C,D1003*%
X220490000Y-92040000D03*
D11*
X220490000Y-94580000D03*
%TD*%
D12*
%TO.C,Q366*%
X224280000Y-222785000D03*
D13*
X221740000Y-222785000D03*
X219200000Y-222785000D03*
%TD*%
D10*
%TO.C,D838*%
X202710000Y-71720000D03*
D11*
X202710000Y-74260000D03*
%TD*%
D10*
%TO.C,D351*%
X149370000Y-51400000D03*
D11*
X149370000Y-53940000D03*
%TD*%
D10*
%TO.C,D870*%
X205250000Y-117440000D03*
D11*
X205250000Y-119980000D03*
%TD*%
%TO.C,R145*%
X55080000Y-69340000D03*
X60160000Y-69340000D03*
%TD*%
D10*
%TO.C,D524*%
X167150000Y-112360000D03*
D11*
X167150000Y-114900000D03*
%TD*%
D10*
%TO.C,D705*%
X187470000Y-97120000D03*
D11*
X187470000Y-99660000D03*
%TD*%
D10*
%TO.C,D37*%
X113810000Y-92040000D03*
D11*
X113810000Y-94580000D03*
%TD*%
D10*
%TO.C,D763*%
X195090000Y-41240000D03*
D11*
X195090000Y-43780000D03*
%TD*%
D12*
%TO.C,Q372*%
X67840000Y-128775000D03*
D13*
X65300000Y-128775000D03*
X62760000Y-128775000D03*
%TD*%
D11*
%TO.C,R123*%
X39720000Y-229360000D03*
X44800000Y-229360000D03*
%TD*%
D15*
%TO.C,D1049*%
X80660000Y-109090000D03*
D16*
X80660000Y-106550000D03*
%TD*%
D10*
%TO.C,D721*%
X190010000Y-61560000D03*
D11*
X190010000Y-64100000D03*
%TD*%
D12*
%TO.C,Q66*%
X21760000Y-108075000D03*
D13*
X19220000Y-108075000D03*
X16680000Y-108075000D03*
%TD*%
D12*
%TO.C,Q233*%
X55080000Y-105535000D03*
D13*
X57620000Y-105535000D03*
X60160000Y-105535000D03*
%TD*%
D10*
%TO.C,D725*%
X190010000Y-81880000D03*
D11*
X190010000Y-84420000D03*
%TD*%
D12*
%TO.C,Q551*%
X98560000Y-209420000D03*
D13*
X96020000Y-209420000D03*
X93480000Y-209420000D03*
%TD*%
D10*
%TO.C,D977*%
X217950000Y-76800000D03*
D11*
X217950000Y-79340000D03*
%TD*%
D10*
%TO.C,D473*%
X162070000Y-86960000D03*
D11*
X162070000Y-89500000D03*
%TD*%
D12*
%TO.C,Q222*%
X55080000Y-33780000D03*
D13*
X57620000Y-33780000D03*
X60160000Y-33780000D03*
%TD*%
D12*
%TO.C,Q567*%
X85800000Y-157985000D03*
D13*
X88340000Y-157985000D03*
X90880000Y-157985000D03*
%TD*%
D10*
%TO.C,D949*%
X215410000Y-51400000D03*
D11*
X215410000Y-53940000D03*
%TD*%
D10*
%TO.C,D491*%
X164610000Y-61560000D03*
D11*
X164610000Y-64100000D03*
%TD*%
D10*
%TO.C,D606*%
X177310000Y-61560000D03*
D11*
X177310000Y-64100000D03*
%TD*%
D10*
%TO.C,D459*%
X159530000Y-132680000D03*
D11*
X159530000Y-135220000D03*
%TD*%
%TO.C,R140*%
X47400000Y-224280000D03*
X52480000Y-224280000D03*
%TD*%
D10*
%TO.C,D279*%
X141750000Y-36160000D03*
D11*
X141750000Y-38700000D03*
%TD*%
D12*
%TO.C,Q25*%
X9000000Y-60450000D03*
D13*
X11540000Y-60450000D03*
X14080000Y-60450000D03*
%TD*%
D12*
%TO.C,Q214*%
X52480000Y-201420000D03*
D13*
X49940000Y-201420000D03*
X47400000Y-201420000D03*
%TD*%
D12*
%TO.C,Q463*%
X165440000Y-170080000D03*
D13*
X167980000Y-170080000D03*
X170520000Y-170080000D03*
%TD*%
D11*
%TO.C,R160*%
X104000000Y-215800000D03*
X109080000Y-215800000D03*
%TD*%
D10*
%TO.C,D389*%
X151910000Y-127600000D03*
D11*
X151910000Y-130140000D03*
%TD*%
D10*
%TO.C,D202*%
X131590000Y-112360000D03*
D11*
X131590000Y-114900000D03*
%TD*%
D10*
%TO.C,D390*%
X151910000Y-132680000D03*
D11*
X151910000Y-135220000D03*
%TD*%
%TO.C,R249*%
X142400000Y-170715000D03*
X147480000Y-170715000D03*
%TD*%
%TO.C,R36*%
X9000000Y-37590000D03*
X14080000Y-37590000D03*
%TD*%
D10*
%TO.C,D146*%
X126510000Y-61560000D03*
D11*
X126510000Y-64100000D03*
%TD*%
D10*
%TO.C,D287*%
X141750000Y-76800000D03*
D11*
X141750000Y-79340000D03*
%TD*%
D10*
%TO.C,D648*%
X182390000Y-41240000D03*
D11*
X182390000Y-43780000D03*
%TD*%
D10*
%TO.C,D850*%
X202710000Y-132680000D03*
D11*
X202710000Y-135220000D03*
%TD*%
D12*
%TO.C,Q416*%
X119360000Y-175160000D03*
D13*
X121900000Y-175160000D03*
X124440000Y-175160000D03*
%TD*%
D10*
%TO.C,D192*%
X131590000Y-61560000D03*
D11*
X131590000Y-64100000D03*
%TD*%
D12*
%TO.C,Q321*%
X180800000Y-196750000D03*
D13*
X183340000Y-196750000D03*
X185880000Y-196750000D03*
%TD*%
D10*
%TO.C,D462*%
X162070000Y-31080000D03*
D11*
X162070000Y-33620000D03*
%TD*%
D10*
%TO.C,D593*%
X174770000Y-112360000D03*
D11*
X174770000Y-114900000D03*
%TD*%
D10*
%TO.C,D492*%
X164610000Y-66640000D03*
D11*
X164610000Y-69180000D03*
%TD*%
D12*
%TO.C,Q571*%
X85800000Y-184655000D03*
D13*
X88340000Y-184655000D03*
X90880000Y-184655000D03*
%TD*%
D12*
%TO.C,Q235*%
X55080000Y-118870000D03*
D13*
X57620000Y-118870000D03*
X60160000Y-118870000D03*
%TD*%
D11*
%TO.C,R29*%
X226880000Y-178970000D03*
X231960000Y-178970000D03*
%TD*%
D10*
%TO.C,D68*%
X116350000Y-132680000D03*
D11*
X116350000Y-135220000D03*
%TD*%
D10*
%TO.C,D1009*%
X220490000Y-122520000D03*
D11*
X220490000Y-125060000D03*
%TD*%
D10*
%TO.C,D739*%
X192550000Y-36160000D03*
D11*
X192550000Y-38700000D03*
%TD*%
D10*
%TO.C,D200*%
X131590000Y-102200000D03*
D11*
X131590000Y-104740000D03*
%TD*%
D10*
%TO.C,D1023*%
X223030000Y-76800000D03*
D11*
X223030000Y-79340000D03*
%TD*%
D12*
%TO.C,Q241*%
X55080000Y-158875000D03*
D13*
X57620000Y-158875000D03*
X60160000Y-158875000D03*
%TD*%
D10*
%TO.C,D94*%
X121430000Y-31080000D03*
D11*
X121430000Y-33620000D03*
%TD*%
D10*
%TO.C,D731*%
X190010000Y-112360000D03*
D11*
X190010000Y-114900000D03*
%TD*%
D12*
%TO.C,Q258*%
X104000000Y-220245000D03*
D13*
X106540000Y-220245000D03*
X109080000Y-220245000D03*
%TD*%
D11*
%TO.C,R227*%
X62760000Y-194815000D03*
X67840000Y-194815000D03*
%TD*%
D12*
%TO.C,Q544*%
X85800000Y-36700000D03*
D13*
X88340000Y-36700000D03*
X90880000Y-36700000D03*
%TD*%
D11*
%TO.C,R290*%
X93480000Y-73530000D03*
X98560000Y-73530000D03*
%TD*%
D12*
%TO.C,Q364*%
X224280000Y-209450000D03*
D13*
X221740000Y-209450000D03*
X219200000Y-209450000D03*
%TD*%
D10*
%TO.C,D531*%
X169690000Y-31080000D03*
D11*
X169690000Y-33620000D03*
%TD*%
D10*
%TO.C,D381*%
X151910000Y-86960000D03*
D11*
X151910000Y-89500000D03*
%TD*%
D12*
%TO.C,Q249*%
X55080000Y-212215000D03*
D13*
X57620000Y-212215000D03*
X60160000Y-212215000D03*
%TD*%
D12*
%TO.C,Q187*%
X52480000Y-19810000D03*
D13*
X49940000Y-19810000D03*
X47400000Y-19810000D03*
%TD*%
D12*
%TO.C,Q108*%
X24360000Y-175385000D03*
D13*
X26900000Y-175385000D03*
X29440000Y-175385000D03*
%TD*%
D12*
%TO.C,Q212*%
X52480000Y-188085000D03*
D13*
X49940000Y-188085000D03*
X47400000Y-188085000D03*
%TD*%
D12*
%TO.C,Q104*%
X24360000Y-148715000D03*
D13*
X26900000Y-148715000D03*
X29440000Y-148715000D03*
%TD*%
D11*
%TO.C,R307*%
X78120000Y-32255000D03*
X83200000Y-32255000D03*
%TD*%
D10*
%TO.C,D67*%
X116350000Y-127600000D03*
D11*
X116350000Y-130140000D03*
%TD*%
D10*
%TO.C,D235*%
X136670000Y-46320000D03*
D11*
X136670000Y-48860000D03*
%TD*%
D10*
%TO.C,D988*%
X217950000Y-132680000D03*
D11*
X217950000Y-135220000D03*
%TD*%
D10*
%TO.C,D239*%
X136670000Y-66640000D03*
D11*
X136670000Y-69180000D03*
%TD*%
D12*
%TO.C,Q512*%
X67840000Y-44320000D03*
D13*
X65300000Y-44320000D03*
X62760000Y-44320000D03*
%TD*%
D11*
%TO.C,R287*%
X62760000Y-57020000D03*
X67840000Y-57020000D03*
%TD*%
D12*
%TO.C,Q135*%
X37120000Y-132840000D03*
D13*
X34580000Y-132840000D03*
X32040000Y-132840000D03*
%TD*%
D10*
%TO.C,D321*%
X144290000Y-132680000D03*
D11*
X144290000Y-135220000D03*
%TD*%
%TO.C,R217*%
X219200000Y-205640000D03*
X224280000Y-205640000D03*
%TD*%
D12*
%TO.C,Q114*%
X24360000Y-215390000D03*
D13*
X26900000Y-215390000D03*
X29440000Y-215390000D03*
%TD*%
D12*
%TO.C,Q277*%
X132120000Y-238025000D03*
D13*
X129580000Y-238025000D03*
X127040000Y-238025000D03*
%TD*%
D10*
%TO.C,D363*%
X149370000Y-112360000D03*
D11*
X149370000Y-114900000D03*
%TD*%
%TO.C,R212*%
X211520000Y-234215000D03*
X216600000Y-234215000D03*
%TD*%
%TO.C,R31*%
X226880000Y-200560000D03*
X231960000Y-200560000D03*
%TD*%
D12*
%TO.C,Q90*%
X24360000Y-52195000D03*
D13*
X26900000Y-52195000D03*
X29440000Y-52195000D03*
%TD*%
D10*
%TO.C,D921*%
X212870000Y-26000000D03*
D11*
X212870000Y-28540000D03*
%TD*%
D10*
%TO.C,D700*%
X187470000Y-71720000D03*
D11*
X187470000Y-74260000D03*
%TD*%
D10*
%TO.C,D406*%
X154450000Y-97120000D03*
D11*
X154450000Y-99660000D03*
%TD*%
D10*
%TO.C,D633*%
X179850000Y-81880000D03*
D11*
X179850000Y-84420000D03*
%TD*%
D12*
%TO.C,Q537*%
X98560000Y-151635000D03*
D13*
X96020000Y-151635000D03*
X93480000Y-151635000D03*
%TD*%
D10*
%TO.C,D520*%
X167150000Y-92040000D03*
D11*
X167150000Y-94580000D03*
%TD*%
D10*
%TO.C,D306*%
X144290000Y-56480000D03*
D11*
X144290000Y-59020000D03*
%TD*%
D10*
%TO.C,D880*%
X207790000Y-51400000D03*
D11*
X207790000Y-53940000D03*
%TD*%
%TO.C,R349*%
X78120000Y-102740000D03*
X83200000Y-102740000D03*
%TD*%
D10*
%TO.C,D851*%
X202710000Y-137760000D03*
D11*
X202710000Y-140300000D03*
%TD*%
%TO.C,R296*%
X93480000Y-98295000D03*
X98560000Y-98295000D03*
%TD*%
D10*
%TO.C,D922*%
X212870000Y-31080000D03*
D11*
X212870000Y-33620000D03*
%TD*%
D12*
%TO.C,Q12*%
X226880000Y-205005000D03*
D13*
X229420000Y-205005000D03*
X231960000Y-205005000D03*
%TD*%
D10*
%TO.C,D707*%
X187470000Y-107280000D03*
D11*
X187470000Y-109820000D03*
%TD*%
D12*
%TO.C,Q407*%
X116760000Y-174525000D03*
D13*
X114220000Y-174525000D03*
X111680000Y-174525000D03*
%TD*%
D10*
%TO.C,D276*%
X139210000Y-137760000D03*
D11*
X139210000Y-140300000D03*
%TD*%
D12*
%TO.C,Q283*%
X134720000Y-238660000D03*
D13*
X137260000Y-238660000D03*
X139800000Y-238660000D03*
%TD*%
D12*
%TO.C,Q526*%
X67840000Y-102105000D03*
D13*
X65300000Y-102105000D03*
X62760000Y-102105000D03*
%TD*%
D12*
%TO.C,Q164*%
X39720000Y-100455000D03*
D13*
X42260000Y-100455000D03*
X44800000Y-100455000D03*
%TD*%
D12*
%TO.C,Q292*%
X150080000Y-201830000D03*
D13*
X152620000Y-201830000D03*
X155160000Y-201830000D03*
%TD*%
D10*
%TO.C,D600*%
X177310000Y-31080000D03*
D11*
X177310000Y-33620000D03*
%TD*%
D10*
%TO.C,D89*%
X118890000Y-122520000D03*
D11*
X118890000Y-125060000D03*
%TD*%
D10*
%TO.C,D657*%
X182390000Y-86960000D03*
D11*
X182390000Y-89500000D03*
%TD*%
D12*
%TO.C,Q92*%
X24360000Y-65530000D03*
D13*
X26900000Y-65530000D03*
X29440000Y-65530000D03*
%TD*%
D10*
%TO.C,D426*%
X156990000Y-81880000D03*
D11*
X156990000Y-84420000D03*
%TD*%
D10*
%TO.C,D267*%
X139210000Y-92040000D03*
D11*
X139210000Y-94580000D03*
%TD*%
%TO.C,R151*%
X55080000Y-149350000D03*
X60160000Y-149350000D03*
%TD*%
%TO.C,R201*%
X188480000Y-218975000D03*
X193560000Y-218975000D03*
%TD*%
D12*
%TO.C,Q457*%
X162840000Y-169445000D03*
D13*
X160300000Y-169445000D03*
X157760000Y-169445000D03*
%TD*%
D10*
%TO.C,D624*%
X179850000Y-36160000D03*
D11*
X179850000Y-38700000D03*
%TD*%
D10*
%TO.C,D820*%
X200170000Y-97120000D03*
D11*
X200170000Y-99660000D03*
%TD*%
D12*
%TO.C,Q204*%
X52480000Y-134745000D03*
D13*
X49940000Y-134745000D03*
X47400000Y-134745000D03*
%TD*%
D12*
%TO.C,Q579*%
X70440000Y-175765000D03*
D13*
X72980000Y-175765000D03*
X75520000Y-175765000D03*
%TD*%
D10*
%TO.C,D794*%
X197630000Y-81880000D03*
D11*
X197630000Y-84420000D03*
%TD*%
D10*
%TO.C,D134*%
X123970000Y-117440000D03*
D11*
X123970000Y-119980000D03*
%TD*%
D10*
%TO.C,D474*%
X162070000Y-92040000D03*
D11*
X162070000Y-94580000D03*
%TD*%
%TO.C,R173*%
X134720000Y-220880000D03*
X139800000Y-220880000D03*
%TD*%
D10*
%TO.C,D835*%
X202710000Y-56480000D03*
D11*
X202710000Y-59020000D03*
%TD*%
D10*
%TO.C,D781*%
X195090000Y-132680000D03*
D11*
X195090000Y-135220000D03*
%TD*%
D12*
%TO.C,Q420*%
X119360000Y-198655000D03*
D13*
X121900000Y-198655000D03*
X124440000Y-198655000D03*
%TD*%
D12*
%TO.C,Q216*%
X52480000Y-211580000D03*
D13*
X49940000Y-211580000D03*
X47400000Y-211580000D03*
%TD*%
D10*
%TO.C,D728*%
X190010000Y-97120000D03*
D11*
X190010000Y-99660000D03*
%TD*%
%TO.C,R246*%
X134720000Y-170715000D03*
X139800000Y-170715000D03*
%TD*%
D10*
%TO.C,D137*%
X123970000Y-132680000D03*
D11*
X123970000Y-135220000D03*
%TD*%
D10*
%TO.C,D806*%
X200170000Y-26000000D03*
D11*
X200170000Y-28540000D03*
%TD*%
D12*
%TO.C,Q315*%
X178200000Y-206275000D03*
D13*
X175660000Y-206275000D03*
X173120000Y-206275000D03*
%TD*%
D12*
%TO.C,Q464*%
X165440000Y-175160000D03*
D13*
X167980000Y-175160000D03*
X170520000Y-175160000D03*
%TD*%
D10*
%TO.C,D834*%
X202710000Y-51400000D03*
D11*
X202710000Y-53940000D03*
%TD*%
%TO.C,R171*%
X127040000Y-234215000D03*
X132120000Y-234215000D03*
%TD*%
D12*
%TO.C,Q30*%
X9000000Y-95375000D03*
D13*
X11540000Y-95375000D03*
X14080000Y-95375000D03*
%TD*%
D11*
%TO.C,R90*%
X32040000Y-50925000D03*
X37120000Y-50925000D03*
%TD*%
D10*
%TO.C,D981*%
X217950000Y-97120000D03*
D11*
X217950000Y-99660000D03*
%TD*%
D15*
%TO.C,D1044*%
X72980000Y-217040000D03*
D16*
X72980000Y-214500000D03*
%TD*%
D10*
%TO.C,D744*%
X192550000Y-61560000D03*
D11*
X192550000Y-64100000D03*
%TD*%
%TO.C,R332*%
X85800000Y-148460000D03*
X90880000Y-148460000D03*
%TD*%
D10*
%TO.C,D827*%
X200170000Y-132680000D03*
D11*
X200170000Y-135220000D03*
%TD*%
%TO.C,R320*%
X93480000Y-197355000D03*
X98560000Y-197355000D03*
%TD*%
%TO.C,R93*%
X32040000Y-80770000D03*
X37120000Y-80770000D03*
%TD*%
%TO.C,R269*%
X196160000Y-152300000D03*
X201240000Y-152300000D03*
%TD*%
D10*
%TO.C,D901*%
X210330000Y-41240000D03*
D11*
X210330000Y-43780000D03*
%TD*%
D10*
%TO.C,D971*%
X217950000Y-46320000D03*
D11*
X217950000Y-48860000D03*
%TD*%
%TO.C,R345*%
X70440000Y-225930000D03*
X75520000Y-225930000D03*
%TD*%
D10*
%TO.C,D393*%
X154450000Y-31080000D03*
D11*
X154450000Y-33620000D03*
%TD*%
D10*
%TO.C,D992*%
X220490000Y-36160000D03*
D11*
X220490000Y-38700000D03*
%TD*%
%TO.C,R33*%
X226880000Y-227230000D03*
X231960000Y-227230000D03*
%TD*%
%TO.C,R218*%
X219200000Y-218975000D03*
X224280000Y-218975000D03*
%TD*%
D12*
%TO.C,Q122*%
X37120000Y-38225000D03*
D13*
X34580000Y-38225000D03*
X32040000Y-38225000D03*
%TD*%
D12*
%TO.C,Q244*%
X55080000Y-180465000D03*
D13*
X57620000Y-180465000D03*
X60160000Y-180465000D03*
%TD*%
D12*
%TO.C,Q136*%
X37120000Y-141095000D03*
D13*
X34580000Y-141095000D03*
X32040000Y-141095000D03*
%TD*%
D12*
%TO.C,Q93*%
X24360000Y-73785000D03*
D13*
X26900000Y-73785000D03*
X29440000Y-73785000D03*
%TD*%
D15*
%TO.C,D1052*%
X80660000Y-154810000D03*
D16*
X80660000Y-152270000D03*
%TD*%
D12*
%TO.C,Q149*%
X37120000Y-229360000D03*
D13*
X34580000Y-229360000D03*
X32040000Y-229360000D03*
%TD*%
D10*
%TO.C,D627*%
X179850000Y-51400000D03*
D11*
X179850000Y-53940000D03*
%TD*%
D12*
%TO.C,Q13*%
X226880000Y-210085000D03*
D13*
X229420000Y-210085000D03*
X231960000Y-210085000D03*
%TD*%
D12*
%TO.C,Q325*%
X180800000Y-226595000D03*
D13*
X183340000Y-226595000D03*
X185880000Y-226595000D03*
%TD*%
D12*
%TO.C,Q410*%
X116760000Y-192940000D03*
D13*
X114220000Y-192940000D03*
X111680000Y-192940000D03*
%TD*%
D11*
%TO.C,R274*%
X203840000Y-178970000D03*
X208920000Y-178970000D03*
%TD*%
D12*
%TO.C,Q270*%
X119360000Y-230405000D03*
D13*
X121900000Y-230405000D03*
X124440000Y-230405000D03*
%TD*%
D10*
%TO.C,D232*%
X136670000Y-31080000D03*
D11*
X136670000Y-33620000D03*
%TD*%
%TO.C,R220*%
X226880000Y-152300000D03*
X231960000Y-152300000D03*
%TD*%
D10*
%TO.C,D974*%
X217950000Y-61560000D03*
D11*
X217950000Y-64100000D03*
%TD*%
D12*
%TO.C,Q460*%
X162840000Y-187860000D03*
D13*
X160300000Y-187860000D03*
X157760000Y-187860000D03*
%TD*%
D10*
%TO.C,D105*%
X121430000Y-86960000D03*
D11*
X121430000Y-89500000D03*
%TD*%
D12*
%TO.C,Q186*%
X39720000Y-243965000D03*
D13*
X42260000Y-243965000D03*
X44800000Y-243965000D03*
%TD*%
D10*
%TO.C,D965*%
X215410000Y-132680000D03*
D11*
X215410000Y-135220000D03*
%TD*%
D12*
%TO.C,Q142*%
X37120000Y-184275000D03*
D13*
X34580000Y-184275000D03*
X32040000Y-184275000D03*
%TD*%
D10*
%TO.C,D863*%
X205250000Y-81880000D03*
D11*
X205250000Y-84420000D03*
%TD*%
D12*
%TO.C,Q50*%
X9000000Y-228725000D03*
D13*
X11540000Y-228725000D03*
X14080000Y-228725000D03*
%TD*%
D11*
%TO.C,R108*%
X39720000Y-29335000D03*
X44800000Y-29335000D03*
%TD*%
D10*
%TO.C,D809*%
X200170000Y-41240000D03*
D11*
X200170000Y-43780000D03*
%TD*%
%TO.C,R314*%
X93480000Y-172590000D03*
X98560000Y-172590000D03*
%TD*%
%TO.C,R119*%
X39720000Y-181100000D03*
X44800000Y-181100000D03*
%TD*%
D10*
%TO.C,D512*%
X167150000Y-51400000D03*
D11*
X167150000Y-53940000D03*
%TD*%
D10*
%TO.C,D85*%
X118890000Y-102200000D03*
D11*
X118890000Y-104740000D03*
%TD*%
D12*
%TO.C,Q362*%
X224280000Y-196115000D03*
D13*
X221740000Y-196115000D03*
X219200000Y-196115000D03*
%TD*%
D12*
%TO.C,Q169*%
X39720000Y-132205000D03*
D13*
X42260000Y-132205000D03*
X44800000Y-132205000D03*
%TD*%
D10*
%TO.C,D489*%
X164610000Y-51400000D03*
D11*
X164610000Y-53940000D03*
%TD*%
D10*
%TO.C,D784*%
X197630000Y-31080000D03*
D11*
X197630000Y-33620000D03*
%TD*%
D12*
%TO.C,Q581*%
X70440000Y-206245000D03*
D13*
X72980000Y-206245000D03*
X75520000Y-206245000D03*
%TD*%
D11*
%TO.C,R19*%
X227300000Y-117440000D03*
X232380000Y-117440000D03*
%TD*%
D12*
%TO.C,Q432*%
X134720000Y-161825000D03*
D13*
X137260000Y-161825000D03*
X139800000Y-161825000D03*
%TD*%
D12*
%TO.C,Q536*%
X83200000Y-36065000D03*
D13*
X80660000Y-36065000D03*
X78120000Y-36065000D03*
%TD*%
D10*
%TO.C,D953*%
X215410000Y-71720000D03*
D11*
X215410000Y-74260000D03*
%TD*%
D12*
%TO.C,Q345*%
X208920000Y-206275000D03*
D13*
X206380000Y-206275000D03*
X203840000Y-206275000D03*
%TD*%
D12*
%TO.C,Q15*%
X226880000Y-223420000D03*
D13*
X229420000Y-223420000D03*
X231960000Y-223420000D03*
%TD*%
D12*
%TO.C,Q328*%
X193560000Y-196115000D03*
D13*
X191020000Y-196115000D03*
X188480000Y-196115000D03*
%TD*%
D12*
%TO.C,Q47*%
X9000000Y-210310000D03*
D13*
X11540000Y-210310000D03*
X14080000Y-210310000D03*
%TD*%
D12*
%TO.C,Q88*%
X24360000Y-38860000D03*
D13*
X26900000Y-38860000D03*
X29440000Y-38860000D03*
%TD*%
D11*
%TO.C,R295*%
X62760000Y-90040000D03*
X67840000Y-90040000D03*
%TD*%
D10*
%TO.C,D3*%
X111270000Y-36160000D03*
D11*
X111270000Y-38700000D03*
%TD*%
D10*
%TO.C,D211*%
X134130000Y-41240000D03*
D11*
X134130000Y-43780000D03*
%TD*%
%TO.C,R68*%
X16680000Y-219200000D03*
X21760000Y-219200000D03*
%TD*%
D10*
%TO.C,D534*%
X169690000Y-46320000D03*
D11*
X169690000Y-48860000D03*
%TD*%
%TO.C,R273*%
X203840000Y-165635000D03*
X208920000Y-165635000D03*
%TD*%
D12*
%TO.C,Q566*%
X85800000Y-152905000D03*
D13*
X88340000Y-152905000D03*
X90880000Y-152905000D03*
%TD*%
D11*
%TO.C,R272*%
X203840000Y-152300000D03*
X208920000Y-152300000D03*
%TD*%
D10*
%TO.C,D843*%
X202710000Y-97120000D03*
D11*
X202710000Y-99660000D03*
%TD*%
D10*
%TO.C,D284*%
X141750000Y-61560000D03*
D11*
X141750000Y-64100000D03*
%TD*%
%TO.C,R329*%
X85800000Y-108455000D03*
X90880000Y-108455000D03*
%TD*%
D10*
%TO.C,D241*%
X136670000Y-76800000D03*
D11*
X136670000Y-79340000D03*
%TD*%
D10*
%TO.C,D224*%
X134130000Y-107280000D03*
D11*
X134130000Y-109820000D03*
%TD*%
D10*
%TO.C,D804*%
X197630000Y-132680000D03*
D11*
X197630000Y-135220000D03*
%TD*%
D10*
%TO.C,D1033*%
X223030000Y-127600000D03*
D11*
X223030000Y-130140000D03*
%TD*%
%TO.C,R142*%
X55080000Y-29335000D03*
X60160000Y-29335000D03*
%TD*%
D10*
%TO.C,D729*%
X190010000Y-102200000D03*
D11*
X190010000Y-104740000D03*
%TD*%
D12*
%TO.C,Q423*%
X132120000Y-161190000D03*
D13*
X129580000Y-161190000D03*
X127040000Y-161190000D03*
%TD*%
D12*
%TO.C,Q176*%
X39720000Y-177290000D03*
D13*
X42260000Y-177290000D03*
X44800000Y-177290000D03*
%TD*%
D10*
%TO.C,D615*%
X177310000Y-107280000D03*
D11*
X177310000Y-109820000D03*
%TD*%
D10*
%TO.C,D194*%
X131590000Y-71720000D03*
D11*
X131590000Y-74260000D03*
%TD*%
D10*
%TO.C,D732*%
X190010000Y-117440000D03*
D11*
X190010000Y-119980000D03*
%TD*%
D10*
%TO.C,D983*%
X217950000Y-107280000D03*
D11*
X217950000Y-109820000D03*
%TD*%
%TO.C,R241*%
X119360000Y-189130000D03*
X124440000Y-189130000D03*
%TD*%
D12*
%TO.C,Q117*%
X24360000Y-236980000D03*
D13*
X26900000Y-236980000D03*
X29440000Y-236980000D03*
%TD*%
D11*
%TO.C,R209*%
X203840000Y-224055000D03*
X208920000Y-224055000D03*
%TD*%
D12*
%TO.C,Q146*%
X37120000Y-207770000D03*
D13*
X34580000Y-207770000D03*
X32040000Y-207770000D03*
%TD*%
D12*
%TO.C,Q28*%
X9000000Y-78865000D03*
D13*
X11540000Y-78865000D03*
X14080000Y-78865000D03*
%TD*%
D12*
%TO.C,Q166*%
X39720000Y-110615000D03*
D13*
X42260000Y-110615000D03*
X44800000Y-110615000D03*
%TD*%
D12*
%TO.C,Q331*%
X193560000Y-214530000D03*
D13*
X191020000Y-214530000D03*
X188480000Y-214530000D03*
%TD*%
D12*
%TO.C,Q62*%
X21760000Y-78230000D03*
D13*
X19220000Y-78230000D03*
X16680000Y-78230000D03*
%TD*%
D12*
%TO.C,Q582*%
X70440000Y-221485000D03*
D13*
X72980000Y-221485000D03*
X75520000Y-221485000D03*
%TD*%
D12*
%TO.C,Q308*%
X165440000Y-201830000D03*
D13*
X167980000Y-201830000D03*
X170520000Y-201830000D03*
%TD*%
D12*
%TO.C,Q492*%
X208920000Y-161190000D03*
D13*
X206380000Y-161190000D03*
X203840000Y-161190000D03*
%TD*%
D10*
%TO.C,D867*%
X205250000Y-102200000D03*
D11*
X205250000Y-104740000D03*
%TD*%
D12*
%TO.C,Q35*%
X9000000Y-130300000D03*
D13*
X11540000Y-130300000D03*
X14080000Y-130300000D03*
%TD*%
D15*
%TO.C,D1042*%
X72980000Y-186560000D03*
D16*
X72980000Y-184020000D03*
%TD*%
D12*
%TO.C,Q409*%
X116760000Y-184685000D03*
D13*
X114220000Y-184685000D03*
X111680000Y-184685000D03*
%TD*%
D12*
%TO.C,Q490*%
X196160000Y-188495000D03*
D13*
X198700000Y-188495000D03*
X201240000Y-188495000D03*
%TD*%
D12*
%TO.C,Q375*%
X67840000Y-150365000D03*
D13*
X65300000Y-150365000D03*
X62760000Y-150365000D03*
%TD*%
D11*
%TO.C,R122*%
X39720000Y-216025000D03*
X44800000Y-216025000D03*
%TD*%
D10*
%TO.C,D180*%
X129050000Y-117440000D03*
D11*
X129050000Y-119980000D03*
%TD*%
D12*
%TO.C,Q367*%
X224280000Y-227865000D03*
D13*
X221740000Y-227865000D03*
X219200000Y-227865000D03*
%TD*%
D10*
%TO.C,D991*%
X220490000Y-31080000D03*
D11*
X220490000Y-33620000D03*
%TD*%
D10*
%TO.C,D214*%
X134130000Y-56480000D03*
D11*
X134130000Y-59020000D03*
%TD*%
%TO.C,R55*%
X16680000Y-50925000D03*
X21760000Y-50925000D03*
%TD*%
%TO.C,C1*%
X236200000Y-10500000D03*
X236200000Y-8000000D03*
%TD*%
D12*
%TO.C,Q173*%
X39720000Y-158875000D03*
D13*
X42260000Y-158875000D03*
X44800000Y-158875000D03*
%TD*%
D12*
%TO.C,Q246*%
X55080000Y-190625000D03*
D13*
X57620000Y-190625000D03*
X60160000Y-190625000D03*
%TD*%
D12*
%TO.C,Q171*%
X39720000Y-145540000D03*
D13*
X42260000Y-145540000D03*
X44800000Y-145540000D03*
%TD*%
D12*
%TO.C,Q128*%
X37120000Y-84580000D03*
D13*
X34580000Y-84580000D03*
X32040000Y-84580000D03*
%TD*%
D10*
%TO.C,D207*%
X131590000Y-137760000D03*
D11*
X131590000Y-140300000D03*
%TD*%
D12*
%TO.C,Q412*%
X116760000Y-203100000D03*
D13*
X114220000Y-203100000D03*
X111680000Y-203100000D03*
%TD*%
D10*
%TO.C,D299*%
X141750000Y-137760000D03*
D11*
X141750000Y-140300000D03*
%TD*%
D10*
%TO.C,D602*%
X177310000Y-41240000D03*
D11*
X177310000Y-43780000D03*
%TD*%
D10*
%TO.C,D718*%
X190010000Y-46320000D03*
D11*
X190010000Y-48860000D03*
%TD*%
%TO.C,R37*%
X9000000Y-50925000D03*
X14080000Y-50925000D03*
%TD*%
D12*
%TO.C,Q42*%
X9000000Y-175385000D03*
D13*
X11540000Y-175385000D03*
X14080000Y-175385000D03*
%TD*%
D10*
%TO.C,D392*%
X154450000Y-26000000D03*
D11*
X154450000Y-28540000D03*
%TD*%
D10*
%TO.C,D571*%
X172230000Y-117440000D03*
D11*
X172230000Y-119980000D03*
%TD*%
D12*
%TO.C,Q261*%
X116760000Y-211355000D03*
D13*
X114220000Y-211355000D03*
X111680000Y-211355000D03*
%TD*%
D10*
%TO.C,D797*%
X197630000Y-97120000D03*
D11*
X197630000Y-99660000D03*
%TD*%
D12*
%TO.C,Q138*%
X37120000Y-157605000D03*
D13*
X34580000Y-157605000D03*
X32040000Y-157605000D03*
%TD*%
D10*
%TO.C,D585*%
X174770000Y-71720000D03*
D11*
X174770000Y-74260000D03*
%TD*%
D12*
%TO.C,Q590*%
X83200000Y-159255000D03*
D13*
X80660000Y-159255000D03*
X78120000Y-159255000D03*
%TD*%
D12*
%TO.C,Q133*%
X37120000Y-119505000D03*
D13*
X34580000Y-119505000D03*
X32040000Y-119505000D03*
%TD*%
D11*
%TO.C,R134*%
X47400000Y-149350000D03*
X52480000Y-149350000D03*
%TD*%
D15*
%TO.C,D1039*%
X72980000Y-140840000D03*
D16*
X72980000Y-138300000D03*
%TD*%
D10*
%TO.C,D597*%
X174770000Y-132680000D03*
D11*
X174770000Y-135220000D03*
%TD*%
D10*
%TO.C,D847*%
X202710000Y-117440000D03*
D11*
X202710000Y-119980000D03*
%TD*%
D10*
%TO.C,D477*%
X162070000Y-107280000D03*
D11*
X162070000Y-109820000D03*
%TD*%
D12*
%TO.C,Q513*%
X98560000Y-52575000D03*
D13*
X96020000Y-52575000D03*
X93480000Y-52575000D03*
%TD*%
D12*
%TO.C,Q501*%
X211520000Y-175160000D03*
D13*
X214060000Y-175160000D03*
X216600000Y-175160000D03*
%TD*%
D11*
%TO.C,R159*%
X104000000Y-207545000D03*
X109080000Y-207545000D03*
%TD*%
D10*
%TO.C,D861*%
X205250000Y-71720000D03*
D11*
X205250000Y-74260000D03*
%TD*%
D10*
%TO.C,D645*%
X182390000Y-26000000D03*
D11*
X182390000Y-28540000D03*
%TD*%
D10*
%TO.C,D830*%
X202710000Y-31080000D03*
D11*
X202710000Y-33620000D03*
%TD*%
D10*
%TO.C,D405*%
X154450000Y-92040000D03*
D11*
X154450000Y-94580000D03*
%TD*%
%TO.C,R104*%
X32040000Y-212215000D03*
X37120000Y-212215000D03*
%TD*%
%TO.C,R291*%
X62760000Y-73530000D03*
X67840000Y-73530000D03*
%TD*%
D12*
%TO.C,Q272*%
X119360000Y-243740000D03*
D13*
X121900000Y-243740000D03*
X124440000Y-243740000D03*
%TD*%
D10*
%TO.C,D378*%
X151910000Y-71720000D03*
D11*
X151910000Y-74260000D03*
%TD*%
%TO.C,R20*%
X227300000Y-122520000D03*
X232380000Y-122520000D03*
%TD*%
%TO.C,R262*%
X173120000Y-178970000D03*
X178200000Y-178970000D03*
%TD*%
D10*
%TO.C,D510*%
X167150000Y-41240000D03*
D11*
X167150000Y-43780000D03*
%TD*%
D10*
%TO.C,D706*%
X187470000Y-102200000D03*
D11*
X187470000Y-104740000D03*
%TD*%
D10*
%TO.C,D407*%
X154450000Y-102200000D03*
D11*
X154450000Y-104740000D03*
%TD*%
D10*
%TO.C,D193*%
X131590000Y-66640000D03*
D11*
X131590000Y-69180000D03*
%TD*%
D10*
%TO.C,D397*%
X154450000Y-51400000D03*
D11*
X154450000Y-53940000D03*
%TD*%
D12*
%TO.C,Q126*%
X37120000Y-68070000D03*
D13*
X34580000Y-68070000D03*
X32040000Y-68070000D03*
%TD*%
D10*
%TO.C,D121*%
X123970000Y-51400000D03*
D11*
X123970000Y-53940000D03*
%TD*%
D10*
%TO.C,D637*%
X179850000Y-102200000D03*
D11*
X179850000Y-104740000D03*
%TD*%
D10*
%TO.C,D772*%
X195090000Y-86960000D03*
D11*
X195090000Y-89500000D03*
%TD*%
D10*
%TO.C,D312*%
X144290000Y-86960000D03*
D11*
X144290000Y-89500000D03*
%TD*%
D12*
%TO.C,Q144*%
X37120000Y-197610000D03*
D13*
X34580000Y-197610000D03*
X32040000Y-197610000D03*
%TD*%
D10*
%TO.C,D416*%
X156990000Y-31080000D03*
D11*
X156990000Y-33620000D03*
%TD*%
D10*
%TO.C,D110*%
X121430000Y-112360000D03*
D11*
X121430000Y-114900000D03*
%TD*%
D10*
%TO.C,D962*%
X215410000Y-117440000D03*
D11*
X215410000Y-119980000D03*
%TD*%
D10*
%TO.C,D757*%
X192550000Y-127600000D03*
D11*
X192550000Y-130140000D03*
%TD*%
D10*
%TO.C,D111*%
X121430000Y-117440000D03*
D11*
X121430000Y-119980000D03*
%TD*%
D10*
%TO.C,D367*%
X149370000Y-132680000D03*
D11*
X149370000Y-135220000D03*
%TD*%
D10*
%TO.C,D808*%
X200170000Y-36160000D03*
D11*
X200170000Y-38700000D03*
%TD*%
D10*
%TO.C,D1*%
X111270000Y-26000000D03*
D11*
X111270000Y-28540000D03*
%TD*%
%TO.C,R102*%
X32040000Y-180465000D03*
X37120000Y-180465000D03*
%TD*%
D10*
%TO.C,D92*%
X118890000Y-137760000D03*
D11*
X118890000Y-140300000D03*
%TD*%
D12*
%TO.C,Q554*%
X85800000Y-69720000D03*
D13*
X88340000Y-69720000D03*
X90880000Y-69720000D03*
%TD*%
D10*
%TO.C,D384*%
X151910000Y-102200000D03*
D11*
X151910000Y-104740000D03*
%TD*%
D12*
%TO.C,Q202*%
X52480000Y-121410000D03*
D13*
X49940000Y-121410000D03*
X47400000Y-121410000D03*
%TD*%
D12*
%TO.C,Q311*%
X165440000Y-220245000D03*
D13*
X167980000Y-220245000D03*
X170520000Y-220245000D03*
%TD*%
D10*
%TO.C,D599*%
X177310000Y-26000000D03*
D11*
X177310000Y-28540000D03*
%TD*%
D10*
%TO.C,D82*%
X118890000Y-86960000D03*
D11*
X118890000Y-89500000D03*
%TD*%
%TO.C,R231*%
X70440000Y-57020000D03*
X75520000Y-57020000D03*
%TD*%
%TO.C,R276*%
X211520000Y-170715000D03*
X216600000Y-170715000D03*
%TD*%
D10*
%TO.C,D575*%
X172230000Y-137760000D03*
D11*
X172230000Y-140300000D03*
%TD*%
D12*
%TO.C,Q387*%
X67840000Y-230375000D03*
D13*
X65300000Y-230375000D03*
X62760000Y-230375000D03*
%TD*%
D12*
%TO.C,Q9*%
X226880000Y-183415000D03*
D13*
X229420000Y-183415000D03*
X231960000Y-183415000D03*
%TD*%
D11*
%TO.C,R258*%
X165440000Y-165635000D03*
X170520000Y-165635000D03*
%TD*%
D10*
%TO.C,D1010*%
X220490000Y-127600000D03*
D11*
X220490000Y-130140000D03*
%TD*%
%TO.C,R26*%
X78120000Y-210690000D03*
X83200000Y-210690000D03*
%TD*%
%TO.C,R206*%
X196160000Y-232310000D03*
X201240000Y-232310000D03*
%TD*%
D10*
%TO.C,D141*%
X126510000Y-36160000D03*
D11*
X126510000Y-38700000D03*
%TD*%
D12*
%TO.C,Q447*%
X147480000Y-198020000D03*
D13*
X144940000Y-198020000D03*
X142400000Y-198020000D03*
%TD*%
D11*
%TO.C,R24*%
X78120000Y-194180000D03*
X83200000Y-194180000D03*
%TD*%
D12*
%TO.C,Q137*%
X37120000Y-149350000D03*
D13*
X34580000Y-149350000D03*
X32040000Y-149350000D03*
%TD*%
D10*
%TO.C,D240*%
X136670000Y-71720000D03*
D11*
X136670000Y-74260000D03*
%TD*%
D10*
%TO.C,D814*%
X200170000Y-66640000D03*
D11*
X200170000Y-69180000D03*
%TD*%
D10*
%TO.C,D978*%
X217950000Y-81880000D03*
D11*
X217950000Y-84420000D03*
%TD*%
D10*
%TO.C,D212*%
X134130000Y-46320000D03*
D11*
X134130000Y-48860000D03*
%TD*%
D10*
%TO.C,D187*%
X131590000Y-36160000D03*
D11*
X131590000Y-38700000D03*
%TD*%
D10*
%TO.C,D824*%
X200170000Y-117440000D03*
D11*
X200170000Y-119980000D03*
%TD*%
D10*
%TO.C,D51*%
X116350000Y-46320000D03*
D11*
X116350000Y-48860000D03*
%TD*%
D10*
%TO.C,D170*%
X129050000Y-66640000D03*
D11*
X129050000Y-69180000D03*
%TD*%
D10*
%TO.C,D376*%
X151910000Y-61560000D03*
D11*
X151910000Y-64100000D03*
%TD*%
D10*
%TO.C,D783*%
X197630000Y-26000000D03*
D11*
X197630000Y-28540000D03*
%TD*%
D15*
%TO.C,D1043*%
X72980000Y-201800000D03*
D16*
X72980000Y-199260000D03*
%TD*%
D11*
%TO.C,R88*%
X32040000Y-34415000D03*
X37120000Y-34415000D03*
%TD*%
D15*
%TO.C,D1051*%
X80660000Y-139570000D03*
D16*
X80660000Y-137030000D03*
%TD*%
D10*
%TO.C,D43*%
X113810000Y-122520000D03*
D11*
X113810000Y-125060000D03*
%TD*%
%TO.C,R76*%
X24360000Y-109345000D03*
X29440000Y-109345000D03*
%TD*%
D10*
%TO.C,D525*%
X167150000Y-117440000D03*
D11*
X167150000Y-119980000D03*
%TD*%
D10*
%TO.C,D310*%
X144290000Y-76800000D03*
D11*
X144290000Y-79340000D03*
%TD*%
D10*
%TO.C,D567*%
X172230000Y-97120000D03*
D11*
X172230000Y-99660000D03*
%TD*%
D10*
%TO.C,D660*%
X182390000Y-102200000D03*
D11*
X182390000Y-104740000D03*
%TD*%
D10*
%TO.C,D565*%
X172230000Y-86960000D03*
D11*
X172230000Y-89500000D03*
%TD*%
D12*
%TO.C,Q200*%
X52480000Y-108075000D03*
D13*
X49940000Y-108075000D03*
X47400000Y-108075000D03*
%TD*%
D10*
%TO.C,D308*%
X144290000Y-66640000D03*
D11*
X144290000Y-69180000D03*
%TD*%
%TO.C,R110*%
X39720000Y-56005000D03*
X44800000Y-56005000D03*
%TD*%
D12*
%TO.C,Q434*%
X134720000Y-175160000D03*
D13*
X137260000Y-175160000D03*
X139800000Y-175160000D03*
%TD*%
D10*
%TO.C,D907*%
X210330000Y-71720000D03*
D11*
X210330000Y-74260000D03*
%TD*%
%TO.C,R265*%
X180800000Y-178970000D03*
X185880000Y-178970000D03*
%TD*%
%TO.C,R157*%
X55080000Y-229360000D03*
X60160000Y-229360000D03*
%TD*%
D10*
%TO.C,D738*%
X192550000Y-31080000D03*
D11*
X192550000Y-33620000D03*
%TD*%
D10*
%TO.C,D643*%
X179850000Y-132680000D03*
D11*
X179850000Y-135220000D03*
%TD*%
D12*
%TO.C,Q123*%
X37120000Y-46480000D03*
D13*
X34580000Y-46480000D03*
X32040000Y-46480000D03*
%TD*%
D10*
%TO.C,D601*%
X177310000Y-36160000D03*
D11*
X177310000Y-38700000D03*
%TD*%
%TO.C,R9*%
X227300000Y-66640000D03*
X232380000Y-66640000D03*
%TD*%
%TO.C,R311*%
X78120000Y-48765000D03*
X83200000Y-48765000D03*
%TD*%
D10*
%TO.C,D55*%
X116350000Y-66640000D03*
D11*
X116350000Y-69180000D03*
%TD*%
D12*
%TO.C,Q79*%
X21760000Y-196340000D03*
D13*
X19220000Y-196340000D03*
X16680000Y-196340000D03*
%TD*%
D11*
%TO.C,R78*%
X24360000Y-130935000D03*
X29440000Y-130935000D03*
%TD*%
D12*
%TO.C,Q466*%
X165440000Y-188495000D03*
D13*
X167980000Y-188495000D03*
X170520000Y-188495000D03*
%TD*%
D11*
%TO.C,R180*%
X150080000Y-218975000D03*
X155160000Y-218975000D03*
%TD*%
D12*
%TO.C,Q80*%
X21760000Y-201420000D03*
D13*
X19220000Y-201420000D03*
X16680000Y-201420000D03*
%TD*%
D10*
%TO.C,D704*%
X187470000Y-92040000D03*
D11*
X187470000Y-94580000D03*
%TD*%
%TO.C,R185*%
X157760000Y-232310000D03*
X162840000Y-232310000D03*
%TD*%
D10*
%TO.C,D345*%
X146830000Y-137760000D03*
D11*
X146830000Y-140300000D03*
%TD*%
D10*
%TO.C,D727*%
X190010000Y-92040000D03*
D11*
X190010000Y-94580000D03*
%TD*%
D10*
%TO.C,D1006*%
X220490000Y-107280000D03*
D11*
X220490000Y-109820000D03*
%TD*%
D10*
%TO.C,D811*%
X200170000Y-51400000D03*
D11*
X200170000Y-53940000D03*
%TD*%
D10*
%TO.C,D904*%
X210330000Y-56480000D03*
D11*
X210330000Y-59020000D03*
%TD*%
D10*
%TO.C,D77*%
X118890000Y-61560000D03*
D11*
X118890000Y-64100000D03*
%TD*%
D12*
%TO.C,Q298*%
X150080000Y-241835000D03*
D13*
X152620000Y-241835000D03*
X155160000Y-241835000D03*
%TD*%
D12*
%TO.C,Q41*%
X9000000Y-170305000D03*
D13*
X11540000Y-170305000D03*
X14080000Y-170305000D03*
%TD*%
D10*
%TO.C,D553*%
X172230000Y-26000000D03*
D11*
X172230000Y-28540000D03*
%TD*%
D10*
%TO.C,D926*%
X212870000Y-51400000D03*
D11*
X212870000Y-53940000D03*
%TD*%
%TO.C,R271*%
X196160000Y-178970000D03*
X201240000Y-178970000D03*
%TD*%
D10*
%TO.C,D805*%
X197630000Y-137760000D03*
D11*
X197630000Y-140300000D03*
%TD*%
D12*
%TO.C,Q421*%
X119360000Y-203735000D03*
D13*
X121900000Y-203735000D03*
X124440000Y-203735000D03*
%TD*%
D12*
%TO.C,Q577*%
X70440000Y-145285000D03*
D13*
X72980000Y-145285000D03*
X75520000Y-145285000D03*
%TD*%
D12*
%TO.C,Q76*%
X21760000Y-174750000D03*
D13*
X19220000Y-174750000D03*
X16680000Y-174750000D03*
%TD*%
D11*
%TO.C,R91*%
X32040000Y-59180000D03*
X37120000Y-59180000D03*
%TD*%
D10*
%TO.C,D450*%
X159530000Y-86960000D03*
D11*
X159530000Y-89500000D03*
%TD*%
D10*
%TO.C,D517*%
X167150000Y-76800000D03*
D11*
X167150000Y-79340000D03*
%TD*%
%TO.C,R338*%
X70440000Y-119250000D03*
X75520000Y-119250000D03*
%TD*%
D10*
%TO.C,D895*%
X207790000Y-127600000D03*
D11*
X207790000Y-130140000D03*
%TD*%
D12*
%TO.C,Q267*%
X119360000Y-211990000D03*
D13*
X121900000Y-211990000D03*
X124440000Y-211990000D03*
%TD*%
D10*
%TO.C,D184*%
X129050000Y-137760000D03*
D11*
X129050000Y-140300000D03*
%TD*%
D10*
%TO.C,D613*%
X177310000Y-97120000D03*
D11*
X177310000Y-99660000D03*
%TD*%
D10*
%TO.C,D419*%
X156990000Y-46320000D03*
D11*
X156990000Y-48860000D03*
%TD*%
%TO.C,R190*%
X173120000Y-210720000D03*
X178200000Y-210720000D03*
%TD*%
%TO.C,R139*%
X47400000Y-216025000D03*
X52480000Y-216025000D03*
%TD*%
%TO.C,R83*%
X24360000Y-197610000D03*
X29440000Y-197610000D03*
%TD*%
%TO.C,R89*%
X32040000Y-42670000D03*
X37120000Y-42670000D03*
%TD*%
%TO.C,R261*%
X173120000Y-165635000D03*
X178200000Y-165635000D03*
%TD*%
D10*
%TO.C,D427*%
X156990000Y-86960000D03*
D11*
X156990000Y-89500000D03*
%TD*%
D10*
%TO.C,D83*%
X118890000Y-92040000D03*
D11*
X118890000Y-94580000D03*
%TD*%
D10*
%TO.C,D49*%
X116350000Y-36160000D03*
D11*
X116350000Y-38700000D03*
%TD*%
D12*
%TO.C,Q262*%
X116760000Y-216435000D03*
D13*
X114220000Y-216435000D03*
X111680000Y-216435000D03*
%TD*%
D10*
%TO.C,D743*%
X192550000Y-56480000D03*
D11*
X192550000Y-59020000D03*
%TD*%
D10*
%TO.C,D545*%
X169690000Y-102200000D03*
D11*
X169690000Y-104740000D03*
%TD*%
D15*
%TO.C,D1037*%
X72980000Y-110360000D03*
D16*
X72980000Y-107820000D03*
%TD*%
D10*
%TO.C,D542*%
X169690000Y-86960000D03*
D11*
X169690000Y-89500000D03*
%TD*%
D10*
%TO.C,D694*%
X187470000Y-41240000D03*
D11*
X187470000Y-43780000D03*
%TD*%
%TO.C,R234*%
X104000000Y-170715000D03*
X109080000Y-170715000D03*
%TD*%
D10*
%TO.C,D421*%
X156990000Y-56480000D03*
D11*
X156990000Y-59020000D03*
%TD*%
D12*
%TO.C,Q474*%
X180800000Y-161825000D03*
D13*
X183340000Y-161825000D03*
X185880000Y-161825000D03*
%TD*%
D10*
%TO.C,D881*%
X207790000Y-56480000D03*
D11*
X207790000Y-59020000D03*
%TD*%
%TO.C,R247*%
X134720000Y-189130000D03*
X139800000Y-189130000D03*
%TD*%
D12*
%TO.C,Q589*%
X83200000Y-144015000D03*
D13*
X80660000Y-144015000D03*
X78120000Y-144015000D03*
%TD*%
D11*
%TO.C,R172*%
X134720000Y-207545000D03*
X139800000Y-207545000D03*
%TD*%
D10*
%TO.C,D790*%
X197630000Y-61560000D03*
D11*
X197630000Y-64100000D03*
%TD*%
D10*
%TO.C,D283*%
X141750000Y-56480000D03*
D11*
X141750000Y-59020000D03*
%TD*%
D10*
%TO.C,D594*%
X174770000Y-117440000D03*
D11*
X174770000Y-119980000D03*
%TD*%
D10*
%TO.C,D161*%
X126510000Y-137760000D03*
D11*
X126510000Y-140300000D03*
%TD*%
D10*
%TO.C,D272*%
X139210000Y-117440000D03*
D11*
X139210000Y-119980000D03*
%TD*%
D10*
%TO.C,D755*%
X192550000Y-117440000D03*
D11*
X192550000Y-119980000D03*
%TD*%
%TO.C,R32*%
X226880000Y-213895000D03*
X231960000Y-213895000D03*
%TD*%
D10*
%TO.C,D325*%
X146830000Y-36160000D03*
D11*
X146830000Y-38700000D03*
%TD*%
D10*
%TO.C,D175*%
X129050000Y-92040000D03*
D11*
X129050000Y-94580000D03*
%TD*%
D12*
%TO.C,Q302*%
X162840000Y-214530000D03*
D13*
X160300000Y-214530000D03*
X157760000Y-214530000D03*
%TD*%
D12*
%TO.C,Q334*%
X193560000Y-236120000D03*
D13*
X191020000Y-236120000D03*
X188480000Y-236120000D03*
%TD*%
D11*
%TO.C,R101*%
X32040000Y-167130000D03*
X37120000Y-167130000D03*
%TD*%
D12*
%TO.C,Q383*%
X67840000Y-203705000D03*
D13*
X65300000Y-203705000D03*
X62760000Y-203705000D03*
%TD*%
D10*
%TO.C,D924*%
X212870000Y-41240000D03*
D11*
X212870000Y-43780000D03*
%TD*%
D12*
%TO.C,Q130*%
X37120000Y-97915000D03*
D13*
X34580000Y-97915000D03*
X32040000Y-97915000D03*
%TD*%
D12*
%TO.C,Q404*%
X116760000Y-156110000D03*
D13*
X114220000Y-156110000D03*
X111680000Y-156110000D03*
%TD*%
D10*
%TO.C,D770*%
X195090000Y-76800000D03*
D11*
X195090000Y-79340000D03*
%TD*%
D10*
%TO.C,D45*%
X113810000Y-132680000D03*
D11*
X113810000Y-135220000D03*
%TD*%
%TO.C,R46*%
X9000000Y-165860000D03*
X14080000Y-165860000D03*
%TD*%
D12*
%TO.C,Q174*%
X39720000Y-167130000D03*
D13*
X42260000Y-167130000D03*
X44800000Y-167130000D03*
%TD*%
D11*
%TO.C,R128*%
X47400000Y-64260000D03*
X52480000Y-64260000D03*
%TD*%
D12*
%TO.C,Q254*%
X67840000Y-110360000D03*
D13*
X65300000Y-110360000D03*
X62760000Y-110360000D03*
%TD*%
D10*
%TO.C,D53*%
X116350000Y-56480000D03*
D11*
X116350000Y-59020000D03*
%TD*%
D12*
%TO.C,Q276*%
X132120000Y-229770000D03*
D13*
X129580000Y-229770000D03*
X127040000Y-229770000D03*
%TD*%
D10*
%TO.C,D338*%
X146830000Y-102200000D03*
D11*
X146830000Y-104740000D03*
%TD*%
D12*
%TO.C,Q508*%
X67840000Y-27810000D03*
D13*
X65300000Y-27810000D03*
X62760000Y-27810000D03*
%TD*%
D10*
%TO.C,D6*%
X111270000Y-51400000D03*
D11*
X111270000Y-53940000D03*
%TD*%
D10*
%TO.C,D669*%
X184930000Y-31080000D03*
D11*
X184930000Y-33620000D03*
%TD*%
D10*
%TO.C,D339*%
X146830000Y-107280000D03*
D11*
X146830000Y-109820000D03*
%TD*%
D10*
%TO.C,D930*%
X212870000Y-71720000D03*
D11*
X212870000Y-74260000D03*
%TD*%
D10*
%TO.C,D844*%
X202710000Y-102200000D03*
D11*
X202710000Y-104740000D03*
%TD*%
D10*
%TO.C,D441*%
X159530000Y-41240000D03*
D11*
X159530000Y-43780000D03*
%TD*%
%TO.C,R60*%
X16680000Y-117600000D03*
X21760000Y-117600000D03*
%TD*%
%TO.C,R4*%
X227300000Y-41240000D03*
X232380000Y-41240000D03*
%TD*%
D10*
%TO.C,D98*%
X121430000Y-51400000D03*
D11*
X121430000Y-53940000D03*
%TD*%
D10*
%TO.C,D513*%
X167150000Y-56480000D03*
D11*
X167150000Y-59020000D03*
%TD*%
D12*
%TO.C,Q506*%
X211520000Y-203735000D03*
D13*
X214060000Y-203735000D03*
X216600000Y-203735000D03*
%TD*%
D10*
%TO.C,D15*%
X111270000Y-97120000D03*
D11*
X111270000Y-99660000D03*
%TD*%
D12*
%TO.C,Q291*%
X150080000Y-196750000D03*
D13*
X152620000Y-196750000D03*
X155160000Y-196750000D03*
%TD*%
D10*
%TO.C,D485*%
X164610000Y-31080000D03*
D11*
X164610000Y-33620000D03*
%TD*%
%TO.C,R192*%
X173120000Y-232310000D03*
X178200000Y-232310000D03*
%TD*%
%TO.C,R15*%
X227300000Y-97120000D03*
X232380000Y-97120000D03*
%TD*%
D10*
%TO.C,D712*%
X187470000Y-132680000D03*
D11*
X187470000Y-135220000D03*
%TD*%
D12*
%TO.C,Q483*%
X193560000Y-182780000D03*
D13*
X191020000Y-182780000D03*
X188480000Y-182780000D03*
%TD*%
D12*
%TO.C,Q230*%
X55080000Y-87120000D03*
D13*
X57620000Y-87120000D03*
X60160000Y-87120000D03*
%TD*%
D10*
%TO.C,D106*%
X121430000Y-92040000D03*
D11*
X121430000Y-94580000D03*
%TD*%
D12*
%TO.C,Q150*%
X37120000Y-237615000D03*
D13*
X34580000Y-237615000D03*
X32040000Y-237615000D03*
%TD*%
D10*
%TO.C,D167*%
X129050000Y-51400000D03*
D11*
X129050000Y-53940000D03*
%TD*%
D10*
%TO.C,D663*%
X182390000Y-117440000D03*
D11*
X182390000Y-119980000D03*
%TD*%
D10*
%TO.C,D620*%
X177310000Y-132680000D03*
D11*
X177310000Y-135220000D03*
%TD*%
%TO.C,R242*%
X127040000Y-152300000D03*
X132120000Y-152300000D03*
%TD*%
D10*
%TO.C,D878*%
X207790000Y-41240000D03*
D11*
X207790000Y-43780000D03*
%TD*%
%TO.C,R225*%
X62760000Y-168145000D03*
X67840000Y-168145000D03*
%TD*%
D10*
%TO.C,D78*%
X118890000Y-66640000D03*
D11*
X118890000Y-69180000D03*
%TD*%
%TO.C,R179*%
X150080000Y-205640000D03*
X155160000Y-205640000D03*
%TD*%
%TO.C,R141*%
X55080000Y-16000000D03*
X60160000Y-16000000D03*
%TD*%
D12*
%TO.C,Q64*%
X21760000Y-94740000D03*
D13*
X19220000Y-94740000D03*
X16680000Y-94740000D03*
%TD*%
D10*
%TO.C,D581*%
X174770000Y-51400000D03*
D11*
X174770000Y-53940000D03*
%TD*%
D12*
%TO.C,Q449*%
X150080000Y-156745000D03*
D13*
X152620000Y-156745000D03*
X155160000Y-156745000D03*
%TD*%
D10*
%TO.C,D445*%
X159530000Y-61560000D03*
D11*
X159530000Y-64100000D03*
%TD*%
D12*
%TO.C,Q19*%
X9000000Y-20445000D03*
D13*
X11540000Y-20445000D03*
X14080000Y-20445000D03*
%TD*%
D12*
%TO.C,Q349*%
X208920000Y-232945000D03*
D13*
X206380000Y-232945000D03*
X203840000Y-232945000D03*
%TD*%
D12*
%TO.C,Q155*%
X39720000Y-38860000D03*
D13*
X42260000Y-38860000D03*
X44800000Y-38860000D03*
%TD*%
D10*
%TO.C,D754*%
X192550000Y-112360000D03*
D11*
X192550000Y-114900000D03*
%TD*%
D12*
%TO.C,Q356*%
X224280000Y-156110000D03*
D13*
X221740000Y-156110000D03*
X219200000Y-156110000D03*
%TD*%
D10*
%TO.C,D616*%
X177310000Y-112360000D03*
D11*
X177310000Y-114900000D03*
%TD*%
D10*
%TO.C,D354*%
X149370000Y-66640000D03*
D11*
X149370000Y-69180000D03*
%TD*%
D10*
%TO.C,D245*%
X136670000Y-97120000D03*
D11*
X136670000Y-99660000D03*
%TD*%
D12*
%TO.C,Q159*%
X39720000Y-65530000D03*
D13*
X42260000Y-65530000D03*
X44800000Y-65530000D03*
%TD*%
D10*
%TO.C,D247*%
X136670000Y-107280000D03*
D11*
X136670000Y-109820000D03*
%TD*%
D10*
%TO.C,D334*%
X146830000Y-81880000D03*
D11*
X146830000Y-84420000D03*
%TD*%
D10*
%TO.C,D26*%
X113810000Y-36160000D03*
D11*
X113810000Y-38700000D03*
%TD*%
D10*
%TO.C,D927*%
X212870000Y-56480000D03*
D11*
X212870000Y-59020000D03*
%TD*%
D10*
%TO.C,D856*%
X205250000Y-46320000D03*
D11*
X205250000Y-48860000D03*
%TD*%
%TO.C,R266*%
X188480000Y-152300000D03*
X193560000Y-152300000D03*
%TD*%
%TO.C,R279*%
X62760000Y-24000000D03*
X67840000Y-24000000D03*
%TD*%
D12*
%TO.C,Q148*%
X37120000Y-224280000D03*
D13*
X34580000Y-224280000D03*
X32040000Y-224280000D03*
%TD*%
D12*
%TO.C,Q586*%
X83200000Y-98295000D03*
D13*
X80660000Y-98295000D03*
X78120000Y-98295000D03*
%TD*%
D12*
%TO.C,Q514*%
X67840000Y-52575000D03*
D13*
X65300000Y-52575000D03*
X62760000Y-52575000D03*
%TD*%
D10*
%TO.C,D394*%
X154450000Y-36160000D03*
D11*
X154450000Y-38700000D03*
%TD*%
D10*
%TO.C,D747*%
X192550000Y-76800000D03*
D11*
X192550000Y-79340000D03*
%TD*%
D10*
%TO.C,D291*%
X141750000Y-97120000D03*
D11*
X141750000Y-99660000D03*
%TD*%
D12*
%TO.C,Q188*%
X52480000Y-28065000D03*
D13*
X49940000Y-28065000D03*
X47400000Y-28065000D03*
%TD*%
D10*
%TO.C,D114*%
X121430000Y-132680000D03*
D11*
X121430000Y-135220000D03*
%TD*%
D12*
%TO.C,Q158*%
X39720000Y-60450000D03*
D13*
X42260000Y-60450000D03*
X44800000Y-60450000D03*
%TD*%
D10*
%TO.C,D252*%
X136670000Y-132680000D03*
D11*
X136670000Y-135220000D03*
%TD*%
%TO.C,R348*%
X78120000Y-87500000D03*
X83200000Y-87500000D03*
%TD*%
%TO.C,R245*%
X134720000Y-152300000D03*
X139800000Y-152300000D03*
%TD*%
D10*
%TO.C,D355*%
X149370000Y-71720000D03*
D11*
X149370000Y-74260000D03*
%TD*%
D12*
%TO.C,Q327*%
X180800000Y-239930000D03*
D13*
X183340000Y-239930000D03*
X185880000Y-239930000D03*
%TD*%
D10*
%TO.C,D71*%
X118890000Y-31080000D03*
D11*
X118890000Y-33620000D03*
%TD*%
%TO.C,R243*%
X127040000Y-170715000D03*
X132120000Y-170715000D03*
%TD*%
D12*
%TO.C,Q234*%
X55080000Y-113790000D03*
D13*
X57620000Y-113790000D03*
X60160000Y-113790000D03*
%TD*%
D10*
%TO.C,D391*%
X151910000Y-137760000D03*
D11*
X151910000Y-140300000D03*
%TD*%
%TO.C,R112*%
X39720000Y-82675000D03*
X44800000Y-82675000D03*
%TD*%
D10*
%TO.C,D353*%
X149370000Y-61560000D03*
D11*
X149370000Y-64100000D03*
%TD*%
%TO.C,R297*%
X62760000Y-98295000D03*
X67840000Y-98295000D03*
%TD*%
D12*
%TO.C,Q199*%
X52480000Y-99820000D03*
D13*
X49940000Y-99820000D03*
X47400000Y-99820000D03*
%TD*%
D10*
%TO.C,D324*%
X146830000Y-31080000D03*
D11*
X146830000Y-33620000D03*
%TD*%
D10*
%TO.C,D120*%
X123970000Y-46320000D03*
D11*
X123970000Y-48860000D03*
%TD*%
D10*
%TO.C,D102*%
X121430000Y-71720000D03*
D11*
X121430000Y-74260000D03*
%TD*%
%TO.C,R166*%
X119360000Y-207545000D03*
X124440000Y-207545000D03*
%TD*%
D10*
%TO.C,D144*%
X126510000Y-51400000D03*
D11*
X126510000Y-53940000D03*
%TD*%
D12*
%TO.C,Q226*%
X55080000Y-57275000D03*
D13*
X57620000Y-57275000D03*
X60160000Y-57275000D03*
%TD*%
D12*
%TO.C,Q113*%
X24360000Y-210310000D03*
D13*
X26900000Y-210310000D03*
X29440000Y-210310000D03*
%TD*%
D10*
%TO.C,D807*%
X200170000Y-31080000D03*
D11*
X200170000Y-33620000D03*
%TD*%
D12*
%TO.C,Q206*%
X52480000Y-144905000D03*
D13*
X49940000Y-144905000D03*
X47400000Y-144905000D03*
%TD*%
D11*
%TO.C,R264*%
X180800000Y-165635000D03*
X185880000Y-165635000D03*
%TD*%
D12*
%TO.C,Q540*%
X83200000Y-52575000D03*
D13*
X80660000Y-52575000D03*
X78120000Y-52575000D03*
%TD*%
D12*
%TO.C,Q251*%
X55080000Y-225550000D03*
D13*
X57620000Y-225550000D03*
X60160000Y-225550000D03*
%TD*%
D11*
%TO.C,R69*%
X24360000Y-16000000D03*
X29440000Y-16000000D03*
%TD*%
D12*
%TO.C,Q484*%
X193560000Y-187860000D03*
D13*
X191020000Y-187860000D03*
X188480000Y-187860000D03*
%TD*%
D12*
%TO.C,Q448*%
X147480000Y-203100000D03*
D13*
X144940000Y-203100000D03*
X142400000Y-203100000D03*
%TD*%
D10*
%TO.C,D414*%
X154450000Y-137760000D03*
D11*
X154450000Y-140300000D03*
%TD*%
D12*
%TO.C,Q467*%
X178200000Y-156110000D03*
D13*
X175660000Y-156110000D03*
X173120000Y-156110000D03*
%TD*%
D10*
%TO.C,D177*%
X129050000Y-102200000D03*
D11*
X129050000Y-104740000D03*
%TD*%
D10*
%TO.C,D634*%
X179850000Y-86960000D03*
D11*
X179850000Y-89500000D03*
%TD*%
D10*
%TO.C,D611*%
X177310000Y-86960000D03*
D11*
X177310000Y-89500000D03*
%TD*%
D12*
%TO.C,Q316*%
X178200000Y-214530000D03*
D13*
X175660000Y-214530000D03*
X173120000Y-214530000D03*
%TD*%
D12*
%TO.C,Q263*%
X116760000Y-224690000D03*
D13*
X114220000Y-224690000D03*
X111680000Y-224690000D03*
%TD*%
D11*
%TO.C,R176*%
X142400000Y-220880000D03*
X147480000Y-220880000D03*
%TD*%
D10*
%TO.C,D882*%
X207790000Y-61560000D03*
D11*
X207790000Y-64100000D03*
%TD*%
D12*
%TO.C,Q493*%
X208920000Y-169445000D03*
D13*
X206380000Y-169445000D03*
X203840000Y-169445000D03*
%TD*%
D10*
%TO.C,D1007*%
X220490000Y-112360000D03*
D11*
X220490000Y-114900000D03*
%TD*%
%TO.C,R106*%
X32040000Y-233805000D03*
X37120000Y-233805000D03*
%TD*%
D10*
%TO.C,D213*%
X134130000Y-51400000D03*
D11*
X134130000Y-53940000D03*
%TD*%
D12*
%TO.C,Q87*%
X24360000Y-30605000D03*
D13*
X26900000Y-30605000D03*
X29440000Y-30605000D03*
%TD*%
D10*
%TO.C,D998*%
X220490000Y-66640000D03*
D11*
X220490000Y-69180000D03*
%TD*%
D10*
%TO.C,D761*%
X195090000Y-31080000D03*
D11*
X195090000Y-33620000D03*
%TD*%
%TO.C,R198*%
X180800000Y-230405000D03*
X185880000Y-230405000D03*
%TD*%
D12*
%TO.C,Q81*%
X21760000Y-209675000D03*
D13*
X19220000Y-209675000D03*
X16680000Y-209675000D03*
%TD*%
D10*
%TO.C,D197*%
X131590000Y-86960000D03*
D11*
X131590000Y-89500000D03*
%TD*%
D10*
%TO.C,D54*%
X116350000Y-61560000D03*
D11*
X116350000Y-64100000D03*
%TD*%
D12*
%TO.C,Q65*%
X21760000Y-99820000D03*
D13*
X19220000Y-99820000D03*
X16680000Y-99820000D03*
%TD*%
D11*
%TO.C,R354*%
X78120000Y-178940000D03*
X83200000Y-178940000D03*
%TD*%
%TO.C,R333*%
X85800000Y-161795000D03*
X90880000Y-161795000D03*
%TD*%
D12*
%TO.C,Q391*%
X70440000Y-66545000D03*
D13*
X72980000Y-66545000D03*
X75520000Y-66545000D03*
%TD*%
D12*
%TO.C,Q572*%
X85800000Y-192910000D03*
D13*
X88340000Y-192910000D03*
X90880000Y-192910000D03*
%TD*%
D12*
%TO.C,Q485*%
X196160000Y-156745000D03*
D13*
X198700000Y-156745000D03*
X201240000Y-156745000D03*
%TD*%
D10*
%TO.C,D62*%
X116350000Y-102200000D03*
D11*
X116350000Y-104740000D03*
%TD*%
%TO.C,R352*%
X78120000Y-148460000D03*
X83200000Y-148460000D03*
%TD*%
D10*
%TO.C,D796*%
X197630000Y-92040000D03*
D11*
X197630000Y-94580000D03*
%TD*%
D12*
%TO.C,Q72*%
X21760000Y-144905000D03*
D13*
X19220000Y-144905000D03*
X16680000Y-144905000D03*
%TD*%
D11*
%TO.C,R317*%
X70440000Y-48765000D03*
X75520000Y-48765000D03*
%TD*%
%TO.C,R319*%
X85800000Y-40510000D03*
X90880000Y-40510000D03*
%TD*%
D12*
%TO.C,Q478*%
X180800000Y-188495000D03*
D13*
X183340000Y-188495000D03*
X185880000Y-188495000D03*
%TD*%
D12*
%TO.C,Q381*%
X67840000Y-190370000D03*
D13*
X65300000Y-190370000D03*
X62760000Y-190370000D03*
%TD*%
D11*
%TO.C,R17*%
X227300000Y-107280000D03*
X232380000Y-107280000D03*
%TD*%
D10*
%TO.C,D873*%
X205250000Y-132680000D03*
D11*
X205250000Y-135220000D03*
%TD*%
D10*
%TO.C,D347*%
X149370000Y-31080000D03*
D11*
X149370000Y-33620000D03*
%TD*%
D10*
%TO.C,D478*%
X162070000Y-112360000D03*
D11*
X162070000Y-114900000D03*
%TD*%
D12*
%TO.C,Q351*%
X211520000Y-217070000D03*
D13*
X214060000Y-217070000D03*
X216600000Y-217070000D03*
%TD*%
D10*
%TO.C,D776*%
X195090000Y-107280000D03*
D11*
X195090000Y-109820000D03*
%TD*%
D10*
%TO.C,D296*%
X141750000Y-122520000D03*
D11*
X141750000Y-125060000D03*
%TD*%
D10*
%TO.C,D646*%
X182390000Y-31080000D03*
D11*
X182390000Y-33620000D03*
%TD*%
D12*
%TO.C,Q43*%
X9000000Y-183640000D03*
D13*
X11540000Y-183640000D03*
X14080000Y-183640000D03*
%TD*%
D12*
%TO.C,Q578*%
X70440000Y-160525000D03*
D13*
X72980000Y-160525000D03*
X75520000Y-160525000D03*
%TD*%
D10*
%TO.C,D590*%
X174770000Y-97120000D03*
D11*
X174770000Y-99660000D03*
%TD*%
D10*
%TO.C,D154*%
X126510000Y-102200000D03*
D11*
X126510000Y-104740000D03*
%TD*%
D10*
%TO.C,D342*%
X146830000Y-122520000D03*
D11*
X146830000Y-125060000D03*
%TD*%
D12*
%TO.C,Q36*%
X9000000Y-135380000D03*
D13*
X11540000Y-135380000D03*
X14080000Y-135380000D03*
%TD*%
D11*
%TO.C,R7*%
X227300000Y-56480000D03*
X232380000Y-56480000D03*
%TD*%
%TO.C,R335*%
X85800000Y-188465000D03*
X90880000Y-188465000D03*
%TD*%
D10*
%TO.C,D848*%
X202710000Y-122520000D03*
D11*
X202710000Y-125060000D03*
%TD*%
%TO.C,R188*%
X165440000Y-224055000D03*
X170520000Y-224055000D03*
%TD*%
D10*
%TO.C,D752*%
X192550000Y-102200000D03*
D11*
X192550000Y-104740000D03*
%TD*%
D10*
%TO.C,D898*%
X210330000Y-26000000D03*
D11*
X210330000Y-28540000D03*
%TD*%
%TO.C,R327*%
X85800000Y-86865000D03*
X90880000Y-86865000D03*
%TD*%
D12*
%TO.C,Q520*%
X67840000Y-77340000D03*
D13*
X65300000Y-77340000D03*
X62760000Y-77340000D03*
%TD*%
D10*
%TO.C,D1028*%
X223030000Y-102200000D03*
D11*
X223030000Y-104740000D03*
%TD*%
D10*
%TO.C,D398*%
X154450000Y-56480000D03*
D11*
X154450000Y-59020000D03*
%TD*%
D10*
%TO.C,D253*%
X136670000Y-137760000D03*
D11*
X136670000Y-140300000D03*
%TD*%
%TO.C,R162*%
X104000000Y-232310000D03*
X109080000Y-232310000D03*
%TD*%
%TO.C,R6*%
X227300000Y-51400000D03*
X232380000Y-51400000D03*
%TD*%
D12*
%TO.C,Q405*%
X116760000Y-161190000D03*
D13*
X114220000Y-161190000D03*
X111680000Y-161190000D03*
%TD*%
D10*
%TO.C,D74*%
X118890000Y-46320000D03*
D11*
X118890000Y-48860000D03*
%TD*%
D15*
%TO.C,D1045*%
X72980000Y-232280000D03*
D16*
X72980000Y-229740000D03*
%TD*%
D12*
%TO.C,Q323*%
X180800000Y-213260000D03*
D13*
X183340000Y-213260000D03*
X185880000Y-213260000D03*
%TD*%
D12*
%TO.C,Q494*%
X208920000Y-174525000D03*
D13*
X206380000Y-174525000D03*
X203840000Y-174525000D03*
%TD*%
D10*
%TO.C,D138*%
X123970000Y-137760000D03*
D11*
X123970000Y-140300000D03*
%TD*%
D12*
%TO.C,Q156*%
X39720000Y-43940000D03*
D13*
X42260000Y-43940000D03*
X44800000Y-43940000D03*
%TD*%
D10*
%TO.C,D573*%
X172230000Y-127600000D03*
D11*
X172230000Y-130140000D03*
%TD*%
%TO.C,R238*%
X111680000Y-189130000D03*
X116760000Y-189130000D03*
%TD*%
%TO.C,R342*%
X70440000Y-180210000D03*
X75520000Y-180210000D03*
%TD*%
D10*
%TO.C,D169*%
X129050000Y-61560000D03*
D11*
X129050000Y-64100000D03*
%TD*%
D10*
%TO.C,D403*%
X154450000Y-81880000D03*
D11*
X154450000Y-84420000D03*
%TD*%
D10*
%TO.C,D514*%
X167150000Y-61560000D03*
D11*
X167150000Y-64100000D03*
%TD*%
D10*
%TO.C,D28*%
X113810000Y-46320000D03*
D11*
X113810000Y-48860000D03*
%TD*%
D12*
%TO.C,Q519*%
X98560000Y-77340000D03*
D13*
X96020000Y-77340000D03*
X93480000Y-77340000D03*
%TD*%
D12*
%TO.C,Q306*%
X162840000Y-241200000D03*
D13*
X160300000Y-241200000D03*
X157760000Y-241200000D03*
%TD*%
D10*
%TO.C,D903*%
X210330000Y-51400000D03*
D11*
X210330000Y-53940000D03*
%TD*%
D10*
%TO.C,D919*%
X210330000Y-132680000D03*
D11*
X210330000Y-135220000D03*
%TD*%
D10*
%TO.C,D72*%
X118890000Y-36160000D03*
D11*
X118890000Y-38700000D03*
%TD*%
D10*
%TO.C,D568*%
X172230000Y-102200000D03*
D11*
X172230000Y-104740000D03*
%TD*%
%TO.C,R45*%
X9000000Y-157605000D03*
X14080000Y-157605000D03*
%TD*%
D10*
%TO.C,D1017*%
X223030000Y-46320000D03*
D11*
X223030000Y-48860000D03*
%TD*%
D12*
%TO.C,Q552*%
X85800000Y-61465000D03*
D13*
X88340000Y-61465000D03*
X90880000Y-61465000D03*
%TD*%
D10*
%TO.C,D356*%
X149370000Y-76800000D03*
D11*
X149370000Y-79340000D03*
%TD*%
D10*
%TO.C,D277*%
X141750000Y-26000000D03*
D11*
X141750000Y-28540000D03*
%TD*%
D10*
%TO.C,D968*%
X217950000Y-31080000D03*
D11*
X217950000Y-33620000D03*
%TD*%
D12*
%TO.C,Q546*%
X70440000Y-53210000D03*
D13*
X72980000Y-53210000D03*
X75520000Y-53210000D03*
%TD*%
D10*
%TO.C,D320*%
X144290000Y-127600000D03*
D11*
X144290000Y-130140000D03*
%TD*%
D10*
%TO.C,D584*%
X174770000Y-66640000D03*
D11*
X174770000Y-69180000D03*
%TD*%
D10*
%TO.C,D322*%
X144290000Y-137760000D03*
D11*
X144290000Y-140300000D03*
%TD*%
D10*
%TO.C,D243*%
X136670000Y-86960000D03*
D11*
X136670000Y-89500000D03*
%TD*%
%TO.C,R82*%
X24360000Y-179195000D03*
X29440000Y-179195000D03*
%TD*%
D12*
%TO.C,Q247*%
X55080000Y-198880000D03*
D13*
X57620000Y-198880000D03*
X60160000Y-198880000D03*
%TD*%
D10*
%TO.C,D131*%
X123970000Y-102200000D03*
D11*
X123970000Y-104740000D03*
%TD*%
D10*
%TO.C,D840*%
X202710000Y-81880000D03*
D11*
X202710000Y-84420000D03*
%TD*%
D10*
%TO.C,D504*%
X164610000Y-127600000D03*
D11*
X164610000Y-130140000D03*
%TD*%
D10*
%TO.C,D470*%
X162070000Y-71720000D03*
D11*
X162070000Y-74260000D03*
%TD*%
D10*
%TO.C,D684*%
X184930000Y-107280000D03*
D11*
X184930000Y-109820000D03*
%TD*%
D12*
%TO.C,Q168*%
X39720000Y-127125000D03*
D13*
X42260000Y-127125000D03*
X44800000Y-127125000D03*
%TD*%
D11*
%TO.C,R336*%
X70440000Y-88770000D03*
X75520000Y-88770000D03*
%TD*%
D10*
%TO.C,D909*%
X210330000Y-81880000D03*
D11*
X210330000Y-84420000D03*
%TD*%
D12*
%TO.C,Q48*%
X9000000Y-215390000D03*
D13*
X11540000Y-215390000D03*
X14080000Y-215390000D03*
%TD*%
D12*
%TO.C,Q332*%
X193560000Y-222785000D03*
D13*
X191020000Y-222785000D03*
X188480000Y-222785000D03*
%TD*%
D10*
%TO.C,D562*%
X172230000Y-71720000D03*
D11*
X172230000Y-74260000D03*
%TD*%
D10*
%TO.C,D893*%
X207790000Y-117440000D03*
D11*
X207790000Y-119980000D03*
%TD*%
D12*
%TO.C,Q347*%
X208920000Y-219610000D03*
D13*
X206380000Y-219610000D03*
X203840000Y-219610000D03*
%TD*%
D10*
%TO.C,D142*%
X126510000Y-41240000D03*
D11*
X126510000Y-43780000D03*
%TD*%
D10*
%TO.C,D716*%
X190010000Y-36160000D03*
D11*
X190010000Y-38700000D03*
%TD*%
D10*
%TO.C,D722*%
X190010000Y-66640000D03*
D11*
X190010000Y-69180000D03*
%TD*%
D12*
%TO.C,Q210*%
X52480000Y-174750000D03*
D13*
X49940000Y-174750000D03*
X47400000Y-174750000D03*
%TD*%
D10*
%TO.C,D270*%
X139210000Y-107280000D03*
D11*
X139210000Y-109820000D03*
%TD*%
%TO.C,R223*%
X62760000Y-146555000D03*
X67840000Y-146555000D03*
%TD*%
D12*
%TO.C,Q194*%
X52480000Y-68070000D03*
D13*
X49940000Y-68070000D03*
X47400000Y-68070000D03*
%TD*%
D10*
%TO.C,D400*%
X154450000Y-66640000D03*
D11*
X154450000Y-69180000D03*
%TD*%
D10*
%TO.C,D231*%
X136670000Y-26000000D03*
D11*
X136670000Y-28540000D03*
%TD*%
D10*
%TO.C,D726*%
X190010000Y-86960000D03*
D11*
X190010000Y-89500000D03*
%TD*%
D12*
%TO.C,Q53*%
X21760000Y-19810000D03*
D13*
X19220000Y-19810000D03*
X16680000Y-19810000D03*
%TD*%
D10*
%TO.C,D335*%
X146830000Y-86960000D03*
D11*
X146830000Y-89500000D03*
%TD*%
%TO.C,R221*%
X62760000Y-124965000D03*
X67840000Y-124965000D03*
%TD*%
D12*
%TO.C,Q532*%
X70440000Y-44955000D03*
D13*
X72980000Y-44955000D03*
X75520000Y-44955000D03*
%TD*%
D12*
%TO.C,Q510*%
X67840000Y-36065000D03*
D13*
X65300000Y-36065000D03*
X62760000Y-36065000D03*
%TD*%
D12*
%TO.C,Q504*%
X211520000Y-193575000D03*
D13*
X214060000Y-193575000D03*
X216600000Y-193575000D03*
%TD*%
D11*
%TO.C,R203*%
X196160000Y-192305000D03*
X201240000Y-192305000D03*
%TD*%
D12*
%TO.C,Q98*%
X24360000Y-105535000D03*
D13*
X26900000Y-105535000D03*
X29440000Y-105535000D03*
%TD*%
D12*
%TO.C,Q297*%
X150080000Y-236755000D03*
D13*
X152620000Y-236755000D03*
X155160000Y-236755000D03*
%TD*%
D11*
%TO.C,R263*%
X180800000Y-152300000D03*
X185880000Y-152300000D03*
%TD*%
D12*
%TO.C,Q178*%
X39720000Y-193800000D03*
D13*
X42260000Y-193800000D03*
X44800000Y-193800000D03*
%TD*%
D10*
%TO.C,D375*%
X151910000Y-56480000D03*
D11*
X151910000Y-59020000D03*
%TD*%
D10*
%TO.C,D199*%
X131590000Y-97120000D03*
D11*
X131590000Y-99660000D03*
%TD*%
D12*
%TO.C,Q268*%
X119360000Y-217070000D03*
D13*
X121900000Y-217070000D03*
X124440000Y-217070000D03*
%TD*%
D10*
%TO.C,D923*%
X212870000Y-36160000D03*
D11*
X212870000Y-38700000D03*
%TD*%
D12*
%TO.C,Q443*%
X147480000Y-174525000D03*
D13*
X144940000Y-174525000D03*
X142400000Y-174525000D03*
%TD*%
D10*
%TO.C,D970*%
X217950000Y-41240000D03*
D11*
X217950000Y-43780000D03*
%TD*%
D12*
%TO.C,Q115*%
X24360000Y-223645000D03*
D13*
X26900000Y-223645000D03*
X29440000Y-223645000D03*
%TD*%
D12*
%TO.C,Q195*%
X52480000Y-73150000D03*
D13*
X49940000Y-73150000D03*
X47400000Y-73150000D03*
%TD*%
D11*
%TO.C,R350*%
X78120000Y-117980000D03*
X83200000Y-117980000D03*
%TD*%
D10*
%TO.C,D551*%
X169690000Y-132680000D03*
D11*
X169690000Y-135220000D03*
%TD*%
D10*
%TO.C,D1029*%
X223030000Y-107280000D03*
D11*
X223030000Y-109820000D03*
%TD*%
%TO.C,R210*%
X211520000Y-207545000D03*
X216600000Y-207545000D03*
%TD*%
D10*
%TO.C,D987*%
X217950000Y-127600000D03*
D11*
X217950000Y-130140000D03*
%TD*%
%TO.C,R229*%
X62760000Y-221485000D03*
X67840000Y-221485000D03*
%TD*%
D10*
%TO.C,D1027*%
X223030000Y-97120000D03*
D11*
X223030000Y-99660000D03*
%TD*%
D10*
%TO.C,D906*%
X210330000Y-66640000D03*
D11*
X210330000Y-69180000D03*
%TD*%
D10*
%TO.C,D656*%
X182390000Y-81880000D03*
D11*
X182390000Y-84420000D03*
%TD*%
D10*
%TO.C,D1025*%
X223030000Y-86960000D03*
D11*
X223030000Y-89500000D03*
%TD*%
D12*
%TO.C,Q319*%
X178200000Y-236120000D03*
D13*
X175660000Y-236120000D03*
X173120000Y-236120000D03*
%TD*%
D10*
%TO.C,D651*%
X182390000Y-56480000D03*
D11*
X182390000Y-59020000D03*
%TD*%
D12*
%TO.C,Q160*%
X39720000Y-73785000D03*
D13*
X42260000Y-73785000D03*
X44800000Y-73785000D03*
%TD*%
D10*
%TO.C,D913*%
X210330000Y-102200000D03*
D11*
X210330000Y-104740000D03*
%TD*%
D12*
%TO.C,Q271*%
X119360000Y-238660000D03*
D13*
X121900000Y-238660000D03*
X124440000Y-238660000D03*
%TD*%
D11*
%TO.C,R213*%
X219200000Y-152300000D03*
X224280000Y-152300000D03*
%TD*%
D10*
%TO.C,D38*%
X113810000Y-97120000D03*
D11*
X113810000Y-99660000D03*
%TD*%
D10*
%TO.C,D899*%
X210330000Y-31080000D03*
D11*
X210330000Y-33620000D03*
%TD*%
%TO.C,R277*%
X211520000Y-189130000D03*
X216600000Y-189130000D03*
%TD*%
%TO.C,R267*%
X188480000Y-165635000D03*
X193560000Y-165635000D03*
%TD*%
%TO.C,R340*%
X70440000Y-149730000D03*
X75520000Y-149730000D03*
%TD*%
D12*
%TO.C,Q132*%
X37120000Y-111250000D03*
D13*
X34580000Y-111250000D03*
X32040000Y-111250000D03*
%TD*%
D10*
%TO.C,D532*%
X169690000Y-36160000D03*
D11*
X169690000Y-38700000D03*
%TD*%
D10*
%TO.C,D587*%
X174770000Y-81880000D03*
D11*
X174770000Y-84420000D03*
%TD*%
D12*
%TO.C,Q69*%
X21760000Y-126490000D03*
D13*
X19220000Y-126490000D03*
X16680000Y-126490000D03*
%TD*%
D12*
%TO.C,Q523*%
X98560000Y-93850000D03*
D13*
X96020000Y-93850000D03*
X93480000Y-93850000D03*
%TD*%
D12*
%TO.C,Q435*%
X134720000Y-180240000D03*
D13*
X137260000Y-180240000D03*
X139800000Y-180240000D03*
%TD*%
D10*
%TO.C,D476*%
X162070000Y-102200000D03*
D11*
X162070000Y-104740000D03*
%TD*%
%TO.C,R113*%
X39720000Y-96010000D03*
X44800000Y-96010000D03*
%TD*%
D12*
%TO.C,Q99*%
X24360000Y-113790000D03*
D13*
X26900000Y-113790000D03*
X29440000Y-113790000D03*
%TD*%
D10*
%TO.C,D327*%
X146830000Y-46320000D03*
D11*
X146830000Y-48860000D03*
%TD*%
D10*
%TO.C,D47*%
X116350000Y-26000000D03*
D11*
X116350000Y-28540000D03*
%TD*%
D10*
%TO.C,D892*%
X207790000Y-112360000D03*
D11*
X207790000Y-114900000D03*
%TD*%
D12*
%TO.C,Q429*%
X132120000Y-198020000D03*
D13*
X129580000Y-198020000D03*
X127040000Y-198020000D03*
%TD*%
D12*
%TO.C,Q583*%
X70440000Y-236725000D03*
D13*
X72980000Y-236725000D03*
X75520000Y-236725000D03*
%TD*%
D10*
%TO.C,D759*%
X192550000Y-137760000D03*
D11*
X192550000Y-140300000D03*
%TD*%
D10*
%TO.C,D404*%
X154450000Y-86960000D03*
D11*
X154450000Y-89500000D03*
%TD*%
D10*
%TO.C,D234*%
X136670000Y-41240000D03*
D11*
X136670000Y-43780000D03*
%TD*%
D12*
%TO.C,Q469*%
X178200000Y-169445000D03*
D13*
X175660000Y-169445000D03*
X173120000Y-169445000D03*
%TD*%
D10*
%TO.C,D451*%
X159530000Y-92040000D03*
D11*
X159530000Y-94580000D03*
%TD*%
D15*
%TO.C,D1041*%
X72980000Y-171320000D03*
D16*
X72980000Y-168780000D03*
%TD*%
D12*
%TO.C,Q229*%
X55080000Y-78865000D03*
D13*
X57620000Y-78865000D03*
X60160000Y-78865000D03*
%TD*%
D12*
%TO.C,Q256*%
X67840000Y-120520000D03*
D13*
X65300000Y-120520000D03*
X62760000Y-120520000D03*
%TD*%
D11*
%TO.C,R341*%
X70440000Y-164970000D03*
X75520000Y-164970000D03*
%TD*%
%TO.C,R120*%
X39720000Y-189355000D03*
X44800000Y-189355000D03*
%TD*%
D10*
%TO.C,D454*%
X159530000Y-107280000D03*
D11*
X159530000Y-109820000D03*
%TD*%
D12*
%TO.C,Q427*%
X132120000Y-184685000D03*
D13*
X129580000Y-184685000D03*
X127040000Y-184685000D03*
%TD*%
D10*
%TO.C,D39*%
X113810000Y-102200000D03*
D11*
X113810000Y-104740000D03*
%TD*%
D12*
%TO.C,Q388*%
X67840000Y-238630000D03*
D13*
X65300000Y-238630000D03*
X62760000Y-238630000D03*
%TD*%
D10*
%TO.C,D123*%
X123970000Y-61560000D03*
D11*
X123970000Y-64100000D03*
%TD*%
D10*
%TO.C,D737*%
X192550000Y-26000000D03*
D11*
X192550000Y-28540000D03*
%TD*%
D10*
%TO.C,D1000*%
X220490000Y-76800000D03*
D11*
X220490000Y-79340000D03*
%TD*%
%TO.C,R125*%
X47400000Y-24255000D03*
X52480000Y-24255000D03*
%TD*%
D10*
%TO.C,D258*%
X139210000Y-46320000D03*
D11*
X139210000Y-48860000D03*
%TD*%
D12*
%TO.C,Q269*%
X119360000Y-225325000D03*
D13*
X121900000Y-225325000D03*
X124440000Y-225325000D03*
%TD*%
D10*
%TO.C,D605*%
X177310000Y-56480000D03*
D11*
X177310000Y-59020000D03*
%TD*%
%TO.C,R43*%
X9000000Y-125855000D03*
X14080000Y-125855000D03*
%TD*%
D10*
%TO.C,D607*%
X177310000Y-66640000D03*
D11*
X177310000Y-69180000D03*
%TD*%
D12*
%TO.C,Q183*%
X39720000Y-225550000D03*
D13*
X42260000Y-225550000D03*
X44800000Y-225550000D03*
%TD*%
D12*
%TO.C,Q82*%
X21760000Y-214755000D03*
D13*
X19220000Y-214755000D03*
X16680000Y-214755000D03*
%TD*%
D10*
%TO.C,D883*%
X207790000Y-66640000D03*
D11*
X207790000Y-69180000D03*
%TD*%
D10*
%TO.C,D521*%
X167150000Y-97120000D03*
D11*
X167150000Y-99660000D03*
%TD*%
%TO.C,R280*%
X93480000Y-32255000D03*
X98560000Y-32255000D03*
%TD*%
D10*
%TO.C,D435*%
X156990000Y-127600000D03*
D11*
X156990000Y-130140000D03*
%TD*%
D12*
%TO.C,Q395*%
X104000000Y-156745000D03*
D13*
X106540000Y-156745000D03*
X109080000Y-156745000D03*
%TD*%
D10*
%TO.C,D69*%
X116350000Y-137760000D03*
D11*
X116350000Y-140300000D03*
%TD*%
D10*
%TO.C,D508*%
X167150000Y-31080000D03*
D11*
X167150000Y-33620000D03*
%TD*%
D10*
%TO.C,D300*%
X144290000Y-26000000D03*
D11*
X144290000Y-28540000D03*
%TD*%
D10*
%TO.C,D126*%
X123970000Y-76800000D03*
D11*
X123970000Y-79340000D03*
%TD*%
%TO.C,R237*%
X111680000Y-170715000D03*
X116760000Y-170715000D03*
%TD*%
D12*
%TO.C,Q382*%
X67840000Y-198625000D03*
D13*
X65300000Y-198625000D03*
X62760000Y-198625000D03*
%TD*%
D10*
%TO.C,D702*%
X187470000Y-81880000D03*
D11*
X187470000Y-84420000D03*
%TD*%
D10*
%TO.C,D560*%
X172230000Y-61560000D03*
D11*
X172230000Y-64100000D03*
%TD*%
%TO.C,R35*%
X9000000Y-24255000D03*
X14080000Y-24255000D03*
%TD*%
D10*
%TO.C,D500*%
X164610000Y-107280000D03*
D11*
X164610000Y-109820000D03*
%TD*%
%TO.C,R331*%
X85800000Y-135125000D03*
X90880000Y-135125000D03*
%TD*%
D12*
%TO.C,Q274*%
X132120000Y-216435000D03*
D13*
X129580000Y-216435000D03*
X127040000Y-216435000D03*
%TD*%
D12*
%TO.C,Q591*%
X83200000Y-174495000D03*
D13*
X80660000Y-174495000D03*
X78120000Y-174495000D03*
%TD*%
D12*
%TO.C,Q10*%
X226880000Y-191670000D03*
D13*
X229420000Y-191670000D03*
X231960000Y-191670000D03*
%TD*%
D10*
%TO.C,D446*%
X159530000Y-66640000D03*
D11*
X159530000Y-69180000D03*
%TD*%
D12*
%TO.C,Q107*%
X24360000Y-170305000D03*
D13*
X26900000Y-170305000D03*
X29440000Y-170305000D03*
%TD*%
D10*
%TO.C,D34*%
X113810000Y-76800000D03*
D11*
X113810000Y-79340000D03*
%TD*%
D12*
%TO.C,Q237*%
X55080000Y-132205000D03*
D13*
X57620000Y-132205000D03*
X60160000Y-132205000D03*
%TD*%
D10*
%TO.C,D58*%
X116350000Y-81880000D03*
D11*
X116350000Y-84420000D03*
%TD*%
D10*
%TO.C,D332*%
X146830000Y-71720000D03*
D11*
X146830000Y-74260000D03*
%TD*%
%TO.C,R343*%
X70440000Y-195450000D03*
X75520000Y-195450000D03*
%TD*%
%TO.C,R310*%
X93480000Y-156080000D03*
X98560000Y-156080000D03*
%TD*%
D10*
%TO.C,D536*%
X169690000Y-56480000D03*
D11*
X169690000Y-59020000D03*
%TD*%
%TO.C,R118*%
X39720000Y-162685000D03*
X44800000Y-162685000D03*
%TD*%
D12*
%TO.C,Q403*%
X104000000Y-203735000D03*
D13*
X106540000Y-203735000D03*
X109080000Y-203735000D03*
%TD*%
D12*
%TO.C,Q340*%
X196160000Y-223420000D03*
D13*
X198700000Y-223420000D03*
X201240000Y-223420000D03*
%TD*%
D10*
%TO.C,D730*%
X190010000Y-107280000D03*
D11*
X190010000Y-109820000D03*
%TD*%
%TO.C,R170*%
X127040000Y-220880000D03*
X132120000Y-220880000D03*
%TD*%
D10*
%TO.C,D204*%
X131590000Y-122520000D03*
D11*
X131590000Y-125060000D03*
%TD*%
D12*
%TO.C,Q198*%
X52480000Y-94740000D03*
D13*
X49940000Y-94740000D03*
X47400000Y-94740000D03*
%TD*%
D11*
%TO.C,R155*%
X55080000Y-202690000D03*
X60160000Y-202690000D03*
%TD*%
%TO.C,R318*%
X93480000Y-189100000D03*
X98560000Y-189100000D03*
%TD*%
D10*
%TO.C,D519*%
X167150000Y-86960000D03*
D11*
X167150000Y-89500000D03*
%TD*%
D12*
%TO.C,Q339*%
X196160000Y-215165000D03*
D13*
X198700000Y-215165000D03*
X201240000Y-215165000D03*
%TD*%
D10*
%TO.C,D172*%
X129050000Y-76800000D03*
D11*
X129050000Y-79340000D03*
%TD*%
D10*
%TO.C,D440*%
X159530000Y-36160000D03*
D11*
X159530000Y-38700000D03*
%TD*%
D10*
%TO.C,D227*%
X134130000Y-122520000D03*
D11*
X134130000Y-125060000D03*
%TD*%
D10*
%TO.C,D344*%
X146830000Y-132680000D03*
D11*
X146830000Y-135220000D03*
%TD*%
D10*
%TO.C,D22*%
X111270000Y-132680000D03*
D11*
X111270000Y-135220000D03*
%TD*%
%TO.C,R5*%
X227300000Y-46320000D03*
X232380000Y-46320000D03*
%TD*%
D12*
%TO.C,Q284*%
X134720000Y-243740000D03*
D13*
X137260000Y-243740000D03*
X139800000Y-243740000D03*
%TD*%
D12*
%TO.C,Q318*%
X178200000Y-227865000D03*
D13*
X175660000Y-227865000D03*
X173120000Y-227865000D03*
%TD*%
D10*
%TO.C,D713*%
X187470000Y-137760000D03*
D11*
X187470000Y-140300000D03*
%TD*%
D10*
%TO.C,D845*%
X202710000Y-107280000D03*
D11*
X202710000Y-109820000D03*
%TD*%
D10*
%TO.C,D303*%
X144290000Y-41240000D03*
D11*
X144290000Y-43780000D03*
%TD*%
D12*
%TO.C,Q20*%
X9000000Y-28700000D03*
D13*
X11540000Y-28700000D03*
X14080000Y-28700000D03*
%TD*%
D10*
%TO.C,D364*%
X149370000Y-117440000D03*
D11*
X149370000Y-119980000D03*
%TD*%
D10*
%TO.C,D164*%
X129050000Y-36160000D03*
D11*
X129050000Y-38700000D03*
%TD*%
D12*
%TO.C,Q124*%
X37120000Y-54735000D03*
D13*
X34580000Y-54735000D03*
X32040000Y-54735000D03*
%TD*%
D12*
%TO.C,Q414*%
X119360000Y-161825000D03*
D13*
X121900000Y-161825000D03*
X124440000Y-161825000D03*
%TD*%
D11*
%TO.C,R193*%
X173120000Y-240565000D03*
X178200000Y-240565000D03*
%TD*%
D10*
%TO.C,D999*%
X220490000Y-71720000D03*
D11*
X220490000Y-74260000D03*
%TD*%
%TO.C,R61*%
X16680000Y-130935000D03*
X21760000Y-130935000D03*
%TD*%
D10*
%TO.C,D183*%
X129050000Y-132680000D03*
D11*
X129050000Y-135220000D03*
%TD*%
D10*
%TO.C,D947*%
X215410000Y-41240000D03*
D11*
X215410000Y-43780000D03*
%TD*%
D10*
%TO.C,D307*%
X144290000Y-61560000D03*
D11*
X144290000Y-64100000D03*
%TD*%
%TO.C,R98*%
X32040000Y-137285000D03*
X37120000Y-137285000D03*
%TD*%
D10*
%TO.C,D831*%
X202710000Y-36160000D03*
D11*
X202710000Y-38700000D03*
%TD*%
%TO.C,R316*%
X93480000Y-180845000D03*
X98560000Y-180845000D03*
%TD*%
D12*
%TO.C,Q550*%
X85800000Y-53210000D03*
D13*
X88340000Y-53210000D03*
X90880000Y-53210000D03*
%TD*%
D12*
%TO.C,Q219*%
X52480000Y-233170000D03*
D13*
X49940000Y-233170000D03*
X47400000Y-233170000D03*
%TD*%
D15*
%TO.C,D1053*%
X80660000Y-170050000D03*
D16*
X80660000Y-167510000D03*
%TD*%
D12*
%TO.C,Q348*%
X208920000Y-227865000D03*
D13*
X206380000Y-227865000D03*
X203840000Y-227865000D03*
%TD*%
D12*
%TO.C,Q157*%
X39720000Y-52195000D03*
D13*
X42260000Y-52195000D03*
X44800000Y-52195000D03*
%TD*%
D10*
%TO.C,D833*%
X202710000Y-46320000D03*
D11*
X202710000Y-48860000D03*
%TD*%
D12*
%TO.C,Q225*%
X55080000Y-52195000D03*
D13*
X57620000Y-52195000D03*
X60160000Y-52195000D03*
%TD*%
D10*
%TO.C,D710*%
X187470000Y-122520000D03*
D11*
X187470000Y-125060000D03*
%TD*%
D10*
%TO.C,D31*%
X113810000Y-61560000D03*
D11*
X113810000Y-64100000D03*
%TD*%
D12*
%TO.C,Q211*%
X52480000Y-179830000D03*
D13*
X49940000Y-179830000D03*
X47400000Y-179830000D03*
%TD*%
D10*
%TO.C,D841*%
X202710000Y-86960000D03*
D11*
X202710000Y-89500000D03*
%TD*%
D12*
%TO.C,Q374*%
X67840000Y-142110000D03*
D13*
X65300000Y-142110000D03*
X62760000Y-142110000D03*
%TD*%
D10*
%TO.C,D828*%
X200170000Y-137760000D03*
D11*
X200170000Y-140300000D03*
%TD*%
D12*
%TO.C,Q275*%
X132120000Y-224690000D03*
D13*
X129580000Y-224690000D03*
X127040000Y-224690000D03*
%TD*%
D11*
%TO.C,R21*%
X227300000Y-127600000D03*
X232380000Y-127600000D03*
%TD*%
D12*
%TO.C,Q440*%
X147480000Y-156110000D03*
D13*
X144940000Y-156110000D03*
X142400000Y-156110000D03*
%TD*%
D12*
%TO.C,Q54*%
X21760000Y-28065000D03*
D13*
X19220000Y-28065000D03*
X16680000Y-28065000D03*
%TD*%
D10*
%TO.C,D80*%
X118890000Y-76800000D03*
D11*
X118890000Y-79340000D03*
%TD*%
D12*
%TO.C,Q34*%
X9000000Y-122045000D03*
D13*
X11540000Y-122045000D03*
X14080000Y-122045000D03*
%TD*%
D10*
%TO.C,D99*%
X121430000Y-56480000D03*
D11*
X121430000Y-59020000D03*
%TD*%
D10*
%TO.C,D886*%
X207790000Y-81880000D03*
D11*
X207790000Y-84420000D03*
%TD*%
D12*
%TO.C,Q368*%
X224280000Y-236120000D03*
D13*
X221740000Y-236120000D03*
X219200000Y-236120000D03*
%TD*%
D10*
%TO.C,D1020*%
X223030000Y-61560000D03*
D11*
X223030000Y-64100000D03*
%TD*%
%TO.C,R195*%
X180800000Y-200560000D03*
X185880000Y-200560000D03*
%TD*%
D10*
%TO.C,D147*%
X126510000Y-66640000D03*
D11*
X126510000Y-69180000D03*
%TD*%
D12*
%TO.C,Q445*%
X147480000Y-184685000D03*
D13*
X144940000Y-184685000D03*
X142400000Y-184685000D03*
%TD*%
D10*
%TO.C,D73*%
X118890000Y-41240000D03*
D11*
X118890000Y-43780000D03*
%TD*%
%TO.C,R62*%
X16680000Y-149350000D03*
X21760000Y-149350000D03*
%TD*%
D12*
%TO.C,Q7*%
X226880000Y-170080000D03*
D13*
X229420000Y-170080000D03*
X231960000Y-170080000D03*
%TD*%
D10*
%TO.C,D955*%
X215410000Y-81880000D03*
D11*
X215410000Y-84420000D03*
%TD*%
D12*
%TO.C,Q358*%
X224280000Y-169445000D03*
D13*
X221740000Y-169445000D03*
X219200000Y-169445000D03*
%TD*%
D12*
%TO.C,Q215*%
X52480000Y-206500000D03*
D13*
X49940000Y-206500000D03*
X47400000Y-206500000D03*
%TD*%
D12*
%TO.C,Q418*%
X119360000Y-185320000D03*
D13*
X121900000Y-185320000D03*
X124440000Y-185320000D03*
%TD*%
D11*
%TO.C,R233*%
X104000000Y-152300000D03*
X109080000Y-152300000D03*
%TD*%
%TO.C,R143*%
X55080000Y-42670000D03*
X60160000Y-42670000D03*
%TD*%
D10*
%TO.C,D108*%
X121430000Y-102200000D03*
D11*
X121430000Y-104740000D03*
%TD*%
%TO.C,R204*%
X196160000Y-205640000D03*
X201240000Y-205640000D03*
%TD*%
D10*
%TO.C,D191*%
X131590000Y-56480000D03*
D11*
X131590000Y-59020000D03*
%TD*%
%TO.C,R178*%
X150080000Y-192305000D03*
X155160000Y-192305000D03*
%TD*%
D10*
%TO.C,D379*%
X151910000Y-76800000D03*
D11*
X151910000Y-79340000D03*
%TD*%
D12*
%TO.C,Q509*%
X98560000Y-36065000D03*
D13*
X96020000Y-36065000D03*
X93480000Y-36065000D03*
%TD*%
D10*
%TO.C,D509*%
X167150000Y-36160000D03*
D11*
X167150000Y-38700000D03*
%TD*%
%TO.C,R47*%
X9000000Y-179195000D03*
X14080000Y-179195000D03*
%TD*%
D14*
%TO.C,H2*%
X241000000Y-20000000D03*
%TD*%
D10*
%TO.C,D350*%
X149370000Y-46320000D03*
D11*
X149370000Y-48860000D03*
%TD*%
%TO.C,R194*%
X180800000Y-192305000D03*
X185880000Y-192305000D03*
%TD*%
D10*
%TO.C,D816*%
X200170000Y-76800000D03*
D11*
X200170000Y-79340000D03*
%TD*%
D12*
%TO.C,Q549*%
X98560000Y-201165000D03*
D13*
X96020000Y-201165000D03*
X93480000Y-201165000D03*
%TD*%
D10*
%TO.C,D189*%
X131590000Y-46320000D03*
D11*
X131590000Y-48860000D03*
%TD*%
D12*
%TO.C,Q143*%
X37120000Y-189355000D03*
D13*
X34580000Y-189355000D03*
X32040000Y-189355000D03*
%TD*%
D10*
%TO.C,D396*%
X154450000Y-46320000D03*
D11*
X154450000Y-48860000D03*
%TD*%
D10*
%TO.C,D208*%
X134130000Y-26000000D03*
D11*
X134130000Y-28540000D03*
%TD*%
D12*
%TO.C,Q558*%
X85800000Y-99565000D03*
D13*
X88340000Y-99565000D03*
X90880000Y-99565000D03*
%TD*%
D10*
%TO.C,D789*%
X197630000Y-56480000D03*
D11*
X197630000Y-59020000D03*
%TD*%
D10*
%TO.C,D665*%
X182390000Y-127600000D03*
D11*
X182390000Y-130140000D03*
%TD*%
D12*
%TO.C,Q369*%
X224280000Y-241200000D03*
D13*
X221740000Y-241200000D03*
X219200000Y-241200000D03*
%TD*%
D12*
%TO.C,Q196*%
X52480000Y-78230000D03*
D13*
X49940000Y-78230000D03*
X47400000Y-78230000D03*
%TD*%
D10*
%TO.C,D205*%
X131590000Y-127600000D03*
D11*
X131590000Y-130140000D03*
%TD*%
D10*
%TO.C,D158*%
X126510000Y-122520000D03*
D11*
X126510000Y-125060000D03*
%TD*%
D10*
%TO.C,D653*%
X182390000Y-66640000D03*
D11*
X182390000Y-69180000D03*
%TD*%
D10*
%TO.C,D264*%
X139210000Y-76800000D03*
D11*
X139210000Y-79340000D03*
%TD*%
D12*
%TO.C,Q587*%
X83200000Y-113535000D03*
D13*
X80660000Y-113535000D03*
X78120000Y-113535000D03*
%TD*%
D10*
%TO.C,D777*%
X195090000Y-112360000D03*
D11*
X195090000Y-114900000D03*
%TD*%
D10*
%TO.C,D113*%
X121430000Y-127600000D03*
D11*
X121430000Y-130140000D03*
%TD*%
D10*
%TO.C,D900*%
X210330000Y-36160000D03*
D11*
X210330000Y-38700000D03*
%TD*%
D12*
%TO.C,Q58*%
X21760000Y-54735000D03*
D13*
X19220000Y-54735000D03*
X16680000Y-54735000D03*
%TD*%
D10*
%TO.C,D788*%
X197630000Y-51400000D03*
D11*
X197630000Y-53940000D03*
%TD*%
D10*
%TO.C,D608*%
X177310000Y-71720000D03*
D11*
X177310000Y-74260000D03*
%TD*%
D12*
%TO.C,Q534*%
X83200000Y-27810000D03*
D13*
X80660000Y-27810000D03*
X78120000Y-27810000D03*
%TD*%
D10*
%TO.C,D242*%
X136670000Y-81880000D03*
D11*
X136670000Y-84420000D03*
%TD*%
%TO.C,R326*%
X85800000Y-73530000D03*
X90880000Y-73530000D03*
%TD*%
D10*
%TO.C,D858*%
X205250000Y-56480000D03*
D11*
X205250000Y-59020000D03*
%TD*%
D12*
%TO.C,Q468*%
X178200000Y-161190000D03*
D13*
X175660000Y-161190000D03*
X173120000Y-161190000D03*
%TD*%
D10*
%TO.C,D112*%
X121430000Y-122520000D03*
D11*
X121430000Y-125060000D03*
%TD*%
D12*
%TO.C,Q120*%
X37120000Y-24890000D03*
D13*
X34580000Y-24890000D03*
X32040000Y-24890000D03*
%TD*%
D10*
%TO.C,D670*%
X184930000Y-36160000D03*
D11*
X184930000Y-38700000D03*
%TD*%
D10*
%TO.C,D522*%
X167150000Y-102200000D03*
D11*
X167150000Y-104740000D03*
%TD*%
D10*
%TO.C,D456*%
X159530000Y-117440000D03*
D11*
X159530000Y-119980000D03*
%TD*%
D10*
%TO.C,D210*%
X134130000Y-36160000D03*
D11*
X134130000Y-38700000D03*
%TD*%
D10*
%TO.C,D942*%
X212870000Y-132680000D03*
D11*
X212870000Y-135220000D03*
%TD*%
D10*
%TO.C,D368*%
X149370000Y-137760000D03*
D11*
X149370000Y-140300000D03*
%TD*%
D10*
%TO.C,D580*%
X174770000Y-46320000D03*
D11*
X174770000Y-48860000D03*
%TD*%
D10*
%TO.C,D487*%
X164610000Y-41240000D03*
D11*
X164610000Y-43780000D03*
%TD*%
D10*
%TO.C,D369*%
X151910000Y-26000000D03*
D11*
X151910000Y-28540000D03*
%TD*%
D12*
%TO.C,Q278*%
X132120000Y-243105000D03*
D13*
X129580000Y-243105000D03*
X127040000Y-243105000D03*
%TD*%
D12*
%TO.C,Q511*%
X98560000Y-44320000D03*
D13*
X96020000Y-44320000D03*
X93480000Y-44320000D03*
%TD*%
D12*
%TO.C,Q310*%
X165440000Y-215165000D03*
D13*
X167980000Y-215165000D03*
X170520000Y-215165000D03*
%TD*%
D10*
%TO.C,D548*%
X169690000Y-117440000D03*
D11*
X169690000Y-119980000D03*
%TD*%
D10*
%TO.C,D628*%
X179850000Y-56480000D03*
D11*
X179850000Y-59020000D03*
%TD*%
%TO.C,R73*%
X24360000Y-69340000D03*
X29440000Y-69340000D03*
%TD*%
D10*
%TO.C,D418*%
X156990000Y-41240000D03*
D11*
X156990000Y-43780000D03*
%TD*%
D12*
%TO.C,Q46*%
X9000000Y-202055000D03*
D13*
X11540000Y-202055000D03*
X14080000Y-202055000D03*
%TD*%
D10*
%TO.C,D261*%
X139210000Y-61560000D03*
D11*
X139210000Y-64100000D03*
%TD*%
D10*
%TO.C,D802*%
X197630000Y-122520000D03*
D11*
X197630000Y-125060000D03*
%TD*%
D10*
%TO.C,D570*%
X172230000Y-112360000D03*
D11*
X172230000Y-114900000D03*
%TD*%
D10*
%TO.C,D218*%
X134130000Y-76800000D03*
D11*
X134130000Y-79340000D03*
%TD*%
D10*
%TO.C,D285*%
X141750000Y-66640000D03*
D11*
X141750000Y-69180000D03*
%TD*%
D10*
%TO.C,D621*%
X177310000Y-137760000D03*
D11*
X177310000Y-140300000D03*
%TD*%
D10*
%TO.C,D801*%
X197630000Y-117440000D03*
D11*
X197630000Y-119980000D03*
%TD*%
D10*
%TO.C,D630*%
X179850000Y-66640000D03*
D11*
X179850000Y-69180000D03*
%TD*%
D12*
%TO.C,Q172*%
X39720000Y-153795000D03*
D13*
X42260000Y-153795000D03*
X44800000Y-153795000D03*
%TD*%
D10*
%TO.C,D5*%
X111270000Y-46320000D03*
D11*
X111270000Y-48860000D03*
%TD*%
D10*
%TO.C,D412*%
X154450000Y-127600000D03*
D11*
X154450000Y-130140000D03*
%TD*%
D10*
%TO.C,D160*%
X126510000Y-132680000D03*
D11*
X126510000Y-135220000D03*
%TD*%
%TO.C,R200*%
X188480000Y-205640000D03*
X193560000Y-205640000D03*
%TD*%
D12*
%TO.C,Q185*%
X39720000Y-238885000D03*
D13*
X42260000Y-238885000D03*
X44800000Y-238885000D03*
%TD*%
D11*
%TO.C,R323*%
X85800000Y-57020000D03*
X90880000Y-57020000D03*
%TD*%
D10*
%TO.C,D40*%
X113810000Y-107280000D03*
D11*
X113810000Y-109820000D03*
%TD*%
D10*
%TO.C,D130*%
X123970000Y-97120000D03*
D11*
X123970000Y-99660000D03*
%TD*%
D10*
%TO.C,D371*%
X151910000Y-36160000D03*
D11*
X151910000Y-38700000D03*
%TD*%
D12*
%TO.C,Q313*%
X178200000Y-196115000D03*
D13*
X175660000Y-196115000D03*
X173120000Y-196115000D03*
%TD*%
D12*
%TO.C,Q52*%
X9000000Y-242060000D03*
D13*
X11540000Y-242060000D03*
X14080000Y-242060000D03*
%TD*%
D12*
%TO.C,Q242*%
X55080000Y-167130000D03*
D13*
X57620000Y-167130000D03*
X60160000Y-167130000D03*
%TD*%
D10*
%TO.C,D490*%
X164610000Y-56480000D03*
D11*
X164610000Y-59020000D03*
%TD*%
D10*
%TO.C,D626*%
X179850000Y-46320000D03*
D11*
X179850000Y-48860000D03*
%TD*%
D10*
%TO.C,D152*%
X126510000Y-92040000D03*
D11*
X126510000Y-94580000D03*
%TD*%
D10*
%TO.C,D290*%
X141750000Y-92040000D03*
D11*
X141750000Y-94580000D03*
%TD*%
D12*
%TO.C,Q585*%
X83200000Y-83055000D03*
D13*
X80660000Y-83055000D03*
X78120000Y-83055000D03*
%TD*%
D12*
%TO.C,Q11*%
X226880000Y-196750000D03*
D13*
X229420000Y-196750000D03*
X231960000Y-196750000D03*
%TD*%
D12*
%TO.C,Q475*%
X180800000Y-170080000D03*
D13*
X183340000Y-170080000D03*
X185880000Y-170080000D03*
%TD*%
D12*
%TO.C,Q94*%
X24360000Y-78865000D03*
D13*
X26900000Y-78865000D03*
X29440000Y-78865000D03*
%TD*%
D10*
%TO.C,D1035*%
X223030000Y-137760000D03*
D11*
X223030000Y-140300000D03*
%TD*%
%TO.C,R186*%
X165440000Y-192305000D03*
X170520000Y-192305000D03*
%TD*%
%TO.C,R77*%
X24360000Y-122680000D03*
X29440000Y-122680000D03*
%TD*%
D10*
%TO.C,D973*%
X217950000Y-56480000D03*
D11*
X217950000Y-59020000D03*
%TD*%
%TO.C,R66*%
X16680000Y-192530000D03*
X21760000Y-192530000D03*
%TD*%
%TO.C,R304*%
X93480000Y-131315000D03*
X98560000Y-131315000D03*
%TD*%
D10*
%TO.C,D859*%
X205250000Y-61560000D03*
D11*
X205250000Y-64100000D03*
%TD*%
D10*
%TO.C,D855*%
X205250000Y-41240000D03*
D11*
X205250000Y-43780000D03*
%TD*%
D10*
%TO.C,D735*%
X190010000Y-132680000D03*
D11*
X190010000Y-135220000D03*
%TD*%
%TO.C,R63*%
X16680000Y-162685000D03*
X21760000Y-162685000D03*
%TD*%
D12*
%TO.C,Q398*%
X104000000Y-175160000D03*
D13*
X106540000Y-175160000D03*
X109080000Y-175160000D03*
%TD*%
D10*
%TO.C,D557*%
X172230000Y-46320000D03*
D11*
X172230000Y-48860000D03*
%TD*%
D10*
%TO.C,D540*%
X169690000Y-76800000D03*
D11*
X169690000Y-79340000D03*
%TD*%
D10*
%TO.C,D795*%
X197630000Y-86960000D03*
D11*
X197630000Y-89500000D03*
%TD*%
D12*
%TO.C,Q300*%
X162840000Y-201195000D03*
D13*
X160300000Y-201195000D03*
X157760000Y-201195000D03*
%TD*%
D10*
%TO.C,D595*%
X174770000Y-122520000D03*
D11*
X174770000Y-125060000D03*
%TD*%
D17*
%TO.C,J1*%
X10630000Y-7500000D03*
D18*
X10630000Y-4960000D03*
X13170000Y-7500000D03*
X13170000Y-4960000D03*
X15710000Y-7500000D03*
X15710000Y-4960000D03*
X18250000Y-7500000D03*
X18250000Y-4960000D03*
X20790000Y-7500000D03*
X20790000Y-4960000D03*
X23330000Y-7500000D03*
X23330000Y-4960000D03*
X25870000Y-7500000D03*
X25870000Y-4960000D03*
X28410000Y-7500000D03*
X28410000Y-4960000D03*
X30950000Y-7500000D03*
X30950000Y-4960000D03*
X33490000Y-7500000D03*
X33490000Y-4960000D03*
X36030000Y-7500000D03*
X36030000Y-4960000D03*
X38570000Y-7500000D03*
X38570000Y-4960000D03*
X41110000Y-7500000D03*
X41110000Y-4960000D03*
X43650000Y-7500000D03*
X43650000Y-4960000D03*
X46190000Y-7500000D03*
X46190000Y-4960000D03*
X48730000Y-7500000D03*
X48730000Y-4960000D03*
X51270000Y-7500000D03*
X51270000Y-4960000D03*
X53810000Y-7500000D03*
X53810000Y-4960000D03*
X56350000Y-7500000D03*
X56350000Y-4960000D03*
X58890000Y-7500000D03*
X58890000Y-4960000D03*
X61430000Y-7500000D03*
X61430000Y-4960000D03*
X63970000Y-7500000D03*
X63970000Y-4960000D03*
X66510000Y-7500000D03*
X66510000Y-4960000D03*
X69050000Y-7500000D03*
X69050000Y-4960000D03*
X71590000Y-7500000D03*
X71590000Y-4960000D03*
X74130000Y-7500000D03*
X74130000Y-4960000D03*
X76670000Y-7500000D03*
X76670000Y-4960000D03*
X79210000Y-7500000D03*
X79210000Y-4960000D03*
X81750000Y-7500000D03*
X81750000Y-4960000D03*
X84290000Y-7500000D03*
X84290000Y-4960000D03*
X86830000Y-7500000D03*
X86830000Y-4960000D03*
X89370000Y-7500000D03*
X89370000Y-4960000D03*
%TD*%
D10*
%TO.C,D298*%
X141750000Y-132680000D03*
D11*
X141750000Y-135220000D03*
%TD*%
D12*
%TO.C,Q462*%
X165440000Y-161825000D03*
D13*
X167980000Y-161825000D03*
X170520000Y-161825000D03*
%TD*%
D12*
%TO.C,Q179*%
X39720000Y-198880000D03*
D13*
X42260000Y-198880000D03*
X44800000Y-198880000D03*
%TD*%
D10*
%TO.C,D959*%
X215410000Y-102200000D03*
D11*
X215410000Y-104740000D03*
%TD*%
D12*
%TO.C,Q430*%
X132120000Y-203100000D03*
D13*
X129580000Y-203100000D03*
X127040000Y-203100000D03*
%TD*%
D10*
%TO.C,D967*%
X217950000Y-26000000D03*
D11*
X217950000Y-28540000D03*
%TD*%
D10*
%TO.C,D16*%
X111270000Y-102200000D03*
D11*
X111270000Y-104740000D03*
%TD*%
D10*
%TO.C,D1021*%
X223030000Y-66640000D03*
D11*
X223030000Y-69180000D03*
%TD*%
%TO.C,R81*%
X24360000Y-165860000D03*
X29440000Y-165860000D03*
%TD*%
D10*
%TO.C,D961*%
X215410000Y-112360000D03*
D11*
X215410000Y-114900000D03*
%TD*%
D12*
%TO.C,Q569*%
X85800000Y-171320000D03*
D13*
X88340000Y-171320000D03*
X90880000Y-171320000D03*
%TD*%
D10*
%TO.C,D686*%
X184930000Y-117440000D03*
D11*
X184930000Y-119980000D03*
%TD*%
D12*
%TO.C,Q522*%
X67840000Y-85595000D03*
D13*
X65300000Y-85595000D03*
X62760000Y-85595000D03*
%TD*%
D10*
%TO.C,D935*%
X212870000Y-97120000D03*
D11*
X212870000Y-99660000D03*
%TD*%
D10*
%TO.C,D366*%
X149370000Y-127600000D03*
D11*
X149370000Y-130140000D03*
%TD*%
D10*
%TO.C,D294*%
X141750000Y-112360000D03*
D11*
X141750000Y-114900000D03*
%TD*%
D12*
%TO.C,Q456*%
X162840000Y-161190000D03*
D13*
X160300000Y-161190000D03*
X157760000Y-161190000D03*
%TD*%
D10*
%TO.C,D842*%
X202710000Y-92040000D03*
D11*
X202710000Y-94580000D03*
%TD*%
D12*
%TO.C,Q545*%
X98560000Y-184655000D03*
D13*
X96020000Y-184655000D03*
X93480000Y-184655000D03*
%TD*%
D12*
%TO.C,Q439*%
X134720000Y-203735000D03*
D13*
X137260000Y-203735000D03*
X139800000Y-203735000D03*
%TD*%
D10*
%TO.C,D179*%
X129050000Y-112360000D03*
D11*
X129050000Y-114900000D03*
%TD*%
%TO.C,R132*%
X47400000Y-117600000D03*
X52480000Y-117600000D03*
%TD*%
D10*
%TO.C,D931*%
X212870000Y-76800000D03*
D11*
X212870000Y-79340000D03*
%TD*%
D10*
%TO.C,D61*%
X116350000Y-97120000D03*
D11*
X116350000Y-99660000D03*
%TD*%
D10*
%TO.C,D341*%
X146830000Y-117440000D03*
D11*
X146830000Y-119980000D03*
%TD*%
D12*
%TO.C,Q394*%
X70440000Y-84960000D03*
D13*
X72980000Y-84960000D03*
X75520000Y-84960000D03*
%TD*%
D10*
%TO.C,D157*%
X126510000Y-117440000D03*
D11*
X126510000Y-119980000D03*
%TD*%
D10*
%TO.C,D265*%
X139210000Y-81880000D03*
D11*
X139210000Y-84420000D03*
%TD*%
D10*
%TO.C,D57*%
X116350000Y-76800000D03*
D11*
X116350000Y-79340000D03*
%TD*%
D12*
%TO.C,Q411*%
X116760000Y-198020000D03*
D13*
X114220000Y-198020000D03*
X111680000Y-198020000D03*
%TD*%
D10*
%TO.C,D383*%
X151910000Y-97120000D03*
D11*
X151910000Y-99660000D03*
%TD*%
D10*
%TO.C,D233*%
X136670000Y-36160000D03*
D11*
X136670000Y-38700000D03*
%TD*%
D10*
%TO.C,D251*%
X136670000Y-127600000D03*
D11*
X136670000Y-130140000D03*
%TD*%
D10*
%TO.C,D293*%
X141750000Y-107280000D03*
D11*
X141750000Y-109820000D03*
%TD*%
D15*
%TO.C,D1040*%
X72980000Y-156080000D03*
D16*
X72980000Y-153540000D03*
%TD*%
D12*
%TO.C,Q370*%
X226880000Y-156745000D03*
D13*
X229420000Y-156745000D03*
X231960000Y-156745000D03*
%TD*%
D10*
%TO.C,D785*%
X197630000Y-36160000D03*
D11*
X197630000Y-38700000D03*
%TD*%
D12*
%TO.C,Q55*%
X21760000Y-33145000D03*
D13*
X19220000Y-33145000D03*
X16680000Y-33145000D03*
%TD*%
D11*
%TO.C,R34*%
X9000000Y-16000000D03*
X14080000Y-16000000D03*
%TD*%
D10*
%TO.C,D171*%
X129050000Y-71720000D03*
D11*
X129050000Y-74260000D03*
%TD*%
D10*
%TO.C,D733*%
X190010000Y-122520000D03*
D11*
X190010000Y-125060000D03*
%TD*%
D10*
%TO.C,D206*%
X131590000Y-132680000D03*
D11*
X131590000Y-135220000D03*
%TD*%
D12*
%TO.C,Q507*%
X98560000Y-27810000D03*
D13*
X96020000Y-27810000D03*
X93480000Y-27810000D03*
%TD*%
D10*
%TO.C,D377*%
X151910000Y-66640000D03*
D11*
X151910000Y-69180000D03*
%TD*%
D10*
%TO.C,D569*%
X172230000Y-107280000D03*
D11*
X172230000Y-109820000D03*
%TD*%
D10*
%TO.C,D920*%
X210330000Y-137760000D03*
D11*
X210330000Y-140300000D03*
%TD*%
D10*
%TO.C,D746*%
X192550000Y-71720000D03*
D11*
X192550000Y-74260000D03*
%TD*%
D10*
%TO.C,D119*%
X123970000Y-41240000D03*
D11*
X123970000Y-43780000D03*
%TD*%
%TO.C,R148*%
X55080000Y-109345000D03*
X60160000Y-109345000D03*
%TD*%
D10*
%TO.C,D425*%
X156990000Y-76800000D03*
D11*
X156990000Y-79340000D03*
%TD*%
D10*
%TO.C,D1032*%
X223030000Y-122520000D03*
D11*
X223030000Y-125060000D03*
%TD*%
%TO.C,R2*%
X227300000Y-31080000D03*
X232380000Y-31080000D03*
%TD*%
D10*
%TO.C,D586*%
X174770000Y-76800000D03*
D11*
X174770000Y-79340000D03*
%TD*%
D12*
%TO.C,Q459*%
X162840000Y-182780000D03*
D13*
X160300000Y-182780000D03*
X157760000Y-182780000D03*
%TD*%
D10*
%TO.C,D498*%
X164610000Y-97120000D03*
D11*
X164610000Y-99660000D03*
%TD*%
D12*
%TO.C,Q37*%
X9000000Y-143635000D03*
D13*
X11540000Y-143635000D03*
X14080000Y-143635000D03*
%TD*%
D10*
%TO.C,D507*%
X167150000Y-26000000D03*
D11*
X167150000Y-28540000D03*
%TD*%
D12*
%TO.C,Q527*%
X98560000Y-110360000D03*
D13*
X96020000Y-110360000D03*
X93480000Y-110360000D03*
%TD*%
D10*
%TO.C,D442*%
X159530000Y-46320000D03*
D11*
X159530000Y-48860000D03*
%TD*%
D10*
%TO.C,D681*%
X184930000Y-92040000D03*
D11*
X184930000Y-94580000D03*
%TD*%
D12*
%TO.C,Q413*%
X119360000Y-156745000D03*
D13*
X121900000Y-156745000D03*
X124440000Y-156745000D03*
%TD*%
D12*
%TO.C,Q500*%
X211520000Y-166905000D03*
D13*
X214060000Y-166905000D03*
X216600000Y-166905000D03*
%TD*%
D10*
%TO.C,D618*%
X177310000Y-122520000D03*
D11*
X177310000Y-125060000D03*
%TD*%
D10*
%TO.C,D269*%
X139210000Y-102200000D03*
D11*
X139210000Y-104740000D03*
%TD*%
D10*
%TO.C,D136*%
X123970000Y-127600000D03*
D11*
X123970000Y-130140000D03*
%TD*%
%TO.C,R156*%
X55080000Y-216025000D03*
X60160000Y-216025000D03*
%TD*%
D10*
%TO.C,D463*%
X162070000Y-36160000D03*
D11*
X162070000Y-38700000D03*
%TD*%
D12*
%TO.C,Q357*%
X224280000Y-161190000D03*
D13*
X221740000Y-161190000D03*
X219200000Y-161190000D03*
%TD*%
D10*
%TO.C,D453*%
X159530000Y-102200000D03*
D11*
X159530000Y-104740000D03*
%TD*%
D10*
%TO.C,D1008*%
X220490000Y-117440000D03*
D11*
X220490000Y-119980000D03*
%TD*%
D12*
%TO.C,Q515*%
X98560000Y-60830000D03*
D13*
X96020000Y-60830000D03*
X93480000Y-60830000D03*
%TD*%
D11*
%TO.C,R324*%
X78120000Y-237360000D03*
X83200000Y-237360000D03*
%TD*%
%TO.C,R64*%
X16680000Y-170940000D03*
X21760000Y-170940000D03*
%TD*%
D10*
%TO.C,D798*%
X197630000Y-102200000D03*
D11*
X197630000Y-104740000D03*
%TD*%
D12*
%TO.C,Q312*%
X165440000Y-228500000D03*
D13*
X167980000Y-228500000D03*
X170520000Y-228500000D03*
%TD*%
D10*
%TO.C,D1026*%
X223030000Y-92040000D03*
D11*
X223030000Y-94580000D03*
%TD*%
D10*
%TO.C,D612*%
X177310000Y-92040000D03*
D11*
X177310000Y-94580000D03*
%TD*%
D12*
%TO.C,Q505*%
X211520000Y-198655000D03*
D13*
X214060000Y-198655000D03*
X216600000Y-198655000D03*
%TD*%
D12*
%TO.C,Q181*%
X39720000Y-212215000D03*
D13*
X42260000Y-212215000D03*
X44800000Y-212215000D03*
%TD*%
D10*
%TO.C,D647*%
X182390000Y-36160000D03*
D11*
X182390000Y-38700000D03*
%TD*%
%TO.C,R12*%
X227300000Y-81880000D03*
X232380000Y-81880000D03*
%TD*%
D12*
%TO.C,Q487*%
X196160000Y-170080000D03*
D13*
X198700000Y-170080000D03*
X201240000Y-170080000D03*
%TD*%
D12*
%TO.C,Q85*%
X24360000Y-20445000D03*
D13*
X26900000Y-20445000D03*
X29440000Y-20445000D03*
%TD*%
D10*
%TO.C,D506*%
X164610000Y-137760000D03*
D11*
X164610000Y-140300000D03*
%TD*%
D10*
%TO.C,D543*%
X169690000Y-92040000D03*
D11*
X169690000Y-94580000D03*
%TD*%
D10*
%TO.C,D918*%
X210330000Y-127600000D03*
D11*
X210330000Y-130140000D03*
%TD*%
D10*
%TO.C,D443*%
X159530000Y-51400000D03*
D11*
X159530000Y-53940000D03*
%TD*%
D10*
%TO.C,D671*%
X184930000Y-41240000D03*
D11*
X184930000Y-43780000D03*
%TD*%
D10*
%TO.C,D1011*%
X220490000Y-132680000D03*
D11*
X220490000Y-135220000D03*
%TD*%
D10*
%TO.C,D515*%
X167150000Y-66640000D03*
D11*
X167150000Y-69180000D03*
%TD*%
%TO.C,R80*%
X24360000Y-152525000D03*
X29440000Y-152525000D03*
%TD*%
D10*
%TO.C,D295*%
X141750000Y-117440000D03*
D11*
X141750000Y-119980000D03*
%TD*%
D12*
%TO.C,Q191*%
X52480000Y-46480000D03*
D13*
X49940000Y-46480000D03*
X47400000Y-46480000D03*
%TD*%
D11*
%TO.C,R67*%
X16680000Y-205865000D03*
X21760000Y-205865000D03*
%TD*%
%TO.C,R197*%
X180800000Y-217070000D03*
X185880000Y-217070000D03*
%TD*%
D12*
%TO.C,Q301*%
X162840000Y-209450000D03*
D13*
X160300000Y-209450000D03*
X157760000Y-209450000D03*
%TD*%
D10*
%TO.C,D556*%
X172230000Y-41240000D03*
D11*
X172230000Y-43780000D03*
%TD*%
D12*
%TO.C,Q16*%
X226880000Y-231675000D03*
D13*
X229420000Y-231675000D03*
X231960000Y-231675000D03*
%TD*%
D12*
%TO.C,Q385*%
X67840000Y-217040000D03*
D13*
X65300000Y-217040000D03*
X62760000Y-217040000D03*
%TD*%
D10*
%TO.C,D163*%
X129050000Y-31080000D03*
D11*
X129050000Y-33620000D03*
%TD*%
%TO.C,R284*%
X93480000Y-48765000D03*
X98560000Y-48765000D03*
%TD*%
%TO.C,R183*%
X157760000Y-205640000D03*
X162840000Y-205640000D03*
%TD*%
D10*
%TO.C,D823*%
X200170000Y-112360000D03*
D11*
X200170000Y-114900000D03*
%TD*%
D10*
%TO.C,D636*%
X179850000Y-97120000D03*
D11*
X179850000Y-99660000D03*
%TD*%
D12*
%TO.C,Q116*%
X24360000Y-228725000D03*
D13*
X26900000Y-228725000D03*
X29440000Y-228725000D03*
%TD*%
D11*
%TO.C,R41*%
X9000000Y-99185000D03*
X14080000Y-99185000D03*
%TD*%
D10*
%TO.C,D413*%
X154450000Y-132680000D03*
D11*
X154450000Y-135220000D03*
%TD*%
%TO.C,R214*%
X219200000Y-165635000D03*
X224280000Y-165635000D03*
%TD*%
D10*
%TO.C,D1022*%
X223030000Y-71720000D03*
D11*
X223030000Y-74260000D03*
%TD*%
%TO.C,R144*%
X55080000Y-61085000D03*
X60160000Y-61085000D03*
%TD*%
D12*
%TO.C,Q329*%
X193560000Y-201195000D03*
D13*
X191020000Y-201195000D03*
X188480000Y-201195000D03*
%TD*%
D10*
%TO.C,D691*%
X187470000Y-26000000D03*
D11*
X187470000Y-28540000D03*
%TD*%
D15*
%TO.C,D1048*%
X80660000Y-93850000D03*
D16*
X80660000Y-91310000D03*
%TD*%
D12*
%TO.C,Q129*%
X37120000Y-89660000D03*
D13*
X34580000Y-89660000D03*
X32040000Y-89660000D03*
%TD*%
D12*
%TO.C,Q6*%
X83200000Y-232915000D03*
D13*
X80660000Y-232915000D03*
X78120000Y-232915000D03*
%TD*%
D10*
%TO.C,D329*%
X146830000Y-56480000D03*
D11*
X146830000Y-59020000D03*
%TD*%
D10*
%TO.C,D281*%
X141750000Y-46320000D03*
D11*
X141750000Y-48860000D03*
%TD*%
D12*
%TO.C,Q580*%
X70440000Y-191005000D03*
D13*
X72980000Y-191005000D03*
X75520000Y-191005000D03*
%TD*%
D11*
%TO.C,R126*%
X47400000Y-37590000D03*
X52480000Y-37590000D03*
%TD*%
D12*
%TO.C,Q67*%
X21760000Y-113155000D03*
D13*
X19220000Y-113155000D03*
X16680000Y-113155000D03*
%TD*%
D11*
%TO.C,R236*%
X111680000Y-152300000D03*
X116760000Y-152300000D03*
%TD*%
D12*
%TO.C,Q304*%
X162840000Y-227865000D03*
D13*
X160300000Y-227865000D03*
X157760000Y-227865000D03*
%TD*%
D14*
%TO.C,H1*%
X4000000Y-20000000D03*
%TD*%
D12*
%TO.C,Q342*%
X196160000Y-236755000D03*
D13*
X198700000Y-236755000D03*
X201240000Y-236755000D03*
%TD*%
D11*
%TO.C,R167*%
X119360000Y-220880000D03*
X124440000Y-220880000D03*
%TD*%
D10*
%TO.C,D182*%
X129050000Y-127600000D03*
D11*
X129050000Y-130140000D03*
%TD*%
D10*
%TO.C,D185*%
X131590000Y-26000000D03*
D11*
X131590000Y-28540000D03*
%TD*%
D10*
%TO.C,D333*%
X146830000Y-76800000D03*
D11*
X146830000Y-79340000D03*
%TD*%
D12*
%TO.C,Q528*%
X70440000Y-28445000D03*
D13*
X72980000Y-28445000D03*
X75520000Y-28445000D03*
%TD*%
D11*
%TO.C,R294*%
X93480000Y-90040000D03*
X98560000Y-90040000D03*
%TD*%
D10*
%TO.C,D687*%
X184930000Y-122520000D03*
D11*
X184930000Y-125060000D03*
%TD*%
%TO.C,R50*%
X9000000Y-224280000D03*
X14080000Y-224280000D03*
%TD*%
D12*
%TO.C,Q386*%
X67840000Y-225295000D03*
D13*
X65300000Y-225295000D03*
X62760000Y-225295000D03*
%TD*%
D11*
%TO.C,R251*%
X150080000Y-152300000D03*
X155160000Y-152300000D03*
%TD*%
D10*
%TO.C,D374*%
X151910000Y-51400000D03*
D11*
X151910000Y-53940000D03*
%TD*%
%TO.C,R347*%
X78120000Y-72260000D03*
X83200000Y-72260000D03*
%TD*%
D10*
%TO.C,D165*%
X129050000Y-41240000D03*
D11*
X129050000Y-43780000D03*
%TD*%
D10*
%TO.C,D780*%
X195090000Y-127600000D03*
D11*
X195090000Y-130140000D03*
%TD*%
D10*
%TO.C,D748*%
X192550000Y-81880000D03*
D11*
X192550000Y-84420000D03*
%TD*%
D10*
%TO.C,D29*%
X113810000Y-51400000D03*
D11*
X113810000Y-53940000D03*
%TD*%
%TO.C,R48*%
X9000000Y-192530000D03*
X14080000Y-192530000D03*
%TD*%
D10*
%TO.C,D428*%
X156990000Y-92040000D03*
D11*
X156990000Y-94580000D03*
%TD*%
D12*
%TO.C,Q177*%
X39720000Y-185545000D03*
D13*
X42260000Y-185545000D03*
X44800000Y-185545000D03*
%TD*%
D10*
%TO.C,D173*%
X129050000Y-81880000D03*
D11*
X129050000Y-84420000D03*
%TD*%
D10*
%TO.C,D166*%
X129050000Y-46320000D03*
D11*
X129050000Y-48860000D03*
%TD*%
D12*
%TO.C,Q74*%
X21760000Y-158240000D03*
D13*
X19220000Y-158240000D03*
X16680000Y-158240000D03*
%TD*%
D10*
%TO.C,D315*%
X144290000Y-102200000D03*
D11*
X144290000Y-104740000D03*
%TD*%
D10*
%TO.C,D117*%
X123970000Y-31080000D03*
D11*
X123970000Y-33620000D03*
%TD*%
%TO.C,R292*%
X93480000Y-81785000D03*
X98560000Y-81785000D03*
%TD*%
D10*
%TO.C,D148*%
X126510000Y-71720000D03*
D11*
X126510000Y-74260000D03*
%TD*%
D10*
%TO.C,D289*%
X141750000Y-86960000D03*
D11*
X141750000Y-89500000D03*
%TD*%
D10*
%TO.C,D980*%
X217950000Y-92040000D03*
D11*
X217950000Y-94580000D03*
%TD*%
D12*
%TO.C,Q287*%
X147480000Y-224690000D03*
D13*
X144940000Y-224690000D03*
X142400000Y-224690000D03*
%TD*%
D10*
%TO.C,D1018*%
X223030000Y-51400000D03*
D11*
X223030000Y-53940000D03*
%TD*%
D10*
%TO.C,D196*%
X131590000Y-81880000D03*
D11*
X131590000Y-84420000D03*
%TD*%
D12*
%TO.C,Q317*%
X178200000Y-222785000D03*
D13*
X175660000Y-222785000D03*
X173120000Y-222785000D03*
%TD*%
D12*
%TO.C,Q433*%
X134720000Y-166905000D03*
D13*
X137260000Y-166905000D03*
X139800000Y-166905000D03*
%TD*%
D12*
%TO.C,Q218*%
X52480000Y-228090000D03*
D13*
X49940000Y-228090000D03*
X47400000Y-228090000D03*
%TD*%
D10*
%TO.C,D143*%
X126510000Y-46320000D03*
D11*
X126510000Y-48860000D03*
%TD*%
D12*
%TO.C,Q373*%
X67840000Y-133855000D03*
D13*
X65300000Y-133855000D03*
X62760000Y-133855000D03*
%TD*%
D12*
%TO.C,Q145*%
X37120000Y-202690000D03*
D13*
X34580000Y-202690000D03*
X32040000Y-202690000D03*
%TD*%
D10*
%TO.C,D614*%
X177310000Y-102200000D03*
D11*
X177310000Y-104740000D03*
%TD*%
D10*
%TO.C,D302*%
X144290000Y-36160000D03*
D11*
X144290000Y-38700000D03*
%TD*%
D12*
%TO.C,Q109*%
X24360000Y-183640000D03*
D13*
X26900000Y-183640000D03*
X29440000Y-183640000D03*
%TD*%
D10*
%TO.C,D76*%
X118890000Y-56480000D03*
D11*
X118890000Y-59020000D03*
%TD*%
D10*
%TO.C,D91*%
X118890000Y-132680000D03*
D11*
X118890000Y-135220000D03*
%TD*%
D12*
%TO.C,Q380*%
X67840000Y-185290000D03*
D13*
X65300000Y-185290000D03*
X62760000Y-185290000D03*
%TD*%
D10*
%TO.C,D932*%
X212870000Y-81880000D03*
D11*
X212870000Y-84420000D03*
%TD*%
D10*
%TO.C,D203*%
X131590000Y-117440000D03*
D11*
X131590000Y-119980000D03*
%TD*%
D10*
%TO.C,D23*%
X111270000Y-137760000D03*
D11*
X111270000Y-140300000D03*
%TD*%
D10*
%TO.C,D674*%
X184930000Y-56480000D03*
D11*
X184930000Y-59020000D03*
%TD*%
%TO.C,R22*%
X227300000Y-132680000D03*
X232380000Y-132680000D03*
%TD*%
%TO.C,R27*%
X78120000Y-224025000D03*
X83200000Y-224025000D03*
%TD*%
D10*
%TO.C,D352*%
X149370000Y-56480000D03*
D11*
X149370000Y-59020000D03*
%TD*%
D10*
%TO.C,D985*%
X217950000Y-117440000D03*
D11*
X217950000Y-119980000D03*
%TD*%
%TO.C,R105*%
X32040000Y-220470000D03*
X37120000Y-220470000D03*
%TD*%
%TO.C,R289*%
X62760000Y-65275000D03*
X67840000Y-65275000D03*
%TD*%
D12*
%TO.C,Q75*%
X21760000Y-166495000D03*
D13*
X19220000Y-166495000D03*
X16680000Y-166495000D03*
%TD*%
D11*
%TO.C,R303*%
X70440000Y-40510000D03*
X75520000Y-40510000D03*
%TD*%
D12*
%TO.C,Q360*%
X224280000Y-182780000D03*
D13*
X221740000Y-182780000D03*
X219200000Y-182780000D03*
%TD*%
D11*
%TO.C,R239*%
X119360000Y-152300000D03*
X124440000Y-152300000D03*
%TD*%
D12*
%TO.C,Q21*%
X9000000Y-33780000D03*
D13*
X11540000Y-33780000D03*
X14080000Y-33780000D03*
%TD*%
D10*
%TO.C,D420*%
X156990000Y-51400000D03*
D11*
X156990000Y-53940000D03*
%TD*%
D10*
%TO.C,D916*%
X210330000Y-117440000D03*
D11*
X210330000Y-119980000D03*
%TD*%
D10*
%TO.C,D579*%
X174770000Y-41240000D03*
D11*
X174770000Y-43780000D03*
%TD*%
D10*
%TO.C,D423*%
X156990000Y-66640000D03*
D11*
X156990000Y-69180000D03*
%TD*%
D12*
%TO.C,Q44*%
X9000000Y-188720000D03*
D13*
X11540000Y-188720000D03*
X14080000Y-188720000D03*
%TD*%
D10*
%TO.C,D410*%
X154450000Y-117440000D03*
D11*
X154450000Y-119980000D03*
%TD*%
D10*
%TO.C,D24*%
X113810000Y-26000000D03*
D11*
X113810000Y-28540000D03*
%TD*%
D12*
%TO.C,Q465*%
X165440000Y-183415000D03*
D13*
X167980000Y-183415000D03*
X170520000Y-183415000D03*
%TD*%
D10*
%TO.C,D282*%
X141750000Y-51400000D03*
D11*
X141750000Y-53940000D03*
%TD*%
D12*
%TO.C,Q389*%
X67840000Y-243710000D03*
D13*
X65300000Y-243710000D03*
X62760000Y-243710000D03*
%TD*%
D10*
%TO.C,D957*%
X215410000Y-92040000D03*
D11*
X215410000Y-94580000D03*
%TD*%
D10*
%TO.C,D11*%
X111270000Y-76800000D03*
D11*
X111270000Y-79340000D03*
%TD*%
D10*
%TO.C,D975*%
X217950000Y-66640000D03*
D11*
X217950000Y-69180000D03*
%TD*%
D10*
%TO.C,D989*%
X217950000Y-137760000D03*
D11*
X217950000Y-140300000D03*
%TD*%
D10*
%TO.C,D782*%
X195090000Y-137760000D03*
D11*
X195090000Y-140300000D03*
%TD*%
%TO.C,R152*%
X55080000Y-162685000D03*
X60160000Y-162685000D03*
%TD*%
D10*
%TO.C,D431*%
X156990000Y-107280000D03*
D11*
X156990000Y-109820000D03*
%TD*%
D10*
%TO.C,D954*%
X215410000Y-76800000D03*
D11*
X215410000Y-79340000D03*
%TD*%
%TO.C,R334*%
X85800000Y-175130000D03*
X90880000Y-175130000D03*
%TD*%
D12*
%TO.C,Q245*%
X55080000Y-185545000D03*
D13*
X57620000Y-185545000D03*
X60160000Y-185545000D03*
%TD*%
D12*
%TO.C,Q400*%
X104000000Y-185320000D03*
D13*
X106540000Y-185320000D03*
X109080000Y-185320000D03*
%TD*%
D10*
%TO.C,D911*%
X210330000Y-92040000D03*
D11*
X210330000Y-94580000D03*
%TD*%
D12*
%TO.C,Q201*%
X52480000Y-113155000D03*
D13*
X49940000Y-113155000D03*
X47400000Y-113155000D03*
%TD*%
D11*
%TO.C,R158*%
X62760000Y-106550000D03*
X67840000Y-106550000D03*
%TD*%
%TO.C,R207*%
X203840000Y-197385000D03*
X208920000Y-197385000D03*
%TD*%
D10*
%TO.C,D933*%
X212870000Y-86960000D03*
D11*
X212870000Y-89500000D03*
%TD*%
D12*
%TO.C,Q57*%
X21760000Y-46480000D03*
D13*
X19220000Y-46480000D03*
X16680000Y-46480000D03*
%TD*%
D12*
%TO.C,Q338*%
X196160000Y-210085000D03*
D13*
X198700000Y-210085000D03*
X201240000Y-210085000D03*
%TD*%
D10*
%TO.C,D661*%
X182390000Y-107280000D03*
D11*
X182390000Y-109820000D03*
%TD*%
D10*
%TO.C,D846*%
X202710000Y-112360000D03*
D11*
X202710000Y-114900000D03*
%TD*%
D12*
%TO.C,Q203*%
X52480000Y-126490000D03*
D13*
X49940000Y-126490000D03*
X47400000Y-126490000D03*
%TD*%
D12*
%TO.C,Q393*%
X70440000Y-79880000D03*
D13*
X72980000Y-79880000D03*
X75520000Y-79880000D03*
%TD*%
D10*
%TO.C,D103*%
X121430000Y-76800000D03*
D11*
X121430000Y-79340000D03*
%TD*%
D10*
%TO.C,D535*%
X169690000Y-51400000D03*
D11*
X169690000Y-53940000D03*
%TD*%
D12*
%TO.C,Q480*%
X193560000Y-161190000D03*
D13*
X191020000Y-161190000D03*
X188480000Y-161190000D03*
%TD*%
D11*
%TO.C,R16*%
X227300000Y-102200000D03*
X232380000Y-102200000D03*
%TD*%
D12*
%TO.C,Q314*%
X178200000Y-201195000D03*
D13*
X175660000Y-201195000D03*
X173120000Y-201195000D03*
%TD*%
D12*
%TO.C,Q266*%
X116760000Y-243105000D03*
D13*
X114220000Y-243105000D03*
X111680000Y-243105000D03*
%TD*%
D10*
%TO.C,D993*%
X220490000Y-41240000D03*
D11*
X220490000Y-43780000D03*
%TD*%
%TO.C,R10*%
X227300000Y-71720000D03*
X232380000Y-71720000D03*
%TD*%
D10*
%TO.C,D479*%
X162070000Y-117440000D03*
D11*
X162070000Y-119980000D03*
%TD*%
D12*
%TO.C,Q121*%
X37120000Y-29970000D03*
D13*
X34580000Y-29970000D03*
X32040000Y-29970000D03*
%TD*%
D10*
%TO.C,D552*%
X169690000Y-137760000D03*
D11*
X169690000Y-140300000D03*
%TD*%
D10*
%TO.C,D438*%
X159530000Y-26000000D03*
D11*
X159530000Y-28540000D03*
%TD*%
D10*
%TO.C,D1030*%
X223030000Y-112360000D03*
D11*
X223030000Y-114900000D03*
%TD*%
D10*
%TO.C,D518*%
X167150000Y-81880000D03*
D11*
X167150000Y-84420000D03*
%TD*%
%TO.C,R257*%
X165440000Y-152300000D03*
X170520000Y-152300000D03*
%TD*%
D10*
%TO.C,D223*%
X134130000Y-102200000D03*
D11*
X134130000Y-104740000D03*
%TD*%
%TO.C,R116*%
X39720000Y-136015000D03*
X44800000Y-136015000D03*
%TD*%
D10*
%TO.C,D555*%
X172230000Y-36160000D03*
D11*
X172230000Y-38700000D03*
%TD*%
%TO.C,R84*%
X24360000Y-205865000D03*
X29440000Y-205865000D03*
%TD*%
D12*
%TO.C,Q346*%
X208920000Y-214530000D03*
D13*
X206380000Y-214530000D03*
X203840000Y-214530000D03*
%TD*%
D11*
%TO.C,R306*%
X93480000Y-139570000D03*
X98560000Y-139570000D03*
%TD*%
D12*
%TO.C,Q547*%
X98560000Y-192910000D03*
D13*
X96020000Y-192910000D03*
X93480000Y-192910000D03*
%TD*%
D10*
%TO.C,D361*%
X149370000Y-102200000D03*
D11*
X149370000Y-104740000D03*
%TD*%
D10*
%TO.C,D480*%
X162070000Y-122520000D03*
D11*
X162070000Y-125060000D03*
%TD*%
D10*
%TO.C,D644*%
X179850000Y-137760000D03*
D11*
X179850000Y-140300000D03*
%TD*%
D10*
%TO.C,D803*%
X197630000Y-127600000D03*
D11*
X197630000Y-130140000D03*
%TD*%
D10*
%TO.C,D271*%
X139210000Y-112360000D03*
D11*
X139210000Y-114900000D03*
%TD*%
D10*
%TO.C,D395*%
X154450000Y-41240000D03*
D11*
X154450000Y-43780000D03*
%TD*%
D10*
%TO.C,D195*%
X131590000Y-76800000D03*
D11*
X131590000Y-79340000D03*
%TD*%
D12*
%TO.C,Q190*%
X52480000Y-41400000D03*
D13*
X49940000Y-41400000D03*
X47400000Y-41400000D03*
%TD*%
D12*
%TO.C,Q139*%
X37120000Y-162685000D03*
D13*
X34580000Y-162685000D03*
X32040000Y-162685000D03*
%TD*%
D10*
%TO.C,D688*%
X184930000Y-127600000D03*
D11*
X184930000Y-130140000D03*
%TD*%
D12*
%TO.C,Q461*%
X165440000Y-156745000D03*
D13*
X167980000Y-156745000D03*
X170520000Y-156745000D03*
%TD*%
D11*
%TO.C,R136*%
X47400000Y-170940000D03*
X52480000Y-170940000D03*
%TD*%
%TO.C,R205*%
X196160000Y-218975000D03*
X201240000Y-218975000D03*
%TD*%
D12*
%TO.C,Q486*%
X196160000Y-161825000D03*
D13*
X198700000Y-161825000D03*
X201240000Y-161825000D03*
%TD*%
D10*
%TO.C,D952*%
X215410000Y-66640000D03*
D11*
X215410000Y-69180000D03*
%TD*%
D10*
%TO.C,D652*%
X182390000Y-61560000D03*
D11*
X182390000Y-64100000D03*
%TD*%
D10*
%TO.C,D778*%
X195090000Y-117440000D03*
D11*
X195090000Y-119980000D03*
%TD*%
D10*
%TO.C,D640*%
X179850000Y-117440000D03*
D11*
X179850000Y-119980000D03*
%TD*%
D10*
%TO.C,D583*%
X174770000Y-61560000D03*
D11*
X174770000Y-64100000D03*
%TD*%
D10*
%TO.C,D41*%
X113810000Y-112360000D03*
D11*
X113810000Y-114900000D03*
%TD*%
D12*
%TO.C,Q2*%
X83200000Y-206245000D03*
D13*
X80660000Y-206245000D03*
X78120000Y-206245000D03*
%TD*%
D12*
%TO.C,Q197*%
X52480000Y-86485000D03*
D13*
X49940000Y-86485000D03*
X47400000Y-86485000D03*
%TD*%
D10*
%TO.C,D63*%
X116350000Y-107280000D03*
D11*
X116350000Y-109820000D03*
%TD*%
D10*
%TO.C,D457*%
X159530000Y-122520000D03*
D11*
X159530000Y-125060000D03*
%TD*%
D12*
%TO.C,Q477*%
X180800000Y-183415000D03*
D13*
X183340000Y-183415000D03*
X185880000Y-183415000D03*
%TD*%
D10*
%TO.C,D129*%
X123970000Y-92040000D03*
D11*
X123970000Y-94580000D03*
%TD*%
D12*
%TO.C,Q518*%
X67840000Y-69085000D03*
D13*
X65300000Y-69085000D03*
X62760000Y-69085000D03*
%TD*%
D10*
%TO.C,D411*%
X154450000Y-122520000D03*
D11*
X154450000Y-125060000D03*
%TD*%
D10*
%TO.C,D273*%
X139210000Y-122520000D03*
D11*
X139210000Y-125060000D03*
%TD*%
D12*
%TO.C,Q573*%
X85800000Y-197990000D03*
D13*
X88340000Y-197990000D03*
X90880000Y-197990000D03*
%TD*%
D12*
%TO.C,Q415*%
X119360000Y-166905000D03*
D13*
X121900000Y-166905000D03*
X124440000Y-166905000D03*
%TD*%
D12*
%TO.C,Q442*%
X147480000Y-166270000D03*
D13*
X144940000Y-166270000D03*
X142400000Y-166270000D03*
%TD*%
D12*
%TO.C,Q470*%
X178200000Y-174525000D03*
D13*
X175660000Y-174525000D03*
X173120000Y-174525000D03*
%TD*%
D11*
%TO.C,R278*%
X93480000Y-24000000D03*
X98560000Y-24000000D03*
%TD*%
D12*
%TO.C,Q280*%
X134720000Y-217070000D03*
D13*
X137260000Y-217070000D03*
X139800000Y-217070000D03*
%TD*%
D11*
%TO.C,R107*%
X39720000Y-16000000D03*
X44800000Y-16000000D03*
%TD*%
D12*
%TO.C,Q322*%
X180800000Y-205005000D03*
D13*
X183340000Y-205005000D03*
X185880000Y-205005000D03*
%TD*%
D10*
%TO.C,D853*%
X205250000Y-31080000D03*
D11*
X205250000Y-33620000D03*
%TD*%
D10*
%TO.C,D530*%
X169690000Y-26000000D03*
D11*
X169690000Y-28540000D03*
%TD*%
D10*
%TO.C,D357*%
X149370000Y-81880000D03*
D11*
X149370000Y-84420000D03*
%TD*%
%TO.C,R344*%
X70440000Y-210690000D03*
X75520000Y-210690000D03*
%TD*%
%TO.C,R87*%
X32040000Y-16000000D03*
X37120000Y-16000000D03*
%TD*%
D12*
%TO.C,Q450*%
X150080000Y-161825000D03*
D13*
X152620000Y-161825000D03*
X155160000Y-161825000D03*
%TD*%
D10*
%TO.C,D576*%
X174770000Y-26000000D03*
D11*
X174770000Y-28540000D03*
%TD*%
D10*
%TO.C,D888*%
X207790000Y-92040000D03*
D11*
X207790000Y-94580000D03*
%TD*%
D10*
%TO.C,D372*%
X151910000Y-41240000D03*
D11*
X151910000Y-43780000D03*
%TD*%
%TO.C,R275*%
X211520000Y-152300000D03*
X216600000Y-152300000D03*
%TD*%
D10*
%TO.C,D21*%
X111270000Y-127600000D03*
D11*
X111270000Y-130140000D03*
%TD*%
D12*
%TO.C,Q141*%
X37120000Y-176020000D03*
D13*
X34580000Y-176020000D03*
X32040000Y-176020000D03*
%TD*%
D10*
%TO.C,D937*%
X212870000Y-107280000D03*
D11*
X212870000Y-109820000D03*
%TD*%
D12*
%TO.C,Q260*%
X104000000Y-236755000D03*
D13*
X106540000Y-236755000D03*
X109080000Y-236755000D03*
%TD*%
D10*
%TO.C,D12*%
X111270000Y-81880000D03*
D11*
X111270000Y-84420000D03*
%TD*%
D10*
%TO.C,D238*%
X136670000Y-61560000D03*
D11*
X136670000Y-64100000D03*
%TD*%
D10*
%TO.C,D741*%
X192550000Y-46320000D03*
D11*
X192550000Y-48860000D03*
%TD*%
D12*
%TO.C,Q78*%
X21760000Y-188085000D03*
D13*
X19220000Y-188085000D03*
X16680000Y-188085000D03*
%TD*%
D12*
%TO.C,Q344*%
X208920000Y-201195000D03*
D13*
X206380000Y-201195000D03*
X203840000Y-201195000D03*
%TD*%
D11*
%TO.C,R260*%
X173120000Y-152300000D03*
X178200000Y-152300000D03*
%TD*%
D10*
%TO.C,D246*%
X136670000Y-102200000D03*
D11*
X136670000Y-104740000D03*
%TD*%
M02*
