%TF.GenerationSoftware,KiCad,Pcbnew,10.0.5*%
%TF.CreationDate,2026-10-01T12:38:02-04:00*%
%TF.ProjectId,panelc,70616e65-6c63-42e6-9b69-6361645f7063,rev?*%
%TF.SameCoordinates,Original*%
%TF.FileFunction,Legend,Top*%
%TF.FilePolarity,Positive*%
%FSLAX46Y46*%
G04 Gerber Fmt 4.6, Leading zero omitted, Abs format (unit mm)*
G04 Created by KiCad (PCBNEW 10.0.5) date 2026-10-01 12:38:02*
%MOMM*%
%LPD*%
G01*
G04 APERTURE LIST*
%ADD10C,0.150000*%
%ADD11C,0.250000*%
%ADD12C,0.120000*%
%ADD13C,0.000000*%
G04 APERTURE END LIST*
D10*
X8590588Y-5414819D02*
X8019160Y-5414819D01*
X8304874Y-5414819D02*
X8304874Y-4414819D01*
X8304874Y-4414819D02*
X8209636Y-4557676D01*
X8209636Y-4557676D02*
X8114398Y-4652914D01*
X8114398Y-4652914D02*
X8019160Y-4700533D01*
X8019160Y-7050057D02*
X8066779Y-7002438D01*
X8066779Y-7002438D02*
X8162017Y-6954819D01*
X8162017Y-6954819D02*
X8400112Y-6954819D01*
X8400112Y-6954819D02*
X8495350Y-7002438D01*
X8495350Y-7002438D02*
X8542969Y-7050057D01*
X8542969Y-7050057D02*
X8590588Y-7145295D01*
X8590588Y-7145295D02*
X8590588Y-7240533D01*
X8590588Y-7240533D02*
X8542969Y-7383390D01*
X8542969Y-7383390D02*
X7971541Y-7954819D01*
X7971541Y-7954819D02*
X8590588Y-7954819D01*
X14176779Y-22154819D02*
X14176779Y-21154819D01*
X14176779Y-21154819D02*
X14557731Y-21154819D01*
X14557731Y-21154819D02*
X14652969Y-21202438D01*
X14652969Y-21202438D02*
X14700588Y-21250057D01*
X14700588Y-21250057D02*
X14748207Y-21345295D01*
X14748207Y-21345295D02*
X14748207Y-21488152D01*
X14748207Y-21488152D02*
X14700588Y-21583390D01*
X14700588Y-21583390D02*
X14652969Y-21631009D01*
X14652969Y-21631009D02*
X14557731Y-21678628D01*
X14557731Y-21678628D02*
X14176779Y-21678628D01*
X15748207Y-22059580D02*
X15700588Y-22107200D01*
X15700588Y-22107200D02*
X15557731Y-22154819D01*
X15557731Y-22154819D02*
X15462493Y-22154819D01*
X15462493Y-22154819D02*
X15319636Y-22107200D01*
X15319636Y-22107200D02*
X15224398Y-22011961D01*
X15224398Y-22011961D02*
X15176779Y-21916723D01*
X15176779Y-21916723D02*
X15129160Y-21726247D01*
X15129160Y-21726247D02*
X15129160Y-21583390D01*
X15129160Y-21583390D02*
X15176779Y-21392914D01*
X15176779Y-21392914D02*
X15224398Y-21297676D01*
X15224398Y-21297676D02*
X15319636Y-21202438D01*
X15319636Y-21202438D02*
X15462493Y-21154819D01*
X15462493Y-21154819D02*
X15557731Y-21154819D01*
X15557731Y-21154819D02*
X15700588Y-21202438D01*
X15700588Y-21202438D02*
X15748207Y-21250057D01*
X16081541Y-21154819D02*
X16748207Y-21154819D01*
X16748207Y-21154819D02*
X16319636Y-22154819D01*
X14276779Y-37394819D02*
X14276779Y-36394819D01*
X14276779Y-36394819D02*
X14610112Y-37109104D01*
X14610112Y-37109104D02*
X14943445Y-36394819D01*
X14943445Y-36394819D02*
X14943445Y-37394819D01*
X15324398Y-36394819D02*
X15991064Y-36394819D01*
X15991064Y-36394819D02*
X15562493Y-37394819D01*
X21856779Y-22154819D02*
X21856779Y-21154819D01*
X21856779Y-21154819D02*
X22237731Y-21154819D01*
X22237731Y-21154819D02*
X22332969Y-21202438D01*
X22332969Y-21202438D02*
X22380588Y-21250057D01*
X22380588Y-21250057D02*
X22428207Y-21345295D01*
X22428207Y-21345295D02*
X22428207Y-21488152D01*
X22428207Y-21488152D02*
X22380588Y-21583390D01*
X22380588Y-21583390D02*
X22332969Y-21631009D01*
X22332969Y-21631009D02*
X22237731Y-21678628D01*
X22237731Y-21678628D02*
X21856779Y-21678628D01*
X23428207Y-22059580D02*
X23380588Y-22107200D01*
X23380588Y-22107200D02*
X23237731Y-22154819D01*
X23237731Y-22154819D02*
X23142493Y-22154819D01*
X23142493Y-22154819D02*
X22999636Y-22107200D01*
X22999636Y-22107200D02*
X22904398Y-22011961D01*
X22904398Y-22011961D02*
X22856779Y-21916723D01*
X22856779Y-21916723D02*
X22809160Y-21726247D01*
X22809160Y-21726247D02*
X22809160Y-21583390D01*
X22809160Y-21583390D02*
X22856779Y-21392914D01*
X22856779Y-21392914D02*
X22904398Y-21297676D01*
X22904398Y-21297676D02*
X22999636Y-21202438D01*
X22999636Y-21202438D02*
X23142493Y-21154819D01*
X23142493Y-21154819D02*
X23237731Y-21154819D01*
X23237731Y-21154819D02*
X23380588Y-21202438D01*
X23380588Y-21202438D02*
X23428207Y-21250057D01*
X24285350Y-21154819D02*
X24094874Y-21154819D01*
X24094874Y-21154819D02*
X23999636Y-21202438D01*
X23999636Y-21202438D02*
X23952017Y-21250057D01*
X23952017Y-21250057D02*
X23856779Y-21392914D01*
X23856779Y-21392914D02*
X23809160Y-21583390D01*
X23809160Y-21583390D02*
X23809160Y-21964342D01*
X23809160Y-21964342D02*
X23856779Y-22059580D01*
X23856779Y-22059580D02*
X23904398Y-22107200D01*
X23904398Y-22107200D02*
X23999636Y-22154819D01*
X23999636Y-22154819D02*
X24190112Y-22154819D01*
X24190112Y-22154819D02*
X24285350Y-22107200D01*
X24285350Y-22107200D02*
X24332969Y-22059580D01*
X24332969Y-22059580D02*
X24380588Y-21964342D01*
X24380588Y-21964342D02*
X24380588Y-21726247D01*
X24380588Y-21726247D02*
X24332969Y-21631009D01*
X24332969Y-21631009D02*
X24285350Y-21583390D01*
X24285350Y-21583390D02*
X24190112Y-21535771D01*
X24190112Y-21535771D02*
X23999636Y-21535771D01*
X23999636Y-21535771D02*
X23904398Y-21583390D01*
X23904398Y-21583390D02*
X23856779Y-21631009D01*
X23856779Y-21631009D02*
X23809160Y-21726247D01*
X21956779Y-37394819D02*
X21956779Y-36394819D01*
X21956779Y-36394819D02*
X22290112Y-37109104D01*
X22290112Y-37109104D02*
X22623445Y-36394819D01*
X22623445Y-36394819D02*
X22623445Y-37394819D01*
X23528207Y-36394819D02*
X23337731Y-36394819D01*
X23337731Y-36394819D02*
X23242493Y-36442438D01*
X23242493Y-36442438D02*
X23194874Y-36490057D01*
X23194874Y-36490057D02*
X23099636Y-36632914D01*
X23099636Y-36632914D02*
X23052017Y-36823390D01*
X23052017Y-36823390D02*
X23052017Y-37204342D01*
X23052017Y-37204342D02*
X23099636Y-37299580D01*
X23099636Y-37299580D02*
X23147255Y-37347200D01*
X23147255Y-37347200D02*
X23242493Y-37394819D01*
X23242493Y-37394819D02*
X23432969Y-37394819D01*
X23432969Y-37394819D02*
X23528207Y-37347200D01*
X23528207Y-37347200D02*
X23575826Y-37299580D01*
X23575826Y-37299580D02*
X23623445Y-37204342D01*
X23623445Y-37204342D02*
X23623445Y-36966247D01*
X23623445Y-36966247D02*
X23575826Y-36871009D01*
X23575826Y-36871009D02*
X23528207Y-36823390D01*
X23528207Y-36823390D02*
X23432969Y-36775771D01*
X23432969Y-36775771D02*
X23242493Y-36775771D01*
X23242493Y-36775771D02*
X23147255Y-36823390D01*
X23147255Y-36823390D02*
X23099636Y-36871009D01*
X23099636Y-36871009D02*
X23052017Y-36966247D01*
X29536779Y-22154819D02*
X29536779Y-21154819D01*
X29536779Y-21154819D02*
X29917731Y-21154819D01*
X29917731Y-21154819D02*
X30012969Y-21202438D01*
X30012969Y-21202438D02*
X30060588Y-21250057D01*
X30060588Y-21250057D02*
X30108207Y-21345295D01*
X30108207Y-21345295D02*
X30108207Y-21488152D01*
X30108207Y-21488152D02*
X30060588Y-21583390D01*
X30060588Y-21583390D02*
X30012969Y-21631009D01*
X30012969Y-21631009D02*
X29917731Y-21678628D01*
X29917731Y-21678628D02*
X29536779Y-21678628D01*
X31108207Y-22059580D02*
X31060588Y-22107200D01*
X31060588Y-22107200D02*
X30917731Y-22154819D01*
X30917731Y-22154819D02*
X30822493Y-22154819D01*
X30822493Y-22154819D02*
X30679636Y-22107200D01*
X30679636Y-22107200D02*
X30584398Y-22011961D01*
X30584398Y-22011961D02*
X30536779Y-21916723D01*
X30536779Y-21916723D02*
X30489160Y-21726247D01*
X30489160Y-21726247D02*
X30489160Y-21583390D01*
X30489160Y-21583390D02*
X30536779Y-21392914D01*
X30536779Y-21392914D02*
X30584398Y-21297676D01*
X30584398Y-21297676D02*
X30679636Y-21202438D01*
X30679636Y-21202438D02*
X30822493Y-21154819D01*
X30822493Y-21154819D02*
X30917731Y-21154819D01*
X30917731Y-21154819D02*
X31060588Y-21202438D01*
X31060588Y-21202438D02*
X31108207Y-21250057D01*
X32012969Y-21154819D02*
X31536779Y-21154819D01*
X31536779Y-21154819D02*
X31489160Y-21631009D01*
X31489160Y-21631009D02*
X31536779Y-21583390D01*
X31536779Y-21583390D02*
X31632017Y-21535771D01*
X31632017Y-21535771D02*
X31870112Y-21535771D01*
X31870112Y-21535771D02*
X31965350Y-21583390D01*
X31965350Y-21583390D02*
X32012969Y-21631009D01*
X32012969Y-21631009D02*
X32060588Y-21726247D01*
X32060588Y-21726247D02*
X32060588Y-21964342D01*
X32060588Y-21964342D02*
X32012969Y-22059580D01*
X32012969Y-22059580D02*
X31965350Y-22107200D01*
X31965350Y-22107200D02*
X31870112Y-22154819D01*
X31870112Y-22154819D02*
X31632017Y-22154819D01*
X31632017Y-22154819D02*
X31536779Y-22107200D01*
X31536779Y-22107200D02*
X31489160Y-22059580D01*
X29636779Y-37394819D02*
X29636779Y-36394819D01*
X29636779Y-36394819D02*
X29970112Y-37109104D01*
X29970112Y-37109104D02*
X30303445Y-36394819D01*
X30303445Y-36394819D02*
X30303445Y-37394819D01*
X31255826Y-36394819D02*
X30779636Y-36394819D01*
X30779636Y-36394819D02*
X30732017Y-36871009D01*
X30732017Y-36871009D02*
X30779636Y-36823390D01*
X30779636Y-36823390D02*
X30874874Y-36775771D01*
X30874874Y-36775771D02*
X31112969Y-36775771D01*
X31112969Y-36775771D02*
X31208207Y-36823390D01*
X31208207Y-36823390D02*
X31255826Y-36871009D01*
X31255826Y-36871009D02*
X31303445Y-36966247D01*
X31303445Y-36966247D02*
X31303445Y-37204342D01*
X31303445Y-37204342D02*
X31255826Y-37299580D01*
X31255826Y-37299580D02*
X31208207Y-37347200D01*
X31208207Y-37347200D02*
X31112969Y-37394819D01*
X31112969Y-37394819D02*
X30874874Y-37394819D01*
X30874874Y-37394819D02*
X30779636Y-37347200D01*
X30779636Y-37347200D02*
X30732017Y-37299580D01*
X37216779Y-22154819D02*
X37216779Y-21154819D01*
X37216779Y-21154819D02*
X37597731Y-21154819D01*
X37597731Y-21154819D02*
X37692969Y-21202438D01*
X37692969Y-21202438D02*
X37740588Y-21250057D01*
X37740588Y-21250057D02*
X37788207Y-21345295D01*
X37788207Y-21345295D02*
X37788207Y-21488152D01*
X37788207Y-21488152D02*
X37740588Y-21583390D01*
X37740588Y-21583390D02*
X37692969Y-21631009D01*
X37692969Y-21631009D02*
X37597731Y-21678628D01*
X37597731Y-21678628D02*
X37216779Y-21678628D01*
X38788207Y-22059580D02*
X38740588Y-22107200D01*
X38740588Y-22107200D02*
X38597731Y-22154819D01*
X38597731Y-22154819D02*
X38502493Y-22154819D01*
X38502493Y-22154819D02*
X38359636Y-22107200D01*
X38359636Y-22107200D02*
X38264398Y-22011961D01*
X38264398Y-22011961D02*
X38216779Y-21916723D01*
X38216779Y-21916723D02*
X38169160Y-21726247D01*
X38169160Y-21726247D02*
X38169160Y-21583390D01*
X38169160Y-21583390D02*
X38216779Y-21392914D01*
X38216779Y-21392914D02*
X38264398Y-21297676D01*
X38264398Y-21297676D02*
X38359636Y-21202438D01*
X38359636Y-21202438D02*
X38502493Y-21154819D01*
X38502493Y-21154819D02*
X38597731Y-21154819D01*
X38597731Y-21154819D02*
X38740588Y-21202438D01*
X38740588Y-21202438D02*
X38788207Y-21250057D01*
X39645350Y-21488152D02*
X39645350Y-22154819D01*
X39407255Y-21107200D02*
X39169160Y-21821485D01*
X39169160Y-21821485D02*
X39788207Y-21821485D01*
X37316779Y-37394819D02*
X37316779Y-36394819D01*
X37316779Y-36394819D02*
X37650112Y-37109104D01*
X37650112Y-37109104D02*
X37983445Y-36394819D01*
X37983445Y-36394819D02*
X37983445Y-37394819D01*
X38888207Y-36728152D02*
X38888207Y-37394819D01*
X38650112Y-36347200D02*
X38412017Y-37061485D01*
X38412017Y-37061485D02*
X39031064Y-37061485D01*
X44896779Y-22154819D02*
X44896779Y-21154819D01*
X44896779Y-21154819D02*
X45277731Y-21154819D01*
X45277731Y-21154819D02*
X45372969Y-21202438D01*
X45372969Y-21202438D02*
X45420588Y-21250057D01*
X45420588Y-21250057D02*
X45468207Y-21345295D01*
X45468207Y-21345295D02*
X45468207Y-21488152D01*
X45468207Y-21488152D02*
X45420588Y-21583390D01*
X45420588Y-21583390D02*
X45372969Y-21631009D01*
X45372969Y-21631009D02*
X45277731Y-21678628D01*
X45277731Y-21678628D02*
X44896779Y-21678628D01*
X46468207Y-22059580D02*
X46420588Y-22107200D01*
X46420588Y-22107200D02*
X46277731Y-22154819D01*
X46277731Y-22154819D02*
X46182493Y-22154819D01*
X46182493Y-22154819D02*
X46039636Y-22107200D01*
X46039636Y-22107200D02*
X45944398Y-22011961D01*
X45944398Y-22011961D02*
X45896779Y-21916723D01*
X45896779Y-21916723D02*
X45849160Y-21726247D01*
X45849160Y-21726247D02*
X45849160Y-21583390D01*
X45849160Y-21583390D02*
X45896779Y-21392914D01*
X45896779Y-21392914D02*
X45944398Y-21297676D01*
X45944398Y-21297676D02*
X46039636Y-21202438D01*
X46039636Y-21202438D02*
X46182493Y-21154819D01*
X46182493Y-21154819D02*
X46277731Y-21154819D01*
X46277731Y-21154819D02*
X46420588Y-21202438D01*
X46420588Y-21202438D02*
X46468207Y-21250057D01*
X46801541Y-21154819D02*
X47420588Y-21154819D01*
X47420588Y-21154819D02*
X47087255Y-21535771D01*
X47087255Y-21535771D02*
X47230112Y-21535771D01*
X47230112Y-21535771D02*
X47325350Y-21583390D01*
X47325350Y-21583390D02*
X47372969Y-21631009D01*
X47372969Y-21631009D02*
X47420588Y-21726247D01*
X47420588Y-21726247D02*
X47420588Y-21964342D01*
X47420588Y-21964342D02*
X47372969Y-22059580D01*
X47372969Y-22059580D02*
X47325350Y-22107200D01*
X47325350Y-22107200D02*
X47230112Y-22154819D01*
X47230112Y-22154819D02*
X46944398Y-22154819D01*
X46944398Y-22154819D02*
X46849160Y-22107200D01*
X46849160Y-22107200D02*
X46801541Y-22059580D01*
X44996779Y-37394819D02*
X44996779Y-36394819D01*
X44996779Y-36394819D02*
X45330112Y-37109104D01*
X45330112Y-37109104D02*
X45663445Y-36394819D01*
X45663445Y-36394819D02*
X45663445Y-37394819D01*
X46044398Y-36394819D02*
X46663445Y-36394819D01*
X46663445Y-36394819D02*
X46330112Y-36775771D01*
X46330112Y-36775771D02*
X46472969Y-36775771D01*
X46472969Y-36775771D02*
X46568207Y-36823390D01*
X46568207Y-36823390D02*
X46615826Y-36871009D01*
X46615826Y-36871009D02*
X46663445Y-36966247D01*
X46663445Y-36966247D02*
X46663445Y-37204342D01*
X46663445Y-37204342D02*
X46615826Y-37299580D01*
X46615826Y-37299580D02*
X46568207Y-37347200D01*
X46568207Y-37347200D02*
X46472969Y-37394819D01*
X46472969Y-37394819D02*
X46187255Y-37394819D01*
X46187255Y-37394819D02*
X46092017Y-37347200D01*
X46092017Y-37347200D02*
X46044398Y-37299580D01*
X52576779Y-22154819D02*
X52576779Y-21154819D01*
X52576779Y-21154819D02*
X52957731Y-21154819D01*
X52957731Y-21154819D02*
X53052969Y-21202438D01*
X53052969Y-21202438D02*
X53100588Y-21250057D01*
X53100588Y-21250057D02*
X53148207Y-21345295D01*
X53148207Y-21345295D02*
X53148207Y-21488152D01*
X53148207Y-21488152D02*
X53100588Y-21583390D01*
X53100588Y-21583390D02*
X53052969Y-21631009D01*
X53052969Y-21631009D02*
X52957731Y-21678628D01*
X52957731Y-21678628D02*
X52576779Y-21678628D01*
X54148207Y-22059580D02*
X54100588Y-22107200D01*
X54100588Y-22107200D02*
X53957731Y-22154819D01*
X53957731Y-22154819D02*
X53862493Y-22154819D01*
X53862493Y-22154819D02*
X53719636Y-22107200D01*
X53719636Y-22107200D02*
X53624398Y-22011961D01*
X53624398Y-22011961D02*
X53576779Y-21916723D01*
X53576779Y-21916723D02*
X53529160Y-21726247D01*
X53529160Y-21726247D02*
X53529160Y-21583390D01*
X53529160Y-21583390D02*
X53576779Y-21392914D01*
X53576779Y-21392914D02*
X53624398Y-21297676D01*
X53624398Y-21297676D02*
X53719636Y-21202438D01*
X53719636Y-21202438D02*
X53862493Y-21154819D01*
X53862493Y-21154819D02*
X53957731Y-21154819D01*
X53957731Y-21154819D02*
X54100588Y-21202438D01*
X54100588Y-21202438D02*
X54148207Y-21250057D01*
X54529160Y-21250057D02*
X54576779Y-21202438D01*
X54576779Y-21202438D02*
X54672017Y-21154819D01*
X54672017Y-21154819D02*
X54910112Y-21154819D01*
X54910112Y-21154819D02*
X55005350Y-21202438D01*
X55005350Y-21202438D02*
X55052969Y-21250057D01*
X55052969Y-21250057D02*
X55100588Y-21345295D01*
X55100588Y-21345295D02*
X55100588Y-21440533D01*
X55100588Y-21440533D02*
X55052969Y-21583390D01*
X55052969Y-21583390D02*
X54481541Y-22154819D01*
X54481541Y-22154819D02*
X55100588Y-22154819D01*
X52676779Y-37394819D02*
X52676779Y-36394819D01*
X52676779Y-36394819D02*
X53010112Y-37109104D01*
X53010112Y-37109104D02*
X53343445Y-36394819D01*
X53343445Y-36394819D02*
X53343445Y-37394819D01*
X53772017Y-36490057D02*
X53819636Y-36442438D01*
X53819636Y-36442438D02*
X53914874Y-36394819D01*
X53914874Y-36394819D02*
X54152969Y-36394819D01*
X54152969Y-36394819D02*
X54248207Y-36442438D01*
X54248207Y-36442438D02*
X54295826Y-36490057D01*
X54295826Y-36490057D02*
X54343445Y-36585295D01*
X54343445Y-36585295D02*
X54343445Y-36680533D01*
X54343445Y-36680533D02*
X54295826Y-36823390D01*
X54295826Y-36823390D02*
X53724398Y-37394819D01*
X53724398Y-37394819D02*
X54343445Y-37394819D01*
X60256779Y-22154819D02*
X60256779Y-21154819D01*
X60256779Y-21154819D02*
X60637731Y-21154819D01*
X60637731Y-21154819D02*
X60732969Y-21202438D01*
X60732969Y-21202438D02*
X60780588Y-21250057D01*
X60780588Y-21250057D02*
X60828207Y-21345295D01*
X60828207Y-21345295D02*
X60828207Y-21488152D01*
X60828207Y-21488152D02*
X60780588Y-21583390D01*
X60780588Y-21583390D02*
X60732969Y-21631009D01*
X60732969Y-21631009D02*
X60637731Y-21678628D01*
X60637731Y-21678628D02*
X60256779Y-21678628D01*
X61828207Y-22059580D02*
X61780588Y-22107200D01*
X61780588Y-22107200D02*
X61637731Y-22154819D01*
X61637731Y-22154819D02*
X61542493Y-22154819D01*
X61542493Y-22154819D02*
X61399636Y-22107200D01*
X61399636Y-22107200D02*
X61304398Y-22011961D01*
X61304398Y-22011961D02*
X61256779Y-21916723D01*
X61256779Y-21916723D02*
X61209160Y-21726247D01*
X61209160Y-21726247D02*
X61209160Y-21583390D01*
X61209160Y-21583390D02*
X61256779Y-21392914D01*
X61256779Y-21392914D02*
X61304398Y-21297676D01*
X61304398Y-21297676D02*
X61399636Y-21202438D01*
X61399636Y-21202438D02*
X61542493Y-21154819D01*
X61542493Y-21154819D02*
X61637731Y-21154819D01*
X61637731Y-21154819D02*
X61780588Y-21202438D01*
X61780588Y-21202438D02*
X61828207Y-21250057D01*
X62780588Y-22154819D02*
X62209160Y-22154819D01*
X62494874Y-22154819D02*
X62494874Y-21154819D01*
X62494874Y-21154819D02*
X62399636Y-21297676D01*
X62399636Y-21297676D02*
X62304398Y-21392914D01*
X62304398Y-21392914D02*
X62209160Y-21440533D01*
X60356779Y-37394819D02*
X60356779Y-36394819D01*
X60356779Y-36394819D02*
X60690112Y-37109104D01*
X60690112Y-37109104D02*
X61023445Y-36394819D01*
X61023445Y-36394819D02*
X61023445Y-37394819D01*
X62023445Y-37394819D02*
X61452017Y-37394819D01*
X61737731Y-37394819D02*
X61737731Y-36394819D01*
X61737731Y-36394819D02*
X61642493Y-36537676D01*
X61642493Y-36537676D02*
X61547255Y-36632914D01*
X61547255Y-36632914D02*
X61452017Y-36680533D01*
X62926779Y-60854819D02*
X62926779Y-59854819D01*
X62926779Y-59854819D02*
X63164874Y-59854819D01*
X63164874Y-59854819D02*
X63307731Y-59902438D01*
X63307731Y-59902438D02*
X63402969Y-59997676D01*
X63402969Y-59997676D02*
X63450588Y-60092914D01*
X63450588Y-60092914D02*
X63498207Y-60283390D01*
X63498207Y-60283390D02*
X63498207Y-60426247D01*
X63498207Y-60426247D02*
X63450588Y-60616723D01*
X63450588Y-60616723D02*
X63402969Y-60711961D01*
X63402969Y-60711961D02*
X63307731Y-60807200D01*
X63307731Y-60807200D02*
X63164874Y-60854819D01*
X63164874Y-60854819D02*
X62926779Y-60854819D01*
X63879160Y-60569104D02*
X64355350Y-60569104D01*
X63783922Y-60854819D02*
X64117255Y-59854819D01*
X64117255Y-59854819D02*
X64450588Y-60854819D01*
X64641065Y-59854819D02*
X65212493Y-59854819D01*
X64926779Y-60854819D02*
X64926779Y-59854819D01*
X65498208Y-60569104D02*
X65974398Y-60569104D01*
X65402970Y-60854819D02*
X65736303Y-59854819D01*
X65736303Y-59854819D02*
X66069636Y-60854819D01*
X86617255Y-74674819D02*
X86807731Y-74674819D01*
X86807731Y-74674819D02*
X86902969Y-74722438D01*
X86902969Y-74722438D02*
X86998207Y-74817676D01*
X86998207Y-74817676D02*
X87045826Y-75008152D01*
X87045826Y-75008152D02*
X87045826Y-75341485D01*
X87045826Y-75341485D02*
X86998207Y-75531961D01*
X86998207Y-75531961D02*
X86902969Y-75627200D01*
X86902969Y-75627200D02*
X86807731Y-75674819D01*
X86807731Y-75674819D02*
X86617255Y-75674819D01*
X86617255Y-75674819D02*
X86522017Y-75627200D01*
X86522017Y-75627200D02*
X86426779Y-75531961D01*
X86426779Y-75531961D02*
X86379160Y-75341485D01*
X86379160Y-75341485D02*
X86379160Y-75008152D01*
X86379160Y-75008152D02*
X86426779Y-74817676D01*
X86426779Y-74817676D02*
X86522017Y-74722438D01*
X86522017Y-74722438D02*
X86617255Y-74674819D01*
X87474398Y-75674819D02*
X87474398Y-74674819D01*
X87474398Y-74674819D02*
X88045826Y-75674819D01*
X88045826Y-75674819D02*
X88045826Y-74674819D01*
X89283922Y-75008152D02*
X90045827Y-75293866D01*
X90045827Y-75293866D02*
X89283922Y-75579580D01*
X91635350Y-4414819D02*
X91444874Y-4414819D01*
X91444874Y-4414819D02*
X91349636Y-4462438D01*
X91349636Y-4462438D02*
X91302017Y-4510057D01*
X91302017Y-4510057D02*
X91206779Y-4652914D01*
X91206779Y-4652914D02*
X91159160Y-4843390D01*
X91159160Y-4843390D02*
X91159160Y-5224342D01*
X91159160Y-5224342D02*
X91206779Y-5319580D01*
X91206779Y-5319580D02*
X91254398Y-5367200D01*
X91254398Y-5367200D02*
X91349636Y-5414819D01*
X91349636Y-5414819D02*
X91540112Y-5414819D01*
X91540112Y-5414819D02*
X91635350Y-5367200D01*
X91635350Y-5367200D02*
X91682969Y-5319580D01*
X91682969Y-5319580D02*
X91730588Y-5224342D01*
X91730588Y-5224342D02*
X91730588Y-4986247D01*
X91730588Y-4986247D02*
X91682969Y-4891009D01*
X91682969Y-4891009D02*
X91635350Y-4843390D01*
X91635350Y-4843390D02*
X91540112Y-4795771D01*
X91540112Y-4795771D02*
X91349636Y-4795771D01*
X91349636Y-4795771D02*
X91254398Y-4843390D01*
X91254398Y-4843390D02*
X91206779Y-4891009D01*
X91206779Y-4891009D02*
X91159160Y-4986247D01*
X92063922Y-4414819D02*
X92682969Y-4414819D01*
X92682969Y-4414819D02*
X92349636Y-4795771D01*
X92349636Y-4795771D02*
X92492493Y-4795771D01*
X92492493Y-4795771D02*
X92587731Y-4843390D01*
X92587731Y-4843390D02*
X92635350Y-4891009D01*
X92635350Y-4891009D02*
X92682969Y-4986247D01*
X92682969Y-4986247D02*
X92682969Y-5224342D01*
X92682969Y-5224342D02*
X92635350Y-5319580D01*
X92635350Y-5319580D02*
X92587731Y-5367200D01*
X92587731Y-5367200D02*
X92492493Y-5414819D01*
X92492493Y-5414819D02*
X92206779Y-5414819D01*
X92206779Y-5414819D02*
X92111541Y-5367200D01*
X92111541Y-5367200D02*
X92063922Y-5319580D01*
X91635350Y-6954819D02*
X91444874Y-6954819D01*
X91444874Y-6954819D02*
X91349636Y-7002438D01*
X91349636Y-7002438D02*
X91302017Y-7050057D01*
X91302017Y-7050057D02*
X91206779Y-7192914D01*
X91206779Y-7192914D02*
X91159160Y-7383390D01*
X91159160Y-7383390D02*
X91159160Y-7764342D01*
X91159160Y-7764342D02*
X91206779Y-7859580D01*
X91206779Y-7859580D02*
X91254398Y-7907200D01*
X91254398Y-7907200D02*
X91349636Y-7954819D01*
X91349636Y-7954819D02*
X91540112Y-7954819D01*
X91540112Y-7954819D02*
X91635350Y-7907200D01*
X91635350Y-7907200D02*
X91682969Y-7859580D01*
X91682969Y-7859580D02*
X91730588Y-7764342D01*
X91730588Y-7764342D02*
X91730588Y-7526247D01*
X91730588Y-7526247D02*
X91682969Y-7431009D01*
X91682969Y-7431009D02*
X91635350Y-7383390D01*
X91635350Y-7383390D02*
X91540112Y-7335771D01*
X91540112Y-7335771D02*
X91349636Y-7335771D01*
X91349636Y-7335771D02*
X91254398Y-7383390D01*
X91254398Y-7383390D02*
X91206779Y-7431009D01*
X91206779Y-7431009D02*
X91159160Y-7526247D01*
X92587731Y-7288152D02*
X92587731Y-7954819D01*
X92349636Y-6907200D02*
X92111541Y-7621485D01*
X92111541Y-7621485D02*
X92730588Y-7621485D01*
X94079160Y-64007200D02*
X94222017Y-64054819D01*
X94222017Y-64054819D02*
X94460112Y-64054819D01*
X94460112Y-64054819D02*
X94555350Y-64007200D01*
X94555350Y-64007200D02*
X94602969Y-63959580D01*
X94602969Y-63959580D02*
X94650588Y-63864342D01*
X94650588Y-63864342D02*
X94650588Y-63769104D01*
X94650588Y-63769104D02*
X94602969Y-63673866D01*
X94602969Y-63673866D02*
X94555350Y-63626247D01*
X94555350Y-63626247D02*
X94460112Y-63578628D01*
X94460112Y-63578628D02*
X94269636Y-63531009D01*
X94269636Y-63531009D02*
X94174398Y-63483390D01*
X94174398Y-63483390D02*
X94126779Y-63435771D01*
X94126779Y-63435771D02*
X94079160Y-63340533D01*
X94079160Y-63340533D02*
X94079160Y-63245295D01*
X94079160Y-63245295D02*
X94126779Y-63150057D01*
X94126779Y-63150057D02*
X94174398Y-63102438D01*
X94174398Y-63102438D02*
X94269636Y-63054819D01*
X94269636Y-63054819D02*
X94507731Y-63054819D01*
X94507731Y-63054819D02*
X94650588Y-63102438D01*
X94983922Y-63054819D02*
X95222017Y-64054819D01*
X95222017Y-64054819D02*
X95412493Y-63340533D01*
X95412493Y-63340533D02*
X95602969Y-64054819D01*
X95602969Y-64054819D02*
X95841065Y-63054819D01*
X96412493Y-63054819D02*
X96507731Y-63054819D01*
X96507731Y-63054819D02*
X96602969Y-63102438D01*
X96602969Y-63102438D02*
X96650588Y-63150057D01*
X96650588Y-63150057D02*
X96698207Y-63245295D01*
X96698207Y-63245295D02*
X96745826Y-63435771D01*
X96745826Y-63435771D02*
X96745826Y-63673866D01*
X96745826Y-63673866D02*
X96698207Y-63864342D01*
X96698207Y-63864342D02*
X96650588Y-63959580D01*
X96650588Y-63959580D02*
X96602969Y-64007200D01*
X96602969Y-64007200D02*
X96507731Y-64054819D01*
X96507731Y-64054819D02*
X96412493Y-64054819D01*
X96412493Y-64054819D02*
X96317255Y-64007200D01*
X96317255Y-64007200D02*
X96269636Y-63959580D01*
X96269636Y-63959580D02*
X96222017Y-63864342D01*
X96222017Y-63864342D02*
X96174398Y-63673866D01*
X96174398Y-63673866D02*
X96174398Y-63435771D01*
X96174398Y-63435771D02*
X96222017Y-63245295D01*
X96222017Y-63245295D02*
X96269636Y-63150057D01*
X96269636Y-63150057D02*
X96317255Y-63102438D01*
X96317255Y-63102438D02*
X96412493Y-63054819D01*
X94079160Y-66547200D02*
X94222017Y-66594819D01*
X94222017Y-66594819D02*
X94460112Y-66594819D01*
X94460112Y-66594819D02*
X94555350Y-66547200D01*
X94555350Y-66547200D02*
X94602969Y-66499580D01*
X94602969Y-66499580D02*
X94650588Y-66404342D01*
X94650588Y-66404342D02*
X94650588Y-66309104D01*
X94650588Y-66309104D02*
X94602969Y-66213866D01*
X94602969Y-66213866D02*
X94555350Y-66166247D01*
X94555350Y-66166247D02*
X94460112Y-66118628D01*
X94460112Y-66118628D02*
X94269636Y-66071009D01*
X94269636Y-66071009D02*
X94174398Y-66023390D01*
X94174398Y-66023390D02*
X94126779Y-65975771D01*
X94126779Y-65975771D02*
X94079160Y-65880533D01*
X94079160Y-65880533D02*
X94079160Y-65785295D01*
X94079160Y-65785295D02*
X94126779Y-65690057D01*
X94126779Y-65690057D02*
X94174398Y-65642438D01*
X94174398Y-65642438D02*
X94269636Y-65594819D01*
X94269636Y-65594819D02*
X94507731Y-65594819D01*
X94507731Y-65594819D02*
X94650588Y-65642438D01*
X94983922Y-65594819D02*
X95222017Y-66594819D01*
X95222017Y-66594819D02*
X95412493Y-65880533D01*
X95412493Y-65880533D02*
X95602969Y-66594819D01*
X95602969Y-66594819D02*
X95841065Y-65594819D01*
X96745826Y-66594819D02*
X96174398Y-66594819D01*
X96460112Y-66594819D02*
X96460112Y-65594819D01*
X96460112Y-65594819D02*
X96364874Y-65737676D01*
X96364874Y-65737676D02*
X96269636Y-65832914D01*
X96269636Y-65832914D02*
X96174398Y-65880533D01*
X94079160Y-69087200D02*
X94222017Y-69134819D01*
X94222017Y-69134819D02*
X94460112Y-69134819D01*
X94460112Y-69134819D02*
X94555350Y-69087200D01*
X94555350Y-69087200D02*
X94602969Y-69039580D01*
X94602969Y-69039580D02*
X94650588Y-68944342D01*
X94650588Y-68944342D02*
X94650588Y-68849104D01*
X94650588Y-68849104D02*
X94602969Y-68753866D01*
X94602969Y-68753866D02*
X94555350Y-68706247D01*
X94555350Y-68706247D02*
X94460112Y-68658628D01*
X94460112Y-68658628D02*
X94269636Y-68611009D01*
X94269636Y-68611009D02*
X94174398Y-68563390D01*
X94174398Y-68563390D02*
X94126779Y-68515771D01*
X94126779Y-68515771D02*
X94079160Y-68420533D01*
X94079160Y-68420533D02*
X94079160Y-68325295D01*
X94079160Y-68325295D02*
X94126779Y-68230057D01*
X94126779Y-68230057D02*
X94174398Y-68182438D01*
X94174398Y-68182438D02*
X94269636Y-68134819D01*
X94269636Y-68134819D02*
X94507731Y-68134819D01*
X94507731Y-68134819D02*
X94650588Y-68182438D01*
X94983922Y-68134819D02*
X95222017Y-69134819D01*
X95222017Y-69134819D02*
X95412493Y-68420533D01*
X95412493Y-68420533D02*
X95602969Y-69134819D01*
X95602969Y-69134819D02*
X95841065Y-68134819D01*
X96174398Y-68230057D02*
X96222017Y-68182438D01*
X96222017Y-68182438D02*
X96317255Y-68134819D01*
X96317255Y-68134819D02*
X96555350Y-68134819D01*
X96555350Y-68134819D02*
X96650588Y-68182438D01*
X96650588Y-68182438D02*
X96698207Y-68230057D01*
X96698207Y-68230057D02*
X96745826Y-68325295D01*
X96745826Y-68325295D02*
X96745826Y-68420533D01*
X96745826Y-68420533D02*
X96698207Y-68563390D01*
X96698207Y-68563390D02*
X96126779Y-69134819D01*
X96126779Y-69134819D02*
X96745826Y-69134819D01*
X94079160Y-71627200D02*
X94222017Y-71674819D01*
X94222017Y-71674819D02*
X94460112Y-71674819D01*
X94460112Y-71674819D02*
X94555350Y-71627200D01*
X94555350Y-71627200D02*
X94602969Y-71579580D01*
X94602969Y-71579580D02*
X94650588Y-71484342D01*
X94650588Y-71484342D02*
X94650588Y-71389104D01*
X94650588Y-71389104D02*
X94602969Y-71293866D01*
X94602969Y-71293866D02*
X94555350Y-71246247D01*
X94555350Y-71246247D02*
X94460112Y-71198628D01*
X94460112Y-71198628D02*
X94269636Y-71151009D01*
X94269636Y-71151009D02*
X94174398Y-71103390D01*
X94174398Y-71103390D02*
X94126779Y-71055771D01*
X94126779Y-71055771D02*
X94079160Y-70960533D01*
X94079160Y-70960533D02*
X94079160Y-70865295D01*
X94079160Y-70865295D02*
X94126779Y-70770057D01*
X94126779Y-70770057D02*
X94174398Y-70722438D01*
X94174398Y-70722438D02*
X94269636Y-70674819D01*
X94269636Y-70674819D02*
X94507731Y-70674819D01*
X94507731Y-70674819D02*
X94650588Y-70722438D01*
X94983922Y-70674819D02*
X95222017Y-71674819D01*
X95222017Y-71674819D02*
X95412493Y-70960533D01*
X95412493Y-70960533D02*
X95602969Y-71674819D01*
X95602969Y-71674819D02*
X95841065Y-70674819D01*
X96126779Y-70674819D02*
X96745826Y-70674819D01*
X96745826Y-70674819D02*
X96412493Y-71055771D01*
X96412493Y-71055771D02*
X96555350Y-71055771D01*
X96555350Y-71055771D02*
X96650588Y-71103390D01*
X96650588Y-71103390D02*
X96698207Y-71151009D01*
X96698207Y-71151009D02*
X96745826Y-71246247D01*
X96745826Y-71246247D02*
X96745826Y-71484342D01*
X96745826Y-71484342D02*
X96698207Y-71579580D01*
X96698207Y-71579580D02*
X96650588Y-71627200D01*
X96650588Y-71627200D02*
X96555350Y-71674819D01*
X96555350Y-71674819D02*
X96269636Y-71674819D01*
X96269636Y-71674819D02*
X96174398Y-71627200D01*
X96174398Y-71627200D02*
X96126779Y-71579580D01*
X68554819Y-22938094D02*
X67554819Y-22938094D01*
X67554819Y-22938094D02*
X67554819Y-22557142D01*
X67554819Y-22557142D02*
X67602438Y-22461904D01*
X67602438Y-22461904D02*
X67650057Y-22414285D01*
X67650057Y-22414285D02*
X67745295Y-22366666D01*
X67745295Y-22366666D02*
X67888152Y-22366666D01*
X67888152Y-22366666D02*
X67983390Y-22414285D01*
X67983390Y-22414285D02*
X68031009Y-22461904D01*
X68031009Y-22461904D02*
X68078628Y-22557142D01*
X68078628Y-22557142D02*
X68078628Y-22938094D01*
X68459580Y-21366666D02*
X68507200Y-21414285D01*
X68507200Y-21414285D02*
X68554819Y-21557142D01*
X68554819Y-21557142D02*
X68554819Y-21652380D01*
X68554819Y-21652380D02*
X68507200Y-21795237D01*
X68507200Y-21795237D02*
X68411961Y-21890475D01*
X68411961Y-21890475D02*
X68316723Y-21938094D01*
X68316723Y-21938094D02*
X68126247Y-21985713D01*
X68126247Y-21985713D02*
X67983390Y-21985713D01*
X67983390Y-21985713D02*
X67792914Y-21938094D01*
X67792914Y-21938094D02*
X67697676Y-21890475D01*
X67697676Y-21890475D02*
X67602438Y-21795237D01*
X67602438Y-21795237D02*
X67554819Y-21652380D01*
X67554819Y-21652380D02*
X67554819Y-21557142D01*
X67554819Y-21557142D02*
X67602438Y-21414285D01*
X67602438Y-21414285D02*
X67650057Y-21366666D01*
X67554819Y-20747618D02*
X67554819Y-20652380D01*
X67554819Y-20652380D02*
X67602438Y-20557142D01*
X67602438Y-20557142D02*
X67650057Y-20509523D01*
X67650057Y-20509523D02*
X67745295Y-20461904D01*
X67745295Y-20461904D02*
X67935771Y-20414285D01*
X67935771Y-20414285D02*
X68173866Y-20414285D01*
X68173866Y-20414285D02*
X68364342Y-20461904D01*
X68364342Y-20461904D02*
X68459580Y-20509523D01*
X68459580Y-20509523D02*
X68507200Y-20557142D01*
X68507200Y-20557142D02*
X68554819Y-20652380D01*
X68554819Y-20652380D02*
X68554819Y-20747618D01*
X68554819Y-20747618D02*
X68507200Y-20842856D01*
X68507200Y-20842856D02*
X68459580Y-20890475D01*
X68459580Y-20890475D02*
X68364342Y-20938094D01*
X68364342Y-20938094D02*
X68173866Y-20985713D01*
X68173866Y-20985713D02*
X67935771Y-20985713D01*
X67935771Y-20985713D02*
X67745295Y-20938094D01*
X67745295Y-20938094D02*
X67650057Y-20890475D01*
X67650057Y-20890475D02*
X67602438Y-20842856D01*
X67602438Y-20842856D02*
X67554819Y-20747618D01*
X68554819Y-37749523D02*
X67554819Y-37749523D01*
X67554819Y-37749523D02*
X68269104Y-37416190D01*
X68269104Y-37416190D02*
X67554819Y-37082857D01*
X67554819Y-37082857D02*
X68554819Y-37082857D01*
X67554819Y-36416190D02*
X67554819Y-36320952D01*
X67554819Y-36320952D02*
X67602438Y-36225714D01*
X67602438Y-36225714D02*
X67650057Y-36178095D01*
X67650057Y-36178095D02*
X67745295Y-36130476D01*
X67745295Y-36130476D02*
X67935771Y-36082857D01*
X67935771Y-36082857D02*
X68173866Y-36082857D01*
X68173866Y-36082857D02*
X68364342Y-36130476D01*
X68364342Y-36130476D02*
X68459580Y-36178095D01*
X68459580Y-36178095D02*
X68507200Y-36225714D01*
X68507200Y-36225714D02*
X68554819Y-36320952D01*
X68554819Y-36320952D02*
X68554819Y-36416190D01*
X68554819Y-36416190D02*
X68507200Y-36511428D01*
X68507200Y-36511428D02*
X68459580Y-36559047D01*
X68459580Y-36559047D02*
X68364342Y-36606666D01*
X68364342Y-36606666D02*
X68173866Y-36654285D01*
X68173866Y-36654285D02*
X67935771Y-36654285D01*
X67935771Y-36654285D02*
X67745295Y-36606666D01*
X67745295Y-36606666D02*
X67650057Y-36559047D01*
X67650057Y-36559047D02*
X67602438Y-36511428D01*
X67602438Y-36511428D02*
X67554819Y-36416190D01*
D11*
X9521615Y-98880928D02*
X9521615Y-97380928D01*
X9521615Y-97380928D02*
X10378758Y-98880928D01*
X10378758Y-98880928D02*
X10378758Y-97380928D01*
X11093044Y-98880928D02*
X11093044Y-97380928D01*
X12307330Y-98095214D02*
X12521616Y-98166642D01*
X12521616Y-98166642D02*
X12593045Y-98238071D01*
X12593045Y-98238071D02*
X12664473Y-98380928D01*
X12664473Y-98380928D02*
X12664473Y-98595214D01*
X12664473Y-98595214D02*
X12593045Y-98738071D01*
X12593045Y-98738071D02*
X12521616Y-98809500D01*
X12521616Y-98809500D02*
X12378759Y-98880928D01*
X12378759Y-98880928D02*
X11807330Y-98880928D01*
X11807330Y-98880928D02*
X11807330Y-97380928D01*
X11807330Y-97380928D02*
X12307330Y-97380928D01*
X12307330Y-97380928D02*
X12450188Y-97452357D01*
X12450188Y-97452357D02*
X12521616Y-97523785D01*
X12521616Y-97523785D02*
X12593045Y-97666642D01*
X12593045Y-97666642D02*
X12593045Y-97809500D01*
X12593045Y-97809500D02*
X12521616Y-97952357D01*
X12521616Y-97952357D02*
X12450188Y-98023785D01*
X12450188Y-98023785D02*
X12307330Y-98095214D01*
X12307330Y-98095214D02*
X11807330Y-98095214D01*
X13807330Y-98095214D02*
X14021616Y-98166642D01*
X14021616Y-98166642D02*
X14093045Y-98238071D01*
X14093045Y-98238071D02*
X14164473Y-98380928D01*
X14164473Y-98380928D02*
X14164473Y-98595214D01*
X14164473Y-98595214D02*
X14093045Y-98738071D01*
X14093045Y-98738071D02*
X14021616Y-98809500D01*
X14021616Y-98809500D02*
X13878759Y-98880928D01*
X13878759Y-98880928D02*
X13307330Y-98880928D01*
X13307330Y-98880928D02*
X13307330Y-97380928D01*
X13307330Y-97380928D02*
X13807330Y-97380928D01*
X13807330Y-97380928D02*
X13950188Y-97452357D01*
X13950188Y-97452357D02*
X14021616Y-97523785D01*
X14021616Y-97523785D02*
X14093045Y-97666642D01*
X14093045Y-97666642D02*
X14093045Y-97809500D01*
X14093045Y-97809500D02*
X14021616Y-97952357D01*
X14021616Y-97952357D02*
X13950188Y-98023785D01*
X13950188Y-98023785D02*
X13807330Y-98095214D01*
X13807330Y-98095214D02*
X13307330Y-98095214D01*
X15521616Y-98880928D02*
X14807330Y-98880928D01*
X14807330Y-98880928D02*
X14807330Y-97380928D01*
X16021616Y-98095214D02*
X16521616Y-98095214D01*
X16735902Y-98880928D02*
X16021616Y-98880928D01*
X16021616Y-98880928D02*
X16021616Y-97380928D01*
X16021616Y-97380928D02*
X16735902Y-97380928D01*
X19664473Y-98880928D02*
X19664473Y-97380928D01*
X19664473Y-97380928D02*
X20235902Y-97380928D01*
X20235902Y-97380928D02*
X20378759Y-97452357D01*
X20378759Y-97452357D02*
X20450188Y-97523785D01*
X20450188Y-97523785D02*
X20521616Y-97666642D01*
X20521616Y-97666642D02*
X20521616Y-97880928D01*
X20521616Y-97880928D02*
X20450188Y-98023785D01*
X20450188Y-98023785D02*
X20378759Y-98095214D01*
X20378759Y-98095214D02*
X20235902Y-98166642D01*
X20235902Y-98166642D02*
X19664473Y-98166642D01*
X21093045Y-98452357D02*
X21807331Y-98452357D01*
X20950188Y-98880928D02*
X21450188Y-97380928D01*
X21450188Y-97380928D02*
X21950188Y-98880928D01*
X22450187Y-98880928D02*
X22450187Y-97380928D01*
X22450187Y-97380928D02*
X23307330Y-98880928D01*
X23307330Y-98880928D02*
X23307330Y-97380928D01*
X24021616Y-98095214D02*
X24521616Y-98095214D01*
X24735902Y-98880928D02*
X24021616Y-98880928D01*
X24021616Y-98880928D02*
X24021616Y-97380928D01*
X24021616Y-97380928D02*
X24735902Y-97380928D01*
X26093045Y-98880928D02*
X25378759Y-98880928D01*
X25378759Y-98880928D02*
X25378759Y-97380928D01*
X28593045Y-98738071D02*
X28521617Y-98809500D01*
X28521617Y-98809500D02*
X28307331Y-98880928D01*
X28307331Y-98880928D02*
X28164474Y-98880928D01*
X28164474Y-98880928D02*
X27950188Y-98809500D01*
X27950188Y-98809500D02*
X27807331Y-98666642D01*
X27807331Y-98666642D02*
X27735902Y-98523785D01*
X27735902Y-98523785D02*
X27664474Y-98238071D01*
X27664474Y-98238071D02*
X27664474Y-98023785D01*
X27664474Y-98023785D02*
X27735902Y-97738071D01*
X27735902Y-97738071D02*
X27807331Y-97595214D01*
X27807331Y-97595214D02*
X27950188Y-97452357D01*
X27950188Y-97452357D02*
X28164474Y-97380928D01*
X28164474Y-97380928D02*
X28307331Y-97380928D01*
X28307331Y-97380928D02*
X28521617Y-97452357D01*
X28521617Y-97452357D02*
X28593045Y-97523785D01*
X31807331Y-97380928D02*
X32093045Y-97380928D01*
X32093045Y-97380928D02*
X32235902Y-97452357D01*
X32235902Y-97452357D02*
X32378759Y-97595214D01*
X32378759Y-97595214D02*
X32450188Y-97880928D01*
X32450188Y-97880928D02*
X32450188Y-98380928D01*
X32450188Y-98380928D02*
X32378759Y-98666642D01*
X32378759Y-98666642D02*
X32235902Y-98809500D01*
X32235902Y-98809500D02*
X32093045Y-98880928D01*
X32093045Y-98880928D02*
X31807331Y-98880928D01*
X31807331Y-98880928D02*
X31664474Y-98809500D01*
X31664474Y-98809500D02*
X31521616Y-98666642D01*
X31521616Y-98666642D02*
X31450188Y-98380928D01*
X31450188Y-98380928D02*
X31450188Y-97880928D01*
X31450188Y-97880928D02*
X31521616Y-97595214D01*
X31521616Y-97595214D02*
X31664474Y-97452357D01*
X31664474Y-97452357D02*
X31807331Y-97380928D01*
X33093045Y-98880928D02*
X33093045Y-97380928D01*
X33093045Y-97380928D02*
X33664474Y-97380928D01*
X33664474Y-97380928D02*
X33807331Y-97452357D01*
X33807331Y-97452357D02*
X33878760Y-97523785D01*
X33878760Y-97523785D02*
X33950188Y-97666642D01*
X33950188Y-97666642D02*
X33950188Y-97880928D01*
X33950188Y-97880928D02*
X33878760Y-98023785D01*
X33878760Y-98023785D02*
X33807331Y-98095214D01*
X33807331Y-98095214D02*
X33664474Y-98166642D01*
X33664474Y-98166642D02*
X33093045Y-98166642D01*
X34593045Y-98095214D02*
X35093045Y-98095214D01*
X35307331Y-98880928D02*
X34593045Y-98880928D01*
X34593045Y-98880928D02*
X34593045Y-97380928D01*
X34593045Y-97380928D02*
X35307331Y-97380928D01*
X36807331Y-98880928D02*
X36307331Y-98166642D01*
X35950188Y-98880928D02*
X35950188Y-97380928D01*
X35950188Y-97380928D02*
X36521617Y-97380928D01*
X36521617Y-97380928D02*
X36664474Y-97452357D01*
X36664474Y-97452357D02*
X36735903Y-97523785D01*
X36735903Y-97523785D02*
X36807331Y-97666642D01*
X36807331Y-97666642D02*
X36807331Y-97880928D01*
X36807331Y-97880928D02*
X36735903Y-98023785D01*
X36735903Y-98023785D02*
X36664474Y-98095214D01*
X36664474Y-98095214D02*
X36521617Y-98166642D01*
X36521617Y-98166642D02*
X35950188Y-98166642D01*
X37378760Y-98452357D02*
X38093046Y-98452357D01*
X37235903Y-98880928D02*
X37735903Y-97380928D01*
X37735903Y-97380928D02*
X38235903Y-98880928D01*
X38521617Y-97380928D02*
X39378760Y-97380928D01*
X38950188Y-98880928D02*
X38950188Y-97380928D01*
X40164474Y-97380928D02*
X40450188Y-97380928D01*
X40450188Y-97380928D02*
X40593045Y-97452357D01*
X40593045Y-97452357D02*
X40735902Y-97595214D01*
X40735902Y-97595214D02*
X40807331Y-97880928D01*
X40807331Y-97880928D02*
X40807331Y-98380928D01*
X40807331Y-98380928D02*
X40735902Y-98666642D01*
X40735902Y-98666642D02*
X40593045Y-98809500D01*
X40593045Y-98809500D02*
X40450188Y-98880928D01*
X40450188Y-98880928D02*
X40164474Y-98880928D01*
X40164474Y-98880928D02*
X40021617Y-98809500D01*
X40021617Y-98809500D02*
X39878759Y-98666642D01*
X39878759Y-98666642D02*
X39807331Y-98380928D01*
X39807331Y-98380928D02*
X39807331Y-97880928D01*
X39807331Y-97880928D02*
X39878759Y-97595214D01*
X39878759Y-97595214D02*
X40021617Y-97452357D01*
X40021617Y-97452357D02*
X40164474Y-97380928D01*
X42307331Y-98880928D02*
X41807331Y-98166642D01*
X41450188Y-98880928D02*
X41450188Y-97380928D01*
X41450188Y-97380928D02*
X42021617Y-97380928D01*
X42021617Y-97380928D02*
X42164474Y-97452357D01*
X42164474Y-97452357D02*
X42235903Y-97523785D01*
X42235903Y-97523785D02*
X42307331Y-97666642D01*
X42307331Y-97666642D02*
X42307331Y-97880928D01*
X42307331Y-97880928D02*
X42235903Y-98023785D01*
X42235903Y-98023785D02*
X42164474Y-98095214D01*
X42164474Y-98095214D02*
X42021617Y-98166642D01*
X42021617Y-98166642D02*
X41450188Y-98166642D01*
D10*
X95238095Y-46304819D02*
X95238095Y-45304819D01*
X95238095Y-45781009D02*
X95809523Y-45781009D01*
X95809523Y-46304819D02*
X95809523Y-45304819D01*
X96238095Y-45400057D02*
X96285714Y-45352438D01*
X96285714Y-45352438D02*
X96380952Y-45304819D01*
X96380952Y-45304819D02*
X96619047Y-45304819D01*
X96619047Y-45304819D02*
X96714285Y-45352438D01*
X96714285Y-45352438D02*
X96761904Y-45400057D01*
X96761904Y-45400057D02*
X96809523Y-45495295D01*
X96809523Y-45495295D02*
X96809523Y-45590533D01*
X96809523Y-45590533D02*
X96761904Y-45733390D01*
X96761904Y-45733390D02*
X96190476Y-46304819D01*
X96190476Y-46304819D02*
X96809523Y-46304819D01*
X3238095Y-46304819D02*
X3238095Y-45304819D01*
X3238095Y-45781009D02*
X3809523Y-45781009D01*
X3809523Y-46304819D02*
X3809523Y-45304819D01*
X4809523Y-46304819D02*
X4238095Y-46304819D01*
X4523809Y-46304819D02*
X4523809Y-45304819D01*
X4523809Y-45304819D02*
X4428571Y-45447676D01*
X4428571Y-45447676D02*
X4333333Y-45542914D01*
X4333333Y-45542914D02*
X4238095Y-45590533D01*
%TO.C,Q16*%
D12*
X67100000Y-40185000D02*
X63500000Y-40185000D01*
X62975816Y-40912205D02*
G75*
G02*
X63500000Y-40185000I2324184J-1122795D01*
G01*
X65300000Y-44635000D02*
G75*
G02*
X62943600Y-43133807I0J2600000D01*
G01*
X67100000Y-40185000D02*
G75*
G02*
X67624184Y-40912205I-1800000J-1850000D01*
G01*
X67656400Y-43133807D02*
G75*
G02*
X65300000Y-44635000I-2356400J1098807D01*
G01*
%TO.C,R21*%
X79490000Y-29335000D02*
X82100000Y-29335000D01*
X79490000Y-29335000D02*
G75*
G02*
X76750000Y-29335000I-1370000J0D01*
G01*
X76750000Y-29335000D02*
G75*
G02*
X79490000Y-29335000I1370000J0D01*
G01*
%TO.C,R3*%
X18050000Y-16000000D02*
X20660000Y-16000000D01*
X18050000Y-16000000D02*
G75*
G02*
X15310000Y-16000000I-1370000J0D01*
G01*
X15310000Y-16000000D02*
G75*
G02*
X18050000Y-16000000I1370000J0D01*
G01*
%TO.C,D11*%
X48704000Y-22640000D02*
X48860000Y-22640000D01*
X51020000Y-22640000D02*
X51176000Y-22640000D01*
X48704484Y-22640000D02*
G75*
G02*
X48860000Y-19408563I1235516J1560000D01*
G01*
X48860000Y-22120961D02*
G75*
G02*
X48860000Y-20039039I1080000J1040961D01*
G01*
X51020000Y-19408563D02*
G75*
G02*
X51175516Y-22640000I-1080000J-1671437D01*
G01*
X51020000Y-20039039D02*
G75*
G02*
X51020000Y-22120961I-1080000J-1040961D01*
G01*
%TO.C,R23*%
X87170000Y-16000000D02*
X89780000Y-16000000D01*
X87170000Y-16000000D02*
G75*
G02*
X84430000Y-16000000I-1370000J0D01*
G01*
X84430000Y-16000000D02*
G75*
G02*
X87170000Y-16000000I1370000J0D01*
G01*
%TO.C,Q3*%
X21020000Y-24945000D02*
X17420000Y-24945000D01*
X16895816Y-25672205D02*
G75*
G02*
X17420000Y-24945000I2324184J-1122795D01*
G01*
X19220000Y-29395000D02*
G75*
G02*
X16863600Y-27893807I0J2600000D01*
G01*
X21020000Y-24945000D02*
G75*
G02*
X21544184Y-25672205I-1800000J-1850000D01*
G01*
X21576400Y-27893807D02*
G75*
G02*
X19220000Y-29395000I-2356400J1098807D01*
G01*
%TO.C,Q11*%
X51740000Y-24945000D02*
X48140000Y-24945000D01*
X47615816Y-25672205D02*
G75*
G02*
X48140000Y-24945000I2324184J-1122795D01*
G01*
X49940000Y-29395000D02*
G75*
G02*
X47583600Y-27893807I0J2600000D01*
G01*
X51740000Y-24945000D02*
G75*
G02*
X52264184Y-25672205I-1800000J-1850000D01*
G01*
X52296400Y-27893807D02*
G75*
G02*
X49940000Y-29395000I-2356400J1098807D01*
G01*
%TO.C,Q21*%
X71180000Y-48965000D02*
X74780000Y-48965000D01*
X70623600Y-46016193D02*
G75*
G02*
X72980000Y-44515000I2356400J-1098807D01*
G01*
X71180000Y-48965000D02*
G75*
G02*
X70655816Y-48237795I1800000J1850000D01*
G01*
X72980000Y-44515000D02*
G75*
G02*
X75336400Y-46016193I0J-2600000D01*
G01*
X75304184Y-48237795D02*
G75*
G02*
X74780000Y-48965000I-2324184J1122795D01*
G01*
%TO.C,Q31*%
X86540000Y-35630000D02*
X90140000Y-35630000D01*
X85983600Y-32681193D02*
G75*
G02*
X88340000Y-31180000I2356400J-1098807D01*
G01*
X86540000Y-35630000D02*
G75*
G02*
X86015816Y-34902795I1800000J1850000D01*
G01*
X88340000Y-31180000D02*
G75*
G02*
X90696400Y-32681193I0J-2600000D01*
G01*
X90664184Y-34902795D02*
G75*
G02*
X90140000Y-35630000I-2324184J1122795D01*
G01*
%TO.C,D9*%
X41024000Y-22640000D02*
X41180000Y-22640000D01*
X43340000Y-22640000D02*
X43496000Y-22640000D01*
X41024484Y-22640000D02*
G75*
G02*
X41180000Y-19408563I1235516J1560000D01*
G01*
X41180000Y-22120961D02*
G75*
G02*
X41180000Y-20039039I1080000J1040961D01*
G01*
X43340000Y-19408563D02*
G75*
G02*
X43495516Y-22640000I-1080000J-1671437D01*
G01*
X43340000Y-20039039D02*
G75*
G02*
X43340000Y-22120961I-1080000J-1040961D01*
G01*
%TO.C,R16*%
X64130000Y-31240000D02*
X66740000Y-31240000D01*
X64130000Y-31240000D02*
G75*
G02*
X61390000Y-31240000I-1370000J0D01*
G01*
X61390000Y-31240000D02*
G75*
G02*
X64130000Y-31240000I1370000J0D01*
G01*
%TO.C,R20*%
X79490000Y-16000000D02*
X82100000Y-16000000D01*
X79490000Y-16000000D02*
G75*
G02*
X76750000Y-16000000I-1370000J0D01*
G01*
X76750000Y-16000000D02*
G75*
G02*
X79490000Y-16000000I1370000J0D01*
G01*
%TO.C,R2*%
X10370000Y-31240000D02*
X12980000Y-31240000D01*
X10370000Y-31240000D02*
G75*
G02*
X7630000Y-31240000I-1370000J0D01*
G01*
X7630000Y-31240000D02*
G75*
G02*
X10370000Y-31240000I1370000J0D01*
G01*
%TO.C,D16*%
X64064000Y-37880000D02*
X64220000Y-37880000D01*
X66380000Y-37880000D02*
X66536000Y-37880000D01*
X64064484Y-37880000D02*
G75*
G02*
X64220000Y-34648563I1235516J1560000D01*
G01*
X64220000Y-37360961D02*
G75*
G02*
X64220000Y-35279039I1080000J1040961D01*
G01*
X66380000Y-34648563D02*
G75*
G02*
X66535516Y-37880000I-1080000J-1671437D01*
G01*
X66380000Y-35279039D02*
G75*
G02*
X66380000Y-37360961I-1080000J-1040961D01*
G01*
%TO.C,R38*%
X74590000Y-65370000D02*
X74590000Y-67980000D01*
X75960000Y-64000000D02*
G75*
G02*
X73220000Y-64000000I-1370000J0D01*
G01*
X73220000Y-64000000D02*
G75*
G02*
X75960000Y-64000000I1370000J0D01*
G01*
%TO.C,D12*%
X48704000Y-37880000D02*
X48860000Y-37880000D01*
X51020000Y-37880000D02*
X51176000Y-37880000D01*
X48704484Y-37880000D02*
G75*
G02*
X48860000Y-34648563I1235516J1560000D01*
G01*
X48860000Y-37360961D02*
G75*
G02*
X48860000Y-35279039I1080000J1040961D01*
G01*
X51020000Y-34648563D02*
G75*
G02*
X51175516Y-37880000I-1080000J-1671437D01*
G01*
X51020000Y-35279039D02*
G75*
G02*
X51020000Y-37360961I-1080000J-1040961D01*
G01*
%TO.C,Q5*%
X25100000Y-28645000D02*
X28700000Y-28645000D01*
X24543600Y-25696193D02*
G75*
G02*
X26900000Y-24195000I2356400J-1098807D01*
G01*
X25100000Y-28645000D02*
G75*
G02*
X24575816Y-27917795I1800000J1850000D01*
G01*
X26900000Y-24195000D02*
G75*
G02*
X29256400Y-25696193I0J-2600000D01*
G01*
X29224184Y-27917795D02*
G75*
G02*
X28700000Y-28645000I-2324184J1122795D01*
G01*
%TO.C,D6*%
X25664000Y-37880000D02*
X25820000Y-37880000D01*
X27980000Y-37880000D02*
X28136000Y-37880000D01*
X25664484Y-37880000D02*
G75*
G02*
X25820000Y-34648563I1235516J1560000D01*
G01*
X25820000Y-37360961D02*
G75*
G02*
X25820000Y-35279039I1080000J1040961D01*
G01*
X27980000Y-34648563D02*
G75*
G02*
X28135516Y-37880000I-1080000J-1671437D01*
G01*
X27980000Y-35279039D02*
G75*
G02*
X27980000Y-37360961I-1080000J-1040961D01*
G01*
%TO.C,R26*%
X10370000Y-54100000D02*
X12980000Y-54100000D01*
X10370000Y-54100000D02*
G75*
G02*
X7630000Y-54100000I-1370000J0D01*
G01*
X7630000Y-54100000D02*
G75*
G02*
X10370000Y-54100000I1370000J0D01*
G01*
%TO.C,R32*%
X33410000Y-54100000D02*
X36020000Y-54100000D01*
X33410000Y-54100000D02*
G75*
G02*
X30670000Y-54100000I-1370000J0D01*
G01*
X30670000Y-54100000D02*
G75*
G02*
X33410000Y-54100000I1370000J0D01*
G01*
%TO.C,Q12*%
X51740000Y-40185000D02*
X48140000Y-40185000D01*
X47615816Y-40912205D02*
G75*
G02*
X48140000Y-40185000I2324184J-1122795D01*
G01*
X49940000Y-44635000D02*
G75*
G02*
X47583600Y-43133807I0J2600000D01*
G01*
X51740000Y-40185000D02*
G75*
G02*
X52264184Y-40912205I-1800000J-1850000D01*
G01*
X52296400Y-43133807D02*
G75*
G02*
X49940000Y-44635000I-2356400J1098807D01*
G01*
%TO.C,Q23*%
X82460000Y-17960000D02*
X78860000Y-17960000D01*
X78335816Y-18687205D02*
G75*
G02*
X78860000Y-17960000I2324184J-1122795D01*
G01*
X80660000Y-22410000D02*
G75*
G02*
X78303600Y-20908807I0J2600000D01*
G01*
X82460000Y-17960000D02*
G75*
G02*
X82984184Y-18687205I-1800000J-1850000D01*
G01*
X83016400Y-20908807D02*
G75*
G02*
X80660000Y-22410000I-2356400J1098807D01*
G01*
%TO.C,D4*%
X17984000Y-37880000D02*
X18140000Y-37880000D01*
X20300000Y-37880000D02*
X20456000Y-37880000D01*
X17984484Y-37880000D02*
G75*
G02*
X18140000Y-34648563I1235516J1560000D01*
G01*
X18140000Y-37360961D02*
G75*
G02*
X18140000Y-35279039I1080000J1040961D01*
G01*
X20300000Y-34648563D02*
G75*
G02*
X20455516Y-37880000I-1080000J-1671437D01*
G01*
X20300000Y-35279039D02*
G75*
G02*
X20300000Y-37360961I-1080000J-1040961D01*
G01*
%TO.C,Q24*%
X82460000Y-23040000D02*
X78860000Y-23040000D01*
X78335816Y-23767205D02*
G75*
G02*
X78860000Y-23040000I2324184J-1122795D01*
G01*
X80660000Y-27490000D02*
G75*
G02*
X78303600Y-25988807I0J2600000D01*
G01*
X82460000Y-23040000D02*
G75*
G02*
X82984184Y-23767205I-1800000J-1850000D01*
G01*
X83016400Y-25988807D02*
G75*
G02*
X80660000Y-27490000I-2356400J1098807D01*
G01*
%TO.C,Q10*%
X40460000Y-43885000D02*
X44060000Y-43885000D01*
X39903600Y-40936193D02*
G75*
G02*
X42260000Y-39435000I2356400J-1098807D01*
G01*
X40460000Y-43885000D02*
G75*
G02*
X39935816Y-43157795I1800000J1850000D01*
G01*
X42260000Y-39435000D02*
G75*
G02*
X44616400Y-40936193I0J-2600000D01*
G01*
X44584184Y-43157795D02*
G75*
G02*
X44060000Y-43885000I-2324184J1122795D01*
G01*
%TO.C,Q25*%
X82460000Y-31295000D02*
X78860000Y-31295000D01*
X78335816Y-32022205D02*
G75*
G02*
X78860000Y-31295000I2324184J-1122795D01*
G01*
X80660000Y-35745000D02*
G75*
G02*
X78303600Y-34243807I0J2600000D01*
G01*
X82460000Y-31295000D02*
G75*
G02*
X82984184Y-32022205I-1800000J-1850000D01*
G01*
X83016400Y-34243807D02*
G75*
G02*
X80660000Y-35745000I-2356400J1098807D01*
G01*
%TO.C,R33*%
X41090000Y-49020000D02*
X43700000Y-49020000D01*
X41090000Y-49020000D02*
G75*
G02*
X38350000Y-49020000I-1370000J0D01*
G01*
X38350000Y-49020000D02*
G75*
G02*
X41090000Y-49020000I1370000J0D01*
G01*
%TO.C,R36*%
X48770000Y-54100000D02*
X51380000Y-54100000D01*
X48770000Y-54100000D02*
G75*
G02*
X46030000Y-54100000I-1370000J0D01*
G01*
X46030000Y-54100000D02*
G75*
G02*
X48770000Y-54100000I1370000J0D01*
G01*
%TO.C,R8*%
X33410000Y-31240000D02*
X36020000Y-31240000D01*
X33410000Y-31240000D02*
G75*
G02*
X30670000Y-31240000I-1370000J0D01*
G01*
X30670000Y-31240000D02*
G75*
G02*
X33410000Y-31240000I1370000J0D01*
G01*
%TO.C,C1*%
X93630000Y-15130000D02*
X96370000Y-15130000D01*
X93630000Y-20370000D02*
X93630000Y-15130000D01*
X96370000Y-15130000D02*
X96370000Y-20370000D01*
X96370000Y-20370000D02*
X93630000Y-20370000D01*
%TO.C,R31*%
X33410000Y-49020000D02*
X36020000Y-49020000D01*
X33410000Y-49020000D02*
G75*
G02*
X30670000Y-49020000I-1370000J0D01*
G01*
X30670000Y-49020000D02*
G75*
G02*
X33410000Y-49020000I1370000J0D01*
G01*
%TO.C,R13*%
X56450000Y-16000000D02*
X59060000Y-16000000D01*
X56450000Y-16000000D02*
G75*
G02*
X53710000Y-16000000I-1370000J0D01*
G01*
X53710000Y-16000000D02*
G75*
G02*
X56450000Y-16000000I1370000J0D01*
G01*
%TO.C,D13*%
X56384000Y-22640000D02*
X56540000Y-22640000D01*
X58700000Y-22640000D02*
X58856000Y-22640000D01*
X56384484Y-22640000D02*
G75*
G02*
X56540000Y-19408563I1235516J1560000D01*
G01*
X56540000Y-22120961D02*
G75*
G02*
X56540000Y-20039039I1080000J1040961D01*
G01*
X58700000Y-19408563D02*
G75*
G02*
X58855516Y-22640000I-1080000J-1671437D01*
G01*
X58700000Y-20039039D02*
G75*
G02*
X58700000Y-22120961I-1080000J-1040961D01*
G01*
%TO.C,R22*%
X79490000Y-42670000D02*
X82100000Y-42670000D01*
X79490000Y-42670000D02*
G75*
G02*
X76750000Y-42670000I-1370000J0D01*
G01*
X76750000Y-42670000D02*
G75*
G02*
X79490000Y-42670000I1370000J0D01*
G01*
%TO.C,R7*%
X33410000Y-16000000D02*
X36020000Y-16000000D01*
X33410000Y-16000000D02*
G75*
G02*
X30670000Y-16000000I-1370000J0D01*
G01*
X30670000Y-16000000D02*
G75*
G02*
X33410000Y-16000000I1370000J0D01*
G01*
%TO.C,R25*%
X10370000Y-49020000D02*
X12980000Y-49020000D01*
X10370000Y-49020000D02*
G75*
G02*
X7630000Y-49020000I-1370000J0D01*
G01*
X7630000Y-49020000D02*
G75*
G02*
X10370000Y-49020000I1370000J0D01*
G01*
%TO.C,Q18*%
X71180000Y-27375000D02*
X74780000Y-27375000D01*
X70623600Y-24426193D02*
G75*
G02*
X72980000Y-22925000I2356400J-1098807D01*
G01*
X71180000Y-27375000D02*
G75*
G02*
X70655816Y-26647795I1800000J1850000D01*
G01*
X72980000Y-22925000D02*
G75*
G02*
X75336400Y-24426193I0J-2600000D01*
G01*
X75304184Y-26647795D02*
G75*
G02*
X74780000Y-27375000I-2324184J1122795D01*
G01*
%TO.C,R4*%
X18050000Y-31240000D02*
X20660000Y-31240000D01*
X18050000Y-31240000D02*
G75*
G02*
X15310000Y-31240000I-1370000J0D01*
G01*
X15310000Y-31240000D02*
G75*
G02*
X18050000Y-31240000I1370000J0D01*
G01*
%TO.C,R34*%
X41090000Y-54100000D02*
X43700000Y-54100000D01*
X41090000Y-54100000D02*
G75*
G02*
X38350000Y-54100000I-1370000J0D01*
G01*
X38350000Y-54100000D02*
G75*
G02*
X41090000Y-54100000I1370000J0D01*
G01*
%TO.C,Q4*%
X21020000Y-40185000D02*
X17420000Y-40185000D01*
X16895816Y-40912205D02*
G75*
G02*
X17420000Y-40185000I2324184J-1122795D01*
G01*
X19220000Y-44635000D02*
G75*
G02*
X16863600Y-43133807I0J2600000D01*
G01*
X21020000Y-40185000D02*
G75*
G02*
X21544184Y-40912205I-1800000J-1850000D01*
G01*
X21576400Y-43133807D02*
G75*
G02*
X19220000Y-44635000I-2356400J1098807D01*
G01*
%TO.C,Q32*%
X86540000Y-40710000D02*
X90140000Y-40710000D01*
X85983600Y-37761193D02*
G75*
G02*
X88340000Y-36260000I2356400J-1098807D01*
G01*
X86540000Y-40710000D02*
G75*
G02*
X86015816Y-39982795I1800000J1850000D01*
G01*
X88340000Y-36260000D02*
G75*
G02*
X90696400Y-37761193I0J-2600000D01*
G01*
X90664184Y-39982795D02*
G75*
G02*
X90140000Y-40710000I-2324184J1122795D01*
G01*
%TO.C,Q6*%
X25100000Y-43885000D02*
X28700000Y-43885000D01*
X24543600Y-40936193D02*
G75*
G02*
X26900000Y-39435000I2356400J-1098807D01*
G01*
X25100000Y-43885000D02*
G75*
G02*
X24575816Y-43157795I1800000J1850000D01*
G01*
X26900000Y-39435000D02*
G75*
G02*
X29256400Y-40936193I0J-2600000D01*
G01*
X29224184Y-43157795D02*
G75*
G02*
X28700000Y-43885000I-2324184J1122795D01*
G01*
%TO.C,D14*%
X56384000Y-37880000D02*
X56540000Y-37880000D01*
X58700000Y-37880000D02*
X58856000Y-37880000D01*
X56384484Y-37880000D02*
G75*
G02*
X56540000Y-34648563I1235516J1560000D01*
G01*
X56540000Y-37360961D02*
G75*
G02*
X56540000Y-35279039I1080000J1040961D01*
G01*
X58700000Y-34648563D02*
G75*
G02*
X58855516Y-37880000I-1080000J-1671437D01*
G01*
X58700000Y-35279039D02*
G75*
G02*
X58700000Y-37360961I-1080000J-1040961D01*
G01*
%TO.C,Q15*%
X67100000Y-24945000D02*
X63500000Y-24945000D01*
X62975816Y-25672205D02*
G75*
G02*
X63500000Y-24945000I2324184J-1122795D01*
G01*
X65300000Y-29395000D02*
G75*
G02*
X62943600Y-27893807I0J2600000D01*
G01*
X67100000Y-24945000D02*
G75*
G02*
X67624184Y-25672205I-1800000J-1850000D01*
G01*
X67656400Y-27893807D02*
G75*
G02*
X65300000Y-29395000I-2356400J1098807D01*
G01*
%TO.C,Q1*%
X9740000Y-28645000D02*
X13340000Y-28645000D01*
X9183600Y-25696193D02*
G75*
G02*
X11540000Y-24195000I2356400J-1098807D01*
G01*
X9740000Y-28645000D02*
G75*
G02*
X9215816Y-27917795I1800000J1850000D01*
G01*
X11540000Y-24195000D02*
G75*
G02*
X13896400Y-25696193I0J-2600000D01*
G01*
X13864184Y-27917795D02*
G75*
G02*
X13340000Y-28645000I-2324184J1122795D01*
G01*
%TO.C,R37*%
X80590000Y-65370000D02*
X80590000Y-67980000D01*
X81960000Y-64000000D02*
G75*
G02*
X79220000Y-64000000I-1370000J0D01*
G01*
X79220000Y-64000000D02*
G75*
G02*
X81960000Y-64000000I1370000J0D01*
G01*
%TO.C,Q28*%
X82460000Y-49710000D02*
X78860000Y-49710000D01*
X78335816Y-50437205D02*
G75*
G02*
X78860000Y-49710000I2324184J-1122795D01*
G01*
X80660000Y-54160000D02*
G75*
G02*
X78303600Y-52658807I0J2600000D01*
G01*
X82460000Y-49710000D02*
G75*
G02*
X82984184Y-50437205I-1800000J-1850000D01*
G01*
X83016400Y-52658807D02*
G75*
G02*
X80660000Y-54160000I-2356400J1098807D01*
G01*
%TO.C,Q7*%
X36380000Y-24945000D02*
X32780000Y-24945000D01*
X32255816Y-25672205D02*
G75*
G02*
X32780000Y-24945000I2324184J-1122795D01*
G01*
X34580000Y-29395000D02*
G75*
G02*
X32223600Y-27893807I0J2600000D01*
G01*
X36380000Y-24945000D02*
G75*
G02*
X36904184Y-25672205I-1800000J-1850000D01*
G01*
X36936400Y-27893807D02*
G75*
G02*
X34580000Y-29395000I-2356400J1098807D01*
G01*
%TO.C,R5*%
X25730000Y-16000000D02*
X28340000Y-16000000D01*
X25730000Y-16000000D02*
G75*
G02*
X22990000Y-16000000I-1370000J0D01*
G01*
X22990000Y-16000000D02*
G75*
G02*
X25730000Y-16000000I1370000J0D01*
G01*
%TO.C,D5*%
X25664000Y-22640000D02*
X25820000Y-22640000D01*
X27980000Y-22640000D02*
X28136000Y-22640000D01*
X25664484Y-22640000D02*
G75*
G02*
X25820000Y-19408563I1235516J1560000D01*
G01*
X25820000Y-22120961D02*
G75*
G02*
X25820000Y-20039039I1080000J1040961D01*
G01*
X27980000Y-19408563D02*
G75*
G02*
X28135516Y-22640000I-1080000J-1671437D01*
G01*
X27980000Y-20039039D02*
G75*
G02*
X27980000Y-22120961I-1080000J-1040961D01*
G01*
%TO.C,R6*%
X25730000Y-31240000D02*
X28340000Y-31240000D01*
X25730000Y-31240000D02*
G75*
G02*
X22990000Y-31240000I-1370000J0D01*
G01*
X22990000Y-31240000D02*
G75*
G02*
X25730000Y-31240000I1370000J0D01*
G01*
%TO.C,SW1*%
X83210000Y-61340000D02*
X83210000Y-62723000D01*
X83210000Y-61340000D02*
X84593000Y-61340000D01*
X83450000Y-61580000D02*
X83450000Y-74040000D01*
X83450000Y-61580000D02*
X93350000Y-61580000D01*
X83450000Y-74040000D02*
X93350000Y-74040000D01*
X87723333Y-63365000D02*
X87723333Y-64635000D01*
X87723333Y-65905000D02*
X87723333Y-67175000D01*
X87723333Y-68445000D02*
X87723333Y-69715000D01*
X87723333Y-70985000D02*
X87723333Y-72255000D01*
X93350000Y-61580000D02*
X93350000Y-74040000D01*
X86370000Y-63365000D02*
X87723333Y-63365000D01*
X87723333Y-64635000D01*
X86370000Y-64635000D01*
X86370000Y-63365000D01*
G36*
X86370000Y-63365000D02*
G01*
X87723333Y-63365000D01*
X87723333Y-64635000D01*
X86370000Y-64635000D01*
X86370000Y-63365000D01*
G37*
X86370000Y-63365000D02*
X90430000Y-63365000D01*
X90430000Y-64635000D01*
X86370000Y-64635000D01*
X86370000Y-63365000D01*
X86370000Y-65905000D02*
X87723333Y-65905000D01*
X87723333Y-67175000D01*
X86370000Y-67175000D01*
X86370000Y-65905000D01*
G36*
X86370000Y-65905000D02*
G01*
X87723333Y-65905000D01*
X87723333Y-67175000D01*
X86370000Y-67175000D01*
X86370000Y-65905000D01*
G37*
X86370000Y-65905000D02*
X90430000Y-65905000D01*
X90430000Y-67175000D01*
X86370000Y-67175000D01*
X86370000Y-65905000D01*
X86370000Y-68445000D02*
X87723333Y-68445000D01*
X87723333Y-69715000D01*
X86370000Y-69715000D01*
X86370000Y-68445000D01*
G36*
X86370000Y-68445000D02*
G01*
X87723333Y-68445000D01*
X87723333Y-69715000D01*
X86370000Y-69715000D01*
X86370000Y-68445000D01*
G37*
X86370000Y-68445000D02*
X90430000Y-68445000D01*
X90430000Y-69715000D01*
X86370000Y-69715000D01*
X86370000Y-68445000D01*
X86370000Y-70985000D02*
X87723333Y-70985000D01*
X87723333Y-72255000D01*
X86370000Y-72255000D01*
X86370000Y-70985000D01*
G36*
X86370000Y-70985000D02*
G01*
X87723333Y-70985000D01*
X87723333Y-72255000D01*
X86370000Y-72255000D01*
X86370000Y-70985000D01*
G37*
X86370000Y-70985000D02*
X90430000Y-70985000D01*
X90430000Y-72255000D01*
X86370000Y-72255000D01*
X86370000Y-70985000D01*
%TO.C,D2*%
X10304000Y-37880000D02*
X10460000Y-37880000D01*
X12620000Y-37880000D02*
X12776000Y-37880000D01*
X10304484Y-37880000D02*
G75*
G02*
X10460000Y-34648563I1235516J1560000D01*
G01*
X10460000Y-37360961D02*
G75*
G02*
X10460000Y-35279039I1080000J1040961D01*
G01*
X12620000Y-34648563D02*
G75*
G02*
X12775516Y-37880000I-1080000J-1671437D01*
G01*
X12620000Y-35279039D02*
G75*
G02*
X12620000Y-37360961I-1080000J-1040961D01*
G01*
%TO.C,R14*%
X56450000Y-31240000D02*
X59060000Y-31240000D01*
X56450000Y-31240000D02*
G75*
G02*
X53710000Y-31240000I-1370000J0D01*
G01*
X53710000Y-31240000D02*
G75*
G02*
X56450000Y-31240000I1370000J0D01*
G01*
%TO.C,C2*%
X93960000Y-27000000D02*
X92420000Y-27000000D01*
X93960000Y-27040000D02*
X92420000Y-27040000D01*
X93960000Y-27080000D02*
X92421000Y-27080000D01*
X93960000Y-27120000D02*
X92423000Y-27120000D01*
X93960000Y-27160000D02*
X92425000Y-27160000D01*
X93960000Y-27200000D02*
X92428000Y-27200000D01*
X93960000Y-27240000D02*
X92431000Y-27240000D01*
X93960000Y-27280000D02*
X92435000Y-27280000D01*
X93960000Y-27320000D02*
X92440000Y-27320000D01*
X93960000Y-27360000D02*
X92445000Y-27360000D01*
X93960000Y-27400000D02*
X92451000Y-27400000D01*
X93960000Y-27440000D02*
X92457000Y-27440000D01*
X93960000Y-27480000D02*
X92464000Y-27480000D01*
X93960000Y-27520000D02*
X92472000Y-27520000D01*
X93960000Y-27560000D02*
X92481000Y-27560000D01*
X93960000Y-27600000D02*
X92490000Y-27600000D01*
X93960000Y-27640000D02*
X92499000Y-27640000D01*
X93960000Y-27680000D02*
X92510000Y-27680000D01*
X93960000Y-27720000D02*
X92521000Y-27720000D01*
X93960000Y-27760000D02*
X92533000Y-27760000D01*
X93960000Y-27800000D02*
X92545000Y-27800000D01*
X93960000Y-27840000D02*
X92558000Y-27840000D01*
X93960000Y-27880000D02*
X92572000Y-27880000D01*
X93960000Y-27920000D02*
X92587000Y-27920000D01*
X93960000Y-27960000D02*
X92602000Y-27960000D01*
X93960000Y-28000000D02*
X92618000Y-28000000D01*
X93960000Y-28040000D02*
X92635000Y-28040000D01*
X93960000Y-28080000D02*
X92653000Y-28080000D01*
X93960000Y-28120000D02*
X92671000Y-28120000D01*
X93960000Y-28160000D02*
X92691000Y-28160000D01*
X93960000Y-28200000D02*
X92711000Y-28200000D01*
X93960000Y-28240000D02*
X92732000Y-28240000D01*
X93960000Y-28280000D02*
X92754000Y-28280000D01*
X93960000Y-28320000D02*
X92777000Y-28320000D01*
X93960000Y-28360000D02*
X92801000Y-28360000D01*
X93960000Y-28400000D02*
X92825000Y-28400000D01*
X93960000Y-28440000D02*
X92851000Y-28440000D01*
X93960000Y-28480000D02*
X92878000Y-28480000D01*
X93960000Y-28520000D02*
X92906000Y-28520000D01*
X93960000Y-28560000D02*
X92935000Y-28560000D01*
X93960000Y-28600000D02*
X92965000Y-28600000D01*
X93960000Y-28640000D02*
X92997000Y-28640000D01*
X93960000Y-28680000D02*
X93030000Y-28680000D01*
X93960000Y-28720000D02*
X93064000Y-28720000D01*
X93960000Y-28760000D02*
X93099000Y-28760000D01*
X93960000Y-28800000D02*
X93136000Y-28800000D01*
X93960000Y-28840000D02*
X93175000Y-28840000D01*
X93960000Y-28880000D02*
X93215000Y-28880000D01*
X93960000Y-28920000D02*
X93257000Y-28920000D01*
X93960000Y-28960000D02*
X93301000Y-28960000D01*
X93960000Y-29000000D02*
X93348000Y-29000000D01*
X95283000Y-29600000D02*
X94717000Y-29600000D01*
X95517000Y-29560000D02*
X94483000Y-29560000D01*
X95677000Y-29520000D02*
X94323000Y-29520000D01*
X95805000Y-29480000D02*
X94195000Y-29480000D01*
X95914000Y-29440000D02*
X94086000Y-29440000D01*
X96011000Y-29400000D02*
X93989000Y-29400000D01*
X96098000Y-29360000D02*
X93902000Y-29360000D01*
X96177000Y-29320000D02*
X93823000Y-29320000D01*
X96251000Y-29280000D02*
X93749000Y-29280000D01*
X96319000Y-29240000D02*
X93681000Y-29240000D01*
X96383000Y-29200000D02*
X93617000Y-29200000D01*
X96443000Y-29160000D02*
X93557000Y-29160000D01*
X96475000Y-24195225D02*
X96475000Y-24695225D01*
X96499000Y-29120000D02*
X93501000Y-29120000D01*
X96553000Y-29080000D02*
X93447000Y-29080000D01*
X96604000Y-29040000D02*
X93396000Y-29040000D01*
X96652000Y-29000000D02*
X96040000Y-29000000D01*
X96699000Y-28960000D02*
X96040000Y-28960000D01*
X96725000Y-24445225D02*
X96225000Y-24445225D01*
X96743000Y-28920000D02*
X96040000Y-28920000D01*
X96785000Y-28880000D02*
X96040000Y-28880000D01*
X96825000Y-28840000D02*
X96040000Y-28840000D01*
X96864000Y-28800000D02*
X96040000Y-28800000D01*
X96901000Y-28760000D02*
X96040000Y-28760000D01*
X96936000Y-28720000D02*
X96040000Y-28720000D01*
X96970000Y-28680000D02*
X96040000Y-28680000D01*
X97003000Y-28640000D02*
X96040000Y-28640000D01*
X97035000Y-28600000D02*
X96040000Y-28600000D01*
X97065000Y-28560000D02*
X96040000Y-28560000D01*
X97094000Y-28520000D02*
X96040000Y-28520000D01*
X97122000Y-28480000D02*
X96040000Y-28480000D01*
X97149000Y-28440000D02*
X96040000Y-28440000D01*
X97175000Y-28400000D02*
X96040000Y-28400000D01*
X97199000Y-28360000D02*
X96040000Y-28360000D01*
X97223000Y-28320000D02*
X96040000Y-28320000D01*
X97246000Y-28280000D02*
X96040000Y-28280000D01*
X97268000Y-28240000D02*
X96040000Y-28240000D01*
X97289000Y-28200000D02*
X96040000Y-28200000D01*
X97309000Y-28160000D02*
X96040000Y-28160000D01*
X97329000Y-28120000D02*
X96040000Y-28120000D01*
X97347000Y-28080000D02*
X96040000Y-28080000D01*
X97365000Y-28040000D02*
X96040000Y-28040000D01*
X97382000Y-28000000D02*
X96040000Y-28000000D01*
X97398000Y-27960000D02*
X96040000Y-27960000D01*
X97413000Y-27920000D02*
X96040000Y-27920000D01*
X97428000Y-27880000D02*
X96040000Y-27880000D01*
X97442000Y-27840000D02*
X96040000Y-27840000D01*
X97455000Y-27800000D02*
X96040000Y-27800000D01*
X97467000Y-27760000D02*
X96040000Y-27760000D01*
X97479000Y-27720000D02*
X96040000Y-27720000D01*
X97490000Y-27680000D02*
X96040000Y-27680000D01*
X97501000Y-27640000D02*
X96040000Y-27640000D01*
X97510000Y-27600000D02*
X96040000Y-27600000D01*
X97519000Y-27560000D02*
X96040000Y-27560000D01*
X97528000Y-27520000D02*
X96040000Y-27520000D01*
X97536000Y-27480000D02*
X96040000Y-27480000D01*
X97543000Y-27440000D02*
X96040000Y-27440000D01*
X97549000Y-27400000D02*
X96040000Y-27400000D01*
X97555000Y-27360000D02*
X96040000Y-27360000D01*
X97560000Y-27320000D02*
X96040000Y-27320000D01*
X97565000Y-27280000D02*
X96040000Y-27280000D01*
X97569000Y-27240000D02*
X96040000Y-27240000D01*
X97572000Y-27200000D02*
X96040000Y-27200000D01*
X97575000Y-27160000D02*
X96040000Y-27160000D01*
X97577000Y-27120000D02*
X96040000Y-27120000D01*
X97579000Y-27080000D02*
X96040000Y-27080000D01*
X97580000Y-27000000D02*
X96040000Y-27000000D01*
X97580000Y-27040000D02*
X96040000Y-27040000D01*
X97620000Y-27000000D02*
G75*
G02*
X92380000Y-27000000I-2620000J0D01*
G01*
X92380000Y-27000000D02*
G75*
G02*
X97620000Y-27000000I2620000J0D01*
G01*
D13*
%TO.C,LOGO*%
G36*
X19290000Y-93354000D02*
G01*
X19328000Y-93359000D01*
X19366000Y-93369000D01*
X19403000Y-93384000D01*
X19439000Y-93403000D01*
X19475000Y-93427000D01*
X19516000Y-93464000D01*
X19550000Y-93504000D01*
X19577000Y-93548000D01*
X19597000Y-93593000D01*
X19609000Y-93641000D01*
X19613000Y-93689000D01*
X19611000Y-93738000D01*
X19601000Y-93786000D01*
X19583000Y-93833000D01*
X19558000Y-93879000D01*
X19526000Y-93921000D01*
X19486000Y-93960000D01*
X19465000Y-93977000D01*
X19442000Y-93992000D01*
X19418000Y-94005000D01*
X19394000Y-94017000D01*
X19368000Y-94026000D01*
X19343000Y-94033000D01*
X19317000Y-94038000D01*
X19291000Y-94041000D01*
X19265000Y-94042000D01*
X19239000Y-94041000D01*
X19214000Y-94037000D01*
X19190000Y-94031000D01*
X19129000Y-94006000D01*
X19075000Y-93973000D01*
X19029000Y-93932000D01*
X18992000Y-93885000D01*
X18963000Y-93833000D01*
X18943000Y-93778000D01*
X18933000Y-93721000D01*
X18933000Y-93663000D01*
X18943000Y-93605000D01*
X18963000Y-93550000D01*
X18995000Y-93498000D01*
X19037000Y-93450000D01*
X19071000Y-93422000D01*
X19105000Y-93399000D01*
X19141000Y-93381000D01*
X19178000Y-93367000D01*
X19215000Y-93358000D01*
X19252000Y-93353000D01*
X19290000Y-93354000D01*
G37*
G36*
X13816000Y-87901000D02*
G01*
X13881000Y-87928000D01*
X13941000Y-87971000D01*
X13994000Y-88030000D01*
X14008000Y-88050000D01*
X14020000Y-88072000D01*
X14030000Y-88094000D01*
X14039000Y-88118000D01*
X14046000Y-88142000D01*
X14052000Y-88166000D01*
X14056000Y-88191000D01*
X14058000Y-88216000D01*
X14058000Y-88241000D01*
X14057000Y-88266000D01*
X14054000Y-88291000D01*
X14049000Y-88315000D01*
X14041000Y-88341000D01*
X14029000Y-88368000D01*
X14015000Y-88394000D01*
X13998000Y-88419000D01*
X13979000Y-88444000D01*
X13958000Y-88467000D01*
X13935000Y-88489000D01*
X13911000Y-88509000D01*
X13886000Y-88526000D01*
X13861000Y-88541000D01*
X13835000Y-88552000D01*
X13810000Y-88561000D01*
X13790000Y-88566000D01*
X13772000Y-88570000D01*
X13756000Y-88573000D01*
X13741000Y-88575000D01*
X13728000Y-88576000D01*
X13715000Y-88576000D01*
X13701000Y-88575000D01*
X13688000Y-88573000D01*
X13673000Y-88570000D01*
X13657000Y-88566000D01*
X13640000Y-88561000D01*
X13620000Y-88555000D01*
X13584000Y-88542000D01*
X13551000Y-88526000D01*
X13519000Y-88506000D01*
X13491000Y-88484000D01*
X13465000Y-88459000D01*
X13443000Y-88432000D01*
X13423000Y-88403000D01*
X13407000Y-88371000D01*
X13394000Y-88338000D01*
X13385000Y-88304000D01*
X13379000Y-88267000D01*
X13377000Y-88230000D01*
X13386000Y-88151000D01*
X13411000Y-88081000D01*
X13448000Y-88020000D01*
X13495000Y-87970000D01*
X13552000Y-87931000D01*
X13614000Y-87904000D01*
X13680000Y-87889000D01*
X13749000Y-87888000D01*
X13816000Y-87901000D01*
G37*
G36*
X19338000Y-87893000D02*
G01*
X19402000Y-87913000D01*
X19463000Y-87946000D01*
X19518000Y-87995000D01*
X19555000Y-88041000D01*
X19582000Y-88089000D01*
X19601000Y-88139000D01*
X19612000Y-88190000D01*
X19615000Y-88242000D01*
X19609000Y-88293000D01*
X19596000Y-88342000D01*
X19575000Y-88390000D01*
X19546000Y-88434000D01*
X19510000Y-88474000D01*
X19466000Y-88510000D01*
X19416000Y-88540000D01*
X19399000Y-88548000D01*
X19381000Y-88554000D01*
X19361000Y-88560000D01*
X19341000Y-88564000D01*
X19319000Y-88568000D01*
X19297000Y-88570000D01*
X19275000Y-88571000D01*
X19253000Y-88572000D01*
X19232000Y-88571000D01*
X19211000Y-88569000D01*
X19192000Y-88566000D01*
X19173000Y-88561000D01*
X19165000Y-88559000D01*
X19157000Y-88556000D01*
X19147000Y-88551000D01*
X19138000Y-88547000D01*
X19127000Y-88541000D01*
X19117000Y-88535000D01*
X19106000Y-88529000D01*
X19096000Y-88522000D01*
X19086000Y-88515000D01*
X19076000Y-88508000D01*
X19067000Y-88501000D01*
X19058000Y-88494000D01*
X19038000Y-88476000D01*
X19019000Y-88457000D01*
X19003000Y-88438000D01*
X18988000Y-88418000D01*
X18975000Y-88397000D01*
X18964000Y-88376000D01*
X18955000Y-88354000D01*
X18948000Y-88331000D01*
X18942000Y-88308000D01*
X18938000Y-88283000D01*
X18935000Y-88257000D01*
X18934000Y-88230000D01*
X18941000Y-88156000D01*
X18962000Y-88090000D01*
X18994000Y-88031000D01*
X19037000Y-87981000D01*
X19089000Y-87941000D01*
X19146000Y-87912000D01*
X19208000Y-87893000D01*
X19273000Y-87887000D01*
X19338000Y-87893000D01*
G37*
G36*
X17295000Y-93246000D02*
G01*
X17341000Y-93251000D01*
X17376000Y-93261000D01*
X17401000Y-93278000D01*
X17419000Y-93303000D01*
X17429000Y-93337000D01*
X17435000Y-93383000D01*
X17438000Y-93442000D01*
X17438000Y-93515000D01*
X17439000Y-93605000D01*
X17444000Y-93908000D01*
X17407000Y-93950000D01*
X17371000Y-93993000D01*
X17084000Y-93997000D01*
X17032000Y-93997000D01*
X16986000Y-93997000D01*
X16945000Y-93997000D01*
X16909000Y-93997000D01*
X16878000Y-93996000D01*
X16851000Y-93995000D01*
X16828000Y-93994000D01*
X16809000Y-93992000D01*
X16793000Y-93990000D01*
X16780000Y-93987000D01*
X16770000Y-93984000D01*
X16762000Y-93980000D01*
X16747000Y-93971000D01*
X16733000Y-93960000D01*
X16722000Y-93948000D01*
X16713000Y-93934000D01*
X16706000Y-93916000D01*
X16700000Y-93893000D01*
X16695000Y-93866000D01*
X16692000Y-93832000D01*
X16690000Y-93791000D01*
X16688000Y-93743000D01*
X16688000Y-93685000D01*
X16687000Y-93618000D01*
X16687000Y-93552000D01*
X16688000Y-93495000D01*
X16690000Y-93445000D01*
X16692000Y-93403000D01*
X16695000Y-93368000D01*
X16699000Y-93338000D01*
X16705000Y-93314000D01*
X16712000Y-93295000D01*
X16720000Y-93280000D01*
X16730000Y-93269000D01*
X16741000Y-93260000D01*
X16754000Y-93254000D01*
X16771000Y-93252000D01*
X16787000Y-93250000D01*
X16806000Y-93249000D01*
X16830000Y-93248000D01*
X16857000Y-93248000D01*
X16887000Y-93247000D01*
X16920000Y-93246000D01*
X16956000Y-93246000D01*
X16993000Y-93245000D01*
X17032000Y-93245000D01*
X17071000Y-93245000D01*
X17162000Y-93244000D01*
X17235000Y-93244000D01*
X17295000Y-93246000D01*
G37*
G36*
X18134000Y-93245000D02*
G01*
X18198000Y-93245000D01*
X18253000Y-93245000D01*
X18299000Y-93246000D01*
X18336000Y-93246000D01*
X18367000Y-93248000D01*
X18392000Y-93249000D01*
X18412000Y-93252000D01*
X18428000Y-93255000D01*
X18441000Y-93259000D01*
X18452000Y-93263000D01*
X18461000Y-93269000D01*
X18470000Y-93276000D01*
X18509000Y-93306000D01*
X18509000Y-93615000D01*
X18509000Y-93924000D01*
X18463000Y-93962000D01*
X18453000Y-93971000D01*
X18443000Y-93978000D01*
X18433000Y-93984000D01*
X18421000Y-93989000D01*
X18407000Y-93993000D01*
X18390000Y-93995000D01*
X18367000Y-93997000D01*
X18340000Y-93999000D01*
X18305000Y-93999000D01*
X18262000Y-94000000D01*
X18210000Y-93999000D01*
X18149000Y-93999000D01*
X18112000Y-93999000D01*
X18076000Y-93999000D01*
X18042000Y-93998000D01*
X18010000Y-93998000D01*
X17980000Y-93997000D01*
X17952000Y-93996000D01*
X17927000Y-93995000D01*
X17905000Y-93994000D01*
X17887000Y-93993000D01*
X17873000Y-93992000D01*
X17857000Y-93990000D01*
X17850000Y-93987000D01*
X17841000Y-93982000D01*
X17832000Y-93975000D01*
X17821000Y-93968000D01*
X17811000Y-93960000D01*
X17802000Y-93951000D01*
X17794000Y-93944000D01*
X17788000Y-93937000D01*
X17783000Y-93928000D01*
X17778000Y-93917000D01*
X17775000Y-93903000D01*
X17773000Y-93884000D01*
X17771000Y-93860000D01*
X17770000Y-93828000D01*
X17769000Y-93789000D01*
X17768000Y-93742000D01*
X17768000Y-93684000D01*
X17768000Y-93615000D01*
X17768000Y-93523000D01*
X17768000Y-93448000D01*
X17769000Y-93387000D01*
X17775000Y-93340000D01*
X17785000Y-93305000D01*
X17802000Y-93279000D01*
X17827000Y-93262000D01*
X17862000Y-93251000D01*
X17909000Y-93246000D01*
X17969000Y-93244000D01*
X18043000Y-93244000D01*
X18134000Y-93245000D01*
G37*
G36*
X13738000Y-93357000D02*
G01*
X13774000Y-93362000D01*
X13810000Y-93370000D01*
X13844000Y-93381000D01*
X13877000Y-93395000D01*
X13908000Y-93412000D01*
X13936000Y-93433000D01*
X13962000Y-93456000D01*
X13984000Y-93483000D01*
X14004000Y-93512000D01*
X14020000Y-93543000D01*
X14034000Y-93576000D01*
X14044000Y-93610000D01*
X14051000Y-93645000D01*
X14055000Y-93680000D01*
X14056000Y-93715000D01*
X14053000Y-93750000D01*
X14047000Y-93784000D01*
X14037000Y-93816000D01*
X14023000Y-93847000D01*
X14011000Y-93867000D01*
X13998000Y-93887000D01*
X13983000Y-93907000D01*
X13966000Y-93926000D01*
X13948000Y-93944000D01*
X13928000Y-93961000D01*
X13908000Y-93976000D01*
X13888000Y-93991000D01*
X13867000Y-94003000D01*
X13846000Y-94014000D01*
X13826000Y-94022000D01*
X13805000Y-94028000D01*
X13787000Y-94033000D01*
X13770000Y-94036000D01*
X13755000Y-94039000D01*
X13740000Y-94041000D01*
X13725000Y-94042000D01*
X13711000Y-94042000D01*
X13697000Y-94042000D01*
X13683000Y-94041000D01*
X13668000Y-94039000D01*
X13652000Y-94036000D01*
X13636000Y-94032000D01*
X13618000Y-94027000D01*
X13600000Y-94021000D01*
X13581000Y-94013000D01*
X13562000Y-94002000D01*
X13542000Y-93990000D01*
X13523000Y-93976000D01*
X13503000Y-93960000D01*
X13485000Y-93944000D01*
X13467000Y-93926000D01*
X13451000Y-93908000D01*
X13437000Y-93890000D01*
X13424000Y-93872000D01*
X13414000Y-93854000D01*
X13396000Y-93811000D01*
X13384000Y-93767000D01*
X13378000Y-93722000D01*
X13378000Y-93678000D01*
X13383000Y-93634000D01*
X13394000Y-93591000D01*
X13411000Y-93550000D01*
X13432000Y-93512000D01*
X13459000Y-93476000D01*
X13490000Y-93443000D01*
X13526000Y-93414000D01*
X13567000Y-93389000D01*
X13598000Y-93375000D01*
X13631000Y-93365000D01*
X13666000Y-93359000D01*
X13702000Y-93356000D01*
X13738000Y-93357000D01*
G37*
G36*
X15986000Y-93245000D02*
G01*
X16050000Y-93245000D01*
X16105000Y-93245000D01*
X16150000Y-93246000D01*
X16188000Y-93246000D01*
X16219000Y-93248000D01*
X16244000Y-93249000D01*
X16264000Y-93252000D01*
X16280000Y-93255000D01*
X16293000Y-93259000D01*
X16303000Y-93263000D01*
X16313000Y-93269000D01*
X16322000Y-93276000D01*
X16361000Y-93306000D01*
X16361000Y-93608000D01*
X16361000Y-93649000D01*
X16360000Y-93688000D01*
X16360000Y-93727000D01*
X16360000Y-93763000D01*
X16359000Y-93797000D01*
X16358000Y-93828000D01*
X16357000Y-93855000D01*
X16356000Y-93880000D01*
X16355000Y-93900000D01*
X16354000Y-93916000D01*
X16353000Y-93927000D01*
X16345000Y-93946000D01*
X16337000Y-93958000D01*
X16325000Y-93967000D01*
X16310000Y-93975000D01*
X16291000Y-93982000D01*
X16267000Y-93988000D01*
X16238000Y-93992000D01*
X16202000Y-93995000D01*
X16160000Y-93998000D01*
X16111000Y-93999000D01*
X16053000Y-94000000D01*
X15987000Y-94000000D01*
X15947000Y-94000000D01*
X15908000Y-93999000D01*
X15872000Y-93999000D01*
X15839000Y-93998000D01*
X15809000Y-93997000D01*
X15781000Y-93995000D01*
X15757000Y-93994000D01*
X15736000Y-93992000D01*
X15718000Y-93990000D01*
X15704000Y-93988000D01*
X15687000Y-93983000D01*
X15672000Y-93975000D01*
X15660000Y-93966000D01*
X15649000Y-93956000D01*
X15641000Y-93943000D01*
X15634000Y-93927000D01*
X15629000Y-93905000D01*
X15626000Y-93878000D01*
X15623000Y-93844000D01*
X15621000Y-93802000D01*
X15621000Y-93750000D01*
X15620000Y-93688000D01*
X15620000Y-93615000D01*
X15620000Y-93523000D01*
X15620000Y-93448000D01*
X15621000Y-93387000D01*
X15627000Y-93340000D01*
X15637000Y-93305000D01*
X15654000Y-93279000D01*
X15679000Y-93262000D01*
X15714000Y-93251000D01*
X15761000Y-93246000D01*
X15821000Y-93244000D01*
X15895000Y-93244000D01*
X15986000Y-93245000D01*
G37*
G36*
X25667000Y-88130000D02*
G01*
X25731000Y-88140000D01*
X25795000Y-88156000D01*
X25859000Y-88178000D01*
X25909000Y-88199000D01*
X25955000Y-88224000D01*
X25999000Y-88253000D01*
X26038000Y-88285000D01*
X26075000Y-88321000D01*
X26107000Y-88360000D01*
X26137000Y-88402000D01*
X26162000Y-88448000D01*
X26184000Y-88496000D01*
X26202000Y-88548000D01*
X26216000Y-88603000D01*
X26226000Y-88660000D01*
X26233000Y-88725000D01*
X26234000Y-88788000D01*
X26229000Y-88850000D01*
X26219000Y-88910000D01*
X26203000Y-88968000D01*
X26182000Y-89023000D01*
X26157000Y-89076000D01*
X26126000Y-89126000D01*
X26091000Y-89173000D01*
X26051000Y-89216000D01*
X26006000Y-89255000D01*
X25957000Y-89291000D01*
X25920000Y-89313000D01*
X25882000Y-89333000D01*
X25843000Y-89350000D01*
X25804000Y-89365000D01*
X25764000Y-89378000D01*
X25723000Y-89387000D01*
X25682000Y-89395000D01*
X25640000Y-89399000D01*
X25599000Y-89401000D01*
X25557000Y-89401000D01*
X25515000Y-89397000D01*
X25473000Y-89391000D01*
X25443000Y-89385000D01*
X25413000Y-89378000D01*
X25384000Y-89369000D01*
X25356000Y-89359000D01*
X25328000Y-89347000D01*
X25301000Y-89334000D01*
X25274000Y-89319000D01*
X25248000Y-89303000D01*
X25222000Y-89285000D01*
X25197000Y-89266000D01*
X25172000Y-89245000D01*
X25147000Y-89223000D01*
X25088000Y-89157000D01*
X25040000Y-89085000D01*
X25002000Y-89008000D01*
X24976000Y-88926000D01*
X24960000Y-88843000D01*
X24956000Y-88757000D01*
X24962000Y-88673000D01*
X24979000Y-88589000D01*
X25007000Y-88508000D01*
X25046000Y-88432000D01*
X25095000Y-88361000D01*
X25156000Y-88297000D01*
X25205000Y-88256000D01*
X25256000Y-88221000D01*
X25310000Y-88191000D01*
X25366000Y-88167000D01*
X25423000Y-88148000D01*
X25482000Y-88135000D01*
X25543000Y-88128000D01*
X25605000Y-88126000D01*
X25667000Y-88130000D01*
G37*
G36*
X15091000Y-93245000D02*
G01*
X15151000Y-93247000D01*
X15198000Y-93252000D01*
X15233000Y-93263000D01*
X15259000Y-93280000D01*
X15276000Y-93306000D01*
X15287000Y-93341000D01*
X15292000Y-93388000D01*
X15294000Y-93448000D01*
X15294000Y-93523000D01*
X15294000Y-93614000D01*
X15294000Y-93681000D01*
X15294000Y-93737000D01*
X15293000Y-93784000D01*
X15293000Y-93822000D01*
X15291000Y-93852000D01*
X15289000Y-93877000D01*
X15287000Y-93896000D01*
X15283000Y-93910000D01*
X15279000Y-93922000D01*
X15273000Y-93932000D01*
X15266000Y-93942000D01*
X15258000Y-93951000D01*
X15223000Y-93993000D01*
X14936000Y-93997000D01*
X14884000Y-93997000D01*
X14838000Y-93997000D01*
X14797000Y-93997000D01*
X14761000Y-93997000D01*
X14730000Y-93996000D01*
X14703000Y-93995000D01*
X14680000Y-93994000D01*
X14661000Y-93992000D01*
X14645000Y-93990000D01*
X14632000Y-93987000D01*
X14622000Y-93984000D01*
X14614000Y-93980000D01*
X14599000Y-93971000D01*
X14585000Y-93960000D01*
X14574000Y-93948000D01*
X14565000Y-93934000D01*
X14557000Y-93916000D01*
X14552000Y-93893000D01*
X14547000Y-93866000D01*
X14544000Y-93832000D01*
X14542000Y-93791000D01*
X14540000Y-93743000D01*
X14539000Y-93685000D01*
X14539000Y-93618000D01*
X14539000Y-93552000D01*
X14540000Y-93495000D01*
X14541000Y-93445000D01*
X14544000Y-93403000D01*
X14547000Y-93368000D01*
X14551000Y-93338000D01*
X14557000Y-93314000D01*
X14563000Y-93295000D01*
X14572000Y-93280000D01*
X14581000Y-93269000D01*
X14593000Y-93260000D01*
X14606000Y-93254000D01*
X14623000Y-93252000D01*
X14639000Y-93250000D01*
X14659000Y-93249000D01*
X14682000Y-93248000D01*
X14710000Y-93248000D01*
X14740000Y-93247000D01*
X14773000Y-93246000D01*
X14809000Y-93246000D01*
X14846000Y-93245000D01*
X14885000Y-93245000D01*
X14926000Y-93245000D01*
X15016000Y-93244000D01*
X15091000Y-93245000D01*
G37*
G36*
X25716000Y-89716000D02*
G01*
X25796000Y-89737000D01*
X25872000Y-89767000D01*
X25942000Y-89806000D01*
X26005000Y-89854000D01*
X26061000Y-89909000D01*
X26106000Y-89973000D01*
X26141000Y-90044000D01*
X26173000Y-90126000D01*
X26171000Y-91528000D01*
X26171000Y-91863000D01*
X26171000Y-92143000D01*
X26170000Y-92374000D01*
X26168000Y-92560000D01*
X26166000Y-92707000D01*
X26162000Y-92822000D01*
X26158000Y-92908000D01*
X26152000Y-92972000D01*
X26144000Y-93020000D01*
X26134000Y-93055000D01*
X26122000Y-93085000D01*
X26108000Y-93114000D01*
X26089000Y-93146000D01*
X26066000Y-93177000D01*
X26040000Y-93206000D01*
X26011000Y-93235000D01*
X25978000Y-93261000D01*
X25943000Y-93285000D01*
X25906000Y-93307000D01*
X25867000Y-93327000D01*
X25826000Y-93344000D01*
X25784000Y-93359000D01*
X25742000Y-93370000D01*
X25698000Y-93378000D01*
X25672000Y-93382000D01*
X25648000Y-93385000D01*
X25628000Y-93387000D01*
X25610000Y-93389000D01*
X25593000Y-93390000D01*
X25577000Y-93390000D01*
X25561000Y-93390000D01*
X25545000Y-93389000D01*
X25528000Y-93387000D01*
X25509000Y-93384000D01*
X25487000Y-93381000D01*
X25463000Y-93377000D01*
X25420000Y-93368000D01*
X25377000Y-93355000D01*
X25335000Y-93339000D01*
X25294000Y-93319000D01*
X25256000Y-93297000D01*
X25219000Y-93272000D01*
X25184000Y-93244000D01*
X25152000Y-93214000D01*
X25122000Y-93183000D01*
X25096000Y-93149000D01*
X25074000Y-93114000D01*
X25055000Y-93077000D01*
X25020000Y-93000000D01*
X25020000Y-91541000D01*
X25020000Y-90082000D01*
X25053000Y-90014000D01*
X25068000Y-89987000D01*
X25083000Y-89961000D01*
X25099000Y-89936000D01*
X25116000Y-89913000D01*
X25134000Y-89892000D01*
X25154000Y-89871000D01*
X25175000Y-89852000D01*
X25197000Y-89834000D01*
X25220000Y-89816000D01*
X25245000Y-89800000D01*
X25272000Y-89785000D01*
X25301000Y-89770000D01*
X25382000Y-89737000D01*
X25465000Y-89715000D01*
X25549000Y-89705000D01*
X25634000Y-89705000D01*
X25716000Y-89716000D01*
G37*
G36*
X35184000Y-88142000D02*
G01*
X35250000Y-88153000D01*
X35313000Y-88171000D01*
X35372000Y-88195000D01*
X35428000Y-88224000D01*
X35478000Y-88258000D01*
X35524000Y-88297000D01*
X35565000Y-88342000D01*
X35599000Y-88390000D01*
X35628000Y-88443000D01*
X35649000Y-88499000D01*
X35656000Y-88523000D01*
X35662000Y-88552000D01*
X35666000Y-88593000D01*
X35670000Y-88654000D01*
X35673000Y-88742000D01*
X35675000Y-88865000D01*
X35677000Y-89030000D01*
X35678000Y-89245000D01*
X35679000Y-89517000D01*
X35679000Y-89853000D01*
X35679000Y-90262000D01*
X35679000Y-90749000D01*
X35679000Y-91261000D01*
X35679000Y-91689000D01*
X35678000Y-92041000D01*
X35677000Y-92325000D01*
X35675000Y-92549000D01*
X35672000Y-92722000D01*
X35667000Y-92850000D01*
X35661000Y-92942000D01*
X35654000Y-93007000D01*
X35644000Y-93051000D01*
X35633000Y-93084000D01*
X35619000Y-93113000D01*
X35607000Y-93134000D01*
X35591000Y-93156000D01*
X35573000Y-93178000D01*
X35551000Y-93201000D01*
X35528000Y-93224000D01*
X35503000Y-93247000D01*
X35476000Y-93268000D01*
X35450000Y-93289000D01*
X35423000Y-93307000D01*
X35396000Y-93323000D01*
X35371000Y-93337000D01*
X35346000Y-93347000D01*
X35321000Y-93355000D01*
X35293000Y-93363000D01*
X35262000Y-93369000D01*
X35229000Y-93375000D01*
X35194000Y-93379000D01*
X35159000Y-93383000D01*
X35123000Y-93385000D01*
X35088000Y-93386000D01*
X35053000Y-93386000D01*
X35021000Y-93385000D01*
X34990000Y-93382000D01*
X34962000Y-93378000D01*
X34935000Y-93372000D01*
X34906000Y-93364000D01*
X34876000Y-93354000D01*
X34847000Y-93342000D01*
X34817000Y-93329000D01*
X34788000Y-93314000D01*
X34760000Y-93298000D01*
X34733000Y-93282000D01*
X34709000Y-93264000D01*
X34686000Y-93247000D01*
X34666000Y-93229000D01*
X34648000Y-93211000D01*
X34641000Y-93202000D01*
X34633000Y-93191000D01*
X34624000Y-93180000D01*
X34616000Y-93168000D01*
X34607000Y-93156000D01*
X34599000Y-93143000D01*
X34590000Y-93130000D01*
X34582000Y-93117000D01*
X34575000Y-93104000D01*
X34568000Y-93091000D01*
X34561000Y-93079000D01*
X34555000Y-93067000D01*
X34516000Y-92986000D01*
X34516000Y-90763000D01*
X34516000Y-88541000D01*
X34559000Y-88448000D01*
X34583000Y-88403000D01*
X34609000Y-88362000D01*
X34639000Y-88324000D01*
X34673000Y-88289000D01*
X34710000Y-88257000D01*
X34749000Y-88229000D01*
X34792000Y-88204000D01*
X34838000Y-88183000D01*
X34886000Y-88166000D01*
X34936000Y-88153000D01*
X34989000Y-88143000D01*
X35045000Y-88137000D01*
X35115000Y-88136000D01*
X35184000Y-88142000D01*
G37*
G36*
X23034000Y-89584000D02*
G01*
X23124000Y-89589000D01*
X23214000Y-89599000D01*
X23303000Y-89612000D01*
X23390000Y-89629000D01*
X23482000Y-89653000D01*
X23573000Y-89682000D01*
X23663000Y-89716000D01*
X23751000Y-89756000D01*
X23837000Y-89801000D01*
X23920000Y-89850000D01*
X24001000Y-89904000D01*
X24078000Y-89961000D01*
X24151000Y-90023000D01*
X24219000Y-90087000D01*
X24283000Y-90155000D01*
X24341000Y-90226000D01*
X24378000Y-90276000D01*
X24413000Y-90330000D01*
X24446000Y-90387000D01*
X24478000Y-90446000D01*
X24508000Y-90508000D01*
X24536000Y-90571000D01*
X24561000Y-90636000D01*
X24584000Y-90703000D01*
X24605000Y-90770000D01*
X24623000Y-90837000D01*
X24638000Y-90905000D01*
X24650000Y-90972000D01*
X24655000Y-91004000D01*
X24658000Y-91041000D01*
X24662000Y-91083000D01*
X24664000Y-91133000D01*
X24666000Y-91193000D01*
X24668000Y-91264000D01*
X24669000Y-91350000D01*
X24670000Y-91452000D01*
X24670000Y-91572000D01*
X24670000Y-91712000D01*
X24670000Y-91874000D01*
X24669000Y-92060000D01*
X24665000Y-93000000D01*
X24621000Y-93086000D01*
X24599000Y-93125000D01*
X24574000Y-93162000D01*
X24546000Y-93196000D01*
X24515000Y-93228000D01*
X24482000Y-93257000D01*
X24446000Y-93284000D01*
X24407000Y-93307000D01*
X24367000Y-93328000D01*
X24324000Y-93345000D01*
X24280000Y-93360000D01*
X24233000Y-93371000D01*
X24186000Y-93379000D01*
X24117000Y-93384000D01*
X24049000Y-93384000D01*
X23985000Y-93378000D01*
X23922000Y-93366000D01*
X23863000Y-93348000D01*
X23807000Y-93325000D01*
X23755000Y-93297000D01*
X23707000Y-93264000D01*
X23664000Y-93226000D01*
X23625000Y-93183000D01*
X23591000Y-93136000D01*
X23563000Y-93084000D01*
X23524000Y-93000000D01*
X23516000Y-92104000D01*
X23514000Y-91901000D01*
X23513000Y-91730000D01*
X23511000Y-91589000D01*
X23510000Y-91475000D01*
X23508000Y-91384000D01*
X23505000Y-91314000D01*
X23502000Y-91260000D01*
X23499000Y-91219000D01*
X23495000Y-91189000D01*
X23489000Y-91165000D01*
X23483000Y-91146000D01*
X23476000Y-91126000D01*
X23449000Y-91068000D01*
X23417000Y-91015000D01*
X23382000Y-90966000D01*
X23342000Y-90923000D01*
X23299000Y-90885000D01*
X23252000Y-90852000D01*
X23201000Y-90825000D01*
X23147000Y-90804000D01*
X23090000Y-90788000D01*
X23030000Y-90777000D01*
X22967000Y-90773000D01*
X22902000Y-90775000D01*
X22842000Y-90781000D01*
X22785000Y-90793000D01*
X22731000Y-90809000D01*
X22681000Y-90830000D01*
X22634000Y-90855000D01*
X22590000Y-90885000D01*
X22550000Y-90920000D01*
X22513000Y-90959000D01*
X22480000Y-91002000D01*
X22450000Y-91051000D01*
X22424000Y-91103000D01*
X22401000Y-91160000D01*
X22398000Y-91174000D01*
X22395000Y-91199000D01*
X22393000Y-91235000D01*
X22391000Y-91283000D01*
X22388000Y-91342000D01*
X22386000Y-91413000D01*
X22384000Y-91496000D01*
X22382000Y-91592000D01*
X22381000Y-91699000D01*
X22379000Y-91819000D01*
X22378000Y-91951000D01*
X22376000Y-92097000D01*
X22368000Y-92986000D01*
X22329000Y-93069000D01*
X22315000Y-93097000D01*
X22300000Y-93123000D01*
X22284000Y-93148000D01*
X22267000Y-93172000D01*
X22249000Y-93195000D01*
X22230000Y-93216000D01*
X22210000Y-93236000D01*
X22188000Y-93255000D01*
X22166000Y-93273000D01*
X22142000Y-93289000D01*
X22118000Y-93304000D01*
X22092000Y-93318000D01*
X22073000Y-93327000D01*
X22055000Y-93335000D01*
X22038000Y-93342000D01*
X22021000Y-93348000D01*
X22004000Y-93354000D01*
X21985000Y-93359000D01*
X21966000Y-93363000D01*
X21944000Y-93368000D01*
X21920000Y-93372000D01*
X21893000Y-93376000D01*
X21862000Y-93379000D01*
X21827000Y-93384000D01*
X21814000Y-93384000D01*
X21805000Y-93384000D01*
X21795000Y-93384000D01*
X21784000Y-93384000D01*
X21772000Y-93383000D01*
X21759000Y-93383000D01*
X21746000Y-93382000D01*
X21732000Y-93381000D01*
X21719000Y-93380000D01*
X21705000Y-93378000D01*
X21691000Y-93377000D01*
X21659000Y-93373000D01*
X21628000Y-93367000D01*
X21598000Y-93359000D01*
X21569000Y-93350000D01*
X21540000Y-93340000D01*
X21513000Y-93328000D01*
X21486000Y-93314000D01*
X21460000Y-93299000D01*
X21435000Y-93283000D01*
X21411000Y-93265000D01*
X21388000Y-93245000D01*
X21366000Y-93224000D01*
X21346000Y-93204000D01*
X21327000Y-93183000D01*
X21310000Y-93161000D01*
X21295000Y-93139000D01*
X21281000Y-93117000D01*
X21269000Y-93094000D01*
X21257000Y-93071000D01*
X21248000Y-93047000D01*
X21239000Y-93021000D01*
X21231000Y-92995000D01*
X21225000Y-92968000D01*
X21220000Y-92939000D01*
X21215000Y-92884000D01*
X21212000Y-92781000D01*
X21209000Y-92638000D01*
X21207000Y-92465000D01*
X21206000Y-92272000D01*
X21206000Y-92068000D01*
X21206000Y-91861000D01*
X21207000Y-91661000D01*
X21209000Y-91477000D01*
X21212000Y-91318000D01*
X21215000Y-91194000D01*
X21220000Y-91114000D01*
X21230000Y-91014000D01*
X21245000Y-90918000D01*
X21265000Y-90825000D01*
X21289000Y-90734000D01*
X21318000Y-90647000D01*
X21351000Y-90563000D01*
X21390000Y-90481000D01*
X21432000Y-90402000D01*
X21480000Y-90326000D01*
X21533000Y-90252000D01*
X21590000Y-90180000D01*
X21652000Y-90110000D01*
X21701000Y-90061000D01*
X21751000Y-90014000D01*
X21802000Y-89970000D01*
X21854000Y-89928000D01*
X21908000Y-89889000D01*
X21963000Y-89853000D01*
X22020000Y-89818000D01*
X22079000Y-89786000D01*
X22140000Y-89756000D01*
X22204000Y-89728000D01*
X22270000Y-89701000D01*
X22339000Y-89677000D01*
X22418000Y-89652000D01*
X22501000Y-89631000D01*
X22586000Y-89614000D01*
X22673000Y-89600000D01*
X22762000Y-89590000D01*
X22852000Y-89584000D01*
X22943000Y-89582000D01*
X23034000Y-89584000D01*
G37*
G36*
X30316000Y-91524000D02*
G01*
X30310000Y-91678000D01*
X30293000Y-91830000D01*
X30263000Y-91979000D01*
X30223000Y-92125000D01*
X30172000Y-92268000D01*
X30110000Y-92406000D01*
X30039000Y-92539000D01*
X29957000Y-92665000D01*
X29867000Y-92785000D01*
X29767000Y-92898000D01*
X29658000Y-93002000D01*
X29542000Y-93098000D01*
X29486000Y-93138000D01*
X29426000Y-93177000D01*
X29364000Y-93214000D01*
X29298000Y-93249000D01*
X29230000Y-93283000D01*
X29160000Y-93314000D01*
X29089000Y-93343000D01*
X29018000Y-93370000D01*
X28946000Y-93394000D01*
X28874000Y-93414000D01*
X28803000Y-93432000D01*
X28734000Y-93446000D01*
X28684000Y-93453000D01*
X28630000Y-93460000D01*
X28573000Y-93465000D01*
X28512000Y-93470000D01*
X28449000Y-93473000D01*
X28386000Y-93475000D01*
X28322000Y-93475000D01*
X28260000Y-93475000D01*
X28200000Y-93473000D01*
X28143000Y-93470000D01*
X28091000Y-93466000D01*
X28044000Y-93460000D01*
X27877000Y-93429000D01*
X27717000Y-93384000D01*
X27565000Y-93328000D01*
X27420000Y-93258000D01*
X27285000Y-93178000D01*
X27159000Y-93086000D01*
X27043000Y-92984000D01*
X26938000Y-92872000D01*
X26844000Y-92750000D01*
X26762000Y-92619000D01*
X26693000Y-92480000D01*
X26638000Y-92334000D01*
X26618000Y-92270000D01*
X26601000Y-92212000D01*
X26587000Y-92152000D01*
X26576000Y-92085000D01*
X26567000Y-92003000D01*
X26561000Y-91901000D01*
X26556000Y-91771000D01*
X26552000Y-91609000D01*
X26550360Y-91498000D01*
X27676000Y-91498000D01*
X27676000Y-91525000D01*
X27676000Y-91556000D01*
X27678000Y-91629000D01*
X27686000Y-91698000D01*
X27698000Y-91763000D01*
X27714000Y-91825000D01*
X27736000Y-91882000D01*
X27762000Y-91936000D01*
X27793000Y-91986000D01*
X27828000Y-92032000D01*
X27868000Y-92074000D01*
X27913000Y-92112000D01*
X27962000Y-92146000D01*
X28017000Y-92177000D01*
X28054000Y-92194000D01*
X28094000Y-92209000D01*
X28136000Y-92221000D01*
X28181000Y-92232000D01*
X28226000Y-92240000D01*
X28273000Y-92246000D01*
X28320000Y-92249000D01*
X28368000Y-92250000D01*
X28415000Y-92249000D01*
X28462000Y-92245000D01*
X28508000Y-92238000D01*
X28552000Y-92229000D01*
X28614000Y-92212000D01*
X28673000Y-92188000D01*
X28729000Y-92160000D01*
X28782000Y-92126000D01*
X28832000Y-92088000D01*
X28878000Y-92046000D01*
X28920000Y-92000000D01*
X28957000Y-91950000D01*
X28990000Y-91897000D01*
X29017000Y-91841000D01*
X29039000Y-91783000D01*
X29055000Y-91722000D01*
X29060000Y-91693000D01*
X29065000Y-91662000D01*
X29068000Y-91628000D01*
X29070000Y-91592000D01*
X29071000Y-91555000D01*
X29071000Y-91518000D01*
X29070000Y-91481000D01*
X29068000Y-91445000D01*
X29065000Y-91410000D01*
X29062000Y-91378000D01*
X29057000Y-91349000D01*
X29051000Y-91324000D01*
X29027000Y-91250000D01*
X28996000Y-91182000D01*
X28958000Y-91118000D01*
X28914000Y-91061000D01*
X28863000Y-91009000D01*
X28807000Y-90963000D01*
X28745000Y-90923000D01*
X28678000Y-90890000D01*
X28607000Y-90864000D01*
X28531000Y-90845000D01*
X28451000Y-90834000D01*
X28368000Y-90830000D01*
X28290000Y-90833000D01*
X28215000Y-90843000D01*
X28145000Y-90860000D01*
X28079000Y-90883000D01*
X28017000Y-90912000D01*
X27960000Y-90948000D01*
X27907000Y-90990000D01*
X27859000Y-91038000D01*
X27815000Y-91092000D01*
X27776000Y-91152000D01*
X27743000Y-91218000D01*
X27714000Y-91290000D01*
X27706000Y-91312000D01*
X27700000Y-91333000D01*
X27694000Y-91352000D01*
X27690000Y-91371000D01*
X27686000Y-91390000D01*
X27683000Y-91409000D01*
X27680000Y-91429000D01*
X27678000Y-91450000D01*
X27677000Y-91473000D01*
X27676000Y-91498000D01*
X26550360Y-91498000D01*
X26549000Y-91406000D01*
X26547000Y-91158000D01*
X26546000Y-90857000D01*
X26544000Y-90497000D01*
X26544000Y-90300000D01*
X26543000Y-90106000D01*
X26543000Y-89917000D01*
X26543000Y-89735000D01*
X26543000Y-89563000D01*
X26544000Y-89401000D01*
X26545000Y-89253000D01*
X26546000Y-89121000D01*
X26547000Y-89005000D01*
X26548000Y-88910000D01*
X26549000Y-88836000D01*
X26551000Y-88786000D01*
X26554000Y-88729000D01*
X26556000Y-88680000D01*
X26559000Y-88638000D01*
X26561000Y-88602000D01*
X26564000Y-88571000D01*
X26567000Y-88545000D01*
X26571000Y-88522000D01*
X26575000Y-88503000D01*
X26580000Y-88485000D01*
X26585000Y-88469000D01*
X26591000Y-88453000D01*
X26599000Y-88437000D01*
X26632000Y-88380000D01*
X26672000Y-88328000D01*
X26719000Y-88281000D01*
X26772000Y-88240000D01*
X26830000Y-88206000D01*
X26893000Y-88178000D01*
X26960000Y-88157000D01*
X27030000Y-88143000D01*
X27102000Y-88136000D01*
X27175000Y-88137000D01*
X27250000Y-88146000D01*
X27324000Y-88163000D01*
X27347000Y-88170000D01*
X27371000Y-88180000D01*
X27396000Y-88192000D01*
X27421000Y-88205000D01*
X27446000Y-88220000D01*
X27470000Y-88236000D01*
X27494000Y-88253000D01*
X27517000Y-88271000D01*
X27538000Y-88289000D01*
X27558000Y-88308000D01*
X27576000Y-88326000D01*
X27591000Y-88345000D01*
X27614000Y-88377000D01*
X27634000Y-88406000D01*
X27650000Y-88435000D01*
X27663000Y-88467000D01*
X27673000Y-88503000D01*
X27681000Y-88548000D01*
X27687000Y-88603000D01*
X27691000Y-88671000D01*
X27693000Y-88755000D01*
X27695000Y-88857000D01*
X27695000Y-88980000D01*
X27696000Y-89127000D01*
X27696000Y-89204000D01*
X27696000Y-89280000D01*
X27697000Y-89353000D01*
X27697000Y-89422000D01*
X27698000Y-89487000D01*
X27699000Y-89547000D01*
X27699000Y-89601000D01*
X27700000Y-89649000D01*
X27701000Y-89689000D01*
X27702000Y-89721000D01*
X27703000Y-89744000D01*
X27704000Y-89758000D01*
X27712000Y-89819000D01*
X27833000Y-89764000D01*
X27896000Y-89736000D01*
X27958000Y-89710000D01*
X28018000Y-89688000D01*
X28076000Y-89668000D01*
X28134000Y-89652000D01*
X28192000Y-89637000D01*
X28250000Y-89626000D01*
X28309000Y-89616000D01*
X28369000Y-89609000D01*
X28430000Y-89604000D01*
X28494000Y-89601000D01*
X28560000Y-89600000D01*
X28676000Y-89604000D01*
X28788000Y-89614000D01*
X28898000Y-89631000D01*
X29004000Y-89655000D01*
X29108000Y-89685000D01*
X29208000Y-89723000D01*
X29306000Y-89768000D01*
X29401000Y-89819000D01*
X29494000Y-89877000D01*
X29584000Y-89943000D01*
X29672000Y-90015000D01*
X29757000Y-90095000D01*
X29844000Y-90187000D01*
X29924000Y-90286000D01*
X29997000Y-90389000D01*
X30063000Y-90498000D01*
X30121000Y-90612000D01*
X30172000Y-90731000D01*
X30216000Y-90854000D01*
X30251000Y-90981000D01*
X30280000Y-91111000D01*
X30300000Y-91246000D01*
X30312000Y-91384000D01*
X30316000Y-91518000D01*
X30316000Y-91524000D01*
G37*
G36*
X39710000Y-91245000D02*
G01*
X39716000Y-91299000D01*
X39718000Y-91350000D01*
X39718000Y-91397000D01*
X39715000Y-91441000D01*
X39708000Y-91482000D01*
X39699000Y-91522000D01*
X39686000Y-91560000D01*
X39671000Y-91598000D01*
X39653000Y-91635000D01*
X39641000Y-91656000D01*
X39628000Y-91675000D01*
X39615000Y-91693000D01*
X39602000Y-91710000D01*
X39587000Y-91726000D01*
X39571000Y-91741000D01*
X39553000Y-91756000D01*
X39535000Y-91769000D01*
X39514000Y-91783000D01*
X39492000Y-91796000D01*
X39468000Y-91808000D01*
X39442000Y-91821000D01*
X39361000Y-91860000D01*
X38227000Y-91867000D01*
X37094000Y-91874000D01*
X37098000Y-91911000D01*
X37101000Y-91925000D01*
X37103000Y-91933000D01*
X37106000Y-91943000D01*
X37110000Y-91953000D01*
X37114000Y-91965000D01*
X37118000Y-91976000D01*
X37123000Y-91989000D01*
X37129000Y-92002000D01*
X37135000Y-92014000D01*
X37140000Y-92027000D01*
X37147000Y-92040000D01*
X37169000Y-92081000D01*
X37197000Y-92121000D01*
X37229000Y-92160000D01*
X37265000Y-92197000D01*
X37305000Y-92232000D01*
X37347000Y-92265000D01*
X37393000Y-92295000D01*
X37441000Y-92323000D01*
X37490000Y-92347000D01*
X37541000Y-92368000D01*
X37594000Y-92385000D01*
X37647000Y-92399000D01*
X37679000Y-92405000D01*
X37714000Y-92409000D01*
X37752000Y-92412000D01*
X37791000Y-92414000D01*
X37831000Y-92415000D01*
X37872000Y-92414000D01*
X37913000Y-92413000D01*
X37953000Y-92410000D01*
X37993000Y-92405000D01*
X38031000Y-92400000D01*
X38067000Y-92393000D01*
X38101000Y-92386000D01*
X38118000Y-92381000D01*
X38137000Y-92375000D01*
X38156000Y-92369000D01*
X38177000Y-92361000D01*
X38199000Y-92353000D01*
X38220000Y-92344000D01*
X38243000Y-92335000D01*
X38264000Y-92326000D01*
X38286000Y-92316000D01*
X38307000Y-92306000D01*
X38326000Y-92296000D01*
X38344000Y-92287000D01*
X38407000Y-92253000D01*
X38459000Y-92225000D01*
X38503000Y-92201000D01*
X38539000Y-92183000D01*
X38569000Y-92169000D01*
X38595000Y-92158000D01*
X38618000Y-92151000D01*
X38640000Y-92146000D01*
X38661000Y-92143000D01*
X38684000Y-92142000D01*
X38709000Y-92141000D01*
X38739000Y-92142000D01*
X38773000Y-92143000D01*
X38807000Y-92145000D01*
X38839000Y-92150000D01*
X38870000Y-92156000D01*
X38900000Y-92165000D01*
X38929000Y-92175000D01*
X38957000Y-92188000D01*
X38985000Y-92202000D01*
X39012000Y-92219000D01*
X39039000Y-92237000D01*
X39066000Y-92258000D01*
X39092000Y-92282000D01*
X39128000Y-92319000D01*
X39159000Y-92359000D01*
X39185000Y-92403000D01*
X39206000Y-92449000D01*
X39222000Y-92497000D01*
X39233000Y-92547000D01*
X39239000Y-92598000D01*
X39240000Y-92650000D01*
X39236000Y-92702000D01*
X39226000Y-92753000D01*
X39210000Y-92804000D01*
X39190000Y-92854000D01*
X39154000Y-92914000D01*
X39105000Y-92975000D01*
X39044000Y-93035000D01*
X38972000Y-93094000D01*
X38891000Y-93151000D01*
X38801000Y-93206000D01*
X38704000Y-93257000D01*
X38601000Y-93305000D01*
X38494000Y-93348000D01*
X38382000Y-93386000D01*
X38269000Y-93419000D01*
X38153000Y-93444000D01*
X38112000Y-93451000D01*
X38063000Y-93457000D01*
X38008000Y-93463000D01*
X37948000Y-93467000D01*
X37886000Y-93471000D01*
X37822000Y-93473000D01*
X37758000Y-93475000D01*
X37696000Y-93476000D01*
X37637000Y-93475000D01*
X37582000Y-93474000D01*
X37533000Y-93471000D01*
X37491000Y-93467000D01*
X37405000Y-93454000D01*
X37320000Y-93437000D01*
X37236000Y-93416000D01*
X37154000Y-93391000D01*
X37073000Y-93363000D01*
X36993000Y-93330000D01*
X36915000Y-93294000D01*
X36839000Y-93254000D01*
X36765000Y-93211000D01*
X36693000Y-93164000D01*
X36622000Y-93114000D01*
X36555000Y-93060000D01*
X36475000Y-92989000D01*
X36401000Y-92915000D01*
X36331000Y-92836000D01*
X36266000Y-92753000D01*
X36205000Y-92665000D01*
X36150000Y-92574000D01*
X36099000Y-92479000D01*
X36054000Y-92380000D01*
X36013000Y-92277000D01*
X35977000Y-92170000D01*
X35947000Y-92059000D01*
X35921000Y-91945000D01*
X35912000Y-91891000D01*
X35905000Y-91830000D01*
X35900000Y-91762000D01*
X35896000Y-91690000D01*
X35895000Y-91615000D01*
X35895000Y-91538000D01*
X35896000Y-91462000D01*
X35900000Y-91386000D01*
X35905000Y-91314000D01*
X35911000Y-91245000D01*
X35918403Y-91194000D01*
X37094000Y-91194000D01*
X37096000Y-91204000D01*
X37104000Y-91206000D01*
X37124000Y-91207000D01*
X37156000Y-91208000D01*
X37199000Y-91210000D01*
X37251000Y-91211000D01*
X37313000Y-91212000D01*
X37382000Y-91213000D01*
X37459000Y-91214000D01*
X37543000Y-91214000D01*
X37632000Y-91215000D01*
X37725000Y-91215000D01*
X37823000Y-91215000D01*
X38542000Y-91215000D01*
X38534000Y-91172000D01*
X38529000Y-91152000D01*
X38522000Y-91131000D01*
X38514000Y-91109000D01*
X38505000Y-91087000D01*
X38494000Y-91065000D01*
X38482000Y-91042000D01*
X38469000Y-91020000D01*
X38455000Y-90997000D01*
X38439000Y-90975000D01*
X38423000Y-90953000D01*
X38406000Y-90932000D01*
X38388000Y-90912000D01*
X38350000Y-90873000D01*
X38312000Y-90838000D01*
X38272000Y-90807000D01*
X38231000Y-90779000D01*
X38188000Y-90755000D01*
X38144000Y-90735000D01*
X38097000Y-90718000D01*
X38048000Y-90705000D01*
X37996000Y-90695000D01*
X37941000Y-90688000D01*
X37882000Y-90683000D01*
X37820000Y-90682000D01*
X37760000Y-90684000D01*
X37702000Y-90688000D01*
X37647000Y-90695000D01*
X37596000Y-90706000D01*
X37546000Y-90719000D01*
X37499000Y-90736000D01*
X37454000Y-90757000D01*
X37411000Y-90780000D01*
X37369000Y-90808000D01*
X37329000Y-90839000D01*
X37290000Y-90873000D01*
X37252000Y-90912000D01*
X37231000Y-90935000D01*
X37211000Y-90961000D01*
X37191000Y-90990000D01*
X37171000Y-91019000D01*
X37153000Y-91049000D01*
X37137000Y-91079000D01*
X37122000Y-91107000D01*
X37110000Y-91134000D01*
X37101000Y-91158000D01*
X37096000Y-91178000D01*
X37094000Y-91194000D01*
X35918403Y-91194000D01*
X35920000Y-91183000D01*
X35930000Y-91128000D01*
X35953000Y-91027000D01*
X35980000Y-90930000D01*
X36011000Y-90836000D01*
X36045000Y-90746000D01*
X36083000Y-90659000D01*
X36124000Y-90574000D01*
X36170000Y-90493000D01*
X36219000Y-90415000D01*
X36273000Y-90339000D01*
X36331000Y-90265000D01*
X36393000Y-90194000D01*
X36459000Y-90125000D01*
X36577000Y-90017000D01*
X36703000Y-89921000D01*
X36837000Y-89836000D01*
X36978000Y-89763000D01*
X37125000Y-89701000D01*
X37277000Y-89652000D01*
X37433000Y-89615000D01*
X37593000Y-89591000D01*
X37757000Y-89580000D01*
X37922000Y-89581000D01*
X38089000Y-89596000D01*
X38257000Y-89624000D01*
X38434000Y-89669000D01*
X38602000Y-89730000D01*
X38762000Y-89807000D01*
X38911000Y-89897000D01*
X39051000Y-90001000D01*
X39179000Y-90118000D01*
X39295000Y-90248000D01*
X39399000Y-90388000D01*
X39490000Y-90540000D01*
X39567000Y-90702000D01*
X39629000Y-90873000D01*
X39677000Y-91053000D01*
X39691000Y-91122000D01*
X39702000Y-91186000D01*
X39706000Y-91215000D01*
X39710000Y-91245000D01*
G37*
G36*
X34295000Y-91623000D02*
G01*
X34287000Y-91728000D01*
X34273000Y-91834000D01*
X34255000Y-91938000D01*
X34231000Y-92042000D01*
X34202000Y-92144000D01*
X34168000Y-92244000D01*
X34129000Y-92341000D01*
X34086000Y-92434000D01*
X34039000Y-92523000D01*
X33988000Y-92608000D01*
X33951000Y-92662000D01*
X33912000Y-92716000D01*
X33870000Y-92769000D01*
X33827000Y-92820000D01*
X33783000Y-92871000D01*
X33737000Y-92919000D01*
X33690000Y-92966000D01*
X33642000Y-93011000D01*
X33593000Y-93054000D01*
X33544000Y-93094000D01*
X33495000Y-93131000D01*
X33445000Y-93166000D01*
X33396000Y-93197000D01*
X33341000Y-93228000D01*
X33283000Y-93258000D01*
X33222000Y-93287000D01*
X33159000Y-93315000D01*
X33094000Y-93342000D01*
X33028000Y-93366000D01*
X32962000Y-93389000D01*
X32896000Y-93409000D01*
X32832000Y-93427000D01*
X32770000Y-93441000D01*
X32711000Y-93452000D01*
X32674000Y-93457000D01*
X32629000Y-93462000D01*
X32578000Y-93466000D01*
X32522000Y-93469000D01*
X32463000Y-93472000D01*
X32403000Y-93474000D01*
X32344000Y-93475000D01*
X32286000Y-93475000D01*
X32232000Y-93474000D01*
X32184000Y-93473000D01*
X32142000Y-93470000D01*
X32109000Y-93467000D01*
X32005000Y-93450000D01*
X31906000Y-93430000D01*
X31810000Y-93406000D01*
X31718000Y-93379000D01*
X31629000Y-93347000D01*
X31543000Y-93312000D01*
X31461000Y-93273000D01*
X31381000Y-93229000D01*
X31304000Y-93182000D01*
X31230000Y-93130000D01*
X31158000Y-93074000D01*
X31088000Y-93013000D01*
X31037000Y-92964000D01*
X30987000Y-92910000D01*
X30940000Y-92852000D01*
X30894000Y-92791000D01*
X30850000Y-92727000D01*
X30809000Y-92662000D01*
X30772000Y-92594000D01*
X30737000Y-92526000D01*
X30707000Y-92458000D01*
X30681000Y-92390000D01*
X30659000Y-92323000D01*
X30643000Y-92258000D01*
X30630000Y-92195000D01*
X30619000Y-92132000D01*
X30610000Y-92062000D01*
X30603000Y-91980000D01*
X30597000Y-91881000D01*
X30592000Y-91758000D01*
X30589039Y-91608000D01*
X31685000Y-91608000D01*
X31694000Y-91699000D01*
X31713000Y-91785000D01*
X31742000Y-91865000D01*
X31779000Y-91940000D01*
X31826000Y-92008000D01*
X31881000Y-92069000D01*
X31944000Y-92122000D01*
X32015000Y-92167000D01*
X32094000Y-92203000D01*
X32180000Y-92229000D01*
X32205000Y-92235000D01*
X32232000Y-92240000D01*
X32259000Y-92244000D01*
X32287000Y-92247000D01*
X32314000Y-92249000D01*
X32342000Y-92250000D01*
X32370000Y-92250000D01*
X32398000Y-92250000D01*
X32425000Y-92248000D01*
X32452000Y-92246000D01*
X32478000Y-92243000D01*
X32504000Y-92238000D01*
X32538000Y-92231000D01*
X32571000Y-92223000D01*
X32602000Y-92214000D01*
X32632000Y-92204000D01*
X32660000Y-92193000D01*
X32688000Y-92180000D01*
X32714000Y-92167000D01*
X32740000Y-92152000D01*
X32765000Y-92136000D01*
X32789000Y-92118000D01*
X32813000Y-92099000D01*
X32836000Y-92078000D01*
X32874000Y-92041000D01*
X32908000Y-92004000D01*
X32938000Y-91966000D01*
X32964000Y-91927000D01*
X32987000Y-91887000D01*
X33006000Y-91845000D01*
X33022000Y-91801000D01*
X33035000Y-91755000D01*
X33045000Y-91706000D01*
X33052000Y-91655000D01*
X33056000Y-91601000D01*
X33057000Y-91543000D01*
X33056000Y-91487000D01*
X33052000Y-91433000D01*
X33046000Y-91383000D01*
X33038000Y-91335000D01*
X33027000Y-91290000D01*
X33013000Y-91248000D01*
X32996000Y-91207000D01*
X32977000Y-91168000D01*
X32954000Y-91130000D01*
X32928000Y-91094000D01*
X32899000Y-91058000D01*
X32866000Y-91023000D01*
X32833000Y-90991000D01*
X32799000Y-90962000D01*
X32763000Y-90936000D01*
X32727000Y-90913000D01*
X32689000Y-90893000D01*
X32650000Y-90876000D01*
X32609000Y-90861000D01*
X32566000Y-90849000D01*
X32522000Y-90840000D01*
X32475000Y-90834000D01*
X32427000Y-90830000D01*
X32376000Y-90828000D01*
X32324000Y-90829000D01*
X32275000Y-90834000D01*
X32226000Y-90841000D01*
X32180000Y-90851000D01*
X32135000Y-90863000D01*
X32092000Y-90879000D01*
X32051000Y-90898000D01*
X32012000Y-90919000D01*
X31974000Y-90943000D01*
X31938000Y-90970000D01*
X31904000Y-91000000D01*
X31872000Y-91033000D01*
X31849000Y-91059000D01*
X31828000Y-91085000D01*
X31809000Y-91113000D01*
X31791000Y-91141000D01*
X31774000Y-91171000D01*
X31760000Y-91201000D01*
X31746000Y-91233000D01*
X31734000Y-91266000D01*
X31723000Y-91300000D01*
X31713000Y-91337000D01*
X31705000Y-91375000D01*
X31697000Y-91414000D01*
X31686000Y-91513000D01*
X31685000Y-91608000D01*
X30589039Y-91608000D01*
X30589000Y-91606000D01*
X30586000Y-91420000D01*
X30585000Y-91193000D01*
X30584000Y-90921000D01*
X30583000Y-90598000D01*
X30583000Y-90217000D01*
X30583000Y-89820000D01*
X30583000Y-89491000D01*
X30584000Y-89221000D01*
X30586000Y-89006000D01*
X30588000Y-88837000D01*
X30592000Y-88709000D01*
X30598000Y-88613000D01*
X30606000Y-88544000D01*
X30616000Y-88495000D01*
X30629000Y-88458000D01*
X30644000Y-88427000D01*
X30663000Y-88395000D01*
X30697000Y-88344000D01*
X30739000Y-88299000D01*
X30786000Y-88259000D01*
X30839000Y-88223000D01*
X30897000Y-88194000D01*
X30958000Y-88170000D01*
X31023000Y-88152000D01*
X31090000Y-88141000D01*
X31159000Y-88136000D01*
X31229000Y-88138000D01*
X31299000Y-88147000D01*
X31368000Y-88163000D01*
X31392000Y-88170000D01*
X31416000Y-88180000D01*
X31441000Y-88192000D01*
X31466000Y-88205000D01*
X31491000Y-88220000D01*
X31516000Y-88237000D01*
X31540000Y-88254000D01*
X31563000Y-88272000D01*
X31584000Y-88291000D01*
X31604000Y-88310000D01*
X31622000Y-88329000D01*
X31638000Y-88349000D01*
X31661000Y-88379000D01*
X31680000Y-88408000D01*
X31696000Y-88436000D01*
X31708000Y-88468000D01*
X31718000Y-88506000D01*
X31725000Y-88552000D01*
X31731000Y-88610000D01*
X31735000Y-88683000D01*
X31737000Y-88772000D01*
X31738000Y-88882000D01*
X31739000Y-89014000D01*
X31739000Y-89173000D01*
X31739000Y-89256000D01*
X31739000Y-89336000D01*
X31740000Y-89413000D01*
X31740000Y-89484000D01*
X31741000Y-89550000D01*
X31741000Y-89610000D01*
X31742000Y-89663000D01*
X31743000Y-89708000D01*
X31744000Y-89744000D01*
X31744000Y-89772000D01*
X31745000Y-89789000D01*
X31748000Y-89796000D01*
X31758000Y-89794000D01*
X31765000Y-89791000D01*
X31774000Y-89788000D01*
X31785000Y-89784000D01*
X31796000Y-89779000D01*
X31809000Y-89774000D01*
X31823000Y-89767000D01*
X31837000Y-89761000D01*
X31852000Y-89754000D01*
X31868000Y-89746000D01*
X31914000Y-89725000D01*
X31960000Y-89706000D01*
X32008000Y-89688000D01*
X32056000Y-89672000D01*
X32105000Y-89658000D01*
X32155000Y-89645000D01*
X32206000Y-89635000D01*
X32258000Y-89625000D01*
X32312000Y-89618000D01*
X32367000Y-89612000D01*
X32423000Y-89607000D01*
X32482000Y-89604000D01*
X32562000Y-89602000D01*
X32638000Y-89603000D01*
X32711000Y-89607000D01*
X32781000Y-89613000D01*
X32850000Y-89623000D01*
X32917000Y-89635000D01*
X32983000Y-89651000D01*
X33048000Y-89670000D01*
X33114000Y-89693000D01*
X33181000Y-89719000D01*
X33249000Y-89750000D01*
X33319000Y-89783000D01*
X33361000Y-89805000D01*
X33401000Y-89827000D01*
X33440000Y-89850000D01*
X33477000Y-89873000D01*
X33514000Y-89898000D01*
X33550000Y-89924000D01*
X33585000Y-89951000D01*
X33620000Y-89979000D01*
X33655000Y-90009000D01*
X33690000Y-90042000D01*
X33726000Y-90076000D01*
X33763000Y-90112000D01*
X33842000Y-90198000D01*
X33914000Y-90287000D01*
X33980000Y-90380000D01*
X34040000Y-90477000D01*
X34093000Y-90578000D01*
X34140000Y-90683000D01*
X34181000Y-90793000D01*
X34216000Y-90907000D01*
X34244000Y-91026000D01*
X34267000Y-91151000D01*
X34284000Y-91280000D01*
X34295000Y-91415000D01*
X34298000Y-91519000D01*
X34297000Y-91543000D01*
X34295000Y-91623000D01*
G37*
G36*
X20531000Y-90926000D02*
G01*
X20531000Y-91421000D01*
X20531000Y-91855000D01*
X20530000Y-92231000D01*
X20530000Y-92554000D01*
X20529000Y-92827000D01*
X20527000Y-93054000D01*
X20526000Y-93239000D01*
X20524000Y-93385000D01*
X20521000Y-93496000D01*
X20519000Y-93577000D01*
X20515000Y-93630000D01*
X20512000Y-93660000D01*
X20479000Y-93795000D01*
X20435000Y-93925000D01*
X20381000Y-94050000D01*
X20317000Y-94169000D01*
X20244000Y-94281000D01*
X20162000Y-94387000D01*
X20071000Y-94484000D01*
X19972000Y-94574000D01*
X19866000Y-94654000D01*
X19753000Y-94726000D01*
X19633000Y-94788000D01*
X19507000Y-94839000D01*
X19445000Y-94862000D01*
X19389000Y-94881000D01*
X19329000Y-94896000D01*
X19254000Y-94908000D01*
X19152000Y-94918000D01*
X19012000Y-94924000D01*
X18824000Y-94929000D01*
X18575000Y-94933000D01*
X18255000Y-94935000D01*
X17852000Y-94936000D01*
X17355000Y-94937000D01*
X16753000Y-94938000D01*
X16428000Y-94938000D01*
X16111000Y-94938000D01*
X15804000Y-94938000D01*
X15511000Y-94938000D01*
X15236000Y-94938000D01*
X14982000Y-94938000D01*
X14751000Y-94937000D01*
X14548000Y-94936000D01*
X14375000Y-94936000D01*
X14236000Y-94935000D01*
X14134000Y-94934000D01*
X14072000Y-94932000D01*
X13997000Y-94930000D01*
X13929000Y-94927000D01*
X13870000Y-94923000D01*
X13816000Y-94919000D01*
X13767000Y-94913000D01*
X13721000Y-94907000D01*
X13678000Y-94898000D01*
X13637000Y-94889000D01*
X13595000Y-94877000D01*
X13553000Y-94863000D01*
X13508000Y-94847000D01*
X13460000Y-94828000D01*
X13373000Y-94791000D01*
X13288000Y-94748000D01*
X13205000Y-94699000D01*
X13124000Y-94645000D01*
X13047000Y-94587000D01*
X12972000Y-94525000D01*
X12902000Y-94459000D01*
X12836000Y-94390000D01*
X12776000Y-94318000D01*
X12720000Y-94245000D01*
X12671000Y-94169000D01*
X12629000Y-94092000D01*
X12612000Y-94056000D01*
X12594000Y-94017000D01*
X12577000Y-93974000D01*
X12560000Y-93930000D01*
X12544000Y-93884000D01*
X12529000Y-93837000D01*
X12514000Y-93790000D01*
X12501000Y-93744000D01*
X12489000Y-93699000D01*
X12479000Y-93656000D01*
X12471000Y-93617000D01*
X12465000Y-93581000D01*
X12463000Y-93545000D01*
X12461000Y-93476000D01*
X12459000Y-93374000D01*
X12457000Y-93239000D01*
X12455000Y-93071000D01*
X12454000Y-92868000D01*
X12452000Y-92632000D01*
X12451000Y-92361000D01*
X12451000Y-92055000D01*
X12450000Y-91715000D01*
X12450000Y-91340000D01*
X12450000Y-90929000D01*
X12450000Y-90285000D01*
X12450000Y-89752000D01*
X12450406Y-89576000D01*
X13058000Y-89576000D01*
X13059000Y-89969000D01*
X13059000Y-90437000D01*
X13060000Y-90986000D01*
X13065000Y-93593000D01*
X13099000Y-93697000D01*
X13130000Y-93777000D01*
X13168000Y-93854000D01*
X13213000Y-93926000D01*
X13263000Y-93993000D01*
X13319000Y-94056000D01*
X13381000Y-94113000D01*
X13447000Y-94164000D01*
X13518000Y-94210000D01*
X13593000Y-94249000D01*
X13672000Y-94282000D01*
X13754000Y-94307000D01*
X13839000Y-94326000D01*
X13872000Y-94328000D01*
X13952000Y-94329000D01*
X14073000Y-94330000D01*
X14234000Y-94332000D01*
X14431000Y-94333000D01*
X14661000Y-94334000D01*
X14920000Y-94335000D01*
X15204000Y-94335000D01*
X15512000Y-94336000D01*
X15839000Y-94336000D01*
X16182000Y-94336000D01*
X16539000Y-94336000D01*
X19168000Y-94334000D01*
X19290000Y-94292000D01*
X19327000Y-94279000D01*
X19365000Y-94263000D01*
X19403000Y-94245000D01*
X19441000Y-94225000D01*
X19479000Y-94203000D01*
X19516000Y-94180000D01*
X19552000Y-94156000D01*
X19586000Y-94131000D01*
X19619000Y-94105000D01*
X19649000Y-94079000D01*
X19677000Y-94052000D01*
X19702000Y-94026000D01*
X19723000Y-93999000D01*
X19746000Y-93969000D01*
X19768000Y-93935000D01*
X19790000Y-93898000D01*
X19812000Y-93858000D01*
X19832000Y-93818000D01*
X19852000Y-93777000D01*
X19869000Y-93737000D01*
X19885000Y-93698000D01*
X19898000Y-93660000D01*
X19908000Y-93625000D01*
X19915000Y-93594000D01*
X19918000Y-93563000D01*
X19920000Y-93498000D01*
X19922000Y-93400000D01*
X19924000Y-93267000D01*
X19926000Y-93100000D01*
X19927000Y-92899000D01*
X19928000Y-92662000D01*
X19929000Y-92389000D01*
X19930000Y-92081000D01*
X19931000Y-91736000D01*
X19931000Y-91354000D01*
X19931000Y-90935000D01*
X19931000Y-90283000D01*
X19931000Y-89747000D01*
X19930000Y-89314000D01*
X19929000Y-88971000D01*
X19926000Y-88707000D01*
X19921000Y-88511000D01*
X19914000Y-88369000D01*
X19905000Y-88269000D01*
X19892000Y-88201000D01*
X19876000Y-88151000D01*
X19856000Y-88109000D01*
X19832000Y-88060000D01*
X19822000Y-88040000D01*
X19812000Y-88020000D01*
X19801000Y-88002000D01*
X19790000Y-87984000D01*
X19777000Y-87966000D01*
X19765000Y-87948000D01*
X19751000Y-87930000D01*
X19735000Y-87912000D01*
X19719000Y-87893000D01*
X19701000Y-87873000D01*
X19681000Y-87852000D01*
X19659000Y-87830000D01*
X19625000Y-87798000D01*
X19592000Y-87768000D01*
X19560000Y-87741000D01*
X19527000Y-87717000D01*
X19494000Y-87695000D01*
X19461000Y-87674000D01*
X19427000Y-87656000D01*
X19391000Y-87639000D01*
X19354000Y-87624000D01*
X19315000Y-87610000D01*
X19273000Y-87598000D01*
X19229000Y-87586000D01*
X19200000Y-87579000D01*
X19165000Y-87573000D01*
X19114000Y-87569000D01*
X19039000Y-87565000D01*
X18931000Y-87562000D01*
X18781000Y-87560000D01*
X18579000Y-87558000D01*
X18318000Y-87557000D01*
X17987000Y-87556000D01*
X17577000Y-87556000D01*
X17081000Y-87556000D01*
X16488000Y-87556000D01*
X15888000Y-87556000D01*
X15388000Y-87556000D01*
X14976000Y-87556000D01*
X14644000Y-87557000D01*
X14384000Y-87558000D01*
X14184000Y-87560000D01*
X14037000Y-87562000D01*
X13932000Y-87565000D01*
X13860000Y-87569000D01*
X13813000Y-87574000D01*
X13780000Y-87580000D01*
X13753000Y-87587000D01*
X13669000Y-87614000D01*
X13590000Y-87647000D01*
X13514000Y-87687000D01*
X13443000Y-87733000D01*
X13378000Y-87784000D01*
X13317000Y-87840000D01*
X13262000Y-87902000D01*
X13213000Y-87968000D01*
X13170000Y-88039000D01*
X13133000Y-88114000D01*
X13103000Y-88192000D01*
X13080000Y-88274000D01*
X13075000Y-88302000D01*
X13071000Y-88344000D01*
X13067000Y-88405000D01*
X13064000Y-88493000D01*
X13062000Y-88615000D01*
X13060000Y-88777000D01*
X13059000Y-88987000D01*
X13059000Y-89251000D01*
X13058000Y-89576000D01*
X12450406Y-89576000D01*
X12451000Y-89318000D01*
X12452000Y-88973000D01*
X12456000Y-88704000D01*
X12460000Y-88499000D01*
X12467000Y-88347000D01*
X12477000Y-88236000D01*
X12489000Y-88155000D01*
X12505000Y-88092000D01*
X12525000Y-88035000D01*
X12548000Y-87973000D01*
X12597000Y-87855000D01*
X12655000Y-87743000D01*
X12721000Y-87637000D01*
X12795000Y-87536000D01*
X12876000Y-87443000D01*
X12965000Y-87356000D01*
X13060000Y-87277000D01*
X13162000Y-87205000D01*
X13270000Y-87140000D01*
X13384000Y-87084000D01*
X13503000Y-87036000D01*
X13628000Y-86997000D01*
X13776000Y-86956000D01*
X16398000Y-86951000D01*
X17025000Y-86950000D01*
X17551000Y-86950000D01*
X17986000Y-86950000D01*
X18338000Y-86951000D01*
X18619000Y-86952000D01*
X18837000Y-86955000D01*
X19004000Y-86960000D01*
X19128000Y-86966000D01*
X19219000Y-86973000D01*
X19288000Y-86983000D01*
X19344000Y-86995000D01*
X19397000Y-87009000D01*
X19457000Y-87027000D01*
X19517000Y-87049000D01*
X19579000Y-87074000D01*
X19640000Y-87102000D01*
X19701000Y-87134000D01*
X19761000Y-87168000D01*
X19821000Y-87204000D01*
X19878000Y-87243000D01*
X19934000Y-87284000D01*
X19988000Y-87326000D01*
X20039000Y-87370000D01*
X20087000Y-87415000D01*
X20136000Y-87465000D01*
X20181000Y-87517000D01*
X20224000Y-87571000D01*
X20265000Y-87628000D01*
X20303000Y-87686000D01*
X20338000Y-87747000D01*
X20371000Y-87810000D01*
X20401000Y-87875000D01*
X20429000Y-87943000D01*
X20455000Y-88013000D01*
X20478000Y-88085000D01*
X20498000Y-88160000D01*
X20531000Y-88289000D01*
X20531000Y-90283000D01*
X20531000Y-90926000D01*
G37*
G36*
X19296000Y-92035000D02*
G01*
X19362000Y-92097000D01*
X19427000Y-92158000D01*
X19427000Y-92462000D01*
X19427000Y-92530000D01*
X19427000Y-92587000D01*
X19427000Y-92634000D01*
X19426000Y-92673000D01*
X19425000Y-92705000D01*
X19423000Y-92731000D01*
X19420000Y-92751000D01*
X19417000Y-92768000D01*
X19413000Y-92782000D01*
X19407000Y-92794000D01*
X19401000Y-92805000D01*
X19394000Y-92816000D01*
X19389000Y-92823000D01*
X19383000Y-92830000D01*
X19378000Y-92837000D01*
X19372000Y-92844000D01*
X19365000Y-92851000D01*
X19359000Y-92857000D01*
X19353000Y-92863000D01*
X19346000Y-92869000D01*
X19340000Y-92874000D01*
X19334000Y-92878000D01*
X19323000Y-92885000D01*
X19278000Y-92892000D01*
X19178000Y-92897000D01*
X19035000Y-92901000D01*
X18859000Y-92904000D01*
X18660000Y-92905000D01*
X18451000Y-92906000D01*
X18241000Y-92905000D01*
X18042000Y-92903000D01*
X17864000Y-92900000D01*
X17719000Y-92895000D01*
X17617000Y-92890000D01*
X17569000Y-92883000D01*
X17547000Y-92873000D01*
X17528000Y-92863000D01*
X17512000Y-92850000D01*
X17499000Y-92835000D01*
X17489000Y-92817000D01*
X17481000Y-92793000D01*
X17474000Y-92764000D01*
X17469000Y-92728000D01*
X17466000Y-92684000D01*
X17463000Y-92631000D01*
X17461000Y-92568000D01*
X17460000Y-92495000D01*
X17459000Y-92421000D01*
X17459000Y-92358000D01*
X17460000Y-92303000D01*
X17462000Y-92257000D01*
X17466000Y-92217000D01*
X17471000Y-92185000D01*
X17478000Y-92158000D01*
X17486000Y-92137000D01*
X17497000Y-92119000D01*
X17510000Y-92105000D01*
X17525000Y-92094000D01*
X17543000Y-92085000D01*
X17580000Y-92068000D01*
X17571000Y-91890000D01*
X17564000Y-91798000D01*
X17552000Y-91707000D01*
X17537000Y-91617000D01*
X17518000Y-91528000D01*
X17494000Y-91440000D01*
X17467000Y-91353000D01*
X17436000Y-91268000D01*
X17400000Y-91185000D01*
X17362000Y-91104000D01*
X17319000Y-91025000D01*
X17273000Y-90948000D01*
X17223000Y-90874000D01*
X17194000Y-90835000D01*
X17159000Y-90792000D01*
X17119000Y-90746000D01*
X17074000Y-90697000D01*
X17025000Y-90646000D01*
X16973000Y-90593000D01*
X16918000Y-90539000D01*
X16860000Y-90484000D01*
X16800000Y-90429000D01*
X16738000Y-90375000D01*
X16676000Y-90321000D01*
X16613000Y-90268000D01*
X16515000Y-90188000D01*
X16419000Y-90111000D01*
X16328000Y-90037000D01*
X16242000Y-89967000D01*
X16161000Y-89902000D01*
X16086000Y-89842000D01*
X16020000Y-89790000D01*
X15961000Y-89744000D01*
X15913000Y-89706000D01*
X15874000Y-89677000D01*
X15847000Y-89657000D01*
X15832000Y-89647000D01*
X15812000Y-89640000D01*
X15790000Y-89637000D01*
X15766000Y-89639000D01*
X15741000Y-89646000D01*
X15716000Y-89656000D01*
X15690000Y-89670000D01*
X15665000Y-89687000D01*
X15641000Y-89707000D01*
X15619000Y-89730000D01*
X15599000Y-89755000D01*
X15581000Y-89782000D01*
X15566000Y-89811000D01*
X15560000Y-89827000D01*
X15555000Y-89846000D01*
X15551000Y-89872000D01*
X15547000Y-89908000D01*
X15544000Y-89958000D01*
X15542000Y-90025000D01*
X15540000Y-90112000D01*
X15539000Y-90222000D01*
X15538000Y-90359000D01*
X15537000Y-90526000D01*
X15536000Y-90726000D01*
X15535000Y-90963000D01*
X15532000Y-92052000D01*
X15579000Y-92082000D01*
X15598000Y-92094000D01*
X15614000Y-92107000D01*
X15627000Y-92120000D01*
X15638000Y-92136000D01*
X15646000Y-92155000D01*
X15652000Y-92180000D01*
X15657000Y-92210000D01*
X15660000Y-92247000D01*
X15662000Y-92293000D01*
X15662000Y-92348000D01*
X15662000Y-92415000D01*
X15661000Y-92493000D01*
X15657000Y-92800000D01*
X15609000Y-92848000D01*
X15560000Y-92897000D01*
X14705000Y-92900000D01*
X14526000Y-92901000D01*
X14373000Y-92901000D01*
X14245000Y-92901000D01*
X14138000Y-92901000D01*
X14051000Y-92900000D01*
X13982000Y-92899000D01*
X13928000Y-92897000D01*
X13887000Y-92895000D01*
X13857000Y-92892000D01*
X13836000Y-92889000D01*
X13821000Y-92884000D01*
X13811000Y-92879000D01*
X13792000Y-92867000D01*
X13776000Y-92854000D01*
X13763000Y-92840000D01*
X13752000Y-92824000D01*
X13744000Y-92804000D01*
X13737000Y-92780000D01*
X13732000Y-92749000D01*
X13728000Y-92712000D01*
X13726000Y-92666000D01*
X13725000Y-92611000D01*
X13724000Y-92546000D01*
X13724000Y-92470000D01*
X13724000Y-92166000D01*
X13761000Y-92121000D01*
X13767000Y-92115000D01*
X13772000Y-92109000D01*
X13778000Y-92103000D01*
X13784000Y-92097000D01*
X13790000Y-92092000D01*
X13796000Y-92087000D01*
X13802000Y-92082000D01*
X13814000Y-92074000D01*
X13823000Y-92069000D01*
X13834000Y-92064000D01*
X13836222Y-92060000D01*
X14242000Y-92060000D01*
X14367000Y-92060000D01*
X14493000Y-92060000D01*
X14498000Y-90834000D01*
X14499000Y-90584000D01*
X14500000Y-90369000D01*
X14501000Y-90186000D01*
X14503000Y-90033000D01*
X14504000Y-89907000D01*
X14506000Y-89804000D01*
X14507444Y-89765000D01*
X14894000Y-89765000D01*
X14894000Y-90912000D01*
X14894000Y-92060000D01*
X15020000Y-92060000D01*
X15146000Y-92060000D01*
X15146000Y-90951000D01*
X15146000Y-90724000D01*
X15146000Y-90529000D01*
X15147000Y-90363000D01*
X15147000Y-90225000D01*
X15149000Y-90110000D01*
X15150000Y-90017000D01*
X15152000Y-89943000D01*
X15154000Y-89885000D01*
X15157000Y-89841000D01*
X15161000Y-89807000D01*
X15165000Y-89782000D01*
X15170000Y-89762000D01*
X15181000Y-89728000D01*
X15192000Y-89696000D01*
X15205000Y-89664000D01*
X15218000Y-89635000D01*
X15233000Y-89606000D01*
X15248000Y-89579000D01*
X15264000Y-89553000D01*
X15282000Y-89528000D01*
X15300000Y-89505000D01*
X15320000Y-89482000D01*
X15340000Y-89461000D01*
X15362000Y-89440000D01*
X15445000Y-89366000D01*
X15400000Y-89342000D01*
X15393000Y-89339000D01*
X15386000Y-89336000D01*
X15377000Y-89333000D01*
X15368000Y-89331000D01*
X15358000Y-89328000D01*
X15348000Y-89326000D01*
X15337000Y-89324000D01*
X15326000Y-89322000D01*
X15316000Y-89321000D01*
X15305000Y-89320000D01*
X15295000Y-89319000D01*
X15285000Y-89319000D01*
X15246000Y-89321000D01*
X15208000Y-89329000D01*
X15172000Y-89341000D01*
X15137000Y-89358000D01*
X15104000Y-89379000D01*
X15073000Y-89405000D01*
X15044000Y-89435000D01*
X15017000Y-89469000D01*
X14992000Y-89508000D01*
X14970000Y-89550000D01*
X14949000Y-89596000D01*
X14932000Y-89646000D01*
X14894000Y-89765000D01*
X14507444Y-89765000D01*
X14509000Y-89723000D01*
X14511000Y-89659000D01*
X14514000Y-89611000D01*
X14518000Y-89575000D01*
X14522000Y-89549000D01*
X14527000Y-89530000D01*
X14564000Y-89428000D01*
X14609000Y-89335000D01*
X14662000Y-89250000D01*
X14722000Y-89175000D01*
X14789000Y-89109000D01*
X14862000Y-89053000D01*
X14941000Y-89008000D01*
X15024000Y-88974000D01*
X15111000Y-88951000D01*
X15202000Y-88940000D01*
X15295000Y-88940000D01*
X15391000Y-88954000D01*
X15440000Y-88964000D01*
X15485000Y-88977000D01*
X15530000Y-88992000D01*
X15575000Y-89012000D01*
X15624000Y-89038000D01*
X15678000Y-89071000D01*
X15739000Y-89112000D01*
X15810000Y-89163000D01*
X15892000Y-89225000D01*
X15988000Y-89299000D01*
X16072000Y-89366000D01*
X16099000Y-89387000D01*
X16227000Y-89490000D01*
X16458000Y-89675000D01*
X16658000Y-89838000D01*
X16830000Y-89980000D01*
X16977000Y-90104000D01*
X17102000Y-90213000D01*
X17207000Y-90309000D01*
X17296000Y-90396000D01*
X17372000Y-90476000D01*
X17436000Y-90552000D01*
X17493000Y-90626000D01*
X17545000Y-90700000D01*
X17594000Y-90779000D01*
X17601000Y-90790000D01*
X17607000Y-90800000D01*
X17614000Y-90810000D01*
X17620000Y-90819000D01*
X17626000Y-90828000D01*
X17631000Y-90836000D01*
X17636000Y-90842000D01*
X17645000Y-90853000D01*
X17651000Y-90858000D01*
X17656000Y-90851000D01*
X17657000Y-90839000D01*
X17658000Y-90830000D01*
X17658000Y-90821000D01*
X17658000Y-90810000D01*
X17657000Y-90798000D01*
X17656000Y-90786000D01*
X17656000Y-90773000D01*
X17654000Y-90760000D01*
X17650000Y-90727000D01*
X17644000Y-90691000D01*
X17636000Y-90654000D01*
X17626000Y-90616000D01*
X17614000Y-90577000D01*
X17601000Y-90538000D01*
X17586000Y-90499000D01*
X17570000Y-90461000D01*
X17553000Y-90423000D01*
X17536000Y-90388000D01*
X17517000Y-90354000D01*
X17498000Y-90323000D01*
X17477000Y-90292000D01*
X17452000Y-90259000D01*
X17423000Y-90223000D01*
X17391000Y-90186000D01*
X17355000Y-90147000D01*
X17318000Y-90107000D01*
X17277000Y-90066000D01*
X17236000Y-90025000D01*
X17192000Y-89984000D01*
X17148000Y-89944000D01*
X17103000Y-89905000D01*
X17057000Y-89867000D01*
X17037000Y-89850000D01*
X17015000Y-89832000D01*
X16991000Y-89813000D01*
X16967000Y-89793000D01*
X16942000Y-89772000D01*
X16916000Y-89751000D01*
X16891000Y-89730000D01*
X16866000Y-89710000D01*
X16841000Y-89690000D01*
X16818000Y-89670000D01*
X16796000Y-89652000D01*
X16776000Y-89636000D01*
X16702000Y-89575000D01*
X16617000Y-89507000D01*
X16525000Y-89433000D01*
X16428000Y-89355000D01*
X16330000Y-89276000D01*
X16232000Y-89198000D01*
X16139000Y-89125000D01*
X16053000Y-89057000D01*
X15977000Y-88997000D01*
X15914000Y-88948000D01*
X15867000Y-88912000D01*
X15839000Y-88892000D01*
X15789000Y-88860000D01*
X15740000Y-88831000D01*
X15690000Y-88805000D01*
X15640000Y-88783000D01*
X15589000Y-88764000D01*
X15538000Y-88748000D01*
X15485000Y-88735000D01*
X15430000Y-88726000D01*
X15374000Y-88719000D01*
X15316000Y-88715000D01*
X15255000Y-88714000D01*
X15192000Y-88715000D01*
X15126000Y-88720000D01*
X15064000Y-88727000D01*
X15005000Y-88736000D01*
X14951000Y-88750000D01*
X14898000Y-88766000D01*
X14848000Y-88786000D01*
X14799000Y-88810000D01*
X14752000Y-88839000D01*
X14705000Y-88872000D01*
X14657000Y-88909000D01*
X14609000Y-88951000D01*
X14560000Y-88999000D01*
X14527000Y-89034000D01*
X14496000Y-89069000D01*
X14467000Y-89105000D01*
X14440000Y-89141000D01*
X14414000Y-89179000D01*
X14391000Y-89218000D01*
X14369000Y-89258000D01*
X14348000Y-89299000D01*
X14330000Y-89341000D01*
X14313000Y-89385000D01*
X14297000Y-89431000D01*
X14283000Y-89478000D01*
X14276000Y-89505000D01*
X14270000Y-89533000D01*
X14264000Y-89565000D01*
X14260000Y-89608000D01*
X14257000Y-89664000D01*
X14254000Y-89739000D01*
X14252000Y-89836000D01*
X14251000Y-89962000D01*
X14249000Y-90119000D01*
X14248000Y-90312000D01*
X14247000Y-90547000D01*
X14246000Y-90826000D01*
X14242000Y-92060000D01*
X13836222Y-92060000D01*
X13839000Y-92055000D01*
X13844000Y-92038000D01*
X13847000Y-92007000D01*
X13850000Y-91959000D01*
X13853000Y-91890000D01*
X13855000Y-91795000D01*
X13856000Y-91672000D01*
X13857000Y-91515000D01*
X13858000Y-91320000D01*
X13859000Y-91084000D01*
X13861000Y-90803000D01*
X13865000Y-89549000D01*
X13907000Y-89393000D01*
X13952000Y-89252000D01*
X14008000Y-89119000D01*
X14075000Y-88995000D01*
X14152000Y-88880000D01*
X14238000Y-88775000D01*
X14318000Y-88695000D01*
X16190000Y-88695000D01*
X16242000Y-88740000D01*
X16252000Y-88748000D01*
X16266000Y-88760000D01*
X16283000Y-88775000D01*
X16305000Y-88793000D01*
X16330000Y-88813000D01*
X16357000Y-88836000D01*
X16387000Y-88861000D01*
X16419000Y-88887000D01*
X16453000Y-88914000D01*
X16488000Y-88943000D01*
X16524000Y-88972000D01*
X16561000Y-89002000D01*
X16598000Y-89033000D01*
X16637000Y-89064000D01*
X16677000Y-89097000D01*
X16717000Y-89130000D01*
X16758000Y-89163000D01*
X16797000Y-89195000D01*
X16835000Y-89226000D01*
X16872000Y-89256000D01*
X16906000Y-89284000D01*
X16937000Y-89310000D01*
X16966000Y-89334000D01*
X16990000Y-89354000D01*
X17013000Y-89373000D01*
X17037000Y-89393000D01*
X17061000Y-89412000D01*
X17085000Y-89432000D01*
X17109000Y-89452000D01*
X17132000Y-89471000D01*
X17155000Y-89490000D01*
X17176000Y-89507000D01*
X17196000Y-89524000D01*
X17214000Y-89539000D01*
X17231000Y-89552000D01*
X17245000Y-89563000D01*
X17340000Y-89642000D01*
X17426000Y-89713000D01*
X17501000Y-89779000D01*
X17568000Y-89840000D01*
X17627000Y-89898000D01*
X17679000Y-89954000D01*
X17726000Y-90009000D01*
X17769000Y-90064000D01*
X17808000Y-90120000D01*
X17844000Y-90179000D01*
X17880000Y-90241000D01*
X17915000Y-90308000D01*
X17941000Y-90362000D01*
X17964000Y-90411000D01*
X17982000Y-90459000D01*
X17997000Y-90509000D01*
X18009000Y-90564000D01*
X18018000Y-90627000D01*
X18025000Y-90701000D01*
X18029000Y-90791000D01*
X18030000Y-90821000D01*
X18032000Y-90897000D01*
X18034000Y-91025000D01*
X18035000Y-91178000D01*
X18035000Y-91357000D01*
X18035000Y-91450000D01*
X18035000Y-91538000D01*
X18036000Y-91623000D01*
X18036000Y-91702000D01*
X18037000Y-91776000D01*
X18038000Y-91842000D01*
X18039000Y-91901000D01*
X18040000Y-91951000D01*
X18041000Y-91992000D01*
X18042000Y-92023000D01*
X18043000Y-92042000D01*
X18045000Y-92050000D01*
X18058000Y-92054000D01*
X18066000Y-92055000D01*
X18075000Y-92056000D01*
X18086000Y-92057000D01*
X18098000Y-92058000D01*
X18111000Y-92058000D01*
X18125000Y-92059000D01*
X18140000Y-92059000D01*
X18155000Y-92060000D01*
X18171000Y-92060000D01*
X18287000Y-92060000D01*
X18287000Y-91380000D01*
X18287000Y-91203000D01*
X18286000Y-91051000D01*
X18284000Y-90922000D01*
X18281000Y-90813000D01*
X18277000Y-90721000D01*
X18272000Y-90643000D01*
X18264000Y-90577000D01*
X18255000Y-90519000D01*
X18243000Y-90467000D01*
X18228000Y-90418000D01*
X18211000Y-90369000D01*
X18190000Y-90318000D01*
X18164000Y-90259000D01*
X18135000Y-90200000D01*
X18103000Y-90142000D01*
X18067000Y-90085000D01*
X18029000Y-90028000D01*
X17987000Y-89972000D01*
X17942000Y-89916000D01*
X17894000Y-89861000D01*
X17843000Y-89806000D01*
X17788000Y-89751000D01*
X17730000Y-89697000D01*
X17669000Y-89643000D01*
X17616000Y-89598000D01*
X17550000Y-89543000D01*
X17473000Y-89479000D01*
X17389000Y-89410000D01*
X17300000Y-89336000D01*
X17209000Y-89262000D01*
X17120000Y-89190000D01*
X17035000Y-89121000D01*
X16957000Y-89058000D01*
X16890000Y-89004000D01*
X16836000Y-88962000D01*
X16798000Y-88932000D01*
X16749000Y-88897000D01*
X16703000Y-88865000D01*
X16659000Y-88836000D01*
X16616000Y-88810000D01*
X16574000Y-88788000D01*
X17155000Y-88788000D01*
X17176000Y-88811000D01*
X17210000Y-88835000D01*
X17262000Y-88876000D01*
X17330000Y-88930000D01*
X17410000Y-88995000D01*
X17498000Y-89067000D01*
X17592000Y-89145000D01*
X17689000Y-89225000D01*
X17784000Y-89304000D01*
X17874000Y-89380000D01*
X17957000Y-89450000D01*
X18028000Y-89512000D01*
X18085000Y-89562000D01*
X18142000Y-89615000D01*
X18196000Y-89670000D01*
X18249000Y-89727000D01*
X18298000Y-89785000D01*
X18346000Y-89846000D01*
X18390000Y-89907000D01*
X18431000Y-89969000D01*
X18469000Y-90031000D01*
X18503000Y-90094000D01*
X18534000Y-90156000D01*
X18560000Y-90218000D01*
X18582000Y-90279000D01*
X18600000Y-90333000D01*
X18615000Y-90381000D01*
X18627000Y-90427000D01*
X18637000Y-90475000D01*
X18645000Y-90527000D01*
X18651000Y-90588000D01*
X18656000Y-90660000D01*
X18660000Y-90747000D01*
X18662000Y-90852000D01*
X18664000Y-90980000D01*
X18666000Y-91133000D01*
X18668000Y-91315000D01*
X18668000Y-91380000D01*
X18674000Y-92060000D01*
X18799000Y-92060000D01*
X18924000Y-92060000D01*
X18924000Y-91392000D01*
X18924000Y-91299000D01*
X18923000Y-91208000D01*
X18923000Y-91119000D01*
X18922000Y-91034000D01*
X18921000Y-90953000D01*
X18919000Y-90877000D01*
X18918000Y-90808000D01*
X18916000Y-90745000D01*
X18914000Y-90690000D01*
X18912000Y-90645000D01*
X18910000Y-90609000D01*
X18908000Y-90583000D01*
X18899000Y-90517000D01*
X18888000Y-90453000D01*
X18874000Y-90388000D01*
X18858000Y-90325000D01*
X18839000Y-90263000D01*
X18818000Y-90201000D01*
X18794000Y-90141000D01*
X18768000Y-90082000D01*
X18740000Y-90023000D01*
X18709000Y-89966000D01*
X18675000Y-89911000D01*
X18640000Y-89856000D01*
X18590000Y-89790000D01*
X18531000Y-89719000D01*
X18464000Y-89645000D01*
X18388000Y-89569000D01*
X18307000Y-89492000D01*
X18220000Y-89415000D01*
X18128000Y-89338000D01*
X18033000Y-89263000D01*
X17936000Y-89191000D01*
X17838000Y-89121000D01*
X17740000Y-89056000D01*
X17642000Y-88996000D01*
X17592000Y-88968000D01*
X17535000Y-88939000D01*
X17475000Y-88910000D01*
X17412000Y-88881000D01*
X17351000Y-88855000D01*
X17294000Y-88831000D01*
X17243000Y-88812000D01*
X17201000Y-88797000D01*
X17171000Y-88789000D01*
X17155000Y-88788000D01*
X16574000Y-88788000D01*
X16533000Y-88769000D01*
X16493000Y-88752000D01*
X16453000Y-88738000D01*
X16412000Y-88726000D01*
X16372000Y-88717000D01*
X16330000Y-88710000D01*
X16287000Y-88704000D01*
X16190000Y-88695000D01*
X14318000Y-88695000D01*
X14333000Y-88680000D01*
X14438000Y-88596000D01*
X14551000Y-88522000D01*
X14672000Y-88459000D01*
X14801000Y-88408000D01*
X14937000Y-88369000D01*
X15079000Y-88342000D01*
X15139000Y-88337000D01*
X15243000Y-88333000D01*
X15382000Y-88330000D01*
X15548000Y-88328000D01*
X15732000Y-88327000D01*
X15925000Y-88327000D01*
X16119000Y-88327000D01*
X16306000Y-88329000D01*
X16475000Y-88331000D01*
X16620000Y-88334000D01*
X16732000Y-88338000D01*
X16801000Y-88342000D01*
X16914000Y-88358000D01*
X17026000Y-88379000D01*
X17137000Y-88405000D01*
X17249000Y-88438000D01*
X17361000Y-88477000D01*
X17473000Y-88521000D01*
X17585000Y-88571000D01*
X17698000Y-88627000D01*
X17811000Y-88689000D01*
X17925000Y-88758000D01*
X18040000Y-88832000D01*
X18155000Y-88913000D01*
X18315000Y-89031000D01*
X18460000Y-89147000D01*
X18591000Y-89261000D01*
X18709000Y-89374000D01*
X18814000Y-89486000D01*
X18907000Y-89599000D01*
X18989000Y-89713000D01*
X19061000Y-89829000D01*
X19122000Y-89948000D01*
X19174000Y-90072000D01*
X19218000Y-90200000D01*
X19254000Y-90334000D01*
X19260000Y-90364000D01*
X19266000Y-90394000D01*
X19271000Y-90427000D01*
X19275000Y-90464000D01*
X19278000Y-90509000D01*
X19281000Y-90564000D01*
X19283000Y-90632000D01*
X19285000Y-90715000D01*
X19286000Y-90816000D01*
X19288000Y-90938000D01*
X19289000Y-91082000D01*
X19290000Y-91251000D01*
X19291000Y-91392000D01*
X19296000Y-92035000D01*
G37*
%TO.C,R9*%
D12*
X41090000Y-16000000D02*
X43700000Y-16000000D01*
X41090000Y-16000000D02*
G75*
G02*
X38350000Y-16000000I-1370000J0D01*
G01*
X38350000Y-16000000D02*
G75*
G02*
X41090000Y-16000000I1370000J0D01*
G01*
%TO.C,D8*%
X33344000Y-37880000D02*
X33500000Y-37880000D01*
X35660000Y-37880000D02*
X35816000Y-37880000D01*
X33344484Y-37880000D02*
G75*
G02*
X33500000Y-34648563I1235516J1560000D01*
G01*
X33500000Y-37360961D02*
G75*
G02*
X33500000Y-35279039I1080000J1040961D01*
G01*
X35660000Y-34648563D02*
G75*
G02*
X35815516Y-37880000I-1080000J-1671437D01*
G01*
X35660000Y-35279039D02*
G75*
G02*
X35660000Y-37360961I-1080000J-1040961D01*
G01*
%TO.C,Q17*%
X71180000Y-22295000D02*
X74780000Y-22295000D01*
X70623600Y-19346193D02*
G75*
G02*
X72980000Y-17845000I2356400J-1098807D01*
G01*
X71180000Y-22295000D02*
G75*
G02*
X70655816Y-21567795I1800000J1850000D01*
G01*
X72980000Y-17845000D02*
G75*
G02*
X75336400Y-19346193I0J-2600000D01*
G01*
X75304184Y-21567795D02*
G75*
G02*
X74780000Y-22295000I-2324184J1122795D01*
G01*
%TO.C,Q26*%
X82460000Y-36375000D02*
X78860000Y-36375000D01*
X78335816Y-37102205D02*
G75*
G02*
X78860000Y-36375000I2324184J-1122795D01*
G01*
X80660000Y-40825000D02*
G75*
G02*
X78303600Y-39323807I0J2600000D01*
G01*
X82460000Y-36375000D02*
G75*
G02*
X82984184Y-37102205I-1800000J-1850000D01*
G01*
X83016400Y-39323807D02*
G75*
G02*
X80660000Y-40825000I-2356400J1098807D01*
G01*
%TO.C,R17*%
X71810000Y-16000000D02*
X74420000Y-16000000D01*
X71810000Y-16000000D02*
G75*
G02*
X69070000Y-16000000I-1370000J0D01*
G01*
X69070000Y-16000000D02*
G75*
G02*
X71810000Y-16000000I1370000J0D01*
G01*
%TO.C,Q29*%
X86540000Y-22295000D02*
X90140000Y-22295000D01*
X85983600Y-19346193D02*
G75*
G02*
X88340000Y-17845000I2356400J-1098807D01*
G01*
X86540000Y-22295000D02*
G75*
G02*
X86015816Y-21567795I1800000J1850000D01*
G01*
X88340000Y-17845000D02*
G75*
G02*
X90696400Y-19346193I0J-2600000D01*
G01*
X90664184Y-21567795D02*
G75*
G02*
X90140000Y-22295000I-2324184J1122795D01*
G01*
%TO.C,R27*%
X18050000Y-49020000D02*
X20660000Y-49020000D01*
X18050000Y-49020000D02*
G75*
G02*
X15310000Y-49020000I-1370000J0D01*
G01*
X15310000Y-49020000D02*
G75*
G02*
X18050000Y-49020000I1370000J0D01*
G01*
%TO.C,Q14*%
X55820000Y-43885000D02*
X59420000Y-43885000D01*
X55263600Y-40936193D02*
G75*
G02*
X57620000Y-39435000I2356400J-1098807D01*
G01*
X55820000Y-43885000D02*
G75*
G02*
X55295816Y-43157795I1800000J1850000D01*
G01*
X57620000Y-39435000D02*
G75*
G02*
X59976400Y-40936193I0J-2600000D01*
G01*
X59944184Y-43157795D02*
G75*
G02*
X59420000Y-43885000I-2324184J1122795D01*
G01*
%TO.C,R1*%
X10370000Y-16000000D02*
X12980000Y-16000000D01*
X10370000Y-16000000D02*
G75*
G02*
X7630000Y-16000000I-1370000J0D01*
G01*
X7630000Y-16000000D02*
G75*
G02*
X10370000Y-16000000I1370000J0D01*
G01*
%TO.C,Q2*%
X9740000Y-43885000D02*
X13340000Y-43885000D01*
X9183600Y-40936193D02*
G75*
G02*
X11540000Y-39435000I2356400J-1098807D01*
G01*
X9740000Y-43885000D02*
G75*
G02*
X9215816Y-43157795I1800000J1850000D01*
G01*
X11540000Y-39435000D02*
G75*
G02*
X13896400Y-40936193I0J-2600000D01*
G01*
X13864184Y-43157795D02*
G75*
G02*
X13340000Y-43885000I-2324184J1122795D01*
G01*
%TO.C,R40*%
X62590000Y-65370000D02*
X62590000Y-67980000D01*
X63960000Y-64000000D02*
G75*
G02*
X61220000Y-64000000I-1370000J0D01*
G01*
X61220000Y-64000000D02*
G75*
G02*
X63960000Y-64000000I1370000J0D01*
G01*
%TO.C,D1*%
X10304000Y-22640000D02*
X10460000Y-22640000D01*
X12620000Y-22640000D02*
X12776000Y-22640000D01*
X10304484Y-22640000D02*
G75*
G02*
X10460000Y-19408563I1235516J1560000D01*
G01*
X10460000Y-22120961D02*
G75*
G02*
X10460000Y-20039039I1080000J1040961D01*
G01*
X12620000Y-19408563D02*
G75*
G02*
X12775516Y-22640000I-1080000J-1671437D01*
G01*
X12620000Y-20039039D02*
G75*
G02*
X12620000Y-22120961I-1080000J-1040961D01*
G01*
%TO.C,Q9*%
X40460000Y-28645000D02*
X44060000Y-28645000D01*
X39903600Y-25696193D02*
G75*
G02*
X42260000Y-24195000I2356400J-1098807D01*
G01*
X40460000Y-28645000D02*
G75*
G02*
X39935816Y-27917795I1800000J1850000D01*
G01*
X42260000Y-24195000D02*
G75*
G02*
X44616400Y-25696193I0J-2600000D01*
G01*
X44584184Y-27917795D02*
G75*
G02*
X44060000Y-28645000I-2324184J1122795D01*
G01*
%TO.C,R24*%
X87170000Y-29335000D02*
X89780000Y-29335000D01*
X87170000Y-29335000D02*
G75*
G02*
X84430000Y-29335000I-1370000J0D01*
G01*
X84430000Y-29335000D02*
G75*
G02*
X87170000Y-29335000I1370000J0D01*
G01*
%TO.C,Q22*%
X71180000Y-54045000D02*
X74780000Y-54045000D01*
X70623600Y-51096193D02*
G75*
G02*
X72980000Y-49595000I2356400J-1098807D01*
G01*
X71180000Y-54045000D02*
G75*
G02*
X70655816Y-53317795I1800000J1850000D01*
G01*
X72980000Y-49595000D02*
G75*
G02*
X75336400Y-51096193I0J-2600000D01*
G01*
X75304184Y-53317795D02*
G75*
G02*
X74780000Y-54045000I-2324184J1122795D01*
G01*
%TO.C,R35*%
X48770000Y-49020000D02*
X51380000Y-49020000D01*
X48770000Y-49020000D02*
G75*
G02*
X46030000Y-49020000I-1370000J0D01*
G01*
X46030000Y-49020000D02*
G75*
G02*
X48770000Y-49020000I1370000J0D01*
G01*
%TO.C,Q8*%
X36380000Y-40185000D02*
X32780000Y-40185000D01*
X32255816Y-40912205D02*
G75*
G02*
X32780000Y-40185000I2324184J-1122795D01*
G01*
X34580000Y-44635000D02*
G75*
G02*
X32223600Y-43133807I0J2600000D01*
G01*
X36380000Y-40185000D02*
G75*
G02*
X36904184Y-40912205I-1800000J-1850000D01*
G01*
X36936400Y-43133807D02*
G75*
G02*
X34580000Y-44635000I-2356400J1098807D01*
G01*
%TO.C,R19*%
X71810000Y-42670000D02*
X74420000Y-42670000D01*
X71810000Y-42670000D02*
G75*
G02*
X69070000Y-42670000I-1370000J0D01*
G01*
X69070000Y-42670000D02*
G75*
G02*
X71810000Y-42670000I1370000J0D01*
G01*
%TO.C,R28*%
X18050000Y-54100000D02*
X20660000Y-54100000D01*
X18050000Y-54100000D02*
G75*
G02*
X15310000Y-54100000I-1370000J0D01*
G01*
X15310000Y-54100000D02*
G75*
G02*
X18050000Y-54100000I1370000J0D01*
G01*
%TO.C,R18*%
X71810000Y-29335000D02*
X74420000Y-29335000D01*
X71810000Y-29335000D02*
G75*
G02*
X69070000Y-29335000I-1370000J0D01*
G01*
X69070000Y-29335000D02*
G75*
G02*
X71810000Y-29335000I1370000J0D01*
G01*
%TO.C,Q30*%
X86540000Y-27375000D02*
X90140000Y-27375000D01*
X85983600Y-24426193D02*
G75*
G02*
X88340000Y-22925000I2356400J-1098807D01*
G01*
X86540000Y-27375000D02*
G75*
G02*
X86015816Y-26647795I1800000J1850000D01*
G01*
X88340000Y-22925000D02*
G75*
G02*
X90696400Y-24426193I0J-2600000D01*
G01*
X90664184Y-26647795D02*
G75*
G02*
X90140000Y-27375000I-2324184J1122795D01*
G01*
%TO.C,R15*%
X64130000Y-16000000D02*
X66740000Y-16000000D01*
X64130000Y-16000000D02*
G75*
G02*
X61390000Y-16000000I-1370000J0D01*
G01*
X61390000Y-16000000D02*
G75*
G02*
X64130000Y-16000000I1370000J0D01*
G01*
%TO.C,Q13*%
X55820000Y-28645000D02*
X59420000Y-28645000D01*
X55263600Y-25696193D02*
G75*
G02*
X57620000Y-24195000I2356400J-1098807D01*
G01*
X55820000Y-28645000D02*
G75*
G02*
X55295816Y-27917795I1800000J1850000D01*
G01*
X57620000Y-24195000D02*
G75*
G02*
X59976400Y-25696193I0J-2600000D01*
G01*
X59944184Y-27917795D02*
G75*
G02*
X59420000Y-28645000I-2324184J1122795D01*
G01*
%TO.C,Q19*%
X71180000Y-35630000D02*
X74780000Y-35630000D01*
X70623600Y-32681193D02*
G75*
G02*
X72980000Y-31180000I2356400J-1098807D01*
G01*
X71180000Y-35630000D02*
G75*
G02*
X70655816Y-34902795I1800000J1850000D01*
G01*
X72980000Y-31180000D02*
G75*
G02*
X75336400Y-32681193I0J-2600000D01*
G01*
X75304184Y-34902795D02*
G75*
G02*
X74780000Y-35630000I-2324184J1122795D01*
G01*
%TO.C,Q27*%
X82460000Y-44630000D02*
X78860000Y-44630000D01*
X78335816Y-45357205D02*
G75*
G02*
X78860000Y-44630000I2324184J-1122795D01*
G01*
X80660000Y-49080000D02*
G75*
G02*
X78303600Y-47578807I0J2600000D01*
G01*
X82460000Y-44630000D02*
G75*
G02*
X82984184Y-45357205I-1800000J-1850000D01*
G01*
X83016400Y-47578807D02*
G75*
G02*
X80660000Y-49080000I-2356400J1098807D01*
G01*
%TO.C,R29*%
X25730000Y-49020000D02*
X28340000Y-49020000D01*
X25730000Y-49020000D02*
G75*
G02*
X22990000Y-49020000I-1370000J0D01*
G01*
X22990000Y-49020000D02*
G75*
G02*
X25730000Y-49020000I1370000J0D01*
G01*
%TO.C,D3*%
X17984000Y-22640000D02*
X18140000Y-22640000D01*
X20300000Y-22640000D02*
X20456000Y-22640000D01*
X17984484Y-22640000D02*
G75*
G02*
X18140000Y-19408563I1235516J1560000D01*
G01*
X18140000Y-22120961D02*
G75*
G02*
X18140000Y-20039039I1080000J1040961D01*
G01*
X20300000Y-19408563D02*
G75*
G02*
X20455516Y-22640000I-1080000J-1671437D01*
G01*
X20300000Y-20039039D02*
G75*
G02*
X20300000Y-22120961I-1080000J-1040961D01*
G01*
%TO.C,R39*%
X68590000Y-65370000D02*
X68590000Y-67980000D01*
X69960000Y-64000000D02*
G75*
G02*
X67220000Y-64000000I-1370000J0D01*
G01*
X67220000Y-64000000D02*
G75*
G02*
X69960000Y-64000000I1370000J0D01*
G01*
%TO.C,R30*%
X25730000Y-54100000D02*
X28340000Y-54100000D01*
X25730000Y-54100000D02*
G75*
G02*
X22990000Y-54100000I-1370000J0D01*
G01*
X22990000Y-54100000D02*
G75*
G02*
X25730000Y-54100000I1370000J0D01*
G01*
%TO.C,D10*%
X41024000Y-37880000D02*
X41180000Y-37880000D01*
X43340000Y-37880000D02*
X43496000Y-37880000D01*
X41024484Y-37880000D02*
G75*
G02*
X41180000Y-34648563I1235516J1560000D01*
G01*
X41180000Y-37360961D02*
G75*
G02*
X41180000Y-35279039I1080000J1040961D01*
G01*
X43340000Y-34648563D02*
G75*
G02*
X43495516Y-37880000I-1080000J-1671437D01*
G01*
X43340000Y-35279039D02*
G75*
G02*
X43340000Y-37360961I-1080000J-1040961D01*
G01*
%TO.C,R12*%
X48770000Y-31240000D02*
X51380000Y-31240000D01*
X48770000Y-31240000D02*
G75*
G02*
X46030000Y-31240000I-1370000J0D01*
G01*
X46030000Y-31240000D02*
G75*
G02*
X48770000Y-31240000I1370000J0D01*
G01*
%TO.C,R11*%
X48770000Y-16000000D02*
X51380000Y-16000000D01*
X48770000Y-16000000D02*
G75*
G02*
X46030000Y-16000000I-1370000J0D01*
G01*
X46030000Y-16000000D02*
G75*
G02*
X48770000Y-16000000I1370000J0D01*
G01*
%TO.C,Q20*%
X71180000Y-40710000D02*
X74780000Y-40710000D01*
X70623600Y-37761193D02*
G75*
G02*
X72980000Y-36260000I2356400J-1098807D01*
G01*
X71180000Y-40710000D02*
G75*
G02*
X70655816Y-39982795I1800000J1850000D01*
G01*
X72980000Y-36260000D02*
G75*
G02*
X75336400Y-37761193I0J-2600000D01*
G01*
X75304184Y-39982795D02*
G75*
G02*
X74780000Y-40710000I-2324184J1122795D01*
G01*
%TO.C,R10*%
X41090000Y-31240000D02*
X43700000Y-31240000D01*
X41090000Y-31240000D02*
G75*
G02*
X38350000Y-31240000I-1370000J0D01*
G01*
X38350000Y-31240000D02*
G75*
G02*
X41090000Y-31240000I1370000J0D01*
G01*
%TO.C,D7*%
X33344000Y-22640000D02*
X33500000Y-22640000D01*
X35660000Y-22640000D02*
X35816000Y-22640000D01*
X33344484Y-22640000D02*
G75*
G02*
X33500000Y-19408563I1235516J1560000D01*
G01*
X33500000Y-22120961D02*
G75*
G02*
X33500000Y-20039039I1080000J1040961D01*
G01*
X35660000Y-19408563D02*
G75*
G02*
X35815516Y-22640000I-1080000J-1671437D01*
G01*
X35660000Y-20039039D02*
G75*
G02*
X35660000Y-22120961I-1080000J-1040961D01*
G01*
%TO.C,D15*%
X64064000Y-22640000D02*
X64220000Y-22640000D01*
X66380000Y-22640000D02*
X66536000Y-22640000D01*
X64064484Y-22640000D02*
G75*
G02*
X64220000Y-19408563I1235516J1560000D01*
G01*
X64220000Y-22120961D02*
G75*
G02*
X64220000Y-20039039I1080000J1040961D01*
G01*
X66380000Y-19408563D02*
G75*
G02*
X66535516Y-22640000I-1080000J-1671437D01*
G01*
X66380000Y-20039039D02*
G75*
G02*
X66380000Y-22120961I-1080000J-1040961D01*
G01*
%TD*%
M02*
