%TF.GenerationSoftware,KiCad,Pcbnew,10.0.5*%
%TF.CreationDate,2026-09-11T06:46:15-04:00*%
%TF.ProjectId,panelc,70616e65-6c63-42e6-9b69-6361645f7063,rev?*%
%TF.SameCoordinates,Original*%
%TF.FileFunction,Copper,L1,Top*%
%TF.FilePolarity,Positive*%
%FSLAX46Y46*%
G04 Gerber Fmt 4.6, Leading zero omitted, Abs format (unit mm)*
G04 Created by KiCad (PCBNEW 10.0.5) date 2026-09-11 06:46:15*
%MOMM*%
%LPD*%
G01*
G04 APERTURE LIST*
G04 Aperture macros list*
%AMRoundRect*
0 Rectangle with rounded corners*
0 $1 Rounding radius*
0 $2 $3 $4 $5 $6 $7 $8 $9 X,Y pos of 4 corners*
0 Add a 4 corners polygon primitive as box body*
4,1,4,$2,$3,$4,$5,$6,$7,$8,$9,$2,$3,0*
0 Add four circle primitives for the rounded corners*
1,1,$1+$1,$2,$3*
1,1,$1+$1,$4,$5*
1,1,$1+$1,$6,$7*
1,1,$1+$1,$8,$9*
0 Add four rect primitives between the rounded corners*
20,1,$1+$1,$2,$3,$4,$5,0*
20,1,$1+$1,$4,$5,$6,$7,0*
20,1,$1+$1,$6,$7,$8,$9,0*
20,1,$1+$1,$8,$9,$2,$3,0*%
G04 Aperture macros list end*
%TA.AperFunction,ComponentPad*%
%ADD10R,1.500000X1.500000*%
%TD*%
%TA.AperFunction,ComponentPad*%
%ADD11C,1.500000*%
%TD*%
%TA.AperFunction,ComponentPad*%
%ADD12C,1.600000*%
%TD*%
%TA.AperFunction,ComponentPad*%
%ADD13R,1.800000X1.800000*%
%TD*%
%TA.AperFunction,ComponentPad*%
%ADD14C,1.800000*%
%TD*%
%TA.AperFunction,ComponentPad*%
%ADD15C,6.400000*%
%TD*%
%TA.AperFunction,ComponentPad*%
%ADD16RoundRect,0.250000X0.600000X-0.600000X0.600000X0.600000X-0.600000X0.600000X-0.600000X-0.600000X0*%
%TD*%
%TA.AperFunction,ComponentPad*%
%ADD17C,1.700000*%
%TD*%
%TA.AperFunction,ComponentPad*%
%ADD18RoundRect,0.250000X-0.550000X-0.550000X0.550000X-0.550000X0.550000X0.550000X-0.550000X0.550000X0*%
%TD*%
%TA.AperFunction,ComponentPad*%
%ADD19RoundRect,0.250000X-0.550000X0.550000X-0.550000X-0.550000X0.550000X-0.550000X0.550000X0.550000X0*%
%TD*%
%TA.AperFunction,ViaPad*%
%ADD20C,0.800000*%
%TD*%
%TA.AperFunction,ViaPad*%
%ADD21C,0.600000*%
%TD*%
%TA.AperFunction,Conductor*%
%ADD22C,0.500000*%
%TD*%
%TA.AperFunction,Conductor*%
%ADD23C,0.800000*%
%TD*%
%TA.AperFunction,Conductor*%
%ADD24C,0.200000*%
%TD*%
G04 APERTURE END LIST*
D10*
%TO.P,Q16,1*%
%TO.N,GND*%
X67840000Y-42035000D03*
D11*
%TO.P,Q16,2*%
%TO.N,M0*%
X65300000Y-42035000D03*
%TO.P,Q16,3*%
%TO.N,Net-(D16-K)*%
X62760000Y-42035000D03*
%TD*%
D12*
%TO.P,R21,1*%
%TO.N,+5V*%
X78120000Y-29335000D03*
%TO.P,R21,2*%
%TO.N,IN2N*%
X83200000Y-29335000D03*
%TD*%
%TO.P,R3,1*%
%TO.N,+5V*%
X16680000Y-16000000D03*
%TO.P,R3,2*%
%TO.N,Net-(D3-A)*%
X21760000Y-16000000D03*
%TD*%
D13*
%TO.P,D11,1*%
%TO.N,Net-(D11-K)*%
X49940000Y-22350000D03*
D14*
%TO.P,D11,2*%
%TO.N,Net-(D11-A)*%
X49940000Y-19810000D03*
%TD*%
D12*
%TO.P,R23,1*%
%TO.N,IN3N*%
X85800000Y-16000000D03*
%TO.P,R23,2*%
%TO.N,+5V*%
X90880000Y-16000000D03*
%TD*%
D10*
%TO.P,Q3,1*%
%TO.N,GND*%
X21760000Y-26795000D03*
D11*
%TO.P,Q3,2*%
%TO.N,PC6*%
X19220000Y-26795000D03*
%TO.P,Q3,3*%
%TO.N,Net-(D3-K)*%
X16680000Y-26795000D03*
%TD*%
D10*
%TO.P,Q11,1*%
%TO.N,GND*%
X52480000Y-26795000D03*
D11*
%TO.P,Q11,2*%
%TO.N,PC2*%
X49940000Y-26795000D03*
%TO.P,Q11,3*%
%TO.N,Net-(D11-K)*%
X47400000Y-26795000D03*
%TD*%
D10*
%TO.P,Q21,1*%
%TO.N,Net-(Q21-S)*%
X70440000Y-47115000D03*
D11*
%TO.P,Q21,2*%
%TO.N,INP*%
X72980000Y-47115000D03*
%TO.P,Q21,3*%
%TO.N,IN1N*%
X75520000Y-47115000D03*
%TD*%
D10*
%TO.P,Q31,1*%
%TO.N,GND*%
X85800000Y-33780000D03*
D11*
%TO.P,Q31,2*%
%TO.N,IN3N*%
X88340000Y-33780000D03*
%TO.P,Q31,3*%
%TO.N,IN3*%
X90880000Y-33780000D03*
%TD*%
D13*
%TO.P,D9,1*%
%TO.N,Net-(D9-K)*%
X42260000Y-22350000D03*
D14*
%TO.P,D9,2*%
%TO.N,Net-(D9-A)*%
X42260000Y-19810000D03*
%TD*%
D15*
%TO.P,H2,1*%
%TO.N,N/C*%
X96000000Y-50000000D03*
%TD*%
D12*
%TO.P,R16,1*%
%TO.N,+5V*%
X62760000Y-31240000D03*
%TO.P,R16,2*%
%TO.N,Net-(D16-A)*%
X67840000Y-31240000D03*
%TD*%
%TO.P,R20,1*%
%TO.N,+5V*%
X78120000Y-16000000D03*
%TO.P,R20,2*%
%TO.N,IN1*%
X83200000Y-16000000D03*
%TD*%
%TO.P,R2,1*%
%TO.N,Net-(D2-A)*%
X9000000Y-31240000D03*
%TO.P,R2,2*%
%TO.N,+5V*%
X14080000Y-31240000D03*
%TD*%
D13*
%TO.P,D16,1*%
%TO.N,Net-(D16-K)*%
X65300000Y-37590000D03*
D14*
%TO.P,D16,2*%
%TO.N,Net-(D16-A)*%
X65300000Y-35050000D03*
%TD*%
D12*
%TO.P,R38,1*%
%TO.N,SW1*%
X74590000Y-64000000D03*
%TO.P,R38,2*%
%TO.N,Net-(R38-Pad2)*%
X74590000Y-69080000D03*
%TD*%
D13*
%TO.P,D12,1*%
%TO.N,Net-(D12-K)*%
X49940000Y-37590000D03*
D14*
%TO.P,D12,2*%
%TO.N,Net-(D12-A)*%
X49940000Y-35050000D03*
%TD*%
D10*
%TO.P,Q5,1*%
%TO.N,GND*%
X24360000Y-26795000D03*
D11*
%TO.P,Q5,2*%
%TO.N,PC5*%
X26900000Y-26795000D03*
%TO.P,Q5,3*%
%TO.N,Net-(D5-K)*%
X29440000Y-26795000D03*
%TD*%
D13*
%TO.P,D6,1*%
%TO.N,Net-(D6-K)*%
X26900000Y-37590000D03*
D14*
%TO.P,D6,2*%
%TO.N,Net-(D6-A)*%
X26900000Y-35050000D03*
%TD*%
D12*
%TO.P,R26,1*%
%TO.N,GND*%
X9000000Y-54100000D03*
%TO.P,R26,2*%
%TO.N,SW1*%
X14080000Y-54100000D03*
%TD*%
%TO.P,R32,1*%
%TO.N,PC3*%
X32040000Y-54100000D03*
%TO.P,R32,2*%
%TO.N,GND*%
X37120000Y-54100000D03*
%TD*%
D10*
%TO.P,Q12,1*%
%TO.N,GND*%
X52480000Y-42035000D03*
D11*
%TO.P,Q12,2*%
%TO.N,M2*%
X49940000Y-42035000D03*
%TO.P,Q12,3*%
%TO.N,Net-(D12-K)*%
X47400000Y-42035000D03*
%TD*%
D10*
%TO.P,Q23,1*%
%TO.N,GND*%
X83200000Y-19810000D03*
D11*
%TO.P,Q23,2*%
%TO.N,IN1N*%
X80660000Y-19810000D03*
%TO.P,Q23,3*%
%TO.N,IN1*%
X78120000Y-19810000D03*
%TD*%
D13*
%TO.P,D4,1*%
%TO.N,Net-(D4-K)*%
X19220000Y-37590000D03*
D14*
%TO.P,D4,2*%
%TO.N,Net-(D4-A)*%
X19220000Y-35050000D03*
%TD*%
D10*
%TO.P,Q24,1*%
%TO.N,GND*%
X83200000Y-24890000D03*
D11*
%TO.P,Q24,2*%
%TO.N,IN1*%
X80660000Y-24890000D03*
%TO.P,Q24,3*%
%TO.N,BUS1#*%
X78120000Y-24890000D03*
%TD*%
D10*
%TO.P,Q10,1*%
%TO.N,GND*%
X39720000Y-42035000D03*
D11*
%TO.P,Q10,2*%
%TO.N,M3*%
X42260000Y-42035000D03*
%TO.P,Q10,3*%
%TO.N,Net-(D10-K)*%
X44800000Y-42035000D03*
%TD*%
D10*
%TO.P,Q25,1*%
%TO.N,Net-(Q25-S)*%
X83200000Y-33145000D03*
D11*
%TO.P,Q25,2*%
%TO.N,INP*%
X80660000Y-33145000D03*
%TO.P,Q25,3*%
%TO.N,IN2N*%
X78120000Y-33145000D03*
%TD*%
D12*
%TO.P,R33,1*%
%TO.N,GND*%
X39720000Y-49020000D03*
%TO.P,R33,2*%
%TO.N,PC4*%
X44800000Y-49020000D03*
%TD*%
%TO.P,R36,1*%
%TO.N,PC7*%
X47400000Y-54100000D03*
%TO.P,R36,2*%
%TO.N,GND*%
X52480000Y-54100000D03*
%TD*%
%TO.P,R8,1*%
%TO.N,+5V*%
X32040000Y-31240000D03*
%TO.P,R8,2*%
%TO.N,Net-(D8-A)*%
X37120000Y-31240000D03*
%TD*%
%TO.P,C1,1*%
%TO.N,+5V*%
X95000000Y-16500000D03*
%TO.P,C1,2*%
%TO.N,GND*%
X95000000Y-19000000D03*
%TD*%
%TO.P,R31,1*%
%TO.N,PC2*%
X32040000Y-49020000D03*
%TO.P,R31,2*%
%TO.N,GND*%
X37120000Y-49020000D03*
%TD*%
D16*
%TO.P,J1,1*%
%TO.N,+5V*%
X10630000Y-7500000D03*
D17*
%TO.P,J1,2*%
X10630000Y-4960000D03*
%TO.P,J1,3*%
%TO.N,GND*%
X13170000Y-7500000D03*
%TO.P,J1,4*%
X13170000Y-4960000D03*
%TO.P,J1,5*%
%TO.N,unconnected-(J1-Pin_5-Pad5)*%
X15710000Y-7500000D03*
%TO.P,J1,6*%
%TO.N,GND*%
X15710000Y-4960000D03*
%TO.P,J1,7*%
%TO.N,unconnected-(J1-Pin_7-Pad7)*%
X18250000Y-7500000D03*
%TO.P,J1,8*%
%TO.N,GND*%
X18250000Y-4960000D03*
%TO.P,J1,9*%
%TO.N,BUS0#*%
X20790000Y-7500000D03*
%TO.P,J1,10*%
%TO.N,BUS1#*%
X20790000Y-4960000D03*
%TO.P,J1,11*%
%TO.N,BUS2#*%
X23330000Y-7500000D03*
%TO.P,J1,12*%
%TO.N,BUS3#*%
X23330000Y-4960000D03*
%TO.P,J1,13*%
%TO.N,unconnected-(J1-Pin_13-Pad13)*%
X25870000Y-7500000D03*
%TO.P,J1,14*%
%TO.N,unconnected-(J1-Pin_14-Pad14)*%
X25870000Y-4960000D03*
%TO.P,J1,15*%
%TO.N,unconnected-(J1-Pin_15-Pad15)*%
X28410000Y-7500000D03*
%TO.P,J1,16*%
%TO.N,unconnected-(J1-Pin_16-Pad16)*%
X28410000Y-4960000D03*
%TO.P,J1,17*%
%TO.N,unconnected-(J1-Pin_17-Pad17)*%
X30950000Y-7500000D03*
%TO.P,J1,18*%
%TO.N,unconnected-(J1-Pin_18-Pad18)*%
X30950000Y-4960000D03*
%TO.P,J1,19*%
%TO.N,unconnected-(J1-Pin_19-Pad19)*%
X33490000Y-7500000D03*
%TO.P,J1,20*%
%TO.N,unconnected-(J1-Pin_20-Pad20)*%
X33490000Y-4960000D03*
%TO.P,J1,21*%
%TO.N,PC0*%
X36030000Y-7500000D03*
%TO.P,J1,22*%
%TO.N,PC1*%
X36030000Y-4960000D03*
%TO.P,J1,23*%
%TO.N,PC2*%
X38570000Y-7500000D03*
%TO.P,J1,24*%
%TO.N,PC3*%
X38570000Y-4960000D03*
%TO.P,J1,25*%
%TO.N,PC4*%
X41110000Y-7500000D03*
%TO.P,J1,26*%
%TO.N,PC5*%
X41110000Y-4960000D03*
%TO.P,J1,27*%
%TO.N,PC6*%
X43650000Y-7500000D03*
%TO.P,J1,28*%
%TO.N,PC7*%
X43650000Y-4960000D03*
%TO.P,J1,29*%
%TO.N,M0*%
X46190000Y-7500000D03*
%TO.P,J1,30*%
%TO.N,M1*%
X46190000Y-4960000D03*
%TO.P,J1,31*%
%TO.N,M2*%
X48730000Y-7500000D03*
%TO.P,J1,32*%
%TO.N,M3*%
X48730000Y-4960000D03*
%TO.P,J1,33*%
%TO.N,M4*%
X51270000Y-7500000D03*
%TO.P,J1,34*%
%TO.N,M5*%
X51270000Y-4960000D03*
%TO.P,J1,35*%
%TO.N,M6*%
X53810000Y-7500000D03*
%TO.P,J1,36*%
%TO.N,M7*%
X53810000Y-4960000D03*
%TO.P,J1,37*%
%TO.N,unconnected-(J1-Pin_37-Pad37)*%
X56350000Y-7500000D03*
%TO.P,J1,38*%
%TO.N,unconnected-(J1-Pin_38-Pad38)*%
X56350000Y-4960000D03*
%TO.P,J1,39*%
%TO.N,unconnected-(J1-Pin_39-Pad39)*%
X58890000Y-7500000D03*
%TO.P,J1,40*%
%TO.N,unconnected-(J1-Pin_40-Pad40)*%
X58890000Y-4960000D03*
%TO.P,J1,41*%
%TO.N,unconnected-(J1-Pin_41-Pad41)*%
X61430000Y-7500000D03*
%TO.P,J1,42*%
%TO.N,unconnected-(J1-Pin_42-Pad42)*%
X61430000Y-4960000D03*
%TO.P,J1,43*%
%TO.N,unconnected-(J1-Pin_43-Pad43)*%
X63970000Y-7500000D03*
%TO.P,J1,44*%
%TO.N,unconnected-(J1-Pin_44-Pad44)*%
X63970000Y-4960000D03*
%TO.P,J1,45*%
%TO.N,unconnected-(J1-Pin_45-Pad45)*%
X66510000Y-7500000D03*
%TO.P,J1,46*%
%TO.N,unconnected-(J1-Pin_46-Pad46)*%
X66510000Y-4960000D03*
%TO.P,J1,47*%
%TO.N,unconnected-(J1-Pin_47-Pad47)*%
X69050000Y-7500000D03*
%TO.P,J1,48*%
%TO.N,unconnected-(J1-Pin_48-Pad48)*%
X69050000Y-4960000D03*
%TO.P,J1,49*%
%TO.N,unconnected-(J1-Pin_49-Pad49)*%
X71590000Y-7500000D03*
%TO.P,J1,50*%
%TO.N,unconnected-(J1-Pin_50-Pad50)*%
X71590000Y-4960000D03*
%TO.P,J1,51*%
%TO.N,unconnected-(J1-Pin_51-Pad51)*%
X74130000Y-7500000D03*
%TO.P,J1,52*%
%TO.N,unconnected-(J1-Pin_52-Pad52)*%
X74130000Y-4960000D03*
%TO.P,J1,53*%
%TO.N,unconnected-(J1-Pin_53-Pad53)*%
X76670000Y-7500000D03*
%TO.P,J1,54*%
%TO.N,unconnected-(J1-Pin_54-Pad54)*%
X76670000Y-4960000D03*
%TO.P,J1,55*%
%TO.N,unconnected-(J1-Pin_55-Pad55)*%
X79210000Y-7500000D03*
%TO.P,J1,56*%
%TO.N,unconnected-(J1-Pin_56-Pad56)*%
X79210000Y-4960000D03*
%TO.P,J1,57*%
%TO.N,unconnected-(J1-Pin_57-Pad57)*%
X81750000Y-7500000D03*
%TO.P,J1,58*%
%TO.N,unconnected-(J1-Pin_58-Pad58)*%
X81750000Y-4960000D03*
%TO.P,J1,59*%
%TO.N,unconnected-(J1-Pin_59-Pad59)*%
X84290000Y-7500000D03*
%TO.P,J1,60*%
%TO.N,unconnected-(J1-Pin_60-Pad60)*%
X84290000Y-4960000D03*
%TO.P,J1,61*%
%TO.N,unconnected-(J1-Pin_61-Pad61)*%
X86830000Y-7500000D03*
%TO.P,J1,62*%
%TO.N,INP*%
X86830000Y-4960000D03*
%TO.P,J1,63*%
%TO.N,+5V*%
X89370000Y-7500000D03*
%TO.P,J1,64*%
%TO.N,GND*%
X89370000Y-4960000D03*
%TD*%
D12*
%TO.P,R13,1*%
%TO.N,Net-(D13-A)*%
X55080000Y-16000000D03*
%TO.P,R13,2*%
%TO.N,+5V*%
X60160000Y-16000000D03*
%TD*%
D13*
%TO.P,D13,1*%
%TO.N,Net-(D13-K)*%
X57620000Y-22350000D03*
D14*
%TO.P,D13,2*%
%TO.N,Net-(D13-A)*%
X57620000Y-19810000D03*
%TD*%
D12*
%TO.P,R22,1*%
%TO.N,+5V*%
X78120000Y-42670000D03*
%TO.P,R22,2*%
%TO.N,IN2*%
X83200000Y-42670000D03*
%TD*%
%TO.P,R7,1*%
%TO.N,+5V*%
X32040000Y-16000000D03*
%TO.P,R7,2*%
%TO.N,Net-(D7-A)*%
X37120000Y-16000000D03*
%TD*%
%TO.P,R25,1*%
%TO.N,GND*%
X9000000Y-49020000D03*
%TO.P,R25,2*%
%TO.N,SW0*%
X14080000Y-49020000D03*
%TD*%
D10*
%TO.P,Q18,1*%
%TO.N,GND*%
X70440000Y-25525000D03*
D11*
%TO.P,Q18,2*%
%TO.N,SW0*%
X72980000Y-25525000D03*
%TO.P,Q18,3*%
%TO.N,Net-(Q17-S)*%
X75520000Y-25525000D03*
%TD*%
D12*
%TO.P,R4,1*%
%TO.N,+5V*%
X16680000Y-31240000D03*
%TO.P,R4,2*%
%TO.N,Net-(D4-A)*%
X21760000Y-31240000D03*
%TD*%
%TO.P,R34,1*%
%TO.N,GND*%
X39720000Y-54100000D03*
%TO.P,R34,2*%
%TO.N,PC5*%
X44800000Y-54100000D03*
%TD*%
D10*
%TO.P,Q4,1*%
%TO.N,GND*%
X21760000Y-42035000D03*
D11*
%TO.P,Q4,2*%
%TO.N,M6*%
X19220000Y-42035000D03*
%TO.P,Q4,3*%
%TO.N,Net-(D4-K)*%
X16680000Y-42035000D03*
%TD*%
D10*
%TO.P,Q32,1*%
%TO.N,GND*%
X85800000Y-38860000D03*
D11*
%TO.P,Q32,2*%
%TO.N,IN3*%
X88340000Y-38860000D03*
%TO.P,Q32,3*%
%TO.N,BUS3#*%
X90880000Y-38860000D03*
%TD*%
D10*
%TO.P,Q6,1*%
%TO.N,GND*%
X24360000Y-42035000D03*
D11*
%TO.P,Q6,2*%
%TO.N,M5*%
X26900000Y-42035000D03*
%TO.P,Q6,3*%
%TO.N,Net-(D6-K)*%
X29440000Y-42035000D03*
%TD*%
D13*
%TO.P,D14,1*%
%TO.N,Net-(D14-K)*%
X57620000Y-37590000D03*
D14*
%TO.P,D14,2*%
%TO.N,Net-(D14-A)*%
X57620000Y-35050000D03*
%TD*%
D10*
%TO.P,Q15,1*%
%TO.N,GND*%
X67840000Y-26795000D03*
D11*
%TO.P,Q15,2*%
%TO.N,PC0*%
X65300000Y-26795000D03*
%TO.P,Q15,3*%
%TO.N,Net-(D15-K)*%
X62760000Y-26795000D03*
%TD*%
D10*
%TO.P,Q1,1*%
%TO.N,GND*%
X9000000Y-26795000D03*
D11*
%TO.P,Q1,2*%
%TO.N,PC7*%
X11540000Y-26795000D03*
%TO.P,Q1,3*%
%TO.N,Net-(D1-K)*%
X14080000Y-26795000D03*
%TD*%
D12*
%TO.P,R37,1*%
%TO.N,SW0*%
X80590000Y-64000000D03*
%TO.P,R37,2*%
%TO.N,Net-(R37-Pad2)*%
X80590000Y-69080000D03*
%TD*%
D10*
%TO.P,Q28,1*%
%TO.N,GND*%
X83200000Y-51560000D03*
D11*
%TO.P,Q28,2*%
%TO.N,IN2*%
X80660000Y-51560000D03*
%TO.P,Q28,3*%
%TO.N,BUS2#*%
X78120000Y-51560000D03*
%TD*%
D10*
%TO.P,Q7,1*%
%TO.N,GND*%
X37120000Y-26795000D03*
D11*
%TO.P,Q7,2*%
%TO.N,PC4*%
X34580000Y-26795000D03*
%TO.P,Q7,3*%
%TO.N,Net-(D7-K)*%
X32040000Y-26795000D03*
%TD*%
D12*
%TO.P,R5,1*%
%TO.N,Net-(D5-A)*%
X24360000Y-16000000D03*
%TO.P,R5,2*%
%TO.N,+5V*%
X29440000Y-16000000D03*
%TD*%
D13*
%TO.P,D5,1*%
%TO.N,Net-(D5-K)*%
X26900000Y-22350000D03*
D14*
%TO.P,D5,2*%
%TO.N,Net-(D5-A)*%
X26900000Y-19810000D03*
%TD*%
D12*
%TO.P,R6,1*%
%TO.N,Net-(D6-A)*%
X24360000Y-31240000D03*
%TO.P,R6,2*%
%TO.N,+5V*%
X29440000Y-31240000D03*
%TD*%
D18*
%TO.P,SW1,1*%
%TO.N,Net-(R37-Pad2)*%
X84590000Y-64000000D03*
D12*
%TO.P,SW1,2*%
%TO.N,Net-(R38-Pad2)*%
X84590000Y-66540000D03*
%TO.P,SW1,3*%
%TO.N,Net-(R39-Pad2)*%
X84590000Y-69080000D03*
%TO.P,SW1,4*%
%TO.N,Net-(R40-Pad2)*%
X84590000Y-71620000D03*
%TO.P,SW1,5*%
%TO.N,+5V*%
X92210000Y-71620000D03*
%TO.P,SW1,6*%
X92210000Y-69080000D03*
%TO.P,SW1,7*%
X92210000Y-66540000D03*
%TO.P,SW1,8*%
X92210000Y-64000000D03*
%TD*%
D13*
%TO.P,D2,1*%
%TO.N,Net-(D2-K)*%
X11540000Y-37590000D03*
D14*
%TO.P,D2,2*%
%TO.N,Net-(D2-A)*%
X11540000Y-35050000D03*
%TD*%
D12*
%TO.P,R14,1*%
%TO.N,Net-(D14-A)*%
X55080000Y-31240000D03*
%TO.P,R14,2*%
%TO.N,+5V*%
X60160000Y-31240000D03*
%TD*%
D19*
%TO.P,C2,1*%
%TO.N,+5V*%
X95000000Y-26000000D03*
D12*
%TO.P,C2,2*%
%TO.N,GND*%
X95000000Y-28000000D03*
%TD*%
%TO.P,R9,1*%
%TO.N,Net-(D9-A)*%
X39720000Y-16000000D03*
%TO.P,R9,2*%
%TO.N,+5V*%
X44800000Y-16000000D03*
%TD*%
D13*
%TO.P,D8,1*%
%TO.N,Net-(D8-K)*%
X34580000Y-37590000D03*
D14*
%TO.P,D8,2*%
%TO.N,Net-(D8-A)*%
X34580000Y-35050000D03*
%TD*%
D10*
%TO.P,Q17,1*%
%TO.N,Net-(Q17-S)*%
X70440000Y-20445000D03*
D11*
%TO.P,Q17,2*%
%TO.N,INP*%
X72980000Y-20445000D03*
%TO.P,Q17,3*%
%TO.N,IN0N*%
X75520000Y-20445000D03*
%TD*%
D10*
%TO.P,Q26,1*%
%TO.N,GND*%
X83200000Y-38225000D03*
D11*
%TO.P,Q26,2*%
%TO.N,SW2*%
X80660000Y-38225000D03*
%TO.P,Q26,3*%
%TO.N,Net-(Q25-S)*%
X78120000Y-38225000D03*
%TD*%
D12*
%TO.P,R17,1*%
%TO.N,IN0N*%
X70440000Y-16000000D03*
%TO.P,R17,2*%
%TO.N,+5V*%
X75520000Y-16000000D03*
%TD*%
D10*
%TO.P,Q29,1*%
%TO.N,Net-(Q29-S)*%
X85800000Y-20445000D03*
D11*
%TO.P,Q29,2*%
%TO.N,INP*%
X88340000Y-20445000D03*
%TO.P,Q29,3*%
%TO.N,IN3N*%
X90880000Y-20445000D03*
%TD*%
D12*
%TO.P,R27,1*%
%TO.N,SW2*%
X16680000Y-49020000D03*
%TO.P,R27,2*%
%TO.N,GND*%
X21760000Y-49020000D03*
%TD*%
D10*
%TO.P,Q14,1*%
%TO.N,GND*%
X55080000Y-42035000D03*
D11*
%TO.P,Q14,2*%
%TO.N,M1*%
X57620000Y-42035000D03*
%TO.P,Q14,3*%
%TO.N,Net-(D14-K)*%
X60160000Y-42035000D03*
%TD*%
D12*
%TO.P,R1,1*%
%TO.N,Net-(D1-A)*%
X9000000Y-16000000D03*
%TO.P,R1,2*%
%TO.N,+5V*%
X14080000Y-16000000D03*
%TD*%
D10*
%TO.P,Q2,1*%
%TO.N,GND*%
X9000000Y-42035000D03*
D11*
%TO.P,Q2,2*%
%TO.N,M7*%
X11540000Y-42035000D03*
%TO.P,Q2,3*%
%TO.N,Net-(D2-K)*%
X14080000Y-42035000D03*
%TD*%
D12*
%TO.P,R40,1*%
%TO.N,SW3*%
X62590000Y-64000000D03*
%TO.P,R40,2*%
%TO.N,Net-(R40-Pad2)*%
X62590000Y-69080000D03*
%TD*%
D13*
%TO.P,D1,1*%
%TO.N,Net-(D1-K)*%
X11540000Y-22350000D03*
D14*
%TO.P,D1,2*%
%TO.N,Net-(D1-A)*%
X11540000Y-19810000D03*
%TD*%
D10*
%TO.P,Q9,1*%
%TO.N,GND*%
X39720000Y-26795000D03*
D11*
%TO.P,Q9,2*%
%TO.N,PC3*%
X42260000Y-26795000D03*
%TO.P,Q9,3*%
%TO.N,Net-(D9-K)*%
X44800000Y-26795000D03*
%TD*%
D12*
%TO.P,R24,1*%
%TO.N,IN3*%
X85800000Y-29335000D03*
%TO.P,R24,2*%
%TO.N,+5V*%
X90880000Y-29335000D03*
%TD*%
D10*
%TO.P,Q22,1*%
%TO.N,GND*%
X70440000Y-52195000D03*
D11*
%TO.P,Q22,2*%
%TO.N,SW1*%
X72980000Y-52195000D03*
%TO.P,Q22,3*%
%TO.N,Net-(Q21-S)*%
X75520000Y-52195000D03*
%TD*%
D12*
%TO.P,R35,1*%
%TO.N,PC6*%
X47400000Y-49020000D03*
%TO.P,R35,2*%
%TO.N,GND*%
X52480000Y-49020000D03*
%TD*%
D10*
%TO.P,Q8,1*%
%TO.N,GND*%
X37120000Y-42035000D03*
D11*
%TO.P,Q8,2*%
%TO.N,M4*%
X34580000Y-42035000D03*
%TO.P,Q8,3*%
%TO.N,Net-(D8-K)*%
X32040000Y-42035000D03*
%TD*%
D12*
%TO.P,R19,1*%
%TO.N,IN1N*%
X70440000Y-42670000D03*
%TO.P,R19,2*%
%TO.N,+5V*%
X75520000Y-42670000D03*
%TD*%
%TO.P,R28,1*%
%TO.N,SW3*%
X16680000Y-54100000D03*
%TO.P,R28,2*%
%TO.N,GND*%
X21760000Y-54100000D03*
%TD*%
%TO.P,R18,1*%
%TO.N,IN0*%
X70440000Y-29335000D03*
%TO.P,R18,2*%
%TO.N,+5V*%
X75520000Y-29335000D03*
%TD*%
D10*
%TO.P,Q30,1*%
%TO.N,GND*%
X85800000Y-25525000D03*
D11*
%TO.P,Q30,2*%
%TO.N,SW3*%
X88340000Y-25525000D03*
%TO.P,Q30,3*%
%TO.N,Net-(Q29-S)*%
X90880000Y-25525000D03*
%TD*%
D12*
%TO.P,R15,1*%
%TO.N,+5V*%
X62760000Y-16000000D03*
%TO.P,R15,2*%
%TO.N,Net-(D15-A)*%
X67840000Y-16000000D03*
%TD*%
D10*
%TO.P,Q13,1*%
%TO.N,GND*%
X55080000Y-26795000D03*
D11*
%TO.P,Q13,2*%
%TO.N,PC1*%
X57620000Y-26795000D03*
%TO.P,Q13,3*%
%TO.N,Net-(D13-K)*%
X60160000Y-26795000D03*
%TD*%
D10*
%TO.P,Q19,1*%
%TO.N,GND*%
X70440000Y-33780000D03*
D11*
%TO.P,Q19,2*%
%TO.N,IN0N*%
X72980000Y-33780000D03*
%TO.P,Q19,3*%
%TO.N,IN0*%
X75520000Y-33780000D03*
%TD*%
D10*
%TO.P,Q27,1*%
%TO.N,GND*%
X83200000Y-46480000D03*
D11*
%TO.P,Q27,2*%
%TO.N,IN2N*%
X80660000Y-46480000D03*
%TO.P,Q27,3*%
%TO.N,IN2*%
X78120000Y-46480000D03*
%TD*%
D12*
%TO.P,R29,1*%
%TO.N,GND*%
X24360000Y-49020000D03*
%TO.P,R29,2*%
%TO.N,PC0*%
X29440000Y-49020000D03*
%TD*%
D13*
%TO.P,D3,1*%
%TO.N,Net-(D3-K)*%
X19220000Y-22350000D03*
D14*
%TO.P,D3,2*%
%TO.N,Net-(D3-A)*%
X19220000Y-19810000D03*
%TD*%
D12*
%TO.P,R39,1*%
%TO.N,SW2*%
X68590000Y-64000000D03*
%TO.P,R39,2*%
%TO.N,Net-(R39-Pad2)*%
X68590000Y-69080000D03*
%TD*%
D15*
%TO.P,H1,1*%
%TO.N,N/C*%
X4000000Y-50000000D03*
%TD*%
D12*
%TO.P,R30,1*%
%TO.N,GND*%
X24360000Y-54100000D03*
%TO.P,R30,2*%
%TO.N,PC1*%
X29440000Y-54100000D03*
%TD*%
D13*
%TO.P,D10,1*%
%TO.N,Net-(D10-K)*%
X42260000Y-37590000D03*
D14*
%TO.P,D10,2*%
%TO.N,Net-(D10-A)*%
X42260000Y-35050000D03*
%TD*%
D12*
%TO.P,R12,1*%
%TO.N,+5V*%
X47400000Y-31240000D03*
%TO.P,R12,2*%
%TO.N,Net-(D12-A)*%
X52480000Y-31240000D03*
%TD*%
%TO.P,R11,1*%
%TO.N,+5V*%
X47400000Y-16000000D03*
%TO.P,R11,2*%
%TO.N,Net-(D11-A)*%
X52480000Y-16000000D03*
%TD*%
D10*
%TO.P,Q20,1*%
%TO.N,GND*%
X70440000Y-38860000D03*
D11*
%TO.P,Q20,2*%
%TO.N,IN0*%
X72980000Y-38860000D03*
%TO.P,Q20,3*%
%TO.N,BUS0#*%
X75520000Y-38860000D03*
%TD*%
D12*
%TO.P,R10,1*%
%TO.N,Net-(D10-A)*%
X39720000Y-31240000D03*
%TO.P,R10,2*%
%TO.N,+5V*%
X44800000Y-31240000D03*
%TD*%
D13*
%TO.P,D7,1*%
%TO.N,Net-(D7-K)*%
X34580000Y-22350000D03*
D14*
%TO.P,D7,2*%
%TO.N,Net-(D7-A)*%
X34580000Y-19810000D03*
%TD*%
D13*
%TO.P,D15,1*%
%TO.N,Net-(D15-K)*%
X65300000Y-22350000D03*
D14*
%TO.P,D15,2*%
%TO.N,Net-(D15-A)*%
X65300000Y-19810000D03*
%TD*%
D20*
%TO.N,+5V*%
X30770000Y-14000000D03*
X89370000Y-14000000D03*
X46130000Y-14000000D03*
X10630000Y-14000000D03*
X15410000Y-14000000D03*
X76850000Y-14000000D03*
X61490000Y-14000000D03*
X92210000Y-14000000D03*
D21*
%TO.N,BUS0#*%
X26534800Y-14862600D03*
%TO.N,BUS1#*%
X55945100Y-14975700D03*
X53989500Y-11568100D03*
%TO.N,BUS2#*%
X18173600Y-25727300D03*
%TO.N,BUS3#*%
X55207900Y-6132700D03*
D20*
%TO.N,GND*%
X38450000Y-12500000D03*
X95000000Y-21500000D03*
X95000000Y-30500000D03*
X53810000Y-12500000D03*
X7730000Y-12500000D03*
X69170000Y-12500000D03*
X84530000Y-12500000D03*
X23090000Y-12500000D03*
X89370000Y-2460000D03*
X18250000Y-2460000D03*
D21*
%TO.N,M0*%
X59354100Y-10936200D03*
%TO.N,M3*%
X41288600Y-36122300D03*
X43122700Y-33386600D03*
%TO.N,M4*%
X49665700Y-18072100D03*
%TO.N,M6*%
X48913900Y-18286000D03*
%TO.N,PC1*%
X56278300Y-9243100D03*
X34123800Y-49189700D03*
%TO.N,PC2*%
X40846400Y-10869300D03*
X41405900Y-15824400D03*
%TO.N,PC3*%
X37332000Y-34868500D03*
%TO.N,PC4*%
X39409900Y-32688600D03*
X35165100Y-24106200D03*
X41284900Y-17994600D03*
%TO.N,PC5*%
X35060300Y-15544300D03*
%TO.N,PC6*%
X43650000Y-25726600D03*
%TO.N,PC7*%
X31563500Y-10710700D03*
X24895800Y-17340700D03*
%TD*%
%TO.N,+5V*%
D22*
X98000000Y-26000000D02*
X95000000Y-26000000D01*
D23*
X92210000Y-14000000D02*
X98000000Y-14000000D01*
D22*
X10630000Y-7500000D02*
X10630000Y-4960000D01*
D23*
X10630000Y-14000000D02*
X15410000Y-14000000D01*
D22*
X98000000Y-14000000D02*
X98000000Y-26000000D01*
X95000000Y-14000000D02*
X95000000Y-16500000D01*
D23*
X15410000Y-14000000D02*
X92210000Y-14000000D01*
%TO.N,BUS0#*%
D24*
X61106200Y-21080100D02*
X55639100Y-21080100D01*
X66693900Y-26667800D02*
X61106200Y-21080100D01*
X55639100Y-21080100D02*
X49421600Y-14862600D01*
X75520000Y-38860000D02*
X71586100Y-34926100D01*
X71586100Y-34926100D02*
X71586100Y-32397100D01*
X71586100Y-32397100D02*
X66693900Y-27504900D01*
X49421600Y-14862600D02*
X26534800Y-14862600D01*
X66693900Y-27504900D02*
X66693900Y-26667800D01*
%TO.N,BUS1#*%
X23644300Y-6230000D02*
X24600100Y-7185800D01*
X22060000Y-6230000D02*
X23644300Y-6230000D01*
X24600100Y-7804600D02*
X28363600Y-11568100D01*
X58576900Y-17607500D02*
X65341000Y-17607500D01*
X28363600Y-11568100D02*
X53989500Y-11568100D01*
X65341000Y-17607500D02*
X71594800Y-23861300D01*
X77091300Y-23861300D02*
X78120000Y-24890000D01*
X71594800Y-23861300D02*
X77091300Y-23861300D01*
X24600100Y-7185800D02*
X24600100Y-7804600D01*
X55945100Y-14975700D02*
X58576900Y-17607500D01*
X20790000Y-4960000D02*
X22060000Y-6230000D01*
%TO.N,BUS2#*%
X18218300Y-39094400D02*
X18039400Y-38915500D01*
X76479700Y-53200300D02*
X69388500Y-53200300D01*
X18218300Y-42451200D02*
X18218300Y-39094400D01*
X18803800Y-43036700D02*
X18218300Y-42451200D01*
X21969300Y-43036700D02*
X18803800Y-43036700D01*
X66761800Y-50573600D02*
X29506200Y-50573600D01*
X18039400Y-25861500D02*
X18173600Y-25727300D01*
X69388500Y-53200300D02*
X66761800Y-50573600D01*
X18039400Y-38915500D02*
X18039400Y-25861500D01*
X29506200Y-50573600D02*
X21969300Y-43036700D01*
X78120000Y-51560000D02*
X76479700Y-53200300D01*
%TO.N,BUS3#*%
X50000100Y-4629100D02*
X48794200Y-3423200D01*
X48794200Y-3423200D02*
X24866800Y-3423200D01*
X50877600Y-6132700D02*
X50000100Y-5255200D01*
X24866800Y-3423200D02*
X23330000Y-4960000D01*
X55207900Y-6132700D02*
X50877600Y-6132700D01*
X50000100Y-5255200D02*
X50000100Y-4629100D01*
%TO.N,GND*%
D22*
X18250000Y-4960000D02*
X18250000Y-2460000D01*
X95000000Y-19000000D02*
X95000000Y-21500000D01*
X95000000Y-28000000D02*
X95000000Y-30500000D01*
X13170000Y-7500000D02*
X13170000Y-4960000D01*
D23*
X7730000Y-12500000D02*
X84530000Y-12500000D01*
D22*
X13170000Y-4960000D02*
X18250000Y-4960000D01*
X89370000Y-4960000D02*
X89370000Y-2460000D01*
X13170000Y-7500000D02*
X13170000Y-12500000D01*
%TO.N,IN0*%
D24*
X75520000Y-33780000D02*
X71075000Y-29335000D01*
X71075000Y-29335000D02*
X70440000Y-29335000D01*
%TO.N,IN1N*%
X75520000Y-47115000D02*
X71075000Y-42670000D01*
X71075000Y-42670000D02*
X70440000Y-42670000D01*
%TO.N,IN2*%
X82981200Y-42670000D02*
X83200000Y-42670000D01*
X78645600Y-47005600D02*
X82981200Y-42670000D01*
X78120000Y-46480000D02*
X78645600Y-47005600D01*
X78645600Y-47005600D02*
X80660000Y-49020000D01*
X80660000Y-49020000D02*
X80660000Y-51560000D01*
%TO.N,IN2N*%
X81930000Y-29335000D02*
X83200000Y-29335000D01*
X78120000Y-33145000D02*
X81930000Y-29335000D01*
%TO.N,IN3*%
X88340000Y-36268400D02*
X90536700Y-34071700D01*
X90588300Y-34071700D02*
X90536700Y-34071700D01*
X88340000Y-38860000D02*
X88340000Y-36268400D01*
X90536700Y-34071700D02*
X85800000Y-29335000D01*
X90880000Y-33780000D02*
X90588300Y-34071700D01*
%TO.N,IN3N*%
X90880000Y-20445000D02*
X86435000Y-16000000D01*
X86435000Y-16000000D02*
X85800000Y-16000000D01*
%TO.N,INP*%
X84500000Y-29536400D02*
X84500000Y-24285000D01*
X74001300Y-48136300D02*
X72980000Y-47115000D01*
X80891400Y-33145000D02*
X84500000Y-29536400D01*
X75941100Y-48136300D02*
X74001300Y-48136300D01*
X76820100Y-47257300D02*
X75941100Y-48136300D01*
X84500000Y-24285000D02*
X88340000Y-20445000D01*
X72980000Y-20445000D02*
X74362100Y-21827100D01*
X76820100Y-36984900D02*
X76820100Y-47257300D01*
X80660000Y-33145000D02*
X76820100Y-36984900D01*
X82042100Y-21827100D02*
X84500000Y-24285000D01*
X80660000Y-33145000D02*
X80891400Y-33145000D01*
X74362100Y-21827100D02*
X82042100Y-21827100D01*
%TO.N,M0*%
X59354100Y-10936200D02*
X49626200Y-10936200D01*
X49626200Y-10936200D02*
X46190000Y-7500000D01*
%TO.N,M3*%
X42258500Y-33386600D02*
X43122700Y-33386600D01*
X41107400Y-34537700D02*
X42258500Y-33386600D01*
X41107400Y-35941100D02*
X41107400Y-34537700D01*
X41288600Y-36122300D02*
X41107400Y-35941100D01*
%TO.N,M4*%
X49665700Y-18072100D02*
X49665700Y-18455600D01*
X39891700Y-34616600D02*
X34580000Y-39928300D01*
X39891700Y-34119000D02*
X39891700Y-34616600D01*
X49665700Y-18455600D02*
X46366800Y-21754500D01*
X46366800Y-27643900D02*
X39891700Y-34119000D01*
X46366800Y-21754500D02*
X46366800Y-27643900D01*
X34580000Y-39928300D02*
X34580000Y-42035000D01*
%TO.N,M6*%
X45983300Y-27456000D02*
X45983300Y-21216600D01*
X37119300Y-36320000D02*
X45983300Y-27456000D01*
X24935000Y-36320000D02*
X37119300Y-36320000D01*
X19220000Y-42035000D02*
X24935000Y-36320000D01*
X45983300Y-21216600D02*
X48913900Y-18286000D01*
%TO.N,Net-(D3-K)*%
X19220000Y-23501700D02*
X16680000Y-26041700D01*
X19220000Y-22350000D02*
X19220000Y-23501700D01*
X16680000Y-26041700D02*
X16680000Y-26795000D01*
%TO.N,Net-(D5-A)*%
X26900000Y-18540000D02*
X24360000Y-16000000D01*
X26900000Y-19810000D02*
X26900000Y-18540000D01*
%TO.N,Net-(D6-A)*%
X26900000Y-35050000D02*
X24360000Y-32510000D01*
X24360000Y-32510000D02*
X24360000Y-31240000D01*
%TO.N,Net-(D6-K)*%
X26900000Y-37590000D02*
X26900000Y-38741700D01*
X26900000Y-38741700D02*
X29440000Y-41281700D01*
X29440000Y-41281700D02*
X29440000Y-42035000D01*
%TO.N,Net-(D9-A)*%
X42260000Y-18187900D02*
X40072100Y-16000000D01*
X40072100Y-16000000D02*
X39720000Y-16000000D01*
X42260000Y-19810000D02*
X42260000Y-18187900D01*
%TO.N,Net-(D9-K)*%
X44800000Y-26041700D02*
X42260000Y-23501700D01*
X42260000Y-22350000D02*
X42260000Y-23501700D01*
X44800000Y-26795000D02*
X44800000Y-26041700D01*
%TO.N,Net-(D11-K)*%
X47400000Y-26041700D02*
X47400000Y-26795000D01*
X49940000Y-22350000D02*
X49940000Y-23501700D01*
X49940000Y-23501700D02*
X47400000Y-26041700D01*
%TO.N,Net-(D12-K)*%
X47400000Y-41281700D02*
X47400000Y-42035000D01*
X49940000Y-38741700D02*
X47400000Y-41281700D01*
X49940000Y-37590000D02*
X49940000Y-38741700D01*
%TO.N,Net-(D13-A)*%
X57620000Y-19810000D02*
X57620000Y-18540000D01*
X57620000Y-18540000D02*
X55080000Y-16000000D01*
%TO.N,Net-(D13-K)*%
X57620000Y-22350000D02*
X57620000Y-23501700D01*
X60160000Y-26041700D02*
X60160000Y-26795000D01*
X57620000Y-23501700D02*
X60160000Y-26041700D01*
%TO.N,Net-(Q17-S)*%
X75897300Y-25902300D02*
X75520000Y-25525000D01*
X78574600Y-25902300D02*
X75897300Y-25902300D01*
X79126800Y-24438800D02*
X79126800Y-25350100D01*
X71441700Y-20445000D02*
X73361200Y-22364500D01*
X79126800Y-25350100D02*
X78574600Y-25902300D01*
X70440000Y-20445000D02*
X71441700Y-20445000D01*
X73361200Y-22364500D02*
X77052500Y-22364500D01*
X77052500Y-22364500D02*
X79126800Y-24438800D01*
%TO.N,Net-(Q21-S)*%
X71441700Y-48116700D02*
X75520000Y-52195000D01*
X71441700Y-47115000D02*
X71441700Y-48116700D01*
X70440000Y-47115000D02*
X71441700Y-47115000D01*
%TO.N,Net-(Q25-S)*%
X82198300Y-33145000D02*
X82198300Y-34146700D01*
X83200000Y-33145000D02*
X82198300Y-33145000D01*
X82198300Y-34146700D02*
X78120000Y-38225000D01*
%TO.N,Net-(Q29-S)*%
X88844500Y-19412300D02*
X89610000Y-20177800D01*
X89610000Y-20177800D02*
X89610000Y-24255000D01*
X87834400Y-19412300D02*
X88844500Y-19412300D01*
X89610000Y-24255000D02*
X90880000Y-25525000D01*
X86801700Y-20445000D02*
X87834400Y-19412300D01*
X85800000Y-20445000D02*
X86801700Y-20445000D01*
%TO.N,Net-(R38-Pad2)*%
X74590000Y-69080000D02*
X77130000Y-66540000D01*
X77130000Y-66540000D02*
X84590000Y-66540000D01*
%TO.N,Net-(R39-Pad2)*%
X83523200Y-70146800D02*
X69656800Y-70146800D01*
X69656800Y-70146800D02*
X68590000Y-69080000D01*
X84590000Y-69080000D02*
X83523200Y-70146800D01*
%TO.N,Net-(R40-Pad2)*%
X62590000Y-69080000D02*
X65130000Y-71620000D01*
X65130000Y-71620000D02*
X84590000Y-71620000D01*
%TO.N,PC0*%
X59537600Y-28425400D02*
X51618700Y-36344300D01*
X41465100Y-44246600D02*
X40106600Y-44246600D01*
X51618700Y-36344300D02*
X48962800Y-36344300D01*
X65300000Y-26795000D02*
X63669600Y-28425400D01*
X43406100Y-42305600D02*
X41465100Y-44246600D01*
X48962800Y-36344300D02*
X43406100Y-41901000D01*
X63669600Y-28425400D02*
X59537600Y-28425400D01*
X43406100Y-41901000D02*
X43406100Y-42305600D01*
X30511300Y-50091300D02*
X29440000Y-49020000D01*
X40106600Y-44246600D02*
X34261900Y-50091300D01*
X34261900Y-50091300D02*
X30511300Y-50091300D01*
%TO.N,PC1*%
X45875700Y-6230000D02*
X46504300Y-6230000D01*
X37172700Y-3817300D02*
X44136500Y-3817300D01*
X48880000Y-9243100D02*
X56278300Y-9243100D01*
X57620000Y-26795000D02*
X55191200Y-29223800D01*
X44136500Y-3817300D02*
X44920100Y-4600900D01*
X44920100Y-4600900D02*
X44920100Y-5274400D01*
X40730600Y-41436500D02*
X40730600Y-42921600D01*
X36030000Y-4960000D02*
X37172700Y-3817300D01*
X44920100Y-5274400D02*
X45875700Y-6230000D01*
X47460000Y-7185700D02*
X47460000Y-7823100D01*
X34462500Y-49189700D02*
X34123800Y-49189700D01*
X55191200Y-29223800D02*
X52943300Y-29223800D01*
X46504300Y-6230000D02*
X47460000Y-7185700D01*
X52943300Y-29223800D02*
X40730600Y-41436500D01*
X47460000Y-7823100D02*
X48880000Y-9243100D01*
X40730600Y-42921600D02*
X34462500Y-49189700D01*
%TO.N,PC2*%
X49940000Y-26795000D02*
X47057400Y-29677600D01*
X51094800Y-18702700D02*
X51094800Y-25640200D01*
X41405900Y-15824400D02*
X42887100Y-17305600D01*
X51094800Y-25640200D02*
X49940000Y-26795000D01*
X40755700Y-33752300D02*
X40755700Y-34443700D01*
X38570000Y-8592900D02*
X40846400Y-10869300D01*
X40755700Y-34443700D02*
X35973900Y-39225500D01*
X35973900Y-39225500D02*
X35973900Y-45086100D01*
X47057400Y-29677600D02*
X44830400Y-29677600D01*
X35973900Y-45086100D02*
X32040000Y-49020000D01*
X44830400Y-29677600D02*
X40755700Y-33752300D01*
X42887100Y-17305600D02*
X49697700Y-17305600D01*
X49697700Y-17305600D02*
X51094800Y-18702700D01*
X38570000Y-7500000D02*
X38570000Y-8592900D01*
%TO.N,PC3*%
X42260000Y-30630200D02*
X38021700Y-34868500D01*
X42260000Y-26795000D02*
X42260000Y-30630200D01*
X38021700Y-34868500D02*
X37332000Y-34868500D01*
%TO.N,PC4*%
X38544000Y-31822700D02*
X39409900Y-32688600D01*
X34580000Y-26795000D02*
X38544000Y-30759000D01*
X35165100Y-24106200D02*
X35173300Y-24106200D01*
X38544000Y-30759000D02*
X38544000Y-31822700D01*
X35173300Y-24106200D02*
X41284900Y-17994600D01*
%TO.N,PC5*%
X35060300Y-16879700D02*
X26900000Y-25040000D01*
X35060300Y-15544300D02*
X35060300Y-16879700D01*
X26900000Y-25040000D02*
X26900000Y-26795000D01*
%TO.N,PC6*%
X19220000Y-26795000D02*
X20236000Y-27811000D01*
X32462500Y-27811000D02*
X33310100Y-26963400D01*
X33310100Y-26621300D02*
X34204800Y-25726600D01*
X34204800Y-25726600D02*
X43650000Y-25726600D01*
X20236000Y-27811000D02*
X32462500Y-27811000D01*
X33310100Y-26963400D02*
X33310100Y-26621300D01*
%TO.N,PC7*%
X26236100Y-47802700D02*
X30432300Y-51998900D01*
X23069300Y-47802700D02*
X26236100Y-47802700D01*
X11883300Y-33666800D02*
X17739500Y-39523000D01*
X11540000Y-26795000D02*
X11883300Y-26795000D01*
X17739500Y-42472900D02*
X23069300Y-47802700D01*
X43650000Y-4960000D02*
X42379800Y-6230200D01*
X11883300Y-26795000D02*
X17598300Y-21080000D01*
X38252300Y-6230200D02*
X37423900Y-7058600D01*
X37423900Y-7058600D02*
X37423900Y-7733000D01*
X37423900Y-7733000D02*
X34446200Y-10710700D01*
X30432300Y-51998900D02*
X45298900Y-51998900D01*
X17739500Y-39523000D02*
X17739500Y-42472900D01*
X11883300Y-26795000D02*
X11883300Y-33666800D01*
X45298900Y-51998900D02*
X47400000Y-54100000D01*
X42379800Y-6230200D02*
X38252300Y-6230200D01*
X34446200Y-10710700D02*
X31563500Y-10710700D01*
X21156500Y-21080000D02*
X24895800Y-17340700D01*
X17598300Y-21080000D02*
X21156500Y-21080000D01*
%TO.N,SW0*%
X78581500Y-61991500D02*
X80590000Y-64000000D01*
X14080000Y-49020000D02*
X27051500Y-61991500D01*
X27051500Y-61991500D02*
X78581500Y-61991500D01*
%TO.N,SW1*%
X22928300Y-62948300D02*
X14080000Y-54100000D01*
X74590000Y-64000000D02*
X73538300Y-62948300D01*
X73538300Y-62948300D02*
X22928300Y-62948300D01*
%TO.N,SW2*%
X84262100Y-61881900D02*
X81079900Y-65064100D01*
X81079900Y-65064100D02*
X69654100Y-65064100D01*
X80660000Y-38225000D02*
X84262100Y-41827100D01*
X69654100Y-65064100D02*
X68590000Y-64000000D01*
X84262100Y-41827100D02*
X84262100Y-61881900D01*
%TD*%
M02*
