%TF.GenerationSoftware,KiCad,Pcbnew,10.0.5*%
%TF.CreationDate,2026-09-14T17:02:09-04:00*%
%TF.ProjectId,panelc,70616e65-6c63-42e6-9b69-6361645f7063,rev?*%
%TF.SameCoordinates,Original*%
%TF.FileFunction,Legend,Top*%
%TF.FilePolarity,Positive*%
%FSLAX46Y46*%
G04 Gerber Fmt 4.6, Leading zero omitted, Abs format (unit mm)*
G04 Created by KiCad (PCBNEW 10.0.5) date 2026-09-14 17:02:09*
%MOMM*%
%LPD*%
G01*
G04 APERTURE LIST*
%ADD10C,0.150000*%
%ADD11C,0.250000*%
%ADD12C,0.120000*%
G04 APERTURE END LIST*
D10*
X14229160Y-22062295D02*
X14229160Y-21262295D01*
X14229160Y-21262295D02*
X14533922Y-21262295D01*
X14533922Y-21262295D02*
X14610112Y-21300390D01*
X14610112Y-21300390D02*
X14648207Y-21338485D01*
X14648207Y-21338485D02*
X14686303Y-21414676D01*
X14686303Y-21414676D02*
X14686303Y-21528961D01*
X14686303Y-21528961D02*
X14648207Y-21605152D01*
X14648207Y-21605152D02*
X14610112Y-21643247D01*
X14610112Y-21643247D02*
X14533922Y-21681342D01*
X14533922Y-21681342D02*
X14229160Y-21681342D01*
X15486303Y-21986104D02*
X15448207Y-22024200D01*
X15448207Y-22024200D02*
X15333922Y-22062295D01*
X15333922Y-22062295D02*
X15257731Y-22062295D01*
X15257731Y-22062295D02*
X15143445Y-22024200D01*
X15143445Y-22024200D02*
X15067255Y-21948009D01*
X15067255Y-21948009D02*
X15029160Y-21871819D01*
X15029160Y-21871819D02*
X14991064Y-21719438D01*
X14991064Y-21719438D02*
X14991064Y-21605152D01*
X14991064Y-21605152D02*
X15029160Y-21452771D01*
X15029160Y-21452771D02*
X15067255Y-21376580D01*
X15067255Y-21376580D02*
X15143445Y-21300390D01*
X15143445Y-21300390D02*
X15257731Y-21262295D01*
X15257731Y-21262295D02*
X15333922Y-21262295D01*
X15333922Y-21262295D02*
X15448207Y-21300390D01*
X15448207Y-21300390D02*
X15486303Y-21338485D01*
X15752969Y-21262295D02*
X16286303Y-21262295D01*
X16286303Y-21262295D02*
X15943445Y-22062295D01*
X14229160Y-37302295D02*
X14229160Y-36502295D01*
X14229160Y-36502295D02*
X14495826Y-37073723D01*
X14495826Y-37073723D02*
X14762493Y-36502295D01*
X14762493Y-36502295D02*
X14762493Y-37302295D01*
X15067255Y-36502295D02*
X15600589Y-36502295D01*
X15600589Y-36502295D02*
X15257731Y-37302295D01*
X21909160Y-22062295D02*
X21909160Y-21262295D01*
X21909160Y-21262295D02*
X22213922Y-21262295D01*
X22213922Y-21262295D02*
X22290112Y-21300390D01*
X22290112Y-21300390D02*
X22328207Y-21338485D01*
X22328207Y-21338485D02*
X22366303Y-21414676D01*
X22366303Y-21414676D02*
X22366303Y-21528961D01*
X22366303Y-21528961D02*
X22328207Y-21605152D01*
X22328207Y-21605152D02*
X22290112Y-21643247D01*
X22290112Y-21643247D02*
X22213922Y-21681342D01*
X22213922Y-21681342D02*
X21909160Y-21681342D01*
X23166303Y-21986104D02*
X23128207Y-22024200D01*
X23128207Y-22024200D02*
X23013922Y-22062295D01*
X23013922Y-22062295D02*
X22937731Y-22062295D01*
X22937731Y-22062295D02*
X22823445Y-22024200D01*
X22823445Y-22024200D02*
X22747255Y-21948009D01*
X22747255Y-21948009D02*
X22709160Y-21871819D01*
X22709160Y-21871819D02*
X22671064Y-21719438D01*
X22671064Y-21719438D02*
X22671064Y-21605152D01*
X22671064Y-21605152D02*
X22709160Y-21452771D01*
X22709160Y-21452771D02*
X22747255Y-21376580D01*
X22747255Y-21376580D02*
X22823445Y-21300390D01*
X22823445Y-21300390D02*
X22937731Y-21262295D01*
X22937731Y-21262295D02*
X23013922Y-21262295D01*
X23013922Y-21262295D02*
X23128207Y-21300390D01*
X23128207Y-21300390D02*
X23166303Y-21338485D01*
X23852017Y-21262295D02*
X23699636Y-21262295D01*
X23699636Y-21262295D02*
X23623445Y-21300390D01*
X23623445Y-21300390D02*
X23585350Y-21338485D01*
X23585350Y-21338485D02*
X23509160Y-21452771D01*
X23509160Y-21452771D02*
X23471064Y-21605152D01*
X23471064Y-21605152D02*
X23471064Y-21909914D01*
X23471064Y-21909914D02*
X23509160Y-21986104D01*
X23509160Y-21986104D02*
X23547255Y-22024200D01*
X23547255Y-22024200D02*
X23623445Y-22062295D01*
X23623445Y-22062295D02*
X23775826Y-22062295D01*
X23775826Y-22062295D02*
X23852017Y-22024200D01*
X23852017Y-22024200D02*
X23890112Y-21986104D01*
X23890112Y-21986104D02*
X23928207Y-21909914D01*
X23928207Y-21909914D02*
X23928207Y-21719438D01*
X23928207Y-21719438D02*
X23890112Y-21643247D01*
X23890112Y-21643247D02*
X23852017Y-21605152D01*
X23852017Y-21605152D02*
X23775826Y-21567057D01*
X23775826Y-21567057D02*
X23623445Y-21567057D01*
X23623445Y-21567057D02*
X23547255Y-21605152D01*
X23547255Y-21605152D02*
X23509160Y-21643247D01*
X23509160Y-21643247D02*
X23471064Y-21719438D01*
X21909160Y-37302295D02*
X21909160Y-36502295D01*
X21909160Y-36502295D02*
X22175826Y-37073723D01*
X22175826Y-37073723D02*
X22442493Y-36502295D01*
X22442493Y-36502295D02*
X22442493Y-37302295D01*
X23166303Y-36502295D02*
X23013922Y-36502295D01*
X23013922Y-36502295D02*
X22937731Y-36540390D01*
X22937731Y-36540390D02*
X22899636Y-36578485D01*
X22899636Y-36578485D02*
X22823446Y-36692771D01*
X22823446Y-36692771D02*
X22785350Y-36845152D01*
X22785350Y-36845152D02*
X22785350Y-37149914D01*
X22785350Y-37149914D02*
X22823446Y-37226104D01*
X22823446Y-37226104D02*
X22861541Y-37264200D01*
X22861541Y-37264200D02*
X22937731Y-37302295D01*
X22937731Y-37302295D02*
X23090112Y-37302295D01*
X23090112Y-37302295D02*
X23166303Y-37264200D01*
X23166303Y-37264200D02*
X23204398Y-37226104D01*
X23204398Y-37226104D02*
X23242493Y-37149914D01*
X23242493Y-37149914D02*
X23242493Y-36959438D01*
X23242493Y-36959438D02*
X23204398Y-36883247D01*
X23204398Y-36883247D02*
X23166303Y-36845152D01*
X23166303Y-36845152D02*
X23090112Y-36807057D01*
X23090112Y-36807057D02*
X22937731Y-36807057D01*
X22937731Y-36807057D02*
X22861541Y-36845152D01*
X22861541Y-36845152D02*
X22823446Y-36883247D01*
X22823446Y-36883247D02*
X22785350Y-36959438D01*
X29589160Y-22062295D02*
X29589160Y-21262295D01*
X29589160Y-21262295D02*
X29893922Y-21262295D01*
X29893922Y-21262295D02*
X29970112Y-21300390D01*
X29970112Y-21300390D02*
X30008207Y-21338485D01*
X30008207Y-21338485D02*
X30046303Y-21414676D01*
X30046303Y-21414676D02*
X30046303Y-21528961D01*
X30046303Y-21528961D02*
X30008207Y-21605152D01*
X30008207Y-21605152D02*
X29970112Y-21643247D01*
X29970112Y-21643247D02*
X29893922Y-21681342D01*
X29893922Y-21681342D02*
X29589160Y-21681342D01*
X30846303Y-21986104D02*
X30808207Y-22024200D01*
X30808207Y-22024200D02*
X30693922Y-22062295D01*
X30693922Y-22062295D02*
X30617731Y-22062295D01*
X30617731Y-22062295D02*
X30503445Y-22024200D01*
X30503445Y-22024200D02*
X30427255Y-21948009D01*
X30427255Y-21948009D02*
X30389160Y-21871819D01*
X30389160Y-21871819D02*
X30351064Y-21719438D01*
X30351064Y-21719438D02*
X30351064Y-21605152D01*
X30351064Y-21605152D02*
X30389160Y-21452771D01*
X30389160Y-21452771D02*
X30427255Y-21376580D01*
X30427255Y-21376580D02*
X30503445Y-21300390D01*
X30503445Y-21300390D02*
X30617731Y-21262295D01*
X30617731Y-21262295D02*
X30693922Y-21262295D01*
X30693922Y-21262295D02*
X30808207Y-21300390D01*
X30808207Y-21300390D02*
X30846303Y-21338485D01*
X31570112Y-21262295D02*
X31189160Y-21262295D01*
X31189160Y-21262295D02*
X31151064Y-21643247D01*
X31151064Y-21643247D02*
X31189160Y-21605152D01*
X31189160Y-21605152D02*
X31265350Y-21567057D01*
X31265350Y-21567057D02*
X31455826Y-21567057D01*
X31455826Y-21567057D02*
X31532017Y-21605152D01*
X31532017Y-21605152D02*
X31570112Y-21643247D01*
X31570112Y-21643247D02*
X31608207Y-21719438D01*
X31608207Y-21719438D02*
X31608207Y-21909914D01*
X31608207Y-21909914D02*
X31570112Y-21986104D01*
X31570112Y-21986104D02*
X31532017Y-22024200D01*
X31532017Y-22024200D02*
X31455826Y-22062295D01*
X31455826Y-22062295D02*
X31265350Y-22062295D01*
X31265350Y-22062295D02*
X31189160Y-22024200D01*
X31189160Y-22024200D02*
X31151064Y-21986104D01*
X29589160Y-37302295D02*
X29589160Y-36502295D01*
X29589160Y-36502295D02*
X29855826Y-37073723D01*
X29855826Y-37073723D02*
X30122493Y-36502295D01*
X30122493Y-36502295D02*
X30122493Y-37302295D01*
X30884398Y-36502295D02*
X30503446Y-36502295D01*
X30503446Y-36502295D02*
X30465350Y-36883247D01*
X30465350Y-36883247D02*
X30503446Y-36845152D01*
X30503446Y-36845152D02*
X30579636Y-36807057D01*
X30579636Y-36807057D02*
X30770112Y-36807057D01*
X30770112Y-36807057D02*
X30846303Y-36845152D01*
X30846303Y-36845152D02*
X30884398Y-36883247D01*
X30884398Y-36883247D02*
X30922493Y-36959438D01*
X30922493Y-36959438D02*
X30922493Y-37149914D01*
X30922493Y-37149914D02*
X30884398Y-37226104D01*
X30884398Y-37226104D02*
X30846303Y-37264200D01*
X30846303Y-37264200D02*
X30770112Y-37302295D01*
X30770112Y-37302295D02*
X30579636Y-37302295D01*
X30579636Y-37302295D02*
X30503446Y-37264200D01*
X30503446Y-37264200D02*
X30465350Y-37226104D01*
X37269160Y-22062295D02*
X37269160Y-21262295D01*
X37269160Y-21262295D02*
X37573922Y-21262295D01*
X37573922Y-21262295D02*
X37650112Y-21300390D01*
X37650112Y-21300390D02*
X37688207Y-21338485D01*
X37688207Y-21338485D02*
X37726303Y-21414676D01*
X37726303Y-21414676D02*
X37726303Y-21528961D01*
X37726303Y-21528961D02*
X37688207Y-21605152D01*
X37688207Y-21605152D02*
X37650112Y-21643247D01*
X37650112Y-21643247D02*
X37573922Y-21681342D01*
X37573922Y-21681342D02*
X37269160Y-21681342D01*
X38526303Y-21986104D02*
X38488207Y-22024200D01*
X38488207Y-22024200D02*
X38373922Y-22062295D01*
X38373922Y-22062295D02*
X38297731Y-22062295D01*
X38297731Y-22062295D02*
X38183445Y-22024200D01*
X38183445Y-22024200D02*
X38107255Y-21948009D01*
X38107255Y-21948009D02*
X38069160Y-21871819D01*
X38069160Y-21871819D02*
X38031064Y-21719438D01*
X38031064Y-21719438D02*
X38031064Y-21605152D01*
X38031064Y-21605152D02*
X38069160Y-21452771D01*
X38069160Y-21452771D02*
X38107255Y-21376580D01*
X38107255Y-21376580D02*
X38183445Y-21300390D01*
X38183445Y-21300390D02*
X38297731Y-21262295D01*
X38297731Y-21262295D02*
X38373922Y-21262295D01*
X38373922Y-21262295D02*
X38488207Y-21300390D01*
X38488207Y-21300390D02*
X38526303Y-21338485D01*
X39212017Y-21528961D02*
X39212017Y-22062295D01*
X39021541Y-21224200D02*
X38831064Y-21795628D01*
X38831064Y-21795628D02*
X39326303Y-21795628D01*
X37269160Y-37302295D02*
X37269160Y-36502295D01*
X37269160Y-36502295D02*
X37535826Y-37073723D01*
X37535826Y-37073723D02*
X37802493Y-36502295D01*
X37802493Y-36502295D02*
X37802493Y-37302295D01*
X38526303Y-36768961D02*
X38526303Y-37302295D01*
X38335827Y-36464200D02*
X38145350Y-37035628D01*
X38145350Y-37035628D02*
X38640589Y-37035628D01*
X44949160Y-22062295D02*
X44949160Y-21262295D01*
X44949160Y-21262295D02*
X45253922Y-21262295D01*
X45253922Y-21262295D02*
X45330112Y-21300390D01*
X45330112Y-21300390D02*
X45368207Y-21338485D01*
X45368207Y-21338485D02*
X45406303Y-21414676D01*
X45406303Y-21414676D02*
X45406303Y-21528961D01*
X45406303Y-21528961D02*
X45368207Y-21605152D01*
X45368207Y-21605152D02*
X45330112Y-21643247D01*
X45330112Y-21643247D02*
X45253922Y-21681342D01*
X45253922Y-21681342D02*
X44949160Y-21681342D01*
X46206303Y-21986104D02*
X46168207Y-22024200D01*
X46168207Y-22024200D02*
X46053922Y-22062295D01*
X46053922Y-22062295D02*
X45977731Y-22062295D01*
X45977731Y-22062295D02*
X45863445Y-22024200D01*
X45863445Y-22024200D02*
X45787255Y-21948009D01*
X45787255Y-21948009D02*
X45749160Y-21871819D01*
X45749160Y-21871819D02*
X45711064Y-21719438D01*
X45711064Y-21719438D02*
X45711064Y-21605152D01*
X45711064Y-21605152D02*
X45749160Y-21452771D01*
X45749160Y-21452771D02*
X45787255Y-21376580D01*
X45787255Y-21376580D02*
X45863445Y-21300390D01*
X45863445Y-21300390D02*
X45977731Y-21262295D01*
X45977731Y-21262295D02*
X46053922Y-21262295D01*
X46053922Y-21262295D02*
X46168207Y-21300390D01*
X46168207Y-21300390D02*
X46206303Y-21338485D01*
X46472969Y-21262295D02*
X46968207Y-21262295D01*
X46968207Y-21262295D02*
X46701541Y-21567057D01*
X46701541Y-21567057D02*
X46815826Y-21567057D01*
X46815826Y-21567057D02*
X46892017Y-21605152D01*
X46892017Y-21605152D02*
X46930112Y-21643247D01*
X46930112Y-21643247D02*
X46968207Y-21719438D01*
X46968207Y-21719438D02*
X46968207Y-21909914D01*
X46968207Y-21909914D02*
X46930112Y-21986104D01*
X46930112Y-21986104D02*
X46892017Y-22024200D01*
X46892017Y-22024200D02*
X46815826Y-22062295D01*
X46815826Y-22062295D02*
X46587255Y-22062295D01*
X46587255Y-22062295D02*
X46511064Y-22024200D01*
X46511064Y-22024200D02*
X46472969Y-21986104D01*
X44949160Y-37302295D02*
X44949160Y-36502295D01*
X44949160Y-36502295D02*
X45215826Y-37073723D01*
X45215826Y-37073723D02*
X45482493Y-36502295D01*
X45482493Y-36502295D02*
X45482493Y-37302295D01*
X45787255Y-36502295D02*
X46282493Y-36502295D01*
X46282493Y-36502295D02*
X46015827Y-36807057D01*
X46015827Y-36807057D02*
X46130112Y-36807057D01*
X46130112Y-36807057D02*
X46206303Y-36845152D01*
X46206303Y-36845152D02*
X46244398Y-36883247D01*
X46244398Y-36883247D02*
X46282493Y-36959438D01*
X46282493Y-36959438D02*
X46282493Y-37149914D01*
X46282493Y-37149914D02*
X46244398Y-37226104D01*
X46244398Y-37226104D02*
X46206303Y-37264200D01*
X46206303Y-37264200D02*
X46130112Y-37302295D01*
X46130112Y-37302295D02*
X45901541Y-37302295D01*
X45901541Y-37302295D02*
X45825350Y-37264200D01*
X45825350Y-37264200D02*
X45787255Y-37226104D01*
X52629160Y-22062295D02*
X52629160Y-21262295D01*
X52629160Y-21262295D02*
X52933922Y-21262295D01*
X52933922Y-21262295D02*
X53010112Y-21300390D01*
X53010112Y-21300390D02*
X53048207Y-21338485D01*
X53048207Y-21338485D02*
X53086303Y-21414676D01*
X53086303Y-21414676D02*
X53086303Y-21528961D01*
X53086303Y-21528961D02*
X53048207Y-21605152D01*
X53048207Y-21605152D02*
X53010112Y-21643247D01*
X53010112Y-21643247D02*
X52933922Y-21681342D01*
X52933922Y-21681342D02*
X52629160Y-21681342D01*
X53886303Y-21986104D02*
X53848207Y-22024200D01*
X53848207Y-22024200D02*
X53733922Y-22062295D01*
X53733922Y-22062295D02*
X53657731Y-22062295D01*
X53657731Y-22062295D02*
X53543445Y-22024200D01*
X53543445Y-22024200D02*
X53467255Y-21948009D01*
X53467255Y-21948009D02*
X53429160Y-21871819D01*
X53429160Y-21871819D02*
X53391064Y-21719438D01*
X53391064Y-21719438D02*
X53391064Y-21605152D01*
X53391064Y-21605152D02*
X53429160Y-21452771D01*
X53429160Y-21452771D02*
X53467255Y-21376580D01*
X53467255Y-21376580D02*
X53543445Y-21300390D01*
X53543445Y-21300390D02*
X53657731Y-21262295D01*
X53657731Y-21262295D02*
X53733922Y-21262295D01*
X53733922Y-21262295D02*
X53848207Y-21300390D01*
X53848207Y-21300390D02*
X53886303Y-21338485D01*
X54191064Y-21338485D02*
X54229160Y-21300390D01*
X54229160Y-21300390D02*
X54305350Y-21262295D01*
X54305350Y-21262295D02*
X54495826Y-21262295D01*
X54495826Y-21262295D02*
X54572017Y-21300390D01*
X54572017Y-21300390D02*
X54610112Y-21338485D01*
X54610112Y-21338485D02*
X54648207Y-21414676D01*
X54648207Y-21414676D02*
X54648207Y-21490866D01*
X54648207Y-21490866D02*
X54610112Y-21605152D01*
X54610112Y-21605152D02*
X54152969Y-22062295D01*
X54152969Y-22062295D02*
X54648207Y-22062295D01*
X52629160Y-37302295D02*
X52629160Y-36502295D01*
X52629160Y-36502295D02*
X52895826Y-37073723D01*
X52895826Y-37073723D02*
X53162493Y-36502295D01*
X53162493Y-36502295D02*
X53162493Y-37302295D01*
X53505350Y-36578485D02*
X53543446Y-36540390D01*
X53543446Y-36540390D02*
X53619636Y-36502295D01*
X53619636Y-36502295D02*
X53810112Y-36502295D01*
X53810112Y-36502295D02*
X53886303Y-36540390D01*
X53886303Y-36540390D02*
X53924398Y-36578485D01*
X53924398Y-36578485D02*
X53962493Y-36654676D01*
X53962493Y-36654676D02*
X53962493Y-36730866D01*
X53962493Y-36730866D02*
X53924398Y-36845152D01*
X53924398Y-36845152D02*
X53467255Y-37302295D01*
X53467255Y-37302295D02*
X53962493Y-37302295D01*
X60309160Y-22062295D02*
X60309160Y-21262295D01*
X60309160Y-21262295D02*
X60613922Y-21262295D01*
X60613922Y-21262295D02*
X60690112Y-21300390D01*
X60690112Y-21300390D02*
X60728207Y-21338485D01*
X60728207Y-21338485D02*
X60766303Y-21414676D01*
X60766303Y-21414676D02*
X60766303Y-21528961D01*
X60766303Y-21528961D02*
X60728207Y-21605152D01*
X60728207Y-21605152D02*
X60690112Y-21643247D01*
X60690112Y-21643247D02*
X60613922Y-21681342D01*
X60613922Y-21681342D02*
X60309160Y-21681342D01*
X61566303Y-21986104D02*
X61528207Y-22024200D01*
X61528207Y-22024200D02*
X61413922Y-22062295D01*
X61413922Y-22062295D02*
X61337731Y-22062295D01*
X61337731Y-22062295D02*
X61223445Y-22024200D01*
X61223445Y-22024200D02*
X61147255Y-21948009D01*
X61147255Y-21948009D02*
X61109160Y-21871819D01*
X61109160Y-21871819D02*
X61071064Y-21719438D01*
X61071064Y-21719438D02*
X61071064Y-21605152D01*
X61071064Y-21605152D02*
X61109160Y-21452771D01*
X61109160Y-21452771D02*
X61147255Y-21376580D01*
X61147255Y-21376580D02*
X61223445Y-21300390D01*
X61223445Y-21300390D02*
X61337731Y-21262295D01*
X61337731Y-21262295D02*
X61413922Y-21262295D01*
X61413922Y-21262295D02*
X61528207Y-21300390D01*
X61528207Y-21300390D02*
X61566303Y-21338485D01*
X62328207Y-22062295D02*
X61871064Y-22062295D01*
X62099636Y-22062295D02*
X62099636Y-21262295D01*
X62099636Y-21262295D02*
X62023445Y-21376580D01*
X62023445Y-21376580D02*
X61947255Y-21452771D01*
X61947255Y-21452771D02*
X61871064Y-21490866D01*
X60309160Y-37302295D02*
X60309160Y-36502295D01*
X60309160Y-36502295D02*
X60575826Y-37073723D01*
X60575826Y-37073723D02*
X60842493Y-36502295D01*
X60842493Y-36502295D02*
X60842493Y-37302295D01*
X61642493Y-37302295D02*
X61185350Y-37302295D01*
X61413922Y-37302295D02*
X61413922Y-36502295D01*
X61413922Y-36502295D02*
X61337731Y-36616580D01*
X61337731Y-36616580D02*
X61261541Y-36692771D01*
X61261541Y-36692771D02*
X61185350Y-36730866D01*
X62879160Y-60762295D02*
X62879160Y-59962295D01*
X62879160Y-59962295D02*
X63069636Y-59962295D01*
X63069636Y-59962295D02*
X63183922Y-60000390D01*
X63183922Y-60000390D02*
X63260112Y-60076580D01*
X63260112Y-60076580D02*
X63298207Y-60152771D01*
X63298207Y-60152771D02*
X63336303Y-60305152D01*
X63336303Y-60305152D02*
X63336303Y-60419438D01*
X63336303Y-60419438D02*
X63298207Y-60571819D01*
X63298207Y-60571819D02*
X63260112Y-60648009D01*
X63260112Y-60648009D02*
X63183922Y-60724200D01*
X63183922Y-60724200D02*
X63069636Y-60762295D01*
X63069636Y-60762295D02*
X62879160Y-60762295D01*
X63641064Y-60533723D02*
X64022017Y-60533723D01*
X63564874Y-60762295D02*
X63831541Y-59962295D01*
X63831541Y-59962295D02*
X64098207Y-60762295D01*
X64250588Y-59962295D02*
X64707731Y-59962295D01*
X64479159Y-60762295D02*
X64479159Y-59962295D01*
X64936302Y-60533723D02*
X65317255Y-60533723D01*
X64860112Y-60762295D02*
X65126779Y-59962295D01*
X65126779Y-59962295D02*
X65393445Y-60762295D01*
X67989160Y-22062295D02*
X67989160Y-21262295D01*
X67989160Y-21262295D02*
X68293922Y-21262295D01*
X68293922Y-21262295D02*
X68370112Y-21300390D01*
X68370112Y-21300390D02*
X68408207Y-21338485D01*
X68408207Y-21338485D02*
X68446303Y-21414676D01*
X68446303Y-21414676D02*
X68446303Y-21528961D01*
X68446303Y-21528961D02*
X68408207Y-21605152D01*
X68408207Y-21605152D02*
X68370112Y-21643247D01*
X68370112Y-21643247D02*
X68293922Y-21681342D01*
X68293922Y-21681342D02*
X67989160Y-21681342D01*
X69246303Y-21986104D02*
X69208207Y-22024200D01*
X69208207Y-22024200D02*
X69093922Y-22062295D01*
X69093922Y-22062295D02*
X69017731Y-22062295D01*
X69017731Y-22062295D02*
X68903445Y-22024200D01*
X68903445Y-22024200D02*
X68827255Y-21948009D01*
X68827255Y-21948009D02*
X68789160Y-21871819D01*
X68789160Y-21871819D02*
X68751064Y-21719438D01*
X68751064Y-21719438D02*
X68751064Y-21605152D01*
X68751064Y-21605152D02*
X68789160Y-21452771D01*
X68789160Y-21452771D02*
X68827255Y-21376580D01*
X68827255Y-21376580D02*
X68903445Y-21300390D01*
X68903445Y-21300390D02*
X69017731Y-21262295D01*
X69017731Y-21262295D02*
X69093922Y-21262295D01*
X69093922Y-21262295D02*
X69208207Y-21300390D01*
X69208207Y-21300390D02*
X69246303Y-21338485D01*
X69741541Y-21262295D02*
X69817731Y-21262295D01*
X69817731Y-21262295D02*
X69893922Y-21300390D01*
X69893922Y-21300390D02*
X69932017Y-21338485D01*
X69932017Y-21338485D02*
X69970112Y-21414676D01*
X69970112Y-21414676D02*
X70008207Y-21567057D01*
X70008207Y-21567057D02*
X70008207Y-21757533D01*
X70008207Y-21757533D02*
X69970112Y-21909914D01*
X69970112Y-21909914D02*
X69932017Y-21986104D01*
X69932017Y-21986104D02*
X69893922Y-22024200D01*
X69893922Y-22024200D02*
X69817731Y-22062295D01*
X69817731Y-22062295D02*
X69741541Y-22062295D01*
X69741541Y-22062295D02*
X69665350Y-22024200D01*
X69665350Y-22024200D02*
X69627255Y-21986104D01*
X69627255Y-21986104D02*
X69589160Y-21909914D01*
X69589160Y-21909914D02*
X69551064Y-21757533D01*
X69551064Y-21757533D02*
X69551064Y-21567057D01*
X69551064Y-21567057D02*
X69589160Y-21414676D01*
X69589160Y-21414676D02*
X69627255Y-21338485D01*
X69627255Y-21338485D02*
X69665350Y-21300390D01*
X69665350Y-21300390D02*
X69741541Y-21262295D01*
X67989160Y-37302295D02*
X67989160Y-36502295D01*
X67989160Y-36502295D02*
X68255826Y-37073723D01*
X68255826Y-37073723D02*
X68522493Y-36502295D01*
X68522493Y-36502295D02*
X68522493Y-37302295D01*
X69055827Y-36502295D02*
X69132017Y-36502295D01*
X69132017Y-36502295D02*
X69208208Y-36540390D01*
X69208208Y-36540390D02*
X69246303Y-36578485D01*
X69246303Y-36578485D02*
X69284398Y-36654676D01*
X69284398Y-36654676D02*
X69322493Y-36807057D01*
X69322493Y-36807057D02*
X69322493Y-36997533D01*
X69322493Y-36997533D02*
X69284398Y-37149914D01*
X69284398Y-37149914D02*
X69246303Y-37226104D01*
X69246303Y-37226104D02*
X69208208Y-37264200D01*
X69208208Y-37264200D02*
X69132017Y-37302295D01*
X69132017Y-37302295D02*
X69055827Y-37302295D01*
X69055827Y-37302295D02*
X68979636Y-37264200D01*
X68979636Y-37264200D02*
X68941541Y-37226104D01*
X68941541Y-37226104D02*
X68903446Y-37149914D01*
X68903446Y-37149914D02*
X68865350Y-36997533D01*
X68865350Y-36997533D02*
X68865350Y-36807057D01*
X68865350Y-36807057D02*
X68903446Y-36654676D01*
X68903446Y-36654676D02*
X68941541Y-36578485D01*
X68941541Y-36578485D02*
X68979636Y-36540390D01*
X68979636Y-36540390D02*
X69055827Y-36502295D01*
X94041064Y-63924200D02*
X94155350Y-63962295D01*
X94155350Y-63962295D02*
X94345826Y-63962295D01*
X94345826Y-63962295D02*
X94422017Y-63924200D01*
X94422017Y-63924200D02*
X94460112Y-63886104D01*
X94460112Y-63886104D02*
X94498207Y-63809914D01*
X94498207Y-63809914D02*
X94498207Y-63733723D01*
X94498207Y-63733723D02*
X94460112Y-63657533D01*
X94460112Y-63657533D02*
X94422017Y-63619438D01*
X94422017Y-63619438D02*
X94345826Y-63581342D01*
X94345826Y-63581342D02*
X94193445Y-63543247D01*
X94193445Y-63543247D02*
X94117255Y-63505152D01*
X94117255Y-63505152D02*
X94079160Y-63467057D01*
X94079160Y-63467057D02*
X94041064Y-63390866D01*
X94041064Y-63390866D02*
X94041064Y-63314676D01*
X94041064Y-63314676D02*
X94079160Y-63238485D01*
X94079160Y-63238485D02*
X94117255Y-63200390D01*
X94117255Y-63200390D02*
X94193445Y-63162295D01*
X94193445Y-63162295D02*
X94383922Y-63162295D01*
X94383922Y-63162295D02*
X94498207Y-63200390D01*
X94764874Y-63162295D02*
X94955350Y-63962295D01*
X94955350Y-63962295D02*
X95107731Y-63390866D01*
X95107731Y-63390866D02*
X95260112Y-63962295D01*
X95260112Y-63962295D02*
X95450589Y-63162295D01*
X95907732Y-63162295D02*
X95983922Y-63162295D01*
X95983922Y-63162295D02*
X96060113Y-63200390D01*
X96060113Y-63200390D02*
X96098208Y-63238485D01*
X96098208Y-63238485D02*
X96136303Y-63314676D01*
X96136303Y-63314676D02*
X96174398Y-63467057D01*
X96174398Y-63467057D02*
X96174398Y-63657533D01*
X96174398Y-63657533D02*
X96136303Y-63809914D01*
X96136303Y-63809914D02*
X96098208Y-63886104D01*
X96098208Y-63886104D02*
X96060113Y-63924200D01*
X96060113Y-63924200D02*
X95983922Y-63962295D01*
X95983922Y-63962295D02*
X95907732Y-63962295D01*
X95907732Y-63962295D02*
X95831541Y-63924200D01*
X95831541Y-63924200D02*
X95793446Y-63886104D01*
X95793446Y-63886104D02*
X95755351Y-63809914D01*
X95755351Y-63809914D02*
X95717255Y-63657533D01*
X95717255Y-63657533D02*
X95717255Y-63467057D01*
X95717255Y-63467057D02*
X95755351Y-63314676D01*
X95755351Y-63314676D02*
X95793446Y-63238485D01*
X95793446Y-63238485D02*
X95831541Y-63200390D01*
X95831541Y-63200390D02*
X95907732Y-63162295D01*
X94041064Y-66464200D02*
X94155350Y-66502295D01*
X94155350Y-66502295D02*
X94345826Y-66502295D01*
X94345826Y-66502295D02*
X94422017Y-66464200D01*
X94422017Y-66464200D02*
X94460112Y-66426104D01*
X94460112Y-66426104D02*
X94498207Y-66349914D01*
X94498207Y-66349914D02*
X94498207Y-66273723D01*
X94498207Y-66273723D02*
X94460112Y-66197533D01*
X94460112Y-66197533D02*
X94422017Y-66159438D01*
X94422017Y-66159438D02*
X94345826Y-66121342D01*
X94345826Y-66121342D02*
X94193445Y-66083247D01*
X94193445Y-66083247D02*
X94117255Y-66045152D01*
X94117255Y-66045152D02*
X94079160Y-66007057D01*
X94079160Y-66007057D02*
X94041064Y-65930866D01*
X94041064Y-65930866D02*
X94041064Y-65854676D01*
X94041064Y-65854676D02*
X94079160Y-65778485D01*
X94079160Y-65778485D02*
X94117255Y-65740390D01*
X94117255Y-65740390D02*
X94193445Y-65702295D01*
X94193445Y-65702295D02*
X94383922Y-65702295D01*
X94383922Y-65702295D02*
X94498207Y-65740390D01*
X94764874Y-65702295D02*
X94955350Y-66502295D01*
X94955350Y-66502295D02*
X95107731Y-65930866D01*
X95107731Y-65930866D02*
X95260112Y-66502295D01*
X95260112Y-66502295D02*
X95450589Y-65702295D01*
X96174398Y-66502295D02*
X95717255Y-66502295D01*
X95945827Y-66502295D02*
X95945827Y-65702295D01*
X95945827Y-65702295D02*
X95869636Y-65816580D01*
X95869636Y-65816580D02*
X95793446Y-65892771D01*
X95793446Y-65892771D02*
X95717255Y-65930866D01*
X94041064Y-69004200D02*
X94155350Y-69042295D01*
X94155350Y-69042295D02*
X94345826Y-69042295D01*
X94345826Y-69042295D02*
X94422017Y-69004200D01*
X94422017Y-69004200D02*
X94460112Y-68966104D01*
X94460112Y-68966104D02*
X94498207Y-68889914D01*
X94498207Y-68889914D02*
X94498207Y-68813723D01*
X94498207Y-68813723D02*
X94460112Y-68737533D01*
X94460112Y-68737533D02*
X94422017Y-68699438D01*
X94422017Y-68699438D02*
X94345826Y-68661342D01*
X94345826Y-68661342D02*
X94193445Y-68623247D01*
X94193445Y-68623247D02*
X94117255Y-68585152D01*
X94117255Y-68585152D02*
X94079160Y-68547057D01*
X94079160Y-68547057D02*
X94041064Y-68470866D01*
X94041064Y-68470866D02*
X94041064Y-68394676D01*
X94041064Y-68394676D02*
X94079160Y-68318485D01*
X94079160Y-68318485D02*
X94117255Y-68280390D01*
X94117255Y-68280390D02*
X94193445Y-68242295D01*
X94193445Y-68242295D02*
X94383922Y-68242295D01*
X94383922Y-68242295D02*
X94498207Y-68280390D01*
X94764874Y-68242295D02*
X94955350Y-69042295D01*
X94955350Y-69042295D02*
X95107731Y-68470866D01*
X95107731Y-68470866D02*
X95260112Y-69042295D01*
X95260112Y-69042295D02*
X95450589Y-68242295D01*
X95717255Y-68318485D02*
X95755351Y-68280390D01*
X95755351Y-68280390D02*
X95831541Y-68242295D01*
X95831541Y-68242295D02*
X96022017Y-68242295D01*
X96022017Y-68242295D02*
X96098208Y-68280390D01*
X96098208Y-68280390D02*
X96136303Y-68318485D01*
X96136303Y-68318485D02*
X96174398Y-68394676D01*
X96174398Y-68394676D02*
X96174398Y-68470866D01*
X96174398Y-68470866D02*
X96136303Y-68585152D01*
X96136303Y-68585152D02*
X95679160Y-69042295D01*
X95679160Y-69042295D02*
X96174398Y-69042295D01*
X94041064Y-71544200D02*
X94155350Y-71582295D01*
X94155350Y-71582295D02*
X94345826Y-71582295D01*
X94345826Y-71582295D02*
X94422017Y-71544200D01*
X94422017Y-71544200D02*
X94460112Y-71506104D01*
X94460112Y-71506104D02*
X94498207Y-71429914D01*
X94498207Y-71429914D02*
X94498207Y-71353723D01*
X94498207Y-71353723D02*
X94460112Y-71277533D01*
X94460112Y-71277533D02*
X94422017Y-71239438D01*
X94422017Y-71239438D02*
X94345826Y-71201342D01*
X94345826Y-71201342D02*
X94193445Y-71163247D01*
X94193445Y-71163247D02*
X94117255Y-71125152D01*
X94117255Y-71125152D02*
X94079160Y-71087057D01*
X94079160Y-71087057D02*
X94041064Y-71010866D01*
X94041064Y-71010866D02*
X94041064Y-70934676D01*
X94041064Y-70934676D02*
X94079160Y-70858485D01*
X94079160Y-70858485D02*
X94117255Y-70820390D01*
X94117255Y-70820390D02*
X94193445Y-70782295D01*
X94193445Y-70782295D02*
X94383922Y-70782295D01*
X94383922Y-70782295D02*
X94498207Y-70820390D01*
X94764874Y-70782295D02*
X94955350Y-71582295D01*
X94955350Y-71582295D02*
X95107731Y-71010866D01*
X95107731Y-71010866D02*
X95260112Y-71582295D01*
X95260112Y-71582295D02*
X95450589Y-70782295D01*
X95679160Y-70782295D02*
X96174398Y-70782295D01*
X96174398Y-70782295D02*
X95907732Y-71087057D01*
X95907732Y-71087057D02*
X96022017Y-71087057D01*
X96022017Y-71087057D02*
X96098208Y-71125152D01*
X96098208Y-71125152D02*
X96136303Y-71163247D01*
X96136303Y-71163247D02*
X96174398Y-71239438D01*
X96174398Y-71239438D02*
X96174398Y-71429914D01*
X96174398Y-71429914D02*
X96136303Y-71506104D01*
X96136303Y-71506104D02*
X96098208Y-71544200D01*
X96098208Y-71544200D02*
X96022017Y-71582295D01*
X96022017Y-71582295D02*
X95793446Y-71582295D01*
X95793446Y-71582295D02*
X95717255Y-71544200D01*
X95717255Y-71544200D02*
X95679160Y-71506104D01*
X4490588Y-8854819D02*
X3919160Y-8854819D01*
X4204874Y-8854819D02*
X4204874Y-7854819D01*
X4204874Y-7854819D02*
X4109636Y-7997676D01*
X4109636Y-7997676D02*
X4014398Y-8092914D01*
X4014398Y-8092914D02*
X3919160Y-8140533D01*
D11*
X9521615Y-98880928D02*
X9521615Y-97380928D01*
X9521615Y-97380928D02*
X10378758Y-98880928D01*
X10378758Y-98880928D02*
X10378758Y-97380928D01*
X11093044Y-98880928D02*
X11093044Y-97380928D01*
X12307330Y-98095214D02*
X12521616Y-98166642D01*
X12521616Y-98166642D02*
X12593045Y-98238071D01*
X12593045Y-98238071D02*
X12664473Y-98380928D01*
X12664473Y-98380928D02*
X12664473Y-98595214D01*
X12664473Y-98595214D02*
X12593045Y-98738071D01*
X12593045Y-98738071D02*
X12521616Y-98809500D01*
X12521616Y-98809500D02*
X12378759Y-98880928D01*
X12378759Y-98880928D02*
X11807330Y-98880928D01*
X11807330Y-98880928D02*
X11807330Y-97380928D01*
X11807330Y-97380928D02*
X12307330Y-97380928D01*
X12307330Y-97380928D02*
X12450188Y-97452357D01*
X12450188Y-97452357D02*
X12521616Y-97523785D01*
X12521616Y-97523785D02*
X12593045Y-97666642D01*
X12593045Y-97666642D02*
X12593045Y-97809500D01*
X12593045Y-97809500D02*
X12521616Y-97952357D01*
X12521616Y-97952357D02*
X12450188Y-98023785D01*
X12450188Y-98023785D02*
X12307330Y-98095214D01*
X12307330Y-98095214D02*
X11807330Y-98095214D01*
X13807330Y-98095214D02*
X14021616Y-98166642D01*
X14021616Y-98166642D02*
X14093045Y-98238071D01*
X14093045Y-98238071D02*
X14164473Y-98380928D01*
X14164473Y-98380928D02*
X14164473Y-98595214D01*
X14164473Y-98595214D02*
X14093045Y-98738071D01*
X14093045Y-98738071D02*
X14021616Y-98809500D01*
X14021616Y-98809500D02*
X13878759Y-98880928D01*
X13878759Y-98880928D02*
X13307330Y-98880928D01*
X13307330Y-98880928D02*
X13307330Y-97380928D01*
X13307330Y-97380928D02*
X13807330Y-97380928D01*
X13807330Y-97380928D02*
X13950188Y-97452357D01*
X13950188Y-97452357D02*
X14021616Y-97523785D01*
X14021616Y-97523785D02*
X14093045Y-97666642D01*
X14093045Y-97666642D02*
X14093045Y-97809500D01*
X14093045Y-97809500D02*
X14021616Y-97952357D01*
X14021616Y-97952357D02*
X13950188Y-98023785D01*
X13950188Y-98023785D02*
X13807330Y-98095214D01*
X13807330Y-98095214D02*
X13307330Y-98095214D01*
X15521616Y-98880928D02*
X14807330Y-98880928D01*
X14807330Y-98880928D02*
X14807330Y-97380928D01*
X16021616Y-98095214D02*
X16521616Y-98095214D01*
X16735902Y-98880928D02*
X16021616Y-98880928D01*
X16021616Y-98880928D02*
X16021616Y-97380928D01*
X16021616Y-97380928D02*
X16735902Y-97380928D01*
X19664473Y-98880928D02*
X19664473Y-97380928D01*
X19664473Y-97380928D02*
X20235902Y-97380928D01*
X20235902Y-97380928D02*
X20378759Y-97452357D01*
X20378759Y-97452357D02*
X20450188Y-97523785D01*
X20450188Y-97523785D02*
X20521616Y-97666642D01*
X20521616Y-97666642D02*
X20521616Y-97880928D01*
X20521616Y-97880928D02*
X20450188Y-98023785D01*
X20450188Y-98023785D02*
X20378759Y-98095214D01*
X20378759Y-98095214D02*
X20235902Y-98166642D01*
X20235902Y-98166642D02*
X19664473Y-98166642D01*
X21093045Y-98452357D02*
X21807331Y-98452357D01*
X20950188Y-98880928D02*
X21450188Y-97380928D01*
X21450188Y-97380928D02*
X21950188Y-98880928D01*
X22450187Y-98880928D02*
X22450187Y-97380928D01*
X22450187Y-97380928D02*
X23307330Y-98880928D01*
X23307330Y-98880928D02*
X23307330Y-97380928D01*
X24021616Y-98095214D02*
X24521616Y-98095214D01*
X24735902Y-98880928D02*
X24021616Y-98880928D01*
X24021616Y-98880928D02*
X24021616Y-97380928D01*
X24021616Y-97380928D02*
X24735902Y-97380928D01*
X26093045Y-98880928D02*
X25378759Y-98880928D01*
X25378759Y-98880928D02*
X25378759Y-97380928D01*
X28593045Y-98738071D02*
X28521617Y-98809500D01*
X28521617Y-98809500D02*
X28307331Y-98880928D01*
X28307331Y-98880928D02*
X28164474Y-98880928D01*
X28164474Y-98880928D02*
X27950188Y-98809500D01*
X27950188Y-98809500D02*
X27807331Y-98666642D01*
X27807331Y-98666642D02*
X27735902Y-98523785D01*
X27735902Y-98523785D02*
X27664474Y-98238071D01*
X27664474Y-98238071D02*
X27664474Y-98023785D01*
X27664474Y-98023785D02*
X27735902Y-97738071D01*
X27735902Y-97738071D02*
X27807331Y-97595214D01*
X27807331Y-97595214D02*
X27950188Y-97452357D01*
X27950188Y-97452357D02*
X28164474Y-97380928D01*
X28164474Y-97380928D02*
X28307331Y-97380928D01*
X28307331Y-97380928D02*
X28521617Y-97452357D01*
X28521617Y-97452357D02*
X28593045Y-97523785D01*
X31807331Y-97380928D02*
X32093045Y-97380928D01*
X32093045Y-97380928D02*
X32235902Y-97452357D01*
X32235902Y-97452357D02*
X32378759Y-97595214D01*
X32378759Y-97595214D02*
X32450188Y-97880928D01*
X32450188Y-97880928D02*
X32450188Y-98380928D01*
X32450188Y-98380928D02*
X32378759Y-98666642D01*
X32378759Y-98666642D02*
X32235902Y-98809500D01*
X32235902Y-98809500D02*
X32093045Y-98880928D01*
X32093045Y-98880928D02*
X31807331Y-98880928D01*
X31807331Y-98880928D02*
X31664474Y-98809500D01*
X31664474Y-98809500D02*
X31521616Y-98666642D01*
X31521616Y-98666642D02*
X31450188Y-98380928D01*
X31450188Y-98380928D02*
X31450188Y-97880928D01*
X31450188Y-97880928D02*
X31521616Y-97595214D01*
X31521616Y-97595214D02*
X31664474Y-97452357D01*
X31664474Y-97452357D02*
X31807331Y-97380928D01*
X33093045Y-98880928D02*
X33093045Y-97380928D01*
X33093045Y-97380928D02*
X33664474Y-97380928D01*
X33664474Y-97380928D02*
X33807331Y-97452357D01*
X33807331Y-97452357D02*
X33878760Y-97523785D01*
X33878760Y-97523785D02*
X33950188Y-97666642D01*
X33950188Y-97666642D02*
X33950188Y-97880928D01*
X33950188Y-97880928D02*
X33878760Y-98023785D01*
X33878760Y-98023785D02*
X33807331Y-98095214D01*
X33807331Y-98095214D02*
X33664474Y-98166642D01*
X33664474Y-98166642D02*
X33093045Y-98166642D01*
X34593045Y-98095214D02*
X35093045Y-98095214D01*
X35307331Y-98880928D02*
X34593045Y-98880928D01*
X34593045Y-98880928D02*
X34593045Y-97380928D01*
X34593045Y-97380928D02*
X35307331Y-97380928D01*
X36807331Y-98880928D02*
X36307331Y-98166642D01*
X35950188Y-98880928D02*
X35950188Y-97380928D01*
X35950188Y-97380928D02*
X36521617Y-97380928D01*
X36521617Y-97380928D02*
X36664474Y-97452357D01*
X36664474Y-97452357D02*
X36735903Y-97523785D01*
X36735903Y-97523785D02*
X36807331Y-97666642D01*
X36807331Y-97666642D02*
X36807331Y-97880928D01*
X36807331Y-97880928D02*
X36735903Y-98023785D01*
X36735903Y-98023785D02*
X36664474Y-98095214D01*
X36664474Y-98095214D02*
X36521617Y-98166642D01*
X36521617Y-98166642D02*
X35950188Y-98166642D01*
X37378760Y-98452357D02*
X38093046Y-98452357D01*
X37235903Y-98880928D02*
X37735903Y-97380928D01*
X37735903Y-97380928D02*
X38235903Y-98880928D01*
X38521617Y-97380928D02*
X39378760Y-97380928D01*
X38950188Y-98880928D02*
X38950188Y-97380928D01*
X40164474Y-97380928D02*
X40450188Y-97380928D01*
X40450188Y-97380928D02*
X40593045Y-97452357D01*
X40593045Y-97452357D02*
X40735902Y-97595214D01*
X40735902Y-97595214D02*
X40807331Y-97880928D01*
X40807331Y-97880928D02*
X40807331Y-98380928D01*
X40807331Y-98380928D02*
X40735902Y-98666642D01*
X40735902Y-98666642D02*
X40593045Y-98809500D01*
X40593045Y-98809500D02*
X40450188Y-98880928D01*
X40450188Y-98880928D02*
X40164474Y-98880928D01*
X40164474Y-98880928D02*
X40021617Y-98809500D01*
X40021617Y-98809500D02*
X39878759Y-98666642D01*
X39878759Y-98666642D02*
X39807331Y-98380928D01*
X39807331Y-98380928D02*
X39807331Y-97880928D01*
X39807331Y-97880928D02*
X39878759Y-97595214D01*
X39878759Y-97595214D02*
X40021617Y-97452357D01*
X40021617Y-97452357D02*
X40164474Y-97380928D01*
X42307331Y-98880928D02*
X41807331Y-98166642D01*
X41450188Y-98880928D02*
X41450188Y-97380928D01*
X41450188Y-97380928D02*
X42021617Y-97380928D01*
X42021617Y-97380928D02*
X42164474Y-97452357D01*
X42164474Y-97452357D02*
X42235903Y-97523785D01*
X42235903Y-97523785D02*
X42307331Y-97666642D01*
X42307331Y-97666642D02*
X42307331Y-97880928D01*
X42307331Y-97880928D02*
X42235903Y-98023785D01*
X42235903Y-98023785D02*
X42164474Y-98095214D01*
X42164474Y-98095214D02*
X42021617Y-98166642D01*
X42021617Y-98166642D02*
X41450188Y-98166642D01*
D10*
X95238095Y-46304819D02*
X95238095Y-45304819D01*
X95238095Y-45781009D02*
X95809523Y-45781009D01*
X95809523Y-46304819D02*
X95809523Y-45304819D01*
X96238095Y-45400057D02*
X96285714Y-45352438D01*
X96285714Y-45352438D02*
X96380952Y-45304819D01*
X96380952Y-45304819D02*
X96619047Y-45304819D01*
X96619047Y-45304819D02*
X96714285Y-45352438D01*
X96714285Y-45352438D02*
X96761904Y-45400057D01*
X96761904Y-45400057D02*
X96809523Y-45495295D01*
X96809523Y-45495295D02*
X96809523Y-45590533D01*
X96809523Y-45590533D02*
X96761904Y-45733390D01*
X96761904Y-45733390D02*
X96190476Y-46304819D01*
X96190476Y-46304819D02*
X96809523Y-46304819D01*
X3238095Y-46304819D02*
X3238095Y-45304819D01*
X3238095Y-45781009D02*
X3809523Y-45781009D01*
X3809523Y-46304819D02*
X3809523Y-45304819D01*
X4809523Y-46304819D02*
X4238095Y-46304819D01*
X4523809Y-46304819D02*
X4523809Y-45304819D01*
X4523809Y-45304819D02*
X4428571Y-45447676D01*
X4428571Y-45447676D02*
X4333333Y-45542914D01*
X4333333Y-45542914D02*
X4238095Y-45590533D01*
%TO.C,Q16*%
D12*
X67100000Y-40185000D02*
X63500000Y-40185000D01*
X62975816Y-40912205D02*
G75*
G02*
X63500000Y-40185000I2324184J-1122795D01*
G01*
X65300000Y-44635000D02*
G75*
G02*
X62943600Y-43133807I0J2600000D01*
G01*
X67100000Y-40185000D02*
G75*
G02*
X67624184Y-40912205I-1800000J-1850000D01*
G01*
X67656400Y-43133807D02*
G75*
G02*
X65300000Y-44635000I-2356400J1098807D01*
G01*
%TO.C,R21*%
X79490000Y-29335000D02*
X82100000Y-29335000D01*
X79490000Y-29335000D02*
G75*
G02*
X76750000Y-29335000I-1370000J0D01*
G01*
X76750000Y-29335000D02*
G75*
G02*
X79490000Y-29335000I1370000J0D01*
G01*
%TO.C,R3*%
X18050000Y-16000000D02*
X20660000Y-16000000D01*
X18050000Y-16000000D02*
G75*
G02*
X15310000Y-16000000I-1370000J0D01*
G01*
X15310000Y-16000000D02*
G75*
G02*
X18050000Y-16000000I1370000J0D01*
G01*
%TO.C,D11*%
X48704000Y-22640000D02*
X48860000Y-22640000D01*
X51020000Y-22640000D02*
X51176000Y-22640000D01*
X48704484Y-22640000D02*
G75*
G02*
X48860000Y-19408563I1235516J1560000D01*
G01*
X48860000Y-22120961D02*
G75*
G02*
X48860000Y-20039039I1080000J1040961D01*
G01*
X51020000Y-19408563D02*
G75*
G02*
X51175516Y-22640000I-1080000J-1671437D01*
G01*
X51020000Y-20039039D02*
G75*
G02*
X51020000Y-22120961I-1080000J-1040961D01*
G01*
%TO.C,R23*%
X87170000Y-16000000D02*
X89780000Y-16000000D01*
X87170000Y-16000000D02*
G75*
G02*
X84430000Y-16000000I-1370000J0D01*
G01*
X84430000Y-16000000D02*
G75*
G02*
X87170000Y-16000000I1370000J0D01*
G01*
%TO.C,Q3*%
X21020000Y-24945000D02*
X17420000Y-24945000D01*
X16895816Y-25672205D02*
G75*
G02*
X17420000Y-24945000I2324184J-1122795D01*
G01*
X19220000Y-29395000D02*
G75*
G02*
X16863600Y-27893807I0J2600000D01*
G01*
X21020000Y-24945000D02*
G75*
G02*
X21544184Y-25672205I-1800000J-1850000D01*
G01*
X21576400Y-27893807D02*
G75*
G02*
X19220000Y-29395000I-2356400J1098807D01*
G01*
%TO.C,Q11*%
X51740000Y-24945000D02*
X48140000Y-24945000D01*
X47615816Y-25672205D02*
G75*
G02*
X48140000Y-24945000I2324184J-1122795D01*
G01*
X49940000Y-29395000D02*
G75*
G02*
X47583600Y-27893807I0J2600000D01*
G01*
X51740000Y-24945000D02*
G75*
G02*
X52264184Y-25672205I-1800000J-1850000D01*
G01*
X52296400Y-27893807D02*
G75*
G02*
X49940000Y-29395000I-2356400J1098807D01*
G01*
%TO.C,Q21*%
X71180000Y-48965000D02*
X74780000Y-48965000D01*
X70623600Y-46016193D02*
G75*
G02*
X72980000Y-44515000I2356400J-1098807D01*
G01*
X71180000Y-48965000D02*
G75*
G02*
X70655816Y-48237795I1800000J1850000D01*
G01*
X72980000Y-44515000D02*
G75*
G02*
X75336400Y-46016193I0J-2600000D01*
G01*
X75304184Y-48237795D02*
G75*
G02*
X74780000Y-48965000I-2324184J1122795D01*
G01*
%TO.C,Q31*%
X86540000Y-35630000D02*
X90140000Y-35630000D01*
X85983600Y-32681193D02*
G75*
G02*
X88340000Y-31180000I2356400J-1098807D01*
G01*
X86540000Y-35630000D02*
G75*
G02*
X86015816Y-34902795I1800000J1850000D01*
G01*
X88340000Y-31180000D02*
G75*
G02*
X90696400Y-32681193I0J-2600000D01*
G01*
X90664184Y-34902795D02*
G75*
G02*
X90140000Y-35630000I-2324184J1122795D01*
G01*
%TO.C,D9*%
X41024000Y-22640000D02*
X41180000Y-22640000D01*
X43340000Y-22640000D02*
X43496000Y-22640000D01*
X41024484Y-22640000D02*
G75*
G02*
X41180000Y-19408563I1235516J1560000D01*
G01*
X41180000Y-22120961D02*
G75*
G02*
X41180000Y-20039039I1080000J1040961D01*
G01*
X43340000Y-19408563D02*
G75*
G02*
X43495516Y-22640000I-1080000J-1671437D01*
G01*
X43340000Y-20039039D02*
G75*
G02*
X43340000Y-22120961I-1080000J-1040961D01*
G01*
%TO.C,R16*%
X64130000Y-31240000D02*
X66740000Y-31240000D01*
X64130000Y-31240000D02*
G75*
G02*
X61390000Y-31240000I-1370000J0D01*
G01*
X61390000Y-31240000D02*
G75*
G02*
X64130000Y-31240000I1370000J0D01*
G01*
%TO.C,R20*%
X79490000Y-16000000D02*
X82100000Y-16000000D01*
X79490000Y-16000000D02*
G75*
G02*
X76750000Y-16000000I-1370000J0D01*
G01*
X76750000Y-16000000D02*
G75*
G02*
X79490000Y-16000000I1370000J0D01*
G01*
%TO.C,R2*%
X10370000Y-31240000D02*
X12980000Y-31240000D01*
X10370000Y-31240000D02*
G75*
G02*
X7630000Y-31240000I-1370000J0D01*
G01*
X7630000Y-31240000D02*
G75*
G02*
X10370000Y-31240000I1370000J0D01*
G01*
%TO.C,D16*%
X64064000Y-37880000D02*
X64220000Y-37880000D01*
X66380000Y-37880000D02*
X66536000Y-37880000D01*
X64064484Y-37880000D02*
G75*
G02*
X64220000Y-34648563I1235516J1560000D01*
G01*
X64220000Y-37360961D02*
G75*
G02*
X64220000Y-35279039I1080000J1040961D01*
G01*
X66380000Y-34648563D02*
G75*
G02*
X66535516Y-37880000I-1080000J-1671437D01*
G01*
X66380000Y-35279039D02*
G75*
G02*
X66380000Y-37360961I-1080000J-1040961D01*
G01*
%TO.C,R38*%
X74590000Y-65370000D02*
X74590000Y-67980000D01*
X75960000Y-64000000D02*
G75*
G02*
X73220000Y-64000000I-1370000J0D01*
G01*
X73220000Y-64000000D02*
G75*
G02*
X75960000Y-64000000I1370000J0D01*
G01*
%TO.C,D12*%
X48704000Y-37880000D02*
X48860000Y-37880000D01*
X51020000Y-37880000D02*
X51176000Y-37880000D01*
X48704484Y-37880000D02*
G75*
G02*
X48860000Y-34648563I1235516J1560000D01*
G01*
X48860000Y-37360961D02*
G75*
G02*
X48860000Y-35279039I1080000J1040961D01*
G01*
X51020000Y-34648563D02*
G75*
G02*
X51175516Y-37880000I-1080000J-1671437D01*
G01*
X51020000Y-35279039D02*
G75*
G02*
X51020000Y-37360961I-1080000J-1040961D01*
G01*
%TO.C,Q5*%
X25100000Y-28645000D02*
X28700000Y-28645000D01*
X24543600Y-25696193D02*
G75*
G02*
X26900000Y-24195000I2356400J-1098807D01*
G01*
X25100000Y-28645000D02*
G75*
G02*
X24575816Y-27917795I1800000J1850000D01*
G01*
X26900000Y-24195000D02*
G75*
G02*
X29256400Y-25696193I0J-2600000D01*
G01*
X29224184Y-27917795D02*
G75*
G02*
X28700000Y-28645000I-2324184J1122795D01*
G01*
%TO.C,D6*%
X25664000Y-37880000D02*
X25820000Y-37880000D01*
X27980000Y-37880000D02*
X28136000Y-37880000D01*
X25664484Y-37880000D02*
G75*
G02*
X25820000Y-34648563I1235516J1560000D01*
G01*
X25820000Y-37360961D02*
G75*
G02*
X25820000Y-35279039I1080000J1040961D01*
G01*
X27980000Y-34648563D02*
G75*
G02*
X28135516Y-37880000I-1080000J-1671437D01*
G01*
X27980000Y-35279039D02*
G75*
G02*
X27980000Y-37360961I-1080000J-1040961D01*
G01*
%TO.C,R26*%
X10370000Y-54100000D02*
X12980000Y-54100000D01*
X10370000Y-54100000D02*
G75*
G02*
X7630000Y-54100000I-1370000J0D01*
G01*
X7630000Y-54100000D02*
G75*
G02*
X10370000Y-54100000I1370000J0D01*
G01*
%TO.C,R32*%
X33410000Y-54100000D02*
X36020000Y-54100000D01*
X33410000Y-54100000D02*
G75*
G02*
X30670000Y-54100000I-1370000J0D01*
G01*
X30670000Y-54100000D02*
G75*
G02*
X33410000Y-54100000I1370000J0D01*
G01*
%TO.C,Q12*%
X51740000Y-40185000D02*
X48140000Y-40185000D01*
X47615816Y-40912205D02*
G75*
G02*
X48140000Y-40185000I2324184J-1122795D01*
G01*
X49940000Y-44635000D02*
G75*
G02*
X47583600Y-43133807I0J2600000D01*
G01*
X51740000Y-40185000D02*
G75*
G02*
X52264184Y-40912205I-1800000J-1850000D01*
G01*
X52296400Y-43133807D02*
G75*
G02*
X49940000Y-44635000I-2356400J1098807D01*
G01*
%TO.C,Q23*%
X82460000Y-17960000D02*
X78860000Y-17960000D01*
X78335816Y-18687205D02*
G75*
G02*
X78860000Y-17960000I2324184J-1122795D01*
G01*
X80660000Y-22410000D02*
G75*
G02*
X78303600Y-20908807I0J2600000D01*
G01*
X82460000Y-17960000D02*
G75*
G02*
X82984184Y-18687205I-1800000J-1850000D01*
G01*
X83016400Y-20908807D02*
G75*
G02*
X80660000Y-22410000I-2356400J1098807D01*
G01*
%TO.C,D4*%
X17984000Y-37880000D02*
X18140000Y-37880000D01*
X20300000Y-37880000D02*
X20456000Y-37880000D01*
X17984484Y-37880000D02*
G75*
G02*
X18140000Y-34648563I1235516J1560000D01*
G01*
X18140000Y-37360961D02*
G75*
G02*
X18140000Y-35279039I1080000J1040961D01*
G01*
X20300000Y-34648563D02*
G75*
G02*
X20455516Y-37880000I-1080000J-1671437D01*
G01*
X20300000Y-35279039D02*
G75*
G02*
X20300000Y-37360961I-1080000J-1040961D01*
G01*
%TO.C,Q24*%
X82460000Y-23040000D02*
X78860000Y-23040000D01*
X78335816Y-23767205D02*
G75*
G02*
X78860000Y-23040000I2324184J-1122795D01*
G01*
X80660000Y-27490000D02*
G75*
G02*
X78303600Y-25988807I0J2600000D01*
G01*
X82460000Y-23040000D02*
G75*
G02*
X82984184Y-23767205I-1800000J-1850000D01*
G01*
X83016400Y-25988807D02*
G75*
G02*
X80660000Y-27490000I-2356400J1098807D01*
G01*
%TO.C,Q10*%
X40460000Y-43885000D02*
X44060000Y-43885000D01*
X39903600Y-40936193D02*
G75*
G02*
X42260000Y-39435000I2356400J-1098807D01*
G01*
X40460000Y-43885000D02*
G75*
G02*
X39935816Y-43157795I1800000J1850000D01*
G01*
X42260000Y-39435000D02*
G75*
G02*
X44616400Y-40936193I0J-2600000D01*
G01*
X44584184Y-43157795D02*
G75*
G02*
X44060000Y-43885000I-2324184J1122795D01*
G01*
%TO.C,Q25*%
X82460000Y-31295000D02*
X78860000Y-31295000D01*
X78335816Y-32022205D02*
G75*
G02*
X78860000Y-31295000I2324184J-1122795D01*
G01*
X80660000Y-35745000D02*
G75*
G02*
X78303600Y-34243807I0J2600000D01*
G01*
X82460000Y-31295000D02*
G75*
G02*
X82984184Y-32022205I-1800000J-1850000D01*
G01*
X83016400Y-34243807D02*
G75*
G02*
X80660000Y-35745000I-2356400J1098807D01*
G01*
%TO.C,R33*%
X41090000Y-49020000D02*
X43700000Y-49020000D01*
X41090000Y-49020000D02*
G75*
G02*
X38350000Y-49020000I-1370000J0D01*
G01*
X38350000Y-49020000D02*
G75*
G02*
X41090000Y-49020000I1370000J0D01*
G01*
%TO.C,R36*%
X48770000Y-54100000D02*
X51380000Y-54100000D01*
X48770000Y-54100000D02*
G75*
G02*
X46030000Y-54100000I-1370000J0D01*
G01*
X46030000Y-54100000D02*
G75*
G02*
X48770000Y-54100000I1370000J0D01*
G01*
%TO.C,R8*%
X33410000Y-31240000D02*
X36020000Y-31240000D01*
X33410000Y-31240000D02*
G75*
G02*
X30670000Y-31240000I-1370000J0D01*
G01*
X30670000Y-31240000D02*
G75*
G02*
X33410000Y-31240000I1370000J0D01*
G01*
%TO.C,C1*%
X93630000Y-15130000D02*
X96370000Y-15130000D01*
X93630000Y-20370000D02*
X93630000Y-15130000D01*
X96370000Y-15130000D02*
X96370000Y-20370000D01*
X96370000Y-20370000D02*
X93630000Y-20370000D01*
%TO.C,R31*%
X33410000Y-49020000D02*
X36020000Y-49020000D01*
X33410000Y-49020000D02*
G75*
G02*
X30670000Y-49020000I-1370000J0D01*
G01*
X30670000Y-49020000D02*
G75*
G02*
X33410000Y-49020000I1370000J0D01*
G01*
%TO.C,J1*%
X5420000Y-1670000D02*
X94580000Y-1670000D01*
X5420000Y-10790000D02*
X5420000Y-1670000D01*
X6720000Y-2980000D02*
X93280000Y-2980000D01*
X6720000Y-9480000D02*
X6720000Y-2980000D01*
X10130000Y-12180000D02*
X11130000Y-12180000D01*
X10630000Y-11180000D02*
X10130000Y-12180000D01*
X11130000Y-12180000D02*
X10630000Y-11180000D01*
X47950000Y-9480000D02*
X6720000Y-9480000D01*
X47950000Y-10790000D02*
X47950000Y-9480000D01*
X52050000Y-9480000D02*
X52050000Y-10790000D01*
X93280000Y-2980000D02*
X93280000Y-9480000D01*
X93280000Y-9480000D02*
X52050000Y-9480000D01*
X94580000Y-1670000D02*
X94580000Y-10790000D01*
X94580000Y-10790000D02*
X5420000Y-10790000D01*
%TO.C,R13*%
X56450000Y-16000000D02*
X59060000Y-16000000D01*
X56450000Y-16000000D02*
G75*
G02*
X53710000Y-16000000I-1370000J0D01*
G01*
X53710000Y-16000000D02*
G75*
G02*
X56450000Y-16000000I1370000J0D01*
G01*
%TO.C,D13*%
X56384000Y-22640000D02*
X56540000Y-22640000D01*
X58700000Y-22640000D02*
X58856000Y-22640000D01*
X56384484Y-22640000D02*
G75*
G02*
X56540000Y-19408563I1235516J1560000D01*
G01*
X56540000Y-22120961D02*
G75*
G02*
X56540000Y-20039039I1080000J1040961D01*
G01*
X58700000Y-19408563D02*
G75*
G02*
X58855516Y-22640000I-1080000J-1671437D01*
G01*
X58700000Y-20039039D02*
G75*
G02*
X58700000Y-22120961I-1080000J-1040961D01*
G01*
%TO.C,R22*%
X79490000Y-42670000D02*
X82100000Y-42670000D01*
X79490000Y-42670000D02*
G75*
G02*
X76750000Y-42670000I-1370000J0D01*
G01*
X76750000Y-42670000D02*
G75*
G02*
X79490000Y-42670000I1370000J0D01*
G01*
%TO.C,R7*%
X33410000Y-16000000D02*
X36020000Y-16000000D01*
X33410000Y-16000000D02*
G75*
G02*
X30670000Y-16000000I-1370000J0D01*
G01*
X30670000Y-16000000D02*
G75*
G02*
X33410000Y-16000000I1370000J0D01*
G01*
%TO.C,R25*%
X10370000Y-49020000D02*
X12980000Y-49020000D01*
X10370000Y-49020000D02*
G75*
G02*
X7630000Y-49020000I-1370000J0D01*
G01*
X7630000Y-49020000D02*
G75*
G02*
X10370000Y-49020000I1370000J0D01*
G01*
%TO.C,Q18*%
X71180000Y-27375000D02*
X74780000Y-27375000D01*
X70623600Y-24426193D02*
G75*
G02*
X72980000Y-22925000I2356400J-1098807D01*
G01*
X71180000Y-27375000D02*
G75*
G02*
X70655816Y-26647795I1800000J1850000D01*
G01*
X72980000Y-22925000D02*
G75*
G02*
X75336400Y-24426193I0J-2600000D01*
G01*
X75304184Y-26647795D02*
G75*
G02*
X74780000Y-27375000I-2324184J1122795D01*
G01*
%TO.C,R4*%
X18050000Y-31240000D02*
X20660000Y-31240000D01*
X18050000Y-31240000D02*
G75*
G02*
X15310000Y-31240000I-1370000J0D01*
G01*
X15310000Y-31240000D02*
G75*
G02*
X18050000Y-31240000I1370000J0D01*
G01*
%TO.C,R34*%
X41090000Y-54100000D02*
X43700000Y-54100000D01*
X41090000Y-54100000D02*
G75*
G02*
X38350000Y-54100000I-1370000J0D01*
G01*
X38350000Y-54100000D02*
G75*
G02*
X41090000Y-54100000I1370000J0D01*
G01*
%TO.C,Q4*%
X21020000Y-40185000D02*
X17420000Y-40185000D01*
X16895816Y-40912205D02*
G75*
G02*
X17420000Y-40185000I2324184J-1122795D01*
G01*
X19220000Y-44635000D02*
G75*
G02*
X16863600Y-43133807I0J2600000D01*
G01*
X21020000Y-40185000D02*
G75*
G02*
X21544184Y-40912205I-1800000J-1850000D01*
G01*
X21576400Y-43133807D02*
G75*
G02*
X19220000Y-44635000I-2356400J1098807D01*
G01*
%TO.C,Q32*%
X86540000Y-40710000D02*
X90140000Y-40710000D01*
X85983600Y-37761193D02*
G75*
G02*
X88340000Y-36260000I2356400J-1098807D01*
G01*
X86540000Y-40710000D02*
G75*
G02*
X86015816Y-39982795I1800000J1850000D01*
G01*
X88340000Y-36260000D02*
G75*
G02*
X90696400Y-37761193I0J-2600000D01*
G01*
X90664184Y-39982795D02*
G75*
G02*
X90140000Y-40710000I-2324184J1122795D01*
G01*
%TO.C,Q6*%
X25100000Y-43885000D02*
X28700000Y-43885000D01*
X24543600Y-40936193D02*
G75*
G02*
X26900000Y-39435000I2356400J-1098807D01*
G01*
X25100000Y-43885000D02*
G75*
G02*
X24575816Y-43157795I1800000J1850000D01*
G01*
X26900000Y-39435000D02*
G75*
G02*
X29256400Y-40936193I0J-2600000D01*
G01*
X29224184Y-43157795D02*
G75*
G02*
X28700000Y-43885000I-2324184J1122795D01*
G01*
%TO.C,D14*%
X56384000Y-37880000D02*
X56540000Y-37880000D01*
X58700000Y-37880000D02*
X58856000Y-37880000D01*
X56384484Y-37880000D02*
G75*
G02*
X56540000Y-34648563I1235516J1560000D01*
G01*
X56540000Y-37360961D02*
G75*
G02*
X56540000Y-35279039I1080000J1040961D01*
G01*
X58700000Y-34648563D02*
G75*
G02*
X58855516Y-37880000I-1080000J-1671437D01*
G01*
X58700000Y-35279039D02*
G75*
G02*
X58700000Y-37360961I-1080000J-1040961D01*
G01*
%TO.C,Q15*%
X67100000Y-24945000D02*
X63500000Y-24945000D01*
X62975816Y-25672205D02*
G75*
G02*
X63500000Y-24945000I2324184J-1122795D01*
G01*
X65300000Y-29395000D02*
G75*
G02*
X62943600Y-27893807I0J2600000D01*
G01*
X67100000Y-24945000D02*
G75*
G02*
X67624184Y-25672205I-1800000J-1850000D01*
G01*
X67656400Y-27893807D02*
G75*
G02*
X65300000Y-29395000I-2356400J1098807D01*
G01*
%TO.C,Q1*%
X9740000Y-28645000D02*
X13340000Y-28645000D01*
X9183600Y-25696193D02*
G75*
G02*
X11540000Y-24195000I2356400J-1098807D01*
G01*
X9740000Y-28645000D02*
G75*
G02*
X9215816Y-27917795I1800000J1850000D01*
G01*
X11540000Y-24195000D02*
G75*
G02*
X13896400Y-25696193I0J-2600000D01*
G01*
X13864184Y-27917795D02*
G75*
G02*
X13340000Y-28645000I-2324184J1122795D01*
G01*
%TO.C,R37*%
X80590000Y-65370000D02*
X80590000Y-67980000D01*
X81960000Y-64000000D02*
G75*
G02*
X79220000Y-64000000I-1370000J0D01*
G01*
X79220000Y-64000000D02*
G75*
G02*
X81960000Y-64000000I1370000J0D01*
G01*
%TO.C,Q28*%
X82460000Y-49710000D02*
X78860000Y-49710000D01*
X78335816Y-50437205D02*
G75*
G02*
X78860000Y-49710000I2324184J-1122795D01*
G01*
X80660000Y-54160000D02*
G75*
G02*
X78303600Y-52658807I0J2600000D01*
G01*
X82460000Y-49710000D02*
G75*
G02*
X82984184Y-50437205I-1800000J-1850000D01*
G01*
X83016400Y-52658807D02*
G75*
G02*
X80660000Y-54160000I-2356400J1098807D01*
G01*
%TO.C,Q7*%
X36380000Y-24945000D02*
X32780000Y-24945000D01*
X32255816Y-25672205D02*
G75*
G02*
X32780000Y-24945000I2324184J-1122795D01*
G01*
X34580000Y-29395000D02*
G75*
G02*
X32223600Y-27893807I0J2600000D01*
G01*
X36380000Y-24945000D02*
G75*
G02*
X36904184Y-25672205I-1800000J-1850000D01*
G01*
X36936400Y-27893807D02*
G75*
G02*
X34580000Y-29395000I-2356400J1098807D01*
G01*
%TO.C,R5*%
X25730000Y-16000000D02*
X28340000Y-16000000D01*
X25730000Y-16000000D02*
G75*
G02*
X22990000Y-16000000I-1370000J0D01*
G01*
X22990000Y-16000000D02*
G75*
G02*
X25730000Y-16000000I1370000J0D01*
G01*
%TO.C,D5*%
X25664000Y-22640000D02*
X25820000Y-22640000D01*
X27980000Y-22640000D02*
X28136000Y-22640000D01*
X25664484Y-22640000D02*
G75*
G02*
X25820000Y-19408563I1235516J1560000D01*
G01*
X25820000Y-22120961D02*
G75*
G02*
X25820000Y-20039039I1080000J1040961D01*
G01*
X27980000Y-19408563D02*
G75*
G02*
X28135516Y-22640000I-1080000J-1671437D01*
G01*
X27980000Y-20039039D02*
G75*
G02*
X27980000Y-22120961I-1080000J-1040961D01*
G01*
%TO.C,R6*%
X25730000Y-31240000D02*
X28340000Y-31240000D01*
X25730000Y-31240000D02*
G75*
G02*
X22990000Y-31240000I-1370000J0D01*
G01*
X22990000Y-31240000D02*
G75*
G02*
X25730000Y-31240000I1370000J0D01*
G01*
%TO.C,SW1*%
X83210000Y-61340000D02*
X83210000Y-62723000D01*
X83210000Y-61340000D02*
X84593000Y-61340000D01*
X83450000Y-61580000D02*
X83450000Y-74040000D01*
X83450000Y-61580000D02*
X93350000Y-61580000D01*
X83450000Y-74040000D02*
X93350000Y-74040000D01*
X87723333Y-63365000D02*
X87723333Y-64635000D01*
X87723333Y-65905000D02*
X87723333Y-67175000D01*
X87723333Y-68445000D02*
X87723333Y-69715000D01*
X87723333Y-70985000D02*
X87723333Y-72255000D01*
X93350000Y-61580000D02*
X93350000Y-74040000D01*
X86370000Y-63365000D02*
X87723333Y-63365000D01*
X87723333Y-64635000D01*
X86370000Y-64635000D01*
X86370000Y-63365000D01*
G36*
X86370000Y-63365000D02*
G01*
X87723333Y-63365000D01*
X87723333Y-64635000D01*
X86370000Y-64635000D01*
X86370000Y-63365000D01*
G37*
X86370000Y-63365000D02*
X90430000Y-63365000D01*
X90430000Y-64635000D01*
X86370000Y-64635000D01*
X86370000Y-63365000D01*
X86370000Y-65905000D02*
X87723333Y-65905000D01*
X87723333Y-67175000D01*
X86370000Y-67175000D01*
X86370000Y-65905000D01*
G36*
X86370000Y-65905000D02*
G01*
X87723333Y-65905000D01*
X87723333Y-67175000D01*
X86370000Y-67175000D01*
X86370000Y-65905000D01*
G37*
X86370000Y-65905000D02*
X90430000Y-65905000D01*
X90430000Y-67175000D01*
X86370000Y-67175000D01*
X86370000Y-65905000D01*
X86370000Y-68445000D02*
X87723333Y-68445000D01*
X87723333Y-69715000D01*
X86370000Y-69715000D01*
X86370000Y-68445000D01*
G36*
X86370000Y-68445000D02*
G01*
X87723333Y-68445000D01*
X87723333Y-69715000D01*
X86370000Y-69715000D01*
X86370000Y-68445000D01*
G37*
X86370000Y-68445000D02*
X90430000Y-68445000D01*
X90430000Y-69715000D01*
X86370000Y-69715000D01*
X86370000Y-68445000D01*
X86370000Y-70985000D02*
X87723333Y-70985000D01*
X87723333Y-72255000D01*
X86370000Y-72255000D01*
X86370000Y-70985000D01*
G36*
X86370000Y-70985000D02*
G01*
X87723333Y-70985000D01*
X87723333Y-72255000D01*
X86370000Y-72255000D01*
X86370000Y-70985000D01*
G37*
X86370000Y-70985000D02*
X90430000Y-70985000D01*
X90430000Y-72255000D01*
X86370000Y-72255000D01*
X86370000Y-70985000D01*
%TO.C,D2*%
X10304000Y-37880000D02*
X10460000Y-37880000D01*
X12620000Y-37880000D02*
X12776000Y-37880000D01*
X10304484Y-37880000D02*
G75*
G02*
X10460000Y-34648563I1235516J1560000D01*
G01*
X10460000Y-37360961D02*
G75*
G02*
X10460000Y-35279039I1080000J1040961D01*
G01*
X12620000Y-34648563D02*
G75*
G02*
X12775516Y-37880000I-1080000J-1671437D01*
G01*
X12620000Y-35279039D02*
G75*
G02*
X12620000Y-37360961I-1080000J-1040961D01*
G01*
%TO.C,R14*%
X56450000Y-31240000D02*
X59060000Y-31240000D01*
X56450000Y-31240000D02*
G75*
G02*
X53710000Y-31240000I-1370000J0D01*
G01*
X53710000Y-31240000D02*
G75*
G02*
X56450000Y-31240000I1370000J0D01*
G01*
%TO.C,C2*%
X93960000Y-27000000D02*
X92420000Y-27000000D01*
X93960000Y-27040000D02*
X92420000Y-27040000D01*
X93960000Y-27080000D02*
X92421000Y-27080000D01*
X93960000Y-27120000D02*
X92423000Y-27120000D01*
X93960000Y-27160000D02*
X92425000Y-27160000D01*
X93960000Y-27200000D02*
X92428000Y-27200000D01*
X93960000Y-27240000D02*
X92431000Y-27240000D01*
X93960000Y-27280000D02*
X92435000Y-27280000D01*
X93960000Y-27320000D02*
X92440000Y-27320000D01*
X93960000Y-27360000D02*
X92445000Y-27360000D01*
X93960000Y-27400000D02*
X92451000Y-27400000D01*
X93960000Y-27440000D02*
X92457000Y-27440000D01*
X93960000Y-27480000D02*
X92464000Y-27480000D01*
X93960000Y-27520000D02*
X92472000Y-27520000D01*
X93960000Y-27560000D02*
X92481000Y-27560000D01*
X93960000Y-27600000D02*
X92490000Y-27600000D01*
X93960000Y-27640000D02*
X92499000Y-27640000D01*
X93960000Y-27680000D02*
X92510000Y-27680000D01*
X93960000Y-27720000D02*
X92521000Y-27720000D01*
X93960000Y-27760000D02*
X92533000Y-27760000D01*
X93960000Y-27800000D02*
X92545000Y-27800000D01*
X93960000Y-27840000D02*
X92558000Y-27840000D01*
X93960000Y-27880000D02*
X92572000Y-27880000D01*
X93960000Y-27920000D02*
X92587000Y-27920000D01*
X93960000Y-27960000D02*
X92602000Y-27960000D01*
X93960000Y-28000000D02*
X92618000Y-28000000D01*
X93960000Y-28040000D02*
X92635000Y-28040000D01*
X93960000Y-28080000D02*
X92653000Y-28080000D01*
X93960000Y-28120000D02*
X92671000Y-28120000D01*
X93960000Y-28160000D02*
X92691000Y-28160000D01*
X93960000Y-28200000D02*
X92711000Y-28200000D01*
X93960000Y-28240000D02*
X92732000Y-28240000D01*
X93960000Y-28280000D02*
X92754000Y-28280000D01*
X93960000Y-28320000D02*
X92777000Y-28320000D01*
X93960000Y-28360000D02*
X92801000Y-28360000D01*
X93960000Y-28400000D02*
X92825000Y-28400000D01*
X93960000Y-28440000D02*
X92851000Y-28440000D01*
X93960000Y-28480000D02*
X92878000Y-28480000D01*
X93960000Y-28520000D02*
X92906000Y-28520000D01*
X93960000Y-28560000D02*
X92935000Y-28560000D01*
X93960000Y-28600000D02*
X92965000Y-28600000D01*
X93960000Y-28640000D02*
X92997000Y-28640000D01*
X93960000Y-28680000D02*
X93030000Y-28680000D01*
X93960000Y-28720000D02*
X93064000Y-28720000D01*
X93960000Y-28760000D02*
X93099000Y-28760000D01*
X93960000Y-28800000D02*
X93136000Y-28800000D01*
X93960000Y-28840000D02*
X93175000Y-28840000D01*
X93960000Y-28880000D02*
X93215000Y-28880000D01*
X93960000Y-28920000D02*
X93257000Y-28920000D01*
X93960000Y-28960000D02*
X93301000Y-28960000D01*
X93960000Y-29000000D02*
X93348000Y-29000000D01*
X95283000Y-29600000D02*
X94717000Y-29600000D01*
X95517000Y-29560000D02*
X94483000Y-29560000D01*
X95677000Y-29520000D02*
X94323000Y-29520000D01*
X95805000Y-29480000D02*
X94195000Y-29480000D01*
X95914000Y-29440000D02*
X94086000Y-29440000D01*
X96011000Y-29400000D02*
X93989000Y-29400000D01*
X96098000Y-29360000D02*
X93902000Y-29360000D01*
X96177000Y-29320000D02*
X93823000Y-29320000D01*
X96251000Y-29280000D02*
X93749000Y-29280000D01*
X96319000Y-29240000D02*
X93681000Y-29240000D01*
X96383000Y-29200000D02*
X93617000Y-29200000D01*
X96443000Y-29160000D02*
X93557000Y-29160000D01*
X96475000Y-24195225D02*
X96475000Y-24695225D01*
X96499000Y-29120000D02*
X93501000Y-29120000D01*
X96553000Y-29080000D02*
X93447000Y-29080000D01*
X96604000Y-29040000D02*
X93396000Y-29040000D01*
X96652000Y-29000000D02*
X96040000Y-29000000D01*
X96699000Y-28960000D02*
X96040000Y-28960000D01*
X96725000Y-24445225D02*
X96225000Y-24445225D01*
X96743000Y-28920000D02*
X96040000Y-28920000D01*
X96785000Y-28880000D02*
X96040000Y-28880000D01*
X96825000Y-28840000D02*
X96040000Y-28840000D01*
X96864000Y-28800000D02*
X96040000Y-28800000D01*
X96901000Y-28760000D02*
X96040000Y-28760000D01*
X96936000Y-28720000D02*
X96040000Y-28720000D01*
X96970000Y-28680000D02*
X96040000Y-28680000D01*
X97003000Y-28640000D02*
X96040000Y-28640000D01*
X97035000Y-28600000D02*
X96040000Y-28600000D01*
X97065000Y-28560000D02*
X96040000Y-28560000D01*
X97094000Y-28520000D02*
X96040000Y-28520000D01*
X97122000Y-28480000D02*
X96040000Y-28480000D01*
X97149000Y-28440000D02*
X96040000Y-28440000D01*
X97175000Y-28400000D02*
X96040000Y-28400000D01*
X97199000Y-28360000D02*
X96040000Y-28360000D01*
X97223000Y-28320000D02*
X96040000Y-28320000D01*
X97246000Y-28280000D02*
X96040000Y-28280000D01*
X97268000Y-28240000D02*
X96040000Y-28240000D01*
X97289000Y-28200000D02*
X96040000Y-28200000D01*
X97309000Y-28160000D02*
X96040000Y-28160000D01*
X97329000Y-28120000D02*
X96040000Y-28120000D01*
X97347000Y-28080000D02*
X96040000Y-28080000D01*
X97365000Y-28040000D02*
X96040000Y-28040000D01*
X97382000Y-28000000D02*
X96040000Y-28000000D01*
X97398000Y-27960000D02*
X96040000Y-27960000D01*
X97413000Y-27920000D02*
X96040000Y-27920000D01*
X97428000Y-27880000D02*
X96040000Y-27880000D01*
X97442000Y-27840000D02*
X96040000Y-27840000D01*
X97455000Y-27800000D02*
X96040000Y-27800000D01*
X97467000Y-27760000D02*
X96040000Y-27760000D01*
X97479000Y-27720000D02*
X96040000Y-27720000D01*
X97490000Y-27680000D02*
X96040000Y-27680000D01*
X97501000Y-27640000D02*
X96040000Y-27640000D01*
X97510000Y-27600000D02*
X96040000Y-27600000D01*
X97519000Y-27560000D02*
X96040000Y-27560000D01*
X97528000Y-27520000D02*
X96040000Y-27520000D01*
X97536000Y-27480000D02*
X96040000Y-27480000D01*
X97543000Y-27440000D02*
X96040000Y-27440000D01*
X97549000Y-27400000D02*
X96040000Y-27400000D01*
X97555000Y-27360000D02*
X96040000Y-27360000D01*
X97560000Y-27320000D02*
X96040000Y-27320000D01*
X97565000Y-27280000D02*
X96040000Y-27280000D01*
X97569000Y-27240000D02*
X96040000Y-27240000D01*
X97572000Y-27200000D02*
X96040000Y-27200000D01*
X97575000Y-27160000D02*
X96040000Y-27160000D01*
X97577000Y-27120000D02*
X96040000Y-27120000D01*
X97579000Y-27080000D02*
X96040000Y-27080000D01*
X97580000Y-27000000D02*
X96040000Y-27000000D01*
X97580000Y-27040000D02*
X96040000Y-27040000D01*
X97620000Y-27000000D02*
G75*
G02*
X92380000Y-27000000I-2620000J0D01*
G01*
X92380000Y-27000000D02*
G75*
G02*
X97620000Y-27000000I2620000J0D01*
G01*
%TO.C,R9*%
X41090000Y-16000000D02*
X43700000Y-16000000D01*
X41090000Y-16000000D02*
G75*
G02*
X38350000Y-16000000I-1370000J0D01*
G01*
X38350000Y-16000000D02*
G75*
G02*
X41090000Y-16000000I1370000J0D01*
G01*
%TO.C,D8*%
X33344000Y-37880000D02*
X33500000Y-37880000D01*
X35660000Y-37880000D02*
X35816000Y-37880000D01*
X33344484Y-37880000D02*
G75*
G02*
X33500000Y-34648563I1235516J1560000D01*
G01*
X33500000Y-37360961D02*
G75*
G02*
X33500000Y-35279039I1080000J1040961D01*
G01*
X35660000Y-34648563D02*
G75*
G02*
X35815516Y-37880000I-1080000J-1671437D01*
G01*
X35660000Y-35279039D02*
G75*
G02*
X35660000Y-37360961I-1080000J-1040961D01*
G01*
%TO.C,Q17*%
X71180000Y-22295000D02*
X74780000Y-22295000D01*
X70623600Y-19346193D02*
G75*
G02*
X72980000Y-17845000I2356400J-1098807D01*
G01*
X71180000Y-22295000D02*
G75*
G02*
X70655816Y-21567795I1800000J1850000D01*
G01*
X72980000Y-17845000D02*
G75*
G02*
X75336400Y-19346193I0J-2600000D01*
G01*
X75304184Y-21567795D02*
G75*
G02*
X74780000Y-22295000I-2324184J1122795D01*
G01*
%TO.C,Q26*%
X82460000Y-36375000D02*
X78860000Y-36375000D01*
X78335816Y-37102205D02*
G75*
G02*
X78860000Y-36375000I2324184J-1122795D01*
G01*
X80660000Y-40825000D02*
G75*
G02*
X78303600Y-39323807I0J2600000D01*
G01*
X82460000Y-36375000D02*
G75*
G02*
X82984184Y-37102205I-1800000J-1850000D01*
G01*
X83016400Y-39323807D02*
G75*
G02*
X80660000Y-40825000I-2356400J1098807D01*
G01*
%TO.C,R17*%
X71810000Y-16000000D02*
X74420000Y-16000000D01*
X71810000Y-16000000D02*
G75*
G02*
X69070000Y-16000000I-1370000J0D01*
G01*
X69070000Y-16000000D02*
G75*
G02*
X71810000Y-16000000I1370000J0D01*
G01*
%TO.C,Q29*%
X86540000Y-22295000D02*
X90140000Y-22295000D01*
X85983600Y-19346193D02*
G75*
G02*
X88340000Y-17845000I2356400J-1098807D01*
G01*
X86540000Y-22295000D02*
G75*
G02*
X86015816Y-21567795I1800000J1850000D01*
G01*
X88340000Y-17845000D02*
G75*
G02*
X90696400Y-19346193I0J-2600000D01*
G01*
X90664184Y-21567795D02*
G75*
G02*
X90140000Y-22295000I-2324184J1122795D01*
G01*
%TO.C,R27*%
X18050000Y-49020000D02*
X20660000Y-49020000D01*
X18050000Y-49020000D02*
G75*
G02*
X15310000Y-49020000I-1370000J0D01*
G01*
X15310000Y-49020000D02*
G75*
G02*
X18050000Y-49020000I1370000J0D01*
G01*
%TO.C,Q14*%
X55820000Y-43885000D02*
X59420000Y-43885000D01*
X55263600Y-40936193D02*
G75*
G02*
X57620000Y-39435000I2356400J-1098807D01*
G01*
X55820000Y-43885000D02*
G75*
G02*
X55295816Y-43157795I1800000J1850000D01*
G01*
X57620000Y-39435000D02*
G75*
G02*
X59976400Y-40936193I0J-2600000D01*
G01*
X59944184Y-43157795D02*
G75*
G02*
X59420000Y-43885000I-2324184J1122795D01*
G01*
%TO.C,R1*%
X10370000Y-16000000D02*
X12980000Y-16000000D01*
X10370000Y-16000000D02*
G75*
G02*
X7630000Y-16000000I-1370000J0D01*
G01*
X7630000Y-16000000D02*
G75*
G02*
X10370000Y-16000000I1370000J0D01*
G01*
%TO.C,Q2*%
X9740000Y-43885000D02*
X13340000Y-43885000D01*
X9183600Y-40936193D02*
G75*
G02*
X11540000Y-39435000I2356400J-1098807D01*
G01*
X9740000Y-43885000D02*
G75*
G02*
X9215816Y-43157795I1800000J1850000D01*
G01*
X11540000Y-39435000D02*
G75*
G02*
X13896400Y-40936193I0J-2600000D01*
G01*
X13864184Y-43157795D02*
G75*
G02*
X13340000Y-43885000I-2324184J1122795D01*
G01*
%TO.C,R40*%
X62590000Y-65370000D02*
X62590000Y-67980000D01*
X63960000Y-64000000D02*
G75*
G02*
X61220000Y-64000000I-1370000J0D01*
G01*
X61220000Y-64000000D02*
G75*
G02*
X63960000Y-64000000I1370000J0D01*
G01*
%TO.C,D1*%
X10304000Y-22640000D02*
X10460000Y-22640000D01*
X12620000Y-22640000D02*
X12776000Y-22640000D01*
X10304484Y-22640000D02*
G75*
G02*
X10460000Y-19408563I1235516J1560000D01*
G01*
X10460000Y-22120961D02*
G75*
G02*
X10460000Y-20039039I1080000J1040961D01*
G01*
X12620000Y-19408563D02*
G75*
G02*
X12775516Y-22640000I-1080000J-1671437D01*
G01*
X12620000Y-20039039D02*
G75*
G02*
X12620000Y-22120961I-1080000J-1040961D01*
G01*
%TO.C,Q9*%
X40460000Y-28645000D02*
X44060000Y-28645000D01*
X39903600Y-25696193D02*
G75*
G02*
X42260000Y-24195000I2356400J-1098807D01*
G01*
X40460000Y-28645000D02*
G75*
G02*
X39935816Y-27917795I1800000J1850000D01*
G01*
X42260000Y-24195000D02*
G75*
G02*
X44616400Y-25696193I0J-2600000D01*
G01*
X44584184Y-27917795D02*
G75*
G02*
X44060000Y-28645000I-2324184J1122795D01*
G01*
%TO.C,R24*%
X87170000Y-29335000D02*
X89780000Y-29335000D01*
X87170000Y-29335000D02*
G75*
G02*
X84430000Y-29335000I-1370000J0D01*
G01*
X84430000Y-29335000D02*
G75*
G02*
X87170000Y-29335000I1370000J0D01*
G01*
%TO.C,Q22*%
X71180000Y-54045000D02*
X74780000Y-54045000D01*
X70623600Y-51096193D02*
G75*
G02*
X72980000Y-49595000I2356400J-1098807D01*
G01*
X71180000Y-54045000D02*
G75*
G02*
X70655816Y-53317795I1800000J1850000D01*
G01*
X72980000Y-49595000D02*
G75*
G02*
X75336400Y-51096193I0J-2600000D01*
G01*
X75304184Y-53317795D02*
G75*
G02*
X74780000Y-54045000I-2324184J1122795D01*
G01*
%TO.C,R35*%
X48770000Y-49020000D02*
X51380000Y-49020000D01*
X48770000Y-49020000D02*
G75*
G02*
X46030000Y-49020000I-1370000J0D01*
G01*
X46030000Y-49020000D02*
G75*
G02*
X48770000Y-49020000I1370000J0D01*
G01*
%TO.C,Q8*%
X36380000Y-40185000D02*
X32780000Y-40185000D01*
X32255816Y-40912205D02*
G75*
G02*
X32780000Y-40185000I2324184J-1122795D01*
G01*
X34580000Y-44635000D02*
G75*
G02*
X32223600Y-43133807I0J2600000D01*
G01*
X36380000Y-40185000D02*
G75*
G02*
X36904184Y-40912205I-1800000J-1850000D01*
G01*
X36936400Y-43133807D02*
G75*
G02*
X34580000Y-44635000I-2356400J1098807D01*
G01*
%TO.C,R19*%
X71810000Y-42670000D02*
X74420000Y-42670000D01*
X71810000Y-42670000D02*
G75*
G02*
X69070000Y-42670000I-1370000J0D01*
G01*
X69070000Y-42670000D02*
G75*
G02*
X71810000Y-42670000I1370000J0D01*
G01*
%TO.C,R28*%
X18050000Y-54100000D02*
X20660000Y-54100000D01*
X18050000Y-54100000D02*
G75*
G02*
X15310000Y-54100000I-1370000J0D01*
G01*
X15310000Y-54100000D02*
G75*
G02*
X18050000Y-54100000I1370000J0D01*
G01*
%TO.C,R18*%
X71810000Y-29335000D02*
X74420000Y-29335000D01*
X71810000Y-29335000D02*
G75*
G02*
X69070000Y-29335000I-1370000J0D01*
G01*
X69070000Y-29335000D02*
G75*
G02*
X71810000Y-29335000I1370000J0D01*
G01*
%TO.C,Q30*%
X86540000Y-27375000D02*
X90140000Y-27375000D01*
X85983600Y-24426193D02*
G75*
G02*
X88340000Y-22925000I2356400J-1098807D01*
G01*
X86540000Y-27375000D02*
G75*
G02*
X86015816Y-26647795I1800000J1850000D01*
G01*
X88340000Y-22925000D02*
G75*
G02*
X90696400Y-24426193I0J-2600000D01*
G01*
X90664184Y-26647795D02*
G75*
G02*
X90140000Y-27375000I-2324184J1122795D01*
G01*
%TO.C,R15*%
X64130000Y-16000000D02*
X66740000Y-16000000D01*
X64130000Y-16000000D02*
G75*
G02*
X61390000Y-16000000I-1370000J0D01*
G01*
X61390000Y-16000000D02*
G75*
G02*
X64130000Y-16000000I1370000J0D01*
G01*
%TO.C,Q13*%
X55820000Y-28645000D02*
X59420000Y-28645000D01*
X55263600Y-25696193D02*
G75*
G02*
X57620000Y-24195000I2356400J-1098807D01*
G01*
X55820000Y-28645000D02*
G75*
G02*
X55295816Y-27917795I1800000J1850000D01*
G01*
X57620000Y-24195000D02*
G75*
G02*
X59976400Y-25696193I0J-2600000D01*
G01*
X59944184Y-27917795D02*
G75*
G02*
X59420000Y-28645000I-2324184J1122795D01*
G01*
%TO.C,Q19*%
X71180000Y-35630000D02*
X74780000Y-35630000D01*
X70623600Y-32681193D02*
G75*
G02*
X72980000Y-31180000I2356400J-1098807D01*
G01*
X71180000Y-35630000D02*
G75*
G02*
X70655816Y-34902795I1800000J1850000D01*
G01*
X72980000Y-31180000D02*
G75*
G02*
X75336400Y-32681193I0J-2600000D01*
G01*
X75304184Y-34902795D02*
G75*
G02*
X74780000Y-35630000I-2324184J1122795D01*
G01*
%TO.C,Q27*%
X82460000Y-44630000D02*
X78860000Y-44630000D01*
X78335816Y-45357205D02*
G75*
G02*
X78860000Y-44630000I2324184J-1122795D01*
G01*
X80660000Y-49080000D02*
G75*
G02*
X78303600Y-47578807I0J2600000D01*
G01*
X82460000Y-44630000D02*
G75*
G02*
X82984184Y-45357205I-1800000J-1850000D01*
G01*
X83016400Y-47578807D02*
G75*
G02*
X80660000Y-49080000I-2356400J1098807D01*
G01*
%TO.C,R29*%
X25730000Y-49020000D02*
X28340000Y-49020000D01*
X25730000Y-49020000D02*
G75*
G02*
X22990000Y-49020000I-1370000J0D01*
G01*
X22990000Y-49020000D02*
G75*
G02*
X25730000Y-49020000I1370000J0D01*
G01*
%TO.C,D3*%
X17984000Y-22640000D02*
X18140000Y-22640000D01*
X20300000Y-22640000D02*
X20456000Y-22640000D01*
X17984484Y-22640000D02*
G75*
G02*
X18140000Y-19408563I1235516J1560000D01*
G01*
X18140000Y-22120961D02*
G75*
G02*
X18140000Y-20039039I1080000J1040961D01*
G01*
X20300000Y-19408563D02*
G75*
G02*
X20455516Y-22640000I-1080000J-1671437D01*
G01*
X20300000Y-20039039D02*
G75*
G02*
X20300000Y-22120961I-1080000J-1040961D01*
G01*
%TO.C,R39*%
X68590000Y-65370000D02*
X68590000Y-67980000D01*
X69960000Y-64000000D02*
G75*
G02*
X67220000Y-64000000I-1370000J0D01*
G01*
X67220000Y-64000000D02*
G75*
G02*
X69960000Y-64000000I1370000J0D01*
G01*
%TO.C,R30*%
X25730000Y-54100000D02*
X28340000Y-54100000D01*
X25730000Y-54100000D02*
G75*
G02*
X22990000Y-54100000I-1370000J0D01*
G01*
X22990000Y-54100000D02*
G75*
G02*
X25730000Y-54100000I1370000J0D01*
G01*
%TO.C,D10*%
X41024000Y-37880000D02*
X41180000Y-37880000D01*
X43340000Y-37880000D02*
X43496000Y-37880000D01*
X41024484Y-37880000D02*
G75*
G02*
X41180000Y-34648563I1235516J1560000D01*
G01*
X41180000Y-37360961D02*
G75*
G02*
X41180000Y-35279039I1080000J1040961D01*
G01*
X43340000Y-34648563D02*
G75*
G02*
X43495516Y-37880000I-1080000J-1671437D01*
G01*
X43340000Y-35279039D02*
G75*
G02*
X43340000Y-37360961I-1080000J-1040961D01*
G01*
%TO.C,R12*%
X48770000Y-31240000D02*
X51380000Y-31240000D01*
X48770000Y-31240000D02*
G75*
G02*
X46030000Y-31240000I-1370000J0D01*
G01*
X46030000Y-31240000D02*
G75*
G02*
X48770000Y-31240000I1370000J0D01*
G01*
%TO.C,R11*%
X48770000Y-16000000D02*
X51380000Y-16000000D01*
X48770000Y-16000000D02*
G75*
G02*
X46030000Y-16000000I-1370000J0D01*
G01*
X46030000Y-16000000D02*
G75*
G02*
X48770000Y-16000000I1370000J0D01*
G01*
%TO.C,Q20*%
X71180000Y-40710000D02*
X74780000Y-40710000D01*
X70623600Y-37761193D02*
G75*
G02*
X72980000Y-36260000I2356400J-1098807D01*
G01*
X71180000Y-40710000D02*
G75*
G02*
X70655816Y-39982795I1800000J1850000D01*
G01*
X72980000Y-36260000D02*
G75*
G02*
X75336400Y-37761193I0J-2600000D01*
G01*
X75304184Y-39982795D02*
G75*
G02*
X74780000Y-40710000I-2324184J1122795D01*
G01*
%TO.C,R10*%
X41090000Y-31240000D02*
X43700000Y-31240000D01*
X41090000Y-31240000D02*
G75*
G02*
X38350000Y-31240000I-1370000J0D01*
G01*
X38350000Y-31240000D02*
G75*
G02*
X41090000Y-31240000I1370000J0D01*
G01*
%TO.C,D7*%
X33344000Y-22640000D02*
X33500000Y-22640000D01*
X35660000Y-22640000D02*
X35816000Y-22640000D01*
X33344484Y-22640000D02*
G75*
G02*
X33500000Y-19408563I1235516J1560000D01*
G01*
X33500000Y-22120961D02*
G75*
G02*
X33500000Y-20039039I1080000J1040961D01*
G01*
X35660000Y-19408563D02*
G75*
G02*
X35815516Y-22640000I-1080000J-1671437D01*
G01*
X35660000Y-20039039D02*
G75*
G02*
X35660000Y-22120961I-1080000J-1040961D01*
G01*
%TO.C,D15*%
X64064000Y-22640000D02*
X64220000Y-22640000D01*
X66380000Y-22640000D02*
X66536000Y-22640000D01*
X64064484Y-22640000D02*
G75*
G02*
X64220000Y-19408563I1235516J1560000D01*
G01*
X64220000Y-22120961D02*
G75*
G02*
X64220000Y-20039039I1080000J1040961D01*
G01*
X66380000Y-19408563D02*
G75*
G02*
X66535516Y-22640000I-1080000J-1671437D01*
G01*
X66380000Y-20039039D02*
G75*
G02*
X66380000Y-22120961I-1080000J-1040961D01*
G01*
%TD*%
M02*
