%TF.GenerationSoftware,KiCad,Pcbnew,10.0.5*%
%TF.CreationDate,2026-09-14T17:02:10-04:00*%
%TF.ProjectId,panelc,70616e65-6c63-42e6-9b69-6361645f7063,rev?*%
%TF.SameCoordinates,Original*%
%TF.FileFunction,Other,User*%
%FSLAX46Y46*%
G04 Gerber Fmt 4.6, Leading zero omitted, Abs format (unit mm)*
G04 Created by KiCad (PCBNEW 10.0.5) date 2026-09-14 17:02:10*
%MOMM*%
%LPD*%
G01*
G04 APERTURE LIST*
%ADD10C,0.050000*%
G04 APERTURE END LIST*
%TO.C,Q16*%
D10*
X61750000Y-40025000D02*
X61750000Y-44765000D01*
X61750000Y-40025000D02*
X68850000Y-40025000D01*
X68850000Y-44765000D02*
X61750000Y-44765000D01*
X68850000Y-44765000D02*
X68850000Y-40025000D01*
%TO.C,R21*%
X76620000Y-27835000D02*
X84250000Y-27835000D01*
X84250000Y-30835000D01*
X76620000Y-30835000D01*
X76620000Y-27835000D01*
%TO.C,R3*%
X15180000Y-14500000D02*
X22810000Y-14500000D01*
X22810000Y-17500000D01*
X15180000Y-17500000D01*
X15180000Y-14500000D01*
%TO.C,D11*%
X47730000Y-18660000D02*
X52150000Y-18660000D01*
X52150000Y-23500000D01*
X47730000Y-23500000D01*
X47730000Y-18660000D01*
%TO.C,R23*%
X84300000Y-14500000D02*
X91930000Y-14500000D01*
X91930000Y-17500000D01*
X84300000Y-17500000D01*
X84300000Y-14500000D01*
%TO.C,Q3*%
X15670000Y-24785000D02*
X15670000Y-29525000D01*
X15670000Y-24785000D02*
X22770000Y-24785000D01*
X22770000Y-29525000D02*
X15670000Y-29525000D01*
X22770000Y-29525000D02*
X22770000Y-24785000D01*
%TO.C,Q11*%
X46390000Y-24785000D02*
X46390000Y-29525000D01*
X46390000Y-24785000D02*
X53490000Y-24785000D01*
X53490000Y-29525000D02*
X46390000Y-29525000D01*
X53490000Y-29525000D02*
X53490000Y-24785000D01*
%TO.C,Q21*%
X69430000Y-44385000D02*
X69430000Y-49125000D01*
X69430000Y-44385000D02*
X76530000Y-44385000D01*
X76530000Y-49125000D02*
X69430000Y-49125000D01*
X76530000Y-49125000D02*
X76530000Y-44385000D01*
%TO.C,Q31*%
X84790000Y-31050000D02*
X84790000Y-35790000D01*
X84790000Y-31050000D02*
X91890000Y-31050000D01*
X91890000Y-35790000D02*
X84790000Y-35790000D01*
X91890000Y-35790000D02*
X91890000Y-31050000D01*
%TO.C,D9*%
X40050000Y-18660000D02*
X44470000Y-18660000D01*
X44470000Y-23500000D01*
X40050000Y-23500000D01*
X40050000Y-18660000D01*
%TO.C,H2*%
X99450000Y-50000000D02*
G75*
G02*
X92550000Y-50000000I-3450000J0D01*
G01*
X92550000Y-50000000D02*
G75*
G02*
X99450000Y-50000000I3450000J0D01*
G01*
%TO.C,R16*%
X61260000Y-29740000D02*
X68890000Y-29740000D01*
X68890000Y-32740000D01*
X61260000Y-32740000D01*
X61260000Y-29740000D01*
%TO.C,R20*%
X76620000Y-14500000D02*
X84250000Y-14500000D01*
X84250000Y-17500000D01*
X76620000Y-17500000D01*
X76620000Y-14500000D01*
%TO.C,R2*%
X7500000Y-29740000D02*
X15130000Y-29740000D01*
X15130000Y-32740000D01*
X7500000Y-32740000D01*
X7500000Y-29740000D01*
%TO.C,D16*%
X63090000Y-33900000D02*
X67510000Y-33900000D01*
X67510000Y-38740000D01*
X63090000Y-38740000D01*
X63090000Y-33900000D01*
%TO.C,R38*%
X73090000Y-62500000D02*
X76090000Y-62500000D01*
X76090000Y-70130000D01*
X73090000Y-70130000D01*
X73090000Y-62500000D01*
%TO.C,D12*%
X47730000Y-33900000D02*
X52150000Y-33900000D01*
X52150000Y-38740000D01*
X47730000Y-38740000D01*
X47730000Y-33900000D01*
%TO.C,Q5*%
X23350000Y-24065000D02*
X23350000Y-28805000D01*
X23350000Y-24065000D02*
X30450000Y-24065000D01*
X30450000Y-28805000D02*
X23350000Y-28805000D01*
X30450000Y-28805000D02*
X30450000Y-24065000D01*
%TO.C,D6*%
X24690000Y-33900000D02*
X29110000Y-33900000D01*
X29110000Y-38740000D01*
X24690000Y-38740000D01*
X24690000Y-33900000D01*
%TO.C,R26*%
X7500000Y-52600000D02*
X15130000Y-52600000D01*
X15130000Y-55600000D01*
X7500000Y-55600000D01*
X7500000Y-52600000D01*
%TO.C,R32*%
X30540000Y-52600000D02*
X38170000Y-52600000D01*
X38170000Y-55600000D01*
X30540000Y-55600000D01*
X30540000Y-52600000D01*
%TO.C,Q12*%
X46390000Y-40025000D02*
X46390000Y-44765000D01*
X46390000Y-40025000D02*
X53490000Y-40025000D01*
X53490000Y-44765000D02*
X46390000Y-44765000D01*
X53490000Y-44765000D02*
X53490000Y-40025000D01*
%TO.C,Q23*%
X77110000Y-17800000D02*
X77110000Y-22540000D01*
X77110000Y-17800000D02*
X84210000Y-17800000D01*
X84210000Y-22540000D02*
X77110000Y-22540000D01*
X84210000Y-22540000D02*
X84210000Y-17800000D01*
%TO.C,D4*%
X17010000Y-33900000D02*
X21430000Y-33900000D01*
X21430000Y-38740000D01*
X17010000Y-38740000D01*
X17010000Y-33900000D01*
%TO.C,Q24*%
X77110000Y-22880000D02*
X77110000Y-27620000D01*
X77110000Y-22880000D02*
X84210000Y-22880000D01*
X84210000Y-27620000D02*
X77110000Y-27620000D01*
X84210000Y-27620000D02*
X84210000Y-22880000D01*
%TO.C,Q10*%
X38710000Y-39305000D02*
X38710000Y-44045000D01*
X38710000Y-39305000D02*
X45810000Y-39305000D01*
X45810000Y-44045000D02*
X38710000Y-44045000D01*
X45810000Y-44045000D02*
X45810000Y-39305000D01*
%TO.C,Q25*%
X77110000Y-31135000D02*
X77110000Y-35875000D01*
X77110000Y-31135000D02*
X84210000Y-31135000D01*
X84210000Y-35875000D02*
X77110000Y-35875000D01*
X84210000Y-35875000D02*
X84210000Y-31135000D01*
%TO.C,R33*%
X38220000Y-47520000D02*
X45850000Y-47520000D01*
X45850000Y-50520000D01*
X38220000Y-50520000D01*
X38220000Y-47520000D01*
%TO.C,R36*%
X45900000Y-52600000D02*
X53530000Y-52600000D01*
X53530000Y-55600000D01*
X45900000Y-55600000D01*
X45900000Y-52600000D01*
%TO.C,R8*%
X30540000Y-29740000D02*
X38170000Y-29740000D01*
X38170000Y-32740000D01*
X30540000Y-32740000D01*
X30540000Y-29740000D01*
%TO.C,C1*%
X93500000Y-15000000D02*
X96500000Y-15000000D01*
X96500000Y-20500000D01*
X93500000Y-20500000D01*
X93500000Y-15000000D01*
%TO.C,R31*%
X30540000Y-47520000D02*
X38170000Y-47520000D01*
X38170000Y-50520000D01*
X30540000Y-50520000D01*
X30540000Y-47520000D01*
%TO.C,J1*%
X5030000Y-1280000D02*
X94970000Y-1280000D01*
X94970000Y-11180000D01*
X5030000Y-11180000D01*
X5030000Y-1280000D01*
%TO.C,R13*%
X53580000Y-14500000D02*
X61210000Y-14500000D01*
X61210000Y-17500000D01*
X53580000Y-17500000D01*
X53580000Y-14500000D01*
%TO.C,D13*%
X55410000Y-18660000D02*
X59830000Y-18660000D01*
X59830000Y-23500000D01*
X55410000Y-23500000D01*
X55410000Y-18660000D01*
%TO.C,R22*%
X76620000Y-41170000D02*
X84250000Y-41170000D01*
X84250000Y-44170000D01*
X76620000Y-44170000D01*
X76620000Y-41170000D01*
%TO.C,R7*%
X30540000Y-14500000D02*
X38170000Y-14500000D01*
X38170000Y-17500000D01*
X30540000Y-17500000D01*
X30540000Y-14500000D01*
%TO.C,R25*%
X7500000Y-47520000D02*
X15130000Y-47520000D01*
X15130000Y-50520000D01*
X7500000Y-50520000D01*
X7500000Y-47520000D01*
%TO.C,Q18*%
X69430000Y-22795000D02*
X69430000Y-27535000D01*
X69430000Y-22795000D02*
X76530000Y-22795000D01*
X76530000Y-27535000D02*
X69430000Y-27535000D01*
X76530000Y-27535000D02*
X76530000Y-22795000D01*
%TO.C,R4*%
X15180000Y-29740000D02*
X22810000Y-29740000D01*
X22810000Y-32740000D01*
X15180000Y-32740000D01*
X15180000Y-29740000D01*
%TO.C,R34*%
X38220000Y-52600000D02*
X45850000Y-52600000D01*
X45850000Y-55600000D01*
X38220000Y-55600000D01*
X38220000Y-52600000D01*
%TO.C,Q4*%
X15670000Y-40025000D02*
X15670000Y-44765000D01*
X15670000Y-40025000D02*
X22770000Y-40025000D01*
X22770000Y-44765000D02*
X15670000Y-44765000D01*
X22770000Y-44765000D02*
X22770000Y-40025000D01*
%TO.C,Q32*%
X84790000Y-36130000D02*
X84790000Y-40870000D01*
X84790000Y-36130000D02*
X91890000Y-36130000D01*
X91890000Y-40870000D02*
X84790000Y-40870000D01*
X91890000Y-40870000D02*
X91890000Y-36130000D01*
%TO.C,Q6*%
X23350000Y-39305000D02*
X23350000Y-44045000D01*
X23350000Y-39305000D02*
X30450000Y-39305000D01*
X30450000Y-44045000D02*
X23350000Y-44045000D01*
X30450000Y-44045000D02*
X30450000Y-39305000D01*
%TO.C,D14*%
X55410000Y-33900000D02*
X59830000Y-33900000D01*
X59830000Y-38740000D01*
X55410000Y-38740000D01*
X55410000Y-33900000D01*
%TO.C,Q15*%
X61750000Y-24785000D02*
X61750000Y-29525000D01*
X61750000Y-24785000D02*
X68850000Y-24785000D01*
X68850000Y-29525000D02*
X61750000Y-29525000D01*
X68850000Y-29525000D02*
X68850000Y-24785000D01*
%TO.C,Q1*%
X7990000Y-24065000D02*
X7990000Y-28805000D01*
X7990000Y-24065000D02*
X15090000Y-24065000D01*
X15090000Y-28805000D02*
X7990000Y-28805000D01*
X15090000Y-28805000D02*
X15090000Y-24065000D01*
%TO.C,R37*%
X79090000Y-62500000D02*
X82090000Y-62500000D01*
X82090000Y-70130000D01*
X79090000Y-70130000D01*
X79090000Y-62500000D01*
%TO.C,Q28*%
X77110000Y-49550000D02*
X77110000Y-54290000D01*
X77110000Y-49550000D02*
X84210000Y-49550000D01*
X84210000Y-54290000D02*
X77110000Y-54290000D01*
X84210000Y-54290000D02*
X84210000Y-49550000D01*
%TO.C,Q7*%
X31030000Y-24785000D02*
X31030000Y-29525000D01*
X31030000Y-24785000D02*
X38130000Y-24785000D01*
X38130000Y-29525000D02*
X31030000Y-29525000D01*
X38130000Y-29525000D02*
X38130000Y-24785000D01*
%TO.C,R5*%
X22860000Y-14500000D02*
X30490000Y-14500000D01*
X30490000Y-17500000D01*
X22860000Y-17500000D01*
X22860000Y-14500000D01*
%TO.C,D5*%
X24690000Y-18660000D02*
X29110000Y-18660000D01*
X29110000Y-23500000D01*
X24690000Y-23500000D01*
X24690000Y-18660000D01*
%TO.C,R6*%
X22860000Y-29740000D02*
X30490000Y-29740000D01*
X30490000Y-32740000D01*
X22860000Y-32740000D01*
X22860000Y-29740000D01*
%TO.C,SW1*%
X83260000Y-61330000D02*
X93540000Y-61330000D01*
X93540000Y-74290000D01*
X83260000Y-74290000D01*
X83260000Y-61330000D01*
%TO.C,D2*%
X9330000Y-33900000D02*
X13750000Y-33900000D01*
X13750000Y-38740000D01*
X9330000Y-38740000D01*
X9330000Y-33900000D01*
%TO.C,R14*%
X53580000Y-29740000D02*
X61210000Y-29740000D01*
X61210000Y-32740000D01*
X53580000Y-32740000D01*
X53580000Y-29740000D01*
%TO.C,C2*%
X97750000Y-27000000D02*
G75*
G02*
X92250000Y-27000000I-2750000J0D01*
G01*
X92250000Y-27000000D02*
G75*
G02*
X97750000Y-27000000I2750000J0D01*
G01*
%TO.C,R9*%
X38220000Y-14500000D02*
X45850000Y-14500000D01*
X45850000Y-17500000D01*
X38220000Y-17500000D01*
X38220000Y-14500000D01*
%TO.C,D8*%
X32370000Y-33900000D02*
X36790000Y-33900000D01*
X36790000Y-38740000D01*
X32370000Y-38740000D01*
X32370000Y-33900000D01*
%TO.C,Q17*%
X69430000Y-17715000D02*
X69430000Y-22455000D01*
X69430000Y-17715000D02*
X76530000Y-17715000D01*
X76530000Y-22455000D02*
X69430000Y-22455000D01*
X76530000Y-22455000D02*
X76530000Y-17715000D01*
%TO.C,Q26*%
X77110000Y-36215000D02*
X77110000Y-40955000D01*
X77110000Y-36215000D02*
X84210000Y-36215000D01*
X84210000Y-40955000D02*
X77110000Y-40955000D01*
X84210000Y-40955000D02*
X84210000Y-36215000D01*
%TO.C,R17*%
X68940000Y-14500000D02*
X76570000Y-14500000D01*
X76570000Y-17500000D01*
X68940000Y-17500000D01*
X68940000Y-14500000D01*
%TO.C,Q29*%
X84790000Y-17715000D02*
X84790000Y-22455000D01*
X84790000Y-17715000D02*
X91890000Y-17715000D01*
X91890000Y-22455000D02*
X84790000Y-22455000D01*
X91890000Y-22455000D02*
X91890000Y-17715000D01*
%TO.C,R27*%
X15180000Y-47520000D02*
X22810000Y-47520000D01*
X22810000Y-50520000D01*
X15180000Y-50520000D01*
X15180000Y-47520000D01*
%TO.C,Q14*%
X54070000Y-39305000D02*
X54070000Y-44045000D01*
X54070000Y-39305000D02*
X61170000Y-39305000D01*
X61170000Y-44045000D02*
X54070000Y-44045000D01*
X61170000Y-44045000D02*
X61170000Y-39305000D01*
%TO.C,R1*%
X7500000Y-14500000D02*
X15130000Y-14500000D01*
X15130000Y-17500000D01*
X7500000Y-17500000D01*
X7500000Y-14500000D01*
%TO.C,Q2*%
X7990000Y-39305000D02*
X7990000Y-44045000D01*
X7990000Y-39305000D02*
X15090000Y-39305000D01*
X15090000Y-44045000D02*
X7990000Y-44045000D01*
X15090000Y-44045000D02*
X15090000Y-39305000D01*
%TO.C,R40*%
X61090000Y-62500000D02*
X64090000Y-62500000D01*
X64090000Y-70130000D01*
X61090000Y-70130000D01*
X61090000Y-62500000D01*
%TO.C,D1*%
X9330000Y-18660000D02*
X13750000Y-18660000D01*
X13750000Y-23500000D01*
X9330000Y-23500000D01*
X9330000Y-18660000D01*
%TO.C,Q9*%
X38710000Y-24065000D02*
X38710000Y-28805000D01*
X38710000Y-24065000D02*
X45810000Y-24065000D01*
X45810000Y-28805000D02*
X38710000Y-28805000D01*
X45810000Y-28805000D02*
X45810000Y-24065000D01*
%TO.C,R24*%
X84300000Y-27835000D02*
X91930000Y-27835000D01*
X91930000Y-30835000D01*
X84300000Y-30835000D01*
X84300000Y-27835000D01*
%TO.C,Q22*%
X69430000Y-49465000D02*
X69430000Y-54205000D01*
X69430000Y-49465000D02*
X76530000Y-49465000D01*
X76530000Y-54205000D02*
X69430000Y-54205000D01*
X76530000Y-54205000D02*
X76530000Y-49465000D01*
%TO.C,R35*%
X45900000Y-47520000D02*
X53530000Y-47520000D01*
X53530000Y-50520000D01*
X45900000Y-50520000D01*
X45900000Y-47520000D01*
%TO.C,Q8*%
X31030000Y-40025000D02*
X31030000Y-44765000D01*
X31030000Y-40025000D02*
X38130000Y-40025000D01*
X38130000Y-44765000D02*
X31030000Y-44765000D01*
X38130000Y-44765000D02*
X38130000Y-40025000D01*
%TO.C,R19*%
X68940000Y-41170000D02*
X76570000Y-41170000D01*
X76570000Y-44170000D01*
X68940000Y-44170000D01*
X68940000Y-41170000D01*
%TO.C,R28*%
X15180000Y-52600000D02*
X22810000Y-52600000D01*
X22810000Y-55600000D01*
X15180000Y-55600000D01*
X15180000Y-52600000D01*
%TO.C,R18*%
X68940000Y-27835000D02*
X76570000Y-27835000D01*
X76570000Y-30835000D01*
X68940000Y-30835000D01*
X68940000Y-27835000D01*
%TO.C,Q30*%
X84790000Y-22795000D02*
X84790000Y-27535000D01*
X84790000Y-22795000D02*
X91890000Y-22795000D01*
X91890000Y-27535000D02*
X84790000Y-27535000D01*
X91890000Y-27535000D02*
X91890000Y-22795000D01*
%TO.C,R15*%
X61260000Y-14500000D02*
X68890000Y-14500000D01*
X68890000Y-17500000D01*
X61260000Y-17500000D01*
X61260000Y-14500000D01*
%TO.C,Q13*%
X54070000Y-24065000D02*
X54070000Y-28805000D01*
X54070000Y-24065000D02*
X61170000Y-24065000D01*
X61170000Y-28805000D02*
X54070000Y-28805000D01*
X61170000Y-28805000D02*
X61170000Y-24065000D01*
%TO.C,Q19*%
X69430000Y-31050000D02*
X69430000Y-35790000D01*
X69430000Y-31050000D02*
X76530000Y-31050000D01*
X76530000Y-35790000D02*
X69430000Y-35790000D01*
X76530000Y-35790000D02*
X76530000Y-31050000D01*
%TO.C,Q27*%
X77110000Y-44470000D02*
X77110000Y-49210000D01*
X77110000Y-44470000D02*
X84210000Y-44470000D01*
X84210000Y-49210000D02*
X77110000Y-49210000D01*
X84210000Y-49210000D02*
X84210000Y-44470000D01*
%TO.C,R29*%
X22860000Y-47520000D02*
X30490000Y-47520000D01*
X30490000Y-50520000D01*
X22860000Y-50520000D01*
X22860000Y-47520000D01*
%TO.C,D3*%
X17010000Y-18660000D02*
X21430000Y-18660000D01*
X21430000Y-23500000D01*
X17010000Y-23500000D01*
X17010000Y-18660000D01*
%TO.C,R39*%
X67090000Y-62500000D02*
X70090000Y-62500000D01*
X70090000Y-70130000D01*
X67090000Y-70130000D01*
X67090000Y-62500000D01*
%TO.C,H1*%
X7450000Y-50000000D02*
G75*
G02*
X550000Y-50000000I-3450000J0D01*
G01*
X550000Y-50000000D02*
G75*
G02*
X7450000Y-50000000I3450000J0D01*
G01*
%TO.C,R30*%
X22860000Y-52600000D02*
X30490000Y-52600000D01*
X30490000Y-55600000D01*
X22860000Y-55600000D01*
X22860000Y-52600000D01*
%TO.C,D10*%
X40050000Y-33900000D02*
X44470000Y-33900000D01*
X44470000Y-38740000D01*
X40050000Y-38740000D01*
X40050000Y-33900000D01*
%TO.C,R12*%
X45900000Y-29740000D02*
X53530000Y-29740000D01*
X53530000Y-32740000D01*
X45900000Y-32740000D01*
X45900000Y-29740000D01*
%TO.C,R11*%
X45900000Y-14500000D02*
X53530000Y-14500000D01*
X53530000Y-17500000D01*
X45900000Y-17500000D01*
X45900000Y-14500000D01*
%TO.C,Q20*%
X69430000Y-36130000D02*
X69430000Y-40870000D01*
X69430000Y-36130000D02*
X76530000Y-36130000D01*
X76530000Y-40870000D02*
X69430000Y-40870000D01*
X76530000Y-40870000D02*
X76530000Y-36130000D01*
%TO.C,R10*%
X38220000Y-29740000D02*
X45850000Y-29740000D01*
X45850000Y-32740000D01*
X38220000Y-32740000D01*
X38220000Y-29740000D01*
%TO.C,D7*%
X32370000Y-18660000D02*
X36790000Y-18660000D01*
X36790000Y-23500000D01*
X32370000Y-23500000D01*
X32370000Y-18660000D01*
%TO.C,D15*%
X63090000Y-18660000D02*
X67510000Y-18660000D01*
X67510000Y-23500000D01*
X63090000Y-23500000D01*
X63090000Y-18660000D01*
%TD*%
M02*
